<svg width="24" height="24" viewBox="0 0 24 24" fill="none" xmlns="http://www.w3.org/2000/svg">
<path d="M21.75 8.62498H17.1375C17.1375 8.62498 17.1375 8.58748 17.1 8.58748L14.0625 5.54998C14.175 5.28748 14.25 4.98748 14.25 4.68748C14.25 3.44998 13.275 2.47498 12.0375 2.47498C10.8 2.47498 9.82499 3.44998 9.82499 4.68748C9.82499 4.98748 9.89999 5.28748 10.0125 5.54998L6.89999 8.62498C6.89999 8.62498 6.89999 8.66248 6.86249 8.66248H2.24999C1.16249 8.66248 0.299988 9.56248 0.299988 10.6125V19.5375C0.299988 20.625 1.19999 21.4875 2.24999 21.4875H21.75C22.8375 21.4875 23.7 20.5875 23.7 19.5375V10.6125C23.7375 9.52498 22.8375 8.62498 21.75 8.62498ZM12 4.16248C12.3 4.16248 12.525 4.38748 12.525 4.68748C12.525 4.83748 12.4875 4.94998 12.375 5.06248C12.2625 5.13748 12.15 5.21248 12 5.21248C11.85 5.21248 11.7375 5.17498 11.625 5.06248C11.55 4.94998 11.475 4.83748 11.475 4.68748C11.475 4.42498 11.7 4.16248 12 4.16248ZM11.1375 6.74998C11.4 6.86248 11.7 6.93748 12 6.93748C12.3 6.93748 12.6 6.86248 12.8625 6.74998L14.775 8.66248H9.26249L11.1375 6.74998ZM22.05 19.5375C22.05 19.6875 21.9375 19.8375 21.75 19.8375H2.24999C2.09999 19.8375 1.94999 19.725 1.94999 19.5375V10.6125C1.94999 10.4625 2.06249 10.3125 2.24999 10.3125H21.75C21.9 10.3125 22.05 10.425 22.05 10.6125V19.5375Z" fill="#161A23"/>
<path d="M6.4125 12H4.2C3.75 12 3.375 12.375 3.375 12.8625C3.375 13.35 3.75 13.6875 4.2 13.6875H5.5875V14.625H4.2C3.75 14.625 3.375 15 3.375 15.4875V17.5875C3.375 18.0375 3.75 18.4125 4.2 18.4125H6.4125C6.8625 18.4125 7.2375 18.0375 7.2375 17.5875C7.2375 17.1375 6.8625 16.7625 6.4125 16.7625H5.025V16.35H6.4125C6.8625 16.35 7.2375 15.975 7.2375 15.525V12.9C7.275 12.375 6.9 12 6.4125 12Z" fill="#161A23"/>
<path d="M11.025 12.0375C10.575 12.0375 10.2 12.4125 10.2 12.8625V14.3625H9.44999V12.8625C9.44999 12.4125 9.07499 12.0375 8.62499 12.0375C8.17499 12.0375 7.79999 12.4125 7.79999 12.8625V15.1875C7.79999 15.6375 8.17499 16.0125 8.62499 16.0125H10.2375V17.55C10.2375 18 10.6125 18.375 11.0625 18.375C11.5125 18.375 11.8875 18 11.8875 17.55V12.9C11.8875 12.4125 11.5125 12.0375 11.025 12.0375Z" fill="#161A23"/>
<path d="M19.575 12.2625H17.1375C16.6875 12.2625 16.3125 12.6375 16.3125 13.0875C16.3125 13.5375 16.6875 13.9125 17.1375 13.9125H18.4875L17.55 17.475C17.4375 17.925 17.7 18.375 18.15 18.525C18.225 18.5625 18.3 18.5625 18.375 18.5625C18.75 18.5625 19.0875 18.3 19.2 17.925L20.4375 13.3125C20.5125 13.05 20.4375 12.7875 20.2875 12.6C20.1 12.375 19.8375 12.2625 19.575 12.2625Z" fill="#161A23"/>
<path d="M15.1875 14.55H13.8375C13.3875 14.55 13.0125 14.925 13.0125 15.375C13.0125 15.825 13.3875 16.2 13.8375 16.2H15.1875C15.6375 16.2 16.0125 15.825 16.0125 15.375C16.0125 14.925 15.675 14.55 15.1875 14.55Z" fill="#161A23"/>
</svg>
