<svg width="24" height="24" viewBox="0 0 24 24" fill="none" xmlns="http://www.w3.org/2000/svg">
<path d="M7.83749 13.4625C8.28749 13.4625 8.66249 13.0875 8.66249 12.6375V10.0125C8.66249 9.5625 8.28749 9.1875 7.83749 9.1875H5.62499C5.17499 9.1875 4.79999 9.5625 4.79999 10.0125C4.79999 10.4625 5.17499 10.8375 5.62499 10.8375H7.01249V11.775H5.62499C5.17499 11.775 4.79999 12.15 4.79999 12.6V14.7C4.79999 15.15 5.17499 15.525 5.62499 15.525H7.83749C8.28749 15.525 8.66249 15.15 8.66249 14.7C8.66249 14.25 8.28749 13.875 7.83749 13.875H6.44999V13.4625H7.83749Z" fill="#161A23"/>
<path d="M12.4125 15.5625C12.8625 15.5625 13.2375 15.1875 13.2375 14.7375V12.375V12.2625V10.05C13.2375 9.60001 12.8625 9.22501 12.4125 9.22501C11.9625 9.22501 11.5875 9.60001 11.5875 10.05V11.55H10.8375V10.05C10.8375 9.60001 10.4625 9.22501 10.0125 9.22501C9.5625 9.22501 9.1875 9.60001 9.1875 10.05V12.375C9.1875 12.825 9.5625 13.2 10.0125 13.2H11.625V14.7375C11.5875 15.1875 11.9625 15.5625 12.4125 15.5625Z" fill="#161A23"/>
<path d="M19.1625 15.675C19.2375 15.7125 19.3125 15.7125 19.3875 15.7125C19.7625 15.7125 20.1 15.45 20.2125 15.075L21.45 10.4625C21.525 10.2 21.45 9.93751 21.3 9.75001C21.15 9.52501 20.8875 9.41251 20.625 9.41251H18.1875C17.7375 9.41251 17.3625 9.78751 17.3625 10.2375C17.3625 10.6875 17.7375 11.0625 18.1875 11.0625H19.5L18.5625 14.625C18.45 15.075 18.7125 15.525 19.1625 15.675Z" fill="#161A23"/>
<path d="M15.1875 8.62502L13.8 15.9375C13.725 16.3875 14.025 16.8375 14.475 16.9125C14.5125 16.9125 14.5875 16.9125 14.625 16.9125C15.0375 16.9125 15.375 16.6125 15.45 16.2375L16.8375 8.92502C16.9125 8.47502 16.6125 8.02502 16.1625 7.95002C15.7125 7.87502 15.2625 8.17502 15.1875 8.62502Z" fill="#161A23"/>
<path d="M21.975 17.3625C21.6 17.1 21.075 17.175 20.8125 17.55C19.0125 20.1 16.05 21.6375 12.9375 21.6375C7.57498 21.675 3.22498 17.325 3.22498 12C3.22498 6.67501 7.57498 2.32501 12.9 2.32501C15.375 2.32501 17.7375 3.26251 19.5 4.95001L18.3 5.06251C17.85 5.10001 17.475 5.51251 17.55 5.96251C17.5875 6.41251 17.9625 6.71251 18.375 6.71251C18.4125 6.71251 18.4125 6.71251 18.45 6.71251L21.675 6.41251C22.125 6.37501 22.5 5.96251 22.425 5.51251L22.125 2.28751C22.0875 1.83751 21.675 1.50001 21.225 1.53751C20.775 1.57501 20.4 1.98751 20.475 2.43751L20.5875 3.63751C18.4875 1.72501 15.7875 0.637512 12.9 0.637512C6.63748 0.675012 1.53748 5.73751 1.53748 12C1.53748 18.2625 6.63748 23.325 12.9 23.325C16.575 23.325 20.025 21.525 22.1625 18.525C22.425 18.15 22.35 17.625 21.975 17.3625Z" fill="#161A23"/>
</svg>
