<svg width="24" height="24" viewBox="0 0 24 24" fill="none" xmlns="http://www.w3.org/2000/svg">
<path d="M23.2125 13.0125L20.925 9.675C20.775 9.45 20.5125 9.3 20.2125 9.3H16.875V8.775C16.875 7.5375 15.8625 6.5625 14.6625 6.5625H12.4875C12.0375 6.5625 11.6625 6.9375 11.6625 7.3875C11.6625 7.8375 12.0375 8.2125 12.4875 8.2125H14.625C14.925 8.2125 15.15 8.4375 15.15 8.7375V17.85H12.375C12.075 16.95 11.25 16.275 10.2375 16.275C9.22498 16.275 8.39998 16.95 8.09998 17.85H5.99998C5.69998 17.85 5.47498 17.625 5.47498 17.325V13.6875C5.47498 13.2375 5.09998 12.8625 4.64998 12.8625C4.19998 12.8625 3.82498 13.2375 3.82498 13.6875V17.325C3.82498 18.5625 4.83748 19.5375 6.03748 19.5375H8.28748C8.66248 20.25 9.41248 20.7375 10.275 20.7375C11.1375 20.7375 11.8875 20.25 12.2625 19.5375H17.0625C17.4375 20.25 18.1875 20.7375 19.05 20.7375C19.9125 20.7375 20.6625 20.25 21.0375 19.5375H22.5375C22.9875 19.5375 23.3625 19.1625 23.3625 18.7125V13.5C23.325 13.3125 23.2875 13.1625 23.2125 13.0125ZM19.7625 11.025L21.075 12.9H16.8375V11.025H19.7625ZM10.2375 19.0875C9.93748 19.0875 9.71248 18.8625 9.71248 18.5625C9.71248 18.2625 9.93748 18.0375 10.2375 18.0375C10.5375 18.0375 10.7625 18.2625 10.7625 18.5625C10.7625 18.8625 10.5375 19.0875 10.2375 19.0875ZM19.0125 19.0875C18.7125 19.0875 18.4875 18.8625 18.4875 18.5625C18.4875 18.2625 18.7125 18.0375 19.0125 18.0375C19.3125 18.0375 19.5375 18.2625 19.5375 18.5625C19.5375 18.8625 19.3125 19.0875 19.0125 19.0875ZM21.15 17.8875C20.85 16.9875 20.025 16.3125 19.0125 16.3125C18 16.3125 17.175 16.9875 16.875 17.8875H16.8375V14.55H21.6375V17.8875H21.15Z" fill="#161A23"/>
<path d="M4.12499 9.63748C4.12499 9.18748 3.74999 8.81248 3.29999 8.81248H2.92499C2.62499 8.81248 2.36249 8.54998 2.36249 8.24998C2.36249 7.94998 2.62499 7.68748 2.92499 7.68748C3.59999 7.68748 4.12499 7.12498 4.12499 6.48748V4.42498C4.12499 3.74998 3.56249 3.22498 2.92499 3.22498H1.49999C1.04999 3.22498 0.674988 3.59998 0.674988 4.04998C0.674988 4.49998 1.04999 4.87498 1.49999 4.87498H2.43749V6.03748C1.42499 6.26248 0.674988 7.16248 0.674988 8.21248C0.674988 9.44998 1.68749 10.4625 2.92499 10.4625H3.29999C3.74999 10.4625 4.12499 10.0875 4.12499 9.63748Z" fill="#161A23"/>
<path d="M5.99998 7.68748H7.72498V9.37498C7.72498 9.82498 8.09998 10.2 8.54998 10.2C8.99998 10.2 9.37498 9.82498 9.37498 9.37498V4.04998C9.37498 3.59998 8.99998 3.22498 8.54998 3.22498C8.09998 3.22498 7.72498 3.59998 7.72498 4.04998V5.99998H6.86248V4.04998C6.86248 3.59998 6.48748 3.22498 6.03748 3.22498C5.58748 3.22498 5.21248 3.59998 5.21248 4.04998V6.82498C5.13748 7.31248 5.54998 7.68748 5.99998 7.68748Z" fill="#161A23"/>
</svg>
