<svg width="24" height="24" viewBox="0 0 24 24" fill="none" xmlns="http://www.w3.org/2000/svg">
<path d="M23.3625 6.78754C23.325 6.78754 23.3625 6.78754 23.3625 6.78754C23.3625 5.06254 21.3 3.71254 17.55 2.96254C17.1 2.88754 16.65 3.18754 16.575 3.63754C16.5 4.08754 16.8 4.53754 17.25 4.61254C20.5125 5.25004 21.7125 6.30004 21.7125 6.78754C21.7125 7.20004 21.0375 7.76254 19.725 8.25004V7.01254C19.725 6.56254 19.35 6.15004 18.8625 6.15004C18.375 6.15004 18 6.52504 18 7.01254V8.77504C16.4625 9.15004 14.475 9.41254 12 9.41254C9.56251 9.41254 7.53751 9.15004 6.00001 8.77504V7.01254C6.00001 6.56254 5.62501 6.15004 5.13751 6.15004C4.65001 6.15004 4.27501 6.52504 4.27501 7.01254V8.25004C2.96251 7.72504 2.28751 7.16254 2.28751 6.78754C2.28751 6.30004 3.48751 5.25004 6.75001 4.61254C7.20001 4.53754 7.50001 4.08754 7.42501 3.63754C7.35001 3.18754 6.90001 2.88754 6.45001 2.96254C2.70001 3.71254 0.637512 5.06254 0.637512 6.78754V16.725C0.675012 19.575 6.37501 21.0375 12 21.0375C14.85 21.0375 17.7375 20.6625 19.875 19.9125C19.9125 19.9125 19.9875 19.875 20.025 19.875C22.0125 19.1625 23.325 18.1125 23.3625 16.725V6.78754ZM5.70001 18.6375L7.87501 16.125C8.10001 15.8625 8.51251 15.825 8.77501 16.05L9.56251 16.65C10.5375 17.4 11.925 17.25 12.75 16.35L14.0625 14.85C14.25 14.6625 14.475 14.625 14.55 14.625C14.6625 14.625 14.8875 14.6625 15.0375 14.85L18.1875 18.675C16.6125 19.0875 14.55 19.3875 11.9625 19.3875C9.37501 19.35 7.27501 19.05 5.70001 18.6375ZM19.9125 18.075L16.35 13.725C15.9 13.2 15.2625 12.8625 14.5875 12.8625C13.9125 12.8625 13.2375 13.125 12.7875 13.65L11.475 15.15C11.25 15.4125 10.875 15.45 10.575 15.225L9.78751 14.625C8.81251 13.875 7.38751 14.025 6.60001 14.9625L3.97501 18C2.92501 17.55 2.36251 17.025 2.36251 16.6875V9.18754C4.46251 10.4625 8.25001 11.1375 12.0375 11.1375C15.7875 11.1375 19.575 10.4625 21.7125 9.18754V16.725C21.6375 17.1 21.075 17.625 19.9125 18.075Z" fill="#161A23"/>
</svg>
