<svg width="24" height="24" viewBox="0 0 24 24" fill="none" xmlns="http://www.w3.org/2000/svg">
<path d="M21.9 17.85C21.9 17.8125 21.9375 17.8125 21.9375 17.775C21.975 17.7001 21.975 17.625 21.975 17.55V6.45005C21.975 6.15005 21.7875 5.85005 21.525 5.70005L12.4125 0.750049C12.375 0.750049 12.3375 0.750049 12.3 0.712549C12.2625 0.712549 12.225 0.675049 12.1875 0.675049C12.15 0.675049 12.1125 0.675049 12.075 0.675049C12.0375 0.675049 12 0.675049 11.9625 0.675049C11.925 0.675049 11.8875 0.675049 11.85 0.675049C11.8125 0.675049 11.775 0.675049 11.7375 0.675049C11.7 0.675049 11.6625 0.712549 11.625 0.712549C11.6625 0.750049 11.625 0.750049 11.5875 0.750049L2.47502 5.70005C2.21252 5.85005 2.02502 6.15005 2.02502 6.45005V17.55C2.02502 17.625 2.02502 17.7001 2.06252 17.775C2.06252 17.8125 2.10002 17.8125 2.10002 17.85C2.10002 17.8875 2.13752 17.925 2.17502 18C2.17502 18.0375 2.21252 18.0375 2.21252 18.0751C2.25002 18.1125 2.25002 18.15 2.28752 18.1875C2.32502 18.225 2.32502 18.225 2.36252 18.2626C2.40002 18.3 2.40002 18.3 2.43752 18.3375L11.5875 23.25C11.7 23.325 11.85 23.3625 12 23.3625C12.15 23.3625 12.2625 23.325 12.4125 23.25L21.525 18.3C21.5625 18.2625 21.6 18.2625 21.6 18.225C21.6375 18.1875 21.6375 18.1875 21.675 18.15C21.7125 18.1125 21.75 18.075 21.75 18.0375C21.75 18 21.7875 18 21.7875 17.9625C21.8625 17.925 21.9 17.8875 21.9 17.85ZM20.2875 16.125L12.8625 12.075V2.92505L20.2875 6.97505V16.125ZM3.71252 6.97505L11.175 2.92505V12.1125L3.71252 16.125V6.97505ZM12 21.525L4.65002 17.55L12 13.575L19.35 17.55L12 21.525Z" fill="#161A23"/>
</svg>
