<svg width="24" height="24" viewBox="0 0 24 24" fill="none" xmlns="http://www.w3.org/2000/svg">
<path d="M13.3503 2.92529C11.9628 2.92529 10.5378 3.22529 9.45029 3.67529C9.33779 3.71279 9.30029 3.8253 9.30029 3.9378C9.30029 4.0503 9.33779 4.2003 9.41279 4.4253C9.45029 4.5753 9.67529 5.0628 10.0128 4.9128C11.1378 4.5003 12.3003 4.2753 13.3878 4.2753C14.5878 4.2753 15.8253 4.5378 16.9878 5.0253C17.8878 5.4378 18.7503 5.9628 19.6878 6.7878C19.7253 6.8253 19.8378 6.8253 19.9128 6.8253C20.0628 6.8253 20.2878 6.6753 20.4378 6.5253C20.7003 6.2253 20.8503 6.0003 20.5878 5.7753C19.6878 4.9128 18.7503 4.3128 17.5128 3.8253C16.1628 3.18779 14.7753 2.92529 13.3503 2.92529Z" fill="#15171A"/>
<path d="M6.11187 15.7127C6.11187 15.7127 6.22437 16.0877 6.26187 16.2377C6.67437 17.1377 7.19937 17.9252 7.91187 18.6752C8.58687 19.3502 9.44937 19.8752 10.3494 20.3252C11.2869 20.7377 12.2619 20.8877 13.3119 20.8877C14.3619 20.8877 15.3369 20.6627 16.2744 20.3252C17.1744 19.9127 17.9619 19.3877 18.7119 18.6752C19.3869 18.0002 19.9119 17.1377 20.3619 16.2377C20.7744 15.3002 20.9244 14.3252 20.9244 13.2752C20.9244 12.2252 20.6994 11.2127 20.3619 10.3127C19.9494 9.41265 19.4244 8.62515 18.7119 7.87515C18.0369 7.20015 17.1744 6.67515 16.2744 6.22515C15.3369 5.81265 14.3619 5.62515 13.3119 5.62515C12.2619 5.62515 11.2494 5.85015 10.3119 6.22515C9.56187 6.52515 8.28687 7.35015 7.57437 8.13765V1.83765H18.0744C18.4869 1.83765 18.4869 1.31265 18.4869 1.08765C18.4869 0.862646 18.4869 0.337646 18.0744 0.337646L6.71187 0.412646C6.41187 0.412646 6.18687 0.675146 6.18687 0.937646V9.75015C6.18687 10.0127 6.56187 10.2377 6.86187 10.2752C7.49937 10.4252 7.64937 10.2377 7.79937 10.0127L7.83687 9.97515C8.09937 9.60015 8.84937 8.85015 8.84937 8.85015C10.0119 7.68765 11.5869 7.05015 13.2369 7.05015C14.8869 7.05015 16.4619 7.68765 17.6244 8.85015C18.7869 10.0127 19.4244 11.5877 19.4244 13.2377C19.4244 14.8877 18.7869 16.5002 17.6244 17.6627C16.4619 18.8252 14.8869 19.4627 13.1994 19.4627C12.0744 19.4627 10.9869 19.2002 10.0869 18.5627V13.2002C10.0869 12.4502 10.3869 11.7377 10.9494 11.1377C11.5494 10.5002 12.3744 10.0877 13.2369 10.0877C14.0994 10.0877 14.9244 10.3877 15.5244 10.9877C16.0869 11.5877 16.4244 12.3752 16.4244 13.2002C16.4244 15.0002 14.9994 16.3877 13.2369 16.3877C12.8619 16.3877 12.2244 16.2377 12.2244 16.2377C11.8494 16.1252 11.6994 16.6502 11.6619 16.7627C11.5119 17.4002 11.7744 17.5127 11.8119 17.5502C12.4119 17.7002 12.7494 17.7752 13.2744 17.7752C15.8244 17.7752 17.8869 15.7127 17.8869 13.1627C17.8869 10.6877 15.8244 8.55015 13.2744 8.55015C12.0744 8.55015 10.9119 9.03765 10.0119 9.86265C9.14937 10.7252 8.69937 11.7752 8.69937 12.8627V12.9002C8.69937 13.0501 8.69937 16.2377 8.69937 17.2877C8.21187 16.7627 7.76187 15.9752 7.42437 15.1127C7.31187 14.8127 7.01187 14.8502 6.67437 14.9627C6.48687 15.1877 5.99937 15.3377 6.11187 15.7127Z" fill="#15171A"/>
<path d="M20.7 19.7252C20.55 19.5752 20.4375 19.4627 20.2875 19.4627C20.175 19.4252 20.0625 19.4627 19.9875 19.5002L19.95 19.5377C19.0875 20.4002 18.15 21.0752 17.025 21.4877C15.9 21.9752 14.7 22.2377 13.425 22.2377C12.225 22.2377 10.9875 21.9752 9.825 21.4877C8.7 21.0002 7.7625 20.3627 6.9 19.5377C6.0375 18.6377 5.3625 17.7002 4.95 16.6127C4.5375 15.6002 4.425 14.8127 4.35 14.5502C4.35 14.5127 4.35 14.5127 4.35 14.5127C4.3125 14.2502 4.05 14.2127 3.6 14.2502C3.4875 14.3252 3 14.3627 3 14.7377C3.15 15.6002 3.375 16.4252 3.675 17.1752C4.2 18.4502 4.9875 19.5377 5.9625 20.5127C6.975 21.5252 8.0625 22.2377 9.3 22.8002C10.6125 23.3252 12 23.6627 13.425 23.6627C14.85 23.6627 16.2375 23.4002 17.55 22.8002C18.825 22.2752 19.9125 21.4877 20.8875 20.5127L20.925 20.4752C21 20.3627 21.1125 20.1752 20.7 19.7252Z" fill="#15171A"/>
<path d="M11.5122 14.4376C11.5122 14.5876 11.6622 14.7001 11.7372 14.8126L11.7747 14.8501C11.9247 15.0001 12.0372 15.0751 12.1872 15.0751C12.3372 15.0751 12.3372 15.0376 12.3372 15.0376C12.3747 15.0001 13.1247 14.2501 13.1997 14.1751L13.9872 14.9626C14.0247 15.0001 14.1372 15.0751 14.2497 15.1126C14.3997 15.1126 14.5122 15.0751 14.6622 14.8876C15.0372 14.5126 14.8122 14.3626 14.6997 14.2501L13.9122 13.4626L14.7747 12.5626C14.9247 12.3376 14.8122 12.1501 14.6247 12.0001C14.3622 11.7376 14.1372 11.7376 13.9872 11.8501L13.1247 12.6001L12.3372 11.7376C12.2997 11.7001 12.2247 11.7001 12.1872 11.7001C12.0747 11.7001 11.9247 11.7376 11.7747 11.9251C11.5122 12.1876 11.4747 12.3376 11.6247 12.5251L12.4872 13.3876L11.6997 14.2876C11.5497 14.2876 11.5122 14.3626 11.5122 14.4376Z" fill="#15171A"/>
</svg>
