<svg width="24" height="24" viewBox="0 0 24 24" fill="none" xmlns="http://www.w3.org/2000/svg">
<g clip-path="url(#clip0_501_47779)">
<path d="M10.5 14.025C10.95 14.025 11.3625 13.65 11.3625 13.1625C11.3625 12.675 10.9875 12.3 10.5 12.3H7.3125C6.8625 12.3 6.45 12.675 6.45 13.1625V16.1625C6.45 16.6125 6.825 17.025 7.3125 17.025H9.675V18.3375H7.3125C6.8625 18.3375 6.45 18.7125 6.45 19.2C6.45 19.6875 6.825 20.0625 7.3125 20.0625H10.125C10.8 20.0625 11.3625 19.5 11.3625 18.825V16.6125C11.3625 15.9375 10.8 15.375 10.125 15.375H8.175V14.0625H10.5V14.025Z" fill="#161A23"/>
<path d="M16.6875 14.025C17.1375 14.025 17.55 13.65 17.55 13.1625C17.55 12.675 17.175 12.3 16.6875 12.3H13.875C13.2 12.3 12.6375 12.8625 12.6375 13.5375V18.7875C12.6375 19.4625 13.2 20.025 13.875 20.025H16.3125C16.9875 20.025 17.55 19.4625 17.55 18.7875V16.95C17.55 16.275 16.9875 15.7125 16.3125 15.7125H15.4875C15.0375 15.7125 14.625 16.0875 14.625 16.575C14.625 17.0625 15 17.4375 15.4875 17.4375H15.8625V18.375H14.3625V14.025H16.6875Z" fill="#161A23"/>
<path d="M20.925 9H12.8625V7.3125C13.8 6.975 14.4375 6.075 14.4375 5.025C14.4375 3.7125 13.35 2.625 12 2.625C10.65 2.625 9.56249 3.7125 9.56249 5.0625C9.56249 6.1125 10.2375 7.0125 11.1375 7.35V9H3.07499C1.79999 9 0.712494 10.05 0.712494 11.3625V21C0.712494 22.275 1.76249 23.3625 3.07499 23.3625H20.925C22.2 23.3625 23.2875 22.3125 23.2875 21V11.3625C23.2875 10.05 22.2375 9 20.925 9ZM12 4.3125C12.4125 4.3125 12.75 4.65 12.75 5.0625C12.75 5.4375 12.4875 5.7375 12.1125 5.8125C12.075 5.8125 12.0375 5.8125 12 5.8125C11.9625 5.8125 11.925 5.8125 11.8875 5.8125C11.5125 5.775 11.25 5.4375 11.25 5.0625C11.25 4.65 11.5875 4.3125 12 4.3125ZM21.6 21C21.6 21.375 21.3 21.675 20.925 21.675H3.07499C2.69999 21.675 2.39999 21.375 2.39999 21V11.3625C2.39999 10.9875 2.69999 10.6875 3.07499 10.6875H20.925C21.3 10.6875 21.6 10.9875 21.6 11.3625V21Z" fill="#161A23"/>
<path d="M16.6875 6.29997C16.8375 6.44997 17.0625 6.56248 17.2875 6.56248C17.5125 6.56248 17.7375 6.48747 17.8875 6.29997C18.525 5.66247 18.8625 4.83748 18.8625 3.97498C18.8625 3.11248 18.4875 2.24998 17.8875 1.64998C17.55 1.31248 17.025 1.31248 16.6875 1.64998C16.35 1.98748 16.35 2.51248 16.6875 2.84998C16.9875 3.14998 17.175 3.56248 17.175 3.97498C17.175 4.38748 17.025 4.79998 16.6875 5.09998C16.35 5.43748 16.35 5.96247 16.6875 6.29997Z" fill="#161A23"/>
<path d="M19.35 7.04998C19.5 7.19998 19.725 7.31248 19.95 7.31248C20.175 7.31248 20.4 7.23748 20.55 7.04998C22.2375 5.36248 22.2375 2.58748 20.55 0.899976C20.2125 0.562476 19.6875 0.562476 19.35 0.899976C19.0125 1.23748 19.0125 1.76248 19.35 2.09998C19.8375 2.58748 20.1375 3.26248 20.1375 3.97498C20.1375 4.68748 19.875 5.36248 19.35 5.84998C19.0125 6.18748 19.0125 6.71248 19.35 7.04998Z" fill="#161A23"/>
<path d="M6.7125 6.5625C6.9375 6.5625 7.1625 6.4875 7.3125 6.3C7.65 5.9625 7.65 5.4375 7.3125 5.1C6.675 4.4625 6.675 3.45 7.3125 2.8125C7.65 2.475 7.65 1.95 7.3125 1.6125C6.975 1.275 6.45 1.275 6.1125 1.6125C4.8375 2.8875 4.8375 4.9875 6.1125 6.2625C6.3 6.4875 6.525 6.5625 6.7125 6.5625Z" fill="#161A23"/>
<path d="M4.05 7.275C4.275 7.275 4.5 7.2 4.65 7.0125C4.9875 6.675 4.9875 6.15 4.65 5.8125C3.6 4.7625 3.6 3.075 4.65 2.0625C4.9875 1.725 4.9875 1.2 4.65 0.8625C4.3125 0.525 3.7875 0.525 3.45 0.8625C1.7625 2.55 1.7625 5.325 3.45 7.0125C3.6375 7.2 3.825 7.275 4.05 7.275Z" fill="#161A23"/>
</g>
<defs>
<clipPath id="clip0_501_47779">
<rect width="24" height="24" fill="white"/>
</clipPath>
</defs>
</svg>
