<svg width="24" height="24" viewBox="0 0 24 24" fill="none" xmlns="http://www.w3.org/2000/svg">
<path d="M5.70001 12.2625C6.15001 12.2625 6.56251 11.8875 6.56251 11.4C6.56251 10.9125 6.18751 10.5375 5.70001 10.5375H2.21251C1.35001 10.5375 0.637512 11.25 0.637512 12.1125V14.625C0.637512 15.4875 1.35001 16.2 2.21251 16.2H4.83751V18.45H1.50001C1.05001 18.45 0.637512 18.825 0.637512 19.3125C0.637512 19.8 1.01251 20.175 1.50001 20.175H4.95001C5.81251 20.175 6.52501 19.4625 6.52501 18.6V16.125C6.52501 15.2625 5.81251 14.55 4.95001 14.55H2.32501V12.3H5.70001V12.2625Z" fill="#161A23"/>
<path d="M13.8 12.2625C14.25 12.2625 14.6625 11.8875 14.6625 11.4C14.6625 10.9125 14.2875 10.5375 13.8 10.5375H10.35C9.48752 10.5375 8.77502 11.25 8.77502 12.1125V18.525C8.77502 19.3875 9.48752 20.1 10.35 20.1H13.0875C13.95 20.1 14.6625 19.3875 14.6625 18.525V16.5375C14.6625 15.675 13.95 14.9625 13.0875 14.9625H12.225C11.775 14.9625 11.3625 15.3375 11.3625 15.825C11.3625 16.3125 11.7375 16.6875 12.225 16.6875H12.975V18.4125H10.4625V12.2625H13.8Z" fill="#161A23"/>
<path d="M16.8375 3.90002C16.3875 3.90002 15.975 4.27502 15.975 4.76252C15.975 5.25002 16.35 5.62502 16.8375 5.62502C19.5 5.62502 21.675 7.80002 21.675 10.4625C21.675 10.9125 22.05 11.325 22.5375 11.325C23.025 11.325 23.4 10.95 23.4 10.4625C23.3625 6.78752 20.4375 3.90002 16.8375 3.90002Z" fill="#161A23"/>
<path d="M15.825 7.27502C15.375 7.27502 14.9625 7.65002 14.9625 8.13752C14.9625 8.62502 15.3375 9.00002 15.825 9.00002C17.175 9.00002 18.2625 10.0875 18.2625 11.4375C18.2625 11.8875 18.6375 12.3 19.125 12.3C19.6125 12.3 19.9875 11.925 19.9875 11.4375C19.95 9.15002 18.075 7.27502 15.825 7.27502Z" fill="#161A23"/>
</svg>
