<svg width="24" height="24" viewBox="0 0 24 24" fill="none" xmlns="http://www.w3.org/2000/svg">
<path d="M17.4375 0.675049H10.1625C9.48749 0.675049 8.84999 0.937549 8.39999 1.42505L4.79999 5.10005C4.34999 5.55005 4.08749 6.18755 4.08749 6.82505V20.8876C4.08749 22.2375 5.21249 23.3625 6.56249 23.3625H17.4375C18.7875 23.3625 19.9125 22.2375 19.9125 20.8876V3.11255C19.9125 1.76255 18.7875 0.675049 17.4375 0.675049ZM18.225 20.8876C18.225 21.3 17.8875 21.675 17.4375 21.675H6.56249C6.14999 21.675 5.77499 21.3375 5.77499 20.8876V6.78755C5.77499 6.60005 5.84999 6.37505 5.99999 6.22505L9.59999 2.55005C9.74999 2.40005 9.93749 2.32505 10.1625 2.32505H17.4375C17.85 2.32505 18.225 2.66255 18.225 3.11255V20.8876Z" fill="#161A23"/>
<path d="M10.95 12.4876C11.4 12.4876 11.8125 12.1126 11.8125 11.6251C11.8125 11.1376 11.4375 10.7626 10.95 10.7626H8.66249C7.79999 10.7626 7.08749 11.4751 7.08749 12.3376V13.7251C7.08749 14.5876 7.79999 15.3001 8.66249 15.3001H10.0875V16.4251H7.91249C7.46249 16.4251 7.04999 16.8001 7.04999 17.2876C7.04999 17.7751 7.42499 18.1501 7.91249 18.1501H10.2C11.0625 18.1501 11.775 17.4376 11.775 16.5751V15.1876C11.775 14.3251 11.0625 13.6126 10.2 13.6126H8.77499V12.4876H10.95Z" fill="#161A23"/>
<path d="M16.6875 12.4876C17.1375 12.4876 17.55 12.1126 17.55 11.6251C17.55 11.1376 17.175 10.7626 16.6875 10.7626H14.4C13.5375 10.7626 12.825 11.4751 12.825 12.3376V16.5376C12.825 17.4001 13.5375 18.1126 14.4 18.1126H15.9375C16.8 18.1126 17.5125 17.4001 17.5125 16.5376V15.1876C17.5125 14.5126 16.9875 13.9876 16.3125 13.9876H16.0875C15.6375 13.9876 15.225 14.3626 15.225 14.8501C15.225 15.2251 15.4875 15.5626 15.825 15.6751V16.4626H14.5125V12.4876H16.6875Z" fill="#161A23"/>
</svg>
