<svg width="24" height="24" viewBox="0 0 24 24" fill="none" xmlns="http://www.w3.org/2000/svg">
<path d="M9.97501 15.1875C10.425 15.1875 10.8375 14.8125 10.8375 14.325C10.8375 13.8375 10.4625 13.4625 9.97501 13.4625H6.33751C5.47501 13.4625 4.76251 14.175 4.76251 15.0375V17.6625C4.76251 18.525 5.47501 19.2375 6.33751 19.2375H9.11251V21.6375H5.62501C5.17501 21.6375 4.76251 22.0125 4.76251 22.5C4.76251 22.9875 5.13751 23.3625 5.62501 23.3625H9.26251C10.125 23.3625 10.8375 22.65 10.8375 21.7875V19.1625C10.8375 18.3 10.125 17.5875 9.26251 17.5875H6.48751V15.1875H9.97501Z" fill="#161A23"/>
<path d="M18.375 15.1875C18.825 15.1875 19.2375 14.8125 19.2375 14.325C19.2375 13.8375 18.8625 13.5 18.375 13.5H14.7375C13.875 13.5 13.1625 14.2125 13.1625 15.075V21.7875C13.1625 22.65 13.875 23.3625 14.7375 23.3625H17.625C18.4875 23.3625 19.2 22.65 19.2 21.7875V19.6875C19.2 18.825 18.4875 18.1125 17.625 18.1125H16.6875C16.2375 18.1125 15.825 18.4875 15.825 18.975C15.825 19.4625 16.2 19.8375 16.6875 19.8375H17.475V21.7125H14.8125V15.1875H18.375Z" fill="#161A23"/>
<path d="M6.29999 8.47507C9.44999 5.32507 14.55 5.32507 17.6625 8.47507C17.8125 8.62507 18.0375 8.73757 18.2625 8.73757C18.4875 8.73757 18.7125 8.66257 18.8625 8.47507C19.2 8.13757 19.2 7.61257 18.8625 7.27507C15.075 3.48757 8.88749 3.48757 5.09999 7.27507C4.76249 7.61257 4.76249 8.13757 5.09999 8.47507C5.43749 8.81257 5.99999 8.81257 6.29999 8.47507Z" fill="#161A23"/>
<path d="M15.6375 11.3626C15.8625 11.3626 16.0875 11.2876 16.2375 11.1001C16.575 10.7626 16.575 10.2376 16.2375 9.90007C15.1125 8.77507 13.6125 8.13757 12 8.13757C10.3875 8.13757 8.88746 8.77507 7.76246 9.90007C7.42496 10.2376 7.42496 10.7626 7.76246 11.1001C8.09996 11.4376 8.62496 11.4376 8.96246 11.1001C9.78746 10.2751 10.8375 9.82507 12 9.82507C13.1625 9.82507 14.2125 10.2751 15.0375 11.1001C15.1875 11.2876 15.4125 11.3626 15.6375 11.3626Z" fill="#161A23"/>
<path d="M21.5625 4.61255C16.3125 -0.637451 7.72499 -0.637451 2.47499 4.61255C2.13749 4.95005 2.13749 5.47505 2.47499 5.81255C2.62499 5.96255 2.84999 6.07505 3.07499 6.07505C3.29999 6.07505 3.52499 6.00005 3.67499 5.81255C8.24999 1.20005 15.75 1.20005 20.3625 5.81255C20.7 6.15005 21.225 6.15005 21.5625 5.81255C21.8625 5.47505 21.8625 4.95005 21.5625 4.61255Z" fill="#161A23"/>
</svg>
