<svg width="24" height="24" viewBox="0 0 24 24" fill="none" xmlns="http://www.w3.org/2000/svg">
<path d="M17.7375 17.1C19.575 17.1 21.075 15.6 21.075 13.7625C21.075 11.925 19.575 10.425 17.7375 10.425C15.9 10.425 14.4 11.925 14.4 13.7625C14.4 15.6 15.9 17.1 17.7375 17.1ZM17.7375 12.15C18.6375 12.15 19.3875 12.9 19.3875 13.8C19.3875 14.7 18.6375 15.45 17.7375 15.45C16.8375 15.45 16.0875 14.7 16.0875 13.8C16.0875 12.9 16.8375 12.15 17.7375 12.15Z" fill="#161A23"/>
<path d="M23.1 20.3249C21.75 18.9374 19.8 18.1499 17.8125 18.1499C15.825 18.1499 13.875 18.9374 12.525 20.3249C12.1875 20.6624 12.1875 21.1874 12.525 21.5249C12.8625 21.8624 13.3875 21.8624 13.725 21.5249C14.775 20.4749 16.275 19.8374 17.8125 19.8374C19.3875 19.8374 20.85 20.4374 21.9 21.5249C22.05 21.6749 22.275 21.7874 22.5 21.7874C22.725 21.7874 22.9125 21.7124 23.1 21.5624C23.4375 21.1874 23.4375 20.6249 23.1 20.3249Z" fill="#161A23"/>
<path d="M11.325 6.37495C11.5875 5.96245 11.625 5.47495 11.4 5.02495C11.175 4.57495 10.725 4.31245 10.2375 4.31245H2.36249V2.99995C2.36249 2.54995 1.98749 2.13745 1.49999 2.13745C1.01249 2.13745 0.674988 2.51245 0.674988 2.99995V20.9999C0.674988 21.4499 1.04999 21.8624 1.53749 21.8624C2.02499 21.8624 2.39999 21.4874 2.39999 20.9999V12.2249H10.3125C10.8 12.2249 11.25 11.9625 11.475 11.5125C11.7 11.0625 11.6625 10.575 11.4 10.1625L10.275 8.58745C10.1625 8.39995 10.1625 8.13745 10.275 7.94995L11.325 6.37495ZM8.81249 9.56245L9.48749 10.5375H2.36249V5.99995H9.52499L8.84999 6.97495C8.28749 7.76245 8.28749 8.77495 8.81249 9.56245Z" fill="#161A23"/>
</svg>
