<svg width="24" height="24" viewBox="0 0 24 24" fill="none" xmlns="http://www.w3.org/2000/svg">
<path d="M22.6875 1.125H20.2875C19.5375 1.125 18.9 1.6125 18.75 2.325L17.7375 6.4875H14.025C13.575 6.4875 13.2 6.8625 13.2 7.3125C13.2 7.7625 13.575 8.1375 14.025 8.1375H17.325L15.9 13.9875C15.825 14.2875 15.5625 14.475 15.2625 14.475H4.0125C3.7125 14.475 3.45 14.25 3.375 13.95L2.175 9C2.1 8.7375 2.2125 8.55 2.2875 8.4375C2.3625 8.3625 2.5125 8.175 2.8125 8.175H4.65C5.1 8.175 5.475 7.8 5.475 7.35C5.475 6.9 5.1 6.525 4.65 6.525H2.8125C2.1 6.525 1.425 6.8625 0.975 7.425C0.525 7.95 0.375 8.7 0.525 9.375L1.6875 14.4C1.95 15.45 2.8875 16.2 3.975 16.2H15.225C16.3125 16.2 17.25 15.45 17.5125 14.4L20.325 2.7375H22.65C23.1 2.7375 23.475 2.3625 23.475 1.9125C23.475 1.4625 23.1375 1.125 22.6875 1.125Z" fill="#161A23"/>
<path d="M14.2875 18H4.9125C3.5625 18 2.4375 19.125 2.4375 20.475C2.4375 21.825 3.5625 22.95 4.9125 22.95C6.2625 22.95 7.3875 21.825 7.3875 20.475C7.3875 20.2125 7.35 19.9125 7.2375 19.6875H11.8875C11.8125 19.95 11.7375 20.2125 11.7375 20.475C11.7375 21.825 12.8625 22.95 14.2125 22.95C15.5625 22.95 16.6875 21.825 16.6875 20.475C16.6875 19.125 15.6375 18 14.2875 18ZM5.7 20.475C5.7 20.925 5.325 21.2625 4.9125 21.2625C4.5 21.2625 4.125 20.8875 4.125 20.475C4.125 20.0625 4.4625 19.6875 4.9125 19.6875C5.3625 19.6875 5.7 20.0625 5.7 20.475ZM14.2875 21.2625C13.8375 21.2625 13.5 20.8875 13.5 20.475C13.5 20.0625 13.875 19.6875 14.2875 19.6875C14.7 19.6875 15.075 20.0625 15.075 20.475C15.075 20.8875 14.7 21.2625 14.2875 21.2625Z" fill="#161A23"/>
<path d="M7.87499 4.42502L8.73749 3.67502V8.25002C8.73749 8.70002 9.11249 9.07502 9.56249 9.07502C10.0125 9.07502 10.3875 8.70002 10.3875 8.25002V3.67502L11.25 4.42502C11.4 4.57502 11.5875 4.61252 11.775 4.61252C12 4.61252 12.2625 4.50002 12.4125 4.31252C12.7125 3.93752 12.675 3.41252 12.3 3.11252L10.05 1.23752C9.74999 0.975024 9.29999 0.975024 8.96249 1.23752L6.71249 3.11252C6.33749 3.41252 6.29999 3.93752 6.59999 4.31252C6.97499 4.65002 7.49999 4.72502 7.87499 4.42502Z" fill="#161A23"/>
</svg>
