<svg width="24" height="24" viewBox="0 0 24 24" fill="none" xmlns="http://www.w3.org/2000/svg">
<path d="M7.875 13.425C9.9375 13.425 11.625 11.7375 11.625 9.67505C11.625 7.61255 9.9375 5.92505 7.875 5.92505C5.8125 5.92505 4.125 7.61255 4.125 9.67505C4.125 11.7375 5.8125 13.425 7.875 13.425ZM7.875 7.61255C9 7.61255 9.9375 8.55005 9.9375 9.67505C9.9375 10.8 9 11.7375 7.875 11.7375C6.75 11.7375 5.8125 10.8 5.8125 9.67505C5.8125 8.55005 6.75 7.61255 7.875 7.61255Z" fill="#161A23"/>
<path d="M7.87499 14.0625C5.32499 14.0625 2.84999 14.9625 0.937493 16.575C0.599993 16.875 0.524993 17.4 0.824993 17.775C1.12499 18.1125 1.64999 18.1875 2.02499 17.8875C3.63749 16.5 5.73749 15.75 7.87499 15.75C10.0125 15.75 12.1125 16.5 13.725 17.8875C13.875 18.0375 14.0625 18.075 14.2875 18.075C14.5125 18.075 14.775 17.9625 14.925 17.775C15.225 17.4375 15.1875 16.875 14.8125 16.575C12.9 14.9625 10.425 14.0625 7.87499 14.0625Z" fill="#161A23"/>
<path d="M22.5 13.6875H21.4125V12.6C21.4125 12.15 21.0375 11.7375 20.55 11.7375C20.0625 11.7375 19.6875 12.1125 19.6875 12.6V13.6875H18.6C18.15 13.6875 17.7375 14.0625 17.7375 14.55C17.7375 15.0375 18.1125 15.4125 18.6 15.4125H19.6875V16.5C19.6875 16.95 20.0625 17.3625 20.55 17.3625C21.0375 17.3625 21.4125 16.9875 21.4125 16.5V15.375H22.5C22.95 15.375 23.3625 15 23.3625 14.5125C23.3625 14.025 22.95 13.6875 22.5 13.6875Z" fill="#161A23"/>
</svg>
