<svg width="25" height="24" viewBox="0 0 25 24" fill="none" xmlns="http://www.w3.org/2000/svg">
<path d="M17.2125 9.56255V4.53755V4.50005C17.2125 2.21255 13.0875 1.05005 9.0375 1.05005C4.95 1.01255 0.862503 2.21255 0.862503 4.50005V13.6875C0.862503 15.975 4.9875 17.175 9.0375 17.175C9.4125 17.175 9.825 17.175 10.2 17.1375C10.6125 20.4375 13.425 22.9875 16.8375 22.9875C20.55 22.9875 23.55 19.9875 23.55 16.275C23.55 12.675 20.7375 9.78755 17.2125 9.56255ZM2.55 6.67505C4.125 7.50005 6.6 7.95005 9.0375 7.95005C11.475 7.95005 13.95 7.50005 15.525 6.67505V7.80005C15.4875 8.32505 13.2375 9.56255 9.0375 9.56255C4.8375 9.56255 2.55 8.28755 2.55 7.80005V6.67505ZM9.0375 2.70005C13.2375 2.70005 15.525 3.97505 15.525 4.46255C15.4875 4.98755 13.2375 6.22505 9.0375 6.22505C4.8375 6.22505 2.55 4.95005 2.55 4.46255C2.55 3.97505 4.8 2.70005 9.0375 2.70005ZM2.55 9.97505C4.125 10.8 6.6 11.25 9.0375 11.25C10.35 11.25 11.6625 11.1375 12.8625 10.875C12.3 11.2875 11.8125 11.775 11.4 12.375C10.65 12.4875 9.8625 12.525 9.0375 12.525C4.8375 12.525 2.55 11.25 2.55 10.7625V9.97505ZM2.55 13.6875V12.9375C4.125 13.7625 6.6 14.2125 9.0375 14.2125C9.525 14.2125 10.0125 14.2125 10.4625 14.175C10.3125 14.5875 10.2375 15 10.1625 15.45C9.7875 15.4875 9.4125 15.4875 9 15.4875C4.7625 15.45 2.55 14.1375 2.55 13.6875ZM16.8375 21.3C14.0625 21.3 11.8125 19.05 11.8125 16.275C11.8125 13.5 14.0625 11.25 16.8375 11.25C19.6125 11.25 21.8625 13.5 21.8625 16.275C21.8625 19.05 19.575 21.3 16.8375 21.3Z" fill="#161A23"/>
<path d="M18.4125 15.4125H17.6625V14.6625C17.6625 14.2125 17.2875 13.8 16.8 13.8C16.3125 13.8 15.9375 14.175 15.9375 14.6625V15.4125H15.1875C14.7375 15.4125 14.325 15.7875 14.325 16.275C14.325 16.7625 14.7 17.1375 15.1875 17.1375H15.9375V17.8875C15.9375 18.3375 16.3125 18.75 16.8 18.75C17.2875 18.75 17.6625 18.375 17.6625 17.8875V17.1375H18.4125C18.8625 17.1375 19.275 16.7625 19.275 16.275C19.275 15.7875 18.8625 15.4125 18.4125 15.4125Z" fill="#161A23"/>
</svg>
