<svg width="24" height="24" viewBox="0 0 24 24" fill="none" xmlns="http://www.w3.org/2000/svg">
<path d="M21.45 19.2H19.8375V17.5875C19.8375 17.1375 19.4625 16.725 18.975 16.725C18.4875 16.725 18.1125 17.1 18.1125 17.5875V19.2H16.5C16.05 19.2 15.6375 19.575 15.6375 20.0625C15.6375 20.55 16.0125 20.925 16.5 20.925H18.1125V22.5C18.1125 22.95 18.4875 23.3625 18.975 23.3625C19.4625 23.3625 19.8375 22.9875 19.8375 22.5V20.8875H21.45C21.9 20.8875 22.3125 20.5125 22.3125 20.025C22.3125 19.5375 21.9 19.2 21.45 19.2Z" fill="#161A23"/>
<path d="M14.5125 21.675H4.05001C3.67501 21.675 3.37501 21.375 3.37501 21V2.99999C3.37501 2.62499 3.67501 2.32499 4.05001 2.32499H12.525V7.12499C12.525 7.57499 12.9 7.98749 13.3875 7.98749H18.15V15C18.15 15.45 18.525 15.8625 19.0125 15.8625C19.5 15.8625 19.875 15.4875 19.875 15V7.34999C19.875 6.93749 19.6875 6.52499 19.3875 6.22499L14.175 1.12499C13.875 0.824988 13.4625 0.674988 13.05 0.674988H4.05001C2.77501 0.674988 1.72501 1.72499 1.72501 2.99999V21C1.72501 22.275 2.77501 23.3625 4.08751 23.3625H14.55C15 23.3625 15.4125 22.9875 15.4125 22.5C15.4125 22.0125 15 21.675 14.5125 21.675ZM14.2125 3.52499L17.025 6.29999H14.2125V3.52499Z" fill="#161A23"/>
</svg>
