<svg width="24" height="24" viewBox="0 0 24 24" fill="none" xmlns="http://www.w3.org/2000/svg">
<path d="M14.475 8.2875H12.8625V6.675C12.8625 6.225 12.4875 5.8125 12 5.8125C11.55 5.8125 11.1375 6.1875 11.1375 6.675V8.2875H9.52499C9.07499 8.2875 8.66249 8.6625 8.66249 9.15C8.66249 9.6375 9.03749 10.0125 9.52499 10.0125H11.1375V11.625C11.1375 12.075 11.5125 12.4875 12 12.4875C12.45 12.4875 12.8625 12.1125 12.8625 11.625V10.0125H14.475C14.925 10.0125 15.3375 9.6375 15.3375 9.15C15.3375 8.6625 14.925 8.2875 14.475 8.2875Z" fill="#161A23"/>
<path d="M18.75 0.674988H5.24999C3.97499 0.674988 2.96249 1.68749 2.96249 2.96249V15C2.96249 15.5625 3.18749 16.0875 3.59999 16.4625L10.35 22.8375C10.725 23.2125 11.2125 23.4 11.7375 23.4H18.75C20.025 23.4 21.0375 22.3875 21.0375 21.1125V2.96249C21.0375 1.68749 20.025 0.674988 18.75 0.674988ZM5.88749 16.275H10.275C10.4625 16.275 10.6125 16.425 10.6125 16.575V20.7L5.88749 16.275ZM19.35 21.0375C19.35 21.375 19.0875 21.6375 18.75 21.6375H12.3V16.575C12.3 15.4875 11.4 14.5875 10.275 14.5875H4.64999V2.96249C4.64999 2.62499 4.91249 2.36249 5.24999 2.36249H18.75C19.0875 2.36249 19.35 2.62499 19.35 2.96249V21.0375Z" fill="#161A23"/>
</svg>
