<svg width="24" height="24" viewBox="0 0 24 24" fill="none" xmlns="http://www.w3.org/2000/svg">
<path d="M22.35 10.5375C21.9375 10.05 21.45 9.63745 20.8875 9.37495C21.4125 8.84995 21.7125 8.13745 21.7125 7.34995C21.7125 5.77495 20.4375 4.49995 18.8625 4.49995C17.2875 4.49995 16.0125 5.77495 16.0125 7.34995C16.0125 8.13745 16.35 8.84995 16.8375 9.37495C16.3875 9.59995 16.0125 9.89995 15.6375 10.275C15.1875 9.82495 14.6625 9.44995 14.0625 9.18745C14.775 8.58745 15.225 7.68745 15.225 6.71245C15.225 4.91245 13.7625 3.44995 11.9625 3.44995C10.1625 3.44995 8.7 4.91245 8.7 6.71245C8.7 7.72495 9.15 8.58745 9.8625 9.18745C9.3 9.44995 8.775 9.78745 8.2875 10.275C7.9125 9.89995 7.5375 9.59995 7.0875 9.37495C7.6125 8.84995 7.9125 8.13745 7.9125 7.34995C7.9125 5.77495 6.6375 4.49995 5.0625 4.49995C3.4875 4.49995 2.2125 5.77495 2.2125 7.34995C2.2125 8.13745 2.55 8.84995 3.0375 9.37495C2.5125 9.63745 1.9875 10.05 1.575 10.5375C0.7125 11.55 0.225 12.975 0.1875 14.5125C0.1875 14.85 0.375 15.15 0.6375 15.2625C1.1625 15.525 3 16.3875 5.025 16.3875C5.5875 16.3875 6.1875 16.3125 6.75 16.2C6.975 16.3125 7.275 16.4625 7.6875 16.6125C7.9125 18.825 9.75 20.5875 12 20.5875C14.2125 20.5875 16.05 18.825 16.2 16.65C16.65 16.4625 16.9875 16.3125 17.175 16.2C17.775 16.3125 18.3375 16.3875 18.9 16.3875C21.075 16.3875 22.8375 15.525 23.2875 15.2625C23.55 15.1125 23.7375 14.8125 23.7375 14.5125C23.7 12.975 23.2125 11.55 22.35 10.5375ZM18.8625 6.18745C19.5 6.18745 20.025 6.71245 20.025 7.34995C20.025 7.98745 19.5 8.51245 18.8625 8.51245C18.225 8.51245 17.7 7.98745 17.7 7.34995C17.7375 6.71245 18.225 6.18745 18.8625 6.18745ZM12 5.09995C12.8625 5.09995 13.575 5.81245 13.575 6.67495C13.575 7.53745 12.8625 8.24995 12 8.24995C11.1375 8.24995 10.425 7.53745 10.425 6.67495C10.425 5.81245 11.1375 5.09995 12 5.09995ZM5.1375 6.18745C5.775 6.18745 6.3 6.71245 6.3 7.34995C6.3 7.98745 5.775 8.51245 5.1375 8.51245C4.5 8.51245 3.975 7.98745 3.975 7.34995C3.975 6.71245 4.5 6.18745 5.1375 6.18745ZM1.9875 13.9875C2.1 13.05 2.4375 12.225 2.925 11.625C3.4875 10.95 4.275 10.575 5.1 10.575C5.925 10.575 6.675 10.95 7.275 11.625C6.7875 12.4875 6.45 13.5 6.3375 14.5875C5.925 14.6625 5.5125 14.7 5.1 14.7C3.9 14.7 2.6625 14.2875 1.9875 13.9875ZM12 18.9C10.6125 18.9 9.4875 17.775 9.4875 16.3875C9.4875 15 10.6125 13.875 12 13.875C13.3875 13.875 14.5125 15 14.5125 16.3875C14.5125 17.775 13.3875 18.9 12 18.9ZM12 12.1875C10.2 12.1875 8.7 13.3125 8.1 14.8875C8.0625 14.8875 8.0625 14.85 8.025 14.85C8.1375 13.7625 8.4375 12.825 9 12.0375C9.075 11.925 9.15 11.85 9.225 11.7375C9.975 10.875 10.95 10.3875 12 10.3875C13.05 10.3875 14.0625 10.875 14.775 11.7375C14.85 11.85 14.925 11.925 15 12.0375C15.075 12.15 15.15 12.2625 15.1875 12.375C15.225 12.4125 15.225 12.45 15.2625 12.4875C15.3 12.5625 15.3375 12.6375 15.375 12.7125C15.4125 12.75 15.4125 12.7875 15.45 12.8625C15.4875 12.9375 15.525 13.0125 15.5625 13.0875C15.6 13.125 15.6 13.2 15.6375 13.2375C15.675 13.3125 15.675 13.3875 15.7125 13.4625C15.7125 13.5 15.75 13.575 15.75 13.6125C15.7875 13.6875 15.7875 13.7625 15.825 13.8375C15.825 13.875 15.8625 13.95 15.8625 13.9875C15.8625 14.0625 15.9 14.175 15.9 14.25C15.9 14.2875 15.9375 14.3625 15.9375 14.4C15.9375 14.5125 15.975 14.5875 15.975 14.7C15.975 14.7375 15.975 14.775 15.975 14.8125V14.85C15.9375 14.85 15.9375 14.8875 15.9 14.8875C15.3375 13.35 13.8 12.1875 12 12.1875ZM18.8625 14.7C18.4875 14.7 18.075 14.6625 17.625 14.5875C17.625 14.55 17.625 14.55 17.625 14.5125C17.5875 14.2875 17.55 14.1 17.5125 13.875C17.5125 13.8 17.475 13.7625 17.475 13.6875C17.4375 13.4625 17.3625 13.2375 17.2875 13.0125C17.2125 12.7875 17.1375 12.5625 17.025 12.375C16.9875 12.3375 16.9875 12.2625 16.95 12.225C16.875 12.0375 16.7625 11.85 16.6875 11.7C16.6875 11.6625 16.65 11.6625 16.65 11.625C17.2125 10.95 18 10.575 18.825 10.575C19.65 10.575 20.4375 10.95 21 11.625C21.525 12.2625 21.8625 13.0875 21.9375 14.025C21.375 14.2875 20.2125 14.7 18.8625 14.7Z" fill="#161A23"/>
<path d="M12.9 15.5625H12.825V15.4875C12.825 15.0375 12.45 14.625 11.9625 14.625C11.5125 14.625 11.1 15 11.1 15.4875V15.5625H11.025C10.575 15.5625 10.1625 15.9375 10.1625 16.425C10.1625 16.9125 10.5375 17.2875 11.025 17.2875H11.1V17.3625C11.1 17.8125 11.475 18.225 11.9625 18.225C12.4125 18.225 12.825 17.85 12.825 17.3625V17.25H12.9C13.35 17.25 13.7625 16.875 13.7625 16.3875C13.7625 15.9 13.35 15.5625 12.9 15.5625Z" fill="#161A23"/>
</svg>
