<svg width="24" height="24" viewBox="0 0 24 24" fill="none" xmlns="http://www.w3.org/2000/svg">
<path d="M23.3625 4.05C23.3625 2.775 22.3125 1.6875 21 1.6875H3.00001C1.72501 1.6875 0.637512 2.7375 0.637512 4.05V8.7C0.637512 9.2625 0.825012 9.7875 1.16251 10.2C0.825012 10.6125 0.637512 11.1 0.637512 11.6625V16.425C0.637512 17.7 1.65001 18.7125 2.92501 18.7125H15.6C16.05 18.7125 16.4625 18.3375 16.4625 17.85C16.4625 17.3625 16.0875 16.9875 15.6 16.9875H2.96251C2.62501 16.9875 2.36251 16.725 2.36251 16.3875V11.6625C2.36251 11.325 2.62501 11.0625 2.96251 11.0625H3.00001H21H21.0375C21.375 11.0625 21.6375 11.325 21.6375 11.6625V14.9625C21.6375 15.4125 22.0125 15.825 22.5 15.825C22.9875 15.825 23.3625 15.45 23.3625 14.9625V11.6625C23.3625 11.1 23.175 10.6125 22.8375 10.2C23.175 9.7875 23.3625 9.2625 23.3625 8.7V4.05ZM3.00001 9.375C2.62501 9.375 2.32501 9.075 2.32501 8.7V4.05C2.36251 3.675 2.62501 3.375 3.00001 3.375H21C21.375 3.375 21.675 3.675 21.675 4.05V8.7C21.675 9.075 21.375 9.375 21 9.375H3.00001Z" fill="#161A23"/>
<path d="M6.03752 5.4375C5.58752 5.4375 5.17502 5.8125 5.17502 6.3V6.375C5.17502 6.825 5.55002 7.2375 6.03752 7.2375C6.52502 7.2375 6.90002 6.8625 6.90002 6.375V6.3C6.90002 5.8125 6.52502 5.4375 6.03752 5.4375Z" fill="#161A23"/>
<path d="M18.7875 5.4751H16.35C15.9 5.4751 15.4875 5.8501 15.4875 6.3376C15.4875 6.8251 15.8625 7.2001 16.35 7.2001H18.7875C19.2375 7.2001 19.65 6.8251 19.65 6.3376C19.65 5.8501 19.275 5.4751 18.7875 5.4751Z" fill="#161A23"/>
<path d="M5.21252 13.9499V14.0249C5.21252 14.4749 5.58752 14.8874 6.07502 14.8874C6.56252 14.8874 6.93752 14.5124 6.93752 14.0249V13.9499C6.93752 13.4999 6.56252 13.0874 6.07502 13.0874C5.58752 13.0874 5.21252 13.4999 5.21252 13.9499Z" fill="#161A23"/>
<path d="M22.3875 18.75H21.375V17.7375C21.375 17.2875 21 16.875 20.5125 16.875C20.025 16.875 19.65 17.25 19.65 17.7375V18.75H18.6375C18.1875 18.75 17.775 19.125 17.775 19.6125C17.775 20.1 18.15 20.475 18.6375 20.475H19.65V21.4875C19.65 21.9375 20.025 22.35 20.5125 22.35C21 22.35 21.375 21.975 21.375 21.4875V20.475H22.3875C22.8375 20.475 23.25 20.1 23.25 19.6125C23.25 19.125 22.8375 18.75 22.3875 18.75Z" fill="#161A23"/>
</svg>
