<svg width="24" height="24" viewBox="0 0 24 24" fill="none" xmlns="http://www.w3.org/2000/svg">
<path d="M22.6875 1.08751H20.2875C19.5375 1.08751 18.9 1.57501 18.75 2.28751L17.7375 6.45001H14.925C14.85 3.45001 12.375 1.01251 9.375 1.01251C6.3375 1.01251 3.9 3.41251 3.825 6.45001H2.8125C2.1 6.45001 1.425 6.78751 0.975 7.35001C0.525 7.95001 0.375 8.66251 0.525 9.37501L1.6875 14.4C1.95 15.45 2.8875 16.2 3.975 16.2H15.225C16.3125 16.2 17.25 15.45 17.5125 14.4L20.325 2.73751H22.65C23.1 2.73751 23.475 2.36251 23.475 1.91251C23.475 1.46251 23.1375 1.08751 22.6875 1.08751ZM9.3375 2.73751C11.475 2.73751 13.2 4.46251 13.2 6.60001C13.2 6.78751 13.2 6.93751 13.1625 7.12501C13.1625 7.12501 13.1625 7.16251 13.1625 7.20001C12.9 9.07501 11.2875 10.5 9.3375 10.5C7.2 10.5 5.475 8.77501 5.475 6.63751C5.475 4.50001 7.2 2.73751 9.3375 2.73751ZM15.8625 14.025C15.7875 14.325 15.525 14.5125 15.225 14.5125H3.975C3.675 14.5125 3.4125 14.2875 3.3375 13.9875L2.175 8.96251C2.1 8.70001 2.2125 8.51251 2.2875 8.40001C2.3625 8.32501 2.5125 8.13751 2.8125 8.13751H3.975C4.65 10.4625 6.7875 12.15 9.3375 12.15C11.8875 12.15 14.025 10.4625 14.7 8.13751H17.325L15.8625 14.025Z" fill="#161A23"/>
<path d="M14.2875 17.9625H4.9125C3.5625 17.9625 2.4375 19.0875 2.4375 20.4375C2.4375 21.7875 3.5625 22.9125 4.9125 22.9125C6.2625 22.9125 7.3875 21.7875 7.3875 20.4375C7.3875 20.175 7.35 19.875 7.2375 19.65H11.8875C11.8125 19.9125 11.7375 20.175 11.7375 20.4375C11.7375 21.7875 12.8625 22.9125 14.2125 22.9125C15.5625 22.9125 16.6875 21.7875 16.6875 20.4375C16.7625 19.0875 15.6375 17.9625 14.2875 17.9625ZM5.7 20.4375C5.7 20.8875 5.3625 21.225 4.9125 21.225C4.4625 21.225 4.125 20.85 4.125 20.4375C4.125 19.9875 4.5 19.65 4.9125 19.65C5.325 19.65 5.7 20.025 5.7 20.4375ZM14.2875 21.2625C13.8375 21.2625 13.5 20.8875 13.5 20.475C13.5 20.025 13.875 19.6875 14.2875 19.6875C14.7375 19.6875 15.075 20.0625 15.075 20.475C15.075 20.8875 14.7 21.2625 14.2875 21.2625Z" fill="#161A23"/>
<path d="M7.72499 7.46249H8.47499V8.21249C8.47499 8.66249 8.84999 9.03749 9.29999 9.03749C9.74999 9.03749 10.125 8.66249 10.125 8.21249V7.46249H10.875C11.325 7.46249 11.7 7.08749 11.7 6.63749C11.7 6.18749 11.325 5.81249 10.875 5.81249H10.125V5.06249C10.125 4.61249 9.74999 4.23749 9.29999 4.23749C8.84999 4.23749 8.47499 4.61249 8.47499 5.06249V5.81249H7.72499C7.27499 5.81249 6.89999 6.18749 6.89999 6.63749C6.89999 7.08749 7.27499 7.46249 7.72499 7.46249Z" fill="#161A23"/>
</svg>
