<svg width="24" height="24" viewBox="0 0 24 24" fill="none" xmlns="http://www.w3.org/2000/svg">
<path d="M13.875 16.3124H13.725V16.1624C13.725 15.7124 13.35 15.2999 12.8625 15.2999C12.375 15.2999 12 15.6749 12 16.1624V16.3124H11.85C11.4 16.3124 10.9875 16.6874 10.9875 17.1749C10.9875 17.6624 11.3625 18.0374 11.85 18.0374H12V18.1874C12 18.6374 12.375 19.0499 12.8625 19.0499C13.35 19.0499 13.725 18.6749 13.725 18.1874V17.9999H13.875C14.325 17.9999 14.7375 17.6249 14.7375 17.1374C14.7375 16.6499 14.325 16.3124 13.875 16.3124Z" fill="#161A23"/>
<path d="M21.3375 11.2875C20.55 10.3875 19.6125 9.71245 18.6 9.29995C19.6125 8.58745 20.2875 7.42495 20.2875 6.07495C20.2875 3.89995 18.525 2.13745 16.35 2.13745C14.175 2.13745 12.4125 3.89995 12.4125 6.07495C12.4125 7.38745 13.0875 8.58745 14.1 9.29995C13.05 9.71245 12.1125 10.35 11.3625 11.2875C11.2875 11.4 11.2125 11.475 11.1375 11.5875C10.7625 11.325 10.35 11.1375 9.93749 10.95C10.95 10.2375 11.625 9.07495 11.625 7.72495C11.625 5.54995 9.86249 3.78745 7.68749 3.78745C5.51249 3.78745 3.74999 5.58745 3.74999 7.76245C3.74999 9.11245 4.42499 10.275 5.43749 10.9875C4.38749 11.4 3.44999 12.0375 2.69999 12.975C1.42499 14.475 0.712488 16.5375 0.674988 18.7875C0.674988 19.125 0.862488 19.425 1.12499 19.575C1.91249 19.95 4.68749 21.225 7.64999 21.225C8.47499 21.225 9.33749 21.15 10.2 20.9625C10.95 21.525 11.85 21.825 12.8625 21.825C14.55 21.825 16.0125 20.8875 16.7625 19.5375C19.7625 19.4249 22.1625 18.2625 22.875 17.8875C23.1375 17.7375 23.325 17.4375 23.325 17.1375C23.325 14.8875 22.575 12.7875 21.3375 11.2875ZM16.35 3.86245C17.5875 3.86245 18.6 4.87495 18.6 6.11245C18.6 7.34995 17.5875 8.36245 16.35 8.36245C15.1125 8.36245 14.1 7.34995 14.1 6.11245C14.1 4.87495 15.1125 3.86245 16.35 3.86245ZM7.64999 5.51245C8.88749 5.51245 9.89999 6.52495 9.89999 7.76245C9.89999 8.99995 8.88749 10.0125 7.64999 10.0125C6.41249 10.0125 5.39999 8.99995 5.39999 7.76245C5.39999 6.52495 6.41249 5.51245 7.64999 5.51245ZM2.36249 18.2625C2.47499 16.6125 3.03749 15.1125 3.97499 14.025C4.94999 12.8625 6.26249 12.225 7.68749 12.225C8.81249 12.225 9.86249 12.6375 10.725 13.35C9.33749 14.1375 8.39999 15.6 8.39999 17.2875C8.39999 18.075 8.58749 18.7875 8.92499 19.4249C8.47499 19.5 8.06249 19.5 7.64999 19.5C5.51249 19.5 3.41249 18.75 2.36249 18.2625ZM12.8625 20.1375C11.325 20.1375 10.05 18.8625 10.05 17.325C10.05 15.7875 11.325 14.5125 12.8625 14.5125C14.4 14.5125 15.675 15.7875 15.675 17.325C15.7125 18.8625 14.4375 20.1375 12.8625 20.1375ZM17.3625 17.8125C17.3625 17.6625 17.4 17.475 17.4 17.325C17.4 14.85 15.375 12.825 12.9 12.825C12.7875 12.825 12.675 12.825 12.5625 12.825C12.525 12.7875 12.4875 12.75 12.45 12.675C12.525 12.5625 12.6 12.4875 12.675 12.375C13.65 11.2125 14.9625 10.575 16.3875 10.575C17.8125 10.575 19.125 11.2125 20.1 12.375C21.0375 13.4625 21.5625 14.9625 21.7125 16.6125C20.8125 17.025 19.2375 17.625 17.3625 17.8125Z" fill="#161A23"/>
</svg>
