<svg width="24" height="24" viewBox="0 0 24 24" fill="none" xmlns="http://www.w3.org/2000/svg">
<path d="M22.0125 11.025C22.35 10.35 22.5375 9.60003 22.6125 8.85003C22.65 8.40002 22.5 7.95002 22.1625 7.65002C21.825 7.31252 21.4125 7.16252 20.9625 7.20002H20.925C19.4625 7.35002 18.075 8.02502 17.025 9.07502L15.9 10.2L14.25 9.56252V4.42502C14.25 4.01252 14.1375 3.63752 13.9125 3.33752C13.9125 3.30002 13.875 3.30002 13.875 3.26252C13.6875 3.00002 13.425 2.81252 13.125 2.66252L8.62501 0.600024C8.10001 0.375024 7.50001 0.375024 7.01251 0.600024L2.51251 2.66252C2.21251 2.81252 1.98751 3.00002 1.76251 3.26252C1.76251 3.30002 1.72501 3.33752 1.72501 3.33752C1.72501 3.37502 1.68751 3.37502 1.68751 3.41252C1.50001 3.75002 1.38751 4.08752 1.38751 4.42502V9.63752C1.38751 10.35 1.80001 11.025 2.43751 11.3625L6.93751 13.6125C7.20001 13.7625 7.50001 13.8 7.80001 13.8C8.10001 13.8 8.40001 13.725 8.66251 13.6125L10.425 12.75L12.0375 14.3625L10.3875 16.2375L8.70001 15.6375C8.25001 15.4875 7.76251 15.6375 7.46251 16.0125L6.48751 17.25C6.26251 17.5125 6.18751 17.85 6.26251 18.1875C6.33751 18.525 6.56251 18.7875 6.90001 18.9375L9.67501 20.1375L10.9125 22.9125C11.0625 23.2125 11.325 23.4375 11.6625 23.55C11.7375 23.5875 11.85 23.5875 11.925 23.5875C12.1875 23.5875 12.4125 23.5125 12.6 23.3625L13.8375 22.3875C14.2125 22.0875 14.3625 21.5625 14.175 21.15L13.575 19.5L15.4875 17.85L19.0125 21.375C19.2375 21.6 19.5375 21.7125 19.8 21.7125C20.1 21.7125 20.3625 21.6 20.5875 21.375L21.4125 20.55C21.7125 20.25 21.825 19.7625 21.675 19.3875L19.6125 14.025L20.7 12.9375C21.2625 12.3 21.675 11.7 22.0125 11.025ZM7.80001 5.51252L4.20001 3.75002L5.13751 3.30002L8.70001 5.06252L7.80001 5.51252ZM7.80001 2.13752C7.83751 2.13752 7.87501 2.13752 7.91251 2.17502L11.4 3.78752L10.6125 4.16252L7.12501 2.40002L7.72501 2.13752C7.72501 2.13752 7.76251 2.13752 7.80001 2.13752ZM3.18751 9.86252C3.11251 9.82502 3.07501 9.75002 3.07501 9.63752V5.06252L6.97501 6.97502V11.7375L3.18751 9.86252ZM8.66251 11.7375V6.97502L9.75001 6.45002V7.53752C9.75001 7.98752 10.125 8.36252 10.575 8.36252C11.025 8.36252 11.4 7.98752 11.4 7.53752V5.62502L12.525 5.10002V9.67502C12.525 9.75002 12.4875 9.86252 12.4125 9.90002L8.66251 11.7375ZM19.5375 11.6625L18.0375 13.1625C17.8125 13.3875 17.7375 13.7625 17.85 14.0625L19.95 19.575L19.8 19.725L16.125 16.05C15.825 15.75 15.3 15.7125 14.9625 16.0125L12.0375 18.525C11.775 18.75 11.6625 19.125 11.8125 19.4625L12.4875 21.3L12.15 21.5625L11.0625 19.125C10.9875 18.9375 10.8375 18.7875 10.65 18.7125L8.28751 17.6625L8.55001 17.325L10.3875 18C10.725 18.1125 11.1 18.0375 11.325 17.775L13.875 14.85C14.175 14.5125 14.1375 14.025 13.8375 13.6875L12 11.925L13.1625 11.325C13.3125 11.25 13.425 11.175 13.5375 11.1L15.7875 11.9625C16.0875 12.075 16.4625 12 16.6875 11.775L18.225 10.2375C18.9375 9.48752 19.9125 9.03753 20.925 8.88752C20.85 9.37502 20.7375 9.82502 20.5125 10.275C20.25 10.8 19.9125 11.25 19.5375 11.6625Z" fill="#161A23"/>
</svg>
