<svg width="24" height="24" viewBox="0 0 24 24" fill="none" xmlns="http://www.w3.org/2000/svg">
<path d="M17.25 0.675049H6.75001C5.47501 0.675049 4.38751 1.72505 4.38751 3.03755V19.35C4.38751 20.3625 5.06251 21.225 5.96251 21.5625V22.5C5.96251 22.95 6.33751 23.3625 6.82501 23.3625C7.31251 23.3625 7.68751 22.9875 7.68751 22.5V21.6376H17.25C18.525 21.6376 19.6125 20.5875 19.6125 19.275V3.00005C19.6125 1.72505 18.5625 0.675049 17.25 0.675049ZM6.75001 19.9501C6.37501 19.9501 6.07501 19.65 6.07501 19.275V14.8875H13.65V19.9501H6.75001ZM6.07501 13.2V8.13755H13.65V13.2H6.07501ZM15.3375 8.13755H17.925V13.2H15.3375V8.13755ZM17.925 3.00005V6.45005H15.3375V2.36255H17.25C17.625 2.36255 17.925 2.62505 17.925 3.00005ZM6.75001 2.36255H13.65V6.45005H6.07501V3.00005C6.07501 2.62505 6.37501 2.36255 6.75001 2.36255ZM17.25 19.9501H15.3375V14.8875H17.925V19.3125C17.925 19.6875 17.625 19.9501 17.25 19.9501Z" fill="#161A23"/>
</svg>
