<svg width="24" height="24" viewBox="0 0 24 24" fill="none" xmlns="http://www.w3.org/2000/svg">
<path d="M15.825 1.57505C14.7375 0.975049 13.4625 0.675049 12.1125 0.675049H12.075C10.2 0.675049 8.43749 1.27505 7.04999 2.36255C5.17499 3.86255 4.08749 6.11255 4.08749 8.51255V14.5125C4.08749 15.225 4.68749 15.825 5.39999 15.825H6.11249C6.63749 17.5126 7.98749 18.9 9.74999 19.35L10.125 19.4625V21.0751C10.125 22.35 11.1375 23.3625 12.4125 23.3625H17.6625C18.9375 23.3625 19.95 22.35 19.95 21.0751V8.47505C19.9125 5.58755 18.375 3.00005 15.825 1.57505ZM18.225 21.0375C18.225 21.375 17.9625 21.6376 17.625 21.6376H12.375C12.0375 21.6376 11.775 21.375 11.775 21.0375V18.75C11.775 18.375 11.5125 18.0375 11.1375 17.925L10.125 17.6625C8.77499 17.2875 7.76249 16.2 7.53749 14.775C7.46249 14.3625 7.12499 14.0625 6.71249 14.0625H5.69999V8.43755C5.69999 6.56255 6.56249 4.80005 8.02499 3.60005C9.07499 2.73755 10.5 2.28755 12 2.28755H12.0375C13.0875 2.28755 14.1 2.51255 14.925 3.00005C16.95 4.12505 18.1875 6.18755 18.1875 8.43755V21.0375H18.225Z" fill="#161A23"/>
<path d="M15.7125 8.7C16.1625 8.7 16.575 8.325 16.575 7.8375C16.575 7.35 16.2 6.975 15.7125 6.975H15.225C15.15 6.4875 14.7375 6.1125 14.25 6V5.3625C14.25 4.9125 13.875 4.5 13.3875 4.5C12.9 4.5 12.525 4.875 12.525 5.3625V6H11.4375V5.3625C11.4375 4.9125 11.0625 4.5 10.575 4.5C10.0875 4.5 9.71248 4.875 9.71248 5.3625V6C9.22498 6.075 8.84998 6.4875 8.73748 6.975H8.24998C7.79998 6.975 7.38748 7.35 7.38748 7.8375C7.38748 8.325 7.76248 8.7 8.24998 8.7H8.69998V9.7875H8.24998C7.79998 9.7875 7.38748 10.1625 7.38748 10.65C7.38748 11.1375 7.76248 11.5125 8.24998 11.5125H8.73748C8.81248 12 9.22498 12.375 9.71248 12.4875V12.9375C9.71248 13.3875 10.0875 13.8 10.575 13.8C11.0625 13.8 11.4375 13.425 11.4375 12.9375V12.525H12.525V12.9375C12.525 13.3875 12.9 13.8 13.3875 13.8C13.875 13.8 14.25 13.425 14.25 12.9375V12.4875C14.7375 12.4125 15.1125 12 15.225 11.5125H15.7125C16.1625 11.5125 16.575 11.1375 16.575 10.65C16.575 10.1625 16.2 9.7875 15.7125 9.7875H15.2625V8.7H15.7125ZM10.5 10.8V7.725H13.575V10.8H10.5Z" fill="#161A23"/>
</svg>
