<svg width="24" height="24" viewBox="0 0 24 24" fill="none" xmlns="http://www.w3.org/2000/svg">
<path d="M19.275 4.01249L14.8875 1.01249C14.55 0.787488 14.175 0.674988 13.7625 0.674988H6.14999C4.87499 0.674988 3.86249 1.68749 3.86249 2.96249V21.075C3.86249 22.35 4.87499 23.3625 6.14999 23.3625H17.85C19.125 23.3625 20.1375 22.35 20.1375 21.075V5.66249C20.1375 4.98749 19.8 4.38749 19.275 4.01249ZM18.45 21.0375C18.45 21.375 18.1875 21.6375 17.85 21.6375H6.14999C5.81249 21.6375 5.54999 21.375 5.54999 21.0375V2.96249C5.54999 2.62499 5.81249 2.36249 6.14999 2.36249H13.7625C13.8375 2.36249 13.875 2.39999 13.95 2.39999L18.3375 5.39999C18.4125 5.47499 18.4875 5.54999 18.4875 5.66249V21.0375H18.45Z" fill="#161A23"/>
<path d="M10.95 10.6875C10.8 10.425 10.5375 10.275 10.2 10.275C9.86248 10.275 9.59998 10.425 9.44998 10.6875L6.59998 15.675C6.37498 16.0875 6.52498 16.6125 6.89998 16.8375C7.31248 17.0625 7.83748 16.9125 8.06248 16.5375L8.62498 15.525H11.7L12.2625 16.5375C12.4125 16.8 12.7125 16.95 13.0125 16.95C13.1625 16.95 13.3125 16.9125 13.425 16.8375C13.8375 16.6125 13.9875 16.0875 13.725 15.675L10.95 10.6875ZM9.63748 13.8375L10.2 12.825L10.7625 13.8375H9.63748Z" fill="#161A23"/>
<path d="M15.75 12.825C15.3 12.825 14.8875 13.2 14.8875 13.6875V16.125C14.8875 16.575 15.2625 16.9875 15.75 16.9875C16.2375 16.9875 16.6125 16.6125 16.6125 16.125V13.6875C16.575 13.2 16.2 12.825 15.75 12.825Z" fill="#161A23"/>
<path d="M16.2 10.7625C16.1625 10.725 16.0875 10.725 16.05 10.6875C16.0125 10.65 15.9375 10.65 15.9 10.65C15.7875 10.6125 15.675 10.6125 15.5625 10.65C15.4875 10.65 15.45 10.6875 15.4125 10.6875C15.375 10.6875 15.3 10.725 15.2625 10.7625C15.225 10.8 15.1875 10.8375 15.15 10.875C15.1125 10.9125 15.075 10.95 15.0375 10.9875C15 11.025 14.9625 11.1 14.9625 11.1375C14.925 11.175 14.925 11.25 14.925 11.2875C14.925 11.325 14.925 11.4 14.925 11.4375C14.925 11.475 14.925 11.55 14.925 11.5875C14.925 11.625 14.9625 11.7 14.9625 11.7375C14.9625 11.775 15 11.85 15.0375 11.8875C15.075 11.925 15.1125 11.9625 15.15 12.0375C15.3 12.1875 15.525 12.2625 15.75 12.2625C15.7875 12.2625 15.8625 12.2625 15.9 12.2625C15.975 12.2625 16.0125 12.225 16.05 12.225C16.0875 12.225 16.1625 12.1875 16.2 12.15C16.2375 12.1125 16.275 12.075 16.3125 12.0375C16.35 12 16.3875 11.9625 16.425 11.8875C16.4625 11.85 16.5 11.775 16.5 11.7375C16.5375 11.7 16.5375 11.625 16.5375 11.5875C16.5375 11.55 16.5375 11.475 16.5375 11.4375C16.5375 11.2125 16.4625 10.9875 16.275 10.8375C16.3125 10.8375 16.2375 10.8 16.2 10.7625Z" fill="#161A23"/>
</svg>
