<svg width="24" height="24" viewBox="0 0 24 24" fill="none" xmlns="http://www.w3.org/2000/svg">
<g clip-path="url(#clip0_501_44691)">
<path d="M8.4375 23.25C8.325 23.25 8.25 23.25 8.1375 23.2125C7.7625 23.1375 7.4625 22.875 7.3125 22.5375L5.5125 18.4875L1.5 16.6875C1.1625 16.5375 0.9 16.2375 0.825 15.8625C0.75 15.4875 0.825 15.1125 1.05 14.8125L2.4375 13.05C2.775 12.6375 3.3 12.4875 3.825 12.675L6.4125 13.6125L9.1125 10.5375L3.8625 5.28752C3.6375 5.06252 3.4875 4.76252 3.4875 4.42502C3.4875 4.08752 3.6 3.78752 3.8625 3.56252L5.0625 2.40002C5.4 2.06252 5.925 1.95002 6.375 2.13752L14.175 5.13752L15.9375 3.37502C17.3625 1.95002 19.2375 1.05002 21.2625 0.825022H21.3C21.825 0.787522 22.35 0.975022 22.7625 1.35002C23.1375 1.72502 23.325 2.25002 23.2875 2.77502C23.1 4.83752 22.2 6.78752 20.7 8.21252L18.975 9.93752L21.9375 17.7375C22.125 18.1875 22.0125 18.7125 21.675 19.05L20.5125 20.2125C20.025 20.7 19.275 20.7 18.7875 20.2125L13.5 14.925L10.3875 17.625L11.3625 20.2125C11.55 20.7 11.4 21.2625 10.9875 21.6L9.225 22.9875C9 23.1375 8.7375 23.25 8.4375 23.25ZM2.7375 15.375L6.525 17.025C6.7125 17.1 6.8625 17.25 6.9375 17.4375L8.625 21.2625L9.6375 20.475L8.5875 17.6625C8.475 17.325 8.55 16.95 8.8125 16.725L13.0125 13.125C13.35 12.825 13.8375 12.8625 14.175 13.1625L19.6125 18.6L20.25 17.9625L17.175 9.93752C17.0625 9.63752 17.1375 9.26252 17.3625 9.03752L19.4625 6.93752C20.6625 5.77502 21.4125 4.20002 21.525 2.55002C21.525 2.51252 21.525 2.47502 21.4875 2.47502C21.45 2.43752 21.45 2.43752 21.4125 2.43752H21.375C19.7625 2.62502 18.225 3.33752 17.1 4.50002L14.9625 6.67502C14.7375 6.90002 14.3625 6.97502 14.0625 6.86252L6 3.78752L5.3625 4.42502L10.8375 9.90002C11.1375 10.2 11.175 10.725 10.875 11.0625L7.275 15.1875C7.05 15.45 6.675 15.5625 6.3375 15.4125L3.525 14.4L2.7375 15.375Z" fill="#161A23"/>
</g>
<defs>
<clipPath id="clip0_501_44691">
<rect width="24" height="24" fill="white"/>
</clipPath>
</defs>
</svg>
