<svg width="24" height="24" viewBox="0 0 24 24" fill="none" xmlns="http://www.w3.org/2000/svg">
<path d="M11.9998 18.075C10.6873 16.425 9.93735 15 9.67485 13.725C8.51235 9.1125 15.5248 9.1125 14.3623 13.725C14.0623 15 13.2748 16.5 11.9998 18.075ZM19.1248 21.8625C16.9499 22.8 14.7748 21.3 12.9373 19.275C18.3373 12.525 15.3748 8.85 11.9998 8.85C9.14985 8.85 7.57485 11.2125 8.21235 14.0625C8.58735 15.6 9.52485 17.2875 11.0623 19.2375C9.37485 21.075 7.94985 21.975 6.63735 22.0875C4.04985 22.5 2.02483 19.9875 2.99984 17.4C3.78735 15.375 8.81235 5.4 9.03735 4.875C9.82485 3.3 10.3498 1.9125 12.1123 1.9125C13.7998 1.9125 14.3999 3.225 15.2249 5.025C17.1374 8.6625 19.8748 14.2125 21.1873 17.4C21.7498 19.0875 21.0373 21.075 19.1248 21.8625ZM21.5998 14.8125C14.8874 0.599999 14.5124 0.375 11.9998 0.375C9.63735 0.375 8.62485 2.025 7.61235 4.125C2.06234 15.1875 1.57484 16.6875 1.46234 16.875C0.187335 20.475 2.88734 23.625 6.11235 23.625C7.23735 23.625 9.29985 23.325 11.9623 20.4C15.0373 23.7375 17.2498 23.625 17.8123 23.625C21.0749 23.625 23.7749 20.4375 22.4624 16.875C22.4999 16.65 21.5998 14.85 21.5998 14.8125Z" fill="#15171A"/>
</svg>
