<svg width="24" height="24" viewBox="0 0 24 24" fill="none" xmlns="http://www.w3.org/2000/svg">
<path d="M12.0419 1.96582C11.6145 1.96582 11.1853 2.05182 10.7815 2.22282L1.98601 5.91682C1.49074 6.1248 1.50354 6.82481 1.99782 7.03282L10.8416 10.5908C11.6164 10.9098 12.4831 10.9098 13.2579 10.5908L22.1017 7.03282C22.5969 6.83681 22.5969 6.1248 22.1135 5.91682L13.2943 2.22282C12.8981 2.05265 12.4721 1.96525 12.0419 1.96582ZM23.2744 8.05582C23.1993 8.05631 23.1251 8.07161 23.0558 8.10082L13.1978 11.9778C13.0875 12.0237 12.9931 12.1018 12.9265 12.2022C12.8599 12.3026 12.8241 12.4207 12.8237 12.5418V21.4378C12.8246 21.5352 12.8488 21.6309 12.8943 21.7167C12.9398 21.8024 13.0052 21.8756 13.0848 21.9299C13.1643 21.9843 13.2558 22.0181 13.3511 22.0286C13.4465 22.039 13.5429 22.0257 13.632 21.9898L23.491 18.0998C23.6015 18.0581 23.6967 17.9829 23.7637 17.8843C23.8306 17.7857 23.8661 17.6686 23.8652 17.5488V8.65282C23.8641 8.49439 23.8014 8.34281 23.6907 8.23114C23.5801 8.11946 23.4304 8.0568 23.2744 8.05684V8.05582ZM0.899978 8.09482C0.812554 8.09167 0.725437 8.10694 0.644104 8.1396C0.562766 8.1723 0.48897 8.22176 0.427361 8.2848C0.319052 8.3958 0.234375 8.52982 0.234375 8.6898V17.0448C0.234375 17.4868 0.74145 17.7818 1.1284 17.5848L7.30192 14.5788L7.60421 14.4318L10.5275 12.9958C10.9864 12.7758 10.9509 12.0878 10.4675 11.9038L1.10379 8.1378C1.03915 8.11035 0.970024 8.09542 0.899978 8.09381V8.09482Z" fill="#15171A"/>
</svg>
