<svg width="24" height="24" viewBox="0 0 24 24" fill="none" xmlns="http://www.w3.org/2000/svg">
<path d="M21.7875 19.0875L21 18.225C19.95 17.0625 19.275 15.6 19.1625 14.0625V10.2375C19.1625 8.3625 18.4125 6.5625 17.1 5.25C15.9375 4.0875 14.4375 3.375 12.825 3.225V1.5C12.825 1.05 12.45 0.637497 11.9625 0.637497C11.5125 0.637497 11.1 1.0125 11.1 1.5V3.225C9.56248 3.4125 8.06248 4.125 6.89997 5.25C5.54997 6.5625 4.83748 8.3625 4.83748 10.2375V13.9875V14.0625C4.72497 15.6 4.04998 17.0625 2.99997 18.225L2.21247 19.05C1.98747 19.3125 1.91247 19.65 2.06247 19.95C2.21247 20.25 2.51247 20.4375 2.84997 20.4375H8.51248C8.77498 22.05 10.2 23.2875 11.8875 23.2875C13.575 23.2875 15 22.05 15.2625 20.4375H21.15C21.4875 20.4375 21.7875 20.25 21.9375 19.95C22.0875 19.65 22.0125 19.3125 21.7875 19.0875ZM11.8875 21.675C11.1375 21.675 10.5 21.1875 10.2375 20.5125H13.5375C13.3125 21.15 12.6375 21.675 11.8875 21.675ZM4.72498 18.7875C5.73748 17.475 6.37497 15.8625 6.52497 14.2125C6.52497 14.1375 6.52497 14.0625 6.52497 14.0625V14.025V10.275C6.52497 8.85 7.08748 7.5 8.09998 6.4875C9.11248 5.475 10.4625 4.9125 11.8875 4.9125H12.1125C13.5375 4.9125 14.8875 5.475 15.9 6.4875C16.9125 7.5 17.475 8.85 17.475 10.275V14.0625V14.1V14.25C17.625 15.9 18.225 17.5125 19.275 18.825H4.72498V18.7875Z" fill="#161A23"/>
</svg>
