<svg width="24" height="24" viewBox="0 0 24 24" fill="none" xmlns="http://www.w3.org/2000/svg">
<path d="M16.275 13.05H12.8625V9.56251C12.8625 9.11251 12.4875 8.70001 12 8.70001C11.55 8.70001 11.1375 9.07501 11.1375 9.56251V13.05H11.025C10.575 13.05 10.1625 13.425 10.1625 13.9125C10.1625 14.4 10.5375 14.775 11.025 14.775H11.1375V14.8875C11.1375 15.3375 11.5125 15.75 12 15.75C12.45 15.75 12.8625 15.375 12.8625 14.8875V14.775H16.275C16.725 14.775 17.1375 14.4 17.1375 13.9125C17.1375 13.425 16.725 13.05 16.275 13.05Z" fill="#161A23"/>
<path d="M22.3125 7.16251C22.3125 5.10001 20.6625 3.45001 18.6 3.45001C17.625 3.45001 16.725 3.82501 16.05 4.46251C15.0375 4.01251 13.9875 3.71251 12.825 3.63751V2.36251H13.875C14.325 2.36251 14.7375 1.98751 14.7375 1.50001C14.7375 1.01251 14.3625 0.637512 13.875 0.637512H10.0875C9.63749 0.637512 9.22499 1.01251 9.22499 1.50001C9.22499 1.98751 9.59999 2.36251 10.0875 2.36251H11.1375V3.67501C10.0125 3.78751 8.92499 4.05001 7.91249 4.50001C7.23749 3.86251 6.33749 3.48751 5.36249 3.48751C3.29999 3.48751 1.64999 5.13751 1.64999 7.20001C1.64999 8.21251 2.06249 9.18751 2.81249 9.86251C2.36249 10.9875 2.09999 12.225 2.09999 13.5C2.09999 18.9375 6.52499 23.3625 11.9625 23.3625C17.4 23.3625 21.825 18.9375 21.825 13.5C21.825 12.225 21.5625 10.9875 21.1125 9.86251C21.9 9.15001 22.3125 8.17501 22.3125 7.16251ZM18.6 5.13751C19.725 5.13751 20.625 6.03751 20.625 7.16251C20.625 7.53751 20.5125 7.91251 20.325 8.21251C19.6125 7.08751 18.7125 6.15001 17.625 5.40001C17.925 5.21251 18.2625 5.13751 18.6 5.13751ZM3.37499 7.16251C3.37499 6.03751 4.27499 5.13751 5.39999 5.13751C5.73749 5.13751 6.07499 5.21251 6.37499 5.40001C5.28749 6.15001 4.38749 7.12501 3.67499 8.21251C3.48749 7.87501 3.37499 7.53751 3.37499 7.16251ZM12 21.675C7.49999 21.675 3.82499 18 3.82499 13.5C3.82499 9.00001 7.49999 5.32501 12 5.32501C16.5 5.32501 20.175 9.00001 20.175 13.5C20.175 18 16.5 21.675 12 21.675Z" fill="#161A23"/>
</svg>
