<svg width="24" height="24" viewBox="0 0 24 24" fill="none" xmlns="http://www.w3.org/2000/svg">
<path d="M21.7125 20.325L20.9625 19.125C20.8125 18.9 20.7375 18.675 20.7375 18.4125V10.5375C20.7375 8.32501 19.8 6.22501 18.0375 4.68751C16.6125 3.41251 14.775 2.62501 12.825 2.43751V1.50001C12.825 1.05001 12.45 0.637512 12 0.637512C11.55 0.637512 11.1375 1.01251 11.1375 1.50001V2.43751C11.0625 2.43751 10.9875 2.43751 10.9125 2.47501C6.52502 2.96251 3.22502 6.48751 3.22502 10.6875V18.4125C3.18752 18.7875 3.11252 18.975 3.03752 19.0875L2.28752 20.325C2.06252 20.7 2.06252 21.1875 2.28752 21.525C2.51252 21.8625 2.88752 22.0875 3.30002 22.0875H11.1V22.5C11.1 22.95 11.475 23.3625 11.9625 23.3625C12.45 23.3625 12.7875 22.9875 12.7875 22.5V22.0875H20.6625C21.075 22.0875 21.45 21.8625 21.675 21.525C21.9375 21.15 21.9375 20.7 21.7125 20.325ZM11.1 4.16251C13.275 3.93751 15.375 4.57501 16.9125 5.96251C18.2625 7.20001 19.05 8.81251 19.05 10.575V16.5H4.91252V10.725C4.91252 7.35001 7.57502 4.53751 11.1 4.16251ZM4.20002 20.4L4.50002 19.9125C4.72502 19.5 4.83752 19.0875 4.91252 18.5625V18.15H19.05V18.45C19.05 19.0125 19.2 19.5375 19.5375 20.0625L19.7625 20.4375H4.20002V20.4Z" fill="#161A23"/>
</svg>
