<svg width="24" height="24" viewBox="0 0 24 24" fill="none" xmlns="http://www.w3.org/2000/svg">
<path d="M22.5 18.1125L21.0375 14.7C20.8875 14.325 20.775 13.9125 20.775 13.5V10.5C20.775 8.28751 19.8375 6.22501 18.1125 4.68751C16.65 3.41251 14.8125 2.62501 12.8625 2.43751V1.50001C12.8625 1.05001 12.4875 0.637512 12 0.637512C11.55 0.637512 11.1375 1.01251 11.1375 1.50001V2.43751C11.0625 2.43751 10.9875 2.43751 10.9125 2.47501C6.525 2.96251 3.225 6.48751 3.225 10.65V13.5C3.225 13.9125 3.15 14.325 2.9625 14.7L1.5 18.1125C1.125 18.975 1.2 19.9875 1.725 20.775C2.25 21.5625 3.15 22.05 4.0875 22.05H11.1375V22.425V22.5375C11.1375 22.9875 11.5125 23.4 11.9625 23.4C12.4125 23.4 12.7875 23.025 12.825 22.575V22.0875H19.875C20.85 22.0875 21.7125 21.6 22.2375 20.8125C22.8 19.95 22.875 18.975 22.5 18.1125ZM20.85 19.8375C20.625 20.175 20.2875 20.3625 19.9125 20.3625H4.0875C3.7125 20.3625 3.3375 20.175 3.15 19.8375C2.925 19.5 2.8875 19.125 3.0375 18.7875L4.5 15.375C4.7625 14.775 4.875 14.1375 4.875 13.5V10.65C4.875 7.35001 7.5375 4.53751 11.0625 4.16251C11.3625 4.12501 11.6625 4.12501 11.925 4.12501C13.8 4.12501 15.5625 4.76251 16.9125 6.00001C18.2625 7.23751 19.0125 8.85001 19.0125 10.575V13.5C19.0125 14.1375 19.125 14.775 19.3875 15.375L20.85 18.7875C21.1125 19.125 21.075 19.5 20.85 19.8375Z" fill="#161A23"/>
</svg>
