<svg width="24" height="24" viewBox="0 0 24 24" fill="none" xmlns="http://www.w3.org/2000/svg">
<path d="M17.025 9.56255V4.53755V4.50005C17.025 2.21255 12.9 1.05005 8.84999 1.05005C4.76249 1.01255 0.674988 2.21255 0.674988 4.50005V13.6875C0.674988 15.975 4.79999 17.175 8.84999 17.175C9.22499 17.175 9.63749 17.175 10.0125 17.1375C10.425 20.4375 13.2375 22.9875 16.65 22.9875C20.3625 22.9875 23.3625 19.9875 23.3625 16.275C23.3625 12.675 20.55 9.78755 17.025 9.56255ZM2.36249 6.67505C3.93749 7.50005 6.41249 7.95005 8.84999 7.95005C11.2875 7.95005 13.7625 7.50005 15.3375 6.67505V7.80005C15.3 8.32505 13.05 9.56255 8.84999 9.56255C4.64999 9.56255 2.36249 8.28755 2.36249 7.80005V6.67505ZM8.84999 2.70005C13.05 2.70005 15.3375 3.97505 15.3375 4.46255C15.3 4.98755 13.05 6.22505 8.84999 6.22505C4.64999 6.22505 2.36249 4.95005 2.36249 4.46255C2.36249 3.97505 4.61249 2.70005 8.84999 2.70005ZM2.36249 9.97505C3.89999 10.8 6.37499 11.25 8.84999 11.25C10.1625 11.25 11.475 11.1375 12.675 10.875C12.1125 11.2875 11.625 11.775 11.2125 12.375C10.4625 12.4875 9.67499 12.525 8.84999 12.525C4.64999 12.525 2.36249 11.25 2.36249 10.7625V9.97505ZM2.36249 13.6875V12.9375C3.93749 13.7625 6.41249 14.2125 8.84999 14.2125C9.33749 14.2125 9.82499 14.2125 10.275 14.175C10.125 14.5875 10.05 15 9.97499 15.45C9.59999 15.4875 9.22499 15.4875 8.81249 15.4875C4.57499 15.45 2.36249 14.1375 2.36249 13.6875ZM16.65 21.3C13.875 21.3 11.625 19.05 11.625 16.275C11.625 13.5 13.875 11.25 16.65 11.25C19.425 11.25 21.675 13.5 21.675 16.275C21.675 19.05 19.3875 21.3 16.65 21.3Z" fill="#161A23"/>
<path d="M16.65 12.8625C16.2 12.8625 15.7875 13.2375 15.7875 13.725V16.875C15.7875 17.325 16.1625 17.7375 16.65 17.7375C17.1375 17.7375 17.5125 17.3625 17.5125 16.875V13.725C17.475 13.2375 17.1 12.8625 16.65 12.8625Z" fill="#161A23"/>
<path d="M16.65 18.4126C16.2 18.4126 15.7875 18.7876 15.7875 19.2751V19.4251C15.7875 19.8751 16.1625 20.2876 16.65 20.2876C17.1375 20.2876 17.5125 19.9126 17.5125 19.4251V19.2751C17.475 18.7876 17.1 18.4126 16.65 18.4126Z" fill="#161A23"/>
</svg>
