<svg width="24" height="24" viewBox="0 0 24 24" fill="none" xmlns="http://www.w3.org/2000/svg">
<path d="M17.7 16.0875C17.625 15.975 17.625 15.9 17.625 15.825V11.0625C17.625 9.63752 17.025 8.28752 15.9 7.27502C15.0375 6.52502 13.9875 6.03752 12.8625 5.88752V5.13752C12.8625 4.68752 12.4875 4.27502 12 4.27502C11.55 4.27502 11.1375 4.65002 11.1375 5.13752V5.88752C8.39999 6.26252 6.37499 8.51252 6.37499 11.1375V15.7875C6.33749 15.9375 6.33749 16.0125 6.29999 16.05L5.84999 16.8C5.62499 17.1375 5.62499 17.55 5.84999 17.8875C6.03749 18.1875 6.37499 18.375 6.74999 18.375H11.1375V18.8625C11.1375 19.3125 11.5125 19.725 12 19.725C12.45 19.725 12.8625 19.35 12.8625 18.8625V18.375H17.25C17.625 18.375 17.9625 18.1875 18.15 17.8875C18.375 17.55 18.3375 17.1375 18.15 16.8L17.7 16.0875ZM7.87499 16.6875C7.94999 16.4625 8.02499 16.2375 8.06249 15.9375V11.1375C8.06249 9.30002 9.52499 7.72502 11.475 7.53752C12.675 7.38752 13.875 7.76252 14.7375 8.55002C15.4875 9.22502 15.9 10.125 15.9 11.1V15.8625C15.9 16.1625 15.975 16.4625 16.0875 16.725H7.87499V16.6875Z" fill="#161A23"/>
<path d="M4.98749 10.8751C4.64999 10.5376 4.12499 10.5376 3.78749 10.8376C3.26249 11.3251 2.96249 12.0001 2.96249 12.7501C2.96249 13.4626 3.26249 14.1376 3.78749 14.6626C3.93749 14.8126 4.16249 14.8876 4.38749 14.8876C4.61249 14.8876 4.83749 14.8126 4.98749 14.6251C5.32499 14.2876 5.28749 13.7626 4.94999 13.4251C4.76249 13.2376 4.64999 13.0126 4.64999 12.7501C4.64999 12.4876 4.76249 12.2626 4.94999 12.0751C5.28749 11.7376 5.28749 11.2126 4.98749 10.8751Z" fill="#161A23"/>
<path d="M2.36249 12.75C2.36249 11.8875 2.69999 11.1 3.33749 10.5C3.67499 10.1625 3.67499 9.63751 3.37499 9.30001C3.07499 8.96251 2.51249 8.96251 2.17499 9.26251C1.19999 10.2 0.674988 11.4375 0.674988 12.75C0.674988 14.0625 1.19999 15.3 2.17499 16.2375C2.32499 16.3875 2.54999 16.4625 2.77499 16.4625C2.99999 16.4625 3.22499 16.3875 3.37499 16.2C3.71249 15.8625 3.67499 15.3375 3.33749 15C2.69999 14.4 2.36249 13.6125 2.36249 12.75Z" fill="#161A23"/>
<path d="M20.2125 10.8376C19.875 10.5001 19.35 10.5376 19.0125 10.8751C18.675 11.2126 18.7125 11.7376 19.05 12.0751C19.2375 12.2626 19.35 12.4876 19.35 12.7501C19.35 13.0126 19.2375 13.2376 19.05 13.4251C18.7125 13.7626 18.7125 14.2876 19.0125 14.6251C19.1625 14.8126 19.3875 14.8876 19.6125 14.8876C19.8375 14.8876 20.025 14.8126 20.2125 14.6626C20.7375 14.1751 21.0375 13.5001 21.0375 12.7501C21.0375 12.0376 20.7375 11.3626 20.2125 10.8376Z" fill="#161A23"/>
<path d="M21.8625 9.2625C21.525 8.925 21 8.9625 20.6625 9.3C20.325 9.6375 20.3625 10.1625 20.7 10.5C21.3375 11.1 21.675 11.925 21.675 12.75C21.675 13.6125 21.3375 14.4 20.7 15C20.3625 15.3375 20.3625 15.8625 20.6625 16.2C20.8125 16.3875 21.0375 16.4625 21.2625 16.4625C21.4875 16.4625 21.675 16.3875 21.8625 16.2375C22.8375 15.3 23.3625 14.0625 23.3625 12.75C23.3625 11.4375 22.8 10.2 21.8625 9.2625Z" fill="#161A23"/>
</svg>
