<svg width="24" height="24" viewBox="0 0 24 24" fill="none" xmlns="http://www.w3.org/2000/svg">
<path d="M21.6 19.9125L20.85 18.75C20.7 18.525 20.625 18.3 20.625 18.0375V10.2375C20.625 8.02501 19.6875 5.96251 17.9625 4.42501C16.575 3.18751 14.775 2.40001 12.8625 2.25001V1.50001C12.8625 1.05001 12.4875 0.637512 12 0.637512C11.55 0.637512 11.1375 1.01251 11.1375 1.50001V2.21251C11.0625 2.21251 10.9875 2.21251 10.9125 2.25001C6.56251 2.73751 3.30001 6.22501 3.30001 10.3875V18.0375C3.26251 18.4125 3.18751 18.6 3.11251 18.7125L2.40001 19.9125C2.17501 20.2875 2.17501 20.7375 2.40001 21.1125C2.62501 21.45 3.00001 21.675 3.41251 21.675H11.175V22.5C11.175 22.95 11.55 23.3625 12.0375 23.3625C12.4875 23.3625 12.9 22.9875 12.9 22.5V21.675H20.625C21.0375 21.675 21.4125 21.45 21.6375 21.1125C21.8625 20.7375 21.8625 20.2875 21.6 19.9125ZM4.31251 19.9875L4.57501 19.5375C4.80001 19.1625 4.91251 18.7125 4.98751 18.1875V10.3875C4.98751 7.08751 7.61251 4.31251 11.1 3.93751C13.2375 3.71251 15.3375 4.35001 16.875 5.70001C18.225 6.90001 18.975 8.51251 18.975 10.2375V18.0375C18.975 18.6 19.125 19.125 19.4625 19.65L19.6875 19.9875H4.31251Z" fill="#161A23"/>
</svg>
