<svg width="24" height="24" viewBox="0 0 24 24" fill="none" xmlns="http://www.w3.org/2000/svg">
<path d="M17.7375 2.17501L19.5 3.56251C19.65 3.67501 19.8375 3.75001 20.025 3.75001C20.2875 3.75001 20.5125 3.63751 20.7 3.41251C21 3.03751 20.925 2.51251 20.55 2.21251L18.75 0.825006C18.375 0.525006 17.85 0.600006 17.55 0.975006C17.2875 1.35001 17.3625 1.87501 17.7375 2.17501Z" fill="#161A23"/>
<path d="M3.97501 3.75001C4.16251 3.75001 4.35001 3.67501 4.50001 3.56251L6.30001 2.17501C6.67501 1.87501 6.75001 1.35001 6.45001 0.975006C6.15001 0.600006 5.62501 0.525006 5.25001 0.825006L3.45001 2.25001C3.07501 2.51251 3.00001 3.03751 3.30001 3.41251C3.45001 3.63751 3.71251 3.75001 3.97501 3.75001Z" fill="#161A23"/>
<path d="M18.075 19.3875C20.2125 17.625 21.5625 14.9625 21.5625 12C21.5625 6.7125 17.2875 2.4375 12 2.4375C6.7125 2.4375 2.4375 6.7125 2.4375 12C2.4375 14.9625 3.7875 17.625 5.925 19.3875L3.6 21.9375C3.3 22.275 3.3 22.8 3.6375 23.1375C3.7875 23.2875 4.0125 23.3625 4.2 23.3625C4.425 23.3625 4.65 23.2875 4.8375 23.1L7.35 20.3625C8.7375 21.15 10.3125 21.6 12.0375 21.6C13.725 21.6 15.3375 21.15 16.725 20.3625L19.2375 23.1C19.3875 23.2875 19.65 23.3625 19.875 23.3625C20.0625 23.3625 20.2875 23.2875 20.4375 23.1375C20.775 22.8375 20.8125 22.275 20.475 21.9375L18.075 19.3875ZM4.125 12C4.125 7.65 7.65 4.125 12 4.125C16.35 4.125 19.875 7.65 19.875 12C19.875 16.35 16.35 19.875 12 19.875C7.65 19.875 4.125 16.35 4.125 12Z" fill="#161A23"/>
<path d="M16.5 11.1375H12.825V7.6125C12.825 7.1625 12.45 6.75 11.9625 6.75C11.5125 6.75 11.1 7.125 11.1 7.6125V12C11.1 12.45 11.475 12.8625 11.9625 12.8625H16.4625C16.9125 12.8625 17.325 12.4875 17.325 12C17.325 11.5125 16.95 11.1375 16.5 11.1375Z" fill="#161A23"/>
</svg>
