<svg width="24" height="24" viewBox="0 0 24 24" fill="none" xmlns="http://www.w3.org/2000/svg">
<path d="M23.3625 3.675C23.3625 2.4 22.3125 1.3125 21 1.3125H3C1.725 1.3125 0.637497 2.3625 0.637497 3.675V8.325C0.637497 8.8875 0.824997 9.4125 1.1625 9.825C0.824997 10.2375 0.637497 10.725 0.637497 11.2875V16.05C0.637497 17.325 1.65 18.3375 2.925 18.3375H15.6C16.05 18.3375 16.4625 17.9625 16.4625 17.475C16.4625 16.9875 16.0875 16.6125 15.6 16.6125H2.9625C2.625 16.6125 2.3625 16.35 2.3625 16.0125V11.2875C2.3625 10.95 2.625 10.6875 2.9625 10.6875H3H21H21.0375C21.375 10.6875 21.6375 10.95 21.6375 11.2875V14.625C21.6375 15.075 22.0125 15.4875 22.5 15.4875C22.9875 15.4875 23.3625 15.1125 23.3625 14.625V11.325C23.3625 10.7625 23.175 10.275 22.8375 9.8625C23.175 9.45 23.3625 8.925 23.3625 8.3625V3.675ZM3 9C2.625 9 2.325 8.7 2.325 8.325V3.675C2.325 3.3 2.625 3 3 3H21C21.375 3 21.675 3.3 21.675 3.675V8.325C21.675 8.7 21.375 9 21 9H3Z" fill="#161A23"/>
<path d="M6.0375 5.1001C5.5875 5.1001 5.175 5.4751 5.175 5.9626V6.0001C5.175 6.4501 5.55 6.8626 6.0375 6.8626C6.525 6.8626 6.9 6.4876 6.9 6.0001V5.9251C6.9 5.4751 6.525 5.1001 6.0375 5.1001Z" fill="#161A23"/>
<path d="M18.7875 5.13745H16.35C15.9 5.13745 15.4875 5.51245 15.4875 5.99995C15.4875 6.48745 15.8625 6.86245 16.35 6.86245H18.7875C19.2375 6.86245 19.65 6.48745 19.65 5.99995C19.65 5.51245 19.275 5.13745 18.7875 5.13745Z" fill="#161A23"/>
<path d="M5.21249 13.6125V13.6875C5.21249 14.1375 5.58749 14.55 6.07499 14.55C6.56249 14.55 6.93749 14.175 6.93749 13.6875V13.6125C6.93749 13.1625 6.56249 12.75 6.07499 12.75C5.58749 12.75 5.21249 13.125 5.21249 13.6125Z" fill="#161A23"/>
<path d="M19.8375 15.9751C19.3875 15.9751 18.975 16.3501 18.975 16.8376V18.8251C18.975 19.2751 19.35 19.6876 19.8375 19.6876C20.325 19.6876 20.7 19.3126 20.7 18.8251V16.8376C20.7 16.3501 20.325 15.9751 19.8375 15.9751Z" fill="#161A23"/>
<path d="M19.8375 20.8125C19.3875 20.8125 18.975 21.1875 18.975 21.675V21.825C18.975 22.275 19.35 22.6875 19.8375 22.6875C20.325 22.6875 20.7 22.3125 20.7 21.825V21.675C20.7 21.1875 20.325 20.8125 19.8375 20.8125Z" fill="#161A23"/>
</svg>
