<svg width="24" height="24" viewBox="0 0 24 24" fill="none" xmlns="http://www.w3.org/2000/svg">
<path d="M0.375 14.8126C0.375 14.7751 0.4125 14.7001 0.4875 14.7001C0.5625 14.6626 0.675 14.7001 0.75 14.7376C1.1625 14.9626 1.5375 15.1501 1.95 15.3751C3.4875 16.1251 5.1375 16.6876 6.7875 17.1376C7.575 17.2876 8.3625 17.4376 9.1875 17.5501C10.3875 17.7001 11.5875 17.7751 12.7875 17.7001C13.425 17.7001 14.1 17.6626 14.8125 17.5501C16.9125 17.2876 19.05 16.7626 21 15.9001C21.1125 15.8626 21.225 15.8626 21.375 15.8626C21.6375 15.9001 21.675 16.1626 21.525 16.3876C21.4125 16.5001 21.3 16.5376 21.15 16.6501C19.9875 17.4376 18.7125 18.0376 17.4 18.4501C16.4625 18.7126 15.4875 18.9751 14.55 19.0876C12.7875 19.2751 10.95 19.3126 9.1875 19.0501C8.1375 18.9001 7.125 18.6376 6.1125 18.2626C5.5125 18.0376 4.9125 17.7751 4.35 17.5126C3.7875 17.2126 3.225 16.9126 2.6625 16.5751C2.1 16.1251 1.6125 15.7501 1.0875 15.3751C1.0125 15.3001 0.9 15.2251 0.825 15.1501C0.75 15.0751 0.675 14.9626 0.525 14.9626C0.4875 14.9626 0.45 14.9251 0.4125 14.9251C0.4125 14.8501 0.375 14.8501 0.375 14.8126ZM6.375 4.83765L6.225 4.87515C5.7 4.91265 5.2125 5.13765 4.8 5.47515C4.6875 5.51265 4.65 5.62515 4.5375 5.70015V5.66265C4.5375 5.55015 4.5 5.43765 4.5 5.36265C4.4625 5.21265 4.3875 5.10015 4.2375 5.10015H3.75C3.4875 5.10015 3.45 5.13765 3.45 5.40015V13.3501C3.45 13.3876 3.45 13.3876 3.45 13.4626C3.45 13.5751 3.4875 13.6126 3.6 13.6126C3.8625 13.6126 4.125 13.6126 4.3875 13.6126C4.5 13.6126 4.5375 13.5751 4.5375 13.4626C4.5375 13.4251 4.5375 13.4251 4.5375 13.3501V10.6126C4.575 10.6501 4.575 10.6501 4.575 10.6501C5.25 11.2501 6 11.4001 6.9 11.2501C7.65 11.1001 8.2125 10.6126 8.5875 9.93765C8.85 9.41265 8.9625 8.81265 9 8.25015C9.0375 7.61265 8.9625 6.97515 8.7375 6.33765C8.4375 5.58765 7.875 5.13765 7.05 4.91265C6.9375 4.87515 6.7875 4.87515 6.675 4.87515C6.6375 4.83765 6.525 4.83765 6.375 4.83765ZM4.6125 6.48765C4.6125 6.45015 4.65 6.37515 4.65 6.37515C5.175 6.00015 5.775 5.85015 6.4125 5.85015C7.0125 5.88765 7.425 6.15015 7.6875 6.86265C7.8375 7.27515 7.8375 7.72515 7.8375 8.13765C7.8375 8.55015 7.8 8.92515 7.6875 9.30015C7.425 10.0876 6.825 10.4251 6.0375 10.4251C5.5125 10.3876 5.025 10.2001 4.6125 9.90015C4.6125 9.78765 4.6125 9.75015 4.6125 9.75015C4.6125 9.22515 4.6125 8.70015 4.6125 8.17515C4.6125 7.53765 4.6125 7.01265 4.6125 6.48765ZM12.4125 4.83765C12.375 4.83765 12.375 4.83765 12.3 4.83765C11.925 4.83765 11.55 4.87515 11.175 4.98765C10.95 5.02515 10.6875 5.13765 10.5 5.21265C10.35 5.25015 10.275 5.36265 10.275 5.47515C10.275 5.58765 10.275 5.73765 10.275 5.85015C10.275 6.00015 10.3125 6.07515 10.5375 6.00015C10.8 5.96265 11.1375 5.85015 11.4375 5.77515C11.925 5.73765 12.375 5.66265 12.8625 5.73765C13.125 5.77515 13.35 5.85015 13.5 6.03765C13.65 6.18765 13.65 6.45015 13.725 6.67515C13.725 6.97515 13.725 7.31265 13.725 7.61265V7.65015C13.6875 7.65015 13.6875 7.65015 13.6875 7.65015C13.275 7.53765 12.9 7.50015 12.4875 7.50015C12.075 7.46265 11.625 7.50015 11.2125 7.65015C10.6875 7.80015 10.35 8.13765 10.0875 8.58765C9.9375 8.96265 9.8625 9.33765 9.9375 9.75015C9.975 10.2751 10.2375 10.6876 10.725 10.9501C11.1375 11.2126 11.6625 11.2126 12.15 11.1751C12.75 11.1376 13.275 10.8751 13.6875 10.5001C13.725 10.5001 13.725 10.4626 13.725 10.4626C13.7625 10.6126 13.7625 10.7251 13.7625 10.8751C13.8 10.9876 13.875 11.0251 13.9875 11.0251C14.2125 11.0251 14.4 11.0251 14.625 11.0251C14.7375 11.0251 14.775 10.9876 14.775 10.8751C14.775 10.8376 14.775 10.8376 14.775 10.7626V6.82515C14.775 6.67515 14.775 6.52515 14.7375 6.30015C14.7 5.77515 14.475 5.40015 13.9875 5.13765C13.725 4.98765 13.4625 4.91265 13.125 4.87515C12.975 4.83765 12.8625 4.83765 12.7125 4.83765C12.75 4.83765 12.5625 4.83765 12.4125 4.83765ZM13.7625 9.71265C13.7625 9.75015 13.725 9.75015 13.725 9.82515C13.3125 10.0876 12.825 10.3501 12.3 10.4251C12.075 10.4626 11.8875 10.4251 11.6625 10.3876C11.4375 10.3501 11.25 10.1251 11.175 9.86265C11.1375 9.60015 11.1375 9.33765 11.175 9.11265C11.2875 8.81265 11.475 8.58765 11.8125 8.51265C12.075 8.40015 12.45 8.40015 12.75 8.47515C13.05 8.51265 13.3875 8.51265 13.6875 8.62515C13.725 8.62515 13.725 8.66265 13.725 8.73765C13.725 8.88765 13.725 9.11265 13.725 9.26265C13.725 9.41265 13.7625 9.56265 13.7625 9.71265ZM23.55 14.6626C23.55 14.5501 23.475 14.4376 23.325 14.3626C22.95 14.1751 22.425 14.1376 22.0125 14.1376C21.15 14.1001 20.175 14.3251 19.425 14.8126C19.3875 14.8501 19.3125 14.8501 19.275 14.9626C19.2375 15.0001 19.2375 15.0751 19.2375 15.1126C19.2375 15.1501 19.275 15.1501 19.3875 15.1501C19.425 15.1501 19.425 15.1501 19.425 15.1501C19.6875 15.1126 20.025 15.1126 20.2875 15.0376C20.8125 14.9251 21.4875 14.9626 22.0125 15.0376C22.125 15.0751 22.2 15.0751 22.275 15.1501C22.425 15.2626 22.425 15.4876 22.3875 15.6751C22.275 16.5001 21.975 17.3626 21.5625 18.0751C21.525 18.1126 21.525 18.1501 21.525 18.1876C21.525 18.2626 21.6375 18.3001 21.7125 18.3001C21.7875 18.2626 21.8625 18.2251 21.9 18.1501C22.0125 18.0376 22.125 17.9251 22.2 17.8126C22.575 17.3626 22.8375 16.8001 23.0625 16.2376C23.2875 15.7876 23.5875 15.1876 23.55 14.6626ZM18.6375 9.97515C18.1125 8.66265 17.625 7.27515 17.1375 5.88765C17.1 5.66265 16.9875 5.47515 16.875 5.25015C16.8375 5.13765 16.7625 5.10015 16.6125 5.10015C16.35 5.10015 16.0125 5.10015 15.75 5.10015C15.6375 5.10015 15.6 5.13765 15.6375 5.25015C15.675 5.28765 15.675 5.40015 15.675 5.47515C16.425 7.31265 17.175 9.18765 17.9625 10.9876C18 11.1376 18 11.2501 17.9625 11.4001C17.85 11.6626 17.7375 12.0001 17.5875 12.2626C17.475 12.5251 17.325 12.6751 16.9875 12.7876C16.8375 12.9001 16.6125 12.9001 16.4625 12.9001C16.35 12.9001 16.3125 12.8626 16.2 12.8626C16.05 12.8626 16.05 12.9001 16.05 13.0126C16.05 13.1251 16.05 13.2751 16.05 13.3876C16.05 13.6126 16.0875 13.6501 16.3125 13.6876C16.5375 13.7251 16.725 13.7251 16.95 13.7251C17.5875 13.7251 18.1125 13.4626 18.45 12.9376C18.6 12.7126 18.7125 12.4501 18.825 12.2626C19.725 9.97515 20.625 7.72515 21.525 5.43765C21.5625 5.40015 21.5625 5.28765 21.5625 5.21265C21.5625 5.10015 21.525 5.06265 21.4125 5.06265C21.15 5.06265 20.8875 5.06265 20.6625 5.06265C20.5125 5.06265 20.4 5.10015 20.4 5.21265C20.3625 5.25015 20.3625 5.32515 20.3625 5.36265L19.05 9.22515C18.9375 9.48765 18.9 9.75015 18.7875 10.0876C18.6375 10.0501 18.6375 9.97515 18.6375 9.97515Z" fill="#15171A"/>
</svg>
