<svg width="24" height="24" viewBox="0 0 24 24" fill="none" xmlns="http://www.w3.org/2000/svg">
<path d="M9.71338 13.3124C10.1259 13.7624 10.6509 14.0249 11.2509 14.0249C11.3259 14.0249 11.4384 14.0249 11.5884 13.9874C11.6259 13.9874 11.6634 13.9874 11.7009 13.9499C12.3759 13.7624 12.9384 13.3124 13.2759 12.6374C13.4259 12.3374 13.5384 12.0374 13.6134 11.7374C13.6884 11.4749 13.7259 11.2124 13.7259 10.9499V9.78743C13.7259 9.33743 13.3509 8.92493 12.8634 8.92493C12.1134 8.92493 11.5884 8.96243 11.2134 9.07493C9.90088 9.44993 9.15088 10.3874 9.15088 11.6999C9.18838 12.3749 9.33838 12.8624 9.71338 13.3124C9.67588 13.3124 9.67588 13.3124 9.71338 13.3124ZM11.7009 10.7624C11.7759 10.7249 11.8884 10.7249 12.0384 10.6874V10.9874C12.0384 11.0624 12.0009 11.2499 11.9634 11.3999C11.9259 11.5499 11.8509 11.6999 11.7759 11.8874C11.6259 12.1874 11.4384 12.2999 11.3259 12.3374C11.2884 12.3374 11.2509 12.3374 11.1759 12.3749C11.1009 12.3749 11.0634 12.3374 10.9884 12.2624C10.9134 12.1499 10.8759 11.9999 10.8759 11.7749C10.8759 11.2874 10.9884 10.9499 11.7009 10.7624Z" fill="#15171A"/>
<path d="M5.84971 9.22508C5.24971 10.0876 4.94971 11.1376 4.94971 12.3001C4.94971 13.8376 5.39971 15.0376 6.29971 15.8626C7.16221 16.6876 8.32471 17.1376 9.67471 17.1376C10.4997 17.1376 11.1747 17.0626 11.7747 16.8751C12.4872 16.6501 13.1997 16.2376 13.9122 15.6376C14.3247 16.0876 14.7747 16.6501 14.9247 16.7626C14.9622 16.8001 15.0372 16.8376 15.1122 16.8751C15.3372 16.9876 15.5622 17.0251 15.7872 17.0251C16.1247 17.0251 16.3872 16.9501 16.6122 16.7626C16.7247 16.6876 17.3622 16.1251 17.8122 15.7126C18.9747 14.6626 19.1247 14.4751 19.1247 14.0626C19.1247 13.8001 19.0497 13.5376 18.8622 13.2751C18.8622 13.2376 18.8247 13.2001 18.7872 13.2001C18.5622 12.9001 18.4122 12.6751 18.2622 12.5251C18.2622 12.5251 18.1872 12.4126 18.0747 12.1126C17.9997 11.8876 17.9622 11.6251 17.9622 11.3251V6.00008C17.9622 5.77508 17.9622 5.51258 17.9247 5.36258C17.8872 4.91258 17.8497 4.76258 17.8122 4.65008C17.5122 2.77508 15.8247 0.787577 12.1122 0.675077C12.0372 0.675077 9.78721 0.600077 7.83721 1.61258C6.67471 2.21258 5.81221 3.56258 5.43721 5.21258C5.39971 5.40008 5.39971 5.51258 5.39971 5.58758C5.39971 6.22508 5.81221 6.67508 6.44971 6.82508C6.48721 6.82508 6.48721 6.82508 6.52471 6.82508L8.77471 7.08758C8.58721 7.16258 8.43721 7.20008 8.24971 7.27508C7.23721 7.72508 6.41221 8.36258 5.84971 9.22508ZM11.6247 8.21258C11.9622 8.17508 12.4497 8.13758 13.1247 8.06258L13.5372 8.02508C13.9872 7.98758 14.3247 7.61258 14.3247 7.20008V6.82508C14.3247 5.66258 14.1747 4.91258 13.8747 4.46258C13.3497 3.75008 12.7122 3.37508 11.8497 3.37508C11.6247 3.37508 10.6872 3.37508 9.78721 4.08758C9.33721 4.46258 8.99971 4.91258 8.84971 5.47508L7.23721 5.28758C7.49971 4.27508 8.02471 3.48758 8.66221 3.15008C10.2372 2.32508 12.0747 2.40008 12.1122 2.40008C15.5622 2.51258 16.1622 4.42508 16.2747 4.98758C16.2747 5.02508 16.2747 5.06258 16.2747 5.06258C16.2747 5.06258 16.3122 5.17508 16.3122 5.55008C16.3497 5.81258 16.3497 6.00008 16.3497 6.03758V11.3626C16.3497 11.8501 16.4247 12.3001 16.5372 12.6751C16.6872 13.1251 16.8372 13.4251 17.0247 13.6501C17.0997 13.7251 17.1747 13.8376 17.2872 13.9876C16.8747 14.3626 16.1997 15.0001 15.8247 15.3001C15.4497 14.8876 14.7747 14.1001 14.6622 13.9501C14.5122 13.7626 14.2872 13.6126 14.0622 13.6126C13.7997 13.5751 13.5372 13.6876 13.3872 13.8751C12.6747 14.6251 11.9997 15.1126 11.3622 15.3001C10.9122 15.4126 10.3872 15.4876 9.74971 15.4876C8.84971 15.4876 8.09971 15.2251 7.53721 14.6626C6.97471 14.1376 6.71221 13.3876 6.71221 12.3376C6.71221 11.5126 6.89971 10.8001 7.31221 10.2376C7.68721 9.67508 8.24971 9.26258 8.99971 8.96258C9.63721 8.55008 10.5747 8.32508 11.6247 8.21258ZM10.0122 6.78758C10.1997 6.60008 10.3497 6.30008 10.4247 6.00008C10.4997 5.73758 10.6122 5.55008 10.7997 5.40008C11.2497 5.06258 11.7372 5.06258 11.7372 5.06258C11.7747 5.06258 11.7747 5.06258 11.8122 5.06258C12.1122 5.06258 12.2997 5.17508 12.4872 5.40008C12.4872 5.40008 12.5997 5.62508 12.6372 6.41258C12.1122 6.45008 11.7372 6.48758 11.4372 6.52508C10.9122 6.60008 10.4247 6.67508 10.0122 6.78758Z" fill="#15171A"/>
<path d="M19.9128 19.425C19.8753 19.4625 19.8003 19.4625 19.6503 19.5375C19.5378 19.575 19.4628 19.6125 19.3878 19.65C17.0253 20.55 14.6253 21 12.2253 21C8.5878 21 5.2503 20.1 2.13779 18.3375C2.02529 18.2625 1.91279 18.2625 1.83779 18.375C1.80029 18.4125 1.80029 18.45 1.80029 18.4875C1.80029 18.525 1.83779 18.6 1.91279 18.675C3.26279 19.9125 4.8003 20.85 6.5253 21.525C8.2128 22.125 10.0503 22.5 12.0003 22.5C13.2378 22.5 14.5128 22.3125 15.8628 21.975C17.1753 21.6 18.3753 21.15 19.4253 20.5125C19.8003 20.325 20.0628 20.1 20.2503 19.95C20.4378 19.8375 20.4378 19.6875 20.3628 19.5375C20.2503 19.3875 20.1003 19.35 19.9128 19.425Z" fill="#15171A"/>
<path d="M22.0872 18.1502C21.9747 18.0377 21.6372 17.9252 21.0747 17.8877C20.9622 17.8502 20.8497 17.8502 20.6997 17.8502C20.2497 17.8502 19.7997 17.9252 19.3122 18.0377C19.0497 18.1127 18.7122 18.2252 18.4122 18.4877C18.3747 18.5252 18.3372 18.6002 18.2997 18.6377C18.2997 18.6752 18.2622 18.6752 18.2622 18.6752C18.2622 18.7127 18.2622 18.7127 18.2997 18.7502C18.3372 18.7877 18.3747 18.7877 18.4497 18.7877C18.7122 18.7502 18.9747 18.7127 19.2747 18.6752C19.5372 18.6377 19.7997 18.6377 20.0247 18.6377C20.5872 18.6377 20.9247 18.7127 21.0747 18.8627C21.1122 18.9002 21.1497 19.0127 21.1497 19.1627C21.1497 19.5752 20.9247 20.3252 20.4747 21.4127C20.4372 21.5252 20.4372 21.6002 20.5122 21.6002C20.5497 21.6002 20.5497 21.6377 20.5872 21.6377C20.6247 21.6377 20.6997 21.6002 20.7747 21.5627C21.1872 21.1877 21.5247 20.7377 21.7872 20.1377C22.0497 19.5377 22.1622 19.0502 22.1622 18.6002V18.4877C22.1622 18.3377 22.1622 18.2627 22.0872 18.1502Z" fill="#15171A"/>
</svg>
