<svg width="24" height="24" viewBox="0 0 24 24" fill="none" xmlns="http://www.w3.org/2000/svg">
<path d="M21.0006 17.3252C18.1506 18.5252 15.0381 19.1252 12.2256 19.1252C8.10064 19.1627 4.05064 18.0002 0.750626 16.0502C0.488126 15.9002 0.225625 16.1627 0.488126 16.4252C3.48813 19.1627 7.50064 20.8127 11.9631 20.8127C15.1506 20.8127 18.8256 19.8002 21.3756 17.9627C21.8256 17.6252 21.4506 17.1377 21.0006 17.3252Z" fill="#15171A"/>
<path d="M23.5133 15.9002C23.2508 15.5252 20.8883 15.2627 19.3883 16.2752C19.1633 16.4252 19.2382 16.6502 19.4257 16.6502C20.2132 16.5377 22.0508 16.3502 22.3883 16.7627C22.7258 17.1752 22.0132 18.8627 21.7507 19.6502C21.6382 19.8752 21.8632 19.9502 22.0507 19.8002C23.4757 18.6377 23.8508 16.2377 23.5133 15.9002Z" fill="#15171A"/>
<path d="M13.1634 7.76257C11.9634 7.87507 10.3134 7.98757 9.18838 8.51257C7.87588 9.07507 6.90088 10.2376 6.90088 11.9626C6.90088 14.1751 8.28838 15.3001 10.0884 15.3001C11.5509 15.3001 12.4134 14.9251 13.5759 13.7626C13.9509 14.2876 14.1009 14.6251 14.7759 15.1876C14.9259 15.2251 15.1509 15.2251 15.3009 15.1501C15.7134 14.7751 16.5009 14.1001 16.9509 13.7626C17.1009 13.6126 17.1009 13.3876 16.9509 13.2376C16.5759 12.7126 16.1634 12.3001 16.1634 11.2876V7.95007C16.1634 6.56257 16.2759 5.25007 15.2259 4.31257C14.4384 3.52507 13.0509 3.26257 12.0384 3.26257C10.0134 3.26257 7.80088 4.01257 7.35088 6.48757C7.31338 6.75007 7.50088 6.90007 7.61338 6.90007L9.63838 7.12507C9.86338 7.12507 9.93838 6.90007 10.0134 6.75007C10.1634 5.88757 10.8759 5.47507 11.7009 5.47507C12.1134 5.47507 12.6384 5.62507 12.9009 6.00007C13.1634 6.41257 13.1634 7.05007 13.1634 7.53757V7.76257ZM12.7509 12.1501C12.4509 12.7126 11.8884 13.0876 11.3259 13.0876C10.5384 13.0876 10.0134 12.4501 10.0134 11.5501C10.0134 9.75007 11.6634 9.45007 13.1259 9.45007V9.93757C13.1634 10.6876 13.1634 11.4001 12.7509 12.1501Z" fill="#15171A"/>
</svg>
