<svg width="24" height="24" viewBox="0 0 24 24" fill="none" xmlns="http://www.w3.org/2000/svg">
<path d="M2.58936 14.4063H3.6805L4.01913 13.3088H6.08853L6.42716 14.4063H8.49656V10.7735L9.81345 14.4063H10.7917L12.1086 10.887V14.4063H13.0492V9.5625H11.5066L10.3026 12.8169L9.09858 9.5625H7.40542V14.1792L5.7123 9.5625H4.39537L2.58936 14.4063ZM21.3001 14.4063L19.494 11.9844L21.3001 9.5625H19.9832L18.7792 11.0005L17.8009 9.5625H13.8502V14.4063H17.688L18.892 12.8169L20.0961 14.4063H21.3001ZM4.9974 10.5464L5.59938 12.2114H4.39537L4.9974 10.5464ZM14.7909 10.6599H17.1989L18.1771 11.9844L17.086 13.4224H14.7909V12.4763H16.9731V11.4924H14.7909V10.6599Z" fill="#15171A"/>
<path fill-rule="evenodd" clip-rule="evenodd" d="M20.5804 5.13394H3.41964C2.50246 5.13394 1.75893 5.87745 1.75893 6.79462V17.3125C1.75893 18.2297 2.50245 18.9732 3.41964 18.9732H20.5804C21.4976 18.9732 22.2411 18.2297 22.2411 17.3125V6.79462C22.2411 5.87745 21.4976 5.13394 20.5804 5.13394ZM3.41964 3.75C1.73813 3.75 0.375 5.11312 0.375 6.79462V17.3125C0.375 18.994 1.73813 20.3571 3.41964 20.3571H20.5804C22.2619 20.3571 23.625 18.994 23.625 17.3125V6.79462C23.625 5.11312 22.2619 3.75 20.5804 3.75H3.41964Z" fill="#15171A"/>
</svg>
