<svg width="24" height="24" viewBox="0 0 24 24" fill="none" xmlns="http://www.w3.org/2000/svg">
<g clip-path="url(#clip0_501_48273)">
<path d="M23.1 21.9L17.1 15.9C20.1375 12.2625 19.95 6.825 16.5375 3.375C14.775 1.6125 12.45 0.637497 9.97505 0.637497C7.46255 0.674997 5.13755 1.6125 3.37505 3.375C1.61255 5.1375 0.675049 7.4625 0.675049 9.9375C0.675049 12.4125 1.65005 14.7375 3.41255 16.5C5.21255 18.3 7.61255 19.2 9.97505 19.2C12.075 19.2 14.2125 18.4875 15.9375 17.0625L21.9375 23.0625C22.0875 23.2125 22.3125 23.325 22.5375 23.325C22.7625 23.325 22.9875 23.25 23.1376 23.0625C23.4375 22.7625 23.4375 22.2375 23.1 21.9ZM4.57505 15.3375C3.15005 13.875 2.36255 11.9625 2.36255 9.9375C2.36255 7.9125 3.15005 6 4.57505 4.575C6.00005 3.15 7.91255 2.3625 9.93755 2.3625C11.9625 2.3625 13.875 3.15 15.3 4.575C18.2625 7.5375 18.2625 12.375 15.3 15.3375C12.375 18.3 7.53755 18.3 4.57505 15.3375Z" fill="#161A23"/>
<path d="M9.07506 5.025C7.23756 4.9875 6.33756 6.5625 6.07506 7.425C5.96256 7.875 6.22506 8.325 6.67506 8.4375C6.75006 8.475 6.82506 8.475 6.90006 8.475C7.27506 8.475 7.61256 8.25 7.72506 7.875C7.72506 7.8375 8.06256 6.7125 9.00006 6.7125H9.03756C9.48756 6.7125 9.90006 6.375 9.90006 5.8875C9.90006 5.4 9.52506 5.025 9.07506 5.025Z" fill="#161A23"/>
<path d="M14.2125 7.19999C14.175 7.19999 13.0125 6.86249 13.05 5.88749C13.05 5.43749 12.7125 5.02499 12.225 5.02499C11.775 5.02499 11.3625 5.36249 11.3625 5.84999C11.2875 7.68749 12.9 8.58749 13.7625 8.84999C13.8375 8.88749 13.9125 8.88749 13.9875 8.88749C14.3625 8.88749 14.7 8.62499 14.8125 8.28749C14.925 7.76249 14.6625 7.31249 14.2125 7.19999Z" fill="#161A23"/>
<path d="M4.8001 11.025C4.3876 11.25 4.2376 11.775 4.5001 12.1875C4.7251 12.6 5.2501 12.75 5.6626 12.4875C5.6626 12.4875 6.7501 11.8875 7.3876 12.6C7.5376 12.7875 7.7626 12.8625 7.9876 12.8625C8.2126 12.8625 8.4001 12.7875 8.5501 12.6375C8.8876 12.3 8.9251 11.775 8.5876 11.4375C7.3501 10.0875 5.5501 10.575 4.8001 11.025Z" fill="#161A23"/>
<path d="M13.65 12.375C13.2 12.2625 12.75 12.525 12.6 12.975C12.6 12.975 12.2625 14.175 11.2875 14.1375C10.8375 14.1 10.425 14.475 10.425 14.9625C10.425 15.4125 10.7625 15.825 11.25 15.825C11.2875 15.825 11.325 15.825 11.3625 15.825C13.125 15.825 14.025 14.25 14.25 13.425C14.3625 12.975 14.1 12.4875 13.65 12.375Z" fill="#161A23"/>
</g>
<defs>
<clipPath id="clip0_501_48273">
<rect width="24" height="24" fill="white"/>
</clipPath>
</defs>
</svg>
