<svg width="24" height="24" viewBox="0 0 24 24" fill="none" xmlns="http://www.w3.org/2000/svg">
<path d="M21.0375 2.66251H2.96255C1.68755 2.66251 0.675049 3.67501 0.675049 4.95001V14.9625C0.675049 16.2375 1.68755 17.25 2.96255 17.25H3.37505V20.025C3.37505 20.5875 3.71255 21.1125 4.27505 21.3C4.42505 21.3375 4.57505 21.375 4.72505 21.375C5.13755 21.375 5.51255 21.1875 5.77505 20.85L8.62505 17.25H21.0751C22.35 17.25 23.3625 16.2375 23.3625 14.9625V4.95001C23.3625 3.67501 22.3125 2.66251 21.0375 2.66251ZM21.675 14.9625C21.675 15.3 21.4125 15.5625 21.0751 15.5625H8.17505C7.91255 15.5625 7.68755 15.675 7.50005 15.9L4.98755 19.05V16.425C4.98755 15.975 4.61255 15.5625 4.12505 15.5625H2.96255C2.62505 15.5625 2.36255 15.3 2.36255 14.9625V4.95001C2.36255 4.61251 2.62505 4.35001 2.96255 4.35001H21.0751C21.4125 4.35001 21.675 4.61251 21.675 4.95001V14.9625Z" fill="#161A23"/>
<path d="M16.1625 11.625H15.6375V6.60002C15.6375 6.15002 15.2625 5.73752 14.775 5.73752C14.2875 5.73752 13.9125 6.11252 13.9125 6.60002V11.625H12.675V7.46252C12.675 7.01252 12.3 6.60002 11.8125 6.60002C11.325 6.60002 10.95 6.97502 10.95 7.46252V11.625H9.75002V8.92502C9.75002 8.47502 9.37503 8.06252 8.88752 8.06252C8.40003 8.06252 8.02502 8.43752 8.02502 8.92502V11.625H7.76252C7.31252 11.625 6.90002 12 6.90002 12.4875C6.90002 12.9375 7.27502 13.35 7.76252 13.35H16.125C16.575 13.35 16.9875 12.975 16.9875 12.4875C17.025 12 16.65 11.625 16.1625 11.625Z" fill="#161A23"/>
</svg>
