<svg width="24" height="24" viewBox="0 0 24 24" fill="none" xmlns="http://www.w3.org/2000/svg">
<g clip-path="url(#clip0_501_45132)">
<path d="M21 0.675049H2.99999C1.72499 0.675049 0.674988 1.72505 0.674988 3.00005V21C0.674988 22.275 1.72499 23.3625 3.03749 23.3625H21.0375C22.3125 23.3625 23.4 22.3125 23.4 21V3.00005C23.3625 1.72505 22.275 0.675049 21 0.675049ZM21.675 21C21.675 21.375 21.375 21.675 21 21.675H2.99999C2.62499 21.675 2.32499 21.375 2.32499 21V14.5875L5.36249 12C5.69999 12.1875 6.07499 12.3 6.48749 12.3C7.12499 12.3 7.72499 12.0375 8.13749 11.5875L9.59999 12.45C9.56249 12.6 9.56249 12.7125 9.56249 12.8625C9.56249 14.1 10.575 15.1125 11.8125 15.1125C13.05 15.1125 14.0625 14.1 14.0625 12.8625C14.0625 12.825 14.0625 12.7875 14.0625 12.7875L16.575 10.4625C16.95 10.725 17.3625 10.875 17.85 10.875C19.0875 10.875 20.1 9.86255 20.1 8.62505C20.1 7.38755 19.0875 6.37505 17.85 6.37505C16.6125 6.37505 15.6 7.38755 15.6 8.62505C15.6 8.77505 15.6 8.92505 15.6375 9.07505L13.3125 11.2125C12.9 10.8375 12.375 10.65 11.8125 10.65C11.325 10.65 10.875 10.8 10.5 11.1L8.73749 10.05C8.73749 8.81255 7.72499 7.80005 6.48749 7.80005C5.24999 7.80005 4.23749 8.81255 4.23749 10.05C4.23749 10.275 4.27499 10.5 4.34999 10.725L2.36249 12.375V3.00005C2.36249 2.62505 2.62499 2.36255 2.99999 2.36255H21C21.375 2.36255 21.675 2.66255 21.675 3.03755V21ZM6.48749 10.6125C6.14999 10.6125 5.92499 10.35 5.92499 10.05C5.92499 9.71255 6.18749 9.48755 6.48749 9.48755C6.82499 9.48755 7.04999 9.75005 7.04999 10.05C7.04999 10.35 6.78749 10.6125 6.48749 10.6125ZM12.4125 12.9C12.4125 13.2375 12.15 13.4625 11.85 13.4625C11.5125 13.4625 11.2875 13.2 11.2875 12.9C11.2875 12.6 11.55 12.3375 11.85 12.3375C12.15 12.3 12.4125 12.5625 12.4125 12.9ZM17.2875 8.62505C17.2875 8.28755 17.55 8.06255 17.85 8.06255C18.15 8.06255 18.4125 8.32505 18.4125 8.62505C18.4125 8.96255 18.15 9.18755 17.85 9.18755C17.55 9.18755 17.2875 8.92505 17.2875 8.62505Z" fill="#161A23"/>
</g>
<defs>
<clipPath id="clip0_501_45132">
<rect width="24" height="24" fill="white"/>
</clipPath>
</defs>
</svg>
