<svg width="24" height="24" viewBox="0 0 24 24" fill="none" xmlns="http://www.w3.org/2000/svg">
<path d="M20.2501 17.5875L18.3376 15.5625C18.0376 15.225 17.5126 15.1875 17.1751 15.525L15.1501 17.325C14.8126 17.625 14.7751 18.1875 15.0751 18.525C15.3751 18.8625 15.9001 18.9 16.2751 18.6L16.7251 18.1875C16.2751 19.95 14.7376 21.3375 12.7876 21.6375V9.82502H14.8501C15.3001 9.82502 15.7126 9.45002 15.7126 8.96252C15.7126 8.47502 15.3376 8.10002 14.8501 8.10002H12.7876V6.75002C14.1001 6.37502 15.0376 5.17502 15.0376 3.78752C15.0376 2.10002 13.6501 0.712524 11.9626 0.712524C10.2751 0.712524 8.88756 2.10002 8.88756 3.78752C8.88756 5.21252 9.82506 6.37502 11.1376 6.75002V8.10002H9.07506C8.62506 8.10002 8.21256 8.47502 8.21256 8.96252C8.21256 9.45002 8.58756 9.82502 9.07506 9.82502H11.1376V21.6375C9.18756 21.3375 7.61256 19.9125 7.20006 18.15L7.76256 18.6375C8.10006 18.9375 8.66256 18.9 8.96256 18.5625C9.26256 18.225 9.22506 17.6625 8.88756 17.3625L6.82506 15.525C6.48756 15.225 5.96256 15.2625 5.66256 15.6L3.75006 17.55C3.45006 17.8875 3.45006 18.4125 3.78756 18.75C3.93756 18.9 4.16256 18.975 4.35006 18.975C4.57506 18.975 4.80006 18.9 4.98756 18.7125L5.47506 18.1875C6.00006 21.1125 8.70006 23.3625 11.9626 23.3625C15.2251 23.3625 17.9626 21.1125 18.4501 18.15L19.0126 18.75C19.1626 18.9375 19.3876 19.0125 19.6126 19.0125C19.8001 19.0125 20.0251 18.9375 20.1751 18.7875C20.5501 18.45 20.5876 17.925 20.2501 17.5875ZM10.5751 3.75002C10.5751 2.96252 11.2126 2.36252 11.9626 2.36252C12.7126 2.36252 13.3501 3.00002 13.3501 3.75002C13.3501 4.50002 12.7126 5.13752 11.9626 5.13752C11.2126 5.13752 10.5751 4.50002 10.5751 3.75002Z" fill="#161A23"/>
</svg>
