<svg width="24" height="24" viewBox="0 0 24 24" fill="none" xmlns="http://www.w3.org/2000/svg">
<path d="M5.55029 17.4376C5.55029 18.3001 6.22529 19.0126 7.12529 19.0126H8.13779V22.2001C8.13779 22.9876 8.77529 23.6251 9.56279 23.6251C10.3503 23.6251 10.9878 22.9876 10.9878 22.2001V19.0126H12.9003V22.2001C12.9003 22.9876 13.5378 23.6251 14.3253 23.6251C15.1128 23.6251 15.7503 22.9876 15.7503 22.2001V19.0126H16.7628C17.6253 19.0126 18.3378 18.3376 18.3378 17.4376V8.21265H5.55029V17.4376Z" fill="#15171A"/>
<path d="M15.1872 2.55L16.1622 0.75C16.1997 0.6375 16.1997 0.525 16.1247 0.4875C16.0497 0.375 16.0122 0.375 16.0122 0.375C15.9747 0.375 15.8622 0.4125 15.8622 0.4875L14.8497 2.325C13.9872 1.95 13.0497 1.7625 12.1122 1.7625C11.0997 1.7625 10.1997 1.9875 9.37471 2.325L8.36221 0.4875C8.32471 0.375 8.21221 0.3375 8.09971 0.45C7.98721 0.4875 7.94971 0.6 8.06221 0.7125L9.07471 2.5125C6.97471 3.5625 5.69971 5.475 5.69971 7.6875H18.5247C18.4497 5.4375 17.0622 3.5625 15.1872 2.55ZM9.03721 5.3625C8.77471 5.3625 8.51221 5.1 8.51221 4.8375C8.51221 4.575 8.77471 4.3125 9.03721 4.3125C9.29971 4.3125 9.56221 4.575 9.56221 4.8375C9.56221 5.1 9.37471 5.3625 9.03721 5.3625ZM14.9622 5.3625C14.6997 5.3625 14.4372 5.1 14.4372 4.8375C14.4372 4.575 14.6997 4.3125 14.9622 4.3125C15.2247 4.3125 15.4872 4.575 15.4872 4.8375C15.4872 5.1 15.2622 5.3625 14.9622 5.3625Z" fill="#15171A"/>
<path d="M3.60029 7.95007C2.81279 7.95007 2.17529 8.58757 2.17529 9.37507V15.3376C2.17529 16.1251 2.81279 16.7626 3.60029 16.7626C4.3878 16.7626 5.0253 16.1251 5.0253 15.3376V9.37507C5.0628 8.55007 4.3878 7.95007 3.60029 7.95007Z" fill="#15171A"/>
<path d="M20.4006 7.95007C19.6131 7.95007 18.9756 8.58757 18.9756 9.37507V15.3376C18.9756 16.1251 19.6131 16.7626 20.4006 16.7626C21.1881 16.7626 21.8256 16.1251 21.8256 15.3376V9.37507C21.8256 8.55007 21.1881 7.95007 20.4006 7.95007Z" fill="#15171A"/>
</svg>
