<svg width="24" height="24" viewBox="0 0 24 24" fill="none" xmlns="http://www.w3.org/2000/svg">
<path d="M10.0878 4.61243C9.75029 4.61243 9.48779 4.87493 9.48779 5.21243C9.48779 5.54993 9.75029 5.81243 10.0878 5.81243C10.4253 5.81243 10.6878 5.54993 10.6878 5.21243C10.6878 4.87493 10.4253 4.61243 10.0878 4.61243Z" fill="#15171A"/>
<path d="M13.6884 4.61243C13.3509 4.61243 13.0884 4.87493 13.0884 5.21243C13.0884 5.54993 13.3509 5.81243 13.6884 5.81243C14.0259 5.81243 14.2884 5.54993 14.2884 5.21243C14.2884 4.87493 14.0259 4.61243 13.6884 4.61243Z" fill="#15171A"/>
<path d="M19.9131 6.9C19.6506 6.9 19.3881 6.9375 19.1631 7.0125C18.7131 5.6625 17.9256 4.5 16.9131 3.6L18.4131 2.0625C18.7506 1.725 18.7131 1.2 18.4131 0.8625C18.0756 0.525 17.5506 0.525 17.2131 0.8625L15.5256 2.5875C14.4756 2.025 13.2756 1.725 12.0381 1.725C10.8006 1.725 9.6006 2.025 8.5506 2.5875L6.8631 0.8625C6.5256 0.525 6.0006 0.525 5.6631 0.8625C5.3256 1.2 5.3256 1.725 5.6631 2.0625L7.1256 3.5625C6.1506 4.425 5.3631 5.55 4.9131 6.8625C4.6506 6.7875 4.3881 6.7125 4.1256 6.7125C2.81309 6.7125 1.72559 7.8 1.72559 9.1125V13.125C1.72559 14.4375 2.81309 15.525 4.1256 15.525C4.3881 15.525 4.6131 15.4875 4.8381 15.4125V17.625C4.8381 18.1875 5.2506 18.6 5.8131 18.6H6.2256V20.925C6.2256 22.2375 7.3131 23.325 8.6256 23.325C9.9381 23.325 11.0256 22.2375 11.0256 20.925V18.6H12.7506V20.925C12.7506 22.2375 13.8381 23.325 15.1506 23.325C16.4631 23.325 17.5506 22.2375 17.5506 20.925V18.6H18.1881C18.7506 18.6 19.1631 18.15 19.1631 17.625V15.5625C19.3881 15.6375 19.6131 15.675 19.8756 15.675C21.1881 15.675 22.2756 14.5875 22.2756 13.275V9.3C22.3131 7.9875 21.2256 6.9 19.9131 6.9ZM12.0006 3.4875C14.1381 3.4875 16.0506 4.65 17.0631 6.4125H6.9381C7.9506 4.6125 9.8631 3.4875 12.0006 3.4875ZM4.0881 13.8375C3.71309 13.8375 3.37559 13.5375 3.37559 13.125V9.15C3.37559 8.7375 3.71309 8.4375 4.0881 8.4375C4.4631 8.4375 4.8006 8.775 4.8006 9.15V13.125C4.8381 13.5375 4.5006 13.8375 4.0881 13.8375ZM9.3381 20.925C9.3381 21.3375 9.0006 21.6375 8.6256 21.6375C8.2506 21.6375 7.9131 21.3 7.9131 20.925V18.6H9.3381V20.925ZM15.8631 20.925C15.8631 21.3375 15.5256 21.6375 15.1506 21.6375C14.7756 21.6375 14.4381 21.3 14.4381 20.925V18.6H15.8631V20.925ZM6.5256 16.95V8.1H17.5131V16.9125H6.5256V16.95ZM20.6256 13.275C20.6256 13.6875 20.2881 13.9875 19.9131 13.9875C19.5381 13.9875 19.2006 13.65 19.2006 13.275V9.3C19.2006 8.8875 19.5381 8.5875 19.9131 8.5875C20.2881 8.5875 20.6256 8.925 20.6256 9.3V13.275Z" fill="#15171A"/>
</svg>
