<svg width="24" height="24" viewBox="0 0 24 24" fill="none" xmlns="http://www.w3.org/2000/svg">
<path d="M17.5875 10.0875C18.1125 8.625 19.65 4.35 19.65 3C19.65 1.8 18.9 0.7875 17.625 0.7875C15.6 0.7875 13.7625 6.7125 13.2375 8.175C12.75 6.8625 10.7625 0.375 8.925 0.375C7.5 0.375 6.8625 1.425 6.8625 2.7375C6.8625 4.3125 8.4 8.5125 8.9625 10.0875C8.7 9.975 8.3625 9.9375 8.0625 9.9375C7.0125 9.9375 5.8875 11.25 5.8875 12.3C5.8875 12.7125 6.1125 13.3125 6.2625 13.6125C4.575 14.1 3.9375 15.15 3.9375 16.875C3.9375 20.1375 7.0125 23.5875 11.4 23.5875C16.725 23.5875 20.0625 19.575 20.0625 14.4C19.9875 12.4125 19.725 10.6875 17.5875 10.0875ZM15.975 5.2875C16.125 4.7625 16.9125 2.3625 17.6625 2.3625C18.075 2.3625 18.1875 2.775 18.1875 3.1125C18.1875 3.975 16.3875 8.7 16.0875 9.825L14.55 9.5625L15.975 5.2875ZM8.2875 2.55C8.2875 2.025 8.925 0.4875 10.3875 4.65L11.925 9.1875C11.175 9.15 10.65 9.0375 10.35 9.225C9.8625 7.9875 8.2875 3.8625 8.2875 2.55ZM8.175 11.4C9.4875 11.4 11.25 15.675 11.25 16.275C11.25 16.5 11.025 16.8 10.7625 16.8C9.825 16.8 7.275 13.3125 7.275 12.375C7.275 12.0375 7.8 11.4 8.175 11.4ZM16.5 19.875C15.1875 21.3 13.5 22.0875 11.55 22.0875C8.85 22.0875 6.75 20.625 5.7375 18.1125C4.9875 16.1625 5.8875 15.0375 6.675 15.0375C7.2 15.0375 9.15 17.7375 9.15 18.3C9.15 18.525 8.775 18.675 8.625 18.675C7.875 18.675 7.6125 18 6.3 16.35C4.9875 17.6625 7.2375 20.325 8.925 20.325C10.125 20.325 10.875 19.2 10.65 18.4125C10.8 18.4125 11.025 18.4125 11.175 18.375C11.2125 19.575 11.5875 21.075 13.0875 21.1875C13.0875 21.15 13.2 20.8875 13.2 20.8875C13.2 20.1 12.7125 19.425 12.7125 18.6C12.7125 17.325 13.725 16.05 14.7375 15.3375C15.1125 15.075 15.525 14.925 15.9375 14.775C16.35 14.625 16.8375 14.4 17.1375 14.1C17.1 13.575 16.875 13.1625 16.3875 13.1625C15.075 13.125 10.8375 13.275 10.8375 11.325C10.8375 11.0625 10.8375 10.725 11.625 10.725C13.05 10.725 16.8 11.1 17.925 12.0375C18.75 12.675 19.0125 17.0625 16.5 19.875ZM12.075 14.1C12.4875 14.25 12.975 14.25 13.3875 14.3625C13.0875 14.625 12.75 14.8875 12.4875 15.225C12.3375 14.8875 12.1875 14.55 12.075 14.1Z" fill="#15171A"/>
</svg>
