<svg width="24" height="24" viewBox="0 0 24 24" fill="none" xmlns="http://www.w3.org/2000/svg">
<path d="M11.4 12L19.3125 3.97498C19.65 3.63748 19.65 3.11248 19.3125 2.77498C18.975 2.43748 18.45 2.43748 18.1125 2.77498L9.63752 11.4C9.30002 11.7375 9.30002 12.2625 9.63752 12.6L18.1125 21.225C18.2625 21.375 18.4875 21.4875 18.7125 21.4875C18.9375 21.4875 19.125 21.4125 19.3125 21.2625C19.65 20.925 19.65 20.4 19.3125 20.0625L11.4 12Z" fill="#161A23"/>
<path d="M6.52502 12L14.4375 3.97498C14.775 3.63748 14.775 3.11248 14.4375 2.77498C14.1 2.43748 13.575 2.43748 13.2375 2.77498L4.76252 11.4C4.42502 11.7375 4.42502 12.2625 4.76252 12.6L13.2375 21.225C13.3875 21.375 13.6125 21.4875 13.8375 21.4875C14.0625 21.4875 14.25 21.4125 14.4375 21.2625C14.775 20.925 14.775 20.4 14.4375 20.0625L6.52502 12Z" fill="#161A23"/>
</svg>
