<svg width="24" height="24" viewBox="0 0 24 24" fill="none" xmlns="http://www.w3.org/2000/svg">
<path d="M14.4 11.4L5.92505 2.77498C5.58755 2.43748 5.06255 2.43748 4.72505 2.77498C4.38755 3.11248 4.38755 3.63748 4.72505 3.97498L12.6 12L4.72505 20.025C4.38755 20.3625 4.38755 20.8875 4.72505 21.225C4.87505 21.375 5.10005 21.45 5.32505 21.45C5.55005 21.45 5.77505 21.375 5.92505 21.1875L14.4 12.5625C14.7375 12.2625 14.7375 11.7375 14.4 11.4Z" fill="#161A23"/>
<path d="M19.275 11.4L10.8 2.77498C10.4625 2.43748 9.93755 2.43748 9.60005 2.77498C9.26255 3.11248 9.26255 3.63748 9.60005 3.97498L17.475 12L9.60005 20.025C9.26255 20.3625 9.26255 20.8875 9.60005 21.225C9.75005 21.375 9.97505 21.45 10.2 21.45C10.425 21.45 10.65 21.375 10.8 21.1875L19.275 12.5625C19.6125 12.2625 19.6125 11.7375 19.275 11.4Z" fill="#161A23"/>
</svg>
