<svg width="24" height="24" viewBox="0 0 24 24" fill="none" xmlns="http://www.w3.org/2000/svg">
<path d="M12.6 9.59999C12.2625 9.26249 11.7375 9.26249 11.4 9.59999L2.77498 18.075C2.43748 18.4125 2.43748 18.9375 2.77498 19.275C3.11248 19.6125 3.63748 19.6125 3.97498 19.275L12 11.4L20.025 19.3125C20.175 19.4625 20.4 19.5375 20.625 19.5375C20.85 19.5375 21.075 19.4625 21.225 19.275C21.5625 18.9375 21.5625 18.4125 21.225 18.075L12.6 9.59999Z" fill="#161A23"/>
<path d="M3.97498 14.4L12 6.52499L20.025 14.4375C20.175 14.5875 20.4 14.6625 20.625 14.6625C20.85 14.6625 21.075 14.5875 21.225 14.4C21.5625 14.0625 21.5625 13.5375 21.225 13.2L12.6 4.72499C12.2625 4.38749 11.7375 4.38749 11.4 4.72499L2.77498 13.2C2.43748 13.5375 2.43748 14.0625 2.77498 14.4C3.11248 14.7375 3.63748 14.7375 3.97498 14.4Z" fill="#161A23"/>
</svg>
