<svg width="24" height="24" viewBox="0 0 24 24" fill="none" xmlns="http://www.w3.org/2000/svg">
<g clip-path="url(#clip0_501_45085)">
<path d="M21 0.675049H12.5625C11.2875 0.675049 10.2375 1.72505 10.2375 3.03755V4.50005H3.00001C1.72501 4.50005 0.637512 5.55005 0.637512 6.86255V21C0.637512 22.275 1.68751 23.3625 3.00001 23.3625H21C22.275 23.3625 23.3625 22.3125 23.3625 21V3.00005C23.3625 1.72505 22.275 0.675049 21 0.675049ZM10.2 21.675H3.00001C2.62501 21.675 2.32501 21.375 2.32501 21V6.82505C2.32501 6.45005 2.62501 6.15005 3.00001 6.15005H10.2V21.675ZM21.675 21C21.675 21.375 21.375 21.675 21 21.675H11.8875V3.00005C11.8875 2.62505 12.1875 2.32505 12.525 2.32505H21C21.375 2.32505 21.675 2.62505 21.675 3.00005V21Z" fill="#161A23"/>
<path d="M5.25001 10.5375H7.35001C7.80001 10.5375 8.21251 10.1625 8.21251 9.675C8.21251 9.1875 7.83751 8.8125 7.35001 8.8125H5.25001C4.80001 8.8125 4.38751 9.1875 4.38751 9.675C4.38751 10.1625 4.80001 10.5375 5.25001 10.5375Z" fill="#161A23"/>
<path d="M5.25001 14.7375H7.35001C7.80001 14.7375 8.21251 14.3625 8.21251 13.875C8.21251 13.3875 7.83751 13.0125 7.35001 13.0125H5.25001C4.80001 13.0125 4.38751 13.3875 4.38751 13.875C4.38751 14.3625 4.80001 14.7375 5.25001 14.7375Z" fill="#161A23"/>
<path d="M5.21251 18.975H7.31251C7.76251 18.975 8.17501 18.6 8.17501 18.1125C8.17501 17.625 7.80001 17.25 7.31251 17.25H5.21251C4.76251 17.25 4.35001 17.625 4.35001 18.1125C4.35001 18.6 4.76251 18.975 5.21251 18.975Z" fill="#161A23"/>
<path d="M17.85 5.51245H15.75C15.3 5.51245 14.8875 5.88745 14.8875 6.37495C14.8875 6.86245 15.2625 7.23745 15.75 7.23745H17.85C18.3 7.23745 18.7125 6.86245 18.7125 6.37495C18.7125 5.88745 18.3 5.51245 17.85 5.51245Z" fill="#161A23"/>
<path d="M17.85 10.9126H15.75C15.3 10.9126 14.8875 11.2876 14.8875 11.7751C14.8875 12.2251 15.2625 12.6376 15.75 12.6376H17.85C18.3 12.6376 18.7125 12.2626 18.7125 11.7751C18.675 11.2876 18.3 10.9126 17.85 10.9126Z" fill="#161A23"/>
<path d="M17.8125 16.3125H15.7125C15.2625 16.3125 14.85 16.6875 14.85 17.175C14.85 17.6625 15.225 18.0375 15.7125 18.0375H17.8125C18.2625 18.0375 18.675 17.6625 18.675 17.175C18.675 16.6875 18.2625 16.3125 17.8125 16.3125Z" fill="#161A23"/>
</g>
<defs>
<clipPath id="clip0_501_45085">
<rect width="24" height="24" fill="white"/>
</clipPath>
</defs>
</svg>
