<svg width="24" height="24" viewBox="0 0 24 24" fill="none" xmlns="http://www.w3.org/2000/svg">
<path d="M21.375 9.4499H12.375V5.5124C12.375 4.4249 11.475 3.5249 10.425 3.5249H2.62501C1.53751 3.5249 0.637512 4.4249 0.637512 5.5124V18.4874C0.637512 19.5749 1.53751 20.4749 2.62501 20.4749H21.375C22.4625 20.4749 23.3625 19.5749 23.3625 18.4874V11.4374C23.3625 10.3499 22.4625 9.4499 21.375 9.4499ZM10.725 18.7874H2.62501C2.47501 18.7874 2.32501 18.6749 2.32501 18.4874V5.5124C2.32501 5.3624 2.43751 5.2124 2.62501 5.2124H10.425C10.575 5.2124 10.725 5.3249 10.725 5.5124V18.7874ZM21.675 18.4874C21.675 18.6374 21.5625 18.7874 21.375 18.7874H12.375V11.1374H21.375C21.525 11.1374 21.675 11.2499 21.675 11.4374V18.4874Z" fill="#161A23"/>
<path d="M4.87501 7.2373H3.93751C3.48751 7.2373 3.07501 7.61231 3.07501 8.09981C3.07501 8.58731 3.45001 8.9623 3.93751 8.9623H4.87501C5.32501 8.9623 5.73751 8.58731 5.73751 8.09981C5.73751 7.61231 5.32501 7.2373 4.87501 7.2373Z" fill="#161A23"/>
<path d="M8.81251 7.2373H7.87501C7.42501 7.2373 7.01251 7.61231 7.01251 8.09981C7.01251 8.58731 7.38751 8.9623 7.87501 8.9623H8.81251C9.26251 8.9623 9.67501 8.58731 9.67501 8.09981C9.67501 7.61231 9.26251 7.2373 8.81251 7.2373Z" fill="#161A23"/>
<path d="M4.87501 11.0999H3.93751C3.48751 11.0999 3.07501 11.4749 3.07501 11.9624C3.07501 12.4499 3.45001 12.7874 3.93751 12.7874H4.87501C5.32501 12.7874 5.73751 12.4124 5.73751 11.9624C5.73751 11.5124 5.32501 11.0999 4.87501 11.0999Z" fill="#161A23"/>
<path d="M8.81251 11.0999H7.87501C7.42501 11.0999 7.01251 11.4749 7.01251 11.9624C7.01251 12.4499 7.38751 12.7874 7.87501 12.7874H8.81251C9.26251 12.7874 9.67501 12.4124 9.67501 11.9624C9.67501 11.5124 9.26251 11.0999 8.81251 11.0999Z" fill="#161A23"/>
<path d="M4.87501 14.9624H3.93751C3.48751 14.9624 3.07501 15.3374 3.07501 15.8249C3.07501 16.3124 3.45001 16.6874 3.93751 16.6874H4.87501C5.32501 16.6874 5.73751 16.3124 5.73751 15.8249C5.73751 15.3374 5.32501 14.9624 4.87501 14.9624Z" fill="#161A23"/>
<path d="M8.81251 14.9624H7.87501C7.42501 14.9624 7.01251 15.3374 7.01251 15.8249C7.01251 16.3124 7.38751 16.6874 7.87501 16.6874H8.81251C9.26251 16.6874 9.67501 16.3124 9.67501 15.8249C9.67501 15.3374 9.26251 14.9624 8.81251 14.9624Z" fill="#161A23"/>
<path d="M15.375 12.4124H14.4375C13.9875 12.4124 13.575 12.7874 13.575 13.2749C13.575 13.7624 13.95 14.1374 14.4375 14.1374H15.375C15.825 14.1374 16.2375 13.7624 16.2375 13.2749C16.2375 12.7874 15.8625 12.4124 15.375 12.4124Z" fill="#161A23"/>
<path d="M19.3125 12.4124H18.375C17.925 12.4124 17.5125 12.7874 17.5125 13.2749C17.5125 13.7624 17.8875 14.1374 18.375 14.1374H19.3125C19.7625 14.1374 20.175 13.7624 20.175 13.2749C20.175 12.7874 19.8 12.4124 19.3125 12.4124Z" fill="#161A23"/>
<path d="M15.375 15.5625H14.4375C13.9875 15.5625 13.575 15.9375 13.575 16.425C13.575 16.9125 13.95 17.2875 14.4375 17.2875H15.375C15.825 17.2875 16.2375 16.9125 16.2375 16.425C16.2375 15.9375 15.8625 15.5625 15.375 15.5625Z" fill="#161A23"/>
<path d="M19.3125 15.5625H18.375C17.925 15.5625 17.5125 15.9375 17.5125 16.425C17.5125 16.9125 17.8875 17.2875 18.375 17.2875H19.3125C19.7625 17.2875 20.175 16.9125 20.175 16.425C20.175 15.9375 19.8 15.5625 19.3125 15.5625Z" fill="#161A23"/>
</svg>
