<svg width="24" height="24" viewBox="0 0 24 24" fill="none" xmlns="http://www.w3.org/2000/svg">
<g clip-path="url(#clip0_914_44828)">
<path d="M12 5.6625L12.4125 4.9125C12.675 4.425 13.275 4.275 13.725 4.5375C14.2125 4.8 14.3625 5.4 14.1 5.85L9.975 12.9375H12.9375C13.875 12.9375 14.4 14.0625 14.0625 14.85H5.325C4.8 14.85 4.3875 14.4375 4.3875 13.9125C4.3875 13.3875 4.8 12.975 5.325 12.975H7.7625L10.875 7.5L9.8625 5.8125C9.6 5.325 9.75 4.7625 10.2375 4.5C10.725 4.2375 11.2875 4.3875 11.55 4.875L12 5.6625ZM8.2875 15.9L7.3875 17.475C7.125 17.9625 6.525 18.1125 6.075 17.85C5.5875 17.5875 5.4375 16.9875 5.7 16.5375L6.375 15.3375C7.2 15.075 7.8375 15.2625 8.2875 15.9ZM16.2375 13.0125H18.7125C19.2375 13.0125 19.65 13.425 19.65 13.95C19.65 14.475 19.2375 14.8875 18.7125 14.8875H17.325L18.2625 16.5375C18.525 17.025 18.375 17.5875 17.8875 17.85C17.4 18.1125 16.8375 17.9625 16.575 17.475C15 14.7375 13.8375 12.75 13.05 11.3625C12.2625 9.975 12.825 8.625 13.35 8.1375C14.025 9.1875 14.9625 10.8375 16.2375 13.0125ZM12 0.375C5.55 0.375 0.375 5.55 0.375 12C0.375 18.45 5.55 23.625 12 23.625C18.45 23.625 23.625 18.45 23.625 12C23.625 5.55 18.45 0.375 12 0.375ZM22.1625 12C22.1625 17.55 17.6625 22.1625 12 22.1625C6.45 22.1625 1.8375 17.6625 1.8375 12C1.8375 6.45 6.3375 1.8375 12 1.8375C17.55 1.8375 22.1625 6.3375 22.1625 12Z" fill="#15171A"/>
</g>
<defs>
<clipPath id="clip0_914_44828">
<rect width="24" height="24" fill="white"/>
</clipPath>
</defs>
</svg>
