<svg width="24" height="24" viewBox="0 0 24 24" fill="none" xmlns="http://www.w3.org/2000/svg">
<path d="M4.0125 12.1501C4.0125 11.7001 4.2 11.3251 4.6125 11.1001C4.3875 10.7626 4.0875 10.6126 3.6375 10.5751C3.4875 10.5751 3.3 10.5751 3.0375 10.6876C2.8125 10.8001 2.6625 10.8376 2.5875 10.8376C2.55 10.8376 2.4 10.8001 2.2125 10.6876C2.025 10.5376 1.875 10.5001 1.725 10.5001C1.5 10.5001 1.275 10.5376 1.0875 10.6876C0.9 10.8376 0.75 10.9876 0.6 11.1751C0.4875 11.4001 0.375 11.7751 0.375 12.1501C0.375 12.4876 0.4125 12.8251 0.525 13.1626C0.6375 13.5001 0.75 13.7626 0.9 13.9876C1.05 14.1751 1.2 14.3626 1.275 14.4751C1.425 14.6251 1.575 14.7001 1.7625 14.7001C1.875 14.7001 1.9875 14.6626 2.1375 14.5876C2.2875 14.5501 2.475 14.4751 2.625 14.4751C2.775 14.4751 2.925 14.5126 3.075 14.5876C3.2625 14.7001 3.4125 14.7001 3.525 14.7001C3.675 14.7001 3.8625 14.5876 4.0125 14.5126C4.05 14.4751 4.125 14.4001 4.1625 14.3251C4.2 14.2126 4.3125 14.1376 4.35 14.0251C4.3875 13.9126 4.4625 13.8751 4.5 13.8001C4.5375 13.6876 4.6125 13.6126 4.65 13.5001C4.65 13.4626 4.6875 13.3876 4.6875 13.3501C4.6875 13.3126 4.725 13.2376 4.725 13.2001C4.575 13.1626 4.5 13.0501 4.3875 12.9751C4.125 12.8251 4.0125 12.5251 4.0125 12.1501ZM7.9125 13.1626L6.7875 10.6501H5.925V14.6626H6.6375V12.0376H6.675L7.6125 14.1376H8.1375L9.075 12.0376H9.1125V14.6626H9.9V10.6501H9L7.9125 13.1626ZM3.3375 10.1251C3.525 9.90007 3.6375 9.63757 3.6375 9.33757V9.30007V9.26257C3.4875 9.26257 3.3375 9.30007 3.1875 9.41257C3.0375 9.52507 2.8875 9.60007 2.8125 9.71257C2.625 9.93757 2.5125 10.2001 2.5125 10.4251V10.4626V10.5001C2.8125 10.5376 3.075 10.3876 3.3375 10.1251ZM18.675 10.6501H19.5V14.6626H18.675V10.6501ZM22.0875 11.2876C22.575 11.2876 22.875 11.6626 22.875 12.0751H23.625V12.0001C23.625 11.2126 23.025 10.5376 22.0125 10.5376C20.9625 10.5376 20.325 11.2126 20.325 12.4126V12.8626C20.325 14.0251 20.9625 14.7001 22.0125 14.7001C23.025 14.7001 23.625 14.0251 23.625 13.2751V13.1626H22.8C22.8 13.6126 22.575 13.9501 22.0125 13.9501C21.45 13.9501 21.1875 13.5751 21.1875 12.7876V12.3751C21.1875 11.6626 21.525 11.2876 22.0875 11.2876ZM13.0875 13.2001C13.0875 13.7251 12.75 14.0251 12.3 14.0251C11.8125 14.0251 11.5125 13.7251 11.5125 13.2001V10.6126H10.6875V13.2751C10.6875 14.1376 11.325 14.7376 12.3 14.7376C13.3125 14.7376 13.9125 14.1376 13.9125 13.2751V10.6126H13.0875V13.2001ZM16.725 12.3376L16.125 12.1876C15.7875 12.0751 15.6 11.9626 15.6 11.7001C15.6 11.4001 15.825 11.2126 16.275 11.2126C16.725 11.2126 16.95 11.4376 16.9875 11.7376H17.775C17.775 11.0251 17.175 10.5376 16.275 10.5376C15.45 10.5376 14.775 10.9876 14.775 11.7376C14.775 12.4126 15.2625 12.7501 15.7875 12.8626L16.3875 13.0126C16.7625 13.1251 16.9875 13.2376 16.9875 13.5001C16.9875 13.8001 16.7625 14.0251 16.275 14.0251C15.7875 14.0251 15.4875 13.8001 15.4875 13.4251H14.6625C14.6625 14.0251 15.0375 14.7001 16.2 14.7001C17.175 14.7001 17.8125 14.2126 17.8125 13.4251C17.8125 12.7126 17.325 12.4876 16.725 12.3376Z" fill="#15171A"/>
</svg>
