<svg width="24" height="24" viewBox="0 0 24 24" fill="none" xmlns="http://www.w3.org/2000/svg">
<path d="M4.57492 8.43735C4.31242 8.73735 3.89992 9.03735 3.44991 8.96235C3.41241 8.54985 3.59991 8.06235 3.86242 7.76235C4.12492 7.46235 4.61242 7.16235 4.98742 7.16235C5.02492 7.72485 4.83742 8.13735 4.57492 8.43735ZM4.98742 9.14985C4.34992 9.11235 3.82492 9.52485 3.56241 9.52485C3.26241 9.52485 2.77491 9.14985 2.28741 9.14985C1.64991 9.14985 1.08741 9.52485 0.712409 10.0874C-9.2417e-05 11.2499 0.524909 13.0124 1.16241 13.9499C1.49991 14.4374 1.87491 14.9624 2.39991 14.9624C2.88741 14.9624 3.03741 14.6624 3.59991 14.6624C4.16242 14.6624 4.34992 14.9624 4.87492 14.9249C5.39992 14.9249 5.73742 14.4374 6.03742 13.9874C6.41242 13.4624 6.56242 12.9374 6.56242 12.8624C6.56242 12.8624 5.54992 12.4499 5.54992 11.2874C5.54992 10.2749 6.33742 9.86235 6.41242 9.86235C5.92492 9.18735 5.24992 9.14985 4.98742 9.14985ZM8.62492 7.76235V14.8499H9.74992V12.4124H11.2874C12.6749 12.4124 13.6874 11.4749 13.6874 10.0874C13.6874 8.69985 12.7499 7.76235 11.3624 7.76235H8.62492ZM9.74992 8.69985H11.0249C11.9624 8.69985 12.5249 9.22485 12.5249 10.1249C12.5249 11.0249 11.9999 11.5499 11.0249 11.5499H9.74992V8.69985ZM15.6374 14.9624C16.3124 14.9624 16.9499 14.5874 17.2874 14.0624H17.3249V14.9249H18.3374V11.3624C18.3374 10.3499 17.5499 9.67485 16.2749 9.67485C15.1124 9.67485 14.2499 10.3124 14.2124 11.2499H15.1499C15.1874 10.8374 15.6374 10.4999 16.1999 10.4999C16.8374 10.4999 17.2499 10.7999 17.2499 11.3624V11.7749L15.8624 11.8124C14.5874 11.8499 13.9124 12.4124 13.9124 13.3124C13.8749 14.3249 14.6249 14.9624 15.6374 14.9624ZM15.9374 14.0999C15.3374 14.0999 14.9999 13.8374 14.9999 13.3499C14.9999 12.9374 15.3749 12.6749 16.0499 12.5999L17.2499 12.5624V12.9749C17.2874 13.6499 16.6874 14.0999 15.9374 14.0999ZM19.6499 16.7999C20.6999 16.7999 21.2249 16.3874 21.6749 15.1499L23.6249 9.78735H22.4999L21.1874 13.9874H21.1499L19.8374 9.78735H18.6749L20.5124 14.9624L20.3999 15.2249C20.2499 15.7499 19.9874 15.9749 19.4999 15.9749C19.4624 15.9749 19.2374 15.9749 19.1999 15.9749V16.8374C19.3499 16.7999 19.6124 16.7999 19.6499 16.7999Z" fill="#15171A"/>
</svg>
