<svg width="24" height="24" viewBox="0 0 24 24" fill="none" xmlns="http://www.w3.org/2000/svg">
<path d="M20.8608 8.35849C20.7259 8.4615 18.3449 9.78251 18.3449 12.7199C18.3449 16.1175 21.3747 17.3194 21.4653 17.3492C21.4514 17.4225 20.984 18.9953 19.8679 20.5979C18.8727 22.0082 17.8333 23.4163 16.2522 23.4163C14.671 23.4163 14.2641 22.5119 12.4388 22.5119C10.66 22.5119 10.0275 23.446 8.58124 23.446C7.13494 23.446 6.12577 22.141 4.96549 20.5384C3.62153 18.6565 2.53564 15.7328 2.53564 12.958C2.53564 8.50733 5.47474 6.14685 8.3673 6.14685C9.90427 6.14685 11.1855 7.14049 12.1504 7.14049C13.0689 7.14049 14.5013 6.08734 16.2498 6.08734C16.9125 6.08734 19.2936 6.14685 20.8608 8.35849ZM15.4197 4.20311C16.1429 3.3583 16.6544 2.1861 16.6544 1.01389C16.6544 0.851341 16.6405 0.686502 16.6102 0.553711C15.4337 0.597211 14.0339 1.32526 13.1898 2.28912C12.5271 3.03091 11.9086 4.20311 11.9086 5.39134C11.9086 5.56995 11.9389 5.74849 11.9528 5.80571C12.0272 5.81948 12.1481 5.83549 12.2691 5.83549C13.3247 5.83549 14.6524 5.13949 15.4197 4.20311Z" fill="#15171A"/>
</svg>
