<svg width="24" height="24" viewBox="0 0 24 24" fill="none" xmlns="http://www.w3.org/2000/svg">
<path d="M21 4.2H19.95V2.925C19.95 2.475 19.575 2.0625 19.0875 2.0625C18.6 2.0625 18.225 2.4375 18.225 2.925V4.2H5.73751V2.925C5.73751 2.475 5.36251 2.0625 4.87501 2.0625C4.38751 2.0625 4.01251 2.4375 4.01251 2.925V4.2H3.00001C1.72501 4.2 0.637512 5.25 0.637512 6.5625V19.6125C0.637512 20.8875 1.68751 21.975 3.00001 21.975H21C22.275 21.975 23.3625 20.925 23.3625 19.6125V6.5625C23.3625 5.25 22.275 4.2 21 4.2ZM3.00001 5.8875H4.05001V7.125C4.05001 7.575 4.42501 7.9875 4.91251 7.9875C5.40001 7.9875 5.77501 7.6125 5.77501 7.125V5.8875H18.3375V7.125C18.3375 7.575 18.7125 7.9875 19.2 7.9875C19.6875 7.9875 20.0625 7.6125 20.0625 7.125V5.8875H21C21.375 5.8875 21.675 6.1875 21.675 6.5625V9.0375H2.36251V6.5625C2.36251 6.1875 2.62501 5.8875 3.00001 5.8875ZM21 20.25H3.00001C2.62501 20.25 2.32501 19.95 2.32501 19.575V10.725H21.6375V19.6125C21.675 19.95 21.375 20.25 21 20.25Z" fill="#161A23"/>
<path d="M14.325 14.625H12.8625V13.1625C12.8625 12.7125 12.4875 12.3 12 12.3C11.55 12.3 11.1375 12.675 11.1375 13.1625V14.625H9.675C9.225 14.625 8.8125 15 8.8125 15.4875C8.8125 15.975 9.1875 16.35 9.675 16.35H11.1375V17.8125C11.1375 18.2625 11.5125 18.675 12 18.675C12.45 18.675 12.8625 18.3 12.8625 17.8125V16.35H14.325C14.775 16.35 15.1875 15.975 15.1875 15.4875C15.1875 15 14.775 14.625 14.325 14.625Z" fill="#161A23"/>
</svg>
