<svg width="24" height="24" viewBox="0 0 24 24" fill="none" xmlns="http://www.w3.org/2000/svg">
<path d="M21.2625 1.61249H2.73751C1.57501 1.61249 0.637512 2.54999 0.637512 3.71249V5.99999C0.637512 7.08749 1.46251 7.98749 2.55001 8.06249V20.1C2.55001 21.375 3.56251 22.3875 4.83751 22.3875H19.125C20.4 22.3875 21.4125 21.375 21.4125 20.1V8.06249C22.4625 7.98749 23.325 7.08749 23.325 5.99999V3.71249C23.3625 2.54999 22.425 1.61249 21.2625 1.61249ZM19.125 20.7H4.87501C4.53751 20.7 4.27501 20.4375 4.27501 20.1V8.06249H19.7625V20.1C19.7625 20.4375 19.4625 20.7 19.125 20.7ZM21.675 5.99999C21.675 6.22499 21.4875 6.41249 21.2625 6.41249H2.73751C2.51251 6.41249 2.32501 6.22499 2.32501 5.99999V3.71249C2.32501 3.48749 2.51251 3.29999 2.73751 3.29999H21.2625C21.4875 3.29999 21.675 3.48749 21.675 3.71249V5.99999Z" fill="#161A23"/>
<path d="M15.075 11.175H8.925C8.0625 11.175 7.3125 11.8875 7.3125 12.7875V15.1125C7.3125 15.975 8.025 16.725 8.925 16.725H15.075C15.9375 16.725 16.6875 16.0125 16.6875 15.1125V12.75C16.65 11.8875 15.9375 11.175 15.075 11.175ZM14.9625 14.9625H9.0375V12.825H15V14.9625H14.9625Z" fill="#161A23"/>
</svg>
