<svg width="24" height="24" viewBox="0 0 24 24" fill="none" xmlns="http://www.w3.org/2000/svg">
<path d="M23.1376 11.475L19.6126 7.27502C19.3126 6.90002 18.7876 6.86252 18.4126 7.16252C18.0376 7.46252 18.0001 7.98752 18.3001 8.36252L20.6626 11.175H15.0376V7.98752C15.0376 7.53752 14.6626 7.16252 14.2126 7.16252C13.7626 7.16252 13.3876 7.53752 13.3876 7.98752V16.0875C13.3876 16.5375 13.7626 16.9125 14.2126 16.9125C14.6626 16.9125 15.0376 16.5375 15.0376 16.0875V12.9H20.7001L18.3376 15.7125C18.0376 16.0875 18.0751 16.6125 18.4501 16.9125C18.6001 17.0625 18.7876 17.1 18.9751 17.1C19.2001 17.1 19.4626 16.9875 19.6126 16.8L23.1376 12.6C23.4001 12.225 23.4001 11.775 23.1376 11.475Z" fill="#161A23"/>
<path d="M9.82502 7.12505C9.37502 7.12505 9.00002 7.50005 9.00002 7.95005V11.1375H3.30002L5.66252 8.32505C5.96252 7.95005 5.92502 7.42505 5.55002 7.12505C5.21252 6.82505 4.65002 6.86255 4.35002 7.23755L0.862524 11.475C0.600024 11.775 0.600024 12.2625 0.862524 12.5625L4.38752 16.7625C4.53752 16.95 4.80002 17.0625 5.02502 17.0625C5.21252 17.0625 5.40002 16.9875 5.55002 16.875C5.92502 16.575 5.96252 16.05 5.66252 15.675L3.30002 12.8625H8.96252V16.05C8.96252 16.5 9.33752 16.875 9.78753 16.875C10.2375 16.875 10.6125 16.5 10.6125 16.05V7.95005C10.65 7.50005 10.275 7.12505 9.82502 7.12505Z" fill="#161A23"/>
</svg>
