<svg width="24" height="24" viewBox="0 0 24 24" fill="none" xmlns="http://www.w3.org/2000/svg">
<path d="M16.7625 17.7C16.425 17.3625 15.9 17.4 15.5625 17.7L12.8625 20.5125V7.05L15.0375 4.875C15.525 4.3875 15.525 3.6375 15.0375 3.15L12.8625 0.975C12.375 0.4875 11.625 0.4875 11.1375 0.975L8.9625 3.15C8.475 3.6375 8.475 4.3875 8.9625 4.875L11.1375 7.05V20.5125L8.4375 17.7C8.1 17.3625 7.575 17.3625 7.2375 17.7C6.9 18.0375 6.9 18.5625 7.2375 18.9L11.4 23.175C11.55 23.325 11.775 23.4375 12 23.4375C12.225 23.4375 12.45 23.3625 12.6 23.175L16.7625 18.9C17.1 18.5625 17.1 18 16.7625 17.7ZM10.5 3.975L12 2.475L13.5 3.975L12 5.475L10.5 3.975Z" fill="#161A23"/>
</svg>
