<svg width="24" height="24" viewBox="0 0 24 24" fill="none" xmlns="http://www.w3.org/2000/svg">
<path d="M20.1375 3.75003L16.725 0.862534C16.4625 0.637534 16.125 0.600034 15.825 0.750034C15.525 0.900034 15.3375 1.20003 15.3375 1.50003V16.6125C15.3375 17.0625 15.7125 17.4375 16.1625 17.4375C16.6125 17.4375 16.9875 17.0625 16.9875 16.6125V3.30003L19.0125 5.02503C19.3875 5.32503 19.9125 5.28753 20.2125 4.91253C20.55 4.57503 20.5125 4.05003 20.1375 3.75003Z" fill="#161A23"/>
<path d="M7.83752 6.5625C7.38752 6.5625 7.01252 6.9375 7.01252 7.3875V20.7L4.98752 18.975C4.65002 18.675 4.08752 18.7125 3.78752 19.0875C3.48752 19.4625 3.52502 19.9875 3.90002 20.2875L7.31252 23.175C7.46252 23.2875 7.65002 23.3625 7.83752 23.3625C7.95002 23.3625 8.06252 23.325 8.17502 23.2875C8.47502 23.1375 8.66252 22.8375 8.66252 22.5375V7.3875C8.66252 6.9375 8.28752 6.5625 7.83752 6.5625Z" fill="#161A23"/>
</svg>
