<svg width="24" height="24" viewBox="0 0 24 24" fill="none" xmlns="http://www.w3.org/2000/svg">
<path d="M16.275 11.1749H7.72502C7.27502 11.1749 6.90002 11.5499 6.90002 11.9999C6.90002 12.4499 7.27502 12.8249 7.72502 12.8249H16.2375C16.6875 12.8249 17.0625 12.4499 17.0625 11.9999C17.1 11.5499 16.725 11.1749 16.275 11.1749Z" fill="#161A23"/>
<path d="M7.72505 6.74995C7.95005 6.74995 8.17505 6.67495 8.32505 6.48745L11.1375 3.56245V8.69995C11.1375 9.14995 11.5125 9.52495 11.9625 9.52495C12.4125 9.52495 12.7875 9.14995 12.7875 8.69995V3.59995L15.6 6.48745C15.9375 6.82495 16.4625 6.82495 16.8 6.48745C17.1375 6.14995 17.1375 5.62495 16.8 5.28745L12.6 0.899951C12.45 0.749951 12.225 0.637451 12 0.637451C11.775 0.637451 11.55 0.712451 11.4 0.899951L7.12505 5.32495C6.78755 5.66245 6.82505 6.18745 7.16255 6.52495C7.31255 6.67495 7.50005 6.74995 7.72505 6.74995Z" fill="#161A23"/>
<path d="M15.675 17.5125L12.8625 20.4V15.3C12.8625 14.85 12.4875 14.475 12.0375 14.475C11.5875 14.475 11.2125 14.85 11.2125 15.3V20.4375L8.40004 17.5125C8.06254 17.175 7.53754 17.175 7.20004 17.475C6.86254 17.8125 6.86254 18.3375 7.16254 18.675L11.4 23.0625C11.55 23.2125 11.775 23.325 12 23.325C12.225 23.325 12.45 23.25 12.6 23.0625L16.875 18.675C17.2125 18.3375 17.2125 17.8125 16.875 17.475C16.5375 17.175 16.0125 17.175 15.675 17.5125Z" fill="#161A23"/>
</svg>
