<svg width="24" height="24" viewBox="0 0 24 24" fill="none" xmlns="http://www.w3.org/2000/svg">
<path d="M17.4375 7.83752C17.4375 7.38752 17.0625 7.01252 16.6125 7.01252H3.30003L5.02503 4.98752C5.32503 4.61252 5.28753 4.08752 4.91253 3.78752C4.57503 3.48752 4.01253 3.52502 3.71253 3.90002L0.825027 7.31252C0.637527 7.53752 0.600027 7.87502 0.750027 8.17502C0.900027 8.47502 1.20003 8.66252 1.50003 8.66252H16.6125C17.0625 8.66252 17.4375 8.28752 17.4375 7.83752Z" fill="#161A23"/>
<path d="M23.25 15.825C23.1 15.525 22.8 15.3375 22.5 15.3375H7.3875C6.9375 15.3375 6.5625 15.7125 6.5625 16.1625C6.5625 16.6125 6.9375 16.9875 7.3875 16.9875H20.7L18.975 19.0125C18.675 19.3875 18.7125 19.9125 19.0875 20.2125C19.2375 20.3625 19.425 20.4 19.6125 20.4C19.8375 20.4 20.1 20.2875 20.25 20.1L23.1375 16.6875C23.3625 16.4625 23.4 16.125 23.25 15.825Z" fill="#161A23"/>
</svg>
