<svg width="24" height="24" viewBox="0 0 24 24" fill="none" xmlns="http://www.w3.org/2000/svg">
<path d="M15.825 18.1501C15.975 18.3001 16.1625 18.3376 16.35 18.3376C16.575 18.3376 16.8375 18.2251 16.9875 18.0376C17.2875 17.6626 17.25 17.1376 16.875 16.8376L12.4875 13.1626C12.1875 12.9001 11.7 12.9001 11.4 13.1626L7.01245 16.8376C6.63745 17.1376 6.59995 17.6626 6.89995 18.0376C7.19995 18.4126 7.72495 18.4501 8.09995 18.1501L11.1 15.6376V21.6751H7.72495C7.27495 21.6751 6.89995 22.0501 6.89995 22.5001C6.89995 22.9501 7.27495 23.3251 7.72495 23.3251H16.1625C16.6125 23.3251 16.9875 22.9501 16.9875 22.5001C16.9875 22.0501 16.6125 21.6751 16.1625 21.6751H12.7875V15.6376L15.825 18.1501Z" fill="#161A23"/>
<path d="M8.1749 5.85005C7.7999 5.55005 7.2749 5.58755 6.9749 5.96255C6.6749 6.33755 6.7124 6.86255 7.0874 7.16255L11.4749 10.8375C11.6249 10.9875 11.8124 11.025 11.9999 11.025C12.1874 11.025 12.3749 10.95 12.5249 10.8375L16.9124 7.16255C17.2874 6.86255 17.3249 6.33755 17.0249 5.96255C16.7249 5.58755 16.1999 5.55005 15.8249 5.85005L12.8249 8.36255V2.32505H16.1999C16.6499 2.32505 17.0249 1.95005 17.0249 1.50005C17.0249 1.05005 16.6499 0.675049 16.1999 0.675049H7.7624C7.3124 0.675049 6.9374 1.05005 6.9374 1.50005C6.9374 1.95005 7.3124 2.32505 7.7624 2.32505H11.1374V8.36255L8.1749 5.85005Z" fill="#161A23"/>
</svg>
