<svg width="24" height="24" viewBox="0 0 24 24" fill="none" xmlns="http://www.w3.org/2000/svg">
<path d="M17.0251 7.42505C16.7251 7.05005 16.2001 7.01255 15.8251 7.31255C15.4501 7.61255 15.4126 8.13755 15.7126 8.51255L17.9626 11.175H6.0376L8.2876 8.51255C8.5876 8.13755 8.5501 7.61255 8.1751 7.31255C7.8376 7.01255 7.2751 7.05005 6.9751 7.42505L3.5626 11.475C3.3001 11.775 3.3001 12.2625 3.5626 12.5625L6.9751 16.6125C7.1251 16.8 7.3876 16.9125 7.6126 16.9125C7.8001 16.9125 7.9876 16.8375 8.1376 16.725C8.5126 16.425 8.5501 15.9 8.2501 15.525L6.0001 12.8625H17.9251L15.6751 15.525C15.3751 15.9 15.4126 16.425 15.7876 16.725C15.9376 16.875 16.1251 16.9125 16.3126 16.9125C16.5376 16.9125 16.8001 16.8 16.9501 16.6125L20.3626 12.5625C20.6251 12.2625 20.6251 11.775 20.3626 11.475L17.0251 7.42505Z" fill="#161A23"/>
<path d="M22.5 6.71252C22.05 6.71252 21.675 7.08752 21.675 7.53752V16.425C21.675 16.875 22.05 17.25 22.5 17.25C22.95 17.25 23.325 16.875 23.325 16.425V7.53752C23.325 7.08752 22.95 6.71252 22.5 6.71252Z" fill="#161A23"/>
<path d="M1.50005 6.71252C1.05005 6.71252 0.675049 7.08752 0.675049 7.53752V16.425C0.675049 16.875 1.05005 17.25 1.50005 17.25C1.95005 17.25 2.32505 16.875 2.32505 16.425V7.53752C2.32505 7.08752 1.95005 6.71252 1.50005 6.71252Z" fill="#161A23"/>
</svg>
