<svg width="24" height="24" viewBox="0 0 24 24" fill="none" xmlns="http://www.w3.org/2000/svg">
<g clip-path="url(#clip0_501_41552)">
<path d="M13.2 7.68751C12.8625 7.35001 12.3375 7.35001 12 7.68751C11.6625 8.02501 11.6625 8.55001 12 8.88751L14.25 11.175H7.7625C7.3125 11.175 6.9375 11.55 6.9375 12C6.9375 12.45 7.3125 12.825 7.7625 12.825H14.25L12 15.1125C11.6625 15.45 11.6625 15.975 12 16.3125C12.15 16.4625 12.375 16.5375 12.6 16.5375C12.825 16.5375 13.05 16.4625 13.2 16.275L16.875 12.5625C17.2125 12.225 17.2125 11.7 16.875 11.3625L13.2 7.68751Z" fill="#161A23"/>
<path d="M12 0.674988C5.73745 0.674988 0.637451 5.73749 0.637451 12C0.637451 18.2625 5.73745 23.325 12 23.325C18.2624 23.325 23.3624 18.2625 23.3624 12C23.3624 5.73749 18.2624 0.674988 12 0.674988ZM12 21.675C6.67495 21.675 2.32495 17.325 2.32495 12C2.32495 6.67499 6.67495 2.32499 12 2.32499C17.3249 2.32499 21.6749 6.67499 21.6749 12C21.6749 17.325 17.3249 21.675 12 21.675Z" fill="#161A23"/>
</g>
<defs>
<clipPath id="clip0_501_41552">
<rect width="24" height="24" fill="white"/>
</clipPath>
</defs>
</svg>
