<svg width="24" height="24" viewBox="0 0 24 24" fill="none" xmlns="http://www.w3.org/2000/svg">
<path d="M22.8 11.3625L18.525 7.23747C18.1875 6.89997 17.6625 6.93747 17.325 7.27497C16.9875 7.61247 17.025 8.13747 17.3625 8.47497L20.175 11.175H14.1C13.65 11.175 13.275 11.55 13.275 12C13.275 12.45 13.65 12.825 14.1 12.825H20.1375L17.3625 15.525C17.025 15.8625 17.025 16.3875 17.3625 16.725C17.5125 16.9125 17.7375 16.9875 17.9625 16.9875C18.1875 16.9875 18.375 16.9125 18.5625 16.7625L22.8375 12.5625C22.9875 12.4125 23.1 12.1875 23.1 11.9625C23.1 11.7375 22.9875 11.55 22.8 11.3625Z" fill="#161A23"/>
<path d="M6.1875 7.2375C5.85 6.9 5.325 6.9 4.9875 7.2375C4.65 7.575 4.65 8.1 4.9875 8.4375L7.7625 11.1375H1.7625C1.3125 11.1375 0.9375 11.5125 0.9375 11.9625C0.9375 12.4125 1.3125 12.7875 1.7625 12.7875H7.8375L5.025 15.4875C4.6875 15.825 4.6875 16.35 4.9875 16.6875C5.1375 16.875 5.3625 16.95 5.5875 16.95C5.8125 16.95 6 16.875 6.1875 16.725L10.5 12.6375C10.65 12.4875 10.7625 12.2625 10.7625 12.0375C10.7625 11.8125 10.6875 11.5875 10.5 11.4375L6.1875 7.2375Z" fill="#161A23"/>
</svg>
