<svg width="24" height="24" viewBox="0 0 24 24" fill="none" xmlns="http://www.w3.org/2000/svg">
<path d="M18.3 8.8875H17.775C17.325 8.8875 16.9125 9.2625 16.9125 9.75C16.9125 10.2375 17.2875 10.6125 17.775 10.6125H18.3C18.6 10.6125 18.825 10.8375 18.825 11.1375V18.8625C18.825 18.9 18.7875 18.9375 18.75 18.9375H5.21245C5.17495 18.9375 5.13745 18.9 5.13745 18.8625V11.1C5.13745 10.8 5.36245 10.575 5.66245 10.575H5.96245C6.41245 10.575 6.82495 10.2 6.82495 9.7125C6.82495 9.225 6.44995 8.85 5.96245 8.85H5.66245C4.42495 8.85 3.44995 9.8625 3.44995 11.0625V18.7875C3.44995 19.7625 4.23745 20.55 5.21245 20.55H9.78745L9.48745 22.3125C9.44995 22.575 9.52495 22.8 9.67495 22.9875C9.82495 23.175 10.0875 23.2875 10.3125 23.2875H13.65C13.9125 23.2875 14.1375 23.175 14.2875 22.9875C14.4375 22.8 14.5125 22.5375 14.475 22.3125L14.175 20.55H18.75C19.725 20.55 20.5125 19.7625 20.5125 18.7875V11.1C20.55 9.9 19.5375 8.8875 18.3 8.8875ZM12.675 21.675H11.325L11.5125 20.625H12.4875L12.675 21.675Z" fill="#161A23"/>
<path d="M12.3749 12.4125C14.8124 12.4125 16.7999 10.425 16.7999 7.9875C16.7999 7.5375 16.4249 7.125 15.9374 7.125C15.4499 7.125 15.0749 7.5 15.0749 7.9875C15.0749 9.4875 13.8374 10.725 12.3374 10.725C10.8374 10.725 9.59985 9.4875 9.59985 7.9875C9.59985 6.4875 10.8374 5.25 12.3374 5.25C12.5999 5.25 12.8624 5.2875 13.1249 5.3625C13.5749 5.5125 14.0249 5.25 14.1749 4.8C14.3249 4.35 14.0624 3.9 13.6124 3.75C13.1999 3.6375 12.7874 3.5625 12.3374 3.5625C9.89985 3.5625 7.91235 5.55 7.91235 7.9875C7.94985 10.425 9.93735 12.4125 12.3749 12.4125Z" fill="#161A23"/>
<path d="M12.1874 7.05C11.8499 7.35 11.8124 7.875 12.1124 8.25C12.2624 8.4375 12.5249 8.55 12.7499 8.55C12.9374 8.55 13.1624 8.475 13.3124 8.325L17.6624 4.4625H19.6874C20.1374 4.4625 20.5499 4.0875 20.5499 3.6C20.5499 3.1125 20.1749 2.7375 19.6874 2.7375H18.2249V1.5C18.2249 1.05 17.8499 0.637501 17.3624 0.637501C16.8749 0.637501 16.4999 1.0125 16.4999 1.5V3.1875L12.1874 7.05Z" fill="#161A23"/>
</svg>
