<svg width="24" height="24" viewBox="0 0 24 24" fill="none" xmlns="http://www.w3.org/2000/svg">
<path d="M15.5251 8.2876C15.6751 8.4376 15.8626 8.4751 16.0501 8.4751C16.2751 8.4751 16.5376 8.3626 16.6876 8.1751C16.9876 7.8001 16.9501 7.2751 16.5751 6.9751L12.5251 3.5626C12.2251 3.3001 11.7376 3.3001 11.4376 3.5626L7.38757 6.9751C7.01257 7.2751 6.97507 7.8001 7.27507 8.1751C7.57507 8.5501 8.10007 8.5876 8.47507 8.2876L11.1376 6.0376V17.9626L8.47507 15.7126C8.13757 15.4126 7.57507 15.4501 7.27507 15.8251C6.97507 16.2001 7.01257 16.7251 7.38757 17.0251L11.4376 20.4376C11.6251 20.5501 11.8126 20.6251 12.0001 20.6251C12.1876 20.6251 12.3751 20.5501 12.5251 20.4376L16.5751 17.0251C16.9501 16.7251 16.9876 16.2001 16.6876 15.8251C16.3876 15.4501 15.8626 15.4126 15.4876 15.7126L12.8251 17.9626V6.0376L15.5251 8.2876Z" fill="#161A23"/>
<path d="M7.53752 2.32505H16.425C16.875 2.32505 17.25 1.95005 17.25 1.50005C17.25 1.05005 16.875 0.675049 16.425 0.675049H7.53752C7.08752 0.675049 6.71252 1.05005 6.71252 1.50005C6.71252 1.95005 7.08752 2.32505 7.53752 2.32505Z" fill="#161A23"/>
<path d="M16.4625 21.675H7.53752C7.08752 21.675 6.71252 22.05 6.71252 22.5C6.71252 22.95 7.08752 23.325 7.53752 23.325H16.425C16.875 23.325 17.25 22.95 17.25 22.5C17.25 22.05 16.9125 21.675 16.4625 21.675Z" fill="#161A23"/>
</svg>
