<svg width="24" height="24" viewBox="0 0 24 24" fill="none" xmlns="http://www.w3.org/2000/svg">
<path d="M11.8875 10.725C11.6625 10.725 11.4375 10.65 11.2875 10.4625L7.2375 6.45C6.9 6.1125 6.9 5.5875 7.2375 5.25C7.575 4.9125 8.1 4.9125 8.4375 5.25L11.0625 7.875V1.7625C11.0625 1.3125 11.4375 0.9375 11.8875 0.9375C12.3375 0.9375 12.75 1.3125 12.75 1.7625V7.875L15.6 5.025C15.9375 4.6875 16.4625 4.6875 16.8 5.025C17.1375 5.3625 17.1375 5.8875 16.8 6.225L12.4875 10.5C12.3 10.65 12.1125 10.725 11.8875 10.725Z" fill="#161A23"/>
<path d="M12.1125 23.0625C11.6625 23.0625 11.2875 22.6875 11.2875 22.2375V16.125L8.4375 18.975C8.1 19.3125 7.575 19.3125 7.2375 18.975C6.9 18.6375 6.9 18.1125 7.2375 17.775L11.5125 13.5C11.85 13.1625 12.375 13.1625 12.7125 13.5L16.7625 17.55C17.1 17.8875 17.1 18.4125 16.7625 18.75C16.425 19.0875 15.9 19.0875 15.5625 18.75L12.9375 16.125V22.2C12.975 22.6875 12.6 23.0625 12.1125 23.0625Z" fill="#161A23"/>
</svg>
