<svg width="24" height="24" viewBox="0 0 24 24" fill="none" xmlns="http://www.w3.org/2000/svg">
<g clip-path="url(#clip0_501_41644)">
<path d="M21.3751 9.2625H16.8001C15.7126 9.2625 14.8501 8.3625 14.8501 7.3125V2.7C14.8501 1.6125 15.7501 0.75 16.8001 0.75H21.3751C22.4626 0.75 23.3251 1.65 23.3251 2.7V7.275C23.3251 8.3625 22.4626 9.2625 21.3751 9.2625ZM16.8001 2.4375C16.6501 2.4375 16.5001 2.55 16.5001 2.7375V7.3125C16.5001 7.4625 16.6126 7.6125 16.8001 7.6125H21.3751C21.5251 7.6125 21.6751 7.5 21.6751 7.3125V2.7C21.6751 2.55 21.5626 2.4 21.3751 2.4H16.8001V2.4375Z" fill="#161A23"/>
<path d="M7.57505 23.25H1.50005C1.05005 23.25 0.675049 22.8749 0.675049 22.4249V16.35C0.675049 15.9 1.05005 15.525 1.50005 15.525C1.95005 15.525 2.32505 15.9 2.32505 16.35V20.4375L10.8375 12C11.175 11.6625 11.7 11.6625 12.0375 12C12.375 12.3375 12.375 12.8625 12.0375 13.2L3.60005 21.5625H7.57505C8.02505 21.5625 8.40005 21.9375 8.40005 22.3875C8.40005 22.8375 8.02505 23.25 7.57505 23.25Z" fill="#161A23"/>
</g>
<defs>
<clipPath id="clip0_501_41644">
<rect width="24" height="24" fill="white"/>
</clipPath>
</defs>
</svg>
