<svg width="24" height="24" viewBox="0 0 24 24" fill="none" xmlns="http://www.w3.org/2000/svg">
<g clip-path="url(#clip0_501_41567)">
<path d="M12.6001 7.16249C12.2626 6.82499 11.7376 6.82499 11.4001 7.16249L7.68757 10.8C7.35007 11.1375 7.35007 11.6625 7.68757 12C7.83757 12.15 8.06257 12.2625 8.28757 12.2625C8.51257 12.2625 8.70007 12.1875 8.88757 12.0375L11.1751 9.78749V16.275C11.1751 16.725 11.5501 17.1 12.0001 17.1C12.4501 17.1 12.8251 16.725 12.8251 16.275V9.74999L15.1126 12C15.4501 12.3375 15.9751 12.3375 16.3126 12C16.6501 11.6625 16.6501 11.1375 16.3126 10.8L12.6001 7.16249Z" fill="#161A23"/>
<path d="M12 0.637512C5.73755 0.637512 0.675049 5.73751 0.675049 12C0.675049 18.2625 5.73755 23.3625 12 23.3625C18.2626 23.3625 23.3251 18.2625 23.3251 12C23.3251 5.73751 18.2626 0.637512 12 0.637512ZM12 21.675C6.67505 21.675 2.32505 17.325 2.32505 12C2.32505 6.67501 6.67505 2.32501 12 2.32501C17.3251 2.32501 21.6751 6.67501 21.6751 12C21.6751 17.325 17.3251 21.675 12 21.675Z" fill="#161A23"/>
</g>
<defs>
<clipPath id="clip0_501_41567">
<rect width="24" height="24" fill="white"/>
</clipPath>
</defs>
</svg>
