<svg width="24" height="24" viewBox="0 0 24 24" fill="none" xmlns="http://www.w3.org/2000/svg">
<path d="M22.4999 20.4C22.2749 20.4 22.0499 20.325 21.8999 20.1375L14.4749 12.6C14.1374 12.2625 14.1374 11.7375 14.4749 11.4L21.8999 3.8625C22.2374 3.525 22.7624 3.525 23.0999 3.8625C23.4374 4.2 23.4374 4.725 23.0999 5.0625L16.2749 12L23.0999 18.9375C23.4374 19.275 23.4374 19.8 23.0999 20.1375C22.9124 20.325 22.7249 20.4 22.4999 20.4Z" fill="#161A23"/>
<path d="M1.49998 20.4C1.27498 20.4 1.08748 20.325 0.899976 20.175C0.562476 19.8375 0.562476 19.3125 0.899976 18.975L7.72498 12L0.899976 5.0625C0.562476 4.725 0.562476 4.2 0.899976 3.8625C1.23748 3.525 1.76248 3.525 2.09998 3.8625L9.52497 11.4C9.86248 11.7375 9.86248 12.2625 9.52497 12.6L2.09998 20.1375C1.94998 20.325 1.72498 20.4 1.49998 20.4Z" fill="#161A23"/>
</svg>
