<svg width="24" height="24" viewBox="0 0 24 24" fill="none" xmlns="http://www.w3.org/2000/svg">
<g clip-path="url(#clip0_501_41668)">
<path d="M13.3874 11.2875C13.1624 11.2875 12.9374 11.2125 12.7874 11.025C12.4499 10.6875 12.4499 10.1625 12.7874 9.82505L20.2874 2.32505H16.2749C15.8249 2.32505 15.4499 1.95005 15.4499 1.50005C15.4499 1.05005 15.8249 0.675049 16.2749 0.675049H22.3499C22.7999 0.675049 23.1749 1.05005 23.1749 1.50005V7.23755C23.1749 7.68755 22.7999 8.06255 22.3499 8.06255C21.8999 8.06255 21.5249 7.68755 21.5249 7.23755V3.52505L14.0249 11.025C13.8374 11.175 13.6124 11.2875 13.3874 11.2875Z" fill="#161A23"/>
<path d="M7.72495 23.3251H1.64995C1.19995 23.3251 0.824951 22.9501 0.824951 22.5001V16.7626C0.824951 16.3126 1.19995 15.9376 1.64995 15.9376C2.09995 15.9376 2.47495 16.3126 2.47495 16.7626V20.4376L9.97495 12.9376C10.3125 12.6001 10.8375 12.6001 11.175 12.9376C11.5125 13.2751 11.5125 13.8001 11.175 14.1376L3.67495 21.6376H7.68745C8.13745 21.6376 8.51245 22.0126 8.51245 22.4626C8.51245 22.9126 8.17495 23.3251 7.72495 23.3251Z" fill="#161A23"/>
</g>
<defs>
<clipPath id="clip0_501_41668">
<rect width="24" height="24" fill="white"/>
</clipPath>
</defs>
</svg>
