<svg width="24" height="24" viewBox="0 0 24 24" fill="none" xmlns="http://www.w3.org/2000/svg">
<g clip-path="url(#clip0_501_41640)">
<path d="M19.4625 11.2875H13.3875C12.9375 11.2875 12.5625 10.9125 12.5625 10.4625V4.6875C12.5625 4.2375 12.9375 3.8625 13.3875 3.8625C13.8375 3.8625 14.2125 4.2375 14.2125 4.6875V8.3625L21.7125 0.8625C22.05 0.525 22.575 0.525 22.9125 0.8625C23.25 1.2 23.25 1.725 22.9125 2.0625L15.4125 9.5625H19.425C19.875 9.5625 20.25 9.9375 20.25 10.3875C20.25 10.8375 19.9125 11.2875 19.4625 11.2875Z" fill="#161A23"/>
<path d="M1.65 23.325C1.425 23.325 1.2 23.25 1.05 23.0625C0.7125 22.725 0.7125 22.2 1.05 21.8625L8.55 14.3625H4.5375C4.0875 14.3625 3.7125 13.9875 3.7125 13.5375C3.7125 13.0875 4.0875 12.7125 4.5375 12.7125H10.6125C11.0625 12.7125 11.4375 13.0875 11.4375 13.5375V19.275C11.4375 19.725 11.0625 20.1 10.6125 20.1C10.1625 20.1 9.7875 19.725 9.7875 19.275V15.6L2.2875 23.1C2.1 23.25 1.875 23.325 1.65 23.325Z" fill="#161A23"/>
</g>
<defs>
<clipPath id="clip0_501_41640">
<rect width="24" height="24" fill="white"/>
</clipPath>
</defs>
</svg>
