<svg width="24" height="24" viewBox="0 0 24 24" fill="none" xmlns="http://www.w3.org/2000/svg">
<path d="M20.475 10.1625L12.6 2.39998C12.2625 2.06248 11.7375 2.06248 11.4 2.39998L3.52498 10.1625C3.18748 10.5 3.18748 11.025 3.52498 11.3625C3.86248 11.7 4.38748 11.7 4.72498 11.3625L11.1375 5.06248V21C11.1375 21.45 11.5125 21.825 11.9625 21.825C12.4125 21.825 12.825 21.45 12.825 21V4.98748L19.3125 11.3625C19.4625 11.5125 19.6875 11.5875 19.9125 11.5875C20.1375 11.5875 20.3625 11.5125 20.5125 11.325C20.8125 11.025 20.8125 10.4625 20.475 10.1625Z" fill="#161A23"/>
</svg>
