<svg width="24" height="24" viewBox="0 0 24 24" fill="none" xmlns="http://www.w3.org/2000/svg">
<path d="M22.5 8.66252H7.3875C6.9375 8.66252 6.5625 8.28752 6.5625 7.83752C6.5625 7.38752 6.9375 7.01252 7.3875 7.01252H20.7L18.975 4.98752C18.675 4.61252 18.7125 4.08752 19.0875 3.78752C19.4625 3.48752 19.9875 3.52502 20.2875 3.90002L23.175 7.31252C23.4 7.57502 23.4375 7.91252 23.2875 8.21252C23.1375 8.47502 22.8375 8.66252 22.5 8.66252Z" fill="#161A23"/>
<path d="M4.38753 20.4375C4.16253 20.4375 3.90003 20.325 3.75003 20.1375L0.862534 16.725C0.637534 16.4625 0.600034 16.125 0.750034 15.825C0.900034 15.525 1.20003 15.3375 1.50003 15.3375H16.6125C17.0625 15.3375 17.4375 15.7125 17.4375 16.1625C17.4375 16.6125 17.0625 16.9875 16.6125 16.9875H3.30003L5.02503 19.0125C5.32503 19.3875 5.28753 19.9125 4.91253 20.2125C4.76253 20.4 4.57503 20.4375 4.38753 20.4375Z" fill="#161A23"/>
</svg>
