<svg width="24" height="24" viewBox="0 0 24 24" fill="none" xmlns="http://www.w3.org/2000/svg">
<path d="M23.1 11.4L19.275 7.53749C18.9375 7.19999 18.4125 7.19999 18.075 7.53749C17.7375 7.87499 17.7375 8.39999 18.075 8.73749L20.475 11.175H3.48748L5.88748 8.73749C6.22498 8.39999 6.22498 7.87499 5.88748 7.53749C5.54998 7.19999 5.02498 7.19999 4.68748 7.53749L0.899976 11.4C0.562476 11.7375 0.562476 12.2625 0.899976 12.6L4.72498 16.4625C4.87498 16.6125 5.09998 16.725 5.32498 16.725C5.54998 16.725 5.73748 16.65 5.92498 16.5C6.26248 16.1625 6.26248 15.6375 5.92498 15.3L3.52498 12.8625H20.475L18.075 15.3C17.7375 15.6375 17.7375 16.1625 18.075 16.5C18.225 16.65 18.45 16.725 18.675 16.725C18.9 16.725 19.125 16.65 19.275 16.4625L23.1 12.6C23.4375 12.2625 23.4375 11.7375 23.1 11.4Z" fill="#161A23"/>
</svg>
