<svg width="24" height="24" viewBox="0 0 24 24" fill="none" xmlns="http://www.w3.org/2000/svg">
<path d="M20.7 9.22498C19.4625 9.22498 18.4125 10.05 18.0375 11.175H3.45002L6.26252 8.47498C6.60002 8.13748 6.60002 7.61248 6.26252 7.27498C5.92502 6.93748 5.40002 6.93748 5.06252 7.27498L0.787524 11.4C0.637524 11.55 0.525024 11.775 0.525024 12C0.525024 12.225 0.600024 12.45 0.787524 12.6L5.06252 16.7625C5.21252 16.9125 5.43752 16.9875 5.66252 16.9875C5.88752 16.9875 6.11252 16.9125 6.26252 16.725C6.60002 16.3875 6.56252 15.8625 6.26252 15.525L3.45002 12.825H18.0375C18.4125 13.95 19.4625 14.775 20.7 14.775C22.2375 14.775 23.475 13.5375 23.475 12C23.475 10.4625 22.2375 9.22498 20.7 9.22498ZM20.7 13.0875C20.1 13.0875 19.6125 12.6 19.6125 12C19.6125 11.4 20.1 10.9125 20.7 10.9125C21.3 10.9125 21.7875 11.4 21.7875 12C21.7875 12.6 21.3 13.0875 20.7 13.0875Z" fill="#161A23"/>
</svg>
