<svg width="24" height="24" viewBox="0 0 24 24" fill="none" xmlns="http://www.w3.org/2000/svg">
<path d="M7.83747 6.90002C8.06247 6.90002 8.28747 6.82503 8.43747 6.63753L11.1375 3.82502V9.90003C11.1375 10.35 11.5125 10.725 11.9625 10.725C12.4125 10.725 12.7875 10.35 12.7875 9.90003V3.86252L15.4875 6.63753C15.825 6.97503 16.35 6.97503 16.6875 6.63753C17.025 6.30003 17.025 5.77502 16.6875 5.43752L12.6 1.16252C12.45 1.01252 12.225 0.900024 12 0.900024C11.775 0.900024 11.55 0.975024 11.4 1.16252L7.23747 5.47503C6.89997 5.81253 6.93747 6.33752 7.27497 6.67502C7.42497 6.82502 7.61247 6.90002 7.83747 6.90002Z" fill="#161A23"/>
<path d="M15.5625 17.3625L12.8625 20.1375V14.1C12.8625 13.65 12.4875 13.275 12.0375 13.275C11.5875 13.275 11.2125 13.65 11.2125 14.1V20.175L8.51246 17.3625C8.17496 17.025 7.64996 17.025 7.31246 17.325C6.97496 17.6625 6.97496 18.1875 7.27496 18.525L11.4375 22.8C11.5875 22.95 11.8125 23.0625 12.0375 23.0625C12.2625 23.0625 12.4875 22.9875 12.6375 22.8L16.8375 18.525C17.175 18.1875 17.175 17.6625 16.8375 17.325C16.425 17.025 15.9 17.025 15.5625 17.3625Z" fill="#161A23"/>
</svg>
