<svg width="24" height="24" viewBox="0 0 24 24" fill="none" xmlns="http://www.w3.org/2000/svg">
<path d="M9.90002 11.175H3.86252L6.63752 8.47498C6.97502 8.13748 6.97502 7.61248 6.63752 7.27498C6.30002 6.93748 5.77502 6.93748 5.43752 7.27498L1.16252 11.4C1.01252 11.55 0.900024 11.775 0.900024 12C0.900024 12.225 0.975024 12.45 1.16252 12.6L5.43752 16.7625C5.58752 16.9125 5.81252 16.9875 6.03752 16.9875C6.26252 16.9875 6.48752 16.9125 6.63752 16.725C6.97502 16.3875 6.93752 15.8625 6.60002 15.525L3.78752 12.825H9.86252C10.3125 12.825 10.6875 12.45 10.6875 12C10.725 11.55 10.35 11.175 9.90002 11.175Z" fill="#161A23"/>
<path d="M22.2375 11.175H16.1625L18.975 8.47499C19.3125 8.13749 19.3126 7.61249 19.0125 7.27499C18.675 6.93749 18.15 6.93749 17.8125 7.23749L13.5 11.3625C13.35 11.5125 13.2375 11.7375 13.2375 11.9625C13.2375 12.1875 13.3125 12.4125 13.5 12.5625L17.7751 16.7625C17.9251 16.9125 18.15 16.9875 18.375 16.9875C18.6 16.9875 18.825 16.9125 18.975 16.725C19.3125 16.3875 19.3125 15.8625 18.975 15.525L16.2 12.825H22.2375C22.6875 12.825 23.0625 12.45 23.0625 12C23.0625 11.55 22.6875 11.175 22.2375 11.175Z" fill="#161A23"/>
</svg>
