<svg width="24" height="24" viewBox="0 0 24 24" fill="none" xmlns="http://www.w3.org/2000/svg">
<g clip-path="url(#clip0_501_41604)">
<path d="M7.20005 9.2625H2.62505C1.53755 9.2625 0.675049 8.3625 0.675049 7.3125V2.7C0.675049 1.6125 1.53755 0.75 2.62505 0.75H7.20005C8.28755 0.75 9.15005 1.65 9.15005 2.7V7.275C9.15005 8.3625 8.28755 9.2625 7.20005 9.2625ZM2.62505 2.4375C2.47505 2.4375 2.32505 2.55 2.32505 2.7375V7.3125C2.32505 7.4625 2.43755 7.6125 2.62505 7.6125H7.20005C7.35005 7.6125 7.50005 7.5 7.50005 7.3125V2.7C7.50005 2.55 7.38755 2.4 7.20005 2.4H2.62505V2.4375Z" fill="#161A23"/>
<path d="M22.5001 23.25H16.4251C15.9751 23.25 15.6001 22.875 15.6001 22.425C15.6001 21.975 15.9751 21.6 16.4251 21.6H20.4001L11.9626 13.1625C11.6251 12.825 11.6251 12.3 11.9626 11.9625C12.3001 11.625 12.8251 11.625 13.1626 11.9625L21.6751 20.4V16.35C21.6751 15.9 22.0501 15.525 22.5001 15.525C22.9501 15.525 23.3251 15.9 23.3251 16.35V22.425C23.3251 22.875 22.9501 23.25 22.5001 23.25Z" fill="#161A23"/>
</g>
<defs>
<clipPath id="clip0_501_41604">
<rect width="24" height="24" fill="white"/>
</clipPath>
</defs>
</svg>
