<svg width="24" height="24" viewBox="0 0 24 24" fill="none" xmlns="http://www.w3.org/2000/svg">
<path d="M7.83747 6.90002C8.06247 6.90002 8.28747 6.82503 8.43747 6.63753L11.1375 3.82502V9.90003C11.1375 10.35 11.5125 10.725 11.9625 10.725C12.4125 10.725 12.7875 10.35 12.7875 9.90003V3.86252L15.4875 6.63753C15.825 6.97503 16.35 6.97503 16.6875 6.63753C17.025 6.30003 17.025 5.77502 16.6875 5.43752L12.6 1.16252C12.45 1.01252 12.225 0.900024 12 0.900024C11.775 0.900024 11.55 0.975024 11.4 1.16252L7.23747 5.47503C6.89997 5.81253 6.93747 6.33752 7.27497 6.67502C7.42497 6.82502 7.61247 6.90002 7.83747 6.90002Z" fill="#161A23"/>
<path d="M16.7625 17.8125L12.6375 13.5C12.4875 13.35 12.2625 13.2375 12.0375 13.2375C11.8125 13.2375 11.5875 13.3125 11.4375 13.5L7.2375 17.8125C6.9 18.15 6.9 18.675 7.2375 19.0125C7.575 19.35 8.1 19.35 8.4375 19.0125L11.1375 16.2375V22.275C11.1375 22.725 11.5125 23.1 11.9625 23.1C12.4125 23.1 12.7875 22.725 12.7875 22.275V16.1625L15.4875 18.975C15.6375 19.1625 15.8625 19.2375 16.0875 19.2375C16.3125 19.2375 16.5 19.1625 16.6875 19.0125C17.1 18.675 17.1 18.15 16.7625 17.8125Z" fill="#161A23"/>
</svg>
