<svg width="24" height="24" viewBox="0 0 24 24" fill="none" xmlns="http://www.w3.org/2000/svg">
<path d="M23.0625 11.1375L20.8875 8.9625C20.4 8.475 19.65 8.475 19.1625 8.9625L16.9875 11.1375H3.4875L6.3 8.4375C6.6375 8.1 6.6375 7.575 6.3 7.2375C5.9625 6.9 5.4375 6.9 5.1 7.2375L0.825 11.4C0.675 11.55 0.5625 11.775 0.5625 12C0.5625 12.225 0.6375 12.45 0.825 12.6L5.1 16.7625C5.25 16.9125 5.475 16.9875 5.7 16.9875C5.925 16.9875 6.15 16.9125 6.3 16.725C6.6375 16.3875 6.6 15.8625 6.3 15.525L3.4875 12.825H16.95L19.125 15C19.35 15.225 19.6875 15.375 19.9875 15.375C20.2875 15.375 20.625 15.2625 20.85 15L23.025 12.825C23.55 12.375 23.55 11.625 23.0625 11.1375ZM20.025 13.5L18.525 12L20.025 10.5L21.525 12L20.025 13.5Z" fill="#161A23"/>
</svg>
