<svg width="24" height="24" viewBox="0 0 24 24" fill="none" xmlns="http://www.w3.org/2000/svg">
<g clip-path="url(#clip0_501_41677)">
<path d="M21.3 23.3251H16.725C15.6375 23.3251 14.775 22.4251 14.775 21.3751V16.8001C14.775 15.7126 15.675 14.8501 16.725 14.8501H21.3C22.3875 14.8501 23.25 15.7501 23.25 16.8001V21.3751C23.25 22.4626 22.3875 23.3251 21.3 23.3251ZM16.725 16.5376C16.575 16.5376 16.425 16.6501 16.425 16.8376V21.3751C16.425 21.5251 16.5375 21.6751 16.725 21.6751H21.3C21.45 21.6751 21.6 21.5626 21.6 21.3751V16.8001C21.6 16.6501 21.4875 16.5001 21.3 16.5001H16.725V16.5376Z" fill="#161A23"/>
<path d="M11.4375 12.3C11.2125 12.3 10.9875 12.225 10.8375 12.0375L2.4375 3.60005V7.57505C2.4375 8.02505 2.0625 8.40005 1.6125 8.40005C1.1625 8.40005 0.75 8.02505 0.75 7.57505V1.50005C0.75 1.05005 1.125 0.675049 1.575 0.675049H7.65C8.1 0.675049 8.475 1.05005 8.475 1.50005C8.475 1.95005 8.1 2.32505 7.65 2.32505H3.5625L12 10.8375C12.3375 11.175 12.3375 11.7 12 12.0375C11.85 12.1875 11.625 12.3 11.4375 12.3Z" fill="#161A23"/>
</g>
<defs>
<clipPath id="clip0_501_41677">
<rect width="24" height="24" fill="white"/>
</clipPath>
</defs>
</svg>
