<svg width="24" height="24" viewBox="0 0 24 24" fill="none" xmlns="http://www.w3.org/2000/svg">
<g clip-path="url(#clip0_501_41544)">
<path d="M15.1126 12L12.8251 14.25V7.7625C12.8251 7.3125 12.4501 6.9375 12.0001 6.9375C11.5501 6.9375 11.1751 7.3125 11.1751 7.7625V14.25L8.88757 12C8.55007 11.6625 8.02507 11.6625 7.68757 12C7.35007 12.3375 7.35007 12.8625 7.68757 13.2L11.4001 16.875C11.5501 17.025 11.7751 17.1 12.0001 17.1C12.2251 17.1 12.4126 17.025 12.6001 16.875L16.3126 13.2C16.6501 12.8625 16.6501 12.3375 16.3126 12C15.9751 11.6625 15.4501 11.6625 15.1126 12Z" fill="#161A23"/>
<path d="M12 0.637451C5.73755 0.637451 0.675049 5.73745 0.675049 12C0.675049 18.2624 5.73755 23.3624 12 23.3624C18.2626 23.3624 23.3251 18.2624 23.3251 12C23.3251 5.73745 18.2626 0.637451 12 0.637451ZM12 21.6749C6.67505 21.6749 2.32505 17.3249 2.32505 12C2.32505 6.67495 6.67505 2.32495 12 2.32495C17.3251 2.32495 21.6751 6.67495 21.6751 12C21.6751 17.3249 17.3251 21.6749 12 21.6749Z" fill="#161A23"/>
</g>
<defs>
<clipPath id="clip0_501_41544">
<rect width="24" height="24" fill="white"/>
</clipPath>
</defs>
</svg>
