<svg width="24" height="24" viewBox="0 0 24 24" fill="none" xmlns="http://www.w3.org/2000/svg">
<path d="M16.7625 17.7375C16.425 17.4 15.9 17.4375 15.5625 17.7375L12.8625 20.55V5.96252C13.9875 5.58752 14.8125 4.53752 14.8125 3.30002C14.8125 1.76252 13.575 0.525024 12.0375 0.525024C10.5 0.525024 9.26245 1.76252 9.26245 3.30002C9.26245 4.53752 10.0875 5.58752 11.2125 5.96252V20.55L8.51245 17.7375C8.17495 17.4 7.64995 17.4 7.31245 17.7375C6.97495 18.075 6.97495 18.6 7.31245 18.9375L11.475 23.2125C11.625 23.3625 11.85 23.475 12.075 23.475C12.3 23.475 12.525 23.4 12.675 23.2125L16.8375 18.9375C17.1 18.6 17.1 18.075 16.7625 17.7375ZM12 2.21252C12.6 2.21252 13.0875 2.70002 13.0875 3.30002C13.0875 3.90002 12.6 4.38752 12 4.38752C11.4 4.38752 10.9125 3.90002 10.9125 3.30002C10.9125 2.70002 11.4 2.21252 12 2.21252Z" fill="#161A23"/>
</svg>
