<svg width="24" height="24" viewBox="0 0 24 24" fill="none" xmlns="http://www.w3.org/2000/svg">
<g clip-path="url(#clip0_501_41575)">
<path d="M7.275 23.3251H2.7C1.6125 23.3251 0.75 22.4626 0.75 21.3751V16.8001C0.75 15.7126 1.65 14.8501 2.7 14.8501H7.275C8.3625 14.8501 9.225 15.7501 9.225 16.8001V21.3751C9.2625 22.4626 8.3625 23.3251 7.275 23.3251ZM2.7 16.5376C2.55 16.5376 2.4 16.6501 2.4 16.8376V21.3751C2.4 21.5251 2.5125 21.6751 2.7 21.6751H7.275C7.425 21.6751 7.575 21.5626 7.575 21.3751V16.8001C7.575 16.6501 7.4625 16.5001 7.275 16.5001H2.7V16.5376Z" fill="#161A23"/>
<path d="M12.5625 12.3C12.3375 12.3 12.15 12.225 11.9625 12.0375C11.625 11.7 11.625 11.175 11.9625 10.8375L20.4375 2.32505H16.35C15.9 2.32505 15.525 1.95005 15.525 1.50005C15.525 1.05005 15.9 0.675049 16.35 0.675049H22.425C22.875 0.675049 23.25 1.05005 23.25 1.50005V7.57505C23.25 8.02505 22.875 8.40005 22.425 8.40005C21.975 8.40005 21.6 8.02505 21.6 7.57505V3.60005L13.1625 12.0375C13.0125 12.1875 12.7875 12.3 12.5625 12.3Z" fill="#161A23"/>
</g>
<defs>
<clipPath id="clip0_501_41575">
<rect width="24" height="24" fill="white"/>
</clipPath>
</defs>
</svg>
