<svg width="24" height="24" viewBox="0 0 24 24" fill="none" xmlns="http://www.w3.org/2000/svg">
<path d="M23.1375 11.4001L18.8625 7.23756C18.525 6.90006 18 6.93756 17.6625 7.23756C17.325 7.57506 17.3625 8.10006 17.6625 8.43756L20.475 11.1376H6.03748C5.66248 10.0126 4.61248 9.18756 3.37498 9.18756C1.83748 9.18756 0.599976 10.4251 0.599976 11.9626C0.599976 13.5001 1.83748 14.7376 3.37498 14.7376C4.61248 14.7376 5.66248 13.9126 6.03748 12.7876H20.475L17.6625 15.4876C17.325 15.8251 17.325 16.3501 17.6625 16.6876C17.8125 16.8751 18.0375 16.9501 18.2625 16.9501C18.4875 16.9501 18.675 16.8751 18.8625 16.7251L23.1375 12.5626C23.2875 12.4126 23.4 12.1876 23.4 11.9626C23.4 11.7376 23.2875 11.5501 23.1375 11.4001ZM3.37498 13.0876C2.77498 13.0876 2.28748 12.6001 2.28748 12.0001C2.28748 11.4001 2.77498 10.9126 3.37498 10.9126C3.97498 10.9126 4.49998 11.4001 4.49998 12.0001C4.49998 12.6001 4.01248 13.0876 3.37498 13.0876Z" fill="#161A23"/>
</svg>
