<svg width="24" height="24" viewBox="0 0 24 24" fill="none" xmlns="http://www.w3.org/2000/svg">
<path d="M16.7625 17.475C16.425 17.1375 15.9 17.1749 15.5625 17.475L12.8625 20.2875V2.47495H14.025C14.475 2.47495 14.85 2.09995 14.85 1.64995C14.85 1.19995 14.475 0.824951 14.025 0.824951H9.975C9.525 0.824951 9.15 1.19995 9.15 1.64995C9.15 2.09995 9.525 2.47495 9.975 2.47495H11.1375V20.2875L8.4375 17.475C8.1 17.1375 7.575 17.1375 7.2375 17.475C6.9 17.8125 6.9 18.3375 7.2375 18.6749L11.4 22.95C11.55 23.1 11.775 23.2125 12 23.2125C12.225 23.2125 12.45 23.1375 12.6 22.95L16.7625 18.6749C17.1 18.3375 17.1 17.8125 16.7625 17.475Z" fill="#161A23"/>
</svg>
