<svg width="24" height="24" viewBox="0 0 24 24" fill="none" xmlns="http://www.w3.org/2000/svg">
<path d="M8.36255 5.66252L11.175 3.30002V8.96252H7.98755C7.53755 8.96252 7.16255 9.33752 7.16255 9.78753C7.16255 10.2375 7.53755 10.6125 7.98755 10.6125H16.0875C16.5375 10.6125 16.9125 10.2375 16.9125 9.78753C16.9125 9.33752 16.5375 8.96252 16.0875 8.96252H12.9V3.30002L15.7125 5.66252C15.8625 5.81252 16.05 5.85002 16.2375 5.85002C16.4625 5.85002 16.725 5.73752 16.875 5.55002C17.175 5.17502 17.1375 4.65002 16.7625 4.35002L12.525 0.862524C12.225 0.600024 11.7375 0.600024 11.4375 0.862524L7.23755 4.38752C6.86255 4.68752 6.82505 5.21252 7.12505 5.58752C7.46255 5.92502 7.98755 5.96252 8.36255 5.66252Z" fill="#161A23"/>
<path d="M15.6375 18.3376L12.825 20.7001V15.0376H16.0125C16.4625 15.0376 16.8375 14.6626 16.8375 14.2126C16.8375 13.7626 16.4625 13.3876 16.0125 13.3876H7.95005C7.50005 13.3876 7.12505 13.7626 7.12505 14.2126C7.12505 14.6626 7.50005 15.0376 7.95005 15.0376H11.1375V20.7001L8.32505 18.3376C7.98755 18.0376 7.42505 18.0751 7.12505 18.4501C6.82505 18.8251 6.86255 19.3501 7.23755 19.6501L11.4375 23.1751C11.5875 23.3251 11.775 23.3626 11.9625 23.3626C12.15 23.3626 12.3375 23.2876 12.4875 23.1751L16.6875 19.6501C17.0625 19.3501 17.1 18.8251 16.8 18.4501C16.5375 18.0751 16.0125 18.0376 15.6375 18.3376Z" fill="#161A23"/>
</svg>
