<svg width="24" height="24" viewBox="0 0 24 24" fill="none" xmlns="http://www.w3.org/2000/svg">
<path d="M16.7625 17.325C16.425 16.9875 15.9 17.025 15.5625 17.3625L12.8625 20.175V14.1C12.8625 13.65 12.4875 13.275 12.0375 13.275C11.5875 13.275 11.2125 13.65 11.2125 14.1V20.1375L8.51245 17.3625C8.17495 17.025 7.64995 17.025 7.31245 17.3625C6.97495 17.7 6.97495 18.225 7.31245 18.5625L11.5125 22.8375C11.6625 22.9875 11.8875 23.1 12.1125 23.1C12.3375 23.1 12.5625 23.025 12.7125 22.8375L16.875 18.5625C17.1 18.1875 17.1 17.6625 16.7625 17.325Z" fill="#161A23"/>
<path d="M11.3625 10.5C11.5125 10.65 11.7375 10.7625 11.9625 10.7625C12.1875 10.7625 12.4125 10.6875 12.5625 10.5L16.7625 6.225C17.1 5.8875 17.1 5.3625 16.7625 5.025C16.425 4.6875 15.9 4.6875 15.5625 5.025L12.8625 7.8V1.7625C12.8625 1.3125 12.4875 0.9375 12.0375 0.9375C11.5875 0.9375 11.2125 1.3125 11.2125 1.7625V7.8375L8.51246 5.025C8.17496 4.6875 7.64996 4.6875 7.31246 4.9875C6.97496 5.325 6.97496 5.85 7.27496 6.1875L11.3625 10.5Z" fill="#161A23"/>
</svg>
