<svg width="24" height="24" viewBox="0 0 24 24" fill="none" xmlns="http://www.w3.org/2000/svg">
<path d="M18.3468 4.76249C18.5718 4.76249 18.7968 4.83749 18.9468 5.02499C19.2843 5.36249 19.2843 5.88749 18.9468 6.22499L7.58433 17.5875L16.6593 17.5875C17.1093 17.5875 17.4843 17.9625 17.4843 18.4125C17.4843 18.8625 17.1093 19.2375 16.6593 19.2375L5.59683 19.2375C5.14683 19.2375 4.77183 18.8625 4.77183 18.4125L4.77183 7.27499C4.77183 6.82499 5.14683 6.44999 5.59683 6.44999C6.04683 6.44999 6.42183 6.82499 6.42183 7.27499L6.42183 16.3125L17.7468 4.98749C17.8968 4.83749 18.1218 4.76249 18.3468 4.76249Z" fill="#161A23"/>
</svg>
