<svg width="24" height="24" viewBox="0 0 24 24" fill="none" xmlns="http://www.w3.org/2000/svg">
<path d="M22.35 9.15002C21.9 9.15002 21.525 9.52502 21.525 9.97502V11.025H3.675L6.3 8.40002C6.6375 8.06252 6.6375 7.53752 6.3 7.20002C5.9625 6.86252 5.4375 6.86252 5.1 7.20002L1.05 11.2875C0.7125 11.625 0.7125 12.15 1.05 12.4875L5.325 16.7625C5.475 16.9125 5.7 17.025 5.925 17.025C6.15 17.025 6.375 16.95 6.525 16.7625C6.8625 16.425 6.8625 15.9 6.525 15.5625L3.675 12.7125H21.525V14.025C21.525 14.475 21.9 14.85 22.35 14.85C22.8 14.85 23.175 14.475 23.175 14.025V9.97502C23.2125 9.52502 22.8375 9.15002 22.35 9.15002Z" fill="#161A23"/>
</svg>
