<svg width="24" height="24" viewBox="0 0 24 24" fill="none" xmlns="http://www.w3.org/2000/svg">
<path d="M18.3375 19.2375C18.1125 19.2375 17.8875 19.1625 17.7375 18.975L6.45 7.6875L6.375 16.6875C6.375 17.1375 6 17.55 5.5125 17.5125C5.0625 17.5125 4.6875 17.1375 4.6875 16.65L4.8 5.625C4.8 5.175 5.175 4.8 5.625 4.8L16.6875 4.6875C17.1375 4.6875 17.5125 5.0625 17.5125 5.5125C17.5125 5.9625 17.1375 6.375 16.6875 6.375L7.6125 6.45L18.9375 17.775C19.275 18.1125 19.275 18.6375 18.9375 18.975C18.7875 19.125 18.5625 19.2375 18.3375 19.2375Z" fill="#161A23"/>
</svg>
