<svg width="24" height="24" viewBox="0 0 24 24" fill="none" xmlns="http://www.w3.org/2000/svg">
<path d="M11.4 9.52497C11.55 9.67498 11.775 9.74998 12 9.74998C12.225 9.74998 12.4125 9.67498 12.6 9.52497L20.1375 2.09998C20.475 1.76248 20.475 1.23748 20.1375 0.899976C19.8 0.562476 19.275 0.562476 18.9375 0.899976L12 7.72498L5.0625 0.899976C4.725 0.562476 4.2 0.562476 3.8625 0.899976C3.525 1.23748 3.525 1.76248 3.8625 2.09998L11.4 9.52497Z" fill="#161A23"/>
<path d="M12.6 14.4749C12.2625 14.1374 11.7375 14.1374 11.4 14.4749L3.8625 21.8999C3.525 22.2374 3.525 22.7624 3.8625 23.0999C4.2 23.4374 4.725 23.4374 5.0625 23.0999L12 16.2749L18.9375 23.0999C19.0875 23.2499 19.3125 23.3249 19.5375 23.3249C19.7625 23.3249 19.9875 23.2499 20.1375 23.0624C20.475 22.7249 20.475 22.1999 20.1375 21.8624L12.6 14.4749Z" fill="#161A23"/>
</svg>
