<svg width="24" height="24" viewBox="0 0 24 24" fill="none" xmlns="http://www.w3.org/2000/svg">
<g clip-path="url(#clip0_501_41661)">
<path d="M22.3125 0.824951H18.1875C17.7375 0.824951 17.3625 1.19995 17.3625 1.64995C17.3625 2.09995 17.7375 2.47495 18.1875 2.47495H20.25L15.2625 7.53745C14.925 7.87495 14.925 8.39995 15.2625 8.73745C15.4125 8.88745 15.6375 8.99995 15.8625 8.99995C16.0875 8.99995 16.3125 8.92495 16.4625 8.73745L21.45 3.71245V5.77495C21.45 6.22495 21.825 6.59995 22.275 6.59995C22.725 6.59995 23.1 6.22495 23.1 5.77495V1.64995C23.175 1.23745 22.7625 0.824951 22.3125 0.824951Z" fill="#161A23"/>
<path d="M7.53752 15.2624L2.55002 20.2874V18.2249C2.55002 17.7749 2.17502 17.3999 1.72502 17.3999C1.27502 17.3999 0.900024 17.7749 0.900024 18.2249V22.3499C0.900024 22.7999 1.27502 23.1749 1.72502 23.1749H5.85002C6.30002 23.1749 6.67502 22.7999 6.67502 22.3499C6.67502 21.8999 6.30002 21.5249 5.85002 21.5249H3.71252L8.73752 16.4999C9.07502 16.1624 9.07502 15.6374 8.73752 15.2999C8.43752 14.9249 7.87502 14.9249 7.53752 15.2624Z" fill="#161A23"/>
<path d="M8.8125 7.6125C8.475 7.275 7.95 7.275 7.6125 7.6125C7.275 7.95 7.275 8.475 7.6125 8.8125L15.225 16.425C15.375 16.575 15.6 16.6875 15.825 16.6875C16.05 16.6875 16.275 16.6125 16.425 16.425C16.7625 16.0875 16.7625 15.5625 16.425 15.225L8.8125 7.6125Z" fill="#161A23"/>
</g>
<defs>
<clipPath id="clip0_501_41661">
<rect width="24" height="24" fill="white"/>
</clipPath>
</defs>
</svg>
