<svg width="24" height="24" viewBox="0 0 24 24" fill="none" xmlns="http://www.w3.org/2000/svg">
<g clip-path="url(#clip0_501_41681)">
<path d="M7.53745 8.73752C7.68745 8.88752 7.91245 9.00002 8.13745 9.00002C8.36245 9.00002 8.58745 8.92502 8.73745 8.73752C9.07495 8.40002 9.07495 7.87502 8.73745 7.53752L3.71245 2.55002H5.77495C6.22495 2.55002 6.59995 2.17502 6.59995 1.72502C6.59995 1.27502 6.22495 0.900024 5.77495 0.900024H1.64995C1.19995 0.900024 0.824951 1.27502 0.824951 1.72502V5.85002C0.824951 6.30002 1.19995 6.67502 1.64995 6.67502C2.09995 6.67502 2.47495 6.30002 2.47495 5.85002V3.71252L7.53745 8.73752Z" fill="#161A23"/>
<path d="M22.3124 17.3625C21.8624 17.3625 21.4874 17.7375 21.4874 18.1875V20.25L16.4624 15.2625C16.1249 14.925 15.5999 14.925 15.2624 15.2625C14.9249 15.6 14.9249 16.125 15.2624 16.4625L20.2874 21.4875H18.2249C17.7749 21.4875 17.3999 21.8625 17.3999 22.3125C17.3999 22.7625 17.7749 23.1375 18.2249 23.1375H22.3499C22.7999 23.1375 23.1749 22.7625 23.1749 22.3125V18.1875C23.1749 17.7375 22.7624 17.3625 22.3124 17.3625Z" fill="#161A23"/>
<path d="M16.3875 7.6125C16.05 7.275 15.525 7.275 15.1875 7.6125L7.6125 15.1875C7.275 15.525 7.275 16.05 7.6125 16.3875C7.7625 16.5375 7.9875 16.65 8.2125 16.65C8.4375 16.65 8.6625 16.575 8.8125 16.3875L16.425 8.775C16.725 8.475 16.725 7.95 16.3875 7.6125Z" fill="#161A23"/>
</g>
<defs>
<clipPath id="clip0_501_41681">
<rect width="24" height="24" fill="white"/>
</clipPath>
</defs>
</svg>
