<svg width="24" height="24" viewBox="0 0 24 24" fill="none" xmlns="http://www.w3.org/2000/svg">
<path d="M18.225 8.77499H17.7C17.25 8.77499 16.8375 9.14999 16.8375 9.63749C16.8375 10.125 17.2125 10.5 17.7 10.5H18.225C18.525 10.5 18.75 10.725 18.75 11.025V15.525H5.25V11.025C5.25 10.725 5.475 10.5 5.775 10.5H6.075C6.525 10.5 6.9375 10.125 6.9375 9.63749C6.9375 9.14999 6.5625 8.77499 6.075 8.77499H5.775C4.575 8.77499 3.5625 9.74999 3.5625 10.9875V18.075C3.5625 19.35 4.575 20.3625 5.85 20.3625H9.825L9.6375 21.6375H8.0625C7.6125 21.6375 7.2 22.0125 7.2 22.5C7.2 22.9875 7.575 23.3625 8.0625 23.3625H15.975C16.425 23.3625 16.8375 22.9875 16.8375 22.5C16.8375 22.0125 16.4625 21.6375 15.975 21.6375H14.4L14.2125 20.3625H18.1875C19.4625 20.3625 20.475 19.35 20.475 18.075V10.9875C20.4375 9.78749 19.4625 8.77499 18.225 8.77499ZM12.675 21.675H11.3625L11.55 20.4H12.4875L12.675 21.675ZM18.15 18.675H5.85C5.5125 18.675 5.25 18.4125 5.25 18.075V17.175H18.75V18.075C18.75 18.4125 18.4875 18.675 18.15 18.675Z" fill="#161A23"/>
<path d="M12.375 12.3C14.8125 12.3 16.7625 10.3125 16.7625 7.91249C16.7625 7.46249 16.3875 7.04999 15.9 7.04999C15.4125 7.04999 15.0375 7.42499 15.0375 7.91249C15.0375 9.41249 13.8375 10.6125 12.3375 10.6125C10.8375 10.6125 9.63755 9.41249 9.63755 7.91249C9.63755 6.41249 10.8375 5.21249 12.3375 5.21249C12.6 5.21249 12.8625 5.24999 13.125 5.32499C13.575 5.47499 14.025 5.21249 14.175 4.76249C14.325 4.31249 14.0625 3.86249 13.6125 3.71249C13.2 3.59999 12.7875 3.52499 12.375 3.52499C9.93755 3.52499 7.98755 5.51249 7.98755 7.91249C7.98755 10.3125 9.93755 12.3 12.375 12.3Z" fill="#161A23"/>
<path d="M12.1876 6.975C11.8501 7.275 11.8126 7.8 12.1126 8.175C12.2626 8.3625 12.5251 8.475 12.7501 8.475C12.9376 8.475 13.1626 8.4 13.3126 8.25L17.6251 4.425H19.6126C20.0626 4.425 20.4751 4.05 20.4751 3.5625C20.4751 3.075 20.1001 2.7 19.6126 2.7H18.1876V1.5C18.1876 1.05 17.8126 0.637497 17.3251 0.637497C16.8376 0.637497 16.5001 1.05 16.5001 1.5V3.15L12.1876 6.975Z" fill="#161A23"/>
</svg>
