<svg width="24" height="24" viewBox="0 0 24 24" fill="none" xmlns="http://www.w3.org/2000/svg">
<path d="M22.3125 9.1875H19.125C18.45 9.1875 17.925 9.75 17.925 10.3875V11.1375H3.41255L6.22505 8.4375C6.56255 8.1 6.56255 7.575 6.22505 7.2375C5.88755 6.9 5.36255 6.9 5.02505 7.2375L0.750049 11.4C0.600049 11.55 0.487549 11.775 0.487549 12C0.487549 12.225 0.562549 12.45 0.750049 12.6L5.02505 16.7625C5.17505 16.9125 5.40005 16.9875 5.62505 16.9875C5.85005 16.9875 6.07505 16.9125 6.22505 16.725C6.56255 16.3875 6.52505 15.8625 6.22505 15.525L3.41255 12.825H17.8876V13.575C17.8876 14.25 18.4501 14.775 19.0875 14.775H22.275C22.9501 14.775 23.475 14.2125 23.475 13.575V10.3875C23.5125 9.75 22.95 9.1875 22.3125 9.1875ZM21.8251 13.125H19.5751V10.875H21.8251V13.125Z" fill="#161A23"/>
</svg>
