<svg width="24" height="24" viewBox="0 0 24 24" fill="none" xmlns="http://www.w3.org/2000/svg">
<path d="M16.1625 23.325C16.05 23.325 15.9375 23.2875 15.7875 23.25C15.4875 23.1 15.3 22.8 15.3 22.5V7.3875C15.3 6.9375 15.675 6.5625 16.125 6.5625C16.575 6.5625 16.95 6.9375 16.95 7.3875V20.7L18.975 18.975C19.35 18.675 19.875 18.7125 20.175 19.0875C20.475 19.4625 20.4375 19.9875 20.0625 20.2875L16.65 23.175C16.575 23.2875 16.3875 23.325 16.1625 23.325Z" fill="#161A23"/>
<path d="M7.83752 17.4375C7.38752 17.4375 7.01252 17.0625 7.01252 16.6125V3.30003L4.98752 5.02503C4.61252 5.32503 4.08752 5.28753 3.78752 4.91253C3.48752 4.53753 3.52502 4.01253 3.90002 3.71253L7.31252 0.825027C7.53752 0.637527 7.87502 0.600027 8.17502 0.750027C8.47502 0.900027 8.66252 1.20003 8.66252 1.50003V16.6125C8.66252 17.0625 8.28752 17.4375 7.83752 17.4375Z" fill="#161A23"/>
</svg>
