<svg width="24" height="24" viewBox="0 0 24 24" fill="none" xmlns="http://www.w3.org/2000/svg">
<path d="M7.16255 7.08752C6.86255 6.71252 6.33755 6.67502 5.96255 6.97502C5.58755 7.27502 5.55005 7.80002 5.85005 8.17502L8.36255 11.175H2.32505V7.80002C2.32505 7.35002 1.95005 6.97502 1.50005 6.97502C1.05005 6.97502 0.675049 7.35002 0.675049 7.80002V16.2375C0.675049 16.6875 1.05005 17.0625 1.50005 17.0625C1.95005 17.0625 2.32505 16.6875 2.32505 16.2375V12.8625H8.36255L5.85005 15.8625C5.55005 16.2375 5.58755 16.7625 5.96255 17.0625C6.11255 17.2125 6.30005 17.25 6.48755 17.25C6.71255 17.25 6.97505 17.1375 7.12505 16.95L10.8 12.5625C11.0625 12.2625 11.0625 11.775 10.8 11.475L7.16255 7.08752Z" fill="#161A23"/>
<path d="M22.5001 6.93755C22.0501 6.93755 21.6751 7.31255 21.6751 7.76255V11.1375H15.6376L18.1501 8.13755C18.4501 7.76255 18.4126 7.23755 18.0376 6.93755C17.6626 6.63755 17.1376 6.67505 16.8376 7.05005L13.1626 11.4375C12.9001 11.7375 12.9001 12.225 13.1626 12.525L16.8376 16.9125C16.9876 17.1 17.2501 17.2125 17.4751 17.2125C17.6626 17.2125 17.8501 17.1375 18.0001 17.025C18.3751 16.725 18.4126 16.2 18.1126 15.825L15.6001 12.825H21.6376V16.2C21.6376 16.65 22.0126 17.025 22.4626 17.025C22.9126 17.025 23.2876 16.65 23.2876 16.2V7.76255C23.3251 7.31255 22.9501 6.93755 22.5001 6.93755Z" fill="#161A23"/>
</svg>
