<svg width="24" height="24" viewBox="0 0 24 24" fill="none" xmlns="http://www.w3.org/2000/svg">
<path d="M11.9999 6.8999C11.5499 6.8999 11.1749 7.2749 11.1749 7.7249V16.2374C11.1749 16.6874 11.5499 17.0624 11.9999 17.0624C12.4499 17.0624 12.8249 16.6874 12.8249 16.2374V7.7249C12.8249 7.2749 12.4499 6.8999 11.9999 6.8999Z" fill="#161A23"/>
<path d="M8.69995 11.1749H3.59995L6.48745 8.36243C6.82495 8.02493 6.82495 7.49993 6.48745 7.16243C6.14995 6.82493 5.62495 6.82493 5.28745 7.16243L0.899951 11.3999C0.749951 11.5499 0.637451 11.7749 0.637451 11.9999C0.637451 12.2249 0.712451 12.4499 0.899951 12.5999L5.32495 16.8749C5.47495 17.0249 5.69995 17.0999 5.92495 17.0999C6.14995 17.0999 6.37495 17.0249 6.52495 16.8374C6.86245 16.4999 6.82495 15.9749 6.48745 15.6374L3.56245 12.8249H8.69995C9.14995 12.8249 9.52495 12.4499 9.52495 11.9999C9.52495 11.5499 9.14995 11.1749 8.69995 11.1749Z" fill="#161A23"/>
<path d="M23.1 11.4L18.675 7.12495C18.3375 6.78745 17.8125 6.78745 17.475 7.12495C17.1375 7.46245 17.1375 7.98745 17.475 8.32495L20.3625 11.1375H15.3C14.85 11.1375 14.475 11.5125 14.475 11.9625C14.475 12.4125 14.85 12.7875 15.3 12.7875H20.4375L17.5125 15.5999C17.175 15.9374 17.175 16.4625 17.475 16.7999C17.625 16.9874 17.85 17.0625 18.075 17.0625C18.3 17.0625 18.4875 16.9875 18.675 16.8375L23.0625 12.6C23.2125 12.45 23.325 12.225 23.325 12C23.325 11.775 23.25 11.5875 23.1 11.4Z" fill="#161A23"/>
</svg>
