<svg width="24" height="24" viewBox="0 0 24 24" fill="none" xmlns="http://www.w3.org/2000/svg">
<path d="M5.62498 19.2375C5.39998 19.2375 5.17498 19.1625 5.02498 18.975C4.68748 18.6375 4.68748 18.1125 5.02498 17.775L16.3875 6.41251H7.31248C6.86248 6.41251 6.48748 6.03751 6.48748 5.58751C6.48748 5.13751 6.86248 4.76251 7.31248 4.76251H18.375C18.825 4.76251 19.2 5.13751 19.2 5.58751V16.725C19.2 17.175 18.825 17.55 18.375 17.55C17.925 17.55 17.55 17.175 17.55 16.725V7.68751L6.22498 19.0125C6.07498 19.1625 5.84998 19.2375 5.62498 19.2375Z" fill="#161A23"/>
</svg>
