<svg width="24" height="24" viewBox="0 0 24 24" fill="none" xmlns="http://www.w3.org/2000/svg">
<path d="M15.3 18.075L12.8625 20.475V3.48748L15.3 5.88748C15.45 6.03748 15.675 6.11248 15.9 6.11248C16.125 6.11248 16.35 6.03748 16.5 5.84998C16.8375 5.51248 16.8375 4.98748 16.5 4.64998L12.6 0.899976C12.2625 0.562476 11.7375 0.562476 11.4 0.899976L7.53755 4.72498C7.20005 5.06248 7.20005 5.58748 7.53755 5.92498C7.87505 6.26248 8.40005 6.26248 8.73755 5.92498L11.175 3.52498V20.475L8.73755 18.075C8.40005 17.7375 7.87505 17.7375 7.53755 18.075C7.20005 18.4125 7.20005 18.9375 7.53755 19.275L11.4 23.1C11.55 23.25 11.775 23.325 12 23.325C12.225 23.325 12.4125 23.25 12.6 23.1L16.4625 19.275C16.8 18.9375 16.8 18.4125 16.4625 18.075C16.1625 17.775 15.6 17.775 15.3 18.075Z" fill="#161A23"/>
</svg>
