<svg width="24" height="24" viewBox="0 0 24 24" fill="none" xmlns="http://www.w3.org/2000/svg">
<path d="M20.475 12.675C20.1375 12.3375 19.6125 12.3375 19.275 12.675L12.8625 18.975V2.99999C12.8625 2.54999 12.4875 2.17499 12.0375 2.17499C11.5875 2.17499 11.2125 2.54999 11.2125 2.99999V19.0125L4.72498 12.6375C4.38748 12.3 3.86248 12.3 3.52498 12.6375C3.18748 12.975 3.18748 13.5 3.52498 13.8375L11.4 21.6C11.55 21.75 11.775 21.825 12 21.825C12.225 21.825 12.4125 21.75 12.6 21.6L20.475 13.8375C20.8125 13.5375 20.8125 12.975 20.475 12.675Z" fill="#161A23"/>
</svg>
