<svg width="24" height="24" viewBox="0 0 24 24" fill="none" xmlns="http://www.w3.org/2000/svg">
<path d="M16.7625 17.7751C16.425 17.4376 15.9 17.4751 15.5625 17.7751L12.8625 20.5876V6.11255H13.6125C14.2875 6.11255 14.8125 5.55005 14.8125 4.91255V1.68755C14.8125 1.01255 14.25 0.487549 13.6125 0.487549H10.425C9.74998 0.487549 9.22498 1.05005 9.22498 1.68755V4.87505C9.22498 5.55005 9.78748 6.07505 10.425 6.07505H11.175V20.5501L8.47498 17.7376C8.13748 17.4001 7.61248 17.4001 7.27498 17.7376C6.93748 18.0751 6.93748 18.6 7.27498 18.9376L11.4 23.2501C11.55 23.4001 11.775 23.5126 12 23.5126C12.225 23.5126 12.45 23.4376 12.6 23.2501L16.7625 18.975C17.1 18.6376 17.1 18.1126 16.7625 17.7751ZM10.875 2.17505H13.125V4.42505H10.875V2.17505Z" fill="#161A23"/>
</svg>
