<svg width="24" height="24" viewBox="0 0 24 24" fill="none" xmlns="http://www.w3.org/2000/svg">
<g clip-path="url(#clip0_914_44836)">
<path d="M7.23772 11.1376C6.86272 10.7626 6.33772 10.7626 6.11272 11.2501L0.450243 22.6126C0.225241 23.0251 0.562743 23.6251 1.08774 23.6251H9.00023C9.26272 23.6251 9.52522 23.4751 9.63772 23.2501C11.3252 19.6876 10.2752 14.3251 7.23772 11.1376ZM11.4377 0.750146C5.96272 9.52515 11.0627 16.5376 14.4002 23.2501C14.5127 23.4751 14.7752 23.6251 15.0377 23.6251H22.9502C23.4752 23.6251 23.8127 23.1001 23.5877 22.6126C23.5877 22.6126 12.9752 1.27515 12.7127 0.750146C12.3752 0.262647 11.7377 0.262647 11.4377 0.750146Z" fill="#15171A"/>
</g>
<defs>
<clipPath id="clip0_914_44836">
<rect width="24" height="24" fill="white"/>
</clipPath>
</defs>
</svg>
