<svg width="24" height="24" viewBox="0 0 24 24" fill="none" xmlns="http://www.w3.org/2000/svg">
<path d="M21.4874 4.6499H18.4874C16.875 2.3999 14.325 1.0874 11.55 1.0874C8.77495 1.0874 6.18745 2.3999 4.61245 4.6499H2.51245C1.27495 4.6499 0.262451 5.6624 0.262451 6.8999V15.0749C0.262451 16.3124 1.27495 17.3249 2.51245 17.3249H6.11245C8.32495 20.1374 10.95 22.0124 11.0625 22.0874C11.2125 22.1999 11.3625 22.2374 11.55 22.2374C11.7375 22.2374 11.8875 22.1999 12.0375 22.0874C12.15 22.0124 14.7375 20.1374 16.9874 17.3249H21.525C22.7625 17.3249 23.775 16.3124 23.775 15.0749V6.8624C23.7 5.6249 22.725 4.6499 21.4874 4.6499ZM11.55 2.7374C13.35 2.7374 15 3.4124 16.275 4.6124H6.82495C8.06245 3.4499 9.74995 2.7374 11.55 2.7374ZM11.55 20.2874C10.875 19.7624 9.59995 18.6749 8.32495 17.2874H14.775C13.5 18.6749 12.225 19.7624 11.55 20.2874ZM22.0499 15.0374C22.0499 15.3374 21.7875 15.5999 21.4874 15.5999H2.51245C2.21245 15.5999 1.94995 15.3374 1.94995 15.0374V6.8624C1.94995 6.5624 2.21245 6.2999 2.51245 6.2999H5.02495H18H21.4125C21.7125 6.2999 21.975 6.5624 21.975 6.8624V15.0374H22.0499Z" fill="#161A23"/>
<path d="M6.78745 7.7998H4.27495C3.82495 7.7998 3.44995 8.1748 3.44995 8.6248V13.5373C3.44995 13.9873 3.82495 14.3623 4.27495 14.3623C4.72495 14.3623 5.09995 13.9873 5.09995 13.5373V11.6623H5.92495V13.5373C5.92495 13.9873 6.29995 14.3623 6.74995 14.3623C7.19995 14.3623 7.57495 13.9873 7.57495 13.5373V8.6248C7.61245 8.1748 7.23745 7.7998 6.78745 7.7998ZM5.09995 9.4873H5.92495V9.97481H5.09995V9.4873Z" fill="#161A23"/>
<path d="M20.0249 7.83749C19.6874 7.72499 19.3124 7.79999 19.0874 8.06249L17.5124 9.82499L15.9374 8.06249C15.7124 7.79999 15.3374 7.72499 14.9999 7.83749C14.6624 7.94999 14.4749 8.28749 14.4749 8.62499V13.5375C14.4749 13.9875 14.8499 14.3625 15.2999 14.3625C15.7499 14.3625 16.1249 13.9875 16.1249 13.5375V10.8375L16.8749 11.6625C17.0249 11.85 17.2499 11.925 17.5124 11.925C17.7374 11.925 17.9624 11.8125 18.1499 11.6625L18.8999 10.8375V13.5375C18.8999 13.9875 19.2749 14.3625 19.7249 14.3625C20.1749 14.3625 20.5499 13.9875 20.5499 13.5375V8.62499C20.5874 8.28749 20.3624 7.98749 20.0249 7.83749Z" fill="#161A23"/>
<path d="M13.0124 7.7998H9.29985C8.84985 7.7998 8.47485 8.1748 8.47485 8.6248C8.47485 9.07481 8.84985 9.44981 9.29985 9.44981H10.3124V13.4998C10.3124 13.9498 10.6874 14.3248 11.1374 14.3248C11.5874 14.3248 11.9624 13.9498 11.9624 13.4998V9.4873H12.9749C13.4249 9.4873 13.7999 9.11231 13.7999 8.66231C13.7999 8.21231 13.4624 7.7998 13.0124 7.7998Z" fill="#161A23"/>
</svg>
