<svg width="24" height="24" viewBox="0 0 24 24" fill="none" xmlns="http://www.w3.org/2000/svg">
<path d="M21.3751 1.0874H2.62505C1.53755 1.0874 0.675049 1.9874 0.675049 3.0374V20.9249C0.675049 22.0124 1.57505 22.8749 2.62505 22.8749H21.3751C22.4626 22.8749 23.3251 21.9749 23.3251 20.9249V3.0749C23.3251 1.9874 22.4626 1.0874 21.3751 1.0874ZM2.32505 20.9249V3.0749C2.32505 2.9249 2.43755 2.7749 2.62505 2.7749H15.4125V21.2249H2.62505C2.47505 21.2249 2.32505 21.1124 2.32505 20.9249ZM21.6751 20.9249C21.6751 21.0749 21.5626 21.2249 21.3751 21.2249H17.1V2.7749H21.3751C21.5251 2.7749 21.6751 2.8874 21.6751 3.0749V20.9249Z" fill="#161A23"/>
<path d="M12.0375 4.16235H5.96245C4.87495 4.16235 4.01245 5.06235 4.01245 6.11235V12.1874C4.01245 13.2749 4.91245 14.1374 5.96245 14.1374H12.0375C13.125 14.1374 13.9875 13.2374 13.9875 12.1874V6.11235C13.9875 5.02485 13.125 4.16235 12.0375 4.16235ZM12.3 12.1874C12.3 12.3374 12.1875 12.4874 12 12.4874H5.96245C5.81245 12.4874 5.66245 12.3749 5.66245 12.1874V6.11235C5.66245 5.96235 5.77495 5.81235 5.96245 5.81235H12.0375C12.1875 5.81235 12.3375 5.92485 12.3375 6.11235V12.1874H12.3Z" fill="#161A23"/>
<path d="M5.62495 15.2625H4.83745C4.38745 15.2625 4.01245 15.6375 4.01245 16.0875C4.01245 16.5375 4.38745 16.9125 4.83745 16.9125H5.62495C6.07495 16.9125 6.44995 16.5375 6.44995 16.0875C6.44995 15.6375 6.07495 15.2625 5.62495 15.2625Z" fill="#161A23"/>
<path d="M9.37505 15.2625H8.62505C8.17505 15.2625 7.80005 15.6375 7.80005 16.0875C7.80005 16.5375 8.17505 16.9125 8.62505 16.9125H9.37505C9.82505 16.9125 10.2 16.5375 10.2 16.0875C10.2 15.6375 9.86255 15.2625 9.37505 15.2625Z" fill="#161A23"/>
<path d="M5.62495 18.2625H4.83745C4.38745 18.2625 4.01245 18.6375 4.01245 19.0875C4.01245 19.5375 4.38745 19.9125 4.83745 19.9125H5.62495C6.07495 19.9125 6.44995 19.5375 6.44995 19.0875C6.44995 18.6375 6.07495 18.2625 5.62495 18.2625Z" fill="#161A23"/>
<path d="M9.37505 18.2625H8.62505C8.17505 18.2625 7.80005 18.6375 7.80005 19.0875C7.80005 19.5375 8.17505 19.9125 8.62505 19.9125H9.37505C9.82505 19.9125 10.2 19.5375 10.2 19.0875C10.2 18.6375 9.86255 18.2625 9.37505 18.2625Z" fill="#161A23"/>
<path d="M13.125 15.2625H12.3375C11.8875 15.2625 11.5125 15.6375 11.5125 16.0875C11.5125 16.5375 11.8875 16.9125 12.3375 16.9125H13.125C13.575 16.9125 13.95 16.5375 13.95 16.0875C13.95 15.6375 13.575 15.2625 13.125 15.2625Z" fill="#161A23"/>
<path d="M13.125 18.2625H12.3375C11.8875 18.2625 11.5125 18.6375 11.5125 19.0875C11.5125 19.5375 11.8875 19.9125 12.3375 19.9125H13.125C13.575 19.9125 13.95 19.5375 13.95 19.0875C13.95 18.6375 13.575 18.2625 13.125 18.2625Z" fill="#161A23"/>
</svg>
