<svg width="24" height="24" viewBox="0 0 24 24" fill="none" xmlns="http://www.w3.org/2000/svg">
<path d="M21.15 4.98755H2.85005C1.65005 4.98755 0.675049 5.96255 0.675049 7.16255V16.8375C0.675049 18.0375 1.65005 19.0125 2.85005 19.0125H21.1875C22.3875 19.0125 23.3625 18.0375 23.3625 16.8375V7.16255C23.325 5.96255 22.35 4.98755 21.15 4.98755ZM21.675 16.8375C21.675 17.1 21.45 17.325 21.1875 17.325H2.85005C2.58755 17.325 2.36255 17.1 2.36255 16.8375V7.16255C2.36255 6.90005 2.58755 6.67505 2.85005 6.67505H21.1875C21.45 6.67505 21.675 6.90005 21.675 7.16255V16.8375Z" fill="#161A23"/>
<path d="M7.2376 8.92505H4.8001C4.3501 8.92505 3.9751 9.30005 3.9751 9.75005V14.475C3.9751 14.925 4.3501 15.3 4.8001 15.3C5.2501 15.3 5.6251 14.925 5.6251 14.475V12.675H6.3751V14.475C6.3751 14.925 6.7501 15.3 7.2001 15.3C7.6501 15.3 8.0251 14.925 8.0251 14.475V9.78755C8.1001 9.30005 7.7251 8.92505 7.2376 8.92505ZM5.6626 10.6125H6.4126V11.025H5.6626V10.6125Z" fill="#161A23"/>
<path d="M20.0626 8.99999C19.7251 8.88749 19.3501 8.96249 19.1251 9.22499L17.6251 10.875L16.1251 9.18749C15.9001 8.92499 15.5251 8.84999 15.1876 8.96249C14.8501 9.07499 14.6626 9.41249 14.6626 9.74999V14.475C14.6626 14.925 15.0376 15.3 15.4876 15.3C15.9376 15.3 16.3126 14.925 16.3126 14.475V11.925L16.9876 12.675C17.1376 12.8625 17.3626 12.9375 17.6251 12.9375C17.8501 12.9375 18.0751 12.825 18.2626 12.675L18.9376 11.925V14.475C18.9376 14.925 19.3126 15.3 19.7626 15.3C20.2126 15.3 20.5876 14.925 20.5876 14.475V9.78749C20.5876 9.41249 20.4001 9.11249 20.0626 8.99999Z" fill="#161A23"/>
<path d="M13.2375 8.92505H9.6375C9.1875 8.92505 8.8125 9.30005 8.8125 9.75005C8.8125 10.2 9.1875 10.575 9.6375 10.575H10.575V14.475C10.575 14.925 10.95 15.3 11.4 15.3C11.85 15.3 12.2625 14.925 12.2625 14.475V10.6125H13.2C13.65 10.6125 14.025 10.2375 14.025 9.78755C14.025 9.33755 13.725 8.92505 13.2375 8.92505Z" fill="#161A23"/>
</svg>
