<svg width="24" height="24" viewBox="0 0 24 24" fill="none" xmlns="http://www.w3.org/2000/svg">
<g clip-path="url(#clip0_501_45454)">
<path d="M21.825 12C22.275 11.1 22.65 10.2 22.875 9.29998C23.7375 6.29998 23.3625 3.78748 21.7875 2.21248C19.65 0.0749813 15.9 0.187481 12 2.17498C11.1 1.72498 10.2 1.34998 9.3375 1.12498C6.3375 0.262481 3.825 0.637481 2.25 2.21248C0.674998 3.78748 0.262498 6.29998 1.1625 9.29998C1.425 10.2 1.7625 11.1 2.2125 11.9625C0.187498 15.9 0.0749982 19.65 2.2125 21.7875C3.225 22.8 4.6875 23.325 6.375 23.325C7.275 23.325 8.2875 23.175 9.3 22.875C10.2 22.6125 11.1 22.275 12 21.825C12.9 22.275 13.8 22.65 14.7 22.875C15.75 23.175 16.725 23.325 17.625 23.325C19.3125 23.325 20.775 22.8 21.7875 21.7875C23.3625 20.2125 23.775 17.7 22.875 14.7C22.65 13.8 22.275 12.9 21.825 12ZM15.15 2.73748C16.05 2.47498 16.875 2.36248 17.625 2.36248C18.8625 2.36248 19.875 2.73748 20.5875 3.41248C21.7125 4.53748 21.9375 6.48748 21.2625 8.84998C21.15 9.29998 20.9625 9.74998 20.775 10.2C19.9125 8.84998 18.8625 7.53748 17.625 6.33748C16.425 5.13748 15.1125 4.04998 13.7625 3.18748C14.25 2.99998 14.7 2.84998 15.15 2.73748ZM19.9125 12C19.05 13.5375 17.8875 15.075 16.4625 16.4625C15.0375 17.85 13.5375 19.05 12 19.9125C10.4625 19.05 8.925 17.8875 7.5375 16.4625C6.15 15.075 4.95 13.5375 4.0875 12C4.95 10.4625 6.1125 8.92498 7.5375 7.53748C8.925 6.14998 10.4625 4.94998 12 4.08748C13.5375 4.94998 15.075 6.11248 16.4625 7.53748C17.8875 8.92498 19.05 10.4625 19.9125 12ZM2.7375 8.84998C2.025 6.44998 2.2875 4.53748 3.4125 3.41248C4.125 2.69998 5.1375 2.36248 6.375 2.36248C7.125 2.36248 7.95 2.47498 8.85 2.73748C9.3 2.84998 9.75 2.99998 10.2 3.18748C8.8875 4.04998 7.575 5.09998 6.3375 6.33748C5.1 7.57498 4.05 8.88748 3.1875 10.2C3 9.74998 2.85 9.29998 2.7375 8.84998ZM8.85 21.2625C6.45 21.9375 4.5375 21.7125 3.4125 20.5875C2.2875 19.4625 2.0625 17.5125 2.7375 15.15C2.85 14.7 3 14.25 3.1875 13.8C4.05 15.15 5.1 16.4625 6.3375 17.6625C7.5375 18.8625 8.85 19.95 10.2 20.8125C9.75 21 9.3 21.15 8.85 21.2625ZM20.5875 20.5875C19.4625 21.7125 17.5125 21.9375 15.15 21.2625C14.7 21.15 14.25 20.9625 13.8 20.775C15.15 19.9125 16.4625 18.8625 17.6625 17.625C18.8625 16.3875 19.95 15.1125 20.8125 13.7625C21 14.2125 21.15 14.6625 21.3 15.1125C21.975 17.55 21.7125 19.4625 20.5875 20.5875Z" fill="#161A23"/>
<path d="M12 9.03748C10.35 9.03748 9.03751 10.3875 9.03751 12C9.03751 13.6125 10.3875 14.9625 12 14.9625C13.6125 14.9625 14.9625 13.6125 14.9625 12C14.9625 10.3875 13.65 9.03748 12 9.03748ZM12 13.275C11.2875 13.275 10.725 12.7125 10.725 12C10.725 11.2875 11.2875 10.725 12 10.725C12.7125 10.725 13.275 11.2875 13.275 12C13.275 12.7125 12.7125 13.275 12 13.275Z" fill="#161A23"/>
</g>
<defs>
<clipPath id="clip0_501_45454">
<rect width="24" height="24" fill="white"/>
</clipPath>
</defs>
</svg>
