<svg width="24" height="24" viewBox="0 0 24 24" fill="none" xmlns="http://www.w3.org/2000/svg">
<path fill-rule="evenodd" clip-rule="evenodd" d="M19.9653 19.1547V16.0682H18.6915V19.1547H19.9653ZM13.2215 17.8731V16.1148H11.9868V17.4589C11.9868 17.8496 11.9712 17.9591 11.9478 18.0607C11.8618 18.3421 11.5648 18.4668 11.2602 18.4668C10.8383 18.4668 10.6429 18.3028 10.5647 18.045C10.5413 17.9592 10.5335 17.8655 10.5257 17.7717C10.5179 17.67 10.5257 17.5605 10.5257 17.4436V16.115H9.2754V17.8811C9.2754 18.2798 9.40834 18.5766 9.62704 18.7797C10.0021 19.1471 10.6351 19.2565 11.2211 19.2565C11.9322 19.2565 12.4792 19.1549 12.8699 18.7721C13.0732 18.5765 13.2215 18.3187 13.2215 17.8731ZM7.1577 17.6543C7.09579 17.6436 7.03305 17.6384 6.97024 17.6388H5.56372C5.49334 17.6388 5.41515 17.6466 5.37611 17.6543C5.39955 17.6308 5.4465 17.5841 5.49334 17.5215L6.12622 16.4743C6.21221 16.3338 6.25125 16.24 6.26685 16.201C6.28245 16.24 6.32149 16.3338 6.40747 16.4823L7.05608 17.5374C7.08743 17.5841 7.13426 17.6308 7.1577 17.6543ZM9.51761 19.1547L6.70447 14.9352H5.1261L5.54017 15.4275C5.54798 15.4353 5.56372 15.443 5.57917 15.451C5.56357 15.4588 5.54798 15.4665 5.54017 15.4743L3.08657 19.1547H4.5087L4.89169 18.5217C4.90729 18.4905 4.91509 18.4592 4.91509 18.4437C4.93069 18.4437 4.96988 18.4592 5.00887 18.4592H7.54849C7.58749 18.4592 7.61872 18.4514 7.63433 18.4437C7.6329 18.4657 7.63837 18.4875 7.64992 18.5063L8.04855 19.1547H9.51761ZM18.3478 17.5686C18.3478 17.2247 18.207 16.826 17.7695 16.2712L16.7145 14.9351H15.2454L16.0815 15.8727C16.2223 16.0291 16.4019 16.1696 16.4019 16.1696C16.1988 16.0523 15.941 16.0056 15.7378 16.0056C15.2533 16.0056 14.7609 16.1072 14.3235 16.3495C13.8545 16.6071 13.5419 17.037 13.5419 17.6076C13.5419 18.0451 13.7373 18.3813 13.9873 18.6391C14.5501 19.2016 15.5735 19.2564 15.9487 19.2564C16.5034 19.2564 17.3708 19.1313 17.8633 18.6859C18.1525 18.4202 18.3478 18.053 18.3478 17.5686ZM17.1287 17.6076C17.1287 17.928 16.9176 18.1701 16.652 18.3029C16.4331 18.4203 16.1752 18.4515 15.9487 18.4515C15.7222 18.4515 15.4565 18.4046 15.2376 18.2951C14.972 18.1623 14.7687 17.9045 14.7687 17.6231C14.7687 17.2872 15.0265 17.0213 15.3314 16.8885C15.519 16.8027 15.7456 16.7714 15.9251 16.7714C16.0972 16.7714 16.3473 16.7947 16.5427 16.873C16.8944 17.0213 17.1287 17.3027 17.1287 17.6076ZM19.5606 4.87501C18.6457 4.87354 17.7573 5.18221 17.0403 5.75063C16.3234 5.18217 15.435 4.87351 14.5201 4.87501C13.6052 4.87358 12.7169 5.18224 11.9999 5.75063C11.2831 5.18213 10.3947 4.87347 9.47977 4.87501C8.56493 4.87358 7.67655 5.18224 6.95966 5.75063C6.24277 5.18224 5.3544 4.87358 4.43951 4.87501C2.1944 4.87501 0.375 6.69428 0.375 8.93952C0.375 11.1845 2.19426 13.004 4.43951 13.004C5.3544 13.0054 6.24274 12.6968 6.95966 12.1284C7.67655 12.6968 8.56493 13.0055 9.47977 13.004C10.3947 13.0056 11.2831 12.6969 11.9999 12.1284C12.7169 12.6968 13.6052 13.0055 14.5201 13.004C15.435 13.0055 16.3234 12.6969 17.0403 12.1284C17.7573 12.6969 18.6457 13.0055 19.5606 13.004C21.8057 13.004 23.625 11.1846 23.625 8.93952C23.625 6.69439 21.8057 4.87501 19.5606 4.87501ZM6.29464 11.4644C5.77669 11.8422 5.12966 12.0728 4.43951 12.0728C2.70755 12.0728 1.30607 10.6715 1.30607 8.93952C1.30607 7.20758 2.70755 5.80609 4.43951 5.80609C5.12966 5.80609 5.77631 6.03679 6.29464 6.41476C5.72355 7.13221 5.4135 8.02253 5.41541 8.93952C5.41586 9.85613 5.72565 10.7458 6.29464 11.4644ZM6.95977 10.8012C6.56036 10.2629 6.3453 9.60991 6.34661 8.93952C6.34492 8.26906 6.56003 7.61603 6.95977 7.07779C7.35949 7.61607 7.57455 8.26909 7.57294 8.93952C7.57421 9.60991 7.35919 10.2628 6.95977 10.8012ZM11.3351 11.4644C10.7969 11.8606 10.1459 12.0735 9.47767 12.0719C8.81085 12.0732 8.16128 11.8603 7.62469 11.4644C8.19371 10.7459 8.5035 9.85624 8.50387 8.93967C8.50579 8.02268 8.19574 7.13232 7.62469 6.41487C8.1612 6.01891 8.81085 5.80587 9.47767 5.80726C10.1728 5.80726 10.8152 6.03214 11.3351 6.41487C10.764 7.13232 10.4539 8.02268 10.4558 8.93967C10.4562 9.85624 10.766 10.7459 11.3351 11.4644ZM11.9999 10.8012C11.6005 10.2629 11.3855 9.60991 11.3868 8.93952C11.3851 8.26906 11.6002 7.61607 11.9999 7.07779C12.3997 7.61603 12.6149 8.26906 12.6132 8.93952C12.6145 9.60994 12.3994 10.2629 11.9999 10.8012ZM16.3753 11.4644C15.8554 11.8473 15.2132 12.0719 14.5181 12.0719C13.823 12.0719 13.1849 11.8469 12.665 11.4644C13.2341 10.7459 13.5439 9.85624 13.5442 8.93967C13.5461 8.02268 13.236 7.13232 12.665 6.41487C13.1849 6.03229 13.823 5.80726 14.5181 5.80726C15.2132 5.80726 15.8554 6.03214 16.3753 6.41487C15.8043 7.13236 15.4943 8.02268 15.4961 8.93967C15.4966 9.85624 15.8064 10.7458 16.3753 11.4644ZM17.0405 10.8012C16.641 10.2629 16.426 9.60991 16.4273 8.93952C16.4256 8.26906 16.6407 7.61599 17.0405 7.07779C17.4402 7.61607 17.6553 8.26909 17.6537 8.93952C17.6549 9.60991 17.4398 10.2628 17.0405 10.8012ZM19.5606 12.0728C18.8702 12.0728 18.2233 11.8422 17.7055 11.4644C18.2745 10.7458 18.5843 9.85624 18.5847 8.93967C18.5865 8.02268 18.2765 7.13236 17.7055 6.41487C18.2238 6.03706 18.8703 5.80621 19.5606 5.80621C21.2923 5.80621 22.6941 7.20769 22.6941 8.93967C22.6941 10.6713 21.2923 12.0728 19.5606 12.0728Z" fill="#15171A"/>
</svg>
