<svg width="24" height="24" viewBox="0 0 24 24" fill="none" xmlns="http://www.w3.org/2000/svg">
<g clip-path="url(#clip0_501_47781)">
<path d="M22.7625 14.2875L20.6625 13.125C20.7375 12.7125 20.775 12.3 20.775 11.8875C20.775 11.4375 20.7375 11.025 20.7 10.6125L22.8375 9.41245C23.325 9.14995 23.5125 8.54995 23.2875 8.02495C23.2875 7.98745 23.25 7.94995 23.25 7.91245L21.15 4.34995C20.8875 3.89995 20.2875 3.71245 19.8 3.89995C19.7625 3.89995 19.725 3.93745 19.6875 3.93745L17.5125 5.13745C17.4 5.06245 17.2875 4.94995 17.2125 4.87495C16.8 4.53745 16.425 4.19995 15.825 3.89995C15.7875 3.89995 15.75 3.86245 15.75 3.78745V2.43745C15.75 1.46245 14.9625 0.637451 13.95 0.637451H10.0875C9.11248 0.637451 8.28748 1.46245 8.28748 2.43745V3.89995C8.28748 3.93745 8.24998 3.97495 8.21248 4.01245C7.64998 4.27495 7.23748 4.64995 6.78748 4.98745C6.71248 5.06245 6.59998 5.13745 6.52498 5.21245L4.53748 4.08745C3.78748 3.67495 3.14998 3.93745 2.88748 4.38745L0.824983 7.94995C0.712483 8.24995 0.674983 8.54995 0.749983 8.84995C0.824983 9.14995 1.01248 9.37495 1.27498 9.52495L3.37498 10.65C3.29998 11.025 3.29998 11.4375 3.29998 11.925C3.29998 12.3375 3.33748 12.75 3.37498 13.1625L1.19998 14.3625C0.712483 14.625 0.524983 15.225 0.749983 15.75C0.749983 15.7875 0.787483 15.825 0.787483 15.8625L2.88748 19.4249C3.18748 19.875 3.74998 20.0625 4.27498 19.875C4.31248 19.875 4.34998 19.8375 4.38748 19.8375L6.56248 18.6375C6.67498 18.7125 6.74998 18.7875 6.86248 18.9C7.27498 19.275 7.68748 19.6125 8.28748 19.875C8.32498 19.875 8.36248 19.9125 8.36248 19.9874V21.6C8.36248 22.575 9.14998 23.4 10.1625 23.4H13.9875C14.9625 23.4 15.7875 22.575 15.7875 21.6V19.875C15.7875 19.8375 15.825 19.8 15.8625 19.7625C16.425 19.5 16.8 19.1625 17.25 18.7875C17.3625 18.7125 17.4375 18.6375 17.55 18.525L19.5375 19.65C20.2875 20.0625 20.8875 19.7999 21.1875 19.35L23.2875 15.7875C23.4375 15.525 23.475 15.225 23.4 14.9625C23.2125 14.7 23.025 14.4375 22.7625 14.2875ZM19.9125 18L18.1125 16.9874C17.5875 16.6875 16.9875 16.7625 16.5375 17.1375C16.35 17.2875 16.2 17.4 16.05 17.5499C15.675 17.8875 15.4125 18.1125 15.0375 18.2625C14.4375 18.5625 14.025 19.2 14.025 19.875V21.525C14.025 21.6 13.9875 21.6375 13.9125 21.6375H10.0875C10.0125 21.6375 9.97498 21.6 9.97498 21.525V19.9125C9.97498 19.2374 9.56248 18.6 8.96248 18.2999C8.58748 18.1124 8.28748 17.8875 7.91248 17.5499C7.76248 17.4375 7.61248 17.2875 7.42498 17.1749C7.16248 16.9874 6.86248 16.875 6.52498 16.875C6.29998 16.875 6.03748 16.95 5.81248 17.0625L4.01248 18.075L2.51248 15.525L4.27498 14.55C4.79998 14.25 5.09998 13.6875 5.02498 13.05C4.98748 12.675 4.94998 12.3 4.94998 11.925C4.94998 11.5125 4.98748 11.1375 5.02498 10.8375C5.13748 10.2 4.83748 9.56245 4.27498 9.26245L2.62498 8.32495L4.08748 5.81245L5.88748 6.82495C6.41248 7.12495 7.01248 7.04995 7.46248 6.67495C7.61248 6.56245 7.76248 6.41245 7.91248 6.29995C8.28748 5.96245 8.58748 5.73745 8.96248 5.54995C9.59998 5.24995 9.97498 4.61245 9.97498 3.93745V2.47495C9.97498 2.39995 10.0125 2.36245 10.0875 2.36245H13.9125C13.9875 2.36245 14.025 2.39995 14.025 2.47495V3.89995C14.025 4.57495 14.4375 5.21245 15.0375 5.51245C15.4125 5.69995 15.675 5.92495 16.05 6.22495C16.2 6.37495 16.35 6.48745 16.5375 6.63745C16.9875 7.01245 17.625 7.04995 18.1125 6.74995L19.9125 5.73745L21.4125 8.28745L19.6875 9.26245C19.1625 9.56245 18.8625 10.2 18.975 10.8375C19.0125 11.175 19.05 11.55 19.05 11.925C19.05 12.3 19.0125 12.675 18.9375 13.05C18.825 13.6875 19.125 14.2875 19.6875 14.5875L21.375 15.525L19.9125 18Z" fill="#161A23"/>
<path d="M15.825 11.2875L11.1375 8.10005C10.875 7.91255 10.5375 7.91255 10.275 8.06255C10.0125 8.21255 9.82501 8.51255 9.82501 8.81255V15.1875C9.82501 15.4875 10.0125 15.7875 10.275 15.9375C10.3875 16.0125 10.5375 16.05 10.6875 16.05C10.8375 16.05 11.025 16.0125 11.175 15.9L15.8625 12.7125C16.0875 12.5625 16.2375 12.3 16.2375 12C16.2375 11.7 16.05 11.475 15.825 11.2875ZM11.5125 13.575V10.3875L13.8375 11.9625L11.5125 13.575Z" fill="#161A23"/>
</g>
<defs>
<clipPath id="clip0_501_47781">
<rect width="24" height="24" fill="white"/>
</clipPath>
</defs>
</svg>
