<svg width="24" height="24" viewBox="0 0 24 24" fill="none" xmlns="http://www.w3.org/2000/svg">
<path d="M6.93795 10.0875C6.93795 10.9125 7.35045 11.2875 7.35045 11.5125C7.35045 11.625 7.31295 11.6625 7.20045 11.7375L6.71295 12.0375C6.67545 12.075 6.56295 12.075 6.48795 12.075C6.48795 12.075 6.18795 12.1125 5.73795 11.1375C5.21295 11.8125 4.35045 12.2625 3.48794 12.1875C2.92544 12.225 1.31294 11.8875 1.38794 10.125C1.35044 8.73753 2.58794 7.87503 3.97545 7.95003C4.23795 7.95003 4.76295 7.95003 5.66295 8.17503V7.61253C5.77545 6.67503 5.13795 5.92503 4.01295 6.03753C3.97545 6.03753 3.33794 6.03753 2.32544 6.41253C2.06294 6.56253 2.06294 6.56253 1.95044 6.56253C1.68794 6.56253 1.80044 5.81253 1.83794 5.66253C1.98794 5.43753 3.15044 5.02503 4.20045 5.02503C4.95045 4.98753 5.66295 5.17503 6.26295 5.66253C6.75045 6.18753 6.93795 6.86253 6.90045 7.57503L6.93795 10.0875ZM3.75045 11.25C4.91295 11.25 5.43795 10.5 5.55045 10.125C5.58795 9.75003 5.58795 9.56253 5.58795 9.11253C5.21295 9.07503 4.68795 8.96253 4.12545 8.96253C3.60044 8.92503 2.55044 9.18753 2.58794 10.125C2.66294 10.8 3.07544 11.2875 3.75045 11.25ZM9.97545 12.075C9.67545 12.1125 9.56295 11.925 9.48795 11.7L7.68795 5.73753C7.65045 5.62503 7.65045 5.51253 7.65045 5.43753C7.65045 5.32503 7.68795 5.28753 7.80045 5.28753C7.80045 5.28753 7.76295 5.28753 8.58795 5.28753C8.88795 5.25003 9.00045 5.51253 9.07545 5.66253L10.3879 10.7625L11.6254 5.66253C11.6629 5.55003 11.7379 5.25003 12.1129 5.28753H12.7505C12.788 5.28753 13.163 5.28753 13.238 5.66253L14.438 10.8375L15.7505 5.66253C15.7505 5.62503 15.863 5.25003 16.238 5.28753H16.9879C17.0254 5.28753 17.2129 5.25003 17.1379 5.58753C17.1379 5.62503 17.2505 5.17503 15.2255 11.7375C15.188 11.9625 15.0754 12.15 14.738 12.1125H14.063C13.6505 12.15 13.5754 11.7375 13.5754 11.7L12.2629 6.75003L11.0629 11.7C11.0629 11.7375 11.0254 12.1125 10.5754 12.1125H10.0129V12.075H9.97545ZM19.8755 12.3C19.6504 12.3 18.6755 12.3 17.813 11.8875C17.663 11.85 17.5129 11.625 17.5129 11.475V11.0625C17.5129 10.7625 17.738 10.8 17.813 10.8375C18.188 10.9875 18.3755 11.1 18.8629 11.2125C20.1754 11.5125 20.7754 11.175 20.9254 11.0625C21.413 10.7625 21.4504 10.125 21.0754 9.78753C20.7004 9.48753 20.5504 9.48753 19.163 9.03753C19.0504 8.96253 17.6255 8.51253 17.6255 7.12503C17.5879 6.11253 18.5254 5.06253 20.1379 5.06253C20.6255 5.06253 21.8254 5.21253 22.2004 5.62503C22.2379 5.66253 22.2379 5.77503 22.2379 5.88753V6.26253C22.2379 6.41253 22.2004 6.52503 22.0879 6.52503C21.788 6.48753 21.3379 6.11253 20.288 6.11253C20.0254 6.11253 18.8254 6.15003 18.9004 7.01253C18.9004 7.68753 19.913 7.95003 20.0254 8.02503C21.3379 8.43753 21.8254 8.51253 22.2754 9.15003C22.913 9.93753 22.5755 10.875 22.4254 11.1375C21.7129 12.45 19.9505 12.3 19.8755 12.3ZM21.3755 16.125C18.863 17.9625 15.1504 18.975 12.0379 18.975C7.76295 19.05 3.63794 17.475 0.487938 14.625C0.225437 14.4 0.450438 14.1 0.750438 14.325C4.23795 16.275 8.17545 17.325 12.2254 17.325C15.2254 17.325 18.188 16.6875 20.9629 15.525C21.413 15.3375 21.788 15.7875 21.3755 16.125ZM22.4254 14.925C22.1255 14.5125 20.2505 14.775 19.4629 14.8125C19.2004 14.85 19.163 14.6625 19.4254 14.5125C20.888 13.5 23.288 13.7625 23.5504 14.1C23.8505 14.4 23.5129 16.8375 22.0879 18C21.8629 18.15 21.6754 18.0375 21.788 17.85C22.0504 17.025 22.7255 15.3375 22.4254 14.925Z" fill="#15171A"/>
</svg>
