<svg width="24" height="24" viewBox="0 0 24 24" fill="none" xmlns="http://www.w3.org/2000/svg">
<path d="M23.2874 19.65L21.2249 14.2875C21.0749 13.8375 20.5874 13.65 20.1374 13.8C19.6874 13.95 19.4999 14.475 19.6499 14.8875L21.0749 18.6L12.8249 14.4375V3.93748L15.2624 6.48748C15.4124 6.67498 15.6374 6.74998 15.8624 6.74998C16.0874 6.74998 16.2749 6.67498 16.4249 6.52498C16.7624 6.18748 16.7624 5.66248 16.4624 5.32498L12.5999 1.27498C12.2999 0.937476 11.6999 0.937476 11.3624 1.27498L7.46244 5.36248C7.12494 5.69998 7.16244 6.22498 7.49994 6.56248C7.83744 6.89998 8.36244 6.86248 8.69994 6.52498L11.1374 3.97498V14.4375L3.11244 18.1875L4.46244 14.85C4.64994 14.4 4.42494 13.9125 4.01244 13.7625C3.56244 13.575 3.07494 13.8 2.92494 14.2125L0.712442 19.5375C0.562442 19.95 0.749942 20.4375 1.16244 20.625L6.22494 22.875C6.33744 22.9125 6.44994 22.95 6.56244 22.95C6.89994 22.95 7.19994 22.7625 7.34994 22.4625C7.53744 22.05 7.34994 21.525 6.93744 21.3375L3.56244 19.8375L11.9999 15.9L20.2124 20.0625L17.0624 21.375C16.6499 21.5625 16.4249 22.05 16.6124 22.5C16.7624 22.8 17.0624 23.025 17.3999 23.025C17.5124 23.025 17.6249 22.9875 17.7374 22.95L22.8374 20.7375C23.2499 20.55 23.4374 20.0625 23.2874 19.65Z" fill="#161A23"/>
</svg>
