<svg width="24" height="24" viewBox="0 0 24 24" fill="none" xmlns="http://www.w3.org/2000/svg">
<path d="M21.1875 5.0249H7.94999C7.38749 5.0249 6.86249 5.2499 6.48749 5.6249L1.34999 10.4249C0.899988 10.8374 0.674988 11.3999 0.674988 11.9999C0.674988 12.5999 0.937488 13.1624 1.34999 13.5749L6.48749 18.4124C6.89999 18.7874 7.42499 19.0124 7.94999 19.0124H21.15C22.35 19.0124 23.325 18.0374 23.325 16.8749V7.1624C23.3625 5.9999 22.3875 5.0249 21.1875 5.0249ZM21.675 16.8374C21.675 17.0999 21.45 17.2874 21.1875 17.2874H7.94999C7.83749 17.2874 7.72499 17.2499 7.61249 17.1749L2.47499 12.3374C2.36249 12.2249 2.32499 12.0749 2.32499 11.9999C2.32499 11.9249 2.36249 11.7749 2.47499 11.6624L7.61249 6.8249C7.68749 6.7499 7.79999 6.7124 7.94999 6.7124H21.15C21.4125 6.7124 21.6375 6.9374 21.6375 7.1624V16.8374H21.675Z" fill="#161A23"/>
<path d="M16.6125 8.925C16.275 8.5875 15.75 8.5875 15.4125 8.925L13.5 10.8L11.5875 8.925C11.25 8.5875 10.725 8.5875 10.3875 8.925C10.05 9.2625 10.05 9.7875 10.3875 10.125L12.2625 12L10.3875 13.875C10.05 14.2125 10.05 14.7375 10.3875 15.075C10.5375 15.225 10.7625 15.3375 10.9875 15.3375C11.2125 15.3375 11.4 15.2625 11.5875 15.075L13.5 13.2L15.4125 15.075C15.5625 15.225 15.7875 15.3375 16.0125 15.3375C16.2375 15.3375 16.4625 15.2625 16.6125 15.075C16.95 14.7375 16.95 14.2125 16.6125 13.875L14.7375 12L16.6125 10.125C16.95 9.7875 16.95 9.2625 16.6125 8.925Z" fill="#161A23"/>
</svg>
