<svg width="24" height="24" viewBox="0 0 24 24" fill="none" xmlns="http://www.w3.org/2000/svg">
<g clip-path="url(#clip0_501_45499)">
<path d="M21.825 11.8875H20.175V6.63755C20.175 4.87505 18.75 3.45005 17.025 3.45005H16.575V2.92505C16.575 1.68755 15.6 0.675049 14.3625 0.675049H9.56249C8.32499 0.675049 7.34999 1.68755 7.31249 2.92505V3.48755H6.93749C5.21249 3.48755 3.78749 4.91255 3.78749 6.67505V11.925H2.17499C1.46249 11.925 0.862488 12.525 0.862488 13.275V17.925C0.862488 18.525 1.08749 19.0875 1.49999 19.5C1.91249 19.9125 2.51249 20.1376 3.07499 20.1376H3.78749V21.15C3.78749 22.3876 4.79999 23.4 5.99999 23.4H17.925C19.1625 23.4 20.1375 22.3876 20.1375 21.15V20.1376H20.85C21.45 20.1376 22.0125 19.9125 22.425 19.5C22.8375 19.0875 23.0625 18.525 23.0625 17.925V13.2375C23.1375 12.4875 22.5375 11.8875 21.825 11.8875ZM9.59999 2.36255H14.4375C14.7 2.36255 14.9625 2.62505 14.9625 2.92505V3.48755H9.03749V2.92505C9.03749 2.58755 9.29999 2.36255 9.59999 2.36255ZM6.97499 5.13755H17.0625C17.85 5.13755 18.525 5.81255 18.525 6.63755V8.36255L12.15 10.4625C12.0375 10.5 11.9625 10.5 11.85 10.4625L5.51249 8.36255V6.63755C5.51249 5.85005 6.14999 5.13755 6.97499 5.13755ZM3.07499 18.4125C2.96249 18.4125 2.81249 18.375 2.69999 18.2626C2.58749 18.15 2.54999 18.0375 2.54999 17.8876V13.575H3.78749V18.4125H3.07499ZM9.89999 21.675V18.8625C9.89999 18.7125 10.0125 18.5625 10.2 18.5625H13.875C14.025 18.5625 14.175 18.675 14.175 18.8625V21.675H9.89999ZM18.4875 21.0751C18.4875 21.375 18.225 21.6376 17.9625 21.6376H15.825V18.8251C15.825 17.7375 14.925 16.8375 13.8375 16.8375H10.1625C9.07499 16.8375 8.17499 17.7375 8.17499 18.8251V21.6376H6.03749C5.73749 21.6376 5.51249 21.375 5.51249 21.0751V10.1625L11.2875 12.075C11.5125 12.15 11.7375 12.1875 11.9625 12.1875C12.1875 12.1875 12.4125 12.15 12.6375 12.075L18.4875 10.125V21.0751ZM21.45 17.85C21.45 18 21.375 18.15 21.3 18.225C21.1875 18.3375 21.075 18.375 20.925 18.375H20.2125V13.575H21.45V17.85Z" fill="#161A23"/>
</g>
<defs>
<clipPath id="clip0_501_45499">
<rect width="24" height="24" fill="white"/>
</clipPath>
</defs>
</svg>
