<svg width="24" height="24" viewBox="0 0 24 24" fill="none" xmlns="http://www.w3.org/2000/svg">
<path d="M18.2625 3.78745H15.975V3.74995C15.975 2.06245 14.5875 0.637451 12.8625 0.637451H11.1C9.41252 0.637451 7.98752 2.02495 7.98752 3.74995V3.78745H5.70002C3.78752 3.78745 2.21252 5.32495 2.21252 7.27495V10.5C2.21252 11.25 2.73752 11.8874 3.45002 12.0374V20.2499C3.45002 21.9374 4.83752 23.3624 6.56252 23.3624H17.4C19.0875 23.3624 20.5125 21.9749 20.5125 20.2499V12.0374C21.225 11.8499 21.75 11.25 21.75 10.5V7.23745C21.7125 5.36245 20.175 3.78745 18.2625 3.78745ZM9.71252 3.74995C9.71252 2.96245 10.35 2.32495 11.1375 2.32495H12.9C13.6875 2.32495 14.325 2.96245 14.325 3.74995V3.78745H9.71252V3.74995ZM3.97502 7.27495C3.97502 6.29995 4.76252 5.47495 5.77502 5.47495H18.3C19.275 5.47495 20.1 6.26245 20.1 7.27495V10.4249H3.97502V7.27495ZM18.825 17.7374H16.5V17.2125C16.5 15.9375 15.45 14.8499 14.1375 14.8499H9.82502C8.55002 14.8499 7.46252 15.9 7.46252 17.2125V17.7374H5.13752V12.1124H18.7875V17.7374H18.825ZM14.8125 17.7374H9.18752V17.2125C9.18752 16.8375 9.48752 16.5374 9.86252 16.5374H14.175C14.55 16.5374 14.85 16.8375 14.85 17.2125V17.7374H14.8125ZM17.4 21.6749H6.60002C5.81252 21.6749 5.17502 21.0374 5.17502 20.2499V19.4249H18.825V20.2499C18.825 21.0374 18.1875 21.6749 17.4 21.6749Z" fill="#161A23"/>
<path d="M14.1 7.2749H9.90004C9.45004 7.2749 9.03754 7.6499 9.03754 8.1374C9.03754 8.6249 9.41254 8.9999 9.90004 8.9999H14.1C14.55 8.9999 14.9625 8.6249 14.9625 8.1374C14.9625 7.6499 14.55 7.2749 14.1 7.2749Z" fill="#161A23"/>
</svg>
