<svg width="24" height="24" viewBox="0 0 24 24" fill="none" xmlns="http://www.w3.org/2000/svg">
<path d="M4.98752 7.61245C6.52502 7.61245 7.80002 6.37495 7.80002 4.87495C7.80002 3.37495 6.56252 2.13745 4.98752 2.13745C3.45002 2.17495 2.17502 3.37495 2.17502 4.87495C2.17502 6.37495 3.45002 7.61245 4.98752 7.61245ZM4.98752 3.86245C5.58752 3.86245 6.11252 4.31245 6.11252 4.91245C6.11252 5.47495 5.62502 5.96245 4.98752 5.96245C4.38752 5.96245 3.86252 5.51245 3.86252 4.91245C3.86252 4.31245 4.38752 3.86245 4.98752 3.86245Z" fill="#161A23"/>
<path d="M1.57502 14.3625H8.40002C9.00002 14.3625 9.48752 13.875 9.48752 13.275V11.625C9.48752 9.71255 7.95002 8.17505 6.03752 8.17505H3.93752C2.02502 8.17505 0.487518 9.71255 0.487518 11.625V13.275C0.487518 13.9125 0.975018 14.3625 1.57502 14.3625ZM2.17502 11.6625C2.17502 10.6875 2.96252 9.90005 3.93752 9.90005H6.03752C7.01252 9.90005 7.80002 10.6875 7.80002 11.6625V12.7125H2.17502V11.6625Z" fill="#161A23"/>
<path d="M21 7.42495H19.425C18.8625 7.42495 18.4125 6.97495 18.4125 6.41245C18.4125 5.84995 18.8625 5.39995 19.425 5.39995H22.875C23.325 5.39995 23.7375 5.02495 23.7375 4.53745C23.7375 4.04995 23.325 3.74995 22.875 3.74995H21.6V2.99995C21.6 2.54995 21.225 2.13745 20.7375 2.13745C20.25 2.13745 19.875 2.51245 19.875 2.99995V3.74995H19.3875C17.8875 3.74995 16.6875 4.94995 16.6875 6.44995C16.6875 7.91245 17.8875 9.14995 19.3875 9.14995H21C21.5625 9.14995 22.0125 9.59995 22.0125 10.1625C22.0125 10.725 21.5625 11.175 21 11.175H17.55C17.1 11.175 16.6875 11.55 16.6875 12.0375C16.6875 12.4875 17.0625 12.9 17.55 12.9H19.875V13.65C19.875 14.1 20.25 14.5125 20.7375 14.5125C21.225 14.5125 21.6 14.1375 21.6 13.65V12.75C22.8 12.4875 23.7375 11.4 23.7375 10.125C23.7375 8.62495 22.5 7.42495 21 7.42495Z" fill="#161A23"/>
<path d="M22.5375 16.125H1.12501C0.675012 16.125 0.262512 16.5 0.262512 16.9875C0.262512 17.475 0.637512 17.85 1.12501 17.85H10.2L7.91251 20.475C7.68751 20.7375 7.65001 21.075 7.80001 21.375C7.95001 21.675 8.25001 21.8625 8.55001 21.8625H15.0375C15.375 21.8625 15.675 21.675 15.7875 21.375C15.9 21.075 15.8625 20.7375 15.675 20.475L13.3875 17.85H22.4625C22.9125 17.85 23.325 17.475 23.325 16.9875C23.325 16.5 22.9875 16.125 22.5375 16.125ZM10.425 20.1375L11.85 18.4875L13.275 20.1375H10.425Z" fill="#161A23"/>
</svg>
