<svg width="24" height="24" viewBox="0 0 24 24" fill="none" xmlns="http://www.w3.org/2000/svg">
<path d="M23.7 12.3375V12.3C23.7 12.2625 23.6625 12.225 23.6625 12.1875C23.6625 12.1875 23.6625 12.1875 23.6625 12.15L20.7375 6.45H22.05C22.5 6.45 22.9125 6.075 22.9125 5.5875C22.9125 5.1 22.5375 4.725 22.05 4.725H12.8625V2.7375C12.8625 2.2875 12.4875 1.875 12 1.875C11.55 1.875 11.1375 2.25 11.1375 2.7375V4.7625H1.98749C1.53749 4.7625 1.12499 5.1375 1.12499 5.625C1.12499 6.1125 1.49999 6.4875 1.98749 6.4875H3.29999L0.374988 12.15C0.374988 12.15 0.374988 12.15 0.374988 12.1875C0.337488 12.225 0.337488 12.2625 0.337488 12.3V12.3375C0.337488 12.4125 0.299988 12.45 0.299988 12.525C0.299988 14.9625 2.28749 16.95 4.72499 16.95C7.16249 16.95 9.14999 14.9625 9.14999 12.525C9.14999 12.45 9.14999 12.4125 9.11249 12.3375V12.3C9.11249 12.2625 9.07499 12.225 9.07499 12.1875C9.07499 12.1875 9.07499 12.1875 9.07499 12.15L6.14999 6.45H11.2125V20.4H8.88749C8.43749 20.4 8.02499 20.775 8.02499 21.2625C8.02499 21.75 8.39999 22.125 8.88749 22.125H15.225C15.675 22.125 16.0875 21.75 16.0875 21.2625C16.0875 20.775 15.7125 20.4 15.225 20.4H12.9V6.45H17.9625L15.0375 12.15C15.0375 12.15 15.0375 12.15 15.0375 12.1875C15 12.225 15 12.2625 15 12.3V12.3375C15 12.4125 14.9625 12.45 14.9625 12.525C14.9625 14.9625 16.95 16.95 19.3875 16.95C21.825 16.95 23.8125 14.9625 23.8125 12.525C23.7375 12.4875 23.7 12.4125 23.7 12.3375ZM4.68749 7.4625L6.86249 11.7H2.51249L4.68749 7.4625ZM4.68749 15.2625C3.48749 15.2625 2.43749 14.475 2.09999 13.3875H7.31249C6.93749 14.475 5.92499 15.2625 4.68749 15.2625ZM21.4875 11.7H17.1L19.3125 7.4625L21.4875 11.7ZM19.3125 15.2625C18.1125 15.2625 17.0625 14.475 16.725 13.3875H21.9375C21.525 14.475 20.5125 15.2625 19.3125 15.2625Z" fill="#161A23"/>
</svg>
