<svg width="24" height="24" viewBox="0 0 24 24" fill="none" xmlns="http://www.w3.org/2000/svg">
<g clip-path="url(#clip0_501_47610)">
<path d="M12 0.674988C5.73749 0.674988 0.674988 5.73749 0.674988 12C0.674988 18.2625 5.73749 23.3625 12 23.3625C18.2625 23.3625 23.3625 18.2625 23.3625 12C23.3625 5.73749 18.2625 0.674988 12 0.674988ZM2.36249 12C2.36249 6.67499 6.67499 2.36249 12 2.36249C13.9875 2.36249 15.7875 2.96249 17.325 3.97499L5.32499 18.975C3.48749 17.2125 2.36249 14.7375 2.36249 12ZM12 21.675C10.0125 21.675 8.17499 21.075 6.63749 20.025L18.6375 5.02499C20.475 6.78749 21.6375 9.26249 21.6375 12C21.675 17.325 17.325 21.675 12 21.675Z" fill="#161A23"/>
</g>
<defs>
<clipPath id="clip0_501_47610">
<rect width="24" height="24" fill="white"/>
</clipPath>
</defs>
</svg>
