<svg width="24" height="24" viewBox="0 0 24 24" fill="none" xmlns="http://www.w3.org/2000/svg">
<path d="M21.45 18.2999V8.8499C21.75 8.6999 21.975 8.3999 22.0875 8.0624C22.2375 7.4999 22.05 6.9374 21.5625 6.5999L12.675 0.862402C12.2625 0.599902 11.7 0.599902 11.2875 0.862402L2.39995 6.5999C1.91245 6.9374 1.68745 7.4999 1.87495 8.0624C1.98745 8.4374 2.21245 8.6999 2.54995 8.8499V18.2999C1.98745 18.7124 1.57495 19.4249 1.57495 20.1749V20.9999C1.57495 22.2749 2.62495 23.3249 3.89995 23.3249H20.0625C21.3375 23.3249 22.3875 22.2749 22.3875 20.9999V20.1749C22.425 19.3874 22.05 18.7124 21.45 18.2999ZM4.23745 17.8124V8.9624H8.28745V17.8124H4.23745ZM9.97495 8.9624H14.025V17.8124H9.97495V8.9624ZM15.7125 8.9624H19.7625V17.8124H15.7125V8.9624ZM12 2.4374L19.5375 7.3124H4.46245L12 2.4374ZM20.7374 20.9999C20.7374 21.3749 20.4375 21.6749 20.0625 21.6749H3.93745C3.56245 21.6749 3.26245 21.3749 3.26245 20.9999V20.1749C3.26245 19.7999 3.56245 19.4999 3.93745 19.4999H20.1C20.475 19.4999 20.775 19.7999 20.775 20.1749V20.9999H20.7374Z" fill="#161A23"/>
</svg>
