<svg width="24" height="24" viewBox="0 0 24 24" fill="none" xmlns="http://www.w3.org/2000/svg">
<g clip-path="url(#clip0_501_52135)">
<path d="M22.9124 6.2624L13.1249 0.899902C12.4124 0.524902 11.5499 0.524902 10.8374 0.899902L1.08743 6.2624C0.749933 6.4499 0.599933 6.8249 0.674933 7.1999C0.749933 7.5749 1.12493 7.8749 1.49993 7.8749H2.47493V18.2999C1.87493 18.7124 1.49993 19.4249 1.49993 20.1749V21.0374C1.49993 22.3124 2.54993 23.3624 3.82493 23.3624H20.1749C21.4499 23.3624 22.4999 22.3124 22.4999 21.0374V20.1749C22.4999 19.3874 22.1249 18.7124 21.5249 18.2999V7.8749H22.4999C22.8749 7.8749 23.2124 7.6124 23.3249 7.2374C23.3999 6.8624 23.2499 6.4499 22.9124 6.2624ZM11.6624 2.3999C11.8499 2.2874 12.1124 2.2874 12.2999 2.3999L19.1999 6.1874H4.79993L11.6624 2.3999ZM7.68743 17.8124V7.8749H16.0874V17.8499H7.68743V17.8124ZM5.99993 7.8749V17.8499H4.16243V7.8749H5.99993ZM20.8499 21.0374C20.8499 21.4124 20.5499 21.7124 20.1749 21.7124H3.82493C3.44993 21.7124 3.14993 21.4124 3.14993 21.0374V20.1749C3.14993 19.7999 3.44993 19.4999 3.82493 19.4999H20.1749C20.5499 19.4999 20.8499 19.7999 20.8499 20.1749V21.0374ZM19.8749 17.8124H17.7749V7.8749H19.8749V17.8124Z" fill="#161A23"/>
<path d="M14.1375 15.4123C13.725 15.4123 13.35 15.2998 13.0125 15.1123H13.05C13.5 15.1123 13.875 14.7373 13.875 14.2873C13.875 13.8373 13.5 13.4623 13.05 13.4623H11.625C11.55 13.2373 11.55 13.0498 11.55 12.8248C11.55 12.7123 11.55 12.5998 11.5875 12.4873H13.0875C13.5375 12.4873 13.9125 12.1123 13.9125 11.6248C13.9125 11.1373 13.5375 10.7998 13.0875 10.7998H12.5625C13.0125 10.4248 13.575 10.1998 14.175 10.1998C14.625 10.1998 15 9.8248 15 9.3748C15 8.9248 14.625 8.5498 14.175 8.5498C12.5625 8.5498 11.1375 9.4873 10.3875 10.8373H9.93755C9.48755 10.8373 9.11255 11.2123 9.11255 11.6623C9.11255 12.1123 9.48755 12.4873 9.90005 12.4873C9.90005 12.5998 9.90005 12.7123 9.90005 12.8248C9.90005 13.0498 9.93755 13.2748 9.97505 13.4623C9.52505 13.4623 9.15005 13.8373 9.15005 14.2873C9.15005 14.7373 9.52505 15.1123 9.97505 15.1123H10.65C11.4375 16.2748 12.75 17.0998 14.25 17.0998C14.7 17.0998 15.075 16.7248 15.075 16.2748C15.075 15.8248 14.5875 15.4123 14.1375 15.4123Z" fill="#161A23"/>
</g>
<defs>
<clipPath id="clip0_501_52135">
<rect width="24" height="24" fill="white"/>
</clipPath>
</defs>
</svg>
