<svg width="24" height="24" viewBox="0 0 24 24" fill="none" xmlns="http://www.w3.org/2000/svg">
<g clip-path="url(#clip0_501_52113)">
<path d="M22.9124 6.3001L12.8999 0.825098C12.3374 0.525098 11.6624 0.525098 11.0999 0.825098L1.08743 6.3001C0.749933 6.4876 0.599933 6.8626 0.674933 7.2376C0.749933 7.6126 1.12493 7.9126 1.49993 7.9126H2.47493V18.3376C1.87493 18.7501 1.49993 19.4251 1.49993 20.2126V21.0751C1.49993 22.3501 2.54993 23.4001 3.82493 23.4001H20.1749C21.4499 23.4001 22.4999 22.3501 22.4999 21.0751V20.2126C22.4999 19.4251 22.1249 18.7501 21.5249 18.3376V7.9126H22.4999C22.8749 7.9126 23.2124 7.6501 23.3249 7.2751C23.3999 6.9001 23.2499 6.4876 22.9124 6.3001ZM11.9249 2.2876C11.9624 2.2501 12.0374 2.2501 12.0749 2.2876L19.1999 6.2251H4.79993L11.9249 2.2876ZM7.68743 17.8501V7.9126H16.0874V17.8876H7.68743V17.8501ZM5.99993 7.9126V17.8876H4.16243V7.9126H5.99993ZM20.8499 21.0751C20.8499 21.4501 20.5499 21.7501 20.1749 21.7501H3.82493C3.44993 21.7501 3.14993 21.4501 3.14993 21.0751V20.2126C3.14993 19.8376 3.44993 19.5376 3.82493 19.5376H20.1749C20.5499 19.5376 20.8499 19.8376 20.8499 20.2126V21.0751ZM19.8749 17.8501H17.7749V7.9126H19.8749V17.8501Z" fill="#161A23"/>
<path d="M12.2625 12.0377H11.25C11.0625 12.0377 10.9125 11.8877 10.9125 11.7002C10.9125 11.5127 11.0625 11.3627 11.25 11.3627H13.4625C13.9125 11.3627 14.2875 10.9877 14.2875 10.5377C14.2875 10.0877 13.9125 9.7127 13.4625 9.7127H12.9375V9.52519C12.9375 9.07519 12.5625 8.7002 12.1125 8.7002C11.6625 8.7002 11.2875 9.07519 11.2875 9.52519V9.7127C10.1625 9.7127 9.26245 10.6127 9.26245 11.7377C9.26245 12.8627 10.1625 13.7627 11.2875 13.7627H12.3C12.4875 13.7627 12.6375 13.9127 12.6375 14.1002C12.6375 14.2877 12.4875 14.4377 12.3 14.4377H10.0875C9.63745 14.4377 9.26245 14.8127 9.26245 15.2627C9.26245 15.7127 9.63745 16.0877 10.0875 16.0877H11.25V16.2752C11.25 16.7252 11.625 17.1002 12.075 17.1002C12.525 17.1002 12.9 16.7252 12.9 16.2752V15.9752C13.6875 15.7127 14.25 14.9627 14.25 14.0627C14.2875 12.9377 13.3875 12.0377 12.2625 12.0377Z" fill="#161A23"/>
</g>
<defs>
<clipPath id="clip0_501_52113">
<rect width="24" height="24" fill="white"/>
</clipPath>
</defs>
</svg>
