<svg width="24" height="24" viewBox="0 0 24 24" fill="none" xmlns="http://www.w3.org/2000/svg">
<path d="M22.4999 20.7H20.4749V13.3125C20.4749 12.1125 19.5 11.175 18.3375 11.175H16.1624C14.9624 11.175 14.025 12.15 14.025 13.3125V20.7H11.775V7.65C11.775 6.45 10.8 5.5125 9.63745 5.5125H7.46245C6.26245 5.5125 5.32495 6.4875 5.32495 7.65V20.7H2.36245V2.4375C2.36245 1.9875 1.98745 1.575 1.49995 1.575C1.01245 1.575 0.637451 1.95 0.637451 2.4375V20.775C0.637451 21.6375 1.34995 22.3875 2.24995 22.3875H22.4999C22.9499 22.3875 23.3624 22.0125 23.3624 21.525C23.3624 21.0375 22.9499 20.7 22.4999 20.7ZM7.01245 20.7V7.65C7.01245 7.3875 7.23745 7.2 7.46245 7.2H9.63745C9.89995 7.2 10.0875 7.425 10.0875 7.65V20.7H7.01245ZM15.7125 20.7V13.3125C15.7125 13.05 15.9374 12.8625 16.1624 12.8625H18.3375C18.6 12.8625 18.7874 13.0875 18.7874 13.3125V20.7H15.7125Z" fill="#161A23"/>
</svg>
