<svg width="24" height="24" viewBox="0 0 24 24" fill="none" xmlns="http://www.w3.org/2000/svg">
<path d="M2.81249 0.637451C2.36249 0.637451 1.98749 1.01245 1.98749 1.46245V22.4625C1.98749 22.9125 2.36249 23.2875 2.81249 23.2875C3.26249 23.2875 3.63749 22.9125 3.63749 22.4625V1.49995C3.63749 1.04995 3.26249 0.637451 2.81249 0.637451Z" fill="#161A23"/>
<path d="M8.17498 0.637451C7.72498 0.637451 7.34998 1.01245 7.34998 1.46245V16.3125C7.34998 16.7625 7.72498 17.1375 8.17498 17.1375C8.62498 17.1375 8.99998 16.7625 8.99998 16.3125V1.49995C8.99998 1.04995 8.62498 0.637451 8.17498 0.637451Z" fill="#161A23"/>
<path d="M21.7875 18.0749L19.05 15.3374C19.65 14.5124 19.95 13.4999 19.95 12.4874C19.95 11.9249 19.875 11.3999 19.6875 10.9124C19.6875 10.8749 19.6875 10.8374 19.6875 10.7624V1.49993C19.6875 1.04993 19.3125 0.674927 18.8625 0.674927C18.4125 0.674927 18.0375 1.04993 18.0375 1.49993V8.54993C17.175 7.87493 16.125 7.53743 15 7.53743C14.775 7.53743 14.55 7.57493 14.3625 7.57493V1.49993C14.3625 1.04993 13.9875 0.674927 13.5375 0.674927C13.0875 0.674927 12.7125 1.04993 12.7125 1.49993V7.98743C12.7125 8.02493 12.7125 8.06243 12.7125 8.09993C12.3 8.32493 11.8875 8.62493 11.5125 8.96243C10.575 9.89993 10.05 11.1374 10.05 12.4874C10.05 13.8374 10.575 15.0749 11.5125 16.0124C12.45 16.9499 13.6875 17.4749 15.0375 17.4749C16.0875 17.4749 17.0625 17.1374 17.8875 16.5749L20.625 19.3124C20.775 19.4624 21 19.5749 21.225 19.5749C21.45 19.5749 21.675 19.4999 21.825 19.3124C22.125 18.9374 22.125 18.4124 21.7875 18.0749ZM12.7125 14.8124C12.075 14.1749 11.7375 13.3874 11.7375 12.4874C11.7375 11.5874 12.075 10.7999 12.7125 10.1624C13.35 9.52493 14.1375 9.18743 15.0375 9.18743C15.9375 9.18743 16.725 9.52493 17.3625 10.1624C18 10.7999 18.3375 11.5874 18.3375 12.4874C18.3375 13.3874 18 14.1749 17.3625 14.8124C16.05 16.0874 13.9875 16.0874 12.7125 14.8124Z" fill="#161A23"/>
</svg>
