<svg width="24" height="24" viewBox="0 0 24 24" fill="none" xmlns="http://www.w3.org/2000/svg">
<g clip-path="url(#clip0_501_48300)">
<path d="M22.5 21.675H19.65V19.7625C19.65 19.3125 19.275 18.9 18.7875 18.9C18.3 18.9 17.925 19.275 17.925 19.7625V21.675H13.0875V16.05C13.3125 16.0875 13.575 16.0875 13.8 16.0875C15.075 16.0875 16.3125 15.675 17.2875 14.925L20.1376 17.775C20.2875 17.925 20.5125 18.0375 20.7375 18.0375C20.9625 18.0375 21.1875 17.9625 21.3375 17.775C21.675 17.4375 21.675 16.9125 21.3375 16.575L18.4875 13.725C20.2125 11.4375 20.025 8.13751 17.925 6.07501C16.8 4.95001 15.3375 4.35001 13.7625 4.35001C12.1875 4.35001 10.725 4.95001 9.60005 6.07501C8.47505 7.20001 7.87505 8.66251 7.87505 10.2375C7.87505 11.8125 8.47505 13.275 9.60005 14.4C10.125 14.925 10.725 15.3 11.3625 15.6V15.6375V21.6375H6.75005V16.5C6.75005 16.05 6.37505 15.6375 5.88755 15.6375C5.40005 15.6375 5.02505 16.0125 5.02505 16.5V21.6375H2.36255V1.50001C2.36255 1.05001 1.98755 0.637512 1.50005 0.637512C1.01255 0.637512 0.675049 1.05001 0.675049 1.50001V22.5C0.675049 22.95 1.05005 23.3625 1.53755 23.3625H22.5375C22.9875 23.3625 23.4 22.9875 23.4 22.5C23.4 22.0125 22.95 21.675 22.5 21.675ZM9.60005 10.2375C9.60005 9.11251 10.05 8.06251 10.8375 7.27501C11.625 6.48751 12.675 6.03751 13.8 6.03751C14.925 6.03751 15.975 6.48751 16.7626 7.27501C18.375 8.88751 18.375 11.55 16.7626 13.2C15.975 13.9875 14.925 14.4375 13.8 14.4375C12.675 14.4375 11.625 13.9875 10.8375 13.2C10.05 12.4125 9.60005 11.3625 9.60005 10.2375Z" fill="#161A23"/>
</g>
<defs>
<clipPath id="clip0_501_48300">
<rect width="24" height="24" fill="white"/>
</clipPath>
</defs>
</svg>
