<svg width="24" height="24" viewBox="0 0 24 24" fill="none" xmlns="http://www.w3.org/2000/svg">
<path d="M22.4999 20.7H2.36245V2.47499C2.36245 2.02499 1.98745 1.61249 1.49995 1.61249C1.01245 1.61249 0.637451 1.98749 0.637451 2.47499V21.5625C0.637451 22.0125 1.01245 22.425 1.49995 22.425H22.4999C22.9499 22.425 23.3624 22.05 23.3624 21.5625C23.3624 21.075 22.9499 20.7 22.4999 20.7Z" fill="#161A23"/>
<path d="M7.08743 15.375C8.69993 15.375 9.97493 14.0625 9.97493 12.4875C9.97493 12.1875 9.93743 11.85 9.82493 11.5875L11.3624 10.6125C11.8874 11.0625 12.5249 11.3625 13.2749 11.3625C14.8874 11.3625 16.1624 10.05 16.1624 8.47499C16.1624 8.21249 16.1249 7.91249 16.0499 7.64999L18.0374 6.56249C18.5624 7.08749 19.2749 7.38749 20.0624 7.38749C21.6749 7.38749 22.9499 6.07499 22.9499 4.49999C22.9499 2.92499 21.6374 1.61249 20.0624 1.61249C18.4874 1.61249 17.1749 2.92499 17.1749 4.49999C17.1749 4.68749 17.2124 4.91249 17.2499 5.09999L15.1499 6.26249C14.6624 5.84999 13.9874 5.58749 13.3124 5.58749C11.6999 5.58749 10.4249 6.89999 10.4249 8.47499C10.4249 8.73749 10.4624 8.96249 10.5374 9.18749L8.88743 10.2C8.39993 9.82499 7.79993 9.59999 7.12493 9.59999C5.51243 9.59999 4.23743 10.9125 4.23743 12.4875C4.23743 14.0625 5.47493 15.375 7.08743 15.375ZM20.0624 3.29999C20.7374 3.29999 21.2624 3.82499 21.2624 4.49999C21.2624 5.17499 20.7374 5.69999 20.0624 5.69999C19.3874 5.69999 18.8624 5.17499 18.8624 4.49999C18.8624 3.82499 19.3874 3.29999 20.0624 3.29999ZM13.2749 7.27499C13.9499 7.27499 14.4749 7.79999 14.4749 8.47499C14.4749 9.14999 13.9499 9.67499 13.2749 9.67499C12.5999 9.67499 12.0749 9.14999 12.0749 8.47499C12.0749 7.79999 12.5999 7.27499 13.2749 7.27499ZM7.08743 11.2875C7.76243 11.2875 8.28743 11.8125 8.28743 12.4875C8.28743 13.1625 7.76243 13.6875 7.08743 13.6875C6.41243 13.6875 5.88743 13.1625 5.88743 12.4875C5.88743 11.8125 6.41243 11.2875 7.08743 11.2875Z" fill="#161A23"/>
</svg>
