<svg width="24" height="24" viewBox="0 0 24 24" fill="none" xmlns="http://www.w3.org/2000/svg">
<path d="M6.75001 2.92499H2.62501C2.17501 2.92499 1.76251 3.29999 1.76251 3.78749V7.91249C1.76251 8.36249 2.13751 8.77499 2.62501 8.77499C3.11251 8.77499 3.48751 8.39999 3.48751 7.91249V4.61249H6.75001C7.20001 4.61249 7.61251 4.23749 7.61251 3.74999C7.61251 3.26249 7.20001 2.92499 6.75001 2.92499Z" fill="#161A23"/>
<path d="M21.375 15.2625C20.925 15.2625 20.5125 15.6375 20.5125 16.125V19.425H17.25C16.8 19.425 16.3875 19.8 16.3875 20.2875C16.3875 20.775 16.7625 21.15 17.25 21.15H21.375C21.825 21.15 22.2375 20.775 22.2375 20.2875V16.125C22.2375 15.6375 21.825 15.2625 21.375 15.2625Z" fill="#161A23"/>
<path d="M21.375 2.92499H17.25C16.8 2.92499 16.3875 3.29999 16.3875 3.78749C16.3875 4.27499 16.7625 4.64999 17.25 4.64999H20.55V7.87499C20.55 8.32499 20.925 8.73749 21.4125 8.73749C21.9 8.73749 22.275 8.36249 22.275 7.87499V3.74999C22.2375 3.29999 21.825 2.92499 21.375 2.92499Z" fill="#161A23"/>
<path d="M6.75001 19.3875H3.48751V16.125C3.48751 15.675 3.11251 15.2625 2.62501 15.2625C2.13751 15.2625 1.76251 15.6375 1.76251 16.125V20.25C1.76251 20.7 2.13751 21.1125 2.62501 21.1125H6.75001C7.20001 21.1125 7.61251 20.7375 7.61251 20.25C7.61251 19.7625 7.20001 19.3875 6.75001 19.3875Z" fill="#161A23"/>
<path d="M9.03749 16.2375C8.58749 16.2375 8.17499 16.6125 8.17499 17.1V17.775C8.17499 18.225 8.54999 18.6375 9.03749 18.6375C9.52499 18.6375 9.89999 18.2625 9.89999 17.775V17.1C9.86249 16.6125 9.48749 16.2375 9.03749 16.2375Z" fill="#161A23"/>
<path d="M12.3375 5.39996C11.8875 5.39996 11.475 5.77496 11.475 6.26246V17.775C11.475 18.225 11.85 18.6375 12.3375 18.6375C12.825 18.6375 13.1625 18.2625 13.1625 17.775V6.26246C13.2 5.77496 12.825 5.39996 12.3375 5.39996Z" fill="#161A23"/>
<path d="M19.8 17.7375V6.26246C19.8 5.81246 19.425 5.39996 18.9375 5.39996C18.45 5.39996 18.075 5.77496 18.075 6.26246V17.775C18.075 18.225 18.45 18.6375 18.9375 18.6375C19.425 18.6375 19.8 18.225 19.8 17.7375Z" fill="#161A23"/>
<path d="M6.56252 17.7375V6.26246C6.56252 5.81246 6.18752 5.39996 5.70002 5.39996C5.21252 5.39996 4.83752 5.77496 4.83752 6.26246V17.775C4.83752 18.225 5.21252 18.6375 5.70002 18.6375C6.18752 18.6375 6.56252 18.225 6.56252 17.7375Z" fill="#161A23"/>
<path d="M9.03749 5.39996C8.58749 5.39996 8.17499 5.77496 8.17499 6.26246V14.8125C8.17499 15.2625 8.54999 15.675 9.03749 15.675C9.52499 15.675 9.89999 15.3 9.89999 14.8125V6.26246C9.86249 5.77496 9.48749 5.39996 9.03749 5.39996Z" fill="#161A23"/>
<path d="M16.5 17.0625C16.5 16.6125 16.125 16.2 15.6375 16.2C15.15 16.2 14.775 16.575 14.775 17.0625V17.7375C14.775 18.1875 15.15 18.6 15.6375 18.6C16.125 18.6 16.5 18.225 16.5 17.7375V17.0625Z" fill="#161A23"/>
<path d="M15.675 15.6375C16.125 15.6375 16.5375 15.2625 16.5375 14.775V6.26246C16.5375 5.81246 16.1625 5.39996 15.675 5.39996C15.1875 5.39996 14.8125 5.77496 14.8125 6.26246V14.8125C14.8125 15.2625 15.1875 15.6375 15.675 15.6375Z" fill="#161A23"/>
</svg>
