<svg width="24" height="24" viewBox="0 0 24 24" fill="none" xmlns="http://www.w3.org/2000/svg">
<path d="M20.4375 7.68751H19.425V6.86251C20.5125 6.52501 21.3 5.47501 21.3 4.27501C21.3 2.77501 20.0625 1.53751 18.5625 1.53751C17.0625 1.53751 15.825 2.77501 15.825 4.27501C15.825 5.47501 16.6125 6.48751 17.7 6.86251V7.68751H6.30001V6.86251C7.38751 6.52501 8.17501 5.47501 8.17501 4.27501C8.17501 2.77501 6.93751 1.53751 5.43751 1.53751C3.93751 1.53751 2.70001 2.77501 2.70001 4.27501C2.70001 5.47501 3.48751 6.48751 4.57501 6.86251V7.68751H3.56251C2.28751 7.68751 1.20001 8.73751 1.20001 10.05V14.5125C1.20001 15.7875 2.25001 16.875 3.56251 16.875H4.20001V21.3C4.20001 21.975 4.76251 22.5375 5.43751 22.5375H7.31251C7.98751 22.5375 8.55001 21.975 8.55001 21.3V16.8H15.4875V21.225C15.4875 21.9 16.05 22.4625 16.725 22.4625H18.6C19.275 22.4625 19.8375 21.9 19.8375 21.225V16.8H20.475C21.75 16.8 22.8375 15.75 22.8375 14.4375V10.0125C22.7625 8.73751 21.7125 7.68751 20.4375 7.68751ZM18.5625 3.26251C19.125 3.26251 19.6125 3.71251 19.6125 4.31251C19.6125 4.91251 19.1625 5.36251 18.5625 5.36251C17.9625 5.36251 17.5125 4.91251 17.5125 4.31251C17.5125 3.71251 18 3.26251 18.5625 3.26251ZM5.43751 3.26251C6.00001 3.26251 6.48751 3.71251 6.48751 4.31251C6.48751 4.91251 6.03751 5.36251 5.43751 5.36251C4.83751 5.36251 4.38751 4.91251 4.38751 4.31251C4.38751 3.71251 4.87501 3.26251 5.43751 3.26251ZM14.1375 15.1125H10.35L15.15 9.37501H18.9375L14.1375 15.1125ZM4.38751 15.1125L9.15001 9.37501H12.9375L8.17501 15.1125H4.38751ZM3.56251 9.37501H6.97501L2.92501 14.25V10.0125C2.92501 9.67501 3.18751 9.37501 3.56251 9.37501ZM6.86251 20.7375H5.92501V16.8H6.86251V20.7375ZM18.1125 20.7375H17.175V16.8H18.1125V20.7375ZM21.075 14.475C21.075 14.85 20.775 15.15 20.4 15.15H16.35L20.925 9.63751C21.0375 9.75001 21.075 9.90001 21.075 10.05V14.475Z" fill="#161A23"/>
</svg>
