<svg width="24" height="24" viewBox="0 0 24 24" fill="none" xmlns="http://www.w3.org/2000/svg">
<path d="M21.6375 8.36255H17.5125L14.175 5.02505C14.325 4.72505 14.4 4.38755 14.4 4.01255C14.4 2.70005 13.3125 1.61255 12 1.61255C10.6875 1.61255 9.59999 2.70005 9.59999 4.01255C9.59999 4.35005 9.67499 4.68755 9.82499 5.02505L6.48749 8.36255H2.36249C1.31249 8.36255 0.487488 9.22505 0.487488 10.2375V11.1375C0.487488 12.0375 1.12499 12.7875 1.98749 12.975L3.97499 20.625C4.23749 21.6375 5.17499 22.35 6.22499 22.35H17.8125C18.8625 22.35 19.8 21.6375 20.0625 20.625L22.0875 13.0125C22.95 12.825 23.5875 12.075 23.5875 11.175V10.275C23.55 9.22505 22.6875 8.36255 21.6375 8.36255ZM12 3.33755C12.4125 3.33755 12.7125 3.67505 12.7125 4.05005C12.7125 4.23755 12.6375 4.42505 12.525 4.53755C12.4125 4.65005 12.225 4.72505 12.0375 4.72505C11.85 4.72505 11.6625 4.65005 11.55 4.53755C11.4375 4.42505 11.3625 4.23755 11.3625 4.05005C11.2875 3.67505 11.5875 3.33755 12 3.33755ZM10.9875 6.26255C11.2875 6.41255 11.625 6.48755 12 6.48755C12.3375 6.48755 12.675 6.41255 13.0125 6.26255L15.15 8.40005H8.88749L10.9875 6.26255ZM2.17499 10.275C2.17499 10.1625 2.24999 10.0875 2.36249 10.0875H21.6375C21.75 10.0875 21.825 10.1625 21.825 10.275V11.175C21.825 11.2875 21.75 11.3625 21.6375 11.3625H21.4125C21.4125 11.3625 21.4125 11.3625 21.375 11.3625H2.62499C2.62499 11.3625 2.62499 11.3625 2.58749 11.3625H2.36249C2.24999 11.3625 2.17499 11.2875 2.17499 11.175V10.275ZM19.5 16.0125H12.825V13.05H20.2875L19.5 16.0125ZM3.71249 13.05H11.175V16.0125H4.49999L3.71249 13.05ZM5.58749 20.175L4.91249 17.7001H11.1375V20.6625H6.18749C5.92499 20.6625 5.66249 20.475 5.58749 20.175ZM17.8125 20.6625H12.825V17.7001H19.05L18.375 20.175C18.3375 20.475 18.075 20.6625 17.8125 20.6625Z" fill="#161A23"/>
</svg>
