<svg width="24" height="24" viewBox="0 0 24 24" fill="none" xmlns="http://www.w3.org/2000/svg">
<g clip-path="url(#clip0_501_44649)">
<path d="M21.75 7.04998H17.55L14.175 3.67498C14.325 3.37498 14.4 3.03748 14.4 2.66248C14.4 1.31248 13.3125 0.224976 11.9625 0.224976C10.6125 0.224976 9.525 1.31248 9.525 2.66248C9.525 3.03748 9.6 3.37498 9.75 3.67498L6.375 7.04998H2.25C1.2 7.04998 0.375 7.91248 0.375 8.92498V9.86248C0.375 10.7625 1.0125 11.5125 1.875 11.7L3.9 19.3875C4.1625 20.4 5.1 21.15 6.15 21.15H7.5C7.95 21.15 8.325 20.775 8.325 20.325C8.325 19.875 7.95 19.5 7.5 19.5H6.15C5.85 19.5 5.5875 19.3125 5.5125 19.0125L3.6375 11.775H20.4L18.4875 18.975C18.4125 19.275 18.15 19.4625 17.85 19.4625H16.9875C16.5375 19.4625 16.1625 19.8375 16.1625 20.2875C16.1625 20.7375 16.5375 21.1125 16.9875 21.1125H17.85C18.9 21.1125 19.8375 20.4 20.1 19.35L22.125 11.7375C22.9875 11.55 23.625 10.8 23.625 9.89997V8.96247C23.625 7.91248 22.7625 7.04998 21.75 7.04998ZM12 1.94998C12.4125 1.94998 12.75 2.28748 12.75 2.69998C12.75 2.88748 12.675 3.07498 12.5625 3.18748C12.375 3.37498 12.1875 3.44998 12 3.44998C11.8125 3.44998 11.625 3.37498 11.5125 3.26248C11.325 3.07498 11.25 2.88748 11.25 2.69998C11.25 2.28748 11.5875 1.94998 12 1.94998ZM10.9875 4.91248C11.2875 5.06248 11.625 5.13748 12 5.13748C12.375 5.13748 12.7125 5.06248 13.0125 4.91248L15.1875 7.08748H8.8125L10.9875 4.91248ZM2.0625 8.96247C2.0625 8.84998 2.1375 8.77497 2.25 8.77497H21.75C21.8625 8.77497 21.9375 8.84998 21.9375 8.96247V9.89997C21.9375 10.0125 21.8625 10.0875 21.75 10.0875H21.525H2.5125C2.5125 10.0875 2.5125 10.0875 2.475 10.0875H2.25C2.1375 10.0875 2.0625 10.0125 2.0625 9.89997V8.96247Z" fill="#161A23"/>
<path d="M11.4 16.8H14.0625C14.5125 16.8 14.8875 16.425 14.8875 15.975C14.8875 15.525 14.5125 15.15 14.0625 15.15H13.275V14.775C13.275 14.325 12.9 13.95 12.45 13.95C12 13.95 11.625 14.325 11.625 14.775V15.15H11.4375C10.1625 15.15 9.14999 16.1625 9.14999 17.4375C9.14999 18.7125 10.1625 19.725 11.4375 19.725H12.675C13.0125 19.725 13.275 19.9875 13.275 20.325C13.275 20.6625 13.0125 20.925 12.675 20.925H10.0125C9.56249 20.925 9.18749 21.3 9.18749 21.75C9.18749 22.2 9.56249 22.575 10.0125 22.575H11.625V22.95C11.625 23.4 12 23.775 12.45 23.775C12.9 23.775 13.275 23.4 13.275 22.95V22.4625C14.2125 22.2 14.925 21.3 14.925 20.2875C14.925 19.05 13.9125 18 12.6375 18H11.4C11.0625 18 10.8 17.7375 10.8 17.4C10.8 17.0625 11.0625 16.8 11.4 16.8Z" fill="#161A23"/>
</g>
<defs>
<clipPath id="clip0_501_44649">
<rect width="24" height="24" fill="white"/>
</clipPath>
</defs>
</svg>
