<svg width="24" height="24" viewBox="0 0 24 24" fill="none" xmlns="http://www.w3.org/2000/svg">
<path d="M21 5.43755H20.55V4.16255C20.55 3.30005 19.8375 2.55005 18.9375 2.55005H15.675C14.8125 2.55005 14.0625 3.26255 14.0625 4.16255V5.43755H9.90001V4.16255C9.90001 3.30005 9.18751 2.55005 8.28751 2.55005H5.02501C4.16251 2.55005 3.41251 3.26255 3.41251 4.16255V5.43755H3.00001C1.72501 5.43755 0.637512 6.48755 0.637512 7.80005V19.125C0.637512 20.4 1.68751 21.4875 3.00001 21.4875H21C22.275 21.4875 23.3625 20.4375 23.3625 19.125V7.76255C23.3625 6.48755 22.275 5.43755 21 5.43755ZM15.7875 4.23755H18.8625V5.40005H15.7875V4.23755ZM5.13751 4.23755H8.21251V5.40005H5.13751V4.23755ZM21.675 19.0875C21.675 19.4625 21.375 19.7626 21 19.7626H3.00001C2.62501 19.7626 2.32501 19.4625 2.32501 19.0875V7.76255C2.36251 7.42505 2.62501 7.12505 3.00001 7.12505H21C21.375 7.12505 21.675 7.42505 21.675 7.80005V19.0875Z" fill="#161A23"/>
<path d="M14.1375 13.9876L11.8125 12.2251L14.1375 10.4626C14.5125 10.2001 14.5875 9.63758 14.325 9.30008C14.0625 8.92508 13.5 8.85008 13.1625 9.15008L9.93751 11.5876C9.71251 11.7376 9.60001 12.0001 9.60001 12.2626C9.60001 12.5251 9.71251 12.7876 9.93751 12.9376L12.2625 14.7001L9.93751 16.4626C9.56251 16.7251 9.48751 17.2876 9.78751 17.6251C9.93751 17.8501 10.2 17.9626 10.4625 17.9626C10.65 17.9626 10.8 17.9251 10.95 17.7751L14.175 15.3376C14.4 15.1876 14.5125 14.9251 14.5125 14.6626C14.5125 14.4001 14.325 14.1376 14.1375 13.9876Z" fill="#161A23"/>
</svg>
