<svg width="24" height="24" viewBox="0 0 24 24" fill="none" xmlns="http://www.w3.org/2000/svg">
<path d="M9.7875 11.1751C10.425 10.9126 10.9125 10.5001 11.2125 10.0126C11.5125 9.52515 11.7 8.88765 11.7 8.21265C11.7 7.57515 11.5875 7.01265 11.4 6.52515C11.175 6.03765 10.875 5.66265 10.4625 5.40015C10.05 5.13765 9.6 4.91265 9.0375 4.80015C8.4375 4.68765 7.8375 4.65015 7.2 4.65015H0.375V18.9001H7.3125C7.95 18.9001 8.5875 18.8626 9.15 18.6376C9.7875 18.4876 10.3125 18.2251 10.8 17.8876C11.2875 17.5876 11.6625 17.1376 11.925 16.5751C12.1875 16.0501 12.3375 15.4126 12.3375 14.6626C12.3375 13.7626 12.1125 12.9751 11.7 12.3751C11.25 11.8501 10.6125 11.4376 9.7875 11.1751ZM3.5625 7.12515H6.525C6.7875 7.12515 7.05 7.16265 7.3125 7.16265C7.575 7.16265 7.8375 7.31265 7.9875 7.42515C8.2125 7.53765 8.3625 7.68765 8.475 7.95015C8.5875 8.17515 8.625 8.43765 8.625 8.81265C8.625 9.37515 8.475 9.86265 8.1 10.1251C7.725 10.3501 7.2375 10.5001 6.7125 10.5001H3.5625C3.5625 10.4251 3.5625 7.12515 3.5625 7.12515ZM9.0375 15.5626C8.925 15.8251 8.775 15.9751 8.5125 16.1251C8.2875 16.2751 8.025 16.3876 7.7625 16.3876C7.5 16.4251 7.2 16.4251 6.9 16.4251H3.525V12.5626H6.975C7.65 12.5626 8.175 12.7126 8.625 13.0501C9.0375 13.3501 9.2625 13.9126 9.2625 14.6251C9.1875 15.0001 9.1875 15.3001 9.0375 15.5626Z" fill="#15171A"/>
<path d="M23.4 12.1876C23.25 11.4376 22.9125 10.8001 22.5 10.2376C22.0875 9.67507 21.5625 9.22507 20.925 8.85007C20.2875 8.55007 19.5 8.32507 18.6375 8.32507C17.85 8.32507 17.1 8.47507 16.5375 8.73757C15.9 9.00007 15.3375 9.37507 14.85 9.90007C14.3625 10.3876 13.9875 10.9501 13.725 11.6251C13.4625 12.2626 13.3125 13.0126 13.3125 13.8001C13.3125 14.5876 13.425 15.3376 13.6875 16.0126C13.95 16.6876 14.325 17.2126 14.7375 17.7376C15.225 18.2251 15.75 18.6001 16.425 18.8626C17.0625 19.1251 17.8125 19.2751 18.6375 19.2751C19.8 19.2751 20.8125 19.0126 21.6375 18.4876C22.5 17.9626 23.0625 17.0626 23.475 15.7876H21C20.8875 16.0876 20.625 16.4251 20.25 16.6876C19.875 16.9501 19.35 17.1001 18.7875 17.1001C18 17.1001 17.3625 16.8751 16.95 16.4626C16.5375 16.0501 16.275 15.2626 16.275 14.4376H23.625C23.625 13.6501 23.5875 12.8626 23.4 12.1876ZM16.125 12.6751C16.125 12.4126 16.2375 12.1501 16.3125 11.9251C16.425 11.6626 16.5375 11.4001 16.725 11.2126C16.95 10.9876 17.25 10.7626 17.55 10.6126C17.85 10.4626 18.225 10.4626 18.5625 10.4626C19.2375 10.4626 19.8375 10.6876 20.1375 11.0251C20.4375 11.4001 20.7 11.9251 20.775 12.6751H16.125Z" fill="#15171A"/>
<path d="M21.3369 5.625H15.5244V7.05H21.3369V5.625Z" fill="#15171A"/>
</svg>
