<svg width="24" height="24" viewBox="0 0 24 24" fill="none" xmlns="http://www.w3.org/2000/svg">
<path d="M2.41091 17.4134C2.69626 17.6816 3.10717 17.8156 3.64363 17.8156H7.99239C9.30501 17.8156 10.338 17.5196 11.0913 16.9274C11.8561 16.324 12.2384 15.5028 12.2384 14.4637C12.2384 13.6816 12.0101 13.0391 11.5536 12.5363C11.1991 12.136 10.7253 11.849 10.1321 11.6753C10.6056 11.4824 10.9939 11.1996 11.2968 10.8268C11.7077 10.3352 11.9131 9.74302 11.9131 9.05028C11.9131 8.43575 11.7533 7.89944 11.4337 7.44134C11.1141 6.98324 10.6462 6.63129 10.0298 6.38547C9.42486 6.12849 8.68865 6 7.82118 6H3.64363C3.10717 6 2.69626 6.13967 2.41091 6.419C2.13697 6.68715 2 7.07821 2 7.59218V16.2235C2 16.7374 2.13697 17.1341 2.41091 17.4134ZM7.56436 15.5531H5.01332V12.9553H7.56436C8.14648 12.9553 8.5688 13.0615 8.83132 13.2737C9.10526 13.486 9.24223 13.8101 9.24223 14.2458C9.24223 14.6816 9.10526 15.0112 8.83132 15.2346C8.5688 15.4469 8.14648 15.5531 7.56436 15.5531ZM7.25618 10.6927H5.01332V8.26257H7.25618C7.82689 8.26257 8.2435 8.36313 8.50602 8.56425C8.77996 8.75419 8.91693 9.05587 8.91693 9.46927C8.91693 9.88268 8.77996 10.1899 8.50602 10.3911C8.2435 10.5922 7.82689 10.6927 7.25618 10.6927Z" fill="#15171A"/>
<path d="M15.7338 17.4804C16.4871 17.8268 17.3774 18 18.4047 18C18.8612 18 19.3121 17.9553 19.7572 17.8659C20.2138 17.7765 20.6418 17.6425 21.0413 17.4637C21.3038 17.352 21.4922 17.1955 21.6063 16.9944C21.7205 16.7821 21.7718 16.5698 21.7604 16.3575C21.749 16.1341 21.6805 15.9385 21.555 15.771C21.4408 15.5922 21.2753 15.4693 21.0584 15.4022C20.8416 15.324 20.5848 15.3408 20.288 15.4525C19.9912 15.5642 19.6773 15.6536 19.3463 15.7207C19.0267 15.7765 18.7414 15.8045 18.4903 15.8045C17.7369 15.8045 17.1777 15.6369 16.8124 15.3017C16.5738 15.0681 16.4156 14.7329 16.3379 14.2961H21.2125C21.4865 14.2961 21.6862 14.2458 21.8118 14.1453C21.9373 14.0335 22.0001 13.8659 22.0001 13.6425C22.0001 12.9944 21.9031 12.4078 21.709 11.8827C21.5264 11.3575 21.2525 10.9106 20.8872 10.5419C20.522 10.162 20.0825 9.87712 19.5689 9.68717C19.0553 9.48605 18.4846 9.3855 17.8568 9.3855C17.0007 9.3855 16.236 9.56985 15.5626 9.93857C14.9005 10.2961 14.3755 10.7989 13.9874 11.4469C13.6108 12.0838 13.4224 12.8268 13.4224 13.676C13.4224 14.5587 13.6222 15.324 14.0217 15.9721C14.4212 16.6201 14.9919 17.1229 15.7338 17.4804ZM16.3183 12.8883C16.3518 12.6555 16.408 12.4488 16.4871 12.2682C16.6241 11.9553 16.8181 11.7207 17.0692 11.5642C17.3317 11.3966 17.6399 11.3128 17.9938 11.3128C18.3248 11.3128 18.5987 11.3799 18.8156 11.514C19.0439 11.648 19.2151 11.8436 19.3292 12.1006C19.4226 12.3108 19.4778 12.5734 19.4948 12.8883H16.3183Z" fill="#15171A"/>
<path d="M15 6.25C14.5858 6.25 14.25 6.58579 14.25 7C14.25 7.41421 14.5858 7.75 15 7.75H21C21.4142 7.75 21.75 7.41421 21.75 7C21.75 6.58579 21.4142 6.25 21 6.25H15Z" fill="#15171A"/>
</svg>
