<svg width="24" height="24" viewBox="0 0 24 24" fill="none" xmlns="http://www.w3.org/2000/svg">
<path d="M10.9503 9.56257C11.2503 8.28757 10.9503 6.97507 10.1253 5.96257C9.3003 4.95007 8.1003 4.38757 6.8253 4.38757H2.88779C1.65029 4.38757 0.675293 5.40007 0.675293 6.60007V17.3251C0.675293 18.5626 1.68779 19.5376 2.88779 19.5376H6.7128C8.9253 19.5376 10.8003 17.9251 11.0253 15.8251C11.1753 14.6251 10.8003 13.4251 10.0128 12.5251C9.7878 12.3001 9.5628 12.0751 9.3378 11.8876C10.1253 11.3251 10.7628 10.5001 10.9503 9.56257ZM6.8628 12.8251C7.6128 12.8251 8.2878 13.1251 8.7753 13.6876C9.2628 14.2126 9.4878 14.9251 9.3753 15.6751C9.2253 16.9126 8.0628 17.8876 6.7128 17.8876H2.88779C2.58779 17.8876 2.36279 17.6626 2.36279 17.3626V12.8626H6.7503H6.8628V12.8251ZM9.3003 9.18757C9.0753 10.2001 7.8378 11.1376 6.7128 11.1376H2.36279V6.60007C2.36279 6.30007 2.58779 6.07507 2.88779 6.07507H6.8628C7.6503 6.07507 8.3628 6.41257 8.8503 7.05007C9.3003 7.65007 9.4878 8.40007 9.3003 9.18757Z" fill="#15171A"/>
<path d="M14.6628 6.37515H22.0503C22.5003 6.37515 22.9128 6.00015 22.9128 5.51265C22.9128 5.02515 22.5378 4.65015 22.0503 4.65015H14.6628C14.2128 4.65015 13.8003 5.02515 13.8003 5.51265C13.8003 6.00015 14.1753 6.37515 14.6628 6.37515Z" fill="#15171A"/>
<path d="M18.0756 9.07507C15.1506 9.07507 12.7881 11.4376 12.7881 14.3626C12.7881 17.2876 15.1506 19.6501 18.0756 19.6501C19.3506 19.6501 20.5881 19.2001 21.5256 18.3376C21.8631 18.0376 21.9006 17.5126 21.6006 17.1376C21.3006 16.8001 20.7756 16.7626 20.4006 17.0626C19.7631 17.6251 18.9006 17.9626 18.0381 17.9626C16.3506 17.9626 14.9256 16.8001 14.5506 15.2251H22.5006C22.9506 15.2251 23.3631 14.8501 23.3631 14.3626C23.3631 11.4376 20.9631 9.07507 18.0756 9.07507ZM18.0756 10.7626C19.7631 10.7626 21.1881 11.9251 21.5631 13.5001H14.5881C14.9631 11.9251 16.3881 10.7626 18.0756 10.7626Z" fill="#15171A"/>
</svg>
