<svg width="24" height="24" viewBox="0 0 24 24" fill="none" xmlns="http://www.w3.org/2000/svg">
<path d="M17.2874 18.7876H6.44992C6.18742 18.7876 5.92492 18.6751 5.77492 18.4126C5.62492 18.1876 5.58742 17.8876 5.69992 17.6626C6.37492 16.0126 6.48742 14.1376 6.48742 14.0626V14.0251V11.3626C6.48742 10.9126 6.11242 10.5376 5.66242 10.5376C5.21242 10.5376 4.83742 10.9126 4.83742 11.3626V13.9876C4.83742 14.1751 4.68742 15.7126 4.16242 17.0251C3.86242 17.8126 3.93742 18.6751 4.38742 19.3501C4.83742 20.0251 5.62492 20.4376 6.44992 20.4376H8.47492C8.77492 22.0501 10.1624 23.2876 11.8499 23.2876C13.5374 23.2876 14.9624 22.0501 15.2249 20.4376H17.2499C17.6999 20.4376 18.0749 20.0626 18.0749 19.6126C18.0749 19.1626 17.7749 18.7876 17.2874 18.7876ZM11.8874 21.6751C11.1374 21.6751 10.4999 21.1876 10.2374 20.5126H13.5374C13.2749 21.1501 12.6374 21.6751 11.8874 21.6751Z" fill="#161A23"/>
<path d="M21.8625 17.175L18.9375 15.15V15.1125V10.2375C18.9375 6.63755 16.2 3.63755 12.7125 3.22505V1.50005C12.7125 1.05005 12.3375 0.675049 11.8875 0.675049C11.4375 0.675049 11.0625 1.05005 11.0625 1.50005V3.26255C9.03754 3.48755 7.23754 4.61255 6.07504 6.30005L3.15004 4.27505C2.77504 4.01255 2.25004 4.12505 1.98754 4.50005C1.72504 4.87505 1.83754 5.40005 2.21254 5.66255L20.9625 18.6C21.1125 18.7125 21.2625 18.75 21.45 18.75C21.7125 18.75 21.975 18.6375 22.1625 18.375C22.35 18 22.2375 17.475 21.8625 17.175ZM11.8875 4.87505C14.85 4.87505 17.25 7.31255 17.25 10.275V14.025L7.42504 7.23755C8.43754 5.77505 10.0875 4.87505 11.8875 4.87505Z" fill="#161A23"/>
</svg>
