<svg width="24" height="24" viewBox="0 0 24 24" fill="none" xmlns="http://www.w3.org/2000/svg">
<path d="M19.725 17.0251C19.2 15.7126 19.05 14.175 19.05 13.9875V10.2375C19.05 6.63755 16.3125 3.63755 12.825 3.22505V1.50005C12.825 1.05005 12.45 0.675049 12 0.675049C11.55 0.675049 11.175 1.05005 11.175 1.50005V3.26255C7.68747 3.67505 4.94997 6.67505 4.94997 10.2751V14.0251C4.94997 14.2126 4.79997 15.7501 4.27497 17.0625C3.97497 17.85 4.04997 18.7126 4.49997 19.3876C4.94997 20.0626 5.73747 20.475 6.56247 20.475H8.62497C8.92497 22.0876 10.3125 23.3251 12 23.3251C13.6875 23.3251 15.1125 22.0876 15.375 20.475H17.4C18.225 20.475 19.0125 20.0626 19.4625 19.3876C19.95 18.6751 20.0625 17.8126 19.725 17.0251ZM12 21.6751C11.25 21.6751 10.6125 21.1876 10.35 20.5126H13.65C13.3875 21.1501 12.75 21.6751 12 21.6751ZM18.075 18.4501C17.925 18.6751 17.6625 18.8251 17.4 18.8251H6.59997C6.33747 18.8251 6.07497 18.7126 5.92497 18.4501C5.77497 18.225 5.73747 17.9251 5.84997 17.7001C6.52497 16.0501 6.63747 14.175 6.63747 14.1V14.0626V10.2751C6.63747 7.31255 9.03747 4.87505 12 4.87505C14.9625 4.87505 17.3625 7.27505 17.3625 10.2375V14.0251V14.0626C17.3625 14.1376 17.475 16.0125 18.15 17.6625C18.2625 17.9251 18.2625 18.225 18.075 18.4501Z" fill="#161A23"/>
</svg>
