<svg width="24" height="24" viewBox="0 0 24 24" fill="none" xmlns="http://www.w3.org/2000/svg">
<g clip-path="url(#clip0_501_38720)">
<path d="M16.8374 0.675049C14.4749 0.675049 12.4124 1.91255 11.2499 3.75005C10.6499 3.48755 10.0124 3.33755 9.33742 3.22505V1.50005C9.33742 1.05005 8.96242 0.675049 8.51242 0.675049C8.06242 0.675049 7.68742 1.05005 7.68742 1.50005V3.26255C6.11242 3.45005 4.64992 4.12505 3.52492 5.25005C2.17492 6.56255 1.46242 8.36255 1.46242 10.2375V13.9875C1.46242 14.175 1.31242 15.7126 0.787422 17.0251C0.487422 17.8126 0.562422 18.6751 1.01242 19.35C1.46242 20.025 2.24992 20.475 3.07492 20.475H5.09992C5.36242 22.0876 6.78742 23.3251 8.47492 23.3251C10.1624 23.3251 11.5874 22.0876 11.8499 20.475H13.8749C14.6999 20.475 15.4874 20.0625 15.9374 19.35C16.3874 18.6751 16.4999 17.7751 16.1624 17.0251C15.6374 15.7126 15.5249 14.175 15.4874 13.9875V13.6501C15.8999 13.7251 16.3124 13.7626 16.7624 13.7626C20.3999 13.7626 23.3249 10.8001 23.3249 7.20005C23.3249 3.60005 20.4749 0.675049 16.8374 0.675049ZM8.51242 21.6751C7.76242 21.6751 7.12492 21.1876 6.86242 20.5126H10.1624C9.89992 21.1501 9.26242 21.6751 8.51242 21.6751ZM13.8749 14.1C13.8749 14.175 13.9874 16.0126 14.6624 17.7001C14.7749 17.9626 14.7374 18.225 14.5874 18.4501C14.4374 18.6751 14.1749 18.8251 13.9124 18.8251H3.07492C2.81242 18.8251 2.54992 18.7126 2.39992 18.4501C2.24992 18.225 2.21242 17.9626 2.32492 17.7001C2.99992 16.0501 3.11242 14.175 3.11242 14.1V14.0626V10.2751C3.11242 8.85005 3.67492 7.50005 4.68742 6.48755C5.69992 5.47505 7.04992 4.91255 8.47492 4.91255C9.18742 4.91255 9.86242 5.06255 10.4999 5.32505C10.3124 5.92505 10.1999 6.60005 10.1999 7.27505C10.1999 9.82505 11.6624 12.0375 13.8374 13.1251V14.0626C13.8749 14.0626 13.8749 14.0625 13.8749 14.1ZM16.8374 12.1125C14.1374 12.1125 11.9624 9.93755 11.9624 7.23755C11.9624 4.53755 14.1374 2.36255 16.8374 2.36255C19.5374 2.36255 21.7124 4.53755 21.7124 7.23755C21.7124 9.93755 19.5374 12.1125 16.8374 12.1125Z" fill="#161A23"/>
<path d="M18.225 6.2251H15.45C15 6.2251 14.625 6.6001 14.625 7.0501C14.625 7.5001 15 7.8751 15.45 7.8751H18.225C18.675 7.8751 19.05 7.5001 19.05 7.0501C19.05 6.6001 18.675 6.2251 18.225 6.2251Z" fill="#161A23"/>
</g>
<defs>
<clipPath id="clip0_501_38720">
<rect width="24" height="24" fill="white"/>
</clipPath>
</defs>
</svg>
