<svg width="24" height="24" viewBox="0 0 24 24" fill="none" xmlns="http://www.w3.org/2000/svg">
<path d="M18.5999 13.8751V10.3876C18.5999 7.01255 16.0874 4.27505 12.8249 3.82505V2.25005C12.8249 1.80005 12.4499 1.42505 11.9999 1.42505C11.5499 1.42505 11.1749 1.80005 11.1749 2.25005V3.82505C7.91237 4.23755 5.39987 7.01255 5.39987 10.3876V13.8751C5.39987 14.0626 5.28737 15.4501 4.79987 16.6501C4.49987 17.4001 4.57487 18.225 5.02487 18.8626C5.47487 19.5375 6.18737 19.9125 7.01237 19.9125H8.84987C9.14987 21.4125 10.4624 22.5751 12.0374 22.5751C13.6124 22.5751 14.9624 21.4501 15.2249 19.9125H17.0624C17.8499 19.9125 18.5999 19.5375 19.0499 18.8626C19.4999 18.1875 19.5749 17.3626 19.2749 16.6501C18.7499 15.4501 18.6374 14.0251 18.5999 13.8751ZM11.9999 20.8876C11.3624 20.8876 10.7999 20.475 10.5749 19.9125H13.4624C13.1999 20.475 12.6374 20.8876 11.9999 20.8876ZM17.5874 17.9251C17.4749 18.1126 17.2499 18.225 17.0249 18.225H6.97487C6.74987 18.225 6.52487 18.1126 6.41237 17.9251C6.29987 17.7376 6.26237 17.475 6.33737 17.2875C6.97487 15.75 7.08737 14.0251 7.08737 13.9501V13.9125V10.425C7.08737 7.72505 9.29987 5.51255 11.9999 5.51255C14.6999 5.51255 16.9124 7.72505 16.9124 10.425V13.8751V13.9125C16.9124 13.9875 17.0249 15.7126 17.6624 17.2501C17.7374 17.5126 17.7374 17.7376 17.5874 17.9251Z" fill="#161A23"/>
<path d="M4.87495 2.81256C4.53745 2.51256 4.01245 2.51256 3.67495 2.85006C1.72495 4.95006 0.637451 7.68756 0.637451 10.5751C0.637451 11.0251 1.01245 11.4001 1.46245 11.4001C1.91245 11.4001 2.28745 11.0251 2.28745 10.5751C2.28745 8.13756 3.18745 5.81256 4.87495 4.01256C5.24995 3.67506 5.21245 3.15006 4.87495 2.81256Z" fill="#161A23"/>
<path d="M20.3249 2.88752C20.0249 2.55002 19.4624 2.51252 19.1249 2.85002C18.7874 3.15002 18.7499 3.71252 19.0874 4.05002C20.7374 5.85002 21.6749 8.17502 21.6749 10.6125C21.6749 11.0625 22.0499 11.4375 22.4999 11.4375C22.9499 11.4375 23.3249 11.0625 23.3249 10.6125C23.3249 7.72502 22.2749 4.98752 20.3249 2.88752Z" fill="#161A23"/>
</svg>
