<svg width="24" height="24" viewBox="0 0 24 24" fill="none" xmlns="http://www.w3.org/2000/svg">
<path d="M22.9125 14.2875L22.275 13.95C21.4875 13.5 20.8125 12.825 20.475 12L19.6875 9.74999C19.275 8.54999 18.4125 7.57499 17.2875 7.01249C16.3875 6.56249 15.375 6.41249 14.4 6.59999L14.1375 5.81249C13.9875 5.36249 13.5 5.13749 13.05 5.28749C12.6 5.43749 12.375 5.92499 12.525 6.37499L12.7875 7.16249C12.7125 7.19999 12.6 7.27499 12.525 7.31249C12.1875 6.93749 11.8125 6.63749 11.3625 6.37499L11.6625 5.58749C11.8125 5.13749 11.5875 4.64999 11.175 4.49999C10.725 4.34999 10.2375 4.57499 10.0875 4.98749L9.78748 5.77499C8.81248 5.58749 7.79998 5.69999 6.89998 6.14999C5.73748 6.67499 4.87498 7.64999 4.42498 8.84999L3.59998 11.0625V11.1C3.22498 11.925 2.54998 12.6 1.76248 13.0125L1.12498 13.275C0.824982 13.425 0.637482 13.725 0.674982 14.0625C0.712482 14.4 0.899982 14.7 1.23748 14.8125L6.11248 16.6125L5.69998 17.7375C5.54998 18.1875 5.77498 18.675 6.18748 18.825C6.29998 18.8625 6.37498 18.8625 6.48748 18.8625C6.82498 18.8625 7.16248 18.6375 7.27498 18.3L7.68748 17.175L10.8 18.3L10.7625 18.375C10.6125 18.675 10.6875 19.05 10.9125 19.275C11.0625 19.4625 11.2875 19.5375 11.55 19.5375C11.625 19.5375 11.7375 19.5375 11.8125 19.5L16.4625 17.925L16.875 18.8625C17.025 19.2 17.325 19.3875 17.6625 19.3875C17.775 19.3875 17.8875 19.35 18 19.3125C18.4125 19.125 18.6375 18.6375 18.45 18.225L18.1125 17.3625L22.8375 15.75C23.1375 15.6375 23.3625 15.375 23.4 15.0375C23.4375 14.7 23.2125 14.4375 22.9125 14.2875ZM5.13748 11.7375L5.17498 11.6625V11.625L5.99998 9.37499C6.29998 8.58749 6.86248 7.98749 7.61248 7.64999C8.36248 7.31249 9.18748 7.27499 9.97498 7.53749L10.05 7.57499C10.0875 7.57499 10.0875 7.57499 10.125 7.61249C10.575 7.79999 10.95 8.06249 11.2875 8.39999C11.1 8.66249 10.9125 8.92499 10.7625 9.22499C10.2 10.35 10.125 11.6625 10.5375 12.8625L11.2875 15.1125V15.15C11.4375 15.675 11.4375 16.2375 11.3625 16.7625L3.44998 13.8375C4.16248 13.275 4.76248 12.5625 5.13748 11.7375ZM12.9375 17.3625C13.125 16.4625 13.125 15.5625 12.9 14.6625L12.8625 14.5875V14.55L12.1125 12.3C11.85 11.5125 11.8875 10.6875 12.2625 9.93749C12.6375 9.18749 13.2375 8.66249 14.025 8.39999L14.1375 8.36249C14.475 8.24999 14.8125 8.21249 15.1125 8.21249C15.5625 8.21249 16.05 8.32499 16.4625 8.54999C17.2125 8.92499 17.7375 9.52499 18 10.3125L18.75 12.5625V12.6L18.7875 12.675C19.1625 13.5 19.725 14.25 20.4 14.8125L12.9375 17.3625Z" fill="#161A23"/>
</svg>
