<svg width="24" height="24" viewBox="0 0 24 24" fill="none" xmlns="http://www.w3.org/2000/svg">
<path d="M18.675 6.56245V4.72495C18.675 2.47495 16.875 0.637451 14.625 0.637451H10.725C9.63748 0.637451 8.73748 1.53745 8.73748 2.62495V20.775C8.73748 21.2625 8.36248 21.6375 7.87498 21.6375C7.38748 21.6375 7.01248 21.2625 7.01248 20.775V18.6C7.01248 18.15 6.63748 17.7374 6.14998 17.7374C5.66248 17.7374 5.28748 18.1124 5.28748 18.6V20.775C5.28748 22.2 6.44998 23.325 7.83748 23.325C9.22498 23.325 10.3875 22.1625 10.3875 20.775V18.825H14.625C16.8375 18.825 18.675 17.025 18.675 14.775V12.9375C18.675 11.625 18.0375 10.4625 17.1 9.74995C18.0375 8.99995 18.675 7.83745 18.675 6.56245ZM16.9875 12.9375V14.775C16.9875 16.0875 15.9375 17.1375 14.625 17.1375H10.425V10.575H14.625C15.9375 10.575 16.9875 11.6625 16.9875 12.9375ZM10.425 8.88745V2.62495C10.425 2.47495 10.5375 2.32495 10.725 2.32495H14.625C15.9375 2.32495 16.9875 3.37495 16.9875 4.68745V6.52495C16.9875 7.83745 15.9375 8.88745 14.625 8.88745H10.425Z" fill="#161A23"/>
</svg>
