<svg width="24" height="24" viewBox="0 0 24 24" fill="none" xmlns="http://www.w3.org/2000/svg">
<path d="M4.87505 13.5375C2.55005 13.5375 0.675049 15.4125 0.675049 17.7375C0.675049 20.0625 2.55005 21.9375 4.87505 21.9375C7.20005 21.9375 9.07505 20.0625 9.07505 17.7375C9.07505 15.4125 7.20005 13.5375 4.87505 13.5375ZM4.87505 20.2875C3.48755 20.2875 2.36255 19.1625 2.36255 17.775C2.36255 16.3875 3.48755 15.2625 4.87505 15.2625C6.26255 15.2625 7.38755 16.3875 7.38755 17.775C7.38755 19.1625 6.26255 20.2875 4.87505 20.2875Z" fill="#161A23"/>
<path d="M19.1625 13.5751C16.8375 13.5751 14.9625 15.4501 14.9625 17.7751C14.9625 20.1001 16.8375 21.9751 19.1625 21.9751C21.4875 21.9751 23.3625 20.1001 23.3625 17.7751C23.3625 15.4501 21.45 13.5751 19.1625 13.5751ZM19.1625 20.2501C17.775 20.2501 16.65 19.1251 16.65 17.7376C16.65 16.3501 17.775 15.2251 19.1625 15.2251C20.55 15.2251 21.675 16.3501 21.675 17.7376C21.675 19.1251 20.55 20.2501 19.1625 20.2501Z" fill="#161A23"/>
<path d="M17.3251 11.4376C17.6251 11.8126 18.1501 11.8501 18.5251 11.5876C18.9001 11.2876 18.9376 10.7626 18.6751 10.3876L15.4876 6.33757L15.4125 6.26257C15.0375 5.88757 14.5126 5.81257 14.0626 6.03757L9.71255 8.58757C9.41255 8.77507 9.18755 9.07507 9.15005 9.41257C9.11255 9.75007 9.22505 10.0501 9.45005 10.3126L10.8751 11.9626C11.0626 12.1876 11.1751 12.4876 11.1751 12.8251V15.3376C11.1751 15.7876 11.5501 16.2001 12.0376 16.2001C12.4876 16.2001 12.9001 15.8251 12.9001 15.3376V12.8251C12.9001 12.1126 12.6376 11.4001 12.1876 10.8751L11.1751 9.71257L14.4751 7.76257L17.3251 11.4376Z" fill="#161A23"/>
<path d="M18.225 6.63752C19.5 6.63752 20.5125 5.62502 20.5125 4.35002C20.5125 3.07502 19.5 2.02502 18.225 2.02502C16.95 2.02502 15.9375 3.03752 15.9375 4.31252C15.9375 5.58752 16.95 6.63752 18.225 6.63752ZM18.225 3.71252C18.5625 3.71252 18.825 3.97502 18.825 4.31252C18.825 4.65002 18.5625 4.91252 18.225 4.91252C17.8875 4.91252 17.625 4.68752 17.625 4.35002C17.625 4.01252 17.8875 3.71252 18.225 3.71252Z" fill="#161A23"/>
</svg>
