<svg width="24" height="24" viewBox="0 0 24 24" fill="none" xmlns="http://www.w3.org/2000/svg">
<path d="M21 1.5H3C1.725 1.5 0.637497 2.55 0.637497 3.8625V15.2625C0.674997 16.575 1.725 17.625 3 17.625H8.475V21.6375C8.475 22.0875 8.85 22.5 9.3375 22.5C9.825 22.5 10.2 22.125 10.2 21.6375V17.625H13.9125V21.6375C13.9125 22.0875 14.2875 22.5 14.775 22.5C15.2625 22.5 15.6375 22.125 15.6375 21.6375V17.625H21C22.275 17.625 23.3625 16.575 23.3625 15.2625V3.8625C23.3625 2.55 22.275 1.5 21 1.5ZM21.675 15.2625C21.675 15.6375 21.375 15.9375 21 15.9375H3C2.625 15.9375 2.325 15.6375 2.325 15.2625V3.8625C2.325 3.4875 2.625 3.1875 3 3.1875H5.3625V4.6125H4.575C4.125 4.6125 3.7125 4.9875 3.7125 5.475C3.7125 5.9625 4.0875 6.3375 4.575 6.3375H7.8375C8.2875 6.3375 8.7 5.9625 8.7 5.475C8.7 4.9875 8.325 4.6125 7.8375 4.6125H7.05V3.1875H11.1375V4.6125H10.35C9.9 4.6125 9.4875 4.9875 9.4875 5.475C9.4875 5.9625 9.8625 6.3375 10.35 6.3375H13.6125C14.0625 6.3375 14.475 5.9625 14.475 5.475C14.475 4.9875 14.1 4.6125 13.6125 4.6125H12.825V3.1875H16.9125V4.6125H16.125C15.675 4.6125 15.2625 4.9875 15.2625 5.475C15.2625 5.9625 15.6375 6.3375 16.125 6.3375H19.3875C19.8375 6.3375 20.25 5.9625 20.25 5.475C20.25 4.9875 19.875 4.6125 19.3875 4.6125H18.6V3.1875H21C21.375 3.1875 21.675 3.4875 21.675 3.8625V15.2625Z" fill="#161A23"/>
</svg>
