<svg width="24" height="24" viewBox="0 0 24 24" fill="none" xmlns="http://www.w3.org/2000/svg">
<path d="M10.125 12.3375H11.9625C12.4125 12.3375 12.825 11.9625 12.825 11.5125C12.825 11.0625 12.45 10.6875 11.9625 10.6875H11.6625C11.6625 10.2375 11.2875 9.86255 10.8375 9.86255C10.3875 9.86255 10.0125 10.2375 10.0125 10.6875C9.07501 10.7625 8.32501 11.55 8.32501 12.4875C8.32501 13.5 9.15001 14.325 10.1625 14.325H11.025C11.1 14.325 11.175 14.4 11.175 14.475C11.175 14.55 11.1 14.625 11.025 14.625H9.18751C8.73751 14.625 8.36251 15 8.36251 15.45C8.36251 15.9 8.73751 16.275 9.18751 16.275H10.05C10.05 16.725 10.425 17.1 10.875 17.1C11.325 17.1 11.7 16.725 11.7 16.275V16.125C12.375 15.8625 12.825 15.1875 12.825 14.4375C12.825 13.425 12 12.6 10.9875 12.6H10.125C10.05 12.6 9.97501 12.525 9.97501 12.45C9.97501 12.375 10.05 12.3375 10.125 12.3375Z" fill="#161A23"/>
<path d="M18.4875 6.60004H2.62499C1.34999 6.60004 0.299988 7.65004 0.299988 8.92504V17.925C0.299988 19.2 1.34999 20.25 2.62499 20.25H18.4875C19.7625 20.25 20.8125 19.2 20.8125 17.925V8.92504C20.85 7.65004 19.8 6.60004 18.4875 6.60004ZM19.1625 17.925C19.1625 18.3 18.8625 18.6 18.4875 18.6H2.62499C2.24999 18.6 1.94999 18.3 1.94999 17.925V8.92504C1.94999 8.55004 2.24999 8.25004 2.62499 8.25004H18.4875C18.8625 8.25004 19.1625 8.55004 19.1625 8.92504V17.925Z" fill="#161A23"/>
<path d="M21.375 3.71252H5.43749C4.98749 3.71252 4.61249 4.08752 4.61249 4.53752C4.61249 4.98752 4.98749 5.36252 5.43749 5.36252H21.375C21.75 5.36252 22.05 5.66252 22.05 6.03752V15.075C22.05 15.525 22.425 15.9 22.875 15.9C23.325 15.9 23.7 15.525 23.7 15.075V6.07502C23.7 4.76252 22.65 3.71252 21.375 3.71252Z" fill="#161A23"/>
<path d="M5.92496 12.6375H4.53746C4.08746 12.6375 3.71246 13.0125 3.71246 13.4625C3.71246 13.9125 4.08746 14.2875 4.53746 14.2875H5.92496C6.37496 14.2875 6.74996 13.9125 6.74996 13.4625C6.74996 13.0125 6.37496 12.6375 5.92496 12.6375Z" fill="#161A23"/>
<path d="M16.95 12.6375H15.5625C15.1125 12.6375 14.7375 13.0125 14.7375 13.4625C14.7375 13.9125 15.1125 14.2875 15.5625 14.2875H16.95C17.4 14.2875 17.775 13.9125 17.775 13.4625C17.775 13.0125 17.4375 12.6375 16.95 12.6375Z" fill="#161A23"/>
</svg>
