<svg width="24" height="24" viewBox="0 0 24 24" fill="none" xmlns="http://www.w3.org/2000/svg">
<path d="M9.41246 13.0126H11.1C11.55 13.0126 11.925 12.6376 11.925 12.1876C11.925 11.7376 11.55 11.3626 11.1 11.3626H10.875C10.8375 10.9501 10.4625 10.5751 10.05 10.5751C9.59996 10.5751 9.22496 10.9126 9.22496 11.3626C8.36246 11.4751 7.64996 12.1876 7.64996 13.0876C7.64996 14.0626 8.43746 14.8126 9.41246 14.8126H10.2C10.2375 14.8126 10.275 14.8501 10.275 14.8501C10.275 14.8501 10.2375 14.8876 10.2 14.8876H8.51246C8.06246 14.8876 7.68746 15.2626 7.68746 15.7126C7.68746 16.1626 8.06246 16.5376 8.51246 16.5376H9.22496C9.26246 16.9501 9.63746 17.3251 10.05 17.3251C10.5 17.3251 10.875 16.9501 10.875 16.5001V16.4251C11.475 16.1626 11.925 15.5626 11.925 14.8501C11.925 13.8751 11.1375 13.1251 10.1625 13.1251H9.37496C9.33746 13.1251 9.29996 13.0876 9.29996 13.0876C9.29996 13.0876 9.37496 13.0126 9.41246 13.0126Z" fill="#161A23"/>
<path d="M21.375 3.67505H7.04999C5.77499 3.67505 4.72499 4.72505 4.72499 6.00005V7.61255H2.62499C1.34999 7.61255 0.299988 8.66255 0.299988 9.93755V18.0001C0.299988 19.2751 1.34999 20.3251 2.62499 20.3251H16.95C18.225 20.3251 19.275 19.2751 19.275 18.0001V16.3876H21.375C22.65 16.3876 23.7 15.3376 23.7 14.0625V6.00005C23.7375 4.72505 22.65 3.67505 21.375 3.67505ZM17.625 18.0001C17.625 18.3751 17.325 18.675 16.95 18.675H2.62499C2.24999 18.675 1.94999 18.3751 1.94999 18.0001V9.97505C1.94999 9.60005 2.24999 9.30005 2.62499 9.30005H16.95C17.325 9.30005 17.625 9.60005 17.625 9.97505V18.0001ZM22.05 14.0251C22.05 14.4001 21.75 14.7001 21.375 14.7001H19.3125V9.97505C19.3125 8.70005 18.2625 7.65005 16.9875 7.65005H6.37499V6.00005C6.37499 5.62505 6.67499 5.32505 7.04999 5.32505H21.375C21.75 5.32505 22.05 5.62505 22.05 6.00005V14.0251Z" fill="#161A23"/>
<path d="M5.55001 13.1626H4.27501C3.82501 13.1626 3.45001 13.5376 3.45001 13.9876C3.45001 14.4376 3.82501 14.8126 4.27501 14.8126H5.55001C6.00001 14.8126 6.37501 14.4376 6.37501 13.9876C6.37501 13.5376 6.00001 13.1626 5.55001 13.1626Z" fill="#161A23"/>
<path d="M15.675 13.1626H14.4C13.95 13.1626 13.575 13.5376 13.575 13.9876C13.575 14.4376 13.95 14.8126 14.4 14.8126H15.675C16.125 14.8126 16.5 14.4376 16.5 13.9876C16.5 13.5376 16.125 13.1626 15.675 13.1626Z" fill="#161A23"/>
</svg>
