<svg width="24" height="24" viewBox="0 0 24 24" fill="none" xmlns="http://www.w3.org/2000/svg">
<path d="M20.2875 4.16245H18.75V2.36245H19.0875C19.5375 2.36245 19.95 1.98745 19.95 1.49995C19.95 1.01245 19.575 0.637451 19.0875 0.637451H16.725C16.275 0.637451 15.8625 1.01245 15.8625 1.49995C15.8625 1.98745 16.2375 2.36245 16.725 2.36245H17.0625V4.19995H12.8625V2.36245H13.2C13.65 2.36245 14.0625 1.98745 14.0625 1.49995C14.0625 1.01245 13.6875 0.637451 13.2 0.637451H10.8375C10.3875 0.637451 9.97501 1.01245 9.97501 1.49995C9.97501 1.98745 10.35 2.36245 10.8375 2.36245H11.175V4.19995H6.93751V2.36245H7.27501C7.72501 2.36245 8.13751 1.98745 8.13751 1.49995C8.13751 1.01245 7.76251 0.637451 7.27501 0.637451H4.91251C4.46251 0.637451 4.05001 1.01245 4.05001 1.49995C4.05001 1.98745 4.42501 2.36245 4.91251 2.36245H5.25001V4.19995H3.71251C2.43751 4.19995 1.35001 5.24995 1.35001 6.56245V16.4999C1.35001 17.775 2.40001 18.8624 3.71251 18.8624H4.08751V22.4999C4.08751 22.9499 4.46251 23.3624 4.95001 23.3624C5.43751 23.3624 5.81251 22.9874 5.81251 22.4999V18.8249H18.3V22.4999C18.3 22.9499 18.675 23.3624 19.1625 23.3624C19.65 23.3624 20.025 22.9874 20.025 22.4999V18.8249H20.4C21.675 18.8249 22.7625 17.775 22.7625 16.4625V6.52495C22.65 5.21245 21.6 4.16245 20.2875 4.16245ZM20.9625 16.4625C20.9625 16.8375 20.6625 17.1374 20.2875 17.1374H3.71251C3.33751 17.1374 3.03751 16.8375 3.03751 16.4625V6.52495C3.03751 6.14995 3.33751 5.84995 3.71251 5.84995H20.2875C20.6625 5.84995 20.9625 6.14995 20.9625 6.52495V16.4625Z" fill="#161A23"/>
</svg>
