<svg width="24" height="24" viewBox="0 0 24 24" fill="none" xmlns="http://www.w3.org/2000/svg">
<path d="M20.2875 4.16245H18.75V2.36245H19.0875C19.5375 2.36245 19.95 1.98745 19.95 1.49995C19.95 1.01245 19.575 0.637451 19.0875 0.637451H16.725C16.275 0.637451 15.8625 1.01245 15.8625 1.49995C15.8625 1.98745 16.2375 2.36245 16.725 2.36245H17.0625V4.19995H12.8625V2.36245H13.2C13.65 2.36245 14.0625 1.98745 14.0625 1.49995C14.0625 1.01245 13.6875 0.637451 13.2 0.637451H10.8375C10.3875 0.637451 9.97501 1.01245 9.97501 1.49995C9.97501 1.98745 10.35 2.36245 10.8375 2.36245H11.175V4.19995H6.93751V2.36245H7.27501C7.72501 2.36245 8.13751 1.98745 8.13751 1.49995C8.13751 1.01245 7.76251 0.637451 7.27501 0.637451H4.91251C4.46251 0.637451 4.05001 1.01245 4.05001 1.49995C4.05001 1.98745 4.42501 2.36245 4.91251 2.36245H5.25001V4.19995H3.71251C2.43751 4.19995 1.35001 5.24995 1.35001 6.56245V16.5C1.35001 17.775 2.40001 18.8624 3.71251 18.8624H8.66251V21.7125H6.45001C6.00001 21.7125 5.58751 22.0875 5.58751 22.575C5.58751 23.0625 5.96251 23.4375 6.45001 23.4375H17.55C18 23.4375 18.4125 23.0625 18.4125 22.575C18.4125 22.0875 18.0375 21.7125 17.55 21.7125H15.3375V18.8624H20.2875C21.5625 18.8624 22.65 17.8125 22.65 16.5V6.52495C22.65 5.21245 21.6 4.16245 20.2875 4.16245ZM13.65 21.6749H10.3125V18.825H13.65V21.6749ZM20.9625 16.4625C20.9625 16.8375 20.6625 17.1375 20.2875 17.1375H3.71251C3.33751 17.1375 3.03751 16.8375 3.03751 16.4625V6.52495C3.03751 6.14995 3.33751 5.84995 3.71251 5.84995H20.2875C20.6625 5.84995 20.9625 6.14995 20.9625 6.52495V16.4625Z" fill="#161A23"/>
</svg>
