<svg width="24" height="24" viewBox="0 0 24 24" fill="none" xmlns="http://www.w3.org/2000/svg">
<path d="M7.94971 5.02478C7.94971 6.41228 10.1247 6.93728 11.9997 6.93728C13.8747 6.93728 16.0497 6.44978 16.0497 5.02478C16.0497 3.59978 13.8747 3.14978 11.9997 3.14978C10.1247 3.14978 7.94971 3.63728 7.94971 5.02478ZM11.9997 5.24978C11.2122 5.24978 10.5747 5.13728 10.1622 5.02478C10.5747 4.91228 11.2122 4.79978 11.9997 4.79978C12.7872 4.79978 13.4247 4.91228 13.8372 5.02478C13.4247 5.13728 12.7872 5.24978 11.9997 5.24978Z" fill="#15171A"/>
<path d="M11.9991 8.39978C10.6866 8.39978 9.59912 9.48728 9.59912 10.7998C9.59912 12.1123 10.6866 13.1998 11.9991 13.1998C13.3116 13.1998 14.3991 12.1123 14.3991 10.7998C14.3991 9.48728 13.3116 8.39978 11.9991 8.39978ZM11.9991 11.5123C11.6241 11.5123 11.2866 11.1748 11.2866 10.7998C11.2866 10.4248 11.5866 10.0873 11.9991 10.0873C12.4116 10.0873 12.7116 10.4248 12.7116 10.7998C12.7116 11.1748 12.3741 11.5123 11.9991 11.5123Z" fill="#15171A"/>
<path d="M19.1993 1.91243C17.3243 1.08743 14.1743 0.674927 11.9993 0.674927C9.82429 0.674927 6.63679 1.08743 4.79929 1.91243C4.38679 2.09993 4.12429 2.51243 4.19929 2.96243L5.13679 12.7124C5.17429 13.0499 5.39929 13.3874 5.69929 13.5374C6.56179 13.9874 9.56179 15.3749 11.9993 15.3749C14.6243 15.3749 17.0618 14.6624 18.5243 13.4249C18.7493 13.2374 18.8618 13.0124 18.8993 12.7124L19.8368 2.92493C19.8743 2.51243 19.6118 2.06243 19.1993 1.91243ZM17.2118 12.2999C16.0493 13.1624 14.0618 13.6874 11.9993 13.6874C10.1618 13.6874 7.68679 12.5999 6.74929 12.1874L5.88679 3.26243C7.38679 2.73743 9.89929 2.32493 11.9993 2.32493C14.0993 2.32493 16.5743 2.69993 18.1118 3.26243L17.2118 12.2999Z" fill="#15171A"/>
<path d="M18.0745 15.0751C17.7745 14.8501 17.3995 14.8126 17.062 14.9626L16.9495 15.0001C15.9745 15.4126 13.9495 16.3126 11.9995 16.2751C9.82451 16.2376 7.79951 15.3376 6.93701 14.9626C6.59951 14.8126 6.18701 14.8501 5.92451 15.0751C5.62451 15.3001 5.47451 15.6751 5.51201 16.0501L6.11201 21.3376C6.14951 21.7126 6.37451 22.0501 6.74951 22.2376C8.17451 22.9501 10.0495 23.3626 11.9995 23.3626C13.9495 23.3626 15.8245 22.9501 17.2495 22.2376C17.587 22.0501 17.812 21.7126 17.887 21.3376L18.487 16.0501C18.5245 15.6751 18.3745 15.3001 18.0745 15.0751ZM16.237 20.8501C15.0745 21.3751 13.5745 21.6751 11.9995 21.6751C10.4245 21.6751 8.92451 21.3751 7.76201 20.8501L7.31201 16.9501C8.47451 17.4001 10.162 17.9251 11.962 17.9626C13.7245 18.0001 15.4495 17.4376 16.6495 16.9501L16.237 20.8501Z" fill="#15171A"/>
</svg>
