<svg width="24" height="24" viewBox="0 0 24 24" fill="none" xmlns="http://www.w3.org/2000/svg">
<path d="M17.9625 11.9626C19.3875 11.0626 20.325 9.56257 20.4 7.83757C20.4 7.72507 20.4 7.57507 20.4 7.46257C20.325 4.53757 17.775 2.17507 14.7375 2.17507H13.425V1.50007C13.425 1.05007 13.05 0.637573 12.5625 0.637573C12.1125 0.637573 11.7 1.01257 11.7 1.50007V2.17507H10.2375V1.50007C10.2375 1.05007 9.8625 0.637573 9.375 0.637573C8.8875 0.637573 8.5125 1.01257 8.5125 1.50007V2.17507H4.425C3.975 2.17507 3.5625 2.55007 3.5625 3.03757C3.5625 3.52507 3.9375 3.90007 4.425 3.90007H5.1V20.1376H4.425C3.975 20.1376 3.5625 20.5126 3.5625 21.0001C3.5625 21.4876 3.9375 21.8626 4.425 21.8626H8.5875V22.6126C8.5875 23.0626 8.9625 23.4751 9.45 23.4751C9.9375 23.4751 10.3125 23.1001 10.3125 22.6126V21.8626H11.775V22.6126C11.775 23.0626 12.15 23.4751 12.6375 23.4751C13.0875 23.4751 13.5 23.1001 13.5 22.6126V21.8626H14.775C17.8125 21.8626 20.3625 19.5001 20.4375 16.5751C20.4375 16.4251 20.4375 16.3126 20.4375 16.1626C20.325 14.3626 19.35 12.8626 17.9625 11.9626ZM6.7875 3.86257H14.7C16.8375 3.86257 18.6375 5.51257 18.675 7.53757C18.675 7.61257 18.675 7.72507 18.675 7.80007C18.6 9.63757 16.9875 11.1376 15.0375 11.1376H6.7875V3.86257ZM18.675 16.3876C18.6 18.4126 16.8375 20.0626 14.7 20.0626H6.7875V12.8251H15.075C16.9875 12.8251 18.6375 14.2876 18.675 16.1251C18.675 16.2001 18.675 16.3126 18.675 16.3876Z" fill="#15171A"/>
</svg>
