<svg width="24" height="24" viewBox="0 0 24 24" fill="none" xmlns="http://www.w3.org/2000/svg">
<g clip-path="url(#clip0_501_52062)">
<path d="M15.7876 10.2751C15.7501 9.0751 14.8501 8.1001 13.6876 7.8376V7.6126C13.6876 7.1626 13.3126 6.7876 12.8626 6.7876C12.4126 6.7876 12.0376 7.1626 12.0376 7.6126V7.7626H11.4751V7.6126C11.4751 7.1626 11.1001 6.7876 10.6501 6.7876C10.2001 6.7876 9.8251 7.1626 9.8251 7.6126V7.7626H9.1126C8.6626 7.7626 8.2876 8.1376 8.2876 8.5876C8.2876 9.0376 8.6251 9.3751 9.0376 9.4126V14.4751C8.6251 14.5126 8.2876 14.8876 8.2876 15.3001C8.2876 15.7501 8.6626 16.1251 9.1126 16.1251H9.7501V16.3126C9.7501 16.7626 10.1251 17.1376 10.5751 17.1376C11.0251 17.1376 11.4001 16.7626 11.4001 16.3126V16.1251H12.0001V16.3126C12.0001 16.7626 12.3751 17.1376 12.8251 17.1376C13.2751 17.1376 13.6501 16.7626 13.6501 16.3126V16.1251C14.8126 15.8626 15.6751 14.8876 15.7501 13.6876C15.7501 13.6126 15.7501 13.5751 15.7501 13.5001C15.7126 12.9376 15.4876 12.4126 15.1126 12.0001C15.4876 11.5876 15.7126 11.0626 15.7501 10.4626C15.7876 10.3876 15.7876 10.3501 15.7876 10.2751ZM14.1001 10.3501C14.1001 10.3876 14.1001 10.3876 14.1001 10.4251C14.1001 10.8376 13.7251 11.1751 13.2751 11.1751H10.6876V9.4876H13.1251C13.6501 9.4501 14.0626 9.8626 14.1001 10.3501ZM14.0626 13.6126C14.0626 13.6126 14.0626 13.6501 14.0626 13.6126C14.0626 14.1001 13.6126 14.4751 13.0876 14.4751H10.6501V12.8251H13.2376C13.6876 12.8251 14.0626 13.1626 14.0626 13.5376C14.0626 13.5751 14.1001 13.6126 14.0626 13.6126Z" fill="#161A23"/>
<path d="M22.8751 12.8251C23.3251 12.8251 23.7001 12.4501 23.7001 12C23.7001 11.55 23.3251 11.175 22.8751 11.175H20.2875V8.06255H22.8751C23.3251 8.06255 23.7001 7.68755 23.7001 7.23755C23.7001 6.78755 23.3251 6.41255 22.8751 6.41255H20.2875V5.73755C20.2875 4.65005 19.3876 3.78755 18.3376 3.78755H17.6625V1.12505C17.6625 0.675049 17.2876 0.300049 16.8376 0.300049C16.3876 0.300049 16.0126 0.675049 16.0126 1.12505V3.71255H12.9001V1.12505C12.9001 0.675049 12.5251 0.300049 12.0751 0.300049C11.6251 0.300049 11.25 0.675049 11.25 1.12505V3.71255H8.13755V1.12505C8.13755 0.675049 7.76255 0.300049 7.31255 0.300049C6.86255 0.300049 6.48755 0.675049 6.48755 1.12505V3.71255H5.81255C4.72505 3.71255 3.86255 4.61255 3.86255 5.66255V6.33755H1.12505C0.675049 6.33755 0.300049 6.71255 0.300049 7.16255C0.300049 7.61255 0.675049 7.98755 1.12505 7.98755H3.71255V11.1H1.12505C0.675049 11.1 0.300049 11.475 0.300049 11.925C0.300049 12.375 0.675049 12.7501 1.12505 12.7501H3.71255V15.8625H1.12505C0.675049 15.8625 0.300049 16.2376 0.300049 16.6875C0.300049 17.1376 0.675049 17.5126 1.12505 17.5126H3.71255V18.1875C3.71255 19.2751 4.61255 20.1376 5.66255 20.1376H6.33755V22.8751C6.33755 23.3251 6.71255 23.7001 7.16255 23.7001C7.61255 23.7001 7.98755 23.3251 7.98755 22.8751V20.2875H11.1V22.8751C11.1 23.3251 11.475 23.7001 11.925 23.7001C12.375 23.7001 12.7501 23.3251 12.7501 22.8751V20.2875H15.8625V22.8751C15.8625 23.3251 16.2376 23.7001 16.6875 23.7001C17.1376 23.7001 17.5126 23.3251 17.5126 22.8751V20.2875H18.1875C19.2751 20.2875 20.1376 19.3876 20.1376 18.3376V17.6625H22.8751C23.3251 17.6625 23.7001 17.2876 23.7001 16.8376C23.7001 16.3876 23.3251 16.0126 22.8751 16.0126H20.2875V12.9001H22.8751V12.8251ZM18.6 18.3376C18.6 18.4876 18.4876 18.6376 18.3001 18.6376H5.66255C5.51255 18.6376 5.36255 18.5251 5.36255 18.3376V5.66255C5.36255 5.51255 5.47505 5.36255 5.66255 5.36255H18.3001C18.4501 5.36255 18.6 5.47505 18.6 5.66255V18.3376Z" fill="#161A23"/>
</g>
<defs>
<clipPath id="clip0_501_52062">
<rect width="24" height="24" fill="white"/>
</clipPath>
</defs>
</svg>
