<svg width="24" height="24" viewBox="0 0 24 24" fill="none" xmlns="http://www.w3.org/2000/svg">
<path d="M21.4875 8.8499C20.475 7.7624 19.0875 7.0499 17.625 6.7874C16.8 5.5124 15.6 4.5374 14.2125 4.0874C13.575 3.8249 12.825 3.7124 12.0375 3.7124C8.51255 3.7124 5.58755 6.4499 5.36255 9.8624C2.70005 10.1624 0.675049 12.3749 0.675049 15.0374C0.675049 17.9249 3.03755 20.2874 5.96255 20.2874H16.3875C20.2125 20.2874 23.3625 17.2124 23.3625 13.4624C23.325 11.7749 22.6875 10.1249 21.4875 8.8499ZM16.3875 18.5999H6.00005C3.93755 18.5999 2.36255 17.0249 2.36255 15.0374C2.36255 13.0499 3.97505 11.4749 6.00005 11.4749H6.18755C6.63755 11.4749 7.01255 11.0999 7.01255 10.6499V10.2749C7.01255 7.5749 9.26255 5.3999 12 5.3999C12.6 5.3999 13.125 5.4749 13.6125 5.6624C14.775 6.0374 15.75 6.8624 16.35 7.9499C16.5 8.1749 16.725 8.3624 16.9875 8.3624C18.225 8.4749 19.425 9.0749 20.25 9.9749C21.15 10.9499 21.6376 12.1874 21.6376 13.4624C21.675 16.3124 19.275 18.5999 16.3875 18.5999Z" fill="#161A23"/>
<path d="M16.1625 11.1373C16.125 9.82481 15.075 8.7748 13.7625 8.6248V8.4373C13.7625 7.9873 13.3875 7.6123 12.9375 7.6123C12.4875 7.6123 12.1125 7.9873 12.1125 8.4373V8.6248H12.0375V8.4373C12.0375 7.9873 11.6625 7.6123 11.2125 7.6123C10.7625 7.6123 10.3875 7.9873 10.3875 8.4373V8.6248H9.37505C8.92505 8.6248 8.55005 8.99981 8.55005 9.44981C8.55005 9.89981 8.88755 10.2373 9.33755 10.2748V15.4123C8.88755 15.4498 8.55005 15.8248 8.55005 16.2373C8.55005 16.6873 8.92505 17.0623 9.37505 17.0623H10.125H10.3125V17.2498C10.3125 17.6998 10.6875 18.0748 11.1375 18.0748C11.5875 18.0748 11.9625 17.6998 11.9625 17.2498V17.0623H12.0375V17.2498C12.0375 17.6998 12.4125 18.0748 12.8625 18.0748C13.3125 18.0748 13.6875 17.6998 13.6875 17.2498V17.0248C14.9625 16.8748 16.0125 15.8248 16.05 14.5123C16.05 14.4373 16.05 14.3998 16.05 14.3248C16.0125 13.7248 15.7875 13.1998 15.4125 12.7873C15.7875 12.3748 16.05 11.8123 16.05 11.2123C16.1625 11.2123 16.1625 11.1748 16.1625 11.1373ZM14.475 11.1748C14.475 11.2123 14.475 11.2123 14.475 11.2498C14.475 11.6623 14.0625 12.0373 13.6125 12.0373H10.9875V10.3123H13.5C14.025 10.2748 14.475 10.6873 14.475 11.1748ZM14.475 14.5123C14.475 14.9998 13.9875 15.4123 13.4625 15.4123H10.9875V13.6873H13.6125C14.0625 13.6873 14.4375 14.0248 14.475 14.4373C14.475 14.4748 14.475 14.5123 14.475 14.5123Z" fill="#161A23"/>
</svg>
