<svg width="24" height="24" viewBox="0 0 24 24" fill="none" xmlns="http://www.w3.org/2000/svg">
<path d="M22.5001 16.725H21.4501V7.35C21.4501 5.775 20.1751 4.4625 18.5625 4.4625H16.3876C15.9001 3.2625 14.7 2.4375 13.35 2.4375H13.1251C13.0876 2.025 12.7126 1.6875 12.3 1.6875C11.925 1.6875 11.6251 1.9125 11.5126 2.25C11.4001 1.9125 11.1 1.6875 10.725 1.6875C10.2751 1.6875 9.93755 2.025 9.90005 2.4375H8.13755C7.72505 2.475 7.38755 2.85 7.38755 3.2625C7.38755 3.675 7.72505 4.05 8.13755 4.0875V4.425H5.43755C3.86255 4.425 2.55005 5.7 2.55005 7.3125V16.6875H1.50005C1.05005 16.6875 0.675049 17.0625 0.675049 17.5125V19.125C0.675049 20.8875 2.10005 22.275 3.82505 22.275H20.1751C21.9375 22.275 23.3251 20.85 23.3251 19.125V17.5125C23.3251 17.1 22.9501 16.725 22.5001 16.725ZM13.5375 8.625C14.2875 8.625 14.925 9.1875 14.925 9.8625C14.925 9.9 14.925 9.9375 14.925 9.975C14.8876 10.7625 14.175 11.4 13.35 11.4H9.78755V8.625H13.5375ZM14.9626 5.55C14.9626 5.5875 14.9626 5.625 14.9626 5.6625C14.9251 6.375 14.2875 6.9375 13.5375 6.9375H9.78755V5.325V4.125H13.35C14.2125 4.125 14.9251 4.7625 14.9626 5.55ZM4.20005 7.35C4.20005 6.675 4.72505 6.15 5.40005 6.15H8.10005V11.4375C7.68755 11.475 7.35005 11.85 7.35005 12.2625C7.35005 12.7125 7.68755 13.05 8.10005 13.0875H9.86255C9.90005 13.5375 10.2375 13.875 10.6875 13.875C11.0625 13.875 11.3625 13.65 11.475 13.3125C11.5876 13.65 11.8876 13.875 12.2626 13.875C12.7126 13.875 13.0876 13.5375 13.0876 13.0875H13.3126C15.0751 13.0875 16.5376 11.7 16.5751 10.0125C16.5751 9.9375 16.5751 9.8625 16.5751 9.7875C16.5376 9 16.2001 8.2875 15.6376 7.7625C16.0876 7.3125 16.425 6.75 16.5375 6.1125H18.5251C19.2001 6.1125 19.725 6.6375 19.725 7.3125V16.6875H4.20005V7.35ZM21.6751 19.1625C21.6751 19.9875 21.0001 20.625 20.2126 20.625H3.82505C3.00005 20.625 2.36255 19.95 2.36255 19.1625V18.4125H21.6751V19.1625Z" fill="#161A23"/>
</svg>
