<svg width="24" height="24" viewBox="0 0 24 24" fill="none" xmlns="http://www.w3.org/2000/svg">
<path d="M12 0.675049C7.50005 0.675049 3.86255 4.31255 3.86255 8.77505C3.86255 11.25 4.95005 13.5375 6.90005 15.075C7.05005 15.1875 7.23755 15.2625 7.42505 15.2625C7.68755 15.2625 7.91255 15.15 8.10005 14.9625C8.40005 14.5875 8.32505 14.0625 7.98755 13.7625C6.45005 12.525 5.58755 10.725 5.58755 8.77505C5.58755 5.25005 8.47505 2.36255 12.0375 2.36255C15.6 2.36255 18.4875 5.25005 18.4875 8.77505C18.4875 9.22505 18.8626 9.60005 19.3126 9.60005C19.7626 9.60005 20.1376 9.22505 20.1376 8.77505C20.1376 4.27505 16.5001 0.675049 12 0.675049Z" fill="#161A23"/>
<path d="M18.3375 14.7751H14.7C14.25 14.7751 13.8749 15.1501 13.8749 15.6001C13.8749 16.0501 14.25 16.4251 14.7 16.4251H15.9749L12.5624 18.8251C12.4874 18.8626 12.4124 18.9001 12.3375 18.9001H7.91245C7.31245 18.9001 6.74995 19.1251 6.37495 19.5376L4.08745 21.9001C3.74995 22.2376 3.78745 22.7626 4.12495 23.1001C4.27495 23.2501 4.49995 23.3251 4.72495 23.3251C4.94995 23.3251 5.17495 23.2501 5.32495 23.0626L7.61245 20.7001C7.68745 20.6251 7.79995 20.5876 7.91245 20.5876H12.3375C12.75 20.5876 13.1624 20.4751 13.5374 20.2126L17.5124 17.4001V19.2001C17.5124 19.6501 17.8874 20.0251 18.3375 20.0251C18.7874 20.0251 19.1624 19.6501 19.1624 19.2001V15.5626C19.1999 15.1501 18.8249 14.7751 18.3375 14.7751Z" fill="#161A23"/>
<path d="M9.63755 11.2876C9.22505 11.3626 8.92505 11.7001 8.92505 12.1126C8.92505 12.5626 9.30005 12.9376 9.75005 12.9376H10.3125V13.0501C10.3125 13.5001 10.6875 13.8751 11.1375 13.8751C11.5875 13.8751 11.9625 13.5001 11.9625 13.0501V12.9376H12.3375V13.0501C12.3375 13.5001 12.7125 13.8751 13.1625 13.8751C13.6125 13.8751 13.9875 13.5001 13.9875 13.0501V12.8626C15.0375 12.6001 15.8625 11.6626 15.9 10.5751C15.9 10.5001 15.9 10.4626 15.9 10.3876C15.8625 9.8626 15.675 9.3751 15.3375 9.0001C15.675 8.6251 15.9 8.1376 15.9 7.5751C15.9 7.5376 15.9 7.4626 15.9 7.4251C15.8625 6.3001 15.0375 5.4001 13.9875 5.1376V4.9876C13.9875 4.5376 13.6125 4.1626 13.1625 4.1626C12.7125 4.1626 12.3375 4.5376 12.3375 4.9876V5.0626H11.9625V4.9876C11.9625 4.5376 11.5875 4.1626 11.1375 4.1626C10.6875 4.1626 10.3125 4.5376 10.3125 4.9876V5.0626H9.75005C9.30005 5.0626 8.92505 5.4376 8.92505 5.8876C8.92505 6.3001 9.22505 6.6376 9.63755 6.7126V9.0001V11.2876ZM14.325 10.5376C14.325 10.9501 13.95 11.2876 13.5 11.2876H11.325V9.9001H13.65C14.025 9.9001 14.325 10.1626 14.3625 10.5001C14.325 10.4626 14.325 10.5001 14.325 10.5376ZM14.325 7.5376C14.325 7.8751 13.9875 8.1751 13.6125 8.1751H11.2875V6.7501H13.5C13.95 6.7501 14.325 7.0876 14.325 7.5001V7.5376Z" fill="#161A23"/>
</svg>
