<svg width="24" height="24" viewBox="0 0 24 24" fill="none" xmlns="http://www.w3.org/2000/svg">
<path d="M15.8625 12.3C15.825 11.025 14.85 9.97505 13.575 9.75005V9.56255C13.575 9.11255 13.2 8.73755 12.75 8.73755C12.3 8.73755 11.925 9.11255 11.925 9.56255V9.67505H11.3625V9.56255C11.3625 9.11255 10.9875 8.73755 10.5375 8.73755C10.0875 8.73755 9.7125 9.11255 9.7125 9.56255V9.67505H9.675H9.075C8.625 9.67505 8.25 10.05 8.25 10.5C8.25 10.875 8.5125 11.2125 8.85 11.2875V14.0625V16.875C8.5125 16.9875 8.25 17.2875 8.25 17.6625C8.25 18.1125 8.625 18.4875 9.075 18.4875H9.675H9.7125V18.6375C9.7125 19.0875 10.0875 19.4625 10.5375 19.4625C10.9875 19.4625 11.3625 19.0875 11.3625 18.6375V18.4875H11.925V18.6375C11.925 19.0875 12.3 19.4625 12.75 19.4625C13.2 19.4625 13.575 19.0875 13.575 18.6375V18.4125C14.8125 18.1875 15.825 17.1375 15.8625 15.8625C15.8625 15.7875 15.8625 15.7125 15.8625 15.675C15.825 15.075 15.6 14.5125 15.1875 14.0625C15.6 13.6125 15.8625 13.05 15.8625 12.4125C15.8625 12.4125 15.8625 12.3375 15.8625 12.3ZM14.175 12.375C14.175 12.4125 14.175 12.4125 14.175 12.45C14.175 12.9 13.725 13.3125 13.2375 13.3125H10.425V11.4H13.0875C13.6875 11.3625 14.175 11.8125 14.175 12.375ZM14.175 15.8625C14.175 16.3875 13.65 16.8375 13.0875 16.8375H10.425V14.9625H13.2375C13.725 14.9625 14.175 15.3375 14.175 15.7875C14.175 15.825 14.175 15.825 14.175 15.8625Z" fill="#161A23"/>
<path d="M21.0001 1.9126H3.00005C1.72505 1.9126 0.675049 2.9626 0.675049 4.2376V19.7251C0.675049 21.0001 1.72505 22.0501 3.00005 22.0501H21.0001C22.2751 22.0501 23.3251 21.0001 23.3251 19.7251V4.2751C23.3251 2.9626 22.2751 1.9126 21.0001 1.9126ZM3.00005 3.6001H21.0001C21.3751 3.6001 21.6751 3.9001 21.6751 4.2751V6.3376H2.32505V4.2751C2.32505 3.9001 2.62505 3.6001 3.00005 3.6001ZM21.0001 20.4001H3.00005C2.62505 20.4001 2.32505 20.1001 2.32505 19.7251V7.9876H21.6376V19.7251C21.6751 20.1001 21.3751 20.4001 21.0001 20.4001Z" fill="#161A23"/>
</svg>
