<svg width="24" height="24" viewBox="0 0 24 24" fill="none" xmlns="http://www.w3.org/2000/svg">
<path d="M12.2876 1.4762H12.3759L12.0966 1.504C13.8344 1.51373 15.5742 1.94332 17.0985 2.79763C19.0751 3.89246 20.6828 5.66085 21.5925 7.75388C22.1872 9.11981 22.5007 10.6157 22.4692 12.111C22.4774 14.537 21.5815 16.9428 20.0401 18.7911C17.8144 19.0775 15.5092 19.2513 13.3163 18.659C12.0152 18.3302 10.8585 17.478 10.1179 16.3464C9.36574 14.9943 9.6231 13.1231 10.7634 12.072C11.5573 11.3408 12.703 11.0273 13.7509 11.265C14.6783 11.4575 15.5023 12.0713 15.978 12.9006C16.4428 12.6525 16.9041 12.398 17.3695 12.1513C17.0416 11.591 16.6371 11.0703 16.1313 10.6651C15.2806 9.98108 14.2019 9.60986 13.1205 9.5793C12.0946 9.56678 11.0659 9.87821 10.222 10.4732C8.50815 11.6563 7.66016 14.0038 8.25289 16.0259C8.63134 17.3981 9.62381 18.5256 10.7818 19.2902C11.7031 19.8915 12.7701 20.2175 13.8399 20.4142C15.31 20.6784 16.811 20.5811 18.2894 20.4531C18.1409 20.6082 17.9177 20.5991 17.7226 20.6346C16.145 20.8723 14.5181 20.88 12.959 20.5081C11.4635 20.1563 10.0392 19.407 8.97697 18.2691C7.41581 16.557 7.05034 13.7744 8.27681 11.7704C8.91746 10.7033 9.85717 9.78574 11.0255 9.34991C12.3013 8.8668 13.7543 8.87164 15.0233 9.37564C15.232 8.88416 15.4592 8.40105 15.6639 7.90823C13.5709 7.03931 11.0707 7.26454 9.17002 8.51299C8.12966 9.19628 7.27342 10.1521 6.65059 11.2372C5.95661 12.4849 5.7321 13.9739 5.94427 15.3843C6.22421 17.2862 7.24744 19.0664 8.74774 20.2411C9.47734 20.8265 10.3397 21.2206 11.2274 21.4868C12.3745 21.833 13.5716 21.9838 14.7659 22.0116C14.935 22.0144 15.1047 22.0214 15.2731 22.0429C15.0328 22.1694 14.7543 22.1312 14.4935 22.1388C13.0747 22.1687 11.6449 21.9449 10.3144 21.4403C9.3021 21.0531 8.34664 20.4754 7.59581 19.6774C6.80805 18.8829 6.1455 17.9424 5.76154 16.8788C5.31049 15.62 5.16952 14.2359 5.4111 12.9159C5.70405 11.3456 6.58695 9.93383 7.74296 8.86748C9.1296 7.58081 11.007 6.85024 12.8865 6.88151C12.8871 6.34208 12.8857 5.80196 12.8878 5.26256C11.2657 5.26328 9.64297 5.69355 8.24055 6.52493C6.38707 7.61974 4.93061 9.37909 4.15789 11.4075C3.59051 12.927 3.37834 14.6204 3.76365 16.2129C4.20446 18.1578 5.4207 19.8887 7.04962 20.9953C7.30354 21.1844 7.59375 21.3158 7.8429 21.5125C7.72792 21.5049 7.61085 21.491 7.5075 21.4354C6.98254 21.1803 6.49185 20.8584 6.02572 20.5053C5.18659 19.8609 4.39541 19.1317 3.79515 18.2482C3.04433 17.1896 2.4523 16.0044 2.12514 14.7385C1.81441 13.5679 1.74391 12.3431 1.82605 11.1371C2.02384 8.5512 3.22297 6.06544 5.10176 4.31025C6.63007 2.86714 8.59575 1.90995 10.6641 1.6173C11.2014 1.52972 11.7476 1.53806 12.2876 1.4762Z" fill="#15171A"/>
</svg>
