<svg width="24" height="24" viewBox="0 0 24 24" fill="none" xmlns="http://www.w3.org/2000/svg">
<path d="M21.0375 3.52495H12.8625V2.43745C12.8625 1.98745 12.4875 1.57495 12 1.57495C11.55 1.57495 11.1375 1.94995 11.1375 2.43745V3.48745H2.96249C1.68749 3.48745 0.674988 4.49995 0.674988 5.77495V13.3875C0.674988 14.6625 1.68749 15.675 2.96249 15.675H6.18749L3.11249 21.1124C2.88749 21.525 3.03749 22.05 3.44999 22.275C3.56249 22.35 3.71249 22.3875 3.86249 22.3875C4.16249 22.3875 4.46249 22.2375 4.61249 21.9375L8.09999 15.675H11.1375V21.525C11.1375 21.975 11.5125 22.3875 12 22.3875C12.45 22.3875 12.8625 22.0125 12.8625 21.525V15.7125H15.975L19.5 21.975C19.65 22.2374 19.95 22.3875 20.25 22.3875C20.4 22.3875 20.55 22.35 20.6625 22.275C21.075 22.05 21.225 21.525 21 21.1124L17.925 15.675H21.1125C22.3875 15.675 23.4 14.6625 23.4 13.3875V5.81245C23.3625 4.53745 22.3125 3.52495 21.0375 3.52495ZM21.675 13.425C21.675 13.7625 21.4125 14.025 21.075 14.025H2.96249C2.62499 14.025 2.36249 13.7625 2.36249 13.425V5.81245C2.36249 5.47495 2.62499 5.21245 2.96249 5.21245H21.075C21.4125 5.21245 21.675 5.47495 21.675 5.81245V13.425Z" fill="#161A23"/>
</svg>
