<svg width="24" height="24" viewBox="0 0 24 24" fill="none" xmlns="http://www.w3.org/2000/svg">
<g clip-path="url(#clip0_501_45486)">
<path d="M20.85 3.18745H12.8625V1.49995C12.8625 1.04995 12.4875 0.637451 12 0.637451C11.55 0.637451 11.1375 1.01245 11.1375 1.49995V3.18745H3.15C1.7625 3.18745 0.637497 4.31245 0.637497 5.69995V14.025C0.637497 15.4124 1.7625 16.5374 3.15 16.5374H9.825L7.1625 22.1624C6.975 22.5749 7.125 23.0999 7.575 23.2874C7.6875 23.3249 7.8 23.3624 7.95 23.3624C8.25 23.3624 8.5875 23.1749 8.7 22.8749L11.7 16.5374H12.2625L15.3 22.8749C15.45 23.1749 15.75 23.3624 16.05 23.3624C16.1625 23.3624 16.3125 23.3249 16.425 23.2874C16.8375 23.0999 17.025 22.5749 16.8375 22.1624L14.1375 16.5374H20.8125C22.2 16.5374 23.325 15.4124 23.325 14.025V5.69995C23.3625 4.31245 22.2375 3.18745 20.85 3.18745ZM21.675 14.025C21.675 14.475 21.3 14.8499 20.85 14.8499H3.15C2.7 14.8499 2.325 14.475 2.325 14.025V5.69995C2.325 5.24995 2.7 4.87495 3.15 4.87495H20.8125C21.2625 4.87495 21.6375 5.24995 21.6375 5.69995V14.025H21.675Z" fill="#161A23"/>
</g>
<defs>
<clipPath id="clip0_501_45486">
<rect width="24" height="24" fill="white"/>
</clipPath>
</defs>
</svg>
