<svg width="24" height="24" viewBox="0 0 24 24" fill="none" xmlns="http://www.w3.org/2000/svg">
<path d="M10.6875 10.5C13.5 10.5 15.75 8.28755 15.75 5.58755C15.75 2.88755 13.5 0.675049 10.6875 0.675049C7.875 0.675049 5.625 2.85005 5.625 5.58755C5.625 8.32505 7.9125 10.5 10.6875 10.5ZM10.6875 2.36255C12.5625 2.36255 14.0625 3.82505 14.0625 5.58755C14.0625 7.35005 12.5625 8.81255 10.6875 8.81255C8.8125 8.81255 7.3125 7.35005 7.3125 5.58755C7.3125 3.82505 8.85 2.36255 10.6875 2.36255Z" fill="#161A23"/>
<path d="M10.6875 11.9625C5.85001 11.9625 1.95001 15.9 1.95001 20.7V21.7875C1.95001 22.65 2.66251 23.325 3.48751 23.325H10.35C10.8 23.325 11.2125 22.95 11.2125 22.4625C11.2125 21.975 10.8375 21.6 10.35 21.6H3.63751V20.6625C3.63751 16.7625 6.78751 13.6125 10.6875 13.6125C11.1375 13.6125 11.55 13.2375 11.55 12.75C11.55 12.3375 11.175 11.9625 10.6875 11.9625Z" fill="#161A23"/>
<path d="M17.1 13.4625C14.3625 13.4625 12.15 15.675 12.15 18.4125C12.15 21.15 14.3625 23.3625 17.1 23.3625C19.8375 23.3625 22.05 21.15 22.05 18.4125C22.05 15.675 19.8375 13.4625 17.1 13.4625ZM17.1 15.15C17.775 15.15 18.4125 15.3375 18.9 15.7125L14.2875 19.9875C14.025 19.5 13.875 18.975 13.875 18.375C13.875 16.6125 15.3 15.15 17.1 15.15ZM17.1 21.675C16.5 21.675 15.9375 21.525 15.45 21.225L20.025 17.025C20.25 17.4375 20.3625 17.925 20.3625 18.45C20.3625 20.2125 18.9 21.675 17.1 21.675Z" fill="#161A23"/>
</svg>
