<svg width="24" height="24" viewBox="0 0 24 24" fill="none" xmlns="http://www.w3.org/2000/svg">
<path d="M22.0088 10.5366C21.9119 10.1812 21.6857 9.85812 21.4596 9.72888C21.3626 9.69657 20.878 9.63196 20.3288 9.59965C19.4241 9.56734 19.3272 9.56734 19.0687 9.37349C18.5841 9.08271 18.4872 8.82425 18.4872 8.04884C18.4872 6.59496 17.841 5.17339 16.6779 3.94567C15.8056 3.07334 14.8686 2.49179 13.7055 2.13639C13.4471 2.03947 12.8332 2.03947 10.8947 2.00716C7.79308 1.97485 7.1146 2.03947 6.01612 2.45948C4.07761 3.20257 2.65604 4.8503 2.17141 6.88574C2.07448 7.30575 2.00987 7.95192 2.00987 11.5705C1.97756 16.126 2.00987 16.7721 2.33295 17.6768C2.55911 18.4522 2.78527 18.8722 3.30221 19.5507C4.27146 20.7784 5.62842 21.683 6.98537 21.9092C7.66385 22.0061 15.8056 22.0384 16.6779 21.9415C18.1318 21.7476 19.2626 21.1661 20.3611 20.0676C21.1365 19.2922 21.6211 18.4199 21.9119 17.2891C22.0411 16.8691 22.0411 16.6429 22.0411 13.8644C22.0411 11.7966 22.0411 10.7951 22.0088 10.5366ZM7.56692 7.72576C7.92232 7.37037 8.01924 7.37037 10.2162 7.37037C12.187 7.37037 12.2516 7.37037 12.5424 7.4996C12.9624 7.72576 13.124 7.98423 13.124 8.46885C13.124 8.92117 12.9947 9.21195 12.5747 9.43811C12.3809 9.56734 12.2516 9.56734 10.3131 9.56734C9.11773 9.56734 8.18078 9.53503 8.05155 9.53503C7.30846 9.30887 7.01768 8.275 7.56692 7.72576ZM16.161 16.6429L15.5148 16.7398L12.0255 16.8044C8.98849 16.8367 8.11617 16.7721 7.92232 16.7075C7.59923 16.5783 7.27615 16.1583 7.27615 15.8352C7.24384 15.5121 7.40538 15.0598 7.63154 14.8336C7.95462 14.5752 8.08386 14.5752 11.9932 14.5105C15.9994 14.5105 15.9671 14.5105 16.3548 14.8659C16.9041 15.4152 16.8071 16.2552 16.161 16.6429Z" fill="#15171A"/>
</svg>
