<svg width="24" height="24" viewBox="0 0 24 24" fill="none" xmlns="http://www.w3.org/2000/svg">
<path d="M18.3 15.75L12.675 12L18.3 8.25002C18.9 7.83752 19.275 7.16252 19.275 6.45002C19.275 5.73752 18.9 5.06252 18.3 4.65002L12.75 0.900017C12.3 0.600017 11.7375 0.562517 11.25 0.825017C10.7625 1.08752 10.4625 1.57502 10.4625 2.13752V10.4625L6.00002 7.46252C5.62502 7.20002 5.10002 7.31252 4.83752 7.68752C4.57502 8.06252 4.68752 8.58752 5.06252 8.85002L9.71252 12L5.13752 15.075C4.76252 15.3375 4.65002 15.8625 4.91252 16.2375C5.06252 16.4625 5.32502 16.6125 5.62502 16.6125C5.77502 16.6125 5.96252 16.575 6.07502 16.4625L10.4625 13.5V21.8625C10.4625 22.425 10.7625 22.9125 11.25 23.175C11.475 23.2875 11.7 23.3625 11.925 23.3625C12.1875 23.3625 12.4875 23.2875 12.7125 23.1L18.3 19.3875C18.9 18.975 19.275 18.3 19.275 17.5875C19.275 16.8375 18.9375 16.1625 18.3 15.75ZM12.15 2.55002L17.3625 6.03752C17.55 6.15002 17.5875 6.37502 17.5875 6.45002C17.5875 6.52502 17.55 6.71252 17.3625 6.86252L12.15 10.35V2.55002ZM17.3625 17.9625L12.15 21.45V13.6875L17.3625 17.175C17.55 17.2875 17.5875 17.5125 17.5875 17.5875C17.5875 17.6625 17.5875 17.85 17.3625 17.9625Z" fill="#161A23"/>
</svg>
