<svg width="24" height="24" viewBox="0 0 24 24" fill="none" xmlns="http://www.w3.org/2000/svg">
<path d="M11.2125 8.43747C10.2375 9.41247 10.2375 10.95 11.2125 11.925C11.7 12.4125 12.3375 12.6375 12.9375 12.6375C13.5375 12.6375 14.2125 12.4125 14.6625 11.925C15.6375 10.95 15.6375 9.41247 14.6625 8.43747C13.6875 7.46247 12.15 7.49997 11.2125 8.43747ZM13.4625 10.725C13.1625 11.025 12.675 11.025 12.375 10.725C12.075 10.425 12.075 9.93747 12.375 9.63747C12.525 9.48747 12.7125 9.41247 12.9375 9.41247C13.1625 9.41247 13.35 9.48747 13.5 9.63747C13.7625 9.93747 13.7625 10.425 13.4625 10.725Z" fill="#161A23"/>
<path d="M8.17499 13.7625L5.09999 16.8375C4.76249 17.175 4.76249 17.7 5.09999 18.0375C5.24999 18.1875 5.47499 18.3 5.69999 18.3C5.92499 18.3 6.14999 18.225 6.29999 18.0375L9.37499 14.9625C9.71249 14.625 9.71249 14.1 9.37499 13.7625C9.03749 13.425 8.51249 13.425 8.17499 13.7625Z" fill="#161A23"/>
<path d="M21.6375 3.22502C20.1375 1.72502 17.925 1.16252 15.9 1.76252C15.45 1.87502 15.1875 2.36252 15.3375 2.81252C15.4875 3.26252 15.9375 3.52502 16.3875 3.37502C17.85 2.96252 19.3875 3.33752 20.475 4.42502C22.0875 6.03752 22.0875 8.66252 20.475 10.275C19.8 10.95 18.9 11.3625 17.9625 11.475C18.075 11.1 18.15 10.6875 18.15 10.275C18.1875 8.88752 17.6625 7.50002 16.65 6.48752C15.675 5.51252 14.2875 4.95002 12.8625 4.98752C11.475 5.02502 10.125 5.66252 9.18749 6.71252L1.72499 15.225C0.224988 16.95 0.299988 19.575 1.91249 21.1875C2.77499 22.05 3.86249 22.4625 4.98749 22.4625C5.99999 22.4625 7.04999 22.0875 7.87499 21.375L16.3875 13.9125C16.65 13.6875 16.875 13.425 17.1 13.125C17.25 13.125 17.3625 13.125 17.5125 13.125C19.05 13.125 20.55 12.525 21.6375 11.4375C23.8875 9.18752 23.8875 5.51252 21.6375 3.22502ZM15.3 12.6375L6.78749 20.1C5.73749 21.0375 4.12499 20.9625 3.11249 19.9875C2.09999 18.975 2.06249 17.4 2.99999 16.3125L10.4625 7.80002C11.1 7.08752 11.9625 6.67502 12.9 6.63752C13.8375 6.60002 14.7375 6.97502 15.4125 7.65002C16.0875 8.32502 16.425 9.22502 16.425 10.1625C16.425 11.1375 16.0125 12.0375 15.3 12.6375Z" fill="#161A23"/>
</svg>
