<svg width="24" height="24" viewBox="0 0 24 24" fill="none" xmlns="http://www.w3.org/2000/svg">
<g clip-path="url(#clip0_914_44865)">
<path d="M5.4225 5.25375C5.28375 5.1375 5.06625 5.13375 4.96875 5.24625L4.14 6.23625L4.65375 6.6675L5.47125 5.68875C5.57625 5.565 5.57625 5.385 5.4225 5.25375ZM6.36 5.91C6.21 5.78625 5.9925 5.82 5.895 5.93625L5.02125 6.97875L5.565 7.4325L6.4275 6.40125C6.54375 6.2625 6.52875 6.0525 6.36 5.91ZM6.36 5.91C6.21 5.78625 5.9925 5.82 5.895 5.93625L5.02125 6.97875L5.565 7.4325L6.4275 6.40125C6.54375 6.2625 6.52875 6.0525 6.36 5.91ZM5.4225 5.25375C5.28375 5.1375 5.06625 5.13375 4.96875 5.24625L4.14 6.23625L4.65375 6.6675L5.47125 5.68875C5.57625 5.565 5.57625 5.385 5.4225 5.25375ZM5.4225 5.25375C5.28375 5.1375 5.06625 5.13375 4.96875 5.24625L4.14 6.23625L4.65375 6.6675L5.47125 5.68875C5.57625 5.565 5.57625 5.385 5.4225 5.25375ZM6.36 5.91C6.21 5.78625 5.9925 5.82 5.895 5.93625L5.02125 6.97875L5.565 7.4325L6.4275 6.40125C6.54375 6.2625 6.52875 6.0525 6.36 5.91ZM5.56875 12H12V5.56875C8.44875 5.56875 5.56875 8.44875 5.56875 12ZM12 12V18.4313C15.5513 18.4313 18.4313 15.5513 18.4313 12H12ZM12 12V18.4313C15.5513 18.4313 18.4313 15.5513 18.4313 12H12ZM5.56875 12H12V5.56875C8.44875 5.56875 5.56875 8.44875 5.56875 12ZM6.36 5.91C6.21 5.78625 5.9925 5.82 5.895 5.93625L5.02125 6.97875L5.565 7.4325L6.4275 6.40125C6.54375 6.2625 6.52875 6.0525 6.36 5.91ZM5.4225 5.25375C5.28375 5.1375 5.06625 5.13375 4.96875 5.24625L4.14 6.23625L4.65375 6.6675L5.47125 5.68875C5.57625 5.565 5.57625 5.385 5.4225 5.25375ZM12 1.24125C6.05625 1.24125 1.24125 6.05625 1.24125 12C1.24125 17.9438 6.05625 22.7587 12 22.7587C17.9438 22.7587 22.7587 17.9438 22.7587 12C22.7587 6.05625 17.9438 1.24125 12 1.24125ZM10.4288 1.82625H11.28L12.0487 3.84375L12.8212 1.82625H13.6725V4.66125H13.1063V2.68125L12.36 4.66125H11.7413L10.995 2.68125V4.66125H10.4288V1.82625ZM3.285 6.4875L4.665 4.84125C4.95375 4.5 5.35125 4.22625 5.73375 4.545C5.85 4.6425 5.89875 4.67625 6.04125 4.935C6.075 5.02875 6.10125 5.19375 6.0375 5.35875C6.3675 5.1525 6.72 5.22 6.94875 5.44125C7.2975 5.7825 7.24875 6.17625 6.915 6.57375L5.45625 8.31L3.285 6.4875ZM12 18.8738C8.205 18.8738 5.12625 15.795 5.12625 12C5.12625 8.205 8.205 5.12625 12 5.12625C15.795 5.12625 18.8738 8.205 18.8738 12C18.8738 15.795 15.795 18.8738 12 18.8738ZM18.405 8.36625L17.8913 7.72875L18.915 6.22875L18.9075 6.22125L17.2313 6.91125L16.71 6.2775L18.4875 3.99L18.9263 4.53L17.8125 5.98875L19.515 5.2575L19.9837 5.83875L18.915 7.35L20.5725 6.5625L21.0112 7.10625L18.405 8.36625ZM12 18.4313C15.5513 18.4313 18.4313 15.5513 18.4313 12H12V18.4313ZM5.56875 12H12V5.56875C8.44875 5.56875 5.56875 8.44875 5.56875 12ZM6.4275 6.40125C6.54375 6.2625 6.52875 6.0525 6.36 5.91C6.21 5.78625 5.9925 5.82 5.895 5.93625L5.02125 6.97875L5.565 7.4325L6.4275 6.40125ZM5.4225 5.25375C5.28375 5.1375 5.06625 5.13375 4.96875 5.24625L4.14 6.23625L4.65375 6.6675L5.47125 5.68875C5.57625 5.565 5.57625 5.385 5.4225 5.25375ZM5.4225 5.25375C5.28375 5.1375 5.06625 5.13375 4.96875 5.24625L4.14 6.23625L4.65375 6.6675L5.47125 5.68875C5.57625 5.565 5.57625 5.385 5.4225 5.25375ZM6.36 5.91C6.21 5.78625 5.9925 5.82 5.895 5.93625L5.02125 6.97875L5.565 7.4325L6.4275 6.40125C6.54375 6.2625 6.52875 6.0525 6.36 5.91ZM5.56875 12H12V5.56875C8.44875 5.56875 5.56875 8.44875 5.56875 12ZM12 12V18.4313C15.5513 18.4313 18.4313 15.5513 18.4313 12H12ZM12 12V18.4313C15.5513 18.4313 18.4313 15.5513 18.4313 12H12ZM5.56875 12H12V5.56875C8.44875 5.56875 5.56875 8.44875 5.56875 12ZM6.36 5.91C6.21 5.78625 5.9925 5.82 5.895 5.93625L5.02125 6.97875L5.565 7.4325L6.4275 6.40125C6.54375 6.2625 6.52875 6.0525 6.36 5.91ZM5.4225 5.25375C5.28375 5.1375 5.06625 5.13375 4.96875 5.24625L4.14 6.23625L4.65375 6.6675L5.47125 5.68875C5.57625 5.565 5.57625 5.385 5.4225 5.25375ZM5.4225 5.25375C5.28375 5.1375 5.06625 5.13375 4.96875 5.24625L4.14 6.23625L4.65375 6.6675L5.47125 5.68875C5.57625 5.565 5.57625 5.385 5.4225 5.25375ZM6.36 5.91C6.21 5.78625 5.9925 5.82 5.895 5.93625L5.02125 6.97875L5.565 7.4325L6.4275 6.40125C6.54375 6.2625 6.52875 6.0525 6.36 5.91ZM5.56875 12H12V5.56875C8.44875 5.56875 5.56875 8.44875 5.56875 12ZM12 12V18.4313C15.5513 18.4313 18.4313 15.5513 18.4313 12H12ZM12 12V18.4313C15.5513 18.4313 18.4313 15.5513 18.4313 12H12ZM5.56875 12H12V5.56875C8.44875 5.56875 5.56875 8.44875 5.56875 12ZM6.36 5.91C6.21 5.78625 5.9925 5.82 5.895 5.93625L5.02125 6.97875L5.565 7.4325L6.4275 6.40125C6.54375 6.2625 6.52875 6.0525 6.36 5.91ZM5.4225 5.25375C5.28375 5.1375 5.06625 5.13375 4.96875 5.24625L4.14 6.23625L4.65375 6.6675L5.47125 5.68875C5.57625 5.565 5.57625 5.385 5.4225 5.25375ZM12 1.24125C6.05625 1.24125 1.24125 6.05625 1.24125 12C1.24125 17.9438 6.05625 22.7587 12 22.7587C17.9438 22.7587 22.7587 17.9438 22.7587 12C22.7587 6.05625 17.9438 1.24125 12 1.24125ZM10.4288 1.82625H11.28L12.0487 3.84375L12.8212 1.82625H13.6725V4.66125H13.1063V2.68125L12.36 4.66125H11.7413L10.995 2.68125V4.66125H10.4288V1.82625ZM3.285 6.4875L4.665 4.84125C4.95375 4.5 5.35125 4.22625 5.73375 4.545C5.85 4.6425 5.89875 4.67625 6.04125 4.935C6.075 5.02875 6.10125 5.19375 6.0375 5.35875C6.3675 5.1525 6.72 5.22 6.94875 5.44125C7.2975 5.7825 7.24875 6.17625 6.915 6.57375L5.45625 8.31L3.285 6.4875ZM12 18.8738C8.205 18.8738 5.12625 15.795 5.12625 12C5.12625 8.205 8.205 5.12625 12 5.12625C15.795 5.12625 18.8738 8.205 18.8738 12C18.8738 15.795 15.795 18.8738 12 18.8738ZM18.405 8.36625L17.8913 7.72875L18.915 6.22875L18.9075 6.22125L17.2313 6.91125L16.71 6.2775L18.4875 3.99L18.9263 4.53L17.8125 5.98875L19.515 5.2575L19.9837 5.83875L18.915 7.35L20.5725 6.5625L21.0112 7.10625L18.405 8.36625ZM12 18.4313C15.5513 18.4313 18.4313 15.5513 18.4313 12H12V18.4313ZM5.56875 12H12V5.56875C8.44875 5.56875 5.56875 8.44875 5.56875 12ZM6.4275 6.40125C6.54375 6.2625 6.52875 6.0525 6.36 5.91C6.21 5.78625 5.9925 5.82 5.895 5.93625L5.02125 6.97875L5.565 7.4325L6.4275 6.40125ZM5.4225 5.25375C5.28375 5.1375 5.06625 5.13375 4.96875 5.24625L4.14 6.23625L4.65375 6.6675L5.47125 5.68875C5.57625 5.565 5.57625 5.385 5.4225 5.25375ZM5.4225 5.25375C5.28375 5.1375 5.06625 5.13375 4.96875 5.24625L4.14 6.23625L4.65375 6.6675L5.47125 5.68875C5.57625 5.565 5.57625 5.385 5.4225 5.25375ZM6.36 5.91C6.21 5.78625 5.9925 5.82 5.895 5.93625L5.02125 6.97875L5.565 7.4325L6.4275 6.40125C6.54375 6.2625 6.52875 6.0525 6.36 5.91ZM5.56875 12H12V5.56875C8.44875 5.56875 5.56875 8.44875 5.56875 12ZM12 12V18.4313C15.5513 18.4313 18.4313 15.5513 18.4313 12H12ZM12 12V18.4313C15.5513 18.4313 18.4313 15.5513 18.4313 12H12ZM5.56875 12H12V5.56875C8.44875 5.56875 5.56875 8.44875 5.56875 12ZM6.36 5.91C6.21 5.78625 5.9925 5.82 5.895 5.93625L5.02125 6.97875L5.565 7.4325L6.4275 6.40125C6.54375 6.2625 6.52875 6.0525 6.36 5.91ZM5.4225 5.25375C5.28375 5.1375 5.06625 5.13375 4.96875 5.24625L4.14 6.23625L4.65375 6.6675L5.47125 5.68875C5.57625 5.565 5.57625 5.385 5.4225 5.25375ZM5.4225 5.25375C5.28375 5.1375 5.06625 5.13375 4.96875 5.24625L4.14 6.23625L4.65375 6.6675L5.47125 5.68875C5.57625 5.565 5.57625 5.385 5.4225 5.25375ZM6.36 5.91C6.21 5.78625 5.9925 5.82 5.895 5.93625L5.02125 6.97875L5.565 7.4325L6.4275 6.40125C6.54375 6.2625 6.52875 6.0525 6.36 5.91ZM5.56875 12H12V5.56875C8.44875 5.56875 5.56875 8.44875 5.56875 12ZM12 12V18.4313C15.5513 18.4313 18.4313 15.5513 18.4313 12H12ZM12 12V18.4313C15.5513 18.4313 18.4313 15.5513 18.4313 12H12ZM5.56875 12H12V5.56875C8.44875 5.56875 5.56875 8.44875 5.56875 12ZM6.36 5.91C6.21 5.78625 5.9925 5.82 5.895 5.93625L5.02125 6.97875L5.565 7.4325L6.4275 6.40125C6.54375 6.2625 6.52875 6.0525 6.36 5.91ZM5.4225 5.25375C5.28375 5.1375 5.06625 5.13375 4.96875 5.24625L4.14 6.23625L4.65375 6.6675L5.47125 5.68875C5.57625 5.565 5.57625 5.385 5.4225 5.25375ZM12 1.24125C6.05625 1.24125 1.24125 6.05625 1.24125 12C1.24125 17.9438 6.05625 22.7587 12 22.7587C17.9438 22.7587 22.7587 17.9438 22.7587 12C22.7587 6.05625 17.9438 1.24125 12 1.24125ZM10.4288 1.82625H11.28L12.0487 3.84375L12.8212 1.82625H13.6725V4.66125H13.1063V2.68125L12.36 4.66125H11.7413L10.995 2.68125V4.66125H10.4288V1.82625ZM3.285 6.4875L4.665 4.84125C4.95375 4.5 5.35125 4.22625 5.73375 4.545C5.85 4.6425 5.89875 4.67625 6.04125 4.935C6.075 5.02875 6.10125 5.19375 6.0375 5.35875C6.3675 5.1525 6.72 5.22 6.94875 5.44125C7.2975 5.7825 7.24875 6.17625 6.915 6.57375L5.45625 8.31L3.285 6.4875ZM12 18.8738C8.205 18.8738 5.12625 15.795 5.12625 12C5.12625 8.205 8.205 5.12625 12 5.12625C15.795 5.12625 18.8738 8.205 18.8738 12C18.8738 15.795 15.795 18.8738 12 18.8738ZM18.405 8.36625L17.8913 7.72875L18.915 6.22875L18.9075 6.22125L17.2313 6.91125L16.71 6.2775L18.4875 3.99L18.9263 4.53L17.8125 5.98875L19.515 5.2575L19.9837 5.83875L18.915 7.35L20.5725 6.5625L21.0112 7.10625L18.405 8.36625ZM12 18.4313C15.5513 18.4313 18.4313 15.5513 18.4313 12H12V18.4313ZM5.56875 12H12V5.56875C8.44875 5.56875 5.56875 8.44875 5.56875 12ZM6.4275 6.40125C6.54375 6.2625 6.52875 6.0525 6.36 5.91C6.21 5.78625 5.9925 5.82 5.895 5.93625L5.02125 6.97875L5.565 7.4325L6.4275 6.40125ZM5.4225 5.25375C5.28375 5.1375 5.06625 5.13375 4.96875 5.24625L4.14 6.23625L4.65375 6.6675L5.47125 5.68875C5.57625 5.565 5.57625 5.385 5.4225 5.25375ZM12 1.24125C6.05625 1.24125 1.24125 6.05625 1.24125 12C1.24125 17.9438 6.05625 22.7587 12 22.7587C17.9438 22.7587 22.7587 17.9438 22.7587 12C22.7587 6.05625 17.9438 1.24125 12 1.24125ZM10.4288 1.82625H11.28L12.0487 3.84375L12.8212 1.82625H13.6725V4.66125H13.1063V2.68125L12.36 4.66125H11.7413L10.995 2.68125V4.66125H10.4288V1.82625ZM3.285 6.4875L4.665 4.84125C4.95375 4.5 5.35125 4.22625 5.73375 4.545C5.85 4.6425 5.89875 4.67625 6.04125 4.935C6.075 5.02875 6.10125 5.19375 6.0375 5.35875C6.3675 5.1525 6.72 5.22 6.94875 5.44125C7.2975 5.7825 7.24875 6.17625 6.915 6.57375L5.45625 8.31L3.285 6.4875ZM12 18.8738C8.205 18.8738 5.12625 15.795 5.12625 12C5.12625 8.205 8.205 5.12625 12 5.12625C15.795 5.12625 18.8738 8.205 18.8738 12C18.8738 15.795 15.795 18.8738 12 18.8738ZM18.405 8.36625L17.8913 7.72875L18.915 6.22875L18.9075 6.22125L17.2313 6.91125L16.71 6.2775L18.4875 3.99L18.9263 4.53L17.8125 5.98875L19.515 5.2575L19.9837 5.83875L18.915 7.35L20.5725 6.5625L21.0112 7.10625L18.405 8.36625ZM12 18.4313C15.5513 18.4313 18.4313 15.5513 18.4313 12H12V18.4313ZM5.56875 12H12V5.56875C8.44875 5.56875 5.56875 8.44875 5.56875 12ZM6.4275 6.40125C6.54375 6.2625 6.52875 6.0525 6.36 5.91C6.21 5.78625 5.9925 5.82 5.895 5.93625L5.02125 6.97875L5.565 7.4325L6.4275 6.40125ZM5.4225 5.25375C5.28375 5.1375 5.06625 5.13375 4.96875 5.24625L4.14 6.23625L4.65375 6.6675L5.47125 5.68875C5.57625 5.565 5.57625 5.385 5.4225 5.25375ZM20.22 3.78C18.0225 1.5825 15.105 0.375 12 0.375C5.59125 0.375 0.375 5.59125 0.375 12C0.375 15.105 1.5825 18.0262 3.78 20.22C5.9775 22.4175 8.895 23.625 12 23.625C15.105 23.625 18.0225 22.4175 20.22 20.22C22.4175 18.0262 23.625 15.105 23.625 12C23.625 8.895 22.4175 5.9775 20.22 3.78ZM12 23.2238C9.00375 23.2238 6.18375 22.0537 4.065 19.935C1.94625 17.8162 0.77625 14.9963 0.77625 12C0.77625 9.00375 1.94625 6.18375 4.065 4.065C6.18375 1.94625 9.00375 0.77625 12 0.77625C14.9963 0.77625 17.8162 1.94625 19.935 4.065C22.0537 6.18375 23.2238 9.00375 23.2238 12C23.2238 18.1875 18.1875 23.2238 12 23.2238ZM12 1.24125C6.05625 1.24125 1.24125 6.05625 1.24125 12C1.24125 17.9438 6.05625 22.7587 12 22.7587C17.9438 22.7587 22.7587 17.9438 22.7587 12C22.7587 6.05625 17.9438 1.24125 12 1.24125ZM10.4288 1.82625H11.28L12.0487 3.84375L12.8212 1.82625H13.6725V4.66125H13.1063V2.68125L12.36 4.66125H11.7413L10.995 2.68125V4.66125H10.4288V1.82625ZM3.285 6.4875L4.665 4.84125C4.95375 4.5 5.35125 4.22625 5.73375 4.545C5.85 4.6425 5.89875 4.67625 6.04125 4.935C6.075 5.02875 6.10125 5.19375 6.0375 5.35875C6.3675 5.1525 6.72 5.22 6.94875 5.44125C7.2975 5.7825 7.24875 6.17625 6.915 6.57375L5.45625 8.31L3.285 6.4875ZM12 18.8738C8.205 18.8738 5.12625 15.795 5.12625 12C5.12625 8.205 8.205 5.12625 12 5.12625C15.795 5.12625 18.8738 8.205 18.8738 12C18.8738 15.795 15.795 18.8738 12 18.8738ZM18.405 8.36625L17.8913 7.72875L18.915 6.22875L18.9075 6.22125L17.2313 6.91125L16.71 6.2775L18.4875 3.99L18.9263 4.53L17.8125 5.98875L19.515 5.2575L19.9837 5.83875L18.915 7.35L20.5725 6.5625L21.0112 7.10625L18.405 8.36625ZM12 18.4313C15.5513 18.4313 18.4313 15.5513 18.4313 12H12V18.4313ZM5.56875 12H12V5.56875C8.44875 5.56875 5.56875 8.44875 5.56875 12ZM6.4275 6.40125C6.54375 6.2625 6.52875 6.0525 6.36 5.91C6.21 5.78625 5.9925 5.82 5.895 5.93625L5.02125 6.97875L5.565 7.4325L6.4275 6.40125ZM5.4225 5.25375C5.28375 5.1375 5.06625 5.13375 4.96875 5.24625L4.14 6.23625L4.65375 6.6675L5.47125 5.68875C5.57625 5.565 5.57625 5.385 5.4225 5.25375ZM5.4225 5.25375C5.28375 5.1375 5.06625 5.13375 4.96875 5.24625L4.14 6.23625L4.65375 6.6675L5.47125 5.68875C5.57625 5.565 5.57625 5.385 5.4225 5.25375ZM6.36 5.91C6.21 5.78625 5.9925 5.82 5.895 5.93625L5.02125 6.97875L5.565 7.4325L6.4275 6.40125C6.54375 6.2625 6.52875 6.0525 6.36 5.91ZM5.56875 12H12V5.56875C8.44875 5.56875 5.56875 8.44875 5.56875 12ZM12 12V18.4313C15.5513 18.4313 18.4313 15.5513 18.4313 12H12ZM12 12V18.4313C15.5513 18.4313 18.4313 15.5513 18.4313 12H12ZM5.56875 12H12V5.56875C8.44875 5.56875 5.56875 8.44875 5.56875 12ZM6.36 5.91C6.21 5.78625 5.9925 5.82 5.895 5.93625L5.02125 6.97875L5.565 7.4325L6.4275 6.40125C6.54375 6.2625 6.52875 6.0525 6.36 5.91ZM5.4225 5.25375C5.28375 5.1375 5.06625 5.13375 4.96875 5.24625L4.14 6.23625L4.65375 6.6675L5.47125 5.68875C5.57625 5.565 5.57625 5.385 5.4225 5.25375ZM12 1.24125C6.05625 1.24125 1.24125 6.05625 1.24125 12C1.24125 17.9438 6.05625 22.7587 12 22.7587C17.9438 22.7587 22.7587 17.9438 22.7587 12C22.7587 6.05625 17.9438 1.24125 12 1.24125ZM10.4288 1.82625H11.28L12.0487 3.84375L12.8212 1.82625H13.6725V4.66125H13.1063V2.68125L12.36 4.66125H11.7413L10.995 2.68125V4.66125H10.4288V1.82625ZM3.285 6.4875L4.665 4.84125C4.95375 4.5 5.35125 4.22625 5.73375 4.545C5.85 4.6425 5.89875 4.67625 6.04125 4.935C6.075 5.02875 6.10125 5.19375 6.0375 5.35875C6.3675 5.1525 6.72 5.22 6.94875 5.44125C7.2975 5.7825 7.24875 6.17625 6.915 6.57375L5.45625 8.31L3.285 6.4875ZM12 18.8738C8.205 18.8738 5.12625 15.795 5.12625 12C5.12625 8.205 8.205 5.12625 12 5.12625C15.795 5.12625 18.8738 8.205 18.8738 12C18.8738 15.795 15.795 18.8738 12 18.8738ZM18.405 8.36625L17.8913 7.72875L18.915 6.22875L18.9075 6.22125L17.2313 6.91125L16.71 6.2775L18.4875 3.99L18.9263 4.53L17.8125 5.98875L19.515 5.2575L19.9837 5.83875L18.915 7.35L20.5725 6.5625L21.0112 7.10625L18.405 8.36625ZM12 18.4313C15.5513 18.4313 18.4313 15.5513 18.4313 12H12V18.4313ZM5.56875 12H12V5.56875C8.44875 5.56875 5.56875 8.44875 5.56875 12ZM6.4275 6.40125C6.54375 6.2625 6.52875 6.0525 6.36 5.91C6.21 5.78625 5.9925 5.82 5.895 5.93625L5.02125 6.97875L5.565 7.4325L6.4275 6.40125ZM5.4225 5.25375C5.28375 5.1375 5.06625 5.13375 4.96875 5.24625L4.14 6.23625L4.65375 6.6675L5.47125 5.68875C5.57625 5.565 5.57625 5.385 5.4225 5.25375ZM5.4225 5.25375C5.28375 5.1375 5.06625 5.13375 4.96875 5.24625L4.14 6.23625L4.65375 6.6675L5.47125 5.68875C5.57625 5.565 5.57625 5.385 5.4225 5.25375ZM6.36 5.91C6.21 5.78625 5.9925 5.82 5.895 5.93625L5.02125 6.97875L5.565 7.4325L6.4275 6.40125C6.54375 6.2625 6.52875 6.0525 6.36 5.91ZM5.56875 12H12V5.56875C8.44875 5.56875 5.56875 8.44875 5.56875 12ZM12 12V18.4313C15.5513 18.4313 18.4313 15.5513 18.4313 12H12ZM12 12V18.4313C15.5513 18.4313 18.4313 15.5513 18.4313 12H12ZM5.56875 12H12V5.56875C8.44875 5.56875 5.56875 8.44875 5.56875 12ZM6.36 5.91C6.21 5.78625 5.9925 5.82 5.895 5.93625L5.02125 6.97875L5.565 7.4325L6.4275 6.40125C6.54375 6.2625 6.52875 6.0525 6.36 5.91ZM5.4225 5.25375C5.28375 5.1375 5.06625 5.13375 4.96875 5.24625L4.14 6.23625L4.65375 6.6675L5.47125 5.68875C5.57625 5.565 5.57625 5.385 5.4225 5.25375ZM12 1.24125C6.05625 1.24125 1.24125 6.05625 1.24125 12C1.24125 17.9438 6.05625 22.7587 12 22.7587C17.9438 22.7587 22.7587 17.9438 22.7587 12C22.7587 6.05625 17.9438 1.24125 12 1.24125ZM10.4288 1.82625H11.28L12.0487 3.84375L12.8212 1.82625H13.6725V4.66125H13.1063V2.68125L12.36 4.66125H11.7413L10.995 2.68125V4.66125H10.4288V1.82625ZM3.285 6.4875L4.665 4.84125C4.95375 4.5 5.35125 4.22625 5.73375 4.545C5.85 4.6425 5.89875 4.67625 6.04125 4.935C6.075 5.02875 6.10125 5.19375 6.0375 5.35875C6.3675 5.1525 6.72 5.22 6.94875 5.44125C7.2975 5.7825 7.24875 6.17625 6.915 6.57375L5.45625 8.31L3.285 6.4875ZM12 18.8738C8.205 18.8738 5.12625 15.795 5.12625 12C5.12625 8.205 8.205 5.12625 12 5.12625C15.795 5.12625 18.8738 8.205 18.8738 12C18.8738 15.795 15.795 18.8738 12 18.8738ZM18.405 8.36625L17.8913 7.72875L18.915 6.22875L18.9075 6.22125L17.2313 6.91125L16.71 6.2775L18.4875 3.99L18.9263 4.53L17.8125 5.98875L19.515 5.2575L19.9837 5.83875L18.915 7.35L20.5725 6.5625L21.0112 7.10625L18.405 8.36625ZM12 18.4313C15.5513 18.4313 18.4313 15.5513 18.4313 12H12V18.4313ZM5.56875 12H12V5.56875C8.44875 5.56875 5.56875 8.44875 5.56875 12ZM6.4275 6.40125C6.54375 6.2625 6.52875 6.0525 6.36 5.91C6.21 5.78625 5.9925 5.82 5.895 5.93625L5.02125 6.97875L5.565 7.4325L6.4275 6.40125ZM5.4225 5.25375C5.28375 5.1375 5.06625 5.13375 4.96875 5.24625L4.14 6.23625L4.65375 6.6675L5.47125 5.68875C5.57625 5.565 5.57625 5.385 5.4225 5.25375ZM5.4225 5.25375C5.28375 5.1375 5.06625 5.13375 4.96875 5.24625L4.14 6.23625L4.65375 6.6675L5.47125 5.68875C5.57625 5.565 5.57625 5.385 5.4225 5.25375ZM6.36 5.91C6.21 5.78625 5.9925 5.82 5.895 5.93625L5.02125 6.97875L5.565 7.4325L6.4275 6.40125C6.54375 6.2625 6.52875 6.0525 6.36 5.91ZM5.56875 12H12V5.56875C8.44875 5.56875 5.56875 8.44875 5.56875 12ZM12 12V18.4313C15.5513 18.4313 18.4313 15.5513 18.4313 12H12ZM12 12V18.4313C15.5513 18.4313 18.4313 15.5513 18.4313 12H12ZM5.56875 12H12V5.56875C8.44875 5.56875 5.56875 8.44875 5.56875 12ZM6.36 5.91C6.21 5.78625 5.9925 5.82 5.895 5.93625L5.02125 6.97875L5.565 7.4325L6.4275 6.40125C6.54375 6.2625 6.52875 6.0525 6.36 5.91ZM5.4225 5.25375C5.28375 5.1375 5.06625 5.13375 4.96875 5.24625L4.14 6.23625L4.65375 6.6675L5.47125 5.68875C5.57625 5.565 5.57625 5.385 5.4225 5.25375ZM5.4225 5.25375C5.28375 5.1375 5.06625 5.13375 4.96875 5.24625L4.14 6.23625L4.65375 6.6675L5.47125 5.68875C5.57625 5.565 5.57625 5.385 5.4225 5.25375ZM6.36 5.91C6.21 5.78625 5.9925 5.82 5.895 5.93625L5.02125 6.97875L5.565 7.4325L6.4275 6.40125C6.54375 6.2625 6.52875 6.0525 6.36 5.91ZM6.36 5.91C6.21 5.78625 5.9925 5.82 5.895 5.93625L5.02125 6.97875L5.565 7.4325L6.4275 6.40125C6.54375 6.2625 6.52875 6.0525 6.36 5.91ZM5.4225 5.25375C5.28375 5.1375 5.06625 5.13375 4.96875 5.24625L4.14 6.23625L4.65375 6.6675L5.47125 5.68875C5.57625 5.565 5.57625 5.385 5.4225 5.25375Z" fill="#15171A"/>
</g>
<defs>
<clipPath id="clip0_914_44865">
<rect width="24" height="24" fill="white"/>
</clipPath>
</defs>
</svg>
