<svg width="24" height="24" viewBox="0 0 24 24" fill="none" xmlns="http://www.w3.org/2000/svg">
<path d="M19.0876 0.675049H4.16255C3.26255 0.675049 2.55005 1.38755 2.55005 2.25005V21.75C2.55005 22.6125 3.26255 23.3625 4.16255 23.3625H19.0876C20.3626 23.3625 21.4501 22.3125 21.4501 21V3.00005C21.4501 1.72505 20.4001 0.675049 19.0876 0.675049ZM19.7626 21C19.7626 21.375 19.4626 21.675 19.0876 21.675H4.23755V2.36255H19.0876C19.4626 2.36255 19.7626 2.66255 19.7626 3.03755V21Z" fill="#161A23"/>
<path d="M11.0625 14.9626H7.2375C6.7875 14.9626 6.375 15.3376 6.375 15.8251C6.375 16.3126 6.75 16.6876 7.2375 16.6876H11.0625C11.5125 16.6876 11.925 16.3126 11.925 15.8251C11.925 15.3376 11.5125 14.9626 11.0625 14.9626Z" fill="#161A23"/>
<path d="M11.0625 17.8501H7.2375C6.7875 17.8501 6.375 18.2251 6.375 18.7126C6.375 19.2001 6.75 19.5751 7.2375 19.5751H11.0625C11.5125 19.5751 11.925 19.2001 11.925 18.7126C11.925 18.2251 11.5125 17.8501 11.0625 17.8501Z" fill="#161A23"/>
<path d="M14.2126 11.3251L15.0001 9.03764H16.3126C16.7626 9.03764 17.1751 8.66264 17.1751 8.17514C17.1751 7.68764 16.8001 7.31264 16.3126 7.31264H15.0001L14.2126 5.02514C14.0626 4.57514 13.5751 4.35014 13.1251 4.50014C12.6751 4.65014 12.4501 5.13764 12.6001 5.58764L13.2001 7.31264H10.1251L9.37506 5.88764C9.15006 5.47514 8.66256 5.32514 8.25006 5.51264C7.83756 5.73764 7.68756 6.22514 7.87506 6.63764L8.66256 8.13764L7.87506 9.63764C7.65006 10.0501 7.83756 10.5751 8.25006 10.7626C8.36256 10.8376 8.51256 10.8376 8.62506 10.8376C8.92506 10.8376 9.22506 10.6876 9.37506 10.3876L10.1251 8.92514H13.2001L12.6001 10.6876C12.4501 11.1376 12.6751 11.6251 13.1251 11.7751C13.2001 11.8126 13.3126 11.8126 13.3876 11.8126C13.7626 11.8876 14.1001 11.6626 14.2126 11.3251Z" fill="#161A23"/>
<path d="M16.7625 14.9626H14.85C14.4 14.9626 13.9875 15.3376 13.9875 15.8251C13.9875 16.3126 14.3625 16.6876 14.85 16.6876H16.7625C17.2125 16.6876 17.625 16.3126 17.625 15.8251C17.625 15.3376 17.25 14.9626 16.7625 14.9626Z" fill="#161A23"/>
<path d="M16.7625 17.8501H14.85C14.4 17.8501 13.9875 18.2251 13.9875 18.7126C13.9875 19.2001 14.3625 19.5751 14.85 19.5751H16.7625C17.2125 19.5751 17.625 19.2001 17.625 18.7126C17.625 18.2251 17.25 17.8501 16.7625 17.8501Z" fill="#161A23"/>
</svg>
