<svg width="24" height="24" viewBox="0 0 24 24" fill="none" xmlns="http://www.w3.org/2000/svg">
<path d="M20.9999 4.01245H2.24995C1.38745 4.01245 0.637451 4.72495 0.637451 5.62495V18.45C0.637451 19.3125 1.34995 20.0625 2.24995 20.0625H20.9999C22.275 20.0625 23.3624 19.0125 23.3624 17.7V6.33745C23.3624 5.06245 22.275 4.01245 20.9999 4.01245ZM21.6749 17.6625C21.6749 18.0375 21.3749 18.3375 20.9999 18.3375H2.36245V5.69995H20.9999C21.3749 5.69995 21.6749 5.99995 21.6749 6.37495V17.6625Z" fill="#161A23"/>
<path d="M18.6749 8.7749H14.8499C14.3999 8.7749 13.9874 9.1499 13.9874 9.6374C13.9874 10.1249 14.3624 10.4999 14.8499 10.4999H18.6749C19.1249 10.4999 19.5374 10.1249 19.5374 9.6374C19.5374 9.1499 19.1624 8.7749 18.6749 8.7749Z" fill="#161A23"/>
<path d="M18.6749 13.5375H14.8499C14.3999 13.5375 13.9874 13.9125 13.9874 14.4C13.9874 14.8875 14.3624 15.2625 14.8499 15.2625H18.6749C19.1249 15.2625 19.5374 14.8875 19.5374 14.4C19.5374 13.9125 19.1624 13.5375 18.6749 13.5375Z" fill="#161A23"/>
<path d="M11.3249 10.2374L9.03739 9.48743V7.72493C9.03739 7.27493 8.66239 6.86243 8.17489 6.86243C7.68739 6.86243 7.31239 7.23743 7.31239 7.72493V9.48743L5.02489 10.2374C4.57489 10.3874 4.34989 10.8749 4.49989 11.2874C4.61239 11.6249 4.94989 11.8499 5.28739 11.8499C5.36239 11.8499 5.47489 11.8499 5.54989 11.8124L7.31239 11.2124V13.8374L5.88739 14.5499C5.47489 14.7374 5.28739 15.2624 5.51239 15.6749C5.66239 15.9749 5.96239 16.1624 6.26239 16.1624C6.37489 16.1624 6.52489 16.1249 6.63739 16.0874L8.17489 15.3374L9.71239 16.0874C9.82489 16.1624 9.97489 16.1624 10.0874 16.1624C10.3874 16.1624 10.6874 15.9749 10.8374 15.6749C11.0624 15.2624 10.8749 14.7374 10.4624 14.5499L9.03739 13.8749V11.2499L10.7999 11.8499C10.8749 11.8874 10.9874 11.8874 11.0624 11.8874C11.3999 11.8874 11.7374 11.6624 11.8499 11.3249C11.9999 10.8749 11.7374 10.3874 11.3249 10.2374Z" fill="#161A23"/>
</svg>
