<svg width="24" height="24" viewBox="0 0 24 24" fill="none" xmlns="http://www.w3.org/2000/svg">
<path d="M16.05 10.9875C17.8875 10.3125 18.975 8.625 18.975 6.375C18.975 4.65 18.45 3.15 17.1375 2.1375C15.975 0.9 14.3625 0.375 12.45 0.375H4.27505C3.71255 0.375 3.30005 0.7875 3.30005 1.35V22.6125C3.30005 23.175 3.71255 23.5875 4.27505 23.5875H13.65C15.675 23.5875 17.4 22.9125 18.7125 21.5625C20.025 20.25 20.7375 18.6375 20.7375 16.6125C20.7 13.8 18.975 11.55 16.05 10.9875ZM8.36255 4.8375H11.6625C13.1625 4.8375 14.2125 5.8875 14.2125 7.2C14.2125 8.5125 13.125 9.6375 11.6625 9.6375H8.36255V4.8375ZM12.7125 19.0875H8.36255V13.65H12.75C14.475 13.65 15.7875 14.7 15.7875 16.3125C15.7875 17.925 14.475 19.0875 12.7125 19.0875Z" fill="#161A23"/>
</svg>
