<svg width="24" height="24" viewBox="0 0 24 24" fill="none" xmlns="http://www.w3.org/2000/svg">
<path d="M10.65 23.3625C10.3875 23.3625 10.1625 23.325 9.89999 23.2125C9.18749 22.875 8.81249 22.125 8.96249 21.3375L10.0875 15.375H3.22499C2.58749 15.375 1.98749 15 1.68749 14.4375C1.38749 13.875 1.46249 13.1625 1.83749 12.6375L10.275 1.35001C10.725 0.750014 11.475 0.525014 12.1875 0.750014C12.9 0.975014 13.35 1.61251 13.35 2.36251V7.65001H20.775C21.45 7.65001 22.05 8.02501 22.3125 8.62501C22.6125 9.22501 22.5 9.93751 22.0875 10.425L11.9625 22.725C11.625 23.1375 11.1375 23.3625 10.65 23.3625ZM11.625 2.36251L3.18749 13.65L11.1 13.6875C11.3625 13.6875 11.5875 13.8 11.7375 13.9875C11.8875 14.175 11.9625 14.4375 11.925 14.7L10.6125 21.675L10.65 21.7125L20.8125 9.37501L12.525 9.33751C12.075 9.33751 11.6625 8.96251 11.6625 8.47501L11.625 2.36251Z" fill="#161A23"/>
</svg>
