<svg width="24" height="24" viewBox="0 0 24 24" fill="none" xmlns="http://www.w3.org/2000/svg">
<path d="M8.92499 23.3625C8.47499 23.3625 8.06249 23.175 7.76249 22.8375C7.19999 22.2 7.38749 21.45 7.46249 21.1125L9.44999 12.6H5.58749C5.32499 12.6 4.79999 12.6 4.34999 12.2625C3.59999 11.6625 3.82499 10.65 3.86249 10.3125L5.43749 2.62498C5.51249 2.21248 5.66249 1.57498 6.22499 1.12498C6.86249 0.637478 7.49999 0.637478 7.87499 0.674978H13.0125C13.4625 0.674978 14.4 0.674978 14.9625 1.38748C15.525 2.09998 15.3375 3.03748 15.2625 3.48748L14.8125 5.62498L18.1125 5.66248C19.425 5.66248 19.9125 6.26248 20.0625 6.74998C20.325 7.49998 19.875 8.17498 19.6875 8.43748L10.5 22.275C10.3125 22.5375 10.05 22.95 9.56249 23.2125C9.37499 23.2875 9.18749 23.3625 8.99999 23.3625C8.99999 23.325 8.96249 23.3625 8.92499 23.3625ZM5.54999 10.875C5.58749 10.875 5.62499 10.875 5.62499 10.875H10.5375C10.8 10.875 11.025 10.9875 11.2125 11.2125C11.3625 11.4 11.4375 11.6625 11.3625 11.925L9.18749 21.225L18.2625 7.49998C18.3 7.46248 18.3375 7.38748 18.3375 7.34998C18.2625 7.34998 18.1875 7.34998 18.0375 7.34998L13.725 7.31248C13.4625 7.31248 13.2375 7.19998 13.0875 7.01248C12.9375 6.82498 12.8625 6.56248 12.9375 6.29998L13.6125 3.11248C13.725 2.58748 13.6875 2.47498 13.65 2.43748C13.6125 2.39998 13.5 2.36248 12.975 2.36248H7.87499C7.57499 2.36248 7.38749 2.36248 7.34999 2.39998C7.31249 2.43748 7.23749 2.62498 7.16249 2.92498L5.58749 10.6125C5.58749 10.725 5.54999 10.8 5.54999 10.875Z" fill="#161A23"/>
</svg>
