<svg width="24" height="24" viewBox="0 0 24 24" fill="none" xmlns="http://www.w3.org/2000/svg">
<path d="M18.9375 23.3625H7.49999C5.77499 23.3625 4.31249 22.05 4.12499 20.3625C4.12499 20.2875 4.08749 20.25 4.08749 20.175V2.96255C4.08749 1.68755 5.09999 0.675049 6.37499 0.675049H17.55C18.825 0.675049 19.8375 1.68755 19.8375 2.96255V16.0125C19.8375 17.2875 18.825 18.3 17.55 18.3H7.49999C7.04999 18.3 6.59999 18.4875 6.29999 18.7875C5.96249 19.0875 5.81249 19.5375 5.81249 19.9875C5.81249 20.925 6.56249 21.675 7.49999 21.675H18.9375C19.3875 21.675 19.8 22.05 19.8 22.5375C19.8 23.025 19.425 23.3625 18.9375 23.3625ZM6.41249 2.36255C6.07499 2.36255 5.81249 2.62505 5.81249 2.96255V17.0625C6.33749 16.7625 6.89999 16.6125 7.49999 16.6125H17.5875C17.925 16.6125 18.1875 16.35 18.1875 16.0125V2.96255C18.1875 2.62505 17.925 2.36255 17.5875 2.36255H6.41249Z" fill="#161A23"/>
<path d="M14.7 6.6H9.37498C8.92498 6.6 8.51248 6.225 8.51248 5.7375C8.51248 5.25 8.88748 4.875 9.37498 4.875H14.7C15.15 4.875 15.5625 5.25 15.5625 5.7375C15.5625 6.225 15.1875 6.6 14.7 6.6Z" fill="#161A23"/>
</svg>
