<svg width="24" height="24" viewBox="0 0 24 24" fill="none" xmlns="http://www.w3.org/2000/svg">
<path d="M20.4375 14.6625H19.1625V9.33745H20.4375C20.8875 9.33745 21.3 8.96245 21.3 8.47495C21.3 7.98745 20.925 7.61245 20.4375 7.61245H18.3375V2.36245H19.6125C20.0625 2.36245 20.475 1.98745 20.475 1.49995C20.475 1.01245 20.1 0.637451 19.6125 0.637451H7.08751C5.25001 0.637451 3.75001 2.13745 3.75001 3.97495V5.99995C3.75001 7.19995 4.38751 8.28745 5.36251 8.84995C4.87501 9.41245 4.57501 10.1625 4.57501 10.9875V12.975C4.57501 13.575 4.72501 14.1375 5.02501 14.625H3.52501C3.07501 14.625 2.66251 15 2.66251 15.4875C2.66251 15.975 3.03751 16.35 3.52501 16.35H4.80001V21.6749H3.56251C3.11251 21.6749 2.70001 22.0499 2.70001 22.5375C2.70001 23.025 3.07501 23.4 3.56251 23.4H16.0875C17.925 23.4 19.425 21.9 19.425 20.0625V18C19.425 17.4 19.275 16.8375 18.975 16.35H20.475C20.925 16.35 21.3375 15.975 21.3375 15.4875C21.3375 15 20.925 14.6625 20.4375 14.6625ZM6.30001 13.0125V11.025C6.30001 10.125 7.05001 9.37495 7.95001 9.37495H17.5125V14.7H16.05H7.95001C7.01251 14.6625 6.30001 13.9125 6.30001 13.0125ZM5.43751 4.01245C5.43751 3.11245 6.18751 2.36245 7.08751 2.36245H16.65V7.68745H7.08751C6.18751 7.68745 5.43751 6.93745 5.43751 6.03745V4.01245ZM17.7 19.9874C17.7 20.8875 16.95 21.6375 16.05 21.6375H6.48751V16.35H7.95001H16.05C16.95 16.35 17.7 17.1 17.7 18V19.9874Z" fill="#161A23"/>
</svg>
