<svg width="24" height="24" viewBox="0 0 24 24" fill="none" xmlns="http://www.w3.org/2000/svg">
<path d="M14.85 18.7875H9.15001C8.70001 18.7875 8.28751 19.1625 8.28751 19.65C8.28751 20.1375 8.66251 20.5125 9.15001 20.5125H14.8875C15.3375 20.5125 15.75 20.1375 15.75 19.65C15.75 19.1625 15.3375 18.7875 14.85 18.7875Z" fill="#161A23"/>
<path d="M9.03749 12.8624H14.9625C15.825 12.8624 16.575 12.1499 16.575 11.2499V9.03743C16.575 8.17493 15.8625 7.42493 14.9625 7.42493H9.03749C8.17499 7.42493 7.42499 8.13743 7.42499 9.03743V11.2499C7.46249 12.1124 8.17499 12.8624 9.03749 12.8624ZM9.14999 9.14993H14.8875V11.1749H9.14999V9.14993Z" fill="#161A23"/>
<path d="M6.375 2.36245H19.65C20.1 2.36245 20.5125 1.98745 20.5125 1.49995C20.5125 1.01245 20.1375 0.637451 19.65 0.637451H6.375C4.875 0.637451 3.675 1.79995 3.5625 3.26245C3.5625 3.29995 3.5625 3.33745 3.5625 3.37495V21C3.5625 22.275 4.65 23.2875 6 23.2875H18.3375C19.3875 23.2875 20.25 22.425 20.25 21.375V6.37495C20.25 5.32495 19.3875 4.46245 18.3375 4.46245H6.2625C5.625 4.46245 5.25 4.08745 5.25 3.48745C5.2125 2.84995 5.7375 2.36245 6.375 2.36245ZM6.225 6.14995C6.225 6.14995 6.2625 6.14995 6.225 6.14995C6.2625 6.14995 6.2625 6.14995 6.225 6.14995H18.3C18.4125 6.14995 18.525 6.26245 18.525 6.37495V21.45C18.525 21.5625 18.4125 21.6749 18.3 21.6749H5.9625C5.55 21.6749 5.2125 21.4125 5.2125 21.075V5.99995C5.5125 6.11245 5.85 6.14995 6.225 6.14995Z" fill="#161A23"/>
</svg>
