<svg width="24" height="24" viewBox="0 0 24 24" fill="none" xmlns="http://www.w3.org/2000/svg">
<path d="M21.9375 19.9874L18.75 3.37495C18.6375 2.77495 18.3 2.21245 17.775 1.87495C17.25 1.53745 16.65 1.38745 16.0125 1.49995L13.425 1.98745C13.05 1.19995 12.225 0.637451 11.325 0.637451H7.83749H4.34999C3.03749 0.674951 1.98749 1.72495 1.98749 2.99995V20.9999C1.98749 22.275 3.03749 23.3624 4.34999 23.3624H7.83749H11.325C12.6 23.3624 13.6875 22.3124 13.6875 20.9999V10.2374L15.75 21.1874C15.8625 21.7874 16.2 22.3499 16.725 22.6874C17.1 22.9499 17.5875 23.0999 18.0375 23.0999C18.1875 23.0999 18.3375 23.0999 18.4875 23.0624L20.1 22.7624C21.375 22.4999 22.2 21.2624 21.9375 19.9874ZM11.9625 2.99995V7.42495H8.66249V2.36245H11.2875C11.6625 2.36245 11.9625 2.62495 11.9625 2.99995ZM6.97499 17.025H3.67499V8.02495H6.97499V17.025ZM8.66249 9.11245H11.9625V14.5499H8.66249V9.11245ZM4.34999 2.36245H6.97499V6.37495H3.67499V2.99995C3.67499 2.62495 3.97499 2.36245 4.34999 2.36245ZM3.67499 20.9999V18.7125H6.97499V21.6374H4.34999C3.97499 21.6749 3.67499 21.3749 3.67499 20.9999ZM11.325 21.6749H8.69999V16.2374H12V20.9999C11.9625 21.3749 11.6625 21.6749 11.325 21.6749ZM19.7625 21.0749L18.1875 21.3749C18 21.4124 17.85 21.375 17.7 21.2624C17.55 21.15 17.475 20.9999 17.4375 20.8499L14.1 3.59995L16.35 3.18745C16.5375 3.14995 16.6875 3.18745 16.8375 3.29995C16.9875 3.41245 17.0625 3.56245 17.1 3.71245L20.2875 20.3249C20.3625 20.6624 20.1375 21 19.7625 21.0749Z" fill="#161A23"/>
</svg>
