<svg width="24" height="24" viewBox="0 0 24 24" fill="none" xmlns="http://www.w3.org/2000/svg">
<path d="M11.6625 15.3C12.1125 15.3 12.525 14.925 12.525 14.4375V9.0375L14.3625 11.0625C14.5125 11.25 14.775 11.325 15 11.325C15.1875 11.325 15.4125 11.25 15.5625 11.1C15.9 10.8 15.9375 10.2375 15.6375 9.9L12.3375 6.2625C12.1875 6.075 11.9625 6 11.7 6C11.4375 6 11.25 6.1125 11.0625 6.2625L7.76249 9.9C7.46249 10.2375 7.46249 10.7625 7.83749 11.1C8.17499 11.4 8.69999 11.4 9.03749 11.025L10.875 9V14.4375C10.8 14.925 11.175 15.3 11.6625 15.3Z" fill="#161A23"/>
<path d="M23.4 11.475C23.0625 11.175 22.5375 11.175 22.2 11.55L20.3625 13.575V8.13752C20.3625 7.68752 19.9875 7.27502 19.5 7.27502C19.0125 7.27502 18.6375 7.65002 18.6375 8.13752V13.575L16.875 11.55C16.575 11.2125 16.0125 11.175 15.675 11.475C15.3375 11.775 15.3 12.3375 15.6 12.675L18.9 16.3125C19.05 16.5 19.275 16.575 19.5375 16.575C19.8 16.575 19.9875 16.4625 20.175 16.3125L23.475 12.675C23.775 12.3375 23.7375 11.775 23.4 11.475Z" fill="#161A23"/>
<path d="M3.56249 20.0625H19.5C19.95 20.0625 20.3625 19.6875 20.3625 19.2001C20.3625 18.7125 19.9875 18.3375 19.5 18.3375H6.44999V2.32505H18.075C18.4125 2.32505 18.675 2.58755 18.675 2.92505V4.23755C18.675 4.68755 19.05 5.10005 19.5375 5.10005C20.025 5.10005 20.4 4.72505 20.4 4.23755V2.96255C20.4 1.68755 19.3875 0.675049 18.1125 0.675049H3.37499C2.09999 0.675049 1.08749 1.68755 1.08749 2.96255V20.9625C1.08749 21 1.08749 21.0375 1.08749 21.0375C1.16249 22.3125 2.24999 23.3625 3.56249 23.3625H19.5C19.95 23.3625 20.3625 22.9875 20.3625 22.5C20.3625 22.0125 19.9875 21.6376 19.5 21.6376H3.56249C3.11249 21.6376 2.77499 21.2625 2.77499 20.85C2.77499 20.4375 3.14999 20.0625 3.56249 20.0625ZM2.77499 2.96255C2.77499 2.62505 3.03749 2.32505 3.37499 2.32505H4.76249V18.375H3.56249C3.26249 18.375 2.99999 18.4125 2.77499 18.525V2.96255Z" fill="#161A23"/>
</svg>
