<svg width="24" height="24" viewBox="0 0 24 24" fill="none" xmlns="http://www.w3.org/2000/svg">
<path d="M4.34999 23.3625C4.19999 23.3625 4.04999 23.325 3.93749 23.25C3.67499 23.1 3.52499 22.8375 3.52499 22.5V3.00001C3.52499 1.72501 4.57499 0.637512 5.88749 0.637512H18.225C19.5 0.637512 20.5875 1.68751 20.5875 3.00001V22.4625C20.5875 22.7625 20.4375 23.025 20.175 23.175C19.9125 23.325 19.575 23.325 19.35 23.175L12 19.0125L4.76249 23.2125C4.61249 23.2875 4.46249 23.3625 4.34999 23.3625ZM5.84999 2.36251C5.47499 2.36251 5.17499 2.66251 5.17499 3.03751V21.075L11.5875 17.3625C11.85 17.2125 12.1875 17.2125 12.45 17.3625L18.825 21V3.00001C18.825 2.62501 18.525 2.32501 18.15 2.32501H5.84999V2.36251Z" fill="#161A23"/>
</svg>
