<svg width="24" height="24" viewBox="0 0 24 24" fill="none" xmlns="http://www.w3.org/2000/svg">
<path d="M21.1875 8.28749H10.95V5.66249C10.95 4.46249 9.97501 3.48749 8.77501 3.48749H5.70001C4.50001 3.48749 3.52501 4.46249 3.52501 5.66249V8.28749H2.81251C1.61251 8.28749 0.637512 9.26249 0.637512 10.4625V18.3375C0.637512 19.5375 1.61251 20.5125 2.81251 20.5125H21.15C22.35 20.5125 23.325 19.5375 23.325 18.3375V10.4625C23.3625 9.26249 22.3875 8.28749 21.1875 8.28749ZM5.21251 5.69999C5.21251 5.43749 5.43751 5.21249 5.70001 5.21249H8.77501C9.03751 5.21249 9.26251 5.43749 9.26251 5.69999V11.2125L8.21251 10.3875L8.13751 10.35C7.61251 9.97499 6.90001 9.97499 6.37501 10.35L5.25001 11.25V5.69999H5.21251ZM21.675 18.3C21.675 18.5625 21.45 18.7875 21.1875 18.7875H2.81251C2.55001 18.7875 2.32501 18.5625 2.32501 18.3V10.425C2.32501 10.1625 2.55001 9.93749 2.81251 9.93749H3.52501V11.925C3.52501 12.45 3.82501 12.9 4.27501 13.125C4.46251 13.2 4.65001 13.275 4.83751 13.275C5.13751 13.275 5.40001 13.1625 5.66251 12.975L7.23751 11.7375L8.77501 12.975C9.18751 13.275 9.71251 13.35 10.1625 13.125C10.6125 12.9 10.9125 12.45 10.9125 11.925V9.97499H21.15C21.4125 9.97499 21.6375 10.2 21.6375 10.4625V18.3H21.675Z" fill="#161A23"/>
</svg>
