<svg width="24" height="24" viewBox="0 0 24 24" fill="none" xmlns="http://www.w3.org/2000/svg">
<path d="M6.3 23.3625C6.0375 23.3625 5.8125 23.325 5.55 23.2125C4.9125 22.9125 4.5 22.275 4.5 21.5625V3.07499C4.5 1.76249 5.5875 0.674988 6.9 0.674988H17.1375C18.45 0.674988 19.5375 1.76249 19.5375 3.07499V21.4875C19.5375 22.2 19.125 22.8375 18.4875 23.1375C17.85 23.4375 17.1 23.325 16.5375 22.8375L12.4125 19.2375C12.15 19.05 11.85 19.0875 11.5875 19.2375L7.4625 22.875C7.125 23.175 6.7125 23.3625 6.3 23.3625ZM6.8625 2.36249C6.45 2.36249 6.15 2.69999 6.15 3.07499V21.5625C6.15 21.6 6.15 21.6375 6.225 21.675C6.3 21.7125 6.3375 21.675 6.3375 21.675L10.5375 17.9625C11.4 17.2875 12.6 17.2875 13.4625 17.9625L13.5375 18.0375L17.625 21.6375C17.625 21.6375 17.6625 21.675 17.7375 21.6375C17.8125 21.6 17.8125 21.5625 17.8125 21.525V3.07499C17.8125 2.66249 17.475 2.36249 17.1 2.36249H6.8625Z" fill="#161A23"/>
</svg>
