<svg width="24" height="24" viewBox="0 0 24 24" fill="none" xmlns="http://www.w3.org/2000/svg">
<g clip-path="url(#clip0_914_44869)">
<path d="M15.5256 14.8875C15.5256 17.1 13.4631 17.0625 13.2756 17.0625H9.0381V12.825H13.2381C15.4881 12.75 15.5256 14.4375 15.5256 14.8875ZM12.9381 11.0625C12.9756 11.0625 14.9256 11.1 14.9256 9.15C14.9256 8.3625 14.7756 7.3125 12.9381 7.3125H9.0381V11.0625H12.9381ZM23.5881 4.275V19.7625C23.5881 21.8625 21.8631 23.625 19.6881 23.625H4.3131C2.13809 23.625 0.413086 21.9 0.413086 19.725V4.275C0.413086 2.1 2.13809 0.375 4.3131 0.375H19.8006C21.8631 0.375 23.5881 2.1 23.5881 4.275ZM17.8881 15.15C17.8881 14.025 17.5881 12.15 15.3756 11.6625V11.625C16.5756 11.1 17.2881 10.1625 17.2881 8.775C17.2881 8.4 17.4006 5.4 13.2756 5.4H6.7131V18.9C13.3506 18.9 13.9881 18.9375 15.1881 18.6375C15.9006 18.4125 17.8881 17.7375 17.8881 15.15Z" fill="#15171A"/>
</g>
<defs>
<clipPath id="clip0_914_44869">
<rect width="24" height="24" fill="white"/>
</clipPath>
</defs>
</svg>
