<svg width="24" height="24" viewBox="0 0 24 24" fill="none" xmlns="http://www.w3.org/2000/svg">
<path fill-rule="evenodd" clip-rule="evenodd" d="M4.93016 2.625C3.58182 2.625 2.58411 3.80048 2.62879 5.07525C2.67167 6.3 2.61596 7.88618 2.21507 9.1797C1.81274 10.4769 1.1328 11.2989 0.0219727 11.4044V12.5956C1.1328 12.7013 1.81274 13.523 2.21502 14.8203C2.61596 16.1138 2.67162 17.7 2.62874 18.9247C2.58407 20.1993 3.58178 21.375 4.93035 21.375H18.7463C20.0947 21.375 21.0922 20.1995 21.0476 18.9247C21.0047 17.7 21.0604 16.1138 21.4613 14.8203C21.8636 13.523 22.5419 12.701 23.6528 12.5956V11.4044C22.5419 11.2987 21.8637 10.4771 21.4613 9.1797C21.0603 7.88636 21.0047 6.3 21.0476 5.07525C21.0922 3.80066 20.0947 2.625 18.7463 2.625H4.93016ZM16.0428 14.1669C16.0428 15.9222 14.7284 16.9867 12.5469 16.9867H8.83343C8.72723 16.9867 8.62534 16.9447 8.55023 16.8699C8.47511 16.7951 8.43293 16.6936 8.43293 16.5878V7.41225C8.43293 7.30646 8.47511 7.20499 8.55023 7.13017C8.62534 7.05536 8.72723 7.01332 8.83343 7.01332H12.5257C14.3447 7.01332 15.5385 7.9947 15.5385 9.50145C15.5385 10.559 14.7354 11.5058 13.7123 11.6717V11.7269C15.1051 11.879 16.0428 12.8398 16.0428 14.1669ZM12.142 8.27794H10.0246V11.2569H11.8079C13.1866 11.2569 13.9467 10.7039 13.9467 9.71561C13.9466 8.78936 13.2931 8.27794 12.142 8.27794ZM10.0246 12.4388V15.7217H12.2199C13.6553 15.7217 14.4156 15.148 14.4156 14.0699C14.4156 12.9918 13.634 12.4387 12.1276 12.4387L10.0246 12.4388Z" fill="#15171A"/>
</svg>
