<svg width="24" height="24" viewBox="0 0 24 24" fill="none" xmlns="http://www.w3.org/2000/svg">
<path d="M6.2625 13.0874H4.6125C4.1625 13.0874 3.75 13.4624 3.75 13.9499C3.75 14.4374 4.125 14.8124 4.6125 14.8124H6.2625C6.7125 14.8124 7.125 14.4374 7.125 13.9499C7.125 13.4624 6.7125 13.0874 6.2625 13.0874Z" fill="#161A23"/>
<path d="M15.45 13.0874H13.8C13.35 13.0874 12.9375 13.4624 12.9375 13.9499C12.9375 14.4374 13.3125 14.8124 13.8 14.8124H15.45C15.9 14.8124 16.3125 14.4374 16.3125 13.9499C16.3125 13.4624 15.9 13.0874 15.45 13.0874Z" fill="#161A23"/>
<path d="M21.2625 12.1125V7.125C22.2 6.7875 22.8375 5.8875 22.8375 4.875C22.8375 3.525 21.75 2.4375 20.4 2.4375C19.05 2.4375 17.9625 3.525 17.9625 4.875C17.9625 5.925 18.6375 6.7875 19.5375 7.125V12.075H19.125V11.8125C19.125 10.3125 17.8875 9.075 16.3875 9.075H14.25V8.25C14.25 7.0125 13.2375 6.0375 12.0375 6.0375H10.875V3.5625C10.875 3.1125 10.5 2.7 10.0125 2.7C9.52501 2.7 9.15001 3.075 9.15001 3.5625V6.0375H7.95001C6.71251 6.0375 5.73751 7.05 5.73751 8.25V9.075H3.37501C1.87501 9.075 0.637512 10.3125 0.637512 11.8125V18.825C0.637512 20.325 1.87501 21.5625 3.37501 21.5625H16.425C17.925 21.5625 19.1625 20.325 19.1625 18.825V18.5625H21.15C22.3875 18.5625 23.3625 17.55 23.3625 16.35V14.3625C23.3625 13.125 22.425 12.1875 21.2625 12.1125ZM20.4 4.125C20.8125 4.125 21.15 4.4625 21.15 4.875C21.15 5.2875 20.8125 5.625 20.4 5.625C19.9875 5.625 19.65 5.2875 19.65 4.875C19.65 4.4625 19.9875 4.125 20.4 4.125ZM7.46251 8.25C7.46251 7.95 7.68751 7.725 7.98751 7.725H12.0375C12.3375 7.725 12.5625 7.95 12.5625 8.25V9.075H7.46251V8.25ZM17.4375 18.825C17.4375 19.3875 16.9875 19.875 16.3875 19.875H3.37501C2.81251 19.875 2.32501 19.425 2.32501 18.825V11.8125C2.32501 11.25 2.77501 10.7625 3.37501 10.7625H16.425C16.9875 10.7625 17.475 11.2125 17.475 11.8125V18.825H17.4375ZM21.675 16.3125C21.675 16.6125 21.45 16.8375 21.15 16.8375H19.125V13.7625H21.1125C21.4125 13.7625 21.6375 13.9875 21.6375 14.2875V16.3125H21.675Z" fill="#161A23"/>
<path d="M11.4 15.75C10.95 15.75 10.5375 16.125 10.5375 16.6125C10.5375 16.9125 10.3125 17.1375 10.0125 17.1375C9.71251 17.1375 9.48751 16.9125 9.48751 16.6125C9.48751 16.1625 9.11251 15.75 8.62501 15.75C8.13751 15.75 7.76251 16.125 7.76251 16.6125C7.76251 17.85 8.77501 18.825 9.97501 18.825C11.175 18.825 12.1875 17.8125 12.1875 16.6125C12.225 16.125 11.85 15.75 11.4 15.75Z" fill="#161A23"/>
</svg>
