<svg width="24" height="24" viewBox="0 0 24 24" fill="none" xmlns="http://www.w3.org/2000/svg">
<path d="M10.1625 12.675H8.13749C7.68749 12.675 7.27499 13.05 7.27499 13.5375C7.27499 14.025 7.64999 14.4 8.13749 14.4H10.1625C10.6125 14.4 11.025 14.025 11.025 13.5375C11.025 13.05 10.65 12.675 10.1625 12.675Z" fill="#161A23"/>
<path d="M15.825 12.675H13.8C13.35 12.675 12.9375 13.05 12.9375 13.5375C12.9375 14.025 13.3125 14.4 13.8 14.4H15.825C16.275 14.4 16.6875 14.025 16.6875 13.5375C16.6875 13.05 16.3125 12.675 15.825 12.675Z" fill="#161A23"/>
<path d="M21.375 10.6125V6.1875C21.75 6.1125 22.0125 5.775 22.0125 5.3625C22.0125 4.9125 21.6375 4.5 21.15 4.5H19.875C19.425 4.5 19.0125 4.875 19.0125 5.3625C19.0125 5.7375 19.275 6.075 19.65 6.1875V10.425H19.2C18.75 8.8125 17.25 7.575 15.4875 7.575H8.55C6.7875 7.575 5.2875 8.775 4.8375 10.425H3.675C2.025 10.425 0.637497 11.775 0.637497 13.4625V13.6125C0.637497 15.2625 1.9875 16.65 3.675 16.65H4.8375C5.2875 18.2625 6.7875 19.5 8.55 19.5H15.525C17.2875 19.5 18.7875 18.3 19.2375 16.65H20.325C21.975 16.65 23.3625 15.3 23.3625 13.6125V13.4625C23.3625 12.15 22.5 11.025 21.375 10.6125ZM2.3625 13.6125V13.4625C2.3625 12.7125 2.9625 12.1125 3.7125 12.1125H4.725V14.925H3.675C2.925 14.925 2.3625 14.325 2.3625 13.6125ZM15.525 17.775H8.55C7.35 17.775 6.375 16.8 6.375 15.6V11.4375C6.375 10.2375 7.35 9.2625 8.55 9.2625H15.525C16.725 9.2625 17.7 10.2375 17.7 11.4375V15.6C17.6625 16.8 16.6875 17.775 15.525 17.775ZM21.675 13.6125C21.675 14.3625 21.075 14.9625 20.325 14.9625H19.35V12.15H20.325C21.075 12.15 21.675 12.75 21.675 13.5V13.6125Z" fill="#161A23"/>
</svg>
