<svg width="24" height="24" viewBox="0 0 24 24" fill="none" xmlns="http://www.w3.org/2000/svg">
<path d="M19.125 10.2375V7.42505C19.125 6.82505 18.9 6.22505 18.4875 5.77505L15 1.87505C14.5125 1.35005 13.8375 1.05005 13.1625 1.05005H6.63751C5.92501 1.05005 5.25001 1.35005 4.80001 1.87505L1.27501 5.77505C0.862512 6.22505 0.637512 6.82505 0.637512 7.42505V17.7375C0.637512 19.125 1.76251 20.2125 3.11251 20.2125H11.4375C12.6375 21.8625 14.55 22.9125 16.725 22.9125C20.3625 22.9125 23.2875 19.95 23.2875 16.35C23.325 13.575 21.6 11.2125 19.125 10.2375ZM13.725 3.00005L16.3875 5.96255H10.725V2.73755H13.125C13.35 2.73755 13.575 2.81255 13.725 3.00005ZM6.03751 3.00005C6.18751 2.85005 6.41251 2.73755 6.63751 2.73755H9.03751V5.96255H3.37501L6.03751 3.00005ZM3.15001 18.5625C2.70001 18.5625 2.36251 18.1875 2.36251 17.775V7.65005H17.4375V9.82505C17.2125 9.78755 16.9875 9.78755 16.7625 9.78755C13.125 9.78755 10.2 12.75 10.2 16.35C10.2 17.1 10.35 17.85 10.575 18.525H3.15001V18.5625ZM16.7625 21.2626C14.0625 21.2626 11.8875 19.0875 11.8875 16.3875C11.8875 13.6875 14.0625 11.5125 16.7625 11.5125C19.4625 11.5125 21.6375 13.6875 21.6375 16.3875C21.6375 19.0875 19.4625 21.2626 16.7625 21.2626Z" fill="#161A23"/>
<path d="M16.3125 15.0375H18.3375C18.7875 15.0375 19.1625 14.6625 19.1625 14.2125C19.1625 13.7625 18.7875 13.3875 18.3375 13.3875H17.925V13.3125C17.925 12.8625 17.55 12.4875 17.1 12.4875C16.65 12.4875 16.275 12.8625 16.275 13.3125V13.3875C15.225 13.425 14.4 14.25 14.4 15.3C14.4 16.35 15.2625 17.2125 16.35 17.2125H17.25C17.4 17.2125 17.5125 17.325 17.5125 17.4375C17.5125 17.5875 17.4 17.6625 17.25 17.6625H15.225C14.775 17.6625 14.4 18.0375 14.4 18.4875C14.4 18.9375 14.775 19.3125 15.225 19.3125H16.2375V19.3875C16.2375 19.8375 16.6125 20.2125 17.0625 20.2125C17.5125 20.2125 17.8875 19.8375 17.8875 19.3875V19.1625C18.6 18.9 19.125 18.1875 19.125 17.3625C19.125 16.3125 18.2625 15.45 17.175 15.45H16.2375C16.0875 15.45 15.975 15.3375 15.975 15.225C15.975 15.1125 16.1625 15.0375 16.3125 15.0375Z" fill="#161A23"/>
</svg>
