<svg width="24" height="24" viewBox="0 0 24 24" fill="none" xmlns="http://www.w3.org/2000/svg">
<path d="M19.125 15.2625C18.7875 14.925 18.2625 14.925 17.925 15.2625L17.4 15.7875L16.875 15.2625C16.5375 14.925 16.0125 14.925 15.675 15.2625C15.3375 15.6 15.3375 16.125 15.675 16.4625L16.2 16.9875L15.675 17.5125C15.3375 17.85 15.3375 18.375 15.675 18.7125C15.825 18.8625 16.05 18.975 16.275 18.975C16.5 18.975 16.725 18.9 16.875 18.7125L17.4 18.1875L17.925 18.7125C18.075 18.8625 18.3 18.975 18.525 18.975C18.75 18.975 18.975 18.9 19.125 18.7125C19.4625 18.375 19.4625 17.85 19.125 17.5125L18.6 16.9875L19.125 16.4625C19.4625 16.125 19.4625 15.6 19.125 15.2625Z" fill="#161A23"/>
<path d="M19.8 11.5875V7.68755C19.8 7.05005 19.575 6.45005 19.1625 6.00005L15.525 1.91255C15.0375 1.38755 14.3625 1.05005 13.6125 1.05005H6.82499C6.11249 1.05005 5.39999 1.35005 4.91249 1.91255L1.31249 5.96255C0.899988 6.41255 0.674988 7.05005 0.674988 7.65005V18.4125C0.674988 19.8375 1.83749 20.9625 3.22499 20.9625H13.0125C14.1 22.1625 15.675 22.9125 17.4 22.9125C20.6625 22.9125 23.325 20.25 23.325 16.9875C23.325 14.5875 21.9 12.4875 19.8 11.5875ZM14.25 3.03755L17.0625 6.18755H11.0625V2.73755H13.6125C13.875 2.73755 14.1 2.85005 14.25 3.03755ZM6.18749 3.03755C6.33749 2.85005 6.59999 2.73755 6.82499 2.73755H9.37499V6.18755H3.37499L6.18749 3.03755ZM3.22499 19.3125C2.73749 19.3125 2.36249 18.9375 2.36249 18.4501V7.87505H18.15V11.1C17.925 11.0625 17.6625 11.0625 17.4375 11.0625C14.175 11.0625 11.5125 13.725 11.5125 16.9875C11.5125 17.8125 11.6625 18.6 11.9625 19.3125H3.22499ZM17.4 21.2626C15.0375 21.2626 13.1625 19.35 13.1625 17.025C13.1625 14.7 15.0375 12.75 17.4 12.75C19.7625 12.75 21.6375 14.6625 21.6375 16.9875C21.6375 19.3125 19.7625 21.2626 17.4 21.2626Z" fill="#161A23"/>
</svg>
