<svg width="24" height="24" viewBox="0 0 24 24" fill="none" xmlns="http://www.w3.org/2000/svg">
<path d="M22.1625 6.26249L18 1.61249C17.475 1.01249 16.6875 0.674988 15.9 0.674988H8.09999C7.31249 0.674988 6.52499 1.01249 5.99999 1.61249L1.79999 6.26249C1.34999 6.78749 1.08749 7.46249 1.08749 8.13749V20.5125C1.08749 22.05 2.36249 23.325 3.89999 23.325H20.0625C21.6 23.325 22.875 22.05 22.875 20.5125V8.13749C22.9125 7.46249 22.65 6.78749 22.1625 6.26249ZM2.81249 20.5875C2.81249 20.55 2.81249 20.55 2.81249 20.5125V8.24999H18.9375L2.81249 20.5875ZM16.725 2.73749L20.1375 6.56249H12.825V2.36249H15.9C16.2375 2.36249 16.5375 2.47499 16.725 2.73749ZM7.23749 2.69999C7.46249 2.47499 7.76249 2.32499 8.06249 2.32499H11.1375V6.52499H3.82499L7.23749 2.69999ZM20.1 21.6375H4.19999L21.225 8.58749V20.5125C21.225 21.15 20.7 21.6375 20.1 21.6375Z" fill="#161A23"/>
</svg>
