<svg width="24" height="24" viewBox="0 0 24 24" fill="none" xmlns="http://www.w3.org/2000/svg">
<g clip-path="url(#clip0_501_44578)">
<path d="M23.2875 5.17497C23.1375 4.72497 22.65 4.49997 22.2 4.68747L19.9125 5.51247C19.3125 5.73747 18.8625 6.14997 18.6 6.71247L14.4 15.75C13.0125 15.45 11.55 15.975 10.65 17.1L1.87498 13.0125C1.46248 12.825 0.937476 13.0125 0.749976 13.425C0.562476 13.8375 0.749976 14.3625 1.16248 14.55L9.93748 18.6375C9.59998 20.325 10.425 22.0875 12.0375 22.8375C12.5625 23.0625 13.0875 23.175 13.6125 23.175C15.0375 23.175 16.3875 22.3875 17.025 21C17.775 19.3875 17.2875 17.5125 15.9375 16.4625L20.1375 7.42497C20.2125 7.27497 20.325 7.16247 20.5125 7.08747L22.8 6.26247C23.2125 6.07497 23.4375 5.58747 23.2875 5.17497ZM15.4875 20.2875C15 21.3375 13.7625 21.7875 12.75 21.3C11.7 20.8125 11.25 19.575 11.7375 18.5625C12.075 17.8125 12.825 17.3625 13.6125 17.3625C13.9125 17.3625 14.2125 17.4375 14.475 17.55C15.525 18.0375 15.975 19.275 15.4875 20.2875Z" fill="#161A23"/>
<path d="M4.34996 12.525L9.41246 14.8875C9.74996 15.0375 10.05 15.1125 10.3875 15.1125C11.2875 15.1125 12.1125 14.625 12.525 13.7625L14.7375 8.99999C14.85 8.99999 14.9625 8.96249 15.075 8.92499C15.4875 8.77499 15.7875 8.47499 15.975 8.09999L16.6125 6.71249C16.8 6.33749 16.8 5.88749 16.65 5.47499C16.5 5.06249 16.2 4.76249 15.825 4.57499L8.06246 0.974989C7.68746 0.787489 7.23746 0.787489 6.86246 0.937489C6.44996 1.08749 6.14996 1.38749 5.96246 1.76249L5.32496 3.14999C5.09996 3.67499 5.13746 4.23749 5.43746 4.68749L3.18746 9.41249C2.92496 9.97499 2.88746 10.6125 3.11246 11.2125C3.33746 11.8125 3.74996 12.2625 4.34996 12.525ZM7.46246 2.54999L15.075 6.11249L14.5125 7.31249L6.89996 3.74999L7.46246 2.54999ZM4.72496 10.125L6.86246 5.58749L13.125 8.51249L10.9875 13.05C10.8375 13.3875 10.4625 13.5375 10.125 13.35L5.06246 10.9875C4.91246 10.9125 4.79996 10.8 4.72496 10.6125C4.64996 10.4625 4.64996 10.275 4.72496 10.125Z" fill="#161A23"/>
</g>
<defs>
<clipPath id="clip0_501_44578">
<rect width="24" height="24" fill="white"/>
</clipPath>
</defs>
</svg>
