<svg width="24" height="24" viewBox="0 0 24 24" fill="none" xmlns="http://www.w3.org/2000/svg">
<path d="M19.125 15.2625C18.7875 14.925 18.2625 14.925 17.925 15.2625L15.6375 17.55C15.3 17.8875 15.3 18.4125 15.6375 18.75C15.7875 18.9 16.0125 19.0125 16.2375 19.0125C16.4625 19.0125 16.6875 18.9375 16.8375 18.75L19.125 16.4625C19.4625 16.125 19.4625 15.6 19.125 15.2625Z" fill="#161A23"/>
<path d="M16.05 16.2001C16.125 16.2001 16.1625 16.1626 16.2 16.1626C16.2375 16.1251 16.3125 16.1251 16.35 16.0876C16.3875 16.0501 16.425 16.0126 16.4625 15.9751C16.6125 15.8251 16.725 15.6001 16.725 15.3751C16.725 15.3376 16.725 15.2626 16.725 15.2251C16.725 15.1501 16.6875 15.1126 16.6875 15.0751C16.65 15.0376 16.65 14.9626 16.6125 14.9251C16.575 14.8876 16.5375 14.8501 16.5 14.8126C16.3125 14.6251 16.0125 14.5126 15.75 14.5876C15.7125 14.5876 15.6375 14.6251 15.6 14.6251C15.5625 14.6626 15.4875 14.6626 15.45 14.7001C15.4125 14.7376 15.375 14.7751 15.3375 14.8126C15.1875 14.9626 15.075 15.1876 15.075 15.4126C15.075 15.6376 15.15 15.8626 15.3375 16.0126C15.4875 16.1626 15.7125 16.2751 15.9375 16.2751C15.9375 16.2376 16.0125 16.2001 16.05 16.2001Z" fill="#161A23"/>
<path d="M18.1875 17.8876C18.0375 18.0376 17.925 18.2626 17.925 18.4876C17.925 18.7126 18 18.9376 18.1875 19.0876C18.225 19.1251 18.2625 19.1626 18.3375 19.2001C18.375 19.2376 18.4125 19.2376 18.4875 19.2751C18.525 19.3126 18.6 19.3126 18.6375 19.3126C18.7125 19.3126 18.75 19.3126 18.7875 19.3126C19.0125 19.3126 19.2375 19.2376 19.3875 19.0501C19.425 19.0126 19.4625 18.9751 19.5 18.9376C19.5375 18.9001 19.5375 18.8626 19.575 18.7876C19.6125 18.7501 19.6125 18.6751 19.6125 18.6376C19.6125 18.6001 19.6125 18.5251 19.6125 18.4876C19.6125 18.2626 19.5375 18.0376 19.35 17.8876C19.0875 17.5876 18.525 17.5876 18.1875 17.8876Z" fill="#161A23"/>
<path d="M19.8 11.5875V7.68755C19.8 7.05005 19.575 6.45005 19.1625 6.00005L15.525 1.91255C15.0375 1.38755 14.3625 1.05005 13.6125 1.05005H6.82499C6.11249 1.05005 5.39999 1.35005 4.91249 1.91255L1.31249 5.96255C0.899988 6.41255 0.674988 7.05005 0.674988 7.65005V18.4125C0.674988 19.8375 1.83749 20.9625 3.22499 20.9625H13.0125C14.1 22.1625 15.675 22.9125 17.4 22.9125C20.6625 22.9125 23.325 20.25 23.325 16.9875C23.325 14.5875 21.9 12.4875 19.8 11.5875ZM14.25 3.03755L17.0625 6.18755H11.0625V2.73755H13.6125C13.875 2.73755 14.1 2.85005 14.25 3.03755ZM6.18749 3.03755C6.33749 2.85005 6.59999 2.73755 6.82499 2.73755H9.37499V6.18755H3.37499L6.18749 3.03755ZM3.22499 19.3125C2.73749 19.3125 2.36249 18.9375 2.36249 18.4501V7.87505H18.15V11.1C17.925 11.0625 17.6625 11.0625 17.4375 11.0625C14.175 11.0625 11.5125 13.725 11.5125 16.9875C11.5125 17.8125 11.6625 18.6 11.9625 19.3125H3.22499ZM17.4 21.2626C15.0375 21.2626 13.1625 19.35 13.1625 17.025C13.1625 14.7 15.0375 12.75 17.4 12.75C19.7625 12.75 21.6375 14.6625 21.6375 16.9875C21.6375 19.3125 19.7625 21.2626 17.4 21.2626Z" fill="#161A23"/>
</svg>
