<svg width="24" height="24" viewBox="0 0 24 24" fill="none" xmlns="http://www.w3.org/2000/svg">
<path d="M21.3 17.625V16.4625C21.3 14.925 20.025 13.65 18.4875 13.65C17.85 13.65 17.2125 13.875 16.6875 14.2875C16.3125 14.5875 16.275 15.1125 16.575 15.4875C16.875 15.8625 17.4 15.9 17.775 15.6C17.925 15.4875 18.15 15.3375 18.4875 15.3375C19.125 15.3375 19.6125 15.825 19.6125 16.4625V17.625H15.75C14.8875 17.625 14.175 18.3375 14.175 19.2V21.7875C14.175 22.65 14.8875 23.3625 15.75 23.3625H21.225C22.0875 23.3625 22.8 22.65 22.8 21.7875V19.2C22.8 18.3375 22.125 17.6625 21.3 17.625ZM21.1125 21.675H15.8625V19.3125H21.1125V21.675Z" fill="#161A23"/>
<path d="M11.2125 20.4H3.89999C3.33749 20.4 2.88749 19.95 2.88749 19.3875V7.87495H20.1V11.325C20.1 11.775 20.475 12.1875 20.925 12.1875C21.375 12.1875 21.75 11.8125 21.75 11.325V7.72495C21.75 7.04995 21.4875 6.41245 21.075 5.92495L17.175 1.53745C16.65 0.974951 15.9375 0.637451 15.15 0.637451H7.83749C7.08749 0.637451 6.33749 0.974951 5.81249 1.53745L1.91249 5.96245C1.46249 6.44995 1.23749 7.08745 1.23749 7.76245V19.3875C1.23749 20.8875 2.43749 22.0875 3.93749 22.0875H11.25C11.7 22.0875 12.075 21.7125 12.075 21.2625C12.075 20.8125 11.7 20.4 11.2125 20.4ZM15.9 2.66245L19.05 6.18745H12.3375V2.36245H15.15C15.45 2.36245 15.7125 2.47495 15.9 2.66245ZM7.08749 2.66245C7.27499 2.43745 7.53749 2.32495 7.83749 2.32495H10.65V6.18745H3.93749L7.08749 2.66245Z" fill="#161A23"/>
</svg>
