<svg width="24" height="24" viewBox="0 0 24 24" fill="none" xmlns="http://www.w3.org/2000/svg">
<path d="M23.2125 8.55L21.75 6.0375C21.75 6 21.7125 6 21.7125 5.9625C21.675 5.925 21.6375 5.8875 21.6 5.85L21.5625 5.8125C21.525 5.775 21.45 5.7375 21.375 5.7C21.375 5.7 21.375 5.7 21.3375 5.7L12.825 1.7625C12.3 1.5375 11.7 1.5375 11.175 1.7625L2.62501 5.7C2.62501 5.7 2.62501 5.7 2.58751 5.7C2.55001 5.7 2.55001 5.7375 2.51251 5.7375C2.47501 5.7375 2.47501 5.775 2.43751 5.775L2.40001 5.8125C2.36251 5.85 2.36251 5.85 2.32501 5.8875C2.32501 5.8875 2.32501 5.8875 2.28751 5.925C2.28751 5.9625 2.28751 6 2.25001 6.0375L0.787512 8.55C0.675012 8.7375 0.637512 9 0.712512 9.225C0.750012 9.4125 0.900012 9.6 1.12501 9.7125L2.13751 10.2V16.3875C2.13751 17.1375 2.55001 17.8125 3.22501 18.15L11.2875 22.2C11.5125 22.3125 11.775 22.3875 12 22.3875C12.225 22.3875 12.4875 22.3125 12.7125 22.2L20.775 18.15C21.45 17.8125 21.8625 17.1375 21.8625 16.3875V10.2375L22.875 9.7125C23.0625 9.6 23.25 9.4125 23.2875 9.1875C23.3625 8.9625 23.3625 8.7375 23.2125 8.55ZM2.70001 8.625L3.30001 7.575L10.7625 11.2125L10.0875 12.3L2.70001 8.625ZM20.625 7.6125L20.7 7.575L21.3375 8.625L13.95 12.4125L13.2375 11.2125L20.625 7.6125ZM11.8875 3.3C11.9625 3.2625 12.0375 3.2625 12.1125 3.3L19.05 6.4875L12 9.9L4.95001 6.4875L11.8875 3.3ZM3.82501 16.425V11.0625L10.0125 14.1375C10.125 14.2125 10.275 14.2125 10.3875 14.2125C10.65 14.2125 10.95 14.0625 11.1 13.8375L11.175 13.725V20.2875L3.97501 16.6875C3.86251 16.6125 3.82501 16.5 3.82501 16.425ZM20.175 16.425C20.175 16.5375 20.1 16.6125 20.025 16.6875L12.825 20.2875V13.875L12.9 13.9875C13.05 14.25 13.35 14.4 13.6125 14.4C13.725 14.4 13.875 14.3625 13.9875 14.325L20.1375 11.1375V16.425H20.175Z" fill="#161A23"/>
</svg>
