<svg width="24" height="24" viewBox="0 0 24 24" fill="none" xmlns="http://www.w3.org/2000/svg">
<path d="M11.2125 20.5875H3.825C3.2625 20.5875 2.8125 20.1375 2.8125 19.575V7.94999H20.2125V11.4375C20.2125 11.8875 20.5875 12.2625 21.0375 12.2625C21.4875 12.2625 21.8625 11.8875 21.8625 11.4375V7.79999C21.8625 7.12499 21.6 6.48749 21.1875 5.99999L17.2125 1.57499C16.6875 1.01249 15.975 0.674988 15.1875 0.674988H7.7625C6.975 0.674988 6.2625 1.01249 5.7375 1.57499L1.8 5.99999C1.35 6.48749 1.125 7.12499 1.125 7.79999V19.5375C1.125 21.0375 2.325 22.2375 3.825 22.2375H11.2125C11.6625 22.2375 12.0375 21.8625 12.0375 21.4125C12.0375 20.9625 11.6625 20.5875 11.2125 20.5875ZM15.9375 2.69999L19.125 6.26249H12.3375V2.36249H15.1875C15.4875 2.36249 15.75 2.47499 15.9375 2.69999ZM7.0125 2.69999C7.2 2.47499 7.5 2.36249 7.7625 2.36249H10.6125V6.26249H3.825L7.0125 2.69999Z" fill="#161A23"/>
<path d="M21.4125 17.5875V16.3875C21.4125 14.8125 20.1375 13.5375 18.5625 13.5375C16.9875 13.5375 15.7125 14.8125 15.7125 16.3875V17.5875C14.8875 17.625 14.2125 18.3 14.2125 19.1625V21.7875C14.2125 22.65 14.925 23.3625 15.7875 23.3625H21.3375C22.2 23.3625 22.9125 22.65 22.9125 21.7875V19.1625C22.9125 18.3 22.2375 17.625 21.4125 17.5875ZM18.5625 15.225C19.2 15.225 19.725 15.75 19.725 16.3875V17.5875H17.4375V16.3875C17.4 15.75 17.925 15.225 18.5625 15.225ZM21.225 21.675H15.9V19.275H21.1875V21.675H21.225Z" fill="#161A23"/>
</svg>
