<svg width="24" height="24" viewBox="0 0 24 24" fill="none" xmlns="http://www.w3.org/2000/svg">
<g clip-path="url(#clip0_501_44695)">
<path d="M21 8.25005V12.2626C21 12.7126 21.375 13.0876 21.825 13.0876C22.275 13.0876 22.65 12.7126 22.65 12.2626V8.13755C22.65 7.42505 22.3875 6.78755 21.9375 6.26255L17.8125 1.61255C17.25 1.01255 16.5 0.675049 15.7125 0.675049H7.91252C7.12502 0.675049 6.33752 1.01255 5.81252 1.61255L1.61252 6.26255C1.16252 6.78755 0.900024 7.42505 0.900024 8.13755V20.5126C0.900024 22.0501 2.17502 23.3251 3.71252 23.3251H9.63752C10.0875 23.3251 10.4625 22.9501 10.4625 22.5001C10.4625 22.0501 10.0875 21.6751 9.63752 21.6751H3.71252C3.07502 21.6751 2.58752 21.1875 2.58752 20.5501V8.25005H21ZM16.5375 2.73755L19.95 6.56255H12.6375V2.36255H15.7125C16.0125 2.36255 16.3125 2.47505 16.5375 2.73755ZM7.05002 2.70005C7.27502 2.47505 7.57502 2.32505 7.87502 2.32505H10.95V6.52505H3.63752L7.05002 2.70005Z" fill="#161A23"/>
<path d="M14.9625 19.7251H15.4125C16.6125 19.7251 17.55 18.7501 17.55 17.5876C17.55 16.4251 16.575 15.4501 15.4125 15.4501H13.65C13.2 15.4501 12.825 15.8251 12.825 16.2751C12.825 16.7251 13.2 17.1001 13.65 17.1001H15.4125C15.675 17.1001 15.8625 17.2876 15.8625 17.5501C15.8625 17.8126 15.6375 18.0001 15.4125 18.0001H14.9625C13.7625 18.0001 12.825 18.9751 12.825 20.1376C12.825 21.3001 13.8 22.2751 14.9625 22.2751H16.725C17.175 22.2751 17.55 21.9001 17.55 21.4501C17.55 21.0001 17.175 20.6251 16.725 20.6251H14.9625C14.7 20.6251 14.5125 20.4376 14.5125 20.1751C14.5125 19.9126 14.7 19.7251 14.9625 19.7251Z" fill="#161A23"/>
<path d="M22.2375 15.3C21.7875 15.3 21.4125 15.675 21.4125 16.125V17.55H20.1V16.125C20.1 15.675 19.725 15.3 19.275 15.3C18.825 15.3 18.45 15.675 18.45 16.125V17.6625C18.45 18.525 19.1625 19.2375 20.025 19.2375H21.45V21.45C21.45 21.9 21.825 22.275 22.275 22.275C22.725 22.275 23.1 21.9 23.1 21.45V16.1625C23.1 15.675 22.725 15.3 22.2375 15.3Z" fill="#161A23"/>
</g>
<defs>
<clipPath id="clip0_501_44695">
<rect width="24" height="24" fill="white"/>
</clipPath>
</defs>
</svg>
