<svg width="24" height="24" viewBox="0 0 24 24" fill="none" xmlns="http://www.w3.org/2000/svg">
<path d="M19.0125 16.1625H18.2625V15.4125C18.2625 14.9625 17.8875 14.5875 17.4375 14.5875C16.9875 14.5875 16.6125 14.9625 16.6125 15.4125V16.1625H15.8625C15.4125 16.1625 15.0375 16.5375 15.0375 16.9875C15.0375 17.4375 15.4125 17.8125 15.8625 17.8125H16.6125V18.5625C16.6125 19.0125 16.9875 19.3875 17.4375 19.3875C17.8875 19.3875 18.2625 19.0125 18.2625 18.5625V17.8125H19.0125C19.4625 17.8125 19.8375 17.4375 19.8375 16.9875C19.8375 16.5375 19.4625 16.1625 19.0125 16.1625Z" fill="#161A23"/>
<path d="M19.8 11.5875V7.68749C19.8 7.04999 19.575 6.44999 19.1625 5.99999L15.525 1.91249C15.0375 1.38749 14.3625 1.04999 13.6125 1.04999H6.82499C6.11249 1.04999 5.39999 1.34999 4.91249 1.91249L1.31249 5.96249C0.899988 6.41249 0.674988 7.04999 0.674988 7.64999V18.4125C0.674988 19.8375 1.83749 20.9625 3.22499 20.9625H13.0125C14.1 22.1625 15.675 22.9125 17.4 22.9125C20.6625 22.9125 23.325 20.25 23.325 16.9875C23.325 14.5875 21.9 12.4875 19.8 11.5875ZM14.25 3.03749L17.0625 6.18749H11.0625V2.73749H13.6125C13.875 2.73749 14.1 2.84999 14.25 3.03749ZM6.18749 3.03749C6.33749 2.84999 6.59999 2.73749 6.82499 2.73749H9.37499V6.18749H3.37499L6.18749 3.03749ZM3.22499 19.3125C2.73749 19.3125 2.36249 18.9375 2.36249 18.45V7.87499H18.15V11.1C17.925 11.0625 17.6625 11.0625 17.4375 11.0625C14.175 11.0625 11.5125 13.725 11.5125 16.9875C11.5125 17.8125 11.6625 18.6 11.9625 19.3125H3.22499ZM17.4 21.2625C15.0375 21.2625 13.1625 19.35 13.1625 17.025C13.1625 14.7 15.0375 12.75 17.4 12.75C19.7625 12.75 21.6375 14.6625 21.6375 16.9875C21.6375 19.3125 19.7625 21.2625 17.4 21.2625Z" fill="#161A23"/>
</svg>
