<svg width="24" height="24" viewBox="0 0 24 24" fill="none" xmlns="http://www.w3.org/2000/svg">
<path d="M4.23748 10.3874H6.03748C6.48748 10.3874 6.86248 10.0124 6.86248 9.56243C6.86248 9.11243 6.48748 8.73743 6.03748 8.73743H4.23748C3.78748 8.73743 3.41248 9.11243 3.41248 9.56243C3.41248 10.0124 3.78748 10.3874 4.23748 10.3874Z" fill="#161A23"/>
<path d="M6.03748 17.4H4.23748C3.78748 17.4 3.41248 17.775 3.41248 18.225C3.41248 18.675 3.78748 19.05 4.23748 19.05H6.03748C6.48748 19.05 6.86248 18.675 6.86248 18.225C6.86248 17.775 6.52498 17.4 6.03748 17.4Z" fill="#161A23"/>
<path d="M21.0375 11.175H13.425C13.1625 11.175 12.9375 11.2125 12.7125 11.2875C12.7875 11.0625 12.825 10.8 12.825 10.575V4.76248C12.825 3.48748 11.8125 2.47498 10.5375 2.47498H6.74999H2.96249C1.68749 2.47498 0.674988 3.48748 0.674988 4.76248V10.5375C0.674988 11.1 0.862488 11.5875 1.19999 12C0.862488 12.4125 0.674988 12.9 0.674988 13.4625V19.2375C0.674988 20.5125 1.68749 21.525 2.96249 21.525H10.575C11.1375 21.525 11.625 21.3375 12.0375 21C12.45 21.3375 12.9375 21.525 13.5 21.525H21.1125C22.3875 21.525 23.4 20.5125 23.4 19.2375V13.4625C23.325 12.1875 22.3125 11.175 21.0375 11.175ZM2.32499 4.76248C2.32499 4.42498 2.58749 4.16248 2.92499 4.16248H5.88749V5.66248C5.88749 6.11248 6.26249 6.48748 6.71249 6.48748C7.16249 6.48748 7.53749 6.11248 7.53749 5.66248V4.16248H10.5C10.8375 4.16248 11.1 4.42498 11.1 4.76248V10.5375C11.1 10.875 10.8375 11.1375 10.5 11.1375H2.96249C2.62499 11.1375 2.36249 10.875 2.36249 10.5375V4.76248H2.32499ZM10.5375 19.8375H2.96249C2.62499 19.8375 2.36249 19.575 2.36249 19.2375V13.4625C2.36249 13.125 2.62499 12.8625 2.96249 12.8625H5.92499V14.3625C5.92499 14.8125 6.29999 15.1875 6.74999 15.1875C7.19999 15.1875 7.57499 14.8125 7.57499 14.3625V12.8625H10.5375C10.875 12.8625 11.1375 13.125 11.1375 13.4625V19.2375C11.175 19.575 10.875 19.8375 10.5375 19.8375ZM21.675 19.2375C21.675 19.575 21.4125 19.8375 21.075 19.8375H13.4625C13.125 19.8375 12.8625 19.575 12.8625 19.2375V13.4625C12.8625 13.125 13.125 12.8625 13.4625 12.8625H16.425V14.3625C16.425 14.8125 16.8 15.1875 17.25 15.1875C17.7 15.1875 18.075 14.8125 18.075 14.3625V12.8625H21.0375C21.375 12.8625 21.6375 13.125 21.6375 13.4625V19.2375H21.675Z" fill="#161A23"/>
<path d="M16.5375 17.4H14.7375C14.2875 17.4 13.9125 17.775 13.9125 18.225C13.9125 18.675 14.2875 19.05 14.7375 19.05H16.5375C16.9875 19.05 17.3625 18.675 17.3625 18.225C17.3625 17.775 17.025 17.4 16.5375 17.4Z" fill="#161A23"/>
</svg>
