<svg width="24" height="24" viewBox="0 0 24 24" fill="none" xmlns="http://www.w3.org/2000/svg">
<g clip-path="url(#clip0_501_45488)">
<path d="M4.5 9.78745V5.06245C4.5 3.56245 5.7 2.36245 7.1625 2.36245H8.325C8.775 2.36245 9.1875 1.98745 9.1875 1.49995C9.1875 1.01245 8.8125 0.637451 8.325 0.637451H7.1625C4.7625 0.674951 2.8125 2.62495 2.8125 5.06245V9.48745L1.0875 11.4375C0.787503 11.7375 0.787503 12.225 1.0875 12.5625L2.8125 14.55V18.9375C2.8125 21.375 4.7625 23.325 7.1625 23.325H8.325C8.775 23.325 9.1875 22.95 9.1875 22.4625C9.1875 21.975 8.8125 21.6 8.325 21.6H7.1625C5.7 21.6 4.5 20.4 4.5 18.9V14.2125C4.5 14.025 4.425 13.8 4.275 13.65L2.85 12L4.3125 10.35C4.425 10.2 4.5 10.0125 4.5 9.78745Z" fill="#161A23"/>
<path d="M22.9125 11.4374L21.1875 9.48743V5.06243C21.1875 2.62493 19.2375 0.674927 16.8375 0.674927H15.675C15.225 0.674927 14.8125 1.04993 14.8125 1.53743C14.8125 2.02493 15.1875 2.39993 15.675 2.39993H16.8375C18.3 2.39993 19.5 3.59993 19.5 5.09993V9.82493C19.5 10.0124 19.575 10.2374 19.725 10.3874L21.1875 12.0374L19.725 13.7249C19.575 13.8749 19.5 14.0624 19.5 14.2874V19.0124C19.5 20.5124 18.3 21.7124 16.8375 21.7124H15.675C15.225 21.7124 14.8125 22.0874 14.8125 22.5749C14.8125 23.0624 15.1875 23.4374 15.675 23.4374H16.8375C19.2375 23.4374 21.1875 21.4499 21.1875 19.0499V14.5499L22.9125 12.5624C23.2125 12.2249 23.2125 11.7749 22.9125 11.4374Z" fill="#161A23"/>
</g>
<defs>
<clipPath id="clip0_501_45488">
<rect width="24" height="24" fill="white"/>
</clipPath>
</defs>
</svg>
