<svg width="24" height="24" viewBox="0 0 24 24" fill="none" xmlns="http://www.w3.org/2000/svg">
<path fill-rule="evenodd" clip-rule="evenodd" d="M15.294 1.06934L17.1697 3.23734C17.1697 3.23734 18.8166 2.77125 19.5943 3.5636C20.372 4.35596 21.0125 5.05508 21.0125 5.05508L20.5093 6.3135L21.1497 8.17785C21.1497 8.17785 19.266 15.4467 19.0454 16.3344C18.6108 18.0822 18.3134 18.7581 17.0782 19.6436C15.843 20.5292 13.6014 22.0673 13.2354 22.3003C13.1565 22.3505 13.0735 22.4083 12.9875 22.4681C12.6745 22.6859 12.3232 22.9303 12.0002 22.9303C11.6771 22.9303 11.3259 22.686 11.0129 22.4682C10.9269 22.4084 10.8438 22.3505 10.765 22.3003C10.399 22.0673 8.15734 20.5292 6.92216 19.6436C5.68695 18.7581 5.38961 18.0822 4.95499 16.3344C4.73426 15.4467 2.85059 8.17785 2.85059 8.17785L3.49106 6.3135L2.98783 5.05508C2.98783 5.05508 3.6283 4.35596 4.40603 3.5636C5.18374 2.77125 6.83066 3.23734 6.83066 3.23734L8.70634 1.06934H12.0002H15.294ZM7.35675 4.61231C7.35675 4.61231 4.94419 7.58359 4.94419 8.21865C4.94419 8.74373 5.15164 8.94923 5.39599 9.19129C5.44718 9.24199 5.49994 9.29426 5.55278 9.35141L7.36174 11.3085C7.37966 11.3279 7.39961 11.3483 7.42073 11.3699C7.60129 11.5549 7.86724 11.8273 7.67959 12.2797C7.66706 12.3099 7.6542 12.3406 7.64111 12.3717C7.43546 12.8618 7.18151 13.467 7.50473 14.0801C7.84856 14.7322 8.43754 15.1675 8.81498 15.0956C9.19238 15.0235 10.0788 14.5516 10.4047 14.3361C10.7307 14.1205 11.7637 13.2524 11.7637 12.9203C11.7637 12.6433 11.0206 12.1824 10.6596 11.9585C10.5879 11.914 10.5312 11.8789 10.4985 11.8564C10.4613 11.8308 10.3989 11.7914 10.3222 11.7428C9.9927 11.5343 9.39784 11.1577 9.38295 10.9908C9.3645 10.7849 9.37155 10.7245 9.63713 10.2159C9.6936 10.1077 9.75971 9.9918 9.82804 9.87203C10.0809 9.42878 10.364 8.9325 10.3013 8.57696C10.2306 8.17564 9.61331 7.9455 9.09045 7.75058C9.02505 7.7262 8.96115 7.70235 8.89999 7.67884C8.74736 7.62011 8.55555 7.54691 8.35526 7.47049L8.35485 7.47034L8.35425 7.47008C7.83244 7.27095 7.2531 7.04985 7.15748 7.00496C7.0251 6.94275 7.0593 6.8835 7.46033 6.84476C7.51343 6.83963 7.57943 6.8325 7.65518 6.82429C8.15168 6.77055 9.06724 6.6714 9.5124 6.79781C9.59993 6.82268 9.69803 6.84975 9.80093 6.87814C10.3011 7.01614 10.9142 7.18526 10.973 7.28276C10.9833 7.29983 10.9935 7.31449 11.003 7.32833C11.0593 7.40989 11.0961 7.4631 11.0337 7.80975C11.0153 7.91258 10.9773 8.1144 10.9304 8.36404C10.7923 9.09904 10.5762 10.2486 10.549 10.5066C10.5452 10.5425 10.541 10.5773 10.537 10.6106C10.5025 10.898 10.4794 11.0895 10.8071 11.1659L10.8923 11.1858C11.2619 11.2722 11.8043 11.399 12.0002 11.399C12.196 11.399 12.7379 11.2723 13.1076 11.1859L13.1933 11.1659C13.5209 11.0895 13.4979 10.8983 13.4633 10.6109C13.4593 10.5774 13.4551 10.5426 13.4513 10.5066C13.4241 10.249 13.2087 9.1023 13.0705 8.36715C13.0233 8.11624 12.9851 7.91295 12.9666 7.80975C12.9042 7.4631 12.941 7.40989 12.9973 7.32833C13.0068 7.31449 13.017 7.29979 13.0273 7.28276C13.0862 7.18526 13.6991 7.01614 14.1993 6.87818C14.3022 6.84979 14.4004 6.82268 14.4879 6.79781C14.9331 6.6714 15.8487 6.77055 16.3452 6.82429C16.421 6.8325 16.4869 6.83963 16.54 6.84476C16.941 6.8835 16.9752 6.94275 16.8428 7.00496C16.7472 7.04989 16.1673 7.27118 15.6453 7.47038C15.445 7.54684 15.253 7.62011 15.1004 7.67884C15.0395 7.70228 14.9758 7.72598 14.9107 7.75028L14.9102 7.75046C14.3873 7.94539 13.7698 8.1756 13.699 8.57696C13.6364 8.93254 13.9195 9.42893 14.1724 9.87221C14.2407 9.99191 14.3068 10.1078 14.3632 10.2159C14.6288 10.7245 14.6358 10.7849 14.6174 10.9908C14.6025 11.1577 14.0075 11.5343 13.6781 11.7428C13.6014 11.7914 13.539 11.8308 13.5018 11.8564C13.469 11.8789 13.4123 11.9141 13.3406 11.9586C12.9795 12.1825 12.2366 12.6433 12.2366 12.9203C12.2366 13.2524 13.2697 14.1205 13.5956 14.3361C13.9216 14.5516 14.808 15.0235 15.1854 15.0956C15.5628 15.1675 16.1518 14.7322 16.4957 14.0801C16.8189 13.467 16.5649 12.8619 16.3592 12.3719C16.3461 12.3407 16.3332 12.3099 16.3207 12.2797C16.1331 11.8273 16.399 11.555 16.5795 11.37C16.6007 11.3483 16.6206 11.3279 16.6386 11.3085L18.4475 9.35141C18.5004 9.29426 18.5532 9.24195 18.6044 9.19125C18.8487 8.94923 19.0562 8.74369 19.0562 8.21865C19.0562 7.58359 16.6436 4.61231 16.6436 4.61231C16.6436 4.61231 14.6078 5.00846 14.3333 5.00846C14.1143 5.00846 13.6914 4.86008 13.2505 4.70539C13.1388 4.66624 13.026 4.62668 12.9151 4.58899C12.3662 4.40258 12.0002 4.40119 12.0002 4.40119C12.0002 4.40119 12.0035 4.40123 12.01 4.40141H11.9904C11.9963 4.40123 11.9997 4.40123 12.0002 4.40119C11.9945 4.40123 11.6299 4.404 11.0852 4.58899C10.9743 4.62668 10.8615 4.66624 10.7499 4.70539C10.309 4.86008 9.88605 5.00846 9.66701 5.00846C9.39255 5.00846 7.35675 4.61231 7.35675 4.61231ZM13.5737 15.3026C12.929 14.9628 12.1256 14.6738 12.0002 14.6738C11.8748 14.6738 11.0713 14.9628 10.4267 15.3026C10.2808 15.3795 10.144 15.4514 10.0179 15.5175L10.0172 15.518C9.58643 15.7441 9.28084 15.9045 9.16534 15.9782C9.01601 16.0734 9.10706 16.253 9.24311 16.351C9.37916 16.4489 11.2073 17.8912 11.3847 18.0506C11.4074 18.071 11.4314 18.093 11.4564 18.116C11.6273 18.273 11.8455 18.4733 12.0002 18.4733C12.1548 18.4733 12.3728 18.2731 12.5438 18.1161C12.5688 18.0931 12.5929 18.071 12.6156 18.0506C12.793 17.8912 14.6211 16.4489 14.7572 16.351C14.8932 16.253 14.9843 16.0734 14.835 15.9782C14.7195 15.9045 14.4143 15.7443 13.984 15.5184C13.8575 15.452 13.7202 15.3799 13.5737 15.3026Z" fill="#15171A"/>
</svg>
