<svg width="24" height="24" viewBox="0 0 24 24" fill="none" xmlns="http://www.w3.org/2000/svg">
<path d="M22.8749 10.9125H20.3624C19.2374 7.46245 15.9374 4.94995 12 4.94995C8.06245 4.94995 4.76245 7.46245 3.63745 10.9125H1.12495C0.674951 10.9125 0.262451 11.2875 0.262451 11.775C0.262451 12.225 0.637451 12.6375 1.12495 12.6375H3.26245V17.5125C3.26245 17.9625 3.63745 18.375 4.12495 18.375C4.61245 18.375 4.98745 18 4.98745 17.5125V13.4625C4.98745 13.1625 5.02495 12.9 5.06245 12.6H19.0499C19.0875 12.9 19.1249 13.1625 19.1249 13.4625V17.475C19.1249 17.925 19.4999 18.3375 19.9874 18.3375C20.4749 18.3375 20.8499 17.9625 20.8499 17.475V12.6H22.8749C23.3249 12.6 23.7374 12.225 23.7374 11.7375C23.7374 11.2875 23.3249 10.9125 22.8749 10.9125ZM11.1749 10.9125H8.92495V7.34995C9.63745 7.01245 10.3875 6.78745 11.1749 6.71245V10.9125ZM12.8624 6.71245C13.6499 6.78745 14.4374 7.04995 15.1124 7.34995V10.9125H12.8624V6.71245ZM7.19995 8.47495V10.9125H5.43745C5.84995 9.97495 6.44995 9.14995 7.19995 8.47495ZM16.7999 10.9125V8.47495C17.5499 9.14995 18.15 9.97495 18.5624 10.9125H16.7999Z" fill="#161A23"/>
</svg>
