<svg width="24" height="24" viewBox="0 0 24 24" fill="none" xmlns="http://www.w3.org/2000/svg">
<path d="M22.4999 5.02502H1.49995C1.04995 5.02502 0.637451 5.40002 0.637451 5.88752C0.637451 6.37502 1.01245 6.75002 1.49995 6.75002H2.36245V9.45002V16.7625C2.36245 18.0375 3.37495 19.05 4.68745 19.05C5.73745 19.05 6.67495 18.3 6.93745 17.2875C7.49995 14.8875 9.59995 13.2375 12 13.2375C14.4 13.2375 16.4999 14.8875 17.0999 17.2125C17.3624 18.2625 18.2624 18.975 19.3499 18.975H19.3874C20.6624 18.975 21.6749 17.9625 21.6749 16.6875V9.41252V6.71252H22.4999C22.9499 6.71252 23.3624 6.33752 23.3624 5.85002C23.3624 5.36252 22.9499 5.02502 22.4999 5.02502ZM12.8624 8.55002V6.71252H15.5624V8.55002H12.8624ZM8.43745 8.55002V6.71252H11.1375V8.55002H8.43745ZM6.74995 6.71252V8.55002H4.04995V6.71252H6.74995ZM19.9499 16.6875C19.9499 17.025 19.6874 17.2875 19.3499 17.2875H19.3124C19.0124 17.2875 18.7875 17.1 18.7125 16.8C17.9249 13.725 15.1874 11.55 12 11.55C8.81245 11.55 6.03745 13.725 5.28745 16.8C5.21245 17.1 4.98745 17.2875 4.68745 17.2875C4.34995 17.2875 4.08745 17.025 4.08745 16.6875V10.2375H19.9874V16.6875H19.9499ZM19.9499 8.55002H17.25V6.71252H19.9499V8.55002Z" fill="#161A23"/>
</svg>
