<svg width="24" height="24" viewBox="0 0 24 24" fill="none" xmlns="http://www.w3.org/2000/svg">
<path d="M21.9 12.825H22.5C22.95 12.825 23.3624 12.45 23.3624 11.9625V7.31245C23.3624 6.03745 22.3125 4.94995 21 4.94995H2.99995C1.72495 4.94995 0.637451 5.99995 0.637451 7.31245V11.9625C0.637451 12.4125 1.01245 12.825 1.49995 12.825H2.09995C3.33745 12.825 4.34995 13.8375 4.34995 15.075V16.35C3.93745 16.3125 3.52495 16.3875 3.14995 16.5375L1.12495 17.4375C0.712451 17.625 0.524951 18.1125 0.712451 18.5625C0.899951 18.975 1.38745 19.1625 1.83745 18.975L3.86245 18.075C4.04995 18 4.23745 18 4.38745 18.075L5.77495 18.7125C6.37495 18.975 7.08745 18.975 7.72495 18.7125L9.11245 18.075C9.29995 18 9.48745 18 9.67495 18.075L11.0625 18.7125C11.6625 19.0125 12.375 19.0125 13.0125 18.7125L14.4 18.075C14.5875 18 14.775 18 14.9625 18.075L16.35 18.7125C16.95 19.0125 17.6625 19.0125 18.2999 18.7125L19.6875 18.075C19.875 18 20.0625 18 20.25 18.075L22.2374 18.975C22.35 19.0125 22.4625 19.05 22.575 19.05C22.9125 19.05 23.2125 18.8625 23.325 18.5625C23.5125 18.15 23.325 17.625 22.9125 17.4375L20.85 16.5C20.475 16.3125 20.0625 16.275 19.65 16.3125V15.0375C19.65 13.8 20.6625 12.825 21.9 12.825ZM12.2625 17.1375C12.075 17.2125 11.8875 17.2125 11.7 17.1375L10.35 16.5C10.1625 16.425 9.97495 16.35 9.74995 16.3125V15.0375C9.74995 13.8 10.7625 12.7875 12 12.7875C13.2375 12.7875 14.25 13.8 14.25 15.0375V16.3125C14.0625 16.35 13.875 16.3875 13.6875 16.5L12.2625 17.1375ZM16.9874 17.1375L15.9375 16.65V15.0375C15.9375 12.8625 14.175 11.1 12 11.1C9.82495 11.1 8.06245 12.8625 8.06245 15.0375V16.65L7.01245 17.1375C6.82495 17.2125 6.63745 17.2125 6.44995 17.1375L5.99995 16.95V15.075C5.99995 12.975 4.34995 11.2875 2.32495 11.175V7.31245C2.32495 6.93745 2.62495 6.63745 2.99995 6.63745H21C21.375 6.63745 21.6749 6.93745 21.6749 7.31245V11.1375C19.6124 11.25 18 12.975 18 15.0375V16.9125L17.5499 17.1C17.3624 17.2125 17.1375 17.2125 16.9874 17.1375Z" fill="#161A23"/>
<path d="M18.675 8.77498C18.675 8.32498 18.3 7.91248 17.8125 7.91248H16.125C15.675 7.91248 15.2625 8.28748 15.2625 8.77498C15.2625 9.26248 15.6375 9.63748 16.125 9.63748H17.8125C18.3 9.59998 18.675 9.22498 18.675 8.77498Z" fill="#161A23"/>
<path d="M12.8249 7.91248H11.1374C10.6874 7.91248 10.2749 8.28748 10.2749 8.77498C10.2749 9.26248 10.6499 9.63748 11.1374 9.63748H12.8249C13.2749 9.63748 13.6874 9.26248 13.6874 8.77498C13.6874 8.28748 13.3124 7.91248 12.8249 7.91248Z" fill="#161A23"/>
<path d="M7.87495 7.91248H6.18745C5.73745 7.91248 5.32495 8.28748 5.32495 8.77498C5.32495 9.26248 5.69995 9.63748 6.18745 9.63748H7.87495C8.32495 9.63748 8.73745 9.26248 8.73745 8.77498C8.73745 8.28748 8.32495 7.91248 7.87495 7.91248Z" fill="#161A23"/>
</svg>
