<svg width="24" height="24" viewBox="0 0 24 24" fill="none" xmlns="http://www.w3.org/2000/svg">
<path d="M22.4999 14.2125H19.8375C16.9874 14.2125 13.9124 8.6625 12.8624 6.3375V4.425C12.8624 3.975 12.4874 3.5625 12 3.5625C11.5499 3.5625 11.1375 3.9375 11.1375 4.425V6.3375C10.0875 8.6625 7.01245 14.2125 4.16245 14.2125H1.49995C1.04995 14.2125 0.637451 14.5875 0.637451 15.075C0.637451 15.5625 1.01245 15.9375 1.49995 15.9375H3.67495V18.7875H3.59995C3.14995 18.7875 2.73745 19.1625 2.73745 19.65C2.73745 20.1375 3.11245 20.5125 3.59995 20.5125H5.39995C5.84995 20.5125 6.26245 20.1375 6.26245 19.65C6.26245 19.1625 5.88745 18.7875 5.39995 18.7875H5.36245V15.9375H18.6749V18.7875H18.6374C18.1875 18.7875 17.775 19.1625 17.775 19.65C17.775 20.1375 18.15 20.5125 18.6374 20.5125H20.4374C20.8874 20.5125 21.2999 20.1375 21.2999 19.65C21.2999 19.1625 20.9249 18.7875 20.4374 18.7875H20.4V15.9375H22.4999C22.9499 15.9375 23.3624 15.5625 23.3624 15.075C23.3624 14.5875 22.9499 14.2125 22.4999 14.2125ZM16.1624 14.2125H12.8624V9.975C13.6874 11.4 14.8124 13.0125 16.1624 14.2125ZM11.1749 9.975V14.2125H7.87495C9.18745 13.0125 10.3124 11.4 11.1749 9.975Z" fill="#161A23"/>
</svg>
