<svg width="24" height="24" viewBox="0 0 24 24" fill="none" xmlns="http://www.w3.org/2000/svg">
<path d="M22.4999 14.2875H20.3249V4.35005C20.3249 3.90005 19.9499 3.48755 19.4625 3.48755C18.975 3.48755 18.5999 3.86255 18.5999 4.35005V5.70005C16.6124 5.96255 14.3249 6.07505 11.9249 6.07505C9.56245 6.07505 7.27495 5.92505 5.28745 5.70005V4.35005C5.28745 3.90005 4.91245 3.48755 4.42495 3.48755C3.93745 3.48755 3.56245 3.86255 3.56245 4.35005V14.2875H1.49995C1.04995 14.2875 0.637451 14.6625 0.637451 15.15C0.637451 15.6375 1.01245 16.0125 1.49995 16.0125H3.67495V18.8625H3.59995C3.14995 18.8625 2.73745 19.2375 2.73745 19.725C2.73745 20.2125 3.11245 20.5875 3.59995 20.5875H5.39995C5.84995 20.5875 6.26245 20.2125 6.26245 19.725C6.26245 19.2375 5.88745 18.8625 5.39995 18.8625H5.36245V16.0125H18.6749V18.8625H18.6374C18.1875 18.8625 17.775 19.2375 17.775 19.725C17.775 20.2125 18.15 20.5875 18.6374 20.5875H20.4374C20.8874 20.5875 21.2999 20.2125 21.2999 19.725C21.2999 19.2375 20.9249 18.8625 20.4374 18.8625H20.4V16.0125H22.4999C22.9499 16.0125 23.3624 15.6375 23.3624 15.15C23.3624 14.6625 22.9499 14.2875 22.4999 14.2875ZM11.1749 14.2875H9.37495V7.72505C9.97495 7.76255 10.575 7.76255 11.1749 7.76255V14.2875ZM12.8624 7.76255C13.4625 7.76255 14.0624 7.72505 14.6624 7.72505V14.2875H12.8624V7.76255ZM5.36245 7.38755C6.11245 7.46255 6.86245 7.53755 7.68745 7.61255V14.2875H5.36245V7.38755ZM16.3499 14.2875V7.61255C17.1374 7.53755 17.9249 7.50005 18.6749 7.38755V14.2875H16.3499Z" fill="#161A23"/>
</svg>
