<svg width="24" height="24" viewBox="0 0 24 24" fill="none" xmlns="http://www.w3.org/2000/svg">
<path d="M22.6875 11.8874H22.2374L19.2 6.5999C19.2 6.5999 19.2 6.5999 19.2 6.5624C19.1625 6.5249 19.125 6.4499 19.0875 6.4124C19.05 6.3749 18.975 6.3374 18.9375 6.2999C18.9375 6.2999 18.9 6.2999 18.9 6.2624C18.8625 6.2249 18.825 6.2249 18.75 6.1874H18.7125C18.6375 6.1874 18.5625 6.1499 18.525 6.1499H11.925H5.36245C5.28745 6.1499 5.21245 6.1499 5.17495 6.1874H5.13745C5.09995 6.1874 5.02495 6.2249 4.98745 6.2624C4.98745 6.2624 4.94995 6.2624 4.94995 6.2999C4.91245 6.3374 4.83745 6.3749 4.79995 6.4124C4.76245 6.4499 4.72495 6.5249 4.68745 6.5624L1.61245 11.8874H1.31245C0.862451 11.8874 0.449951 12.2624 0.449951 12.7499C0.449951 13.2374 0.824951 13.6124 1.31245 13.6124H5.02495V16.1999H4.53745C4.08745 16.1999 3.67495 16.5749 3.67495 17.0624C3.67495 17.5499 4.04995 17.9249 4.53745 17.9249H7.16245C7.61245 17.9249 8.02495 17.5499 8.02495 17.0624C8.02495 16.5749 7.64995 16.1999 7.16245 16.1999H6.67495V13.6124H17.2875V16.1999H16.7999C16.35 16.1999 15.9375 16.5749 15.9375 17.0624C15.9375 17.5499 16.3125 17.9249 16.7999 17.9249H19.4249C19.875 17.9249 20.2875 17.5499 20.2875 17.0624C20.2875 16.5749 19.9125 16.1999 19.4249 16.1999H18.9375V13.6124H22.65C23.1 13.6124 23.5125 13.2374 23.5125 12.7499C23.5125 12.2624 23.1375 11.8874 22.6875 11.8874ZM16.65 11.8874L18.4874 8.6999L20.325 11.8874H16.65ZM11.925 8.6999L13.7625 11.8874H10.125L11.925 8.6999ZM8.66245 11.0249L6.82495 7.8374H10.4625L8.66245 11.0249ZM13.3875 7.8374H17.025L15.1875 11.0249L13.3875 7.8374ZM5.36245 8.6999L7.19995 11.8874H3.56245L5.36245 8.6999Z" fill="#161A23"/>
</svg>
