<svg width="24" height="24" viewBox="0 0 24 24" fill="none" xmlns="http://www.w3.org/2000/svg">
<path d="M21 7.4999H16.3875V6.8249C16.3875 4.6874 14.6625 2.9624 12.525 2.9624H11.4375C9.30001 2.9624 7.57501 4.6874 7.57501 6.8249V7.4999H3.00001C1.72501 7.4999 0.637512 8.5499 0.637512 9.8624V18.7124C0.637512 19.9874 1.68751 21.0749 3.00001 21.0749H21C22.275 21.0749 23.3625 20.0249 23.3625 18.7124V9.8249C23.3625 8.5499 22.275 7.4999 21 7.4999ZM9.30001 6.8249C9.30001 5.6249 10.275 4.6499 11.475 4.6499H12.5625C13.7625 4.6499 14.7375 5.6249 14.7375 6.8249V7.4999H9.30001V6.8249ZM3.00001 9.1874H21C21.375 9.1874 21.675 9.4874 21.675 9.8624V11.9624H19.4625V11.2499C19.4625 10.7999 19.0875 10.3874 18.6 10.3874C18.1125 10.3874 17.7375 10.7624 17.7375 11.2499V11.9624H6.26251V11.2499C6.26251 10.7999 5.88751 10.3874 5.40001 10.3874C4.91251 10.3874 4.53751 10.7624 4.53751 11.2499V11.9624H2.36251V9.8624C2.36251 9.4874 2.62501 9.1874 3.00001 9.1874ZM21 19.3499H3.00001C2.62501 19.3499 2.32501 19.0499 2.32501 18.6749V13.6124H4.53751V14.3249C4.53751 14.7749 4.91251 15.1874 5.40001 15.1874C5.88751 15.1874 6.26251 14.8124 6.26251 14.3249V13.6124H17.7375V14.3249C17.7375 14.7749 18.1125 15.1874 18.6 15.1874C19.0875 15.1874 19.4625 14.8124 19.4625 14.3249V13.6124H21.675V18.6749C21.675 19.0499 21.375 19.3499 21 19.3499Z" fill="#161A23"/>
</svg>
