<svg width="24" height="24" viewBox="0 0 24 24" fill="none" xmlns="http://www.w3.org/2000/svg">
<path d="M15.8625 12.1499C15.825 10.8749 14.85 9.8249 13.575 9.5999V9.4124C13.575 8.9624 13.2 8.5874 12.75 8.5874C12.3 8.5874 11.925 8.9624 11.925 9.4124V9.5249H11.3625V9.4124C11.3625 8.9624 10.9875 8.5874 10.5375 8.5874C10.0875 8.5874 9.7125 8.9624 9.7125 9.4124V9.5249H9.675H9.075C8.625 9.5249 8.25 9.8999 8.25 10.3499C8.25 10.7249 8.5125 11.0624 8.85 11.1374V13.9124V16.6874C8.5125 16.7999 8.25 17.0999 8.25 17.4749C8.25 17.9249 8.625 18.2999 9.075 18.2999H9.675H9.7125V18.4499C9.7125 18.8999 10.0875 19.2749 10.5375 19.2749C10.9875 19.2749 11.3625 18.8999 11.3625 18.4499V18.3749H11.925V18.5249C11.925 18.9749 12.3 19.3499 12.75 19.3499C13.2 19.3499 13.575 18.9749 13.575 18.5249V18.2999C14.8125 18.0749 15.825 17.0249 15.8625 15.7499C15.8625 15.6749 15.8625 15.5999 15.8625 15.5624C15.825 14.9624 15.6 14.3999 15.1875 13.9499C15.6 13.4999 15.8625 12.9374 15.8625 12.2999C15.8625 12.2624 15.8625 12.1874 15.8625 12.1499ZM14.175 12.2249C14.175 12.2624 14.175 12.2624 14.175 12.2999C14.175 12.7499 13.725 13.1624 13.2375 13.1624H10.425V11.2499H13.0875C13.6875 11.2124 14.175 11.6624 14.175 12.2249ZM14.175 15.7124C14.175 16.2374 13.65 16.6874 13.0875 16.6874H10.425V14.8124H13.2375C13.725 14.8124 14.175 15.1874 14.175 15.6374C14.175 15.6749 14.175 15.6749 14.175 15.7124Z" fill="#161A23"/>
<path d="M21.0001 6.0375H15.7501V4.5C15.7501 3.15 14.6625 2.0625 13.3126 2.0625H10.6501C9.33755 2.0625 8.25005 3.15 8.25005 4.5V6.0375H3.00005C1.72505 6.0375 0.675049 7.0875 0.675049 8.3625V19.575C0.675049 20.85 1.72505 21.9 3.00005 21.9H21.0001C22.2751 21.9 23.3251 20.85 23.3251 19.575V8.3625C23.3251 7.0875 22.2751 6.0375 21.0001 6.0375ZM9.93755 4.5C9.93755 4.0875 10.2751 3.75 10.6875 3.75H13.35C13.7625 3.75 14.1 4.0875 14.1 4.5V6.0375H9.93755V4.5ZM21.6751 19.575C21.6751 19.95 21.3751 20.25 21.0001 20.25H3.00005C2.62505 20.25 2.32505 19.95 2.32505 19.575V8.3625C2.32505 7.9875 2.62505 7.6875 3.00005 7.6875H21.0001C21.3751 7.6875 21.6751 7.9875 21.6751 8.3625V19.575Z" fill="#161A23"/>
</svg>
