<svg width="24" height="24" viewBox="0 0 24 24" fill="none" xmlns="http://www.w3.org/2000/svg">
<path d="M21.375 7.45872H16.4363V6.53247C16.4303 5.53973 16.0334 4.58933 15.3314 3.88734C14.6294 3.18536 13.679 2.78837 12.6863 2.78247H11.3325C10.3365 2.78841 9.38331 3.18798 8.68079 3.894C7.97828 4.60003 7.58347 5.55523 7.5825 6.55122V7.47747H2.625C2.02826 7.47747 1.45597 7.71452 1.03401 8.13648C0.612053 8.55844 0.375 9.13073 0.375 9.72747V18.9862C0.375 19.583 0.612053 20.1553 1.03401 20.5772C1.45597 20.9992 2.02826 21.2362 2.625 21.2362H21.375C21.9717 21.2362 22.544 20.9992 22.966 20.5772C23.3879 20.1553 23.625 19.583 23.625 18.9862V9.70872C23.625 9.11198 23.3879 8.53969 22.966 8.11773C22.544 7.69577 21.9717 7.45872 21.375 7.45872ZM9.06375 6.53247C9.06373 5.934 9.30018 5.35975 9.72161 4.93482C10.143 4.50988 10.7153 4.26867 11.3138 4.26372H12.6488C13.2472 4.26867 13.8195 4.50988 14.2409 4.93482C14.6623 5.35975 14.8988 5.934 14.8988 6.53247V7.45872H9.06375V6.53247ZM2.625 8.95872H21.375C21.5739 8.95872 21.7647 9.03774 21.9053 9.17839C22.046 9.31904 22.125 9.50981 22.125 9.70872V12.0637H19.5712V11.1862C19.5712 10.9873 19.4922 10.7965 19.3516 10.6559C19.2109 10.5152 19.0202 10.4362 18.8212 10.4362C18.6223 10.4362 18.4316 10.5152 18.2909 10.6559C18.1503 10.7965 18.0712 10.9873 18.0712 11.1862V12.0637H5.92875V11.1862C5.92875 10.9873 5.84973 10.7965 5.70908 10.6559C5.56843 10.5152 5.37766 10.4362 5.17875 10.4362C4.97984 10.4362 4.78907 10.5152 4.64842 10.6559C4.50777 10.7965 4.42875 10.9873 4.42875 11.1862V12.0637H1.875V9.70872C1.875 9.50981 1.95402 9.31904 2.09467 9.17839C2.23532 9.03774 2.42609 8.95872 2.625 8.95872ZM21.375 19.7362H2.625C2.42609 19.7362 2.23532 19.6572 2.09467 19.5166C1.95402 19.3759 1.875 19.1851 1.875 18.9862V13.5637H4.42875V14.4375C4.42875 14.6364 4.50777 14.8272 4.64842 14.9678C4.78907 15.1085 4.97984 15.1875 5.17875 15.1875C5.37766 15.1875 5.56843 15.1085 5.70908 14.9678C5.84973 14.8272 5.92875 14.6364 5.92875 14.4375V13.5637H18.0712V14.4375C18.0712 14.6364 18.1503 14.8272 18.2909 14.9678C18.4316 15.1085 18.6223 15.1875 18.8212 15.1875C19.0202 15.1875 19.2109 15.1085 19.3516 14.9678C19.4922 14.8272 19.5712 14.6364 19.5712 14.4375V13.5637H22.125V18.9862C22.125 19.1851 22.046 19.3759 21.9053 19.5166C21.7647 19.6572 21.5739 19.7362 21.375 19.7362Z" fill="#161A23"/>
</svg>
