<svg width="24" height="24" viewBox="0 0 24 24" fill="none" xmlns="http://www.w3.org/2000/svg">
<g clip-path="url(#clip0_501_47512)">
<path d="M12 5.7749C8.51251 5.7749 5.70001 8.5499 5.70001 11.9999C5.70001 15.4124 8.55001 18.2249 12 18.2249C15.45 18.2249 18.3 15.4124 18.3 11.9999C18.3 8.5874 15.4875 5.7749 12 5.7749ZM12.8625 7.5374C13.575 7.6874 14.25 7.9874 14.8125 8.3999L12.8625 9.7874V7.5374ZM12.8625 11.8874L15.975 9.6749C16.1625 10.0124 16.35 10.3499 16.4625 10.7249L12.8625 13.1624V11.8874ZM7.38751 11.9999C7.38751 9.7874 9.03751 7.9499 11.175 7.5374V14.7374V16.4624C9.00001 16.0499 7.38751 14.2124 7.38751 11.9999ZM12.8625 16.4624V15.1874L16.575 12.6749C16.275 14.5874 14.775 16.0874 12.8625 16.4624Z" fill="#161A23"/>
<path d="M12 4.61245C12.45 4.61245 12.8625 4.23745 12.8625 3.74995V1.68745C12.8625 1.23745 12.4875 0.824951 12 0.824951C11.55 0.824951 11.1375 1.19995 11.1375 1.68745V3.78745C11.175 4.23745 11.55 4.61245 12 4.61245Z" fill="#161A23"/>
<path d="M12 19.3875C11.55 19.3875 11.1375 19.7625 11.1375 20.25V22.35C11.1375 22.8 11.5125 23.2125 12 23.2125C12.45 23.2125 12.8625 22.8375 12.8625 22.35V20.25C12.8625 19.7625 12.45 19.3875 12 19.3875Z" fill="#161A23"/>
<path d="M22.5 11.175H20.3625C19.9125 11.175 19.5 11.55 19.5 12.0375C19.5 12.4875 19.875 12.9 20.3625 12.9H22.5C22.95 12.9 23.3625 12.525 23.3625 12.0375C23.3625 11.55 22.95 11.175 22.5 11.175Z" fill="#161A23"/>
<path d="M4.46251 12C4.46251 11.55 4.08751 11.1375 3.60001 11.1375H1.50001C1.05001 11.1375 0.637512 11.5125 0.637512 12C0.637512 12.45 1.01251 12.8625 1.50001 12.8625H3.63751C4.08751 12.8625 4.46251 12.45 4.46251 12Z" fill="#161A23"/>
<path d="M18.525 17.2124C18.1875 16.8749 17.6625 16.8749 17.325 17.2124C16.9875 17.5499 16.9875 18.0749 17.325 18.4124L18.825 19.9124C18.975 20.0624 19.2 20.1374 19.425 20.1374C19.65 20.1374 19.875 20.0624 20.025 19.8749C20.3625 19.5374 20.3625 19.0124 20.025 18.6749L18.525 17.2124Z" fill="#161A23"/>
<path d="M5.47502 6.7875C5.62502 6.9375 5.85002 7.0125 6.07502 7.0125C6.30002 7.0125 6.52502 6.9375 6.67502 6.75C7.01252 6.4125 7.01252 5.8875 6.67502 5.55L5.17502 4.05C4.83752 3.7125 4.31252 3.7125 3.97502 4.05C3.63752 4.3875 3.63752 4.9125 3.97502 5.25L5.47502 6.7875Z" fill="#161A23"/>
<path d="M17.925 7.01235C18.15 7.01235 18.3375 6.93735 18.525 6.78735L20.025 5.28735C20.3625 4.94985 20.3625 4.42485 20.025 4.08735C19.6875 3.74985 19.1625 3.74985 18.825 4.08735L17.325 5.58735C16.9875 5.92485 16.9875 6.44985 17.325 6.78735C17.475 6.93735 17.7 7.01235 17.925 7.01235Z" fill="#161A23"/>
<path d="M5.51252 17.2124L4.01252 18.7124C3.67502 19.0499 3.67502 19.5749 4.01252 19.9124C4.16252 20.0624 4.38752 20.1749 4.61252 20.1749C4.83752 20.1749 5.02502 20.0999 5.21252 19.9499L6.71252 18.4499C7.05002 18.1124 7.05002 17.5874 6.71252 17.2499C6.37502 16.9124 5.81252 16.8749 5.51252 17.2124Z" fill="#161A23"/>
</g>
<defs>
<clipPath id="clip0_501_47512">
<rect width="24" height="24" fill="white"/>
</clipPath>
</defs>
</svg>
