<svg xmlns="http://www.w3.org/2000/svg" width="20" height="20" viewBox="0 0 20 20" fill="none">
<path d="M19.2504 0.75C18.9692 0.46875 18.5317 0.46875 18.2504 0.75L11.8129 7.1875C10.0942 5.90625 7.75042 5.875 6.00042 7.15625L1.34417 10.5938C0.875419 10.9375 0.594169 11.4375 0.562919 12C0.531669 12.5625 0.719169 13.125 1.12542 13.5312L6.50042 18.9062C6.87542 19.2812 7.34417 19.4688 7.87542 19.4688C7.93792 19.4688 7.96917 19.4688 8.03167 19.4688C8.59417 19.4375 9.12542 19.125 9.43792 18.6875L12.8442 14.0313C14.1567 12.25 14.0942 9.90625 12.8129 8.21875L19.2504 1.75C19.5317 1.46875 19.5317 1.03125 19.2504 0.75ZM8.90667 7.625C9.81292 7.625 10.6879 7.96875 11.3754 8.65625C12.5942 9.875 12.7504 11.7813 11.7192 13.1875L11.6879 13.25L6.78167 8.34375L6.84417 8.3125C7.43792 7.84375 8.18792 7.625 8.90667 7.625ZM8.28167 17.8438C8.15667 18 8.00042 18.0625 7.90667 18.0625C7.81292 18.0625 7.65667 18.0625 7.50042 17.9062L2.09417 12.5312C1.93792 12.375 1.93792 12.2188 1.93792 12.125C1.93792 12.0312 1.96917 11.875 2.15667 11.75L5.59417 9.21875L10.8129 14.375L8.28167 17.8438Z" fill="#0047BA"/>
</svg>