<svg width="24" height="24" viewBox="0 0 24 24" fill="none" xmlns="http://www.w3.org/2000/svg">
<path d="M12 8.88745C9.14995 8.88745 6.82495 11.2125 6.82495 14.0625C6.82495 16.9125 9.14995 19.2375 12 19.2375C14.85 19.2375 17.175 16.9125 17.175 14.0625C17.175 11.2125 14.85 8.88745 12 8.88745ZM12 17.55C10.0875 17.55 8.51245 15.975 8.51245 14.0625C8.51245 12.15 10.0875 10.575 12 10.575C13.9125 10.575 15.4875 12.15 15.4875 14.0625C15.4875 15.975 13.9125 17.55 12 17.55Z" fill="#161A23"/>
<path d="M12.6001 14.175V13.0125C12.6001 12.5625 12.2251 12.1875 11.7376 12.1875C11.2501 12.1875 10.9126 12.5625 10.9126 13.0125V14.55C10.9126 14.775 10.9876 15 11.1751 15.15L12.0751 16.05C12.2251 16.2 12.4501 16.3125 12.6751 16.3125C12.9001 16.3125 13.1251 16.2375 13.2751 16.05C13.6126 15.7125 13.6126 15.1875 13.2751 14.85L12.6001 14.175Z" fill="#161A23"/>
<path d="M21.0001 1.38745H3.00005C1.72505 1.38745 0.675049 2.43745 0.675049 3.71245V20.25C0.675049 21.525 1.72505 22.575 3.00005 22.575H21.0001C22.2751 22.575 23.3251 21.525 23.3251 20.25V3.71245C23.3251 2.43745 22.2751 1.38745 21.0001 1.38745ZM3.00005 3.07495H21.0001C21.3751 3.07495 21.6751 3.37495 21.6751 3.74995V6.07495H2.32505V3.71245C2.32505 3.37495 2.62505 3.07495 3.00005 3.07495ZM21.0001 20.9249H3.00005C2.62505 20.9249 2.32505 20.625 2.32505 20.25V7.72495H21.6376V20.25C21.6751 20.625 21.3751 20.9249 21.0001 20.9249Z" fill="#161A23"/>
</svg>
