<svg width="24" height="24" viewBox="0 0 24 24" fill="none" xmlns="http://www.w3.org/2000/svg">
<path d="M17.3622 11.3625C18.6372 10.725 19.4247 9.5625 19.2747 7.65C19.0122 5.0625 16.9122 4.1625 14.0622 3.9375V0.375H11.8497V3.9C11.2497 3.9 10.6872 3.9 10.1247 3.9375V0.375H7.8747V3.975C7.0872 4.0125 6.1497 3.975 3.44971 3.975V6.3375C5.1747 6.3 6.0747 6.1875 6.2997 7.35V17.25C6.1497 18.15 5.4372 18 3.8622 18L3.44971 20.625C7.4622 20.625 7.8747 20.625 7.8747 20.625V23.625H10.0872V20.55C10.7247 20.55 11.2872 20.55 11.8122 20.55V23.625H14.0247V20.55C17.7372 20.325 20.2122 19.425 20.5122 15.9375C20.7747 13.125 19.4247 11.8875 17.3622 11.3625ZM10.0872 6.45C11.2872 6.45 15.2247 6.0375 15.2247 8.6625C15.2247 11.1375 11.3247 10.8375 10.0872 10.8375V6.45ZM10.0872 17.925V13.125C11.5497 13.125 16.1247 12.7125 16.1247 15.5625C16.1622 18.225 11.5497 17.925 10.0872 17.925Z" fill="#15171A"/>
</svg>
