<svg width="24" height="24" viewBox="0 0 24 24" fill="none" xmlns="http://www.w3.org/2000/svg">
<path d="M21 2.9624H3C1.725 2.9624 0.637497 4.0124 0.637497 5.3249V15.6749C0.637497 16.9499 1.6875 18.0374 3 18.0374H17.5875L20.775 20.6624C21.075 20.8874 21.4125 21.0374 21.7875 21.0374C22.0125 21.0374 22.2375 20.9999 22.4625 20.8874C23.025 20.6249 23.3625 20.0999 23.3625 19.4624V5.3249C23.3625 4.0124 22.275 2.9624 21 2.9624ZM21.675 19.1999L18.45 16.5374C18.3 16.4249 18.1125 16.3499 17.925 16.3499H3C2.625 16.3499 2.325 16.0499 2.325 15.6749V5.3249C2.325 4.9499 2.625 4.6499 3 4.6499H21C21.375 4.6499 21.675 4.9499 21.675 5.3249V19.1999Z" fill="#161A23"/>
</svg>
