<svg width="24" height="24" viewBox="0 0 24 24" fill="none" xmlns="http://www.w3.org/2000/svg">
<path d="M2.21245 21.0375C1.98745 21.0375 1.76245 21 1.53745 20.8875C0.974951 20.625 0.637451 20.1 0.637451 19.4625V5.32502C0.637451 4.05002 1.68745 2.96252 2.99995 2.96252H20.9999C22.275 2.96252 23.3624 4.01252 23.3624 5.32502V15.675C23.3624 16.95 22.3124 18.0375 20.9999 18.0375H6.41245L3.22495 20.6625C2.92495 20.8875 2.58745 21.0375 2.21245 21.0375ZM2.99995 4.65002C2.62495 4.65002 2.32495 4.95002 2.32495 5.32502V19.2L5.54995 16.5375C5.69995 16.425 5.88745 16.35 6.07495 16.35H20.9999C21.3749 16.35 21.6749 16.05 21.6749 15.675V5.32502C21.6749 4.95002 21.3749 4.65002 20.9999 4.65002H2.99995Z" fill="#161A23"/>
</svg>
