<svg width="24" height="24" viewBox="0 0 24 24" fill="none" xmlns="http://www.w3.org/2000/svg">
<path d="M20.7 9.33749C20.7 4.53749 16.8 0.674988 12 0.674988C7.2 0.674988 3.3 4.53749 3.3 9.33749C3.3 12.5625 5.1 15.525 7.9125 17.025V21.0375C7.9125 22.3125 8.925 23.325 10.2 23.325H13.7625C15.0375 23.325 16.05 22.3125 16.05 21.0375V17.025C18.9 15.525 20.7 12.5625 20.7 9.33749ZM14.4 21.0375C14.4 21.375 14.1375 21.6375 13.8 21.6375H10.2375C9.9 21.6375 9.6375 21.375 9.6375 21.0375V17.325H14.4V21.0375ZM15.0375 15.675H12.975V12.9375L15.1125 11.2875C15.4875 10.9875 15.5625 10.4625 15.2625 10.0875C14.9625 9.71249 14.4375 9.63749 14.0625 9.93749L12.9375 10.8V8.99999C12.9375 8.54999 12.5625 8.13749 12.075 8.13749C11.625 8.13749 11.2125 8.51249 11.2125 8.99999V10.9125L9.7875 9.89999C9.4125 9.63749 8.8875 9.71249 8.625 10.0875C8.3625 10.4625 8.4375 10.9875 8.8125 11.25L11.2125 12.9375V15.6375H8.8875C6.4875 14.475 4.9125 12 4.9125 9.33749C4.9125 5.47499 8.0625 2.32499 11.925 2.32499C15.7875 2.32499 18.9375 5.47499 18.9375 9.33749C19.0125 12.0375 17.4375 14.5125 15.0375 15.675Z" fill="#161A23"/>
</svg>
