<svg width="24" height="24" viewBox="0 0 24 24" fill="none" xmlns="http://www.w3.org/2000/svg">
<path d="M8.28735 17.025C9.86235 17.025 11.0999 15.75 11.0999 14.2125C11.0999 12.675 9.82485 11.4 8.28735 11.4C6.74985 11.4 5.47485 12.675 5.47485 14.2125C5.47485 15.75 6.71235 17.025 8.28735 17.025ZM8.28735 13.05C8.92485 13.05 9.41235 13.575 9.41235 14.175C9.41235 14.775 8.88735 15.3 8.28735 15.3C7.68735 15.3 7.16235 14.775 7.16235 14.175C7.16235 13.575 7.64985 13.05 8.28735 13.05Z" fill="#161A23"/>
<path d="M10.875 18.075H5.96245C4.68745 18.075 3.63745 19.125 3.63745 20.4V22.5C3.63745 22.95 4.01245 23.3625 4.49995 23.3625C4.98745 23.3625 5.36245 22.9875 5.36245 22.5V20.3625C5.36245 20.025 5.66245 19.725 5.99995 19.725H10.875C11.2125 19.725 11.5125 20.025 11.5125 20.3625V22.5C11.5125 22.95 11.8875 23.3625 12.375 23.3625C12.825 23.3625 13.2375 22.9875 13.2375 22.5V20.3625C13.2 19.0875 12.15 18.075 10.875 18.075Z" fill="#161A23"/>
<path d="M18.8625 2.325C17.8875 1.275 16.575 0.7125 15.1875 0.675C13.7625 0.6375 12.375 1.1625 11.3625 2.175C10.35 3.1875 9.75 4.5 9.75 5.9625C9.75 7.8 10.6875 9.4875 12.225 10.4625C12.375 10.575 12.4875 10.7625 12.4875 10.9875V11.85C12.4875 13.125 13.5375 14.175 14.8125 14.175H15.2625C16.5375 14.175 17.5875 13.125 17.5875 11.85V10.9875C17.5875 10.7625 17.7 10.575 17.85 10.4625C19.35 9.525 20.2875 7.9125 20.325 6.1125C20.4 4.6875 19.875 3.375 18.8625 2.325ZM15.2625 12.45H14.8125C14.475 12.45 14.175 12.15 14.175 11.8125V11.1H15.8625V11.8125C15.9 12.1875 15.6375 12.45 15.2625 12.45ZM16.95 9C16.7625 9.1125 16.6125 9.2625 16.4625 9.4125H13.6125C13.5 9.2625 13.3125 9.1125 13.125 9C12.075 8.325 11.4375 7.2 11.4375 5.925C11.4375 4.95 11.8125 4.0125 12.525 3.3375C13.2 2.6625 14.1 2.325 15.0375 2.325C15.075 2.325 15.1125 2.325 15.1125 2.325C16.05 2.3625 16.95 2.7375 17.625 3.45C18.3 4.1625 18.675 5.0625 18.6375 6.0375C18.6375 7.275 18 8.3625 16.95 9Z" fill="#161A23"/>
</svg>
