<svg width="24" height="24" viewBox="0 0 24 24" fill="none" xmlns="http://www.w3.org/2000/svg">
<path d="M13.5375 6.63758C13.2 6.30008 12.675 6.33758 12.3375 6.63758L10.4625 8.55008C10.125 8.88758 10.125 9.41258 10.4625 9.71258L11.7375 11.0251L10.4625 12.3751C10.125 12.7126 10.1625 13.2376 10.4625 13.5751C10.6125 13.7251 10.8375 13.8001 11.0625 13.8001C11.2875 13.8001 11.5125 13.7251 11.6625 13.5376L13.5375 11.6251C13.875 11.2876 13.875 10.7626 13.5375 10.4626L12.2625 9.15008L13.5375 7.83758C13.875 7.50008 13.8375 6.93758 13.5375 6.63758Z" fill="#161A23"/>
<path d="M20.6625 9.33755C20.6625 4.53755 16.7625 0.675049 12 0.675049C7.23749 0.675049 3.33749 4.53755 3.33749 9.33755C3.33749 12.7126 5.28749 15.675 8.13749 17.1V21.3751C8.13749 22.4626 9.03749 23.3251 10.0875 23.3251H14.1C15.1875 23.3251 16.05 22.4251 16.05 21.3751V16.9876C18.7875 15.5251 20.6625 12.6376 20.6625 9.33755ZM14.3625 17.7001V21.3751C14.3625 21.5251 14.25 21.6376 14.1 21.6376H10.0875C9.93749 21.6376 9.82499 21.5251 9.82499 21.3751V17.7001C10.5 17.8876 11.25 18 12 18C12.75 18 13.5 17.8876 14.2125 17.7001H14.3625ZM12 16.3126C8.13749 16.3126 5.02499 13.1625 5.02499 9.33755C5.02499 5.51255 8.13749 2.36255 12 2.36255C15.8625 2.36255 18.975 5.51255 18.975 9.33755C18.975 13.1625 15.8625 16.3126 12 16.3126Z" fill="#161A23"/>
</svg>
