<svg width="24" height="24" viewBox="0 0 24 24" fill="none" xmlns="http://www.w3.org/2000/svg">
<g clip-path="url(#clip0_501_49668)">
<path d="M20.9625 0.675049H17.925C16.725 0.675049 15.7125 1.57505 15.6 2.73755L6.45002 3.63755H3.03752C1.76252 3.63755 0.712524 4.65005 0.712524 5.88755V12.075C0.712524 12.9375 1.23752 13.725 1.98752 14.1L3.30002 21.3375C3.56252 22.5 4.65002 23.3625 5.88752 23.3625C6.71252 23.3625 7.50002 22.9875 8.02502 22.35C8.47502 21.7875 8.66252 21.0751 8.51252 20.4L7.50002 14.55L15.5625 16.125C15.6375 17.3625 16.65 18.3375 17.8875 18.3375H20.925C22.2 18.3375 23.2875 17.2875 23.2875 15.975V3.00005C23.2875 1.72505 22.2375 0.675049 20.9625 0.675049ZM7.35002 5.25005L15.5625 4.42505V14.4L7.35002 12.7875V5.25005ZM2.40002 5.88755C2.40002 5.62505 2.66252 5.32505 3.03752 5.32505H5.66252V12.6375H3.03752C2.70002 12.6375 2.40002 12.375 2.40002 12.075V5.88755ZM6.71252 21.3C6.52502 21.525 6.22502 21.675 5.88752 21.675C5.43752 21.675 5.02502 21.375 4.95002 21.0375L3.75002 14.325H5.73752L6.82502 20.7001V20.7375C6.90002 21 6.78752 21.1875 6.71252 21.3ZM21.6 15.975C21.6 16.35 21.3 16.65 20.925 16.65H17.8875C17.5125 16.65 17.2125 16.35 17.2125 15.975V3.00005C17.2125 2.62505 17.5125 2.32505 17.8875 2.32505H20.925C21.3 2.32505 21.6 2.62505 21.6 3.00005V15.975Z" fill="#161A23"/>
</g>
<defs>
<clipPath id="clip0_501_49668">
<rect width="24" height="24" fill="white"/>
</clipPath>
</defs>
</svg>
