<svg width="24" height="24" viewBox="0 0 24 24" fill="none" xmlns="http://www.w3.org/2000/svg">
<path d="M8.17505 12.525C6.93755 12.525 5.92505 13.5375 5.92505 14.775C5.92505 16.0125 6.93755 17.025 8.17505 17.025C9.41255 17.025 10.425 16.0125 10.425 14.775C10.425 13.5375 9.41255 12.525 8.17505 12.525ZM8.17505 15.3375C7.87505 15.3375 7.61255 15.075 7.61255 14.775C7.61255 14.475 7.87505 14.2125 8.17505 14.2125C8.47505 14.2125 8.73755 14.475 8.73755 14.775C8.73755 15.075 8.47505 15.3375 8.17505 15.3375Z" fill="#161A23"/>
<path d="M15.8251 12.525C14.5876 12.525 13.5751 13.5375 13.5751 14.775C13.5751 16.0125 14.5876 17.025 15.8251 17.025C17.0626 17.025 18.0751 16.0125 18.0751 14.775C18.0751 13.5375 17.0626 12.525 15.8251 12.525ZM15.8251 15.3375C15.5251 15.3375 15.2626 15.075 15.2626 14.775C15.2626 14.475 15.5251 14.2125 15.8251 14.2125C16.1251 14.2125 16.3876 14.475 16.3876 14.775C16.3876 15.075 16.1626 15.3375 15.8251 15.3375Z" fill="#161A23"/>
<path d="M21.15 1.61255H20.2875C19.9875 1.05005 19.425 0.675049 18.75 0.675049H5.28752C4.61252 0.675049 4.01252 1.05005 3.75002 1.61255H2.85002C2.02502 1.61255 1.31252 2.25005 1.27502 3.03755V4.68755C1.27502 5.51255 1.98752 6.15005 2.88752 6.15005H3.52502V17.2875C3.52502 18.4125 4.35002 19.35 5.43752 19.5V21C5.43752 22.275 6.48752 23.3625 7.80002 23.3625H8.62502C9.90002 23.3625 10.9875 22.3125 10.9875 21V19.5375H13.125V21C13.125 22.275 14.175 23.3625 15.4875 23.3625H16.3125C17.5875 23.3625 18.675 22.3125 18.675 21V19.5C19.7625 19.35 20.5875 18.4125 20.5875 17.2875V6.15005H21.225C22.125 6.15005 22.8375 5.47505 22.8375 4.68755V3.07505C22.725 2.25005 22.0125 1.61255 21.15 1.61255ZM5.28752 2.36255H18.7125C18.75 2.36255 18.7875 2.40005 18.7875 2.43755V4.50005H5.21252V2.40005C5.21252 2.36255 5.25002 2.36255 5.28752 2.36255ZM18.7875 10.2H12.8625V6.15005H18.825V10.2H18.7875ZM5.21252 10.2V6.15005H11.175V10.2H5.21252ZM2.96252 4.46255V3.30005H3.52502V4.46255H2.96252ZM9.26252 21C9.26252 21.375 8.96252 21.675 8.58752 21.675H7.76252C7.38752 21.675 7.08752 21.375 7.08752 21V19.5375H9.22502V21H9.26252ZM16.875 21C16.875 21.375 16.575 21.675 16.2 21.675H15.375C15 21.675 14.7 21.375 14.7 21V19.5375H16.875V21ZM18.2625 17.85H13.05H10.9125H5.73752C5.43752 17.85 5.21252 17.5875 5.21252 17.3251V11.8875H18.7875V17.2875C18.7875 17.5875 18.5625 17.85 18.2625 17.85ZM21.0375 4.46255H20.475V3.30005H21.0375V4.46255Z" fill="#161A23"/>
</svg>
