<svg width="24" height="24" viewBox="0 0 24 24" fill="none" xmlns="http://www.w3.org/2000/svg">
<g clip-path="url(#clip0_501_51265)">
<path d="M23.2125 16.8375C23.2125 16.8 23.2125 16.8375 23.2125 16.8375C22.6875 15.1875 21.075 14.2875 19.5375 14.7375C18.225 15.1125 16.425 15.675 15.0375 16.05C15.15 15.5625 15.075 15.1875 14.9625 14.8875C14.5875 13.9875 13.575 13.575 12.75 13.575H8.81245C8.47495 13.575 8.17495 13.425 7.83745 13.125C7.42495 12.75 6.86245 12.525 6.29995 12.525H3.14995C1.76245 12.525 0.637451 13.6875 0.637451 15.15V20.1C0.637451 21.5625 1.79995 22.7625 3.18745 22.7625H6.93745C7.42495 22.7625 7.87495 22.6125 8.28745 22.35C9.37495 22.95 10.65 23.2875 11.8875 23.2875C12.675 23.2875 13.425 23.175 14.1 22.95L21.075 20.8125H21.1124C23.2875 19.9875 23.5875 18.15 23.2125 16.8375ZM3.22495 21.0375C2.73745 21.0375 2.36245 20.5875 2.36245 20.0625V15.1125C2.36245 14.5875 2.73745 14.175 3.18745 14.175H6.29995C6.48745 14.175 6.63745 14.25 6.71245 14.325C6.82495 14.4375 6.93745 14.5125 7.04995 14.625V21C7.01245 21 6.97495 21 6.97495 21H3.22495V21.0375ZM20.625 19.1625L13.65 21.3C13.125 21.4875 12.525 21.5625 11.925 21.5625C10.95 21.5625 9.97495 21.3 9.11245 20.85L8.73745 20.625V15.225C8.77495 15.225 8.77495 15.225 8.81245 15.225H12.675C12.975 15.225 13.275 15.375 13.35 15.4875C13.3875 15.6 13.3125 16.05 12.525 16.8C12.225 17.0625 12.1875 17.5125 12.375 17.85C12.7125 18.45 13.05 18.3375 14.4 17.9625C15.0375 17.775 15.8625 17.55 16.6875 17.2875C18.3375 16.8 19.9874 16.3125 19.9874 16.3125C20.6625 16.125 21.3375 16.5375 21.6 17.2875C21.75 17.925 21.7125 18.75 20.625 19.1625Z" fill="#161A23"/>
<path d="M0.787374 7.2C1.31237 8.8125 2.92487 9.75 4.46237 9.3C5.77487 8.925 7.57487 8.3625 8.96237 7.9875C8.84987 8.475 8.92487 8.85 9.03737 9.15C9.41237 10.05 10.4249 10.4625 11.2499 10.4625H15.1124C15.4124 10.4625 15.7499 10.6125 16.0874 10.9125C16.4999 11.2875 17.0624 11.5125 17.6249 11.5125H20.7374C22.1249 11.5125 23.2499 10.35 23.2499 8.8875V3.9375C23.2499 2.475 22.0874 1.275 20.6999 1.275H16.9499C16.4624 1.275 16.0124 1.425 15.5999 1.6875C14.5499 1.0875 13.3124 0.75 12.0374 0.75C11.2499 0.75 10.4999 0.8625 9.82487 1.0875L2.84987 3.225H2.81237C0.712374 4.0125 0.412374 5.85 0.787374 7.2C0.787374 7.2 0.787374 7.1625 0.787374 7.2ZM20.7749 2.9625C21.2624 2.9625 21.6374 3.4125 21.6374 3.9375V8.8875C21.6374 9.4125 21.2624 9.825 20.8124 9.825H17.6999C17.5124 9.825 17.3624 9.75 17.2874 9.675C17.1749 9.5625 17.0624 9.4875 16.9499 9.375V3C16.9874 3 17.0249 3 17.0249 3H20.7749V2.9625ZM3.37487 4.8375L10.3499 2.7C10.8749 2.5125 11.4749 2.4375 12.0749 2.4375C13.0499 2.4375 14.0249 2.7 14.8874 3.15L15.2624 3.375V8.7375C15.2249 8.7375 15.2249 8.7375 15.1874 8.7375H11.2874C10.9874 8.7375 10.6874 8.5875 10.6124 8.475C10.5749 8.3625 10.6499 7.9125 11.4374 7.1625C11.7374 6.9 11.7749 6.45 11.5874 6.1125C11.3999 5.8125 11.2499 5.7 10.9499 5.7C10.6499 5.7 10.2374 5.8125 9.56237 6C8.92487 6.1875 8.09987 6.4125 7.27487 6.675C5.62487 7.1625 3.97487 7.65 3.97487 7.65C3.29987 7.8375 2.62487 7.425 2.36237 6.675C2.24987 6.075 2.28737 5.25 3.37487 4.8375Z" fill="#161A23"/>
</g>
<defs>
<clipPath id="clip0_501_51265">
<rect width="24" height="24" fill="white"/>
</clipPath>
</defs>
</svg>
