<svg width="24" height="24" viewBox="0 0 24 24" fill="none" xmlns="http://www.w3.org/2000/svg">
<path d="M4.1999 20.175C3.7499 20.175 3.3374 20.55 3.3374 21.0375V22.5C3.3374 22.95 3.7124 23.3625 4.1999 23.3625C4.6874 23.3625 5.0624 22.9875 5.0624 22.5V21.0375C5.0249 20.55 4.6499 20.175 4.1999 20.175Z" fill="#161A23"/>
<path d="M8.4001 18.9C7.9501 18.9 7.5376 19.275 7.5376 19.7625V22.5C7.5376 22.95 7.9126 23.3625 8.4001 23.3625C8.8876 23.3625 9.2626 22.9875 9.2626 22.5V19.7625C9.2626 19.275 8.8876 18.9 8.4001 18.9Z" fill="#161A23"/>
<path d="M12.6374 17.2125C12.1874 17.2125 11.7749 17.5875 11.7749 18.075V22.5C11.7749 22.95 12.1499 23.3625 12.6374 23.3625C13.1249 23.3625 13.4999 22.9875 13.4999 22.5V18.075C13.4624 17.5875 13.0874 17.2125 12.6374 17.2125Z" fill="#161A23"/>
<path d="M16.8376 15.525C16.3876 15.525 15.9751 15.9 15.9751 16.3875V22.5C15.9751 22.95 16.3501 23.3625 16.8376 23.3625C17.3251 23.3625 17.7001 22.9875 17.7001 22.5V16.3875C17.7001 15.9 17.3251 15.525 16.8376 15.525Z" fill="#161A23"/>
<path d="M20.7751 8.775L19.8001 8.25V7.2375C19.8001 4.275 19.0876 2.3625 17.4376 0.900003C17.1376 0.600003 16.6501 0.600003 16.3126 0.900003C14.6626 2.3625 13.9501 4.2375 13.9501 7.2375V8.25L12.9751 8.775C12.1876 9.225 11.6626 10.05 11.6626 10.95V12.9C11.6626 13.2 11.8126 13.4625 12.0751 13.6125C12.2251 13.6875 12.3751 13.725 12.5251 13.725C12.6751 13.725 12.7876 13.6875 12.9376 13.6125L14.0251 13.0125C14.1376 13.35 14.4376 13.575 14.8126 13.575H19.0126C19.3876 13.575 19.6876 13.35 19.8001 13.0125L20.8876 13.6125C21.0001 13.6875 21.1501 13.725 21.3001 13.725C21.4501 13.725 21.6001 13.6875 21.7501 13.6125C22.0126 13.4625 22.1626 13.2 22.1626 12.9V10.95C22.0501 10.0125 21.5626 9.1875 20.7751 8.775ZM13.3126 10.95C13.3126 10.65 13.4626 10.3875 13.7251 10.2375L13.9126 10.125V11.1L13.3126 11.4375V10.95ZM18.1126 11.8875H15.6001V11.625V8.7V7.2C15.6001 4.7625 16.1626 3.4875 16.8376 2.6625C17.5501 3.4875 18.0751 4.7625 18.0751 7.2V8.7V11.625V11.8875H18.1126ZM20.3626 11.475L19.7626 11.1375V10.125L19.9501 10.2375C20.2126 10.3875 20.3626 10.65 20.3626 10.95V11.475Z" fill="#161A23"/>
<path d="M10.05 13.3125L7.38748 12.3375C6.93748 12.1875 6.44998 12.4125 6.29998 12.825C6.14998 13.275 6.37498 13.7625 6.78748 13.9125L7.49998 14.175L2.51248 16.05C2.06248 16.2 1.87498 16.6875 2.02498 17.1375C2.13748 17.475 2.47498 17.7 2.81248 17.7C2.92498 17.7 2.99998 17.7 3.11248 17.6625L8.32498 15.7125L8.06248 16.4625C7.91248 16.9125 8.13748 17.4 8.54998 17.55C8.66248 17.5875 8.73748 17.5875 8.84998 17.5875C9.18748 17.5875 9.52498 17.3625 9.63748 17.025L10.6125 14.4C10.6875 13.95 10.4625 13.4625 10.05 13.3125Z" fill="#161A23"/>
</svg>
