<svg width="24" height="24" viewBox="0 0 24 24" fill="none" xmlns="http://www.w3.org/2000/svg">
<path d="M16.9125 6.00005H15.9V2.25005C15.9 1.38755 15.1875 0.675049 14.325 0.675049H9.67499C8.81249 0.675049 8.09999 1.38755 8.09999 2.25005V6.00005H7.08749C5.84999 6.00005 4.79999 7.01255 4.79999 8.28755V21.1125C4.79999 22.35 5.81249 23.4 7.08749 23.4H16.95C18.1875 23.4 19.2375 22.3875 19.2375 21.1125V8.25005C19.2 7.01255 18.1875 6.00005 16.9125 6.00005ZM14.25 6.00005H12.15V2.32505H14.25V6.00005ZM9.74999 2.32505H10.425V6.00005H9.74999V2.32505ZM17.5125 21.0751C17.5125 21.4125 17.25 21.675 16.9125 21.675H7.08749C6.74999 21.675 6.48749 21.4125 6.48749 21.0751V8.25005C6.48749 7.91255 6.74999 7.65005 7.08749 7.65005H16.95C17.2875 7.65005 17.55 7.91255 17.55 8.25005V21.0751H17.5125Z" fill="#161A23"/>
<path d="M9.07499 16.425H8.99999C8.54999 16.425 8.17499 16.8 8.17499 17.25C8.17499 17.7 8.54999 18.075 8.99999 18.075H9.11249C9.56249 18.075 9.93749 17.7 9.93749 17.25C9.93749 16.8 9.56249 16.425 9.07499 16.425Z" fill="#161A23"/>
<path d="M9.07499 19.05H8.99999C8.54999 19.05 8.17499 19.425 8.17499 19.875C8.17499 20.325 8.54999 20.7 8.99999 20.7H9.11249C9.56249 20.7 9.93749 20.325 9.93749 19.875C9.93749 19.425 9.56249 19.05 9.07499 19.05Z" fill="#161A23"/>
<path d="M12.0375 16.425H11.925C11.475 16.425 11.1 16.8 11.1 17.25C11.1 17.7 11.475 18.075 11.925 18.075H12.0375C12.4875 18.075 12.8625 17.7 12.8625 17.25C12.8625 16.8 12.525 16.425 12.0375 16.425Z" fill="#161A23"/>
<path d="M12.0375 19.05H11.925C11.475 19.05 11.1 19.425 11.1 19.875C11.1 20.325 11.475 20.7 11.925 20.7H12.0375C12.4875 20.7 12.8625 20.325 12.8625 19.875C12.8625 19.425 12.525 19.05 12.0375 19.05Z" fill="#161A23"/>
<path d="M15 16.425H14.8875C14.4375 16.425 14.0625 16.8 14.0625 17.25C14.0625 17.7 14.4375 18.075 14.8875 18.075H15C15.45 18.075 15.825 17.7 15.825 17.25C15.825 16.8 15.45 16.425 15 16.425Z" fill="#161A23"/>
<path d="M15 19.05H14.8875C14.4375 19.05 14.0625 19.425 14.0625 19.875C14.0625 20.325 14.4375 20.7 14.8875 20.7H15C15.45 20.7 15.825 20.325 15.825 19.875C15.825 19.425 15.45 19.05 15 19.05Z" fill="#161A23"/>
<path d="M13.575 8.6626H10.425C9.18751 8.6626 8.13751 9.6751 8.13751 10.9501V12.6001C8.13751 13.8376 9.15001 14.8876 10.425 14.8876H13.575C14.8125 14.8876 15.8625 13.8751 15.8625 12.6001V10.9501C15.8625 9.7126 14.8125 8.6626 13.575 8.6626ZM14.175 12.6001C14.175 12.9376 13.9125 13.2001 13.575 13.2001H10.425C10.0875 13.2001 9.82501 12.9376 9.82501 12.6001V10.9501C9.82501 10.6126 10.0875 10.3501 10.425 10.3501H13.575C13.9125 10.3501 14.175 10.6126 14.175 10.9501V12.6001Z" fill="#161A23"/>
</svg>
