<svg width="24" height="24" viewBox="0 0 24 24" fill="none" xmlns="http://www.w3.org/2000/svg">
<path d="M9.48765 11.7375H9.11265V11.3625C9.11265 10.9125 8.73765 10.5 8.25015 10.5C7.76265 10.5 7.38765 10.875 7.38765 11.3625V11.7375H7.01265C6.56265 11.7375 6.15015 12.1125 6.15015 12.6C6.15015 13.0875 6.52515 13.4625 7.01265 13.4625H7.38765V13.8375C7.38765 14.2875 7.76265 14.7 8.25015 14.7C8.73765 14.7 9.11265 14.325 9.11265 13.8375V13.4625H9.48765C9.93765 13.4625 10.3501 13.0875 10.3501 12.6C10.3501 12.1125 9.97515 11.7375 9.48765 11.7375Z" fill="#161A23"/>
<path d="M16.875 12.6001L17.2125 12.2626C17.55 11.9251 17.55 11.4001 17.2125 11.0626C16.875 10.7251 16.35 10.7251 16.0125 11.0626L15.675 11.4001L15.375 11.0626C15.0375 10.7251 14.5125 10.7251 14.175 11.0626C13.8375 11.4001 13.8375 11.9251 14.175 12.2626L14.5125 12.6001L14.175 12.9376C13.8375 13.2751 13.8375 13.8001 14.175 14.1376C14.325 14.2876 14.55 14.4001 14.775 14.4001C15 14.4001 15.1875 14.3251 15.375 14.1376L15.7125 13.8001L16.05 14.1376C16.2 14.2876 16.425 14.4001 16.65 14.4001C16.875 14.4001 17.1 14.3251 17.25 14.1376C17.5875 13.8001 17.5875 13.2751 17.25 12.9376L16.875 12.6001Z" fill="#161A23"/>
<path d="M9.18755 18.3H7.35005C6.90005 18.3 6.48755 18.675 6.48755 19.1625C6.48755 19.65 6.86255 20.025 7.35005 20.025H9.18755C9.63755 20.025 10.05 19.65 10.05 19.1625C10.05 18.675 9.63755 18.3 9.18755 18.3Z" fill="#161A23"/>
<path d="M16.0125 17.625L14.175 19.4625C13.8375 19.8 13.8375 20.325 14.175 20.6625C14.325 20.8125 14.55 20.925 14.775 20.925C15 20.925 15.1875 20.85 15.375 20.6625L17.2125 18.825C17.55 18.4875 17.55 17.9625 17.2125 17.625C16.875 17.325 16.35 17.325 16.0125 17.625Z" fill="#161A23"/>
<path d="M18.0375 0.675049H5.96255C4.68755 0.675049 3.67505 1.68755 3.67505 2.96255V21.0751C3.67505 22.35 4.68755 23.3625 5.96255 23.3625H18C19.275 23.3625 20.2875 22.35 20.2875 21.0751V2.96255C20.325 1.68755 19.275 0.675049 18.0375 0.675049ZM5.96255 2.36255H18C18.3375 2.36255 18.6 2.62505 18.6 2.96255V8.17505H5.36255V2.96255C5.36255 2.62505 5.62505 2.36255 5.96255 2.36255ZM5.36255 9.86255H11.1375V15.1875H5.36255V9.86255ZM12.8625 9.86255H18.6375V15.1875H12.8625V9.86255ZM5.36255 21.0375V16.875H11.1375V21.675H5.96255C5.62505 21.675 5.36255 21.375 5.36255 21.0375ZM18.0375 21.675H12.8625V16.875H18.6375V21.0375C18.6375 21.375 18.375 21.675 18.0375 21.675Z" fill="#161A23"/>
<path d="M7.05 7.61252H16.95C17.4 7.61252 17.8125 7.23752 17.8125 6.75002V4.20002C17.8125 3.75002 17.4375 3.33752 16.95 3.33752H7.05C6.6 3.33752 6.1875 3.71252 6.1875 4.20002V6.75002C6.1875 7.20002 6.5625 7.61252 7.05 7.61252ZM7.875 5.02502H16.125V5.88752H7.875V5.02502Z" fill="#161A23"/>
</svg>
