<svg width="24" height="24" viewBox="0 0 24 24" fill="none" xmlns="http://www.w3.org/2000/svg">
<path fill-rule="evenodd" clip-rule="evenodd" d="M4.91261 2.34375C4.55358 2.34375 4.25636 2.64099 4.25636 3V21C4.25636 21.359 4.55358 21.6562 4.91261 21.6562H19.0876C19.4466 21.6562 19.7439 21.359 19.7439 21V3C19.7439 2.64099 19.4466 2.34375 19.0876 2.34375H4.91261ZM2.56885 3C2.56885 1.70901 3.6216 0.65625 4.91261 0.65625H19.0876C20.3786 0.65625 21.4314 1.70901 21.4314 3V21C21.4314 22.291 20.3786 23.3438 19.0876 23.3438H4.91261C3.6216 23.3438 2.56885 22.291 2.56885 21V3ZM7.59386 5.30625V7.93125H16.4064V5.30625H7.59386ZM5.90636 5.2125C5.90636 4.33402 6.62163 3.61876 7.50011 3.61876H16.5001C17.3786 3.61876 18.0939 4.33402 18.0939 5.2125V8.025C18.0939 8.44174 17.9512 8.85461 17.6405 9.16537C17.3297 9.47618 16.9168 9.61875 16.5001 9.61875H7.50011C6.62163 9.61875 5.90636 8.90351 5.90636 8.025V5.2125ZM7.50011 11.1562C7.03413 11.1562 6.65636 11.534 6.65636 12C6.65636 12.466 7.03413 12.8438 7.50011 12.8438H7.87511C8.34108 12.8438 8.71886 12.466 8.71886 12C8.71886 11.534 8.34108 11.1562 7.87511 11.1562H7.50011ZM10.7814 12C10.7814 11.534 11.1591 11.1562 11.6251 11.1562H12.0001C12.4661 11.1562 12.8439 11.534 12.8439 12C12.8439 12.466 12.4661 12.8438 12.0001 12.8438H11.6251C11.1591 12.8438 10.7814 12.466 10.7814 12ZM15.7501 11.1562C15.2841 11.1562 14.9064 11.534 14.9064 12C14.9064 12.466 15.2841 12.8438 15.7501 12.8438H16.1251C16.5911 12.8438 16.9689 12.466 16.9689 12C16.9689 11.534 16.5911 11.1562 16.1251 11.1562H15.7501ZM6.65636 15.75C6.65636 15.284 7.03413 14.9062 7.50011 14.9062H7.87511C8.34108 14.9062 8.71886 15.284 8.71886 15.75C8.71886 16.216 8.34108 16.5938 7.87511 16.5938H7.50011C7.03413 16.5938 6.65636 16.216 6.65636 15.75ZM11.6251 14.9062C11.1591 14.9062 10.7814 15.284 10.7814 15.75C10.7814 16.216 11.1591 16.5938 11.6251 16.5938H12.0001C12.4661 16.5938 12.8439 16.216 12.8439 15.75C12.8439 15.284 12.4661 14.9062 12.0001 14.9062H11.6251ZM14.9064 15.75C14.9064 15.284 15.2841 14.9062 15.7501 14.9062H16.1251C16.5911 14.9062 16.9689 15.284 16.9689 15.75C16.9689 16.216 16.5911 16.5938 16.1251 16.5938H15.7501C15.2841 16.5938 14.9064 16.216 14.9064 15.75ZM7.50011 18.6562C7.03413 18.6562 6.65636 19.034 6.65636 19.5C6.65636 19.966 7.03413 20.3438 7.50011 20.3438H7.87511C8.34108 20.3438 8.71886 19.966 8.71886 19.5C8.71886 19.034 8.34108 18.6562 7.87511 18.6562H7.50011ZM10.7814 19.5C10.7814 19.034 11.1591 18.6562 11.6251 18.6562H12.0001C12.4661 18.6562 12.8439 19.034 12.8439 19.5C12.8439 19.966 12.4661 20.3438 12.0001 20.3438H11.6251C11.1591 20.3438 10.7814 19.966 10.7814 19.5ZM15.7501 18.6562C15.2841 18.6562 14.9064 19.034 14.9064 19.5C14.9064 19.966 15.2841 20.3438 15.7501 20.3438H16.1251C16.5911 20.3438 16.9689 19.966 16.9689 19.5C16.9689 19.034 16.5911 18.6562 16.1251 18.6562H15.7501Z" fill="#161A23"/>
</svg>
