<svg width="24" height="24" viewBox="0 0 24 24" fill="none" xmlns="http://www.w3.org/2000/svg">
<path d="M16.9125 4.38745H15.45V3.11245C15.45 2.88745 15.375 2.66245 15.1875 2.51245L13.575 0.899951C13.425 0.749951 13.2 0.637451 12.975 0.637451H9.41248C8.96248 0.637451 8.58748 1.01245 8.58748 1.46245V4.34995H7.12498C5.77498 4.34995 4.72498 5.43745 4.72498 6.78745V20.9249C4.72498 22.2749 5.81248 23.3624 7.12498 23.3624H16.95C18.3 23.3624 19.3875 22.2749 19.3875 20.9249V6.78745C19.3125 5.47495 18.225 4.38745 16.9125 4.38745ZM10.2375 2.32495H12.6L13.725 3.44995V7.04995H10.2375V2.32495ZM17.625 20.9249C17.625 21.3374 17.2875 21.6749 16.875 21.6749H7.08748C6.67498 21.6749 6.37498 21.3374 6.37498 20.9249V6.78745C6.37498 6.37495 6.71248 6.03745 7.08748 6.03745H8.54998V7.87495C8.54998 8.32495 8.92498 8.69995 9.37498 8.69995H14.55C15 8.69995 15.375 8.32495 15.375 7.87495V6.03745H16.8375C17.25 6.03745 17.5875 6.37495 17.5875 6.78745V20.9249H17.625Z" fill="#161A23"/>
<path d="M15.4125 10.1625H8.58745C8.13745 10.1625 7.76245 10.5375 7.76245 10.9875C7.76245 11.4375 8.13745 11.8125 8.58745 11.8125H15.4125C15.8625 11.8125 16.2375 11.4375 16.2375 10.9875C16.2375 10.5375 15.8625 10.1625 15.4125 10.1625Z" fill="#161A23"/>
<path d="M9.48746 13.575H9.41246C8.96246 13.575 8.58746 13.95 8.58746 14.4C8.58746 14.85 8.96246 15.225 9.41246 15.225H9.48746C9.93746 15.225 10.3125 14.85 10.3125 14.4C10.3125 13.95 9.97496 13.575 9.48746 13.575Z" fill="#161A23"/>
<path d="M9.48746 16.125H9.41246C8.96246 16.125 8.58746 16.5 8.58746 16.95C8.58746 17.4 8.96246 17.775 9.41246 17.775H9.48746C9.93746 17.775 10.3125 17.4 10.3125 16.95C10.3125 16.5 9.97496 16.125 9.48746 16.125Z" fill="#161A23"/>
<path d="M12.0375 13.575H11.9625C11.5125 13.575 11.1375 13.95 11.1375 14.4C11.1375 14.85 11.5125 15.225 11.9625 15.225H12.0375C12.4875 15.225 12.8625 14.85 12.8625 14.4C12.8625 13.95 12.525 13.575 12.0375 13.575Z" fill="#161A23"/>
<path d="M12.0375 16.125H11.9625C11.5125 16.125 11.1375 16.5 11.1375 16.95C11.1375 17.4 11.5125 17.775 11.9625 17.775H12.0375C12.4875 17.775 12.8625 17.4 12.8625 16.95C12.8625 16.5 12.525 16.125 12.0375 16.125Z" fill="#161A23"/>
<path d="M14.5875 13.575H14.5125C14.0625 13.575 13.6875 13.95 13.6875 14.4C13.6875 14.85 14.0625 15.225 14.5125 15.225H14.5875C15.0375 15.225 15.4125 14.85 15.4125 14.4C15.4125 13.95 15.0375 13.575 14.5875 13.575Z" fill="#161A23"/>
<path d="M14.5875 16.125H14.5125C14.0625 16.125 13.6875 16.5 13.6875 16.95C13.6875 17.4 14.0625 17.775 14.5125 17.775H14.5875C15.0375 17.775 15.4125 17.4 15.4125 16.95C15.4125 16.5 15.0375 16.125 14.5875 16.125Z" fill="#161A23"/>
<path d="M9.48746 18.7124H9.41246C8.96246 18.7124 8.58746 19.0874 8.58746 19.5374C8.58746 19.9874 8.96246 20.3624 9.41246 20.3624H9.48746C9.93746 20.3624 10.3125 19.9874 10.3125 19.5374C10.3125 19.0874 9.97496 18.7124 9.48746 18.7124Z" fill="#161A23"/>
<path d="M12.0375 18.7124H11.9625C11.5125 18.7124 11.1375 19.0874 11.1375 19.5374C11.1375 19.9874 11.5125 20.3624 11.9625 20.3624H12.0375C12.4875 20.3624 12.8625 19.9874 12.8625 19.5374C12.8625 19.0874 12.525 18.7124 12.0375 18.7124Z" fill="#161A23"/>
<path d="M14.5875 18.7124H14.5125C14.0625 18.7124 13.6875 19.0874 13.6875 19.5374C13.6875 19.9874 14.0625 20.3624 14.5125 20.3624H14.5875C15.0375 20.3624 15.4125 19.9874 15.4125 19.5374C15.4125 19.0874 15.0375 18.7124 14.5875 18.7124Z" fill="#161A23"/>
</svg>
