<svg width="24" height="24" viewBox="0 0 24 24" fill="none" xmlns="http://www.w3.org/2000/svg">
<path d="M18.0375 0.674988H5.96249C4.68749 0.674988 3.67499 1.68749 3.67499 2.96249V21.075C3.67499 22.35 4.68749 23.3625 5.96249 23.3625H18C19.275 23.3625 20.2875 22.35 20.2875 21.075V2.96249C20.325 1.68749 19.275 0.674988 18.0375 0.674988ZM18.6375 21.0375C18.6375 21.375 18.375 21.6375 18.0375 21.6375H5.96249C5.62499 21.6375 5.36249 21.375 5.36249 21.0375V2.96249C5.36249 2.62499 5.62499 2.36249 5.96249 2.36249H18C18.3375 2.36249 18.6 2.62499 18.6 2.96249V21.0375H18.6375Z" fill="#161A23"/>
<path d="M14.9625 3.71246H9.03749C8.17499 3.71246 7.46249 4.42496 7.46249 5.28746V8.96246C7.46249 9.82496 8.17499 10.5375 9.03749 10.5375H14.925C15.7875 10.5375 16.5 9.82496 16.5 8.96246V5.28746C16.5 4.42496 15.825 3.71246 14.9625 3.71246ZM14.8125 8.84996H9.18749V5.39996H14.85V8.84996H14.8125Z" fill="#161A23"/>
<path d="M8.69998 12.4875H8.58748C8.13748 12.4875 7.76248 12.8625 7.76248 13.3125C7.76248 13.7625 8.13748 14.1375 8.58748 14.1375H8.69998C9.14998 14.1375 9.52498 13.7625 9.52498 13.3125C9.52498 12.8625 9.18748 12.4875 8.69998 12.4875Z" fill="#161A23"/>
<path d="M8.69998 15.4875H8.58748C8.13748 15.4875 7.76248 15.8625 7.76248 16.3125C7.76248 16.7625 8.13748 17.1375 8.58748 17.1375H8.69998C9.14998 17.1375 9.52498 16.7625 9.52498 16.3125C9.52498 15.8625 9.18748 15.4875 8.69998 15.4875Z" fill="#161A23"/>
<path d="M8.69998 18.7125H8.58748C8.13748 18.7125 7.76248 19.0875 7.76248 19.5375C7.76248 19.9875 8.13748 20.3625 8.58748 20.3625H8.69998C9.14998 20.3625 9.52498 19.9875 9.52498 19.5375C9.52498 19.0875 9.18748 18.7125 8.69998 18.7125Z" fill="#161A23"/>
<path d="M12.0375 12.4875H11.925C11.475 12.4875 11.1 12.8625 11.1 13.3125C11.1 13.7625 11.475 14.1375 11.925 14.1375H12.0375C12.4875 14.1375 12.8625 13.7625 12.8625 13.3125C12.8625 12.8625 12.525 12.4875 12.0375 12.4875Z" fill="#161A23"/>
<path d="M12.0375 15.4875H11.925C11.475 15.4875 11.1 15.8625 11.1 16.3125C11.1 16.7625 11.475 17.1375 11.925 17.1375H12.0375C12.4875 17.1375 12.8625 16.7625 12.8625 16.3125C12.8625 15.8625 12.525 15.4875 12.0375 15.4875Z" fill="#161A23"/>
<path d="M12.0375 18.7125H11.925C11.475 18.7125 11.1 19.0875 11.1 19.5375C11.1 19.9875 11.475 20.3625 11.925 20.3625H12.0375C12.4875 20.3625 12.8625 19.9875 12.8625 19.5375C12.8625 19.0875 12.525 18.7125 12.0375 18.7125Z" fill="#161A23"/>
<path d="M15.4125 12.4875H15.3C14.85 12.4875 14.475 12.8625 14.475 13.3125C14.475 13.7625 14.85 14.1375 15.3 14.1375H15.4125C15.8625 14.1375 16.2375 13.7625 16.2375 13.3125C16.2375 12.8625 15.8625 12.4875 15.4125 12.4875Z" fill="#161A23"/>
<path d="M15.4125 15.4875H15.3C14.85 15.4875 14.475 15.8625 14.475 16.3125C14.475 16.7625 14.85 17.1375 15.3 17.1375H15.4125C15.8625 17.1375 16.2375 16.7625 16.2375 16.3125C16.2375 15.8625 15.8625 15.4875 15.4125 15.4875Z" fill="#161A23"/>
<path d="M15.4125 18.7125H15.3C14.85 18.7125 14.475 19.0875 14.475 19.5375C14.475 19.9875 14.85 20.3625 15.3 20.3625H15.4125C15.8625 20.3625 16.2375 19.9875 16.2375 19.5375C16.2375 19.0875 15.8625 18.7125 15.4125 18.7125Z" fill="#161A23"/>
</svg>
