<svg width="24" height="24" viewBox="0 0 24 24" fill="none" xmlns="http://www.w3.org/2000/svg">
<g clip-path="url(#clip0_501_47733)">
<path d="M7.68749 13.725H6.52499C6.29999 13.725 6.14999 13.875 6.14999 14.1V15.225C6.14999 15.45 6.29999 15.6 6.52499 15.6H7.68749C7.91249 15.6 8.06249 15.45 8.06249 15.225V14.1C8.06249 13.9125 7.87499 13.725 7.68749 13.725Z" fill="#161A23"/>
<path d="M12.5625 13.725H11.4C11.175 13.725 11.025 13.875 11.025 14.1V15.225C11.025 15.45 11.175 15.6 11.4 15.6H12.5625C12.7875 15.6 12.9375 15.45 12.9375 15.225V14.1C12.9375 13.9125 12.7875 13.725 12.5625 13.725Z" fill="#161A23"/>
<path d="M17.475 13.725H16.3125C16.0875 13.725 15.9375 13.875 15.9375 14.1V15.225C15.9375 15.45 16.0875 15.6 16.3125 15.6H17.475C17.7 15.6 17.85 15.45 17.85 15.225V14.1C17.85 13.9125 17.7 13.725 17.475 13.725Z" fill="#161A23"/>
<path d="M7.68749 18.5625H6.52499C6.29999 18.5625 6.14999 18.7125 6.14999 18.9375V20.0625C6.14999 20.2875 6.29999 20.4375 6.52499 20.4375H7.68749C7.91249 20.4375 8.06249 20.2875 8.06249 20.0625V18.9375C8.06249 18.75 7.87499 18.5625 7.68749 18.5625Z" fill="#161A23"/>
<path d="M12.5625 18.5625H11.4C11.175 18.5625 11.025 18.7125 11.025 18.9375V20.0625C11.025 20.2875 11.175 20.4375 11.4 20.4375H12.5625C12.7875 20.4375 12.9375 20.2875 12.9375 20.0625V18.9375C12.9375 18.75 12.7875 18.5625 12.5625 18.5625Z" fill="#161A23"/>
<path d="M17.475 18.5625H16.3125C16.0875 18.5625 15.9375 18.7125 15.9375 18.9375V20.0625C15.9375 20.2875 16.0875 20.4375 16.3125 20.4375H17.475C17.7 20.4375 17.85 20.2875 17.85 20.0625V18.9375C17.85 18.75 17.7 18.5625 17.475 18.5625Z" fill="#161A23"/>
<path d="M21 5.77501H12.8625V5.06251C13.725 4.72501 14.325 3.90001 14.325 2.92501C14.325 1.65001 13.275 0.637512 12 0.637512C10.725 0.637512 9.675 1.65001 9.675 2.92501C9.675 3.90001 10.275 4.72501 11.1375 5.06251V5.77501H3C1.725 5.77501 0.637497 6.82501 0.637497 8.13751V21C0.637497 22.275 1.6875 23.3625 3 23.3625H21C22.275 23.3625 23.3625 22.3125 23.3625 21V8.10001C23.3625 6.82501 22.275 5.77501 21 5.77501ZM12 2.32501C12.3375 2.32501 12.6375 2.58751 12.6375 2.92501C12.6375 3.26251 12.375 3.52501 12 3.52501C11.625 3.52501 11.3625 3.26251 11.3625 2.92501C11.3625 2.58751 11.6625 2.32501 12 2.32501ZM3 7.46251H21C21.375 7.46251 21.675 7.76251 21.675 8.13751V10.4625H2.3625V8.13751C2.3625 7.72501 2.625 7.46251 3 7.46251ZM21 21.675H3C2.625 21.675 2.325 21.375 2.325 21V12.1125H21.6375V21C21.675 21.375 21.375 21.675 21 21.675Z" fill="#161A23"/>
</g>
<defs>
<clipPath id="clip0_501_47733">
<rect width="24" height="24" fill="white"/>
</clipPath>
</defs>
</svg>
