<svg width="24" height="24" viewBox="0 0 24 24" fill="none" xmlns="http://www.w3.org/2000/svg">
<path d="M21 3.9751H18.975V3.1501C18.975 2.7001 18.6 2.2876 18.1125 2.2876C17.625 2.2876 17.25 2.6626 17.25 3.1501V3.9376H6.71251V3.1501C6.71251 2.7001 6.33751 2.2876 5.85001 2.2876C5.36251 2.2876 4.98751 2.6626 4.98751 3.1501V3.9376H3.00001C1.72501 3.9376 0.637512 4.9876 0.637512 6.3001V19.3501C0.637512 20.6251 1.68751 21.7126 3.00001 21.7126H21C22.275 21.7126 23.3625 20.6626 23.3625 19.3501V6.3001C23.3625 5.0251 22.275 3.9751 21 3.9751ZM3.00001 5.6626H5.02501V6.4126C5.02501 6.8626 5.40001 7.2751 5.88751 7.2751C6.37501 7.2751 6.75001 6.9001 6.75001 6.4126V5.6626H17.3625V6.4126C17.3625 6.8626 17.7375 7.2751 18.225 7.2751C18.7125 7.2751 19.0875 6.9001 19.0875 6.4126V5.6626H21C21.375 5.6626 21.675 5.9626 21.675 6.3376V8.8126H2.36251V6.3376C2.36251 5.9251 2.62501 5.6626 3.00001 5.6626ZM21 19.9876H3.00001C2.62501 19.9876 2.32501 19.6876 2.32501 19.3126V10.4626H21.6375V19.3501C21.675 19.7251 21.375 19.9876 21 19.9876Z" fill="#161A23"/>
<path d="M10.8 11.5127H9.97501C9.75001 11.5127 9.60001 11.6627 9.60001 11.8877V12.7127C9.60001 12.9377 9.75001 13.0877 9.97501 13.0877H10.8C11.025 13.0877 11.175 12.9377 11.175 12.7127V11.8877C11.175 11.6627 10.9875 11.5127 10.8 11.5127Z" fill="#161A23"/>
<path d="M14.2125 11.5127H13.3875C13.1625 11.5127 13.0125 11.6627 13.0125 11.8877V12.7127C13.0125 12.9377 13.1625 13.0877 13.3875 13.0877H14.2125C14.4375 13.0877 14.5875 12.9377 14.5875 12.7127V11.8877C14.5875 11.6627 14.4375 11.5127 14.2125 11.5127Z" fill="#161A23"/>
<path d="M17.625 11.5127H16.8C16.575 11.5127 16.425 11.6627 16.425 11.8877V12.7127C16.425 12.9377 16.575 13.0877 16.8 13.0877H17.625C17.85 13.0877 18 12.9377 18 12.7127V11.8877C18 11.6627 17.85 11.5127 17.625 11.5127Z" fill="#161A23"/>
<path d="M7.2 14.4001H6.375C6.15 14.4001 6 14.5501 6 14.7751V15.6001C6 15.8251 6.15 15.9751 6.375 15.9751H7.2C7.425 15.9751 7.575 15.8251 7.575 15.6001V14.7751C7.575 14.5501 7.3875 14.4001 7.2 14.4001Z" fill="#161A23"/>
<path d="M10.8 14.4001H9.97501C9.75001 14.4001 9.60001 14.5501 9.60001 14.7751V15.6001C9.60001 15.8251 9.75001 15.9751 9.97501 15.9751H10.8C11.025 15.9751 11.175 15.8251 11.175 15.6001V14.7751C11.175 14.5501 10.9875 14.4001 10.8 14.4001Z" fill="#161A23"/>
<path d="M14.2125 14.4001H13.3875C13.1625 14.4001 13.0125 14.5501 13.0125 14.7751V15.6001C13.0125 15.8251 13.1625 15.9751 13.3875 15.9751H14.2125C14.4375 15.9751 14.5875 15.8251 14.5875 15.6001V14.7751C14.5875 14.5501 14.4375 14.4001 14.2125 14.4001Z" fill="#161A23"/>
<path d="M17.625 14.4001H16.8C16.575 14.4001 16.425 14.5501 16.425 14.7751V15.6001C16.425 15.8251 16.575 15.9751 16.8 15.9751H17.625C17.85 15.9751 18 15.8251 18 15.6001V14.7751C18 14.5501 17.85 14.4001 17.625 14.4001Z" fill="#161A23"/>
<path d="M7.2 17.2876H6.375C6.15 17.2876 6 17.4376 6 17.6626V18.4876C6 18.7126 6.15 18.8626 6.375 18.8626H7.2C7.425 18.8626 7.575 18.7126 7.575 18.4876V17.6626C7.575 17.4376 7.3875 17.2876 7.2 17.2876Z" fill="#161A23"/>
<path d="M10.8 17.2876H9.97501C9.75001 17.2876 9.60001 17.4376 9.60001 17.6626V18.4876C9.60001 18.7126 9.75001 18.8626 9.97501 18.8626H10.8C11.025 18.8626 11.175 18.7126 11.175 18.4876V17.6626C11.175 17.4376 10.9875 17.2876 10.8 17.2876Z" fill="#161A23"/>
<path d="M14.2125 17.2876H13.3875C13.1625 17.2876 13.0125 17.4376 13.0125 17.6626V18.4876C13.0125 18.7126 13.1625 18.8626 13.3875 18.8626H14.2125C14.4375 18.8626 14.5875 18.7126 14.5875 18.4876V17.6626C14.5875 17.4376 14.4375 17.2876 14.2125 17.2876Z" fill="#161A23"/>
</svg>
