<svg width="24" height="24" viewBox="0 0 24 24" fill="none" xmlns="http://www.w3.org/2000/svg">
<g clip-path="url(#clip0_501_47748)">
<path d="M20.7375 2.58755H19.0875V1.72505C19.0875 1.27505 18.7125 0.862549 18.225 0.862549C17.7375 0.862549 17.3625 1.23755 17.3625 1.72505V2.58755H6.59999V1.72505C6.59999 1.27505 6.22499 0.862549 5.73749 0.862549C5.24999 0.862549 4.87499 1.23755 4.87499 1.72505V2.58755H3.26249C1.83749 2.58755 0.674988 3.75005 0.674988 5.17505V15.6C0.674988 17.025 1.83749 18.1875 3.26249 18.1875H14.475C14.4375 18.3376 14.4375 18.5251 14.4375 18.6751C14.4375 21.1126 16.425 23.1376 18.9 23.1376C21.375 23.1376 23.3625 21.1501 23.3625 18.6751C23.3625 18.1501 23.2875 17.6626 23.1 17.2126C23.25 16.9126 23.3625 16.6126 23.3625 16.2751V5.17505C23.3625 3.75005 22.1625 2.58755 20.7375 2.58755ZM3.26249 4.27505H4.91249V4.65005C4.91249 5.10005 5.28749 5.51255 5.77499 5.51255C6.26249 5.51255 6.63749 5.13755 6.63749 4.65005V4.27505H17.4375V4.65005C17.4375 5.10005 17.8125 5.51255 18.3 5.51255C18.7875 5.51255 19.1625 5.13755 19.1625 4.65005V4.27505H20.8125C21.3 4.27505 21.7125 4.68755 21.7125 5.17505V7.42505H2.36249V5.17505C2.36249 4.65005 2.73749 4.27505 3.26249 4.27505ZM3.26249 16.5001C2.77499 16.5001 2.36249 16.0876 2.36249 15.6V9.07505H21.675V15.1876C20.925 14.5876 19.95 14.2126 18.9 14.2126C17.25 14.2126 15.7875 15.1126 15.0375 16.4626H3.26249V16.5001ZM18.9 21.4501C17.3625 21.4501 16.125 20.2126 16.125 18.6751C16.125 17.1376 17.3625 15.9001 18.9 15.9001C20.4375 15.9001 21.675 17.1376 21.675 18.6751C21.675 20.2126 20.4 21.4501 18.9 21.4501Z" fill="#161A23"/>
<path d="M9.26248 10.3125H8.47498C8.24998 10.3125 8.09998 10.4625 8.09998 10.6875V11.475C8.09998 11.7 8.24998 11.85 8.47498 11.85H9.26248C9.48748 11.85 9.63748 11.7 9.63748 11.475V10.6875C9.63748 10.5 9.48748 10.3125 9.26248 10.3125Z" fill="#161A23"/>
<path d="M12.75 10.3125H11.9625C11.7375 10.3125 11.5875 10.4625 11.5875 10.6875V11.475C11.5875 11.7 11.7375 11.85 11.9625 11.85H12.75C12.975 11.85 13.125 11.7 13.125 11.475V10.6875C13.125 10.5 12.975 10.3125 12.75 10.3125Z" fill="#161A23"/>
<path d="M16.6125 11.475V10.6875C16.6125 10.4625 16.4625 10.3125 16.2375 10.3125H15.45C15.225 10.3125 15.075 10.4625 15.075 10.6875V11.475C15.075 11.7 15.225 11.85 15.45 11.85H16.2375C16.425 11.85 16.6125 11.7 16.6125 11.475Z" fill="#161A23"/>
<path d="M5.77499 13.2H4.98749C4.76249 13.2 4.61249 13.35 4.61249 13.575V14.3625C4.61249 14.5875 4.76249 14.7375 4.98749 14.7375H5.77499C5.99999 14.7375 6.14999 14.5875 6.14999 14.3625V13.575C6.14999 13.35 5.99999 13.2 5.77499 13.2Z" fill="#161A23"/>
<path d="M9.26248 13.2H8.47498C8.24998 13.2 8.09998 13.35 8.09998 13.575V14.3625C8.09998 14.5875 8.24998 14.7375 8.47498 14.7375H9.26248C9.48748 14.7375 9.63748 14.5875 9.63748 14.3625V13.575C9.63748 13.35 9.48748 13.2 9.26248 13.2Z" fill="#161A23"/>
<path d="M12.75 13.2H11.9625C11.7375 13.2 11.5875 13.35 11.5875 13.575V14.3625C11.5875 14.5875 11.7375 14.7375 11.9625 14.7375H12.75C12.975 14.7375 13.125 14.5875 13.125 14.3625V13.575C13.125 13.35 12.975 13.2 12.75 13.2Z" fill="#161A23"/>
<path d="M20.025 18.1876H19.5375V17.7751C19.5375 17.3251 19.1625 16.9126 18.675 16.9126C18.1875 16.9126 17.8125 17.2876 17.8125 17.7751V19.0501C17.8125 19.5001 18.1875 19.9126 18.675 19.9126H19.9875C20.4375 19.9126 20.85 19.5376 20.85 19.0501C20.85 18.5626 20.5125 18.1876 20.025 18.1876Z" fill="#161A23"/>
</g>
<defs>
<clipPath id="clip0_501_47748">
<rect width="24" height="24" fill="white"/>
</clipPath>
</defs>
</svg>
