<svg width="24" height="24" viewBox="0 0 24 24" fill="none" xmlns="http://www.w3.org/2000/svg">
<g clip-path="url(#clip0_501_38710)">
<path d="M20.7376 2.58752H19.0876V1.72502C19.0876 1.27502 18.7126 0.900024 18.2626 0.900024C17.8126 0.900024 17.4375 1.27502 17.4375 1.72502V2.58752H6.60005V1.72502C6.60005 1.27502 6.22505 0.900024 5.77505 0.900024C5.32505 0.900024 4.95005 1.27502 4.95005 1.72502V2.58752H3.26255C1.83755 2.58752 0.675049 3.75002 0.675049 5.17502V15.6C0.675049 17.025 1.83755 18.1875 3.26255 18.1875H11.4001C11.85 18.1875 12.225 17.8125 12.225 17.3625C12.225 16.9125 11.85 16.5375 11.4001 16.5375H3.26255C2.77505 16.5375 2.36255 16.125 2.36255 15.6375V9.07502H21.6751V13.0125C21.6751 13.4625 22.0501 13.8375 22.5001 13.8375C22.9501 13.8375 23.3251 13.4625 23.3251 13.0125V5.13752C23.3251 3.75002 22.1625 2.58752 20.7376 2.58752ZM2.32505 7.38752V5.13752C2.32505 4.65002 2.73755 4.23752 3.22505 4.23752H4.87505V4.61252C4.87505 5.06252 5.25005 5.43752 5.70005 5.43752C6.15005 5.43752 6.52505 5.06252 6.52505 4.61252V4.23752H17.3251V4.61252C17.3251 5.06252 17.7001 5.43752 18.1501 5.43752C18.6001 5.43752 18.975 5.06252 18.975 4.61252V4.23752H20.6251C21.1126 4.23752 21.5251 4.65002 21.5251 5.13752V7.38752H2.32505Z" fill="#161A23"/>
<path d="M18.1125 13.5375C15.45 13.5375 13.3125 15.675 13.3125 18.3375C13.3125 21 15.45 23.1375 18.1125 23.1375C20.775 23.1375 22.9125 21 22.9125 18.3375C22.9125 15.675 20.7375 13.5375 18.1125 13.5375ZM18.1125 21.45C16.3875 21.45 15 20.0625 15 18.3375C15 16.6125 16.3875 15.225 18.1125 15.225C19.8375 15.225 21.225 16.6125 21.225 18.3375C21.225 20.0625 19.8375 21.45 18.1125 21.45Z" fill="#161A23"/>
<path d="M19.275 17.475H16.95C16.5 17.475 16.125 17.85 16.125 18.3C16.125 18.75 16.5 19.125 16.95 19.125H19.275C19.725 19.125 20.1 18.75 20.1 18.3C20.1 17.85 19.725 17.475 19.275 17.475Z" fill="#161A23"/>
</g>
<defs>
<clipPath id="clip0_501_38710">
<rect width="24" height="24" fill="white"/>
</clipPath>
</defs>
</svg>
