<svg width="24" height="24" viewBox="0 0 24 24" fill="none" xmlns="http://www.w3.org/2000/svg">
<path d="M21 3.9751H19.05V3.1501C19.05 2.7001 18.675 2.2876 18.1875 2.2876C17.7 2.2876 17.325 2.6626 17.325 3.1501V3.9751H6.63751V3.1501C6.63751 2.7001 6.26251 2.2876 5.77501 2.2876C5.28751 2.2876 4.91251 2.6626 4.91251 3.1501V3.9751H3.00001C1.72501 3.9751 0.637512 5.0251 0.637512 6.3376V19.3876C0.637512 20.6626 1.68751 21.7501 3.00001 21.7501H21C22.275 21.7501 23.3625 20.7001 23.3625 19.3876V6.3001C23.3625 5.0251 22.275 3.9751 21 3.9751ZM2.36251 10.9501H5.55001V14.6626H2.36251V10.9501ZM7.23751 10.9501H11.175V14.6626H7.23751V10.9501ZM11.175 16.3501V20.0251H7.23751V16.3501H11.175ZM12.8625 16.3501H16.8V20.0251H12.8625V16.3501ZM12.8625 14.6626V10.9501H16.8V14.6626H12.8625ZM18.45 10.9501H21.6375V14.6626H18.45V10.9501ZM3.00001 5.6626H4.95001V6.4501C4.95001 6.9001 5.32501 7.3126 5.81251 7.3126C6.30001 7.3126 6.67501 6.9376 6.67501 6.4501V5.6626H17.4V6.4501C17.4 6.9001 17.775 7.3126 18.2625 7.3126C18.75 7.3126 19.125 6.9376 19.125 6.4501V5.6626H21C21.375 5.6626 21.675 5.9626 21.675 6.3376V9.2626H2.36251V6.3376C2.36251 5.9626 2.62501 5.6626 3.00001 5.6626ZM2.36251 19.3501V16.3126H5.55001V19.9876H3.00001C2.62501 20.0251 2.36251 19.7251 2.36251 19.3501ZM21 20.0251H18.45V16.3501H21.6375V19.3876C21.675 19.7251 21.375 20.0251 21 20.0251Z" fill="#161A23"/>
</svg>
