<svg width="24" height="24" viewBox="0 0 24 24" fill="none" xmlns="http://www.w3.org/2000/svg">
<path d="M20.625 3.9751H19.05V3.1501C19.05 2.7001 18.675 2.2876 18.1875 2.2876C17.7 2.2876 17.325 2.6626 17.325 3.1501V3.9751H6.63751V3.1501C6.63751 2.7001 6.26251 2.2876 5.77501 2.2876C5.28751 2.2876 4.91251 2.6626 4.91251 3.1501V3.9751H3.37501C1.87501 3.9751 0.637512 5.2126 0.637512 6.7126V19.0126C0.637512 20.5126 1.87501 21.7501 3.37501 21.7501H20.625C22.125 21.7501 23.3625 20.5126 23.3625 19.0126V6.6751C23.3625 5.1751 22.125 3.9751 20.625 3.9751ZM3.37501 5.6626H4.95001V6.0001C4.95001 6.4501 5.32501 6.8626 5.81251 6.8626C6.30001 6.8626 6.67501 6.4876 6.67501 6.0001V5.6626H17.4V6.0001C17.4 6.4501 17.775 6.8626 18.2625 6.8626C18.75 6.8626 19.125 6.4876 19.125 6.0001V5.6626H20.625C21.1875 5.6626 21.675 6.1126 21.675 6.7126V8.8126H2.36251V6.7126C2.36251 6.1126 2.81251 5.6626 3.37501 5.6626ZM20.625 20.0251H3.37501C2.81251 20.0251 2.32501 19.5751 2.32501 18.9751V10.5001H21.6375V19.0126C21.675 19.5751 21.1875 20.0251 20.625 20.0251Z" fill="#161A23"/>
<path d="M14.55 12.5627L11.2875 15.8252L10.2375 14.7752C9.89999 14.4377 9.37499 14.4377 9.03749 14.7752C8.69999 15.1127 8.69999 15.6377 9.03749 15.9752L10.6875 17.6252C10.8375 17.7752 11.0625 17.8877 11.2875 17.8877C11.5125 17.8877 11.7375 17.8127 11.8875 17.6252L15.75 13.7627C16.0875 13.4252 16.0875 12.9002 15.75 12.5627C15.4125 12.2252 14.8875 12.2252 14.55 12.5627Z" fill="#161A23"/>
</svg>
