<svg width="24" height="24" viewBox="0 0 24 24" fill="none" xmlns="http://www.w3.org/2000/svg">
<path d="M21 4.12495H19.0125V3.37495C19.0125 2.92495 18.6375 2.51245 18.15 2.51245C17.6625 2.51245 17.2875 2.88745 17.2875 3.37495V4.12495H6.675V3.37495C6.675 2.92495 6.3 2.51245 5.8125 2.51245C5.325 2.51245 4.95 2.88745 4.95 3.37495V4.12495H3C1.725 4.12495 0.637497 5.17495 0.637497 6.48745V19.1625C0.637497 20.4375 1.6875 21.525 3 21.525H21C22.275 21.525 23.3625 20.475 23.3625 19.1625V6.44995C23.3625 5.17495 22.275 4.12495 21 4.12495ZM3 5.81245H4.9875V6.52495C4.9875 6.97495 5.3625 7.38745 5.85 7.38745C6.3375 7.38745 6.7125 7.01245 6.7125 6.52495V5.81245H17.325V6.52495C17.325 6.97495 17.7 7.38745 18.1875 7.38745C18.675 7.38745 19.05 7.01245 19.05 6.52495V5.81245H21C21.375 5.81245 21.675 6.11245 21.675 6.48745V8.84995H2.3625V6.48745C2.3625 6.11245 2.625 5.81245 3 5.81245ZM21 19.7999H3C2.625 19.7999 2.325 19.5 2.325 19.125V10.5H21.6375V19.125C21.675 19.5 21.375 19.7999 21 19.7999Z" fill="#161A23"/>
<path d="M12.7125 12.3749C12.45 12.2249 12.1125 12.2249 11.85 12.4124L10.1625 13.5374C9.7875 13.7999 9.67499 14.3249 9.93749 14.6999C10.2 15.0749 10.725 15.1874 11.1 14.9249L11.475 14.6624V17.0624C11.475 17.5124 11.85 17.9249 12.3375 17.9249C12.7875 17.9249 13.2 17.5499 13.2 17.0624V13.1249C13.1625 12.8249 12.975 12.5249 12.7125 12.3749Z" fill="#161A23"/>
</svg>
