<svg width="24" height="24" viewBox="0 0 24 24" fill="none" xmlns="http://www.w3.org/2000/svg">
<path d="M20.5875 6.37505H17.775L17.1 5.02505C16.6125 4.08755 15.675 3.48755 14.625 3.48755H9.37499C8.32499 3.48755 7.38749 4.08755 6.89999 5.02505L6.22499 6.37505H3.41249C1.91249 6.37505 0.674988 7.61255 0.674988 9.11255V17.7C0.674988 19.2 1.91249 20.4375 3.41249 20.4375H20.5875C22.0875 20.4375 23.325 19.2 23.325 17.7V9.15005C23.3625 7.61255 22.125 6.37505 20.5875 6.37505ZM21.675 17.7375C21.675 18.3375 21.1875 18.7875 20.625 18.7875H3.41249C2.81249 18.7875 2.36249 18.3 2.36249 17.7375V9.15005C2.36249 8.55005 2.84999 8.10005 3.41249 8.10005H6.74999C7.08749 8.10005 7.34999 7.91255 7.49999 7.65005L8.39999 5.85005C8.58749 5.47505 8.96249 5.25005 9.33749 5.25005H14.625C15.0375 5.25005 15.4125 5.47505 15.5625 5.85005L16.4625 7.65005C16.6125 7.95005 16.9125 8.10005 17.2125 8.10005H20.55C21.15 8.10005 21.6 8.58755 21.6 9.15005V17.7375H21.675Z" fill="#161A23"/>
<path d="M12 9.26257C9.93748 9.26257 8.28748 10.9126 8.28748 12.9751C8.28748 15.0376 9.93748 16.6876 12 16.6876C14.0625 16.6876 15.7125 15.0376 15.7125 12.9751C15.7125 10.9126 14.0625 9.26257 12 9.26257ZM12 14.9626C10.875 14.9626 9.97498 14.0626 9.97498 12.9376C9.97498 11.8126 10.875 10.9126 12 10.9126C13.125 10.9126 14.025 11.8126 14.025 12.9376C14.025 14.0626 13.125 14.9626 12 14.9626Z" fill="#161A23"/>
<path d="M6.26249 9.26257H4.34999C3.89999 9.26257 3.48749 9.63757 3.48749 10.1251C3.48749 10.6126 3.86249 10.9876 4.34999 10.9876H6.26249C6.71249 10.9876 7.12499 10.6126 7.12499 10.1251C7.12499 9.63757 6.74999 9.26257 6.26249 9.26257Z" fill="#161A23"/>
</svg>
