<svg width="24" height="24" viewBox="0 0 24 24" fill="none" xmlns="http://www.w3.org/2000/svg">
<path d="M22.65 7.38751C22.2 6.93751 21.6 6.67501 20.9625 6.67501H18.225V5.21251C18.225 4.80001 18.075 3.82501 16.65 3.82501H7.275C5.925 3.82501 5.775 4.80001 5.775 5.21251V6.67501H3.0375C1.725 6.67501 0.637497 7.76251 0.637497 9.07501V17.775C0.637497 19.0875 1.725 20.175 3.0375 20.175H20.925C22.2375 20.175 23.325 19.0875 23.325 17.775V9.07501C23.3625 8.43751 23.1 7.83751 22.65 7.38751ZM21.6375 17.775C21.6375 18.15 21.3375 18.4875 20.925 18.4875H3.0375C2.6625 18.4875 2.325 18.1875 2.325 17.775V9.07501C2.325 8.70001 2.625 8.36251 3.0375 8.36251H6.225C6.9 8.36251 7.4625 7.80001 7.4625 7.12501V5.51251H16.5V7.12501C16.5 7.80001 17.0625 8.36251 17.7375 8.36251H20.9625C21.15 8.36251 21.3375 8.43751 21.45 8.58751C21.6 8.73751 21.6375 8.88751 21.6375 9.07501V17.775Z" fill="#161A23"/>
<path d="M11.85 8.8125C9.9 8.8125 8.325 10.3875 8.325 12.375C8.325 14.325 9.8625 15.8625 11.85 15.8625C13.8 15.8625 15.375 14.2875 15.375 12.375C15.375 10.4625 13.7625 8.8125 11.85 8.8125ZM11.85 14.175C10.8 14.175 10.0125 13.3875 10.0125 12.375C10.0125 11.3625 10.8375 10.5 11.85 10.5C12.8625 10.5 13.6875 11.3625 13.6875 12.375C13.6875 13.3875 12.8625 14.175 11.85 14.175Z" fill="#161A23"/>
<path d="M5.175 9.48749H4.3125C3.8625 9.48749 3.45 9.86249 3.45 10.35C3.45 10.8375 3.825 11.2125 4.3125 11.2125H5.175C5.625 11.2125 6.0375 10.8375 6.0375 10.35C6.0375 9.86249 5.6625 9.48749 5.175 9.48749Z" fill="#161A23"/>
</svg>
