<svg width="24" height="24" viewBox="0 0 24 24" fill="none" xmlns="http://www.w3.org/2000/svg">
<path d="M21.45 6.52502V5.32502C21.45 4.65002 20.8875 4.08752 20.2125 4.08752H17.1375C16.4625 4.08752 15.9 4.65002 15.9 5.32502V6.37502H14.7375V6.26252C14.7375 4.76252 13.5 3.52502 12 3.52502H8.17499C6.67499 3.52502 5.43749 4.76252 5.43749 6.26252V6.37502H3.41249C1.91249 6.37502 0.674988 7.61252 0.674988 9.11252V17.7C0.674988 19.2 1.91249 20.4375 3.41249 20.4375H20.5875C22.0875 20.4375 23.325 19.2 23.325 17.7V9.15002C23.3625 7.91252 22.5375 6.86252 21.45 6.52502ZM17.625 5.77502H19.7625V6.37502H17.625V5.77502ZM21.675 17.7375C21.675 18.3375 21.1875 18.7875 20.625 18.7875H3.41249C2.81249 18.7875 2.36249 18.3 2.36249 17.7375V9.15002C2.36249 8.55002 2.84999 8.10002 3.41249 8.10002H6.26249C6.71249 8.10002 7.12499 7.72502 7.12499 7.23752V6.30002C7.12499 5.70002 7.61249 5.25002 8.17499 5.25002H12C12.6 5.25002 13.05 5.73752 13.05 6.30002V7.23752C13.05 7.68752 13.425 8.10002 13.9125 8.10002H20.5875C21.1875 8.10002 21.6375 8.58752 21.6375 9.15002V17.7375H21.675Z" fill="#161A23"/>
<path d="M10.575 8.2876C8.25 8.2876 6.375 10.1626 6.375 12.4876C6.375 14.8126 8.25 16.6876 10.575 16.6876C12.9 16.6876 14.775 14.8126 14.775 12.4876C14.7375 10.1626 12.8625 8.2876 10.575 8.2876ZM10.575 14.9626C9.1875 14.9626 8.0625 13.8376 8.0625 12.4501C8.0625 11.0626 9.1875 9.9376 10.575 9.9376C11.9625 9.9376 13.0875 11.0626 13.0875 12.4501C13.05 13.8376 11.9625 14.9626 10.575 14.9626Z" fill="#161A23"/>
</svg>
