<svg width="24" height="24" viewBox="0 0 24 24" fill="none" xmlns="http://www.w3.org/2000/svg">
<path d="M1.91249 10.0125H3.03749C3.26249 10.0125 3.41249 9.86249 3.44999 9.74999L3.97499 8.43749H7.87499L8.36249 9.74999C8.43749 9.97499 8.62499 10.0125 8.77499 10.0125H9.93749C10.35 9.97499 10.5 9.67499 10.35 9.37499L7.23749 1.91249C7.16249 1.68749 7.08749 1.64999 6.86249 1.64999H5.17499C5.02499 1.64999 4.79999 1.72499 4.76249 1.91249L1.53749 9.44999C1.38749 9.71249 1.61249 10.0125 1.91249 10.0125ZM5.96249 3.97499L7.08749 6.89999H4.79999L5.96249 3.97499Z" fill="#161A23"/>
<path d="M13.5 3.33749H22.5C22.95 3.33749 23.3625 2.96249 23.3625 2.47499C23.3625 1.98749 22.9875 1.61249 22.5 1.61249H13.5C13.05 1.61249 12.6375 1.98749 12.6375 2.47499C12.6375 2.96249 13.0125 3.33749 13.5 3.33749Z" fill="#161A23"/>
<path d="M22.5 8.28748H13.5C13.05 8.28748 12.6375 8.66248 12.6375 9.14998C12.6375 9.63748 13.0125 10.0125 13.5 10.0125H22.5C22.95 10.0125 23.3625 9.63748 23.3625 9.14998C23.3625 8.66248 22.95 8.28748 22.5 8.28748Z" fill="#161A23"/>
<path d="M22.5 14.8875H2.3625C1.9125 14.8875 1.5 15.2625 1.5 15.75C1.5 16.2375 1.875 16.6125 2.3625 16.6125H22.5C22.95 16.6125 23.3625 16.2375 23.3625 15.75C23.3625 15.2625 22.95 14.8875 22.5 14.8875Z" fill="#161A23"/>
<path d="M22.5 21.4875H2.3625C1.9125 21.4875 1.5 21.8625 1.5 22.35C1.5 22.8375 1.875 23.2125 2.3625 23.2125H22.5C22.95 23.2125 23.3625 22.8375 23.3625 22.35C23.3625 21.8625 22.95 21.4875 22.5 21.4875Z" fill="#161A23"/>
</svg>
