<svg width="24" height="24" viewBox="0 0 24 24" fill="none" xmlns="http://www.w3.org/2000/svg">
<path d="M23.5874 7.35C23.3249 6.975 22.7999 6.8625 22.4249 7.125L21.4499 7.7625L21.2249 5.1375C21.0374 3.075 19.1624 1.5 16.9874 1.5H7.31245C5.09995 1.5 3.22495 3.075 3.03745 5.1375L2.77495 7.95L1.61245 7.125C1.23745 6.8625 0.712446 6.975 0.449946 7.35C0.187446 7.725 0.299946 8.25 0.674946 8.5125L1.79995 9.2625C1.38745 9.7125 1.12495 10.3125 1.12495 10.95V17.9625V20.5125C1.12495 21.6375 2.02495 22.5 3.11245 22.5H4.34995C5.43745 22.5 6.33745 21.6 6.33745 20.5125V18.7875H18.0374V20.5125C18.0374 21.6 18.9374 22.5 20.0249 22.5H21.2624C22.3499 22.5 23.2499 21.6 23.2499 20.5125V17.9625V10.95C23.2499 10.275 22.9499 9.6375 22.4624 9.225L23.4374 8.55C23.7374 8.2875 23.8499 7.7625 23.5874 7.35ZM21.4499 17.1375H17.0999V14.7C17.0999 13.425 16.0874 12.4125 14.8124 12.4125H9.48745C8.21245 12.4125 7.19995 13.425 7.19995 14.7V17.1375H2.81245V10.95C2.81245 10.575 3.11245 10.275 3.48745 10.275H3.52495H20.7374H20.7749C21.1499 10.275 21.4499 10.575 21.4499 10.95V17.1375ZM13.7999 15.225C13.3499 15.225 12.9374 15.6 12.9374 16.0875V17.1375H11.3249V16.0875C11.3249 15.6375 10.9499 15.225 10.4624 15.225C9.97495 15.225 9.59995 15.6 9.59995 16.0875V17.1375H8.81245V14.7C8.81245 14.3625 9.07495 14.1 9.41245 14.1H14.7374C15.0749 14.1 15.3374 14.3625 15.3374 14.7V17.1375H14.6249V16.0875C14.6249 15.6 14.2499 15.225 13.7999 15.225ZM4.72495 5.2875C4.83745 4.125 5.96245 3.1875 7.27495 3.1875H16.9499C18.2999 3.1875 19.4249 4.125 19.4999 5.2875L19.7999 8.5875H4.42495L4.72495 5.2875ZM4.61245 20.55C4.61245 20.7 4.49995 20.85 4.31245 20.85H3.11245C2.96245 20.85 2.81245 20.7375 2.81245 20.55V18.825H4.61245V20.55ZM21.4499 20.55C21.4499 20.7 21.3374 20.85 21.1499 20.85H19.9124C19.7624 20.85 19.6124 20.7375 19.6124 20.55V18.825H21.4124V20.55H21.4499Z" fill="#161A23"/>
<path d="M5.0624 13.5376H4.5749C4.1249 13.5376 3.7124 13.9126 3.7124 14.4001C3.7124 14.8876 4.0874 15.2626 4.5749 15.2626H5.0624C5.5124 15.2626 5.9249 14.8876 5.9249 14.4001C5.9249 13.9126 5.5499 13.5376 5.0624 13.5376Z" fill="#161A23"/>
<path d="M19.6125 13.5376H19.125C18.675 13.5376 18.2625 13.9126 18.2625 14.4001C18.2625 14.8876 18.6375 15.2626 19.125 15.2626H19.6125C20.0625 15.2626 20.475 14.8876 20.475 14.4001C20.475 13.9126 20.0625 13.5376 19.6125 13.5376Z" fill="#161A23"/>
</svg>
