<svg width="24" height="24" viewBox="0 0 24 24" fill="none" xmlns="http://www.w3.org/2000/svg">
<path d="M22.05 7.19995L21.8251 6.97495C21 6.14995 19.9125 5.69995 18.75 5.69995H13.2375C10.4625 5.69995 7.87505 6.78745 5.92505 8.73745L5.77505 8.88745C5.66255 8.99995 5.55005 9.03745 5.40005 9.07495L4.01255 9.26245C2.10005 9.52495 0.675049 11.1375 0.675049 13.0875V13.95C0.675049 14.4 1.05005 14.8125 1.53755 14.8125H3.75005C3.71255 14.9625 3.71255 15.1125 3.71255 15.2625C3.71255 16.9125 5.06255 18.2625 6.71255 18.2625C8.36255 18.2625 9.71255 16.9125 9.71255 15.2625C9.71255 15.1125 9.71255 14.9625 9.67505 14.8125H14.6625C14.625 14.9625 14.625 15.1125 14.625 15.2625C14.625 16.9125 15.975 18.2625 17.625 18.2625C19.275 18.2625 20.625 16.9125 20.625 15.2625C20.625 15.1125 20.625 14.9625 20.5875 14.8125H20.9625C22.2375 14.8125 23.2875 13.7625 23.2875 12.4875V10.3125C23.3625 9.14995 22.875 8.02495 22.05 7.19995ZM6.71255 16.575C5.96255 16.575 5.40005 15.975 5.40005 15.2625C5.40005 15 5.47505 14.7375 5.62505 14.55C5.66255 14.5125 5.70005 14.475 5.73755 14.4375C6.00005 14.1375 6.33755 13.95 6.75005 13.95C7.50005 13.95 8.06255 14.55 8.06255 15.2625C8.06255 15.975 7.42505 16.575 6.71255 16.575ZM17.6625 16.575C16.9125 16.575 16.35 15.975 16.35 15.2625C16.35 15 16.425 14.7375 16.575 14.55C16.6125 14.5125 16.65 14.475 16.6875 14.4375C16.95 14.1375 17.2875 13.95 17.7001 13.95C18.4501 13.95 19.0126 14.55 19.0126 15.2625C19.0126 15.975 18.4125 16.575 17.6625 16.575ZM21.675 12.45C21.675 12.825 21.375 13.0875 21.0375 13.0875H19.8375C19.275 12.5625 18.525 12.225 17.7001 12.225C16.875 12.225 16.125 12.5625 15.5625 13.0875H8.81255C8.25005 12.5625 7.50005 12.225 6.67505 12.225C5.85005 12.225 5.10005 12.5625 4.53755 13.0875H2.28755V13.05C2.28755 11.9625 3.11255 11.0625 4.16255 10.9125L5.58755 10.725C6.11255 10.65 6.56255 10.425 6.93755 10.05L7.08755 9.89995C8.73755 8.24995 10.9125 7.34995 13.2 7.34995H18.75C19.4625 7.34995 20.1375 7.64995 20.625 8.13745L20.85 8.36245C21.3375 8.84995 21.6376 9.52495 21.6376 10.2375V12.45H21.675Z" fill="#161A23"/>
</svg>
