<svg width="24" height="24" viewBox="0 0 24 24" fill="none" xmlns="http://www.w3.org/2000/svg">
<path d="M5.6999 14.4H8.0999C8.5499 14.4 8.9624 14.025 8.9624 13.5375C8.9624 13.05 8.5874 12.675 8.0999 12.675H5.6999C5.2499 12.675 4.8374 13.05 4.8374 13.5375C4.8374 14.025 5.2124 14.4 5.6999 14.4Z" fill="#161A23"/>
<path d="M15.5999 14.4H17.9999C18.4499 14.4 18.8624 14.025 18.8624 13.5375C18.8624 13.05 18.4874 12.675 17.9999 12.675H15.5999C15.1499 12.675 14.7374 13.05 14.7374 13.5375C14.7374 14.025 15.1124 14.4 15.5999 14.4Z" fill="#161A23"/>
<path d="M22.4999 8.02505H21.4124L19.65 3.52505C19.3874 2.85005 18.7125 2.36255 17.9625 2.36255H5.88745C5.13745 2.36255 4.49995 2.81255 4.19995 3.48755L2.43745 7.98755H1.49995C1.04995 7.98755 0.637451 8.36255 0.637451 8.85005C0.637451 9.33755 1.01245 9.71255 1.49995 9.71255H1.79995V9.75005C1.79995 9.78755 1.79995 9.78755 1.79995 9.82505V15.9375C1.79995 16.9125 2.54995 17.7375 3.48745 17.8875V19.35C3.48745 20.625 4.53745 21.7125 5.84995 21.7125H6.59995C7.87495 21.7125 8.96245 20.6625 8.96245 19.35V17.925H14.775V19.35C14.775 20.625 15.825 21.7125 17.1374 21.7125H17.8874C19.1624 21.7125 20.2499 20.6625 20.2499 19.35V17.925C21.2999 17.8875 22.1249 17.025 22.1249 15.975V9.78755C22.1249 9.75005 22.1249 9.71255 22.1249 9.67505H22.4999C22.9499 9.67505 23.3624 9.30005 23.3624 8.81255C23.3624 8.32505 22.9499 8.02505 22.4999 8.02505ZM5.77495 4.12505C5.77495 4.08755 5.81245 4.05005 5.88745 4.05005H17.9625C18 4.05005 18.0374 4.08755 18.0749 4.08755V4.12505L19.9874 8.92505H3.86245L5.77495 4.12505ZM7.23745 19.275C7.23745 19.65 6.93745 19.9501 6.56245 19.9501H5.81245C5.43745 19.9501 5.13745 19.65 5.13745 19.275V17.85H7.19995V19.275H7.23745ZM18.525 19.275C18.525 19.65 18.2249 19.9501 17.8499 19.9501H17.0999C16.7249 19.9501 16.4249 19.65 16.4249 19.275V17.85H18.4874V19.275H18.525ZM20.4 15.9C20.4 16.05 20.2874 16.2 20.0999 16.2H3.74995C3.59995 16.2 3.44995 16.0875 3.44995 15.9V10.65H20.3624V15.9H20.4Z" fill="#161A23"/>
</svg>
