<svg width="24" height="24" viewBox="0 0 24 24" fill="none" xmlns="http://www.w3.org/2000/svg">
<path d="M22.9125 9.2249L19.05 5.8124C18.9 5.6624 18.7125 5.5874 18.4875 5.5874H10.425C10.2 5.5874 9.97505 5.6999 9.82505 5.8499L6.93755 8.9249L2.28755 9.7499C1.12505 9.9374 0.300049 10.9499 0.300049 12.1124V12.6374C0.300049 13.2749 0.562549 13.8749 1.01255 14.3249C1.46255 14.7749 2.02505 14.9999 2.66255 14.9999H3.15005C3.15005 15.1124 3.11255 15.2624 3.11255 15.3749C3.11255 16.1624 3.41255 16.9124 4.01255 17.5124C4.57505 18.0749 5.32505 18.3749 6.11255 18.3749C6.90005 18.3749 7.65005 18.0749 8.25005 17.4749C8.85005 16.8749 9.11255 16.1624 9.11255 15.3374C9.11255 15.1874 9.11255 15.0749 9.07505 14.9624L15.0375 14.9249C15 15.0749 15 15.2249 15 15.3749C15 16.1624 15.3 16.9124 15.9 17.5124C16.5 18.0749 17.25 18.3749 18.0375 18.3749C19.6875 18.3749 21.0375 17.0249 21.0375 15.3749C21.0375 15.2249 21.0375 15.0749 21 14.9249H21.3375C22.65 14.9249 23.7001 13.8374 23.7001 12.5249V11.0249C23.7375 10.3499 23.4375 9.6749 22.9125 9.2249ZM19.9501 8.8874H14.8875V7.3124H18.15L19.9501 8.8874ZM10.8 7.3124H13.2375V8.8874H9.30005L10.8 7.3124ZM7.46255 15.3749C7.46255 15.7124 7.31255 16.0499 7.08755 16.3124C6.82505 16.5749 6.52505 16.6874 6.15005 16.6874C5.81255 16.6874 5.47505 16.5374 5.21255 16.3124C4.95005 16.0499 4.83755 15.7499 4.83755 15.3749C4.83755 15.1124 4.91255 14.8499 5.06255 14.6624L5.10005 14.6249C5.32505 14.2874 5.73755 14.0624 6.15005 14.0624C6.60005 14.0624 6.97505 14.2874 7.20005 14.5874C7.20005 14.6249 7.23755 14.6249 7.23755 14.6249C7.38755 14.8499 7.46255 15.1124 7.46255 15.3749ZM19.35 15.3749C19.35 16.0874 18.75 16.6874 18.0375 16.6874C17.7 16.6874 17.3625 16.5374 17.1 16.3124C16.8375 16.0499 16.725 15.7499 16.725 15.3749C16.725 15.1124 16.8 14.8499 16.9501 14.6624C16.9875 14.6249 17.025 14.5874 17.025 14.5499C17.25 14.2499 17.625 14.0624 18.0375 14.0624C18.45 14.0624 18.7875 14.2499 19.0126 14.5124C19.05 14.5499 19.0875 14.6249 19.125 14.6624C19.275 14.8874 19.35 15.1124 19.35 15.3749ZM22.05 12.5249C22.05 12.8999 21.75 13.2374 21.3375 13.2374H20.1376C19.6125 12.7124 18.8625 12.3749 18.0375 12.3749C17.2125 12.3749 16.4625 12.7124 15.9375 13.2374L8.32505 13.2749C7.76255 12.7499 6.97505 12.3749 6.15005 12.3749C5.28755 12.3749 4.53755 12.7499 3.97505 13.3124H2.70005C2.51255 13.3124 2.32505 13.2374 2.21255 13.1249C2.06255 12.9749 1.98755 12.8249 1.98755 12.6374V12.1124C1.98755 11.7749 2.25005 11.4749 2.58755 11.3999L7.46255 10.5749H14.1H14.1375H14.175H21.7875C21.825 10.5749 21.825 10.5749 21.8625 10.5749C21.975 10.6874 22.05 10.8749 22.05 11.0249V12.5249Z" fill="#161A23"/>
</svg>
