<svg width="24" height="24" viewBox="0 0 24 24" fill="none" xmlns="http://www.w3.org/2000/svg">
<path d="M22.5375 9.2999L18.8251 5.9999C18.675 5.8499 18.4875 5.7749 18.2626 5.7749H10.4625C10.2375 5.7749 10.0125 5.8874 9.86255 6.0374L7.08755 8.9999L2.62505 9.7874C1.50005 9.9749 0.675049 10.9499 0.675049 12.1124V12.6374C0.675049 13.9124 1.72505 14.9624 3.00005 14.9624H3.45005C3.45005 15.0749 3.41255 15.1874 3.41255 15.2999C3.41255 16.9124 4.72505 18.2249 6.33755 18.2249C7.95005 18.2249 9.26255 16.9124 9.26255 15.2999C9.26255 15.1874 9.26255 15.0749 9.22505 14.9249L14.925 14.8874C14.925 14.9999 14.8875 15.1499 14.8875 15.2999C14.8875 16.9124 16.2 18.2249 17.8125 18.2249C19.425 18.2249 20.7375 16.9124 20.7375 15.2999C20.7375 15.1499 20.7375 15.0374 20.7001 14.8874H21C22.275 14.8874 23.3251 13.8374 23.3251 12.5249V11.0624C23.3625 10.3874 23.0625 9.7499 22.5375 9.2999ZM6.33755 16.4999C5.66255 16.4999 5.10005 15.9374 5.10005 15.2624C5.10005 14.5874 5.66255 14.0249 6.33755 14.0249C7.01255 14.0249 7.57505 14.5874 7.57505 15.2624C7.57505 15.9374 7.05005 16.4999 6.33755 16.4999ZM17.85 16.4999C17.175 16.4999 16.6125 15.9374 16.6125 15.2624C16.6125 14.5874 17.175 14.0249 17.85 14.0249C18.525 14.0249 19.0875 14.5874 19.0875 15.2624C19.0875 15.9374 18.525 16.4999 17.85 16.4999ZM21.675 12.5249C21.675 12.8999 21.375 13.1999 21.0375 13.1999H19.875C19.35 12.7124 18.6375 12.3749 17.85 12.3749C17.0625 12.3749 16.35 12.6749 15.825 13.1999L8.47505 13.2374C7.95005 12.7124 7.20005 12.3749 6.37505 12.3749C5.55005 12.3749 4.80005 12.7124 4.27505 13.2749H3.00005C2.62505 13.2749 2.32505 12.9749 2.32505 12.6374V12.1499C2.32505 11.8124 2.55005 11.5499 2.88755 11.5124L7.65005 10.6874C7.83755 10.6499 7.98755 10.5749 8.13755 10.4249L10.875 7.5374H17.9625L21.3 10.4999L21.4501 10.6124C21.6 10.7249 21.675 10.9124 21.675 11.0999V12.5249Z" fill="#161A23"/>
</svg>
