<svg width="24" height="24" viewBox="0 0 24 24" fill="none" xmlns="http://www.w3.org/2000/svg">
<path d="M6.52505 11.2875C5.06255 11.2875 3.86255 12.45 3.86255 13.9125C3.86255 15.375 5.06255 16.5375 6.52505 16.5375C7.98755 16.5375 9.18755 15.375 9.18755 13.9125C9.18755 12.45 7.98755 11.2875 6.52505 11.2875ZM6.52505 14.85C6.00005 14.85 5.55005 14.4375 5.55005 13.9125C5.55005 13.3875 6.00005 12.975 6.52505 12.975C7.05005 12.975 7.50005 13.3875 7.50005 13.9125C7.50005 14.4 7.08755 14.85 6.52505 14.85Z" fill="#161A23"/>
<path d="M17.475 11.2125C16.0125 11.2125 14.8125 12.4125 14.8125 13.875C14.8125 15.3375 16.0125 16.5375 17.475 16.5375C18.9375 16.5375 20.1375 15.3375 20.1375 13.875C20.1375 12.4125 18.9375 11.2125 17.475 11.2125ZM17.475 14.8125C16.95 14.8125 16.5 14.4 16.5 13.8375C16.5 13.275 16.95 12.8625 17.475 12.8625C18 12.8625 18.45 13.275 18.45 13.8375C18.45 14.4 18 14.8125 17.475 14.8125Z" fill="#161A23"/>
<path d="M12.9 13.0126H11.1C10.65 13.0126 10.2375 13.3876 10.2375 13.8751C10.2375 14.3626 10.6125 14.7376 11.1 14.7376H12.9C13.35 14.7376 13.7625 14.3626 13.7625 13.8751C13.7625 13.3876 13.35 13.0126 12.9 13.0126Z" fill="#161A23"/>
<path d="M21.675 8.73752L21.3375 5.02502C21.15 2.92502 19.2375 1.27502 16.9875 1.27502H7.01255C4.76255 1.27502 2.85005 2.92502 2.66255 4.98752L2.32505 8.70002C1.35005 9.00002 0.675049 9.90002 0.675049 10.95V16.7625C0.675049 18.075 1.72505 19.125 3.00005 19.125H3.07505V20.3625C3.07505 21.6375 4.12505 22.725 5.43755 22.725H6.00005C7.27505 22.725 8.36255 21.675 8.36255 20.3625V19.125H15.6375V20.3625C15.6375 21.6375 16.6875 22.725 18 22.725H18.6C19.875 22.725 20.9625 21.675 20.9625 20.3625V19.125H21C22.275 19.125 23.3625 18.075 23.3625 16.7625V10.95C23.3625 9.90002 22.65 9.03752 21.675 8.73752ZM4.35005 5.17502C4.46255 3.93752 5.62505 3.00002 7.01255 3.00002H17.025C18.4125 3.00002 19.6125 3.97502 19.6875 5.17502L19.9875 8.62502H4.01255L4.35005 5.17502ZM6.67505 20.3625C6.67505 20.7375 6.37505 21.0375 6.00005 21.0375H5.40005C5.02505 21.0375 4.72505 20.7375 4.72505 20.3625V19.125H6.63755V20.3625H6.67505ZM19.2375 20.3625C19.2375 20.7375 18.9375 21.0375 18.5625 21.0375H18C17.625 21.0375 17.3251 20.7375 17.3251 20.3625V19.125H19.2375V20.3625ZM21.675 16.8C21.675 17.175 21.375 17.475 21 17.475H3.07505H3.00005C2.62505 17.475 2.32505 17.175 2.32505 16.8V10.95C2.32505 10.575 2.62505 10.275 3.00005 10.275H21C21.375 10.275 21.675 10.575 21.675 10.95V16.8Z" fill="#161A23"/>
</svg>
