<svg width="24" height="24" viewBox="0 0 24 24" fill="none" xmlns="http://www.w3.org/2000/svg">
<path d="M6.86252 7.34998H4.76252C4.08752 7.34998 3.52502 7.91248 3.52502 8.58748V10.6875C3.52502 11.3625 4.08752 11.925 4.76252 11.925H6.86252C7.53752 11.925 8.10002 11.3625 8.10002 10.6875V8.58748C8.06252 7.87498 7.53752 7.34998 6.86252 7.34998ZM6.37502 10.2H5.21252V9.03748H6.37502V10.2Z" fill="#161A23"/>
<path d="M22.5 14.9625H20.475V10.05C20.475 9.86252 20.4375 9.67502 20.3251 9.48752L17.6625 5.21252C17.3625 4.76252 16.875 4.46252 16.3125 4.46252H2.96255C1.68755 4.46252 0.675049 5.47502 0.675049 6.75002V14.3625C0.675049 15.4875 1.50005 16.425 2.58755 16.6125C2.58755 16.65 2.58755 16.725 2.58755 16.7625C2.58755 18.2625 3.82505 19.5 5.32505 19.5C6.82505 19.5 8.06255 18.2625 8.06255 16.7625C8.06255 16.725 8.06255 16.6875 8.06255 16.65H22.5C22.95 16.65 23.3625 16.275 23.3625 15.7875C23.3625 15.3 22.95 14.9625 22.5 14.9625ZM5.32505 17.85C4.72505 17.85 4.27505 17.3625 4.27505 16.8C4.27505 16.2 4.76255 15.75 5.32505 15.75C5.92505 15.75 6.37505 16.2375 6.37505 16.8C6.37505 17.3625 5.88755 17.85 5.32505 17.85ZM5.32505 14.025C4.50005 14.025 3.75005 14.4 3.26255 15H2.96255C2.62505 15 2.36255 14.7375 2.36255 14.4V6.75002C2.36255 6.41252 2.62505 6.15002 2.96255 6.15002H16.275L18.7875 10.2375V14.9625H15.7125V9.52502C15.7125 8.85002 15.15 8.28752 14.475 8.28752H12.375C11.7 8.28752 11.1375 8.85002 11.1375 9.52502V15H7.38755C6.90005 14.4 6.15005 14.025 5.32505 14.025ZM12.8625 14.9625V9.97502H14.025V14.9625H12.8625Z" fill="#161A23"/>
</svg>
