<svg width="24" height="24" viewBox="0 0 24 24" fill="none" xmlns="http://www.w3.org/2000/svg">
<path d="M22.5 13.5375H20.775H19.7625V11.1375C19.7625 10.275 19.2 9.525 18.4125 9.2625V5.1375C18.4125 4.05 17.5125 3.1875 16.4625 3.1875H12.525C11.4375 3.1875 10.5375 4.0875 10.5375 5.1375V7.725H7.34999V6.075C7.34999 4.9875 6.44999 4.125 5.39999 4.125H2.62499C1.53749 4.125 0.674988 5.025 0.674988 6.075V14.3625V14.4C0.674988 14.4375 0.674988 14.4375 0.674988 14.475C0.674988 14.5125 0.674988 14.55 0.712488 14.5875V14.625L2.28749 19.125C2.62499 20.1 3.56249 20.775 4.61249 20.775H15.7875C16.575 20.775 17.325 20.4 17.775 19.7625L21.1875 15.15H22.5C22.95 15.15 23.325 14.775 23.325 14.325C23.325 13.875 22.95 13.5375 22.5 13.5375ZM12.2625 10.8375H17.775C17.925 10.8375 18.075 10.95 18.075 11.1375V13.5375H12.2625V10.8375ZM12.2625 5.1375C12.2625 4.9875 12.375 4.8375 12.5625 4.8375H16.425C16.575 4.8375 16.725 4.95 16.725 5.1375V9.15H12.2625V5.1375ZM10.575 9.4125V13.5H7.38749V9.4125H10.575ZM2.32499 10.8375H5.62499V13.5375H2.32499V10.8375ZM2.32499 6.1125C2.32499 5.9625 2.43749 5.8125 2.62499 5.8125H5.39999C5.54999 5.8125 5.69999 5.925 5.69999 6.1125V9.15H2.32499V6.1125ZM16.425 18.825C16.275 19.0125 16.05 19.1625 15.7875 19.1625H4.64999C4.31249 19.1625 4.01249 18.9375 3.89999 18.6375L2.69999 15.2625H19.0875L16.425 18.825Z" fill="#161A23"/>
</svg>
