<svg width="24" height="24" viewBox="0 0 24 24" fill="none" xmlns="http://www.w3.org/2000/svg">
<path d="M13.9125 17.925C12.4125 17.925 11.2125 19.125 11.2125 20.625C11.2125 22.125 12.4125 23.325 13.9125 23.325C15.4125 23.325 16.6125 22.125 16.6125 20.625C16.6125 19.1625 15.375 17.925 13.9125 17.925ZM13.9125 21.675C13.35 21.675 12.9 21.225 12.9 20.6625C12.9 20.1 13.35 19.65 13.9125 19.65C14.475 19.65 14.925 20.1 14.925 20.6625C14.925 21.1875 14.4375 21.675 13.9125 21.675Z" fill="#161A23"/>
<path d="M6.78749 17.925C5.28749 17.925 4.08749 19.125 4.08749 20.625C4.08749 22.125 5.28749 23.325 6.78749 23.325C8.28749 23.325 9.48749 22.125 9.48749 20.625C9.48749 19.1625 8.24999 17.925 6.78749 17.925ZM6.78749 21.675C6.22499 21.675 5.77499 21.225 5.77499 20.6625C5.77499 20.1 6.22499 19.65 6.78749 19.65C7.34999 19.65 7.79999 20.1 7.79999 20.6625C7.79999 21.1875 7.34999 21.675 6.78749 21.675Z" fill="#161A23"/>
<path d="M21.825 0.675049H19.8C18.9 0.675049 18.1125 1.35005 18 2.25005L17.4 6.56255H2.5875C2.2125 6.56255 1.8375 6.75005 1.575 7.05005C1.35 7.35005 1.2375 7.76255 1.35 8.13755C1.35 8.17505 1.35 8.17505 1.35 8.21255L3.675 15.225C3.825 15.75 4.3125 16.125 4.875 16.125H15.225C16.6125 16.125 17.8125 15.075 18 13.6875L19.575 2.47505C19.575 2.40005 19.65 2.36255 19.725 2.36255H21.75C22.2 2.36255 22.6125 1.98755 22.6125 1.50005C22.6125 1.01255 22.275 0.675049 21.825 0.675049ZM16.3875 13.425C16.3125 13.9875 15.825 14.4 15.2625 14.4H5.2125L3.1875 8.25005H17.1375L16.3875 13.425Z" fill="#161A23"/>
</svg>
