<svg width="24" height="24" viewBox="0 0 24 24" fill="none" xmlns="http://www.w3.org/2000/svg">
<path d="M21.825 4.16245C21.375 3.59995 20.7375 3.29995 20.025 3.29995H6.97499L6.89999 1.87495C6.86249 1.19995 6.29999 0.637451 5.62499 0.637451H2.51249C2.06249 0.637451 1.64999 1.01245 1.64999 1.49995C1.64999 1.98745 2.02499 2.36245 2.51249 2.36245H5.24999L6.03749 15.4875C6.07499 16.425 6.86249 17.1375 7.76249 17.1375H20.0625C20.5125 17.1375 20.925 16.7625 20.925 16.275C20.925 15.7875 20.55 15.4125 20.0625 15.4125H7.76249C7.72499 15.4125 7.68749 15.375 7.68749 15.3375L7.53749 13.05H18.8625C19.95 13.05 20.8875 12.3 21.1125 11.25L22.2375 6.07495C22.425 5.43745 22.2375 4.72495 21.825 4.16245ZM20.625 5.73745L19.5 10.9125C19.425 11.175 19.2 11.4 18.9 11.4H7.46249L7.08749 4.98745H20.025C20.2875 4.98745 20.4375 5.13745 20.5125 5.21245C20.55 5.32495 20.6625 5.51245 20.625 5.73745Z" fill="#161A23"/>
<path d="M17.4375 18C15.975 18 14.775 19.2 14.775 20.6625C14.775 22.125 15.975 23.325 17.4375 23.325C18.9 23.325 20.1 22.125 20.1 20.6625C20.1 19.2 18.9375 18 17.4375 18ZM17.4375 21.675C16.9125 21.675 16.4625 21.225 16.4625 20.7C16.4625 20.175 16.9125 19.725 17.4375 19.725C17.9625 19.725 18.4125 20.175 18.4125 20.7C18.4125 21.225 18 21.675 17.4375 21.675Z" fill="#161A23"/>
<path d="M9.18749 18C7.72499 18 6.52499 19.2 6.52499 20.6625C6.52499 22.125 7.72499 23.325 9.18749 23.325C10.65 23.325 11.85 22.125 11.85 20.6625C11.85 19.2 10.65 18 9.18749 18ZM9.18749 21.675C8.66249 21.675 8.21249 21.225 8.21249 20.7C8.21249 20.175 8.66249 19.725 9.18749 19.725C9.71249 19.725 10.1625 20.175 10.1625 20.7C10.1625 21.225 9.71249 21.675 9.18749 21.675Z" fill="#161A23"/>
</svg>
