<svg width="24" height="24" viewBox="0 0 24 24" fill="none" xmlns="http://www.w3.org/2000/svg">
<path d="M23.25 3.9001C22.8375 3.7126 22.3125 3.8626 22.125 4.3126L17.55 13.8376C17.475 14.0251 17.2875 14.1376 17.1 14.1376H6.03751C5.77501 14.1376 5.55001 13.9501 5.55001 13.6876L4.46251 2.5126C4.38751 1.8376 3.86251 1.3501 3.18751 1.3501H1.12501C0.675012 1.3501 0.262512 1.7251 0.262512 2.2126C0.262512 2.7001 0.675012 3.0001 1.12501 3.0001H2.81251L3.86251 13.8001C3.97501 14.9251 4.91251 15.7876 6.03751 15.7876H17.1C17.925 15.7876 18.7125 15.3001 19.0875 14.5501L23.625 5.0251C23.85 4.5751 23.6625 4.0876 23.25 3.9001Z" fill="#161A23"/>
<path d="M6.8625 18C5.5875 18 4.5 19.05 4.5 20.3625C4.5 21.675 5.55 22.725 6.8625 22.725C8.175 22.725 9.225 21.675 9.225 20.3625C9.225 19.05 8.175 18 6.8625 18ZM6.8625 21C6.4875 21 6.1875 20.7 6.1875 20.325C6.1875 19.95 6.4875 19.65 6.8625 19.65C7.2375 19.65 7.5375 19.95 7.5375 20.325C7.5375 20.7 7.2375 21 6.8625 21Z" fill="#161A23"/>
<path d="M15.8625 18C14.5875 18 13.5 19.05 13.5 20.3625C13.5 21.675 14.55 22.725 15.8625 22.725C17.175 22.725 18.225 21.675 18.225 20.3625C18.225 19.05 17.175 18 15.8625 18ZM15.8625 21C15.4875 21 15.1875 20.7 15.1875 20.325C15.1875 19.95 15.4875 19.65 15.8625 19.65C16.2375 19.65 16.5375 19.95 16.5375 20.325C16.5375 20.7 16.2375 21 15.8625 21Z" fill="#161A23"/>
</svg>
