<svg width="24" height="24" viewBox="0 0 24 24" fill="none" xmlns="http://www.w3.org/2000/svg">
<path d="M23.25 4.3126C22.8375 4.1251 22.3125 4.2751 22.125 4.7251L17.5875 14.2501C17.475 14.4751 17.25 14.6251 16.9875 14.6251H6.18751C5.85001 14.6251 5.55001 14.3626 5.51251 14.0251L4.46251 2.9626C4.38751 2.2501 3.82501 1.7251 3.11251 1.7251H1.12501C0.675012 1.7251 0.262512 2.1001 0.262512 2.5876C0.262512 3.0751 0.637512 3.4501 1.12501 3.4501H2.81251L3.82501 14.2126C3.93751 15.4126 4.95001 16.3501 6.15001 16.3501H16.95C17.85 16.3501 18.675 15.8251 19.0875 15.0001L23.5875 5.4751C23.85 5.0251 23.6625 4.5001 23.25 4.3126Z" fill="#161A23"/>
<path d="M12 10.9876C12.15 11.1376 12.375 11.2501 12.6 11.2501C12.825 11.2501 13.05 11.1751 13.2 10.9876L16.0875 8.0626C16.425 7.7251 16.425 7.2001 16.0875 6.8626C15.75 6.5251 15.225 6.5251 14.8875 6.8626L13.425 8.3251V2.0251C13.425 1.5751 13.05 1.1626 12.5625 1.1626C12.1125 1.1626 11.7 1.5376 11.7 2.0251V8.3626L10.2375 6.9001C9.89999 6.5626 9.37499 6.5626 9.03749 6.9001C8.69999 7.2376 8.69999 7.7626 9.03749 8.1001L12 10.9876Z" fill="#161A23"/>
<path d="M16.0875 17.4001C14.5875 17.4001 13.35 18.6376 13.35 20.1376C13.35 21.6376 14.5875 22.8751 16.0875 22.8751C17.5875 22.8751 18.825 21.6376 18.825 20.1376C18.825 18.6376 17.5875 17.4001 16.0875 17.4001ZM16.0875 21.1501C15.525 21.1501 15.0375 20.7001 15.0375 20.1001C15.0375 19.5001 15.4875 19.0501 16.0875 19.0501C16.6875 19.0501 17.1375 19.5001 17.1375 20.1001C17.1375 20.7001 16.6875 21.1501 16.0875 21.1501Z" fill="#161A23"/>
<path d="M7.57503 17.4001C6.07502 17.4001 4.83752 18.6376 4.83752 20.1376C4.83752 21.6376 6.07502 22.8751 7.57503 22.8751C9.07503 22.8751 10.3125 21.6376 10.3125 20.1376C10.3125 18.6376 9.07503 17.4001 7.57503 17.4001ZM7.57503 21.1501C7.01253 21.1501 6.52502 20.7001 6.52502 20.1001C6.52502 19.5001 6.97502 19.0501 7.57503 19.0501C8.17503 19.0501 8.62502 19.5001 8.62502 20.1001C8.62502 20.7001 8.17503 21.1501 7.57503 21.1501Z" fill="#161A23"/>
</svg>
