<svg width="24" height="24" viewBox="0 0 24 24" fill="none" xmlns="http://www.w3.org/2000/svg">
<path d="M13.9125 17.925C12.4125 17.925 11.2125 19.125 11.2125 20.625C11.2125 22.125 12.4125 23.325 13.9125 23.325C15.4125 23.325 16.6125 22.125 16.6125 20.625C16.6125 19.1625 15.375 17.925 13.9125 17.925ZM13.9125 21.675C13.35 21.675 12.9 21.225 12.9 20.6625C12.9 20.1 13.35 19.65 13.9125 19.65C14.475 19.65 14.925 20.1 14.925 20.6625C14.925 21.1875 14.4375 21.675 13.9125 21.675Z" fill="#161A23"/>
<path d="M6.78746 17.925C5.28746 17.925 4.08746 19.125 4.08746 20.625C4.08746 22.125 5.28746 23.325 6.78746 23.325C8.28746 23.325 9.48746 22.125 9.48746 20.625C9.48746 19.1625 8.24996 17.925 6.78746 17.925ZM6.78746 21.675C6.22496 21.675 5.77496 21.225 5.77496 20.6625C5.77496 20.1 6.22496 19.65 6.78746 19.65C7.34996 19.65 7.79996 20.1 7.79996 20.6625C7.79996 21.1875 7.34996 21.675 6.78746 21.675Z" fill="#161A23"/>
<path d="M21.825 0.675049H19.8C18.9 0.675049 18.1125 1.35005 18 2.25005L17.4 6.56255H15.825V3.82505C15.7875 3.15005 15.2625 2.62505 14.625 2.62505H11.85C11.7375 2.06255 11.25 1.65005 10.6875 1.65005H7.42498C6.78748 1.65005 6.22498 2.21255 6.22498 2.92505V3.63755H3.48748C2.84998 3.63755 2.28748 4.16255 2.28748 4.76255V6.60005C1.98748 6.67505 1.76248 6.82505 1.57498 7.05005C1.34998 7.35005 1.23748 7.76255 1.34998 8.13755C1.34998 8.17505 1.34998 8.17505 1.34998 8.21255L3.67498 15.225C3.82498 15.75 4.31248 16.125 4.87498 16.125H15.225C16.6125 16.125 17.8125 15.075 18 13.6875L19.575 2.47505C19.575 2.40005 19.65 2.36255 19.725 2.36255H21.75C22.2 2.36255 22.6125 1.98755 22.6125 1.50005C22.6125 1.01255 22.275 0.675049 21.825 0.675049ZM14.1 6.56255H11.85V4.31255H14.1V6.56255ZM7.94998 3.33755H10.2V3.82505V6.56255H7.94998V4.80005V3.33755ZM4.01248 5.28755H6.26248V6.56255H4.01248V5.28755ZM16.3875 13.425C16.3125 13.9875 15.825 14.4 15.2625 14.4H5.21248L3.18748 8.25005H17.1375L16.3875 13.425Z" fill="#161A23"/>
</svg>
