<svg width="24" height="24" viewBox="0 0 24 24" fill="none" xmlns="http://www.w3.org/2000/svg">
<path d="M22.3125 17.4C22.3125 17.3625 22.3125 17.3625 22.3125 17.4C21.825 15.8625 20.325 15 18.825 15.4125C17.6625 15.75 16.05 16.2375 14.8125 16.6125C14.8875 16.2 14.8125 15.9 14.7 15.6375C14.3625 14.775 13.3875 14.3625 12.6 14.3625H9.0375C8.775 14.3625 8.475 14.2125 8.175 13.95C7.7625 13.575 7.2375 13.3875 6.7125 13.3875H3.8625C2.55 13.3875 1.5 14.475 1.5 15.8625V20.4C1.5375 21.75 2.625 22.875 3.9375 22.875H7.3875C7.8375 22.875 8.25 22.7625 8.625 22.5C9.6375 23.0625 10.8 23.3625 11.925 23.3625C12.6375 23.3625 13.3125 23.25 13.9875 23.0625L20.4 21.1125H20.4375C22.3875 20.325 22.6875 18.6375 22.3125 17.4ZM3.9375 21.1875C3.525 21.1875 3.225 20.8125 3.225 20.3625V15.825C3.225 15.4125 3.525 15.0375 3.9 15.0375H6.75C6.9 15.0375 7.0125 15.1125 7.0875 15.1875C7.2 15.2625 7.275 15.375 7.3875 15.45V21.1875H3.9375ZM19.875 19.4625L13.5 21.4125C13.0125 21.5625 12.4875 21.6375 11.9625 21.6375C11.1 21.6375 10.2 21.4125 9.4125 20.9625L9.075 20.775V16.0125H12.6375C12.9375 16.0125 13.1625 16.125 13.1625 16.2C13.2 16.275 13.125 16.65 12.4125 17.325C12.1125 17.5875 12.075 18.0375 12.2625 18.375C12.6 18.975 12.975 18.8625 14.175 18.525C14.7375 18.375 15.525 18.15 16.275 17.925C17.775 17.475 19.3125 17.025 19.3125 17.025C19.875 16.875 20.475 17.2125 20.7 17.85C20.85 18.4125 20.8125 19.125 19.875 19.4625Z" fill="#161A23"/>
<path d="M18.7125 6.18749C20.25 6.18749 21.4875 4.94999 21.4875 3.41249C21.4875 1.87499 20.25 0.674988 18.7125 0.674988C17.175 0.674988 15.9375 1.91249 15.9375 3.44999C15.9375 4.98749 17.175 6.18749 18.7125 6.18749ZM18.7125 2.36249C19.3125 2.36249 19.8 2.84999 19.8 3.44999C19.8 4.04999 19.3125 4.49999 18.7125 4.49999C18.1125 4.49999 17.625 4.01249 17.625 3.41249C17.625 2.81249 18.1125 2.36249 18.7125 2.36249Z" fill="#161A23"/>
<path d="M14.85 13.425C16.725 13.425 18.2625 11.8875 18.2625 10.0125C18.2625 8.13748 16.725 6.59998 14.85 6.59998C12.975 6.59998 11.4375 8.13748 11.4375 10.0125C11.4375 11.8875 12.975 13.425 14.85 13.425ZM14.85 8.28748C15.7875 8.28748 16.575 9.07498 16.575 10.0125C16.575 10.95 15.7875 11.7375 14.85 11.7375C13.9125 11.7375 13.125 10.9875 13.125 10.0125C13.125 9.07498 13.9125 8.28748 14.85 8.28748Z" fill="#161A23"/>
</svg>
