<svg width="24" height="24" viewBox="0 0 24 24" fill="none" xmlns="http://www.w3.org/2000/svg">
<g clip-path="url(#clip0_914_44875)">
<mask id="mask0_914_44875" style="mask-type:luminance" maskUnits="userSpaceOnUse" x="0" y="0" width="24" height="24">
<path d="M24 0H0V24H24V0Z" fill="white"/>
</mask>
<g mask="url(#mask0_914_44875)">
<path fill-rule="evenodd" clip-rule="evenodd" d="M20.499 0.4125C19.2067 0 18.0251 0 15.6621 0H8.49896C6.1359 0 4.95435 0 3.66206 0.4125C2.97601 0.667387 2.35298 1.07122 1.83643 1.59585C1.31988 2.12047 0.922256 2.75323 0.671291 3.45C0.265137 4.7475 0.265137 5.955 0.265137 8.3625V15.6337C0.265137 18.0375 0.265137 19.2375 0.671291 20.55C0.922256 21.2467 1.31988 21.8795 1.83643 22.4042C2.35298 22.9288 2.97601 23.3326 3.66206 23.5875C4.93957 24 6.12851 24 8.49896 24H15.6621C18.0251 24 19.2067 24 20.499 23.58C21.185 23.3251 21.8081 22.9213 22.3246 22.3967C22.8411 21.872 23.2388 21.2393 23.4897 20.5425C23.8959 19.245 23.8959 18.0375 23.8959 15.63V8.36625C23.8959 5.9625 23.8959 4.7625 23.4897 3.45C23.2388 2.75323 22.8411 2.12047 22.3246 1.59585C21.8081 1.07122 21.185 0.667387 20.499 0.4125ZM16.611 8.925C16.4374 9.1125 16.131 9.1125 15.9464 8.925L15.9537 8.9325C15.1747 8.22 13.9821 7.69875 12.7414 7.69875C11.7667 7.69875 10.7956 8.05875 10.7956 8.96625C10.7956 9.8298 11.6861 10.1609 12.7721 10.5647C12.8604 10.5976 12.95 10.6309 13.0405 10.665C15.1451 11.4038 16.8805 12.3112 16.8805 14.4637C16.8805 16.8 15.1377 18.4013 12.2769 18.5963L12.0185 19.8675C11.9963 19.98 11.9362 20.0811 11.8486 20.1536C11.7611 20.2262 11.6515 20.2655 11.5385 20.265L9.74771 20.25C9.44126 20.2463 9.216 19.9575 9.27878 19.6462L9.552 18.3075C8.43251 17.9963 7.45035 17.4338 6.67496 16.6575C6.58117 16.5619 6.52853 16.4325 6.52853 16.2975C6.52853 16.1625 6.58117 16.0331 6.67496 15.9375L7.6719 14.925C7.71649 14.8797 7.76944 14.8437 7.82771 14.8191C7.88602 14.7946 7.9485 14.7819 8.01158 14.7819C8.07469 14.7819 8.1372 14.7946 8.19548 14.8191C8.25375 14.8437 8.3067 14.8797 8.35129 14.925C9.31129 15.9037 10.5519 16.305 11.7334 16.305C13.0331 16.305 13.9119 15.7575 13.9119 14.8237C13.9119 14.0034 13.1907 13.7285 11.8221 13.2068C11.6768 13.1514 11.5241 13.0932 11.3642 13.0312C9.60296 12.39 7.93774 11.4563 7.93774 9.28125C7.93774 6.76875 9.95374 5.5425 12.3316 5.41875L12.5901 4.15125C12.612 4.04002 12.671 3.93983 12.757 3.86749C12.8431 3.79511 12.951 3.75495 13.0627 3.75375H14.8497C15.1562 3.75375 15.3851 4.04625 15.3223 4.3575L15.0307 5.7825C15.9432 6.09142 16.7865 6.58084 17.5119 7.2225C17.7187 7.425 17.7297 7.7625 17.5341 7.95L16.611 8.925Z" fill="#15171A"/>
</g>
</g>
<defs>
<clipPath id="clip0_914_44875">
<rect width="24" height="24" fill="white"/>
</clipPath>
</defs>
</svg>
