<svg width="24" height="24" viewBox="0 0 24 24" fill="none" xmlns="http://www.w3.org/2000/svg">
<path d="M13.8 19.0876C13.35 19.0876 12.9375 19.4626 12.9375 19.9501C12.9375 20.7001 12.3375 21.3001 11.5875 21.3001H3.67501C2.92501 21.3001 2.32501 20.7001 2.32501 19.9501V4.08755C2.32501 3.33755 2.92501 2.73755 3.67501 2.73755H4.42501V3.41255C4.42501 4.46255 5.28751 5.36255 6.37501 5.36255H9.15001C10.2 5.36255 11.1 4.50005 11.1 3.41255V2.73755H11.625C12.375 2.73755 12.975 3.33755 12.975 4.08755V4.65005C12.975 5.10005 13.35 5.51255 13.8375 5.51255C14.325 5.51255 14.7 5.13755 14.7 4.65005V4.08755C14.7 2.40005 13.35 1.05005 11.6625 1.05005H3.67501C1.98751 1.05005 0.637512 2.40005 0.637512 4.08755V19.9125C0.637512 21.6 1.98751 22.9501 3.67501 22.9501H11.5875C13.275 22.9501 14.625 21.6 14.625 19.9125C14.625 19.4625 14.25 19.0876 13.8 19.0876ZM9.41251 3.41255C9.41251 3.56255 9.30001 3.67505 9.15001 3.67505H6.37501C6.22501 3.67505 6.11251 3.56255 6.11251 3.41255V2.73755H9.37501V3.41255H9.41251Z" fill="#161A23"/>
<path d="M6.78749 18.4126C6.33749 18.4126 5.92499 18.7876 5.92499 19.2751C5.92499 19.7626 6.29999 20.1376 6.78749 20.1376H8.47499C8.92499 20.1376 9.33749 19.7626 9.33749 19.2751C9.33749 18.7876 8.96249 18.4126 8.47499 18.4126H6.78749Z" fill="#161A23"/>
<path d="M20.8125 7.65002H11.7375C10.35 7.65002 9.1875 8.77502 9.1875 10.2V13.8C9.1875 15.1875 10.3125 16.35 11.7375 16.35H14.5125C14.7375 16.35 14.9625 16.275 15.1125 16.0875L16.275 14.925L17.4375 16.0875C17.5875 16.2375 17.8125 16.35 18.0375 16.35H20.8125C22.2 16.35 23.3625 15.225 23.3625 13.8V10.2C23.3625 8.77502 22.2 7.65002 20.8125 7.65002ZM20.8125 14.6625H18.375L16.8375 13.1625C16.5 12.825 15.975 12.825 15.6375 13.1625L14.1 14.6625H11.6625C11.175 14.6625 10.8 14.2875 10.8 13.8V12.4125H12.075C12.525 12.4125 12.9375 12.0375 12.9375 11.55C12.9375 11.1 12.5625 10.6875 12.075 10.6875H10.875V10.1625C10.875 9.67502 11.25 9.30002 11.7375 9.30002H20.8125C21.3 9.30002 21.675 9.67502 21.675 10.1625V10.6875H20.4C19.95 10.6875 19.5375 11.0625 19.5375 11.55C19.5375 12 19.9125 12.4125 20.4 12.4125H21.675V13.8C21.675 14.2875 21.2625 14.6625 20.8125 14.6625Z" fill="#161A23"/>
</svg>
