<svg width="24" height="24" viewBox="0 0 24 24" fill="none" xmlns="http://www.w3.org/2000/svg">
<path d="M20.8125 9.22495H20.475V8.99995C20.475 7.61245 19.35 6.44995 17.925 6.44995H14.6625C13.275 6.44995 12.1125 7.57495 12.1125 8.99995V9.22495H11.775C10.3875 9.22495 9.22498 10.35 9.22498 11.775V15.375C9.22498 16.7625 10.35 17.925 11.775 17.925H14.5125C14.7375 17.925 14.9625 17.85 15.1125 17.6625L16.275 16.5L17.4375 17.6625C17.5875 17.8125 17.8125 17.925 18.0375 17.925H20.775C22.1625 17.925 23.325 16.8 23.325 15.375V11.775C23.3625 10.3875 22.2 9.22495 20.8125 9.22495ZM14.6625 8.17495H17.925C18.375 8.17495 18.7875 8.54995 18.7875 9.03745V9.26245H13.8375V8.99995C13.8375 8.54995 14.2125 8.17495 14.6625 8.17495ZM20.8125 16.2H18.4125L16.9125 14.7C16.575 14.3625 16.05 14.3625 15.7125 14.7L14.2125 16.2H11.8125C11.3625 16.2 10.95 15.825 10.95 15.3375V13.95H12.225C12.675 13.95 13.0875 13.575 13.0875 13.0875C13.0875 12.6 12.7125 12.225 12.225 12.225H10.95V11.7C10.95 11.25 11.325 10.8375 11.8125 10.8375H13.0125H19.65H20.85C21.3 10.8375 21.7125 11.2125 21.7125 11.7V12.225H20.4375C19.9875 12.225 19.575 12.6 19.575 13.0875C19.575 13.575 19.95 13.95 20.4375 13.95H21.7125V15.375C21.675 15.825 21.2625 16.2 20.8125 16.2Z" fill="#161A23"/>
<path d="M13.425 18.825C12.975 18.825 12.5625 19.2 12.5625 19.6875C12.5625 20.4 12 20.9625 11.2875 20.9625H3.63749C2.92499 20.9625 2.36249 20.4 2.36249 19.6875V4.31248C2.36249 3.59998 2.92499 3.03748 3.63749 3.03748H11.325C12.0375 3.03748 12.6 3.59998 12.6 4.31248V4.83748C12.6 5.28748 12.975 5.69998 13.4625 5.69998C13.95 5.69998 14.325 5.32498 14.325 4.83748V4.31248C14.325 2.66248 13.0125 1.34998 11.3625 1.34998H3.63749C1.98749 1.34998 0.674988 2.66248 0.674988 4.31248V19.6875C0.674988 21.3375 1.98749 22.65 3.63749 22.65H11.325C12.975 22.65 14.2875 21.3375 14.2875 19.6875C14.2875 19.2375 13.875 18.825 13.425 18.825Z" fill="#161A23"/>
<path d="M7.98748 5.58743C8.43748 5.58743 8.84998 5.21243 8.84998 4.72493C8.84998 4.23743 8.47498 3.86243 7.98748 3.86243H6.89998C6.44998 3.86243 6.03748 4.23743 6.03748 4.72493C6.03748 5.21243 6.41248 5.58743 6.89998 5.58743H7.98748Z" fill="#161A23"/>
<path d="M5.77499 19.05C5.77499 19.5 6.14999 19.9125 6.63749 19.9125H8.24999C8.69999 19.9125 9.11249 19.5375 9.11249 19.05C9.11249 18.5625 8.73749 18.1875 8.24999 18.1875H6.63749C6.18749 18.225 5.77499 18.6 5.77499 19.05Z" fill="#161A23"/>
</svg>
