<svg width="24" height="24" viewBox="0 0 24 24" fill="none" xmlns="http://www.w3.org/2000/svg">
<g clip-path="url(#clip0_501_52065)">
<path d="M12 0.5625C5.73755 0.5625 0.675049 5.7 0.675049 12C0.675049 18.3 5.73755 23.4375 12 23.4375C18.2626 23.4375 23.3251 18.3 23.3251 12C23.3251 5.7 18.2626 0.5625 12 0.5625ZM12 21.75C6.67505 21.75 2.32505 17.3625 2.32505 12C2.32505 6.6375 6.67505 2.25 12 2.25C17.3251 2.25 21.6751 6.6 21.6751 12C21.6751 17.4 17.3251 21.75 12 21.75Z" fill="#161A23"/>
<path d="M14.625 10.0126C14.8875 10.3876 15.45 10.4626 15.7875 10.2001C16.1625 9.93756 16.2375 9.37506 15.975 9.03756C15.525 8.43756 14.9625 7.95006 14.2875 7.61256L14.7375 6.00006C14.85 5.55006 14.5875 5.10006 14.1375 4.95006C13.6875 4.83756 13.2375 5.10006 13.0875 5.55006L12.675 7.08756C12.45 7.05006 12.225 7.05006 12 7.05006C10.425 7.05006 8.96245 7.76256 8.02495 9.03756C7.38745 9.90006 7.01245 10.9501 7.01245 12.0376C7.01245 13.1251 7.34995 14.1751 8.02495 15.0376C8.58745 15.7876 9.29995 16.3126 10.125 16.6501L9.86245 17.7001C9.74995 18.1501 10.0125 18.6001 10.4625 18.7501C10.5375 18.7876 10.6125 18.7876 10.6875 18.7876C11.0625 18.7876 11.4 18.5251 11.5125 18.1501L11.8125 17.0251C11.8875 17.0251 11.9625 17.0251 12.0375 17.0251C13.6125 17.0251 15.075 16.3126 16.0125 15.0376C16.275 14.6626 16.2 14.1376 15.825 13.8751C15.45 13.6126 14.925 13.6876 14.6625 14.0626C14.1 14.8501 13.2375 15.3001 12.3 15.3751L13.9125 9.33756C14.1375 9.45006 14.4 9.71256 14.625 10.0126ZM10.575 14.9626C10.125 14.7376 9.71245 14.4001 9.37495 13.9876C8.92495 13.4251 8.69995 12.7126 8.69995 12.0001C8.69995 11.2876 8.92495 10.5751 9.37495 10.0126C10.0125 9.18756 10.95 8.70006 12 8.70006C12.075 8.70006 12.15 8.70006 12.2625 8.70006L10.575 14.9626Z" fill="#161A23"/>
</g>
<defs>
<clipPath id="clip0_501_52065">
<rect width="24" height="24" fill="white"/>
</clipPath>
</defs>
</svg>
