<svg width="24" height="24" viewBox="0 0 24 24" fill="none" xmlns="http://www.w3.org/2000/svg">
<path d="M18.2625 18.6C18.15 18.3 17.8875 18.075 17.5875 18.0375L16.05 17.8125L15.3375 16.3875C15.1875 16.0875 14.8875 15.9 14.5875 15.9C14.2875 15.9 13.9875 16.0875 13.8375 16.3875L13.125 17.8125L11.55 18C11.25 18.0375 10.9875 18.2625 10.875 18.5625C10.7625 18.8625 10.8375 19.2 11.1 19.425L12.225 20.55L11.9625 22.125C11.925 22.425 12.0375 22.7625 12.3 22.95C12.45 23.0625 12.6375 23.1 12.7875 23.1C12.9375 23.1 13.05 23.0625 13.2 22.9875L14.5875 22.2375L15.975 22.9875C16.275 23.1375 16.6125 23.1 16.875 22.9125C17.1375 22.725 17.25 22.3875 17.2125 22.0875L16.95 20.5125L18.075 19.3875C18.2625 19.2375 18.3375 18.9 18.2625 18.6ZM15.4125 19.6875C15.225 19.875 15.1125 20.175 15.1875 20.4375L15.225 20.775L14.9625 20.625C14.85 20.55 14.7 20.5125 14.55 20.5125C14.4 20.5125 14.2875 20.55 14.1375 20.625L13.875 20.775L13.9125 20.4375C13.95 20.175 13.875 19.875 13.6875 19.6875L13.425 19.425L13.7625 19.3875C14.025 19.35 14.2875 19.1625 14.4 18.9375L14.55 18.675L14.7 18.9375C14.8125 19.2 15.075 19.35 15.3375 19.3875L15.675 19.425L15.4125 19.6875Z" fill="#161A23"/>
<path d="M19.95 4.31255L16.3875 1.27505C15.9375 0.862549 15.3375 0.675049 14.7375 0.675049H5.70002C4.27502 0.675049 3.15002 1.83755 3.15002 3.22505V20.8125C3.15002 22.2375 4.31252 23.3625 5.70002 23.3625H10.35C10.8 23.3625 11.2125 22.9875 11.2125 22.5C11.2125 22.0125 10.8375 21.6376 10.35 21.6376H5.70002C5.21252 21.6376 4.83752 21.2626 4.83752 20.775V3.22505C4.83752 2.73755 5.21252 2.36255 5.70002 2.36255H14.7375C14.925 2.36255 15.15 2.43755 15.3 2.58755L18.8625 5.62505C19.05 5.77505 19.1625 6.03755 19.1625 6.30005V21.5625C19.1625 21.6375 19.0875 21.7125 19.0125 21.7125C18.5625 21.7125 18.15 22.0875 18.15 22.5751C18.15 23.0625 18.525 23.4375 19.0125 23.4375C20.025 23.4375 20.85 22.6125 20.85 21.6V6.26255C20.85 5.51255 20.5125 4.80005 19.95 4.31255Z" fill="#161A23"/>
<path d="M7.38752 6.90005H12.375C12.825 6.90005 13.2375 6.52505 13.2375 6.03755C13.2375 5.55005 12.8625 5.17505 12.375 5.17505H7.38752C6.93752 5.17505 6.52502 5.55005 6.52502 6.03755C6.52502 6.52505 6.93752 6.90005 7.38752 6.90005Z" fill="#161A23"/>
<path d="M7.38752 10.8375H15.9375C16.3875 10.8375 16.8 10.4625 16.8 9.97505C16.8 9.48755 16.425 9.11255 15.9375 9.11255H7.38752C6.93752 9.11255 6.52502 9.48755 6.52502 9.97505C6.52502 10.4625 6.93752 10.8375 7.38752 10.8375Z" fill="#161A23"/>
</svg>
