<svg width="24" height="24" viewBox="0 0 24 24" fill="none" xmlns="http://www.w3.org/2000/svg">
<g clip-path="url(#clip0_501_45453)">
<path d="M21 13.05H19.5375V3.59996C19.5375 2.02496 18.3 0.749961 16.8 0.674961H4.94999C2.58749 0.637461 0.674988 2.62496 0.674988 5.06246V6.67496C0.674988 7.42496 1.31249 8.06246 2.06249 8.06246H4.49999V18.075C4.49999 19.3875 5.58749 20.475 6.93749 20.475H8.32499V22.3875C8.32499 22.7625 8.51249 23.0625 8.84999 23.25C8.99999 23.325 9.14999 23.3625 9.29999 23.3625C9.48749 23.3625 9.67499 23.325 9.82499 23.2125L11.55 22.0875L13.2375 23.175L13.3125 23.2125C13.65 23.3625 13.9875 23.3625 14.2875 23.175C14.5875 22.9875 14.7375 22.6875 14.7375 22.35V20.475H21C22.275 20.475 23.3625 19.425 23.3625 18.1125V15.375C23.3625 14.1 22.275 13.05 21 13.05ZM2.36249 5.06246C2.36249 3.56246 3.52499 2.32496 4.94999 2.32496H13.4625C13.2375 2.77496 13.0875 3.29996 13.0875 3.86246V6.37496H2.36249V5.06246ZM11.5125 16.6875C10.125 16.6875 9.03749 15.6 9.03749 14.25C9.03749 12.9 10.1625 11.8125 11.5125 11.8125C12.8625 11.8125 13.9875 12.9 13.9875 14.25C13.9875 15.6 12.9 16.6875 11.5125 16.6875ZM12.15 20.475C11.775 20.2125 11.2875 20.2125 10.875 20.475L9.97499 21.075V18.075C10.4625 18.2625 10.9875 18.375 11.5125 18.375C12.075 18.375 12.6 18.2625 13.05 18.075V21.075L12.15 20.475ZM14.7375 18.7875V16.8375C15.3375 16.125 15.675 15.225 15.675 14.25C15.675 11.9625 13.8 10.125 11.5125 10.125C9.22499 10.125 7.34999 11.9625 7.34999 14.25C7.34999 15.225 7.68749 16.1625 8.28749 16.875V18.7875H6.89999C6.48749 18.7875 6.14999 18.4875 6.14999 18.075V8.06246H13.35C14.1 8.06246 14.7375 7.42496 14.7375 6.67496V3.89996C14.7375 3.07496 15.3 2.43746 16.05 2.36246H16.6125C17.2875 2.36246 17.8125 2.92496 17.8125 3.59996V18.7875H14.7375ZM21.675 18.1125C21.675 18.4875 21.375 18.7875 21 18.7875H19.5375V14.7375H21C21.375 14.7375 21.675 15.0375 21.675 15.4125V18.1125Z" fill="#161A23"/>
</g>
<defs>
<clipPath id="clip0_501_45453">
<rect width="24" height="24" fill="white"/>
</clipPath>
</defs>
</svg>
