<svg width="24" height="24" viewBox="0 0 24 24" fill="none" xmlns="http://www.w3.org/2000/svg">
<path d="M19.95 4.31255L16.3875 1.27505C15.9375 0.862549 15.3375 0.675049 14.7375 0.675049H5.69999C4.27499 0.675049 3.14999 1.83755 3.14999 3.22505V20.8125C3.14999 22.2375 4.31249 23.3625 5.69999 23.3625H10.35C10.8 23.3625 11.2125 22.9875 11.2125 22.5C11.2125 22.0125 10.8375 21.6376 10.35 21.6376H5.69999C5.21249 21.6376 4.83749 21.2626 4.83749 20.775V3.22505C4.83749 2.73755 5.21249 2.36255 5.69999 2.36255H14.7375C14.925 2.36255 15.15 2.43755 15.3 2.58755L18.8625 5.62505C19.05 5.77505 19.1625 6.03755 19.1625 6.30005V21.5625C19.1625 21.6375 19.0875 21.7125 19.0125 21.7125C18.5625 21.7125 18.15 22.0875 18.15 22.5751C18.15 23.0625 18.525 23.4375 19.0125 23.4375C20.025 23.4375 20.85 22.6125 20.85 21.6V6.26255C20.85 5.51255 20.5125 4.80005 19.95 4.31255Z" fill="#161A23"/>
<path d="M7.38749 6.90005H12.375C12.825 6.90005 13.2375 6.52505 13.2375 6.03755C13.2375 5.55005 12.8625 5.17505 12.375 5.17505H7.38749C6.93749 5.17505 6.52499 5.55005 6.52499 6.03755C6.52499 6.52505 6.93749 6.90005 7.38749 6.90005Z" fill="#161A23"/>
<path d="M7.38749 10.8375H15.9375C16.3875 10.8375 16.8 10.4625 16.8 9.97505C16.8 9.48755 16.425 9.11255 15.9375 9.11255H7.38749C6.93749 9.11255 6.52499 9.48755 6.52499 9.97505C6.52499 10.4625 6.93749 10.8375 7.38749 10.8375Z" fill="#161A23"/>
<path d="M14.625 13.7626C12.9375 13.7626 11.55 15.1501 11.55 16.8376C11.55 17.7001 11.925 18.4876 12.525 19.0501V22.5001C12.525 22.8001 12.675 23.0626 12.9375 23.2126C13.2 23.3626 13.5 23.3626 13.7625 23.2126L14.5875 22.7251L15.4125 23.2126C15.525 23.2876 15.675 23.3251 15.825 23.3251C15.975 23.3251 16.125 23.2876 16.2375 23.2126C16.5 23.0626 16.65 22.8001 16.65 22.5001V19.0501C17.25 18.4876 17.625 17.7001 17.625 16.8376C17.6625 15.1126 16.3125 13.7626 14.625 13.7626ZM14.625 15.4501C15.375 15.4501 16.0125 16.0501 16.0125 16.8376C16.0125 17.6251 15.375 18.1876 14.625 18.1876C13.875 18.1876 13.2375 17.5876 13.2375 16.8001C13.2375 16.0126 13.875 15.4501 14.625 15.4501ZM15 21.0376C14.7375 20.8876 14.4375 20.8876 14.2125 21.0376V19.8376C14.3625 19.8376 14.475 19.8751 14.625 19.8751C14.775 19.8751 14.8875 19.8751 15.0375 19.8376V21.0376H15Z" fill="#161A23"/>
</svg>
