<svg width="24" height="24" viewBox="0 0 24 24" fill="none" xmlns="http://www.w3.org/2000/svg">
<g clip-path="url(#clip0_501_47663)">
<path d="M21 11.175H12.6V3.26255C12.6 1.83755 11.4375 0.675049 10.0125 0.675049H3.2625C1.8375 0.675049 0.675003 1.83755 0.675003 3.26255V13.8C0.675003 15.225 1.8375 16.3875 3.2625 16.3875H7.275V21C7.275 22.275 8.325 23.3625 9.6375 23.3625H21C22.275 23.3625 23.3625 22.3125 23.3625 21V13.5C23.3625 12.225 22.275 11.175 21 11.175ZM21.675 13.5V16.2375L19.875 14.8875C19.6125 14.6625 19.2 14.6625 18.9 14.85L15.5625 16.875L12.4875 14.85C12.225 14.6625 11.8875 14.6625 11.5875 14.8125L8.925 16.3875V13.5C8.925 13.125 9.225 12.825 9.6 12.825H21C21.375 12.8625 21.675 13.125 21.675 13.5ZM3.2625 14.7C2.775 14.7 2.3625 14.2875 2.3625 13.8V3.26255C2.3625 2.77505 2.775 2.36255 3.2625 2.36255H10.0125C10.5 2.36255 10.9125 2.77505 10.9125 3.26255V11.175H9.6C8.325 11.175 7.2375 12.225 7.2375 13.5375V14.7375H3.2625V14.7ZM21 21.675H9.6375C9.2625 21.675 8.9625 21.375 8.9625 21V18.3375L12.0375 16.5375L15.1125 18.5625C15.375 18.75 15.75 18.75 16.0125 18.5625L19.3125 16.575L21.675 18.4125V21C21.675 21.375 21.375 21.675 21 21.675Z" fill="#161A23"/>
<path d="M14.1 3.52502C16.65 3.52502 18.7875 5.40002 19.2 7.83752L18.15 6.86252C17.8125 6.56252 17.2875 6.56252 16.95 6.90002C16.65 7.23752 16.65 7.76252 16.9875 8.10002L19.3875 10.35C19.5375 10.5 19.7625 10.575 19.95 10.575C20.1375 10.575 20.3625 10.5 20.5125 10.35L22.875 8.13752C23.2125 7.83752 23.25 7.27502 22.9125 6.93752C22.6125 6.60002 22.05 6.56252 21.7125 6.90002L20.8125 7.72502C20.325 4.38752 17.475 1.83752 14.025 1.83752C13.575 1.83752 13.1625 2.21252 13.1625 2.70002C13.1625 3.18752 13.6125 3.52502 14.1 3.52502Z" fill="#161A23"/>
</g>
<defs>
<clipPath id="clip0_501_47663">
<rect width="24" height="24" fill="white"/>
</clipPath>
</defs>
</svg>
