<svg width="24" height="24" viewBox="0 0 24 24" fill="none" xmlns="http://www.w3.org/2000/svg">
<path d="M21.375 9.11255H20.3625V8.28755C20.3625 7.01255 19.3125 5.92505 18 5.92505H3C1.725 5.92505 0.637497 6.97505 0.637497 8.28755V15.7125C0.637497 16.9875 1.6875 18.075 3 18.075H18C19.275 18.075 20.3625 17.025 20.3625 15.7125V14.8875H21.375C22.4625 14.8875 23.3625 13.9875 23.3625 12.9V11.0625C23.3625 9.97505 22.4625 9.11255 21.375 9.11255ZM18.675 15.7125C18.675 16.0875 18.375 16.3875 18 16.3875H3C2.625 16.3875 2.325 16.0875 2.325 15.7125V8.28755C2.325 7.91255 2.625 7.61255 3 7.61255H18C18.375 7.61255 18.675 7.91255 18.675 8.28755V15.7125ZM21.675 12.9375C21.675 13.0875 21.5625 13.2375 21.375 13.2375H20.3625V10.8375H21.375C21.525 10.8375 21.675 10.95 21.675 11.1375V12.9375Z" fill="#161A23"/>
<path d="M11.8875 11.2125H10.8L11.475 10.0875C11.7 9.67496 11.5875 9.14996 11.175 8.92496C10.7625 8.69996 10.2375 8.81246 10.0125 9.22496L8.58749 11.625C8.43749 11.8875 8.43749 12.225 8.58749 12.4875C8.73749 12.75 8.99999 12.9 9.33749 12.9H10.4625L9.89999 13.9125C9.67499 14.325 9.82499 14.85 10.2375 15.075C10.35 15.15 10.5 15.1875 10.65 15.1875C10.95 15.1875 11.25 15.0375 11.4 14.775L12.675 12.4875C12.825 12.225 12.825 11.925 12.675 11.6625C12.4875 11.3625 12.1875 11.2125 11.8875 11.2125Z" fill="#161A23"/>
</svg>
