<svg width="24" height="24" viewBox="0 0 24 24" fill="none" xmlns="http://www.w3.org/2000/svg">
<g clip-path="url(#clip0_501_45257)">
<path d="M19.875 4.01251C17.5125 1.61251 14.2125 0.450011 10.875 0.825011C5.66248 1.35001 1.53748 5.51251 0.974978 10.6875C0.749978 13.0875 1.23748 15.4125 2.43748 17.4375L0.937478 21.3375C0.712478 21.8625 0.862478 22.5 1.31248 22.875C1.57498 23.1 1.91248 23.25 2.24998 23.25C2.47498 23.25 2.66248 23.2125 2.88748 23.1L6.29998 21.375C8.36248 22.6125 10.6875 23.1375 13.125 22.9125C18.375 22.425 22.575 18.2625 23.1 12.975C23.4375 9.63751 22.275 6.37501 19.875 4.01251ZM21.4125 12.825C20.9625 17.2875 17.4 20.8125 12.9375 21.225C10.725 21.45 8.62498 20.8875 6.78748 19.6875C6.63748 19.575 6.48748 19.5375 6.33748 19.5375C6.22498 19.5375 6.07498 19.575 5.96248 19.6125L2.77498 21.1875L4.16248 17.5875C4.27498 17.325 4.23748 17.0625 4.08748 16.8375C2.92498 15.0375 2.43748 12.9375 2.66248 10.7625C3.11248 6.45001 6.63748 2.96251 11.025 2.51251C13.875 2.21251 16.6875 3.18751 18.675 5.21251C20.7 7.20001 21.7125 9.97501 21.4125 12.825Z" fill="#161A23"/>
<path d="M15 8.28755L10.5375 12.75L9 11.2125C8.6625 10.875 8.1375 10.875 7.8 11.2125C7.4625 11.55 7.4625 12.075 7.8 12.4125L9.9375 14.55C10.0875 14.7 10.3125 14.8125 10.5375 14.8125C10.7625 14.8125 10.9875 14.7375 11.1375 14.55L16.2 9.48755C16.5375 9.15005 16.5375 8.62505 16.2 8.28755C15.8625 7.95005 15.3375 7.95005 15 8.28755Z" fill="#161A23"/>
</g>
<defs>
<clipPath id="clip0_501_45257">
<rect width="24" height="24" fill="white"/>
</clipPath>
</defs>
</svg>
