<svg width="24" height="24" viewBox="0 0 24 24" fill="none" xmlns="http://www.w3.org/2000/svg">
<path d="M14.625 2.1001H9.375C4.575 2.1001 0.675003 5.8876 0.675003 10.5376C0.675003 15.1876 3.675 18.4501 11.025 21.7501C11.2125 21.8251 11.3625 21.8626 11.55 21.8626C11.8125 21.8626 12.0375 21.7876 12.2625 21.6376C12.6375 21.4126 12.8625 21.0001 12.8625 20.5501V18.9376H14.625C19.425 18.9376 23.3625 15.1501 23.3625 10.5001C23.3625 5.8501 19.425 2.1001 14.625 2.1001ZM14.625 17.3251H12.45C11.7375 17.3251 11.1375 17.9251 11.1375 18.6376V20.0251C4.8 17.1001 2.325 14.4001 2.325 10.5751C2.325 6.8626 5.475 3.8251 9.375 3.8251H14.625C18.4875 3.8251 21.675 6.8626 21.675 10.5751C21.675 14.2876 18.4875 17.3251 14.625 17.3251Z" fill="#161A23"/>
<path d="M7.2375 9.71265C6.75 9.71265 6.375 10.0876 6.375 10.5751C6.375 11.0626 6.75 11.4376 7.2375 11.4376C7.725 11.4376 8.1 11.0626 8.1 10.5751C8.1 10.0876 7.725 9.71265 7.2375 9.71265Z" fill="#161A23"/>
<path d="M12 9.71265C11.5125 9.71265 11.1375 10.0876 11.1375 10.5751C11.1375 11.0626 11.5125 11.4376 12 11.4376C12.45 11.4376 12.8625 11.0626 12.8625 10.5751C12.8625 10.0876 12.45 9.71265 12 9.71265Z" fill="#161A23"/>
<path d="M16.7625 9.71265C16.275 9.71265 15.9 10.0876 15.9 10.5751C15.9 11.0626 16.275 11.4376 16.7625 11.4376C17.25 11.4376 17.625 11.0626 17.625 10.5751C17.625 10.0876 17.2125 9.71265 16.7625 9.71265Z" fill="#161A23"/>
</svg>
