<svg width="24" height="24" viewBox="0 0 24 24" fill="none" xmlns="http://www.w3.org/2000/svg">
<path d="M20.925 2.88745H3.07501C1.83751 2.88745 0.825012 3.89995 0.825012 5.13745V15.375C0.825012 16.6125 1.83751 17.625 3.07501 17.625H8.36251L11.2875 20.8875C11.4375 21.075 11.6625 21.15 11.925 21.15C12.15 21.15 12.375 21.0375 12.5625 20.8875L15.5625 17.625H20.925C22.1625 17.625 23.175 16.6125 23.175 15.375V5.09995C23.175 3.86245 22.1625 2.88745 20.925 2.88745ZM21.4875 15.375C21.4875 15.675 21.225 15.9375 20.925 15.9375H15.1875C14.9625 15.9375 14.7375 16.05 14.55 16.2L11.925 19.0499L9.37501 16.2C9.22501 16.0125 9.00001 15.9375 8.73751 15.9375H3.07501C2.77501 15.9375 2.51251 15.675 2.51251 15.375V5.09995C2.51251 4.79995 2.77501 4.53745 3.07501 4.53745H20.925C21.225 4.53745 21.4875 4.79995 21.4875 5.09995V15.375Z" fill="#161A23"/>
<path d="M14.325 9.29985H12.8625V7.83735C12.8625 7.38735 12.4875 6.97485 12 6.97485C11.55 6.97485 11.1375 7.34985 11.1375 7.83735V9.29985H9.675C9.225 9.29985 8.8125 9.67485 8.8125 10.1624C8.8125 10.6499 9.1875 11.0249 9.675 11.0249H11.1375V12.4874C11.1375 12.9374 11.5125 13.3499 12 13.3499C12.45 13.3499 12.8625 12.9749 12.8625 12.4874V11.0249H14.325C14.775 11.0249 15.1875 10.6499 15.1875 10.1624C15.1875 9.67485 14.775 9.29985 14.325 9.29985Z" fill="#161A23"/>
</svg>
