<svg width="24" height="24" viewBox="0 0 24 24" fill="none" xmlns="http://www.w3.org/2000/svg">
<path d="M6.45002 9.6748C5.96252 9.6748 5.58752 10.0498 5.58752 10.5373C5.58752 11.0248 5.96252 11.3998 6.45002 11.3998C6.93752 11.3998 7.31252 11.0248 7.31252 10.5373C7.31252 10.0498 6.90002 9.6748 6.45002 9.6748Z" fill="#161A23"/>
<path d="M11.625 9.6748C11.1375 9.6748 10.7625 10.0498 10.7625 10.5373C10.7625 11.0248 11.1375 11.3998 11.625 11.3998C12.1125 11.3998 12.4875 11.0248 12.4875 10.5373C12.4875 10.0498 12.075 9.6748 11.625 9.6748Z" fill="#161A23"/>
<path d="M16.8 9.6748C16.3125 9.6748 15.9375 10.0498 15.9375 10.5373C15.9375 11.0248 16.3125 11.3998 16.8 11.3998C17.2875 11.3998 17.6625 11.0248 17.6625 10.5373C17.6625 10.0498 17.2875 9.6748 16.8 9.6748Z" fill="#161A23"/>
<path d="M15.825 2.9624H3.00001C1.72501 2.9624 0.637512 4.0124 0.637512 5.3249V19.4624C0.637512 20.0624 0.975012 20.6249 1.53751 20.8874C1.76251 20.9999 1.98751 21.0374 2.21251 21.0374C2.58751 21.0374 2.92501 20.9249 3.22501 20.6624L6.41251 18.0374H15.825C19.9875 18.0374 23.3625 14.6624 23.3625 10.4999C23.3625 6.3374 19.95 2.9624 15.825 2.9624ZM15.825 16.3499H6.11251C5.92501 16.3499 5.73751 16.4249 5.58751 16.5374L2.36251 19.1999V5.3249C2.36251 4.9499 2.66251 4.6499 3.03751 4.6499H15.8625C19.0875 4.6499 21.7125 7.2749 21.7125 10.4999C21.675 13.7249 19.05 16.3499 15.825 16.3499Z" fill="#161A23"/>
</svg>
