<svg width="24" height="24" viewBox="0 0 24 24" fill="none" xmlns="http://www.w3.org/2000/svg">
<path d="M16.35 3.5625H7.64999C3.78749 3.5625 0.674988 6.675 0.674988 10.5375V18.15C0.674988 19.3875 1.68749 20.4 2.92499 20.4H16.3875C20.25 20.4 23.3625 17.2875 23.3625 13.425V10.5375C23.3625 6.7125 20.2125 3.5625 16.35 3.5625ZM21.675 13.4625C21.675 16.3875 19.3125 18.75 16.3875 18.75H2.92499C2.62499 18.75 2.36249 18.4875 2.36249 18.1875V10.5375C2.36249 7.6125 4.72499 5.25 7.64999 5.25H16.3875C19.3125 5.25 21.675 7.6125 21.675 10.5375V13.4625Z" fill="#161A23"/>
<path d="M6.48749 12.9375C7.00525 12.9375 7.42499 12.5178 7.42499 12C7.42499 11.4822 7.00525 11.0625 6.48749 11.0625C5.96972 11.0625 5.54999 11.4822 5.54999 12C5.54999 12.5178 5.96972 12.9375 6.48749 12.9375Z" fill="#161A23"/>
<path d="M12 12.9375C12.5178 12.9375 12.9375 12.5178 12.9375 12C12.9375 11.4822 12.5178 11.0625 12 11.0625C11.4822 11.0625 11.0625 11.4822 11.0625 12C11.0625 12.5178 11.4822 12.9375 12 12.9375Z" fill="#161A23"/>
<path d="M17.5125 12.9375C18.0303 12.9375 18.45 12.5178 18.45 12C18.45 11.4822 18.0303 11.0625 17.5125 11.0625C16.9947 11.0625 16.575 11.4822 16.575 12C16.575 12.5178 16.9947 12.9375 17.5125 12.9375Z" fill="#161A23"/>
</svg>
