<svg width="24" height="24" viewBox="0 0 24 24" fill="none" xmlns="http://www.w3.org/2000/svg">
<g clip-path="url(#clip0_501_45250)">
<path d="M2.06249 23.4374C1.72499 23.4374 1.38749 23.3249 1.12499 23.0624C0.674986 22.6499 0.562486 22.0499 0.749986 21.5249L2.28749 17.5499C1.08749 15.4874 0.562487 13.0874 0.824987 10.6499C1.38749 5.39991 5.58749 1.16241 10.8375 0.637411C14.25 0.299911 17.5875 1.46241 20.025 3.86241C22.425 6.26241 23.625 9.59991 23.2875 13.0124C22.7625 18.3749 18.4875 22.6124 13.125 23.0999C10.65 23.3249 8.24999 22.7999 6.18749 21.5249L2.69999 23.2874C2.47499 23.3999 2.28749 23.4374 2.06249 23.4374ZM6.22499 19.7249C6.37499 19.7249 6.56249 19.7624 6.67499 19.8749C8.54999 21.1124 10.6875 21.6374 12.9375 21.4499C17.475 21.0374 21.1125 17.3999 21.5625 12.8624C21.8625 9.93741 20.85 7.12491 18.7875 5.06241C16.7625 2.99991 13.9125 1.98741 11.025 2.32491C6.52499 2.77491 2.96249 6.37491 2.47499 10.8374C2.24999 13.0499 2.77499 15.1874 3.93749 17.0249C4.08749 17.2499 4.12499 17.5499 4.01249 17.7749L2.58749 21.4499L5.84999 19.7999C5.99999 19.7624 6.11249 19.7249 6.22499 19.7249Z" fill="#161A23"/>
</g>
<defs>
<clipPath id="clip0_501_45250">
<rect width="24" height="24" fill="white"/>
</clipPath>
</defs>
</svg>
