<svg width="24" height="24" viewBox="0 0 24 24" fill="none" xmlns="http://www.w3.org/2000/svg">
<g clip-path="url(#clip0_501_45243)">
<path d="M19.875 4.01251C17.5125 1.61251 14.2125 0.450011 10.875 0.825011C5.66251 1.35001 1.53751 5.51251 0.975009 10.6875C0.750009 13.0875 1.23751 15.4125 2.43751 17.4375L0.937509 21.3375C0.712509 21.8625 0.862509 22.5 1.31251 22.875C1.57501 23.1 1.91251 23.25 2.25001 23.25C2.47501 23.25 2.66251 23.2125 2.88751 23.1L6.30001 21.375C8.36251 22.6125 10.6875 23.1375 13.125 22.9125C18.375 22.425 22.575 18.2625 23.1 12.975C23.4375 9.63751 22.275 6.37501 19.875 4.01251ZM21.4125 12.825C20.9625 17.2875 17.4 20.8125 12.9375 21.225C10.725 21.45 8.62501 20.8875 6.78751 19.6875C6.63751 19.575 6.48751 19.5375 6.33751 19.5375C6.22501 19.5375 6.07501 19.575 5.96251 19.6125L2.77501 21.1875L4.16251 17.5875C4.27501 17.325 4.23751 17.0625 4.08751 16.8375C2.92501 15.0375 2.43751 12.9375 2.66251 10.7625C3.11251 6.45001 6.63751 2.96251 11.025 2.51251C13.875 2.21251 16.6875 3.18751 18.675 5.21251C20.7 7.20001 21.7125 9.97501 21.4125 12.825Z" fill="#161A23"/>
<path d="M14.55 9.4499C14.2125 9.1124 13.6875 9.1124 13.35 9.4499L12 10.7999L10.65 9.4499C10.3125 9.1124 9.78752 9.1124 9.45002 9.4499C9.11252 9.7874 9.11252 10.3124 9.45002 10.6499L10.8 11.9999L9.45002 13.3499C9.11252 13.6874 9.11252 14.2124 9.45002 14.5499C9.60002 14.6999 9.82502 14.8124 10.05 14.8124C10.275 14.8124 10.5 14.7374 10.65 14.5499L12 13.1999L13.35 14.5499C13.5 14.6999 13.725 14.8124 13.95 14.8124C14.175 14.8124 14.4 14.7374 14.55 14.5499C14.8875 14.2124 14.8875 13.6874 14.55 13.3499L13.2 11.9999L14.55 10.6499C14.8875 10.3124 14.8875 9.7874 14.55 9.4499Z" fill="#161A23"/>
</g>
<defs>
<clipPath id="clip0_501_45243">
<rect width="24" height="24" fill="white"/>
</clipPath>
</defs>
</svg>
