<svg width="24" height="24" viewBox="0 0 24 24" fill="none" xmlns="http://www.w3.org/2000/svg">
<path d="M11.55 21.9001C11.3625 21.9001 11.175 21.8626 11.025 21.7876C3.675 18.4501 0.675003 15.1876 0.675003 10.5376C0.675003 5.8876 4.575 2.1001 9.375 2.1001H14.625C19.425 2.1001 23.3625 5.8876 23.3625 10.5376C23.3625 15.1876 19.425 19.0126 14.625 19.0126H12.825V20.6251C12.825 21.0751 12.6 21.4876 12.225 21.7126C12.0375 21.8251 11.775 21.9001 11.55 21.9001ZM9.375 3.7876C5.5125 3.7876 2.325 6.8251 2.325 10.5376C2.325 14.3626 4.8 17.0251 11.1375 19.9876V18.6001C11.1375 17.8876 11.7375 17.2876 12.45 17.2876H14.625C18.4875 17.2876 21.675 14.2501 21.675 10.5376C21.675 6.8251 18.525 3.7876 14.625 3.7876H9.375Z" fill="#161A23"/>
</svg>
