<svg width="24" height="24" viewBox="0 0 24 24" fill="none" xmlns="http://www.w3.org/2000/svg">
<path d="M21.075 2.73755H2.92499C1.68749 2.73755 0.674988 3.75005 0.674988 4.98755V15.4501C0.674988 16.6876 1.68749 17.7001 2.92499 17.7001H8.32499L11.325 21.0001C11.475 21.1876 11.7 21.2626 11.9625 21.2626C12.1875 21.2626 12.4125 21.1501 12.6 21.0001L15.675 17.6625H21.1125C22.35 17.6625 23.3625 16.65 23.3625 15.4125V4.98755C23.3625 3.75005 22.3125 2.73755 21.075 2.73755ZM21.675 15.4125C21.675 15.7125 21.4125 15.975 21.1125 15.975H15.2625C15.0375 15.975 14.8125 16.0876 14.625 16.2375L11.925 19.1625L9.29999 16.2751C9.14999 16.0876 8.92499 16.0126 8.66249 16.0126H2.92499C2.62499 16.0126 2.36249 15.7501 2.36249 15.4501V4.98755C2.36249 4.68755 2.62499 4.42505 2.92499 4.42505H21.075C21.375 4.42505 21.6375 4.68755 21.6375 4.98755V15.4125H21.675Z" fill="#161A23"/>
<path d="M6.67499 9.11255C6.18749 9.11255 5.77499 9.52505 5.77499 10.0125C5.77499 10.5 6.18749 10.9125 6.67499 10.9125C7.16249 10.9125 7.57499 10.5 7.57499 10.0125C7.57499 9.52505 7.19999 9.11255 6.67499 9.11255Z" fill="#161A23"/>
<path d="M12 9.11255C11.5125 9.11255 11.1 9.52505 11.1 10.0125C11.1 10.5 11.5125 10.9125 12 10.9125C12.4875 10.9125 12.9 10.5 12.9 10.0125C12.9 9.52505 12.4875 9.11255 12 9.11255Z" fill="#161A23"/>
<path d="M17.325 9.11255C16.8375 9.11255 16.425 9.52505 16.425 10.0125C16.425 10.5 16.8375 10.9125 17.325 10.9125C17.8125 10.9125 18.225 10.5 18.225 10.0125C18.225 9.52505 17.8125 9.11255 17.325 9.11255Z" fill="#161A23"/>
</svg>
