<svg width="24" height="24" viewBox="0 0 24 24" fill="none" xmlns="http://www.w3.org/2000/svg">
<path d="M14.1749 9.67505H9.8249C9.3749 9.67505 8.9624 10.05 8.9624 10.5375C8.9624 11.025 9.3374 11.4 9.8249 11.4H14.1749C14.6249 11.4 15.0374 11.025 15.0374 10.5375C15.0374 10.05 14.6249 9.67505 14.1749 9.67505Z" fill="#161A23"/>
<path d="M20.9999 2.96252H2.99995C1.72495 2.96252 0.637451 4.01252 0.637451 5.32502V19.4625C0.637451 20.0625 0.974951 20.625 1.53745 20.8875C1.76245 21 1.98745 21.0375 2.21245 21.0375C2.58745 21.0375 2.92495 20.925 3.22495 20.6625L6.41245 18.0375H20.9999C22.275 18.0375 23.3624 16.9875 23.3624 15.675V5.32502C23.3624 4.01252 22.275 2.96252 20.9999 2.96252ZM21.6749 15.675C21.6749 16.05 21.3749 16.35 20.9999 16.35H6.11245C5.92495 16.35 5.73745 16.425 5.58745 16.5375L2.36245 19.2V5.32502C2.36245 4.95002 2.66245 4.65002 3.03745 4.65002H21.0374C21.4124 4.65002 21.7125 4.95002 21.7125 5.32502V15.675H21.6749Z" fill="#161A23"/>
</svg>
