<svg width="24" height="24" viewBox="0 0 24 24" fill="none" xmlns="http://www.w3.org/2000/svg">
<g clip-path="url(#clip0_501_45239)">
<path d="M19.8375 4.05007C17.475 1.68757 14.2125 0.562572 10.875 0.900072C5.73749 1.42507 1.61249 5.55007 1.08749 10.6876C0.824991 13.0876 1.31249 15.3751 2.51249 17.4001L1.01249 21.2626C0.787491 21.7876 0.937491 22.3876 1.38749 22.8001C1.64999 23.0251 1.98749 23.1751 2.32499 23.1751C2.54999 23.1751 2.73749 23.1376 2.96249 23.0251L6.37499 21.3376C8.39999 22.5751 10.725 23.1001 13.125 22.8751C18.3375 22.3876 22.5 18.2626 23.025 13.0501C23.3625 9.67507 22.2 6.41257 19.8375 4.05007ZM21.3375 12.8251C20.8875 17.2501 17.3625 20.7376 12.9375 21.1501C10.7625 21.3376 8.66249 20.8126 6.86249 19.6126C6.71249 19.5376 6.56249 19.5001 6.37499 19.5001C6.26249 19.5001 6.11249 19.5376 5.99999 19.5751L2.84999 21.1501L4.19999 17.6251C4.31249 17.3626 4.27499 17.1001 4.12499 16.8751C2.99999 15.0751 2.51249 13.0126 2.73749 10.8751C3.22499 6.52507 6.67499 3.03757 11.025 2.58757C13.875 2.28757 16.65 3.26257 18.6375 5.25007C20.625 7.23757 21.6 10.0126 21.3375 12.8251Z" fill="#161A23"/>
<path d="M14.7375 11.175H9.26246C8.81246 11.175 8.39996 11.55 8.39996 12.0375C8.39996 12.4875 8.77496 12.9 9.26246 12.9H14.775C15.225 12.9 15.6375 12.525 15.6375 12.0375C15.6 11.55 15.225 11.175 14.7375 11.175Z" fill="#161A23"/>
</g>
<defs>
<clipPath id="clip0_501_45239">
<rect width="24" height="24" fill="white"/>
</clipPath>
</defs>
</svg>
