<svg width="24" height="24" viewBox="0 0 24 24" fill="none" xmlns="http://www.w3.org/2000/svg">
<path d="M2.21251 21.0374C1.98751 21.0374 1.76251 20.9999 1.53751 20.8874C0.975012 20.6249 0.637512 20.0999 0.637512 19.4624V5.3249C0.637512 4.0499 1.68751 2.9624 3.00001 2.9624H15.825C19.9875 2.9624 23.3625 6.3374 23.3625 10.4999C23.3625 14.6624 19.9875 18.0374 15.825 18.0374H6.41251L3.22501 20.6624C2.92501 20.8874 2.58751 21.0374 2.21251 21.0374ZM3.00001 4.6499C2.62501 4.6499 2.32501 4.9499 2.32501 5.3249V19.1999L5.55001 16.5374C5.70001 16.4249 5.88751 16.3499 6.07501 16.3499H15.7875C19.0125 16.3499 21.6375 13.7249 21.6375 10.4999C21.6375 7.2749 19.0125 4.6499 15.7875 4.6499H3.00001Z" fill="#161A23"/>
</svg>
