<svg width="24" height="24" viewBox="0 0 24 24" fill="none" xmlns="http://www.w3.org/2000/svg">
<path d="M14.6624 9.67498H12.8249V7.83748C12.8249 7.38748 12.4499 6.97498 11.9624 6.97498C11.5124 6.97498 11.0999 7.34998 11.0999 7.83748V9.67498H9.2624C8.8124 9.67498 8.3999 10.05 8.3999 10.5375C8.3999 11.025 8.7749 11.4 9.2624 11.4H11.0999V13.2375C11.0999 13.6875 11.4749 14.1 11.9624 14.1C12.4124 14.1 12.8249 13.725 12.8249 13.2375V11.4H14.6624C15.1124 11.4 15.5249 11.025 15.5249 10.5375C15.5249 10.05 15.1499 9.67498 14.6624 9.67498Z" fill="#161A23"/>
<path d="M20.9999 2.96252H2.99995C1.72495 2.96252 0.637451 4.01252 0.637451 5.32502V19.4625C0.637451 20.0625 0.974951 20.625 1.53745 20.8875C1.76245 21 1.98745 21.0375 2.21245 21.0375C2.58745 21.0375 2.92495 20.925 3.22495 20.6625L6.41245 18.0375H20.9999C22.275 18.0375 23.3624 16.9875 23.3624 15.675V5.32502C23.3624 4.01252 22.275 2.96252 20.9999 2.96252ZM21.6749 15.675C21.6749 16.05 21.3749 16.35 20.9999 16.35H6.11245C5.92495 16.35 5.73745 16.425 5.58745 16.5375L2.36245 19.2V5.32502C2.36245 4.95002 2.66245 4.65002 3.03745 4.65002H21.0374C21.4124 4.65002 21.7125 4.95002 21.7125 5.32502V15.675H21.6749Z" fill="#161A23"/>
</svg>
