<svg width="24" height="24" viewBox="0 0 24 24" fill="none" xmlns="http://www.w3.org/2000/svg">
<path d="M12 11.325C13.35 11.325 14.4375 10.2375 14.4375 8.88745C14.4375 7.53745 13.35 6.44995 12 6.44995C10.65 6.44995 9.5625 7.53745 9.5625 8.88745C9.5625 10.2375 10.65 11.325 12 11.325ZM12 8.17495C12.4125 8.17495 12.75 8.51245 12.75 8.92495C12.75 9.33745 12.4125 9.67495 12 9.67495C11.5875 9.67495 11.25 9.33745 11.25 8.92495C11.25 8.51245 11.5875 8.17495 12 8.17495Z" fill="#161A23"/>
<path d="M12 11.6624C10.5 11.6624 9.07501 12.1874 7.98751 13.1249C7.65001 13.4249 7.57501 13.9499 7.87501 14.3249C8.02501 14.5124 8.28751 14.6249 8.51251 14.6249C8.70001 14.6249 8.88751 14.5499 9.07501 14.4374C9.90001 13.7624 10.9125 13.3874 12 13.3874C13.0875 13.3874 14.1375 13.7624 14.925 14.4374C15.2625 14.7374 15.825 14.6999 16.125 14.3249C16.425 13.9874 16.3875 13.4249 16.0125 13.1249C14.925 12.1499 13.5 11.6624 12 11.6624Z" fill="#161A23"/>
<path d="M15.825 2.9624H3.00001C1.72501 2.9624 0.637512 4.0124 0.637512 5.3249V19.4624C0.637512 20.0624 0.975012 20.6249 1.53751 20.8874C1.76251 20.9999 1.98751 21.0374 2.21251 21.0374C2.58751 21.0374 2.92501 20.9249 3.22501 20.6624L6.41251 18.0374H15.825C19.9875 18.0374 23.3625 14.6624 23.3625 10.4999C23.3625 6.3374 19.95 2.9624 15.825 2.9624ZM15.825 16.3499H6.11251C5.92501 16.3499 5.73751 16.4249 5.58751 16.5374L2.36251 19.1999V5.3249C2.36251 4.9499 2.66251 4.6499 3.03751 4.6499H15.8625C19.0875 4.6499 21.7125 7.2749 21.7125 10.4999C21.675 13.7249 19.05 16.3499 15.825 16.3499Z" fill="#161A23"/>
</svg>
