<svg width="23" height="23" viewBox="0 0 23 23" fill="none" xmlns="http://www.w3.org/2000/svg">
<path d="M5.8625 10C5.375 10 5 10.375 5 10.8625C5 11.3125 5.375 11.725 5.8625 11.725C6.35 11.725 6.725 11.35 6.725 10.8625C6.6875 10.375 6.3125 10 5.8625 10Z" fill="#161A23"/>
<path d="M10.8625 10C10.375 10 10 10.375 10 10.8625C10 11.3125 10.375 11.725 10.8625 11.725C11.3125 11.725 11.725 11.35 11.725 10.8625C11.725 10.375 11.3125 10 10.8625 10Z" fill="#161A23"/>
<path d="M15.6875 10C15.2 10 14.825 10.375 14.825 10.8625C14.825 11.3125 15.2 11.725 15.6875 11.725C16.175 11.725 16.55 11.35 16.55 10.8625C16.55 10.375 16.175 10 15.6875 10Z" fill="#161A23"/>
<path d="M19.0409 3.25665C16.6784 0.856652 13.3784 -0.305848 10.0409 0.0691516C4.82837 0.594152 0.703372 4.75665 0.140872 9.93165C-0.084128 12.3317 0.403372 14.6567 1.60337 16.6817L0.103372 20.5817C-0.121628 21.1067 0.028372 21.7442 0.478372 22.1192C0.740872 22.3442 1.07837 22.4942 1.41587 22.4942C1.64087 22.4942 1.82837 22.4567 2.05337 22.3442L5.46587 20.6192C7.52837 21.8567 9.85337 22.3817 12.2909 22.1567C17.5409 21.6692 21.7409 17.5067 22.2659 12.2192C22.6034 8.88165 21.4409 5.61915 19.0409 3.25665ZM20.5784 12.0692C20.1284 16.5317 16.5659 20.0567 12.1034 20.4692C9.89087 20.6942 7.79087 20.1317 5.95337 18.9317C5.80337 18.8192 5.65337 18.7817 5.50337 18.7817C5.39087 18.7817 5.24087 18.8192 5.12837 18.8567L1.94087 20.4317L3.32837 16.8317C3.44087 16.5692 3.40337 16.3067 3.25337 16.0817C2.09087 14.2817 1.60337 12.1817 1.82837 10.0067C2.27837 5.69415 5.80337 2.20665 10.1909 1.75665C13.0409 1.45665 15.8534 2.43165 17.8409 4.45665C19.8659 6.44415 20.8784 9.21915 20.5784 12.0692Z" fill="#161A23"/>
</svg>
