<svg width="24" height="24" viewBox="0 0 24 24" fill="none" xmlns="http://www.w3.org/2000/svg">
<path d="M21.075 2.73755H2.92499C1.68749 2.73755 0.674988 3.75005 0.674988 4.98755V15.4501C0.674988 16.6876 1.68749 17.7001 2.92499 17.7001H8.32499L11.325 21.0001C11.475 21.1876 11.7 21.2626 11.9625 21.2626C12.1875 21.2626 12.4125 21.1501 12.6 21.0001L15.675 17.6625H21.1125C22.35 17.6625 23.3625 16.65 23.3625 15.4125V4.98755C23.3625 3.75005 22.3125 2.73755 21.075 2.73755ZM21.675 15.4125C21.675 15.7125 21.4125 15.975 21.1125 15.975H15.2625C15.0375 15.975 14.8125 16.0876 14.625 16.2375L11.925 19.1625L9.29999 16.2751C9.14999 16.0876 8.92499 16.0126 8.66249 16.0126H2.92499C2.62499 16.0126 2.36249 15.7501 2.36249 15.4501V4.98755C2.36249 4.68755 2.62499 4.42505 2.92499 4.42505H21.075C21.375 4.42505 21.6375 4.68755 21.6375 4.98755V15.4125H21.675Z" fill="#161A23"/>
<path d="M14.475 7.83761L10.7625 11.5501L9.52496 10.3126C9.18746 9.97511 8.66246 9.97511 8.32496 10.3126C7.98746 10.6501 7.98746 11.1751 8.32496 11.5126L10.1625 13.3126C10.3125 13.4626 10.5375 13.5751 10.7625 13.5751C10.9875 13.5751 11.2125 13.5001 11.3625 13.3126L15.675 9.00011C16.0125 8.66261 16.0125 8.13761 15.675 7.80011C15.3375 7.50011 14.8125 7.50011 14.475 7.83761Z" fill="#161A23"/>
</svg>
