<svg width="24" height="24" viewBox="0 0 24 24" fill="none" xmlns="http://www.w3.org/2000/svg">
<path d="M7.2375 7.65005H14.0625C14.5125 7.65005 14.925 7.27505 14.925 6.78755C14.925 6.30005 14.55 5.92505 14.0625 5.92505H7.2375C6.7875 5.92505 6.375 6.30005 6.375 6.78755C6.375 7.27505 6.75 7.65005 7.2375 7.65005Z" fill="#161A23"/>
<path d="M16.7625 9.26245H7.2375C6.7875 9.26245 6.375 9.63745 6.375 10.125C6.375 10.6125 6.75 10.9875 7.2375 10.9875H16.7625C17.2125 10.9875 17.625 10.6125 17.625 10.125C17.625 9.63745 17.25 9.26245 16.7625 9.26245Z" fill="#161A23"/>
<path d="M12 12.5625H7.2375C6.7875 12.5625 6.375 12.9375 6.375 13.425C6.375 13.9125 6.75 14.2875 7.2375 14.2875H12C12.45 14.2875 12.8625 13.9125 12.8625 13.425C12.8625 12.9375 12.45 12.5625 12 12.5625Z" fill="#161A23"/>
<path d="M21.075 2.73755H2.92499C1.68749 2.73755 0.674988 3.75005 0.674988 4.98755V15.4501C0.674988 16.6876 1.68749 17.7001 2.92499 17.7001H8.32499L11.325 21.0001C11.475 21.1876 11.7 21.2626 11.9625 21.2626C12.1875 21.2626 12.4125 21.1501 12.6 21.0001L15.675 17.6625H21.1125C22.35 17.6625 23.3625 16.65 23.3625 15.4125V4.98755C23.3625 3.75005 22.3125 2.73755 21.075 2.73755ZM21.675 15.4125C21.675 15.7125 21.4125 15.975 21.1125 15.975H15.2625C15.0375 15.975 14.8125 16.0876 14.625 16.2375L11.925 19.1625L9.29999 16.2751C9.14999 16.0876 8.92499 16.0126 8.66249 16.0126H2.92499C2.62499 16.0126 2.36249 15.7501 2.36249 15.4501V4.98755C2.36249 4.68755 2.62499 4.42505 2.92499 4.42505H21.075C21.375 4.42505 21.6375 4.68755 21.6375 4.98755V15.4125H21.675Z" fill="#161A23"/>
</svg>
