<svg width="24" height="24" viewBox="0 0 24 24" fill="none" xmlns="http://www.w3.org/2000/svg">
<g clip-path="url(#clip0_501_45249)">
<path d="M19.875 4.01251C17.5125 1.61251 14.2125 0.450011 10.875 0.825011C5.66251 1.35001 1.53751 5.51251 0.975009 10.6875C0.750009 13.0875 1.23751 15.4125 2.43751 17.4375L0.937509 21.3375C0.712509 21.8625 0.862509 22.5 1.31251 22.875C1.57501 23.1 1.91251 23.25 2.25001 23.25C2.47501 23.25 2.66251 23.2125 2.88751 23.1L6.30001 21.375C8.36251 22.6125 10.6875 23.1375 13.125 22.9125C18.375 22.425 22.575 18.2625 23.1 12.975C23.4375 9.63751 22.275 6.37501 19.875 4.01251ZM21.4125 12.825C20.9625 17.2875 17.4 20.8125 12.9375 21.225C10.725 21.45 8.62501 20.8875 6.78751 19.6875C6.63751 19.575 6.48751 19.5375 6.33751 19.5375C6.22501 19.5375 6.07501 19.575 5.96251 19.6125L2.77501 21.1875L4.16251 17.5875C4.27501 17.325 4.23751 17.0625 4.08751 16.8375C2.92501 15.0375 2.43751 12.9375 2.66251 10.7625C3.11251 6.45001 6.63751 2.96251 11.025 2.51251C13.875 2.21251 16.6875 3.18751 18.675 5.21251C20.7 7.20001 21.7125 9.97501 21.4125 12.825Z" fill="#161A23"/>
<path d="M8.88752 8.96255H14.4375C14.8875 8.96255 15.3 8.58755 15.3 8.10005C15.3 7.61255 14.925 7.23755 14.4375 7.23755H8.88752C8.43752 7.23755 8.02502 7.61255 8.02502 8.10005C8.02502 8.58755 8.43752 8.96255 8.88752 8.96255Z" fill="#161A23"/>
<path d="M16.65 11.1375H8.88752C8.43752 11.1375 8.02502 11.5125 8.02502 12C8.02502 12.4875 8.40002 12.825 8.88752 12.825H16.65C17.1 12.825 17.5125 12.45 17.5125 12C17.5125 11.55 17.1 11.1375 16.65 11.1375Z" fill="#161A23"/>
<path d="M12.7875 15.0376H8.88752C8.43752 15.0376 8.02502 15.4126 8.02502 15.9001C8.02502 16.3876 8.40002 16.7626 8.88752 16.7626H12.75C13.2 16.7626 13.6125 16.3876 13.6125 15.9001C13.6125 15.4126 13.2375 15.0376 12.7875 15.0376Z" fill="#161A23"/>
</g>
<defs>
<clipPath id="clip0_501_45249">
<rect width="24" height="24" fill="white"/>
</clipPath>
</defs>
</svg>
