<svg width="24" height="24" viewBox="0 0 24 24" fill="none" xmlns="http://www.w3.org/2000/svg">
<path d="M23.3625 4.425C23.3625 3.15 22.3125 2.0625 21 2.0625H3.00001C1.72501 2.0625 0.637512 3.1125 0.637512 4.425V9.075C0.637512 9.6375 0.825012 10.1625 1.16251 10.575C0.825012 10.9875 0.637512 11.475 0.637512 12.0375V16.8C0.637512 18.075 1.65001 19.0875 2.92501 19.0875H14.1C14.55 19.0875 14.9625 18.7125 14.9625 18.225C14.9625 17.7375 14.5875 17.3625 14.1 17.3625H2.96251C2.62501 17.3625 2.36251 17.1 2.36251 16.7625V12.0375C2.36251 11.7 2.62501 11.4375 2.96251 11.4375H3.00001H21H21.0375C21.375 11.4375 21.6375 11.7 21.6375 12.0375V15.375C21.6375 15.825 22.0125 16.2375 22.5 16.2375C22.9875 16.2375 23.3625 15.8625 23.3625 15.375V12.075C23.3625 11.5125 23.175 11.025 22.8375 10.6125C23.175 10.2 23.3625 9.675 23.3625 9.1125V4.425ZM3.00001 9.75C2.62501 9.75 2.32501 9.45 2.32501 9.075V4.425C2.32501 4.05 2.62501 3.75 3.00001 3.75H21C21.375 3.75 21.675 4.05 21.675 4.425V9.075C21.675 9.45 21.375 9.75 21 9.75H3.00001Z" fill="#161A23"/>
<path d="M6.03752 5.8501C5.58752 5.8501 5.17502 6.2251 5.17502 6.7126V6.7501C5.17502 7.2001 5.55002 7.6126 6.03752 7.6126C6.52502 7.6126 6.90002 7.2376 6.90002 6.7501V6.6751C6.90002 6.2251 6.52502 5.8501 6.03752 5.8501Z" fill="#161A23"/>
<path d="M18.7875 5.88745H16.35C15.9 5.88745 15.4875 6.26245 15.4875 6.74995C15.4875 7.23745 15.8625 7.61245 16.35 7.61245H18.7875C19.2375 7.61245 19.65 7.23745 19.65 6.74995C19.65 6.26245 19.275 5.88745 18.7875 5.88745Z" fill="#161A23"/>
<path d="M5.21252 14.3625V14.4375C5.21252 14.8875 5.58752 15.3 6.07502 15.3C6.56252 15.3 6.93752 14.925 6.93752 14.4375V14.3625C6.93752 13.9125 6.56252 13.5 6.07502 13.5C5.58752 13.5 5.21252 13.875 5.21252 14.3625Z" fill="#161A23"/>
<path d="M21.2625 17.8125L18.675 19.875L18.075 19.05C17.8125 18.675 17.2875 18.6 16.9125 18.8625C16.5375 19.125 16.4625 19.65 16.725 20.025L17.85 21.5625C18 21.75 18.1875 21.8625 18.4125 21.9C18.45 21.9 18.4875 21.9 18.525 21.9C18.7125 21.9 18.9 21.825 19.05 21.7125L22.35 19.125C22.725 18.825 22.7625 18.3 22.5 17.925C22.1625 17.5875 21.6375 17.5125 21.2625 17.8125Z" fill="#161A23"/>
</svg>
