<svg width="24" height="24" viewBox="0 0 24 24" fill="none" xmlns="http://www.w3.org/2000/svg">
<path d="M23.1 3.30002C22.7625 2.96252 22.2375 2.96252 21.9 3.30002L20.55 4.65002V4.38752C20.55 3.11252 19.5 2.02502 18.1875 2.02502H3.00001C1.72501 2.02502 0.637512 3.07502 0.637512 4.38752V19.6125C0.637512 20.8875 1.68751 21.975 3.00001 21.975H18.225C19.5 21.975 20.5875 20.925 20.5875 19.6125V7.05002L23.1375 4.50002C23.4375 4.16252 23.4375 3.63752 23.1 3.30002ZM18.8625 19.6125C18.8625 19.9875 18.5625 20.2875 18.1875 20.2875H3.00001C2.62501 20.2875 2.32501 19.9875 2.32501 19.6125V4.38752C2.36251 4.05002 2.62501 3.75002 3.00001 3.75002H18.225C18.6 3.75002 18.9 4.05002 18.9 4.42502V6.37502L15.0375 10.2L12.7125 7.87502C12.375 7.53752 11.85 7.53752 11.5125 7.87502C11.175 8.21252 11.175 8.73752 11.5125 9.07502L14.4375 12C14.4375 12 14.475 12.0375 14.5125 12.0375C14.55 12.075 14.55 12.075 14.5875 12.1125C14.625 12.1125 14.625 12.15 14.6625 12.15C14.7 12.15 14.7 12.1875 14.7375 12.1875C14.775 12.1875 14.8125 12.225 14.85 12.225C14.8875 12.225 14.8875 12.225 14.925 12.225C14.9625 12.225 15.0375 12.225 15.075 12.225C15.1125 12.225 15.1875 12.225 15.225 12.225C15.2625 12.225 15.3 12.1875 15.375 12.1875C15.375 12.1875 15.375 12.1875 15.4125 12.1875C15.45 12.1875 15.4875 12.15 15.525 12.1125C15.525 12.1125 15.5625 12.1125 15.5625 12.075C15.6 12.0375 15.6375 12.0375 15.675 12L18.9 8.77502V19.6125H18.8625Z" fill="#161A23"/>
</svg>
