<svg width="23" height="23" viewBox="0 0 23 23" fill="none" xmlns="http://www.w3.org/2000/svg">
<path d="M9.73952 13.3635L7.30466 10.9286C7.09703 10.721 6.83278 10.6172 6.5119 10.6172C6.19102 10.6172 5.92676 10.721 5.71914 10.9286C5.51151 11.1363 5.40771 11.4005 5.40771 11.7214C5.40771 12.0423 5.51151 12.3065 5.71914 12.5141L8.94679 15.7417C9.17328 15.9682 9.43753 16.0815 9.73952 16.0815C10.0415 16.0815 10.3058 15.9682 10.5323 15.7417L16.9309 9.34312C17.1386 9.13549 17.2424 8.87126 17.2424 8.55037C17.2424 8.22949 17.1386 7.96526 16.9309 7.75762C16.7233 7.54999 16.459 7.44619 16.1382 7.44619C15.8173 7.44619 15.5531 7.54999 15.3454 7.75762L9.73952 13.3635ZM11.325 22.65C9.75841 22.65 8.28615 22.3527 6.90828 21.7582C5.53038 21.1636 4.33183 20.3567 3.31258 19.3374C2.29332 18.3182 1.48641 17.1196 0.891847 15.7417C0.297283 14.3639 0 12.8916 0 11.325C0 9.75837 0.297283 8.28612 0.891847 6.90825C1.48641 5.53038 2.29332 4.33181 3.31258 3.31256C4.33183 2.29331 5.53038 1.48641 6.90828 0.891844C8.28615 0.297281 9.75841 0 11.325 0C12.8917 0 14.3639 0.297281 15.7418 0.891844C17.1197 1.48641 18.3183 2.29331 19.3375 3.31256C20.3568 4.33181 21.1637 5.53038 21.7582 6.90825C22.3528 8.28612 22.65 9.75837 22.65 11.325C22.65 12.8916 22.3528 14.3639 21.7582 15.7417C21.1637 17.1196 20.3568 18.3182 19.3375 19.3374C18.3183 20.3567 17.1197 21.1636 15.7418 21.7582C14.3639 22.3527 12.8917 22.65 11.325 22.65Z" fill="#5D6068"/>
</svg>
