<svg width="21" height="21" viewBox="0 0 21 21" fill="none" xmlns="http://www.w3.org/2000/svg">
<path d="M14.6114 19.119C10.1114 21.119 5.67109 19.5589 4.1605 18.119C3.86149 17.834 2.37569 17.1478 1.11136 14.619C-1.38853 9.61904 1.02765 5.78678 1.61144 4.61904C2.61147 3.11904 3.55936 2.40942 4.51407 1.81274C10.171 -1.72275 13.816 0.832092 15.7321 1.81274C16.7343 2.32566 18.0225 3.80677 18.6562 4.61904C20.8653 7.45071 20.5707 13.119 18.1114 16.119C17.2857 17.1262 15.7321 18.6209 14.6114 19.119ZM4.51407 3.11904C4.24052 3.30563 3.33507 4.17183 3.11147 4.61904C2.61147 5.61904 -0.888643 9.61904 2.61136 15.119C2.78913 15.3984 4.11147 17.119 4.61147 17.119C9.61147 21.119 14.6114 18.119 15.7321 17.119C15.9792 16.8986 16.8519 15.9527 17.1114 15.619C20.6114 11.119 18.6562 6.05542 16.8329 4.23208C16.5988 3.99794 16.471 3.8702 16.2369 3.63606C15.8278 3.227 11.1115 -1.38096 4.51407 3.11904Z" fill="#D5D8DD"/>
</svg>
