<svg width="23" height="23" viewBox="0 0 23 23" fill="none" xmlns="http://www.w3.org/2000/svg">
<path d="M11.325 0C5.0625 0 0 5.0625 0 11.325C0 17.5875 5.0625 22.6875 11.325 22.6875C17.5875 22.6875 22.6875 17.5875 22.6875 11.325C22.6875 5.0625 17.5875 0 11.325 0ZM11.325 21C6 21 1.6875 16.65 1.6875 11.325C1.6875 6 6 1.6875 11.325 1.6875C16.65 1.6875 21 6.0375 21 11.3625C21 16.65 16.65 21 11.325 21Z" fill="#161A23"/>
<path d="M14.5501 7.83752L10.0876 12.1875L8.06256 10.2C7.72506 9.86252 7.20006 9.90002 6.86256 10.2C6.52506 10.5375 6.56256 11.0625 6.86256 11.4L9.26256 13.725C9.48756 13.95 9.78756 14.0625 10.0876 14.0625C10.3876 14.0625 10.6876 13.95 10.9126 13.725L15.7501 9.07502C16.0876 8.73752 16.0876 8.21252 15.7501 7.87502C15.4126 7.53752 14.8876 7.53752 14.5501 7.83752Z" fill="#161A23"/>
</svg>
