<svg width="22" height="21" viewBox="0 0 22 21" fill="none" xmlns="http://www.w3.org/2000/svg">
<path d="M15.4999 19.119C10.9999 21.119 6.55964 19.5589 5.04905 18.119C4.75004 17.834 3.26424 17.1478 1.99991 14.619C-0.499983 9.61904 1.9162 5.78678 2.49999 4.61904C3.50002 3.11904 4.44791 2.40942 5.40262 1.81274C11.0595 -1.72275 14.7045 0.832092 16.6206 1.81274C17.6228 2.32566 18.9111 3.80677 19.5448 4.61904C21.7539 7.45071 21.4593 13.119 18.9999 16.119C18.1742 17.1262 16.6207 18.6209 15.4999 19.119ZM5.40262 3.11904C5.12907 3.30563 4.22362 4.17183 4.00002 4.61904C3.50002 5.61904 -9.27448e-05 9.61904 3.49991 15.119C3.67768 15.3984 5.00002 17.119 5.50002 17.119C10.5 21.119 15.4999 18.119 16.6206 17.119C16.8677 16.8986 17.7404 15.9527 17.9999 15.619C21.4999 11.119 19.5448 6.05542 17.7215 4.23208C17.4873 3.99794 17.3596 3.8702 17.1254 3.63606C16.7164 3.227 12 -1.38096 5.40262 3.11904Z" fill="#0047BA"/>
<circle cx="11" cy="10" r="5" fill="#0047BA"/>
</svg>
