<svg width="24" height="24" viewBox="0 0 24 24" fill="none" xmlns="http://www.w3.org/2000/svg">
<path d="M18.6375 18.9C18.6375 19.275 18.3375 19.5751 17.9625 19.5751H4.16249C3.78749 19.5751 3.48749 19.275 3.48749 18.9V5.10005C3.48749 4.72505 3.78749 4.42505 4.16249 4.42505H16.6875L18.1875 2.73755C18.1125 2.73755 18.075 2.73755 18 2.73755H4.16249C2.88749 2.73755 1.79999 3.78755 1.79999 5.10005V18.9375C1.79999 20.25 2.84999 21.3 4.16249 21.3H18C19.275 21.3 20.3625 20.25 20.3625 18.9375V5.43755L18.675 7.31255V18.9H18.6375Z" fill="#161A23"/>
<path d="M21.675 1.38755C21.3375 1.08755 20.8125 1.08755 20.475 1.46255L19.0875 3.00005L17.8125 4.42505L10.65 12.4501L7.08751 9.18755C6.75001 8.88755 6.22501 8.88755 5.88751 9.22505C5.58751 9.56255 5.58751 10.0876 5.92501 10.425L10.125 14.25C10.275 14.4001 10.5 14.475 10.6875 14.475H10.725C10.95 14.475 11.175 14.3626 11.325 14.2126L18.6375 6.03755L20.175 4.31255L21.75 2.55005C22.05 2.21255 22.05 1.68755 21.675 1.38755Z" fill="#161A23"/>
</svg>
