<svg width="24" height="24" viewBox="0 0 24 24" fill="none" xmlns="http://www.w3.org/2000/svg">
<path d="M17.025 9.56243V4.53743V4.49993C17.025 2.21243 12.9 1.04993 8.84999 1.04993C4.76249 1.01243 0.674988 2.21243 0.674988 4.49993V13.6874C0.674988 15.9749 4.79999 17.1749 8.84999 17.1749C9.22499 17.1749 9.63749 17.1749 10.0125 17.1374C10.425 20.4374 13.2375 22.9874 16.65 22.9874C20.3625 22.9874 23.3625 19.9874 23.3625 16.2749C23.3625 12.6749 20.55 9.78743 17.025 9.56243ZM2.36249 6.67492C3.93749 7.49992 6.41249 7.94993 8.84999 7.94993C11.2875 7.94993 13.7625 7.49992 15.3375 6.67492V7.79992C15.3 8.32492 13.05 9.56243 8.84999 9.56243C4.64999 9.56243 2.36249 8.28743 2.36249 7.79992V6.67492ZM8.84999 2.69993C13.05 2.69993 15.3375 3.97493 15.3375 4.46242C15.3 4.98743 13.05 6.22493 8.84999 6.22493C4.64999 6.22493 2.36249 4.94992 2.36249 4.46242C2.36249 3.97493 4.61249 2.69993 8.84999 2.69993ZM2.36249 9.97493C3.89999 10.7999 6.37499 11.2499 8.84999 11.2499C10.1625 11.2499 11.475 11.1374 12.675 10.8749C12.1125 11.2874 11.625 11.7749 11.2125 12.3749C10.4625 12.4874 9.67499 12.5249 8.84999 12.5249C4.64999 12.5249 2.36249 11.2499 2.36249 10.7624V9.97493ZM2.36249 13.6874V12.9374C3.93749 13.7624 6.41249 14.2124 8.84999 14.2124C9.33749 14.2124 9.82499 14.2124 10.275 14.1749C10.125 14.5874 10.05 14.9999 9.97499 15.4499C9.59999 15.4874 9.22499 15.4874 8.81249 15.4874C4.57499 15.4499 2.36249 14.1374 2.36249 13.6874ZM16.65 21.2999C13.875 21.2999 11.625 19.0499 11.625 16.2749C11.625 13.4999 13.875 11.2499 16.65 11.2499C19.425 11.2499 21.675 13.4999 21.675 16.2749C21.675 19.0499 19.3875 21.2999 16.65 21.2999Z" fill="#161A23"/>
<path d="M18.4125 14.2499L16.0125 16.6499L14.85 15.4874C14.5125 15.1499 13.9875 15.1499 13.65 15.4874C13.3125 15.8249 13.3125 16.3499 13.65 16.6874L15.4125 18.4499C15.5625 18.5999 15.7875 18.7124 16.0125 18.7124C16.2375 18.7124 16.4625 18.6374 16.6125 18.4499L19.6125 15.4499C19.95 15.1124 19.95 14.5874 19.6125 14.2499C19.275 13.9499 18.75 13.9499 18.4125 14.2499Z" fill="#161A23"/>
</svg>
