<svg width="24" height="24" viewBox="0 0 24 24" fill="none" xmlns="http://www.w3.org/2000/svg">
<path d="M20.775 9.7876H11.775C11.325 9.7876 10.95 10.1626 10.95 10.6126C10.95 11.0626 11.325 11.4376 11.775 11.4376H20.775C21.2624 11.4376 21.6374 11.8126 21.6374 12.3001V19.9876C21.6374 20.4751 21.2624 20.8501 20.775 20.8501H5.02495C4.53745 20.8501 4.16245 20.4751 4.16245 19.9876V15.4876C4.16245 15.0376 3.78745 14.6626 3.33745 14.6626C2.88745 14.6626 2.51245 15.0376 2.51245 15.4876V20.0251C2.51245 21.4501 3.67495 22.5751 5.06245 22.5751H20.8124C22.2374 22.5751 23.3624 21.4126 23.3624 20.0251V12.3376C23.3249 10.9501 22.1999 9.7876 20.775 9.7876Z" fill="#161A23"/>
<path d="M5.66256 15.1126L8.66256 17.3251C8.81256 17.4376 9.00006 17.4751 9.15006 17.4751C9.26256 17.4751 9.37506 17.4376 9.52506 17.4001C9.78756 17.2876 9.97506 16.9876 10.0126 16.6876L10.2751 12.9751C10.2751 12.8251 10.2751 12.6751 10.2001 12.5626L5.70006 2.88756C5.40006 2.28756 4.91256 1.80006 4.27506 1.57506C3.60006 1.35006 2.92506 1.35006 2.28756 1.65006L2.13756 1.72506C0.862561 2.32506 0.300061 3.82506 0.900061 5.10006L5.40006 14.7751C5.47506 14.9251 5.55006 15.0376 5.66256 15.1126ZM8.43756 15.0376L6.82506 13.8751L3.41256 6.56256L5.13756 5.73756L8.55006 13.0876L8.43756 15.0376ZM2.85006 3.26256L3.00006 3.18756C3.22506 3.07506 3.45006 3.07506 3.67506 3.15006C3.90006 3.22506 4.05006 3.37506 4.16256 3.60006L4.42506 4.20006L2.70006 5.02506L2.43756 4.42506C2.21256 3.97506 2.40006 3.45006 2.85006 3.26256Z" fill="#161A23"/>
<path d="M18.975 15.3751C19.425 15.3751 19.8 15.0001 19.8 14.5501C19.8 14.1001 19.425 13.7251 18.975 13.7251H15.375C14.925 13.7251 14.55 14.1001 14.55 14.5501C14.55 15.0001 14.925 15.3751 15.375 15.3751H18.975Z" fill="#161A23"/>
<path d="M11.7 17.9251C11.7 18.3751 12.075 18.7501 12.525 18.7501H18.975C19.425 18.7501 19.8 18.3751 19.8 17.9251C19.8 17.4751 19.425 17.1001 18.975 17.1001H12.525C12.075 17.1001 11.7 17.4751 11.7 17.9251Z" fill="#161A23"/>
</svg>
