<svg width="24" height="24" viewBox="0 0 24 24" fill="none" xmlns="http://www.w3.org/2000/svg">
<path d="M20.9626 8.2876H13.05V7.8751C13.05 5.7376 11.2875 3.9751 9.15005 3.9751H3.03755C1.72505 3.9751 0.675049 5.0251 0.675049 6.3376V13.2751C0.675049 14.5876 1.72505 15.6376 3.03755 15.6376H4.16255V18.0751C4.16255 19.1626 5.06255 20.0251 6.11255 20.0251H7.01255H20.9626C22.2751 20.0251 23.3251 18.9751 23.3251 17.6626V10.6501C23.3251 9.3376 22.2751 8.2876 20.9626 8.2876ZM3.03755 13.9501C2.66255 13.9501 2.36255 13.6501 2.36255 13.2751V6.3376C2.36255 5.9626 2.66255 5.6626 3.03755 5.6626H9.15005C10.3875 5.6626 11.3625 6.6376 11.3625 7.8751V14.1001C11.1375 14.0251 10.8751 13.9876 10.5751 13.9876H8.88755H4.16255H3.03755V13.9501ZM5.85005 18.0751V15.6376H8.88755H10.5751C10.9875 15.6376 11.3625 15.9751 11.3625 16.4251V17.5876C11.3625 18.0001 11.0251 18.3751 10.5751 18.3751H6.11255C5.96255 18.3376 5.85005 18.2251 5.85005 18.0751ZM21.6751 17.6626C21.6751 18.0376 21.3751 18.3376 21.0001 18.3376H12.9001C12.9751 18.0751 13.0126 17.8501 13.0126 17.5501V9.9751H20.9626C21.3376 9.9751 21.6376 10.2751 21.6376 10.6501V17.6626H21.6751Z" fill="#161A23"/>
<path d="M15.6374 13.2H18.0374C18.4874 13.2 18.8624 12.825 18.8624 12.375C18.8624 11.925 18.4874 11.55 18.0374 11.55H15.6374C15.1874 11.55 14.8124 11.925 14.8124 12.375C14.7749 12.7875 15.1874 13.2 15.6374 13.2Z" fill="#161A23"/>
<path d="M19.1251 14.55H15.6001C15.1501 14.55 14.7751 14.925 14.7751 15.375C14.7751 15.825 15.1501 16.2 15.6001 16.2H19.1251C19.5751 16.2 19.9501 15.825 19.9501 15.375C19.9501 14.925 19.5751 14.55 19.1251 14.55Z" fill="#161A23"/>
</svg>
