<svg width="24" height="24" viewBox="0 0 24 24" fill="none" xmlns="http://www.w3.org/2000/svg">
<path d="M21.975 2.6625L21.825 2.5875C20.625 2.025 19.2 2.55 18.6375 3.75L15.75 9.9375H3.03751C1.72501 9.9375 0.637512 11.025 0.637512 12.3375V19.275C0.637512 20.5875 1.72501 21.675 3.03751 21.675H17.25C18.5625 21.675 19.65 20.5875 19.65 19.275V13.275L23.1375 5.85C23.6625 4.65 23.175 3.225 21.975 2.6625ZM21.1125 4.125L21.2625 4.2C21.6 4.35 21.75 4.7625 21.6 5.1375L21.375 5.5875L19.95 4.9125L20.175 4.425C20.325 4.125 20.7375 3.975 21.1125 4.125ZM17.625 13.65L16.3125 14.5875L16.2 12.975L19.2375 6.45L20.6625 7.125L17.625 13.65ZM17.25 19.95H3.03751C2.66251 19.95 2.32501 19.65 2.32501 19.2375V12.3C2.32501 11.925 2.62501 11.5875 3.03751 11.5875H14.9625L14.55 12.45C14.475 12.5625 14.475 12.7125 14.475 12.8625L14.7 16.2375C14.7375 16.5375 14.925 16.8 15.1875 16.95C15.3 16.9875 15.4125 17.025 15.5625 17.025C15.75 17.025 15.9 16.9875 16.05 16.875L17.9625 15.4875V19.2375C17.9625 19.6125 17.6625 19.95 17.25 19.95Z" fill="#161A23"/>
<path d="M11.5125 13.425H4.68752C4.23752 13.425 3.86252 13.8 3.86252 14.25C3.86252 14.7 4.23752 15.075 4.68752 15.075H11.55C12 15.075 12.375 14.7 12.375 14.25C12.375 13.8 12 13.425 11.5125 13.425Z" fill="#161A23"/>
<path d="M10.5 16.5H4.68752C4.23752 16.5 3.86252 16.875 3.86252 17.325C3.86252 17.775 4.23752 18.15 4.68752 18.15H10.5C10.95 18.15 11.325 17.775 11.325 17.325C11.325 16.875 10.95 16.5 10.5 16.5Z" fill="#161A23"/>
</svg>
