<svg width="24" height="24" viewBox="0 0 24 24" fill="none" xmlns="http://www.w3.org/2000/svg">
<g clip-path="url(#clip0_501_41550)">
<path d="M12 0.674988C5.73755 0.674988 0.675049 5.73749 0.675049 12C0.675049 18.2625 5.73755 23.3625 12 23.3625C18.2626 23.3625 23.3625 18.2625 23.3625 12C23.3625 5.73749 18.2626 0.674988 12 0.674988ZM12 21.675C6.67505 21.675 2.36255 17.325 2.36255 12C2.36255 6.67499 6.67505 2.36249 12 2.36249C17.325 2.36249 21.675 6.71249 21.675 12.0375C21.675 17.325 17.325 21.675 12 21.675Z" fill="#161A23"/>
<path d="M10.125 6.33748C9.7875 5.99998 9.2625 5.99998 8.925 6.33748C8.5875 6.67498 8.5875 7.19998 8.925 7.53748L13.3125 12L8.925 16.4625C8.5875 16.8 8.5875 17.325 8.925 17.6625C9.075 17.8125 9.3 17.8875 9.525 17.8875C9.75 17.8875 9.975 17.8125 10.125 17.625L15.1125 12.5625C15.45 12.225 15.45 11.7 15.1125 11.3625L10.125 6.33748Z" fill="#161A23"/>
</g>
<defs>
<clipPath id="clip0_501_41550">
<rect width="24" height="24" fill="white"/>
</clipPath>
</defs>
</svg>
