<svg width="24" height="24" viewBox="0 0 24 24" fill="none" xmlns="http://www.w3.org/2000/svg">
<g clip-path="url(#clip0_501_41562)">
<path d="M12 0.674988C5.73755 0.674988 0.675049 5.73749 0.675049 12C0.675049 18.2625 5.73755 23.3625 12 23.3625C18.2626 23.3625 23.3625 18.2625 23.3625 12C23.3625 5.73749 18.2626 0.674988 12 0.674988ZM12 21.675C6.67505 21.675 2.36255 17.325 2.36255 12C2.36255 6.67499 6.67505 2.36249 12 2.36249C17.325 2.36249 21.675 6.71249 21.675 12.0375C21.675 17.325 17.325 21.675 12 21.675Z" fill="#161A23"/>
<path d="M15.075 6.33748C14.7375 5.99998 14.2125 5.99998 13.875 6.33748L8.925 11.4C8.5875 11.7375 8.5875 12.2625 8.925 12.6L13.875 17.6625C14.025 17.8125 14.25 17.925 14.475 17.925C14.7 17.925 14.8875 17.85 15.075 17.7C15.4125 17.3625 15.4125 16.8375 15.075 16.5L10.6875 12L15.075 7.53748C15.4125 7.19998 15.4125 6.63748 15.075 6.33748Z" fill="#161A23"/>
</g>
<defs>
<clipPath id="clip0_501_41562">
<rect width="24" height="24" fill="white"/>
</clipPath>
</defs>
</svg>
