<svg width="24" height="24" viewBox="0 0 24 24" fill="none" xmlns="http://www.w3.org/2000/svg">
<g clip-path="url(#clip0_501_41638)">
<path d="M12 0.674988C5.73755 0.674988 0.675049 5.73749 0.675049 12C0.675049 18.2625 5.73755 23.3625 12 23.3625C18.2626 23.3625 23.3625 18.2625 23.3625 12C23.3625 5.73749 18.2626 0.674988 12 0.674988ZM12 21.675C6.67505 21.675 2.36255 17.325 2.36255 12C2.36255 6.67499 6.67505 2.36249 12 2.36249C17.325 2.36249 21.675 6.71249 21.675 12.0375C21.675 17.325 17.325 21.675 12 21.675Z" fill="#161A23"/>
<path d="M12.6001 8.925C12.2626 8.5875 11.7376 8.5875 11.4001 8.925L6.3376 13.875C6.0001 14.2125 6.0001 14.7375 6.3376 15.075C6.4876 15.225 6.7126 15.3375 6.9376 15.3375C7.1626 15.3375 7.3501 15.2625 7.5376 15.1125L12.0001 10.6875L16.4626 15.075C16.8001 15.4125 17.3251 15.4125 17.6626 15.075C18.0001 14.7375 18.0001 14.2125 17.6626 13.875L12.6001 8.925Z" fill="#161A23"/>
</g>
<defs>
<clipPath id="clip0_501_41638">
<rect width="24" height="24" fill="white"/>
</clipPath>
</defs>
</svg>
