<svg width="24" height="24" viewBox="0 0 24 24" fill="none" xmlns="http://www.w3.org/2000/svg">
<g clip-path="url(#clip0_501_41659)">
<path d="M12 0.675049C5.73755 0.675049 0.675049 5.73755 0.675049 12C0.675049 18.2626 5.73755 23.3625 12 23.3625C18.2626 23.3625 23.3625 18.2626 23.3625 12C23.3625 5.73755 18.2626 0.675049 12 0.675049ZM12 21.675C6.67505 21.675 2.36255 17.325 2.36255 12C2.36255 6.67505 6.67505 2.36255 12 2.36255C17.325 2.36255 21.675 6.71255 21.675 12.0375C21.675 17.325 17.325 21.675 12 21.675Z" fill="#161A23"/>
<path d="M16.4626 8.92506L12.0001 13.3126L7.5376 8.92506C7.2001 8.58756 6.6751 8.58756 6.3376 8.92506C6.0001 9.26256 6.0001 9.78756 6.3376 10.1251L11.4001 15.1126C11.5501 15.2626 11.7751 15.3376 12.0001 15.3376C12.2251 15.3376 12.4126 15.2626 12.6001 15.1126L17.6626 10.1251C18.0001 9.78756 18.0001 9.26256 17.6626 8.92506C17.3626 8.58756 16.8001 8.58756 16.4626 8.92506Z" fill="#161A23"/>
</g>
<defs>
<clipPath id="clip0_501_41659">
<rect width="24" height="24" fill="white"/>
</clipPath>
</defs>
</svg>
