<svg width="24" height="24" viewBox="0 0 24 24" fill="none" xmlns="http://www.w3.org/2000/svg">
<g clip-path="url(#clip0_501_45092)">
<path d="M13.3125 8.55005L12 10.125L10.6875 8.55005C10.3875 8.17505 9.86249 8.13755 9.48749 8.43755C9.11249 8.73755 9.07499 9.26255 9.37499 9.63755L10.5375 11.0625H10.425C9.97499 11.0625 9.56249 11.4375 9.56249 11.925C9.56249 12.375 9.93749 12.7875 10.425 12.7875H11.1V15C11.1 15.45 11.475 15.8625 11.9625 15.8625C12.4125 15.8625 12.825 15.4875 12.825 15V12.7875H13.5C13.95 12.7875 14.3625 12.4125 14.3625 11.925C14.3625 11.475 13.9875 11.0625 13.5 11.0625H13.3875L14.55 9.63755C14.85 9.26255 14.8125 8.73755 14.4375 8.43755C14.1375 8.13755 13.6125 8.17505 13.3125 8.55005Z" fill="#161A23"/>
<path d="M12 0.637451C5.73749 0.637451 0.674988 5.73745 0.674988 12C0.674988 18.2624 5.77499 23.3624 12.0375 23.3624C18.3 23.3624 23.3625 18.2624 23.3625 12C23.3625 5.73745 18.2625 0.637451 12 0.637451ZM12 21.6749C6.67499 21.6749 2.36249 17.3249 2.36249 12C2.36249 6.67495 6.67499 2.32495 12 2.32495C17.325 2.32495 21.675 6.67495 21.675 12C21.675 17.3249 17.325 21.6749 12 21.6749Z" fill="#161A23"/>
<path d="M12 4.01245C7.57498 4.01245 4.01248 7.61245 4.01248 12C4.01248 16.425 7.61248 19.9875 12 19.9875C16.3875 19.9875 19.9875 16.425 19.9875 12C19.9875 7.57495 16.425 4.01245 12 4.01245ZM12 18.3C8.51248 18.3 5.69998 15.4875 5.69998 12C5.69998 8.51245 8.51248 5.69995 12 5.69995C15.4875 5.69995 18.3 8.51245 18.3 12C18.3 15.4875 15.4875 18.3 12 18.3Z" fill="#161A23"/>
</g>
<defs>
<clipPath id="clip0_501_45092">
<rect width="24" height="24" fill="white"/>
</clipPath>
</defs>
</svg>
