<svg width="24" height="24" viewBox="0 0 24 24" fill="none" xmlns="http://www.w3.org/2000/svg">
<path d="M0.4125 18.2998V21.4874H3.6C3.6 19.7248 2.175 18.2998 0.4125 18.2998ZM0.4125 14.0999V16.1999C3.3 16.1999 5.7 18.5623 5.7 21.4874H7.8C7.7625 17.4373 4.5 14.0999 0.4125 14.0999ZM4.65 6.71235V8.43735C8.8125 9.78735 12.1125 13.1249 13.4625 17.2874H19.3875V6.71235H4.65ZM0.4125 9.89985V11.9998C5.7 11.9998 9.9375 16.2749 9.9375 21.5249H12C12.0375 15.0749 6.825 9.89985 0.4125 9.89985ZM21.5625 2.47485H2.475C1.3125 2.47485 0.375 3.44985 0.375 4.61235V7.79985H2.475V4.61235H21.4875V19.3498H14.1V21.4499H21.4875C22.65 21.4499 23.5875 20.5124 23.5875 19.3498V4.61235C23.625 3.37485 22.6875 2.47485 21.5625 2.47485Z" fill="#15171A"/>
</svg>
