<svg width="24" height="24" viewBox="0 0 24 24" fill="none" xmlns="http://www.w3.org/2000/svg">
<g clip-path="url(#clip0_914_44881)">
<path d="M23.0251 14.6249C24.2251 9.56243 21.8251 4.16243 16.9501 1.79993C15.7876 1.23743 14.5501 0.899926 13.3126 0.749926C13.2751 0.749926 13.2376 0.749926 13.2001 0.749926C8.58758 0.224927 3.93758 2.62493 1.80006 7.04993C-0.112441 10.9499 0.450057 15.4124 2.85006 18.7124C2.88756 18.7499 2.88756 18.7874 2.92506 18.8249C3.97508 20.2124 5.36258 21.4124 7.05008 22.2374C8.62508 23.0249 10.3126 23.3624 12.0001 23.3624C16.2001 23.3624 20.2501 20.9999 22.2376 16.9874C22.6126 16.2374 22.8751 15.4874 23.0626 14.6999C23.0251 14.6624 23.0251 14.6249 23.0251 14.6249ZM21.6001 13.0874L14.5501 8.47493C14.4376 8.39993 14.3251 8.32493 14.2126 8.24993H14.1751C14.1376 8.21243 14.1001 8.21243 14.1001 8.21243C14.0251 8.17493 13.9876 8.13743 13.9126 8.09993C13.0501 7.68743 12.0751 7.57493 11.1376 7.76243L13.6876 2.51243C14.5501 2.66243 15.4126 2.92493 16.2376 3.33743C19.9876 5.13743 22.0501 9.11243 21.6001 13.0874ZM14.4001 13.1624C13.7626 14.4749 12.1501 15.0374 10.8376 14.3999C9.52508 13.7624 8.96258 12.1499 9.60008 10.8374C10.0501 9.89993 11.0251 9.33743 12.0001 9.33743C12.3751 9.33743 12.7876 9.41243 13.1626 9.59993C13.2001 9.63743 13.2376 9.63743 13.3126 9.67493L13.6501 9.89993C14.5876 10.6499 14.9626 11.9999 14.4001 13.1624ZM3.30006 7.79993C4.42508 5.47493 6.37508 3.74993 8.81258 2.88743C9.78758 2.54993 10.8001 2.36243 11.8501 2.36243L8.10008 10.1249C7.16258 12.0749 7.80008 14.3624 9.48758 15.5624L3.90008 17.2499C2.13756 14.5124 1.80006 10.9499 3.30006 7.79993ZM7.80008 20.6999C6.75008 20.1749 5.81258 19.4999 5.06258 18.7124L13.3876 16.1249C13.4626 16.1249 13.5001 16.0874 13.5376 16.0499C14.5126 15.6749 15.3751 14.9249 15.9001 13.9124C16.2376 13.1999 16.3876 12.4124 16.3126 11.6624L21.2251 14.8499C21.0751 15.2999 20.8876 15.7499 20.7001 16.1999C18.3751 20.9999 12.5626 23.0249 7.80008 20.6999Z" fill="#15171A"/>
</g>
<defs>
<clipPath id="clip0_914_44881">
<rect width="24" height="24" fill="white"/>
</clipPath>
</defs>
</svg>
