<svg width="24" height="24" viewBox="0 0 24 24" fill="none" xmlns="http://www.w3.org/2000/svg">
<path d="M12 17.1034C11 17.1034 10.069 16.8276 9.24137 16.2759C8.41379 15.7241 7.79309 15.0345 7.3793 14.1724L3.24137 7C2.3793 8.55172 2 10.2414 2 12C2 14.5172 2.82758 16.6896 4.44828 18.5517C6.06898 20.4138 8.10344 21.5172 10.5173 21.8966L13.4138 16.8621C13.1379 16.9655 12.6207 17.1034 12 17.1034Z" fill="#15171A"/>
<path d="M8.86216 7.86207C9.79317 7.13793 10.8277 6.82758 12.0001 6.82758H20.5863C19.6898 5.31035 18.4829 4.20687 16.9656 3.3448C15.4484 2.44828 13.7932 2 12.0001 2C10.4484 2 8.9656 2.34484 7.62079 3C6.27599 3.65516 5.00009 4.6207 4.10352 5.86207L7.00009 10.6207C7.27595 9.51723 7.9311 8.58621 8.86216 7.86207Z" fill="#15171A"/>
<path d="M21.2414 8.24121H15.4483C16.4483 9.24121 17.1379 10.5516 17.1379 11.9998C17.1379 13.0688 16.8276 14.0343 16.2414 14.9309L12.1035 21.9998C14.8276 21.9654 17.1724 20.9998 19.1035 19.0343C21.0345 17.0688 22 14.724 22 11.9998C22 10.724 21.7931 9.37914 21.2414 8.24121Z" fill="#15171A"/>
<path d="M12.0001 8.20703C14.0691 8.20703 15.7932 9.93117 15.7932 12.0001C15.7932 14.0691 14.0691 15.7932 12.0001 15.7932C9.93113 15.7932 8.20703 14.0691 8.20703 12.0001C8.20703 9.93113 9.93113 8.20703 12.0001 8.20703Z" fill="#15171A"/>
</svg>
