<svg width="24" height="24" viewBox="0 0 24 24" fill="none" xmlns="http://www.w3.org/2000/svg">
<path d="M21.675 14.7375H18.975C16.8 14.7375 14.775 13.65 13.575 11.775C12.075 9.45 9.525 8.0625 6.75 8.0625H4.05C3.6 8.0625 3.1875 8.4375 3.1875 8.925C3.1875 9.4125 3.5625 9.7875 4.05 9.7875H6.75C8.925 9.7875 10.95 10.875 12.15 12.7125C13.65 15.0375 16.2 16.425 18.975 16.425H21.675C22.125 16.425 22.5375 16.05 22.5375 15.5625C22.5375 15.075 22.1625 14.7375 21.675 14.7375Z" fill="#161A23"/>
<path d="M9.67497 17.0626C7.34997 17.0626 5.28747 15.7126 4.34997 13.6126L5.13747 13.8751C5.58747 14.0251 6.03747 13.7626 6.18747 13.3126C6.33747 12.8626 6.07497 12.4126 5.62497 12.2626L2.84997 11.4001C2.39997 11.2501 1.94997 11.5126 1.79997 11.9251L0.86247 14.5501C0.74997 15.0001 0.97497 15.4876 1.42497 15.6376C1.53747 15.6751 1.61247 15.6751 1.72497 15.6751C2.06247 15.6751 2.39997 15.4501 2.51247 15.1126L2.81247 14.2501C4.01247 16.9501 6.67497 18.7501 9.67497 18.7501C10.125 18.7501 10.5375 18.3751 10.5375 17.8876C10.5375 17.4001 10.125 17.0626 9.67497 17.0626Z" fill="#161A23"/>
<path d="M22.575 8.3625C22.125 8.2125 21.6375 8.4375 21.4875 8.8875L21.1875 9.75C19.9875 7.05 17.325 5.25 14.325 5.25C13.875 5.25 13.5 5.625 13.5 6.075C13.5 6.525 13.875 6.9375 14.3625 6.9375C16.6875 6.9375 18.75 8.2875 19.6875 10.3875L18.825 10.125C18.375 9.975 17.925 10.2375 17.775 10.6875C17.625 11.1375 17.8875 11.5875 18.3375 11.7375L21.1125 12.6C21.1875 12.6375 21.2625 12.6375 21.375 12.6375C21.7125 12.6375 22.05 12.4125 22.1625 12.075L23.1 9.45C23.25 9 23.025 8.5125 22.575 8.3625Z" fill="#161A23"/>
</svg>
