<svg width="24" height="24" viewBox="0 0 24 24" fill="none" xmlns="http://www.w3.org/2000/svg">
<path d="M18.5625 7.20005H15.8625L17.025 6.11255C17.3625 5.81255 17.4 5.25005 17.0625 4.91255C16.7625 4.57505 16.2 4.53755 15.8625 4.87505L13.2 7.31255C13.05 7.46255 12.9375 7.68755 12.9375 7.91255C12.9375 8.13755 13.0125 8.36255 13.2 8.51255L15.8625 11.175C16.0125 11.325 16.2375 11.4375 16.4625 11.4375C16.6875 11.4375 16.9125 11.3625 17.0625 11.175C17.4 10.8375 17.4 10.3125 17.0625 9.97505L15.9375 8.85005H18.525C20.25 8.85005 21.6375 10.2375 21.6375 11.9625C21.6375 13.6875 20.25 15.075 18.525 15.075C16.35 15.075 14.325 13.9875 13.125 12.15L12.2625 10.875C10.725 8.58755 8.17499 7.20005 5.43749 7.20005C2.81249 7.20005 0.674988 9.37505 0.674988 12C0.674988 14.625 2.81249 16.8 5.47499 16.8H8.21249L7.04999 17.8875C6.71249 18.1875 6.67499 18.75 7.01249 19.0875C7.16249 19.275 7.38749 19.35 7.64999 19.35C7.83749 19.35 8.06249 19.275 8.21249 19.125L10.875 16.6875C11.025 16.5375 11.1375 16.3125 11.1375 16.0875C11.1375 15.8625 11.0625 15.6375 10.875 15.4875L8.21249 12.825C7.87499 12.4875 7.34999 12.4875 7.01249 12.825C6.67499 13.1625 6.67499 13.6875 7.01249 14.025L8.13749 15.15H5.47499C3.74999 15.15 2.36249 13.7625 2.36249 12.0375C2.36249 10.3125 3.74999 8.92505 5.47499 8.92505C7.64999 8.92505 9.67499 10.0125 10.875 11.85L11.7375 13.1625C13.2375 15.45 15.825 16.8375 18.5625 16.8375C21.1875 16.8375 23.3625 14.7 23.3625 12.0375C23.3625 9.37505 21.1875 7.20005 18.5625 7.20005Z" fill="#161A23"/>
</svg>
