<svg width="24" height="24" viewBox="0 0 24 24" fill="none" xmlns="http://www.w3.org/2000/svg">
<g clip-path="url(#clip0_501_43623)">
<path d="M15.825 11.1375H12.825V8.17498C12.825 7.72498 12.45 7.34998 11.9625 7.34998C11.5125 7.34998 11.1375 7.72498 11.1375 8.21248V11.175H8.17498C7.72498 11.175 7.34998 11.55 7.34998 12.0375C7.34998 12.4875 7.72498 12.8625 8.21248 12.8625H11.175V15.825C11.175 16.275 11.55 16.65 12.0375 16.65C12.4875 16.65 12.8625 16.275 12.8625 15.7875V12.825H15.825C16.275 12.825 16.65 12.45 16.65 11.9625C16.65 11.5125 16.275 11.1375 15.825 11.1375Z" fill="#161A23"/>
<path d="M12 0.674988C5.73749 0.674988 0.674988 5.73749 0.674988 12C0.674988 18.2625 5.77499 23.3625 12.0375 23.3625C18.3 23.3625 23.4 18.2625 23.4 12C23.3625 5.73749 18.2625 0.674988 12 0.674988ZM12 21.675C6.67499 21.675 2.36249 17.325 2.36249 12C2.36249 6.67499 6.67499 2.36249 12 2.36249C17.325 2.36249 21.675 6.67499 21.675 12C21.675 17.325 17.325 21.675 12 21.675Z" fill="#161A23"/>
</g>
<defs>
<clipPath id="clip0_501_43623">
<rect width="24" height="24" fill="white"/>
</clipPath>
</defs>
</svg>
