<svg width="24" height="24" viewBox="0 0 24 24" fill="none" xmlns="http://www.w3.org/2000/svg">
<path d="M16.331 18.1232V17.0122L16.309 17.0222C16.059 17.1432 15.787 17.2122 15.508 17.2252C15.2194 17.2472 14.9328 17.1629 14.702 16.9882C14.5374 16.8612 14.4148 16.6877 14.35 16.4902C14.28 16.2744 14.272 16.0433 14.327 15.8232C14.379 15.5982 14.505 15.3972 14.684 15.2542C14.844 15.1202 15.039 15.0362 15.246 15.0122C15.6115 14.9713 15.9809 15.0402 16.307 15.2102L16.331 15.2232V14.1062L16.28 14.0922C15.9536 13.9881 15.6112 13.9433 15.269 13.9602C14.9573 13.968 14.6503 14.0381 14.366 14.1662C14.079 14.2982 13.826 14.4932 13.627 14.7372C13.3234 15.1207 13.1549 15.5938 13.1476 16.0829C13.1404 16.572 13.2948 17.0499 13.587 17.4422C13.882 17.8202 14.296 18.0872 14.762 18.1982C15.253 18.3182 15.768 18.3002 16.249 18.1462L16.331 18.1232ZM5.33599 18.1232V17.0122L5.31401 17.0222C5.064 17.1432 4.79201 17.2122 4.51301 17.2252C4.22438 17.2475 3.93761 17.1631 3.707 16.9882C3.54246 16.8614 3.42011 16.6878 3.356 16.4902C3.2852 16.2746 3.27687 16.0433 3.332 15.8232C3.384 15.5982 3.509 15.3972 3.689 15.2542C3.849 15.1202 4.044 15.0362 4.251 15.0122C4.61648 14.9713 4.98589 15.0402 5.31199 15.2102L5.33599 15.2232V14.1062L5.28499 14.0922C4.95862 13.9881 4.61617 13.9433 4.27399 13.9602C3.96229 13.9681 3.6553 14.0382 3.371 14.1662C3.08421 14.2979 2.83115 14.4932 2.631 14.7372C2.32771 15.1209 2.15933 15.5938 2.15192 16.0827C2.1445 16.5717 2.29848 17.0495 2.59 17.4422C2.8847 17.8205 3.29948 18.0871 3.76601 18.1982C4.257 18.3182 4.77101 18.3002 5.253 18.1462L5.33599 18.1232ZM9.25999 17.2012L9.25601 18.1582L9.32599 18.1702C9.546 18.2112 9.76699 18.2392 9.99 18.2552C10.185 18.2742 10.381 18.2772 10.577 18.2672C10.764 18.2532 10.949 18.2182 11.128 18.1632C11.338 18.1032 11.533 18.0002 11.699 17.8582C11.8488 17.7298 11.9635 17.5653 12.032 17.3802C12.1512 17.0709 12.1487 16.7278 12.025 16.4202C11.9606 16.2601 11.8583 16.1181 11.727 16.0062C11.5998 15.8924 11.4507 15.8057 11.289 15.7512L10.567 15.4832C10.4808 15.4464 10.4108 15.3796 10.37 15.2952C10.3542 15.2606 10.3468 15.2227 10.3482 15.1848C10.3496 15.1467 10.3597 15.1096 10.378 15.0762C10.4151 15.0155 10.4684 14.9663 10.532 14.9342C10.6129 14.8953 10.6998 14.8703 10.789 14.8602C10.942 14.8382 11.097 14.8392 11.249 14.8652C11.429 14.8852 11.607 14.9162 11.782 14.9612L11.82 14.9692V14.0862L11.751 14.0712C11.5721 14.0284 11.3907 13.996 11.208 13.9742C10.9711 13.9432 10.7312 13.9422 10.494 13.9712C10.194 13.9982 9.909 14.1142 9.67301 14.3012C9.513 14.4272 9.39199 14.5942 9.32201 14.7852C9.21799 15.0752 9.21701 15.3932 9.32201 15.6842C9.37601 15.8292 9.462 15.9582 9.57401 16.0652C9.67099 16.1582 9.78101 16.2382 9.90101 16.3012C10.058 16.3852 10.225 16.4502 10.398 16.4962C10.455 16.5132 10.512 16.5312 10.568 16.5502L10.653 16.5812L10.677 16.5912C10.761 16.6212 10.839 16.6692 10.903 16.7312C10.948 16.7732 10.983 16.8252 11.004 16.8822C11.0178 16.9349 11.0182 16.9903 11.005 17.0432C10.978 17.1285 10.9183 17.1997 10.839 17.2412C10.7529 17.2852 10.6599 17.3143 10.564 17.3272C10.4228 17.3492 10.2797 17.3562 10.137 17.3482C9.95014 17.3336 9.76421 17.3089 9.58001 17.2742C9.48397 17.2534 9.38831 17.2311 9.29299 17.2072L9.25999 17.2012ZM6.78499 18.1962H7.83499V14.0292H6.78499V18.1962ZM18.947 15.2602C19.0585 15.1694 19.1869 15.1014 19.3247 15.0601C19.4625 15.0189 19.6071 15.0052 19.7502 15.0199C19.8933 15.0346 20.0322 15.0773 20.1588 15.1457C20.2853 15.214 20.3972 15.3066 20.488 15.4182C20.579 15.5296 20.6472 15.6579 20.6886 15.7957C20.73 15.9335 20.7438 16.0781 20.7292 16.2213C20.7146 16.3644 20.6719 16.5033 20.6036 16.6299C20.5353 16.7565 20.4426 16.8684 20.331 16.9592L20.314 16.9732C20.0862 17.1479 19.7991 17.2262 19.5142 17.1914C19.2293 17.1566 18.9694 17.0114 18.7905 16.7871C18.6114 16.5627 18.5275 16.2772 18.5568 15.9917C18.5861 15.7062 18.7262 15.4435 18.947 15.2602ZM17.422 16.1142C17.4271 16.4394 17.5045 16.7595 17.6486 17.0511C17.7926 17.3428 17.9997 17.5987 18.255 17.8004C18.5102 18.0021 18.807 18.1445 19.1241 18.2173C19.4411 18.2901 19.7704 18.2914 20.088 18.2212C20.5143 18.1406 20.9059 17.9322 21.211 17.6238C21.5161 17.3154 21.7202 16.9215 21.7962 16.4944C21.8723 16.0674 21.8167 15.6272 21.6368 15.2325C21.4569 14.8377 21.1612 14.507 20.789 14.2842C20.4581 14.0796 20.079 13.9662 19.6901 13.9553C19.3012 13.9444 18.9164 14.0366 18.5746 14.2224C18.2328 14.4081 17.9461 14.6809 17.7437 15.0132C17.5413 15.3454 17.4303 15.7252 17.422 16.1142ZM22.961 10.6802C22.9669 10.814 23.0242 10.9404 23.121 11.0331C23.2178 11.1257 23.3465 11.1774 23.4805 11.1774C23.6145 11.1774 23.7433 11.1257 23.8401 11.0331C23.9368 10.9404 23.9941 10.814 24 10.6802V9.52519C23.9941 9.39135 23.9368 9.26497 23.8401 9.17231C23.7433 9.07969 23.6145 9.02801 23.4805 9.02801C23.3465 9.02801 23.2178 9.07969 23.121 9.17231C23.0242 9.26497 22.9669 9.39135 22.961 9.52519V10.6802ZM20.117 10.6802C20.127 10.8114 20.1861 10.934 20.2827 11.0235C20.3792 11.1129 20.5059 11.1627 20.6375 11.1627C20.7691 11.1627 20.8958 11.1129 20.9923 11.0235C21.0889 10.934 21.1481 10.8114 21.158 10.6802V8.09119C21.1498 7.95885 21.0914 7.83465 20.9948 7.74382C20.8982 7.65304 20.7706 7.60245 20.638 7.60245C20.5054 7.60245 20.3778 7.65304 20.2812 7.74382C20.1846 7.83465 20.1262 7.95885 20.118 8.09119V10.6802M17.231 11.7232C17.241 11.8542 17.3 11.9765 17.3963 12.0658C17.4927 12.1551 17.6192 12.2047 17.7505 12.2047C17.8818 12.2047 18.0083 12.1551 18.1047 12.0658C18.201 11.9765 18.26 11.8542 18.27 11.7232V6.12221C18.2641 5.98837 18.2068 5.86196 18.1101 5.76934C18.0133 5.67671 17.8845 5.625 17.7505 5.625C17.6165 5.625 17.4878 5.67671 17.391 5.76934C17.2942 5.86196 17.2369 5.98837 17.231 6.12221V11.7232ZM14.393 10.6802C14.4012 10.8125 14.4596 10.9368 14.5562 11.0276C14.6528 11.1184 14.7804 11.1689 14.913 11.1689C15.0456 11.1689 15.1732 11.1184 15.2698 11.0276C15.3664 10.9368 15.4248 10.8125 15.433 10.6802V8.09119C15.4271 7.95735 15.3698 7.83098 15.273 7.73831C15.1762 7.64569 15.0475 7.59401 14.9135 7.59401C14.7795 7.59401 14.6507 7.64569 14.5539 7.73831C14.4572 7.83098 14.3999 7.95735 14.394 8.09119V10.6802M11.494 10.6802C11.5067 10.8092 11.5669 10.9289 11.6629 11.0159C11.7589 11.103 11.8839 11.1512 12.0135 11.1512C12.1431 11.1512 12.2681 11.103 12.3641 11.0159C12.4601 10.9289 12.5203 10.8092 12.533 10.6802V9.52519C12.5271 9.39135 12.4698 9.26497 12.3731 9.17231C12.2763 9.07969 12.1474 9.02801 12.0135 9.02801C11.8795 9.02801 11.7507 9.07969 11.6539 9.17231C11.5572 9.26497 11.4999 9.39135 11.494 9.52519V10.6802ZM8.62399 10.6802C8.62987 10.814 8.68717 10.9404 8.78396 11.0331C8.88075 11.1257 9.00953 11.1774 9.14351 11.1774C9.27746 11.1774 9.40627 11.1257 9.50306 11.0331C9.59981 10.9404 9.65711 10.814 9.663 10.6802V8.09119C9.65711 7.95735 9.59981 7.83098 9.50306 7.73831C9.40627 7.64569 9.27746 7.59401 9.14351 7.59401C9.00953 7.59401 8.88075 7.64569 8.78396 7.73831C8.68717 7.83098 8.62987 7.95735 8.62399 8.09119V10.6802ZM5.73701 11.7232C5.74286 11.857 5.80016 11.9835 5.89695 12.0761C5.99374 12.1687 6.12255 12.2204 6.2565 12.2204C6.39045 12.2204 6.51926 12.1687 6.61605 12.0761C6.71284 11.9835 6.77014 11.857 6.77599 11.7232V6.12221C6.77014 5.98837 6.71284 5.86196 6.61605 5.76934C6.51926 5.67671 6.39045 5.625 6.2565 5.625C6.12255 5.625 5.99374 5.67671 5.89695 5.76934C5.80016 5.86196 5.74286 5.98837 5.73701 6.12221V11.7232ZM2.876 10.6802C2.88742 10.8102 2.94714 10.9313 3.0434 11.0195C3.13966 11.1077 3.26546 11.1565 3.396 11.1565C3.52654 11.1565 3.65234 11.1077 3.7486 11.0195C3.84488 10.9313 3.90458 10.8102 3.91601 10.6802V8.09119C3.91013 7.95735 3.85282 7.83098 3.75604 7.73831C3.65926 7.64569 3.53047 7.59401 3.3965 7.59401C3.26253 7.59401 3.13374 7.64569 3.03696 7.73831C2.94017 7.83098 2.88287 7.95735 2.877 8.09119V10.6802M0 10.6802C0.00995917 10.8112 0.0690127 10.9335 0.16534 11.0228C0.261668 11.1121 0.388162 11.1617 0.519499 11.1617C0.650839 11.1617 0.777334 11.1121 0.87366 11.0228C0.969986 10.9335 1.02904 10.8112 1.039 10.6802V9.52519C1.03312 9.39135 0.975829 9.26497 0.879045 9.17231C0.782261 9.07969 0.653464 9.02801 0.519499 9.02801C0.385534 9.02801 0.256737 9.07969 0.159955 9.17231C0.0631729 9.26497 0.00587336 9.39135 0 9.52519V10.6802Z" fill="#15171A"/>
</svg>
