<svg width="24" height="24" viewBox="0 0 24 24" fill="none" xmlns="http://www.w3.org/2000/svg">
<path d="M19.95 11.7375H12.9C11.625 11.7375 10.5375 12.7875 10.5375 14.1V14.85H6.82499V7.91248L10.0875 9.89997C10.4625 10.125 10.875 10.2375 11.325 10.2375H14.8125C15.2625 10.2375 15.675 9.86248 15.675 9.37498C15.675 8.88748 15.3 8.51248 14.8125 8.51248H11.325C11.2125 8.51248 11.1 8.47498 10.9875 8.39998L7.64999 6.37498C8.58749 5.84998 9.22499 4.83748 9.22499 3.67498C9.22499 1.98748 7.83749 0.599976 6.14999 0.599976C4.46249 0.599976 3.03749 2.02498 3.03749 3.74998C3.03749 5.13748 3.93749 6.29998 5.17499 6.67498V14.8125H3.37499V7.83748C3.37499 7.38748 2.99999 6.97498 2.51249 6.97498C2.02499 6.97498 1.64999 7.34998 1.64999 7.83748V22.5C1.64999 22.95 2.02499 23.3625 2.51249 23.3625C2.99999 23.3625 3.37499 22.95 3.37499 22.5V16.5H6.97499V22.5C6.97499 22.95 7.34999 23.3625 7.83749 23.3625C8.32499 23.3625 8.69999 22.9875 8.69999 22.5V16.5H10.6125V21C10.6125 22.275 11.6625 23.3625 12.975 23.3625H20.025C21.3 23.3625 22.3875 22.3125 22.3875 21V14.0625C22.3125 12.7875 21.2625 11.7375 19.95 11.7375ZM4.72499 3.74998C4.72499 2.96248 5.36249 2.36248 6.11249 2.36248C6.86249 2.36248 7.49999 2.99998 7.49999 3.74998C7.49999 4.53748 6.86249 5.13748 6.11249 5.13748C5.36249 5.13748 4.72499 4.53748 4.72499 3.74998ZM20.625 21C20.625 21.375 20.325 21.675 19.95 21.675H12.9C12.525 21.675 12.225 21.375 12.225 21V14.0625C12.225 13.6875 12.525 13.3875 12.9 13.3875H19.95C20.325 13.3875 20.625 13.6875 20.625 14.0625V21Z" fill="#161A23"/>
</svg>
