<svg width="24" height="24" viewBox="0 0 24 24" fill="none" xmlns="http://www.w3.org/2000/svg">
<path d="M20.625 2.17505H3.37502C1.87502 2.17505 0.675018 3.37505 0.675018 4.87505V12.2625C0.675018 13.725 1.83752 14.8875 3.30002 14.9625C3.71252 15.975 4.76252 16.725 6.00002 16.725C7.20002 16.725 8.25002 16.0125 8.70002 14.9625H15.45C15.8625 15.975 16.9125 16.725 18.15 16.725C19.35 16.725 20.4 15.975 20.85 14.9625C22.3125 14.925 23.475 13.725 23.475 12.2625V4.87505C23.3625 3.37505 22.125 2.17505 20.625 2.17505ZM5.96252 15.0375C5.28752 15.0375 4.76252 14.55 4.76252 13.95C4.76252 13.35 5.28752 12.8625 5.96252 12.8625C6.63752 12.8625 7.16252 13.35 7.16252 13.95C7.16252 14.5125 6.60002 15.0375 5.96252 15.0375ZM18.0375 15.0375C17.3625 15.0375 16.8375 14.55 16.8375 13.95C16.8375 13.35 17.3625 12.8625 18.0375 12.8625C18.7125 12.8625 19.2375 13.35 19.2375 13.95C19.2375 14.5125 18.7125 15.0375 18.0375 15.0375ZM21.675 12.2625C21.675 12.75 21.3375 13.1625 20.8875 13.2375C20.5875 12.0375 19.425 11.1375 18.075 11.1375C16.725 11.1375 15.5625 12.0375 15.2625 13.275H8.73752C8.43752 12.0375 7.27502 11.1375 5.92502 11.1375C4.57502 11.1375 3.45002 12.0375 3.11252 13.2375C2.66252 13.125 2.28752 12.75 2.28752 12.2625V4.87505C2.28752 4.31255 2.73752 3.86255 3.30002 3.86255H20.55C21.1125 3.86255 21.5625 4.31255 21.5625 4.87505V12.2625H21.675Z" fill="#161A23"/>
<path d="M5.96251 17.7375C3.86251 17.7375 1.87501 18.7875 0.787511 20.5125C0.525011 20.8875 0.637511 21.4125 1.05001 21.675C1.46251 21.9375 1.95001 21.825 2.21251 21.4125C3.00001 20.175 4.42501 19.425 5.96251 19.425C7.50001 19.425 8.92501 20.175 9.71251 21.4125C9.86251 21.675 10.1625 21.7875 10.425 21.7875C10.575 21.7875 10.725 21.75 10.875 21.675C11.25 21.4125 11.4 20.8875 11.1375 20.5125C10.0125 18.7875 8.06251 17.7375 5.96251 17.7375Z" fill="#161A23"/>
<path d="M18.0375 17.7375C15.9375 17.7375 13.95 18.7875 12.8625 20.5125C12.6 20.925 12.7125 21.4125 13.125 21.675C13.275 21.75 13.425 21.7875 13.575 21.7875C13.8375 21.7875 14.1375 21.6375 14.2875 21.4125C15.075 20.175 16.5 19.425 18.0375 19.425C19.575 19.425 21 20.175 21.7875 21.4125C22.05 21.7875 22.575 21.9375 22.95 21.675C23.325 21.4125 23.475 20.8875 23.2125 20.5125C22.125 18.7875 20.175 17.7375 18.0375 17.7375Z" fill="#161A23"/>
</svg>
