<svg width="24" height="24" viewBox="0 0 24 24" fill="none" xmlns="http://www.w3.org/2000/svg">
<path d="M12.375 14.6625H10.9125V3.26251H14.1375C14.3625 3.26251 14.5875 3.45001 14.5875 3.71251V5.51251C14.5875 5.96251 14.9625 6.37501 15.45 6.37501C15.9375 6.37501 16.3125 6.00001 16.3125 5.51251V3.71251C16.3125 2.55001 15.375 1.57501 14.175 1.57501H2.77495C1.61245 1.57501 0.637451 2.51251 0.637451 3.71251V5.51251C0.637451 6.00001 1.01245 6.37501 1.49995 6.37501C1.98745 6.37501 2.36245 6.00001 2.36245 5.51251V3.71251C2.36245 3.48751 2.54995 3.26251 2.81245 3.26251H5.99995V14.6625H4.53745C4.08745 14.6625 3.67495 15.0375 3.67495 15.525C3.67495 16.0125 4.04995 16.3875 4.53745 16.3875H12.4125C12.8625 16.3875 13.275 16.0125 13.275 15.525C13.275 15.0375 12.8625 14.6625 12.375 14.6625ZM7.68745 3.26251H9.22495V14.6625H7.68745V3.26251Z" fill="#161A23"/>
<path d="M22.7624 14.8125L21.0374 13.0875C20.2874 12.3375 19.0124 12.3375 18.2624 13.0875L14.0249 17.325C13.6499 17.7 13.4624 18.1875 13.4624 18.7125C13.4624 19.2375 13.6499 19.725 14.0249 20.1L15.7499 21.825C16.1249 22.2 16.6124 22.3875 17.1374 22.3875C17.6624 22.3875 18.1499 22.2 18.5249 21.825L22.7249 17.625C23.5124 16.8375 23.5124 15.6 22.7624 14.8125ZM17.1374 20.7C17.0999 20.7 17.0249 20.7 16.9499 20.625L15.2249 18.9C15.1499 18.825 15.1499 18.75 15.1499 18.7125C15.1499 18.675 15.1499 18.6 15.2249 18.525L15.9374 17.8125L18.0749 19.95L17.3624 20.625C17.2874 20.7 17.1749 20.7 17.1374 20.7ZM21.5624 16.425L19.2749 18.7125L17.1374 16.575L19.4249 14.2875C19.4624 14.25 19.5374 14.2125 19.6124 14.2125C19.6874 14.2125 19.7624 14.25 19.7999 14.2875L21.5249 16.0125C21.6749 16.125 21.6749 16.3125 21.5624 16.425Z" fill="#161A23"/>
</svg>
