<svg width="24" height="24" viewBox="0 0 24 24" fill="none" xmlns="http://www.w3.org/2000/svg">
<path d="M14.6625 14.325H16.9125C17.3625 14.325 17.7375 13.95 17.7375 13.5C17.7375 13.05 17.3625 12.675 16.9125 12.675H16.3875V12.4875C16.3875 12.0375 16.0125 11.6625 15.5625 11.6625C15.1125 11.6625 14.7375 12.0375 14.7375 12.4875V12.675C13.6125 12.675 12.675 13.575 12.675 14.7C12.675 15.825 13.6125 16.725 14.7375 16.725H15.7875C15.975 16.725 16.1625 16.875 16.1625 17.0625C16.1625 17.25 16.0125 17.4 15.7875 17.4H13.5375C13.0875 17.4 12.7125 17.775 12.7125 18.225C12.7125 18.675 13.0875 19.05 13.5375 19.05H14.775V19.2375C14.775 19.6875 15.15 20.0625 15.6 20.0625C16.05 20.0625 16.425 19.6875 16.425 19.2375V18.9375C17.2125 18.675 17.8125 17.8875 17.8125 17.025C17.8125 15.9 16.875 15 15.75 15H14.7C14.5125 15 14.325 14.85 14.325 14.6625C14.2875 14.475 14.4375 14.325 14.6625 14.325Z" fill="#161A23"/>
<path d="M16.125 8.47495C16.125 8.32495 16.1625 8.17495 16.1625 8.02495C16.1625 3.93745 12.8625 0.637451 8.77495 0.637451C4.68745 0.637451 1.38745 3.93745 1.38745 8.02495C1.38745 11.7375 4.16245 14.8125 7.76245 15.3375C7.76245 15.525 7.72495 15.675 7.72495 15.8625C7.72495 19.9874 11.0625 23.325 15.1875 23.325C19.3125 23.325 22.65 19.9874 22.65 15.8625C22.65 12.075 19.8 8.96245 16.125 8.47495ZM3.03745 8.06245C3.03745 4.91245 5.58745 2.36245 8.73745 2.36245C11.8875 2.36245 14.4375 4.91245 14.4375 8.06245C14.4375 8.21245 14.4375 8.32495 14.4 8.47495C11.3625 8.77495 8.84995 10.875 7.98745 13.725C5.21245 13.35 3.03745 10.9125 3.03745 8.06245ZM15.15 21.6749C11.9625 21.6749 9.37495 19.0875 9.37495 15.9C9.37495 12.7125 11.9625 10.125 15.15 10.125C18.3375 10.125 20.9249 12.7125 20.9249 15.9C20.9249 19.0875 18.3375 21.6749 15.15 21.6749Z" fill="#161A23"/>
<path d="M11.0249 8.92493C11.4749 8.92493 11.8499 8.54993 11.8499 8.09993C11.8499 7.64993 11.4749 7.23743 11.0249 7.23743L9.37485 7.19993V4.68743C9.37485 4.23743 8.99985 3.86243 8.54985 3.86243C8.09985 3.86243 7.72485 4.23743 7.72485 4.68743V8.06243C7.72485 8.51243 8.09985 8.88743 8.54985 8.88743L11.0249 8.92493Z" fill="#161A23"/>
</svg>
