<svg width="24" height="24" viewBox="0 0 24 24" fill="none" xmlns="http://www.w3.org/2000/svg">
<g clip-path="url(#clip0_501_38714)">
<path d="M21 23.3625H3.00005C1.72505 23.3625 0.675049 22.3125 0.675049 21.0375V3.00005C0.675049 1.72505 1.72505 0.675049 3.00005 0.675049H21C22.275 0.675049 23.3251 1.72505 23.3251 3.00005V21C23.3625 22.275 22.275 23.3625 21 23.3625ZM3.00005 2.32505C2.62505 2.32505 2.32505 2.62505 2.32505 3.00005V21C2.32505 21.375 2.62505 21.675 3.00005 21.675H21C21.3375 21.675 21.675 21.375 21.675 21V3.00005C21.675 2.62505 21.375 2.32505 21 2.32505H3.00005Z" fill="#161A23"/>
<path d="M16.35 17.175C16.125 17.175 15.9 17.1 15.75 16.9125L11.4 12.6C11.25 12.45 11.1375 12.225 11.1375 12V5.81255C11.1375 5.36255 11.5125 4.98755 11.9625 4.98755C12.4125 4.98755 12.825 5.36255 12.825 5.81255V11.6625L16.95 15.75C17.2875 16.0875 17.2875 16.6125 16.95 16.95C16.7625 17.1 16.575 17.175 16.35 17.175Z" fill="#161A23"/>
</g>
<defs>
<clipPath id="clip0_501_38714">
<rect width="24" height="24" fill="white"/>
</clipPath>
</defs>
</svg>
