<svg width="24" height="24" viewBox="0 0 24 24" fill="none" xmlns="http://www.w3.org/2000/svg">
<g clip-path="url(#clip0_501_38687)">
<path d="M12.5626 12.375V6.33745C12.5626 5.88745 12.1876 5.51245 11.7376 5.51245C11.2876 5.51245 10.9126 5.88745 10.9126 6.33745V12.7125C10.9126 12.9375 10.9876 13.1625 11.1376 13.3125L15.3001 17.55C15.4501 17.7 15.6751 17.8125 15.9001 17.8125C16.1251 17.8125 16.3126 17.7375 16.5001 17.5875C16.8376 17.25 16.8376 16.725 16.5001 16.3875L12.5626 12.375Z" fill="#161A23"/>
<path d="M12 0.5625C5.73755 0.5625 0.675049 5.7 0.675049 12C0.675049 18.3 5.77505 23.4375 12 23.4375C18.225 23.4375 23.3251 18.3 23.3251 12C23.3251 5.7 18.2626 0.5625 12 0.5625ZM12 21.75C6.67505 21.75 2.32505 17.3625 2.32505 12C2.32505 6.6375 6.67505 2.25 12 2.25C17.3251 2.25 21.6751 6.6375 21.6751 12C21.6751 17.3625 17.3251 21.75 12 21.75Z" fill="#161A23"/>
</g>
<defs>
<clipPath id="clip0_501_38687">
<rect width="24" height="24" fill="white"/>
</clipPath>
</defs>
</svg>
