<svg width="24" height="24" viewBox="0 0 24 24" fill="none" xmlns="http://www.w3.org/2000/svg">
<path d="M20.925 3.75H3.07499C1.72499 3.75 0.674988 4.8375 0.674988 6.15V17.8125C0.674988 19.1625 1.76249 20.25 3.07499 20.25H20.925C22.275 20.25 23.3625 19.1625 23.3625 17.8125V6.1875C23.3625 4.8375 22.275 3.75 20.925 3.75ZM21.675 17.8125C21.675 18.225 21.3375 18.5625 20.925 18.5625H3.07499C2.66249 18.5625 2.36249 18.225 2.36249 17.8125V6.1875C2.36249 5.775 2.69999 5.475 3.07499 5.475H20.925C21.3375 5.475 21.675 5.8125 21.675 6.1875V17.8125Z" fill="#161A23"/>
<path d="M15.3 8.70002C14.9625 8.36252 14.4375 8.36252 14.1 8.70002L12 10.8L9.89999 8.70002C9.56249 8.36252 9.03749 8.36252 8.69999 8.70002C8.36249 9.03752 8.36249 9.56252 8.69999 9.90002L10.8 12L8.69999 14.1C8.36249 14.4375 8.36249 14.9625 8.69999 15.3C8.84999 15.45 9.07499 15.5625 9.29999 15.5625C9.52499 15.5625 9.74999 15.4875 9.89999 15.3L12 13.2L14.1 15.3C14.25 15.45 14.475 15.5625 14.7 15.5625C14.925 15.5625 15.15 15.4875 15.3 15.3C15.6375 14.9625 15.6375 14.4375 15.3 14.1L13.2 12L15.3 9.90002C15.6 9.56252 15.6 9.03752 15.3 8.70002Z" fill="#161A23"/>
<path d="M6.93749 11.175H4.49999C4.04999 11.175 3.67499 11.55 3.67499 12C3.67499 12.45 4.04999 12.825 4.49999 12.825H6.93749C7.38749 12.825 7.76249 12.45 7.76249 12C7.76249 11.55 7.38749 11.175 6.93749 11.175Z" fill="#161A23"/>
<path d="M19.5375 11.175H17.1C16.65 11.175 16.275 11.55 16.275 12C16.275 12.45 16.65 12.825 17.1 12.825H19.5375C19.9875 12.825 20.3625 12.45 20.3625 12C20.3625 11.55 19.9875 11.175 19.5375 11.175Z" fill="#161A23"/>
</svg>
