<svg width="24" height="24" viewBox="0 0 24 24" fill="none" xmlns="http://www.w3.org/2000/svg">
<path d="M18.675 10.2375C18.3 10.2375 17.9625 10.275 17.5875 10.35C17.5875 10.275 17.5875 10.2 17.5875 10.125C17.5875 7.08755 15.075 4.61255 11.9625 4.61255C8.85001 4.61255 6.33751 7.08755 6.33751 10.125C6.33751 10.2 6.33751 10.275 6.33751 10.35C6.00001 10.275 5.62501 10.2375 5.25001 10.2375C2.66251 10.2375 0.600006 12.3 0.600006 14.8125C0.600006 17.325 2.70001 19.3875 5.25001 19.3875H18.6C21.1875 19.3875 23.25 17.325 23.25 14.8125C23.3625 12.2625 21.2625 10.2375 18.675 10.2375ZM18.675 17.7H5.32501C3.67501 17.7 2.36251 16.3875 2.36251 14.8125C2.36251 13.2375 3.71251 11.925 5.32501 11.925C5.96251 11.925 6.52501 12.1125 7.05001 12.45C7.35001 12.675 7.76251 12.6375 8.06251 12.4125C8.36251 12.1875 8.47501 11.8125 8.32501 11.4375C8.17501 11.025 8.10001 10.575 8.10001 10.125C8.10001 8.02505 9.8625 6.30005 12.0375 6.30005C14.2125 6.30005 15.975 8.02505 15.975 10.125C15.975 10.575 15.9 11.025 15.75 11.4375C15.6375 11.775 15.7125 12.1875 16.0125 12.4125C16.3125 12.6375 16.725 12.6375 17.025 12.45C17.55 12.1125 18.1125 11.925 18.75 11.925C20.4 11.925 21.7125 13.2375 21.7125 14.8125C21.7125 16.3875 20.325 17.7 18.675 17.7Z" fill="#161A23"/>
<path d="M12.5625 10.4625C12.225 10.1625 11.7375 10.1625 11.4 10.4625L9.48751 12.3C9.15001 12.6375 9.15001 13.1625 9.45001 13.5C9.78751 13.8375 10.3125 13.8375 10.65 13.5375L11.1375 13.05V15.75C11.1375 16.2 11.5125 16.6125 11.9625 16.6125C12.4125 16.6125 12.7875 16.2375 12.825 15.7875V13.125L13.3125 13.575C13.4625 13.725 13.6875 13.8 13.9125 13.8C14.1375 13.8 14.3625 13.725 14.5125 13.5375C14.85 13.2 14.8125 12.675 14.475 12.3375L12.5625 10.4625Z" fill="#161A23"/>
</svg>
