<svg width="24" height="24" viewBox="0 0 24 24" fill="none" xmlns="http://www.w3.org/2000/svg">
<path d="M7.425 3.5249C6.975 3.5249 6.5625 3.8999 6.5625 4.3874V4.4249C6.5625 4.8749 6.9375 5.2874 7.425 5.2874C7.9125 5.2874 8.2875 4.9124 8.2875 4.4249V4.3874C8.2875 3.8999 7.9125 3.5249 7.425 3.5249Z" fill="#161A23"/>
<path d="M15.3375 5.2499H17.2125C17.6625 5.2499 18.075 4.8749 18.075 4.3874C18.075 3.8999 17.7 3.5249 17.2125 3.5249H15.3375C14.8875 3.5249 14.475 3.8999 14.475 4.3874C14.475 4.8749 14.8875 5.2499 15.3375 5.2499Z" fill="#161A23"/>
<path d="M17.25 17.0625C19.3875 17.0625 21.1125 15.375 21.1125 13.275C21.1125 11.175 19.3875 9.48745 17.25 9.48745C17.025 9.48745 16.8 9.48745 16.575 9.52495C16.575 9.03745 16.5 8.58745 16.35 8.17495H18.375C19.7625 8.17495 20.8875 7.04995 20.8875 5.66245V3.14995C20.8875 1.76245 19.7625 0.637451 18.375 0.637451H5.58751C4.20001 0.637451 3.07501 1.76245 3.07501 3.14995V5.73745C3.07501 7.12495 4.20001 8.24995 5.58751 8.24995H7.61251C7.46251 8.66245 7.38751 9.11245 7.38751 9.59995C7.16251 9.56245 6.93751 9.56245 6.71251 9.56245C4.57501 9.56245 2.85001 11.25 2.85001 13.35C2.85001 15.45 4.57501 17.1375 6.71251 17.1375H11.1375V18.375C10.3875 18.6375 9.82501 19.2 9.56251 19.95H5.28751C4.83751 19.95 4.42501 20.325 4.42501 20.8125C4.42501 21.3 4.80001 21.6749 5.28751 21.6749H9.56251C9.90001 22.6875 10.875 23.4 11.9625 23.4C13.0875 23.4 14.025 22.6875 14.3625 21.6749H18.6375C19.0875 21.6749 19.5 21.3 19.5 20.8125C19.5 20.325 19.125 19.95 18.6375 19.95H14.4C14.1375 19.2 13.575 18.6375 12.825 18.375V17.0625H17.25ZM12 21.6749C11.5125 21.6749 11.1375 21.3 11.1375 20.8125C11.1375 20.325 11.55 19.95 12 19.95C12.4875 19.95 12.8625 20.325 12.8625 20.8125C12.8625 21.2625 12.4875 21.6749 12 21.6749ZM5.58751 6.52495C5.13751 6.52495 4.76251 6.14995 4.76251 5.69995V3.14995C4.76251 2.69995 5.13751 2.32495 5.58751 2.32495H18.375C18.825 2.32495 19.2 2.69995 19.2 3.14995V5.73745C19.2 6.18745 18.825 6.56245 18.375 6.56245H15.3375C14.5125 5.69995 13.3125 5.13745 12 5.13745C10.6875 5.13745 9.48751 5.69995 8.66251 6.56245H5.58751V6.52495ZM4.57501 13.275C4.57501 12.1125 5.55001 11.175 6.75001 11.175C7.20001 11.175 7.65001 11.325 7.98751 11.55C8.28751 11.775 8.70001 11.7375 9.00001 11.5125C9.30001 11.2875 9.41251 10.9125 9.26251 10.5375C9.15001 10.2375 9.07501 9.89995 9.07501 9.56245C9.07501 8.02495 10.3875 6.74995 12 6.74995C13.6125 6.74995 14.925 8.02495 14.925 9.56245C14.925 9.89995 14.85 10.2375 14.7375 10.5375C14.625 10.875 14.7 11.2875 15 11.5125C15.3 11.7375 15.7125 11.7375 16.0125 11.55C16.3875 11.2875 16.8 11.175 17.25 11.175C18.45 11.175 19.425 12.1125 19.425 13.275C19.425 14.4375 18.45 15.375 17.25 15.375H6.75001C5.55001 15.375 4.57501 14.4375 4.57501 13.275Z" fill="#161A23"/>
</svg>
