<svg width="24" height="24" viewBox="0 0 24 24" fill="none" xmlns="http://www.w3.org/2000/svg">
<path d="M14.6625 10.0875L11.3625 13.2L10.425 12.2625C10.0875 11.925 9.56249 11.925 9.22499 12.2625C8.88749 12.6 8.88749 13.125 9.22499 13.4625L10.575 14.8125C10.7625 15 11.025 15.1125 11.325 15.1125C11.55 15.1125 11.8125 15.0375 12 14.8875C12.0375 14.8875 12.0375 14.85 12.075 14.85L15.825 11.325C16.1625 10.9875 16.1625 10.4625 15.8625 10.125C15.525 9.74999 15 9.74999 14.6625 10.0875Z" fill="#161A23"/>
<path d="M21.4875 8.84999C20.475 7.76249 19.0875 7.04999 17.625 6.78749C16.8 5.51249 15.6 4.57499 14.2125 4.08749C13.575 3.82499 12.825 3.71249 12.0375 3.71249C8.51249 3.71249 5.58749 6.41249 5.36249 9.86249C2.69999 10.1625 0.674988 12.375 0.674988 15.0375C0.674988 17.925 3.03749 20.25 5.96249 20.2875H16.3875C20.2125 20.2875 23.3625 17.25 23.3625 13.5C23.3625 11.775 22.6875 10.125 21.4875 8.84999ZM16.3875 18.6H5.99999C3.93749 18.6 2.36249 17.025 2.36249 15.0375C2.36249 13.05 3.97499 11.475 5.99999 11.475H6.18749C6.63749 11.475 7.04999 11.1 7.04999 10.6125V10.2375C7.04999 7.53749 9.29999 5.36249 12.0375 5.36249C12.6375 5.36249 13.1625 5.43749 13.65 5.62499C14.8125 5.99999 15.7875 6.82499 16.3875 7.91249C16.5375 8.13749 16.7625 8.32499 17.025 8.32499C18.2625 8.43749 19.4625 9.03749 20.2875 9.93749C21.1875 10.9125 21.675 12.15 21.675 13.425C21.675 16.3125 19.275 18.6 16.3875 18.6Z" fill="#161A23"/>
</svg>
