<svg width="24" height="24" viewBox="0 0 24 24" fill="none" xmlns="http://www.w3.org/2000/svg">
<path d="M18.7875 7.9875C18.4125 7.9875 18.0375 8.025 17.7 8.1C17.7 8.025 17.7 7.95 17.7 7.875C17.7 4.7625 15.15 2.25 12 2.25C8.84999 2.25 6.29999 4.7625 6.29999 7.875C6.29999 7.95 6.29999 8.025 6.29999 8.1C5.92499 8.025 5.58749 7.9875 5.21249 7.9875C2.58749 7.9875 0.487488 10.0875 0.487488 12.6375C0.487488 15.1875 2.62499 17.2875 5.21249 17.2875H6.18749C6.63749 17.2875 7.04999 16.9125 7.04999 16.425C7.04999 15.9375 6.67499 15.5625 6.18749 15.5625H5.21249C3.52499 15.5625 2.17499 14.25 2.17499 12.6C2.17499 10.95 3.52499 9.6375 5.21249 9.6375C5.84999 9.6375 6.44999 9.825 6.97499 10.2C7.27499 10.425 7.68749 10.3875 7.98749 10.1625C8.28749 9.9375 8.39999 9.5625 8.24999 9.1875C8.09999 8.7375 7.98749 8.2875 7.98749 7.8375C7.98749 5.6625 9.78749 3.9375 12 3.9375C14.2125 3.9375 16.0125 5.7 16.0125 7.875C16.0125 8.3625 15.9375 8.8125 15.75 9.225C15.6375 9.5625 15.7125 9.975 16.0125 10.2C16.3125 10.425 16.725 10.425 17.025 10.2375C17.55 9.8625 18.15 9.675 18.7875 9.675C20.475 9.675 21.825 10.9875 21.825 12.6375C21.825 14.2875 20.475 15.6 18.7875 15.6H17.8125C17.3625 15.6 16.95 15.975 16.95 16.4625C16.95 16.95 17.325 17.325 17.8125 17.325H18.7875C21.4125 17.325 23.5125 15.225 23.5125 12.675C23.55 10.05 21.4125 7.9875 18.7875 7.9875Z" fill="#161A23"/>
<path d="M15.4125 12.3C14.9625 12.225 14.5125 12.525 14.4375 13.0125L14.3625 13.3875C13.6875 12.7875 12.7875 12.4125 11.85 12.4125C10.4625 12.4125 9.18748 13.1625 8.54998 14.4C8.32498 14.8125 8.47498 15.3375 8.88748 15.525C8.99998 15.6 9.14998 15.6375 9.29998 15.6375C9.59998 15.6375 9.89998 15.4875 10.05 15.1875C10.425 14.5125 11.1 14.1 11.85 14.1C12.525 14.1 13.125 14.4 13.4625 14.8875L12.7875 15C12.3375 15.075 12.0375 15.525 12.1125 15.975C12.1875 16.3875 12.525 16.65 12.9375 16.65C12.975 16.65 13.05 16.65 13.0875 16.65L15.0375 16.275C15.375 16.2 15.675 15.9375 15.7125 15.5625L16.0875 13.2C16.2 12.7875 15.8625 12.375 15.4125 12.3Z" fill="#161A23"/>
<path d="M15.375 18.4876C14.9625 18.2626 14.4375 18.4126 14.25 18.8251C13.875 19.5001 13.2 19.9126 12.45 19.9126C11.775 19.9126 11.175 19.6126 10.8375 19.1251L11.5125 19.0126C11.9625 18.9376 12.2625 18.4876 12.1875 18.0376C12.1125 17.5876 11.6625 17.2876 11.2125 17.3626L9.2625 17.7376C8.925 17.8126 8.62499 18.0751 8.58749 18.4501L8.21249 20.8126C8.13749 21.2626 8.43749 21.7126 8.92499 21.7876C8.96249 21.7876 9 21.7876 9.075 21.7876C9.4875 21.7876 9.82499 21.4876 9.89999 21.0751L9.975 20.7001C10.65 21.3001 11.55 21.6751 12.4875 21.6751C13.875 21.6751 15.15 20.9251 15.7875 19.6876C15.9375 19.2376 15.7875 18.7126 15.375 18.4876Z" fill="#161A23"/>
</svg>
