<svg width="24" height="24" viewBox="0 0 24 24" fill="none" xmlns="http://www.w3.org/2000/svg">
<path d="M18.675 10.2375C18.3 10.2375 17.9625 10.275 17.5875 10.35C17.5875 10.275 17.5875 10.2 17.5875 10.125C17.5875 7.08752 15.075 4.65002 11.9625 4.65002C8.84998 4.65002 6.33748 7.12502 6.33748 10.125C6.33748 10.2 6.33748 10.275 6.33748 10.35C5.99998 10.275 5.62498 10.2375 5.24998 10.2375C2.66248 10.2375 0.599976 12.3 0.599976 14.8125C0.599976 17.325 2.69998 19.3875 5.24998 19.3875H18.6C21.1875 19.3875 23.25 17.325 23.25 14.8125C23.25 12.3 21.2625 10.2375 18.675 10.2375ZM18.675 17.6625H5.32498C3.67498 17.6625 2.36248 16.3875 2.36248 14.775C2.36248 13.2 3.71248 11.8875 5.32498 11.8875C5.96248 11.8875 6.52498 12.075 7.04998 12.4125C7.34998 12.6375 7.76248 12.6 8.06248 12.375C8.36248 12.15 8.47498 11.775 8.32498 11.4C8.17498 10.9875 8.09998 10.5375 8.09998 10.0875C8.09998 7.98752 9.86248 6.30002 12.0375 6.30002C14.2125 6.30002 15.975 8.02502 15.975 10.0875C15.975 10.5375 15.9 10.9875 15.75 11.4C15.6375 11.7375 15.7125 12.15 16.0125 12.375C16.3125 12.6 16.725 12.6 17.025 12.4125C17.55 12.075 18.1125 11.8875 18.75 11.8875C20.4 11.8875 21.7125 13.1625 21.7125 14.775C21.675 16.3875 20.325 17.6625 18.675 17.6625Z" fill="#161A23"/>
<path d="M13.3125 13.275L12.825 13.7625V11.1C12.825 10.65 12.45 10.2375 12 10.2375C11.55 10.2375 11.175 10.6125 11.1375 11.0625V13.725L10.65 13.275C10.3125 12.9375 9.7875 12.975 9.45 13.3125C9.1125 13.65 9.15 14.175 9.4875 14.5125L11.4 16.35C11.55 16.5 11.775 16.575 12 16.575C12.225 16.575 12.4125 16.5 12.6 16.35L14.5125 14.5125C14.85 14.175 14.85 13.65 14.55 13.3125C14.2125 12.975 13.65 12.9375 13.3125 13.275Z" fill="#161A23"/>
</svg>
