<svg width="24" height="24" viewBox="0 0 24 24" fill="none" xmlns="http://www.w3.org/2000/svg">
<path d="M3.37559 13.9874H2.85059V15.8249H4.2381V15.3749H3.37559V13.9874Z" fill="#15171A"/>
<path d="M10.4997 13.9874H9.82471V15.7874H10.4997C11.1372 15.7874 11.5122 15.4124 11.5122 14.8499C11.5122 14.3624 11.1372 13.9874 10.4997 13.9874ZM11.0247 14.9249C11.0247 15.2249 10.8372 15.3749 10.5372 15.3749H10.3497V14.4374H10.5372C10.7997 14.4749 11.0247 14.6249 11.0247 14.9249Z" fill="#15171A"/>
<path d="M1.35 14.4376C1.5375 14.4376 1.725 14.5876 1.8 14.7376H2.325C2.2125 14.2876 1.8375 13.9501 1.35 13.9501C0.75 13.9501 0.375 14.3626 0.375 14.9251C0.375 15.4501 0.825 15.8626 1.35 15.8626C1.8375 15.8626 2.2125 15.5626 2.325 15.1501H1.7625C1.6875 15.3001 1.5375 15.3751 1.35 15.3751C1.05 15.3751 0.8625 15.1501 0.8625 14.8876C0.9 14.6626 1.05 14.4376 1.35 14.4376Z" fill="#15171A"/>
<path d="M8.475 14.9999C8.475 15.2249 8.3625 15.3749 8.175 15.3749C7.9875 15.3749 7.8375 15.2249 7.8375 14.9999V13.9874H7.3125V14.9999C7.3125 15.5624 7.65 15.8249 8.1375 15.8249C8.6625 15.8249 9 15.5999 9 14.9999V13.9874H8.475V14.9999Z" fill="#15171A"/>
<path d="M5.73721 13.9874C5.13721 13.9874 4.76221 14.4374 4.76221 14.9624C4.76221 15.4874 5.21221 15.8999 5.73721 15.8999C6.26221 15.8999 6.71221 15.4499 6.71221 14.9249C6.71221 14.3624 6.33721 13.9874 5.73721 13.9874ZM6.22471 14.9249C6.22471 15.1499 6.03721 15.4124 5.73721 15.4124C5.43721 15.4124 5.24971 15.1499 5.24971 14.9249C5.24971 14.6999 5.43721 14.4374 5.69971 14.4374C6.03721 14.4374 6.22471 14.6624 6.22471 14.9249Z" fill="#15171A"/>
<path d="M12.2256 13.9874V15.8249H12.7881V15.1499H13.6131V14.7749H12.7881V14.4374H13.6881V13.9874H12.2256Z" fill="#15171A"/>
<path d="M21.8244 15.1124H22.6869V14.6999H21.8244V14.4374H22.7994V13.9874H21.3369V15.8249H22.7994V15.3749H21.8244V15.1124Z" fill="#15171A"/>
<path d="M20.6247 14.6249C20.6247 14.4374 20.5872 14.2874 20.4747 14.1749C20.3247 14.0249 20.1747 13.9874 19.8747 13.9874H19.0122V15.7874H19.4997V15.2624H19.7247L20.0997 15.7874H20.6622L20.2497 15.1874C20.4747 15.1124 20.6247 14.9249 20.6247 14.6249ZM20.0997 14.6624C20.0997 14.8124 19.9872 14.8499 19.7997 14.8499H19.4622V14.3999H19.7997C19.9872 14.4374 20.0997 14.5124 20.0997 14.6624Z" fill="#15171A"/>
<path d="M23.4375 14.0248C23.325 14.0248 23.25 14.1373 23.25 14.2123C23.25 14.2873 23.3625 14.3998 23.4375 14.3998C23.55 14.3998 23.625 14.2873 23.625 14.2123C23.625 14.1373 23.5125 14.0248 23.4375 14.0248ZM23.4375 14.3623C23.325 14.3623 23.2875 14.3248 23.2875 14.2123C23.2875 14.0998 23.325 14.0623 23.4375 14.0623C23.55 14.0623 23.5875 14.0998 23.5875 14.2123C23.5875 14.3248 23.5125 14.3623 23.4375 14.3623Z" fill="#15171A"/>
<path d="M23.5131 14.1751C23.5131 14.1376 23.4756 14.1376 23.4006 14.1376H23.2881V14.3251H23.3256V14.2126H23.3631L23.4006 14.3251H23.4381L23.4006 14.2126C23.5131 14.2126 23.5131 14.2126 23.5131 14.1751ZM23.4381 14.2126H23.4006V14.1751H23.4381C23.4756 14.1376 23.4756 14.1376 23.4381 14.2126C23.4756 14.2126 23.4756 14.1751 23.4381 14.2126Z" fill="#15171A"/>
<path d="M14.925 13.9874H14.4375V15.8249H15.7875V15.3749H14.925V13.9874Z" fill="#15171A"/>
<path d="M17.1 13.9874L16.3125 15.8249H16.8375L16.9875 15.4874H17.6625L17.8125 15.8249H18.3375L17.55 13.9874H17.1ZM17.1375 15.1124L17.325 14.5874L17.5125 15.1124H17.1375Z" fill="#15171A"/>
<path d="M19.6128 13.0499L19.6503 12.8624C19.6878 12.6374 19.6878 12.4124 19.6128 12.2624C19.5003 12.1124 19.3128 12.0374 19.1253 12.0374L15.1503 11.9999C15.1128 11.9999 15.1128 11.9999 15.1128 11.9624V11.9249C15.1128 11.8874 15.1503 11.8874 15.2253 11.8874L19.2378 11.8499C19.7253 11.8499 20.2503 11.4749 20.4003 10.9874L20.6253 10.4249C20.6253 10.3874 20.6253 10.3874 20.6253 10.3124C20.3253 9.03743 19.2753 8.17493 18.0753 8.17493C16.9128 8.17493 15.9378 8.88743 15.6003 9.97493C15.3753 9.82493 15.0753 9.74993 14.7753 9.74993C14.2503 9.78743 13.7628 10.2374 13.7253 10.7999C13.7253 10.9499 13.7253 11.0999 13.7628 11.1749C12.8253 11.2124 12.1128 11.9624 12.1128 12.8624C12.1128 12.9749 12.1128 13.0124 12.1128 13.0874C12.1128 13.1249 12.1503 13.1249 12.2253 13.1249H19.5753C19.5378 13.1249 19.6128 13.1249 19.6128 13.0499Z" fill="#15171A"/>
<path d="M20.9631 10.3125C20.9256 10.3125 20.8506 10.3125 20.8506 10.3125C20.8131 10.3125 20.8131 10.3125 20.8131 10.35L20.6631 10.875C20.6256 11.1 20.6256 11.325 20.7006 11.475C20.8131 11.625 21.0006 11.7 21.1881 11.7L22.0506 11.7375C22.0881 11.7375 22.0881 11.7375 22.0881 11.775V11.8125C22.0881 11.85 22.0506 11.85 21.9756 11.85L21.1131 12C20.6256 12 20.1006 12.375 19.9506 12.8625L19.9131 13.0125C19.9131 13.05 19.9131 13.05 19.9506 13.05H22.9881C23.0256 13.05 23.0256 13.05 23.1006 13.0125C23.1381 12.825 23.2131 12.6375 23.2131 12.45C23.1381 11.2875 22.1631 10.3125 20.9631 10.3125Z" fill="#15171A"/>
</svg>
