<svg width="24" height="24" viewBox="0 0 24 24" fill="none" xmlns="http://www.w3.org/2000/svg">
<path d="M13.3875 13.0125L12.825 13.575V11.025C12.825 10.575 12.45 10.1625 11.9625 10.1625C11.5125 10.1625 11.1 10.5375 11.1 11.025V13.575L10.575 13.0125C10.2375 12.675 9.71246 12.675 9.37496 12.975C9.03746 13.3125 9.03746 13.8375 9.33746 14.175L11.1375 16.0125C11.3625 16.2375 11.6625 16.35 11.9625 16.35C12.2625 16.35 12.5625 16.2375 12.7875 16.0125L14.5875 14.175C14.925 13.8375 14.8875 13.3125 14.55 12.975C14.25 12.675 13.725 12.675 13.3875 13.0125Z" fill="#161A23"/>
<path d="M21.4875 8.85002C20.475 7.76252 19.0875 7.05002 17.625 6.78752C16.8 5.51252 15.6 4.57502 14.2125 4.08752C13.575 3.82502 12.825 3.71252 12.0375 3.71252C8.51249 3.71252 5.58749 6.41252 5.36249 9.82502C2.69999 10.1625 0.674988 12.375 0.674988 15.0375C0.674988 17.925 3.03749 20.25 5.96249 20.2875H16.3875C20.2125 20.2875 23.3625 17.25 23.3625 13.5C23.3625 11.775 22.6875 10.125 21.4875 8.85002ZM16.3875 18.6H5.99999C3.93749 18.6 2.36249 17.025 2.36249 15.0375C2.36249 13.05 3.97499 11.475 5.99999 11.475H6.18749C6.63749 11.475 7.04999 11.1 7.04999 10.6125V10.2375C7.04999 7.53752 9.29999 5.36252 12.0375 5.36252C12.6375 5.36252 13.1625 5.43752 13.65 5.62502C14.8125 6.00002 15.7875 6.82502 16.3875 7.91252C16.5375 8.13752 16.7625 8.32502 17.025 8.32502C18.2625 8.43752 19.4625 9.03752 20.2875 9.93752C21.1875 10.9125 21.675 12.15 21.675 13.425C21.675 16.3125 19.275 18.6 16.3875 18.6Z" fill="#161A23"/>
</svg>
