<svg width="24" height="24" viewBox="0 0 24 24" fill="none" xmlns="http://www.w3.org/2000/svg">
<path d="M18.4875 7.76245C18.075 7.76245 17.6625 7.79995 17.2875 7.91245C16.95 4.98745 14.475 2.69995 11.475 2.69995C9.33749 2.69995 7.38749 3.86245 6.37499 5.73745C3.22499 5.81245 0.674988 8.43745 0.674988 11.6625C0.674988 14.925 3.29999 17.55 6.52499 17.55C6.97499 17.55 7.38749 17.175 7.38749 16.6875C7.38749 16.2 7.01249 15.825 6.52499 15.825C4.23749 15.825 2.36249 13.95 2.36249 11.625C2.36249 9.29995 4.23749 7.42495 6.52499 7.42495C6.63749 7.42495 6.74999 7.42495 6.86249 7.42495C7.23749 7.46245 7.53749 7.23745 7.68749 6.89995C8.36249 5.36245 9.86249 4.34995 11.5125 4.34995C13.8 4.34995 15.675 6.22495 15.675 8.54995C15.675 8.73745 15.675 8.84995 15.6375 8.99995C15.6 9.33745 15.7125 9.63745 16.0125 9.82495C16.275 10.0125 16.65 10.0125 16.9125 9.86245C17.4 9.56245 17.9625 9.41245 18.525 9.41245C20.25 9.41245 21.675 10.8375 21.675 12.6C21.675 14.3625 20.25 15.7875 18.525 15.7875H17.7375C17.2875 15.7875 16.875 16.1625 16.875 16.65C16.875 17.1375 17.25 17.5125 17.7375 17.5125H18.525C21.1875 17.5125 23.3625 15.3375 23.3625 12.6375C23.3625 9.93745 21.1875 7.76245 18.4875 7.76245Z" fill="#161A23"/>
<path d="M15.075 18C15.4875 17.4 15.7125 16.6875 15.7125 15.9375C15.7125 14.9625 15.3375 14.025 14.625 13.35C13.2 11.925 10.8375 11.925 9.37498 13.35C8.66248 14.025 8.28748 14.9625 8.28748 15.9375C8.28748 16.9125 8.66248 17.85 9.37498 18.525C10.0875 19.2375 11.0625 19.575 12 19.575C12.6375 19.575 13.2375 19.425 13.8 19.0875L15.7125 20.9625C15.8625 21.1125 16.0875 21.1875 16.3125 21.1875C16.5375 21.1875 16.7625 21.1125 16.9125 20.925C17.25 20.5875 17.25 20.0625 16.9125 19.725L15.075 18ZM10.575 17.3625C10.2 16.9875 9.97498 16.5 9.97498 15.975C9.97498 15.45 10.2 14.9625 10.575 14.5875C10.9875 14.2125 11.475 13.9875 12 13.9875C12.525 13.9875 13.05 14.175 13.425 14.5875C13.8 14.9625 14.025 15.45 14.025 15.975C14.025 16.5 13.8 16.9875 13.425 17.3625C12.6375 18.1125 11.3625 18.1125 10.575 17.3625Z" fill="#161A23"/>
</svg>
