<svg width="24" height="24" viewBox="0 0 24 24" fill="none" xmlns="http://www.w3.org/2000/svg">
<path d="M18.675 7.95C18.3 7.95 17.9625 7.9875 17.625 8.0625C17.625 8.025 17.625 7.9875 17.625 7.9125C17.625 5.0625 15.1125 2.7375 12 2.7375C8.88755 2.7375 6.37505 5.0625 6.37505 7.9125C6.37505 7.95 6.37505 7.9875 6.37505 8.0625C6.03755 7.9875 5.66255 7.95 5.32505 7.95C2.73755 7.95 0.675049 9.9 0.675049 12.2625C0.675049 14.625 2.77505 16.575 5.32505 16.575H6.26255C6.71255 16.575 7.12505 16.2 7.12505 15.7125C7.12505 15.225 6.75005 14.85 6.26255 14.85H5.32505C3.67505 14.85 2.36255 13.6875 2.36255 12.225C2.36255 10.7625 3.71255 9.6 5.32505 9.6C5.96255 9.6 6.56255 9.7875 7.08755 10.125C7.38755 10.3125 7.80005 10.3125 8.10005 10.05C8.40005 9.825 8.47505 9.4125 8.32505 9.075C8.17505 8.7 8.10005 8.2875 8.10005 7.875C8.10005 5.9625 9.86255 4.3875 12.0375 4.3875C14.2125 4.3875 15.975 5.9625 15.975 7.875C15.975 8.2875 15.9 8.7 15.75 9.075C15.6 9.4125 15.7125 9.825 16.0125 10.05C16.3125 10.275 16.6875 10.3125 17.025 10.125C17.55 9.7875 18.15 9.6 18.7875 9.6C20.4375 9.6 21.75 10.7625 21.75 12.225C21.75 13.6875 20.4 14.85 18.7875 14.85C18.3375 14.85 17.925 15.225 17.925 15.7125C17.925 16.2 18.3 16.575 18.7875 16.575C21.375 16.575 23.4375 14.625 23.4375 12.2625C23.4375 9.9 21.2625 7.95 18.675 7.95Z" fill="#161A23"/>
<path d="M12.45 10.275C11.2875 10.2375 10.1625 10.6875 9.30005 11.5125C8.43755 12.3375 7.98755 13.4625 7.98755 14.625C7.98755 16.125 8.73755 17.5125 10.05 18.3C10.125 18.3375 10.1625 18.45 10.1625 18.5625V19.2375C10.1625 20.325 11.0625 21.225 12.15 21.225H12.4875C13.575 21.225 14.475 20.325 14.475 19.2375V18.5625C14.475 18.45 14.5125 18.375 14.5875 18.3C15.825 17.5125 16.575 16.2 16.6125 14.7375C16.65 13.575 16.2 12.4875 15.4125 11.625C14.7 10.7625 13.6125 10.275 12.45 10.275ZM12.525 19.575H12.1875C12 19.575 11.8875 19.425 11.8875 19.275V18.9H12.8625V19.275C12.825 19.425 12.7125 19.575 12.525 19.575ZM13.7625 16.875C13.6125 16.95 13.5 17.0625 13.3875 17.175H11.2875C11.175 17.0625 11.0625 16.95 10.9125 16.875C10.125 16.3875 9.67505 15.525 9.67505 14.625C9.67505 13.9125 9.97505 13.2375 10.4625 12.7125C10.95 12.225 11.625 11.9625 12.3375 11.9625C12.375 11.9625 12.375 11.9625 12.4125 11.9625C13.125 11.9625 13.7625 12.2625 14.25 12.7875C14.7375 13.3125 15 13.9875 15 14.7C15 15.6 14.5125 16.3875 13.7625 16.875Z" fill="#161A23"/>
</svg>
