<svg width="24" height="24" viewBox="0 0 24 24" fill="none" xmlns="http://www.w3.org/2000/svg">
<path d="M21.4875 8.88745C20.475 7.83745 19.0875 7.08745 17.625 6.86245C16.8 5.58745 15.6 4.64995 14.2125 4.19995C13.575 3.97495 12.825 3.82495 12.0375 3.82495C8.51249 3.82495 5.58749 6.48745 5.36249 9.86245C2.69999 10.1625 0.674988 12.375 0.674988 15C0.674988 17.8499 3.03749 20.1749 5.96249 20.1749H16.3875C20.2125 20.1749 23.3625 17.175 23.3625 13.4625C23.3625 11.775 22.6875 10.125 21.4875 8.88745ZM16.3875 18.4874H5.99999C3.93749 18.4874 2.36249 16.95 2.36249 15C2.36249 13.05 3.97499 11.5125 5.99999 11.5125H6.18749C6.63749 11.5125 7.04999 11.1375 7.04999 10.65V10.275C7.04999 7.64995 9.29999 5.47495 12.0375 5.47495C12.6375 5.47495 13.1625 5.54995 13.65 5.73745C14.8125 6.11245 15.7875 6.93745 16.3875 7.98745C16.5375 8.21245 16.7625 8.39995 17.025 8.39995C18.2625 8.51245 19.4625 9.11245 20.2875 9.97495C21.1875 10.9125 21.675 12.15 21.675 13.3875C21.675 16.2375 19.275 18.4874 16.3875 18.4874Z" fill="#161A23"/>
<path d="M14.85 14.2124C15.225 13.6499 15.45 13.0124 15.45 12.3374C15.45 11.3999 15.075 10.5374 14.4 9.8999C13.0125 8.5874 10.7625 8.5874 9.37501 9.8999C8.70001 10.5374 8.32501 11.4374 8.32501 12.3374C8.32501 13.2374 8.70001 14.1374 9.37501 14.7749C10.0875 15.4499 10.9875 15.7499 11.8875 15.7499C12.4875 15.7499 13.0875 15.5999 13.6125 15.3374L15.45 17.0624C15.6 17.2124 15.825 17.2874 16.0125 17.2874C16.2375 17.2874 16.4625 17.2124 16.6125 17.0249C16.95 16.6874 16.9125 16.1624 16.575 15.8249L14.85 14.2124ZM10.5 13.5374C10.1625 13.1999 9.97501 12.7874 9.97501 12.2999C9.97501 11.8124 10.1625 11.3999 10.5 11.0624C10.875 10.7249 11.3625 10.5374 11.85 10.5374C12.3375 10.5374 12.825 10.7249 13.2 11.0624C13.5375 11.3999 13.725 11.8124 13.725 12.2999C13.725 12.7874 13.5375 13.1999 13.2 13.5374C12.4875 14.2499 11.25 14.2499 10.5 13.5374Z" fill="#161A23"/>
</svg>
