<svg width="24" height="24" viewBox="0 0 24 24" fill="none" xmlns="http://www.w3.org/2000/svg">
<path d="M21 13.3125H19.65C19.7625 12.975 19.8 12.6 19.8 12.2625C19.8 10.0875 18 8.32505 15.7875 8.32505C15.525 8.32505 15.3 8.36255 15.0375 8.40005C15.0375 5.81255 12.8625 3.67505 10.2375 3.67505C7.57499 3.67505 5.43749 5.77505 5.43749 8.40005C5.21249 8.36255 4.94999 8.32505 4.68749 8.32505C2.47499 8.32505 0.674988 10.0875 0.674988 12.2625C0.674988 14.4375 2.47499 16.2 4.68749 16.2H7.08749V18C7.08749 19.275 8.13749 20.3625 9.44999 20.3625H21C22.275 20.3625 23.3625 19.3125 23.3625 18V15.675C23.3625 14.3625 22.275 13.3125 21 13.3125ZM2.36249 12.2625C2.36249 11.025 3.41249 10.0125 4.68749 10.0125C5.17499 10.0125 5.62499 10.1625 6.03749 10.425C6.33749 10.65 6.74999 10.6125 7.04999 10.3875C7.34999 10.1625 7.46249 9.75005 7.31249 9.41255C7.19999 9.07505 7.12499 8.73755 7.12499 8.36255C7.12499 6.67505 8.51249 5.32505 10.2375 5.32505C11.9625 5.32505 13.35 6.67505 13.35 8.36255C13.35 8.73755 13.275 9.07505 13.1625 9.41255C13.0125 9.75005 13.125 10.1625 13.425 10.3875C13.725 10.6125 14.1375 10.6125 14.4375 10.425C14.85 10.1625 15.3 10.0125 15.7875 10.0125C17.0625 10.0125 18.1125 11.025 18.1125 12.2625C18.1125 12.6375 18 13.0125 17.85 13.3125H9.41249C8.54999 13.3125 7.79999 13.8 7.38749 14.5125H4.68749C3.37499 14.5125 2.36249 13.5 2.36249 12.2625ZM21.675 18C21.675 18.375 21.375 18.675 21 18.675H9.41249C9.03749 18.675 8.73749 18.375 8.73749 18V15.675C8.73749 15.3 9.03749 15 9.41249 15H21C21.375 15 21.675 15.3 21.675 15.675V18Z" fill="#161A23"/>
<path d="M11.0625 15.9375C10.6125 15.9375 10.2 16.3125 10.2 16.8V16.8375C10.2 17.2875 10.575 17.7 11.0625 17.7C11.55 17.7 11.925 17.325 11.925 16.8375V16.8C11.925 16.3125 11.55 15.9375 11.0625 15.9375Z" fill="#161A23"/>
<path d="M19.95 15.9375H18.2625C17.8125 15.9375 17.4 16.3125 17.4 16.8C17.4 17.2875 17.775 17.6625 18.2625 17.6625H19.95C20.4 17.6625 20.8125 17.2875 20.8125 16.8C20.8125 16.3125 20.4 15.9375 19.95 15.9375Z" fill="#161A23"/>
</svg>
