<svg width="24" height="24" viewBox="0 0 24 24" fill="none" xmlns="http://www.w3.org/2000/svg">
<path d="M20.5875 15.6C19.3875 15.6 18.3375 16.3875 18 17.475H17.625V15.075C19.65 14.325 21.075 12.375 21.075 10.125C21.075 8.81252 20.5875 7.50002 19.65 6.52502C18.9 5.70002 17.85 5.13752 16.7625 4.91252C16.125 3.97502 15.225 3.26252 14.175 2.88752C13.6875 2.70002 13.0875 2.58752 12.4875 2.58752C9.82499 2.58752 7.61249 4.61252 7.34999 7.20002C5.39999 7.53752 3.86249 9.22502 3.86249 11.2875C3.86249 12.975 4.87499 14.4375 6.37499 15.075V17.475H5.99999C5.62499 16.3875 4.61249 15.6 3.41249 15.6C1.91249 15.6 0.674988 16.8 0.674988 18.3C0.674988 19.8 1.91249 21 3.41249 21C4.61249 21 5.66249 20.2125 5.99999 19.125H7.01249C7.61249 19.125 8.06249 18.6375 8.06249 18.075V15.375H11.1375V16.1625C10.05 16.5 9.22499 17.55 9.22499 18.75C9.22499 20.25 10.4625 21.45 11.9625 21.45C13.4625 21.45 14.7 20.25 14.7 18.75C14.7 17.55 13.9125 16.5375 12.7875 16.1625V15.375H15.675C15.75 15.375 15.825 15.375 15.9 15.375V18.075C15.9 18.675 16.3875 19.125 16.9875 19.125H18C18.375 20.2125 19.3875 21 20.5875 21C22.0875 21 23.325 19.8 23.325 18.3C23.3625 16.8 22.125 15.6 20.5875 15.6ZM3.41249 19.3125C2.84999 19.3125 2.36249 18.8625 2.36249 18.3C2.36249 17.7375 2.84999 17.2875 3.41249 17.2875C3.97499 17.2875 4.46249 17.7375 4.46249 18.3C4.46249 18.825 3.97499 19.3125 3.41249 19.3125ZM12 19.725C11.4375 19.725 10.95 19.275 10.95 18.7125C10.95 18.15 11.4375 17.7 12 17.7C12.5625 17.7 13.05 18.15 13.05 18.7125C13.05 19.275 12.5625 19.725 12 19.725ZM8.02499 13.6875C6.63749 13.6875 5.54999 12.6 5.54999 11.25C5.54999 9.90002 6.63749 8.81252 8.02499 8.81252H8.17499C8.62499 8.81252 9.03749 8.43752 9.03749 7.95002V7.65002C9.03749 5.77502 10.575 4.23752 12.4875 4.23752C12.9 4.23752 13.275 4.31252 13.6125 4.42502C14.4 4.68752 15.075 5.28752 15.525 6.03752C15.675 6.26252 15.9 6.45002 16.1625 6.48752C17.025 6.56252 17.85 6.97502 18.4125 7.61252C19.05 8.28752 19.3875 9.15002 19.3875 10.0875C19.3875 12.075 17.7375 13.6875 15.7125 13.6875H8.02499ZM20.5875 19.3125C20.025 19.3125 19.5375 18.8625 19.5375 18.3C19.5375 17.7375 20.025 17.2875 20.5875 17.2875C21.15 17.2875 21.6375 17.7375 21.6375 18.3C21.675 18.825 21.1875 19.3125 20.5875 19.3125Z" fill="#161A23"/>
</svg>
