<svg width="24" height="24" viewBox="0 0 24 24" fill="none" xmlns="http://www.w3.org/2000/svg">
<path d="M14.8875 17.25C14.55 17.025 14.0625 17.1 13.8375 17.475C13.425 18.1125 12.7125 18.4875 11.925 18.4875C11.55 18.4875 11.175 18.375 10.8375 18.225H11.55C11.9625 18.225 12.3 17.8875 12.3 17.475C12.3 17.0625 11.9625 16.725 11.55 16.725H9.1875C8.7 16.725 8.25 17.1375 8.25 17.6625V19.5C8.25 19.9125 8.5875 20.25 9 20.25C9.4125 20.25 9.75 19.9125 9.75 19.5V19.275C10.3875 19.6875 11.1 19.95 11.8875 19.95C13.1625 19.95 14.325 19.3125 15.0375 18.2625C15.3375 17.9625 15.225 17.475 14.8875 17.25Z" fill="#161A23"/>
<path d="M16.0125 11.8125C16.0125 11.4 15.675 11.0625 15.2625 11.0625C14.85 11.0625 14.5125 11.4 14.5125 11.8125V12.1875C13.7625 11.625 12.8625 11.175 12.0375 11.175C10.6125 11.175 9.33749 11.9625 8.66249 13.2375C8.47499 13.6125 8.62499 14.0625 8.96249 14.25C9.33749 14.4375 9.78749 14.2875 9.97499 13.95C10.3875 13.1625 11.175 12.675 12.0375 12.675C12.5625 12.675 13.35 13.125 13.875 13.6125H13.2C12.7875 13.6125 12.45 13.95 12.45 14.3625C12.45 14.775 12.7875 15.1125 13.2 15.1125H15.075C15.5625 15.1125 16.0125 14.7 16.0125 14.175V11.8125Z" fill="#161A23"/>
<path d="M21.75 8.775C20.7375 7.65 19.275 6.8625 17.7375 6.6C16.9125 5.25 15.675 4.2375 14.2125 3.75C13.5375 3.4875 12.825 3.375 12 3.375C8.3625 3.375 5.3625 6.2625 5.2125 9.8625C2.5125 10.125 0.375 12.45 0.375 15.225C0.375 18.1875 2.8125 20.625 5.775 20.625C6.1875 20.625 6.525 20.2875 6.525 19.875C6.525 19.4625 6.1875 19.125 5.775 19.125C3.6 19.125 1.875 17.4 1.875 15.225C1.875 13.05 3.6 11.325 5.775 11.325H5.9625C6.375 11.325 6.7125 10.9875 6.7125 10.575V10.1625C6.7125 7.2375 9.075 4.875 12 4.875C12.6375 4.875 13.2 4.9875 13.6875 5.175C14.925 5.5875 15.9375 6.4875 16.6125 7.6875C16.725 7.9125 16.95 8.0625 17.175 8.0625C18.4875 8.2125 19.725 8.85 20.625 9.7875C21.6 10.8375 22.125 12.1875 22.125 13.575C22.125 16.65 19.6125 19.125 16.5375 19.125C16.125 19.125 15.7875 19.4625 15.7875 19.875C15.7875 20.2875 16.125 20.625 16.5375 20.625C20.4375 20.625 23.625 17.475 23.625 13.575C23.625 11.775 22.95 10.0875 21.75 8.775Z" fill="#161A23"/>
</svg>
