<svg width="24" height="24" viewBox="0 0 24 24" fill="none" xmlns="http://www.w3.org/2000/svg">
<g clip-path="url(#clip0_501_47607)">
<path d="M21 15.975C19.8 15.975 18.75 16.8 18.4125 17.8875H18.1125V13.8C20.4 13.725 22.2 11.8875 22.2 9.67502C22.2 7.38752 20.2875 5.51252 17.9625 5.51252C17.6625 5.51252 17.4 5.55002 17.1 5.58752C17.1 5.55002 17.1 5.55002 17.1 5.51252C17.1 2.77502 14.8125 0.525024 12 0.525024C9.18749 0.525024 6.93749 2.81252 6.93749 5.55002C6.93749 5.58752 6.93749 5.58752 6.93749 5.62502C6.67499 5.58752 6.37499 5.55002 6.07499 5.55002C3.74999 5.55002 1.83749 7.42502 1.83749 9.71252C1.83749 11.9625 3.63749 13.7625 5.92499 13.8375V17.925H5.62499C5.28749 16.8 4.23749 16.0125 3.03749 16.0125C1.53749 16.0125 0.337494 17.25 0.337494 18.7875C0.337494 20.325 1.49999 21.4875 2.99999 21.4875C4.19999 21.4875 5.24999 20.6625 5.58749 19.575H6.74999C7.19999 19.575 7.61249 19.2 7.61249 18.7125V11.0625C7.61249 10.6125 7.23749 10.2 6.74999 10.2C6.26249 10.2 5.88749 10.575 5.88749 11.0625V12.15C4.57499 12.075 3.48749 10.9875 3.48749 9.71252C3.48749 8.36252 4.64999 7.23752 6.03749 7.23752C6.56249 7.23752 7.08749 7.38752 7.53749 7.68752C7.83749 7.91252 8.24999 7.87502 8.54999 7.65002C8.84999 7.42502 8.96249 7.01252 8.81249 6.67502C8.66249 6.30002 8.58749 5.92502 8.58749 5.55002C8.62499 3.75002 10.125 2.25002 12 2.25002C13.875 2.25002 15.4125 3.71252 15.4125 5.55002C15.4125 5.92502 15.3375 6.33752 15.1875 6.67502C15.0375 7.01252 15.15 7.42502 15.45 7.65002C15.75 7.87502 16.1625 7.87502 16.4625 7.68752C16.9125 7.38752 17.4 7.23752 17.9625 7.23752C19.3875 7.23752 20.5125 8.32502 20.5125 9.71252C20.5125 11.025 19.4625 12.075 18.1125 12.15V11.0625C18.1125 10.6125 17.7375 10.2 17.25 10.2C16.7625 10.2 16.3875 10.575 16.3875 11.0625V18.75C16.3875 19.2 16.7625 19.6125 17.25 19.6125H18.4125C18.75 20.7375 19.8 21.525 21 21.525C22.5 21.525 23.7 20.2875 23.7 18.75C23.7 17.2125 22.5 15.975 21 15.975ZM2.99999 19.8C2.43749 19.8 1.98749 19.3125 1.98749 18.7125C1.98749 18.1125 2.43749 17.625 2.99999 17.625C3.56249 17.625 4.01249 18.1125 4.01249 18.7125C4.01249 19.3125 3.56249 19.8 2.99999 19.8ZM21 19.8C20.4375 19.8 19.9875 19.3125 19.9875 18.7125C19.9875 18.1125 20.4375 17.625 21 17.625C21.5625 17.625 22.0125 18.1125 22.0125 18.7125C22.0125 19.3125 21.5625 19.8 21 19.8Z" fill="#161A23"/>
<path d="M12.8625 18.0376V11.0626C12.8625 10.6126 12.4875 10.2001 12 10.2001C11.55 10.2001 11.1375 10.5751 11.1375 11.0626V18.0376C10.05 18.4126 9.2625 19.4251 9.2625 20.6626C9.2625 22.2001 10.5 23.4376 11.9625 23.4376C13.4625 23.4376 14.6625 22.2001 14.6625 20.6626C14.7 19.4251 13.9125 18.4126 12.8625 18.0376ZM12 21.7501C11.4375 21.7501 10.9875 21.2626 10.9875 20.6626C10.9875 20.0626 11.4375 19.5751 12 19.5751C12.5625 19.5751 13.0125 20.0626 13.0125 20.6626C13.0125 21.2626 12.5625 21.7501 12 21.7501Z" fill="#161A23"/>
</g>
<defs>
<clipPath id="clip0_501_47607">
<rect width="24" height="24" fill="white"/>
</clipPath>
</defs>
</svg>
