<svg width="24" height="24" viewBox="0 0 24 24" fill="none" xmlns="http://www.w3.org/2000/svg">
<path d="M12.975 10.1625C12.75 9.93751 12.45 9.82501 12.15 9.82501C11.85 9.82501 11.55 9.93751 11.325 10.1625L9.56249 12C9.22499 12.3375 9.26249 12.8625 9.59999 13.2C9.93749 13.5375 10.4625 13.5 10.8 13.1625L11.3625 12.6V15.4875C11.3625 15.9375 11.7375 16.35 12.225 16.35C12.675 16.35 13.0875 15.975 13.0875 15.4875V12.6L13.65 13.1625C13.8 13.35 14.025 13.425 14.25 13.425C14.475 13.425 14.6625 13.35 14.85 13.2C15.1875 12.8625 15.1875 12.3375 14.8875 12L12.975 10.1625Z" fill="#161A23"/>
<path d="M21.4875 8.85002C20.475 7.76252 19.0875 7.05002 17.625 6.78752C16.8 5.51252 15.6 4.57502 14.2125 4.08752C13.575 3.86252 12.825 3.71252 12.0375 3.71252C8.51249 3.71252 5.58749 6.41252 5.36249 9.82502C2.69999 10.1625 0.674988 12.375 0.674988 15.0375C0.674988 17.925 3.03749 20.25 5.96249 20.25H16.3875C20.2125 20.25 23.3625 17.2125 23.3625 13.4625C23.3625 11.775 22.6875 10.125 21.4875 8.85002ZM16.3875 18.6H5.99999C3.93749 18.6 2.36249 17.025 2.36249 15.075C2.36249 13.0875 3.97499 11.55 5.99999 11.55H6.18749C6.63749 11.55 7.04999 11.175 7.04999 10.6875V10.3125C7.04999 7.61252 9.29999 5.43752 12.0375 5.43752C12.6375 5.43752 13.1625 5.51252 13.65 5.70002C14.8125 6.07502 15.7875 6.90002 16.3875 7.98752C16.5375 8.21252 16.7625 8.40002 17.025 8.40002C18.2625 8.51252 19.4625 9.11252 20.2875 10.0125C21.1875 10.9875 21.675 12.225 21.675 13.5C21.675 16.3125 19.275 18.6 16.3875 18.6Z" fill="#161A23"/>
</svg>
