<svg width="24" height="24" viewBox="0 0 24 24" fill="none" xmlns="http://www.w3.org/2000/svg">
<path d="M23.3625 13.0125C23.3625 11.7375 22.3125 10.65 21 10.65H19.65C19.7625 10.3125 19.8 9.93745 19.8 9.59995C19.8 7.42495 18 5.66245 15.7875 5.66245C15.525 5.66245 15.3 5.69995 15.0375 5.73745C15.0375 3.14995 12.8625 1.01245 10.2375 1.01245C7.57499 1.01245 5.43749 3.11245 5.43749 5.73745C5.21249 5.69995 4.94999 5.66245 4.68749 5.66245C2.47499 5.66245 0.674988 7.42495 0.674988 9.59995C0.674988 11.775 2.47499 13.5375 4.68749 13.5375H7.08749V15.3375C7.08749 15.9 7.27499 16.425 7.64999 16.8375C7.31249 17.25 7.08749 17.775 7.08749 18.3375V20.6625C7.08749 21.9375 8.13749 23.025 9.44999 23.025H21C22.275 23.025 23.3625 21.975 23.3625 20.6625V18.3375C23.3625 17.775 23.175 17.25 22.8 16.8375C23.1375 16.425 23.3625 15.9 23.3625 15.3375V13.0125ZM21.675 13.0125V15.3375C21.675 15.7125 21.375 16.0125 21 16.0125H9.41249C9.03749 16.0125 8.73749 15.7125 8.73749 15.3375V13.0125C8.73749 12.6375 9.03749 12.3375 9.41249 12.3375H21C21.375 12.3375 21.675 12.6375 21.675 13.0125ZM2.36249 9.59995C2.36249 8.36245 3.41249 7.34995 4.68749 7.34995C5.17499 7.34995 5.62499 7.49995 6.03749 7.76245C6.33749 7.98745 6.74999 7.94995 7.04999 7.72495C7.34999 7.49995 7.46249 7.08745 7.31249 6.74995C7.19999 6.41245 7.12499 6.07495 7.12499 5.69995C7.12499 4.01245 8.51249 2.66245 10.2375 2.66245C11.9625 2.66245 13.35 4.01245 13.35 5.69995C13.35 6.07495 13.275 6.41245 13.1625 6.74995C13.0125 7.08745 13.125 7.49995 13.425 7.72495C13.725 7.94995 14.1375 7.94995 14.4375 7.76245C14.85 7.49995 15.3 7.34995 15.7875 7.34995C17.0625 7.34995 18.1125 8.36245 18.1125 9.59995C18.1125 9.97495 18 10.35 17.85 10.65H9.41249C8.54999 10.65 7.79999 11.1375 7.38749 11.85H4.68749C3.37499 11.85 2.36249 10.8375 2.36249 9.59995ZM21.675 20.6625C21.675 21.0375 21.375 21.3375 21 21.3375H9.41249C9.03749 21.3375 8.73749 21.0375 8.73749 20.6625V18.3375C8.73749 17.9625 9.03749 17.6625 9.41249 17.6625H21C21.375 17.6625 21.675 17.9625 21.675 18.3375V20.6625Z" fill="#161A23"/>
<path d="M11.0625 14.9999C11.5125 14.9999 11.925 14.6249 11.925 14.1374V14.0999C11.925 13.6499 11.55 13.2374 11.0625 13.2374C10.575 13.2374 10.2 13.6124 10.2 14.0999V14.1374C10.2375 14.6249 10.6125 14.9999 11.0625 14.9999Z" fill="#161A23"/>
<path d="M18.225 14.9624H19.9125C20.3625 14.9624 20.775 14.5874 20.775 14.0999C20.775 13.6124 20.4 13.2374 19.9125 13.2374H18.225C17.775 13.2374 17.3625 13.6124 17.3625 14.0999C17.3625 14.5874 17.775 14.9624 18.225 14.9624Z" fill="#161A23"/>
<path d="M11.0625 18.6C10.6125 18.6 10.2 18.975 10.2 19.4625V19.5C10.2 19.95 10.575 20.3625 11.0625 20.3625C11.55 20.3625 11.925 19.9875 11.925 19.5V19.4625C11.925 18.975 11.55 18.6 11.0625 18.6Z" fill="#161A23"/>
<path d="M19.95 18.6H18.2625C17.8125 18.6 17.4 18.975 17.4 19.4625C17.4 19.95 17.775 20.325 18.2625 20.325H19.95C20.4 20.325 20.8125 19.95 20.8125 19.4625C20.8125 18.975 20.4 18.6 19.95 18.6Z" fill="#161A23"/>
</svg>
