<svg width="24" height="24" viewBox="0 0 24 24" fill="none" xmlns="http://www.w3.org/2000/svg">
<path d="M18.675 8.88755C18.3 8.88755 17.9625 8.92505 17.625 9.00005C17.625 8.96255 17.625 8.92505 17.625 8.85005C17.625 6.00005 15.1125 3.67505 12 3.67505C8.88749 3.67505 6.37499 6.00005 6.37499 8.85005C6.37499 8.88755 6.37499 8.92505 6.37499 9.00005C6.03749 8.92505 5.66249 8.88755 5.32499 8.88755C2.73749 8.88755 0.674988 10.8375 0.674988 13.2C0.674988 15.5625 2.77499 17.5125 5.32499 17.5125H6.26249C6.71249 17.5125 7.12499 17.1375 7.12499 16.65C7.12499 16.1625 6.74999 15.7875 6.26249 15.7875H5.32499C3.67499 15.7875 2.36249 14.625 2.36249 13.1625C2.36249 11.7 3.71249 10.5375 5.32499 10.5375C5.96249 10.5375 6.56249 10.725 7.08749 11.0625C7.38749 11.25 7.79999 11.25 8.09999 10.9875C8.39999 10.7625 8.47499 10.35 8.32499 10.0125C8.17499 9.63755 8.09999 9.22505 8.09999 8.81255C8.09999 6.90005 9.86249 5.32505 12.0375 5.32505C14.2125 5.32505 15.975 6.90005 15.975 8.81255C15.975 9.22505 15.9 9.63755 15.75 10.0125C15.6 10.35 15.7125 10.7625 16.0125 10.9875C16.3125 11.2125 16.6875 11.25 17.025 11.0625C17.55 10.725 18.15 10.5375 18.7875 10.5375C20.4375 10.5375 21.75 11.7 21.75 13.1625C21.75 14.625 20.4 15.7875 18.7875 15.7875C18.3375 15.7875 17.925 16.1625 17.925 16.65C17.925 17.1375 18.3 17.5125 18.7875 17.5125C21.375 17.5125 23.4375 15.5625 23.4375 13.2C23.4375 10.8375 21.2625 8.88755 18.675 8.88755Z" fill="#161A23"/>
<path d="M15.375 16.9875C15.825 16.3875 16.05 15.6375 16.05 14.8875C16.05 13.875 15.6375 12.9375 14.8875 12.225C13.3875 10.8 10.95 10.8 9.44998 12.225C8.69998 12.9375 8.28748 13.875 8.28748 14.8875C8.28748 15.9 8.69998 16.8375 9.44998 17.55C10.2 18.2625 11.175 18.6 12.1875 18.6C12.8625 18.6 13.5375 18.45 14.1375 18.1125L16.2 20.1C16.35 20.25 16.575 20.325 16.7625 20.325C16.9875 20.325 17.2125 20.25 17.3625 20.0625C17.7 19.725 17.6625 19.2 17.325 18.8625L15.375 16.9875ZM10.6125 16.3125C10.2 15.9375 9.97498 15.4125 9.97498 14.8875C9.97498 14.3625 10.2 13.8375 10.6125 13.4625C11.0625 13.05 11.625 12.8625 12.1875 12.8625C12.75 12.8625 13.3125 13.05 13.7625 13.4625C14.175 13.8375 14.4 14.3625 14.4 14.8875C14.4 15.4125 14.175 15.9375 13.7625 16.3125C12.8625 17.1375 11.475 17.1375 10.6125 16.3125Z" fill="#161A23"/>
</svg>
