<svg width="24" height="24" viewBox="0 0 24 24" fill="none" xmlns="http://www.w3.org/2000/svg">
<path d="M19.9125 16.05C18.75 16.05 17.775 16.8 17.4 17.85H16.8V14.2125C19.2 13.5 20.8875 11.2875 20.8875 8.77505C20.8875 7.35005 20.3625 5.96255 19.3875 4.91255C18.6 4.05005 17.475 3.41255 16.275 3.18755C15.6 2.13755 14.625 1.35005 13.5 0.975049C12.975 0.750049 12.375 0.675049 11.7 0.675049C8.85002 0.675049 6.48752 2.88755 6.22502 5.66255C4.12502 6.00005 2.51252 7.80005 2.51252 10.0125C2.51252 12.4125 4.61252 14.4375 7.05002 14.4375H7.20002V17.85H6.60002C6.26252 16.8 5.25002 16.05 4.08752 16.05C2.62502 16.05 1.46252 17.25 1.46252 18.675C1.46252 20.1 2.66252 21.3 4.08752 21.3C5.25002 21.3 6.22502 20.55 6.60002 19.5H8.06252C8.51252 19.5 8.92502 19.125 8.92502 18.6376V10.5375C8.92502 10.0875 8.55002 9.67505 8.06252 9.67505C7.57502 9.67505 7.20002 10.05 7.20002 10.5375V12.75H7.05002C5.51252 12.75 4.20002 11.5125 4.20002 10.0125C4.20002 8.47505 5.40002 7.27505 6.93752 7.27505H7.08752C7.53752 7.27505 7.95002 6.90005 7.95002 6.41255V6.11255C7.95002 4.01255 9.63752 2.32505 11.7375 2.32505C12.1875 2.32505 12.6 2.40005 12.9375 2.55005C13.8 2.85005 14.55 3.48755 15 4.35005C15.15 4.57505 15.375 4.76255 15.6375 4.80005C16.575 4.91255 17.475 5.36255 18.1125 6.03755C18.7875 6.78755 19.2 7.76255 19.2 8.77505C19.2 10.3875 18.2625 11.8125 16.8 12.4125V10.5375C16.8 10.0875 16.425 9.67505 15.9375 9.67505C15.45 9.67505 15.075 10.05 15.075 10.5375V18.675C15.075 19.125 15.45 19.5375 15.9375 19.5375H17.4C17.7375 20.5875 18.75 21.3375 19.9125 21.3375C21.375 21.3375 22.5375 20.1376 22.5375 18.7125C22.5375 17.2875 21.3375 16.05 19.9125 16.05ZM4.08752 19.6125C3.56252 19.6125 3.15002 19.2 3.15002 18.675C3.15002 18.15 3.56252 17.7375 4.08752 17.7375C4.61252 17.7375 5.02502 18.15 5.02502 18.675C5.02502 19.2 4.61252 19.6125 4.08752 19.6125ZM19.9125 19.6125C19.3875 19.6125 18.975 19.2 18.975 18.675C18.975 18.15 19.3875 17.7375 19.9125 17.7375C20.4375 17.7375 20.85 18.15 20.85 18.675C20.85 19.2 20.4375 19.6125 19.9125 19.6125Z" fill="#161A23"/>
<path d="M12.8625 18.225V10.5375C12.8625 10.0875 12.4875 9.67505 12 9.67505C11.55 9.67505 11.1375 10.05 11.1375 10.5375V18.225C10.125 18.5625 9.375 19.5375 9.375 20.7C9.375 22.1625 10.575 23.325 12 23.325C13.4625 23.325 14.625 22.125 14.625 20.7C14.625 19.5375 13.875 18.5625 12.8625 18.225ZM12 21.675C11.475 21.675 11.0625 21.2625 11.0625 20.7375C11.0625 20.2125 11.475 19.8 12 19.8C12.525 19.8 12.9375 20.2125 12.9375 20.7375C12.9375 21.2625 12.525 21.675 12 21.675Z" fill="#161A23"/>
</svg>
