<svg width="24" height="24" viewBox="0 0 24 24" fill="none" xmlns="http://www.w3.org/2000/svg">
<path d="M23.3625 13.0125C23.3625 11.7375 22.3125 10.65 21 10.65H19.65C19.7625 10.3125 19.8 9.93745 19.8 9.59995C19.8 7.42495 18 5.66245 15.7875 5.66245C15.525 5.66245 15.3 5.69995 15.0375 5.73745C15.0375 3.14995 12.8625 1.01245 10.2375 1.01245C7.575 1.01245 5.4375 3.11245 5.4375 5.73745C5.2125 5.69995 4.95 5.66245 4.6875 5.66245C2.475 5.66245 0.675003 7.42495 0.675003 9.59995C0.675003 11.775 2.475 13.5375 4.6875 13.5375H7.0875V15.3375C7.0875 15.9 7.275 16.425 7.65 16.8375C7.3125 17.25 7.0875 17.775 7.0875 18.3375V20.6625C7.0875 21.9375 8.1375 23.025 9.45 23.025H21C22.275 23.025 23.3625 21.975 23.3625 20.6625V18.3375C23.3625 17.775 23.175 17.25 22.8 16.8375C23.1375 16.425 23.3625 15.9 23.3625 15.3375V13.0125ZM21.675 13.0125V15.3375C21.675 15.7125 21.375 16.0125 21 16.0125H9.4125C9.0375 16.0125 8.7375 15.7125 8.7375 15.3375V13.0125C8.7375 12.6375 9.0375 12.3375 9.4125 12.3375H21C21.375 12.3375 21.675 12.6375 21.675 13.0125ZM2.3625 9.59995C2.3625 8.36245 3.4125 7.34995 4.6875 7.34995C5.175 7.34995 5.625 7.49995 6.0375 7.76245C6.3375 7.98745 6.75 7.94995 7.05 7.72495C7.35 7.49995 7.4625 7.08745 7.3125 6.74995C7.2 6.41245 7.125 6.07495 7.125 5.69995C7.125 4.01245 8.5125 2.66245 10.2375 2.66245C11.9625 2.66245 13.35 4.01245 13.35 5.69995C13.35 6.07495 13.275 6.41245 13.1625 6.74995C13.0125 7.08745 13.125 7.49995 13.425 7.72495C13.725 7.94995 14.1375 7.94995 14.4375 7.76245C14.85 7.49995 15.3 7.34995 15.7875 7.34995C17.0625 7.34995 18.1125 8.36245 18.1125 9.59995C18.1125 9.97495 18 10.35 17.85 10.65H9.4125C8.55 10.65 7.8 11.1375 7.3875 11.85H4.6875C3.375 11.85 2.3625 10.8375 2.3625 9.59995ZM21.675 20.6625C21.675 21.0375 21.375 21.3375 21 21.3375H9.4125C9.0375 21.3375 8.7375 21.0375 8.7375 20.6625V18.3375C8.7375 17.9625 9.0375 17.6625 9.4125 17.6625H21C21.375 17.6625 21.675 17.9625 21.675 18.3375V20.6625Z" fill="#161A23"/>
<path d="M11.0625 15C11.5125 15 11.925 14.625 11.925 14.1375V14.1C11.925 13.65 11.55 13.2375 11.0625 13.2375C10.575 13.2375 10.2 13.6125 10.2 14.1V14.1375C10.2375 14.625 10.6125 15 11.0625 15Z" fill="#161A23"/>
<path d="M18.225 14.9625H19.9125C20.3625 14.9625 20.775 14.5875 20.775 14.1C20.775 13.6125 20.4 13.2375 19.9125 13.2375H18.225C17.775 13.2375 17.3625 13.6125 17.3625 14.1C17.3625 14.5875 17.775 14.9625 18.225 14.9625Z" fill="#161A23"/>
<path d="M11.0625 18.5999C10.6125 18.5999 10.2 18.9749 10.2 19.4624V19.4999C10.2 19.9499 10.575 20.3624 11.0625 20.3624C11.55 20.3624 11.925 19.9874 11.925 19.4999V19.4624C11.925 18.9749 11.55 18.5999 11.0625 18.5999Z" fill="#161A23"/>
<path d="M19.95 18.5999H18.2625C17.8125 18.5999 17.4 18.9749 17.4 19.4624C17.4 19.9499 17.775 20.3249 18.2625 20.3249H19.95C20.4 20.3249 20.8125 19.9499 20.8125 19.4624C20.8125 18.9749 20.4 18.5999 19.95 18.5999Z" fill="#161A23"/>
</svg>
