<svg width="24" height="24" viewBox="0 0 24 24" fill="none" xmlns="http://www.w3.org/2000/svg">
<path d="M19.8 15.6C18.5625 15.6 17.475 16.4625 17.1375 17.625H16.7625V14.025C19.125 13.3125 20.775 11.1375 20.775 8.62495C20.775 7.19995 20.25 5.84995 19.275 4.79995C18.4875 3.93745 17.4 3.33745 16.2 3.11245C15.525 2.09995 14.5875 1.31245 13.4625 0.937451C12.9375 0.749951 12.3375 0.637451 11.7 0.637451C8.88749 0.637451 6.52499 2.81245 6.29999 5.58745C4.19999 5.92495 2.62499 7.72495 2.62499 9.89995C2.62499 12.2625 4.68749 14.25 7.12499 14.25H7.27499V17.625H6.89999C6.56249 16.4625 5.47499 15.6 4.23749 15.6C2.69999 15.6 1.42499 16.875 1.42499 18.45C1.42499 20.025 2.66249 21.2999 4.23749 21.2999C5.47499 21.2999 6.56249 20.4375 6.89999 19.275H7.42499C8.28749 19.275 8.99999 18.5625 8.99999 17.7V11.4375C8.99999 10.9875 8.62499 10.575 8.13749 10.575C7.64999 10.575 7.27499 10.95 7.27499 11.4375V12.6H7.12499C5.58749 12.6 4.31249 11.3625 4.31249 9.93745C4.31249 8.43745 5.47499 7.27495 6.97499 7.27495H7.12499C7.57499 7.27495 7.98749 6.89995 7.98749 6.41245V6.11245C7.98749 4.04995 9.67499 2.36245 11.7375 2.36245C12.1875 2.36245 12.5625 2.43745 12.9375 2.54995C13.8 2.84995 14.5125 3.48745 15 4.31245C15.15 4.53745 15.375 4.72495 15.6375 4.76245C16.575 4.87495 17.4375 5.32495 18.075 5.99995C18.75 6.74995 19.125 7.68745 19.125 8.69995C19.125 10.275 18.1875 11.6625 16.8 12.3V11.475C16.8 11.025 16.425 10.6125 15.9375 10.6125C15.45 10.6125 15.075 10.9875 15.075 11.475V17.8125C15.075 18.675 15.7875 19.3875 16.65 19.3875H17.175C17.5125 20.55 18.6 21.4125 19.8375 21.4125C21.375 21.4125 22.65 20.1375 22.65 18.5625C22.6125 16.9125 21.3375 15.6 19.8 15.6ZM4.19999 19.65C3.59999 19.65 3.07499 19.125 3.07499 18.4874C3.07499 17.85 3.56249 17.325 4.19999 17.325C4.83749 17.325 5.32499 17.85 5.32499 18.4874C5.28749 19.125 4.79999 19.65 4.19999 19.65ZM19.8 19.65C19.2 19.65 18.675 19.125 18.675 18.4874C18.675 17.85 19.1625 17.325 19.8 17.325C20.4375 17.325 20.925 17.85 20.925 18.4874C20.925 19.125 20.4375 19.65 19.8 19.65Z" fill="#161A23"/>
<path d="M12.8625 17.775V10.425C12.8625 9.975 12.4875 9.5625 12 9.5625C11.55 9.5625 11.1375 9.9375 11.1375 10.425V17.775C10.0125 18.15 9.1875 19.2375 9.1875 20.5125C9.1875 22.0875 10.425 23.3625 12 23.3625C13.575 23.3625 14.8125 22.0875 14.8125 20.5125C14.8125 19.2 13.9875 18.1125 12.8625 17.775ZM12 21.675C11.4 21.675 10.875 21.15 10.875 20.5125C10.875 19.875 11.3625 19.35 12 19.35C12.6375 19.35 13.125 19.875 13.125 20.5125C13.125 21.15 12.6 21.675 12 21.675Z" fill="#161A23"/>
</svg>
