<svg width="24" height="24" viewBox="0 0 24 24" fill="none" xmlns="http://www.w3.org/2000/svg">
<path d="M18.675 19.35H5.325C2.7375 19.35 0.675003 17.2875 0.675003 14.775C0.675003 12.2625 2.775 10.2 5.325 10.2C5.7 10.2 6.0375 10.2375 6.4125 10.3125C6.4125 10.2375 6.4125 10.1625 6.4125 10.0875C6.4125 7.05005 8.925 4.61255 12.0375 4.61255C15.15 4.61255 17.6625 7.08755 17.6625 10.0875C17.6625 10.1625 17.6625 10.2375 17.6625 10.3125C18 10.2375 18.375 10.2 18.75 10.2C21.3375 10.2 23.4 12.2625 23.4 14.775C23.3625 17.2875 21.2625 19.35 18.675 19.35ZM5.325 11.925C3.675 11.925 2.3625 13.2 2.3625 14.8125C2.3625 16.3875 3.7125 17.7 5.325 17.7H18.675C20.325 17.7 21.6375 16.425 21.6375 14.8125C21.6375 13.2375 20.2875 11.925 18.675 11.925C18.0375 11.925 17.475 12.1125 16.95 12.45C16.65 12.675 16.2375 12.6375 15.9375 12.4125C15.6375 12.1875 15.525 11.775 15.675 11.4375C15.825 11.025 15.9 10.575 15.9 10.125C15.9 8.02505 14.1375 6.33755 11.9625 6.33755C9.7875 6.33755 8.025 8.02505 8.025 10.125C8.025 10.575 8.1 11.025 8.25 11.4375C8.4 11.775 8.2875 12.1875 7.9875 12.4125C7.6875 12.6375 7.275 12.6375 6.975 12.45C6.525 12.1125 5.925 11.925 5.325 11.925Z" fill="#161A23"/>
<path d="M11.325 16.6876C11.1 16.6876 10.9125 16.6126 10.725 16.4626L9.375 15.1126C9.0375 14.7751 9.0375 14.2501 9.375 13.9126C9.7125 13.5751 10.2375 13.5751 10.575 13.9126L11.325 14.6626L13.425 12.6001C13.7625 12.2626 14.2875 12.3001 14.625 12.6001C14.9625 12.9376 14.925 13.4626 14.625 13.8001L11.925 16.4251C11.7375 16.5751 11.55 16.6876 11.325 16.6876Z" fill="#161A23"/>
</svg>
