<svg width="24" height="24" viewBox="0 0 24 24" fill="none" xmlns="http://www.w3.org/2000/svg">
<path d="M21.0375 2.25H2.9625C1.6875 2.25 0.675003 3.2625 0.675003 4.5375V15.3375C0.675003 16.6125 1.6875 17.625 2.9625 17.625H9.375L8.9625 20.025H6.5625C6.1125 20.025 5.7 20.4 5.7 20.8875C5.7 21.375 6.075 21.75 6.5625 21.75H17.475C17.925 21.75 18.3375 21.375 18.3375 20.8875C18.3375 20.4 17.9625 20.025 17.475 20.025H15.075L14.625 17.625H21.0375C22.3125 17.625 23.325 16.6125 23.325 15.3375V4.575C23.3625 3.3 22.3125 2.25 21.0375 2.25ZM7.725 14.55C7.6875 14.2875 7.6875 14.0625 7.6875 13.8375C7.6875 13.575 7.6875 13.35 7.725 13.1625C7.8 12.6375 7.575 12.1125 7.0875 11.8125L6.225 11.325L6.9 10.1625C7.2 10.35 7.575 10.5375 7.8375 10.6875C8.2875 10.95 8.85 10.875 9.225 10.575C9.3375 10.5 9.4125 10.425 9.525 10.35C9.7875 10.125 9.9375 10.0125 10.1625 9.9C10.65 9.6375 10.9875 9.15 10.9875 8.5875V7.8375H13.05V8.55C13.05 9.1125 13.3875 9.6375 13.875 9.8625C14.1 9.975 14.25 10.0875 14.475 10.3125C14.5875 10.3875 14.7 10.5 14.8125 10.575C15.1875 10.875 15.75 10.9125 16.1625 10.6875L17.1 10.1625L17.775 11.325L16.9125 11.8125C16.4625 12.075 16.2 12.6 16.275 13.125C16.3125 13.35 16.3125 13.575 16.3125 13.8C16.3125 14.025 16.3125 14.25 16.2375 14.475C16.1625 15 16.3875 15.525 16.875 15.7875L17.1 15.9H14.025C14.55 15.375 14.8875 14.625 14.8875 13.8375C14.8875 12.225 13.575 10.9125 11.9625 10.9125C10.35 10.9125 9.0375 12.225 9.0375 13.8375C9.0375 14.625 9.375 15.375 9.9 15.9H6.7875L7.0125 15.75C7.5375 15.5625 7.8 15.0375 7.725 14.55ZM10.8 13.875C10.8 13.2 11.3625 12.6375 12.0375 12.6375C12.7125 12.6375 13.275 13.2 13.275 13.875C13.275 14.55 12.7125 15.1125 12.0375 15.1125C11.325 15.1125 10.8 14.5875 10.8 13.875ZM13.35 20.0625H10.6875L11.1 17.6625H12.975L13.35 20.0625ZM21.675 15.3375C21.675 15.675 21.4125 15.9375 21.075 15.9375H19.725C19.6875 15.6 19.5375 15.3 19.2 15.1125L18 14.475C18.0375 14.25 18.0375 14.025 18.0375 13.8C18.0375 13.575 18.0375 13.35 18 13.125L19.2375 12.4125C19.6875 12.15 19.8375 11.5875 19.6125 11.1375C19.6125 11.1 19.575 11.1 19.575 11.0625L18.225 8.7375C17.9625 8.2875 17.4375 8.1 16.95 8.2875C16.9125 8.2875 16.875 8.325 16.875 8.325L15.6375 9L15.6 8.9625C15.3375 8.7375 15.075 8.5125 14.7375 8.3625V7.575C14.7375 6.75 14.0625 6.1125 13.275 6.1125H10.7625C9.9375 6.1125 9.3 6.7875 9.3 7.575V8.4C8.9625 8.5875 8.7 8.8125 8.4375 9.0375C7.95 8.775 7.3125 8.4 7.3125 8.4C6.675 8.0625 6.1125 8.2875 5.85 8.7375L4.4625 11.1C4.35 11.325 4.3125 11.5875 4.3875 11.85C4.4625 12.1125 4.65 12.3375 4.875 12.4875L6.075 13.1625C6 13.3875 6 13.6125 6 13.8375C6 14.0625 6 14.25 6.0375 14.475L4.8 15.1875C4.5 15.3375 4.3125 15.6375 4.275 15.975H2.9625C2.625 15.975 2.3625 15.7125 2.3625 15.375V4.575C2.3625 4.2375 2.625 3.975 2.9625 3.975H21.075C21.4125 3.975 21.675 4.2375 21.675 4.575V15.3375Z" fill="#161A23"/>
</svg>
