<svg width="24" height="24" viewBox="0 0 24 24" fill="none" xmlns="http://www.w3.org/2000/svg">
<path d="M18.825 8.62505C17.2875 8.62505 15.975 9.67505 15.6 11.1376H9.41249C8.02499 11.1376 6.74999 10.35 6.11249 9.11255L5.99999 8.88755V7.23755C7.42499 6.86255 8.51249 5.55005 8.51249 4.01255C8.51249 2.17505 7.01249 0.675049 5.17499 0.675049C3.33749 0.675049 1.83749 2.17505 1.83749 4.01255C1.83749 5.55005 2.88749 6.86255 4.34999 7.23755V16.7626C2.92499 17.1376 1.83749 18.4501 1.83749 19.9876C1.83749 21.8251 3.33749 23.3251 5.17499 23.3251C7.01249 23.3251 8.51249 21.8251 8.51249 19.9876C8.51249 18.4501 7.46249 17.1376 5.99999 16.7626V11.5876C6.93749 12.3376 8.13749 12.7875 9.41249 12.7875H15.6C15.975 14.2125 17.2875 15.3 18.825 15.3C20.6625 15.3 22.1625 13.8 22.1625 11.9626C22.1625 10.125 20.6625 8.62505 18.825 8.62505ZM3.52499 4.01255C3.52499 3.11255 4.27499 2.36255 5.17499 2.36255C6.07499 2.36255 6.82499 3.11255 6.82499 4.01255C6.82499 4.91255 6.07499 5.66255 5.17499 5.66255C4.27499 5.66255 3.52499 4.91255 3.52499 4.01255ZM6.82499 19.9876C6.82499 20.8876 6.07499 21.6376 5.17499 21.6376C4.27499 21.6376 3.52499 20.8876 3.52499 19.9876C3.52499 19.0876 4.27499 18.3376 5.17499 18.3376C6.07499 18.3376 6.82499 19.0876 6.82499 19.9876ZM18.825 13.6125C17.925 13.6125 17.175 12.8625 17.175 11.9626C17.175 11.0625 17.925 10.3125 18.825 10.3125C19.725 10.3125 20.475 11.0625 20.475 11.9626C20.475 12.8625 19.725 13.6125 18.825 13.6125Z" fill="#161A23"/>
</svg>
