<svg width="24" height="24" viewBox="0 0 24 24" fill="none" xmlns="http://www.w3.org/2000/svg">
<path d="M21 2.77499H3.00001C1.72501 2.77499 0.637512 3.82499 0.637512 5.13749V13.6125C0.637512 14.8875 1.68751 15.975 3.00001 15.975H11.175V19.5375H8.70001C8.25001 19.5375 7.83751 19.9125 7.83751 20.4C7.83751 20.8875 8.21251 21.2625 8.70001 21.2625H15.375C15.825 21.2625 16.2375 20.8875 16.2375 20.4C16.2375 19.9125 15.8625 19.5375 15.375 19.5375H12.9V15.975H21C22.275 15.975 23.3625 14.925 23.3625 13.6125V5.13749C23.3625 3.82499 22.275 2.77499 21 2.77499ZM21.675 13.6125C21.675 13.9875 21.375 14.2875 21 14.2875H3.00001C2.62501 14.2875 2.32501 13.9875 2.32501 13.6125V5.13749C2.32501 4.76249 2.62501 4.46249 3.00001 4.46249H21C21.375 4.46249 21.675 4.76249 21.675 5.13749V13.6125Z" fill="#161A23"/>
<path d="M16.9125 6.59999C16.575 6.26249 16.05 6.26249 15.7125 6.59999C15.375 6.93749 15.375 7.46249 15.7125 7.79999L17.1 9.18749L15.75 10.575C15.4125 10.9125 15.4125 11.4375 15.75 11.775C15.9 11.925 16.125 12.0375 16.35 12.0375C16.575 12.0375 16.8 11.9625 16.95 11.775L18.825 9.89999C19.2 9.52499 19.2 8.92499 18.825 8.54999L16.9125 6.59999Z" fill="#161A23"/>
<path d="M6.86251 9.33749L8.21251 7.98749C8.55001 7.64999 8.55001 7.12499 8.21251 6.78749C7.87501 6.44999 7.35001 6.44999 7.01251 6.78749L5.13751 8.66249C4.76251 9.03749 4.76251 9.63749 5.13751 10.0125L7.05001 11.925C7.20001 12.075 7.42501 12.1875 7.65001 12.1875C7.87501 12.1875 8.10001 12.1125 8.25001 11.925C8.58751 11.5875 8.58751 11.0625 8.25001 10.725L6.86251 9.33749Z" fill="#161A23"/>
<path d="M13.1625 6.4125C12.7125 6.225 12.225 6.45 12.075 6.9L10.35 11.25C10.1625 11.7 10.3875 12.1875 10.8375 12.3375C10.95 12.375 11.025 12.4125 11.1375 12.4125C11.475 12.4125 11.775 12.225 11.925 11.8875L13.65 7.5C13.8 7.0875 13.6125 6.5625 13.1625 6.4125Z" fill="#161A23"/>
</svg>
