<svg width="24" height="24" viewBox="0 0 24 24" fill="none" xmlns="http://www.w3.org/2000/svg">
<path d="M22.5 11.175H16.725C16.3125 8.92505 14.3625 7.23755 12.0375 7.23755C9.71251 7.23755 7.72501 8.92505 7.35001 11.175H1.50001C1.05001 11.175 0.637512 11.55 0.637512 12.0375C0.637512 12.4875 1.01251 12.9 1.50001 12.9H7.31251C7.72501 15.15 9.67501 16.8375 12 16.8375C14.325 16.8375 16.3125 15.15 16.6875 12.9H22.5C22.95 12.9 23.3625 12.525 23.3625 12.0375C23.3625 11.55 22.95 11.175 22.5 11.175ZM12.0375 15.1125C10.35 15.1125 8.92501 13.725 8.92501 12C8.92501 10.275 10.3125 8.88755 12.0375 8.88755C13.725 8.88755 15.1125 10.275 15.1125 11.9625C15.1125 13.725 13.725 15.1125 12.0375 15.1125Z" fill="#161A23"/>
</svg>
