<svg width="24" height="24" viewBox="0 0 24 24" fill="none" xmlns="http://www.w3.org/2000/svg">
<path d="M7.34999 5.28753C7.01249 4.98753 6.44999 5.02503 6.14999 5.36253L0.974994 11.2125C0.562494 11.6625 0.562494 12.375 0.974994 12.825L6.18749 18.675C6.33749 18.8625 6.59999 18.975 6.82499 18.975C7.01249 18.975 7.23749 18.9 7.38749 18.75C7.72499 18.45 7.76249 17.8875 7.46249 17.55L2.51249 12L7.42499 6.48753C7.76249 6.11253 7.72499 5.58753 7.34999 5.28753Z" fill="#161A23"/>
<path d="M23.025 11.2125L17.8125 5.36253C17.5125 5.02503 16.9875 4.98753 16.6125 5.28753C16.2375 5.58753 16.2375 6.11253 16.5375 6.48753L21.4875 12L16.575 17.5125C16.275 17.85 16.3125 18.375 16.65 18.7125C16.8 18.8625 17.025 18.9375 17.2125 18.9375C17.4375 18.9375 17.6625 18.825 17.85 18.6375L23.0625 12.7875C23.4375 12.3375 23.4375 11.6625 23.025 11.2125Z" fill="#161A23"/>
<path d="M14.2125 5.40004C13.7625 5.25004 13.275 5.47504 13.1625 5.92504L9.2625 17.5125C9.1125 17.9625 9.3375 18.45 9.7875 18.5625C9.8625 18.6 9.97499 18.6 10.05 18.6C10.3875 18.6 10.725 18.375 10.8375 18.0375L14.7 6.45004C14.8875 6.03754 14.6625 5.55004 14.2125 5.40004Z" fill="#161A23"/>
</svg>
