<svg width="24" height="24" viewBox="0 0 24 24" fill="none" xmlns="http://www.w3.org/2000/svg">
<path d="M21 1.38745H3.00001C1.72501 1.38745 0.637512 2.43745 0.637512 3.74995V20.2875C0.637512 21.5625 1.68751 22.65 3.00001 22.65H21C22.275 22.65 23.3625 21.6 23.3625 20.2875V3.71245C23.3625 2.43745 22.275 1.38745 21 1.38745ZM3.00001 3.07495H21C21.375 3.07495 21.675 3.37495 21.675 3.74995V6.07495H2.36251V3.71245C2.36251 3.37495 2.62501 3.07495 3.00001 3.07495ZM21 20.9249H3.00001C2.62501 20.9249 2.32501 20.625 2.32501 20.25V7.72495H21.6375V20.25C21.675 20.625 21.375 20.9249 21 20.9249Z" fill="#161A23"/>
<path d="M7.875 17.2125H7.8375V15.3375C7.8375 15.1125 7.7625 14.925 7.6125 14.775L7.05 14.175L7.6125 13.575C7.7625 13.425 7.8375 13.2 7.8375 13.0125V11.3625H7.875C8.325 11.3625 8.7375 10.9875 8.7375 10.5C8.7375 10.0125 8.3625 9.63745 7.875 9.63745H6.975C6.525 9.63745 6.1125 10.0125 6.1125 10.5V12.675L5.2875 13.6125C4.9875 13.95 4.9875 14.4375 5.2875 14.7375L6.1125 15.675V18.075C6.1125 18.525 6.4875 18.9375 6.975 18.9375H7.875C8.325 18.9375 8.7375 18.5625 8.7375 18.075C8.7375 17.5875 8.325 17.2125 7.875 17.2125Z" fill="#161A23"/>
<path d="M17.85 12.675V10.5C17.85 10.05 17.475 9.63745 16.9875 9.63745H16.125C15.675 9.63745 15.2625 10.0125 15.2625 10.5C15.2625 10.9875 15.6375 11.3625 16.125 11.3625H16.1625V13.0125C16.1625 13.2375 16.2375 13.425 16.3875 13.575L16.95 14.175L16.3875 14.775C16.2375 14.925 16.1625 15.15 16.1625 15.3375V17.2125H16.125C15.675 17.2125 15.2625 17.5875 15.2625 18.075C15.2625 18.5625 15.6375 18.9375 16.125 18.9375H17.025C17.475 18.9375 17.8875 18.5625 17.8875 18.075V15.675L18.7125 14.7375C19.0125 14.4 19.0125 13.9125 18.7125 13.6125L17.85 12.675Z" fill="#161A23"/>
</svg>
