<svg width="24" height="24" viewBox="0 0 24 24" fill="none" xmlns="http://www.w3.org/2000/svg">
<g clip-path="url(#clip0_914_44902)">
<path d="M23.25 7.65007L12.5625 0.525075C12.1875 0.300073 11.8125 0.300073 11.4375 0.525075L0.7875 7.65007C0.525 7.80007 0.375 8.17507 0.375 8.43757V15.5251C0.375 15.8251 0.525 16.1626 0.7875 16.3876L11.4375 23.4751C11.8125 23.7001 12.1875 23.7001 12.5625 23.4751L23.2125 16.3876C23.475 16.2376 23.625 15.8626 23.625 15.5251V8.43757C23.6625 8.13757 23.5125 7.80007 23.25 7.65007ZM13.0125 3.22507L20.85 8.47507L17.2875 10.8001L12.975 7.87507C13.0125 7.87507 13.0125 3.22507 13.0125 3.22507ZM11.025 3.22507V7.87507L6.675 10.8001L3.1875 8.47507L11.025 3.22507ZM2.4 10.3126L4.875 12.0001L2.4 13.6876V10.3126ZM11.025 20.7751L3.1875 15.5251L6.675 13.2001L11.025 16.1251V20.7751ZM12.0375 14.4001L8.475 12.0001L12.0375 9.60007L15.6 12.0001L12.0375 14.4001ZM13.0125 20.7751V16.1251L17.3625 13.2001L20.85 15.5251L13.0125 20.7751ZM21.6375 13.6876L19.1625 12.0001L21.6375 10.3126V13.6876Z" fill="#15171A"/>
</g>
<defs>
<clipPath id="clip0_914_44902">
<rect width="24" height="24" fill="white"/>
</clipPath>
</defs>
</svg>
