<svg width="24" height="24" viewBox="0 0 24 24" fill="none" xmlns="http://www.w3.org/2000/svg">
<path d="M19.275 16.6501C19.2375 16.4626 19.3125 16.2376 19.4625 16.0876C22.1625 13.3501 22.9125 9.48756 21.375 6.03756C20.0625 3.11256 17.325 1.08756 14.25 0.712559C9.89999 0.187559 5.92499 2.70006 4.57499 6.82506C4.57499 6.86256 4.53749 6.90006 4.53749 6.93756L4.12499 9.52506L2.02499 13.3501C1.79999 13.7626 1.79999 14.2501 2.06249 14.6626C2.32499 15.0751 2.73749 15.3376 3.22499 15.3376H3.63749L4.16249 18.2251C4.34999 19.3501 5.32499 20.1376 6.44999 20.1376H8.92499C9.22499 20.1376 9.48749 20.3626 9.56249 20.6251L9.74999 21.4876C10.0125 22.5376 10.95 23.2876 12.0375 23.2876H17.6625C18.375 23.2876 19.0125 22.9876 19.4625 22.4626C19.9125 21.9376 20.1 21.2251 19.9875 20.5501L19.275 16.6501ZM18.15 21.4126C18.075 21.4876 17.925 21.6376 17.6625 21.6376H12.0375C11.7375 21.6376 11.475 21.4126 11.4 21.1501L11.2125 20.2876C10.95 19.2376 10.0125 18.4876 8.92499 18.4876H6.44999C6.14999 18.4876 5.84999 18.2626 5.81249 17.9626L5.13749 14.3626C5.06249 13.9501 4.72499 13.6876 4.31249 13.6876H3.78749L5.66249 10.2376C5.69999 10.1626 5.73749 10.0501 5.73749 9.97506L6.14999 7.35006C7.27499 4.05006 10.5 2.02506 13.9875 2.43756C16.5 2.73756 18.7125 4.38756 19.7625 6.75006C21 9.56256 20.4 12.6751 18.1875 14.9251C17.6625 15.4501 17.4 16.2376 17.55 16.9876L18.2625 20.9251C18.3375 21.1501 18.225 21.3376 18.15 21.4126Z" fill="#161A23"/>
<path d="M10.65 7.0875C10.35 6.75 9.78749 6.7125 9.44999 7.0125L7.34999 8.8875C7.16249 9.0375 7.08749 9.2625 7.08749 9.525C7.08749 9.7875 7.19999 9.975 7.34999 10.1625L9.44999 12.0375C9.59999 12.1875 9.82499 12.2625 10.0125 12.2625C10.2375 12.2625 10.4625 12.1875 10.65 12C10.95 11.6625 10.95 11.1375 10.575 10.8L9.18749 9.525L10.575 8.25C10.9125 7.9875 10.95 7.425 10.65 7.0875Z" fill="#161A23"/>
<path d="M19.3125 9.56253C19.3125 9.33753 19.2 9.11253 19.05 8.92503L16.95 7.05003C16.6125 6.75003 16.0875 6.75003 15.75 7.12503C15.45 7.46253 15.45 7.98753 15.825 8.32503L17.2125 9.60003L15.825 10.875C15.4875 11.175 15.45 11.7375 15.75 12.075C15.9 12.2625 16.1625 12.3375 16.3875 12.3375C16.575 12.3375 16.8 12.2625 16.95 12.1125L19.05 10.2375C19.2 10.0125 19.3125 9.78753 19.3125 9.56253Z" fill="#161A23"/>
<path d="M14.175 5.73753C13.725 5.62503 13.275 5.88753 13.125 6.33753L11.5125 12.375C11.4 12.825 11.6625 13.275 12.1125 13.425C12.1875 13.4625 12.2625 13.4625 12.3375 13.4625C12.7125 13.4625 13.05 13.2 13.1625 12.825L14.775 6.75003C14.8875 6.30003 14.625 5.85003 14.175 5.73753Z" fill="#161A23"/>
</svg>
