<svg width="24" height="24" viewBox="0 0 24 24" fill="none" xmlns="http://www.w3.org/2000/svg">
<path d="M9.5625 6.63755C9.2625 6.30005 8.7 6.26255 8.3625 6.56255L6.2625 8.43755C6.075 8.58755 6 8.81255 6 9.07505C6 9.33755 6.1125 9.52505 6.2625 9.71255L8.3625 11.5876C8.5125 11.7376 8.7375 11.8126 8.925 11.8126C9.15 11.8126 9.375 11.7376 9.5625 11.5501C9.8625 11.2126 9.8625 10.6876 9.4875 10.3501L8.1 9.07505L9.4875 7.80005C9.825 7.50005 9.8625 6.97505 9.5625 6.63755Z" fill="#161A23"/>
<path d="M17.925 8.47508L15.825 6.60008C15.4875 6.30008 14.9625 6.30007 14.625 6.67507C14.325 7.01257 14.325 7.53757 14.7 7.87507L16.0875 9.15007L14.7 10.4251C14.3625 10.7251 14.325 11.2876 14.625 11.6251C14.775 11.8126 15.0375 11.8876 15.2625 11.8876C15.45 11.8876 15.675 11.8126 15.825 11.6626L17.925 9.78758C18.1125 9.63758 18.1875 9.41257 18.1875 9.15007C18.1875 8.88757 18.1125 8.62508 17.925 8.47508Z" fill="#161A23"/>
<path d="M13.0875 5.2501C12.6375 5.1376 12.1875 5.40011 12.0375 5.85011L10.3875 11.9251C10.275 12.3751 10.5375 12.8251 10.9875 12.9751C11.0625 13.0126 11.1375 13.0126 11.2125 13.0126C11.5875 13.0126 11.925 12.7501 12.0375 12.3751L13.6875 6.3001C13.8 5.8501 13.5375 5.4001 13.0875 5.2501Z" fill="#161A23"/>
<path d="M20.6625 9.33755C20.6625 4.53755 16.7625 0.675049 12 0.675049C7.23752 0.675049 3.33752 4.53755 3.33752 9.33755C3.33752 12.7125 5.28752 15.675 8.13752 17.1V21.0751C8.13752 22.35 9.15002 23.3625 10.425 23.3625H13.8C15.075 23.3625 16.0875 22.35 16.0875 21.0751V16.9875C18.7875 15.525 20.6625 12.6375 20.6625 9.33755ZM14.3625 17.7001V21.0375C14.3625 21.375 14.1 21.6376 13.7625 21.6376H10.3875C10.05 21.6376 9.78752 21.375 9.78752 21.0375V17.7001C10.5 17.8876 11.25 18 12 18C12.75 18 13.5 17.8876 14.2125 17.7001H14.3625ZM12 16.3125C8.13752 16.3125 5.02502 13.1625 5.02502 9.33755C5.02502 5.51255 8.13752 2.36255 12 2.36255C15.8625 2.36255 18.975 5.51255 18.975 9.33755C18.975 13.1625 15.8625 16.3125 12 16.3125Z" fill="#161A23"/>
</svg>
