<svg width="24" height="24" viewBox="0 0 24 24" fill="none" xmlns="http://www.w3.org/2000/svg">
<path d="M20.9625 5.4749L13.2 0.974902C12.45 0.562402 11.55 0.562402 10.8375 0.974902L3.075 5.4749C2.325 5.8874 1.875 6.6749 1.875 7.5374V16.4999C1.875 17.3624 2.325 18.1499 3.075 18.5624L10.8375 23.0624C11.2125 23.2874 11.625 23.3624 12.0375 23.3624C12.45 23.3624 12.8625 23.2499 13.2375 23.0624L21 18.5624C21.75 18.1499 22.2 17.3624 22.2 16.4999V7.4999C22.1625 6.6749 21.675 5.8874 20.9625 5.4749ZM20.475 16.4999C20.475 16.7624 20.325 16.9874 20.1375 17.0999L12.375 21.5999C12.15 21.7124 11.8875 21.7124 11.7 21.5999L3.9375 17.0999C3.7125 16.9874 3.6 16.7624 3.6 16.4999V7.4999C3.6 7.2374 3.75 7.0124 3.9375 6.8999L11.7 2.3999C11.8125 2.3249 11.925 2.3249 12.0375 2.3249C12.15 2.3249 12.2625 2.3624 12.375 2.3999L20.1375 6.8999C20.3625 7.0124 20.475 7.2374 20.475 7.4999V16.4999Z" fill="#161A23"/>
<path d="M9.45001 9.525C9.15001 9.1875 8.58751 9.15 8.25001 9.45L6.15001 11.325C5.96251 11.475 5.88751 11.7 5.88751 11.9625C5.88751 12.225 6.00001 12.4125 6.15001 12.6L8.25001 14.475C8.40001 14.625 8.62501 14.7 8.81251 14.7C9.03751 14.7 9.26251 14.625 9.45001 14.4375C9.75001 14.1 9.75001 13.575 9.37501 13.2375L7.98751 11.9625L9.37501 10.6875C9.75001 10.3875 9.75001 9.8625 9.45001 9.525Z" fill="#161A23"/>
<path d="M15.75 9.44981C15.4125 9.14981 14.8875 9.14981 14.55 9.52481C14.25 9.86231 14.25 10.3873 14.625 10.7248L16.0125 11.9998L14.625 13.2373C14.2875 13.5373 14.25 14.0998 14.55 14.4373C14.7 14.6248 14.9625 14.6998 15.1875 14.6998C15.375 14.6998 15.6 14.6248 15.75 14.4748L17.85 12.5998C18.0375 12.4498 18.1125 12.2248 18.1125 11.9623C18.1125 11.6998 18 11.5123 17.85 11.3248L15.75 9.44981Z" fill="#161A23"/>
<path d="M13.0125 8.13731C12.5625 8.02481 12.1125 8.28731 11.9625 8.73731L10.3125 14.8123C10.2 15.2623 10.4625 15.7123 10.9125 15.8623C10.9875 15.8998 11.0625 15.8998 11.1375 15.8998C11.5125 15.8998 11.85 15.6373 11.9625 15.2623L13.6125 9.18731C13.725 8.73731 13.4625 8.28731 13.0125 8.13731Z" fill="#161A23"/>
</svg>
