<svg width="23" height="23" viewBox="0 0 23 23" fill="none" xmlns="http://www.w3.org/2000/svg">
<path d="M22.1261 9C21.7511 8.5875 21.2261 8.3625 20.6636 8.3625H20.5511C20.3636 8.3625 20.2136 8.25 20.1761 8.1C20.1386 7.95 20.0636 7.8375 20.0261 7.6875C19.9511 7.5375 20.0261 7.3875 20.1386 7.275L20.2136 7.2C20.6261 6.825 20.8511 6.3 20.8511 5.7375C20.8511 5.175 20.6636 4.65 20.2511 4.2375L18.7886 2.7375C18.0011 1.9125 16.6511 1.875 15.8261 2.7L15.7136 2.775C15.6011 2.8875 15.4136 2.925 15.2261 2.85C15.0761 2.775 14.9261 2.7 14.7386 2.6625C14.5511 2.5875 14.4386 2.4375 14.4386 2.2875V2.1C14.4386 0.9375 13.5011 0 12.3386 0H10.2386C9.67609 0 9.15109 0.225 8.77609 0.6C8.36359 1.0125 8.17609 1.5375 8.17609 2.0625V2.2125C8.17609 2.3625 8.06359 2.5125 7.91359 2.5875C7.83859 2.625 7.80109 2.625 7.72609 2.6625C7.57609 2.7375 7.38859 2.7 7.27609 2.5875L7.20109 2.475C6.82609 2.0625 6.30109 1.8375 5.73859 1.8375C5.17609 1.8375 4.65109 2.025 4.23859 2.4375L2.73859 3.9C1.91359 4.6875 1.87609 6.0375 2.70109 6.8625L2.77609 6.975C2.88859 7.0875 2.92609 7.275 2.85109 7.3875C2.77609 7.5375 2.73859 7.65 2.66359 7.8C2.58859 7.95 2.47609 8.025 2.28859 8.025H2.17609C1.61359 8.025 1.08859 8.2125 0.676087 8.625C0.263587 9 0.0385871 9.525 0.0385871 10.0875L0.00108712 12.1875C-0.0364129 13.35 0.901087 14.2875 2.06359 14.325H2.17609C2.36359 14.325 2.51359 14.4375 2.55109 14.5875C2.62609 14.7 2.70109 14.8125 2.73859 14.9625C2.77609 15.1125 2.73859 15.2625 2.62609 15.375L2.55109 15.45C2.13859 15.825 1.91359 16.35 1.91359 16.9125C1.91359 17.475 2.10109 18 2.51359 18.4125L3.97609 19.9125C4.76359 20.7375 6.11359 20.775 6.93859 19.95L7.05109 19.875C7.16359 19.7625 7.35109 19.725 7.53859 19.8C7.68859 19.875 7.83859 19.95 8.02609 19.9875C8.21359 20.0625 8.32609 20.2125 8.32609 20.3625V20.5125C8.32609 21.675 9.26359 22.6125 10.4261 22.6125H12.5261C13.6886 22.6125 14.6261 21.675 14.6261 20.5125V20.3625C14.6261 20.2125 14.7386 20.0625 14.8886 19.9875C14.9636 19.95 15.0011 19.95 15.0761 19.9125C15.2636 19.8375 15.4136 19.875 15.5261 19.9875L15.6011 20.1C15.9761 20.5125 16.5011 20.7375 17.0636 20.7375C17.6261 20.7375 18.1511 20.55 18.5636 20.1375L20.0636 18.675C20.8886 17.8875 20.9261 16.5375 20.1011 15.7125L20.0261 15.6C19.9136 15.4875 19.8761 15.3 19.9511 15.1875C20.0261 15.0375 20.0636 14.925 20.1386 14.775C20.2136 14.625 20.3636 14.55 20.5136 14.55H20.6261H20.6636C21.7886 14.55 22.7261 13.65 22.7636 12.4875L22.8011 10.3875C22.7261 9.9375 22.5011 9.375 22.1261 9ZM21.0011 12.525C21.0011 12.75 20.8136 12.9375 20.5886 12.9375H20.4761H20.4386C19.5761 12.9375 18.7886 13.4625 18.4886 14.2125C18.4511 14.325 18.3761 14.4375 18.3386 14.55C18.0011 15.3 18.1511 16.2375 18.7511 16.8375L18.8261 16.95C18.9761 17.1 18.9761 17.3625 18.8261 17.5125L17.3261 18.975C17.2136 19.0875 17.1011 19.0875 17.0261 19.0875C16.9511 19.0875 16.8386 19.0875 16.7261 18.975L16.6511 18.8625C16.0511 18.225 15.1511 18.0375 14.3261 18.4125L14.1761 18.4875C13.3511 18.825 12.8261 19.575 12.8261 20.4375V20.5875C12.8261 20.8125 12.6386 21 12.4136 21H10.3136C10.0886 21 9.90109 20.8125 9.90109 20.5875V20.4375C9.90109 19.575 9.37609 18.7875 8.55109 18.4875C8.43859 18.45 8.28859 18.375 8.17609 18.3375C7.87609 18.1875 7.57609 18.15 7.27609 18.15C6.75109 18.15 6.22609 18.3375 5.81359 18.75L5.73859 18.7875C5.58859 18.9375 5.32609 18.9375 5.17609 18.7875L3.71359 17.2875C3.60109 17.175 3.60109 17.0625 3.60109 16.9875C3.60109 16.9125 3.60109 16.8 3.71359 16.6875L3.78859 16.6125C4.42609 16.0125 4.61359 15.075 4.27609 14.325C4.23859 14.2125 4.20109 14.1 4.12609 13.9875C3.82609 13.2 3.07609 12.6375 2.21359 12.6375H2.10109C1.87609 12.6375 1.68859 12.45 1.68859 12.225L1.72609 10.125C1.72609 9.975 1.80109 9.9 1.83859 9.825C1.87609 9.7875 1.98859 9.7125 2.13859 9.7125H2.25109C3.11359 9.75 3.90109 9.225 4.23859 8.4375C4.27609 8.325 4.35109 8.2125 4.38859 8.1C4.72609 7.35 4.57609 6.4125 3.97609 5.8125L3.90109 5.7C3.75109 5.55 3.75109 5.2875 3.90109 5.1375L5.40109 3.675C5.51359 3.5625 5.62609 3.5625 5.70109 3.5625C5.77609 3.5625 5.88859 3.5625 6.00109 3.675L6.07609 3.7875C6.67609 4.425 7.57609 4.6125 8.40109 4.275L8.55109 4.2C9.37609 3.8625 9.90109 3.1125 9.90109 2.25V2.1C9.90109 1.95 9.97609 1.875 10.0136 1.8C10.0511 1.725 10.1636 1.6875 10.3136 1.6875H12.4136C12.6386 1.6875 12.8261 1.875 12.8261 2.1V2.25C12.8261 3.1125 13.3511 3.9 14.1761 4.2C14.2886 4.2375 14.4386 4.3125 14.5511 4.35C15.3386 4.725 16.2761 4.575 16.9136 3.975L17.0261 3.9C17.1761 3.75 17.4386 3.75 17.5886 3.9L19.0511 5.4C19.1636 5.5125 19.1636 5.625 19.1636 5.7C19.1636 5.775 19.1261 5.8875 19.0511 6L18.9761 6.075C18.3011 6.6375 18.1136 7.575 18.4136 8.325C18.4511 8.4375 18.4886 8.55 18.5636 8.6625C18.8636 9.45 19.6136 10.0125 20.4761 10.0125H20.5886C20.7386 10.0125 20.8136 10.0875 20.8886 10.125C20.9636 10.1625 21.0011 10.275 21.0011 10.425V12.525Z" fill="#161A23"/>
<path d="M11.3635 6.22501C8.55105 6.22501 6.26355 8.51251 6.26355 11.325C6.26355 14.1375 8.55105 16.425 11.3635 16.425C14.176 16.425 16.4635 14.1375 16.4635 11.325C16.4635 8.51251 14.176 6.22501 11.3635 6.22501ZM11.3635 14.7375C9.48855 14.7375 7.95105 13.2 7.95105 11.325C7.95105 9.45001 9.48855 7.91251 11.3635 7.91251C13.2385 7.91251 14.776 9.45001 14.776 11.325C14.776 13.2 13.2385 14.7375 11.3635 14.7375Z" fill="#161A23"/>
</svg>
