<svg width="24" height="24" viewBox="0 0 24 24" fill="none" xmlns="http://www.w3.org/2000/svg">
<g clip-path="url(#clip0_501_47612)">
<path d="M12.0375 7.35004C9.48751 7.35004 7.38751 9.45004 7.38751 12C7.38751 14.5875 9.48751 16.65 12.0375 16.65C14.5875 16.65 16.6875 14.5875 16.6875 12C16.6875 9.45004 14.5875 7.35004 12.0375 7.35004ZM12.0375 15C10.3875 15 9.07501 13.65 9.07501 12.0375C9.07501 10.3875 10.3875 9.07504 12.0375 9.07504C13.6875 9.07504 15 10.3875 15 12C15 13.65 13.65 15 12.0375 15Z" fill="#161A23"/>
<path d="M22.7625 14.2875L20.6625 13.125C20.7375 12.7125 20.775 12.3 20.775 11.8875C20.775 11.4375 20.7375 11.025 20.7 10.6125L22.8375 9.41251C23.325 9.15001 23.5125 8.55001 23.2875 8.02501L21.1125 4.35001C20.85 3.90001 20.25 3.71251 19.7625 3.90001L17.5125 5.13751C17.4 5.06251 17.2875 4.95001 17.2125 4.87501C16.8 4.53751 16.425 4.20001 15.825 3.90001C15.7875 3.90001 15.75 3.86251 15.75 3.78751V2.43751C15.75 1.46251 14.9625 0.637512 13.95 0.637512H10.0875C9.11251 0.637512 8.28751 1.46251 8.28751 2.43751V3.90001C8.28751 3.93751 8.25001 3.97501 8.21251 4.01251C7.65001 4.27501 7.23751 4.65001 6.78751 4.98751C6.71251 5.06251 6.60001 5.13751 6.52501 5.21251L4.53751 4.08751C3.78751 3.67501 3.15001 3.93751 2.88751 4.38751L0.825013 7.95001C0.712513 8.25001 0.675013 8.55001 0.750013 8.85001C0.825013 9.15001 1.01251 9.37501 1.27501 9.52501L3.37501 10.65C3.30001 11.025 3.30001 11.4375 3.30001 11.925C3.30001 12.3375 3.33751 12.75 3.37501 13.1625L1.20001 14.3625C0.712513 14.625 0.525013 15.225 0.750013 15.75L2.92501 19.425C3.18751 19.875 3.75001 20.0625 4.27501 19.875L6.52501 18.6375C6.63751 18.7125 6.71251 18.7875 6.82501 18.9C7.23751 19.275 7.65001 19.6125 8.25001 19.875C8.28751 19.875 8.32501 19.9125 8.32501 19.9875V21.6C8.32501 22.575 9.11251 23.4 10.125 23.4H13.95C14.925 23.4 15.75 22.575 15.75 21.6V19.875C15.75 19.8375 15.7875 19.8 15.825 19.7625C16.3875 19.5 16.7625 19.1625 17.2125 18.7875C17.325 18.7125 17.4 18.6375 17.5125 18.525L19.5 19.65C20.25 20.0625 20.85 19.8 21.15 19.35L23.25 15.7875C23.4 15.525 23.4375 15.225 23.3625 14.9625C23.2875 14.7 23.025 14.4375 22.7625 14.2875ZM19.9125 18L18.1125 16.9875C17.5875 16.6875 16.9875 16.7625 16.5375 17.1375C16.35 17.2875 16.2 17.4 16.05 17.55C15.675 17.8875 15.4125 18.1125 15.0375 18.2625C14.4375 18.5625 14.025 19.2 14.025 19.875V21.525C14.025 21.6 13.9875 21.6375 13.9125 21.6375H10.0875C10.0125 21.6375 9.97501 21.6 9.97501 21.525V19.9125C9.97501 19.2375 9.56251 18.6 8.96251 18.3C8.58751 18.1125 8.28751 17.8875 7.91251 17.55C7.76251 17.4375 7.61251 17.2875 7.42501 17.175C7.16251 16.9875 6.86251 16.875 6.52501 16.875C6.30001 16.875 6.03751 16.95 5.81251 17.0625L4.01251 18.075L2.51251 15.525L4.27501 14.55C4.80001 14.25 5.10001 13.6875 5.02501 13.05C4.98751 12.675 4.95001 12.3 4.95001 11.925C4.95001 11.5125 4.98751 11.1375 5.02501 10.8375C5.13751 10.2 4.83751 9.56251 4.27501 9.26251L2.62501 8.32501L4.08751 5.81251L5.88751 6.82501C6.41251 7.12501 7.01251 7.05001 7.46251 6.67501C7.61251 6.56251 7.76251 6.41251 7.91251 6.30001C8.28751 5.96251 8.58751 5.73751 8.96251 5.55001C9.60001 5.25001 9.97501 4.61251 9.97501 3.93751V2.47501C9.97501 2.40001 10.0125 2.36251 10.0875 2.36251H13.9125C13.9875 2.36251 14.025 2.40001 14.025 2.47501V3.90001C14.025 4.57501 14.4375 5.21251 15.0375 5.51251C15.4125 5.70001 15.675 5.92501 16.05 6.22501C16.2 6.37501 16.35 6.48751 16.5375 6.63751C16.9875 7.01251 17.625 7.05001 18.1125 6.75001L19.9125 5.73751L21.4125 8.28751L19.6875 9.26251C19.1625 9.56251 18.8625 10.2 18.975 10.8375C19.0125 11.175 19.05 11.55 19.05 11.925C19.05 12.3 19.0125 12.675 18.9375 13.05C18.825 13.6875 19.125 14.2875 19.6875 14.5875L21.375 15.525L19.9125 18Z" fill="#161A23"/>
</g>
<defs>
<clipPath id="clip0_501_47612">
<rect width="24" height="24" fill="white"/>
</clipPath>
</defs>
</svg>
