<svg width="24" height="24" viewBox="0 0 24 24" fill="none" xmlns="http://www.w3.org/2000/svg">
<g clip-path="url(#clip0_501_47740)">
<path d="M16.125 12.7875C14.325 12.7875 12.825 14.2875 12.825 16.0875C12.825 17.8875 14.2875 19.3875 16.125 19.3875C17.9625 19.3875 19.425 17.8875 19.425 16.0875C19.425 14.2875 17.925 12.7875 16.125 12.7875ZM16.125 17.7375C15.225 17.7375 14.5125 17.025 14.5125 16.125C14.5125 15.225 15.225 14.5125 16.125 14.5125C17.025 14.5125 17.7375 15.225 17.7375 16.125C17.7375 16.9875 17.025 17.7375 16.125 17.7375Z" fill="#161A23"/>
<path d="M23.175 17.325L22.0125 16.6875C22.05 16.4625 22.05 16.2375 22.05 16.05C22.05 15.825 22.05 15.6 22.0125 15.4125L23.2125 14.7375C23.6625 14.475 23.8125 13.95 23.625 13.4625L22.2 11.025C21.9375 10.6125 21.4125 10.425 20.9625 10.6125L19.65 11.325L19.6125 11.2875C19.3875 11.1 19.125 10.875 18.7875 10.6875V9.9C18.7875 9.1125 18.15 8.4375 17.325 8.4375H14.8875C14.1 8.4375 13.425 9.075 13.425 9.9V10.6875C13.0875 10.875 12.825 11.1 12.5625 11.2875L11.475 10.6875C10.8 10.3125 10.2375 10.575 10.0125 10.9875L8.66249 13.275C8.51249 13.5 8.47499 13.8 8.54999 14.0625C8.62499 14.325 8.81249 14.55 9.03749 14.6625L10.2375 15.3C10.2 15.4875 10.2 15.7125 10.2 15.9375C10.2 16.1625 10.2 16.35 10.2375 16.575L8.99999 17.3625C8.54999 17.625 8.39999 18.15 8.58749 18.6375L10.0125 21.075C10.275 21.4875 10.8 21.675 11.25 21.4875L12.5625 20.775C12.5625 20.775 12.6 20.775 12.6 20.8125C12.8625 21.0375 13.0875 21.225 13.4625 21.4125V22.3125C13.4625 23.1 14.1 23.775 14.925 23.775H17.3625C18.15 23.775 18.825 23.1375 18.825 22.3125V21.375C19.1625 21.1875 19.3875 21 19.65 20.775C19.65 20.775 19.6875 20.775 19.6875 20.7375L20.775 21.3375C21.45 21.7125 22.0125 21.45 22.2375 21.0375L23.5875 18.75C23.7375 18.525 23.775 18.225 23.7 17.9625C23.5875 17.6625 23.4375 17.4375 23.175 17.325ZM20.325 15.375C20.3625 15.5625 20.3625 15.7875 20.3625 16.05C20.3625 16.275 20.3625 16.5 20.2875 16.725C20.2125 17.25 20.4375 17.775 20.925 18.0375L21.75 18.4875L21.075 19.6125L20.175 19.0875C19.725 18.825 19.2 18.9 18.825 19.2C18.7125 19.275 18.6 19.3875 18.525 19.4625C18.3 19.65 18.15 19.8 17.925 19.875C17.4375 20.1 17.1 20.625 17.1 21.1875V22.05H15.1125V21.225C15.1125 20.6625 14.775 20.1375 14.2875 19.9125C14.0625 19.8 13.9125 19.6875 13.6875 19.4625C13.575 19.3875 13.5 19.3125 13.3875 19.2C13.0125 18.9 12.45 18.8625 12.0375 19.0875L11.1375 19.6125L10.4625 18.4875L11.325 18C11.775 17.7375 12.0375 17.25 11.9625 16.725C11.925 16.5 11.925 16.275 11.925 16.05C11.925 15.7875 11.925 15.6 11.9625 15.375C12.0375 14.85 11.8125 14.325 11.325 14.0625L10.5 13.6125L11.1375 12.4875L12.0375 12.975C12.4875 13.2375 13.0125 13.1625 13.3875 12.8625C13.5 12.7875 13.575 12.7125 13.6875 12.6C13.9125 12.375 14.1 12.2625 14.2875 12.15C14.775 11.925 15.1125 11.4 15.1125 10.8375V10.125H17.1V10.8C17.1 11.3625 17.4375 11.8875 17.925 12.1125C18.1125 12.225 18.2625 12.3375 18.525 12.525C18.6375 12.6 18.75 12.7125 18.8625 12.7875C19.2375 13.0875 19.7625 13.125 20.2125 12.9L21.1125 12.375L21.7875 13.5L20.925 13.9875C20.475 14.325 20.2125 14.85 20.325 15.375Z" fill="#161A23"/>
<path d="M5.73751 4.35004C4.98751 4.35004 4.35001 4.98754 4.35001 5.73754C4.35001 6.48754 4.98751 7.12504 5.73751 7.12504C6.48751 7.12504 7.12501 6.48754 7.12501 5.73754C7.12501 4.98754 6.52501 4.35004 5.73751 4.35004Z" fill="#161A23"/>
<path d="M10.125 9.22501L11.0625 7.65001C11.175 7.42501 11.2125 7.16251 11.175 6.90001C11.1375 6.63751 10.95 6.45001 10.725 6.33751L10.05 6.00001C10.05 5.88751 10.05 5.81251 10.05 5.70001C10.05 5.58751 10.05 5.51251 10.05 5.40001L10.725 5.02501C11.1375 4.80001 11.325 4.27501 11.1375 3.82501L10.125 2.13751C9.9 1.76251 9.375 1.57501 8.9625 1.76251L8.2125 2.17501C8.1 2.10001 7.9875 1.98751 7.875 1.91251V1.53751C7.875 0.825012 7.3125 0.262512 6.6 0.262512H4.9125C4.2 0.262512 3.6375 0.825012 3.6375 1.53751V1.91251C3.525 2.02501 3.4125 2.10001 3.3 2.21251L2.7 1.87501C2.1 1.53751 1.575 1.80001 1.35 2.17501L0.4125 3.75001C0.3 3.97501 0.2625 4.23751 0.3 4.50001C0.375 4.76251 0.525 4.95001 0.75 5.06251L1.3875 5.43751C1.3875 5.51251 1.3875 5.62501 1.3875 5.73751C1.3875 5.81251 1.3875 5.92501 1.3875 6.00001L0.75 6.37501C0.3375 6.60001 0.15 7.12501 0.3375 7.57501L1.3125 9.26251C1.5375 9.67501 2.0625 9.82501 2.475 9.63751L3.225 9.22501C3.3375 9.30001 3.45 9.41251 3.6 9.48751V9.93751C3.6 10.65 4.1625 11.2125 4.875 11.2125H6.5625C7.275 11.2125 7.8375 10.65 7.8375 9.93751V9.45001C7.95 9.37501 8.0625 9.26251 8.175 9.18751L8.775 9.52501C9.3375 9.86251 9.9 9.63751 10.125 9.22501ZM7.425 7.65001C7.35 7.72501 7.275 7.76251 7.2 7.83751C7.05 7.98751 6.975 8.02501 6.8625 8.10001C6.4125 8.32501 6.15 8.73751 6.15 9.22501V9.52501H5.325V9.22501C5.325 8.73751 5.025 8.28751 4.6125 8.10001C4.5 8.06251 4.425 7.98751 4.2375 7.83751C4.1625 7.76251 4.0875 7.72501 4.0125 7.65001C3.675 7.35001 3.1875 7.31251 2.775 7.53751L2.4 7.76251L2.25 7.46251L2.5875 7.27501C3 7.05001 3.225 6.60001 3.15 6.15001C3.15 6.00001 3.1125 5.85001 3.1125 5.70001C3.1125 5.55001 3.1125 5.40001 3.15 5.28751C3.225 4.83751 3 4.35001 2.5875 4.12501L2.25 3.93751L2.4375 3.63751L2.8125 3.86251C3.225 4.08751 3.675 4.05001 4.05 3.75001C4.125 3.67501 4.2 3.63751 4.2375 3.56251C4.3875 3.41251 4.5 3.33751 4.6125 3.30001C5.0625 3.07501 5.325 2.66251 5.325 2.17501V1.98751H6.15V2.17501C6.15 2.66251 6.4125 3.11251 6.8625 3.30001C6.975 3.33751 7.05 3.41251 7.2 3.56251C7.275 3.63751 7.35 3.67501 7.425 3.75001C7.7625 4.05001 8.25 4.08751 8.6625 3.86251L9.0375 3.63751L9.225 3.93751L8.8875 4.12501C8.475 4.35001 8.25 4.83751 8.325 5.28751C8.3625 5.40001 8.3625 5.55001 8.3625 5.70001C8.3625 5.85001 8.3625 5.96251 8.325 6.11251C8.25 6.60001 8.475 7.05001 8.8875 7.27501L9.1875 7.46251L9 7.76251L8.625 7.53751C8.25 7.31251 7.7625 7.35001 7.425 7.65001Z" fill="#161A23"/>
</g>
<defs>
<clipPath id="clip0_501_47740">
<rect width="24" height="24" fill="white"/>
</clipPath>
</defs>
</svg>
