<svg width="25" height="24" viewBox="0 0 25 24" fill="none" xmlns="http://www.w3.org/2000/svg">
<path d="M8.62499 13.425C6.93749 13.425 5.54999 14.8125 5.54999 16.5C5.54999 18.1875 6.93749 19.575 8.62499 19.575C10.3125 19.575 11.7 18.1875 11.7 16.5C11.7 14.8125 10.3125 13.425 8.62499 13.425ZM8.62499 17.8875C7.87499 17.8875 7.23749 17.25 7.23749 16.5C7.23749 15.75 7.87499 15.1125 8.62499 15.1125C9.37499 15.1125 10.0125 15.75 10.0125 16.5C10.0125 17.25 9.37499 17.8875 8.62499 17.8875Z" fill="#161A23"/>
<path d="M15.075 14.85L14.3625 14.5875C14.2875 14.325 14.175 14.0625 14.025 13.8L14.3625 13.125C14.5875 12.7125 14.5125 12.1875 14.1375 11.8125L13.275 10.95C12.9375 10.6125 12.4125 10.5375 12 10.7625L11.325 11.1C11.0625 10.9875 10.8 10.875 10.5375 10.7625L10.275 10.05C10.125 9.60005 9.67501 9.30005 9.18751 9.30005H7.98751C7.50001 9.30005 7.08751 9.60005 6.90001 10.05L6.67501 10.7625C6.41251 10.8375 6.15001 10.95 5.88751 11.1L5.25001 10.7625C4.80001 10.5375 4.31251 10.65 3.93751 10.9875L3.07501 11.85C2.73751 12.1875 2.66251 12.7125 2.88751 13.125L3.22501 13.8C3.11251 14.0625 3.00001 14.325 2.88751 14.5875L2.17501 14.8125C1.72501 14.9625 1.38751 15.375 1.38751 15.9V17.1C1.38751 17.5875 1.68751 18.0375 2.13751 18.15L2.85001 18.4125C2.92501 18.675 3.03751 18.9375 3.18751 19.2L2.88751 19.875C2.66251 20.2875 2.73751 20.8125 3.11251 21.1875L3.93751 22.0125C4.27501 22.35 4.80001 22.425 5.25001 22.2375L5.92501 21.9C6.18751 22.0125 6.45001 22.125 6.71251 22.2375L6.97501 22.95C7.12501 23.4 7.57501 23.7 8.02501 23.7H9.22501C9.71251 23.7 10.125 23.4 10.3125 22.95L10.5375 22.2375C10.8 22.1625 11.0625 22.05 11.325 21.9L12 22.2375C12.4125 22.4625 12.9375 22.3875 13.3125 22.0125L14.175 21.15C14.5125 20.8125 14.5875 20.2875 14.3625 19.875L14.025 19.2C14.1375 18.9375 14.25 18.675 14.3625 18.4125L15.075 18.1875C15.525 18.0375 15.8625 17.625 15.8625 17.1V15.9C15.825 15.4125 15.525 15 15.075 14.85ZM14.1375 16.6875L12.9375 17.1L12.825 17.55C12.75 17.9625 12.5625 18.375 12.3375 18.75L12.1125 19.125L12.675 20.25L12.375 20.55L11.25 19.9875L10.8375 20.2125C10.4625 20.4375 10.05 20.625 9.63751 20.7L9.18751 20.8125L8.77501 22.0125H8.40001L7.98751 20.8125L7.53751 20.7C7.16251 20.625 6.75001 20.4375 6.37501 20.2125L5.96251 19.9875L4.83751 20.55L4.57501 20.2875L5.13751 19.1625L4.91251 18.75C4.68751 18.375 4.53751 17.9625 4.42501 17.55L4.31251 17.1L3.11251 16.6875V16.3125L4.31251 15.9L4.42501 15.45C4.53751 15.0375 4.68751 14.625 4.91251 14.25L5.13751 13.8375L4.57501 12.7125L4.83751 12.45L5.96251 13.0125L6.37501 12.7875C6.75001 12.5625 7.16251 12.4125 7.57501 12.3L8.02501 12.1875L8.43751 10.9875H8.81251L9.22501 12.1875L9.67501 12.3C10.0875 12.4125 10.5 12.5625 10.875 12.7875L11.2875 13.0125L12.4125 12.45L12.675 12.7125L12.1125 13.8375L12.3375 14.25C12.5625 14.625 12.75 15.0375 12.825 15.45L12.9375 15.9L14.1375 16.3125V16.6875Z" fill="#161A23"/>
<path d="M17.625 3.33752C16.35 3.33752 15.3375 4.35002 15.3375 5.62502C15.3375 6.90002 16.35 7.91252 17.625 7.91252C18.9 7.91252 19.9125 6.90002 19.9125 5.62502C19.9125 4.35002 18.9 3.33752 17.625 3.33752ZM17.625 6.22502C17.2875 6.22502 17.025 5.96252 17.025 5.62502C17.025 5.28752 17.2875 5.02502 17.625 5.02502C17.9625 5.02502 18.225 5.28752 18.225 5.62502C18.225 5.96252 17.9625 6.22502 17.625 6.22502Z" fill="#161A23"/>
<path d="M22.275 5.88756C22.275 5.77506 22.275 5.66256 22.275 5.55006L22.575 5.28756C22.95 4.98756 23.1 4.46256 22.9125 4.01256L22.6125 3.22506C22.4625 2.77506 22.0125 2.51256 21.525 2.51256C21.525 2.51256 21.525 2.51256 21.4875 2.51256H21.1125C21.0375 2.43756 20.9625 2.36256 20.8875 2.25006L20.925 1.87506C20.9625 1.38756 20.7 0.937557 20.25 0.750057L19.4625 0.412557C19.0125 0.225057 18.525 0.337557 18.1875 0.675057L17.925 0.975057C17.8125 0.975057 17.7 0.975057 17.5875 0.975057L17.3625 0.675057C17.0625 0.300057 16.5375 0.150057 16.0875 0.337557L15.3 0.637557C14.85 0.825057 14.55 1.27506 14.5875 1.72506V2.10006C14.5125 2.17506 14.4375 2.25006 14.325 2.32506L13.95 2.28756C13.4625 2.25006 13.0125 2.51256 12.825 2.96256L12.4875 3.75006C12.3 4.20006 12.4125 4.72506 12.75 5.02506L13.05 5.28756C13.05 5.40006 13.05 5.51256 13.05 5.62506L12.75 5.88756C12.375 6.18756 12.2625 6.71256 12.4125 7.16256L12.7125 7.95006C12.9 8.40006 13.35 8.70006 13.8375 8.66256H14.2125C14.2875 8.73756 14.3625 8.81256 14.4375 8.92506L14.4 9.30006C14.3625 9.78756 14.625 10.2376 15.075 10.4251L15.8625 10.7626C16.3125 10.9501 16.8375 10.8376 17.175 10.5001L17.4375 10.2001C17.55 10.2001 17.6625 10.2001 17.775 10.2001L18.0375 10.5001C18.2625 10.7626 18.5625 10.9126 18.9 10.9126C19.05 10.9126 19.2 10.8751 19.3125 10.8376L20.1 10.5376C20.55 10.3501 20.85 9.93756 20.8125 9.45006V9.07506C20.8875 9.00006 20.9625 8.92506 21.075 8.85006L21.45 8.88756C21.9375 8.96256 22.425 8.66256 22.6125 8.21256L22.95 7.42506C23.1375 6.97506 23.025 6.48756 22.6875 6.15006L22.275 5.88756ZM20.55 5.28756C20.5875 5.55006 20.5875 5.81256 20.55 6.11256L20.475 6.56256L21.1125 7.16256L21.075 7.20006L20.2125 7.12506L19.9125 7.50006C19.7625 7.72506 19.5375 7.91256 19.3125 8.06256L18.9375 8.32506L18.975 9.18756H18.9375L18.375 8.51256L17.925 8.55006C17.6625 8.58756 17.3625 8.58756 17.1 8.55006L16.65 8.47506L16.125 9.11256H16.0875L16.1625 8.25006L15.7875 7.95006C15.5625 7.80006 15.375 7.57506 15.225 7.35006L14.9625 6.97506L14.1 7.01256V6.97506L14.775 6.41256L14.7375 5.96256C14.7 5.70006 14.7 5.40006 14.7375 5.13756L14.8125 4.68756L14.1375 4.12506L14.175 4.08756L15.0375 4.16256L15.3 3.82506C15.45 3.60006 15.675 3.41256 15.9 3.26256L16.275 3.00006L16.2375 2.13756H16.275L16.8375 2.81256L17.2875 2.77506C17.55 2.73756 17.8125 2.73756 18.1125 2.77506L18.5625 2.85006L19.125 2.13756H19.1625L19.0875 3.00006L19.4625 3.30006C19.6875 3.45006 19.875 3.67506 20.025 3.90006L20.2875 4.27506L21.15 4.23756V4.27506L20.475 4.83756L20.55 5.28756Z" fill="#161A23"/>
</svg>
