<svg width="24" height="24" viewBox="0 0 24 24" fill="none" xmlns="http://www.w3.org/2000/svg">
<g clip-path="url(#clip0_501_45143)">
<path d="M12 0.637451C5.73749 0.637451 0.674988 5.73745 0.674988 12C0.674988 18.2624 5.77499 23.3624 12.0375 23.3624C18.3 23.3624 23.3625 18.2624 23.3625 12C23.3625 5.73745 18.2625 0.637451 12 0.637451ZM12 21.6749C6.67499 21.6749 2.36249 17.3249 2.36249 12C2.36249 6.67495 6.67499 2.32495 12 2.32495C17.325 2.32495 21.675 6.67495 21.675 12C21.675 17.3249 17.325 21.6749 12 21.6749Z" fill="#161A23"/>
<path d="M12 4.01245C7.57498 4.01245 4.01248 7.61245 4.01248 12C4.01248 16.425 7.61248 19.9875 12 19.9875C16.3875 19.9875 19.9875 16.425 19.9875 12C19.9875 7.57495 16.425 4.01245 12 4.01245ZM12 18.3C8.51248 18.3 5.69998 15.4875 5.69998 12C5.69998 8.51245 8.51248 5.69995 12 5.69995C15.4875 5.69995 18.3 8.51245 18.3 12C18.3 15.4875 15.4875 18.3 12 18.3Z" fill="#161A23"/>
<path d="M11.475 10.5H13.6875C14.1375 10.5 14.55 10.125 14.55 9.63745C14.55 9.14995 14.175 8.77495 13.6875 8.77495H13.1625V8.62495C13.1625 8.17495 12.7875 7.76245 12.3 7.76245C11.85 7.76245 11.4375 8.13745 11.4375 8.62495V8.77495C10.3125 8.77495 9.41248 9.67495 9.41248 10.8C9.41248 11.925 10.3125 12.825 11.4375 12.825H12.45C12.6375 12.825 12.7875 12.975 12.7875 13.1625C12.7875 13.35 12.7125 13.5 12.525 13.5H10.3125C9.86248 13.5 9.44998 13.875 9.44998 14.3625C9.44998 14.85 9.82498 15.225 10.3125 15.225H11.5125V15.375C11.5125 15.825 11.8875 16.2375 12.375 16.2375C12.825 16.2375 13.2375 15.8625 13.2375 15.375V15.075C14.025 14.8125 14.5875 14.0625 14.5875 13.1625C14.5875 12.0375 13.6875 11.1375 12.5625 11.1375H11.55C11.3625 11.1375 11.2125 10.9875 11.2125 10.8C11.2125 10.6125 11.2875 10.5 11.475 10.5Z" fill="#161A23"/>
</g>
<defs>
<clipPath id="clip0_501_45143">
<rect width="24" height="24" fill="white"/>
</clipPath>
</defs>
</svg>
