<svg width="24" height="24" viewBox="0 0 24 24" fill="none" xmlns="http://www.w3.org/2000/svg">
<path d="M2.82168 14.3589C2.12268 14.3589 1.43848 13.848 1.43848 12.6949C1.43848 11.538 2.12268 11.0347 2.82168 11.0347C3.16563 11.0347 3.43561 11.1248 3.62793 11.2525L3.41712 11.722C3.28767 11.6281 3.09536 11.568 2.90304 11.568C2.48142 11.568 2.09679 11.9061 2.09679 12.6874C2.09679 13.4687 2.49252 13.8142 2.90304 13.8142C3.09536 13.8142 3.28767 13.7541 3.41712 13.6602L3.62793 14.141C3.42821 14.2762 3.16563 14.3589 2.82168 14.3589Z" fill="#15171A"/>
<path d="M5.22844 14.3589C4.3371 14.3589 3.84521 13.6414 3.84521 12.6949C3.84521 11.7483 4.33343 11.0347 5.22844 11.0347C6.1197 11.0347 6.61159 11.7446 6.61159 12.6949C6.61159 13.6414 6.1197 14.3589 5.22844 14.3589ZM5.22844 11.5492C4.7328 11.5492 4.48875 12 4.48875 12.6874C4.48875 13.3748 4.7328 13.8293 5.22844 13.8293C5.724 13.8293 5.96809 13.3748 5.96809 12.6874C5.96809 12 5.724 11.5492 5.22844 11.5492Z" fill="#15171A"/>
<path d="M7.46938 10.5199C7.25855 10.5199 7.08838 10.3546 7.08838 10.1518C7.08838 9.94895 7.25855 9.78369 7.46938 9.78369C7.68017 9.78369 7.8503 9.94895 7.8503 10.1518C7.8503 10.3546 7.67645 10.5199 7.46938 10.5199ZM7.14759 11.0984H7.79113V14.2911H7.14759V11.0984Z" fill="#15171A"/>
<path d="M10.3133 14.2913V12.1615C10.3133 11.7897 10.0914 11.5568 9.65498 11.5568C9.42199 11.5568 9.20746 11.5981 9.07801 11.6507V14.295H8.44189V11.26C8.75626 11.1286 9.15938 11.0347 9.65127 11.0347C10.5315 11.0347 10.9568 11.4253 10.9568 12.1014V14.295H10.3133" fill="#15171A"/>
<path d="M12.6476 14.359C12.2408 14.359 11.8376 14.2576 11.5898 14.1336V9.64124H12.226V11.1813C12.3776 11.1099 12.6217 11.0498 12.8399 11.0498C13.6498 11.0498 14.2009 11.6433 14.2009 12.6199C14.2009 13.8256 13.5869 14.359 12.6476 14.359ZM12.7289 11.5569C12.5551 11.5569 12.3481 11.5982 12.226 11.6621V13.758C12.3184 13.7993 12.4996 13.8406 12.6809 13.8406C13.1876 13.8406 13.5611 13.4838 13.5611 12.6687C13.5648 11.9701 13.2393 11.5569 12.7289 11.5569Z" fill="#15171A"/>
<path d="M15.9318 14.3589C15.0294 14.3589 14.5708 13.987 14.5708 13.356C14.5708 12.4658 15.5028 12.308 16.4533 12.2554V12.0526C16.4533 11.6507 16.1907 11.5079 15.7876 11.5079C15.4917 11.5079 15.1293 11.6019 14.9185 11.7033L14.7558 11.26C15.0072 11.1474 15.4326 11.0347 15.8542 11.0347C16.6049 11.0347 17.0635 11.3314 17.0635 12.1202V14.1335C16.8379 14.2575 16.3756 14.3589 15.9318 14.3589ZM16.457 12.6874C15.8135 12.7212 15.1736 12.7775 15.1736 13.3447C15.1736 13.6828 15.4288 13.8894 15.9133 13.8894C16.1167 13.8894 16.3571 13.8556 16.457 13.8067V12.6874Z" fill="#15171A"/>
<path d="M18.4982 14.3589C18.1321 14.3589 17.7474 14.2575 17.5181 14.1335L17.7326 13.6377C17.8953 13.7391 18.2393 13.8443 18.4797 13.8443C18.8236 13.8443 19.0529 13.6715 19.0529 13.4048C19.0529 13.1156 18.8125 13.0029 18.4945 12.8827C18.0728 12.7212 17.6032 12.5259 17.6032 11.9286C17.6032 11.4028 18.0063 11.0347 18.7053 11.0347C19.0862 11.0347 19.4006 11.1286 19.6225 11.26L19.4228 11.7108C19.2822 11.6206 19.0012 11.523 18.7756 11.523C18.4427 11.523 18.2578 11.6995 18.2578 11.9324C18.2578 12.2216 18.4908 12.323 18.8014 12.4432C19.2379 12.6085 19.7224 12.7926 19.7224 13.4161C19.7186 13.9833 19.2859 14.3589 18.4982 14.3589Z" fill="#15171A"/>
<path d="M22.8219 12.68L20.7322 12.9767C20.7951 13.5514 21.1649 13.8407 21.6938 13.8407C22.0082 13.8407 22.3485 13.7618 22.563 13.6454L22.7479 14.1299C22.5038 14.2614 22.0822 14.3553 21.6495 14.3553C20.6583 14.3553 20.1035 13.7092 20.1035 12.6913C20.1035 11.7147 20.6398 11.031 21.52 11.031C22.3374 11.031 22.8219 11.5757 22.8219 12.4358C22.8293 12.5147 22.8293 12.5973 22.8219 12.68ZM21.5163 11.5081C21.0281 11.5081 20.7064 11.8874 20.6952 12.5523L22.219 12.3382C22.2116 11.7823 21.9342 11.5081 21.5163 11.5081Z" fill="#15171A"/>
</svg>
