<svg width="24" height="24" viewBox="0 0 24 24" fill="none" xmlns="http://www.w3.org/2000/svg">
<g clip-path="url(#clip0_501_52100)">
<path d="M13.4251 11.1751H10.7626C9.97515 11.1751 9.33765 10.5751 9.33765 9.8251C9.33765 9.0751 9.97515 8.4751 10.7626 8.4751H14.6251C15.0751 8.4751 15.4501 8.1001 15.4501 7.6501C15.4501 7.2001 15.0751 6.8251 14.6251 6.8251H12.8251V5.9251C12.8251 5.4751 12.4501 5.1001 12.0001 5.1001C11.5501 5.1001 11.1751 5.4751 11.1751 5.9251V6.8251H10.7626C9.03765 6.8251 7.65015 8.1751 7.65015 9.8626C7.65015 11.5501 9.03765 12.9001 10.7626 12.9001H13.4251C14.2126 12.9001 14.8501 13.5001 14.8501 14.2501C14.8501 15.0001 14.2126 15.6001 13.4251 15.6001H9.37515C8.92515 15.6001 8.55015 15.9751 8.55015 16.4251C8.55015 16.8751 8.92515 17.2501 9.37515 17.2501H11.1751V18.1501C11.1751 18.6001 11.5501 18.9751 12.0001 18.9751C12.4501 18.9751 12.8251 18.6001 12.8251 18.1501V17.2501H13.4251C15.1501 17.2501 16.5376 15.9001 16.5376 14.2126C16.5751 12.5251 15.1501 11.1751 13.4251 11.1751Z" fill="#161A23"/>
<path d="M12 0.675049C5.73755 0.675049 0.675049 5.73755 0.675049 12C0.675049 18.2626 5.73755 23.3251 12 23.3251C18.2626 23.3251 23.3251 18.2626 23.3251 12C23.3251 5.73755 18.2626 0.675049 12 0.675049ZM12 21.6751C6.67505 21.6751 2.32505 17.3251 2.32505 12C2.32505 6.67505 6.67505 2.32505 12 2.32505C17.3251 2.32505 21.6751 6.67505 21.6751 12C21.6751 17.3251 17.3251 21.6751 12 21.6751Z" fill="#161A23"/>
</g>
<defs>
<clipPath id="clip0_501_52100">
<rect width="24" height="24" fill="white"/>
</clipPath>
</defs>
</svg>
