<svg width="23" height="22" viewBox="0 0 23 22" fill="none" xmlns="http://www.w3.org/2000/svg">
<path d="M13.2375 12.8625C13.2375 11.55 12.15 10.4625 10.8375 10.4625H9.1125C8.7 10.4625 8.4 10.1625 8.4 9.74999C8.4 9.33749 8.7375 9.03749 9.1125 9.03749H10.725H10.7625H10.8H12.225C12.675 9.03749 13.05 8.66249 13.05 8.21249C13.05 7.76249 12.675 7.38749 12.225 7.38749H11.625V6.93749C11.625 6.48749 11.25 6.11249 10.8 6.11249C10.35 6.11249 9.975 6.48749 9.975 6.93749V7.38749H9.15C7.8 7.38749 6.75 8.47499 6.75 9.78749C6.75 11.1 7.8375 12.1875 9.15 12.1875H10.875C11.2875 12.1875 11.5875 12.4875 11.5875 12.9C11.5875 13.3125 11.25 13.6125 10.875 13.6125H7.6125C7.1625 13.6125 6.7875 13.9875 6.7875 14.4375C6.7875 14.8875 7.1625 15.2625 7.6125 15.2625H9.975V15.825C9.975 16.275 10.35 16.65 10.8 16.65C11.25 16.65 11.625 16.275 11.625 15.825V15.1125C12.5625 14.775 13.2375 13.9125 13.2375 12.8625Z" fill="#161A23"/>
<path d="M22.65 9.8625C22.65 4.425 18.1875 0 12.675 0C10.3875 0 8.7 0.7125 7.65 1.3125C7.3125 1.5 6.4875 1.9875 6 2.5125C2.475 4.05 0 7.4625 0 11.4375C0 16.8375 4.5375 21.225 10.1625 21.225C12.6375 21.225 14.925 20.3625 16.6875 18.9375C20.325 17.3625 22.65 13.8375 22.65 9.8625ZM21 9.8625C21 11.25 20.6625 12.5625 20.025 13.725C20.2125 13.0125 20.2875 12.225 20.2875 11.4375C20.2875 6.4875 16.4625 2.4 11.475 1.7625C11.85 1.725 12.2625 1.6875 12.675 1.6875C17.25 1.6875 21 5.3625 21 9.8625ZM1.65 11.4375C1.65 6.975 5.4375 3.3375 10.125 3.3375C14.775 3.3375 18.6 6.975 18.6 11.4375C18.6 13.8375 17.475 16.0125 15.7125 17.5125C15.675 17.55 15.6375 17.55 15.6 17.5875C14.1375 18.7875 12.1875 19.5375 10.125 19.5375C5.475 19.5375 1.65 15.9 1.65 11.4375Z" fill="#161A23"/>
</svg>
