<svg width="24" height="24" viewBox="0 0 24 24" fill="none" xmlns="http://www.w3.org/2000/svg">
<path d="M18.3 8.40002C15.375 8.40002 13.2375 7.12502 13.2375 5.40002C13.2375 3.67502 15.375 2.40002 18.3 2.40002C21.225 2.40002 23.3625 3.67502 23.3625 5.40002C23.3625 7.12502 21.225 8.40002 18.3 8.40002ZM18.3 4.08752C16.2 4.08752 14.925 4.87502 14.925 5.40002C14.925 5.92502 16.2 6.71252 18.3 6.71252C20.4 6.71252 21.675 5.92502 21.675 5.40002C21.675 4.87502 20.3625 4.08752 18.3 4.08752Z" fill="#161A23"/>
<path d="M18.3 11.7C15.9375 11.7 14.0625 10.875 13.4625 9.60002C13.275 9.18752 13.4625 8.66252 13.875 8.47502C14.2875 8.28752 14.8125 8.47502 15 8.88752C15.2625 9.45002 16.5 10.0125 18.3375 10.0125C19.2 10.0125 19.9875 9.86252 20.625 9.63752C21.1875 9.41252 21.5625 9.11252 21.675 8.85002C21.825 8.40002 22.3125 8.17502 22.7625 8.36252C23.2125 8.51252 23.4375 9.00002 23.25 9.45002C22.9875 10.2 22.275 10.8375 21.225 11.25C20.3625 11.55 19.35 11.7 18.3 11.7Z" fill="#161A23"/>
<path d="M18.3 15C15.9375 15 14.0625 14.175 13.4625 12.9C13.275 12.4875 13.4625 11.9625 13.875 11.775C14.2875 11.5875 14.8125 11.775 15 12.1875C15.2625 12.75 16.5 13.3125 18.3375 13.3125C19.2 13.3125 19.9875 13.1625 20.625 12.9375C21.1875 12.7125 21.5625 12.4125 21.675 12.15C21.825 11.7 22.3125 11.475 22.7625 11.6625C23.2125 11.8125 23.4375 12.3 23.25 12.75C22.9875 13.5 22.275 14.1375 21.225 14.55C20.3625 14.85 19.35 15 18.3 15Z" fill="#161A23"/>
<path d="M18.3 18.3001C15.9375 18.3001 14.0625 17.4751 13.4625 16.2001C13.275 15.7876 13.4625 15.2626 13.875 15.0751C14.2875 14.8876 14.8125 15.0751 15 15.4876C15.2625 16.0501 16.5 16.6126 18.3375 16.6126C19.2 16.6126 19.9875 16.4626 20.625 16.2376C21.1875 16.0126 21.5625 15.7126 21.675 15.4501C21.825 15.0001 22.3125 14.7751 22.7625 14.9626C23.2125 15.1126 23.4375 15.6001 23.25 16.0501C22.9875 16.8001 22.275 17.4376 21.225 17.8501C20.3625 18.1501 19.35 18.3001 18.3 18.3001Z" fill="#161A23"/>
<path d="M18.3 21.6C15.9375 21.6 14.0625 20.775 13.4625 19.5C13.275 19.0875 13.4625 18.5625 13.875 18.375C14.2875 18.1875 14.8125 18.375 15 18.7875C15.2625 19.35 16.5 19.9125 18.3375 19.9125C19.2 19.9125 19.9875 19.7625 20.625 19.5375C21.1875 19.3125 21.5625 19.0125 21.675 18.75C21.825 18.3 22.3125 18.075 22.7625 18.2625C23.2125 18.4125 23.4375 18.9 23.25 19.35C22.9875 20.1 22.275 20.7375 21.225 21.15C20.3625 21.45 19.35 21.6 18.3 21.6Z" fill="#161A23"/>
<path d="M5.70001 15C2.77501 15 0.637512 13.725 0.637512 12C0.637512 10.2375 2.77501 9 5.70001 9C8.62501 9 10.7625 10.275 10.7625 12C10.7625 13.7625 8.62501 15 5.70001 15ZM5.70001 10.6875C3.60001 10.6875 2.32501 11.475 2.32501 12C2.32501 12.525 3.60001 13.3125 5.70001 13.3125C7.80001 13.3125 9.07501 12.525 9.07501 12C9.07501 11.475 7.80001 10.6875 5.70001 10.6875Z" fill="#161A23"/>
<path d="M5.70003 18.3C3.33752 18.3 1.46252 17.475 0.862525 16.2C0.675025 15.7875 0.862525 15.2625 1.27502 15.075C1.68752 14.8875 2.21252 15.075 2.40003 15.4875C2.66252 16.05 3.90003 16.6125 5.73753 16.6125C6.60003 16.6125 7.38753 16.4625 8.02503 16.2375C8.58753 16.0125 8.96253 15.7125 9.07503 15.45C9.22503 15 9.71253 14.775 10.1625 14.9625C10.6125 15.1125 10.8375 15.6 10.65 16.05C10.3875 16.8 9.67503 17.4375 8.62503 17.85C7.80003 18.15 6.78753 18.3 5.70003 18.3Z" fill="#161A23"/>
<path d="M5.70003 21.6C3.37503 21.6 1.46252 20.775 0.862525 19.5C0.675025 19.0875 0.862525 18.5625 1.27502 18.375C1.68752 18.1875 2.21252 18.375 2.40003 18.7875C2.66252 19.35 3.90003 19.9125 5.73753 19.9125C6.60003 19.9125 7.38753 19.7625 8.02503 19.5375C8.58753 19.3125 8.96253 19.0125 9.07503 18.75C9.22503 18.3 9.71253 18.075 10.1625 18.2625C10.6125 18.4125 10.8375 18.9 10.65 19.35C10.3875 20.1 9.67503 20.7375 8.62503 21.15C7.80003 21.45 6.75003 21.6 5.70003 21.6Z" fill="#161A23"/>
</svg>
