<svg width="24" height="24" viewBox="0 0 24 24" fill="none" xmlns="http://www.w3.org/2000/svg">
<path d="M21 2.92505H3.00005C1.72505 2.92505 0.675049 3.97505 0.675049 5.25005V19.3876C0.675049 19.9875 1.01255 20.55 1.57505 20.8125C1.80005 20.925 2.02505 20.9625 2.25005 20.9625C2.62505 20.9625 2.96255 20.85 3.26255 20.5875L6.45005 17.9625H8.36255C8.81255 17.9625 9.22505 17.5875 9.22505 17.1C9.22505 16.6125 8.85005 16.2375 8.36255 16.2375H6.15005C5.96255 16.2375 5.77505 16.3125 5.62505 16.425L2.40005 19.0875V5.25005C2.36255 4.87505 2.62505 4.61255 3.00005 4.61255H21C21.3375 4.61255 21.6376 4.91255 21.6376 5.25005V17.1375C21.6376 17.5875 22.0125 18 22.5 18C22.9875 18 23.3625 17.625 23.3625 17.1375V5.25005C23.3625 3.97505 22.3125 2.92505 21 2.92505Z" fill="#161A23"/>
<path d="M19.875 16.35C19.0125 15.4875 17.8875 14.8875 16.6125 14.625V13.8C16.6125 13.3125 16.35 12.8625 15.9 12.675C15.45 12.45 14.9625 12.525 14.55 12.825L10.7625 15.8625C10.4625 16.0875 10.275 16.4625 10.275 16.8375C10.275 17.2125 10.4625 17.5875 10.7625 17.8125L14.55 20.85C14.775 21.0375 15.075 21.1125 15.3375 21.1125C15.525 21.1125 15.7125 21.075 15.9 21C16.35 20.775 16.6125 20.3625 16.6125 19.875V19.425C17.4 19.6125 18.3 20.025 19.275 20.625C19.6875 20.8875 20.175 20.8875 20.5875 20.625C21 20.4 21.225 19.95 21.225 19.4625C21.225 19.1625 21.1875 18.9375 21.15 18.7875C20.925 17.775 20.5875 17.0625 19.875 16.35ZM16.4625 17.625C16.0875 17.55 15.7125 17.6625 15.4125 17.925C15.1125 18.1875 14.9625 18.525 14.9625 18.9375V18.975L12.3 16.8375L14.9625 14.7V14.9625C14.9625 15.6 15.4125 16.125 16.05 16.2375C17.1 16.425 18 16.875 18.7125 17.55C19.0875 17.925 19.275 18.225 19.425 18.675C18.525 18.225 17.5125 17.8125 16.4625 17.625Z" fill="#161A23"/>
<path d="M3.6001 9.33755C3.6001 10.6125 4.6126 11.625 5.8876 11.625C7.1626 11.625 8.1751 10.6125 8.1751 9.33755C8.1751 8.06255 7.1626 7.05005 5.8876 7.05005C4.6126 7.05005 3.6001 8.06255 3.6001 9.33755ZM6.5251 9.33755C6.5251 9.67505 6.2626 9.93755 5.9251 9.93755C5.5876 9.93755 5.3251 9.67505 5.3251 9.33755C5.3251 9.00005 5.5876 8.73755 5.9251 8.73755C6.2626 8.70005 6.5251 9.00005 6.5251 9.33755Z" fill="#161A23"/>
<path d="M12 11.625C13.275 11.625 14.2875 10.6125 14.2875 9.33755C14.2875 8.06255 13.275 7.05005 12 7.05005C10.725 7.05005 9.71252 8.06255 9.71252 9.33755C9.71252 10.6125 10.725 11.625 12 11.625ZM12 8.70005C12.3375 8.70005 12.6 8.96255 12.6 9.30005C12.6 9.63755 12.3375 9.90005 12 9.90005C11.6625 9.90005 11.4 9.63755 11.4 9.30005C11.4 9.00005 11.6625 8.70005 12 8.70005Z" fill="#161A23"/>
<path d="M18.0751 11.625C19.3501 11.625 20.3626 10.6125 20.3626 9.33755C20.3626 8.06255 19.3501 7.05005 18.0751 7.05005C16.8001 7.05005 15.7876 8.06255 15.7876 9.33755C15.7876 10.6125 16.8376 11.625 18.0751 11.625ZM18.0751 8.70005C18.4126 8.70005 18.6751 8.96255 18.6751 9.30005C18.6751 9.63755 18.4126 9.90005 18.0751 9.90005C17.7376 9.90005 17.4751 9.63755 17.4751 9.30005C17.4751 9.00005 17.7376 8.70005 18.0751 8.70005Z" fill="#161A23"/>
</svg>
