<svg width="24" height="24" viewBox="0 0 24 24" fill="none" xmlns="http://www.w3.org/2000/svg">
<path d="M23.25 12.6376L22.5375 10.7626C23.1375 9.6751 23.4 8.4001 23.25 7.1251C22.95 4.2001 20.625 1.8751 17.7 1.5751C15.825 1.3876 13.95 2.0251 12.6 3.3751C11.3625 4.6126 10.6875 6.3001 10.7625 8.1001H10.725H7.0125C3.4875 8.1001 0.637497 10.8751 0.637497 14.2876C0.637497 17.6626 2.8125 20.0251 8.1 22.4251C8.25 22.5001 8.4 22.5376 8.5875 22.5376C8.8125 22.5376 9.0375 22.4626 9.225 22.3501C9.5625 22.1251 9.75 21.7876 9.75 21.3751V20.5126H10.7625C14.2875 20.5126 17.1375 17.7376 17.1375 14.3251C17.1375 14.2501 17.1375 14.1751 17.1375 14.1001C18.1875 14.1001 19.1625 13.8376 20.1 13.3126L21.7125 14.1376C21.8625 14.2126 22.05 14.2501 22.2375 14.2501C22.5 14.2501 22.8 14.1376 22.9875 13.9501C23.325 13.5751 23.4375 13.0876 23.25 12.6376ZM10.7625 18.7501H9.225C8.5875 18.7501 8.0625 19.2751 8.0625 19.9126V20.4751C3.975 18.5251 2.3625 16.7626 2.3625 14.2501C2.3625 11.7751 4.4625 9.7501 7.05 9.7501H10.7625C13.35 9.7501 15.45 11.7751 15.45 14.2501C15.45 16.7251 13.35 18.7501 10.7625 18.7501ZM20.8125 10.9876L21.1875 11.9251L20.4375 11.5501C20.175 11.4001 19.8375 11.4376 19.575 11.5876C18.75 12.1126 17.8125 12.3751 16.8375 12.3376C16.2 10.3876 14.55 8.8501 12.4875 8.2876V8.2501C12.3375 6.8626 12.825 5.5126 13.8 4.5376C14.775 3.5626 16.125 3.0751 17.5125 3.2251C19.65 3.4501 21.3375 5.1376 21.5625 7.2751C21.675 8.3251 21.45 9.3376 20.8875 10.2001C20.7375 10.4626 20.7375 10.7251 20.8125 10.9876Z" fill="#161A23"/>
</svg>
