<svg width="24" height="24" viewBox="0 0 24 24" fill="none" xmlns="http://www.w3.org/2000/svg">
<path d="M20.9999 2.96252H2.99995C1.72495 2.96252 0.637451 4.01252 0.637451 5.32502V19.4625C0.637451 20.0625 0.974951 20.625 1.53745 20.8875C1.76245 21 1.98745 21.0375 2.21245 21.0375C2.58745 21.0375 2.92495 20.925 3.22495 20.6625L6.41245 18.0375H20.9999C22.275 18.0375 23.3624 16.9875 23.3624 15.675V5.32502C23.3624 4.01252 22.275 2.96252 20.9999 2.96252ZM21.6749 15.675C21.6749 16.05 21.3749 16.35 20.9999 16.35H6.11245C5.92495 16.35 5.73745 16.425 5.58745 16.5375L2.36245 19.2V5.32502C2.36245 4.95002 2.66245 4.65002 3.03745 4.65002H21.0374C21.4124 4.65002 21.7125 4.95002 21.7125 5.32502V15.675H21.6749Z" fill="#161A23"/>
<path d="M5.92495 7.76257C4.64995 7.76257 3.63745 8.77507 3.63745 10.0501C3.63745 11.3251 4.64995 12.3376 5.92495 12.3376C7.19995 12.3376 8.21245 11.3251 8.21245 10.0501C8.21245 8.77507 7.16245 7.76257 5.92495 7.76257ZM5.92495 10.6876C5.58745 10.6876 5.32495 10.4251 5.32495 10.0876C5.32495 9.75007 5.58745 9.48757 5.92495 9.48757C6.26245 9.48757 6.52495 9.75007 6.52495 10.0876C6.52495 10.3876 6.26245 10.6876 5.92495 10.6876Z" fill="#161A23"/>
<path d="M11.9999 7.76257C10.7249 7.76257 9.7124 8.77507 9.7124 10.0501C9.7124 11.3251 10.7249 12.3751 11.9999 12.3751C13.2749 12.3751 14.2874 11.3626 14.2874 10.0876C14.2874 8.81257 13.2749 7.76257 11.9999 7.76257ZM11.9999 10.6876C11.6624 10.6876 11.3999 10.4251 11.3999 10.0876C11.3999 9.75007 11.6624 9.48757 11.9999 9.48757C12.3374 9.48757 12.5999 9.75007 12.5999 10.0876C12.5999 10.3876 12.3374 10.6876 11.9999 10.6876Z" fill="#161A23"/>
<path d="M18.075 7.76257C16.8 7.76257 15.7875 8.77507 15.7875 10.0501C15.7875 11.3251 16.8 12.3376 18.075 12.3376C19.35 12.3376 20.3625 11.3251 20.3625 10.0501C20.3625 8.77507 19.35 7.76257 18.075 7.76257ZM18.075 10.6876C17.7375 10.6876 17.475 10.4251 17.475 10.0876C17.475 9.75007 17.7375 9.48757 18.075 9.48757C18.4125 9.48757 18.675 9.75007 18.675 10.0876C18.7125 10.3876 18.4125 10.6876 18.075 10.6876Z" fill="#161A23"/>
</svg>
