<svg width="24" height="24" viewBox="0 0 24 24" fill="none" xmlns="http://www.w3.org/2000/svg">
<path d="M16.6499 7.3125H6.97493C6.52493 7.3125 6.11243 7.6875 6.11243 8.175C6.11243 8.6625 6.48743 9.0375 6.97493 9.0375H16.6874C17.1374 9.0375 17.5499 8.6625 17.5499 8.175C17.5499 7.6875 17.1374 7.3125 16.6499 7.3125Z" fill="#161A23"/>
<path d="M14.6999 11.8876H6.97493C6.52493 11.8876 6.11243 12.2626 6.11243 12.7501C6.11243 13.2376 6.48743 13.6126 6.97493 13.6126H14.6999C15.1499 13.6126 15.5624 13.2376 15.5624 12.7501C15.5624 12.2626 15.1499 11.8876 14.6999 11.8876Z" fill="#161A23"/>
<path d="M20.9999 2.96252H2.99995C1.72495 2.96252 0.637451 4.01252 0.637451 5.32502V19.4625C0.637451 20.0625 0.974951 20.625 1.53745 20.8875C1.76245 21 1.98745 21.0375 2.21245 21.0375C2.58745 21.0375 2.92495 20.925 3.22495 20.6625L6.41245 18.0375H20.9999C22.275 18.0375 23.3624 16.9875 23.3624 15.675V5.32502C23.3624 4.01252 22.275 2.96252 20.9999 2.96252ZM21.6749 15.675C21.6749 16.05 21.3749 16.35 20.9999 16.35H6.11245C5.92495 16.35 5.73745 16.425 5.58745 16.5375L2.36245 19.2V5.32502C2.36245 4.95002 2.66245 4.65002 3.03745 4.65002H21.0374C21.4124 4.65002 21.7125 4.95002 21.7125 5.32502V15.675H21.6749Z" fill="#161A23"/>
</svg>
