<svg width="24" height="24" viewBox="0 0 24 24" fill="none" xmlns="http://www.w3.org/2000/svg">
<g clip-path="url(#clip0_501_43593)">
<path d="M19.2 23.0031C17.0215 23.0031 15.2492 21.2308 15.2492 19.0523V16.7631H8.75078V19.0523C8.75078 21.2308 6.97847 23.0031 4.80001 23.0031C2.62155 23.0031 0.849243 21.1938 0.849243 19.0154C0.849243 16.8369 2.62155 15.0646 4.80001 15.0646H7.08924V8.56615H4.80001C2.62155 8.56615 0.849243 6.79384 0.849243 4.61538C0.849243 2.43692 2.62155 0.664612 4.80001 0.664612C6.97847 0.664612 8.75078 2.43692 8.75078 4.61538V6.90461H15.2862V4.61538C15.2862 2.43692 17.0585 0.664612 19.2369 0.664612C21.4154 0.664612 23.1877 2.43692 23.1877 4.61538C23.1877 6.79384 21.3785 8.56615 19.2 8.56615H16.9108L16.8739 15.1015H19.2C21.3785 15.1015 23.1508 16.8738 23.1508 19.0523C23.1508 21.2308 21.3785 23.0031 19.2 23.0031ZM16.9108 16.7261V19.0154C16.9108 20.2708 17.9446 21.3046 19.2 21.3046C20.4554 21.3046 21.4892 20.2708 21.4892 19.0154C21.4892 17.76 20.4554 16.7261 19.2 16.7261H16.9108ZM4.80001 16.7261C3.54463 16.7261 2.51078 17.76 2.51078 19.0154C2.51078 20.2708 3.54463 21.3046 4.80001 21.3046C6.0554 21.3046 7.08924 20.2708 7.08924 19.0154V16.7261H4.80001ZM15.2492 15.0646L15.2862 8.52923H8.75078V15.0646H15.2492ZM16.9108 6.90461H19.2C20.4554 6.90461 21.4892 5.87077 21.4892 4.61538C21.4892 3.36 20.4923 2.32615 19.2 2.32615C17.9446 2.32615 16.9108 3.36 16.9108 4.61538V6.90461ZM4.80001 2.32615C3.54463 2.32615 2.51078 3.36 2.51078 4.61538C2.51078 5.87077 3.54463 6.90461 4.80001 6.90461H7.08924V4.61538C7.08924 3.32307 6.0554 2.32615 4.80001 2.32615Z" fill="#161A23"/>
</g>
<defs>
<clipPath id="clip0_501_43593">
<rect width="24" height="24" fill="white"/>
</clipPath>
</defs>
</svg>
