<svg width="24" height="24" viewBox="0 0 24 24" fill="none" xmlns="http://www.w3.org/2000/svg">
<path d="M20.325 16.2L19.8375 9.11255C19.7625 7.80005 18.6375 6.78755 17.325 6.78755H16.575V5.40005H18.15C19.0125 5.40005 19.725 4.68755 19.725 3.82505V2.25005C19.725 1.38755 19.0125 0.675049 18.15 0.675049H12.75C11.8875 0.675049 11.175 1.38755 11.175 2.25005V3.82505C11.175 4.68755 11.8875 5.40005 12.75 5.40005H14.8875V6.78755H6.67499C5.36249 6.78755 4.27499 7.80005 4.16249 9.11255L3.67499 16.2C2.88749 16.6125 2.39999 17.4375 2.39999 18.375V20.85C2.39999 22.2375 3.52499 23.3625 4.91249 23.3625H19.125C20.5125 23.3625 21.6375 22.2375 21.6375 20.85V18.375C21.6 17.4375 21.075 16.6125 20.325 16.2ZM12.825 2.32505H18.0375V3.71255H12.825V2.32505ZM6.67499 8.47505H17.2875C17.7 8.47505 18.075 8.81255 18.1125 9.22505L18.6 15.8625H5.39999L5.88749 9.22505C5.92499 8.77505 6.26249 8.47505 6.67499 8.47505ZM19.9125 20.85C19.9125 21.3 19.5375 21.675 19.0875 21.675H4.91249C4.46249 21.675 4.08749 21.3 4.08749 20.85V18.375C4.08749 17.925 4.46249 17.55 4.91249 17.55H19.125C19.575 17.55 19.95 17.925 19.95 18.375V20.85H19.9125Z" fill="#161A23"/>
<path d="M12.8625 11.6626H16.5C16.95 11.6626 17.325 11.2876 17.325 10.8376C17.325 10.3876 16.95 10.0126 16.5 10.0126H12.8625C12.4125 10.0126 12.0375 10.3876 12.0375 10.8376C12.0375 11.2876 12.4125 11.6626 12.8625 11.6626Z" fill="#161A23"/>
<path d="M7.38751 12.5625H7.50001C7.95001 12.5625 8.32501 12.1875 8.32501 11.7C8.32501 11.2125 7.95001 10.875 7.50001 10.875H7.42501C6.97501 10.875 6.60001 11.25 6.60001 11.7C6.60001 12.15 6.93751 12.5625 7.38751 12.5625Z" fill="#161A23"/>
<path d="M9.8625 12.5625H9.9375C10.3875 12.5625 10.7625 12.1875 10.7625 11.7C10.7625 11.2125 10.3875 10.875 9.9375 10.875H9.8625C9.375 10.875 9 11.25 9 11.7375C9 12.225 9.375 12.5625 9.8625 12.5625Z" fill="#161A23"/>
<path d="M7.38751 15.1125H7.50001C7.95001 15.1125 8.32501 14.7375 8.32501 14.2875C8.32501 13.8375 7.95001 13.4625 7.50001 13.4625H7.42501C6.97501 13.4625 6.60001 13.8375 6.60001 14.2875C6.60001 14.7375 6.93751 15.1125 7.38751 15.1125Z" fill="#161A23"/>
<path d="M9.86251 15.1125H9.93751C10.3875 15.1125 10.7625 14.7375 10.7625 14.2875C10.7625 13.8375 10.3875 13.4625 9.93751 13.4625H9.86251C9.41251 13.4625 9.03751 13.8375 9.03751 14.2875C9.03751 14.7375 9.37501 15.1125 9.86251 15.1125Z" fill="#161A23"/>
</svg>
