<svg width="24" height="24" viewBox="0 0 24 24" fill="none" xmlns="http://www.w3.org/2000/svg">
<path d="M7.83755 7.80005C7.53755 7.42505 7.01255 7.38755 6.63755 7.68755C6.26255 7.98755 6.22505 8.51255 6.52505 8.88755L8.43755 11.1375H1.50005C1.05005 11.1375 0.675049 11.5125 0.675049 11.9625C0.675049 12.4125 1.05005 12.7875 1.50005 12.7875H8.47505L6.56255 15.0375C6.26255 15.4125 6.30005 15.9375 6.67505 16.2375C6.82505 16.3875 7.01255 16.425 7.20005 16.425C7.42505 16.425 7.68755 16.3125 7.83755 16.125L10.9125 12.4875C11.175 12.1875 11.175 11.7 10.9125 11.4L7.83755 7.80005Z" fill="#161A23"/>
<path d="M22.5 11.175H15.525L17.4375 8.92502C17.7375 8.55002 17.7 8.02502 17.325 7.72502C16.95 7.42502 16.425 7.46252 16.125 7.83752L13.05 11.475C12.7875 11.775 12.7875 12.2625 13.05 12.5625L16.125 16.2C16.275 16.3875 16.5375 16.5 16.7625 16.5C16.95 16.5 17.1375 16.425 17.2875 16.3125C17.6625 16.0125 17.7 15.4875 17.4 15.1125L15.4875 12.8625H22.5C22.95 12.8625 23.325 12.4875 23.325 12.0375C23.325 11.55 22.95 11.175 22.5 11.175Z" fill="#161A23"/>
</svg>
