<svg width="24" height="24" viewBox="0 0 24 24" fill="none" xmlns="http://www.w3.org/2000/svg">
<path d="M21.075 22.1249L17.0625 13.8749C18.225 12.9749 19.1625 11.775 19.725 10.3875C19.9125 9.93745 19.6875 9.44995 19.2375 9.29995C18.7875 9.11245 18.3 9.33745 18.15 9.78745C17.775 10.8 17.1 11.6625 16.3125 12.3375L14.7375 9.07495C15.375 8.39995 15.75 7.49995 15.75 6.48745C15.75 4.72495 14.5125 3.22495 12.825 2.84995V1.49995C12.825 1.04995 12.45 0.637451 11.9625 0.637451C11.5125 0.637451 11.1 1.01245 11.1 1.49995V2.84995C9.45 3.22495 8.175 4.72495 8.175 6.48745C8.175 7.49995 8.5875 8.39995 9.225 9.07495L7.65 12.3375C6.8625 11.6625 6.1875 10.8 5.8125 9.78745C5.625 9.33745 5.1375 9.14995 4.725 9.29995C4.275 9.48745 4.0875 9.97495 4.2375 10.3875C4.8 11.8125 5.7375 13.0125 6.9 13.8749L2.925 22.1249C2.7375 22.5374 2.8875 23.0624 3.3 23.2499C3.4125 23.3249 3.5625 23.3249 3.675 23.3249C3.975 23.3249 4.275 23.1374 4.425 22.8375L8.3625 14.7374C9.4875 15.2624 10.6875 15.5624 11.9625 15.5624C13.2375 15.5624 14.475 15.2624 15.5625 14.7374L19.5375 22.8749C19.6875 23.1749 19.9875 23.3624 20.2875 23.3624C20.4 23.3624 20.55 23.3249 20.6625 23.2874C21.1125 23.0624 21.2625 22.5374 21.075 22.1249ZM12 4.42495C13.125 4.42495 14.0625 5.32495 14.0625 6.44995C14.0625 7.57495 13.125 8.51245 12 8.51245C10.875 8.51245 9.9375 7.61245 9.9375 6.48745C9.9375 5.36245 10.875 4.42495 12 4.42495ZM12 13.9124C10.9875 13.9124 10.0125 13.6874 9.1125 13.2374L10.6875 9.97495C11.1 10.125 11.5125 10.2 11.9625 10.2C12.4125 10.2 12.8625 10.125 13.2375 9.97495L14.8125 13.2374C13.9875 13.6874 13.0125 13.9124 12 13.9124Z" fill="#161A23"/>
</svg>
