<svg width="24" height="24" viewBox="0 0 24 24" fill="none" xmlns="http://www.w3.org/2000/svg">
<path d="M9.41251 8.85C9.41251 10.35 10.6125 11.55 12.1125 11.55C13.6125 11.55 14.8125 10.35 14.8125 8.85C14.8125 7.35 13.6125 6.15 12.1125 6.15C10.65 6.1125 9.41251 7.35 9.41251 8.85ZM13.35 8.85C13.35 9.525 12.7875 10.05 12.15 10.05C11.5125 10.05 10.95 9.4875 10.95 8.85C10.95 8.2125 11.5125 7.65 12.15 7.65C12.7875 7.65 13.35 8.175 13.35 8.85Z" fill="#161A23"/>
<path d="M3.03751 11.8876C3.22501 11.8876 3.37501 11.8126 3.48751 11.7376L6.15001 9.6376C6.48751 9.3751 6.52501 8.9251 6.26251 8.5876C6.00001 8.2501 5.55001 8.2126 5.21251 8.4751L3.86251 9.5626C4.83751 5.7376 8.21251 3.0751 12.15 3.0751C16.0875 3.0751 19.5 5.7376 20.475 9.5626C20.5875 9.9751 21 10.2001 21.375 10.0876C21.7875 9.9751 22.0125 9.5626 21.9 9.1876C20.775 4.6876 16.725 1.5376 12.1125 1.5376C7.53751 1.5376 3.56251 4.6126 2.40001 9.0376L1.53751 7.8751C1.27501 7.5376 0.825006 7.4626 0.487506 7.7251C0.150006 7.9876 0.0750064 8.4376 0.337506 8.7751L2.43751 11.5876C2.55001 11.7376 2.73751 11.8501 2.92501 11.8876C2.96251 11.8876 3.00001 11.8876 3.03751 11.8876Z" fill="#161A23"/>
<path d="M23.55 16.8001L22.0875 13.6126C22.0125 13.4251 21.8625 13.2751 21.6375 13.2001C21.45 13.1251 21.225 13.1626 21.0375 13.2376L18 14.7376C17.625 14.9251 17.475 15.3751 17.6625 15.7501C17.85 16.1251 18.3 16.2751 18.675 16.0876L20.1375 15.3751C19.4625 17.1751 18.225 18.6376 16.6875 19.6126V16.0876C16.6875 14.1751 15.2625 12.6001 13.5 12.6001H10.6125C8.85001 12.6001 7.42501 14.1751 7.42501 16.1251V19.5001C5.85001 18.4501 4.65001 16.9126 4.05001 15.0376C3.93751 14.6626 3.48751 14.4376 3.11251 14.5501C2.73751 14.6626 2.51251 15.1126 2.62501 15.4876C3.97501 19.6126 7.80001 22.3876 12.15 22.3876C16.3125 22.3876 20.025 19.8376 21.525 15.9751L22.1625 17.4001C22.275 17.6626 22.575 17.8501 22.8375 17.8501C22.95 17.8501 23.0625 17.8126 23.1375 17.7751C23.55 17.6251 23.7 17.1751 23.55 16.8001ZM8.92501 20.2876V16.0876C8.92501 14.9626 9.67501 14.0626 10.6125 14.0626H11.2875V16.6501C11.2875 17.0626 11.625 17.4001 12.0375 17.4001C12.45 17.4001 12.7875 17.0626 12.7875 16.6501V14.0626H13.5C14.4375 14.0626 15.1875 14.9626 15.1875 16.0501V20.3251C14.2125 20.7001 13.2 20.8876 12.1125 20.8876C10.9875 20.9251 9.90001 20.7001 8.92501 20.2876Z" fill="#161A23"/>
</svg>
