<svg width="24" height="24" viewBox="0 0 24 24" fill="none" xmlns="http://www.w3.org/2000/svg">
<path d="M18.15 0.674988H5.84999C4.57499 0.674988 3.48749 1.72499 3.48749 3.03749V21.0375C3.48749 22.3125 4.53749 23.4 5.84999 23.4H18.1125C19.3875 23.4 20.475 22.35 20.475 21.0375V2.99999C20.475 1.72499 19.425 0.674988 18.15 0.674988ZM18.7875 21C18.7875 21.375 18.4875 21.675 18.1125 21.675H5.84999C5.47499 21.675 5.17499 21.375 5.17499 21V2.99999C5.17499 2.62499 5.47499 2.32499 5.84999 2.32499H18.1125C18.4875 2.32499 18.7875 2.62499 18.7875 2.99999V21Z" fill="#161A23"/>
<path d="M15.825 5.39999H9.97499V5.28749C9.97499 4.83749 9.59999 4.42499 9.11249 4.42499C8.62499 4.42499 8.24999 4.79999 8.24999 5.28749V5.39999H8.13749C7.68749 5.39999 7.27499 5.77499 7.27499 6.26249C7.27499 6.74999 7.64999 7.12499 8.13749 7.12499H8.24999V7.23749C8.24999 7.68749 8.62499 8.09999 9.11249 8.09999C9.59999 8.09999 9.97499 7.72499 9.97499 7.23749V7.12499H15.825C16.275 7.12499 16.6875 6.74999 16.6875 6.26249C16.6875 5.77499 16.275 5.39999 15.825 5.39999Z" fill="#161A23"/>
<path d="M15.825 11.175H15.7125V11.0625C15.7125 10.6125 15.3375 10.2 14.85 10.2C14.3625 10.2 13.9875 10.575 13.9875 11.0625V11.175H8.175C7.725 11.175 7.3125 11.55 7.3125 12.0375C7.3125 12.4875 7.6875 12.9 8.175 12.9H14.025V13.0125C14.025 13.4625 14.4 13.875 14.8875 13.875C15.375 13.875 15.75 13.5 15.75 13.0125V12.9H15.8625C16.3125 12.9 16.725 12.525 16.725 12.0375C16.65 11.55 16.275 11.175 15.825 11.175Z" fill="#161A23"/>
<path d="M15.825 16.9125H9.97499V16.8C9.97499 16.35 9.59999 15.9375 9.11249 15.9375C8.62499 15.9375 8.24999 16.3125 8.24999 16.8V16.9125H8.13749C7.68749 16.9125 7.27499 17.2875 7.27499 17.775C7.27499 18.2625 7.64999 18.6375 8.13749 18.6375H8.24999V18.75C8.24999 19.2 8.62499 19.6125 9.11249 19.6125C9.59999 19.6125 9.97499 19.2375 9.97499 18.75V18.6375H15.825C16.275 18.6375 16.6875 18.2625 16.6875 17.775C16.6875 17.2875 16.275 16.9125 15.825 16.9125Z" fill="#161A23"/>
</svg>
