<svg width="24" height="24" viewBox="0 0 24 24" fill="none" xmlns="http://www.w3.org/2000/svg">
<path d="M21 2.25H3.00001C1.72501 2.25 0.637512 3.3 0.637512 4.6125V19.4625C0.675012 20.7 1.72501 21.75 3.00001 21.75H21C22.275 21.75 23.3625 20.7 23.3625 19.3875V4.575C23.3625 3.3 22.275 2.25 21 2.25ZM21.675 19.425C21.675 19.8 21.375 20.1 21 20.1H3.00001C2.62501 20.1 2.32501 19.8 2.32501 19.425V4.575C2.32501 4.2 2.62501 3.9 3.00001 3.9H21C21.375 3.9 21.675 4.2 21.675 4.575V19.425Z" fill="#161A23"/>
<path d="M7.12502 6.9751V5.7751C7.12502 5.3251 6.75003 4.9126 6.26253 4.9126C5.77503 4.9126 5.40002 5.2876 5.40002 5.7751V6.9751C4.42502 7.3126 3.71252 8.2501 3.71252 9.3751C3.71252 10.5001 4.42502 11.4001 5.40002 11.7751V18.2626C5.40002 18.7126 5.77503 19.1251 6.26253 19.1251C6.75003 19.1251 7.12502 18.7501 7.12502 18.2626V11.7751C8.10002 11.4376 8.81252 10.5001 8.81252 9.3751C8.81252 8.2501 8.10002 7.3501 7.12502 6.9751ZM6.26253 8.5501C6.71253 8.5501 7.12502 8.9251 7.12502 9.4126C7.12502 9.9001 6.75003 10.2751 6.26253 10.2751C5.77503 10.2751 5.40002 9.9001 5.40002 9.4126C5.40002 8.9251 5.81253 8.5501 6.26253 8.5501Z" fill="#161A23"/>
<path d="M12.8625 12.7876V5.7751C12.8625 5.3251 12.4875 4.9126 12 4.9126C11.55 4.9126 11.1375 5.2876 11.1375 5.7751V12.7501C10.1625 13.0876 9.45001 14.0251 9.45001 15.1501C9.45001 16.2751 10.1625 17.1751 11.1375 17.5501V18.2626C11.1375 18.7126 11.5125 19.1251 12 19.1251C12.45 19.1251 12.8625 18.7501 12.8625 18.2626V17.5501C13.8375 17.2126 14.55 16.2751 14.55 15.1501C14.55 14.0251 13.8375 13.1251 12.8625 12.7876ZM12 16.0126C11.5125 16.0126 11.1375 15.6376 11.1375 15.1876C11.1375 14.7376 11.5125 14.3251 12 14.3251C12.45 14.3251 12.8625 14.7001 12.8625 15.1876C12.8625 15.6001 12.4875 15.9751 12 16.0126Z" fill="#161A23"/>
<path d="M18.5625 7.61245V5.81245C18.5625 5.36245 18.1875 4.94995 17.7 4.94995C17.2125 4.94995 16.8375 5.32495 16.8375 5.81245V7.61245C15.8625 7.94995 15.15 8.88745 15.15 10.0125C15.15 11.1375 15.8625 12.0375 16.8375 12.4125V18.3C16.8375 18.75 17.2125 19.1625 17.7 19.1625C18.1875 19.1625 18.5625 18.7875 18.5625 18.3V12.375C19.5375 12.0375 20.25 11.1 20.25 9.97495C20.25 8.84995 19.575 7.94995 18.5625 7.61245ZM17.7375 10.8375C17.2875 10.8375 16.875 10.4625 16.875 9.97495C16.875 9.52495 17.25 9.14995 17.7 9.14995C18.15 9.14995 18.525 9.52495 18.525 9.97495C18.6 10.4625 18.1875 10.8375 17.7375 10.8375Z" fill="#161A23"/>
</svg>
