<svg width="24" height="24" viewBox="0 0 24 24" fill="none" xmlns="http://www.w3.org/2000/svg">
<path d="M21.225 4.94995L17.2875 1.04995C17.025 0.787451 16.65 0.637451 16.275 0.637451H9.44996C8.36246 0.637451 7.46246 1.53745 7.46246 2.62495V16.3124C7.46246 17.4 8.36246 18.2999 9.44996 18.2999H19.65C20.7375 18.2999 21.6375 17.4 21.6375 16.3124V5.96245C21.6375 5.58745 21.4875 5.21245 21.225 4.94995ZM17.3625 3.52495L18.7875 4.94995H17.3625V3.52495ZM19.65 16.6124H9.44996C9.29996 16.6124 9.14996 16.4625 9.14996 16.3124V2.62495C9.14996 2.47495 9.29996 2.32495 9.44996 2.32495H15.675V5.77495C15.675 6.22495 16.05 6.63745 16.5375 6.63745H19.95V16.3499C19.95 16.4999 19.8 16.6124 19.65 16.6124Z" fill="#161A23"/>
<path d="M16.5375 8.4375H11.5875C11.1375 8.4375 10.725 8.8125 10.725 9.3C10.725 9.7875 11.1 10.1625 11.5875 10.1625H16.5375C16.9875 10.1625 17.4 9.7875 17.4 9.3C17.4 8.8125 16.9875 8.4375 16.5375 8.4375Z" fill="#161A23"/>
<path d="M16.5375 11.5874H11.5875C11.1375 11.5874 10.725 11.9624 10.725 12.4499C10.725 12.8999 11.1 13.3124 11.5875 13.3124H16.5375C16.9875 13.3124 17.4 12.9374 17.4 12.4499C17.3625 11.9624 16.9875 11.5874 16.5375 11.5874Z" fill="#161A23"/>
<path d="M15.675 19.5C15.225 19.5 14.8125 19.875 14.8125 20.3625V21.375C14.8125 21.525 14.6625 21.675 14.5125 21.675H4.34999C4.19999 21.675 4.04999 21.525 4.04999 21.375V7.65C4.04999 7.5 4.19999 7.35 4.34999 7.35H5.62499C6.07499 7.35 6.48749 6.975 6.48749 6.4875C6.48749 6 6.11249 5.625 5.62499 5.625H4.34999C3.26249 5.625 2.36249 6.525 2.36249 7.6125V21.375C2.36249 22.4625 3.26249 23.3625 4.34999 23.3625H14.55C15.6375 23.3625 16.5375 22.4625 16.5375 21.375V20.3625C16.5375 19.875 16.1625 19.5 15.675 19.5Z" fill="#161A23"/>
</svg>
