<svg width="24" height="24" viewBox="0 0 24 24" fill="none" xmlns="http://www.w3.org/2000/svg">
<g clip-path="url(#clip0_501_47582)">
<path d="M21 8.62495H13.275V2.99995C13.275 1.72495 12.225 0.637451 10.95 0.637451H3C1.725 0.674951 0.675003 1.72495 0.675003 2.99995V12.2249C0.675003 13.4999 1.725 14.5875 3.0375 14.5875H10.0125V20.9999C10.0125 22.275 11.0625 23.3624 12.375 23.3624H21C22.275 23.3624 23.3625 22.3124 23.3625 20.9999V10.95C23.3625 9.67495 22.275 8.62495 21 8.62495ZM3 12.8624C2.625 12.8624 2.325 12.5625 2.325 12.1875V2.99995C2.3625 2.62495 2.625 2.36245 3 2.36245H10.95C11.325 2.36245 11.5875 2.66245 11.5875 3.03745V8.77495C10.65 9.07495 9.975 9.97495 9.975 10.9874V12.9H3V12.8624ZM21.675 20.9999C21.675 21.3749 21.375 21.6749 21 21.6749H12.3375C11.9625 21.6749 11.6625 21.3749 11.6625 20.9999V10.95C11.6625 10.575 11.9625 10.275 12.3375 10.275H21C21.375 10.275 21.675 10.575 21.675 10.95V20.9999Z" fill="#161A23"/>
<path d="M19.0875 11.7749H14.25C13.8 11.7749 13.3875 12.1499 13.3875 12.6374C13.3875 13.0874 13.7625 13.4999 14.25 13.4999H19.125C19.575 13.4999 19.9875 13.1249 19.9875 12.6374C19.95 12.1499 19.575 11.7749 19.0875 11.7749Z" fill="#161A23"/>
<path d="M19.0875 15.1875H14.25C13.8 15.1875 13.3875 15.5625 13.3875 16.05C13.3875 16.5375 13.7625 16.9125 14.25 16.9125H19.125C19.575 16.9125 19.9875 16.5375 19.9875 16.05C19.9875 15.5625 19.575 15.1875 19.0875 15.1875Z" fill="#161A23"/>
<path d="M19.0875 18.5625H14.25C13.8 18.5625 13.3875 18.9375 13.3875 19.425C13.3875 19.9125 13.7625 20.2875 14.25 20.2875H19.125C19.575 20.2875 19.9875 19.9125 19.9875 19.425C19.9875 18.9375 19.575 18.5625 19.0875 18.5625Z" fill="#161A23"/>
</g>
<defs>
<clipPath id="clip0_501_47582">
<rect width="24" height="24" fill="white"/>
</clipPath>
</defs>
</svg>
