<svg width="25" height="24" viewBox="0 0 25 24" fill="none" xmlns="http://www.w3.org/2000/svg">
<path d="M12.1875 23.325C5.92501 23.325 0.825012 18.225 0.825012 12C0.825012 5.775 5.92501 0.637501 12.1875 0.637501C18.45 0.637501 23.5125 5.7375 23.5125 12C23.5125 18.2625 18.4125 23.325 12.1875 23.325ZM12.1875 2.325C6.86251 2.325 2.51251 6.675 2.51251 12C2.51251 17.325 6.86251 21.675 12.1875 21.675C17.5125 21.675 21.8625 17.325 21.8625 12C21.825 6.675 17.5125 2.325 12.1875 2.325ZM12.1875 18.675C8.51251 18.675 5.51251 15.675 5.51251 12C5.51251 8.325 8.51251 5.325 12.1875 5.325C14.475 5.325 16.575 6.45 17.8125 8.3625C18.075 8.7375 17.9625 9.2625 17.55 9.525C17.175 9.7875 16.65 9.675 16.3875 9.2625C15.45 7.8375 13.875 6.975 12.1875 6.975C9.41251 6.975 7.20001 9.225 7.20001 11.9625C7.20001 14.7375 9.45001 16.95 12.1875 16.95C13.95 16.95 15.6 16.0125 16.5 14.475C16.725 14.0625 17.25 13.95 17.6625 14.175C18.075 14.4 18.1875 14.925 17.9625 15.3375C16.725 17.4375 14.5125 18.675 12.1875 18.675Z" fill="#161A23"/>
</svg>
