<svg width="24" height="24" viewBox="0 0 24 24" fill="none" xmlns="http://www.w3.org/2000/svg">
<g clip-path="url(#clip0_914_44913)">
<mask id="mask0_914_44913" style="mask-type:luminance" maskUnits="userSpaceOnUse" x="0" y="0" width="24" height="24">
<path d="M24 0H0V24H24V0Z" fill="white"/>
</mask>
<g mask="url(#mask0_914_44913)">
<path d="M20.9444 13.1304C20.7208 13.1323 20.5018 13.0665 20.3151 12.9415C20.1285 12.8165 19.9826 12.6379 19.8962 12.4284C19.8098 12.219 19.7868 11.9882 19.8299 11.7653C19.8731 11.5425 19.9806 11.3378 20.1387 11.1772C20.2968 11.0166 20.4984 10.9075 20.7177 10.8636C20.9371 10.8198 21.1644 10.8432 21.3706 10.931C21.5769 11.0187 21.7527 11.1668 21.8758 11.3564C21.9989 11.5459 22.0637 11.7684 22.0618 11.9955C22.0595 12.2958 21.9409 12.583 21.7319 12.7953C21.5229 13.0076 21.24 13.128 20.9444 13.1304ZM10.045 7.84669C10.2682 7.84485 10.4869 7.9104 10.6733 8.03498C10.8598 8.15959 11.0056 8.33764 11.0923 8.54655C11.1789 8.75543 11.2026 8.98579 11.1602 9.20835C11.1177 9.43091 11.0112 9.63566 10.854 9.79661C10.6968 9.95756 10.4961 10.0674 10.2773 10.1124C10.0585 10.1572 9.83152 10.1352 9.62512 10.0488C9.41876 9.96251 9.24225 9.81589 9.11805 9.62753C8.99385 9.43916 8.92755 9.21758 8.92755 8.99089C8.92755 8.68905 9.04496 8.3994 9.25425 8.18509C9.46354 7.97078 9.74775 7.84916 10.045 7.84669ZM3.21219 4.84204C3.43279 4.84387 3.64793 4.91201 3.83047 5.03783C4.01302 5.16364 4.15481 5.3415 4.23803 5.54903C4.32116 5.75655 4.34198 5.98444 4.29788 6.204C4.2537 6.42353 4.1466 6.62486 3.98992 6.78266C3.83329 6.94042 3.63418 7.0476 3.41768 7.09065C3.20118 7.1337 2.97697 7.11068 2.77332 7.0245C2.56967 6.93836 2.39569 6.7929 2.27331 6.60645C2.15093 6.42004 2.08562 6.201 2.08561 5.97694C2.0856 5.82713 2.11481 5.67877 2.17153 5.54047C2.22826 5.40217 2.31139 5.27666 2.41613 5.17114C2.52086 5.06565 2.64512 4.98225 2.78175 4.92574C2.91839 4.86926 3.06468 4.84084 3.21219 4.84204ZM15.9618 1.84672C16.185 1.84487 16.4037 1.91041 16.5902 2.03501C16.7766 2.15961 16.9224 2.33765 17.0091 2.54656C17.0958 2.75546 17.1194 2.98581 17.077 3.20836C17.0346 3.43092 16.928 3.63567 16.7709 3.79661C16.6136 3.95756 16.4129 4.06744 16.1941 4.11236C15.9754 4.15725 15.7484 4.13516 15.542 4.04884C15.3356 3.96251 15.1591 3.81589 15.0349 3.62753C14.9107 3.43918 14.8444 3.21759 14.8444 2.9909C14.8444 2.68905 14.9618 2.39942 15.1711 2.18511C15.3804 1.9708 15.6646 1.84917 15.9618 1.84672ZM23.8845 11.9955C23.8862 11.4435 23.7372 10.9019 23.4541 10.4307C23.1709 9.95951 22.7647 9.57728 22.2806 9.32644C21.7965 9.07556 21.2533 8.96591 20.7115 9.00964C20.1697 9.05336 19.6505 9.24878 19.2114 9.57413C18.7724 9.89948 18.4307 10.3421 18.2244 10.8528C18.0181 11.3634 17.9552 11.9222 18.0427 12.467C18.1302 13.0118 18.3646 13.5213 18.72 13.9389C19.0754 14.3565 19.5379 14.666 20.056 14.8328V16.3583C20.056 16.632 20.0029 16.9029 19.8998 17.1557C19.7967 17.4086 19.6456 17.6382 19.455 17.8317C19.2645 18.0252 19.0384 18.1787 18.7895 18.2834C18.5405 18.3882 18.2737 18.442 18.0043 18.442H16.9144C15.7456 18.4403 14.616 18.87 13.7361 19.6514C13.4829 18.6082 12.9722 17.6478 12.2523 16.8606C13.4964 16.8243 14.6775 16.2968 15.5446 15.39C16.4117 14.4833 16.8966 13.2689 16.896 12.0048V5.8374C17.5606 5.61611 18.1258 5.16146 18.49 4.55513C18.8542 3.94875 18.9937 3.23036 18.8834 2.52895C18.7731 1.82753 18.4202 1.18903 17.8881 0.728074C17.356 0.267123 16.6795 0.013916 15.9801 0.013916C15.2807 0.013916 14.6043 0.267123 14.0722 0.728074C13.54 1.18903 13.1872 1.82753 13.0769 2.52895C12.9665 3.23036 13.106 3.94875 13.4703 4.55513C13.8345 5.16146 14.3997 5.61611 15.0642 5.8374V11.9769C15.0642 12.7763 14.7516 13.5429 14.195 14.1081C13.6385 14.6733 12.8836 14.9909 12.0966 14.9909H10.3655C10.7525 14.3707 10.956 13.6507 10.9517 12.9165V11.8281C11.6163 11.6068 12.1815 11.1522 12.5457 10.5458C12.9099 9.93941 13.0494 9.22106 12.9391 8.51962C12.8288 7.81822 12.4759 7.17971 11.9438 6.71876C11.4117 6.25781 10.7352 6.00461 10.0358 6.00461C9.33641 6.00461 8.65995 6.25781 8.12782 6.71876C7.59574 7.17971 7.24283 7.81822 7.1325 8.51962C7.02218 9.22106 7.16164 9.93941 7.52591 10.5458C7.89015 11.1522 8.45527 11.6068 9.11985 11.8281V12.9165C9.12022 13.454 8.91514 13.9707 8.54779 14.3576C8.18044 14.7445 7.67959 14.9716 7.15065 14.9909C6.35951 14.986 5.60239 14.6633 5.04465 14.0934C4.48691 13.5235 4.17386 12.7526 4.1739 11.949V8.81415C4.83847 8.59286 5.40364 8.13821 5.76787 7.53184C6.13211 6.92546 6.27161 6.20708 6.16129 5.50567C6.05096 4.80428 5.69805 4.16576 5.16596 3.70482C4.63384 3.24387 3.95734 2.99066 3.25799 2.99066C2.5586 2.99066 1.88213 3.24387 1.35002 3.70482C0.817901 4.16576 0.465004 4.80428 0.354685 5.50567C0.244366 6.20708 0.38385 6.92546 0.748095 7.53184C1.11234 8.13821 1.67748 8.59286 2.34206 8.81415V11.9397C2.34442 13.2303 2.84774 14.4678 3.74283 15.3839C4.63789 16.2999 5.85255 16.8205 7.12316 16.8327H8.2131C8.73413 16.8393 9.24795 16.9569 9.72131 17.1781C10.1947 17.3992 10.617 17.7189 10.9609 18.1165C11.7062 18.917 12.1279 19.9729 12.1424 21.0746V23.9862H13.9743V23.3258C13.9743 22.5165 14.2908 21.7405 14.8542 21.1683C15.4176 20.5961 16.1817 20.2746 16.9785 20.2746H18.0684C19.0935 20.2746 20.0767 19.861 20.8015 19.1248C21.5264 18.3887 21.9336 17.3901 21.9336 16.349V14.8235C22.5132 14.6284 23.0187 14.2549 23.3798 13.7548C23.7408 13.2547 23.9397 12.6528 23.9487 12.0327" fill="#15171A"/>
</g>
</g>
<defs>
<clipPath id="clip0_914_44913">
<rect width="24" height="24" fill="white"/>
</clipPath>
</defs>
</svg>
