<svg width="24" height="24" viewBox="0 0 24 24" fill="none" xmlns="http://www.w3.org/2000/svg">
<path d="M23.1 7.65002L16.8 1.35002C16.65 1.20002 16.425 1.08752 16.2 1.08752C15.975 1.08752 15.75 1.20002 15.6 1.35002L9.30005 7.65002C8.96255 7.98752 8.96255 8.51252 9.30005 8.85002C9.63755 9.18752 10.1625 9.18752 10.5 8.85002L15.375 3.97502V19.3125C15.375 20.3625 14.5125 21.1875 13.5 21.1875H1.50005C1.05005 21.1875 0.675049 21.5625 0.675049 22.0125C0.675049 22.4625 1.05005 22.8375 1.50005 22.8375H13.4625C15.45 22.8375 17.025 21.225 17.025 19.275V3.97502L21.9 8.85002C22.05 9.00002 22.275 9.11252 22.5 9.11252C22.725 9.11252 22.95 9.03752 23.1 8.85002C23.4375 8.51252 23.4375 7.98752 23.1 7.65002Z" fill="#161A23"/>
</svg>
