<svg width="24" height="24" viewBox="0 0 24 24" fill="none" xmlns="http://www.w3.org/2000/svg">
<path d="M23.1 16.1625C22.7625 15.825 22.2375 15.825 21.9 16.1625L18.3375 19.725V9.4125C18.3375 7.7625 16.9875 6.4125 15.3375 6.4125H3.52498L7.12498 2.8125C7.46248 2.475 7.46248 1.95 7.12498 1.6125C6.78748 1.275 6.26248 1.275 5.92498 1.6125L0.899976 6.6375C0.562476 6.975 0.562476 7.5 0.899976 7.8375L5.92498 12.8625C6.07498 13.0125 6.29998 13.125 6.52498 13.125C6.74998 13.125 6.97498 13.05 7.12498 12.8625C7.46248 12.525 7.46248 12 7.12498 11.6625L3.56248 8.1H15.3375C16.0875 8.1 16.65 8.7 16.65 9.4125V19.7625L13.0875 16.2C12.75 15.8625 12.225 15.8625 11.8875 16.2C11.55 16.5375 11.55 17.0625 11.8875 17.4L16.875 22.3875C17.025 22.5375 17.25 22.65 17.475 22.65C17.7 22.65 17.925 22.575 18.075 22.3875L23.1 17.3625C23.4375 17.0625 23.4375 16.5 23.1 16.1625Z" fill="#161A23"/>
</svg>
