<svg width="24" height="24" viewBox="0 0 24 24" fill="none" xmlns="http://www.w3.org/2000/svg">
<path d="M20.3625 7.87498H8.73752L12.2625 4.34998C12.6 4.01248 12.6 3.48748 12.2625 3.14998C11.925 2.81248 11.4 2.81248 11.0625 3.14998L6.07502 8.09998C5.73752 8.43748 5.73752 8.96248 6.07502 9.29998L11.0625 14.25C11.2125 14.4 11.4375 14.5125 11.6625 14.5125C11.8875 14.5125 12.1125 14.4375 12.2625 14.25C12.6 13.9125 12.6 13.3875 12.2625 13.05L8.73752 9.52498H20.3625C21.075 9.52498 21.675 10.125 21.675 10.8375V20.25C21.675 20.7 22.05 21.075 22.5 21.075C22.95 21.075 23.325 20.7 23.325 20.25V10.8375C23.325 9.18748 22.0125 7.87498 20.3625 7.87498Z" fill="#161A23"/>
<path d="M2.69998 8.69998L7.04998 4.34998C7.38748 4.01248 7.38748 3.48748 7.04998 3.14998C6.71248 2.81248 6.18748 2.81248 5.84998 3.14998L0.899976 8.09998C0.562476 8.43748 0.562476 8.96248 0.899976 9.29998L5.84998 14.25C5.99998 14.4 6.22498 14.5125 6.44998 14.5125C6.67498 14.5125 6.89998 14.4375 7.04998 14.25C7.38748 13.9125 7.38748 13.3875 7.04998 13.05L2.69998 8.69998Z" fill="#161A23"/>
</svg>
