<svg width="24" height="24" viewBox="0 0 24 24" fill="none" xmlns="http://www.w3.org/2000/svg">
<path d="M22.5 21.225H10.5375C9.48748 21.225 8.66248 20.3625 8.66248 19.35V3.97505L13.5375 8.85005C13.6875 9.00005 13.9125 9.11255 14.1375 9.11255C14.3625 9.11255 14.5875 9.03755 14.7375 8.85005C15.075 8.51255 15.075 7.98755 14.7375 7.65005L8.39998 1.35005C8.06248 1.01255 7.53748 1.01255 7.19998 1.35005L0.899976 7.65005C0.562476 7.98755 0.562476 8.51255 0.899976 8.85005C1.23748 9.18755 1.76248 9.18755 2.09998 8.85005L6.97498 3.97505V19.3125C6.97498 21.3 8.58748 22.875 10.5375 22.875H22.5C22.95 22.875 23.325 22.5 23.325 22.05C23.325 21.6 22.95 21.225 22.5 21.225Z" fill="#161A23"/>
</svg>
