<svg width="24" height="24" viewBox="0 0 24 24" fill="none" xmlns="http://www.w3.org/2000/svg">
<path d="M15.9 6.07502C15.5625 5.73752 15.0375 5.73752 14.7 6.07502L9.75005 11.0625C9.41255 11.4 9.41255 11.925 9.75005 12.2625C10.0875 12.6 10.6125 12.6 10.95 12.2625L14.475 8.73752V20.3625C14.475 21.075 13.875 21.675 13.1625 21.675H3.75005C3.30005 21.675 2.92505 22.05 2.92505 22.5C2.92505 22.95 3.30005 23.325 3.75005 23.325H13.1625C14.8125 23.325 16.1625 21.975 16.1625 20.325V8.70002L19.6875 12.225C19.8375 12.375 20.0625 12.4875 20.2875 12.4875C20.5125 12.4875 20.7375 12.4125 20.8876 12.225C21.225 11.8875 21.225 11.3625 20.8876 11.025L15.9 6.07502Z" fill="#161A23"/>
<path d="M10.9501 7.04998L15.3001 2.69998L19.6501 7.04998C19.8001 7.19998 20.0251 7.31248 20.2501 7.31248C20.4751 7.31248 20.7001 7.23748 20.8501 7.04998C21.1876 6.71248 21.1876 6.18748 20.8501 5.84998L15.9001 0.899976C15.5626 0.562476 15.0376 0.562476 14.7001 0.899976L9.75007 5.84998C9.41257 6.18748 9.41257 6.71248 9.75007 7.04998C10.0876 7.38748 10.6126 7.38748 10.9501 7.04998Z" fill="#161A23"/>
</svg>
