<svg width="24" height="24" viewBox="0 0 24 24" fill="none" xmlns="http://www.w3.org/2000/svg">
<path d="M22.5 1.08752H10.5375C8.54998 1.08752 6.97498 2.70002 6.97498 4.65002V19.9875L2.09998 15.1125C1.76248 14.775 1.23748 14.775 0.899976 15.1125C0.562476 15.45 0.562476 15.975 0.899976 16.3125L7.19998 22.6125C7.34998 22.7625 7.57498 22.875 7.79998 22.875C8.02498 22.875 8.24998 22.8 8.39998 22.6125L14.7 16.3125C15.0375 15.975 15.0375 15.45 14.7 15.1125C14.3625 14.775 13.8375 14.775 13.5 15.1125L8.62498 19.9875V4.68752C8.62498 3.63752 9.48748 2.81252 10.5 2.81252H22.5C22.95 2.81252 23.325 2.43752 23.325 1.98752C23.325 1.53752 22.95 1.08752 22.5 1.08752Z" fill="#161A23"/>
</svg>
