<svg width="24" height="24" viewBox="0 0 24 24" fill="none" xmlns="http://www.w3.org/2000/svg">
<path d="M19.3125 6.97498H3.97505L8.85005 2.09998C9.18755 1.76248 9.18755 1.23748 8.85005 0.899976C8.51255 0.562476 7.98755 0.562476 7.65005 0.899976L1.35005 7.19998C1.01255 7.53748 1.01255 8.06248 1.35005 8.39998L7.65005 14.7C7.80005 14.85 8.02505 14.9625 8.25005 14.9625C8.47505 14.9625 8.70005 14.8875 8.85005 14.7C9.18755 14.3625 9.18755 13.8375 8.85005 13.5L3.97505 8.62498H19.3125C20.3625 8.62498 21.1875 9.48748 21.1875 10.5V22.5C21.1875 22.95 21.5625 23.325 22.0126 23.325C22.4625 23.325 22.8375 22.95 22.8375 22.5V10.5375C22.9125 8.54998 21.3 6.97498 19.3125 6.97498Z" fill="#161A23"/>
</svg>
