<svg width="24" height="24" viewBox="0 0 24 24" fill="none" xmlns="http://www.w3.org/2000/svg">
<path d="M23.1 16.1625L18.075 11.175C17.7375 10.8375 17.2125 10.8375 16.875 11.175C16.5375 11.5125 16.5375 12.0375 16.875 12.375L20.4375 15.9375H8.69998C7.94998 15.9375 7.38748 15.3375 7.38748 14.625V4.2375L10.95 7.8C11.1 7.95 11.325 8.0625 11.55 8.0625C11.775 8.0625 12 7.9875 12.15 7.8C12.4875 7.4625 12.4875 6.9375 12.15 6.6L7.12498 1.6125C6.78748 1.275 6.26248 1.275 5.92498 1.6125L0.899976 6.6375C0.562476 6.975 0.562476 7.5 0.899976 7.8375C1.23748 8.175 1.76248 8.175 2.09998 7.8375L5.66248 4.275V14.625C5.66248 16.275 7.01248 17.625 8.66248 17.625H20.4375L16.875 21.1875C16.5375 21.525 16.5375 22.05 16.875 22.3875C17.025 22.5375 17.25 22.65 17.475 22.65C17.7 22.65 17.925 22.575 18.075 22.3875L23.1 17.3625C23.25 17.2125 23.3625 16.9875 23.3625 16.7625C23.3625 16.5375 23.25 16.35 23.1 16.1625Z" fill="#161A23"/>
</svg>
