<svg width="24" height="24" viewBox="0 0 24 24" fill="none" xmlns="http://www.w3.org/2000/svg">
<path d="M23.0999 6.6375L18.0749 1.6125C17.7374 1.275 17.2125 1.275 16.875 1.6125C16.5374 1.95 16.5374 2.475 16.875 2.8125L20.4374 6.375H8.69995C7.04995 6.375 5.69995 7.725 5.69995 9.375V19.725L2.13745 16.1625C1.79995 15.825 1.27495 15.825 0.937451 16.1625C0.599951 16.5 0.599951 17.025 0.937451 17.3625L5.96245 22.3875C6.11245 22.5375 6.33745 22.65 6.56245 22.65C6.78745 22.65 7.01245 22.575 7.16245 22.3875L12.1875 17.3625C12.525 17.025 12.525 16.5 12.1875 16.1625C11.8499 15.825 11.325 15.825 10.9874 16.1625L7.42495 19.725V9.4125C7.42495 8.6625 8.02495 8.1 8.73745 8.1H20.5124L16.875 11.625C16.5374 11.9625 16.5374 12.4875 16.875 12.825C17.025 12.975 17.2499 13.0875 17.4749 13.0875C17.6999 13.0875 17.9249 13.0125 18.0749 12.825L23.0999 7.8C23.2499 7.65 23.3624 7.425 23.3624 7.2C23.3624 6.975 23.2499 6.7875 23.0999 6.6375Z" fill="#161A23"/>
</svg>
