<svg width="24" height="24" viewBox="0 0 24 24" fill="none" xmlns="http://www.w3.org/2000/svg">
<path d="M23.025 5.88755L17.7001 1.38755C17.4 1.12505 16.9125 1.12505 16.6125 1.38755L11.2875 5.88755C10.9125 6.18755 10.875 6.71255 11.175 7.08755C11.475 7.46255 12 7.50005 12.375 7.20005L16.3125 3.86255V14.5125C16.3125 15.225 15.75 15.7875 15.0375 15.7875H3.30005L6.63755 11.85C6.93755 11.475 6.90005 10.95 6.52505 10.65C6.18755 10.35 5.62505 10.3875 5.32505 10.7625L0.825049 16.0875C0.562549 16.3875 0.562549 16.875 0.825049 17.175L5.32505 22.5C5.47505 22.6875 5.73755 22.8 5.96255 22.8C6.15005 22.8 6.33755 22.725 6.48755 22.6125C6.86255 22.3125 6.90005 21.7875 6.60005 21.4125L3.30005 17.475H15.0375C16.6875 17.475 18 16.125 18 14.5125V3.82505L21.9375 7.16255C22.0875 7.31255 22.275 7.35005 22.4625 7.35005C22.6875 7.35005 22.95 7.23755 23.1 7.05005C23.4375 6.71255 23.4 6.18755 23.025 5.88755Z" fill="#161A23"/>
</svg>
