<svg width="24" height="24" viewBox="0 0 24 24" fill="none" xmlns="http://www.w3.org/2000/svg">
<path d="M22.05 0.675049C21.6 0.675049 21.225 1.05005 21.225 1.50005V13.4625C21.225 14.5125 20.3625 15.3375 19.35 15.3375H3.97502L8.85002 10.4625C9.18752 10.125 9.18752 9.60005 8.85002 9.26255C8.51252 8.92505 7.98752 8.92505 7.65002 9.26255L1.35002 15.6C1.20002 15.75 1.08752 15.975 1.08752 16.2C1.08752 16.425 1.16252 16.65 1.35002 16.8L7.65002 23.1C7.80002 23.25 8.02502 23.3625 8.25002 23.3625C8.47502 23.3625 8.70002 23.2875 8.85002 23.1C9.18752 22.7625 9.18752 22.2375 8.85002 21.9L3.97502 17.025H19.3125C21.3 17.025 22.875 15.4125 22.875 13.4625V1.50005C22.9125 1.05005 22.5375 0.675049 22.05 0.675049Z" fill="#161A23"/>
</svg>
