<svg width="24" height="24" viewBox="0 0 24 24" fill="none" xmlns="http://www.w3.org/2000/svg">
<path d="M23.1 15.15C22.7625 14.8125 22.2375 14.8125 21.9 15.15L17.025 20.025V4.6875C17.025 2.7 15.4125 1.125 13.4625 1.125H1.50005C1.05005 1.125 0.675049 1.5 0.675049 1.95C0.675049 2.4 1.05005 2.775 1.50005 2.775H13.4625C14.5125 2.775 15.3375 3.6375 15.3375 4.65V19.9875L10.4625 15.1125C10.125 14.775 9.60005 14.775 9.26255 15.1125C8.92505 15.45 8.92505 15.975 9.26255 16.3125L15.5625 22.6125C15.7125 22.7625 15.9375 22.875 16.1625 22.875C16.3875 22.875 16.6125 22.8 16.7626 22.6125L23.0625 16.3125C23.4375 16.0125 23.4375 15.4875 23.1 15.15Z" fill="#161A23"/>
</svg>
