<svg width="24" height="24" viewBox="0 0 24 24" fill="none" xmlns="http://www.w3.org/2000/svg">
<path d="M22.65 7.19998L16.35 0.899976C16.0125 0.562476 15.4875 0.562476 15.15 0.899976C14.8125 1.23748 14.8125 1.76248 15.15 2.09998L20.025 6.97498H4.6875C2.7 6.97498 1.125 8.58748 1.125 10.5375V22.5C1.125 22.95 1.5 23.325 1.95 23.325C2.4 23.325 2.775 22.95 2.775 22.5V10.5375C2.775 9.48748 3.6375 8.66248 4.65 8.66248H19.9875L15.1125 13.5375C14.775 13.875 14.775 14.4 15.1125 14.7375C15.2625 14.8875 15.4875 15 15.7125 15C15.9375 15 16.1625 14.925 16.3125 14.7375L22.6125 8.43748C22.9875 8.06248 22.9875 7.53748 22.65 7.19998Z" fill="#161A23"/>
</svg>
