<svg width="24" height="24" viewBox="0 0 24 24" fill="none" xmlns="http://www.w3.org/2000/svg">
<path d="M22.65 15.6L16.35 9.30005C16.0125 8.96255 15.4875 8.96255 15.15 9.30005C14.8125 9.63755 14.8125 10.1625 15.15 10.5L20.025 15.375H4.68752C3.63752 15.375 2.81252 14.5125 2.81252 13.5V1.50005C2.81252 1.05005 2.43752 0.675049 1.98752 0.675049C1.53752 0.675049 1.08752 1.05005 1.08752 1.50005V13.4625C1.08752 15.45 2.70002 17.025 4.65002 17.025H19.9875L15.1125 21.9C14.775 22.2375 14.775 22.7625 15.1125 23.1C15.2625 23.25 15.4875 23.3625 15.7125 23.3625C15.9375 23.3625 16.1625 23.2875 16.3125 23.1L22.6125 16.8C22.9875 16.4625 22.9875 15.9375 22.65 15.6Z" fill="#161A23"/>
</svg>
