<svg width="24" height="24" viewBox="0 0 24 24" fill="none" xmlns="http://www.w3.org/2000/svg">
<path d="M20.25 21.675H10.8375C10.125 21.675 9.52498 21.075 9.52498 20.3625V8.73752L13.05 12.2625C13.3875 12.6 13.9125 12.6 14.25 12.2625C14.5875 11.925 14.5875 11.4 14.25 11.0625L9.29998 6.07502C8.96248 5.73752 8.43748 5.73752 8.09998 6.07502L3.14998 11.0625C2.81248 11.4 2.81248 11.925 3.14998 12.2625C3.29998 12.4125 3.52498 12.525 3.74998 12.525C3.97498 12.525 4.19998 12.45 4.34998 12.2625L7.87498 8.73752V20.3625C7.87498 22.0125 9.22498 23.3625 10.875 23.3625H20.25C20.7 23.3625 21.075 22.9875 21.075 22.5375C21.075 22.0875 20.7375 21.675 20.25 21.675Z" fill="#161A23"/>
<path d="M3.74998 7.31248C3.97498 7.31248 4.19998 7.23748 4.34998 7.04998L8.69998 2.69998L13.05 7.04998C13.3875 7.38748 13.9125 7.38748 14.25 7.04998C14.5875 6.71248 14.5875 6.18748 14.25 5.84998L9.29998 0.899976C8.96248 0.562476 8.43748 0.562476 8.09998 0.899976L3.14998 5.84998C2.81248 6.18748 2.81248 6.71248 3.14998 7.04998C3.29998 7.23748 3.52498 7.31248 3.74998 7.31248Z" fill="#161A23"/>
</svg>
