<svg width="24" height="24" viewBox="0 0 24 24" fill="none" xmlns="http://www.w3.org/2000/svg">
<path d="M17.9249 8.09998L12.9374 3.14998C12.5999 2.81248 12.0749 2.81248 11.7374 3.14998C11.4 3.48748 11.4 4.01248 11.7374 4.34998L15.2625 7.87498H3.63745C1.98745 7.87498 0.637451 9.22498 0.637451 10.875V20.25C0.637451 20.7 1.01245 21.075 1.46245 21.075C1.91245 21.075 2.28745 20.7 2.28745 20.25V10.8375C2.28745 10.125 2.88745 9.52498 3.59995 9.52498H15.2249L11.7 13.05C11.3625 13.3875 11.3625 13.9125 11.7 14.25C11.8499 14.4 12.0749 14.5125 12.2999 14.5125C12.525 14.5125 12.75 14.4375 12.9 14.25L17.8499 9.29998C18.2249 8.96248 18.2249 8.43748 17.9249 8.09998Z" fill="#161A23"/>
<path d="M23.0999 8.09998L18.1499 3.14998C17.8124 2.81248 17.2874 2.81248 16.9499 3.14998C16.6124 3.48748 16.6124 4.01248 16.9499 4.34998L21.2999 8.69998L16.9499 13.05C16.6124 13.3875 16.6124 13.9125 16.9499 14.25C17.0999 14.4 17.3249 14.5125 17.5499 14.5125C17.7749 14.5125 17.9999 14.4375 18.1499 14.25L23.0999 9.29998C23.4374 8.96248 23.4374 8.43748 23.0999 8.09998Z" fill="#161A23"/>
</svg>
