<svg width="24" height="24" viewBox="0 0 24 24" fill="none" xmlns="http://www.w3.org/2000/svg">
<g clip-path="url(#clip0_501_44679)">
<path d="M22.5 19.5C22.05 19.5 21.675 19.875 21.675 20.325V21.0375C21.675 21.375 21.4125 21.6375 21.075 21.6375H20.3625C19.9125 21.6375 19.5375 22.0125 19.5375 22.4625C19.5375 22.9125 19.9125 23.2875 20.3625 23.2875H21.075C22.35 23.2875 23.3625 22.275 23.3625 21V20.2875C23.3625 19.875 22.95 19.5 22.5 19.5Z" fill="#161A23"/>
<path d="M14.775 21.675H9.22499C8.77499 21.675 8.39999 22.05 8.39999 22.5C8.39999 22.95 8.77499 23.325 9.22499 23.325H14.775C15.225 23.325 15.6 22.95 15.6 22.5C15.6 22.05 15.225 21.675 14.775 21.675Z" fill="#161A23"/>
<path d="M3.67499 21.675H2.96249C2.62499 21.675 2.36249 21.4125 2.36249 21.075V20.3625C2.36249 19.875 1.94999 19.5 1.49999 19.5C1.04999 19.5 0.674988 19.875 0.674988 20.325V21.0375C0.674988 22.3125 1.68749 23.325 2.96249 23.325H3.67499C4.12499 23.325 4.49999 22.95 4.49999 22.5C4.49999 22.05 4.12499 21.675 3.67499 21.675Z" fill="#161A23"/>
<path d="M1.49999 15.6375C1.94999 15.6375 2.32499 15.2625 2.32499 14.8125V9.22502C2.32499 8.77502 1.94999 8.40002 1.49999 8.40002C1.04999 8.40002 0.674988 8.77502 0.674988 9.22502V14.775C0.674988 15.225 1.04999 15.6375 1.49999 15.6375Z" fill="#161A23"/>
<path d="M3.67499 0.675049H2.96249C1.68749 0.675049 0.674988 1.68755 0.674988 2.96255V3.67505C0.674988 4.12505 1.04999 4.50005 1.49999 4.50005C1.94999 4.50005 2.32499 4.12505 2.32499 3.67505V2.96255C2.36249 2.62505 2.62499 2.36255 2.96249 2.36255H3.67499C4.12499 2.36255 4.49999 1.95005 4.49999 1.50005C4.49999 1.05005 4.12499 0.675049 3.67499 0.675049Z" fill="#161A23"/>
<path d="M9.22499 2.36252H14.775C15.225 2.36252 15.6 1.98752 15.6 1.53752C15.6 1.08752 15.225 0.712524 14.775 0.712524H9.22499C8.77499 0.712524 8.39999 1.08752 8.39999 1.53752C8.39999 1.98752 8.77499 2.36252 9.22499 2.36252Z" fill="#161A23"/>
<path d="M21.0375 0.675049H20.325C19.875 0.675049 19.5 1.05005 19.5 1.50005C19.5 1.95005 19.875 2.32505 20.325 2.32505H21.0375C21.375 2.32505 21.6375 2.58755 21.6375 2.92505V3.63755C21.6375 4.08755 22.0125 4.46255 22.4625 4.46255C22.9125 4.46255 23.2875 4.08755 23.2875 3.63755V2.96255C23.3625 1.68755 22.3125 0.675049 21.0375 0.675049Z" fill="#161A23"/>
<path d="M22.5 8.36255C22.05 8.36255 21.675 8.73755 21.675 9.18755V14.7375C21.675 15.1875 22.05 15.5625 22.5 15.5625C22.95 15.5625 23.325 15.1875 23.325 14.7375V9.22505C23.3625 8.77505 22.95 8.36255 22.5 8.36255Z" fill="#161A23"/>
<path d="M14.4 11.8875L13.2 10.6875L16.4625 7.42505C16.8 7.08755 16.8 6.56255 16.4625 6.22505C16.125 5.88755 15.6 5.88755 15.2625 6.22505L12 9.48755L8.73748 6.22505C8.39998 5.88755 7.87498 5.88755 7.53748 6.22505C7.19998 6.56255 7.19998 7.08755 7.53748 7.42505L10.8 10.6875L9.59998 11.8875C8.32498 11.1375 6.67498 11.325 5.62498 12.4125C4.34998 13.6875 4.34998 15.7875 5.62498 17.0625C6.26248 17.7 7.12498 18.0375 7.94998 18.0375C8.77498 18.0375 9.63748 17.7 10.275 17.0625C11.3625 15.975 11.5125 14.325 10.8 13.0875L12 11.8875L13.2 13.0875C12.45 14.3625 12.6375 16.0125 13.725 17.0625C14.3625 17.7 15.225 18.0375 16.05 18.0375C16.875 18.0375 17.7375 17.7 18.375 17.0625C19.65 15.7875 19.65 13.6875 18.375 12.4125C17.2875 11.325 15.6375 11.1375 14.4 11.8875ZM9.07498 15.8625C8.43748 16.5 7.42498 16.5 6.78748 15.8625C6.14998 15.225 6.14998 14.2125 6.78748 13.575C7.08748 13.275 7.49998 13.0875 7.91248 13.0875C8.32498 13.0875 8.73748 13.2375 9.03748 13.575C9.71248 14.2125 9.71248 15.225 9.07498 15.8625ZM17.175 15.8625C16.5375 16.5 15.525 16.5 14.8875 15.8625C14.25 15.225 14.25 14.2125 14.8875 13.575C15.1875 13.275 15.6 13.0875 16.0125 13.0875C16.425 13.0875 16.8375 13.2375 17.1375 13.575C17.8125 14.2125 17.8125 15.225 17.175 15.8625Z" fill="#161A23"/>
</g>
<defs>
<clipPath id="clip0_501_44679">
<rect width="24" height="24" fill="white"/>
</clipPath>
</defs>
</svg>
