<svg width="24" height="24" viewBox="0 0 24 24" fill="none" xmlns="http://www.w3.org/2000/svg">
<path d="M7.98803 10.9125C7.76303 10.0125 6.97553 9.45 6.15053 9.45H4.83803C4.57553 9.45 4.35053 9.6 4.31303 9.8625L3.03804 14.5125H3.93803C4.20053 14.5125 4.35053 14.3625 4.46303 14.1L5.40053 10.6125H6.15053C6.45053 10.6125 6.71303 10.8375 6.78803 11.1375C6.90053 11.55 6.56303 12 6.15053 12H5.77553C5.51303 12 5.28803 12.15 5.25053 12.4125L5.02553 13.3125H6.18803C7.50053 13.275 8.25053 11.9625 7.98803 10.9125ZM2.32554 11.925H3.00054C3.26304 11.925 3.41304 11.775 3.52554 11.5125L3.75053 10.6125H2.28804C1.42554 10.6125 0.713041 11.1375 0.450541 12.075C0.150541 13.275 1.08804 14.4375 2.25054 14.4375H2.66304L2.92554 13.5C2.96304 13.35 2.88804 13.2 2.70054 13.2H2.28804C1.42554 13.275 1.42554 11.925 2.32554 11.925ZM11.3255 10.65H8.47553L8.36303 11.1375C8.32553 11.5125 8.51303 11.8125 8.88803 11.8125H10.988C11.138 11.8125 11.0255 11.9625 11.0255 11.9625L10.7255 13.125C10.7255 13.1625 10.688 13.275 10.5005 13.275H9.22553C9.07553 13.275 9.07553 12.975 9.22553 12.975H10.013C10.2755 12.975 10.4255 12.825 10.538 12.5625L10.688 12.075H9.00053C7.57553 12.075 7.42553 14.4 8.96303 14.4H11.063C11.4755 14.4 11.813 14.1375 11.9255 13.7625L12.4505 11.85C12.5255 11.2875 12.0005 10.65 11.3255 10.65ZM23.363 9.375H22.688C22.538 9.375 22.388 9.4875 22.313 9.675L21.0005 14.475C21.7505 14.475 22.463 13.95 22.6505 13.2L23.663 9.675C23.663 9.5625 23.5505 9.375 23.363 9.375ZM14.813 10.65H13.088L12.1505 14.175C12.113 14.325 12.188 14.475 12.3755 14.475H13.0505C13.2005 14.475 13.3505 14.3625 13.4255 14.175L14.063 11.85H14.813C15.3005 11.85 15.563 12.2625 15.4505 12.7125L15.038 14.175C15.0005 14.325 15.0755 14.475 15.263 14.475H15.938C16.088 14.475 16.238 14.3625 16.313 14.175L16.613 12.975C16.9505 11.8125 16.013 10.65 14.813 10.65ZM18.338 13.3875C18.188 13.3875 18.113 13.275 18.188 13.125L18.488 12C18.5255 11.85 18.638 11.775 18.788 11.775H19.988C20.1005 11.775 20.138 11.8125 20.138 11.925L20.1005 12.0375C20.063 12.075 20.063 12.15 19.9505 12.15H19.163C18.9005 12.15 18.6755 12.3 18.638 12.5625L18.488 13.05H20.4005C20.813 13.05 21.1505 12.7875 21.263 12.4125L21.3755 12C21.5255 11.325 21.0755 10.6875 20.363 10.6875H18.6755C18.038 10.6875 17.4755 11.1 17.2505 11.8125L16.838 13.275C16.688 13.9125 17.138 14.5875 17.8505 14.5875H20.2505C20.513 14.5875 20.663 14.4375 20.7755 14.175L21.0005 13.425C20.963 13.3875 18.338 13.3875 18.338 13.3875Z" fill="#15171A"/>
</svg>
