<svg width="24" height="24" viewBox="0 0 24 24" fill="none" xmlns="http://www.w3.org/2000/svg">
<path d="M15.9 0.675049H8.1C6.825 0.675049 5.7375 1.72505 5.7375 3.03755V21.0375C5.7375 22.3125 6.7875 23.4 8.1 23.4H15.9C17.175 23.4 18.2625 22.35 18.2625 21.0375V3.00005C18.2625 1.72505 17.175 0.675049 15.9 0.675049ZM16.575 21C16.575 21.375 16.275 21.675 15.9 21.675H8.1C7.725 21.675 7.425 21.375 7.425 21V3.00005C7.425 2.62505 7.725 2.32505 8.1 2.32505H15.9C16.275 2.32505 16.575 2.62505 16.575 3.00005V21Z" fill="#161A23"/>
<path d="M10.575 6.52505H13.4625C13.9125 6.52505 14.325 6.15005 14.325 5.66255C14.325 5.17505 13.95 4.80005 13.4625 4.80005H10.575C10.125 4.80005 9.71251 5.17505 9.71251 5.66255C9.71251 6.15005 10.0875 6.52505 10.575 6.52505Z" fill="#161A23"/>
<path d="M10.575 10.5375H13.4625C13.9125 10.5375 14.325 10.1625 14.325 9.675C14.325 9.1875 13.95 8.8125 13.4625 8.8125H10.575C10.125 8.8125 9.71251 9.1875 9.71251 9.675C9.71251 10.1625 10.0875 10.5375 10.575 10.5375Z" fill="#161A23"/>
<path d="M13.8375 15.4125C13.3875 15.525 13.125 15.975 13.2 16.425C13.2375 16.5375 13.2375 16.6125 13.2375 16.725C13.2375 17.4 12.675 17.9625 12 17.9625C11.325 17.9625 10.7625 17.4 10.7625 16.725C10.7625 16.6125 10.7625 16.5 10.8 16.3875C10.9125 15.9375 10.6875 15.4875 10.2375 15.3375C9.7875 15.225 9.3375 15.4875 9.1875 15.9C9.1125 16.1625 9.075 16.425 9.075 16.725C9.075 18.3375 10.3875 19.65 12 19.65C13.6125 19.65 14.925 18.3375 14.925 16.725C14.925 16.5 14.8875 16.2375 14.85 16.0125C14.7375 15.5625 14.2875 15.3 13.8375 15.4125Z" fill="#161A23"/>
<path d="M11.175 13.2751V15.9751C11.175 16.4251 11.55 16.8376 12.0375 16.8376C12.4875 16.8376 12.9 16.4626 12.9 15.9751V13.2751C12.9 12.8251 12.525 12.4126 12.0375 12.4126C11.55 12.4126 11.175 12.7876 11.175 13.2751Z" fill="#161A23"/>
</svg>
