<svg width="25" height="24" viewBox="0 0 25 24" fill="none" xmlns="http://www.w3.org/2000/svg">
<path d="M16.4625 23.3624C16.0125 23.3624 15.6 22.9874 15.6 22.4999V19.2374H13.0125V22.4999C13.0125 22.9499 12.6375 23.3624 12.15 23.3624C11.7 23.3624 11.2875 22.9874 11.2875 22.4999V19.2374H8.32501V22.4999C8.32501 22.9499 7.95001 23.3624 7.46251 23.3624C6.97501 23.3624 6.60001 22.9874 6.60001 22.4999V19.1624C5.66251 18.9374 4.95001 18.1875 4.80001 17.25H1.68751C1.23751 17.25 0.825012 16.875 0.825012 16.3875C0.825012 15.9 1.20001 15.525 1.68751 15.525H4.83751V13.0499H1.68751C1.23751 13.0499 0.825012 12.6749 0.825012 12.1875C0.825012 11.7374 1.20001 11.325 1.68751 11.325H4.83751V8.47495H1.68751C1.23751 8.47495 0.825012 8.09995 0.825012 7.61245C0.825012 7.12495 1.20001 6.74995 1.68751 6.74995H4.91251C5.10001 5.81245 5.81251 5.06245 6.71251 4.83745V1.49995C6.71251 1.04995 7.08751 0.637451 7.57501 0.637451C8.06251 0.637451 8.43751 1.01245 8.43751 1.49995V4.87495H11.4V1.49995C11.4 1.04995 11.775 0.637451 12.2625 0.637451C12.7125 0.637451 13.125 1.01245 13.125 1.49995V4.87495H15.7125V1.49995C15.7125 1.04995 16.0875 0.637451 16.575 0.637451C17.0625 0.637451 17.4375 1.01245 17.4375 1.49995V4.87495C18.525 4.98745 19.425 5.81245 19.6125 6.86245H22.8375C23.2875 6.86245 23.7 7.23745 23.7 7.72495C23.7 8.21245 23.325 8.58745 22.8375 8.58745H19.6875V11.4375H22.8375C23.2875 11.4375 23.7 11.8124 23.7 12.2999C23.7 12.7499 23.325 13.1624 22.8375 13.1624H19.6875V15.6375H22.8375C23.2875 15.6375 23.7 16.0124 23.7 16.4999C23.7 16.9874 23.325 17.3624 22.8375 17.3624H19.6125C19.425 18.4124 18.525 19.2374 17.4375 19.3499V22.4999C17.325 22.9499 16.95 23.3624 16.4625 23.3624ZM7.31251 6.56245C6.90001 6.56245 6.52501 6.89995 6.52501 7.31245V16.8375C6.52501 17.25 6.86251 17.5875 7.31251 17.5875H17.0625C17.475 17.5875 17.85 17.25 17.85 16.8375V7.31245C17.85 6.89995 17.5125 6.56245 17.0625 6.56245H7.31251ZM14.025 16.275H10.3875C9.03751 16.275 7.91251 15.1875 7.91251 13.8375V10.275C7.91251 8.92495 9.03751 7.83745 10.3875 7.83745H14.025C15.375 7.83745 16.5 8.92495 16.5 10.275V13.8375C16.4625 15.1875 15.375 16.275 14.025 16.275ZM10.35 9.52495C9.93751 9.52495 9.56251 9.86245 9.56251 10.275V13.8375C9.56251 14.25 9.90001 14.5875 10.35 14.5875H13.9875C14.4 14.5875 14.775 14.25 14.775 13.8375V10.275C14.775 9.86245 14.4375 9.52495 13.9875 9.52495H10.35Z" fill="#161A23"/>
</svg>
