<svg width="24" height="24" viewBox="0 0 24 24" fill="none" xmlns="http://www.w3.org/2000/svg">
<g clip-path="url(#clip0_914_44921)">
<path d="M11.8875 10.0875L10.3125 10.875C9.9 9.975 9.1125 9.9375 9.0375 9.9375C7.9875 9.9375 7.4625 10.6125 7.4625 12C7.4625 13.125 7.875 14.0625 9.0375 14.0625C9.7125 14.0625 10.2 13.7625 10.4625 13.05L11.8875 13.8C11.625 14.325 10.6875 15.6 8.8125 15.6C7.7625 15.6 5.3625 15.1125 5.3625 12C5.3625 9.2625 7.3875 8.4 8.8125 8.4C10.275 8.4 11.25 8.925 11.8875 10.0875ZM18.6 10.0875L17.0625 10.875C16.65 9.9375 15.8625 9.9375 15.75 9.9375C14.7 9.9375 14.175 10.6125 14.175 12C14.175 13.125 14.5875 14.0625 15.75 14.0625C16.425 14.0625 16.9125 13.7625 17.175 13.05L18.6375 13.8C18.525 13.95 17.625 15.6 15.5625 15.6C14.5125 15.6 12.1125 15.1125 12.1125 12C12.1125 9.2625 14.1375 8.4 15.5625 8.4C16.95 8.4 17.9625 8.925 18.6 10.0875ZM11.9625 0.375C5.2875 0.375 0.375 5.775 0.375 12C0.375 18.4875 5.7 23.625 11.9625 23.625C18.075 23.625 23.625 18.9375 23.625 12C23.625 5.55 18.6 0.375 11.9625 0.375ZM12.0375 21.525C6.7875 21.525 2.475 17.175 2.475 12C2.475 7.05 6.4875 2.475 12.0375 2.475C17.325 2.475 21.5625 6.6375 21.5625 12C21.525 17.7 16.875 21.525 12.0375 21.525Z" fill="#15171A"/>
</g>
<defs>
<clipPath id="clip0_914_44921">
<rect width="24" height="24" fill="white"/>
</clipPath>
</defs>
</svg>
