<svg width="24" height="24" viewBox="0 0 24 24" fill="none" xmlns="http://www.w3.org/2000/svg">
<g clip-path="url(#clip0_501_44745)">
<path d="M21.825 9.48753L18.4875 2.36253C18.225 1.80003 17.7375 1.35003 17.1375 1.12503C16.5375 0.900034 15.9 0.937534 15.3 1.20003L2.025 7.42503C0.824996 7.98753 0.299996 9.41253 0.862496 10.6125L3.9 17.1V20.625C3.9 21.9375 4.9875 23.025 6.3 23.025H20.9625C22.275 23.025 23.3625 21.9375 23.3625 20.625V11.7375C23.325 10.725 22.725 9.86253 21.825 9.48753ZM20.9625 11.025C21 11.025 21.0375 11.025 21.0375 11.025C21.075 11.025 21.075 11.025 21.1125 11.025C21.45 11.0625 21.675 11.3625 21.675 11.7V12.3H5.5875V11.7C5.5875 11.325 5.8875 10.9875 6.3 10.9875H20.9625V11.025ZM5.5875 13.9875H21.6375V15.225H5.5875V13.9875ZM2.7375 8.96253L16.05 2.73753C16.2 2.66253 16.425 2.66253 16.575 2.70003C16.7625 2.77503 16.875 2.88753 16.95 3.07503L19.875 9.33753H6.3C4.9875 9.33753 3.9 10.425 3.9 11.7375V13.0875L2.4 9.86253C2.25 9.52503 2.4 9.11253 2.7375 8.96253ZM20.9625 21.3H6.3C5.925 21.3 5.5875 21 5.5875 20.5875V16.9125H21.6375V20.625C21.6375 21 21.3375 21.3 20.9625 21.3Z" fill="#161A23"/>
</g>
<defs>
<clipPath id="clip0_501_44745">
<rect width="24" height="24" fill="white"/>
</clipPath>
</defs>
</svg>
