<svg width="24" height="24" viewBox="0 0 24 24" fill="none" xmlns="http://www.w3.org/2000/svg">
<path d="M21.0001 4.1626H3.00005C1.72505 4.1626 0.675049 5.2126 0.675049 6.4876V17.4751C0.675049 18.7501 1.72505 19.8001 3.00005 19.8001H21.0001C22.2751 19.8001 23.3251 18.7501 23.3251 17.4751V6.4876C23.3251 5.2126 22.2751 4.1626 21.0001 4.1626ZM3.00005 5.8501H21.0001C21.3751 5.8501 21.6751 6.1501 21.6751 6.5251V8.5501H2.32505V6.5251C2.32505 6.1501 2.62505 5.8501 3.00005 5.8501ZM21.6751 10.2001V11.6251H2.32505V10.2001H21.6751ZM21.0001 18.1501H3.00005C2.62505 18.1501 2.32505 17.8501 2.32505 17.4751V13.3126H21.6376V17.4751C21.6751 17.8501 21.3751 18.1501 21.0001 18.1501Z" fill="#161A23"/>
</svg>
