<svg width="24" height="24" viewBox="0 0 24 24" fill="none" xmlns="http://www.w3.org/2000/svg">
<path d="M19.725 14.175C19.3875 13.8375 18.8625 13.8375 18.525 14.175L18.15 14.55L17.775 14.175C17.4375 13.8375 16.9125 13.8375 16.575 14.175C16.2375 14.5125 16.2375 15.0375 16.575 15.375L16.95 15.75L16.575 16.125C16.2375 16.4625 16.2375 16.9875 16.575 17.325C16.725 17.475 16.95 17.5875 17.175 17.5875C17.4 17.5875 17.625 17.5125 17.775 17.325L18.15 16.95L18.525 17.325C18.675 17.475 18.9 17.5875 19.125 17.5875C19.35 17.5875 19.575 17.5125 19.725 17.325C20.0625 16.9875 20.0625 16.4625 19.725 16.125L19.35 15.75L19.725 15.375C20.0625 15.0375 20.0625 14.5125 19.725 14.175Z" fill="#161A23"/>
<path d="M19.0125 10.65V5.39999C19.0125 4.12499 18 3.11249 16.725 3.11249H2.96249C1.68749 3.11249 0.674988 4.12499 0.674988 5.39999V13.7625C0.674988 15.0375 1.68749 16.05 2.96249 16.05H13.05C13.2 18.75 15.45 20.925 18.1875 20.925C21.0375 20.925 23.3625 18.6 23.3625 15.75C23.325 13.1625 21.45 11.0625 19.0125 10.65ZM2.32499 7.57499H17.325V8.62499H2.32499V7.57499ZM2.96249 4.79999H16.725C17.0625 4.79999 17.325 5.06249 17.325 5.39999V5.88749H2.32499V5.39999C2.32499 5.06249 2.62499 4.79999 2.96249 4.79999ZM2.32499 13.7625V10.35H17.325V10.6875C15.3375 11.025 13.725 12.4875 13.2 14.4H2.96249C2.62499 14.3625 2.32499 14.0625 2.32499 13.7625ZM18.1875 19.2C16.275 19.2 14.7 17.625 14.7 15.7125C14.7 13.8 16.275 12.225 18.1875 12.225C20.1 12.225 21.675 13.8 21.675 15.7125C21.675 17.625 20.1 19.2 18.1875 19.2Z" fill="#161A23"/>
</svg>
