<svg width="24" height="24" viewBox="0 0 24 24" fill="none" xmlns="http://www.w3.org/2000/svg">
<path d="M21.5625 16.2375H20.925V15.1125C20.925 13.575 19.6875 12.3375 18.15 12.3375C16.6125 12.3375 15.375 13.575 15.375 15.1125V16.2375H14.7375C14.2875 16.2375 13.9125 16.6125 13.9125 17.0625V21.0375C13.9125 21.4875 14.2875 21.8625 14.7375 21.8625H21.5625C22.0125 21.8625 22.3875 21.4875 22.3875 21.0375V17.0625C22.3875 16.6125 22.0125 16.2375 21.5625 16.2375ZM17.025 15.1125C17.025 14.5125 17.5125 14.025 18.1125 14.025C18.7125 14.025 19.2 14.5125 19.2 15.1125V16.2375H16.9875V15.1125H17.025ZM20.7 20.2125H15.5625V17.925H20.7V20.2125Z" fill="#161A23"/>
<path d="M20.6625 2.09998H3.33749C1.87499 2.09998 0.674988 3.29998 0.674988 4.76248V15.3C0.674988 16.7625 1.87499 17.9625 3.33749 17.9625H9.71249C10.1625 17.9625 10.5375 17.5875 10.5375 17.1375C10.5375 16.6875 10.1625 16.3125 9.71249 16.3125H3.33749C2.81249 16.3125 2.36249 15.8625 2.36249 15.3375V10.7625H21.675V11.625C21.675 12.075 22.05 12.45 22.5 12.45C22.95 12.45 23.325 12.075 23.325 11.625V4.76248C23.3625 3.29998 22.1625 2.09998 20.6625 2.09998ZM3.33749 3.78748H20.7C21.225 3.78748 21.675 4.23748 21.675 4.76248V5.62498H2.36249V4.76248C2.36249 4.19998 2.77499 3.78748 3.33749 3.78748ZM2.36249 9.07498V7.31248H21.675V9.07498H2.36249Z" fill="#161A23"/>
</svg>
