<svg width="23" height="23" viewBox="0 0 23 23" fill="none" xmlns="http://www.w3.org/2000/svg">
<path d="M21.1884 8.51024L17.8509 1.38524C17.5884 0.822739 17.1009 0.372739 16.5009 0.147739C15.9009 -0.0772608 15.2634 -0.0397607 14.6634 0.222739L1.38843 6.44774C0.18843 7.01024 -0.33657 8.43524 0.22593 9.63524L3.26343 16.1227V19.6477C3.26343 20.9602 4.35093 22.0477 5.66343 22.0477H20.3259C21.6384 22.0477 22.7259 20.9602 22.7259 19.6477V10.7602C22.6884 9.74774 22.0884 8.88524 21.1884 8.51024ZM20.3259 10.0477C20.3634 10.0477 20.4009 10.0477 20.4009 10.0477C20.4384 10.0477 20.4384 10.0477 20.4759 10.0477C20.8134 10.0852 21.0384 10.3852 21.0384 10.7227V11.3227H4.95093V10.7227C4.95093 10.3477 5.25093 10.0102 5.66343 10.0102H20.3259V10.0477ZM4.95093 13.0102H21.0009V14.2477H4.95093V13.0102ZM2.10093 7.98524L15.4134 1.76024C15.5634 1.68524 15.7884 1.68524 15.9384 1.72274C16.1259 1.79774 16.2384 1.91024 16.3134 2.09774L19.2384 8.36024H5.66343C4.35093 8.36024 3.26343 9.44774 3.26343 10.7602V12.1102L1.76343 8.88524C1.61343 8.54774 1.76343 8.13524 2.10093 7.98524ZM20.3259 20.3227H5.66343C5.28843 20.3227 4.95093 20.0227 4.95093 19.6102V15.9352H21.0009V19.6477C21.0009 20.0227 20.7009 20.3227 20.3259 20.3227Z" fill="#161A23"/>
</svg>
