<svg width="24" height="24" viewBox="0 0 24 24" fill="none" xmlns="http://www.w3.org/2000/svg">
<g clip-path="url(#clip0_501_43544)">
<path d="M12 0.674988C5.73749 0.674988 0.674988 5.73749 0.674988 12C0.674988 18.2625 5.73749 23.3625 12 23.3625C18.2625 23.3625 23.3625 18.2625 23.3625 12C23.3625 5.73749 18.2625 0.674988 12 0.674988ZM12 21.675C6.67499 21.675 2.36249 17.325 2.36249 12C2.36249 6.67499 6.67499 2.36249 12 2.36249C17.325 2.36249 21.675 6.71249 21.675 12.0375C21.675 17.325 17.325 21.675 12 21.675Z" fill="#161A23"/>
<path d="M15.45 8.51246C15.1125 8.17496 14.5875 8.17496 14.25 8.51246L12 10.8L9.71246 8.51246C9.37496 8.17496 8.84996 8.17496 8.51246 8.51246C8.17496 8.84996 8.17496 9.37496 8.51246 9.71246L10.8 12L8.51246 14.2875C8.17496 14.625 8.17496 15.15 8.51246 15.4875C8.66246 15.6375 8.88746 15.75 9.11246 15.75C9.33746 15.75 9.56246 15.675 9.71246 15.4875L12 13.2L14.2875 15.4875C14.4375 15.6375 14.6625 15.75 14.8875 15.75C15.1125 15.75 15.3375 15.675 15.4875 15.4875C15.825 15.15 15.825 14.625 15.4875 14.2875L13.2 12L15.4875 9.71246C15.7875 9.37496 15.7875 8.84996 15.45 8.51246Z" fill="#161A23"/>
</g>
<defs>
<clipPath id="clip0_501_43544">
<rect width="24" height="24" fill="white"/>
</clipPath>
</defs>
</svg>
