<svg width="24" height="24" viewBox="0 0 24 24" fill="none" xmlns="http://www.w3.org/2000/svg">
<path d="M22.3875 5.58748C22.3875 5.54998 22.35 5.54998 22.35 5.51248C22.0875 5.13748 21.7125 4.79998 21.2625 4.61248L13.1625 0.899976C12.4125 0.562476 11.5875 0.562476 10.8375 0.899976L2.775 4.61248C2.325 4.79998 1.9875 5.13748 1.6875 5.47498C1.65 5.51248 1.6125 5.54998 1.575 5.58748C1.575 5.62498 1.5375 5.62498 1.5375 5.66248C1.275 6.11248 1.125 6.59998 1.125 7.12498V16.5C1.125 17.55 1.725 18.525 2.6625 18.975L10.725 23.025C11.1 23.2125 11.55 23.325 11.9625 23.325C12.375 23.325 12.825 23.2125 13.2 23.025L21.2625 18.975C22.2 18.4875 22.8 17.55 22.8 16.5V7.12498C22.875 6.56248 22.6875 6.03748 22.3875 5.58748ZM11.55 2.43748C11.7 2.36248 11.85 2.32498 12 2.32498C12.15 2.32498 12.3 2.36248 12.45 2.43748L20.025 5.92498L12 9.86248L3.975 5.92498L11.55 2.43748ZM3.4125 17.475C3.0375 17.2875 2.8125 16.9125 2.8125 16.5V7.23748L11.1375 11.325V21.375L3.4125 17.475ZM20.5875 17.475L12.825 21.375V11.325L21.15 7.23748V16.5C21.1875 16.9125 20.925 17.2875 20.5875 17.475Z" fill="#161A23"/>
</svg>
