<svg width="24" height="24" viewBox="0 0 24 24" fill="none" xmlns="http://www.w3.org/2000/svg">
<g clip-path="url(#clip0_501_45478)">
<path d="M21 0.675049H2.99999C1.72499 0.675049 0.674988 1.72505 0.674988 3.00005V21C0.674988 22.275 1.72499 23.3625 3.03749 23.3625H21.0375C22.3125 23.3625 23.4 22.3125 23.4 21V3.00005C23.3625 1.72505 22.275 0.675049 21 0.675049ZM21.675 3.00005V11.175H13.05V2.36255H21C21.375 2.36255 21.675 2.62505 21.675 3.00005ZM2.99999 2.36255H11.325V11.175H2.32499V3.00005C2.36249 2.62505 2.62499 2.36255 2.99999 2.36255ZM2.36249 21V12.8625H11.3625V21.675H2.99999C2.62499 21.675 2.36249 21.375 2.36249 21ZM21 21.675H13.0125V12.8625H21.6375V21C21.675 21.375 21.375 21.675 21 21.675Z" fill="#161A23"/>
<path d="M15.75 9.71252H19.275C19.95 9.71252 20.5125 9.15002 20.5125 8.47502V4.95002C20.5125 4.27502 19.95 3.71252 19.275 3.71252H15.75C15.075 3.71252 14.5125 4.27502 14.5125 4.95002V8.47502C14.55 9.18752 15.075 9.71252 15.75 9.71252ZM16.2375 5.47502H18.825V8.06252H16.2375V5.47502Z" fill="#161A23"/>
<path d="M4.94999 8.4751C5.09999 8.6251 5.32499 8.7376 5.54999 8.7376C5.77499 8.7376 5.99999 8.6626 6.14999 8.4751L6.67499 7.9501L7.19999 8.4751C7.34999 8.6251 7.57499 8.7376 7.79999 8.7376C8.02499 8.7376 8.24999 8.6626 8.39999 8.4751C8.73749 8.1376 8.73749 7.6126 8.39999 7.2751L7.83749 6.7501L8.36249 6.2251C8.69999 5.8876 8.69999 5.3626 8.36249 5.0251C8.02499 4.6876 7.49999 4.6876 7.16249 5.0251L6.63749 5.5501L6.11249 5.0251C5.77499 4.6876 5.24999 4.6876 4.91249 5.0251C4.57499 5.3626 4.57499 5.8876 4.91249 6.2251L5.43749 6.7501L4.91249 7.2751C4.61249 7.6126 4.61249 8.1376 4.94999 8.4751Z" fill="#161A23"/>
<path d="M6.67496 14.175C5.02496 14.175 3.71246 15.525 3.71246 17.1375C3.71246 18.75 5.06246 20.1 6.67496 20.1C8.28746 20.1 9.63746 18.75 9.63746 17.1375C9.63746 15.525 8.28746 14.175 6.67496 14.175ZM6.67496 18.45C5.96246 18.45 5.39996 17.8875 5.39996 17.175C5.39996 16.4625 5.96246 15.9 6.67496 15.9C7.38746 15.9 7.94996 16.4625 7.94996 17.175C7.94996 17.8875 7.38746 18.45 6.67496 18.45Z" fill="#161A23"/>
<path d="M18.9 14.7001C18.5625 14.3251 18.1125 14.1001 17.625 14.1001C17.1375 14.1001 16.65 14.3251 16.35 14.7001L14.0625 17.4001C13.6125 17.9251 13.5375 18.6001 13.8 19.2001C14.0625 19.8001 14.6625 20.1751 15.3375 20.1751H19.9125C20.5875 20.1751 21.1875 19.8001 21.45 19.2001C21.7125 18.6001 21.6375 17.8876 21.1875 17.4001L18.9 14.7001ZM15.3 18.4876L17.625 15.7876L19.9125 18.4876H15.3Z" fill="#161A23"/>
</g>
<defs>
<clipPath id="clip0_501_45478">
<rect width="24" height="24" fill="white"/>
</clipPath>
</defs>
</svg>
