<svg width="24" height="24" viewBox="0 0 24 24" fill="none" xmlns="http://www.w3.org/2000/svg">
<path d="M22.5787 17.6249V17.6024C22.4811 17.2465 22.3143 16.9134 22.0879 16.622C21.8614 16.3306 21.5798 16.0867 21.259 15.9042C20.9383 15.7217 20.5847 15.6043 20.2186 15.5585C19.8524 15.5127 19.4808 15.5395 19.125 15.6374C17.8462 16.0124 16.0912 16.5374 14.7675 16.9199C14.8905 16.5375 14.8785 16.1245 14.7337 15.7499C14.3962 14.9061 13.455 14.5274 12.6675 14.5274H8.99999C8.6327 14.5031 8.28768 14.3427 8.03249 14.0774C7.64047 13.7152 7.12621 13.5143 6.59249 13.5149H3.62624C2.99631 13.5277 2.39722 13.79 1.96057 14.2442C1.52393 14.6985 1.28544 15.3074 1.29749 15.9374V20.6586C1.28543 21.2999 1.52815 21.9197 1.97243 22.3823C2.41671 22.8449 3.02628 23.1124 3.66749 23.1261H7.23374C7.69128 23.1242 8.13783 22.9858 8.51624 22.7286H8.55374C9.59214 23.3101 10.7611 23.6185 11.9512 23.6249C12.6582 23.6269 13.3614 23.5207 14.0362 23.3099L20.6587 21.2886H20.7075C21.0714 21.1717 21.4087 20.984 21.6999 20.7364C21.991 20.4887 22.2304 20.186 22.4043 19.8455C22.5782 19.5051 22.6831 19.1337 22.713 18.7526C22.743 18.3715 22.6973 17.9883 22.5787 17.6249ZM3.66749 21.6261C3.42406 21.6126 3.1959 21.5032 3.03287 21.3219C2.86985 21.1406 2.78522 20.9021 2.79749 20.6586V15.9524C2.78523 15.7202 2.86562 15.4926 3.021 15.3197C3.17639 15.1467 3.39407 15.0425 3.62624 15.0299H6.58874C6.74777 15.0284 6.90112 15.0889 7.01624 15.1986C7.12835 15.299 7.24604 15.3929 7.36874 15.4799V21.6111C7.32382 21.6148 7.27867 21.6148 7.23374 21.6111L3.66749 21.6261ZM20.1975 19.8749L13.59 21.8774C13.0599 22.0445 12.507 22.128 11.9512 22.1249C11.012 22.1246 10.0881 21.8859 9.26624 21.4311L8.86874 21.2174V16.0349H8.99624H12.6675C12.7944 16.023 12.9223 16.0425 13.04 16.0915C13.1577 16.1405 13.2615 16.2177 13.3425 16.3161C13.395 16.4511 13.2975 16.8974 12.5362 17.6211L12.105 18.0374L12.4012 18.5511C12.705 19.0761 13.0012 18.9899 14.2537 18.6336C14.8462 18.4649 15.6375 18.2361 16.425 18.0036C17.9925 17.5461 19.56 17.0774 19.56 17.0774C19.8948 16.9996 20.2468 17.0551 20.5414 17.2322C20.8361 17.4092 21.0503 17.694 21.1387 18.0261C21.2066 18.2089 21.2359 18.4037 21.2247 18.5984C21.2135 18.793 21.162 18.9832 21.0735 19.1569C20.9851 19.3307 20.8616 19.4842 20.7108 19.6077C20.56 19.7313 20.3852 19.8223 20.1975 19.8749Z" fill="#161A23"/>
<path d="M18.9562 5.85384C19.4986 5.85384 20.0287 5.69297 20.4796 5.39159C20.9305 5.09021 21.2818 4.66187 21.4892 4.16075C21.6966 3.65964 21.7506 3.10827 21.6445 2.57642C21.5385 2.04456 21.277 1.55613 20.8933 1.17291C20.5095 0.789685 20.0207 0.528903 19.4887 0.423555C18.9567 0.318207 18.4054 0.373028 17.9046 0.581082C17.4038 0.789136 16.9759 1.14107 16.6752 1.59236C16.3744 2.04365 16.2143 2.57401 16.215 3.11634C16.217 3.84241 16.5065 4.53812 17.0203 5.05118C17.5341 5.56424 18.2302 5.85285 18.9562 5.85384ZM18.9562 1.87509C19.2017 1.87509 19.4417 1.94789 19.6459 2.08428C19.85 2.22067 20.0091 2.41452 20.103 2.64133C20.197 2.86814 20.2215 3.11772 20.1736 3.35849C20.1258 3.59927 20.0075 3.82044 19.8339 3.99404C19.6604 4.16763 19.4392 4.28584 19.1984 4.33374C18.9576 4.38163 18.7081 4.35705 18.4812 4.2631C18.2544 4.16916 18.0606 4.01006 17.9242 3.80594C17.7878 3.60182 17.715 3.36184 17.715 3.11634C17.715 2.95334 17.7471 2.79193 17.8095 2.64133C17.8719 2.49074 17.9633 2.3539 18.0786 2.23864C18.1938 2.12338 18.3306 2.03195 18.4812 1.96957C18.6318 1.9072 18.7932 1.87509 18.9562 1.87509Z" fill="#161A23"/>
<path d="M18.0675 14.0175H19.305C20.0258 14.0165 20.7167 13.7298 21.2264 13.2201C21.736 12.7105 22.0228 12.0195 22.0238 11.2988V9.16504C22.0228 8.44429 21.736 7.75334 21.2264 7.24369C20.7167 6.73404 20.0258 6.44728 19.305 6.44629H18.18C17.4593 6.44728 16.7683 6.73404 16.2587 7.24369C15.749 7.75334 15.4623 8.44429 15.4613 9.16504V11.2875C15.4549 11.9923 15.7236 12.6717 16.2103 13.1815C16.697 13.6913 17.3632 13.9912 18.0675 14.0175ZM16.965 9.16504C16.965 8.84181 17.0934 8.53181 17.322 8.30325C17.5505 8.07469 17.8605 7.94629 18.1838 7.94629H19.3088C19.6317 7.94728 19.9411 8.076 20.1695 8.30435C20.3978 8.53269 20.5265 8.84211 20.5275 9.16504V11.2988C20.5265 11.6217 20.3978 11.9311 20.1695 12.1595C19.9411 12.3878 19.6317 12.5166 19.3088 12.5175H18.0713C17.7623 12.4926 17.4749 12.3491 17.2694 12.117C17.0639 11.8849 16.9561 11.5823 16.9688 11.2725L16.965 9.16504Z" fill="#161A23"/>
</svg>
