<svg width="24" height="24" viewBox="0 0 24 24" fill="none" xmlns="http://www.w3.org/2000/svg">
<path d="M17.475 15.7875C16.9875 15.7875 16.5375 15.9 16.0875 16.05L13.05 11.5875L19.575 1.98747C19.8375 1.61247 19.725 1.08747 19.35 0.824971C18.975 0.562471 18.45 0.67497 18.1875 1.04997L12 10.0875L5.81249 1.01247C5.54999 0.637471 5.02499 0.52497 4.64999 0.78747C4.27499 1.04997 4.16249 1.57497 4.42499 1.94997L10.9875 11.55L7.94999 16.0125C7.53749 15.825 7.04999 15.75 6.56249 15.75C4.46249 15.75 2.77499 17.4375 2.77499 19.5375C2.77499 21.6375 4.46249 23.325 6.56249 23.325C8.66249 23.325 10.35 21.6375 10.35 19.5375C10.35 18.5625 9.97499 17.6625 9.33749 16.9875L12 13.0875L14.7 17.025C14.0625 17.7 13.6875 18.6 13.6875 19.575C13.6875 21.675 15.375 23.3625 17.475 23.3625C19.575 23.3625 21.2625 21.675 21.2625 19.575C21.2625 17.475 19.5375 15.7875 17.475 15.7875ZM6.52499 21.675C5.36249 21.675 4.42499 20.7375 4.42499 19.575C4.42499 18.4125 5.36249 17.475 6.52499 17.475C7.68749 17.475 8.62499 18.4125 8.62499 19.575C8.62499 20.7375 7.68749 21.675 6.52499 21.675ZM17.475 21.675C16.3125 21.675 15.375 20.7375 15.375 19.575C15.375 18.4125 16.3125 17.475 17.475 17.475C18.6375 17.475 19.575 18.4125 19.575 19.575C19.575 20.7375 18.6 21.675 17.475 21.675Z" fill="#161A23"/>
</svg>
