<svg width="24" height="24" viewBox="0 0 24 24" fill="none" xmlns="http://www.w3.org/2000/svg">
<path d="M20.175 7.0875C18.1125 4.9125 15.225 3.5625 12 3.5625C5.73749 3.5625 0.674988 8.6625 0.674988 14.925C0.674988 16.6875 1.08749 18.4125 1.83749 19.95C1.94999 20.175 2.13749 20.325 2.36249 20.4C2.43749 20.4 2.47499 20.4375 2.54999 20.4375C2.54999 20.4375 2.54999 20.4375 2.58749 20.4375C2.58749 20.4375 2.58749 20.4375 2.62499 20.4375C2.66249 20.4375 2.69999 20.4375 2.73749 20.4375C2.81249 20.4375 2.92499 20.4 2.99999 20.3625L4.53749 19.6125C4.94999 19.425 5.13749 18.9 4.91249 18.4875C4.68749 18.075 4.19999 17.8875 3.78749 18.1125L3.03749 18.4875C2.58749 17.4 2.39999 16.2375 2.36249 15.0375H3.93749C4.38749 15.0375 4.79999 14.6625 4.79999 14.175C4.79999 13.6875 4.42499 13.3125 3.93749 13.3125H2.47499C2.73749 11.6625 3.44999 10.1625 4.46249 8.925L5.81249 10.275C5.96249 10.425 6.18749 10.5375 6.41249 10.5375C6.63749 10.5375 6.86249 10.4625 7.01249 10.275C7.34999 9.9375 7.34999 9.4125 7.01249 9.075L5.62499 7.6875C7.12499 6.375 9.03749 5.475 11.175 5.325V7.6125C11.175 8.0625 11.55 8.475 12.0375 8.475C12.4875 8.475 12.9 8.1 12.9 7.6125V5.325C15 5.5125 16.95 6.375 18.45 7.6875L17.4 8.7375C17.0625 9.075 17.0625 9.6 17.4 9.9375C17.55 10.0875 17.775 10.2 18 10.2C18.225 10.2 18.45 10.125 18.6 9.9375L19.6125 8.925C20.625 10.1625 21.3 11.6625 21.6 13.3125H20.1375C19.6875 13.3125 19.275 13.6875 19.275 14.175C19.275 14.6625 19.65 15.0375 20.1375 15.0375H21.7125C21.7125 16.2375 21.4875 17.4 21.0375 18.525L20.2875 18.15C19.875 17.925 19.35 18.1125 19.1625 18.525C18.975 18.9375 19.125 19.4625 19.5375 19.65L21.075 20.4C21.1875 20.475 21.3375 20.475 21.45 20.475C21.45 20.475 21.45 20.475 21.4875 20.475C21.4875 20.475 21.4875 20.475 21.525 20.475C21.825 20.475 22.125 20.2875 22.275 20.025C23.0625 18.4875 23.4375 16.725 23.4375 15C23.3625 11.8875 22.125 9.1125 20.175 7.0875Z" fill="#161A23"/>
<path d="M14.2875 12.9L11.775 14.775C11.325 14.85 10.9125 15.1125 10.65 15.4875C10.6125 15.5625 10.575 15.6 10.5375 15.675L10.4625 15.75H10.5C10.0875 16.5375 10.3125 17.5125 11.0625 18.075C11.8125 18.6 12.825 18.525 13.425 17.8875H13.4625L13.5 17.8125C13.5375 17.775 13.6125 17.7 13.65 17.625C13.95 17.25 14.025 16.7625 13.9875 16.3125L14.9625 13.3125C15.075 12.975 14.625 12.675 14.2875 12.9Z" fill="#161A23"/>
</svg>
