<svg width="24" height="24" viewBox="0 0 24 24" fill="none" xmlns="http://www.w3.org/2000/svg">
<path d="M20.475 7.31255V3.90005C20.475 1.68755 16.0875 0.675049 12 0.675049C7.91249 0.675049 3.52499 1.68755 3.52499 3.90005V7.31255C3.52499 7.87505 3.82499 8.40005 4.31249 8.81255C3.67499 9.33755 3.52499 9.86255 3.52499 10.3125V13.725C3.52499 14.2875 3.82499 14.8125 4.31249 15.225C3.67499 15.75 3.52499 16.275 3.52499 16.725V20.1376C3.52499 22.3876 7.91249 23.4 12 23.4C16.0875 23.4 20.475 22.3876 20.475 20.1376V16.725C20.475 16.3125 20.325 15.75 19.6875 15.225C20.175 14.8125 20.475 14.325 20.475 13.725V10.3125C20.475 9.90005 20.325 9.33755 19.6875 8.81255C20.175 8.36255 20.475 7.87505 20.475 7.31255ZM18.7875 7.27505C18.6375 7.72505 16.35 8.85005 12 8.85005C7.64999 8.85005 5.36249 7.68755 5.21249 7.27505V5.88755C6.86249 6.75005 9.48749 7.12505 12 7.12505C14.5125 7.12505 17.1375 6.75005 18.7875 5.92505V7.27505ZM12 2.36255C16.35 2.36255 18.6 3.48755 18.7875 3.90005C18.6 4.35005 16.35 5.43755 12 5.43755C7.61249 5.43755 5.36249 4.31255 5.21249 3.90005C5.36249 3.48755 7.61249 2.36255 12 2.36255ZM18.7875 13.6875C18.6375 14.1375 16.35 15.2625 12 15.2625C7.64999 15.2625 5.36249 14.1 5.21249 13.6875V12.3C6.86249 13.125 9.48749 13.5 12 13.5C14.5125 13.5 17.1375 13.125 18.7875 12.3V13.6875ZM12 21.675C7.64999 21.675 5.36249 20.5125 5.21249 20.1V18.7125C6.86249 19.5375 9.48749 19.9125 12 19.9125C14.5125 19.9125 17.1375 19.5375 18.7875 18.7125V20.0625C18.6375 20.5125 16.35 21.675 12 21.675ZM18.7875 16.65C18.675 17.1 16.3875 18.225 12 18.225C7.61249 18.225 5.32499 17.1 5.21249 16.6875C5.24999 16.6125 5.43749 16.3875 6.03749 16.0875C7.64999 16.65 9.86249 16.9501 12 16.9501C14.1375 16.9501 16.35 16.6875 17.9625 16.0875C18.5625 16.3875 18.75 16.6125 18.7875 16.65ZM18.7875 10.275C18.675 10.725 16.3875 11.85 12 11.85C7.61249 11.85 5.32499 10.725 5.21249 10.3125C5.24999 10.2375 5.43749 10.0125 6.03749 9.71255C7.64999 10.275 9.86249 10.575 12 10.575C14.1375 10.575 16.35 10.3125 17.9625 9.71255C18.5625 9.97505 18.75 10.2375 18.7875 10.275Z" fill="#161A23"/>
</svg>
