<svg width="24" height="24" viewBox="0 0 24 24" fill="none" xmlns="http://www.w3.org/2000/svg">
<path d="M18.675 18.7125C19.125 18.7125 19.5375 18.3375 19.5375 17.85C19.5375 17.3625 19.1625 16.9875 18.675 16.9875H17.8125C18.225 16.6125 18.7875 16.3875 19.3875 16.3875C20.175 16.3875 20.925 16.7625 21.3375 17.3625C21.6 17.7375 22.125 17.85 22.5 17.5875C22.875 17.325 22.9875 16.8 22.725 16.425C21.975 15.3375 20.7375 14.7 19.3875 14.7C17.5875 14.7 15.975 15.9 15.525 17.5875C15.45 17.85 15.525 18.1125 15.675 18.3375C15.825 18.5625 16.0875 18.675 16.35 18.675H18.675V18.7125Z" fill="#161A23"/>
<path d="M23.175 19.05C23.025 18.825 22.7625 18.7125 22.5 18.7125H20.4375C19.9875 18.7125 19.575 19.0875 19.575 19.575C19.575 20.0625 19.95 20.4375 20.4375 20.4375H21.1125C20.6625 20.8875 20.0625 21.1875 19.3875 21.1875C18.75 21.1875 18.1125 20.925 17.6625 20.4375C17.3625 20.1 16.8 20.0625 16.4625 20.4C16.125 20.7 16.0875 21.2625 16.425 21.6C17.175 22.425 18.2625 22.9125 19.3875 22.9125C21.225 22.9125 22.8375 21.6375 23.325 19.8375C23.4 19.5375 23.325 19.275 23.175 19.05Z" fill="#161A23"/>
<path d="M13.8 14.9625C12.7125 15.1125 11.5875 15.1875 10.4625 15.1875C5.21249 15.1875 2.32499 13.6125 2.32499 12.825V11.5875C4.19999 12.7125 7.34999 13.275 10.4625 13.275C13.575 13.275 16.725 12.7125 18.6 11.5875V12.45C18.6 12.9 18.975 13.3125 19.4625 13.3125C19.95 13.3125 20.325 12.9375 20.325 12.45V5.24998V5.21248C20.325 2.54998 15.375 1.16248 10.5 1.16248C5.62499 1.16248 0.749988 2.51248 0.674988 5.13748C0.674988 5.17498 0.674988 5.17498 0.674988 5.21248V16.4625C0.674988 19.0875 5.73749 20.5125 10.5 20.5125C11.325 20.5125 12.15 20.475 12.975 20.4C13.425 20.3625 13.7625 19.95 13.725 19.4625C13.6875 18.975 13.275 18.675 12.7875 18.7125C12.0375 18.7875 11.2875 18.825 10.5 18.825C5.47499 18.825 2.36249 17.2875 2.36249 16.4625V15.225C4.23749 16.35 7.38749 16.9125 10.5 16.9125C11.7375 16.9125 12.9375 16.8375 14.1 16.65C14.55 16.575 14.8875 16.1625 14.8125 15.675C14.7 15.225 14.2875 14.8875 13.8 14.9625ZM10.4625 11.5875C5.21249 11.5875 2.32499 10.0125 2.32499 9.22498C2.32499 9.22498 2.32499 9.22498 2.32499 9.18748V7.53748C4.19999 8.66248 7.34999 9.22498 10.4625 9.22498C13.575 9.22498 16.725 8.66248 18.6 7.53748V9.22498C18.5625 10.05 15.7125 11.5875 10.4625 11.5875ZM10.4625 2.84998C15.7125 2.84998 18.5625 4.38748 18.6 5.21248C18.5625 5.99998 15.7125 7.57498 10.4625 7.57498C5.21249 7.57498 2.32499 5.99998 2.32499 5.21248C2.32499 4.42498 5.21249 2.84998 10.4625 2.84998Z" fill="#161A23"/>
</svg>
