<svg width="24" height="24" viewBox="0 0 24 24" fill="none" xmlns="http://www.w3.org/2000/svg">
<path d="M22.5 19.125H18.1875C17.7375 19.125 17.325 19.5 17.325 19.9875C17.325 20.475 17.7 20.85 18.1875 20.85H22.5C22.95 20.85 23.3625 20.475 23.3625 19.9875C23.3625 19.5 22.95 19.125 22.5 19.125Z" fill="#161A23"/>
<path d="M14.4375 16.3875C13.3125 16.5375 12.1125 16.65 10.9125 16.65C5.73749 16.65 2.32499 15.15 2.32499 14.1375V12.75C4.27499 13.95 7.61249 14.55 10.9125 14.55C14.2125 14.55 17.55 13.95 19.5 12.75V13.725C19.5 14.175 19.875 14.5875 20.3625 14.5875C20.85 14.5875 21.225 14.2125 21.225 13.725V6.15V6.1125C21.1875 3.3375 16.0125 1.875 10.9125 1.875C5.84999 1.875 0.749988 3.3 0.674988 6C0.674988 6.0375 0.674988 6.0375 0.674988 6.075V17.8875C0.674988 20.625 5.92499 22.125 10.9125 22.125C11.775 22.125 12.6375 22.0875 13.5 22.0125C13.95 21.975 14.2875 21.5625 14.25 21.075C14.2125 20.625 13.8 20.2875 13.3125 20.325C12.525 20.4 11.7375 20.4375 10.9125 20.4375C5.58749 20.4375 2.32499 18.7875 2.32499 17.8875V16.5C4.27499 17.7 7.61249 18.3 10.9125 18.3C12.1875 18.3 13.4625 18.225 14.6625 18.0375C15.1125 17.9625 15.45 17.55 15.375 17.0625C15.3 16.575 14.8875 16.3125 14.4375 16.3875ZM10.9125 12.825C5.73749 12.825 2.32499 11.325 2.32499 10.3125V10.275V8.475C4.27499 9.675 7.61249 10.275 10.9125 10.275C14.2125 10.275 17.55 9.675 19.5 8.475V10.3125C19.4625 11.325 16.05 12.825 10.9125 12.825ZM10.9125 3.5625C16.05 3.5625 19.4625 5.0625 19.5 6.075C19.4625 7.0875 16.05 8.5875 10.9125 8.5875C5.73749 8.5875 2.32499 7.0875 2.32499 6.075C2.36249 5.1 5.77499 3.5625 10.9125 3.5625Z" fill="#161A23"/>
</svg>
