<svg width="24" height="24" viewBox="0 0 24 24" fill="none" xmlns="http://www.w3.org/2000/svg">
<path d="M20.625 20.7375C20.3625 20.3625 19.8375 20.2875 19.4625 20.55L19.05 20.85V19.875C19.05 18.6375 18.0375 17.6625 16.8375 17.6625H12.8625V15.975C16.425 15.825 19.7625 14.7 19.7625 12.675V3.97505C19.7625 1.68755 15.75 0.675049 12 0.675049C8.24998 0.675049 4.23749 1.72505 4.23749 3.97505V12.6375C4.23749 14.6625 7.57499 15.7875 11.1375 15.9375V17.625H7.19999C5.96249 17.625 4.98749 18.6376 4.98749 19.8375V20.8125L4.57499 20.5126C4.19999 20.25 3.67499 20.3251 3.41249 20.7001C3.14999 21.0751 3.22499 21.6 3.59999 21.8625L5.36249 23.175C5.51249 23.2875 5.69999 23.3251 5.84999 23.3251C6.03749 23.3251 6.18749 23.2875 6.33749 23.175L8.09999 21.9C8.47499 21.6376 8.54999 21.1125 8.28749 20.7375C8.02499 20.3625 7.49999 20.2875 7.12499 20.55L6.71249 20.85V19.875C6.71249 19.575 6.93748 19.35 7.23748 19.35H11.2125V20.85L10.8 20.55C10.425 20.2875 9.89999 20.3625 9.63749 20.7375C9.37499 21.1125 9.44999 21.6376 9.82499 21.9L11.5875 23.2125C11.7375 23.3251 11.925 23.3625 12.075 23.3625C12.2625 23.3625 12.4125 23.3251 12.5625 23.2125L14.325 21.9375C14.7 21.675 14.775 21.15 14.5125 20.775C14.25 20.4 13.725 20.3251 13.35 20.5875L12.9375 20.8876V19.3876H16.9125C17.2125 19.3876 17.4375 19.6125 17.4375 19.9125V20.8876L17.025 20.5875C16.65 20.3251 16.125 20.4 15.8625 20.775C15.6 21.15 15.675 21.675 16.05 21.9375L17.8125 23.25C17.9625 23.3625 18.15 23.4 18.3 23.4C18.4875 23.4 18.6375 23.3625 18.7875 23.25L20.55 21.975C20.8125 21.6375 20.8875 21.1125 20.625 20.7375ZM12 2.36255C15.9375 2.36255 18.075 3.52505 18.075 3.97505C18.075 4.42505 15.9375 5.58755 12 5.58755C8.06248 5.58755 5.92499 4.42505 5.92499 3.97505C5.92499 3.52505 8.06248 2.36255 12 2.36255ZM5.92499 6.15005C7.42499 6.93755 9.78749 7.31255 12 7.31255C14.2125 7.31255 16.5375 6.93755 18.075 6.15005V7.08755C18.075 7.57505 15.9375 8.70005 12 8.70005C8.06248 8.70005 5.92499 7.53755 5.92499 7.08755V6.15005ZM5.92499 9.22505C7.42499 10.0125 9.78749 10.3875 12 10.3875C14.2125 10.3875 16.5375 10.0125 18.075 9.22505V9.82505C18.075 10.3125 15.9375 11.4375 12 11.4375C8.06248 11.4375 5.92499 10.275 5.92499 9.82505V9.22505ZM5.92499 12.6375V12C7.42499 12.7875 9.78749 13.1625 12 13.1625C14.2125 13.1625 16.5375 12.7875 18.075 12V12.6375C18.075 13.05 15.975 14.2875 12 14.2875C8.02498 14.2875 5.92499 13.05 5.92499 12.6375Z" fill="#161A23"/>
</svg>
