<svg width="24" height="24" viewBox="0 0 24 24" fill="none" xmlns="http://www.w3.org/2000/svg">
<path d="M12 0.674988C7.61251 0.674988 4.16251 2.73749 4.16251 5.32499V18.675C4.16251 21.2625 7.68751 23.325 11.9625 23.325C16.275 23.325 19.8 21.225 19.8 18.675V5.32499C19.8375 2.69999 16.3875 0.674988 12 0.674988ZM12 2.36249C15.6 2.36249 18.15 3.93749 18.15 5.32499C18.15 6.74999 15.6375 8.28749 12 8.28749C8.36251 8.28749 5.85001 6.71249 5.85001 5.32499C5.85001 3.89999 8.40001 2.36249 12 2.36249ZM12 21.675C8.47501 21.675 5.88751 20.1 5.88751 18.7125V17.25C7.31251 18.3 9.48751 18.9375 12 18.9375C14.5125 18.9375 16.725 18.2625 18.15 17.25V18.7125C18.15 20.1 15.525 21.675 12 21.675ZM12 17.25C8.40001 17.25 5.88751 15.75 5.88751 14.4V12.675C7.35001 13.725 9.63751 14.3625 12 14.3625C14.475 14.3625 16.6875 13.725 18.15 12.675V14.4C18.15 15.75 15.6 17.25 12 17.25ZM17.175 11.2875C16.0125 12.15 14.1 12.675 12 12.675C9.93751 12.675 7.98751 12.15 6.82501 11.2875C6.37501 10.9875 5.88751 10.4625 5.88751 9.82499V8.24999C7.31251 9.29999 9.52501 9.97499 12.0375 9.97499C14.55 9.97499 16.7625 9.29999 18.1875 8.24999V9.82499C18.15 10.425 17.625 10.95 17.175 11.2875Z" fill="#161A23"/>
</svg>
