<svg width="24" height="24" viewBox="0 0 24 24" fill="none" xmlns="http://www.w3.org/2000/svg">
<path d="M12.1125 13.3125C11.25 13.425 10.3125 13.5 9.37499 13.5C4.72499 13.5 2.32499 12.1125 2.32499 11.5125V10.575C4.01249 11.5125 6.71249 12 9.37499 12C12.0375 12 14.7375 11.5125 16.425 10.575V12.8625C16.425 13.3125 16.8 13.725 17.2875 13.725C17.775 13.725 18.15 13.35 18.15 12.8625V4.8375V4.8C18.1125 2.4 13.725 1.125 9.37499 1.125C5.09999 1.125 0.749988 2.3625 0.674988 4.725C0.674988 4.7625 0.674988 4.7625 0.674988 4.7625V14.6625C0.674988 17.1 5.06249 18.375 9.37499 18.375C10.125 18.375 10.8375 18.3375 11.55 18.2625C12 18.225 12.3375 17.8125 12.3 17.325C12.2625 16.875 11.85 16.5375 11.3625 16.575C10.725 16.65 10.05 16.6875 9.37499 16.6875C4.79999 16.6875 2.32499 15.2625 2.32499 14.7V13.7625C4.01249 14.7 6.71249 15.1875 9.37499 15.1875C10.3875 15.1875 11.3625 15.1125 12.3375 15C12.7875 14.925 13.125 14.5125 13.05 14.0625C13.0125 13.575 12.6 13.2375 12.1125 13.3125ZM9.37499 10.3125C4.72499 10.3125 2.32499 8.925 2.32499 8.325C2.32499 8.325 2.32499 8.325 2.32499 8.2875V7.0125C4.01249 7.95 6.71249 8.4375 9.37499 8.4375C12.0375 8.4375 14.7375 7.95 16.425 7.0125V8.325C16.425 8.9625 14.025 10.3125 9.37499 10.3125ZM9.37499 2.8125C13.9875 2.8125 16.3875 4.2 16.425 4.7625C16.3875 5.3625 14.025 6.7125 9.37499 6.7125C4.72499 6.7125 2.32499 5.325 2.32499 4.725C2.32499 4.125 4.72499 2.8125 9.37499 2.8125Z" fill="#161A23"/>
<path d="M21.75 16.05H19.3125L19.0125 15.3375C18.7875 14.7375 18.1875 14.325 17.55 14.325H15.0375C14.175 14.325 13.4625 15.0375 13.4625 15.9V21.225C13.4625 22.0875 14.175 22.8 15.0375 22.8H21.75C22.6125 22.8 23.325 22.0875 23.325 21.225V17.625C23.3625 16.7625 22.6125 16.05 21.75 16.05ZM21.675 21.1875H15.15V16.0125H17.475L17.775 16.725C18 17.325 18.6 17.7375 19.2375 17.7375H21.6375V21.1875H21.675Z" fill="#161A23"/>
</svg>
