<svg width="24" height="24" viewBox="0 0 24 24" fill="none" xmlns="http://www.w3.org/2000/svg">
<path d="M22.5 17.25H21.975V16.2375C21.975 14.775 20.775 13.575 19.3125 13.575C17.85 13.575 16.65 14.775 16.65 16.2375V17.25H16.125C15.675 17.25 15.2625 17.625 15.2625 18.1125V21.825C15.2625 22.275 15.6375 22.6875 16.125 22.6875H22.5C22.95 22.6875 23.3625 22.3125 23.3625 21.825V18.1125C23.3625 17.625 22.95 17.25 22.5 17.25ZM18.375 16.2375C18.375 15.7125 18.825 15.2625 19.35 15.2625C19.875 15.2625 20.325 15.675 20.325 16.2375V17.25H18.375V16.2375ZM21.675 20.925H16.9875V18.9H21.6375V20.925H21.675Z" fill="#161A23"/>
<path d="M13.125 14.4375C12.1125 14.5875 11.0625 14.6625 9.97499 14.6625C5.24999 14.625 2.36249 13.2375 2.36249 12.45V11.3625C4.12499 12.375 7.08749 12.9 10.0125 12.9C12.9375 12.9 15.8625 12.375 17.625 11.3625V12.1125C17.625 12.5625 18 12.975 18.4875 12.975C18.975 12.975 19.35 12.6 19.35 12.1125V5.28745V5.24995C19.35 2.69995 14.6625 1.38745 10.05 1.38745C5.39999 1.38745 0.749988 2.69995 0.674988 5.17495C0.674988 5.21245 0.674988 5.21245 0.674988 5.24995V15.8625C0.674988 18.375 5.47499 19.7625 9.97499 19.7625C10.7625 19.7625 11.55 19.725 12.3 19.65C12.75 19.6125 13.0875 19.2 13.05 18.7125C13.0125 18.2625 12.6 17.925 12.1125 17.9625C11.4 18.0375 10.6875 18.075 9.97499 18.075C5.32499 18.075 2.36249 16.65 2.36249 15.8625V14.775C4.12499 15.7875 7.08749 16.3125 9.97499 16.3125C11.1375 16.3125 12.2625 16.2375 13.35 16.0875C13.8 16.0125 14.1375 15.6 14.0625 15.1125C13.9875 14.625 13.575 14.3625 13.125 14.4375ZM9.97499 11.25C5.24999 11.25 2.36249 9.82495 2.36249 9.03745C2.36249 9.03745 2.36249 9.03745 2.36249 8.99995V7.53745C4.12499 8.54995 7.08749 9.07495 10.0125 9.07495C12.9375 9.07495 15.8625 8.54995 17.625 7.53745V9.03745C17.5875 9.82495 14.7 11.25 9.97499 11.25ZM9.97499 3.07495C14.7 3.07495 17.5875 4.46245 17.5875 5.24995C17.55 6.03745 14.6625 7.42495 9.97499 7.42495C5.24999 7.42495 2.36249 5.99995 2.36249 5.24995C2.36249 4.46245 5.24999 3.07495 9.97499 3.07495Z" fill="#161A23"/>
</svg>
