<svg width="24" height="24" viewBox="0 0 24 24" fill="none" xmlns="http://www.w3.org/2000/svg">
<path d="M23.1 18.6375C22.9125 18.45 22.725 18.225 22.5375 18.0375C22.2 17.7 21.8625 17.325 21.525 16.9875C21.225 16.6875 20.9625 16.3125 20.5125 16.3125C20.2875 16.3125 20.1375 16.3875 19.9875 16.5375C19.9875 16.5375 19.95 16.5375 19.95 16.575L17.925 18.6375C17.5875 18.975 17.5875 19.5 17.925 19.8375C18.075 19.9875 18.3 20.0625 18.525 20.0625C18.75 20.0625 18.975 19.9875 19.125 19.8L19.6875 19.2V21.7125C19.6875 22.1625 20.0625 22.575 20.55 22.575C21.0375 22.575 21.4125 22.2 21.4125 21.7125V19.2375L21.9375 19.8C22.275 20.1375 22.8 20.1375 23.1375 19.8375C23.4375 19.5 23.4375 18.975 23.1 18.6375Z" fill="#161A23"/>
<path d="M14.55 16.05C13.425 16.2 12.225 16.3125 10.9875 16.3125C5.77499 16.3125 2.32499 14.775 2.32499 13.7625V12.375C4.27499 13.575 7.64999 14.175 10.9875 14.175C14.325 14.175 17.7 13.575 19.65 12.375V13.35C19.65 13.8 20.025 14.2125 20.5125 14.2125C21 14.2125 21.375 13.8375 21.375 13.35V5.73751V5.70001C21.375 2.92501 16.1625 1.46251 11.025 1.46251C5.88749 1.42501 0.749988 2.85001 0.674988 5.58751C0.674988 5.62501 0.674988 5.62501 0.674988 5.66251V17.5875C0.674988 20.3625 5.99999 21.825 11.025 21.825C11.925 21.825 12.7875 21.7875 13.6125 21.7125C14.0625 21.675 14.4 21.2625 14.3625 20.775C14.325 20.325 13.9125 19.9875 13.425 20.025C12.6375 20.1 11.8125 20.1375 10.9875 20.1375C5.62499 20.1375 2.32499 18.4875 2.32499 17.5875V16.2C4.27499 17.4 7.64999 18 10.9875 18C12.3 18 13.575 17.925 14.775 17.7375C15.225 17.6625 15.5625 17.25 15.4875 16.7625C15.4125 16.275 15 16.0125 14.55 16.05ZM10.9875 12.4875C5.77499 12.4875 2.32499 10.95 2.32499 9.93751C2.32499 9.93751 2.32499 9.93751 2.32499 9.90001V8.10001C4.27499 9.30001 7.64999 9.90001 10.9875 9.90001C14.325 9.90001 17.7 9.30001 19.65 8.10001V9.93751C19.6125 10.9875 16.2 12.4875 10.9875 12.4875ZM10.9875 3.11251C16.1625 3.11251 19.6125 4.65001 19.65 5.66251C19.6125 6.67501 16.1625 8.21251 10.9875 8.21251C5.77499 8.21251 2.32499 6.67501 2.32499 5.66251C2.36249 4.65001 5.81249 3.11251 10.9875 3.11251Z" fill="#161A23"/>
</svg>
