<svg width="24" height="24" viewBox="0 0 24 24" fill="none" xmlns="http://www.w3.org/2000/svg">
<path d="M14.775 16.425C13.6125 16.6125 12.375 16.6875 11.175 16.6875C5.85001 16.6875 2.32501 15.1125 2.32501 14.0625V12.6C4.31251 13.8375 7.76251 14.475 11.175 14.475C14.5875 14.475 18.0375 13.8375 20.025 12.6375V13.6875C20.025 14.1375 20.4 14.55 20.8875 14.55C21.375 14.55 21.75 14.175 21.75 13.6875V5.8875V5.85C21.675 3 16.3875 1.5 11.1375 1.5C5.96251 1.5 0.712506 2.9625 0.600006 5.7375C0.600006 5.775 0.600006 5.775 0.600006 5.8125V17.9625C0.600006 20.775 6.03751 22.275 11.1375 22.275C12.0375 22.275 12.9375 22.2375 13.8 22.125C14.25 22.0875 14.5875 21.675 14.55 21.1875C14.5125 20.7375 14.1 20.4 13.6125 20.4375C12.825 20.5125 11.9625 20.55 11.1375 20.55C5.66251 20.55 2.28751 18.8625 2.28751 17.925V16.5C4.27501 17.7375 7.72501 18.375 11.1375 18.375C12.45 18.375 13.7625 18.3 15 18.1125C15.45 18.0375 15.7875 17.625 15.7125 17.1375C15.6375 16.65 15.225 16.35 14.775 16.425ZM11.1375 12.7875C5.81251 12.7875 2.28751 11.2125 2.28751 10.1625V10.125V8.25C4.27501 9.4875 7.72501 10.125 11.1375 10.125C14.55 10.125 18 9.4875 19.9875 8.2875V10.2C19.95 11.2125 16.425 12.7875 11.1375 12.7875ZM11.1375 3.1875C16.425 3.1875 19.95 4.7625 19.9875 5.8125C19.95 6.8625 16.425 8.4 11.1375 8.4C5.81251 8.4 2.28751 6.825 2.28751 5.775C2.28751 4.7625 5.81251 3.1875 11.1375 3.1875Z" fill="#161A23"/>
<path d="M23.1375 19.0125C22.8 18.675 22.275 18.675 21.9375 19.0125L21.375 19.575V16.65C21.375 16.2 21 15.7875 20.5125 15.7875C20.025 15.7875 19.65 16.1625 19.65 16.65V19.5375L19.125 18.975C18.7875 18.6375 18.2625 18.6375 17.925 18.975C17.5875 19.3125 17.5875 19.8375 17.925 20.175L19.9125 22.2C20.0625 22.35 20.2875 22.4625 20.5125 22.4625C20.7375 22.4625 20.9625 22.3875 21.1125 22.2L23.1 20.175C23.475 19.875 23.475 19.35 23.1375 19.0125Z" fill="#161A23"/>
</svg>
