<svg width="24" height="24" viewBox="0 0 24 24" fill="none" xmlns="http://www.w3.org/2000/svg">
<path d="M18.6 13.425C15.975 13.425 13.8375 15.5625 13.8375 18.1875C13.8375 20.8125 15.975 22.95 18.6 22.95C21.225 22.95 23.3625 20.8125 23.3625 18.1875C23.3625 15.5625 21.225 13.425 18.6 13.425ZM18.6 21.225C16.9125 21.225 15.525 19.8375 15.525 18.15C15.525 16.4625 16.9125 15.075 18.6 15.075C20.2875 15.075 21.675 16.4625 21.675 18.15C21.675 19.875 20.2875 21.225 18.6 21.225Z" fill="#161A23"/>
<path d="M12.8625 13.8C11.8875 13.95 10.8375 14.025 9.78752 14.025C5.17502 14.025 2.36252 12.6375 2.36252 11.925V10.875C4.08752 11.8875 6.97502 12.375 9.78752 12.375C12.6375 12.375 15.4875 11.85 17.2125 10.875V11.55C17.2125 12 17.5875 12.4125 18.075 12.4125C18.5625 12.4125 18.9375 12.0375 18.9375 11.55V4.91252V4.87502C18.9375 2.36252 14.3625 1.08752 9.82502 1.08752C5.32502 1.08752 0.787524 2.36252 0.712524 4.83752C0.712524 4.87502 0.712524 4.87502 0.712524 4.91252V15.3C0.712524 17.775 5.40002 19.125 9.82502 19.125C10.6125 19.125 11.3625 19.0875 12.1125 19.0125C12.5625 18.975 12.9 18.5625 12.8625 18.075C12.825 17.625 12.4125 17.2875 11.925 17.325C11.25 17.4 10.5375 17.4375 9.82502 17.4375C4.98752 17.4375 2.40002 15.9375 2.40002 15.3V14.25C4.12502 15.225 7.01252 15.75 9.82502 15.75C10.95 15.75 12.075 15.675 13.125 15.525C13.575 15.45 13.9125 15.0375 13.8375 14.55C13.7625 14.0625 13.3125 13.7625 12.8625 13.8ZM9.78752 10.6875C5.17502 10.6875 2.36252 9.33752 2.36252 8.58752C2.36252 8.58752 2.36252 8.58752 2.36252 8.55002V7.16252C4.08752 8.17502 6.97502 8.66252 9.78752 8.66252C12.6375 8.66252 15.4875 8.13752 17.2125 7.16252V8.58752C17.175 9.33752 14.3625 10.6875 9.78752 10.6875ZM9.78752 2.77502C14.4 2.77502 17.2125 4.12502 17.2125 4.87502C17.175 5.62502 14.3625 6.97502 9.78752 6.97502C5.17502 6.97502 2.36252 5.62502 2.36252 4.87502C2.36252 4.12502 5.17502 2.77502 9.78752 2.77502Z" fill="#161A23"/>
<path d="M20.25 18.675L19.275 18V16.9875C19.275 16.5375 18.9 16.125 18.4125 16.125C17.925 16.125 17.55 16.5 17.55 16.9875V18.4875C17.55 18.7875 17.7 19.05 17.925 19.2L19.3125 20.1C19.4625 20.175 19.6125 20.25 19.7625 20.25C20.025 20.25 20.325 20.1 20.475 19.875C20.775 19.425 20.6625 18.9 20.25 18.675Z" fill="#161A23"/>
</svg>
