<svg width="24" height="24" viewBox="0 0 24 24" fill="none" xmlns="http://www.w3.org/2000/svg">
<g clip-path="url(#clip0_501_47545)">
<path d="M22.6875 14.3625L19.3875 13.275C19.2 13.2375 19.05 13.2375 18.8625 13.275L15.5625 14.3625C15.225 14.475 15 14.8125 15 15.15V17.4749C15 18.525 15.075 19.2 15.225 19.8C15.675 21.4875 16.875 22.3125 18.7875 23.25C18.9 23.2875 19.0125 23.325 19.1625 23.325C19.275 23.325 19.3875 23.2875 19.5 23.25C22.725 21.75 23.25 20.5125 23.25 17.2874V15.15C23.25 14.775 23.025 14.475 22.6875 14.3625ZM21.5625 17.2874C21.5625 19.7249 21.45 20.4 19.0875 21.5625C17.4375 20.7375 16.9875 20.175 16.8 19.3875C16.6875 18.9375 16.65 18.3749 16.6125 17.4749V15.75L19.0875 14.925L21.5625 15.75V17.2874Z" fill="#161A23"/>
<path d="M13.6125 14.1375C12.5625 14.2875 11.475 14.3625 10.35 14.3625C5.2125 14.3625 2.4375 12.8625 2.4375 12.075V10.9125C4.275 12 7.3125 12.525 10.35 12.525C13.3875 12.525 16.425 11.9625 18.2625 10.9125V11.7375C18.2625 12.1875 18.6375 12.6 19.125 12.6C19.6125 12.6 19.9875 12.225 19.9875 11.7375V4.68755V4.65005C19.9875 2.02505 15.15 0.675049 10.3875 0.675049C5.625 0.675049 0.825 1.98755 0.75 4.57505C0.75 4.61255 0.75 4.61255 0.75 4.65005V15.6375C0.75 18.225 5.7 19.6125 10.35 19.6125C11.175 19.6125 11.9625 19.575 12.75 19.5C13.2 19.4625 13.5375 19.05 13.5 18.5625C13.4625 18.075 13.05 17.775 12.5625 17.8125C11.85 17.8875 11.1 17.925 10.3125 17.925C5.4 17.925 2.4 16.425 2.4 15.6375V14.475C4.2375 15.5625 7.275 16.0875 10.3125 16.0875C11.5125 16.0875 12.675 16.0125 13.8 15.825C14.25 15.75 14.5875 15.3375 14.5125 14.85C14.5125 14.4 14.0625 14.1 13.6125 14.1375ZM10.35 10.8375C5.2125 10.8375 2.4375 9.33755 2.4375 8.55005C2.4375 8.55005 2.4375 8.55005 2.4375 8.51255V6.93755C4.275 8.02505 7.3125 8.55005 10.35 8.55005C13.3875 8.55005 16.425 7.98755 18.2625 6.93755V8.55005C18.225 9.37505 15.45 10.8375 10.35 10.8375ZM10.35 2.36255C15.45 2.36255 18.2625 3.86255 18.2625 4.65005C18.225 5.43755 15.45 6.93755 10.35 6.93755C5.2125 6.93755 2.4375 5.43755 2.4375 4.65005C2.4375 3.86255 5.2125 2.36255 10.35 2.36255Z" fill="#161A23"/>
</g>
<defs>
<clipPath id="clip0_501_47545">
<rect width="24" height="24" fill="white"/>
</clipPath>
</defs>
</svg>
