<svg width="24" height="24" viewBox="0 0 24 24" fill="none" xmlns="http://www.w3.org/2000/svg">
<path d="M19.9875 7.6125H16.7625C16.6125 6.4875 15.6375 5.625 14.475 5.625H4.16249C3.71249 5.625 3.33749 6 3.33749 6.45C3.33749 6.9 3.71249 7.275 4.16249 7.275H14.5125C14.85 7.275 15.1125 7.5375 15.1125 7.875V8.4375V15.4125H12C11.7 14.4375 10.8 13.725 9.74999 13.725C8.69999 13.725 7.76249 14.4375 7.49999 15.4125H2.66249C2.21249 15.4125 1.83749 15.7875 1.83749 16.2375C1.83749 16.6875 2.21249 17.0625 2.66249 17.0625H7.61249C7.98749 17.85 8.77499 18.375 9.71249 18.375C10.65 18.375 11.4375 17.85 11.8125 17.0625H17.1C17.475 17.85 18.2625 18.375 19.2 18.375C20.1375 18.375 20.925 17.85 21.3 17.0625H22.5C22.95 17.0625 23.325 16.6875 23.325 16.2375V10.95C23.3625 9.1125 21.8625 7.6125 19.9875 7.6125ZM21.6375 10.875H16.8V9.2625H19.9875C20.8875 9.3 21.6375 10.0125 21.6375 10.875ZM9.74999 16.725C9.37499 16.725 9.11249 16.425 9.11249 16.05C9.11249 15.675 9.41249 15.375 9.74999 15.375C10.0875 15.375 10.3875 15.675 10.3875 16.05C10.3875 16.425 10.0875 16.725 9.74999 16.725ZM19.2375 16.725C18.8625 16.725 18.6 16.425 18.6 16.05C18.6 15.675 18.9 15.375 19.2375 15.375C19.575 15.375 19.875 15.675 19.875 16.05C19.875 16.425 19.575 16.725 19.2375 16.725ZM21.4875 15.4125C21.1875 14.4375 20.2875 13.725 19.2375 13.725C18.1875 13.725 17.25 14.4375 16.9875 15.4125H16.8V12.5625H21.675V15.4125H21.4875Z" fill="#161A23"/>
<path d="M8.69999 11.475C8.69999 11.025 8.32499 10.65 7.87499 10.65H1.49999C1.04999 10.65 0.674988 11.025 0.674988 11.475C0.674988 11.925 1.04999 12.3375 1.49999 12.3375H7.83749C8.32499 12.3375 8.69999 11.9625 8.69999 11.475Z" fill="#161A23"/>
</svg>
