<svg width="24" height="24" viewBox="0 0 24 24" fill="none" xmlns="http://www.w3.org/2000/svg">
<path d="M23.2125 11.325L20.5125 7.3875C20.3625 7.1625 20.1 7.0125 19.8 7.0125H15.675V6.225C15.675 4.875 14.55 3.75 13.2 3.75H3.11251C1.76251 3.75 0.637512 4.875 0.637512 6.225V16.3125C0.637512 17.6625 1.76251 18.7875 3.11251 18.7875H5.85001C6.26251 19.6125 7.08751 20.2125 8.10001 20.2125C9.11251 20.2125 9.93751 19.65 10.35 18.7875H14.8875H16.2C16.6125 19.6125 17.4375 20.2125 18.45 20.2125C19.4625 20.2125 20.2875 19.65 20.7 18.7875H22.575C23.025 18.7875 23.4 18.4125 23.4 17.9625V11.8125C23.325 11.625 23.2875 11.475 23.2125 11.325ZM19.35 8.7L21.075 11.2125H15.675V8.7H19.35ZM2.32501 16.35V6.225C2.32501 5.775 2.66251 5.4375 3.11251 5.4375H13.2C13.65 5.4375 13.9875 5.775 13.9875 6.225V7.875V17.1375H10.4625C10.2 16.0875 9.22501 15.3 8.06251 15.3C6.90001 15.3 5.96251 16.0875 5.66251 17.1375H3.11251C2.70001 17.1375 2.32501 16.7625 2.32501 16.35ZM8.10001 18.5625C7.65001 18.5625 7.31251 18.225 7.31251 17.775C7.31251 17.325 7.65001 16.9875 8.10001 16.9875C8.55001 16.9875 8.88751 17.325 8.88751 17.775C8.88751 18.225 8.51251 18.5625 8.10001 18.5625ZM18.4125 18.5625C17.9625 18.5625 17.625 18.225 17.625 17.775C17.625 17.325 17.9625 16.9875 18.4125 16.9875C18.8625 16.9875 19.2 17.325 19.2 17.775C19.2 18.225 18.825 18.5625 18.4125 18.5625ZM20.775 17.1375C20.5125 16.0875 19.5375 15.3 18.375 15.3C17.2125 15.3 16.275 16.0875 15.975 17.1375H15.6375V12.9H21.6V17.1H20.775V17.1375Z" fill="#161A23"/>
</svg>
