<svg width="24" height="24" viewBox="0 0 24 24" fill="none" xmlns="http://www.w3.org/2000/svg">
<path d="M21.8137 4.125H10.095C9.61463 4.125 9.15393 4.31583 8.81425 4.6555C8.47458 4.99518 8.28375 5.45588 8.28375 5.93625V6.10125H3.22125C3.03715 6.10214 2.85692 6.15415 2.70065 6.25149C2.54438 6.34882 2.41823 6.48766 2.33625 6.6525L0.48 10.44C0.412383 10.5751 0.376473 10.7239 0.375 10.875V16.7438C0.375 16.9427 0.454018 17.1334 0.59467 17.2741C0.735322 17.4147 0.926088 17.4938 1.125 17.4938H2.14125C2.25552 18.1599 2.60161 18.7641 3.11833 19.1998C3.63506 19.6354 4.28915 19.8743 4.965 19.8743C5.64085 19.8743 6.29494 19.6354 6.81167 19.1998C7.32839 18.7641 7.67448 18.1599 7.78875 17.4938H15.6637C15.778 18.1599 16.1241 18.7641 16.6408 19.1998C17.1576 19.6354 17.8116 19.8743 18.4875 19.8743C19.1634 19.8743 19.8174 19.6354 20.3342 19.1998C20.8509 18.7641 21.197 18.1599 21.3113 17.4938H22.6125C22.8778 17.4938 23.1325 17.3897 23.3219 17.2039C23.5112 17.018 23.6201 16.7653 23.625 16.5V5.94375C23.626 5.70526 23.5799 5.46893 23.4893 5.24831C23.3987 5.02769 23.2654 4.82714 23.0972 4.65815C22.9289 4.48917 22.7289 4.35508 22.5086 4.26359C22.2884 4.17209 22.0522 4.125 21.8137 4.125ZM3.54375 7.60875H8.28375V10.065H2.33625L3.54375 7.60875ZM4.965 18.375C4.69323 18.3757 4.42735 18.2958 4.20107 18.1453C3.97479 17.9947 3.79829 17.7804 3.69395 17.5295C3.5896 17.2785 3.56211 17.0023 3.61494 16.7357C3.66778 16.4691 3.79858 16.2242 3.99075 16.032C4.18292 15.8398 4.42782 15.709 4.69441 15.6562C4.961 15.6034 5.23727 15.6309 5.48822 15.7352C5.73916 15.8395 5.95348 16.016 6.10401 16.2423C6.25453 16.4686 6.33449 16.7345 6.33375 17.0062C6.33276 17.369 6.18824 17.7165 5.93176 17.973C5.67528 18.2295 5.32771 18.374 4.965 18.375ZM4.965 14.1337C4.37961 14.135 3.80861 14.3153 3.32866 14.6505C2.84871 14.9856 2.48278 15.4596 2.28 16.0087H1.875V11.565H8.28375V15.9938H7.65C7.446 15.446 7.07955 14.9736 6.5997 14.6399C6.11985 14.3061 5.5495 14.1269 4.965 14.1262V14.1337ZM18.4837 18.375C18.212 18.3757 17.9461 18.2958 17.7198 18.1453C17.4935 17.9947 17.317 17.7804 17.2127 17.5295C17.1084 17.2785 17.0809 17.0023 17.1337 16.7357C17.1865 16.4691 17.3173 16.2242 17.5095 16.032C17.7017 15.8398 17.9466 15.709 18.2132 15.6562C18.4797 15.6034 18.756 15.6309 19.007 15.7352C19.2579 15.8395 19.4722 16.016 19.6228 16.2423C19.7733 16.4686 19.8532 16.7345 19.8525 17.0062C19.8515 17.369 19.707 17.7165 19.4505 17.973C19.194 18.2295 18.8465 18.374 18.4837 18.375ZM22.125 15.9938H21.1688C20.9656 15.4448 20.5992 14.9713 20.1188 14.6369C19.6384 14.3025 19.0672 14.1232 18.4819 14.1232C17.8966 14.1232 17.3253 14.3025 16.8449 14.6369C16.3646 14.9713 15.9982 15.4448 15.795 15.9938H9.795V5.94375C9.79597 5.8615 9.82908 5.7829 9.88724 5.72474C9.9454 5.66658 10.024 5.63347 10.1063 5.6325H21.8137C21.896 5.63347 21.9746 5.66658 22.0328 5.72474C22.0909 5.7829 22.124 5.8615 22.125 5.94375V15.9938Z" fill="#161A23"/>
</svg>
