<svg width="24" height="24" viewBox="0 0 24 24" fill="none" xmlns="http://www.w3.org/2000/svg">
<path d="M19.725 7.20005H16.05C15.9 5.96255 14.85 4.98755 13.5375 4.98755H3.18749C1.79999 4.98755 0.674988 6.11255 0.674988 7.50005V15.075C0.674988 16.4625 1.79999 17.5875 3.18749 17.5875H5.99999C6.41249 18.45 7.27499 19.05 8.28749 19.05C9.29999 19.05 10.1625 18.45 10.575 17.5875H16.6125C17.025 18.45 17.8875 19.05 18.9 19.05C19.9125 19.05 20.775 18.45 21.1875 17.5875H22.5C22.95 17.5875 23.325 17.2125 23.325 16.7625V10.8375C23.3625 8.81255 21.7125 7.20005 19.725 7.20005ZM21.6 10.425H16.05V8.88755H19.725C20.6625 8.88755 21.45 9.56255 21.6 10.425ZM2.32499 15.075V7.46255C2.32499 7.01255 2.69999 6.63755 3.14999 6.63755H13.5C13.95 6.63755 14.325 7.01255 14.325 7.46255V15.8625H10.65C10.3875 14.775 9.37499 13.9875 8.21249 13.9875C7.04999 13.9875 6.07499 14.775 5.77499 15.8625H3.18749C2.69999 15.9 2.32499 15.525 2.32499 15.075ZM8.24999 17.3625C7.79999 17.3625 7.42499 16.9875 7.42499 16.5375C7.42499 16.0875 7.79999 15.7125 8.24999 15.7125C8.69999 15.7125 9.07499 16.0875 9.07499 16.5375C9.07499 16.9875 8.69999 17.3625 8.24999 17.3625ZM18.8625 17.3625C18.4125 17.3625 18.0375 16.9875 18.0375 16.5375C18.0375 16.0875 18.4125 15.7125 18.8625 15.7125C19.3125 15.7125 19.6875 16.0875 19.6875 16.5375C19.6875 16.9875 19.3125 17.3625 18.8625 17.3625ZM21.3 15.9C21.0375 14.8125 20.025 14.025 18.8625 14.025C17.7 14.025 16.725 14.8125 16.425 15.9H16.05V12.1125H21.675V15.9H21.3Z" fill="#161A23"/>
<path d="M10.2375 12.3001C10.6875 12.3001 11.0625 11.9251 11.0625 11.4751V8.7376C11.0625 8.2876 10.6875 7.9126 10.2375 7.9126H4.34999C3.89999 7.9126 3.52499 8.2876 3.52499 8.7376V11.4751C3.52499 11.9251 3.89999 12.3001 4.34999 12.3001H10.2375ZM5.17499 9.5626H9.41249V10.6126H5.17499V9.5626Z" fill="#161A23"/>
</svg>
