<svg width="24" height="24" viewBox="0 0 24 24" fill="none" xmlns="http://www.w3.org/2000/svg">
<path d="M23.2125 11.325L20.5125 7.3875C20.3625 7.1625 20.1 7.0125 19.7999 7.0125H15.675V6.225C15.675 4.875 14.55 3.75 13.2 3.75H3.11245C1.76245 3.75 0.637451 4.875 0.637451 6.225V16.3125C0.637451 17.6625 1.76245 18.7875 3.11245 18.7875H5.84995C6.26245 19.6125 7.08745 20.2125 8.09995 20.2125C9.07495 20.2125 9.93745 19.65 10.35 18.7875H16.2C16.6125 19.6125 17.4375 20.2125 18.45 20.2125C19.4625 20.2125 20.2875 19.65 20.7 18.7875H22.575C23.025 18.7875 23.4375 18.4125 23.4375 17.925V11.8125C23.3625 11.625 23.2875 11.475 23.2125 11.325ZM19.35 8.7L21.075 11.2125H15.675V8.7H19.35ZM3.11245 5.4375H13.2C13.65 5.4375 13.9875 5.775 13.9875 6.225V12.375H2.36245V6.225C2.36245 5.8125 2.69995 5.4375 3.11245 5.4375ZM2.36245 16.35V14.1H14.025V17.1375H10.5C10.2375 16.0875 9.26245 15.3 8.09995 15.3C6.93745 15.3 5.99995 16.0875 5.69995 17.1375H3.11245C2.69995 17.1375 2.36245 16.7625 2.36245 16.35ZM8.09995 18.5625C7.64995 18.5625 7.31245 18.225 7.31245 17.775C7.31245 17.325 7.64995 16.9875 8.09995 16.9875C8.54995 16.9875 8.88745 17.325 8.88745 17.775C8.88745 18.225 8.51245 18.5625 8.09995 18.5625ZM18.4125 18.5625C17.9625 18.5625 17.625 18.225 17.625 17.775C17.625 17.325 17.9625 16.9875 18.4125 16.9875C18.8624 16.9875 19.2 17.325 19.2 17.775C19.2 18.225 18.825 18.5625 18.4125 18.5625ZM20.775 17.1375C20.5125 16.0875 19.5375 15.3 18.375 15.3C17.2125 15.3 16.275 16.0875 15.975 17.1375H15.6375V12.9H21.6V17.1H20.775V17.1375Z" fill="#161A23"/>
</svg>
