<svg width="24" height="24" viewBox="0 0 24 24" fill="none" xmlns="http://www.w3.org/2000/svg">
<path d="M20.4 12.975H20.025V7.27501C20.025 6.41251 19.5375 5.62501 18.75 5.21251L11.8875 1.76251C11.2875 1.46251 10.575 1.42501 9.93749 1.72501L2.02499 5.21251C1.19999 5.58751 0.674988 6.41251 0.674988 7.31251V20.175C0.674988 21.45 1.68749 22.4625 2.96249 22.4625H7.46249C7.91249 22.4625 8.28749 22.0875 8.28749 21.6375V21.2625H9.89999C10.275 21.9 10.95 22.35 11.7375 22.35C12.525 22.35 13.2375 21.9 13.575 21.2625H17.8875C18.2625 21.9 18.9375 22.35 19.725 22.35C20.5125 22.35 21.225 21.9 21.5625 21.2625H22.5C22.95 21.2625 23.325 20.8875 23.325 20.4375V15.9375C23.3625 14.2875 22.0125 12.975 20.4 12.975ZM21.675 15.9375V19.35C21.3375 18.6375 20.625 18.1125 19.7625 18.1125C18.9 18.1125 18.1875 18.6375 17.85 19.35V14.6625H20.4C21.075 14.6625 21.675 15.225 21.675 15.9375ZM6.59999 20.775H2.96249C2.62499 20.775 2.36249 20.5125 2.36249 20.175V7.31251C2.36249 7.08751 2.51249 6.86251 2.73749 6.75001L10.65 3.26251C10.8 3.18751 10.9875 3.18751 11.175 3.26251L18 6.71251C18.1875 6.82501 18.3375 7.01251 18.3375 7.23751V12.9375H17.8125V12.1125C17.8125 11.6625 17.4375 11.2875 16.9875 11.2875H14.7375V10.7625C14.7375 9.48751 13.725 8.47501 12.45 8.47501H8.88749C7.61249 8.47501 6.59999 9.48751 6.59999 10.7625V20.775ZM13.05 11.2875H8.28749V10.7625C8.28749 10.425 8.54999 10.1625 8.88749 10.1625H12.45C12.7875 10.1625 13.05 10.425 13.05 10.7625V11.2875ZM8.28749 12.975H16.125V13.8V19.5375H13.725C13.425 18.7125 12.675 18.1125 11.7375 18.1125C10.8 18.1125 10.0125 18.7125 9.74999 19.5375H8.28749V12.975ZM11.7375 20.6625C11.5125 20.6625 11.325 20.475 11.325 20.25C11.325 20.025 11.5125 19.8375 11.7375 19.8375C11.9625 19.8375 12.15 20.025 12.15 20.25C12.15 20.475 11.9625 20.6625 11.7375 20.6625ZM19.725 20.6625C19.5 20.6625 19.3125 20.475 19.3125 20.25C19.3125 20.025 19.5 19.8375 19.725 19.8375C19.95 19.8375 20.1375 20.025 20.1375 20.25C20.1375 20.475 19.9875 20.6625 19.725 20.6625Z" fill="#161A23"/>
</svg>
