<svg width="24" height="24" viewBox="0 0 24 24" fill="none" xmlns="http://www.w3.org/2000/svg">
<path d="M19.65 7.08755H15.8625C15.7875 5.81255 14.7375 4.80005 13.425 4.80005H3.07501C1.72501 4.80005 0.637512 5.88755 0.637512 7.23755V15.2625C0.637512 16.6125 1.72501 17.7 3.07501 17.7H5.55001C5.96251 18.5625 6.82501 19.2 7.87501 19.2C8.92501 19.2 9.78751 18.6 10.2 17.7H16.425C16.8375 18.5625 17.7 19.2 18.75 19.2C19.8 19.2 20.6625 18.6 21.075 17.7H22.5C22.95 17.7 23.325 17.325 23.325 16.875V10.8C23.325 8.73755 21.675 7.08755 19.65 7.08755ZM21.675 10.8H15.8625V8.77505H19.65C20.7375 8.77505 21.675 9.67505 21.675 10.8ZM2.32501 15.2625V7.23755C2.32501 6.82505 2.66251 6.48755 3.07501 6.48755H13.425C13.8375 6.48755 14.175 6.82505 14.175 7.23755V7.95005V16.0125H10.3875C10.125 14.8875 9.11251 14.0625 7.91251 14.0625C6.71251 14.0625 5.70001 14.8875 5.43751 16.0125H3.07501C2.66251 16.0125 2.32501 15.675 2.32501 15.2625ZM7.91251 17.5125C7.42501 17.5125 7.05001 17.1375 7.05001 16.65C7.05001 16.1625 7.42501 15.7875 7.91251 15.7875C8.40001 15.7875 8.77501 16.1625 8.77501 16.65C8.77501 17.1375 8.36251 17.5125 7.91251 17.5125ZM18.75 17.5125C18.2625 17.5125 17.8875 17.1375 17.8875 16.65C17.8875 16.1625 18.2625 15.7875 18.75 15.7875C19.2375 15.7875 19.6125 16.1625 19.6125 16.65C19.6125 17.1375 19.2375 17.5125 18.75 17.5125ZM21.225 16.0125C20.9625 14.8875 19.95 14.0625 18.75 14.0625C17.55 14.0625 16.5375 14.8875 16.275 16.0125H15.8625V12.4875H21.675V16.0125H21.225Z" fill="#161A23"/>
<path d="M4.46251 9.26255H7.91251C8.36251 9.26255 8.73751 8.88755 8.73751 8.43755C8.73751 7.98755 8.36251 7.61255 7.91251 7.61255H4.46251C4.01251 7.61255 3.63751 7.98755 3.63751 8.43755C3.63751 8.88755 4.01251 9.26255 4.46251 9.26255Z" fill="#161A23"/>
<path d="M6.82501 11.925C7.27501 11.925 7.65001 11.55 7.65001 11.1C7.65001 10.65 7.27501 10.275 6.82501 10.275H4.46251C4.01251 10.275 3.63751 10.65 3.63751 11.1C3.63751 11.55 4.01251 11.925 4.46251 11.925H6.82501Z" fill="#161A23"/>
</svg>
