<svg width="24" height="24" viewBox="0 0 24 24" fill="none" xmlns="http://www.w3.org/2000/svg">
<g clip-path="url(#clip0_501_45131)">
<path d="M21 0.675049H2.99999C1.72499 0.675049 0.674988 1.72505 0.674988 3.00005V22.5C0.674988 22.95 1.04999 23.3625 1.53749 23.3625C2.02499 23.3625 2.39999 22.9875 2.39999 22.5V8.40005H11.025V22.5C11.025 22.95 11.4 23.3625 11.8875 23.3625C12.375 23.3625 12.75 22.9875 12.75 22.5V19.7626H21.75V22.5C21.75 22.95 22.125 23.3625 22.6125 23.3625C23.1 23.3625 23.475 22.9875 23.475 22.5V3.00005C23.3625 1.72505 22.275 0.675049 21 0.675049ZM2.36249 3.00005C2.36249 2.62505 2.62499 2.36255 2.99999 2.36255H21C21.375 2.36255 21.675 2.66255 21.675 3.03755V6.75005H2.36249V3.00005ZM21.675 8.40005V12.4125H12.675V8.40005H21.675ZM12.675 14.1H21.675V18.1125H12.675V14.1Z" fill="#161A23"/>
<path d="M13.275 4.49995C13.275 4.04995 12.9 3.63745 12.4125 3.63745H11.5875C11.1375 3.63745 10.725 4.01245 10.725 4.49995C10.725 4.98745 11.1 5.36245 11.5875 5.36245H12.4125C12.8625 5.32495 13.275 4.94995 13.275 4.49995Z" fill="#161A23"/>
<path d="M16.575 11.4H17.4C17.85 11.4 18.2625 11.025 18.2625 10.5375C18.2625 10.05 17.8875 9.67505 17.4 9.67505H16.575C16.125 9.67505 15.7125 10.05 15.7125 10.5375C15.7125 11.025 16.0875 11.4 16.575 11.4Z" fill="#161A23"/>
<path d="M17.4 15.375H16.575C16.125 15.375 15.7125 15.75 15.7125 16.2375C15.7125 16.725 16.0875 17.1 16.575 17.1H17.4C17.85 17.1 18.2625 16.725 18.2625 16.2375C18.2625 15.75 17.85 15.375 17.4 15.375Z" fill="#161A23"/>
</g>
<defs>
<clipPath id="clip0_501_45131">
<rect width="24" height="24" fill="white"/>
</clipPath>
</defs>
</svg>
