<svg width="24" height="24" viewBox="0 0 24 24" fill="none" xmlns="http://www.w3.org/2000/svg">
<path d="M14.2875 11.9999C14.2875 10.7249 13.275 9.7124 12 9.7124C10.725 9.7124 9.71251 10.7249 9.71251 11.9999C9.71251 13.2749 10.725 14.2874 12 14.2874C13.275 14.2874 14.2875 13.2749 14.2875 11.9999ZM11.4 11.9999C11.4 11.6624 11.6625 11.3999 12 11.3999C12.3375 11.3999 12.6 11.6624 12.6 11.9999C12.6 12.3374 12.3375 12.5999 12 12.5999C11.6625 12.5999 11.4 12.3374 11.4 11.9999Z" fill="#161A23"/>
<path d="M12.9375 17.9625C13.65 17.9625 14.25 17.3625 14.25 16.65V16.05C14.4375 15.9375 14.5875 15.825 14.7 15.7125L15.4125 16.125C16.0125 16.4625 16.5375 16.2375 16.8 15.825L17.8125 14.1C17.9625 13.875 17.9625 13.6125 17.925 13.35C17.85 13.0875 17.7 12.9 17.475 12.75L16.6875 12.3375C16.6875 12.225 16.6875 12.075 16.6875 11.9625C16.6875 11.85 16.6875 11.7 16.6875 11.5875L17.475 11.1375C17.8875 10.875 18.075 10.3875 17.8875 9.93745C17.8875 9.89995 17.85 9.86245 17.85 9.82495L16.8 8.06245C16.5375 7.64995 16.05 7.49995 15.6 7.68745C15.5625 7.68745 15.525 7.72495 15.4875 7.72495L14.7 8.17495C14.55 8.06245 14.4 7.94995 14.2125 7.83745V7.38745C14.2125 6.67495 13.6125 6.07495 12.9 6.07495H11.025C10.3125 6.07495 9.71251 6.67495 9.71251 7.38745V7.87495C9.52501 7.98745 9.37501 8.09995 9.22501 8.21245L8.51251 7.79995C7.91251 7.46245 7.35001 7.72495 7.12501 8.09995L6.11251 9.82495C6.00001 10.05 5.96251 10.3125 6.00001 10.575C6.07501 10.8375 6.22501 11.025 6.45001 11.175L7.23751 11.5875C7.23751 11.7 7.23751 11.8125 7.23751 11.9625C7.23751 12.075 7.23751 12.1875 7.23751 12.3L6.41251 12.75C6.00001 13.0125 5.81251 13.5 6.00001 13.95C6.00001 13.9875 6.03751 14.025 6.03751 14.0625L7.08751 15.825C7.35001 16.2375 7.83751 16.3875 8.28751 16.2C8.32501 16.2 8.36251 16.1625 8.40001 16.1625L9.18751 15.7125C9.33751 15.825 9.48751 15.9375 9.67501 16.05V16.6125C9.67501 17.325 10.275 17.925 10.9875 17.925H12.9375V17.9625ZM10.6875 14.7C10.575 14.625 10.4625 14.55 10.275 14.4C10.2 14.325 10.125 14.2875 10.05 14.2125C9.67501 13.9125 9.18751 13.875 8.81251 14.1L8.28751 14.4L7.98751 13.875L8.43751 13.6125C8.85001 13.3875 9.07501 12.9375 9.00001 12.45C9.00001 12.3 9.00001 12.15 9.00001 11.9625C9.00001 11.775 9.00001 11.625 9.03751 11.5125C9.11251 11.025 8.88751 10.5375 8.47501 10.3125L8.02501 10.05L8.32501 9.56245L8.85001 9.86245C9.26251 10.0875 9.75001 10.05 10.125 9.74995C10.2 9.67495 10.275 9.63745 10.35 9.56245C10.5375 9.41245 10.65 9.29995 10.7625 9.26245C11.2125 9.03745 11.5125 8.58745 11.5125 8.09995V7.76245H12.6V8.06245C12.6 8.54995 12.9 9.03745 13.35 9.22495C13.4625 9.29995 13.575 9.37495 13.7625 9.52495C13.8375 9.59995 13.9125 9.67495 14.025 9.74995C14.4 10.05 14.8875 10.0875 15.2625 9.86245L15.7875 9.56245L16.0875 10.05L15.6375 10.3125C15.225 10.5375 15 11.025 15.075 11.5125C15 11.625 15 11.775 15 11.9625C15 12.1125 15 12.2625 14.9625 12.4125C14.8875 12.9 15.1125 13.3875 15.5625 13.6125L16.0125 13.8375L15.7125 14.325L15.1875 14.025C14.775 13.8 14.2875 13.8375 13.9125 14.1375C13.8375 14.2125 13.7625 14.2875 13.6875 14.325C13.5 14.475 13.425 14.55 13.275 14.625C12.825 14.85 12.525 15.3 12.525 15.7875V16.2375H11.4375V15.825C11.4375 15.375 11.1375 14.925 10.6875 14.7Z" fill="#161A23"/>
<path d="M8.5875 19.3874C5.7375 18.0374 3.8625 15.15 3.8625 11.9999C3.8625 7.94995 6.8625 4.57495 10.7625 3.97495L10.3875 4.38745C10.0875 4.72495 10.0875 5.24995 10.425 5.58745C10.575 5.73745 10.8 5.81245 10.9875 5.81245C11.2125 5.81245 11.4375 5.73745 11.625 5.54995L13.3875 3.63745C13.6875 3.29995 13.6875 2.81245 13.3875 2.51245L11.625 0.56245C11.325 0.22495 10.7625 0.18745 10.425 0.52495C10.0875 0.86245 10.05 1.38745 10.3875 1.72495L10.9125 2.24995C6 2.81245 2.175 6.97495 2.175 11.9999C2.175 15.8249 4.425 19.3124 7.875 20.8874C7.9875 20.9249 8.1 20.9625 8.2125 20.9625C8.5125 20.9625 8.85 20.7749 8.9625 20.4749C9.1875 20.0624 9 19.5749 8.5875 19.3874Z" fill="#161A23"/>
<path d="M21.825 11.9999C21.825 8.2124 19.6125 4.7249 16.1625 3.1124C15.75 2.9249 15.225 3.1124 15.0375 3.5249C14.85 3.9374 15.0375 4.4624 15.45 4.6499C18.3 5.9999 20.1375 8.8874 20.1375 11.9999C20.1375 16.1249 17.025 19.5749 13.0125 20.0624L13.425 19.6124C13.725 19.2749 13.725 18.7499 13.3875 18.4124C13.05 18.1124 12.525 18.1124 12.1875 18.4499L10.425 20.3624C10.125 20.6999 10.125 21.1874 10.425 21.4874L12.1875 23.3999C12.3375 23.5874 12.6 23.6624 12.825 23.6624C13.0125 23.6624 13.2375 23.5874 13.3875 23.4374C13.725 23.1374 13.7625 22.5749 13.425 22.2374L12.9 21.7499C17.8875 21.2999 21.825 17.0999 21.825 11.9999Z" fill="#161A23"/>
</svg>
