<svg width="24" height="24" viewBox="0 0 24 24" fill="none" xmlns="http://www.w3.org/2000/svg">
<path d="M12.0015 12.0613L2.62501 7.37305V15.2962C2.62413 15.4749 2.70638 15.6438 2.84762 15.7534L8.286 18.9766C8.3475 19.0092 8.39876 19.0582 8.43397 19.1183C8.46919 19.1783 8.48696 19.247 8.48535 19.3166V23.4306C8.48711 23.5021 8.5272 23.5672 8.58997 23.6012C8.65275 23.6352 8.72917 23.6326 8.78992 23.5948L21.1084 15.7534C21.2761 15.6458 21.3775 15.4604 21.3781 15.261V7.37305L12.0015 12.0613Z" fill="#15171A"/>
<path d="M12.0015 9.71711L21.3781 5.02882L12.1422 0.410899C12.0991 0.387345 12.0507 0.375 12.0015 0.375C11.9524 0.375 11.904 0.387345 11.8609 0.410899L2.625 5.02882L12.0015 9.71711Z" fill="#15171A"/>
</svg>
