<svg width="24" height="24" viewBox="0 0 24 24" fill="none" xmlns="http://www.w3.org/2000/svg">
<g clip-path="url(#clip0_501_52076)">
<path d="M23.2125 9.07505L19.9501 1.61255C19.8 1.23755 19.5 0.975049 19.1625 0.825049C19.0875 0.787549 19.05 0.750049 18.975 0.712549C18.8625 0.675049 18.75 0.675049 18.6 0.675049C18.5625 0.675049 18.525 0.675049 18.525 0.675049H5.51255C4.91255 0.675049 4.35005 1.05005 4.08755 1.61255L0.787549 9.07505C0.562549 9.60005 0.637549 10.2 0.975049 10.65L10.7625 22.725C11.025 23.0625 11.4 23.2875 11.8125 23.3251C11.8875 23.3251 11.925 23.3625 12 23.3625C12.4875 23.3625 12.9375 23.1376 13.2375 22.7626L23.025 10.725L23.0625 10.6875C23.3625 10.2 23.4375 9.60005 23.2125 9.07505ZM21.4501 9.26255H16.9875L18.9 3.48755L21.4501 9.26255ZM15.675 7.83755L13.125 2.32505H17.5126L15.675 7.83755ZM12 3.93755L14.475 9.26255H9.52505L12 3.93755ZM8.25005 7.95005L6.15005 2.32505H10.875L8.25005 7.95005ZM14.7 10.95L12 19.65L9.33755 10.95H14.7ZM10.125 19.275L3.37505 10.95H7.57505L10.125 19.275ZM16.4625 10.95H20.625L13.875 19.2375L16.4625 10.95ZM4.91255 3.86255L6.97505 9.22505H2.55005L4.91255 3.86255Z" fill="#161A23"/>
</g>
<defs>
<clipPath id="clip0_501_52076">
<rect width="24" height="24" fill="white"/>
</clipPath>
</defs>
</svg>
