<svg width="24" height="24" viewBox="0 0 24 24" fill="none" xmlns="http://www.w3.org/2000/svg">
<path d="M12 23.3251C11.5125 23.3251 11.0625 23.1 10.7625 22.6876L1.91255 10.6501C1.57505 10.2 1.50005 9.60005 1.72505 9.07505L4.98755 1.61255C5.25005 1.05005 5.81255 0.675049 6.41255 0.675049H17.5125C18.1125 0.675049 18.675 1.05005 18.9375 1.61255L22.2001 9.07505C22.425 9.60005 22.35 10.2 22.0126 10.6501L13.2375 22.6876C12.9375 23.1 12.4875 23.3251 12 23.3251ZM3.30005 9.71255L12 21.5626L20.7001 9.71255L17.475 2.32505H6.52505L3.30005 9.71255Z" fill="#161A23"/>
</svg>
