<svg width="24" height="24" viewBox="0 0 24 24" fill="none" xmlns="http://www.w3.org/2000/svg">
<g clip-path="url(#clip0_501_45124)">
<path d="M7.98751 8.66235C3.93751 8.66235 0.637512 11.9624 0.637512 16.0124C0.637512 20.0624 3.93751 23.3624 7.98751 23.3624C12.0375 23.3624 15.3375 20.0624 15.3375 16.0124C15.3375 11.9624 12.0375 8.66235 7.98751 8.66235ZM7.98751 21.6374C4.87501 21.6374 2.36251 19.1249 2.36251 16.0124C2.36251 12.8999 4.87501 10.3499 7.98751 10.3499C11.1 10.3499 13.65 12.8999 13.65 16.0124C13.65 19.1249 11.1 21.6374 7.98751 21.6374Z" fill="#161A23"/>
<path d="M18.975 9.3374C21.3375 9.3374 23.2875 7.3874 23.2875 5.0249C23.2875 2.6624 21.3375 0.712402 18.975 0.712402C16.6125 0.712402 14.6625 2.6624 14.6625 5.0249C14.6625 7.3874 16.575 9.3374 18.975 9.3374ZM18.975 2.3999C20.4375 2.3999 21.6 3.5624 21.6 5.0249C21.6 6.4874 20.4375 7.6499 18.975 7.6499C17.5125 7.6499 16.35 6.4874 16.35 5.0249C16.35 3.5624 17.5125 2.3999 18.975 2.3999Z" fill="#161A23"/>
<path d="M1.53752 9.11245C1.98752 9.11245 2.40002 8.73745 2.40002 8.24995V2.81245C2.40002 2.54995 2.58752 2.36245 2.85002 2.36245H8.62502C9.07502 2.36245 9.48752 1.98745 9.48752 1.49995C9.48752 1.01245 9.11252 0.637451 8.62502 0.637451H2.85002C1.68752 0.637451 0.712524 1.61245 0.712524 2.77495V8.24995C0.712524 8.73745 1.08752 9.11245 1.53752 9.11245Z" fill="#161A23"/>
<path d="M22.875 12.4875C22.425 12.4875 22.0125 12.8625 22.0125 13.35V18.975C22.0125 19.2375 21.825 19.425 21.5625 19.425H16.2375C15.7875 19.425 15.375 19.8 15.375 20.2875C15.375 20.775 15.75 21.15 16.2375 21.15H21.6C22.7625 21.15 23.7375 20.175 23.7375 19.0125V13.3875C23.7375 12.8625 23.325 12.4875 22.875 12.4875Z" fill="#161A23"/>
<path d="M11.1 14.6249C11.0625 13.6124 10.35 12.7874 9.37501 12.5249V12.4499C9.37501 11.9999 9.00001 11.5874 8.51251 11.5874C8.02501 11.5874 7.65001 11.9624 7.65001 12.4499H7.61251C7.61251 11.9999 7.23751 11.5874 6.75001 11.5874C6.26251 11.5874 5.88751 11.9624 5.88751 12.4499H5.62501C5.17501 12.4499 4.76251 12.8249 4.76251 13.3124C4.76251 13.6499 4.95001 13.9124 5.21251 14.0624V16.0124V17.9624C4.95001 18.1124 4.76251 18.3749 4.76251 18.7124C4.76251 19.1624 5.13751 19.5749 5.62501 19.5749H5.88751V19.6124C5.88751 20.0624 6.26251 20.4749 6.75001 20.4749C7.23751 20.4749 7.61251 20.0999 7.61251 19.6124V19.5749H7.65001V19.6124C7.65001 20.0624 8.02501 20.4749 8.51251 20.4749C9.00001 20.4749 9.37501 20.0999 9.37501 19.6124V19.4999C10.3125 19.2374 11.0625 18.4124 11.0625 17.3999C11.0625 17.3249 11.0625 17.2874 11.0625 17.2499C11.0625 16.7999 10.875 16.3874 10.6125 16.0499C10.875 15.7124 11.0625 15.2624 11.0625 14.8124C11.1 14.6999 11.1 14.6624 11.1 14.6249ZM9.41251 14.6999C9.41251 14.9249 9.18751 15.1499 8.88751 15.1499H6.97501V14.1374H8.77501C9.15001 14.1374 9.41251 14.3624 9.41251 14.6999ZM9.41251 17.2874C9.41251 17.5874 9.11251 17.8124 8.81251 17.8124H7.01251V16.7999H8.92501C9.18751 16.7999 9.41251 16.9874 9.41251 17.2124V17.2874Z" fill="#161A23"/>
</g>
<defs>
<clipPath id="clip0_501_45124">
<rect width="24" height="24" fill="white"/>
</clipPath>
</defs>
</svg>
