<svg width="24" height="24" viewBox="0 0 24 24" fill="none" xmlns="http://www.w3.org/2000/svg">
<path fill-rule="evenodd" clip-rule="evenodd" d="M4.83 9H3.4125C1.8 9 0.46125 10.1662 0.37875 11.8687C0.375 11.925 0.375 11.9812 0.375 12.0375C0.375 12.09 0.375 12.1387 0.37875 12.1912C0.46125 13.7625 1.8 15.03 3.4125 15.0225H4.83C6.47625 15.03 7.98 13.68 7.98 12.0375C7.98 10.2412 6.47625 9 4.83 9ZM3.42 14.7637C1.8975 14.7637 0.66375 13.53 0.66375 12.0075C0.66375 10.485 1.8975 9.2475 3.42 9.2475C4.9425 9.2475 6.17625 10.4813 6.17625 12.0075C6.17625 13.5338 4.9425 14.7637 3.42 14.7637Z" fill="#15171A"/>
<path d="M13.5564 11.2796C13.5489 11.3096 13.5489 11.3546 13.5564 11.4634C13.5752 11.7634 13.7702 12.0109 14.0214 12.0109C14.1977 12.0109 14.3327 11.9171 14.4489 11.7971L14.4939 11.8421C14.3477 12.0371 14.1677 12.1984 13.9089 12.1984C13.4064 12.1984 13.3052 11.7109 13.3052 11.5084C13.3052 10.8859 13.7252 10.7021 13.9464 10.7021C14.2014 10.7021 14.4789 10.8634 14.4827 11.2009C14.4827 11.2196 14.4827 11.2384 14.4827 11.2571L14.4527 11.2759H13.5639L13.5564 11.2796ZM14.1189 11.1784C14.1977 11.1784 14.2089 11.1371 14.2089 11.0996C14.2089 10.9384 14.1114 10.8071 13.9314 10.8071C13.7402 10.8071 13.6052 10.9496 13.5677 11.1784H14.1189Z" fill="#15171A"/>
<path d="M14.5505 12.0715H14.6367C14.7267 12.0715 14.7868 12.0715 14.7868 11.9665V11.0778C14.7868 10.9803 14.6705 10.9615 14.6218 10.9353V10.8865C14.8543 10.789 14.9818 10.7065 15.008 10.7065C15.0268 10.7065 15.0343 10.7178 15.0343 10.7478V11.0328H15.0418C15.1205 10.909 15.2555 10.7065 15.4467 10.7065C15.5255 10.7065 15.6267 10.759 15.6267 10.8753C15.6267 10.9615 15.5668 11.0365 15.4768 11.0365C15.3793 11.0365 15.3793 10.9615 15.2668 10.9615C15.2143 10.9615 15.0343 11.0328 15.0343 11.224V11.9665C15.0343 12.0715 15.098 12.0715 15.188 12.0715H15.3643V12.154C15.1918 12.154 15.0568 12.1465 14.9218 12.1465C14.7868 12.1465 14.6593 12.1465 14.543 12.154V12.0715H14.5505Z" fill="#15171A"/>
<path d="M15.7682 11.7153C15.8094 11.9253 15.9369 12.1015 16.1657 12.1015C16.3532 12.1015 16.4207 11.989 16.4207 11.8765C16.4207 11.5015 15.7307 11.6215 15.7307 11.1115C15.7307 10.9353 15.8732 10.7065 16.2219 10.7065C16.3232 10.7065 16.4582 10.7365 16.5819 10.8003L16.6044 11.1228H16.5332C16.5032 10.924 16.3907 10.8078 16.1882 10.8078C16.0607 10.8078 15.9407 10.879 15.9407 11.0178C15.9407 11.389 16.6757 11.2728 16.6757 11.7715C16.6757 11.9815 16.5069 12.2028 16.1319 12.2028C16.0044 12.2028 15.8582 12.1578 15.7457 12.094L15.7119 11.7303L15.7682 11.7153Z" fill="#15171A"/>
<path d="M19.6538 12.0716H19.7138C19.8038 12.0716 19.8676 12.0716 19.8676 11.9666V10.2041C19.8676 9.99785 19.8188 9.99035 19.6988 9.9566V9.9041C19.8263 9.86285 19.9576 9.8066 20.0251 9.7691C20.0588 9.75035 20.0851 9.73535 20.0963 9.73535C20.1151 9.73535 20.1226 9.7541 20.1226 9.78035V11.9666C20.1226 12.0716 20.1938 12.0716 20.2801 12.0716H20.3326V12.1541C20.2238 12.1541 20.1151 12.1466 19.9988 12.1466C19.8826 12.1466 19.7701 12.1466 19.6538 12.1541V12.0716Z" fill="#15171A"/>
<path d="M21.6866 11.981C21.6866 12.0372 21.7204 12.041 21.7766 12.041C21.8141 12.041 21.8629 12.041 21.9041 12.041V12.1085C21.7691 12.1197 21.5066 12.1872 21.4466 12.206L21.4316 12.1947V11.9397C21.2404 12.0935 21.0941 12.206 20.8691 12.206C20.6966 12.206 20.5204 12.0935 20.5204 11.831V11.021C20.5204 10.9385 20.5091 10.8597 20.3291 10.8447V10.7847C20.4416 10.7847 20.6966 10.7622 20.7379 10.7622C20.7716 10.7622 20.7716 10.7847 20.7716 10.8522V11.6697C20.7716 11.7635 20.7716 12.0372 21.0454 12.0372C21.1541 12.0372 21.2966 11.9547 21.4279 11.846V10.9947C21.4279 10.931 21.2741 10.8972 21.1616 10.8635V10.8072C21.4466 10.7885 21.6229 10.7622 21.6566 10.7622C21.6829 10.7622 21.6829 10.7847 21.6829 10.8185V11.9885L21.6866 11.981Z" fill="#15171A"/>
<path d="M22.3165 10.9354C22.444 10.8266 22.6127 10.7066 22.789 10.7066C23.1565 10.7066 23.3777 11.0254 23.3777 11.3704C23.3777 11.7866 23.074 12.1991 22.6202 12.1991C22.3877 12.1991 22.264 12.1241 22.1815 12.0866L22.0877 12.1579L22.0202 12.1241C22.0465 11.9366 22.0652 11.7529 22.0652 11.5616V10.2041C22.0652 9.99785 22.0165 9.99035 21.8965 9.9566V9.9041C22.024 9.86285 22.1552 9.8066 22.2227 9.7691C22.2565 9.75035 22.2827 9.73535 22.294 9.73535C22.3127 9.73535 22.3202 9.7541 22.3202 9.78035V10.9354H22.3165ZM22.3165 11.7979C22.3165 11.9179 22.429 12.1204 22.6427 12.1204C22.9802 12.1204 23.1227 11.7866 23.1227 11.5054C23.1227 11.1641 22.864 10.8791 22.6165 10.8791C22.5002 10.8791 22.4027 10.9541 22.3165 11.0291V11.7979Z" fill="#15171A"/>
<path d="M17.8761 12.7913V12.7988C17.8686 12.8475 17.8611 12.8925 17.8536 12.9375C17.8499 12.9863 17.8499 13.0313 17.8499 13.08L17.7899 13.1025V13.095C17.7861 13.0275 17.7786 12.9338 17.6699 12.9338H17.3924V13.845C17.3961 13.9763 17.4486 13.9838 17.5274 13.9875H17.5686V14.0513H17.5611C17.4936 14.0513 17.3736 14.0475 17.2799 14.0475C17.1786 14.0475 17.0586 14.0513 16.9911 14.0513H16.9836V13.9875H17.0211C17.1186 13.9838 17.1561 13.9838 17.1561 13.8488V12.9338H16.8824C16.7549 12.9375 16.7586 12.96 16.7286 13.0875L16.6611 13.0913V13.0838C16.6686 13.035 16.6799 12.9863 16.6836 12.9375C16.6911 12.8888 16.6949 12.84 16.6949 12.7913V12.7838H16.7474V12.7913C16.7624 12.8325 16.7924 12.8325 16.8374 12.8325H16.8449L17.7374 12.8363C17.7824 12.8325 17.8199 12.8325 17.8199 12.7875V12.78H17.8311L17.8799 12.7875L17.8761 12.7913Z" fill="#15171A"/>
<path d="M19.143 12.8137C18.7793 12.8137 18.498 13.095 18.498 13.455C18.498 13.815 18.783 14.0812 19.1505 14.0812C19.518 14.0812 19.8105 13.815 19.8105 13.4137C19.8105 13.0425 19.5143 12.8137 19.143 12.8137ZM19.1693 13.9912C18.8955 13.9912 18.7568 13.7025 18.7568 13.395C18.7568 13.1662 18.843 12.9037 19.1393 12.9037C19.4355 12.9037 19.5555 13.2037 19.5555 13.4512C19.5518 13.7025 19.4955 13.9912 19.1693 13.9912Z" fill="#15171A"/>
<path d="M23.4446 12.7991C23.5496 12.7991 23.6246 12.8778 23.6246 12.9828C23.6246 13.0878 23.5459 13.1628 23.4446 13.1628C23.3434 13.1628 23.2646 13.0841 23.2646 12.9828C23.2646 12.8816 23.3434 12.7991 23.4446 12.7991ZM23.4446 13.1291C23.5271 13.1291 23.5871 13.0616 23.5871 12.9828C23.5871 12.9041 23.5271 12.8328 23.4446 12.8328C23.3621 12.8328 23.3021 12.9041 23.3021 12.9828C23.3021 13.0616 23.3659 13.1291 23.4446 13.1291ZM23.3546 13.0766V13.0691C23.3771 13.0691 23.3809 13.0691 23.3809 13.0541V12.9191C23.3809 12.9003 23.3809 12.8928 23.3546 12.8928V12.8853H23.4484C23.4821 12.8853 23.5084 12.9003 23.5084 12.9341C23.5084 12.9603 23.4896 12.9828 23.4671 12.9903L23.4971 13.0316C23.5121 13.0503 23.5271 13.0691 23.5384 13.0728V13.0803H23.5046C23.5046 13.0803 23.4746 13.0428 23.4409 12.9978H23.4221V13.0578C23.4221 13.0578 23.4259 13.0691 23.4484 13.0728V13.0803H23.3621L23.3546 13.0766ZM23.4146 12.9791H23.4371C23.4596 12.9791 23.4709 12.9603 23.4709 12.9341C23.4709 12.9078 23.4521 12.8966 23.4371 12.8966H23.4184V12.9828L23.4146 12.9791Z" fill="#15171A"/>
<path d="M13.3161 12.0715V12.154C13.2036 12.154 13.0911 12.1503 12.9786 12.1503C12.8661 12.1503 12.7498 12.1503 12.6373 12.154V12.0715H12.6936C12.7836 12.0715 12.8473 12.0715 12.8473 11.9665V11.149C12.8473 10.9653 12.7348 10.879 12.5548 10.879C12.4536 10.879 12.2923 10.9615 12.1873 11.029V11.9665C12.1873 12.0715 12.2548 12.0715 12.3448 12.0715H12.4011V12.154C12.2923 12.154 12.1798 12.1503 12.0673 12.1503C11.9548 12.1503 11.8386 12.1503 11.7261 12.154V12.0715H11.7823C11.8686 12.0715 11.9323 12.0715 11.9323 11.9665V11.1303C11.9323 11.0103 11.8986 10.9803 11.7486 10.9203V10.8603C11.8873 10.8153 12.0148 10.774 12.1686 10.7065C12.1761 10.7065 12.1873 10.714 12.1873 10.7403V10.9465C12.3673 10.8153 12.5211 10.7065 12.7348 10.7065C13.0048 10.7065 13.0986 10.9053 13.0986 11.149V11.9665C13.0986 12.0715 13.1698 12.0715 13.2561 12.0715H13.3161Z" fill="#15171A"/>
<path d="M9.5768 9.94482C9.34055 9.94482 9.16055 9.94857 9.02555 9.94857C8.9018 9.94857 8.77805 9.94857 8.6543 9.94482V10.0273C8.7968 10.0273 8.94305 10.0086 8.94305 10.2936V11.8311C8.93555 12.0486 8.8418 12.0523 8.6543 12.0711V12.1536C8.7968 12.1536 8.93555 12.1498 9.07805 12.1498C9.22805 12.1498 9.3743 12.1536 9.53555 12.1536C10.6605 12.1536 10.8443 11.3661 10.8443 11.0511C10.8443 10.4923 10.3943 9.94482 9.5768 9.94482ZM9.5843 12.0523C9.43055 12.0523 9.2543 12.0261 9.2543 11.7823V10.0573C9.3143 10.0536 9.37055 10.0461 9.5018 10.0461C10.113 10.0461 10.4955 10.4736 10.4955 11.0661C10.4955 11.5386 10.2705 12.0523 9.5843 12.0523Z" fill="#15171A"/>
<path d="M11.5766 12.0715H11.6329V12.154C11.5241 12.154 11.4116 12.1503 11.2991 12.1503C11.1866 12.1503 11.0704 12.154 10.9541 12.154V12.0715H11.0141C11.1041 12.0715 11.1679 12.0715 11.1679 11.9703V11.1115C11.1679 10.969 11.1191 10.9503 11.0029 10.8865V10.8378C11.1491 10.7928 11.3291 10.7328 11.3404 10.7253C11.3629 10.7103 11.3816 10.7065 11.3966 10.7065C11.4154 10.7065 11.4191 10.7253 11.4191 10.7515V11.9703C11.4191 12.0715 11.4904 12.0715 11.5766 12.0715Z" fill="#15171A"/>
<path d="M11.1372 10.0612C11.1372 9.98247 11.2122 9.90747 11.291 9.90747C11.3697 9.90747 11.4485 9.97497 11.4485 10.0612C11.4485 10.1475 11.3772 10.2187 11.291 10.2187C11.2047 10.2187 11.1372 10.1437 11.1372 10.0612Z" fill="#15171A"/>
<path d="M13.5564 11.2796C13.5489 11.3096 13.5489 11.3546 13.5564 11.4634C13.5752 11.7634 13.7702 12.0109 14.0214 12.0109C14.1977 12.0109 14.3327 11.9171 14.4489 11.7971L14.4939 11.8421C14.3477 12.0371 14.1677 12.1984 13.9089 12.1984C13.4064 12.1984 13.3052 11.7109 13.3052 11.5084C13.3052 10.8859 13.7252 10.7021 13.9464 10.7021C14.2014 10.7021 14.4789 10.8634 14.4827 11.2009C14.4827 11.2196 14.4827 11.2384 14.4827 11.2571L14.4527 11.2759H13.5639L13.5564 11.2796ZM14.1189 11.1784C14.1977 11.1784 14.2089 11.1371 14.2089 11.0996C14.2089 10.9384 14.1114 10.8071 13.9314 10.8071C13.7402 10.8071 13.6052 10.9496 13.5677 11.1784H14.1189Z" fill="#15171A"/>
<path d="M14.5505 12.0715H14.6367C14.7267 12.0715 14.7868 12.0715 14.7868 11.9665V11.0778C14.7868 10.9803 14.6705 10.9615 14.6218 10.9353V10.8865C14.8543 10.789 14.9818 10.7065 15.008 10.7065C15.0268 10.7065 15.0343 10.7178 15.0343 10.7478V11.0328H15.0418C15.1205 10.909 15.2555 10.7065 15.4467 10.7065C15.5255 10.7065 15.6267 10.759 15.6267 10.8753C15.6267 10.9615 15.5668 11.0365 15.4768 11.0365C15.3793 11.0365 15.3793 10.9615 15.2668 10.9615C15.2143 10.9615 15.0343 11.0328 15.0343 11.224V11.9665C15.0343 12.0715 15.098 12.0715 15.188 12.0715H15.3643V12.154C15.1918 12.154 15.0568 12.1465 14.9218 12.1465C14.7868 12.1465 14.6593 12.1465 14.543 12.154V12.0715H14.5505Z" fill="#15171A"/>
<path d="M15.7682 11.7153C15.8094 11.9253 15.9369 12.1015 16.1657 12.1015C16.3532 12.1015 16.4207 11.989 16.4207 11.8765C16.4207 11.5015 15.7307 11.6215 15.7307 11.1115C15.7307 10.9353 15.8732 10.7065 16.2219 10.7065C16.3232 10.7065 16.4582 10.7365 16.5819 10.8003L16.6044 11.1228H16.5332C16.5032 10.924 16.3907 10.8078 16.1882 10.8078C16.0607 10.8078 15.9407 10.879 15.9407 11.0178C15.9407 11.389 16.6757 11.2728 16.6757 11.7715C16.6757 11.9815 16.5069 12.2028 16.1319 12.2028C16.0044 12.2028 15.8582 12.1578 15.7457 12.094L15.7119 11.7303L15.7682 11.7153Z" fill="#15171A"/>
<path d="M19.5414 11.5727L19.4701 12.034C19.3351 12.1165 18.9789 12.2027 18.7689 12.2027C18.0264 12.2027 17.5576 11.7227 17.5576 11.0102C17.5576 10.3615 18.1389 9.89648 18.7614 9.89648C19.0164 9.89648 19.2639 9.97898 19.5076 10.0652L19.5376 10.5152H19.4589C19.3989 10.1477 19.1364 9.99773 18.7801 9.99773C18.4239 9.99773 17.8876 10.2415 17.8876 11.0027C17.8876 11.6402 18.3451 12.1015 18.8326 12.1015C19.1476 12.1015 19.4064 11.884 19.4701 11.554L19.5414 11.5727Z" fill="#15171A"/>
<path d="M19.6538 12.0716H19.7138C19.8038 12.0716 19.8676 12.0716 19.8676 11.9666V10.2041C19.8676 9.99785 19.8188 9.99035 19.6988 9.9566V9.9041C19.8263 9.86285 19.9576 9.8066 20.0251 9.7691C20.0588 9.75035 20.0851 9.73535 20.0963 9.73535C20.1151 9.73535 20.1226 9.7541 20.1226 9.78035V11.9666C20.1226 12.0716 20.1938 12.0716 20.2801 12.0716H20.3326V12.1541C20.2238 12.1541 20.1151 12.1466 19.9988 12.1466C19.8826 12.1466 19.7701 12.1466 19.6538 12.1541V12.0716Z" fill="#15171A"/>
<path d="M21.6866 11.981C21.6866 12.0372 21.7204 12.041 21.7766 12.041C21.8141 12.041 21.8629 12.041 21.9041 12.041V12.1085C21.7691 12.1197 21.5066 12.1872 21.4466 12.206L21.4316 12.1947V11.9397C21.2404 12.0935 21.0941 12.206 20.8691 12.206C20.6966 12.206 20.5204 12.0935 20.5204 11.831V11.021C20.5204 10.9385 20.5091 10.8597 20.3291 10.8447V10.7847C20.4416 10.7847 20.6966 10.7622 20.7379 10.7622C20.7716 10.7622 20.7716 10.7847 20.7716 10.8522V11.6697C20.7716 11.7635 20.7716 12.0372 21.0454 12.0372C21.1541 12.0372 21.2966 11.9547 21.4279 11.846V10.9947C21.4279 10.931 21.2741 10.8972 21.1616 10.8635V10.8072C21.4466 10.7885 21.6229 10.7622 21.6566 10.7622C21.6829 10.7622 21.6829 10.7847 21.6829 10.8185V11.9885L21.6866 11.981Z" fill="#15171A"/>
<path d="M22.3165 10.9354C22.444 10.8266 22.6127 10.7066 22.789 10.7066C23.1565 10.7066 23.3777 11.0254 23.3777 11.3704C23.3777 11.7866 23.074 12.1991 22.6202 12.1991C22.3877 12.1991 22.264 12.1241 22.1815 12.0866L22.0877 12.1579L22.0202 12.1241C22.0465 11.9366 22.0652 11.7529 22.0652 11.5616V10.2041C22.0652 9.99785 22.0165 9.99035 21.8965 9.9566V9.9041C22.024 9.86285 22.1552 9.8066 22.2227 9.7691C22.2565 9.75035 22.2827 9.73535 22.294 9.73535C22.3127 9.73535 22.3202 9.7541 22.3202 9.78035V10.9354H22.3165ZM22.3165 11.7979C22.3165 11.9179 22.429 12.1204 22.6427 12.1204C22.9802 12.1204 23.1227 11.7866 23.1227 11.5054C23.1227 11.1641 22.864 10.8791 22.6165 10.8791C22.5002 10.8791 22.4027 10.9541 22.3165 11.0291V11.7979Z" fill="#15171A"/>
<path d="M11.8347 12.7838L11.8835 12.7913V12.7988C11.876 12.8475 11.8685 12.8925 11.8647 12.9375C11.861 12.9863 11.861 13.0313 11.861 13.08H11.8572L11.7935 13.1025V13.095C11.7897 13.0275 11.7822 12.9338 11.6735 12.9338H11.3997V13.845C11.3997 13.9763 11.4522 13.9838 11.5347 13.9875H11.5722V14.0513H11.5685C11.4972 14.0513 11.3772 14.0475 11.2872 14.0475C11.1822 14.0475 11.0622 14.0513 10.9947 14.0513H10.9872V13.9875H11.0285C11.1222 13.9838 11.1597 13.9838 11.1635 13.8488V12.9338H10.886C10.7585 12.9375 10.7622 12.96 10.736 13.0875H10.7322L10.6685 13.0913V13.0838C10.676 13.035 10.6835 12.9863 10.6872 12.9375C10.6947 12.8888 10.6985 12.84 10.6985 12.7913V12.7838H10.7547V12.7913C10.766 12.8325 10.7997 12.8325 10.841 12.8325H11.741C11.7897 12.8325 11.8235 12.8325 11.8272 12.7875V12.78H11.8347V12.7838Z" fill="#15171A"/>
<path d="M9.17654 12.8401H9.18404V12.9038H9.15029C9.11279 12.9076 9.07529 12.9076 9.05279 12.9301C9.03779 12.9451 9.03029 12.9638 9.03029 12.9976V13.8976C9.03029 13.9838 9.09029 13.9876 9.15029 13.9913H9.18404V14.0551H9.17654C9.09404 14.0551 8.98904 14.0513 8.90279 14.0513C8.81654 14.0513 8.71904 14.0551 8.65154 14.0551H8.64404V13.9913H8.67404C8.73779 13.9876 8.79404 13.9838 8.79404 13.8976V12.9976C8.79404 12.9638 8.78654 12.9451 8.77154 12.9301C8.74904 12.9076 8.71529 12.9076 8.67404 12.9038H8.64404V12.8401H8.65154C8.71904 12.8401 8.82029 12.8438 8.90654 12.8438C8.99279 12.8438 9.09404 12.8401 9.17654 12.8401Z" fill="#15171A"/>
<path d="M12.922 13.7701V13.7776C12.8957 13.8676 12.877 13.9576 12.862 14.0513H12.8582V14.0551C12.7457 14.0551 12.547 14.0476 12.3932 14.0476C12.2395 14.0476 12.0332 14.0551 11.9357 14.0551H11.9282V13.9913H11.9582C12.022 13.9876 12.0782 13.9838 12.0782 13.8976V12.9976C12.0782 12.9638 12.0707 12.9451 12.0557 12.9301C12.0332 12.9076 11.9995 12.9076 11.9582 12.9038H11.9282V12.8401H11.9357C12.0407 12.8401 12.2207 12.8438 12.3632 12.8438C12.5057 12.8438 12.6857 12.8401 12.8057 12.8401H12.8132V12.8476C12.8132 12.8701 12.8132 12.9038 12.8132 12.9338C12.8132 12.9938 12.8132 13.0613 12.8207 13.1101L12.8132 13.1176L12.7532 13.1326V13.1251C12.742 13.0126 12.727 12.9301 12.5507 12.9301H12.3182V13.3651H12.517C12.6145 13.3651 12.6332 13.3126 12.6445 13.2226V13.2151H12.712V13.2226C12.7082 13.2901 12.7045 13.3576 12.7045 13.4251C12.7045 13.4888 12.7082 13.5526 12.712 13.6201V13.6276H12.7045L12.6445 13.6388V13.6313C12.6332 13.5263 12.6332 13.4663 12.517 13.4663H12.3182V13.8601C12.3182 13.9651 12.4082 13.9651 12.5207 13.9651C12.727 13.9651 12.8132 13.9538 12.862 13.7626V13.7551H12.8732L12.9295 13.7701H12.922Z" fill="#15171A"/>
<path d="M10.6317 12.8401H10.6392V12.9038H10.6054C10.5342 12.9076 10.4592 12.9113 10.4592 13.1176V13.9013C10.4592 13.9613 10.4592 14.0213 10.4667 14.0738V14.0813H10.3917L9.51416 13.1063V13.7963C9.51791 13.9463 9.54041 13.9876 9.67166 13.9913H9.70541V14.0551H9.69791C9.62291 14.0551 9.55166 14.0513 9.47666 14.0513C9.39791 14.0513 9.31916 14.0551 9.24416 14.0551H9.23291V13.9913H9.26666C9.37916 13.9876 9.41291 13.9163 9.41291 13.7776V13.0538C9.41291 12.9601 9.33791 12.9038 9.26666 12.9038H9.23291V12.8401H9.24416C9.30791 12.8401 9.37541 12.8438 9.43916 12.8438C9.49166 12.8438 9.54041 12.8401 9.60041 12.8401L10.3579 13.6951V13.0613C10.3579 12.9226 10.2642 12.9076 10.2154 12.9038H10.1704V12.8401H10.1779C10.2567 12.8401 10.3392 12.8438 10.4179 12.8438C10.4892 12.8438 10.5604 12.8401 10.6317 12.8401Z" fill="#15171A"/>
<path d="M14.1679 13.9913C14.0854 13.9801 14.0554 13.9613 14.0067 13.8901L13.7179 13.4551C13.8492 13.4026 13.9542 13.3051 13.9542 13.1476C13.9542 12.9901 13.8754 12.9113 13.7629 12.8738H13.7592C13.6917 12.8476 13.6129 12.8401 13.5342 12.8401C13.4442 12.8401 13.3617 12.8438 13.2567 12.8438C13.1517 12.8438 13.0467 12.8401 12.9904 12.8401H12.9829V12.9038H13.0204C13.0767 12.9076 13.1367 12.9076 13.1367 13.0276V13.9051C13.1367 13.9613 13.0842 13.9913 13.0204 13.9913H12.9829V14.0551H12.9904C13.0767 14.0551 13.1592 14.0513 13.2417 14.0513C13.3392 14.0513 13.4367 14.0551 13.5379 14.0551H13.5454V13.9913H13.5079C13.4254 13.9876 13.3729 13.9876 13.3729 13.8601V13.5001H13.4742C13.5867 13.6951 13.6992 13.8788 13.8304 14.0551C13.8904 14.0551 13.9467 14.0513 13.9992 14.0513C14.0554 14.0513 14.1117 14.0551 14.1679 14.0551H14.1754V13.9913H14.1679ZM13.4479 13.4213H13.3729V12.9226C13.3954 12.9226 13.4179 12.9151 13.4629 12.9151C13.6129 12.9151 13.7067 13.0088 13.7067 13.1588C13.7067 13.3613 13.6204 13.4213 13.4479 13.4213Z" fill="#15171A"/>
<path d="M15.6144 12.8401V12.9038H15.5807C15.5094 12.9076 15.4382 12.9151 15.4344 13.1176V13.9013C15.4344 13.9613 15.4382 14.0213 15.4457 14.0738V14.0813H15.3669L14.4932 13.1063V13.7963C14.4932 13.9463 14.5157 13.9876 14.6469 13.9913H14.6844V14.0551H14.6769C14.6019 14.0551 14.5269 14.0513 14.4519 14.0513C14.3769 14.0513 14.2982 14.0551 14.2194 14.0551H14.2119V13.9913H14.2419C14.3582 13.9913 14.3882 13.9163 14.3919 13.7776V13.0538C14.3919 12.9601 14.3169 12.9038 14.2419 12.9038H14.2119V12.8401H14.2194C14.2832 12.8401 14.3507 12.8438 14.4182 12.8438C14.4669 12.8438 14.5194 12.8401 14.5757 12.8401L15.3332 13.6951V13.0613C15.3332 12.9226 15.2394 12.9076 15.1907 12.9038H15.1457V12.8401H15.1532C15.2357 12.8401 15.3144 12.8438 15.3932 12.8438C15.4644 12.8438 15.5357 12.8401 15.6069 12.8401H15.6144Z" fill="#15171A"/>
<path d="M16.7918 13.9909C16.7355 13.9909 16.7055 13.9722 16.683 13.9234C16.6605 13.8747 16.6418 13.8109 16.623 13.7509L16.3043 12.8472C16.3043 12.8472 16.293 12.8172 16.2893 12.8059C16.2818 12.7947 16.2743 12.7947 16.2705 12.7947C16.263 12.7947 16.2555 12.7984 16.2518 12.7984C16.218 12.8209 16.1505 12.8547 16.0943 12.8734C16.083 12.9409 16.0493 13.0272 16.0268 13.0909L15.753 13.8822C15.7268 13.9534 15.6743 13.9909 15.6105 13.9909H15.5918V14.0584H15.5993C15.6593 14.0547 15.723 14.0509 15.783 14.0509C15.8543 14.0509 15.9255 14.0547 15.993 14.0547H16.0005V13.9909H15.9743C15.918 13.9909 15.8543 13.9797 15.8505 13.9384C15.8505 13.9084 15.873 13.8634 15.8918 13.8034L15.9443 13.6309H16.323L16.3905 13.8259C16.4093 13.8784 16.4243 13.9272 16.4243 13.9459C16.4243 13.9797 16.3643 13.9909 16.323 13.9909H16.2968V14.0584H16.3043C16.3943 14.0547 16.4805 14.0509 16.563 14.0509C16.6455 14.0509 16.7243 14.0547 16.803 14.0547H16.8105V13.9909H16.7918ZM15.9818 13.5184L16.1318 13.0572L16.2818 13.5184H15.9818Z" fill="#15171A"/>
<path d="M18.3109 12.9976V13.8976C18.3109 13.9838 18.3671 13.9876 18.4309 13.9913H18.4609V14.0551H18.4571C18.3709 14.0551 18.2696 14.0476 18.1834 14.0476C18.0971 14.0476 17.9959 14.0551 17.9284 14.0551H17.9209V13.9913H17.9546C18.0146 13.9876 18.0746 13.9838 18.0746 13.8976V12.9976C18.0746 12.9638 18.0671 12.9451 18.0521 12.9301C18.0296 12.9076 17.9921 12.9076 17.9546 12.9038H17.9209V12.8401H17.9284C17.9959 12.8401 18.1009 12.8438 18.1834 12.8438C18.2659 12.8438 18.3746 12.8401 18.4571 12.8401H18.4609V12.9038H18.4309C18.3896 12.9076 18.3559 12.9076 18.3334 12.9301C18.3184 12.9451 18.3109 12.9638 18.3109 12.9976Z" fill="#15171A"/>
<path d="M21.2438 12.8401V12.9038H21.2101C21.1388 12.9076 21.0638 12.9151 21.0638 13.1176V13.9013C21.0638 13.9613 21.0638 14.0213 21.0713 14.0738V14.0813H20.9963L20.1188 13.1063V13.7963C20.1188 13.9463 20.1451 13.9876 20.2763 13.9913H20.3101V14.0551H20.3026C20.2313 14.0551 20.1563 14.0513 20.0813 14.0513C20.0063 14.0513 19.9238 14.0551 19.8488 14.0551H19.8413V13.9913H19.8713C19.9838 13.9876 20.0176 13.9163 20.0176 13.7776V13.0538C20.0176 12.9601 19.9426 12.9038 19.8713 12.9038H19.8413V12.8401H19.8488C19.9126 12.8401 19.9801 12.8438 20.0438 12.8438C20.0963 12.8438 20.1451 12.8401 20.2051 12.8401L20.9626 13.6951V13.0613C20.9626 12.9226 20.8688 12.9076 20.8201 12.9038H20.7751V12.8401H20.7826C20.8613 12.8401 20.9438 12.8438 21.0226 12.8438C21.0938 12.8438 21.1651 12.8401 21.2363 12.8401H21.2438Z" fill="#15171A"/>
<path d="M22.4212 13.9909C22.3649 13.9872 22.3349 13.9722 22.3124 13.9234C22.2899 13.8747 22.2712 13.8109 22.2487 13.7509L21.9337 12.8472C21.9337 12.8472 21.9224 12.8172 21.9149 12.8059C21.9112 12.7947 21.9037 12.7947 21.8962 12.7947C21.8887 12.7947 21.8849 12.7984 21.8812 12.7984C21.8474 12.8209 21.7799 12.8547 21.7237 12.8734C21.7087 12.9409 21.6787 13.0272 21.6562 13.0909L21.3787 13.8822C21.3562 13.9534 21.2999 13.9909 21.2362 13.9909H21.2212V14.0547H21.2287C21.2887 14.0547 21.3524 14.0509 21.4124 14.0509C21.4799 14.0509 21.5512 14.0547 21.6224 14.0547H21.6299V13.9909H21.6037C21.5437 13.9909 21.4799 13.9797 21.4799 13.9347C21.4799 13.9084 21.5024 13.8634 21.5174 13.8034L21.5699 13.6309H21.9524L22.0162 13.8259C22.0387 13.8784 22.0537 13.9272 22.0537 13.9459C22.0537 13.9797 21.9937 13.9909 21.9524 13.9909H21.9262V14.0547H21.9337C22.0237 14.0547 22.1099 14.0509 22.1924 14.0509C22.2749 14.0509 22.3537 14.0547 22.4287 14.0547H22.4362V13.9909H22.4212ZM21.6112 13.5184L21.7612 13.0572L21.9112 13.5184H21.6112Z" fill="#15171A"/>
<path d="M23.471 13.7476V13.7588C23.4522 13.8563 23.4297 13.9538 23.4072 14.0513L23.3997 14.0551C23.246 14.0551 23.096 14.0513 22.946 14.0513C22.796 14.0513 22.6422 14.0551 22.4885 14.0551H22.481V13.9913H22.5147C22.5747 13.9876 22.6347 13.9838 22.6347 13.8826V12.9938C22.6347 12.9113 22.5747 12.9076 22.5147 12.9038H22.481V12.8401H22.4885C22.5822 12.8401 22.6722 12.8438 22.7622 12.8438C22.8522 12.8438 22.9347 12.8401 23.0247 12.8401H23.0322V12.9038H22.9797C22.9122 12.9076 22.871 12.9038 22.871 12.9901V13.8788C22.871 13.9426 22.9122 13.9613 22.9685 13.9688C22.9985 13.9726 23.0285 13.9726 23.0622 13.9726C23.1035 13.9726 23.1485 13.9688 23.1935 13.9651C23.2647 13.9576 23.3247 13.9163 23.3547 13.8751C23.381 13.8376 23.396 13.7926 23.4072 13.7551V13.7476H23.471Z" fill="#15171A"/>
<path d="M23.4446 12.7991C23.5496 12.7991 23.6246 12.8778 23.6246 12.9828C23.6246 13.0878 23.5459 13.1628 23.4446 13.1628C23.3434 13.1628 23.2646 13.0841 23.2646 12.9828C23.2646 12.8816 23.3434 12.7991 23.4446 12.7991ZM23.4446 13.1291C23.5271 13.1291 23.5871 13.0616 23.5871 12.9828C23.5871 12.9041 23.5271 12.8328 23.4446 12.8328C23.3621 12.8328 23.3021 12.9041 23.3021 12.9828C23.3021 13.0616 23.3659 13.1291 23.4446 13.1291ZM23.3546 13.0766V13.0691C23.3771 13.0691 23.3809 13.0691 23.3809 13.0541V12.9191C23.3809 12.9003 23.3809 12.8928 23.3546 12.8928V12.8853H23.4484C23.4821 12.8853 23.5084 12.9003 23.5084 12.9341C23.5084 12.9603 23.4896 12.9828 23.4671 12.9903L23.4971 13.0316C23.5121 13.0503 23.5271 13.0691 23.5384 13.0728V13.0803H23.5046C23.5046 13.0803 23.4746 13.0428 23.4409 12.9978H23.4221V13.0578C23.4221 13.0578 23.4259 13.0691 23.4484 13.0728V13.0803H23.3621L23.3546 13.0766ZM23.4146 12.9791H23.4371C23.4596 12.9791 23.4709 12.9603 23.4709 12.9341C23.4709 12.9078 23.4521 12.8966 23.4371 12.8966H23.4184V12.9828L23.4146 12.9791Z" fill="#15171A"/>
<path fill-rule="evenodd" clip-rule="evenodd" d="M5.16715 12.0075C5.16715 12.75 4.70215 13.3837 4.0459 13.6387V10.3762C4.70215 10.6275 5.16715 11.2612 5.16715 12.0075Z" fill="#15171A"/>
<path fill-rule="evenodd" clip-rule="evenodd" d="M4.83064 9H3.41314C1.80064 9 0.461895 10.1662 0.379395 11.8687V12.1912C0.461895 13.7625 1.80064 15.03 3.41314 15.0225H4.83064C6.47689 15.03 7.98064 13.68 7.98064 12.0375C7.98064 10.2412 6.47689 9 4.83064 9ZM3.42064 14.7637C1.89814 14.7637 0.664395 13.53 0.664395 12.0075C0.664395 10.485 1.89814 9.2475 3.42064 9.2475C4.94314 9.2475 6.17689 10.4813 6.17689 12.0075C6.17689 13.5338 4.94314 14.7637 3.42064 14.7637Z" fill="#15171A"/>
<path fill-rule="evenodd" clip-rule="evenodd" d="M2.7941 10.3762V13.635C2.13785 13.3837 1.67285 12.75 1.67285 12.0075C1.67285 11.265 2.13785 10.6275 2.7941 10.3762Z" fill="#15171A"/>
</svg>
