<svg width="24" height="24" viewBox="0 0 24 24" fill="none" xmlns="http://www.w3.org/2000/svg">
<path d="M8.1375 9.71249C8.2875 9.71249 8.4375 9.71249 8.55 9.71249V14.8875C8.55 15.3375 8.925 15.7125 9.375 15.7125C9.825 15.7125 10.2 15.3375 10.2 14.8875V2.32499H13.0125V14.8875C13.0125 15.3375 13.3875 15.7125 13.8375 15.7125C14.2875 15.7125 14.6625 15.3375 14.6625 14.8875V2.32499H19.5375C19.9875 2.32499 20.3625 1.94999 20.3625 1.49999C20.3625 1.04999 19.9875 0.674988 19.5375 0.674988H8.1375C8.1375 0.674988 8.1375 0.674988 8.1 0.674988C5.5875 0.674988 3.5625 2.62499 3.5625 5.17499C3.5625 7.68749 5.625 9.71249 8.1375 9.71249ZM8.1375 2.32499C8.2125 2.32499 8.3625 2.32499 8.55 2.32499V8.02499C8.4375 8.02499 8.2875 8.02499 8.1375 8.02499C6.525 8.02499 5.2875 6.74999 5.2875 5.17499C5.25 3.59999 6.525 2.32499 8.1375 2.32499Z" fill="#161A23"/>
<path d="M19.3875 19.125H7.16252L8.25002 18.0375C8.58752 17.7 8.58752 17.175 8.25002 16.8375C7.91252 16.5 7.38752 16.5 7.05002 16.8375L4.57502 19.35C4.23752 19.6875 4.23752 20.2125 4.57502 20.55L7.05002 23.0625C7.20002 23.2125 7.42502 23.325 7.65002 23.325C7.87502 23.325 8.06252 23.25 8.25002 23.1C8.58752 22.7625 8.58752 22.2375 8.25002 21.9L7.16252 20.8125H19.3875C19.8375 20.8125 20.2125 20.4375 20.2125 19.9875C20.2125 19.5375 19.8375 19.125 19.3875 19.125Z" fill="#161A23"/>
</svg>
