<svg width="24" height="24" viewBox="0 0 24 24" fill="none" xmlns="http://www.w3.org/2000/svg">
<path d="M17.175 11.2125H13.7625V9.03749H15.375C15.75 9.03749 16.125 8.88749 16.3875 8.58749L17.6625 7.19999C18.1125 6.67499 18.1125 5.88749 17.6625 5.39999L16.3875 4.01249C16.125 3.71249 15.75 3.56249 15.375 3.56249H13.7625V1.49999C13.7625 1.04999 13.3875 0.674988 12.9375 0.674988C12.4875 0.674988 12.1125 1.04999 12.1125 1.49999V3.52499H6.82498C6.07498 3.52499 5.47498 4.12499 5.47498 4.87499V7.68749C5.47498 8.43749 6.07498 9.03749 6.82498 9.03749H12.1125V11.2125H8.62498C8.24998 11.2125 7.87498 11.3625 7.61248 11.6625L6.33748 13.05C5.88748 13.575 5.88748 14.3625 6.33748 14.85L7.61248 16.2375C7.87498 16.5375 8.24998 16.6875 8.62498 16.6875H12.1125V22.5C12.1125 22.95 12.4875 23.325 12.9375 23.325C13.3875 23.325 13.7625 22.95 13.7625 22.5V16.725H17.175C17.925 16.725 18.525 16.125 18.525 15.375V12.5625C18.525 11.8125 17.925 11.2125 17.175 11.2125ZM7.16248 5.21249H15.2625L16.2375 6.26249L15.2625 7.31249H7.16248V5.21249ZM16.8375 15.0375H8.73748L7.76248 13.9875L8.73748 12.9375H16.8375V15.0375Z" fill="#161A23"/>
</svg>
