<svg width="24" height="24" viewBox="0 0 24 24" fill="none" xmlns="http://www.w3.org/2000/svg">
<path d="M21.9 6.56249L20.1 4.23749C19.7625 3.78749 19.2 3.52499 18.6375 3.52499H10.0875V1.49999C10.0875 1.04999 9.71248 0.674988 9.26248 0.674988C8.81248 0.674988 8.43748 1.04999 8.43748 1.49999V3.52499H3.56248C2.54998 3.52499 1.72498 4.34999 1.72498 5.36249V10.0125C1.72498 11.025 2.54998 11.85 3.56248 11.85H8.39998V22.5C8.39998 22.95 8.77498 23.325 9.22498 23.325C9.67498 23.325 10.05 22.95 10.05 22.5V11.8875H18.5625C19.125 11.8875 19.6875 11.625 20.025 11.175L21.825 8.84999C22.425 8.17499 22.425 7.23749 21.9 6.56249ZM20.55 7.79999L18.75 10.125C18.7125 10.1625 18.675 10.2 18.6 10.2H3.56248C3.48748 10.2 3.41248 10.125 3.41248 10.05V5.36249C3.41248 5.28749 3.48748 5.21249 3.56248 5.21249H18.6C18.6375 5.21249 18.7125 5.24999 18.75 5.28749L20.55 7.61249C20.5875 7.64999 20.5875 7.76249 20.55 7.79999Z" fill="#161A23"/>
</svg>
