<svg width="24" height="24" viewBox="0 0 24 24" fill="none" xmlns="http://www.w3.org/2000/svg">
<path d="M8.1375 9.71249C8.2875 9.71249 8.4375 9.71249 8.55 9.71249V14.8875C8.55 15.3375 8.925 15.7125 9.375 15.7125C9.825 15.7125 10.2 15.3375 10.2 14.8875V2.32499H13.0125V14.8875C13.0125 15.3375 13.3875 15.7125 13.8375 15.7125C14.2875 15.7125 14.6625 15.3375 14.6625 14.8875V2.32499H19.5375C19.9875 2.32499 20.3625 1.94999 20.3625 1.49999C20.3625 1.04999 19.9875 0.674988 19.5375 0.674988H8.1375C8.1375 0.674988 8.1375 0.674988 8.1 0.674988C5.5875 0.674988 3.5625 2.62499 3.5625 5.17499C3.5625 7.68749 5.625 9.71249 8.1375 9.71249ZM8.1375 2.32499C8.2125 2.32499 8.3625 2.32499 8.55 2.32499V8.02499C8.4375 8.02499 8.2875 8.02499 8.1375 8.02499C6.525 8.02499 5.2875 6.74999 5.2875 5.17499C5.25 3.59999 6.525 2.32499 8.1375 2.32499Z" fill="#161A23"/>
<path d="M17.5125 16.8375C17.175 16.5 16.65 16.5 16.3125 16.8375C15.975 17.175 15.975 17.7 16.3125 18.0375L17.4 19.125H5.1375C4.6875 19.125 4.3125 19.5 4.3125 19.95C4.3125 20.4 4.6875 20.775 5.1375 20.775H17.3625L16.275 21.8625C15.9375 22.2 15.9375 22.725 16.275 23.0625C16.425 23.2125 16.65 23.2875 16.875 23.2875C17.1 23.2875 17.325 23.2125 17.475 23.025L19.95 20.5125C20.2875 20.175 20.2875 19.65 19.95 19.3125L17.5125 16.8375Z" fill="#161A23"/>
</svg>
