<svg width="24" height="24" viewBox="0 0 24 24" fill="none" xmlns="http://www.w3.org/2000/svg">
<path d="M11.925 12.1124C11.475 12.1124 11.1 12.4874 11.1 12.9374V17.1374C11.1 17.5874 11.475 17.9624 11.925 17.9624C12.375 17.9624 12.7875 17.5874 12.7875 17.1374V12.9374C12.75 12.4874 12.375 12.1124 11.925 12.1124Z" fill="#161A23"/>
<path d="M10.275 14.5875C10.2375 14.55 10.2375 14.475 10.2 14.4375C10.1625 14.4 10.125 14.3625 10.0875 14.325C9.7875 14.025 9.225 14.025 8.8875 14.325C8.85 14.3625 8.8125 14.4 8.775 14.4375C8.7375 14.475 8.7375 14.55 8.7 14.5875C8.7 14.625 8.6625 14.7 8.6625 14.7375C8.6625 14.8125 8.625 14.85 8.625 14.8875C8.625 15.1125 8.7 15.3375 8.8875 15.4875C9.0375 15.6375 9.2625 15.75 9.4875 15.75C9.7125 15.75 9.9375 15.675 10.0875 15.4875C10.125 15.45 10.1625 15.4125 10.2 15.375C10.2375 15.3375 10.275 15.3 10.275 15.225C10.3125 15.1875 10.3125 15.1125 10.3125 15.075C10.3125 15 10.3125 14.9625 10.3125 14.8875C10.3125 14.85 10.3125 14.775 10.3125 14.7375C10.3125 14.7 10.275 14.6625 10.275 14.5875Z" fill="#161A23"/>
<path d="M15.1125 14.7C15.075 14.6625 15.075 14.5875 15.0375 14.55C15 14.5125 14.9625 14.475 14.925 14.4375C14.8875 14.4 14.85 14.3625 14.8125 14.325C14.775 14.2875 14.7375 14.25 14.6625 14.25C14.625 14.2125 14.55 14.2125 14.5125 14.2125C14.25 14.1375 13.95 14.25 13.7625 14.4375C13.725 14.475 13.6875 14.5125 13.65 14.55C13.6125 14.5875 13.575 14.6625 13.575 14.7C13.5375 14.7375 13.5375 14.8125 13.5375 14.85C13.5375 14.925 13.5375 14.9625 13.5375 15C13.5375 15.075 13.5375 15.1125 13.5375 15.1875C13.5375 15.225 13.575 15.3 13.575 15.3375C13.6125 15.375 13.6125 15.45 13.65 15.4875C13.6875 15.525 13.725 15.5625 13.7625 15.6C13.9125 15.75 14.1375 15.8625 14.3625 15.8625C14.5875 15.8625 14.8125 15.7875 14.9625 15.6C15 15.5625 15.0375 15.525 15.075 15.4875C15.1125 15.45 15.1125 15.4125 15.15 15.3375C15.1875 15.3 15.1875 15.225 15.1875 15.1875C15.1875 15.15 15.1875 15.075 15.1875 15C15.1875 14.9625 15.1875 14.8875 15.1875 14.85C15.15 14.8125 15.15 14.775 15.1125 14.7Z" fill="#161A23"/>
<path d="M19.7625 13.6875L13.2375 7.16248C12.6 6.52498 11.625 6.29998 10.7625 6.63748L7.31252 7.94998C7.20002 7.46248 7.12502 6.93748 7.12502 6.44998C7.12502 4.79998 7.76252 3.26248 8.92502 2.09998C9.26252 1.76248 9.26252 1.23748 8.92502 0.899976C8.58752 0.562476 8.06253 0.562476 7.72503 0.899976C6.22503 2.39998 5.43753 4.34998 5.43753 6.44998C5.43753 7.19998 5.55003 7.94998 5.73753 8.62498C5.66253 8.69998 5.58753 8.81248 5.51253 8.92498L3.71252 13.6875C3.37502 14.55 3.60003 15.4875 4.23753 16.1625L10.7625 22.6875C11.2125 23.1375 11.8125 23.3625 12.4125 23.3625C13.0125 23.3625 13.6125 23.1375 14.0625 22.6875L19.7625 16.9875C20.6625 16.05 20.6625 14.5875 19.7625 13.6875ZM18.5625 15.75L12.8625 21.4875C12.6375 21.7125 12.225 21.7125 12 21.4875L5.43753 14.9625C5.25003 14.775 5.21253 14.5125 5.28753 14.2875L6.67502 10.6875C6.97502 11.175 7.31253 11.5875 7.72503 12C7.72503 12 7.72503 12 7.76253 12C7.80002 12.0375 7.83752 12.075 7.87502 12.075C7.91252 12.075 7.91253 12.1125 7.95003 12.1125C7.98752 12.1125 7.98752 12.15 8.02502 12.15C8.13752 12.1875 8.21253 12.225 8.32503 12.225C8.32503 12.225 8.32502 12.225 8.36252 12.225C8.36252 12.225 8.36252 12.225 8.40002 12.225C8.51252 12.225 8.58753 12.1875 8.70003 12.15C8.73752 12.15 8.77502 12.1125 8.81252 12.075H8.85003C8.88753 12.0375 8.92502 12 8.96252 11.9625C9.00002 11.925 9.03753 11.8875 9.07503 11.85V11.8125C9.11252 11.775 9.11252 11.7375 9.15002 11.7C9.15002 11.6625 9.18752 11.5875 9.18752 11.55C9.18752 11.5125 9.18752 11.4375 9.18752 11.4C9.18752 11.3625 9.18752 11.2875 9.18752 11.25C9.18752 11.2125 9.15002 11.175 9.15002 11.1C9.15002 11.1 9.15002 11.1 9.15002 11.0625L9.11252 11.025C9.07502 10.95 9.03752 10.875 8.96252 10.8C8.58752 10.425 8.25002 9.97498 7.98752 9.52497L11.4 8.21248C11.625 8.13748 11.8875 8.17498 12.075 8.36248L18.6 14.8875C18.7875 15.1125 18.7875 15.525 18.5625 15.75Z" fill="#161A23"/>
</svg>
