<svg width="24" height="24" viewBox="0 0 24 24" fill="none" xmlns="http://www.w3.org/2000/svg">
<g clip-path="url(#clip0_914_44970)">
<mask id="mask0_914_44970" style="mask-type:luminance" maskUnits="userSpaceOnUse" x="0" y="0" width="24" height="24">
<path d="M24 0H0V24H24V0Z" fill="white"/>
</mask>
<g mask="url(#mask0_914_44970)">
<path d="M20.3303 4.22783C18.7767 3.50093 17.1156 2.97267 15.3789 2.67188C15.1656 3.05749 14.9165 3.57614 14.7446 3.98872C12.8985 3.71109 11.0693 3.71109 9.25718 3.98872C9.08539 3.57614 8.83054 3.05749 8.61536 2.67188C6.87683 2.97267 5.21374 3.50288 3.66019 4.23165C0.526643 8.96685 -0.322811 13.5845 0.101917 18.1365C2.18025 19.6885 4.19441 20.6313 6.17456 21.2483C6.66349 20.5754 7.09954 19.8601 7.47517 19.1063C6.75975 18.8344 6.07451 18.499 5.42708 18.1095C5.59882 17.9822 5.76686 17.8492 5.92916 17.7123C9.87821 19.5594 14.1689 19.5594 18.0707 17.7123C18.235 17.8492 18.4029 17.9822 18.5728 18.1095C17.9235 18.5009 17.2364 18.8363 16.521 19.1082C16.8966 19.8601 17.3308 20.5774 17.8216 21.2502C19.8036 20.6333 21.8197 19.6905 23.898 18.1365C24.3963 12.8595 23.0467 8.28435 20.3303 4.22783ZM8.01319 15.337C6.82774 15.337 5.85555 14.2303 5.85555 12.8826C5.85555 11.535 6.80696 10.4264 8.01319 10.4264C9.21941 10.4264 10.1916 11.533 10.1708 12.8826C10.1727 14.2303 9.21941 15.337 8.01319 15.337ZM15.9867 15.337C14.8013 15.337 13.8291 14.2303 13.8291 12.8826C13.8291 11.535 14.7805 10.4264 15.9867 10.4264C17.193 10.4264 18.1651 11.533 18.1444 12.8826C18.1444 14.2303 17.193 15.337 15.9867 15.337Z" fill="#15171A"/>
</g>
</g>
<defs>
<clipPath id="clip0_914_44970">
<rect width="24" height="24" fill="white"/>
</clipPath>
</defs>
</svg>
