<svg width="24" height="24" viewBox="0 0 24 24" fill="none" xmlns="http://www.w3.org/2000/svg">
<path fill-rule="evenodd" clip-rule="evenodd" d="M23.6251 11.1562V18.0441H4.37842C16.828 15.9152 23.6251 11.1562 23.6251 11.1562Z" fill="#15171A"/>
<path fill-rule="evenodd" clip-rule="evenodd" d="M7.4849 10.8042V12.0502L6.58032 11.1129V11.9812H6.42773V10.7388C6.42773 10.7388 7.29233 11.6361 7.33231 11.6797V10.8042H7.4849Z" fill="#15171A"/>
<path fill-rule="evenodd" clip-rule="evenodd" d="M8.23999 10.9493V11.2654H8.70135V11.407H8.23999V11.8357H8.71226V11.981H8.0874V10.804H8.71226V10.9493H8.23999Z" fill="#15171A"/>
<path fill-rule="evenodd" clip-rule="evenodd" d="M9.91118 10.804V10.9493H9.62783V11.981H9.47164V10.9493H9.19189V10.804H9.91118Z" fill="#15171A"/>
<path fill-rule="evenodd" clip-rule="evenodd" d="M11.9741 10.804L11.5127 12.061C11.5127 12.061 11.1603 11.1855 11.1385 11.1346C11.1167 11.1855 10.7607 12.061 10.7607 12.061L10.2993 10.804H10.4665L10.7643 11.6468C10.7861 11.5924 11.1276 10.7532 11.1276 10.7532L11.1385 10.7241C11.1385 10.7241 11.4909 11.5924 11.5127 11.6468L11.8106 10.804H11.9741Z" fill="#15171A"/>
<path fill-rule="evenodd" clip-rule="evenodd" d="M13.0248 10.7856C12.687 10.7856 12.4072 11.0581 12.4072 11.3923C12.4072 11.7266 12.687 11.999 13.0248 11.999C13.3627 11.999 13.6424 11.7266 13.6424 11.3923C13.6424 11.0581 13.3663 10.7856 13.0248 10.7856ZM13.0248 11.8573C12.7705 11.8573 12.5635 11.6466 12.5635 11.3923C12.5635 11.138 12.7705 10.9273 13.0248 10.9273C13.2791 10.9273 13.4898 11.138 13.4898 11.3923C13.4898 11.6466 13.2827 11.8573 13.0248 11.8573Z" fill="#15171A"/>
<path fill-rule="evenodd" clip-rule="evenodd" d="M14.5139 11.4579C14.6847 11.4361 14.7936 11.3126 14.7936 11.1346C14.7936 10.913 14.652 10.804 14.3577 10.804H14.1797V11.981H14.3323V11.476H14.3541L14.6919 11.9737L14.8627 11.981H14.8845C14.8845 11.981 14.5321 11.4869 14.5139 11.4579ZM14.3323 11.338V10.9493H14.3577C14.5067 10.9493 14.6411 10.9638 14.6411 11.1418C14.6411 11.3198 14.4994 11.338 14.3613 11.338H14.3323Z" fill="#15171A"/>
<path fill-rule="evenodd" clip-rule="evenodd" d="M16.2543 11.981H16.04C16.04 11.981 15.5859 11.476 15.5713 11.4579H15.5677L15.5532 11.4724V11.981H15.397V10.804H15.5532V11.2799L16.0291 10.804H16.2361C16.2361 10.804 15.6949 11.338 15.6803 11.3525C15.6949 11.3707 16.2543 11.981 16.2543 11.981Z" fill="#15171A"/>
<path fill-rule="evenodd" clip-rule="evenodd" d="M22.1968 6.47021C22.0479 6.47021 21.9316 6.5901 21.9316 6.73541C21.9316 6.88073 22.0515 7.00061 22.1968 7.00061C22.3422 7.00061 22.462 6.88073 22.462 6.73541C22.462 6.5901 22.3422 6.47021 22.1968 6.47021ZM22.1968 6.95336C22.0806 6.95336 21.9825 6.8553 21.9825 6.73541C21.9825 6.61553 22.077 6.52106 22.1968 6.52106C22.3167 6.52106 22.4075 6.61916 22.4075 6.73541C22.4075 6.85166 22.3131 6.95336 22.1968 6.95336Z" fill="#15171A"/>
<path fill-rule="evenodd" clip-rule="evenodd" d="M22.2329 6.76395C22.2729 6.75304 22.2983 6.72034 22.2983 6.67676C22.2983 6.61864 22.2584 6.58594 22.1821 6.58594H22.084V6.88748H22.1567V6.77123L22.2438 6.88748H22.3347L22.2329 6.76395ZM22.1712 6.72034H22.1567V6.64042H22.1712C22.2075 6.64042 22.2257 6.65497 22.2257 6.6804C22.2257 6.70582 22.2075 6.72034 22.1712 6.72034Z" fill="#15171A"/>
<path fill-rule="evenodd" clip-rule="evenodd" d="M21.0316 8.41337C21.5402 8.31167 21.8235 7.96292 21.8235 7.43616C21.8235 6.79314 21.3767 6.42261 20.5956 6.42261H19.5894V9.86286H20.2687V8.47877H20.3559L21.2931 9.86286H22.1251L21.0316 8.41337ZM20.4649 8.00649H20.2687V6.96388H20.4757C20.8972 6.96388 21.126 7.13826 21.126 7.47246C21.126 7.80669 20.8972 8.00649 20.4649 8.00649Z" fill="#15171A"/>
<path fill-rule="evenodd" clip-rule="evenodd" d="M17.8993 7.00386V7.76672H19.0945V8.35161H17.8993V9.28161H19.1418V9.86286H17.2236V6.42261H19.1418V7.00386H17.8993Z" fill="#15171A"/>
<path fill-rule="evenodd" clip-rule="evenodd" d="M16.9148 6.42261L15.418 9.95004H15.0548L13.5835 6.42261H14.3209L15.2473 8.73306L16.1846 6.42261H16.9148Z" fill="#15171A"/>
<path d="M13.1134 9.45501C13.8185 8.7499 13.8185 7.60671 13.1134 6.90164C12.4083 6.19652 11.2652 6.19652 10.5601 6.90164C9.85498 7.60671 9.85498 8.7499 10.5601 9.45501C11.2652 10.1601 12.4083 10.1601 13.1134 9.45501Z" fill="#15171A"/>
<path fill-rule="evenodd" clip-rule="evenodd" d="M1.37039 6.42261H0.375V9.86286H1.36312C1.88988 9.86286 2.2677 9.73933 2.60191 9.46689C2.99789 9.13993 3.23039 8.64951 3.23039 8.14453C3.23039 7.12734 2.4675 6.42261 1.37039 6.42261ZM2.15871 9.00553C1.94801 9.19806 1.67192 9.28161 1.23234 9.28161H1.0507V7.00386H1.23234C1.67192 7.00386 1.93711 7.08377 2.15871 7.28357C2.39484 7.49064 2.53289 7.81033 2.53289 8.14089C2.53289 8.47149 2.39484 8.80209 2.15871 9.00553Z" fill="#15171A"/>
<path d="M4.21916 6.42261H3.54346V9.86286H4.21916V6.42261Z" fill="#15171A"/>
<path fill-rule="evenodd" clip-rule="evenodd" d="M6.8706 8.81687C6.8706 9.48167 6.38018 9.94667 5.6754 9.94667C5.15955 9.94667 4.78534 9.74323 4.47656 9.29278L4.9125 8.87136C5.06873 9.1729 5.32665 9.33272 5.64997 9.33272C5.95147 9.33272 6.17674 9.12568 6.17674 8.84593C6.17674 8.70062 6.1077 8.58073 5.97326 8.48991C5.90426 8.44997 5.76982 8.38821 5.50466 8.29375C4.86889 8.06852 4.65094 7.82511 4.65094 7.34923C4.65094 6.78977 5.11958 6.36475 5.73353 6.36475C6.11134 6.36475 6.46009 6.49551 6.75435 6.74616L6.39833 7.20392C6.22395 7.01136 6.05685 6.92781 5.85341 6.92781C5.56279 6.92781 5.34844 7.09131 5.34844 7.30926C5.34844 7.49455 5.46833 7.59261 5.8752 7.74156C6.64534 8.02131 6.8706 8.26832 6.8706 8.81687Z" fill="#15171A"/>
<path fill-rule="evenodd" clip-rule="evenodd" d="M7.78295 8.14101C7.78295 8.83487 8.26614 9.3253 8.94909 9.3253C9.25426 9.3253 9.494 9.21996 9.76647 8.95112V9.73945C9.4577 9.88476 9.20701 9.93925 8.91639 9.93925C7.88832 9.93925 7.08545 9.1582 7.08545 8.14465C7.08545 7.1311 7.90647 6.34277 8.93094 6.34277C9.2252 6.34277 9.46857 6.40454 9.76647 6.55345V7.34541C9.48312 7.07297 9.23971 6.95672 8.91639 6.95672C8.28065 6.95672 7.78295 7.47985 7.78295 8.14101Z" fill="#15171A"/>
</svg>
