<svg width="24" height="24" viewBox="0 0 24 24" fill="none" xmlns="http://www.w3.org/2000/svg">
<path d="M9.89883 10.1624C9.22383 10.1624 8.73633 10.7624 8.73633 11.4374C8.73633 12.1124 9.26133 12.7124 9.89883 12.7124C10.5738 12.7124 11.0613 12.1499 11.0613 11.4374C11.0988 10.7249 10.5738 10.1624 9.89883 10.1624Z" fill="#15171A"/>
<path d="M14.1 12.675C14.742 12.675 15.2625 12.1042 15.2625 11.4C15.2625 10.6958 14.742 10.125 14.1 10.125C13.458 10.125 12.9375 10.6958 12.9375 11.4C12.9375 12.1042 13.458 12.675 14.1 12.675Z" fill="#15171A"/>
<path d="M19.7619 0.375H4.2369C2.92441 0.375 1.83691 1.425 1.83691 2.7375V18.45C1.83691 19.7625 2.88691 20.8125 4.1994 20.8125H17.3619L16.7244 18.7125L18.1869 20.1L19.6119 21.4125L22.0869 23.625V2.7375C22.1994 1.425 21.0744 0.375 19.7619 0.375ZM15.2619 15.525C15.2619 15.525 14.8494 15.0375 14.4744 14.5875C16.0119 14.175 16.5744 13.2 16.5744 13.2C16.0869 13.5 15.6369 13.725 15.2619 13.875C14.6994 14.1375 14.0994 14.2875 13.5744 14.3625C12.4494 14.5875 11.4744 14.5125 10.5744 14.3625C9.8994 14.25 9.3744 14.0625 8.8869 13.875C8.6244 13.7625 8.2869 13.65 8.0244 13.5C7.9869 13.5 7.9869 13.4625 7.9119 13.4625C7.9119 13.4625 7.8744 13.4625 7.8744 13.425C7.6494 13.3125 7.5744 13.2 7.5744 13.2C7.5744 13.2 8.1744 14.1375 9.6369 14.5875C9.2619 15 8.8494 15.525 8.8494 15.525C6.2619 15.4125 5.3244 13.8 5.3244 13.8C5.3244 10.05 7.0119 7.05 7.0119 7.05C8.6994 5.775 10.2744 5.85 10.2744 5.85L10.3869 6C8.2494 6.5625 7.3119 7.5 7.3119 7.5C7.3119 7.5 7.5744 7.35 7.9869 7.2C9.2619 6.675 10.1994 6.525 10.6119 6.45C10.6494 6.45 10.7244 6.45 10.8369 6.45C11.5119 6.3375 12.3744 6.3375 13.1619 6.45C14.2869 6.5625 15.4494 6.9375 16.6494 7.575C16.6494 7.575 15.7494 6.7125 13.7244 6.1125L13.8744 5.8875C13.8744 5.8875 15.4494 5.85 17.1369 7.0875C17.1369 7.0875 18.8244 10.0875 18.8244 13.8375C18.8619 13.8 17.8494 15.4875 15.2619 15.525Z" fill="#15171A"/>
</svg>
