<svg width="24" height="24" viewBox="0 0 24 24" fill="none" xmlns="http://www.w3.org/2000/svg">
<path d="M22.9125 11.925L21.7875 4.95005C21.525 2.77505 19.95 1.46255 17.5875 1.46255H8.925C8.475 1.46255 8.025 1.53755 7.6125 1.72505C7.5 1.42505 7.2 1.23755 6.825 1.23755H3C1.9125 1.23755 1.05 2.13755 1.05 3.18755V13.725C1.05 14.8125 1.95 15.675 3 15.675H6.825C7.2 15.675 7.5 15.45 7.6125 15.15C8.4375 15.5625 9.6 16.3875 9.6 17.8125V21.375C9.6 21.975 9.975 22.5 10.5375 22.65C10.5375 22.65 11.175 22.875 12 22.875C12.9 22.875 13.65 22.65 14.2875 22.2001C15.3 21.4501 15.7875 20.2875 15.7875 18.675V16.35H19.35C20.2125 16.35 21.0375 16.05 21.7125 15.4875C22.65 14.5125 23.1375 13.2 22.9125 11.925ZM6 13.95H3C2.85 13.95 2.7 13.8375 2.7 13.65V3.15005C2.7 3.00005 2.85 2.88755 3 2.88755H6V13.95ZM20.5875 14.0625C20.2125 14.3625 19.7625 14.55 19.3125 14.55H15.6C14.7375 14.55 14.0625 15.225 14.0625 16.0875V18.5625C14.0625 19.6125 13.8 20.3625 13.2375 20.7375C12.9 20.9625 12.4875 21.1125 11.9625 21.1125C11.7 21.1125 11.4375 21.075 11.2875 21.0375V17.7375C11.2875 15.2625 9.1875 13.8375 7.6875 13.275V3.56255C8.025 3.30005 8.475 3.11255 8.925 3.11255H17.625C18.675 3.11255 19.95 3.45005 20.175 5.17505L21.3 12.15C21.375 12.9 21.1125 13.6125 20.5875 14.0625Z" fill="#161A23"/>
</svg>
