<svg width="24" height="24" viewBox="0 0 24 24" fill="none" xmlns="http://www.w3.org/2000/svg">
<path d="M21.0375 3.52502H2.96249C1.68749 3.52502 0.674988 4.53752 0.674988 5.81252V14.3625C0.674988 15.6375 1.68749 16.65 2.96249 16.65H11.175V18.7875H8.21249C7.76249 18.7875 7.34999 19.1625 7.34999 19.65C7.34999 20.1375 7.72499 20.5125 8.21249 20.5125H15.8625C16.3125 20.5125 16.725 20.1375 16.725 19.65C16.725 19.1625 16.35 18.7875 15.8625 18.7875H12.9V16.65H21.1125C22.3875 16.65 23.4 15.6375 23.4 14.3625V5.81252C23.3625 4.53752 22.3125 3.52502 21.0375 3.52502ZM21.675 14.3625C21.675 14.7 21.4125 14.9625 21.075 14.9625H2.96249C2.62499 14.9625 2.36249 14.7 2.36249 14.3625V5.81252C2.36249 5.47502 2.62499 5.21252 2.96249 5.21252H21.075C21.4125 5.21252 21.675 5.47502 21.675 5.81252V14.3625Z" fill="#161A23"/>
</svg>
