<svg width="24" height="24" viewBox="0 0 24 24" fill="none" xmlns="http://www.w3.org/2000/svg">
<path d="M21 1.42499H3.00001C1.72501 1.42499 0.637512 2.47499 0.637512 3.78749V15.1125C0.637512 16.3875 1.68751 17.475 3.00001 17.475H8.88751L7.95001 20.925H6.26251C5.81251 20.925 5.40001 21.3 5.40001 21.7875C5.40001 22.275 5.77501 22.65 6.26251 22.65H17.7C18.15 22.65 18.5625 22.275 18.5625 21.7875C18.5625 21.3 18.1875 20.925 17.7 20.925H16.0125L15.075 17.475H21C22.275 17.475 23.3625 16.425 23.3625 15.1125V3.78749C23.3625 2.47499 22.275 1.42499 21 1.42499ZM14.325 20.8875H9.67501L10.6125 17.4375H13.35L14.325 20.8875ZM21.675 15.075C21.675 15.45 21.375 15.75 21 15.75H3.00001C2.62501 15.75 2.32501 15.45 2.32501 15.075V3.78749C2.32501 3.41249 2.62501 3.11249 3.00001 3.11249H21C21.375 3.11249 21.675 3.41249 21.675 3.78749V15.075Z" fill="#161A23"/>
</svg>
