<svg width="24" height="24" viewBox="0 0 24 24" fill="none" xmlns="http://www.w3.org/2000/svg">
<path d="M13.1245 11.2126H10.762V9.03757H13.1245V11.2126ZM13.1245 3.82507H10.762V6.03757H13.1245V3.82507ZM15.9745 9.11257H13.612V11.2501H15.9745V9.11257ZM10.312 6.45007H7.94951V8.62507H10.312V6.45007ZM13.1245 6.45007H10.762V8.62507H13.1245V6.45007ZM23.212 10.0876C22.687 9.71257 21.487 9.60007 20.587 9.78757C20.4745 8.88757 19.9495 8.13757 19.1245 7.46257L18.5995 7.16257L18.2995 7.68757C17.662 8.70007 17.437 10.3876 18.1495 11.4751C17.8495 11.6251 17.212 11.8876 16.4245 11.8876H0.449494C0.149494 13.7251 0.674494 16.1626 2.02449 17.8126C3.33699 19.3876 5.39948 20.1751 8.02448 20.1751C13.7245 20.1751 17.9995 17.5501 19.9495 12.7501C20.6995 12.7501 22.4245 12.7501 23.287 11.1001C23.3245 11.0626 23.5495 10.6126 23.587 10.4626L23.212 10.0876ZM4.64951 9.11257H2.24949V11.2501H4.61201V9.11257H4.64951ZM7.46198 9.11257H5.09951V11.2501H7.46198V9.11257ZM10.312 9.11257H7.94951V11.2501H10.312V9.11257ZM7.46198 6.45007H5.09951V8.62507H7.46198V6.45007Z" fill="#15171A"/>
</svg>
