<svg width="24" height="24" viewBox="0 0 24 24" fill="none" xmlns="http://www.w3.org/2000/svg">
<path d="M14.8126 11.175H9.1876C7.3501 11.175 5.8126 9.75005 5.8126 7.98755C5.8126 6.22505 7.3126 4.80005 9.1876 4.80005H17.4751C17.9251 4.80005 18.3001 4.42505 18.3001 3.97505C18.3001 3.52505 17.9251 3.15005 17.4751 3.15005H13.5751V1.50005C13.5751 1.05005 13.2001 0.675049 12.7501 0.675049C12.3001 0.675049 11.9251 1.05005 11.9251 1.50005V3.07505H9.2251C6.4501 3.07505 4.1626 5.25005 4.1626 7.95005C4.1626 10.6501 6.4126 12.8251 9.2251 12.8251H14.8501C16.6876 12.8251 18.2251 14.2501 18.2251 16.0126C18.2251 17.7751 16.7251 19.2001 14.8501 19.2001H5.3251C4.8751 19.2001 4.5001 19.5751 4.5001 20.0251C4.5001 20.4751 4.8751 20.85 5.3251 20.85H11.8876V22.5001C11.8876 22.9501 12.2626 23.3251 12.7126 23.3251C13.1626 23.3251 13.5376 22.9501 13.5376 22.5001V20.9251H14.7376C17.5126 20.9251 19.8001 18.75 19.8001 16.05C19.8001 13.35 17.5876 11.175 14.8126 11.175Z" fill="#161A23"/>
</svg>
