<svg width="24" height="24" viewBox="0 0 24 24" fill="none" xmlns="http://www.w3.org/2000/svg">
<path d="M6.30005 13.2001H8.55005C9.00005 13.2001 9.37505 12.8251 9.37505 12.3751C9.37505 11.9251 9.00005 11.5501 8.55005 11.5501H7.98755V11.3626C7.98755 10.9126 7.61255 10.5376 7.16255 10.5376C6.71255 10.5376 6.33755 10.9126 6.33755 11.3626V11.5501H6.30005C5.17505 11.5501 4.23755 12.4876 4.23755 13.6126C4.23755 14.7376 5.17505 15.6751 6.30005 15.6751H7.35005C7.57505 15.6751 7.72505 15.8251 7.72505 16.0501C7.72505 16.2751 7.53755 16.4251 7.35005 16.4251H5.10005C4.65005 16.4251 4.27505 16.8001 4.27505 17.2501C4.27505 17.7001 4.65005 18.0751 5.10005 18.0751H6.33755V18.2626C6.33755 18.7126 6.71255 19.0876 7.16255 19.0876C7.61255 19.0876 7.98755 18.7126 7.98755 18.2626V17.9626C8.81255 17.7001 9.37505 16.9126 9.37505 16.0126C9.37505 14.8876 8.43755 13.9501 7.31255 13.9501H6.26255C6.03755 13.9501 5.88755 13.8001 5.88755 13.5751C5.88755 13.3501 6.07505 13.2001 6.30005 13.2001Z" fill="#161A23"/>
<path d="M6.82505 8.21265C3.22505 8.21265 0.300049 11.1376 0.300049 14.7376C0.300049 18.3376 3.22505 21.2626 6.82505 21.2626C10.425 21.2626 13.35 18.3751 13.35 14.7751C13.35 11.1751 10.425 8.21265 6.82505 8.21265ZM6.82505 19.6126C4.16255 19.6126 1.98755 17.4376 1.98755 14.7751C1.98755 12.1126 4.16255 9.93765 6.82505 9.93765C9.48755 9.93765 11.6625 12.1126 11.6625 14.7751C11.6625 17.4376 9.48755 19.6126 6.82505 19.6126Z" fill="#161A23"/>
<path d="M23.4751 15.5251C23.1376 15.1876 22.6126 15.1876 22.2751 15.5251L20.0626 17.7376V7.2376C20.0626 4.7251 18.0001 2.6626 15.4876 2.6626H15.3001C14.8501 2.6626 14.4751 3.0376 14.4751 3.4876C14.4751 3.9376 14.8501 4.3126 15.3001 4.3126H15.4876C17.0626 4.3126 18.3751 5.5876 18.3751 7.2001V17.7001L16.1626 15.4876C15.8251 15.1501 15.3001 15.1501 14.9626 15.4876C14.6251 15.8251 14.6251 16.3501 14.9626 16.6876L18.6001 20.3251C18.7501 20.4751 18.9751 20.5876 19.2001 20.5876C19.4251 20.5876 19.6501 20.5126 19.8001 20.3251L23.4376 16.6876C23.8126 16.3876 23.8126 15.8626 23.4751 15.5251Z" fill="#161A23"/>
</svg>
