<svg width="24" height="24" viewBox="0 0 24 24" fill="none" xmlns="http://www.w3.org/2000/svg">
<path d="M12.975 6.45005H10.7625C10.3125 6.45005 9.9375 6.82505 9.9375 7.27505C9.9375 7.72505 10.3125 8.10005 10.7625 8.10005H11.9625V8.28755C11.9625 8.73755 12.3375 9.11255 12.7875 9.11255C13.2375 9.11255 13.6125 8.73755 13.6125 8.28755V7.98755C14.4 7.72505 15 6.93755 15 6.07505C15 4.95005 14.1 4.05005 12.975 4.05005H11.9625C11.775 4.05005 11.625 3.90005 11.625 3.71255C11.625 3.52505 11.775 3.37505 11.9625 3.37505H14.175C14.625 3.37505 15 3.00005 15 2.55005C15 2.10005 14.625 1.72505 14.175 1.72505H13.65V1.50005C13.65 1.05005 13.275 0.675049 12.825 0.675049C12.375 0.675049 12 1.05005 12 1.50005V1.68755C10.875 1.68755 9.975 2.58755 9.975 3.71255C9.975 4.83755 10.875 5.73755 12 5.73755H13.0125C13.2 5.73755 13.35 5.88755 13.35 6.07505C13.35 6.26255 13.1625 6.45005 12.975 6.45005Z" fill="#161A23"/>
<path d="M20.475 19.3875L18.1875 21.675H10.95V20.2125H17.3625C17.775 20.2125 18.1875 20.0625 18.4875 19.7625L21.675 16.575C22.0125 16.2375 22.0125 15.7125 21.675 15.375C21.3375 15.0375 20.8125 15.0375 20.475 15.375L17.2875 18.5625H10.95V17.1H16.65C17.0625 17.1 17.4375 16.95 17.7375 16.65L20.8125 13.6125C21.2625 13.1625 21.4125 12.4875 21.15 11.8875C20.9625 11.25 20.4 10.875 19.7625 10.875H6.74999C6.33749 10.875 5.96249 11.025 5.66249 11.325L2.58749 14.3625C2.13749 14.8125 1.98749 15.4875 2.24999 16.0875C2.47499 16.6875 3.07499 17.0625 3.71249 17.0625H9.33749V18.525H3.33749C2.88749 18.525 2.51249 18.9 2.51249 19.35C2.51249 19.8 2.88749 20.175 3.33749 20.175H9.29999V21.6375H3.33749C2.88749 21.6375 2.51249 22.0125 2.51249 22.4625C2.51249 22.9125 2.88749 23.2875 3.33749 23.2875H18.2625C18.675 23.2875 19.0875 23.1375 19.3875 22.8375L21.7125 20.5125C22.05 20.175 22.05 19.65 21.7125 19.3125C21.375 18.975 20.8125 19.05 20.475 19.3875ZM16.6125 15.375H12.0375L14.6625 12.5625H19.4625L16.6125 15.375ZM6.78749 12.5625H12.375L9.74999 15.375H3.93749L6.78749 12.5625Z" fill="#161A23"/>
</svg>
