<svg width="24" height="24" viewBox="0 0 24 24" fill="none" xmlns="http://www.w3.org/2000/svg">
<path d="M11.4 7.72498H13.9875C14.4375 7.72498 14.8125 7.34998 14.8125 6.89998C14.8125 6.44998 14.4375 6.07498 13.9875 6.07498H13.2375V5.73748C13.2375 5.28748 12.8625 4.91248 12.4125 4.91248C11.9625 4.91248 11.5875 5.28748 11.5875 5.73748V6.07498H11.4375C10.2 6.07498 9.1875 7.08748 9.1875 8.28748C9.1875 9.52498 10.2 10.5 11.4375 10.5H12.6375C12.9375 10.5 13.2 10.7625 13.2 11.025C13.2 11.2875 12.9375 11.55 12.6375 11.55H10.05C9.6 11.55 9.225 11.925 9.225 12.375C9.225 12.825 9.6 13.2 10.05 13.2H11.5875V13.5375C11.5875 13.9875 11.9625 14.3625 12.4125 14.3625C12.8625 14.3625 13.2375 13.9875 13.2375 13.5375V13.0875C14.175 12.825 14.85 11.9625 14.85 10.95C14.85 9.71248 13.8375 8.73748 12.6 8.73748H11.4C11.1 8.73748 10.8375 8.51248 10.8375 8.21248C10.8375 7.91248 11.1 7.72498 11.4 7.72498Z" fill="#161A23"/>
<path d="M21 1.27502H2.99999C1.72499 1.27502 0.674988 2.32502 0.674988 3.60002V15.1125C0.674988 16.3875 1.72499 17.4375 2.99999 17.4375H11.175V21H8.13749C7.68749 21 7.31249 21.375 7.31249 21.825C7.31249 22.275 7.68749 22.65 8.13749 22.65H15.9C16.35 22.65 16.725 22.275 16.725 21.825C16.725 21.375 16.35 21 15.9 21H12.8625V17.4375H21C22.275 17.4375 23.325 16.3875 23.325 15.1125V3.60002C23.3625 2.32502 22.275 1.27502 21 1.27502ZM21.675 15.15C21.675 15.525 21.375 15.825 21 15.825H2.99999C2.62499 15.825 2.32499 15.525 2.32499 15.15V3.60002C2.32499 3.22502 2.62499 2.92502 2.99999 2.92502H21C21.375 2.92502 21.675 3.22502 21.675 3.60002V15.15Z" fill="#161A23"/>
</svg>
