<svg width="24" height="24" viewBox="0 0 24 24" fill="none" xmlns="http://www.w3.org/2000/svg">
<g clip-path="url(#clip0_501_44744)">
<path d="M11.3625 9.60005H14.1375C14.5875 9.60005 14.9625 9.22505 14.9625 8.77505C14.9625 8.32505 14.5875 7.95005 14.1375 7.95005H13.275V7.50005C13.275 7.05005 12.9 6.67505 12.45 6.67505C12 6.67505 11.625 7.05005 11.625 7.50005V7.91255H11.4C10.125 7.91255 9.07501 8.96255 9.07501 10.2375C9.07501 11.5125 10.125 12.5625 11.4 12.5625H12.675C13.05 12.5625 13.3125 12.8625 13.3125 13.2C13.3125 13.5375 13.0125 13.8375 12.675 13.8375H9.90001C9.45001 13.8375 9.07501 14.2125 9.07501 14.6625C9.07501 15.1125 9.45001 15.4875 9.90001 15.4875H11.625V15.9C11.625 16.35 12 16.725 12.45 16.725C12.9 16.725 13.275 16.35 13.275 15.9V15.375C14.25 15.1125 15 14.2125 15 13.125C15 11.85 13.95 10.8 12.675 10.8H11.4C11.025 10.8 10.7625 10.5 10.7625 10.1625C10.7625 9.82505 10.9875 9.60005 11.3625 9.60005Z" fill="#161A23"/>
<path d="M12 0.675049C5.8875 0.675049 0.9375 5.62505 0.9375 11.7375C0.9375 14.1376 1.725 16.5 3.1875 18.4125C2.7 19.2376 1.8 20.8876 1.575 21.8626C1.4625 22.35 1.575 22.8001 1.9125 23.0626C2.025 23.1751 2.25 23.3251 2.8125 23.3251C3.5625 23.3251 4.875 23.0251 7.425 21.8251C8.85 22.5001 10.425 22.8001 12 22.8001C18.1125 22.8001 23.0625 17.8125 23.0625 11.7375C23.0625 5.66255 18.1125 0.675049 12 0.675049ZM12 21.1126C10.5375 21.1126 9.1125 20.775 7.8 20.1C7.575 19.9876 7.275 19.9876 7.05 20.1C5.7 20.7376 4.275 21.3001 3.45 21.5251C3.8625 20.5501 4.6125 19.2751 4.9125 18.7501C5.1 18.4501 5.0625 18.0376 4.8375 17.7751C3.4125 16.0876 2.625 13.9501 2.625 11.7375C2.625 6.56255 6.825 2.36255 12 2.36255C17.175 2.36255 21.375 6.56255 21.375 11.7375C21.375 16.9125 17.175 21.1126 12 21.1126Z" fill="#161A23"/>
</g>
<defs>
<clipPath id="clip0_501_44744">
<rect width="24" height="24" fill="white"/>
</clipPath>
</defs>
</svg>
