<svg width="24" height="24" viewBox="0 0 24 24" fill="none" xmlns="http://www.w3.org/2000/svg">
<path d="M20.7001 1.61255H3.30005C1.65005 1.61255 0.300049 2.88755 0.300049 4.42505V15.3C0.300049 16.8375 1.65005 18.1125 3.30005 18.1125H11.9626C12.4125 18.1125 12.8251 17.7375 12.8251 17.2875C12.8251 16.8375 12.4501 16.4625 11.9626 16.4625H3.30005C2.55005 16.4625 1.98755 15.9375 1.98755 15.3375V10.5H22.0501V13.3125C22.0501 13.7625 22.4251 14.1375 22.8751 14.1375C23.3251 14.1375 23.7001 13.7625 23.7001 13.3125V4.42505C23.7001 2.88755 22.3501 1.61255 20.7001 1.61255ZM3.30005 3.30005H20.7001C21.4501 3.30005 22.0126 3.82505 22.0126 4.42505V5.55005H1.95005V4.42505C1.95005 3.82505 2.55005 3.30005 3.30005 3.30005ZM1.95005 8.81255V7.27505H22.0126V8.81255H1.95005Z" fill="#161A23"/>
<path d="M18.6 16.5376H17.0625C16.6875 16.5376 16.3875 16.1626 16.3875 15.7126C16.3875 15.2626 16.6875 14.8876 17.0625 14.8876H19.5C19.95 14.8876 20.325 14.5126 20.325 14.0626C20.325 13.6126 19.95 13.2376 19.5 13.2376H18.675C18.675 12.7876 18.3 12.4126 17.85 12.4126C17.4 12.4126 17.025 12.7876 17.025 13.2376C15.75 13.2751 14.7375 14.4001 14.7375 15.7501C14.7375 17.1376 15.7875 18.2626 17.1 18.2626H18.6375C19.0125 18.2626 19.3125 18.6376 19.3125 19.0876C19.3125 19.5376 19.0125 19.9126 18.6375 19.9126H16.2C15.75 19.9126 15.375 20.2876 15.375 20.7376C15.375 21.1876 15.75 21.5626 16.2 21.5626H17.025C17.025 22.0126 17.4 22.3876 17.85 22.3876C18.3 22.3876 18.675 22.0126 18.675 21.5626C19.95 21.5251 20.9625 20.4001 20.9625 19.0501C20.9625 17.6626 19.9125 16.5376 18.6 16.5376Z" fill="#161A23"/>
</svg>
