<svg width="24" height="24" viewBox="0 0 24 24" fill="none" xmlns="http://www.w3.org/2000/svg">
<path d="M10.3875 13.0875H9.30001C9.07501 13.0875 8.85001 12.9 8.85001 12.675C8.85001 12.45 9.03751 12.2625 9.30001 12.2625H11.6625C12.1125 12.2625 12.4875 11.8875 12.4875 11.4375C12.4875 10.9875 12.1125 10.6125 11.6625 10.6125H11.0625V10.3875C11.0625 9.9375 10.6875 9.5625 10.2375 9.5625C9.78751 9.5625 9.41251 9.9375 9.41251 10.3875V10.6125H9.33751C8.17501 10.6125 7.20001 11.55 7.20001 12.7125C7.20001 13.875 8.13751 14.8125 9.33751 14.8125H10.425C10.65 14.8125 10.875 15 10.875 15.225C10.875 15.45 10.6875 15.6375 10.425 15.6375H8.06251C7.61251 15.6375 7.23751 16.0125 7.23751 16.4625C7.23751 16.9125 7.61251 17.2875 8.06251 17.2875H9.37501V17.5125C9.37501 17.9625 9.75001 18.3375 10.2 18.3375C10.65 18.3375 11.025 17.9625 11.025 17.5125V17.175C11.8875 16.9125 12.4875 16.0875 12.4875 15.1875C12.525 14.025 11.55 13.0875 10.3875 13.0875Z" fill="#161A23"/>
<path d="M23.25 6.18756C23.4 5.55006 23.3625 4.91256 23.0625 4.42506C22.7625 3.90006 22.275 3.52506 21.6375 3.37506C20.7375 3.15006 19.6875 3.30006 18.75 3.86256C18.15 4.20006 17.7 4.83756 17.325 5.43756C16.9875 4.80006 16.5375 4.20006 15.9 3.86256C14.2125 2.88756 12.3375 3.15006 11.5875 4.46256C11.1 5.28756 11.25 6.30006 11.8125 7.16256H2.99999C1.72499 7.16256 0.674988 8.21256 0.674988 9.48756V18.4501C0.674988 19.7251 1.72499 20.7751 2.99999 20.7751H20.325C21.6 20.7751 22.65 19.7251 22.65 18.4501V9.07506C22.65 8.58756 22.4625 8.17506 22.2 7.83756C22.725 7.35006 23.1 6.78756 23.25 6.18756ZM19.575 5.28756C20.1 4.98756 20.7375 4.87506 21.1875 4.98756C21.375 5.02506 21.525 5.13756 21.6 5.25006C21.675 5.40006 21.675 5.62506 21.6375 5.73756C21.525 6.18756 21.1125 6.67506 20.5875 6.97506C20.475 7.05006 20.3625 7.08756 20.2125 7.12506H18.45C18.675 6.41256 19.0875 5.55006 19.575 5.28756ZM14.1 6.97506C13.2375 6.48756 12.825 5.66256 13.05 5.25006C13.275 4.83756 14.2125 4.76256 15.075 5.28756C15.5625 5.58756 15.975 6.41256 16.2375 7.12506H14.475C14.325 7.08756 14.175 7.05006 14.1 6.97506ZM2.36249 18.4126V9.45006C2.36249 9.07506 2.66249 8.77506 3.03749 8.77506H16.5V19.0501H2.99999C2.62499 19.0876 2.36249 18.7876 2.36249 18.4126ZM21 18.4126C21 18.7876 20.7 19.0876 20.325 19.0876H18.15V8.81256H20.7C20.85 8.81256 21 8.92506 21 9.11256V18.4126Z" fill="#161A23"/>
</svg>
