<svg width="24" height="24" viewBox="0 0 24 24" fill="none" xmlns="http://www.w3.org/2000/svg">
<path d="M22.5001 8.775H21.225V8.025C21.225 6.7125 20.1751 5.6625 18.8626 5.6625H18.8251V4.2C18.8251 3.15 17.9626 2.25 16.875 2.25H5.10005C3.93755 2.25 3.00005 3.1875 3.00005 4.35V4.8V9.9C1.57505 11.1375 0.675049 12.975 0.675049 15C0.675049 18.7125 3.71255 21.75 7.38755 21.75C10.0126 21.75 12.3001 20.2125 13.3876 18.0375H18.8626C20.1751 18.0375 21.225 16.9875 21.225 15.675V13.875H22.5001C22.9501 13.875 23.3251 13.5 23.3251 13.05V9.6375C23.3251 9.15 22.9501 8.775 22.5001 8.775ZM4.65005 4.35C4.65005 4.125 4.83755 3.9375 5.06255 3.9375H16.875C17.0251 3.9375 17.1751 4.05 17.1751 4.2375V5.7H5.10005C4.87505 5.7 4.68755 5.5125 4.68755 5.2875V4.35H4.65005ZM7.38755 20.0625C4.61255 20.0625 2.36255 17.775 2.36255 15C2.36255 12.225 4.61255 9.9375 7.38755 9.9375C10.1625 9.9375 12.4125 12.1875 12.4125 15C12.4125 17.8125 10.1625 20.0625 7.38755 20.0625ZM19.5375 15.6375C19.5375 16.0125 19.2376 16.3125 18.8626 16.3125H13.9875C14.0625 15.8625 14.1376 15.45 14.1376 14.9625C14.1376 11.25 11.1 8.2125 7.42505 8.2125C6.45005 8.2125 5.55005 8.4375 4.68755 8.775V7.275C4.83755 7.3125 4.95005 7.3125 5.10005 7.3125H18.9001C19.2751 7.3125 19.5751 7.6125 19.5751 7.9875V8.7375H18.4876C17.3251 8.7375 16.3876 9.675 16.3876 10.8375V11.7375C16.3876 12.9 17.3251 13.8375 18.4876 13.8375H19.5751V15.6375H19.5375ZM21.6751 12.1875H18.4876C18.2626 12.1875 18.0751 12 18.0751 11.775V10.875C18.0751 10.65 18.2626 10.4625 18.4876 10.4625H21.6751V12.1875Z" fill="#161A23"/>
<path d="M6.9375 13.6876H8.925C9.375 13.6876 9.75 13.3126 9.75 12.8626C9.75 12.4126 9.375 12.0001 8.925 12.0001H8.55V11.9251C8.55 11.4751 8.175 11.1001 7.725 11.1001C7.275 11.1001 6.9 11.4751 6.9 11.9251V12.0001C5.8875 12.0376 5.0625 12.8626 5.0625 13.9126C5.0625 14.9626 5.925 15.8251 6.975 15.8251H7.875C7.9875 15.8251 8.1 15.9376 8.1 16.0501C8.1 16.1626 7.9875 16.2751 7.875 16.2751H5.8875C5.4375 16.2751 5.0625 16.6501 5.0625 17.1001C5.0625 17.5501 5.4375 17.9251 5.8875 17.9251H6.8625V18.0001C6.8625 18.4501 7.2375 18.8251 7.6875 18.8251C8.1375 18.8251 8.5125 18.4501 8.5125 18.0001V17.8126C9.225 17.5501 9.75 16.8376 9.75 16.0501C9.75 15.0001 8.8875 14.1376 7.8375 14.1376H6.9375C6.825 14.1376 6.7125 14.0251 6.7125 13.9126C6.7125 13.8001 6.7875 13.6876 6.9375 13.6876Z" fill="#161A23"/>
</svg>
