<svg width="24" height="24" viewBox="0 0 24 24" fill="none" xmlns="http://www.w3.org/2000/svg">
<path d="M13.65 14.0251H10.9875C10.5375 14.0251 10.1625 14.4 10.1625 14.85C10.1625 15.3 10.5375 15.675 10.9875 15.675H12.6V16.05C12.6 16.5 12.975 16.875 13.425 16.875C13.875 16.875 14.25 16.5 14.25 16.05V15.5625C15.1875 15.3 15.9 14.4001 15.9 13.3875C15.9 12.15 14.8875 11.1 13.6125 11.1H12.375C12.0375 11.1 11.775 10.8375 11.775 10.5C11.775 10.1625 12.0375 9.90005 12.375 9.90005H15.0375C15.4875 9.90005 15.8625 9.52505 15.8625 9.07505C15.8625 8.62505 15.4875 8.25005 15.0375 8.25005H14.25V7.87505C14.25 7.42505 13.875 7.05005 13.425 7.05005C12.975 7.05005 12.6 7.42505 12.6 7.87505V8.25005H12.4125C11.1375 8.25005 10.125 9.26255 10.125 10.5375C10.125 11.775 11.1375 12.825 12.4125 12.825H13.65C13.9875 12.825 14.25 13.0875 14.25 13.425C14.25 13.7625 13.95 14.0251 13.65 14.0251Z" fill="#161A23"/>
<path d="M12.7875 1.46252C9.82501 1.46252 7.01251 2.70002 5.02501 4.87502C4.72501 5.21252 4.72501 5.73752 5.06251 6.07502C5.40001 6.37502 5.92501 6.37502 6.26251 6.03752C7.95001 4.20002 10.3125 3.18752 12.7875 3.18752C17.6625 3.18752 21.6375 7.16252 21.6375 12.0375C21.6375 16.9125 17.6625 20.8875 12.7875 20.8875C9.03751 20.8875 5.70001 18.525 4.46251 15L6.30001 15.75C6.75001 15.9375 7.23751 15.7125 7.38751 15.3C7.57501 14.85 7.35001 14.3625 6.93751 14.2125L3.30001 12.75C2.85001 12.5625 2.36251 12.7875 2.21251 13.2L0.750012 16.8375C0.525012 17.25 0.750012 17.7375 1.20001 17.8875C1.31251 17.925 1.42501 17.9625 1.50001 17.9625C1.83751 17.9625 2.13751 17.775 2.28751 17.4375L2.96251 15.7875C4.53751 19.8375 8.40001 22.5375 12.7875 22.5375C18.6 22.5375 23.325 17.8125 23.325 12C23.3625 6.18752 18.6 1.46252 12.7875 1.46252Z" fill="#161A23"/>
</svg>
