<svg width="24" height="24" viewBox="0 0 24 24" fill="none" xmlns="http://www.w3.org/2000/svg">
<path d="M6.18745 13.2001H8.39995C8.84995 13.2001 9.22495 12.8251 9.22495 12.3751C9.22495 11.9251 8.84995 11.5501 8.39995 11.5501H7.87495V11.3626C7.87495 10.9126 7.49995 10.5376 7.04995 10.5376C6.59995 10.5376 6.22495 10.9126 6.22495 11.3626V11.5501C5.09995 11.5501 4.19995 12.4501 4.19995 13.5751C4.19995 14.7001 5.09995 15.6001 6.22495 15.6001H7.23745C7.42495 15.6001 7.57495 15.7501 7.57495 15.9376C7.57495 16.1251 7.42495 16.2751 7.23745 16.2751H5.02495C4.57495 16.2751 4.19995 16.6501 4.19995 17.1001C4.19995 17.5501 4.57495 17.9251 5.02495 17.9251H6.22495V18.1126C6.22495 18.5626 6.59995 18.9376 7.04995 18.9376C7.49995 18.9376 7.87495 18.5626 7.87495 18.1126V17.8126C8.66245 17.5501 9.22495 16.8001 9.22495 15.9001C9.22495 14.7751 8.32495 13.8751 7.19995 13.8751H6.18745C5.99995 13.8751 5.84995 13.7251 5.84995 13.5376C5.84995 13.3501 5.99995 13.2001 6.18745 13.2001Z" fill="#161A23"/>
<path d="M6.71255 8.2876C3.18755 8.2876 0.300049 11.1751 0.300049 14.7001C0.300049 18.2251 3.18755 21.1126 6.71255 21.1126C10.2375 21.1126 13.125 18.2626 13.125 14.7001C13.125 11.1751 10.2375 8.2876 6.71255 8.2876ZM6.71255 19.4251C4.08755 19.4251 1.98755 17.2876 1.98755 14.7001C1.98755 12.0751 4.12505 9.9751 6.71255 9.9751C9.30005 9.9751 11.4375 12.1126 11.4375 14.7001C11.4375 17.3251 9.30005 19.4251 6.71255 19.4251Z" fill="#161A23"/>
<path d="M23.475 6.6751L19.9125 3.1126C19.7625 2.9626 19.5375 2.8501 19.3125 2.8501C19.0875 2.8501 18.8625 2.9251 18.7125 3.1126L15.15 6.6751C14.8125 7.0126 14.8125 7.5376 15.15 7.8751C15.4875 8.2126 16.0125 8.2126 16.35 7.8751L18.4875 5.7376V15.9376C18.4875 17.4751 17.2125 18.7501 15.675 18.7501H15.4875C15 18.7501 14.625 19.1251 14.625 19.6126C14.625 20.1001 15 20.4376 15.45 20.4376H15.6375C18.1125 20.4376 20.1375 18.4126 20.1375 15.9376V5.7376L22.275 7.8751C22.425 8.0251 22.65 8.1376 22.875 8.1376C23.1 8.1376 23.325 8.0626 23.475 7.8751C23.8125 7.5376 23.8125 7.0126 23.475 6.6751Z" fill="#161A23"/>
</svg>
