<svg width="24" height="24" viewBox="0 0 24 24" fill="none" xmlns="http://www.w3.org/2000/svg">
<g clip-path="url(#clip0_501_52122)">
<path d="M6.5998 16.5001H8.3998C8.8498 16.5001 9.2248 16.1251 9.2248 15.6751C9.2248 15.2251 8.8498 14.8501 8.3998 14.8501H8.1373C8.1373 14.4001 7.7623 14.0251 7.3123 14.0251C6.8623 14.0251 6.4873 14.4001 6.4873 14.8501C5.5498 14.9251 4.8373 15.7126 4.8373 16.6501C4.8373 17.6626 5.6623 18.4501 6.6373 18.4501H7.4623C7.5373 18.4501 7.5748 18.4876 7.5748 18.5626C7.5748 18.6376 7.5373 18.6751 7.4623 18.6751H5.6248C5.1748 18.6751 4.7998 19.0501 4.7998 19.5001C4.7998 19.9501 5.1748 20.3251 5.6248 20.3251H6.4498C6.4498 20.7751 6.8248 21.1501 7.2748 21.1501C7.7248 21.1501 8.0998 20.7751 8.0998 20.3251V20.2126C8.7373 19.9501 9.1873 19.3126 9.1873 18.5626C9.1873 17.5501 8.3623 16.7626 7.3873 16.7626H6.5623C6.4873 16.7626 6.4498 16.7251 6.4498 16.6501C6.4498 16.5751 6.5248 16.5001 6.5998 16.5001Z" fill="#161A23"/>
<path d="M18.7124 5.70005C17.5124 5.70005 16.4249 6.18755 15.5999 6.97505L12.0374 4.50005C12.0749 4.27505 12.1124 4.08755 12.1124 3.86255C12.1124 1.91255 10.4999 0.300049 8.5499 0.300049C6.5999 0.300049 4.9874 1.91255 4.9874 3.86255C4.9874 5.81255 6.5999 7.42505 8.5499 7.42505C9.6749 7.42505 10.6874 6.90005 11.3624 6.07505L14.6624 8.40005C14.3999 8.96255 14.2874 9.56255 14.2874 10.2C14.2874 10.8 14.3999 11.3625 14.6249 11.8875L11.8124 13.725C10.6874 12.3375 8.9624 11.475 7.0499 11.475C3.6374 11.475 0.899902 14.25 0.899902 17.625C0.899902 21 3.6749 23.775 7.0499 23.775C10.4249 23.775 13.1999 21 13.1999 17.625C13.1999 16.7625 13.0124 15.9375 12.6749 15.1875L15.5249 13.3125C16.3499 14.1375 17.4749 14.7 18.7499 14.7C21.2249 14.7 23.2124 12.7125 23.2124 10.2375C23.2124 7.76255 21.1499 5.70005 18.7124 5.70005ZM8.5499 5.70005C7.4999 5.70005 6.6749 4.83755 6.6749 3.82505C6.6749 2.81255 7.5374 1.95005 8.5499 1.95005C9.5624 1.95005 10.4249 2.81255 10.4249 3.82505C10.4249 4.83755 9.5999 5.70005 8.5499 5.70005ZM7.0124 22.05C4.5374 22.05 2.5499 20.0625 2.5499 17.5875C2.5499 15.1125 4.5374 13.125 7.0124 13.125C9.4874 13.125 11.4749 15.1125 11.4749 17.5875C11.4749 20.0625 9.4499 22.05 7.0124 22.05ZM18.7124 12.9375C17.1749 12.9375 15.9374 11.7 15.9374 10.1625C15.9374 8.62505 17.1749 7.38755 18.7124 7.38755C20.2499 7.38755 21.4874 8.62505 21.4874 10.1625C21.4874 11.7 20.2124 12.9375 18.7124 12.9375Z" fill="#161A23"/>
</g>
<defs>
<clipPath id="clip0_501_52122">
<rect width="24" height="24" fill="white"/>
</clipPath>
</defs>
</svg>
