<svg width="24" height="24" viewBox="0 0 24 24" fill="none" xmlns="http://www.w3.org/2000/svg">
<path d="M23.2125 11.5875C20.8125 7.425 16.5 4.875 12 4.875C7.50005 4.875 3.18755 7.425 0.787549 11.5875C0.637549 11.85 0.637549 12.1875 0.787549 12.45C3.18755 16.575 7.50005 19.125 12 19.125C16.5 19.125 20.8125 16.5375 23.2125 12.4125C23.4 12.15 23.4 11.85 23.2125 11.5875ZM12 17.4375C8.25005 17.4375 4.65005 15.375 2.47505 12C4.65005 8.625 8.25005 6.5625 12 6.5625C15.75 6.5625 19.35 8.625 21.525 12C19.35 15.375 15.75 17.4375 12 17.4375Z" fill="#161A23"/>
<path d="M11.4751 10.3499H13.8376C14.2876 10.3499 14.6626 9.9749 14.6626 9.5249C14.6626 9.0749 14.2876 8.6999 13.8376 8.6999H13.2376V8.4749C13.2376 8.0249 12.8626 7.6499 12.4126 7.6499C11.9626 7.6499 11.5876 8.0249 11.5876 8.4749V8.6999H11.5126C10.3501 8.6999 9.4126 9.6374 9.4126 10.7999C9.4126 11.9624 10.3501 12.8999 11.5126 12.8999H12.6001C12.8251 12.8999 13.0126 13.0874 13.0126 13.3124C13.0126 13.5374 12.8251 13.7249 12.6001 13.7249H10.2376C9.7876 13.7249 9.4126 14.0999 9.4126 14.5499C9.4126 14.9999 9.7876 15.3749 10.2376 15.3749H11.5501V15.5999C11.5501 16.0499 11.9251 16.4249 12.3751 16.4249C12.8251 16.4249 13.2001 16.0499 13.2001 15.5999V15.2624C14.0251 14.9999 14.6251 14.2124 14.6251 13.2749C14.6251 12.1124 13.6876 11.1749 12.5251 11.1749H11.4376C11.2126 11.1749 11.0251 10.9874 11.0251 10.7624C11.0251 10.5374 11.2126 10.3499 11.4751 10.3499Z" fill="#161A23"/>
</svg>
