<svg width="24" height="24" viewBox="0 0 24 24" fill="none" xmlns="http://www.w3.org/2000/svg">
<g clip-path="url(#clip0_501_52097)">
<path d="M4.3875 7.3499H1.7625C1.3125 7.3499 0.9375 7.7249 0.9375 8.1749C0.9375 8.6249 1.3125 8.9999 1.7625 8.9999H3.375V9.3749C3.375 9.8249 3.75 10.1999 4.2 10.1999C4.65 10.1999 5.025 9.8249 5.025 9.3749V8.9249C5.9625 8.6624 6.6375 7.7999 6.6375 6.7499C6.6375 5.5124 5.625 4.4999 4.3875 4.4999H3.1875C2.85 4.4999 2.625 4.2374 2.625 3.9374C2.5875 3.6374 2.85 3.3749 3.1875 3.3749H5.8125C6.2625 3.3749 6.6375 2.9999 6.6375 2.5499C6.6375 2.0999 6.2625 1.7249 5.8125 1.7249H5.025V1.3499C5.025 0.899902 4.65 0.524902 4.2 0.524902C3.75 0.524902 3.375 0.899902 3.375 1.3499V1.7249H3.1875C1.95 1.7249 0.9375 2.7374 0.9375 3.9749C0.9375 5.2124 1.95 6.2249 3.1875 6.2249H4.425C4.7625 6.2249 4.9875 6.4874 4.9875 6.7874C4.9875 7.0874 4.725 7.3499 4.3875 7.3499Z" fill="#161A23"/>
<path d="M22.5 21.8249C21.825 21.8249 21.15 21.5624 20.625 21.1499H21.675C22.125 21.1499 22.5 20.7749 22.5 20.3249C22.5 19.8749 22.125 19.4999 21.675 19.4999H19.4625C19.3875 19.2374 19.35 18.9374 19.35 18.6749C19.35 18.5249 19.35 18.3749 19.3875 18.2249H21.675C22.125 18.2249 22.5 17.8499 22.5 17.3999C22.5 16.9499 22.125 16.4999 21.675 16.4999H20.2125C20.8125 15.8624 21.6375 15.4874 22.5 15.4874C22.95 15.4874 23.325 15.1124 23.325 14.6624C23.325 14.2124 22.95 13.8374 22.5 13.8374C20.625 13.8374 18.975 14.9624 18.15 16.5374H17.1C16.65 16.5374 16.275 16.9124 16.275 17.3624C16.275 17.8124 16.65 18.1874 17.1 18.1874H17.625C17.625 18.3374 17.5875 18.4874 17.5875 18.6374C17.5875 18.9374 17.625 19.1999 17.6625 19.4624H17.0625C16.6125 19.4624 16.2375 19.8374 16.2375 20.2874C16.2375 20.7374 16.6125 21.1124 17.0625 21.1124H18.375C19.2375 22.4999 20.775 23.4749 22.5 23.4749C22.95 23.4749 23.325 23.0999 23.325 22.6499C23.325 22.1999 22.95 21.8249 22.5 21.8249Z" fill="#161A23"/>
<path d="M10.8001 4.125H18.7876C19.2751 4.125 19.6501 4.5 19.6501 4.9875V9.375L19.1251 8.85C18.7876 8.5125 18.2626 8.5125 17.9251 8.85C17.5876 9.1875 17.5876 9.7125 17.9251 10.05L19.9126 12.0375C20.0626 12.1875 20.2876 12.3 20.5126 12.3C20.7376 12.3 20.9626 12.225 21.1126 12.0375L23.0626 10.0875C23.4001 9.75 23.4001 9.225 23.0626 8.8875C22.7251 8.55 22.2001 8.55 21.8626 8.8875L21.3751 9.375V4.9875C21.3751 3.6 20.2501 2.4375 18.8251 2.4375H10.8001C10.3501 2.4375 9.9751 2.8125 9.9751 3.2625C9.9751 3.7125 10.3501 4.125 10.8001 4.125Z" fill="#161A23"/>
<path d="M13.2001 21.0748H5.1751C4.6876 21.0748 4.3126 20.6998 4.3126 20.2123V15.8248L4.8376 16.3498C4.9876 16.4998 5.2126 16.6123 5.4376 16.6123C5.6626 16.6123 5.8876 16.5373 6.0376 16.3498C6.3751 16.0123 6.3751 15.4873 6.0376 15.1498L4.0501 13.1623C3.7126 12.8248 3.1876 12.8248 2.8501 13.1623L0.900098 15.1123C0.562598 15.4498 0.562598 15.9748 0.900098 16.3123C1.2376 16.6498 1.7626 16.6498 2.1001 16.3123L2.6251 15.7873V20.2123C2.6251 21.5998 3.7501 22.7623 5.1751 22.7623H13.1626C13.6126 22.7623 13.9876 22.3873 13.9876 21.9373C13.9876 21.4873 13.6501 21.0748 13.2001 21.0748Z" fill="#161A23"/>
</g>
<defs>
<clipPath id="clip0_501_52097">
<rect width="24" height="24" fill="white"/>
</clipPath>
</defs>
</svg>
