<svg width="24" height="24" viewBox="0 0 24 24" fill="none" xmlns="http://www.w3.org/2000/svg">
<path d="M12 16.125C15.15 16.125 17.4375 14.775 17.4375 12.9C17.4375 11.025 15.15 9.67505 12 9.67505C8.85 9.67505 6.5625 11.025 6.5625 12.9C6.5625 14.775 8.85 16.125 12 16.125ZM12 11.4C14.2125 11.4 15.75 12.1875 15.75 12.9375C15.75 13.6875 14.2125 14.475 12 14.475C9.7875 14.475 8.25 13.6875 8.25 12.9375C8.25 12.1875 9.7875 11.4 12 11.4Z" fill="#161A23"/>
<path d="M16.8 16.2001C16.35 16.0501 15.8625 16.2751 15.7125 16.6876C15.6 17.0251 15.15 17.3626 14.5125 17.5876C13.8 17.8501 12.9 18.0001 11.9625 18.0001C9.9375 18.0001 8.55 17.3251 8.25 16.7251C8.0625 16.3126 7.5375 16.1251 7.125 16.3126C6.7125 16.5001 6.525 17.0251 6.7125 17.4376C7.35 18.7876 9.4125 19.6876 11.925 19.6876C13.05 19.6876 14.175 19.5001 15.075 19.1626C16.2 18.7126 16.95 18.0751 17.25 17.2501C17.475 16.8751 17.25 16.3876 16.8 16.2001Z" fill="#161A23"/>
<path d="M16.8 19.8C16.35 19.65 15.8625 19.875 15.7125 20.2875C15.6 20.625 15.15 20.9625 14.5125 21.1875C13.8 21.45 12.9 21.6 11.9625 21.6C9.9375 21.6 8.55 20.925 8.25 20.325C8.0625 19.9125 7.5375 19.725 7.125 19.9125C6.7125 20.1 6.525 20.625 6.7125 21.0375C7.35 22.3875 9.4125 23.2875 11.925 23.2875C13.05 23.2875 14.175 23.1 15.075 22.7625C16.2 22.3125 16.95 21.675 17.25 20.85C17.475 20.475 17.25 19.9875 16.8 19.8Z" fill="#161A23"/>
<path d="M12.525 6.67505H10.2C9.75 6.67505 9.375 7.05005 9.375 7.50005C9.375 7.95005 9.75 8.32505 10.2 8.32505H11.475V8.55005C11.475 9.00005 11.85 9.37505 12.3 9.37505C12.75 9.37505 13.125 9.00005 13.125 8.55005V8.25005C13.95 7.98755 14.55 7.20005 14.55 6.26255C14.55 5.10005 13.6125 4.20005 12.45 4.20005H11.4C11.175 4.20005 10.9875 4.01255 10.9875 3.82505C10.9875 3.63755 11.175 3.45005 11.4 3.45005H13.725C14.175 3.45005 14.55 3.07505 14.55 2.62505C14.55 2.17505 14.175 1.80005 13.725 1.80005H13.1625V1.50005C13.1625 1.05005 12.7875 0.675049 12.3375 0.675049C11.8875 0.675049 11.5125 1.05005 11.5125 1.50005V1.72505H11.475C10.3125 1.72505 9.375 2.66255 9.375 3.78755C9.375 4.91255 10.3125 5.85005 11.475 5.85005H12.525C12.75 5.85005 12.9375 6.03755 12.9375 6.22505C12.9375 6.48755 12.75 6.67505 12.525 6.67505Z" fill="#161A23"/>
</svg>
