<svg width="24" height="24" viewBox="0 0 24 24" fill="none" xmlns="http://www.w3.org/2000/svg">
<path d="M2.88747 13.8C2.54997 13.8 2.24997 13.65 2.06247 13.3875L0.78747 11.55C0.52497 11.175 0.637471 10.65 1.01247 10.3875C1.38747 10.125 1.91247 10.2375 2.17497 10.6125L2.84997 11.625L3.41247 10.8C3.59997 10.5375 3.89997 10.3875 4.23747 10.3875C4.57497 10.3875 4.87497 10.5375 5.06247 10.8L5.62497 11.625L6.29997 10.6125C6.56247 10.2375 7.08747 10.125 7.46247 10.3875C7.83747 10.65 7.94997 11.175 7.68747 11.55L6.41247 13.3875C6.22497 13.65 5.92497 13.8 5.58747 13.8C5.24997 13.8 4.94997 13.65 4.76247 13.3875L4.19997 12.5625L3.63747 13.3875C3.52497 13.65 3.22497 13.8 2.88747 13.8Z" fill="#161A23"/>
<path d="M10.6124 13.8C10.2749 13.8 9.97495 13.65 9.78745 13.3875L8.51245 11.55C8.24995 11.175 8.36245 10.65 8.73745 10.3875C9.11245 10.125 9.63745 10.2375 9.89995 10.6125L10.5749 11.625L11.1374 10.8C11.3249 10.5375 11.6249 10.3875 11.9624 10.3875C12.2999 10.3875 12.5999 10.5375 12.7874 10.8L13.3499 11.625L14.0249 10.6125C14.2874 10.2375 14.8124 10.125 15.1874 10.3875C15.5624 10.65 15.6749 11.175 15.4124 11.55L14.1374 13.3875C13.9499 13.65 13.6499 13.8 13.3124 13.8C12.9749 13.8 12.6749 13.65 12.4874 13.3875L11.9999 12.525L11.4374 13.35C11.2499 13.65 10.9499 13.8 10.6124 13.8Z" fill="#161A23"/>
<path d="M21.1125 13.8C20.775 13.8 20.475 13.65 20.2875 13.3875L19.725 12.5625L19.1625 13.3875C18.975 13.65 18.675 13.8 18.3375 13.8C18 13.8 17.7 13.65 17.5125 13.3875L16.2375 11.55C15.975 11.175 16.0875 10.65 16.4625 10.3875C16.8375 10.125 17.3625 10.2375 17.625 10.6125L18.3 11.625L18.8625 10.8C19.05 10.5375 19.35 10.3875 19.6875 10.3875C20.025 10.3875 20.325 10.5375 20.5125 10.8L21.075 11.625L21.75 10.6125C22.0125 10.2375 22.5375 10.125 22.9125 10.3875C23.2875 10.65 23.4 11.175 23.1375 11.55L21.8625 13.3875C21.75 13.65 21.45 13.8 21.1125 13.8Z" fill="#161A23"/>
</svg>
