<svg width="24" height="24" viewBox="0 0 24 24" fill="none" xmlns="http://www.w3.org/2000/svg">
<path d="M23.3625 4.1999C23.3625 2.9249 22.3125 1.8374 21 1.8374H3.00001C1.72501 1.8374 0.637512 2.8874 0.637512 4.1999V8.8499C0.637512 9.4124 0.825012 9.9374 1.16251 10.3499C0.825012 10.7624 0.637512 11.2499 0.637512 11.8124V16.5749C0.637512 17.8499 1.65001 18.8624 2.92501 18.8624H14.85C15.3 18.8624 15.7125 18.4874 15.7125 17.9999C15.7125 17.5124 15.3375 17.1374 14.85 17.1374H2.96251C2.62501 17.1374 2.36251 16.8749 2.36251 16.5374V11.8124C2.36251 11.4749 2.62501 11.2124 2.96251 11.2124H3.00001H21H21.0375C21.375 11.2124 21.6375 11.4749 21.6375 11.8124V14.3624C21.6375 14.8124 22.0125 15.2249 22.5 15.2249C22.9875 15.2249 23.3625 14.8499 23.3625 14.3624V11.8124C23.3625 11.2499 23.175 10.7624 22.8375 10.3499C23.175 9.9374 23.3625 9.4124 23.3625 8.8499V4.1999ZM3.00001 9.5249C2.62501 9.5249 2.32501 9.2249 2.32501 8.8499V4.1999C2.32501 3.8249 2.62501 3.5249 3.00001 3.5249H21C21.375 3.5249 21.675 3.8249 21.675 4.1999V8.8499C21.675 9.2249 21.375 9.5249 21 9.5249H3.00001Z" fill="#161A23"/>
<path d="M6.03749 5.5874C5.58749 5.5874 5.17499 5.9624 5.17499 6.4499V6.5249C5.17499 6.9749 5.54999 7.3874 6.03749 7.3874C6.52499 7.3874 6.89999 7.0124 6.89999 6.5249V6.4499C6.89999 5.9624 6.52499 5.5874 6.03749 5.5874Z" fill="#161A23"/>
<path d="M18.7875 5.625H16.35C15.9 5.625 15.4875 6 15.4875 6.4875C15.4875 6.975 15.8625 7.35 16.35 7.35H18.7875C19.2375 7.35 19.65 6.975 19.65 6.4875C19.65 6 19.275 5.625 18.7875 5.625Z" fill="#161A23"/>
<path d="M5.21252 14.0998V14.1748C5.21252 14.6248 5.58752 15.0373 6.07502 15.0373C6.56252 15.0373 6.93752 14.6623 6.93752 14.1748V14.0998C6.93752 13.6498 6.56252 13.2373 6.07502 13.2373C5.58752 13.2373 5.21252 13.6498 5.21252 14.0998Z" fill="#161A23"/>
<path d="M21.15 18.675L20.5875 19.2375V16.6875C20.5875 16.2375 20.2125 15.825 19.725 15.825C19.2375 15.825 18.8625 16.2 18.8625 16.6875V19.2L18.375 18.675C18.0375 18.3375 17.5125 18.3375 17.175 18.675C16.8375 19.0125 16.8375 19.5375 17.175 19.875L19.1625 21.9C19.3125 22.05 19.5375 22.1625 19.7625 22.1625C19.9875 22.1625 20.2125 22.0875 20.3625 21.9L22.3875 19.875C22.725 19.5375 22.725 19.0125 22.3875 18.675C22.05 18.3375 21.4875 18.3375 21.15 18.675Z" fill="#161A23"/>
</svg>
