<svg width="23" height="23" viewBox="0 0 23 23" fill="none" xmlns="http://www.w3.org/2000/svg">
<path d="M20.325 22.65H2.325C1.05 22.65 0 21.6 0 20.325V2.325C0 1.05 1.05 0 2.325 0H20.325C21.6 0 22.65 1.05 22.65 2.325V20.325C22.65 21.6 21.6 22.65 20.325 22.65ZM2.325 1.65C1.95 1.65 1.65 1.95 1.65 2.325V20.325C1.65 20.7 1.95 21 2.325 21H20.325C20.7 21 21 20.7 21 20.325V2.325C21 1.95 20.7 1.65 20.325 1.65H2.325Z" fill="#161A23"/>
<path d="M11.4375 16.8C11.2125 16.8 10.9875 16.725 10.8375 16.5375L6.78755 12.525C6.45005 12.1875 6.45005 11.6625 6.78755 11.325C7.12505 10.9875 7.65005 10.9875 7.98755 11.325L10.575 13.9125V6.59999C10.575 6.14999 10.95 5.77499 11.4 5.77499C11.85 5.77499 12.225 6.14999 12.225 6.59999V13.9125L14.9625 11.175C15.3 10.8375 15.825 10.8375 16.1625 11.175C16.5 11.5125 16.5 12.0375 16.1625 12.375L12.0375 16.5375C11.85 16.725 11.6625 16.8 11.4375 16.8Z" fill="#161A23"/>
</svg>
