<svg width="24" height="24" viewBox="0 0 24 24" fill="none" xmlns="http://www.w3.org/2000/svg">
<g clip-path="url(#clip0_501_41585)">
<path d="M21.0001 23.3251H3.00005C1.72505 23.3251 0.675049 22.2751 0.675049 21.0001V3.00005C0.675049 1.72505 1.72505 0.675049 3.00005 0.675049H21.0001C22.2751 0.675049 23.3251 1.72505 23.3251 3.00005V21.0001C23.3251 22.2751 22.2751 23.3251 21.0001 23.3251ZM3.00005 2.32505C2.62505 2.32505 2.32505 2.62505 2.32505 3.00005V21.0001C2.32505 21.3751 2.62505 21.6751 3.00005 21.6751H21.0001C21.3751 21.6751 21.6751 21.3751 21.6751 21.0001V3.00005C21.6751 2.62505 21.3751 2.32505 21.0001 2.32505H3.00005Z" fill="#161A23"/>
<path d="M14.2876 16.1251H8.58757C8.13757 16.1251 7.76257 15.7501 7.76257 15.3001V9.37507C7.76257 8.92507 8.13757 8.55007 8.58757 8.55007C9.03757 8.55007 9.41257 8.92507 9.41257 9.37507V13.2376L14.6251 8.06257C14.9626 7.72507 15.4876 7.72507 15.8251 8.06257C16.1626 8.40007 16.1626 8.92507 15.8251 9.26257L10.6126 14.4376H14.2876C14.7376 14.4376 15.1126 14.8126 15.1126 15.2626C15.1126 15.7126 14.7376 16.1251 14.2876 16.1251Z" fill="#161A23"/>
</g>
<defs>
<clipPath id="clip0_501_41585">
<rect width="24" height="24" fill="white"/>
</clipPath>
</defs>
</svg>
