<svg width="24" height="24" viewBox="0 0 24 24" fill="none" xmlns="http://www.w3.org/2000/svg">
<path d="M22.5 15.5625C22.05 15.5625 21.6375 15.9375 21.6375 16.425V19.7625C21.6375 20.1 21.375 20.3625 21.0375 20.3625H2.96251C2.62501 20.3625 2.36251 20.1 2.36251 19.7625V16.425C2.36251 15.975 1.98751 15.5625 1.50001 15.5625C1.01251 15.5625 0.637512 15.9375 0.637512 16.425V19.7625C0.637512 21.0375 1.65001 22.05 2.92501 22.05H21.0375C22.3125 22.05 23.325 21.0375 23.325 19.7625V16.425C23.3625 15.9375 22.95 15.5625 22.5 15.5625Z" fill="#161A23"/>
<path d="M11.4 16.4625C11.55 16.6125 11.775 16.6875 12 16.6875C12.225 16.6875 12.4125 16.6125 12.6 16.4625L17.9625 11.25C18.3 10.9125 18.3 10.3875 18 10.05C17.6625 9.71245 17.1375 9.71245 16.8 10.0125L12.8625 13.875V2.81245C12.8625 2.36245 12.4875 1.94995 12 1.94995C11.55 1.94995 11.1375 2.32495 11.1375 2.81245V13.875L7.20001 10.05C6.86251 9.71245 6.33751 9.74995 6.00001 10.05C5.66251 10.3875 5.70001 10.9125 6.00001 11.25L11.4 16.4625Z" fill="#161A23"/>
</svg>
