<svg width="24" height="24" viewBox="0 0 24 24" fill="none" xmlns="http://www.w3.org/2000/svg">
<g clip-path="url(#clip0_501_41620)">
<path d="M21.0001 23.3251H3.00005C1.72505 23.3251 0.675049 22.2751 0.675049 21.0001V3.00005C0.675049 1.72505 1.72505 0.675049 3.00005 0.675049H21.0001C22.2751 0.675049 23.3251 1.72505 23.3251 3.00005V21.0001C23.3251 22.2751 22.2751 23.3251 21.0001 23.3251ZM3.00005 2.32505C2.62505 2.32505 2.32505 2.62505 2.32505 3.00005V21.0001C2.32505 21.3751 2.62505 21.6751 3.00005 21.6751H21.0001C21.3751 21.6751 21.6751 21.3751 21.6751 21.0001V3.00005C21.6751 2.62505 21.3751 2.32505 21.0001 2.32505H3.00005Z" fill="#161A23"/>
<path d="M15.4126 16.1251H9.7126C9.2626 16.1251 8.8876 15.7501 8.8876 15.3001C8.8876 14.8501 9.2626 14.4751 9.7126 14.4751H13.3876L8.2126 9.26257C7.8751 8.92507 7.8751 8.40007 8.2126 8.06257C8.5501 7.72507 9.0751 7.72507 9.4126 8.06257L14.5876 13.2376V9.37507C14.5876 8.92507 14.9626 8.55007 15.4126 8.55007C15.8626 8.55007 16.2376 8.92507 16.2376 9.37507V15.2626C16.2376 15.7126 15.8626 16.1251 15.4126 16.1251Z" fill="#161A23"/>
</g>
<defs>
<clipPath id="clip0_501_41620">
<rect width="24" height="24" fill="white"/>
</clipPath>
</defs>
</svg>
