<svg width="24" height="24" viewBox="0 0 24 24" fill="none" xmlns="http://www.w3.org/2000/svg">
<path d="M11.6737 7.13721C13.9763 6.02519 15.88 4.68201 17.2092 3.4623C15.692 2.53464 13.9084 2 11.9999 2C10.5347 2 9.1431 2.31512 7.88916 2.88128C8.77544 3.92278 9.97219 5.46687 11.2336 7.34466C11.3817 7.27657 11.5284 7.20739 11.6737 7.13721Z" fill="#15171A"/>
<path d="M9.82631 7.94086C8.55626 6.07099 7.37033 4.56676 6.54434 3.61792C4.4875 4.95941 2.9549 7.03748 2.3208 9.47784C4.98216 9.42975 7.53543 8.83011 9.82631 7.94086Z" fill="#15171A"/>
<path d="M10.67 9.22021C11.023 9.77166 11.3778 10.3473 11.7288 10.9431C12.1821 11.7128 12.6276 12.514 13.0538 13.3384C12.1893 13.6478 11.3669 14.0026 10.5974 14.394C8.75111 15.3334 7.18287 16.4975 6.06678 17.7814C5.67419 18.233 5.33233 18.7059 5.05433 19.1943C3.17114 17.3758 2 14.8247 2 12C2 11.656 2.01737 11.3161 2.05128 10.981C5.14497 10.9697 8.08636 10.2596 10.67 9.22021Z" fill="#15171A"/>
<path d="M14.502 12.8748C14.0257 11.9411 13.5266 11.0398 13.0213 10.1819C12.7035 9.64231 12.3826 9.11868 12.0623 8.61372C12.1508 8.57214 12.2388 8.53022 12.3263 8.48798C14.8413 7.27333 16.9666 5.76684 18.4489 4.35693C20.6208 6.19129 22.0001 8.93459 22.0001 12L22 12.0337C19.3868 11.8861 16.826 12.2156 14.502 12.8748Z" fill="#15171A"/>
<path d="M13.7251 14.6921C12.8607 14.9932 12.0407 15.3428 11.2777 15.731C9.56148 16.6041 8.16097 17.6588 7.19894 18.7655C6.78999 19.2359 6.46769 19.7067 6.23193 20.1697C7.8618 21.3226 9.85184 22 12.0001 22C13.443 22 14.8145 21.6944 16.0534 21.1444C15.543 18.9597 14.7107 16.7691 13.7251 14.6921Z" fill="#15171A"/>
<path d="M17.4181 20.4065C16.8915 18.3017 16.0962 16.2166 15.1729 14.2454C17.2642 13.6807 19.5532 13.4016 21.8839 13.5296C21.4415 16.4118 19.7684 18.8886 17.4181 20.4065Z" fill="#15171A"/>
</svg>
