<svg width="24" height="24" viewBox="0 0 24 24" fill="none" xmlns="http://www.w3.org/2000/svg">
<g clip-path="url(#clip0_914_45001)">
<path d="M12.0003 0.674927C5.7378 0.674927 0.675293 5.73743 0.675293 11.9999C0.675293 18.2624 5.7378 23.3624 12.0003 23.3624C18.2628 23.3624 23.3628 18.2624 23.3628 11.9999C23.3628 5.73743 18.2628 0.674927 12.0003 0.674927ZM21.6378 12.3374C19.4253 12.1874 17.1003 12.4124 14.8128 12.9749C14.4753 12.0749 14.1378 11.2124 13.7628 10.3499C16.1253 9.56243 18.3378 8.39993 20.2503 7.01243C21.1503 8.47493 21.6378 10.1999 21.6378 12.0374C21.6753 12.1124 21.6378 12.2249 21.6378 12.3374ZM19.2378 5.62493C17.4378 6.97493 15.3003 8.06243 13.0128 8.77493C11.8128 6.37493 10.4628 4.34993 9.0378 2.77493C9.9753 2.47493 10.9503 2.32493 12.0003 2.32493C14.8878 2.36243 17.4753 3.63743 19.2378 5.62493ZM7.3878 3.52493C8.8128 4.94993 10.1628 6.89993 11.3628 9.26243C8.4003 9.97493 5.3628 10.0874 2.62529 9.59993C3.33779 6.97493 5.0628 4.79993 7.3878 3.52493ZM2.36279 11.2499C3.60029 11.5124 4.8753 11.6249 6.1503 11.6249C8.1003 11.6249 10.1253 11.3624 12.1128 10.8374C12.4878 11.6624 12.8628 12.5249 13.1628 13.4249C9.8628 14.4749 6.9378 16.1249 4.6128 18.2624C3.22529 16.5374 2.36279 14.3624 2.36279 11.9999C2.36279 11.7374 2.36279 11.5124 2.36279 11.2499ZM5.8128 19.4249C7.9503 17.4749 10.6878 15.9374 13.7253 14.9999C13.8378 15.3749 13.9503 15.7499 14.0628 16.0874C14.5503 17.7749 14.9253 19.4624 15.1878 21.0749C14.1753 21.4124 13.1253 21.6374 12.0003 21.6374C9.6378 21.6749 7.5003 20.8124 5.8128 19.4249ZM16.8003 20.3624C16.5378 18.8249 16.1628 17.2124 15.7128 15.5999C15.6003 15.2249 15.4878 14.8874 15.3753 14.5124C17.4003 14.0249 19.5003 13.8374 21.4503 13.9499C20.8878 16.7249 19.1253 19.0124 16.8003 20.3624Z" fill="#15171A"/>
</g>
<defs>
<clipPath id="clip0_914_45001">
<rect width="24" height="24" fill="white"/>
</clipPath>
</defs>
</svg>
