<svg width="24" height="24" viewBox="0 0 24 24" fill="none" xmlns="http://www.w3.org/2000/svg">
<path d="M12.7499 5.37369C12.4102 5.17786 12.4102 4.70484 12.7499 4.50901L16.9775 2.07185C17.1437 1.97605 17.3513 1.97605 17.5175 2.07185L21.7451 4.50901C22.0848 4.70484 22.0848 5.17786 21.7451 5.37369L17.5175 7.81085C17.3513 7.90665 17.1437 7.90665 16.9775 7.81085L12.7499 5.37369Z" fill="#15171A"/>
<path d="M2.25477 5.37369C1.91508 5.17786 1.91508 4.70484 2.25477 4.50901L6.48242 2.07185C6.6486 1.97605 6.85621 1.97605 7.02239 2.07185L11.25 4.50901C11.5897 4.70484 11.5897 5.17786 11.25 5.37369L7.02239 7.81085C6.85621 7.90665 6.6486 7.90665 6.48242 7.81085L2.25477 5.37369Z" fill="#15171A"/>
<path d="M12.7499 13.4406C12.4102 13.2447 12.4102 12.7717 12.7499 12.5759L16.9775 10.1387C17.1437 10.0429 17.3513 10.0429 17.5175 10.1387L21.7451 12.5759C22.0848 12.7717 22.0848 13.2447 21.7451 13.4406L17.5175 15.8777C17.3513 15.9735 17.1437 15.9735 16.9775 15.8777L12.7499 13.4406Z" fill="#15171A"/>
<path d="M2.25478 13.4406C1.91508 13.2447 1.91508 12.7717 2.25478 12.5759L6.48241 10.1387C6.6486 10.0429 6.85621 10.0429 7.02239 10.1387L11.25 12.5759C11.5897 12.7717 11.5897 13.2447 11.25 13.4406L7.02239 15.8777C6.85621 15.9735 6.6486 15.9735 6.48241 15.8777L2.25478 13.4406Z" fill="#15171A"/>
<path d="M7.74365 8.79346C7.77352 8.80884 7.80309 8.82497 7.83235 8.84183L12 11.2444L16.1677 8.84183C16.1969 8.82497 16.2265 8.80885 16.2563 8.79347L12.27 6.45405C12.1038 6.35825 11.8962 6.35825 11.73 6.45405L7.74365 8.79346Z" fill="#15171A"/>
<path d="M17.8018 17.3907V19.0584C17.8019 19.2257 17.717 19.393 17.547 19.491L12.2699 21.9282C12.1037 22.024 11.8961 22.024 11.7299 21.9282L6.45277 19.491C6.28405 19.3937 6.19912 19.2281 6.198 19.062V17.3907C6.74283 17.534 7.33411 17.462 7.8323 17.1748L11.9999 14.7723L16.1676 17.1748C16.6657 17.462 17.257 17.534 17.8018 17.3907Z" fill="#15171A"/>
</svg>
