<svg width="24" height="24" viewBox="0 0 24 24" fill="none" xmlns="http://www.w3.org/2000/svg">
<path d="M22.8372 11.4374L19.3497 9.11243L22.8747 6.78743C23.1747 6.56243 23.3622 6.22493 23.3622 5.84993C23.3622 5.47493 23.1372 5.17493 22.8372 4.98743L17.4747 1.42493C17.1372 1.19993 16.6122 1.19993 16.2747 1.42493L11.9997 4.27493L7.7622 1.46243C7.3872 1.16243 6.8247 1.16243 6.4872 1.46243L1.12471 4.98743C0.824707 5.17493 0.637207 5.51243 0.637207 5.88743C0.637207 6.26243 0.824707 6.59993 1.12471 6.78743L4.6122 9.11243L1.12471 11.4374C0.824707 11.6249 0.637207 11.9624 0.637207 12.3374C0.637207 12.7124 0.824707 13.0499 1.12471 13.2374L4.2747 15.3374V17.5124C4.2747 17.8874 4.4622 18.2249 4.7997 18.4499L11.3997 22.4999C11.5872 22.6124 11.7747 22.6874 11.9997 22.6874C12.1872 22.6874 12.3747 22.6499 12.5622 22.5374L19.1622 18.4874C19.4622 18.2624 19.6497 17.9249 19.6497 17.5874V15.3374L22.7997 13.2374C23.0997 13.0499 23.2872 12.7124 23.2872 12.3374C23.3247 11.9999 23.1372 11.6624 22.8372 11.4374ZM11.9997 11.9624L7.7247 9.11243L11.9997 6.29993L16.2747 9.14993L11.9997 11.9624ZM16.8747 3.07493L21.1497 5.92493L17.8122 8.13743L13.5372 5.28743L16.8747 3.07493ZM2.81221 5.88743L7.1247 3.07493L10.4622 5.28743L6.1872 8.09993H6.1497L2.81221 5.88743ZM6.1872 10.1249L10.4997 12.9749L7.1247 15.1874L2.81221 12.3374L6.1872 10.1249ZM5.9997 16.4999L6.5247 16.8374C6.7122 16.9499 6.8997 17.0249 7.1247 17.0249C7.3497 17.0249 7.5372 16.9499 7.7247 16.8374L11.1747 14.5499V20.3999L5.9997 17.2124V16.4999ZM17.9997 17.2499L12.8247 20.3999V14.5499L16.2747 16.7999C16.4622 16.9124 16.6497 16.9874 16.8747 16.9874C17.0997 16.9874 17.2872 16.9124 17.4747 16.7999L17.9997 16.4624V17.2499ZM16.8747 15.1874L13.5372 13.0124L17.8122 10.1624L21.1497 12.3749L16.8747 15.1874Z" fill="#15171A"/>
</svg>
