<svg width="24" height="24" viewBox="0 0 24 24" fill="none" xmlns="http://www.w3.org/2000/svg">
<path d="M14.7753 4.79992C14.5128 4.72492 14.2503 4.53742 14.0628 4.27492C13.9503 4.12492 13.8003 3.89992 13.6128 3.63743L12.0003 1.27493C11.7003 0.787428 11.1003 0.562428 10.5003 0.637428C9.9003 0.749928 9.4503 1.19993 9.3378 1.76243L8.8128 4.31242C8.7003 4.72492 8.4003 5.02492 8.0253 5.21242C4.5753 6.71242 2.36279 10.0874 2.36279 13.8374C2.36279 19.0499 6.6753 23.3249 12.0003 23.3249C17.3253 23.3249 21.6378 19.0874 21.6378 13.8374C21.6378 9.78742 18.8253 6.03742 14.7753 4.79992ZM12.0003 21.6749C7.6128 21.6749 4.0503 18.1874 4.0503 13.8749C4.0503 10.7999 5.8878 8.02492 8.7003 6.78742C9.6003 6.41242 10.2378 5.66242 10.4628 4.76242L10.9128 2.66243L12.2253 4.57492C12.4128 4.83742 12.5628 5.09992 12.7128 5.24992C13.0878 5.77492 13.6878 6.22492 14.2878 6.37492C17.6253 7.42492 19.9503 10.4999 19.9503 13.8749C19.9503 18.1499 16.3878 21.6749 12.0003 21.6749Z" fill="#15171A"/>
<path d="M18.0007 12.0001C17.8507 11.3626 17.4757 10.8001 16.9132 10.5001C16.5007 10.2376 16.0132 10.1251 15.4882 10.1626C15.1132 10.2001 14.7757 10.2751 14.4382 10.3876C14.1007 10.5376 13.8007 10.7251 13.5757 10.8751L13.3882 10.9876C13.3507 10.9876 13.3507 11.0251 13.3132 11.0251C13.2757 11.0251 13.2757 10.9876 13.2382 10.9876L13.1632 10.8751C12.9757 10.7626 12.7882 10.5751 12.4882 10.4626C11.3257 9.9001 10.0507 9.7501 8.96318 10.0501C8.17568 10.2751 7.50068 10.8001 7.08818 11.5126C6.75068 12.1876 6.63818 13.0126 6.82568 13.8001C7.05068 14.6626 7.57568 15.3751 8.28818 15.8251C8.73818 16.0876 9.26318 16.2376 9.78818 16.2376C10.0507 16.2376 10.3132 16.2001 10.6507 16.1251C11.7382 15.8251 12.5632 15.1876 13.2757 14.5126C13.3507 14.6251 13.4257 14.7376 13.5007 14.8501C14.1757 15.7126 15.4882 16.2751 16.6507 15.6751C17.1757 15.4126 17.8882 14.8126 18.0382 13.4251C18.1132 12.8251 18.1132 12.4126 18.0007 12.0001ZM12.7507 12.7126L12.3382 13.0876C11.7007 13.6876 11.0257 14.2501 10.2382 14.4751C10.0507 14.5126 9.90068 14.5501 9.78818 14.5501C9.56318 14.5501 9.33818 14.4751 9.15068 14.3626C8.81318 14.1751 8.58818 13.8001 8.47568 13.3876C8.40068 13.0126 8.43818 12.6001 8.58818 12.3376C8.77568 12.0001 9.11318 11.7751 9.45068 11.6626C9.67568 11.5876 9.93818 11.5501 10.1632 11.5501C10.6882 11.5501 11.2507 11.7001 11.7382 11.9626L11.7757 12.0001C11.8882 12.0376 12.0007 12.1501 12.1507 12.2251L12.2632 12.3001C12.3382 12.3751 12.4132 12.4126 12.5257 12.4876C12.6382 12.5626 12.7132 12.6001 12.8257 12.6751C12.7882 12.6751 12.7882 12.6751 12.7507 12.7126ZM16.3882 13.1626C16.3507 13.5001 16.2382 13.9501 15.9007 14.1376C15.5632 14.3251 15.0757 14.0626 14.8507 13.7626C14.7757 13.6876 14.7382 13.5751 14.6632 13.4626L14.5507 13.2751C14.3632 12.9751 14.2132 12.7501 14.0257 12.6001C14.1382 12.5251 14.2507 12.4876 14.3632 12.4126L14.5132 12.3001C14.7007 12.1501 14.9257 12.0376 15.1132 11.9626C15.2632 11.8876 15.4507 11.8501 15.6007 11.8501C15.7882 11.8501 15.9382 11.8876 16.0132 11.9251L16.0507 11.9626C16.2007 12.0376 16.3132 12.2251 16.3507 12.4501V12.4876C16.4257 12.6376 16.4257 12.8626 16.3882 13.1626Z" fill="#15171A"/>
<path d="M13.6882 18.9374C13.5382 19.0124 13.3882 19.0874 13.2382 19.1624C12.9007 19.2749 12.5632 19.3124 12.2257 19.3124C11.8882 19.2749 11.5507 19.1999 11.1757 19.0499C10.7632 18.8624 10.2382 19.0499 10.0507 19.4999C9.86319 19.9124 10.0507 20.4374 10.5007 20.6249C11.0257 20.8499 11.5507 20.9999 12.0757 21.0374C12.1882 21.0374 12.3007 21.0374 12.3757 21.0374C12.8257 21.0374 13.3132 20.9624 13.7632 20.8124C14.0257 20.6999 14.2882 20.5874 14.5507 20.4374C14.9632 20.2124 15.0757 19.6874 14.8507 19.2749C14.5882 18.8249 14.1007 18.6749 13.6882 18.9374Z" fill="#15171A"/>
<path d="M14.1002 16.1624C13.3502 16.1624 12.6377 16.4999 12.1502 17.0249C11.8127 17.3624 11.8502 17.8874 12.1877 18.2249C12.3377 18.3749 12.5627 18.4499 12.7502 18.4499C12.9752 18.4499 13.2002 18.3749 13.3502 18.1874C13.5377 17.9999 13.8377 17.8499 14.1002 17.8499C14.2877 17.8499 14.4377 17.8874 14.5127 17.9624C14.8502 18.2999 15.3752 18.2999 15.7127 17.9624C16.0502 17.6249 16.0502 17.0999 15.7127 16.7624C15.3377 16.3874 14.7752 16.1999 14.1002 16.1624Z" fill="#15171A"/>
</svg>
