<svg width="24" height="24" viewBox="0 0 24 24" fill="none" xmlns="http://www.w3.org/2000/svg">
<path d="M17.2119 4.83757C17.1369 4.80007 17.1369 4.83757 17.2119 4.83757C16.1619 4.16257 15.1869 3.82507 14.1744 3.30007C14.0244 3.26257 13.9119 3.15007 13.7619 3.03757C13.0869 2.51257 12.0744 1.38757 11.2494 0.450073C11.2119 0.937573 11.1369 1.31257 11.0244 1.68757C10.8744 2.28757 10.4994 2.73757 10.1994 3.00007C10.1244 3.03757 10.1244 3.03757 10.0869 3.03757C8.92436 3.93757 8.2119 4.20007 7.2369 4.72507C7.1994 4.76257 7.0119 4.83757 6.8619 4.95007C6.2619 5.32507 5.2119 6.07507 4.2744 7.16257C1.72438 10.1251 1.08688 14.5501 2.88688 18.0001C3.56188 19.2751 4.4994 20.4751 5.6619 21.3751C6.8619 22.3126 8.4744 22.8751 9.9369 23.2126C12.0369 23.7001 14.0619 23.7001 16.0494 22.9126C17.5869 22.3126 18.9369 21.3001 19.9869 20.0251C21.4119 18.2626 22.1244 16.0126 22.1244 13.7626C22.3119 8.02507 17.8869 5.32507 17.2119 4.83757ZM4.1244 8.62507C4.0869 8.58757 3.71188 8.36257 4.0869 7.87507C5.2119 6.18757 7.2744 5.02507 7.9119 4.72507C8.1369 4.61257 9.1494 4.12507 10.1244 3.41257C10.7619 2.92507 11.1744 2.47507 11.3619 1.01257C11.5119 1.53757 11.5119 1.95007 11.5119 2.51257C11.4744 3.11257 10.9119 3.45007 10.8744 3.52507C10.7619 3.63757 10.2744 3.82507 10.1994 3.93757C10.0869 3.97507 10.0869 4.05007 10.1994 4.05007C10.3494 4.08757 10.4619 4.16257 10.4619 4.31257C10.4619 4.42507 10.4244 4.72507 9.86186 5.25007C8.92436 6.18757 8.2119 6.82507 6.5619 7.80007C4.9869 8.73757 4.1994 8.62507 4.1244 8.62507ZM17.3244 21.7126C17.2119 21.8251 16.1619 22.5751 14.9244 22.6501C13.6869 22.7251 12.0744 22.8001 11.0994 21.9001C10.9494 21.7501 10.9869 21.4876 11.0994 21.4126C11.2119 21.3001 11.2494 21.2626 11.3994 21.2626C11.5119 21.2626 11.5119 21.2626 11.5494 21.3001C11.9619 21.6751 12.6744 21.9376 14.0994 21.9376C15.5244 21.9376 16.6119 21.5251 17.0244 21.1876C17.1744 21.0376 17.2869 21.1501 17.3244 21.2251C17.3994 21.4501 17.4744 21.6376 17.3244 21.7126ZM13.3119 19.7251C13.5744 19.5001 13.9494 19.1251 14.3244 18.9751C14.7369 18.8251 14.9244 18.8626 15.2619 18.8626C15.6369 18.8626 16.0119 18.9001 16.2744 19.0126C16.5369 19.1626 16.6869 19.6126 16.7994 19.8001C16.9119 20.0251 16.7994 20.1751 16.6494 20.2126C16.4994 20.3251 16.4994 20.2501 16.3494 19.9501C16.1994 19.6876 16.0869 19.3501 15.2244 19.3501C14.4369 19.3501 14.2119 19.6126 13.7994 19.9501C13.3869 20.2501 13.2744 20.3626 13.1619 20.2126C13.0494 20.1001 13.1244 19.9126 13.3119 19.7251ZM19.3119 19.8751C18.5244 19.8376 16.8744 17.2876 15.8619 17.2876C14.5494 17.2501 11.7369 19.9876 9.48686 19.9876C8.17436 19.9876 7.7244 19.8376 7.2744 19.4626C6.6369 18.9751 6.2619 18.2251 6.2619 17.2876C6.2994 15.5251 7.94936 13.8751 10.0494 13.8376C12.6369 13.8001 14.5119 16.4251 15.8244 16.4251C16.9494 16.3876 19.1244 14.2126 20.1744 14.2126C21.2994 14.2126 21.5994 15.3751 21.5994 16.0876C21.5994 16.7626 21.3744 18.0376 20.8494 18.8626C20.2869 19.6501 19.9494 19.9126 19.3119 19.8751Z" fill="#15171A"/>
</svg>
