<svg width="24" height="24" viewBox="0 0 24 24" fill="none" xmlns="http://www.w3.org/2000/svg">
<path d="M23.55 11.1L21.6375 8.32498C21.1875 7.72498 20.5125 7.38748 19.8 7.38748H17.7C16.425 7.38748 15.45 8.36248 15.45 9.63748V16.05H13.8375V6.74998H16.5375C16.9875 6.74998 17.3625 6.37498 17.3625 5.92498C17.3625 5.47498 16.9875 5.09998 16.5375 5.09998H10.6125C10.35 5.09998 10.125 5.21248 9.97501 5.39998L7.76251 7.94998H2.51251C1.23751 7.94998 0.262512 8.92498 0.262512 10.2V15.5625C0.262512 16.8375 1.23751 17.8125 2.51251 17.8125H2.88751C3.26251 18.525 4.01251 19.0125 4.87501 19.0125C5.73751 19.0125 6.48751 18.525 6.86251 17.8125H7.53751C7.91251 18.525 8.66251 19.0125 9.52501 19.0125C10.3875 19.0125 11.1375 18.525 11.5125 17.8125H17.325C17.7 18.525 18.45 19.0125 19.3125 19.0125C20.175 19.0125 20.925 18.525 21.3 17.8125H22.875C23.325 17.8125 23.7 17.4375 23.7 16.9875V11.5875C23.7 11.4 23.6625 11.25 23.55 11.1ZM17.7 9.07498H19.8C20.0625 9.07498 20.2125 9.22498 20.2875 9.29998L21.45 10.95H17.1375V9.59998C17.1375 9.29998 17.3625 9.07498 17.7 9.07498ZM1.95001 15.4875V10.125C1.95001 9.78748 2.17501 9.56248 2.51251 9.56248H8.13751C8.40001 9.56248 8.62501 9.44998 8.77501 9.26248L10.9875 6.71248H12.15V16.0125H11.7C11.4 15.1125 10.575 14.4375 9.56251 14.4375C8.55001 14.4375 7.68751 15.1125 7.42501 16.0125H7.05001C6.75001 15.1125 5.92501 14.4375 4.91251 14.4375C3.90001 14.4375 3.03751 15.1125 2.77501 16.0125H2.51251C2.21251 16.05 1.95001 15.825 1.95001 15.4875ZM4.91251 17.25C4.61251 17.25 4.35001 16.9875 4.35001 16.6875C4.35001 16.3875 4.61251 16.125 4.91251 16.125C5.21251 16.125 5.47501 16.3875 5.47501 16.6875C5.47501 16.9875 5.21251 17.25 4.91251 17.25ZM9.56251 17.25C9.26251 17.25 9.00001 16.9875 9.00001 16.6875C9.00001 16.3875 9.26251 16.125 9.56251 16.125C9.86251 16.125 10.125 16.3875 10.125 16.6875C10.125 16.9875 9.86251 17.25 9.56251 17.25ZM19.35 17.25C19.125 17.25 18.9375 17.1 18.825 16.9125V16.875C18.825 16.8 18.825 16.725 18.7875 16.6125C18.825 16.35 19.05 16.125 19.35 16.125C19.65 16.125 19.9125 16.3875 19.9125 16.6875C19.9125 16.9875 19.65 17.25 19.35 17.25ZM21.4875 16.05C21.1875 15.15 20.3625 14.475 19.35 14.475C18.3375 14.475 17.475 15.15 17.2125 16.05H17.175V12.675H22.05V16.05H21.4875Z" fill="#161A23"/>
<path d="M4.05004 13.875C4.50004 13.875 4.87504 13.5 4.87504 13.05V11.325C4.87504 10.875 4.50004 10.5 4.05004 10.5C3.60004 10.5 3.22504 10.875 3.22504 11.325V13.05C3.22504 13.5 3.60004 13.875 4.05004 13.875Z" fill="#161A23"/>
<path d="M7.8 13.875C8.25 13.875 8.625 13.5 8.625 13.05V11.325C8.625 10.875 8.25 10.5 7.8 10.5C7.35 10.5 6.975 10.875 6.975 11.325V13.05C6.9375 13.5 7.3125 13.875 7.8 13.875Z" fill="#161A23"/>
</svg>
