<svg width="25" height="24" viewBox="0 0 25 24" fill="none" xmlns="http://www.w3.org/2000/svg">
<path d="M15.1125 20.7374H13.9875C13.575 20.7374 13.1625 20.5874 12.8625 20.2874C12.5625 19.9874 12.4125 19.5749 12.4125 19.1624V9.11244C12.4125 7.46244 13.0875 5.92494 14.325 4.79994C15.4875 3.71244 17.025 3.14994 18.525 3.26244C19.7625 3.33744 22.0125 3.71244 23.175 5.13744C23.4 5.43744 23.5875 5.88744 23.5875 6.29994V10.2374C23.5875 10.6124 23.475 10.9124 23.325 11.2124C22.3875 12.6749 20.2875 13.5374 18 13.3499C17.5125 13.3124 17.1 13.2374 16.725 13.0874V19.1624C16.725 20.0249 16.0125 20.7374 15.1125 20.7374ZM14.1 19.0499H15.0375V11.7374C15.0375 11.4374 15.1875 11.1374 15.45 10.9874C15.7125 10.8374 16.05 10.8374 16.3125 10.9874C17.0625 11.4374 17.4375 11.6249 18.1125 11.6624C19.7625 11.7749 21.3 11.2124 21.9 10.2749V10.2374V6.29994C21.9 6.29994 21.8625 6.22494 21.8625 6.18744C21.3375 5.54994 20.025 5.06244 18.4125 4.94994C17.3625 4.87494 16.3125 5.28744 15.4875 6.03744C14.625 6.82494 14.1375 7.94994 14.1375 9.11244L14.1 19.0499Z" fill="#161A23"/>
<path d="M10.35 20.7374H9.22497C8.36247 20.7374 7.61247 20.0249 7.61247 19.1249V13.0874C7.23747 13.2374 6.82498 13.3124 6.33747 13.3499C4.08748 13.4999 1.98748 12.6749 1.04998 11.2124C0.862476 10.9499 0.787476 10.6124 0.787476 10.2374V6.29994C0.787476 5.92494 0.937476 5.43744 1.19998 5.13744C2.36248 3.71244 4.61248 3.33744 5.84998 3.26244C7.34998 3.14994 8.88748 3.71244 10.05 4.79994C11.25 5.92494 11.925 7.46244 11.9625 9.11244V19.1624C11.9625 19.5749 11.8125 19.9874 11.5125 20.2874C11.175 20.5874 10.8 20.7374 10.35 20.7374ZM9.33747 19.0499H10.2375V9.11244C10.2375 7.94994 9.74998 6.86244 8.88748 6.03744C8.06248 5.28744 7.01248 4.87494 5.96247 4.94994C4.34997 5.06244 3.03748 5.54994 2.47498 6.22494C2.47498 6.22494 2.47498 6.29994 2.43748 6.29994V10.2374C2.43748 10.2749 2.43748 10.3124 2.43748 10.3124C3.03748 11.2499 4.53748 11.8124 6.22498 11.6624C6.89998 11.6249 7.27497 11.4374 8.02497 10.9874C8.28747 10.8374 8.62498 10.8374 8.88748 10.9874C9.14997 11.1374 9.29997 11.3999 9.29997 11.7374V19.0499H9.33747Z" fill="#161A23"/>
</svg>
