<svg width="24" height="24" viewBox="0 0 24 24" fill="none" xmlns="http://www.w3.org/2000/svg">
<path d="M16.125 4.875H7.87501C7.42501 4.875 7.01251 5.25 7.01251 5.7375C7.01251 6.225 7.38751 6.6 7.87501 6.6H16.125C16.575 6.6 16.9875 6.225 16.9875 5.7375C16.9875 5.25 16.575 4.875 16.125 4.875Z" fill="#161A23"/>
<path d="M16.125 8.4375H7.87501C7.42501 8.4375 7.01251 8.8125 7.01251 9.3C7.01251 9.7875 7.38751 10.1625 7.87501 10.1625H16.125C16.575 10.1625 16.9875 9.7875 16.9875 9.3C16.9875 8.8125 16.575 8.4375 16.125 8.4375Z" fill="#161A23"/>
<path d="M13.7625 11.9624H7.87501C7.42501 11.9624 7.01251 12.3374 7.01251 12.8249C7.01251 13.3124 7.38751 13.6874 7.87501 13.6874H13.7625C14.2125 13.6874 14.625 13.3124 14.625 12.8249C14.625 12.3374 14.2125 11.9624 13.7625 11.9624Z" fill="#161A23"/>
<path d="M12 15.5625C10.65 15.5625 9.60001 16.65 9.60001 17.9625C9.60001 19.275 10.6875 20.3625 12 20.3625C13.35 20.3625 14.4 19.275 14.4 17.9625C14.4 16.65 13.35 15.5625 12 15.5625ZM12 18.675C11.5875 18.675 11.2875 18.3375 11.2875 17.9625C11.2875 17.5875 11.5875 17.25 12 17.25C12.4125 17.25 12.7125 17.5875 12.7125 17.9625C12.7125 18.3375 12.4125 18.675 12 18.675Z" fill="#161A23"/>
<path d="M17.1 0.637451H6.90001C4.76251 0.637451 3.03751 2.36245 3.03751 4.49995V19.4999C3.03751 21.6374 4.76251 23.3624 6.90001 23.3624H17.1375C19.275 23.3624 21 21.6374 21 19.4999V4.49995C20.9625 2.36245 19.2375 0.637451 17.1 0.637451ZM19.275 19.4999C19.275 20.6999 18.3 21.6749 17.1 21.6749H6.90001C5.70001 21.6749 4.72501 20.6999 4.72501 19.4999V4.49995C4.72501 3.29995 5.70001 2.32495 6.90001 2.32495H17.1375C18.3375 2.32495 19.3125 3.29995 19.3125 4.49995V19.4999H19.275Z" fill="#161A23"/>
</svg>
