<svg width="24" height="24" viewBox="0 0 24 24" fill="none" xmlns="http://www.w3.org/2000/svg">
<path d="M22.7628 11.4C22.7628 9.3375 22.3878 7.4625 21.4503 5.6625C19.5378 2.2125 16.1253 0.375 12.1503 0.375C5.6253 0.375 1.95029 5.2875 1.23779 10.65C3.22529 7.7625 6.7128 4.95 11.5128 4.8C11.5128 4.8 16.6878 4.8 16.1628 9.7125H7.9878C8.2503 7.9875 8.8128 6.975 9.5628 6.0375C6.0378 7.725 3.8628 10.575 3.9378 14.8875C3.9753 18.225 6.3003 21.675 9.5628 22.95C13.4628 24.4125 18.5628 23.25 20.7753 21.9375V17.025C17.0253 19.65 8.0628 19.875 8.0628 13.875H22.7253V11.4H22.7628Z" fill="#15171A"/>
</svg>
