<svg width="24" height="24" viewBox="0 0 24 24" fill="none" xmlns="http://www.w3.org/2000/svg">
<path d="M22.7625 15.8625L14.1 4.83751C13.575 4.20001 12.825 3.82501 12 3.82501C11.175 3.82501 10.3875 4.20001 9.89999 4.83751L1.23749 15.8625C0.599988 16.6875 0.487488 17.775 0.937488 18.7125C1.38749 19.65 2.32499 20.2125 3.33749 20.2125H20.6625C21.7125 20.2125 22.6125 19.65 23.0625 18.7125C23.5125 17.7375 23.4 16.65 22.7625 15.8625ZM21.5625 17.9625C21.375 18.3 21.075 18.525 20.6625 18.525H3.33749C2.96249 18.525 2.62499 18.3 2.43749 17.9625C2.24999 17.625 2.32499 17.2125 2.54999 16.9125L11.2125 5.88751C11.4 5.66251 11.7 5.51251 12 5.51251C12.3 5.51251 12.6 5.66251 12.7875 5.88751L21.45 16.875C21.675 17.2125 21.7125 17.5875 21.5625 17.9625Z" fill="#161A23"/>
<path d="M12.3 12.7875L13.5 11.625C13.8375 11.2875 13.8375 10.7625 13.5375 10.425C13.2 10.0875 12.675 10.0875 12.3375 10.3875L10.4625 12.1875C10.3125 12.3375 10.2 12.5625 10.2 12.7875C10.2 13.0125 10.3125 13.2375 10.4625 13.3875L11.7 14.55L10.5 15.75C10.1625 16.0875 10.1625 16.6125 10.4625 16.95C10.6125 17.1375 10.8375 17.2125 11.0625 17.2125C11.2875 17.2125 11.475 17.1375 11.6625 16.9875L13.5375 15.1875C13.6875 15.0375 13.8 14.8125 13.8 14.5875C13.8 14.3625 13.6875 14.1375 13.5375 13.9875L12.3 12.7875Z" fill="#161A23"/>
</svg>
