<svg width="24" height="24" viewBox="0 0 24 24" fill="none" xmlns="http://www.w3.org/2000/svg">
<path d="M21.375 9.11255H20.3625V8.28755C20.3625 7.01255 19.3125 5.92505 18 5.92505H3.00001C1.72501 5.92505 0.637512 6.97505 0.637512 8.28755V15.7125C0.637512 16.9875 1.68751 18.075 3.00001 18.075H18C19.275 18.075 20.3625 17.025 20.3625 15.7125V14.8875H21.375C22.4625 14.8875 23.3625 13.9875 23.3625 12.9V11.0625C23.3625 9.97505 22.4625 9.11255 21.375 9.11255ZM18.675 15.7125C18.675 16.0875 18.375 16.3875 18 16.3875H3.00001C2.62501 16.3875 2.32501 16.0875 2.32501 15.7125V8.28755C2.32501 7.91255 2.62501 7.61255 3.00001 7.61255H18C18.375 7.61255 18.675 7.91255 18.675 8.28755V15.7125ZM21.675 12.9375C21.675 13.0875 21.5625 13.2375 21.375 13.2375H20.3625V10.8375H21.375C21.525 10.8375 21.675 10.95 21.675 11.1375V12.9375Z" fill="#161A23"/>
</svg>
