<svg width="24" height="24" viewBox="0 0 24 24" fill="none" xmlns="http://www.w3.org/2000/svg">
<path d="M18.5625 0.674988H5.43749C4.16249 0.674988 3.14999 1.68749 3.14999 2.96249V15C3.14999 15.5625 3.37499 16.0875 3.78749 16.4625L10.5375 22.8375C10.9125 23.2125 11.4 23.4 11.925 23.4H18.525C19.8 23.4 20.8125 22.3875 20.8125 21.1125V2.96249C20.85 1.68749 19.8 0.674988 18.5625 0.674988ZM6.07499 16.275H10.4625C10.65 16.275 10.8 16.425 10.8 16.575V20.7L6.07499 16.275ZM19.1625 21.0375C19.1625 21.375 18.9 21.6375 18.5625 21.6375H12.4875V16.575C12.4875 15.4875 11.5875 14.5875 10.4625 14.5875H4.83749V2.96249C4.83749 2.62499 5.09999 2.36249 5.43749 2.36249H18.525C18.8625 2.36249 19.125 2.62499 19.125 2.96249V21.0375H19.1625Z" fill="#161A23"/>
</svg>
