<svg width="24" height="24" viewBox="0 0 24 24" fill="none" xmlns="http://www.w3.org/2000/svg">
<path d="M16.95 0.675049H12.7125C11.7375 0.675049 10.9125 1.50005 10.9125 2.47505V5.06255C10.9125 5.51255 11.2875 5.88755 11.7375 5.88755C12.1875 5.88755 12.6 5.51255 12.6 5.06255V2.43755C12.6 2.36255 12.6375 2.32505 12.7125 2.32505H16.95C17.85 2.32505 18.5625 3.03755 18.5625 3.93755V20.0251C18.5625 20.9251 17.85 21.6376 16.95 21.6376H12.7125C12.6375 21.6376 12.6 21.6001 12.6 21.5251V18.9376C12.6 18.4876 12.225 18.1126 11.7375 18.1126C11.25 18.1126 10.9125 18.4876 10.9125 18.9376V21.5251C10.9125 22.5001 11.7375 23.3251 12.7125 23.3251H16.95C18.7875 23.3251 20.25 21.8251 20.25 20.0251V3.97505C20.25 2.13755 18.75 0.675049 16.95 0.675049Z" fill="#161A23"/>
<path d="M13.9125 11.4L10.1625 7.57502C9.82498 7.23752 9.29998 7.23752 8.96248 7.57502C8.62498 7.91252 8.62498 8.43752 8.96248 8.77502L11.2875 11.1375H4.61248C4.16248 11.1375 3.78748 11.5125 3.78748 11.9625C3.78748 12.4125 4.16248 12.7875 4.61248 12.7875H11.325L8.96248 15.1875C8.62498 15.525 8.62498 16.05 8.96248 16.3875C9.11248 16.5375 9.33748 16.6125 9.56248 16.6125C9.78748 16.6125 10.0125 16.5375 10.1625 16.35L13.9125 12.525C14.25 12.2625 14.25 11.7375 13.9125 11.4Z" fill="#161A23"/>
</svg>
