<svg width="24" height="24" viewBox="0 0 24 24" fill="none" xmlns="http://www.w3.org/2000/svg">
<path d="M19.2001 0.52482C18.8251 0.374821 18.1876 0.299821 17.2876 0.41232C15.1876 0.67482 13.2751 1.61232 11.7001 3.03732C8.73765 5.73731 6.60015 9.41231 6.37515 14.6623C6.33765 14.8123 5.96265 14.6248 5.85015 14.6248C4.72515 12.4498 4.27515 10.3123 5.21265 7.01231C5.36265 6.74981 4.80015 6.37481 4.68765 6.48731C4.46265 6.71231 3.63764 7.61231 3.11264 8.54981C0.337636 13.4248 2.13764 19.5748 7.05015 22.3123C11.8876 25.0498 18.0751 23.3248 20.8126 18.4123C23.9251 12.7123 21.0376 1.53732 19.2001 0.52482Z" fill="#15171A"/>
</svg>
