<svg width="24" height="24" viewBox="0 0 24 24" fill="none" xmlns="http://www.w3.org/2000/svg">
<path d="M20.9999 3.59998H2.99995C1.72495 3.59998 0.637451 4.64998 0.637451 5.96248V18.1125C0.637451 19.3875 1.68745 20.475 2.99995 20.475H20.9999C22.275 20.475 23.3624 19.425 23.3624 18.1125V5.92498C23.3624 4.64998 22.275 3.59998 20.9999 3.59998ZM20.9999 5.28748C21.0374 5.28748 21.0749 5.28748 21.1124 5.28748L12 11.1375L2.88745 5.28748C2.92495 5.28748 2.96245 5.28748 2.99995 5.28748H20.9999ZM20.9999 18.7125H2.99995C2.62495 18.7125 2.32495 18.4125 2.32495 18.0375V6.93748L11.0999 12.5625C11.3625 12.75 11.6624 12.825 11.9625 12.825C12.2625 12.825 12.5625 12.75 12.825 12.5625L21.5999 6.93748V18.075C21.6749 18.45 21.3749 18.7125 20.9999 18.7125Z" fill="#161A23"/>
</svg>
