<svg width="24" height="24" viewBox="0 0 24 24" fill="none" xmlns="http://www.w3.org/2000/svg">
<path d="M22.95 8.4375L20.6625 7.0125C20.6625 5.7375 19.6124 4.65 18.2999 4.65H16.875C16.8375 4.65 16.8375 4.6125 16.7999 4.6125L12.45 1.875C12.1875 1.6875 11.8125 1.6875 11.55 1.875L7.12495 4.65H5.69995C4.42495 4.65 3.33745 5.7 3.33745 7.0125L1.04995 8.4375C0.787451 8.5875 0.637451 8.85 0.637451 9.15V19.8C0.637451 21.1875 1.76245 22.275 3.11245 22.275H20.8125C22.2 22.275 23.2875 21.15 23.2875 19.8V9.15C23.3624 8.85 23.2125 8.5875 22.95 8.4375ZM21.6749 9.6V10.575L20.6625 10.95V9L21.6749 9.6ZM12 3.5625L13.725 4.65H10.3125L12 3.5625ZM5.69995 6.3375H7.34995H18.2999C18.6749 6.3375 18.975 6.6375 18.975 7.0125V11.625L11.85 14.25L5.02495 11.775V6.975C5.02495 6.6375 5.32495 6.3375 5.69995 6.3375ZM3.33745 9V11.1375L2.32495 10.7625V9.6375L3.33745 9ZM20.85 20.5875H3.14995C2.69995 20.5875 2.36245 20.2125 2.36245 19.8V12.5625L11.5875 15.9C11.6625 15.9375 11.775 15.9375 11.8875 15.9375C12 15.9375 12.075 15.9375 12.1875 15.9L21.6749 12.375V19.7625C21.6749 20.2125 21.2999 20.5875 20.85 20.5875Z" fill="#161A23"/>
<path d="M8.7375 9.525H15.2625C15.7125 9.525 16.125 9.15 16.125 8.6625C16.125 8.175 15.75 7.8 15.2625 7.8H8.7375C8.2875 7.8 7.875 8.175 7.875 8.6625C7.875 9.15 8.2875 9.525 8.7375 9.525Z" fill="#161A23"/>
<path d="M8.7375 12.2625H15.2625C15.7125 12.2625 16.125 11.8875 16.125 11.4C16.125 10.9125 15.75 10.5375 15.2625 10.5375H8.7375C8.2875 10.5375 7.875 10.9125 7.875 11.4C7.875 11.8875 8.2875 12.2625 8.7375 12.2625Z" fill="#161A23"/>
</svg>
