<svg width="24" height="24" viewBox="0 0 24 24" fill="none" xmlns="http://www.w3.org/2000/svg">
<path d="M21.0375 4.1626H2.96255C1.68755 4.1626 0.675049 5.1751 0.675049 6.4501V17.5501C0.675049 18.8251 1.68755 19.8376 2.96255 19.8376H21.0751C22.35 19.8376 23.3625 18.8251 23.3625 17.5501V6.4501C23.3625 5.1751 22.3125 4.1626 21.0375 4.1626ZM2.36255 6.9001L9.18755 11.0626L2.36255 17.4376V6.9001ZM12.3 10.6126C12.1125 10.7251 11.85 10.7251 11.6625 10.6126L3.86255 5.8501H19.9875L12.3 10.6126ZM10.65 11.9626L10.8 12.0751C11.175 12.3001 11.5875 12.4126 12 12.4126C12.4125 12.4126 12.825 12.3001 13.2 12.0751L13.35 12.0001L19.8375 18.1876H4.01255L10.65 11.9626ZM21.675 17.5501C21.6375 17.5501 21.675 17.5501 21.675 17.5501L14.8125 11.0626L21.6376 6.7876V17.5501H21.675Z" fill="#161A23"/>
</svg>
