<svg width="24" height="24" viewBox="0 0 24 24" fill="none" xmlns="http://www.w3.org/2000/svg">
<g clip-path="url(#clip0_501_45490)">
<path d="M22.2 21.6749L11.925 21.6375L22.65 10.9125C23.55 10.0125 23.55 8.51245 22.65 7.61245L16.3875 1.31245C15.9375 0.862451 15.375 0.637451 14.7375 0.637451C14.1 0.637451 13.5 0.899951 13.0875 1.31245L2.24999 12.15C1.23749 13.1625 0.674988 14.5125 0.674988 15.9C0.674988 17.2875 1.23749 18.675 2.24999 19.65L4.27499 21.6749C5.32499 22.725 6.67499 23.25 8.02499 23.25C8.06249 23.25 8.06249 23.25 8.09999 23.25H8.13749L22.2 23.325C22.65 23.325 23.025 22.95 23.0625 22.5C23.0625 22.05 22.6875 21.6749 22.2 21.6749ZM14.25 2.51245C14.3625 2.39995 14.55 2.32495 14.7 2.32495C14.85 2.32495 15.0375 2.39995 15.15 2.51245L21.4125 8.77495C21.675 9.03745 21.675 9.44995 21.4125 9.71245L13.3125 17.85L6.11249 10.65L14.25 2.51245ZM3.41249 18.525C2.73749 17.85 2.36249 16.9125 2.36249 15.9375C2.36249 14.9625 2.73749 14.0625 3.41249 13.35L4.91249 11.85L12.075 19.0125L10.575 20.5125C9.14999 21.9375 6.86249 21.9375 5.43749 20.5125L3.41249 18.525Z" fill="#161A23"/>
</g>
<defs>
<clipPath id="clip0_501_45490">
<rect width="24" height="24" fill="white"/>
</clipPath>
</defs>
</svg>
