<svg width="24" height="24" viewBox="0 0 24 24" fill="none" xmlns="http://www.w3.org/2000/svg">
<path d="M22.5 20.8125L10.05 20.775L10.9125 19.9125C11.4375 19.875 11.9625 19.65 12.375 19.2375L21.825 9.7875C22.275 9.3375 22.5 8.775 22.5 8.1375C22.5 7.5 22.2375 6.9375 21.825 6.4875L17.5125 2.175C17.0625 1.725 16.4625 1.5 15.825 1.5C15.1875 1.5 14.625 1.725 14.175 2.175L4.725 11.625C4.3125 12.0375 4.0875 12.525 4.05 13.0875L1.9875 15.15C1.6875 15.45 1.5 15.8625 1.5 16.3125C1.5 16.7625 1.6875 17.175 1.9875 17.475L5.325 20.8125L1.5 20.7375C1.05 20.7375 0.674997 21.1125 0.637497 21.5625C0.637497 22.0125 1.0125 22.425 1.4625 22.425L22.5 22.5C22.95 22.5 23.325 22.125 23.3625 21.675C23.3625 21.1875 22.9875 20.8125 22.5 20.8125ZM5.925 12.825L15.375 3.375C15.4875 3.2625 15.675 3.1875 15.825 3.1875C15.975 3.1875 16.1625 3.2625 16.275 3.375L20.5875 7.6875C20.7 7.8 20.775 7.9875 20.775 8.1375C20.775 8.325 20.7 8.475 20.5875 8.5875L11.175 18.0375C10.9125 18.3 10.5 18.3 10.2375 18.0375L5.925 13.725C5.8125 13.6125 5.7375 13.425 5.7375 13.275C5.7375 13.0875 5.8125 12.9375 5.925 12.825ZM4.65 14.85C4.6875 14.8875 4.6875 14.925 4.725 14.925L9.0375 19.2375C9.075 19.275 9.075 19.275 9.1125 19.3125L7.6875 20.7375L3.2625 16.275L4.65 14.85Z" fill="#161A23"/>
</svg>
