<svg width="24" height="24" viewBox="0 0 24 24" fill="none" xmlns="http://www.w3.org/2000/svg">
<path d="M14.4375 5.10015C14.4375 4.65015 14.0625 4.27515 13.6125 4.27515C12 4.27515 10.5375 5.25015 9.82505 6.63765H9.18755C8.73755 6.63765 8.36255 7.01265 8.36255 7.46265C8.36255 7.91265 8.73755 8.28765 9.18755 8.28765H9.33755C9.33755 8.40015 9.33755 8.51265 9.33755 8.62515C9.33755 8.73765 9.33755 8.85015 9.33755 9.00015H9.18755C8.73755 9.00015 8.36255 9.37515 8.36255 9.82515C8.36255 10.2751 8.73755 10.6501 9.18755 10.6501H9.86255C10.6125 12.0001 12.0375 12.9751 13.65 12.9751C14.1 12.9751 14.475 12.6001 14.475 12.1501C14.475 11.7001 14.1 11.3251 13.65 11.3251C13.05 11.3251 12.45 11.1001 12 10.6876H12.3375C12.7875 10.6876 13.1625 10.3126 13.1625 9.86265C13.1625 9.41265 12.7875 9.03765 12.3375 9.03765H11.025C11.025 8.92515 10.9875 8.81265 10.9875 8.66265C10.9875 8.55015 10.9875 8.43765 11.025 8.32515H12.3375C12.7875 8.32515 13.1625 7.95015 13.1625 7.50015C13.1625 7.05015 12.7875 6.67515 12.3375 6.67515H11.9625C12.4125 6.26265 13.0125 6.00015 13.65 6.00015C14.0625 5.92515 14.4375 5.55015 14.4375 5.10015Z" fill="#161A23"/>
<path d="M4.72505 9.60005C5.17505 9.60005 5.55005 9.22505 5.55005 8.77505C5.55005 5.25005 8.43755 2.36255 12 2.36255C15.5625 2.36255 18.45 5.25005 18.45 8.77505C18.45 10.725 17.5875 12.525 16.05 13.7625C15.675 14.0625 15.6375 14.5875 15.9375 14.9625C16.0875 15.1875 16.35 15.2625 16.6125 15.2625C16.8 15.2625 16.9875 15.1875 17.1375 15.075C19.05 13.5375 20.175 11.2125 20.175 8.77505C20.1375 4.27505 16.5 0.675049 12 0.675049C7.50005 0.675049 3.86255 4.31255 3.86255 8.77505C3.86255 9.22505 4.23755 9.60005 4.72505 9.60005Z" fill="#161A23"/>
<path d="M18.3375 18C17.8875 18 17.5125 18.375 17.5125 18.825V20.625L13.5 17.85C13.1625 17.625 12.75 17.475 12.3375 17.475H7.91246C7.79996 17.475 7.68746 17.4375 7.61246 17.3625L5.32496 15C4.98746 14.6625 4.46246 14.6625 4.12496 14.9625C3.78746 15.3 3.78746 15.825 4.08746 16.1625L6.33746 18.4875C6.71246 18.9 7.27496 19.1625 7.87496 19.1625H12.3C12.375 19.1625 12.45 19.2 12.525 19.2375L15.975 21.6375H14.7C14.25 21.6375 13.875 22.0125 13.875 22.4625C13.875 22.9125 14.25 23.2875 14.7 23.2875H18.3375C18.7875 23.2875 19.1625 22.9125 19.1625 22.4625V18.825C19.2 18.375 18.825 18 18.3375 18Z" fill="#161A23"/>
</svg>
