<svg width="24" height="24" viewBox="0 0 24 24" fill="none" xmlns="http://www.w3.org/2000/svg">
<path d="M8.32495 9.8251C8.32495 10.2751 8.69995 10.6501 9.14995 10.6501H9.82495C10.575 12.0001 12 12.9751 13.6125 12.9751C14.0625 12.9751 14.4375 12.6001 14.4375 12.1501C14.4375 11.7001 14.0625 11.3251 13.6125 11.3251C13.0125 11.3251 12.4125 11.1001 11.9625 10.6876H12.3C12.75 10.6876 13.125 10.3126 13.125 9.8626C13.125 9.4126 12.75 9.0376 12.3 9.0376H10.9875C10.9875 8.9251 10.95 8.8126 10.95 8.6626C10.95 8.5501 10.95 8.4376 10.9875 8.3251H12.3C12.75 8.3251 13.125 7.9501 13.125 7.5001C13.125 7.0501 12.75 6.6751 12.3 6.6751H11.925C12.375 6.2626 12.975 6.0001 13.6125 6.0001C14.0625 6.0001 14.4375 5.6251 14.4375 5.1751C14.4375 4.7251 14.0625 4.3501 13.6125 4.3501C12 4.3501 10.5375 5.3251 9.82495 6.7126H9.18745C8.73745 6.7126 8.36245 7.0876 8.36245 7.5376C8.36245 7.9876 8.73745 8.3626 9.18745 8.3626H9.33745C9.33745 8.4751 9.33745 8.5876 9.33745 8.7001C9.33745 8.8126 9.33745 8.9251 9.33745 9.0751H9.18745C8.69995 8.9626 8.32495 9.3376 8.32495 9.8251Z" fill="#161A23"/>
<path d="M12 0.675049C7.50005 0.675049 3.86255 4.31255 3.86255 8.77505C3.86255 11.25 4.95005 13.5375 6.90005 15.075C7.05005 15.1875 7.23755 15.2625 7.42505 15.2625C7.68755 15.2625 7.91255 15.15 8.10005 14.9625C8.40005 14.5875 8.32505 14.0625 7.98755 13.7625C6.45005 12.525 5.58755 10.725 5.58755 8.77505C5.58755 5.25005 8.47505 2.36255 12.0375 2.36255C15.6 2.36255 18.4875 5.25005 18.4875 8.77505C18.4875 9.22505 18.8626 9.60005 19.3126 9.60005C19.7626 9.60005 20.1376 9.22505 20.1376 8.77505C20.1376 4.27505 16.5001 0.675049 12 0.675049Z" fill="#161A23"/>
<path d="M18.3375 14.7751H14.7C14.25 14.7751 13.8749 15.1501 13.8749 15.6001C13.8749 16.0501 14.25 16.4251 14.7 16.4251H15.8624L12.5624 18.8251C12.4874 18.8626 12.4124 18.9001 12.3375 18.9001H7.91245C7.31245 18.9001 6.74995 19.1251 6.37495 19.5376L4.08745 21.9001C3.74995 22.2376 3.78745 22.7626 4.12495 23.1001C4.27495 23.2501 4.49995 23.3251 4.72495 23.3251C4.94995 23.3251 5.17495 23.2501 5.32495 23.0626L7.61245 20.7001C7.68745 20.6251 7.79995 20.5876 7.91245 20.5876H12.3375C12.75 20.5876 13.1624 20.4751 13.5374 20.2126L17.5124 17.3251V19.2376C17.5124 19.6876 17.8874 20.0626 18.3375 20.0626C18.7874 20.0626 19.1624 19.6876 19.1624 19.2376V15.6001C19.1999 15.1501 18.8249 14.7751 18.3375 14.7751Z" fill="#161A23"/>
</svg>
