<svg width="24" height="24" viewBox="0 0 24 24" fill="none" xmlns="http://www.w3.org/2000/svg">
<g clip-path="url(#clip0_501_52137)">
<path d="M12 0.675049C5.73755 0.675049 0.675049 5.73755 0.675049 12C0.675049 18.2626 5.73755 23.3251 12 23.3251C18.2626 23.3251 23.3251 18.2626 23.3251 12C23.3251 5.73755 18.2626 0.675049 12 0.675049ZM12 21.6751C6.67505 21.6751 2.32505 17.3251 2.32505 12C2.32505 6.67505 6.67505 2.32505 12 2.32505C17.3251 2.32505 21.6751 6.67505 21.6751 12C21.6751 17.3251 17.3251 21.6751 12 21.6751Z" fill="#161A23"/>
<path d="M14.5501 7.61265C15.0001 7.61265 15.3751 7.23765 15.3751 6.78765C15.3751 6.33765 15.0001 5.96265 14.5501 5.96265C11.8876 5.96265 9.5251 7.80015 8.7376 10.2376H7.6126C7.1626 10.2376 6.7876 10.6126 6.7876 11.0626C6.7876 11.5126 7.1626 11.8876 7.6126 11.8876H8.4751C8.4751 11.9251 8.4751 11.9626 8.4751 12.0001C8.4751 12.3751 8.5126 12.7501 8.5876 13.1251H7.6126C7.1626 13.1251 6.7876 13.5001 6.7876 13.9501C6.7876 14.4001 7.1626 14.7751 7.6126 14.7751H9.1876C10.2376 16.6876 12.2626 18.0376 14.5501 18.0376C15.0001 18.0376 15.3751 17.6626 15.3751 17.2126C15.3751 16.7626 15.0001 16.3876 14.5501 16.3876C13.2376 16.3876 12.0376 15.7876 11.2126 14.8126H12.8626C13.3126 14.8126 13.6876 14.4376 13.6876 13.9876C13.6876 13.5376 13.3126 13.1626 12.8626 13.1626H10.3126C10.2001 12.7876 10.1626 12.4126 10.1626 12.0376C10.1626 12.0001 10.1626 11.9626 10.1626 11.9251H12.8626C13.3126 11.9251 13.6876 11.5501 13.6876 11.1001C13.6876 10.6501 13.3126 10.2751 12.8626 10.2751H10.5376C11.2501 8.70015 12.8251 7.61265 14.5501 7.61265Z" fill="#161A23"/>
</g>
<defs>
<clipPath id="clip0_501_52137">
<rect width="24" height="24" fill="white"/>
</clipPath>
</defs>
</svg>
