<svg width="24" height="24" viewBox="0 0 24 24" fill="none" xmlns="http://www.w3.org/2000/svg">
<path d="M12 16.8C14.925 16.8 17.025 15.525 17.025 13.8C17.025 12.075 14.925 10.8 12 10.8C9.07498 10.8 6.97498 12.075 6.97498 13.8C6.97498 15.525 9.07498 16.8 12 16.8ZM12 12.4875C14.0625 12.4875 15.3375 13.2375 15.3375 13.8C15.3375 14.3625 14.0625 15.1125 12 15.1125C9.93748 15.1125 8.66248 14.3625 8.66248 13.8C8.66248 13.2375 9.93748 12.4875 12 12.4875Z" fill="#161A23"/>
<path d="M16.3875 16.725C15.9375 16.575 15.45 16.8 15.3 17.2125C15.1875 17.5125 14.8125 17.775 14.25 18C13.6125 18.2625 12.825 18.375 11.9625 18.375C10.1625 18.375 8.92498 17.8125 8.66248 17.25C8.47498 16.8375 7.94998 16.65 7.53748 16.8375C7.12498 17.025 6.93748 17.55 7.12498 17.9625C7.72498 19.2375 9.59998 20.0625 11.9625 20.0625C13.0125 20.0625 14.025 19.875 14.85 19.575C15.9 19.1625 16.575 18.5625 16.8375 17.8125C17.0625 17.3625 16.8375 16.875 16.3875 16.725Z" fill="#161A23"/>
<path d="M16.3875 19.9875C15.9375 19.8375 15.45 20.0625 15.3 20.475C15.1875 20.775 14.8125 21.0375 14.25 21.2625C13.6125 21.525 12.825 21.6375 11.9625 21.6375C10.1625 21.6375 8.92498 21.075 8.66248 20.5125C8.47498 20.1 7.94998 19.9125 7.53748 20.1C7.12498 20.2875 6.93748 20.8125 7.12498 21.225C7.72498 22.5 9.59998 23.325 11.9625 23.325C13.0125 23.325 14.025 23.1375 14.85 22.8375C15.9 22.425 16.575 21.825 16.8375 21.075C17.0625 20.625 16.8375 20.1375 16.3875 19.9875Z" fill="#161A23"/>
<path d="M7.83746 6.67501C7.83746 7.12501 8.21246 7.50001 8.66246 7.50001H9.22496C10.0125 9.07501 11.6625 10.2 13.5 10.2C13.95 10.2 14.325 9.82501 14.325 9.37501C14.325 8.92501 13.95 8.55001 13.5 8.55001C12.6375 8.55001 11.85 8.13751 11.25 7.53751H12.225C12.675 7.53751 13.05 7.16251 13.05 6.71251C13.05 6.26251 12.675 5.88751 12.225 5.88751H10.425C10.425 5.77501 10.3875 5.62501 10.3875 5.51251C10.3875 5.40001 10.3875 5.25001 10.425 5.13751H12.225C12.675 5.13751 13.05 4.76251 13.05 4.31251C13.05 3.86251 12.675 3.48751 12.225 3.48751H11.25C11.8125 2.88751 12.6375 2.47501 13.5 2.47501C13.95 2.47501 14.325 2.10001 14.325 1.65001C14.325 1.20001 13.95 0.825012 13.5 0.825012C11.6625 0.825012 10.0125 1.95001 9.22496 3.52501H8.66246C8.21246 3.52501 7.83746 3.90001 7.83746 4.35001C7.83746 4.80001 8.21246 5.17501 8.66246 5.17501H8.73746C8.73746 5.28751 8.69996 5.43751 8.69996 5.55001C8.69996 5.66251 8.69996 5.81251 8.73746 5.92501H8.66246C8.21246 5.81251 7.83746 6.18751 7.83746 6.67501Z" fill="#161A23"/>
</svg>
