<svg width="24" height="24" viewBox="0 0 24 24" fill="none" xmlns="http://www.w3.org/2000/svg">
<path d="M20.4 1.6499H3.59995C1.98745 1.6499 0.637451 2.8874 0.637451 4.3874V14.8874C0.637451 16.3874 1.94995 17.6249 3.59995 17.6249H11.9625C12.4125 17.6249 12.825 17.2499 12.825 16.7999C12.825 16.3499 12.45 15.9749 11.9625 15.9749H3.59995C2.92495 15.9749 2.32495 15.4874 2.32495 14.9249V10.3124H21.6375V13.0124C21.6375 13.4624 22.0125 13.8374 22.4625 13.8374C22.9125 13.8374 23.2875 13.4624 23.2875 13.0124V4.4249C23.325 2.8874 22.0125 1.6499 20.4 1.6499ZM3.59995 3.3374H20.4C21.075 3.3374 21.6375 3.8249 21.6375 4.3874V5.4374H2.32495V4.3874C2.32495 3.8249 2.92495 3.3374 3.59995 3.3374ZM2.32495 8.6249V7.1999H21.6375V8.6249H2.32495Z" fill="#161A23"/>
<path d="M20.5499 14.2125C20.5499 13.7625 20.1749 13.3875 19.7249 13.3875C17.9999 13.3875 16.4999 14.4 15.7499 15.8625H14.9249C14.4749 15.8625 14.0999 16.2375 14.0999 16.6875C14.0999 17.1375 14.4749 17.5125 14.9249 17.5125H15.2624C15.2624 17.625 15.2624 17.7375 15.2624 17.8125C15.2624 18 15.2624 18.15 15.2999 18.3375H14.9249C14.4749 18.3375 14.0999 18.7125 14.0999 19.1625C14.0999 19.6125 14.4749 19.9875 14.9249 19.9875H15.8624C16.6499 21.3375 18.1124 22.2375 19.7249 22.2375C20.1749 22.2375 20.5499 21.8625 20.5499 21.4125C20.5499 20.9625 20.1749 20.5875 19.7249 20.5875C19.1249 20.5875 18.5624 20.3625 18.0749 20.025H18.5624C19.0124 20.025 19.3874 19.65 19.3874 19.2C19.3874 18.75 19.0124 18.375 18.5624 18.375H16.9874C16.9499 18.1875 16.9499 18.0375 16.9499 17.85C16.9499 17.7375 16.9499 17.625 16.9874 17.55H18.5999C19.0499 17.55 19.4249 17.175 19.4249 16.725C19.4249 16.275 19.0499 15.9 18.5999 15.9H17.8874C18.3749 15.4125 19.0499 15.1125 19.7999 15.1125C20.1749 15.075 20.5499 14.7 20.5499 14.2125Z" fill="#161A23"/>
</svg>
