<svg width="24" height="24" viewBox="0 0 24 24" fill="none" xmlns="http://www.w3.org/2000/svg">
<path d="M18.4501 21.6751C14.5126 21.6751 11.0626 19.2001 9.5626 15.7126H15.1126C15.5626 15.7126 15.9376 15.3376 15.9376 14.8876C15.9376 14.4376 15.5626 14.0626 15.1126 14.0626H9.0001C8.8501 13.425 8.7751 12.75 8.7751 12.0375C8.7751 11.6625 8.8126 11.325 8.8501 10.9875H15.1126C15.5626 10.9875 15.9376 10.6125 15.9376 10.1625C15.9376 9.71255 15.5626 9.33755 15.1126 9.33755H9.1876C10.4251 5.28755 14.1751 2.32505 18.4501 2.32505C18.9001 2.32505 19.2751 1.95005 19.2751 1.50005C19.2751 1.05005 18.9001 0.675049 18.4501 0.675049C13.2376 0.675049 8.7376 4.38755 7.4626 9.26255H5.5501C5.1001 9.26255 4.7251 9.63755 4.7251 10.0876C4.7251 10.5375 5.1001 10.9125 5.5501 10.9125H7.1626C7.1251 11.2875 7.0876 11.625 7.0876 12C7.0876 12.675 7.1626 13.3501 7.2751 14.0251H5.5501C5.1001 14.0251 4.7251 14.4 4.7251 14.85C4.7251 15.3 5.1001 15.675 5.5501 15.675H7.7251C9.3001 20.0625 13.5751 23.3251 18.4126 23.3251C18.8626 23.3251 19.2376 22.9501 19.2376 22.5001C19.2376 22.0501 18.9001 21.6751 18.4501 21.6751Z" fill="#161A23"/>
</svg>
