<svg width="24" height="24" viewBox="0 0 24 24" fill="none" xmlns="http://www.w3.org/2000/svg">
<path d="M12 16.7999C14.925 16.7999 17.025 15.5249 17.025 13.7999C17.025 12.0749 14.925 10.7999 12 10.7999C9.07501 10.7999 6.97501 12.0749 6.97501 13.7999C6.97501 15.5249 9.07501 16.7999 12 16.7999ZM12 12.4874C14.0625 12.4874 15.3375 13.2374 15.3375 13.7999C15.3375 14.3624 14.0625 15.1124 12 15.1124C9.93751 15.1124 8.66251 14.3624 8.66251 13.7999C8.66251 13.2374 9.93751 12.4874 12 12.4874Z" fill="#161A23"/>
<path d="M16.3875 16.725C15.9375 16.575 15.45 16.8 15.3 17.2125C15.1875 17.5125 14.8125 17.775 14.25 18C13.6125 18.2625 12.825 18.375 11.9625 18.375C10.1625 18.375 8.92501 17.8125 8.66251 17.25C8.47501 16.8375 7.95001 16.65 7.53751 16.8375C7.12501 17.025 6.93751 17.55 7.12501 17.9625C7.72501 19.2375 9.60001 20.0625 11.9625 20.0625C13.0125 20.0625 14.025 19.875 14.85 19.575C15.9 19.1625 16.575 18.5625 16.8375 17.8125C17.0625 17.3625 16.8375 16.875 16.3875 16.725Z" fill="#161A23"/>
<path d="M16.3875 19.9874C15.9375 19.8374 15.45 20.0624 15.3 20.4749C15.1875 20.7749 14.8125 21.0374 14.25 21.2624C13.6125 21.5249 12.825 21.6374 11.9625 21.6374C10.1625 21.6374 8.92501 21.0749 8.66251 20.5124C8.47501 20.0999 7.95001 19.9124 7.53751 20.0999C7.12501 20.2874 6.93751 20.8124 7.12501 21.2249C7.72501 22.4999 9.60001 23.3249 11.9625 23.3249C13.0125 23.3249 14.025 23.1374 14.85 22.8374C15.9 22.4249 16.575 21.8249 16.8375 21.0749C17.0625 20.6249 16.8375 20.1374 16.3875 19.9874Z" fill="#161A23"/>
<path d="M7.83749 6.67495C7.83749 7.12495 8.21249 7.49995 8.66249 7.49995H9.22499C10.0125 9.07495 11.6625 10.2 13.5 10.2C13.95 10.2 14.325 9.82495 14.325 9.37495C14.325 8.92495 13.95 8.54995 13.5 8.54995C12.6375 8.54995 11.85 8.13745 11.25 7.53745H12.225C12.675 7.53745 13.05 7.16245 13.05 6.71245C13.05 6.26245 12.675 5.88745 12.225 5.88745H10.425C10.425 5.77495 10.3875 5.62495 10.3875 5.51245C10.3875 5.39995 10.3875 5.24995 10.425 5.13745H12.225C12.675 5.13745 13.05 4.76245 13.05 4.31245C13.05 3.86245 12.675 3.48745 12.225 3.48745H11.25C11.8125 2.88745 12.6375 2.47495 13.5 2.47495C13.95 2.47495 14.325 2.09995 14.325 1.64995C14.325 1.19995 13.95 0.824951 13.5 0.824951C11.6625 0.824951 10.0125 1.94995 9.22499 3.52495H8.66249C8.21249 3.52495 7.83749 3.89995 7.83749 4.34995C7.83749 4.79995 8.21249 5.17495 8.66249 5.17495H8.73749C8.73749 5.28745 8.69999 5.43745 8.69999 5.54995C8.69999 5.66245 8.69999 5.81245 8.73749 5.92495H8.66249C8.21249 5.81245 7.83749 6.18745 7.83749 6.67495Z" fill="#161A23"/>
</svg>
