<svg width="25" height="24" viewBox="0 0 25 24" fill="none" xmlns="http://www.w3.org/2000/svg">
<path d="M21.5625 4.08748H19.7625V2.58748C19.7625 2.13748 19.3875 1.72498 18.9 1.72498C18.4125 1.72498 18.0375 2.09998 18.0375 2.58748V4.12498H6.26251V2.58748C6.26251 2.13748 5.88751 1.72498 5.40001 1.72498C4.91251 1.72498 4.53751 2.09998 4.53751 2.58748V4.12498H2.81251C1.53751 4.12498 0.450012 5.17498 0.450012 6.44998V19.8375C0.450012 21.1125 1.50001 22.1625 2.81251 22.1625H21.5625C22.8375 22.1625 23.925 21.1125 23.925 19.8375V6.44998C23.925 5.13748 22.8375 4.08748 21.5625 4.08748ZM22.2375 19.8375C22.2375 20.2125 21.9375 20.475 21.5625 20.475H2.81251C2.43751 20.475 2.13751 20.175 2.13751 19.8375V10.6125H22.2V19.8375H22.2375ZM22.2375 8.92498H2.17501V6.44998C2.17501 6.07498 2.47501 5.81248 2.85001 5.81248H4.61251V6.22498C4.61251 6.67498 4.98751 7.08748 5.47501 7.08748C5.96251 7.08748 6.33751 6.71248 6.33751 6.22498V5.81248H18.15V6.22498C18.15 6.67498 18.525 7.08748 19.0125 7.08748C19.5 7.08748 19.875 6.71248 19.875 6.22498V5.81248H21.675C22.05 5.81248 22.35 6.11248 22.35 6.44998V8.92498H22.2375Z" fill="#161A23"/>
<path d="M8.55004 15.4875L9.52504 16.3125L9.22504 17.55C9.11254 18.0375 9.30004 18.525 9.67504 18.825C10.0875 19.125 10.6125 19.125 11.025 18.9L12.15 18.225L13.275 18.9C13.4625 19.0125 13.6875 19.0875 13.9125 19.0875C14.175 19.0875 14.4 19.0125 14.625 18.8625C15.0375 18.5625 15.225 18.075 15.075 17.5875L14.775 16.35L15.75 15.525C16.125 15.1875 16.275 14.7 16.125 14.2125C15.975 13.725 15.5625 13.425 15.075 13.3875L13.7625 13.275L13.275 12.075C13.0875 11.625 12.6375 11.325 12.15 11.325C11.6625 11.325 11.2125 11.625 11.025 12.075L10.5375 13.275L9.22504 13.3875C8.73754 13.425 8.32504 13.7625 8.17504 14.2125C8.06254 14.6625 8.17504 15.1875 8.55004 15.4875ZM10.9875 14.925C11.4375 14.8875 11.85 14.5875 12 14.175L12.1875 13.7625L12.375 14.175C12.5625 14.5875 12.9375 14.8875 13.3875 14.925L13.8375 14.9625L13.5 15.225C13.1625 15.525 13.0125 15.975 13.0875 16.425L13.2 16.875L12.7875 16.65C12.6 16.5375 12.375 16.4625 12.15 16.4625C11.925 16.4625 11.7 16.5375 11.5125 16.65L11.1375 16.875L11.25 16.425C11.3625 15.975 11.2125 15.525 10.8375 15.225L10.5 14.925H10.9875Z" fill="#161A23"/>
</svg>
