<svg width="24" height="24" viewBox="0 0 24 24" fill="none" xmlns="http://www.w3.org/2000/svg">
<path d="M1.50001 6.67495C1.95001 6.67495 2.36251 6.29995 2.36251 5.81245V4.31245C2.36251 4.08745 2.55001 3.86245 2.81251 3.86245H3.71251C4.16251 3.86245 4.57501 3.48745 4.57501 2.99995C4.57501 2.51245 4.20001 2.13745 3.71251 2.13745H2.77501C1.61251 2.13745 0.637512 3.07495 0.637512 4.27495V5.77495C0.675012 6.29995 1.05001 6.67495 1.50001 6.67495Z" fill="#161A23"/>
<path d="M22.5 17.325C22.05 17.325 21.6375 17.7 21.6375 18.1875V19.6875C21.6375 19.9125 21.45 20.1375 21.1875 20.1375H20.2875C19.8375 20.1375 19.425 20.5125 19.425 21C19.425 21.4875 19.8 21.8625 20.2875 21.8625H21.1875C22.35 21.8625 23.325 20.925 23.325 19.725V18.225C23.3625 17.7 22.95 17.325 22.5 17.325Z" fill="#161A23"/>
<path d="M10.3125 12.9375H9.37501C9.26251 12.9375 9.15001 12.825 9.15001 12.7125C9.15001 12.6 9.26251 12.4875 9.37501 12.4875H9.90001H11.3625C11.8125 12.4875 12.225 12.1125 12.225 11.6625C12.225 11.2125 11.85 10.8 11.3625 10.8H10.725V10.725C10.725 10.275 10.35 9.86255 9.86251 9.86255C9.37501 9.86255 9.00001 10.2375 9.00001 10.725V10.8375C8.10001 10.9875 7.38751 11.775 7.38751 12.7125C7.38751 13.7625 8.25001 14.625 9.30001 14.625H10.2375C10.35 14.625 10.4625 14.7375 10.4625 14.85C10.4625 14.9625 10.35 15.075 10.2375 15.075H8.25001C7.80001 15.075 7.38751 15.45 7.38751 15.9375C7.38751 16.425 7.76251 16.8 8.25001 16.8H9.00001V16.875C9.00001 17.325 9.37501 17.7375 9.86251 17.7375C10.35 17.7375 10.725 17.3625 10.725 16.875V16.7625C11.55 16.575 12.1875 15.825 12.1875 14.925C12.2625 13.8 11.4 12.9375 10.3125 12.9375Z" fill="#161A23"/>
<path d="M21.225 3.78735H7.05001C5.88751 3.78735 4.91251 4.72485 4.91251 5.92485V7.64985H2.62501C1.53751 7.64985 0.637512 8.54985 0.637512 9.63735V18.0374C0.637512 19.1249 1.53751 20.0249 2.62501 20.0249H17.1C18.1875 20.0249 19.0875 19.1249 19.0875 18.0374V16.1624H21.225C22.3875 16.1624 23.3625 15.2249 23.3625 14.0249V5.92485C23.3625 4.72485 22.3875 3.78735 21.225 3.78735ZM17.4 17.9624C17.4 18.1124 17.2875 18.2624 17.1 18.2624H2.62501C2.47501 18.2624 2.32501 18.1499 2.32501 17.9624V9.59985C2.32501 9.44985 2.43751 9.29985 2.62501 9.29985H17.1C17.25 9.29985 17.4 9.41235 17.4 9.59985V17.9624ZM21.675 13.9874C21.675 14.2124 21.4875 14.4374 21.225 14.4374H19.0875V9.59985C19.0875 8.51235 18.1875 7.61235 17.1 7.61235H6.60001V5.88735C6.60001 5.66235 6.78751 5.43735 7.05001 5.43735H21.225C21.45 5.43735 21.675 5.62485 21.675 5.88735V13.9874Z" fill="#161A23"/>
<path d="M5.73751 12.9749H4.50001C4.05001 12.9749 3.63751 13.3499 3.63751 13.8374C3.63751 14.3249 4.01251 14.6999 4.50001 14.6999H5.73751C6.18751 14.6999 6.60001 14.3249 6.60001 13.8374C6.60001 13.3499 6.22501 12.9749 5.73751 12.9749Z" fill="#161A23"/>
<path d="M15.5625 12.9749H14.325C13.875 12.9749 13.4625 13.3499 13.4625 13.8374C13.4625 14.3249 13.8375 14.6999 14.325 14.6999H15.5625C16.0125 14.6999 16.425 14.3249 16.425 13.8374C16.425 13.3499 16.0125 12.9749 15.5625 12.9749Z" fill="#161A23"/>
</svg>
