<svg width="24" height="24" viewBox="0 0 24 24" fill="none" xmlns="http://www.w3.org/2000/svg">
<path d="M16.95 0.674988H12.7125C11.7375 0.674988 10.9125 1.49999 10.9125 2.47499V5.06249C10.9125 5.51249 11.2875 5.88749 11.7375 5.88749C12.1875 5.88749 12.6 5.51249 12.6 5.06249V2.43749C12.6 2.36249 12.6375 2.32499 12.7125 2.32499H16.95C17.85 2.32499 18.5625 3.03749 18.5625 3.93749V20.025C18.5625 20.925 17.85 21.6375 16.95 21.6375H12.7125C12.6375 21.6375 12.6 21.6 12.6 21.525V18.9375C12.6 18.4875 12.225 18.1125 11.7375 18.1125C11.25 18.1125 10.9125 18.4875 10.9125 18.9375V21.525C10.9125 22.5 11.7375 23.325 12.7125 23.325H16.95C18.7875 23.325 20.25 21.825 20.25 20.025V3.97499C20.25 2.13749 18.75 0.674988 16.95 0.674988Z" fill="#161A23"/>
<path d="M6.60002 12.825H13.3125C13.7625 12.825 14.1375 12.45 14.1375 12C14.1375 11.55 13.7625 11.175 13.3125 11.175H6.63752L8.96252 8.8125C9.30002 8.475 9.30002 7.95 8.96252 7.6125C8.62502 7.275 8.10002 7.275 7.76252 7.6125L4.01252 11.4375C3.67502 11.775 3.67502 12.3 4.01252 12.6375L7.76252 16.4625C7.91252 16.6125 8.13752 16.725 8.36252 16.725C8.58752 16.725 8.77502 16.65 8.96252 16.5C9.30002 16.1625 9.30002 15.6375 8.96252 15.3L6.60002 12.825Z" fill="#161A23"/>
</svg>
