<svg width="24" height="24" viewBox="0 0 24 24" fill="none" xmlns="http://www.w3.org/2000/svg">
<path d="M21.5625 10.9125H18.975C18.525 10.9125 18.15 11.2875 18.15 11.7375C18.15 12.1875 18.525 12.6 18.975 12.6H21.5625C21.6375 12.6 21.6749 12.6375 21.6749 12.7125V16.95C21.6749 17.85 20.9625 18.5625 20.0625 18.5625H3.97495C3.07495 18.5625 2.36245 17.85 2.36245 16.95V12.7125C2.36245 12.6375 2.39995 12.6 2.47495 12.6H5.06245C5.51245 12.6 5.88745 12.225 5.88745 11.7375C5.88745 11.25 5.51245 10.9125 5.06245 10.9125H2.43745C1.46245 10.9125 0.637451 11.7375 0.637451 12.7125V16.95C0.637451 18.7875 2.13745 20.25 3.93745 20.25H20.025C21.8625 20.25 23.325 18.75 23.325 16.95V12.7125C23.325 11.7375 22.5375 10.9125 21.5625 10.9125Z" fill="#161A23"/>
<path d="M8.77493 8.96249L11.1749 6.59999V13.3125C11.1749 13.7625 11.5499 14.1375 11.9999 14.1375C12.4499 14.1375 12.8249 13.7625 12.8249 13.3125V6.63749L15.1874 8.96249C15.3374 9.11249 15.5624 9.18749 15.7874 9.18749C16.0124 9.18749 16.2374 9.11249 16.3874 8.92499C16.7249 8.58749 16.7249 8.06249 16.3874 7.72499L12.5624 3.97499C12.2249 3.63749 11.6999 3.63749 11.3624 3.97499L7.53743 7.72499C7.19993 8.06249 7.19993 8.58749 7.53743 8.92499C7.91243 9.26249 8.43743 9.26249 8.77493 8.96249Z" fill="#161A23"/>
</svg>
