<svg width="24" height="24" viewBox="0 0 24 24" fill="none" xmlns="http://www.w3.org/2000/svg">
<path d="M21.5625 10.9125H18.975C18.525 10.9125 18.15 11.2875 18.15 11.7375C18.15 12.1875 18.525 12.6 18.975 12.6H21.5625C21.6375 12.6 21.6749 12.6375 21.6749 12.7125V16.95C21.6749 17.85 20.9625 18.5625 20.0625 18.5625H3.97495C3.07495 18.5625 2.36245 17.85 2.36245 16.95V12.7125C2.36245 12.6375 2.39995 12.6 2.47495 12.6H5.06245C5.51245 12.6 5.88745 12.225 5.88745 11.7375C5.88745 11.25 5.51245 10.9125 5.06245 10.9125H2.43745C1.46245 10.9125 0.637451 11.7375 0.637451 12.7125V16.95C0.637451 18.7875 2.13745 20.25 3.93745 20.25H20.025C21.8625 20.25 23.325 18.75 23.325 16.95V12.7125C23.325 11.7375 22.5375 10.9125 21.5625 10.9125Z" fill="#161A23"/>
<path d="M11.4 13.9125C11.55 14.0625 11.775 14.1375 12 14.1375C12.225 14.1375 12.4125 14.0625 12.6 13.9125L16.425 10.1625C16.7625 9.82498 16.7625 9.29998 16.425 8.96248C16.0875 8.62498 15.5625 8.62498 15.225 8.96248L12.8625 11.2875V4.61248C12.8625 4.16248 12.4875 3.78748 12.0375 3.78748C11.5875 3.78748 11.2125 4.16248 11.2125 4.61248V11.325L8.8125 8.96248C8.475 8.62498 7.95 8.62498 7.6125 8.96248C7.275 9.29998 7.275 9.82498 7.6125 10.1625L11.4 13.9125Z" fill="#161A23"/>
</svg>
