<svg width="24" height="24" viewBox="0 0 24 24" fill="none" xmlns="http://www.w3.org/2000/svg">
<path d="M13.05 3.1875H14.5875C15.0375 3.1875 15.4125 2.8125 15.4125 2.3625C15.4125 1.9125 15.0375 1.5 14.5875 1.5H11.85C11.5875 1.5 11.325 1.65 11.175 1.875C11.025 2.1 10.9875 2.4 11.0625 2.6625L12.4125 6.45H2.24999C1.72499 6.45 1.23749 6.7125 0.93749 7.125C0.63749 7.5375 0.56249 8.1 0.74999 8.5875L2.88749 14.4375C3.11249 15.0375 3.71249 15.4875 4.38749 15.4875H15.225C15.75 15.4875 16.2375 15.225 16.5 14.8125C16.8 14.4 16.875 13.8375 16.6875 13.3875L13.05 3.1875ZM4.46249 13.725L2.39999 8.1H13.05L15.075 13.725H4.46249Z" fill="#161A23"/>
<path d="M15.675 17.8126C15.225 17.3626 14.6625 17.1376 14.0625 17.1751H5.77499C5.66249 17.1751 5.58749 17.1751 5.47499 17.1751C4.19999 17.3251 3.29999 18.6751 3.48749 20.1376C3.67499 21.5251 4.68749 22.5376 5.88749 22.5376C5.96249 22.5376 6.03749 22.5376 6.14999 22.5376C6.78749 22.4626 7.38749 22.0876 7.76249 21.4876C8.09999 20.9626 8.24999 20.2876 8.17499 19.5751C8.13749 19.3126 8.09999 19.0876 7.98749 18.8626H12C11.8875 19.2376 11.8125 19.6876 11.8875 20.1376C12.075 21.5251 13.0875 22.5376 14.2875 22.5376C14.3625 22.5376 14.4375 22.5376 14.55 22.5376C15.1875 22.4626 15.7875 22.0876 16.1625 21.4876C16.5 20.9251 16.65 20.2876 16.575 19.5751C16.5 18.8626 16.1625 18.2626 15.675 17.8126ZM6.44999 19.7626C6.48749 20.0626 6.41249 20.3626 6.29999 20.5501C6.22499 20.6251 6.11249 20.8126 5.92499 20.8126C5.62499 20.8501 5.24999 20.4751 5.17499 19.9126C5.09999 19.3126 5.39999 18.8626 5.69999 18.8251H5.73749C6.03749 18.8626 6.37499 19.2001 6.44999 19.7626ZM14.7 20.5501C14.625 20.6251 14.5125 20.8126 14.325 20.8126C14.025 20.8501 13.65 20.4751 13.575 19.9126C13.5 19.3126 13.8 18.8626 14.1 18.8251H14.1375C14.2875 18.8251 14.4375 18.9376 14.5125 19.0126C14.7 19.2001 14.8125 19.4626 14.85 19.7626C14.8875 20.0626 14.85 20.3251 14.7 20.5501Z" fill="#161A23"/>
<path d="M17.025 9.30002H20.5125C20.9625 9.30002 21.3375 8.92502 21.3375 8.47502C21.3375 8.02502 20.9625 7.65002 20.5125 7.65002H17.025C16.575 7.65002 16.2 8.02502 16.2 8.47502C16.2 8.92502 16.575 9.30002 17.025 9.30002Z" fill="#161A23"/>
<path d="M22.5 10.575H17.4C16.95 10.575 16.575 10.95 16.575 11.4C16.575 11.85 16.95 12.225 17.4 12.225H22.5C22.95 12.225 23.325 11.85 23.325 11.4C23.325 10.95 22.95 10.575 22.5 10.575Z" fill="#161A23"/>
<path d="M21.525 13.5375H18.525C18.075 13.5375 17.7 13.9125 17.7 14.3625C17.7 14.8125 18.075 15.1875 18.525 15.1875H21.525C21.975 15.1875 22.35 14.8125 22.35 14.3625C22.35 13.9125 21.975 13.5375 21.525 13.5375Z" fill="#161A23"/>
</svg>
