<svg width="20" height="20" viewBox="0 0 20 20" fill="none" xmlns="http://www.w3.org/2000/svg">
<path d="M19.375 10.3125C19.4688 10.125 19.4688 9.875 19.375 9.6875C19.25 9.4375 16.1875 3.5625 10 3.5625C8.625 3.5625 7.28125 3.875 6.03125 4.4375C5.875 4.5 5.75 4.5625 5.625 4.65625L3.40625 2.4375C3.125 2.15625 2.6875 2.15625 2.40625 2.4375C2.125 2.71875 2.125 3.15625 2.40625 3.4375L16.5625 17.5625C16.6875 17.6875 16.875 17.7813 17.0625 17.7813C17.25 17.7813 17.4375 17.7188 17.5625 17.5625C17.8438 17.2813 17.8438 16.8438 17.5625 16.5625L15.5938 14.5938C15.625 14.5625 15.625 14.5625 15.6562 14.5313C18.125 12.7813 19.3125 10.4063 19.375 10.3125ZM11.2188 10.2188L9.78125 8.78125C9.84375 8.78125 9.9375 8.75 10 8.75C10.6875 8.75 11.25 9.3125 11.25 10C11.25 10.0625 11.2188 10.1563 11.2188 10.2188ZM12.3125 11.3125C12.4062 11.1563 12.4687 10.9688 12.5312 10.8125C12.625 10.5625 12.6562 10.2812 12.6562 10.0313C12.6562 8.5625 11.4688 7.375 10 7.375C9.78125 7.375 9.53125 7.40625 9.3125 7.46875L9.1875 7.5C9 7.5625 8.84375 7.625 8.65625 7.71875L6.625 5.71875C7.6875 5.21875 8.78125 4.96875 9.9375 4.96875C14.5 4.96875 17.1875 8.875 17.875 10.0313C17.4688 10.6875 16.4375 12.25 14.7812 13.4375C14.6875 13.5 14.5938 13.5625 14.5312 13.625L12.3125 11.3125Z" fill="#0047BA"/>
<path d="M10 15.0625C5.4375 15.0625 2.75 11.1563 2.0625 10C2.375 9.46875 3.09375 8.40625 4.1875 7.375L3.21875 6.34375C1.53125 7.9375 0.65625 9.625 0.625 9.6875C0.53125 9.875 0.53125 10.125 0.625 10.3125C0.75 10.5625 3.8125 16.4375 10 16.4375C10.8438 16.4375 11.6875 16.3125 12.5 16.0938L12.125 14.75C11.4375 14.9375 10.7188 15.0625 10 15.0625Z" fill="#0047BA"/>
</svg>
