<svg width="24" height="24" viewBox="0 0 24 24" fill="none" xmlns="http://www.w3.org/2000/svg">
<path d="M12 8.88748C10.275 8.88748 8.88751 10.275 8.88751 12C8.88751 13.725 10.275 15.1125 12 15.1125C13.725 15.1125 15.1125 13.725 15.1125 12C15.1125 10.275 13.725 8.88748 12 8.88748ZM12 13.425C11.2125 13.425 10.575 12.7875 10.575 12C10.575 11.2125 11.2125 10.575 12 10.575C12.7875 10.575 13.425 11.2125 13.425 12C13.425 12.7875 12.7875 13.425 12 13.425Z" fill="#161A23"/>
<path d="M22.95 10.6875C20.8125 7.49999 17.85 4.27499 12 4.27499C6.15 4.27499 3.1875 7.49999 1.05 10.6875C0.525 11.475 0.525 12.525 1.05 13.3125C3.1875 16.4625 6.15 19.725 12 19.725C17.85 19.725 20.8125 16.4625 22.95 13.3125C23.475 12.4875 23.475 11.475 22.95 10.6875ZM21.5625 12.375C18.825 16.3875 16.0875 18.0375 12 18.0375C7.9125 18.0375 5.175 16.3875 2.4375 12.375C2.2875 12.15 2.2875 11.85 2.4375 11.625C5.175 7.61249 7.9125 5.96249 12 5.96249C16.0875 5.96249 18.825 7.61249 21.5625 11.625C21.675 11.85 21.675 12.15 21.5625 12.375Z" fill="#161A23"/>
</svg>
