<svg width="24" height="24" viewBox="0 0 24 24" fill="none" xmlns="http://www.w3.org/2000/svg">
<path d="M13.5753 23.9251H10.6503C9.90029 23.9251 9.30029 23.2876 9.30029 22.5001V13.5751H6.90029C6.15029 13.5751 5.55029 12.9376 5.55029 12.1501V9.56258C5.55029 8.77507 6.15029 8.13758 6.90029 8.13758H9.22529V5.77507C9.22529 2.36257 11.2503 0.0750732 14.2503 0.0750732H16.5003C17.2503 0.0750732 17.8503 0.712575 17.8503 1.50007V4.53757C17.8503 5.32507 17.2503 5.96257 16.5003 5.96257H14.9628C14.9253 5.96257 14.9253 5.96257 14.8878 5.96257C14.8878 6.00007 14.8878 6.03757 14.8878 6.07507V8.10007H17.0253C17.4753 8.13758 17.8503 8.32508 18.1128 8.62508C18.3753 8.96257 18.4878 9.41257 18.4128 9.82508L17.9628 12.3751C17.8878 13.0501 17.3253 13.5376 16.6128 13.5376H14.8878V22.5001C14.8878 23.2501 14.2878 23.9251 13.5753 23.9251ZM9.93779 12.2626C10.3128 12.2626 10.6128 12.5626 10.6128 12.9376V22.5001C10.6128 22.5751 10.6503 22.6126 10.6503 22.6126H13.5753C13.5753 22.6126 13.6128 22.5751 13.6128 22.5001V12.8626C13.6128 12.4876 13.9128 12.1876 14.2878 12.1876H16.6503C16.6503 12.1876 16.6878 12.1876 16.6878 12.1501V12.1126L17.1378 9.60007C17.1378 9.52507 17.1378 9.48757 17.1003 9.45008C17.1003 9.45008 17.0628 9.41257 17.0253 9.41257H14.2503C13.8753 9.41257 13.5753 9.11257 13.5753 8.73757V6.07507C13.5753 5.40007 13.6878 4.65007 14.9628 4.65007H16.5003C16.5003 4.65007 16.5378 4.61258 16.5378 4.53757V1.53758C16.5378 1.46258 16.5003 1.42508 16.5003 1.42508H14.2878C12.0378 1.42508 10.5753 3.15008 10.5753 5.81258V8.85007C10.5753 9.22507 10.2753 9.52507 9.90029 9.52507H6.90029C6.90029 9.52507 6.86279 9.56257 6.86279 9.63758V12.2251C6.86279 12.3001 6.90029 12.3376 6.90029 12.3376L9.93779 12.2626Z" fill="#15171A"/>
</svg>
