<svg width="24" height="24" viewBox="0 0 24 24" fill="none" xmlns="http://www.w3.org/2000/svg">
<g clip-path="url(#clip0_914_45029)">
<path d="M11.9625 0.412354C5.4375 0.412354 0.375 5.21235 0.375 11.6624C0.375 15.0749 1.7625 17.9999 4.0125 19.9874C4.1625 20.1374 4.275 20.3999 4.3125 20.6249L4.35 22.6874C4.3875 23.3249 5.025 23.8124 5.6625 23.5124L7.9875 22.4999C8.1375 22.4624 8.4 22.3874 8.625 22.4624C9.675 22.7249 10.8 22.9499 12 22.9499C18.5625 22.9124 23.625 18.1124 23.625 11.6999C23.625 5.28735 18.525 0.412354 11.9625 0.412354ZM18.9375 9.07485L15.525 14.4374C15 15.2624 13.8375 15.5624 13.05 14.9249L10.35 12.8624C10.0875 12.7124 9.7875 12.7124 9.525 12.8624L5.85 15.5999C5.3625 15.9749 4.725 15.3749 5.0625 14.8499L8.475 9.48735C9 8.66235 10.1625 8.36235 10.95 8.99985L13.65 11.0624C13.9125 11.2124 14.2125 11.2124 14.475 11.0624L18.1125 8.24985C18.675 8.02485 19.2375 8.58735 18.9375 9.07485Z" fill="#15171A"/>
</g>
<defs>
<clipPath id="clip0_914_45029">
<rect width="24" height="24" fill="white"/>
</clipPath>
</defs>
</svg>
