<svg width="24" height="24" viewBox="0 0 24 24" fill="none" xmlns="http://www.w3.org/2000/svg">
<g clip-path="url(#clip0_914_45033)">
<path d="M12 0.375C5.55 0.375 0.375 5.55 0.375 12C0.375 18.45 5.55 23.625 12 23.625C18.45 23.625 23.625 18.45 23.625 12C23.625 5.55 18.45 0.375 12 0.375ZM15.075 7.4625C14.6625 7.4625 14.325 7.4625 13.9125 7.4625C13.3875 7.4625 13.05 7.725 13.05 8.2125C13.0125 8.625 13.05 9.075 13.05 9.4125C13.05 9.5625 13.0875 9.5625 13.2 9.5625C13.7625 9.5625 14.3625 9.5625 14.925 9.5625C15.075 9.5625 15.15 9.6 15.15 9.7875C15.1125 10.4625 15 11.175 15 11.85C15 12 14.9625 12 14.775 12C14.2875 12 13.875 12 13.3875 12C13.0875 12 13.125 11.9625 13.125 12.2625C13.125 14.4375 13.125 16.5 13.125 18.675C13.125 18.9 13.0875 18.9375 12.8625 18.9375C12.075 18.9375 11.2875 18.9375 10.5 18.9375C10.275 18.9375 10.2375 18.9 10.2375 18.675C10.2375 17.55 10.2375 16.5 10.2375 15.45C10.2375 14.4 10.2375 13.275 10.2375 12.1875C10.2375 12.0375 10.2 11.925 10.0125 11.9625C9.7125 11.9625 9.3375 11.9625 9 11.9625C8.775 12.075 8.775 12 8.775 11.85C8.775 11.175 8.775 10.5375 8.775 9.7875C8.775 9.6375 8.8125 9.6375 8.925 9.6375C9.3 9.6375 9.6 9.6375 9.975 9.6375C10.2 9.6375 10.2375 9.6 10.2375 9.375C10.2375 8.85 10.2375 8.3625 10.2375 7.8C10.2375 7.1625 10.3875 6.6 10.7625 6.075C11.25 5.4375 11.925 5.1375 12.675 5.0625C13.4625 5.025 14.25 5.0625 15.0375 5.025C15.15 5.025 15.1875 5.0625 15.1875 5.175C15.1875 5.85 15.1875 6.5625 15.1875 7.2375C15.225 7.3875 15.1875 7.4625 15.075 7.4625Z" fill="#15171A"/>
</g>
<defs>
<clipPath id="clip0_914_45033">
<rect width="24" height="24" fill="white"/>
</clipPath>
</defs>
</svg>
