<svg width="24" height="24" viewBox="0 0 24 24" fill="none" xmlns="http://www.w3.org/2000/svg">
<path d="M1.125 8.19071V15.8092C1.125 17.4726 2.47557 18.818 4.13381 18.818H13.301C14.9645 18.818 16.3098 17.4674 16.3098 15.8092V8.19071C16.3098 6.52725 14.9593 5.1819 13.301 5.1819H4.13903C2.47557 5.17669 1.125 6.52725 1.125 8.19071ZM20.9039 6.1518L17.4518 8.99899C17.1442 9.25447 16.9669 9.62992 16.9669 10.0263V13.9684C16.9669 14.3648 17.139 14.735 17.4414 14.9905L20.8935 17.8898C21.6809 18.5469 22.875 17.9889 22.875 16.9668V7.08C22.8802 6.06319 21.6913 5.50001 20.9039 6.1518Z" fill="#15171A"/>
</svg>
