<svg width="24" height="24" viewBox="0 0 24 24" fill="none" xmlns="http://www.w3.org/2000/svg">
<path d="M13.4628 23.3626H10.7253C9.90029 23.3626 9.22529 22.6501 9.22529 21.7876V13.7251H7.23779C6.41279 13.7251 5.73779 13.0126 5.73779 12.1501V9.75007C5.73779 8.88757 6.41279 8.17507 7.23779 8.17507H9.18779V6.18757C9.18779 2.92507 11.2128 0.637573 14.1378 0.637573H16.2003C17.0253 0.637573 17.7003 1.35007 17.7003 2.21257V5.02507C17.7003 5.88757 17.0253 6.60007 16.2003 6.60007H14.9253V8.13757H16.6878H16.7253C17.1753 8.17507 17.5878 8.36257 17.8878 8.70007C18.1878 9.07507 18.3003 9.52507 18.2253 10.0126L17.7753 12.3751C17.6628 13.1251 17.0628 13.6501 16.3128 13.6501H14.9253V21.7501C14.9253 22.6501 14.2878 23.3626 13.4628 23.3626ZM10.9128 21.6751H13.2378V12.8251C13.2378 12.3751 13.6128 11.9626 14.1003 11.9626H16.1253L16.5378 9.82507H14.1003C13.6503 9.82507 13.2378 9.45007 13.2378 8.96257V6.45007C13.2378 5.73757 13.4253 4.87507 14.7753 4.87507H16.0128V2.36257H14.1378C12.1503 2.36257 10.8753 3.86257 10.8753 6.22507V9.03757C10.8753 9.48757 10.5003 9.90007 10.0128 9.90007H7.42529V12.0376H10.0503C10.5003 12.0376 10.9128 12.4126 10.9128 12.9001V21.6751Z" fill="#15171A"/>
</svg>
