<svg width="25" height="24" viewBox="0 0 25 24" fill="none" xmlns="http://www.w3.org/2000/svg">
<path d="M21.225 9.67495C21.225 4.68745 17.175 0.637451 12.1875 0.637451C7.19999 0.674951 3.14999 4.72495 3.14999 9.67495C3.14999 11.325 3.59999 12.8624 4.34999 14.1749C4.34999 14.2124 4.38749 14.2499 4.42499 14.2874C5.84999 16.6874 8.39999 18.4124 11.3625 18.6749V21.6374H9.11249C8.66249 21.6374 8.24999 22.0124 8.24999 22.4999C8.24999 22.9874 8.62499 23.3624 9.11249 23.3624H15.2625C15.7125 23.3624 16.125 22.9874 16.125 22.4999C16.125 22.0124 15.75 21.6374 15.2625 21.6374H13.0125V18.6749C17.625 18.2624 21.225 14.4 21.225 9.67495ZM19.5375 9.67495C19.5375 10.1249 19.5 10.575 19.425 11.025H19.3875C18.3375 11.4374 16.875 11.3624 15.4125 10.875C15.5625 10.5 15.6375 10.0875 15.6375 9.67495C15.6375 8.32495 14.85 7.16245 13.725 6.59995C13.725 6.56245 13.725 6.56245 13.725 6.52495C13.725 4.98745 13.3875 3.52495 12.7875 2.36245C16.5375 2.66245 19.5375 5.81245 19.5375 9.67495ZM12.1875 7.98745C13.125 7.98745 13.9125 8.77495 13.9125 9.71245C13.9125 10.65 13.125 11.4375 12.1875 11.4375C11.25 11.4375 10.4625 10.65 10.4625 9.71245C10.4625 8.77495 11.25 7.98745 12.1875 7.98745ZM10.8 2.47495C11.475 3.37495 11.925 4.79995 11.9625 6.29995C10.2375 6.41245 8.84999 7.83745 8.77499 9.56245C8.73749 9.56245 8.69999 9.59995 8.69999 9.59995C7.27499 10.2 6.07499 11.0625 5.24999 12.075C4.98749 11.325 4.83749 10.5374 4.83749 9.71245C4.83749 6.11245 7.42499 3.11245 10.8 2.47495ZM6.07499 13.7999C6.67499 12.7874 7.76249 11.8499 9.14999 11.25C9.71249 12.3375 10.875 13.0875 12.1875 13.0875C13.0125 13.0875 13.7625 12.7874 14.3625 12.2999C15.4875 12.7499 16.6875 12.9749 17.775 12.9749C18.15 12.9749 18.4875 12.9375 18.825 12.9C17.625 15.3375 15.1125 17.025 12.225 17.025C9.63749 17.025 7.42499 15.7499 6.07499 13.7999Z" fill="#161A23"/>
</svg>
