<svg width="24" height="24" viewBox="0 0 24 24" fill="none" xmlns="http://www.w3.org/2000/svg">
<path d="M22.2 18.1125L20.2125 17.175C21.4875 15.375 22.2 13.2375 22.2 11.025C22.2 5.21251 17.475 0.450012 11.625 0.450012C5.81249 0.450012 1.04999 5.21251 1.04999 11.025C1.04999 16.875 5.81249 21.6 11.625 21.6C13.3125 21.6 14.9625 21.1875 16.425 20.4375L17.5125 22.7625C17.7375 23.2125 18.1875 23.5125 18.675 23.5125C18.75 23.5125 18.8625 23.5125 18.9375 23.475C19.5375 23.3625 19.95 22.875 19.9875 22.275L20.0625 20.625L21.7125 20.55C22.3125 20.5125 22.8 20.1 22.9125 19.5C23.025 18.975 22.725 18.375 22.2 18.1125ZM11.625 19.9125C6.74999 19.9125 2.73749 15.9375 2.73749 11.025C2.73749 6.15001 6.74999 2.13751 11.625 2.13751C16.5375 2.13751 20.5125 6.11251 20.5125 11.025C20.5125 13.0125 19.8375 14.925 18.6375 16.4625L16.6875 15.5625C16.2 15.3375 15.6375 15.45 15.225 15.825C14.8125 16.2 14.7375 16.8 14.9625 17.2875L15.7125 18.9375C14.475 19.575 13.0875 19.9125 11.625 19.9125ZM19.6125 19.0125C18.9375 19.05 18.4125 19.575 18.375 20.25V20.625L16.95 17.55L20.025 18.975L19.6125 19.0125Z" fill="#161A23"/>
<path d="M11.625 14.5125C11.175 14.5125 10.8 14.8875 10.8 15.3375V15.45C10.8 15.9 11.175 16.275 11.625 16.275C12.075 16.275 12.45 15.9 12.45 15.45V15.375C12.4875 14.8875 12.1125 14.5125 11.625 14.5125Z" fill="#161A23"/>
<path d="M11.625 5.77502C10.3125 5.77502 9.15001 6.60002 8.70001 7.83752C8.58751 8.17502 8.51251 8.51252 8.51251 8.88752C8.51251 9.33752 8.88751 9.71252 9.33751 9.71252C9.78751 9.71252 10.1625 9.33752 10.1625 8.88752C10.1625 8.73752 10.2 8.55002 10.2375 8.40002C10.425 7.83752 10.9875 7.46252 11.5875 7.46252C12.375 7.46252 13.0125 8.10002 13.0125 8.88752C13.0125 9.67502 12.375 10.3125 11.5875 10.3125C11.1375 10.3125 10.7625 10.6875 10.7625 11.1375V13.5375C10.7625 13.9875 11.1375 14.3625 11.5875 14.3625C12.0375 14.3625 12.4125 13.9875 12.4125 13.5375V11.8875C13.725 11.5125 14.6625 10.3125 14.6625 8.88752C14.7375 7.16252 13.35 5.77502 11.625 5.77502Z" fill="#161A23"/>
</svg>
