<svg width="24" height="24" viewBox="0 0 24 24" fill="none" xmlns="http://www.w3.org/2000/svg">
<path d="M19.9125 7.46252H16.575V6.97502C16.575 6.11252 15.8625 5.40002 15 5.40002H4.53751C4.08751 5.40002 3.71251 5.77502 3.71251 6.22502C3.71251 6.67502 4.08751 7.05002 4.53751 7.05002H14.85V15.525H11.55C11.2875 14.5125 10.35 13.7625 9.22501 13.7625C8.10001 13.7625 7.20001 14.5125 6.90001 15.525H4.46251C4.01251 15.525 3.63751 15.9 3.63751 16.35C3.63751 16.8 4.01251 17.175 4.46251 17.175H7.12501C7.50001 17.9625 8.32501 18.525 9.26251 18.525C10.2 18.525 11.025 17.9625 11.4 17.175H16.9125C17.2875 17.9625 18.1125 18.525 19.05 18.525C19.9875 18.525 20.8125 17.9625 21.1875 17.175H22.5C22.95 17.175 23.325 16.8 23.325 16.35V10.9125C23.3625 9.00002 21.7875 7.46252 19.9125 7.46252ZM19.9125 9.15002C20.8125 9.15002 21.525 9.82502 21.6375 10.65H16.575V9.15002H19.9125ZM9.26251 16.9125C8.88751 16.9125 8.55001 16.6125 8.55001 16.2C8.55001 15.7875 8.85001 15.4875 9.26251 15.4875C9.63751 15.4875 9.97501 15.7875 9.97501 16.2C9.97501 16.6125 9.67501 16.9125 9.26251 16.9125ZM19.125 16.9125C18.75 16.9125 18.4125 16.6125 18.4125 16.2C18.4125 15.7875 18.7125 15.4875 19.125 15.4875C19.5375 15.4875 19.8375 15.7875 19.8375 16.2C19.8375 16.6125 19.5 16.9125 19.125 16.9125ZM21.4125 15.5625C21.15 14.55 20.2125 13.8 19.0875 13.8C18 13.8 17.0625 14.55 16.7625 15.5625H16.5375V12.375H21.6375V15.5625H21.4125Z" fill="#161A23"/>
<path d="M5.21249 12.975C4.87499 13.3125 4.87499 13.8375 5.21249 14.175C5.36249 14.325 5.58749 14.4375 5.81249 14.4375C6.03749 14.4375 6.26249 14.3625 6.41249 14.175L8.51249 12.075C8.84999 11.7375 8.84999 11.2125 8.51249 10.875L6.37499 8.77498C6.03749 8.43748 5.51249 8.43748 5.17499 8.77498C4.83749 9.11248 4.83749 9.63748 5.17499 9.97498L5.84999 10.65H1.49999C1.04999 10.65 0.674988 11.025 0.674988 11.475C0.674988 11.925 1.04999 12.3375 1.49999 12.3375H5.84999L5.21249 12.975Z" fill="#161A23"/>
</svg>
