<svg width="25" height="24" viewBox="0 0 25 24" fill="none" xmlns="http://www.w3.org/2000/svg">
<path d="M20.775 6.22499L15.6 1.12499C15.3 0.824988 14.8875 0.674988 14.475 0.674988H5.47499C4.19999 0.674988 3.11249 1.72499 3.11249 3.03749V21.0375C3.11249 22.3125 4.16249 23.4 5.47499 23.4H18.8625C20.1375 23.4 21.225 22.35 21.225 21.0375V7.34999C21.225 6.93749 21.075 6.52499 20.775 6.22499ZM15.6375 3.52499L18.45 6.29999H15.6375V3.52499ZM18.9 21.675H5.47499C5.09999 21.675 4.79999 21.375 4.79999 21V2.99999C4.79999 2.62499 5.09999 2.32499 5.47499 2.32499H13.95V7.12499C13.95 7.57499 14.325 7.98749 14.8125 7.98749H19.575V21C19.5375 21.375 19.2375 21.675 18.9 21.675Z" fill="#161A23"/>
<path d="M9.37499 12.675H6.63749C6.18749 12.675 5.77499 13.05 5.77499 13.5375V19.275C5.77499 19.725 6.14999 20.1375 6.63749 20.1375C7.12499 20.1375 7.49999 19.7625 7.49999 19.275V16.95H8.58749C9.03749 16.95 9.44999 16.575 9.44999 16.0875C9.44999 15.6 9.07499 15.225 8.58749 15.225H7.49999V14.3625H9.37499C9.82499 14.3625 10.2375 13.9875 10.2375 13.5C10.2375 13.0125 9.86249 12.675 9.37499 12.675Z" fill="#161A23"/>
<path d="M11.7375 12.675C11.2875 12.675 10.875 13.05 10.875 13.5375V19.275C10.875 19.725 11.25 20.1375 11.7375 20.1375C12.225 20.1375 12.6 19.7625 12.6 19.275V13.5C12.6 13.05 12.1875 12.675 11.7375 12.675Z" fill="#161A23"/>
<path d="M18 15.525H16.7625C16.3125 15.525 15.9 15.9 15.9 16.3875C15.9 16.875 16.275 17.25 16.7625 17.25H17.1375V18.4125H15.6V14.3625H17.925C18.375 14.3625 18.7875 13.9875 18.7875 13.5C18.7875 13.0125 18.4125 12.6375 17.925 12.6375H14.775C14.325 12.6375 13.9125 13.0125 13.9125 13.5V19.2375C13.9125 19.6875 14.2875 20.1 14.775 20.1H18C18.45 20.1 18.8625 19.725 18.8625 19.2375V16.3875C18.8625 15.9 18.4875 15.525 18 15.525Z" fill="#161A23"/>
</svg>
