<svg width="24" height="24" viewBox="0 0 24 24" fill="none" xmlns="http://www.w3.org/2000/svg">
<path d="M21.0375 4.16255H12.375L11.5875 2.66255C11.175 1.91255 10.425 1.42505 9.56249 1.42505H2.96249C1.68749 1.42505 0.674988 2.43755 0.674988 3.71255V20.2875C0.674988 21.5625 1.68749 22.5751 2.96249 22.5751H21.075C22.35 22.5751 23.3625 21.5625 23.3625 20.2875V6.45005C23.3625 5.17505 22.3125 4.16255 21.0375 4.16255ZM21.675 20.2875C21.675 20.625 21.4125 20.8876 21.075 20.8876H2.96249C2.62499 20.8876 2.36249 20.625 2.36249 20.2875V3.71255C2.36249 3.37505 2.62499 3.11255 2.96249 3.11255H9.56249C9.78749 3.11255 9.97499 3.22505 10.0875 3.45005L11.1375 5.40005C11.2875 5.66255 11.5875 5.85005 11.8875 5.85005H21.075C21.4125 5.85005 21.675 6.11255 21.675 6.45005V20.2875Z" fill="#161A23"/>
<path d="M14.7 13.4251L12.8625 15.2251V9.75007C12.8625 9.30007 12.4875 8.88757 12 8.88757C11.5125 8.88757 11.1375 9.26257 11.1375 9.75007V15.2626L9.26251 13.4251C8.92501 13.0876 8.40001 13.0876 8.06251 13.4251C7.72501 13.7626 7.72501 14.2876 8.06251 14.6251L11.3625 17.8501C11.5125 18.0001 11.7375 18.0751 11.9625 18.0751C12.1875 18.0751 12.375 18.0001 12.5625 17.8501L15.8625 14.6251C16.2 14.2876 16.2 13.7626 15.8625 13.4251C15.5625 13.0876 15.0375 13.0876 14.7 13.4251Z" fill="#161A23"/>
</svg>
