<svg width="24" height="24" viewBox="0 0 24 24" fill="none" xmlns="http://www.w3.org/2000/svg">
<path d="M20.5875 6.22505L15.4125 1.12505C15.1125 0.825049 14.7 0.675049 14.2875 0.675049H5.28749C4.01249 0.675049 2.92499 1.72505 2.92499 3.03755V21.0375C2.92499 22.3125 3.97499 23.4 5.28749 23.4H18.675C19.95 23.4 21.0375 22.35 21.0375 21.0375V7.35005C21.0375 6.93755 20.8875 6.52505 20.5875 6.22505ZM15.45 3.52505L18.2625 6.30005H15.45V3.52505ZM18.7125 21.675H5.28749C4.91249 21.675 4.61249 21.375 4.61249 21V3.00005C4.61249 2.62505 4.91249 2.32505 5.28749 2.32505H13.7625V7.12505C13.7625 7.57505 14.1375 7.98755 14.625 7.98755H19.3875V21C19.35 21.375 19.05 21.675 18.7125 21.675Z" fill="#161A23"/>
<path d="M11.625 9.15015C11.175 9.15015 10.7625 9.52515 10.7625 10.0126V15.0751C10.7625 15.5251 11.1375 15.9376 11.625 15.9376C12.1125 15.9376 12.45 15.5626 12.45 15.0751V9.97515C12.45 9.52515 12.075 9.15015 11.625 9.15015Z" fill="#161A23"/>
<path d="M11.625 17.0251C11.175 17.0251 10.7625 17.4001 10.7625 17.8876V18.0751C10.7625 18.5251 11.1375 18.9376 11.625 18.9376C12.1125 18.9376 12.45 18.5626 12.45 18.0751V17.8876C12.45 17.4001 12.075 17.0251 11.625 17.0251Z" fill="#161A23"/>
</svg>
