<svg width="24" height="24" viewBox="0 0 24 24" fill="none" xmlns="http://www.w3.org/2000/svg">
<path d="M20.5875 6.22505L15.4125 1.12505C15.1125 0.825049 14.7 0.675049 14.2875 0.675049H5.28749C4.01249 0.675049 2.92499 1.72505 2.92499 3.03755V21.0375C2.92499 22.3125 3.97499 23.4 5.28749 23.4H18.675C19.95 23.4 21.0375 22.35 21.0375 21.0375V7.35005C21.0375 6.93755 20.8875 6.52505 20.5875 6.22505ZM15.45 3.52505L18.2625 6.30005H15.45V3.52505ZM18.7125 21.675H5.28749C4.91249 21.675 4.61249 21.375 4.61249 21V3.00005C4.61249 2.62505 4.91249 2.32505 5.28749 2.32505H13.7625V7.12505C13.7625 7.57505 14.1375 7.98755 14.625 7.98755H19.3875V21C19.35 21.375 19.05 21.675 18.7125 21.675Z" fill="#161A23"/>
<path d="M13.2 9.9001C12.8625 9.5626 12.3375 9.5626 12 9.9001C11.6625 10.2376 11.6625 10.7626 12 11.1001L14.25 13.3876H7.76249C7.31249 13.3876 6.89999 13.7626 6.89999 14.2501C6.89999 14.7376 7.27499 15.1126 7.76249 15.1126H14.25L12 17.4001C11.6625 17.7376 11.6625 18.2626 12 18.6001C12.15 18.7501 12.375 18.8251 12.6 18.8251C12.825 18.8251 13.05 18.7501 13.2 18.5626L16.875 14.8501C17.2125 14.5126 17.2125 13.9876 16.875 13.6501L13.2 9.9001Z" fill="#161A23"/>
</svg>
