<svg width="24" height="24" viewBox="0 0 24 24" fill="none" xmlns="http://www.w3.org/2000/svg">
<path d="M21.0375 4.16255H12.375L11.5875 2.66255C11.175 1.91255 10.425 1.42505 9.56249 1.42505H2.96249C1.68749 1.42505 0.674988 2.43755 0.674988 3.71255V20.2875C0.674988 21.5625 1.68749 22.5751 2.96249 22.5751H21.075C22.35 22.5751 23.3625 21.5625 23.3625 20.2875V6.45005C23.3625 5.17505 22.3125 4.16255 21.0375 4.16255ZM21.675 20.2875C21.675 20.625 21.4125 20.8876 21.075 20.8876H2.96249C2.62499 20.8876 2.36249 20.625 2.36249 20.2875V3.71255C2.36249 3.37505 2.62499 3.11255 2.96249 3.11255H9.56249C9.78749 3.11255 9.97499 3.22505 10.0875 3.45005L11.1375 5.40005C11.2875 5.66255 11.5875 5.85005 11.8875 5.85005H21.075C21.4125 5.85005 21.675 6.11255 21.675 6.45005V20.2875Z" fill="#161A23"/>
<path d="M12.6 9.1501C12.2625 8.8126 11.7375 8.8126 11.4 9.1501L8.13746 12.3751C7.79996 12.7126 7.79996 13.2376 8.13746 13.5751C8.47496 13.9126 8.99996 13.9126 9.33746 13.5751L11.175 11.7751V17.2501C11.175 17.7001 11.55 18.1126 12.0375 18.1126C12.525 18.1126 12.8625 17.7376 12.8625 17.2501V11.7376L14.7375 13.5751C14.8875 13.7251 15.1125 13.8001 15.3375 13.8001C15.5625 13.8001 15.7875 13.7251 15.9375 13.5376C16.275 13.2001 16.275 12.6751 15.9375 12.3376L12.6 9.1501Z" fill="#161A23"/>
</svg>
