<svg width="24" height="24" viewBox="0 0 24 24" fill="none" xmlns="http://www.w3.org/2000/svg">
<path d="M8.6625 21.675H3.8625C3.4875 21.675 3.1875 21.375 3.1875 21V3.00001C3.1875 2.62501 3.4875 2.32501 3.8625 2.32501H12.3375V7.12501C12.3375 7.57501 12.7125 7.98751 13.2 7.98751H17.9625V10.5C17.9625 10.95 18.3375 11.3625 18.825 11.3625C19.3125 11.3625 19.6875 10.9875 19.6875 10.5V7.35001C19.6875 6.93751 19.5 6.52501 19.2 6.22501L13.95 1.12501C13.65 0.825014 13.2375 0.675014 12.825 0.675014H3.825C2.55 0.637514 1.5 1.72501 1.5 3.00001V21C1.5 22.275 2.55 23.3625 3.8625 23.3625H8.7C9.15 23.3625 9.5625 22.9875 9.5625 22.5C9.5625 22.0125 9.15 21.675 8.6625 21.675ZM13.9875 3.52501L16.8 6.30001H13.9875V3.52501Z" fill="#161A23"/>
<path d="M22.2 14.1C21.9 13.8 21.6 13.5 21.3 13.2C21.0375 12.9375 20.775 12.6375 20.475 12.375C20.325 12.1875 20.1 12.0375 19.8375 12C19.5375 11.9625 19.2375 12.0375 19.0125 12.225L12.4875 18.7125C12.3 18.9 12.1875 19.0875 12.1125 19.3125L11.175 22.1625L11.025 22.6125L11.2875 22.95C11.4 23.1 11.625 23.325 12.0375 23.325H12.1875L15.15 22.35C15.375 22.275 15.6 22.1625 15.75 21.975L22.2 15.5625C22.3875 15.375 22.5 15.1125 22.5 14.8125C22.5 14.55 22.3875 14.2875 22.2 14.1ZM19.6875 13.95C19.8375 14.1 19.9875 14.25 20.1 14.4C20.25 14.55 20.4 14.7 20.55 14.85L20.1375 15.2625L19.275 14.4L19.6875 13.95ZM14.5875 20.775L13.275 21.1875L13.6875 19.875L18.0375 15.525L18.9 16.3875L14.5875 20.775Z" fill="#161A23"/>
</svg>
