<svg width="24" height="24" viewBox="0 0 24 24" fill="none" xmlns="http://www.w3.org/2000/svg">
<path d="M20.5875 6.22505L15.4125 1.12505C15.1125 0.825049 14.7 0.675049 14.2875 0.675049H5.28749C4.01249 0.675049 2.92499 1.72505 2.92499 3.03755V21.0375C2.92499 22.3125 3.97499 23.4 5.28749 23.4H18.675C19.95 23.4 21.0375 22.35 21.0375 21.0375V7.35005C21.0375 6.93755 20.8875 6.52505 20.5875 6.22505ZM15.45 3.52505L18.2625 6.30005H15.45V3.52505ZM18.7125 21.675H5.28749C4.91249 21.675 4.61249 21.375 4.61249 21V3.00005C4.61249 2.62505 4.91249 2.32505 5.28749 2.32505H13.7625V7.12505C13.7625 7.57505 14.1375 7.98755 14.625 7.98755H19.3875V21C19.35 21.375 19.05 21.675 18.7125 21.675Z" fill="#161A23"/>
<path d="M14.5875 10.9126H8.09999C7.64999 10.9126 7.23749 11.2876 7.23749 11.7751C7.23749 12.2626 7.61249 12.6376 8.09999 12.6376H14.5875C15.0375 12.6376 15.45 12.2626 15.45 11.7751C15.45 11.2876 15.075 10.9126 14.5875 10.9126Z" fill="#161A23"/>
<path d="M14.5875 15.0376H8.09999C7.64999 15.0376 7.23749 15.4126 7.23749 15.9001C7.23749 16.3876 7.61249 16.7626 8.09999 16.7626H14.5875C15.0375 16.7626 15.45 16.3876 15.45 15.9001C15.45 15.4126 15.075 15.0376 14.5875 15.0376Z" fill="#161A23"/>
</svg>
