<svg width="24" height="24" viewBox="0 0 24 24" fill="none" xmlns="http://www.w3.org/2000/svg">
<path d="M14.2875 11.2875V10.575C14.2875 9.26255 13.275 8.17505 12 8.17505C10.725 8.17505 9.71249 9.26255 9.71249 10.575V11.2875C8.66249 11.325 7.79999 12.1875 7.79999 13.2375V16.125C7.79999 17.2125 8.69999 18.1125 9.78749 18.1125H14.25C15.3375 18.1125 16.2375 17.2125 16.2375 16.125V13.2375C16.2 12.1875 15.3375 11.2875 14.2875 11.2875ZM12 9.86255C12.3375 9.86255 12.6 10.1625 12.6 10.575V11.2875H11.4V10.575C11.4 10.2 11.6625 9.86255 12 9.86255ZM14.5125 16.125C14.5125 16.275 14.4 16.425 14.2125 16.425H9.74999C9.59999 16.425 9.44999 16.3125 9.44999 16.125V13.2375C9.44999 13.0875 9.56249 12.9375 9.74999 12.9375H14.2125C14.3625 12.9375 14.5125 13.05 14.5125 13.2375V16.125Z" fill="#161A23"/>
<path d="M21.0375 4.16255H12.375L11.5875 2.66255C11.175 1.91255 10.425 1.42505 9.56249 1.42505H2.96249C1.68749 1.42505 0.674988 2.43755 0.674988 3.71255V20.2875C0.674988 21.5625 1.68749 22.5751 2.96249 22.5751H21.075C22.35 22.5751 23.3625 21.5625 23.3625 20.2875V6.45005C23.3625 5.17505 22.3125 4.16255 21.0375 4.16255ZM21.675 20.2875C21.675 20.625 21.4125 20.8876 21.075 20.8876H2.96249C2.62499 20.8876 2.36249 20.625 2.36249 20.2875V3.71255C2.36249 3.37505 2.62499 3.11255 2.96249 3.11255H9.56249C9.78749 3.11255 9.97499 3.22505 10.0875 3.45005L11.1375 5.40005C11.2875 5.66255 11.5875 5.85005 11.8875 5.85005H21.075C21.4125 5.85005 21.675 6.11255 21.675 6.45005V20.2875Z" fill="#161A23"/>
</svg>
