<svg width="24" height="24" viewBox="0 0 24 24" fill="none" xmlns="http://www.w3.org/2000/svg">
<path d="M21.2625 3.2625H13.9875L13.35 2.025C12.975 1.35 12.3 0.9375 11.5125 0.9375H5.88749C4.76249 0.9375 3.82499 1.875 3.82499 3V4.8H2.73749C1.61249 4.8 0.674988 5.7375 0.674988 6.8625V20.925C0.674988 22.05 1.61249 22.9875 2.73749 22.9875H18.1125C19.2375 22.9875 20.175 22.05 20.175 20.925V19.125H21.2625C22.3875 19.125 23.325 18.1875 23.325 17.0625V5.3625C23.3625 4.2 22.425 3.2625 21.2625 3.2625ZM18.4875 20.9625C18.4875 21.1875 18.3 21.3375 18.1125 21.3375H2.73749C2.51249 21.3375 2.36249 21.15 2.36249 20.9625V6.9C2.36249 6.675 2.54999 6.525 2.73749 6.525H8.36249C8.51249 6.525 8.62499 6.6 8.69999 6.7125L9.59999 8.4C9.74999 8.6625 10.05 8.85 10.35 8.85H18.15C18.375 8.85 18.525 9.0375 18.525 9.225V20.9625H18.4875ZM21.675 17.1C21.675 17.325 21.4875 17.475 21.3 17.475H20.2125V9.225C20.2125 8.1 19.275 7.1625 18.15 7.1625H10.8L10.1625 5.925C9.78749 5.25 9.11249 4.8375 8.32499 4.8375H5.51249V3.0375C5.51249 2.8125 5.69999 2.6625 5.88749 2.6625H11.5125C11.6625 2.6625 11.775 2.7375 11.85 2.85L12.75 4.5C12.9 4.7625 13.2 4.95 13.5 4.95H21.3C21.525 4.95 21.675 5.1375 21.675 5.325V17.1Z" fill="#161A23"/>
</svg>
