<svg width="24" height="24" viewBox="0 0 24 24" fill="none" xmlns="http://www.w3.org/2000/svg">
<path d="M20.5875 6.22505L15.4125 1.12505C15.1125 0.825049 14.7 0.675049 14.2875 0.675049H5.28749C4.01249 0.675049 2.92499 1.72505 2.92499 3.03755V21.0375C2.92499 22.3125 3.97499 23.4 5.28749 23.4H18.675C19.95 23.4 21.0375 22.35 21.0375 21.0375V7.35005C21.0375 6.93755 20.8875 6.52505 20.5875 6.22505ZM15.45 3.52505L18.2625 6.30005H15.45V3.52505ZM18.7125 21.675H5.28749C4.91249 21.675 4.61249 21.375 4.61249 21V3.00005C4.61249 2.62505 4.91249 2.32505 5.28749 2.32505H13.7625V7.12505C13.7625 7.57505 14.1375 7.98755 14.625 7.98755H19.3875V21C19.35 21.375 19.05 21.675 18.7125 21.675Z" fill="#161A23"/>
<path d="M16.6125 15.6751C16.1625 15.6751 15.75 16.0501 15.75 16.5376V17.7751H8.24999V16.5001C8.24999 16.0501 7.87499 15.6376 7.38749 15.6376C6.89999 15.6376 6.52499 16.0126 6.52499 16.5001V17.9626C6.52499 18.7876 7.19999 19.4251 7.98749 19.4251H15.9C16.725 19.4251 17.3625 18.7501 17.3625 17.9626V16.5001C17.4375 16.0501 17.0625 15.6751 16.6125 15.6751Z" fill="#161A23"/>
<path d="M10.2375 13.0875L11.175 12.1875V15.15C11.175 15.6 11.55 16.0125 12.0375 16.0125C12.4875 16.0125 12.9 15.6375 12.9 15.15V12.1875L13.8375 13.0875C13.9875 13.2375 14.2125 13.3125 14.4375 13.3125C14.6625 13.3125 14.8875 13.2375 15.0375 13.05C15.375 12.7125 15.3375 12.1875 15.0375 11.85L12.7125 9.56251C12.375 9.26251 11.85 9.22501 11.55 9.56251L9.18749 11.85C8.84999 12.1875 8.84999 12.7125 9.14999 13.05C9.37499 13.3875 9.89999 13.3875 10.2375 13.0875Z" fill="#161A23"/>
</svg>
