<svg width="24" height="24" viewBox="0 0 24 24" fill="none" xmlns="http://www.w3.org/2000/svg">
<path d="M21 1.65002H12.825C11.55 1.65002 10.4625 2.70002 10.4625 4.01252V6.67502H3.00001C1.72501 6.67502 0.637512 7.72502 0.637512 9.03752V16.2375C0.637512 16.6875 0.825012 17.1375 1.16251 17.475L5.62501 21.8625C5.96251 22.2 6.41251 22.3875 6.86251 22.3875H11.175C12.45 22.3875 13.5 21.3375 13.5 20.025V14.9625L15.4125 16.875C15.75 17.2125 16.2 17.4 16.65 17.4H21C22.275 17.4 23.3625 16.35 23.3625 15.0375V3.97502C23.3625 2.70002 22.275 1.65002 21 1.65002ZM3.52501 17.3625H5.58751C5.62501 17.3625 5.66251 17.4 5.66251 17.4375V19.5L3.52501 17.3625ZM11.85 20.025C11.85 20.4 11.55 20.7 11.2125 20.7H7.35001V17.475C7.35001 16.5 6.56251 15.7125 5.58751 15.7125H2.36251V8.96252C2.36251 8.58752 2.66251 8.28752 3.03751 8.28752H11.8125C11.85 8.28752 11.8875 8.32502 11.8875 8.36252V20.025H11.85ZM13.5375 12.5625V12.375H15.4125C15.45 12.375 15.4875 12.4125 15.4875 12.45V14.5125L13.5375 12.5625ZM21.675 15.0375C21.675 15.4125 21.375 15.7125 21 15.7125H17.1375V12.4875C17.1375 11.5125 16.35 10.725 15.375 10.725H13.5V8.40002C13.5 7.57502 12.9 6.86252 12.15 6.71252V4.01252C12.15 3.63752 12.45 3.33752 12.825 3.33752H21C21.375 3.33752 21.675 3.63752 21.675 4.01252V15.0375Z" fill="#161A23"/>
</svg>
