<svg width="24" height="24" viewBox="0 0 24 24" fill="none" xmlns="http://www.w3.org/2000/svg">
<path d="M15.45 9.2625L12.3 8.025C12.1125 7.95 11.8875 7.95 11.6625 8.025L8.51249 9.2625C8.17499 9.375 7.98749 9.7125 7.98749 10.05V11.85C7.98749 14.0625 9.07499 16.125 10.8375 17.3625L11.5125 17.8125C11.6625 17.925 11.8125 17.9625 12 17.9625C12.1875 17.9625 12.3375 17.925 12.4875 17.8125L13.1625 17.3625C14.9625 16.125 16.0125 14.0625 16.0125 11.85V10.05C16.0125 9.675 15.7875 9.375 15.45 9.2625ZM14.325 11.8125C14.325 13.4625 13.5375 15 12.1875 15.9375L12 16.05L11.8125 15.9375C10.4625 15.0375 9.67499 13.4625 9.67499 11.8125V10.6125L12 9.7125L14.325 10.6125V11.8125Z" fill="#161A23"/>
<path d="M21.0375 4.16255H12.375L11.5875 2.66255C11.175 1.91255 10.425 1.42505 9.56249 1.42505H2.96249C1.68749 1.42505 0.674988 2.43755 0.674988 3.71255V20.2875C0.674988 21.5625 1.68749 22.5751 2.96249 22.5751H21.075C22.35 22.5751 23.3625 21.5625 23.3625 20.2875V6.45005C23.3625 5.17505 22.3125 4.16255 21.0375 4.16255ZM21.675 20.2875C21.675 20.625 21.4125 20.8876 21.075 20.8876H2.96249C2.62499 20.8876 2.36249 20.625 2.36249 20.2875V3.71255C2.36249 3.37505 2.62499 3.11255 2.96249 3.11255H9.56249C9.78749 3.11255 9.97499 3.22505 10.0875 3.45005L11.1375 5.40005C11.2875 5.66255 11.5875 5.85005 11.8875 5.85005H21.075C21.4125 5.85005 21.675 6.11255 21.675 6.45005V20.2875Z" fill="#161A23"/>
</svg>
