<svg width="25" height="24" viewBox="0 0 25 24" fill="none" xmlns="http://www.w3.org/2000/svg">
<path d="M16.1625 22.9125C14.0625 22.9125 12.3 21.4125 11.8875 19.425H1.68751C1.23751 19.425 0.825012 19.05 0.825012 18.5625C0.825012 18.075 1.20001 17.7 1.68751 17.7H11.8875C12.3 15.75 14.0625 14.25 16.1625 14.25C18.2625 14.25 20.025 15.75 20.4375 17.7375H22.6875C23.1375 17.7375 23.55 18.1125 23.55 18.6C23.55 19.0875 23.175 19.4625 22.6875 19.4625H20.4375C20.025 21.4125 18.2625 22.9125 16.1625 22.9125ZM16.1625 15.9375C14.7 15.9375 13.5 17.1375 13.5 18.5625C13.5 19.9875 14.7 21.1875 16.1625 21.1875C17.625 21.1875 18.825 19.9875 18.825 18.5625C18.825 17.1375 17.625 15.9375 16.1625 15.9375ZM9.56251 16.3125C7.46251 16.3125 5.70001 14.8125 5.28751 12.825H1.68751C1.23751 12.825 0.825012 12.45 0.825012 11.9625C0.825012 11.5125 1.20001 11.1 1.68751 11.1H5.28751C5.70001 9.1125 7.46251 7.6125 9.56251 7.6125C11.6625 7.6125 13.425 9.1125 13.8375 11.1H22.725C23.175 11.1 23.5875 11.475 23.5875 11.9625C23.5875 12.4125 23.2125 12.825 22.725 12.825H13.8C13.425 14.8125 11.6625 16.3125 9.56251 16.3125ZM9.56251 9.375C8.10001 9.375 6.90001 10.575 6.90001 12C6.90001 13.4625 8.10001 14.625 9.56251 14.625C11.025 14.625 12.225 13.425 12.225 12C12.225 10.5375 11.025 9.375 9.56251 9.375ZM19.2 9.75C17.1 9.75 15.3375 8.25 14.925 6.2625H1.68751C1.23751 6.2625 0.825012 5.8875 0.825012 5.4C0.825012 4.9125 1.20001 4.5375 1.68751 4.5375H14.925C15.3375 2.55 17.1 1.05 19.2 1.05C21.6 1.05 23.55 3 23.55 5.3625C23.55 7.725 21.6 9.75 19.2 9.75ZM19.2 2.775C17.7375 2.775 16.5375 3.975 16.5375 5.4C16.5375 6.825 17.7375 8.025 19.2 8.025C20.6625 8.025 21.8625 6.825 21.8625 5.4C21.8625 3.975 20.6625 2.775 19.2 2.775Z" fill="#161A23"/>
</svg>
