<svg width="24" height="24" viewBox="0 0 24 24" fill="none" xmlns="http://www.w3.org/2000/svg">
<path d="M9.71253 15.2999L14.5125 13.9124L14.2125 14.4374C13.9875 14.8499 14.1375 15.3749 14.55 15.5999C14.6625 15.6749 14.8125 15.7124 14.9625 15.7124C15.2625 15.7124 15.5625 15.5624 15.7125 15.2624L17.025 12.9374C17.1375 12.7499 17.175 12.5249 17.1 12.2999C17.025 12.0749 16.875 11.8874 16.6875 11.8124L14.25 10.4624C13.8375 10.2374 13.3125 10.3874 13.0875 10.7999C12.8625 11.2124 13.0125 11.7374 13.425 11.9624L14.1 12.3374L9.26253 13.7249C8.81253 13.8374 8.55003 14.3249 8.70003 14.7749C8.85003 15.2249 9.26253 15.4124 9.71253 15.2999Z" fill="#161A23"/>
<path d="M12.525 6.74995H10.2C9.74999 6.74995 9.33749 7.12495 9.33749 7.61245C9.33749 8.09995 9.71249 8.47495 10.2 8.47495H11.5125V8.69995C11.5125 9.14995 11.8875 9.56245 12.375 9.56245C12.8625 9.56245 13.2 9.18745 13.2 8.69995V8.36245C14.025 8.09995 14.625 7.31245 14.625 6.37495C14.625 5.21245 13.6875 4.27495 12.525 4.27495H11.4375C11.2125 4.27495 11.025 4.08745 11.025 3.86245C11.025 3.63745 11.2125 3.44995 11.4375 3.44995H13.7625C14.2125 3.44995 14.625 3.07495 14.625 2.58745C14.625 2.09995 14.25 1.72495 13.7625 1.72495H13.1625V1.49995C13.1625 1.04995 12.7875 0.637451 12.3375 0.637451C11.8875 0.637451 11.475 1.01245 11.475 1.49995V1.72495H11.4C10.2375 1.72495 9.29999 2.66245 9.29999 3.82495C9.29999 4.98745 10.2375 5.92495 11.4 5.92495H12.4875C12.7125 5.92495 12.9 6.11245 12.9 6.33745C12.975 6.56245 12.7875 6.74995 12.525 6.74995Z" fill="#161A23"/>
<path d="M20.0625 3.82485H16.8375C16.3875 3.82485 15.975 4.19985 15.975 4.68735C15.975 5.17485 16.35 5.54985 16.8375 5.54985H20.0625C20.3625 5.54985 20.625 5.81235 20.625 6.11235V16.3874C20.625 16.6874 20.3625 16.9499 20.0625 16.9499H12H3.9375C3.6375 16.9499 3.375 16.6874 3.375 16.3874V6.07485C3.375 5.77485 3.6375 5.51235 3.9375 5.51235H7.1625C7.6125 5.51235 8.025 5.13735 8.025 4.64985C8.025 4.16235 7.65 3.78735 7.1625 3.78735H3.9375C2.7 3.78735 1.6875 4.79985 1.6875 6.03735V16.3124C1.6875 17.5499 2.7 18.5624 3.9375 18.5624H11.1375V21.5999H8.475C8.025 21.5999 7.6125 21.9749 7.6125 22.4624C7.6125 22.9499 7.9875 23.3249 8.475 23.3249H15.4875C15.9375 23.3249 16.35 22.9499 16.35 22.4624C16.35 21.9749 15.975 21.5999 15.4875 21.5999H12.825V18.5624H20.025C21.2625 18.5624 22.275 17.5499 22.275 16.3124V6.07485C22.3125 4.83735 21.3 3.82485 20.0625 3.82485Z" fill="#161A23"/>
</svg>
