<svg width="24" height="24" viewBox="0 0 24 24" fill="none" xmlns="http://www.w3.org/2000/svg">
<g clip-path="url(#clip0_501_43573)">
<path d="M13.05 6.225C11.25 4.425 8.36251 4.425 6.56251 6.225C5.70001 7.0875 5.21251 8.25 5.21251 9.45C5.21251 10.65 5.70001 11.8125 6.56251 12.675C7.42501 13.5375 8.58751 14.025 9.78751 14.025C10.9875 14.025 12.15 13.5375 13.0125 12.675C14.85 10.95 14.85 8.025 13.05 6.225ZM11.85 11.5125C11.2875 12.075 10.575 12.375 9.78751 12.375C9.00001 12.375 8.28751 12.075 7.72501 11.5125C7.16251 10.95 6.86251 10.2375 6.86251 9.45C6.86251 8.6625 7.16251 7.95 7.72501 7.3875C8.28751 6.825 9.03751 6.525 9.78751 6.525C10.5375 6.525 11.2875 6.825 11.85 7.3875C12.975 8.55 12.975 10.3875 11.85 11.5125Z" fill="#161A23"/>
<path d="M22.7625 21.9L16.3875 15.3375C19.4625 11.8875 19.3875 6.56251 16.05 3.22501C12.6 -0.224988 7.01251 -0.224988 3.56251 3.22501C0.112506 6.67501 0.112506 12.2625 3.56251 15.7125C5.28751 17.4375 7.53751 18.3 9.78751 18.3C11.6625 18.3 13.5375 17.7 15.1125 16.5L21.525 23.1C21.675 23.2875 21.9 23.3625 22.125 23.3625C22.35 23.3625 22.5375 23.2875 22.725 23.1375C23.1 22.7625 23.1 22.2375 22.7625 21.9ZM4.76251 14.5125C1.98751 11.7375 1.98751 7.20001 4.76251 4.42501C6.15001 3.03751 7.98751 2.32501 9.82501 2.32501C11.6625 2.32501 13.4625 3.03751 14.8875 4.42501C17.6625 7.20001 17.6625 11.7375 14.8875 14.5125C12.075 17.325 7.53751 17.325 4.76251 14.5125Z" fill="#161A23"/>
</g>
<defs>
<clipPath id="clip0_501_43573">
<rect width="24" height="24" fill="white"/>
</clipPath>
</defs>
</svg>
