<svg width="25" height="24" viewBox="0 0 25 24" fill="none" xmlns="http://www.w3.org/2000/svg">
<path d="M14.8875 23.3625C14.7375 23.3625 14.625 23.325 14.5125 23.25C14.1 23.025 13.95 22.5375 14.175 22.125C14.925 20.7375 15.525 19.275 15.975 17.7375C16.125 17.2875 16.575 17.025 17.025 17.175C17.475 17.325 17.7375 17.775 17.5875 18.225C17.1 19.8375 16.4625 21.4125 15.675 22.9125C15.4875 23.175 15.1875 23.3625 14.8875 23.3625ZM9.41248 23.025C9.26248 23.025 9.07498 22.9875 8.96248 22.875C8.58748 22.6125 8.47498 22.0875 8.73748 21.7125C9.22498 20.9625 9.67498 20.2125 10.05 19.425C10.2375 19.0125 10.7625 18.825 11.175 19.05C11.5875 19.2375 11.775 19.7625 11.55 20.175C11.1375 21.0375 10.65 21.8625 10.125 22.6875C9.93748 22.875 9.67498 23.025 9.41248 23.025ZM5.13748 20.625C4.98748 20.625 4.83748 20.5875 4.68748 20.5125C4.27498 20.25 4.16248 19.725 4.42498 19.35L4.49998 19.2375C5.28748 18.0375 5.92498 16.725 6.33748 15.375C6.59998 14.55 6.78748 13.6875 6.89998 12.825C6.97498 12.375 7.38748 12.0375 7.83748 12.1125C8.28748 12.1875 8.62498 12.6 8.54998 13.05C8.43748 14.025 8.21248 14.9625 7.91248 15.9C7.42498 17.4 6.74998 18.825 5.88748 20.175L5.81248 20.25C5.69998 20.475 5.43748 20.625 5.13748 20.625ZM21.45 20.1375C21.375 20.1375 21.3 20.1375 21.225 20.1C20.775 19.95 20.5125 19.5 20.6625 19.05C21.45 16.425 21.8625 13.6875 21.8625 10.9125C21.8625 9.4125 21.45 7.95 20.6625 6.6375C19.875 5.325 18.75 4.2375 17.3625 3.4875C15.975 2.7375 14.4 2.325 12.825 2.325C11.25 2.325 9.67498 2.7375 8.28748 3.4875C7.87498 3.7125 7.34998 3.5625 7.12498 3.15C6.89998 2.7375 7.04998 2.2125 7.46248 1.9875C9.07498 1.0875 10.95 0.637501 12.825 0.637501C14.7 0.637501 16.5375 1.125 18.1875 1.9875C19.8 2.8875 21.1875 4.1625 22.125 5.7375C23.0625 7.3125 23.5875 9.075 23.5875 10.875C23.5875 13.8 23.175 16.725 22.3125 19.5C22.1625 19.9125 21.825 20.1375 21.45 20.1375ZM1.68748 16.9125C1.57498 16.9125 1.42498 16.875 1.31248 16.8375C0.899978 16.6125 0.749978 16.125 0.937478 15.7125C1.68748 14.2125 2.06248 12.6375 2.06248 10.95C2.06248 9.15 2.54998 7.35 3.52498 5.8125C3.74998 5.4 4.27498 5.2875 4.68748 5.5125C5.09998 5.7375 5.21248 6.2625 4.98748 6.675C4.19998 7.95 3.78748 9.45 3.78748 10.95C3.78748 12.9 3.33748 14.7375 2.47498 16.4625C2.28748 16.725 1.98748 16.9125 1.68748 16.9125ZM12.2625 16.4625C12.1875 16.4625 12.15 16.4625 12.075 16.425C11.625 16.3125 11.325 15.8625 11.4375 15.4125C11.775 13.95 11.9625 12.4125 11.9625 10.9125C11.9625 10.4625 12.3375 10.05 12.825 10.05C13.275 10.05 13.6875 10.425 13.6875 10.9125C13.6875 12.5625 13.5 14.2125 13.125 15.825C12.975 16.2 12.6375 16.4625 12.2625 16.4625ZM17.5125 15.3C17.475 15.3 17.4375 15.3 17.4 15.3C16.95 15.225 16.6125 14.8125 16.6875 14.3625C16.8375 13.2375 16.9125 12.075 16.9125 10.95C16.9125 9.9375 16.5 8.9625 15.7125 8.25C14.9625 7.5375 13.875 7.0875 12.7875 7.0875C11.7 7.0875 10.65 7.5 9.86248 8.25C9.52498 8.55 9.26248 8.925 9.07498 9.3375C8.88748 9.75 8.36248 9.9375 7.94998 9.7125C7.53748 9.525 7.34998 9 7.57498 8.5875C7.87498 7.9875 8.24998 7.4625 8.73748 7.0125C9.82498 5.9625 11.2875 5.4 12.825 5.4C14.3625 5.4 15.825 5.9625 16.9125 7.0125C18 8.0625 18.6375 9.4875 18.6375 10.95C18.6375 12.15 18.5625 13.3875 18.375 14.5875C18.2625 15 17.925 15.3 17.5125 15.3Z" fill="#161A23"/>
</svg>
