<svg width="25" height="24" viewBox="0 0 25 24" fill="none" xmlns="http://www.w3.org/2000/svg">
<path d="M14.2875 12.9C13.8375 12.9 13.425 13.275 13.425 13.7625V17.25C13.425 17.7 13.8 18.1125 14.2875 18.1125C14.775 18.1125 15.15 17.7375 15.15 17.25V13.7625C15.1125 13.3125 14.7375 12.9 14.2875 12.9Z" fill="#161A23"/>
<path d="M12.1875 9.0375C10.575 9.0375 9.22498 10.275 9.22498 11.8125V12.6375C9.22498 13.0875 9.59998 13.5 10.0875 13.5C10.575 13.5 10.95 13.125 10.95 12.6375V11.8125C10.95 11.2125 11.5125 10.725 12.225 10.725C12.9 10.725 13.4625 11.2125 13.4625 11.8125C13.4625 12.2625 13.8375 12.675 14.325 12.675C14.8125 12.675 15.1875 12.3 15.1875 11.8125C15.1125 10.3125 13.8 9.0375 12.1875 9.0375Z" fill="#161A23"/>
<path d="M7.53751 9.0375C7.12501 8.85 6.60001 9.075 6.45001 9.4875C6.22501 10.0875 6.07501 10.6875 6.07501 11.325V16.2C6.07501 16.65 6.45001 17.0625 6.93751 17.0625C7.42501 17.0625 7.80001 16.6875 7.80001 16.2V11.325C7.80001 10.9125 7.87501 10.5 8.02501 10.125C8.21251 9.675 7.98751 9.1875 7.53751 9.0375Z" fill="#161A23"/>
<path d="M10.0875 14.1375C9.63748 14.1375 9.22498 14.5125 9.22498 15V17.25C9.22498 17.7 9.59998 18.1125 10.0875 18.1125C10.575 18.1125 10.95 17.7375 10.95 17.25V14.9625C10.9125 14.5125 10.5375 14.1375 10.0875 14.1375Z" fill="#161A23"/>
<path d="M17.5125 10.875C17.9625 10.725 18.1875 10.2375 18.0375 9.825C17.2875 7.5375 14.8875 5.925 12.1875 5.925C11.025 5.925 9.86246 6.225 8.84996 6.825C8.43746 7.05 8.32496 7.575 8.54996 7.9875C8.77496 8.4 9.29996 8.5125 9.71246 8.2875C10.4625 7.8375 11.325 7.6125 12.1875 7.6125C14.175 7.6125 15.9375 8.7375 16.4625 10.35C16.575 10.6875 16.9125 10.9125 17.25 10.9125C17.325 10.9125 17.4 10.875 17.5125 10.875Z" fill="#161A23"/>
<path d="M12.1875 0.674999C5.92499 0.674999 0.862488 5.7375 0.862488 12C0.862488 18.2625 5.96249 23.3625 12.225 23.3625C18.4875 23.3625 23.55 18.2625 23.55 12C23.55 5.7375 18.45 0.674999 12.1875 0.674999ZM12.1875 21.675C6.86249 21.675 2.54999 17.325 2.54999 12C2.54999 6.675 6.89999 2.325 12.225 2.325C17.55 2.325 21.9 6.675 21.9 12C21.8625 17.325 17.5125 21.675 12.1875 21.675Z" fill="#161A23"/>
<path d="M17.4375 12C16.9875 12 16.575 12.375 16.575 12.8625V16.2C16.575 16.65 16.95 17.0625 17.4375 17.0625C17.925 17.0625 18.3 16.6875 18.3 16.2V12.8625C18.3 12.375 17.8875 12 17.4375 12Z" fill="#161A23"/>
</svg>
