<svg width="24" height="24" viewBox="0 0 24 24" fill="none" xmlns="http://www.w3.org/2000/svg">
<path d="M14.55 3.97504H13.5C13.125 3.97504 12.7875 4.23754 12.675 4.61254L12.375 5.81254H7.08753C6.82503 5.81254 6.60003 5.92504 6.41253 6.15004C6.22503 6.37504 6.18753 6.60004 6.26253 6.86254L6.90003 9.60004C6.97503 9.97504 7.31253 10.2375 7.72503 10.2375H12.375C12.75 10.2375 13.0875 9.97504 13.2 9.60004L14.175 5.66254H14.55C15 5.66254 15.375 5.28754 15.375 4.83754C15.375 4.38754 15 3.97504 14.55 3.97504ZM11.7375 8.58754H8.40003L8.13753 7.53754H12L11.7375 8.58754Z" fill="#161A23"/>
<path d="M23.325 20.475L22.3875 14.625C22.2375 13.575 21.7125 12.675 20.9625 12.0375V3.48751C20.9625 2.32501 20.025 1.38751 18.8625 1.38751H2.73751C1.57501 1.38751 0.637512 2.32501 0.637512 3.48751V13.9125C0.637512 15.075 1.57501 16.0125 2.73751 16.0125H13.575V16.05L14.5125 21.9C14.5875 22.3125 14.925 22.6125 15.3375 22.6125C15.375 22.6125 15.4125 22.6125 15.4875 22.6125C15.9375 22.5375 16.275 22.0875 16.2 21.6375L15.2625 15.7875C15.0375 14.2875 16.05 12.825 17.55 12.6C19.05 12.375 20.5125 13.3875 20.7375 14.8875L21.675 20.7375C21.75 21.1875 22.2 21.525 22.65 21.45C23.1 21.375 23.4 20.925 23.325 20.475ZM17.2875 10.9125C15.45 11.2125 14.0625 12.6 13.65 14.2875H2.77501C2.55001 14.2875 2.36251 14.1 2.36251 13.875V3.48751C2.36251 3.26251 2.55001 3.07501 2.77501 3.07501H18.9375C19.1625 3.07501 19.35 3.26251 19.35 3.48751V11.0625C18.675 10.875 17.9625 10.8 17.2875 10.9125Z" fill="#161A23"/>
<path d="M20.1 15.1125C20.025 14.55 19.725 14.0625 19.2375 13.725C18.7875 13.3875 18.225 13.275 17.6625 13.35C17.1 13.425 16.6125 13.725 16.275 14.2125C15.9375 14.6625 15.825 15.225 15.9 15.7875L16.2375 17.85C16.275 18.075 16.3875 18.2625 16.575 18.4125C16.725 18.525 16.875 18.5625 17.0625 18.5625C17.1 18.5625 17.1375 18.5625 17.2125 18.5625L19.725 18.15C19.95 18.1125 20.1375 18 20.2875 17.8125C20.4375 17.625 20.475 17.4 20.4375 17.175L20.1 15.1125ZM17.775 16.725L17.5875 15.525C17.55 15.3 17.7 15.075 17.925 15.0375C17.9625 15.0375 17.9625 15.0375 18 15.0375C18.1125 15.0375 18.1875 15.075 18.2625 15.1125C18.3 15.15 18.4125 15.225 18.45 15.375L18.6375 16.575L17.775 16.725Z" fill="#161A23"/>
<path d="M9.03752 11.325C9.00002 11.2875 9.00002 11.2125 8.96252 11.175C8.92502 11.1375 8.88752 11.1 8.85002 11.025C8.55002 10.725 7.98752 10.725 7.65002 11.025C7.61252 11.0625 7.57502 11.1 7.53752 11.175C7.53752 11.25 7.50002 11.2875 7.50002 11.325C7.46252 11.3625 7.46252 11.4375 7.46252 11.475C7.46252 11.5125 7.46252 11.5875 7.46252 11.625C7.46252 11.6625 7.46252 11.7375 7.46252 11.775C7.46252 11.8125 7.50002 11.8875 7.50002 11.925C7.50002 11.9625 7.53752 12.0375 7.57502 12.075C7.61252 12.1125 7.65002 12.15 7.68752 12.1875C7.83752 12.3375 8.06252 12.45 8.28752 12.45C8.51252 12.45 8.73752 12.375 8.88752 12.1875C8.92502 12.15 8.96252 12.1125 9.00002 12.075C9.03752 12.0375 9.03752 12 9.07502 11.925C9.11252 11.8875 9.11252 11.8125 9.11252 11.775C9.11252 11.7375 9.11252 11.6625 9.11252 11.625C9.11252 11.5875 9.11252 11.5125 9.11252 11.475C9.07502 11.4375 9.07502 11.4 9.03752 11.325Z" fill="#161A23"/>
<path d="M12.7125 11.325C12.675 11.2875 12.675 11.2125 12.6375 11.175C12.6 11.1375 12.5625 11.1 12.525 11.025C12.4875 10.9875 12.45 10.95 12.4125 10.9125C12.375 10.875 12.3375 10.875 12.2625 10.8375C12.225 10.8 12.15 10.8 12.1125 10.8C12 10.7625 11.8875 10.7625 11.775 10.8C11.7375 10.8 11.6625 10.8375 11.625 10.8375C11.5875 10.875 11.5125 10.875 11.475 10.9125C11.4375 10.95 11.4 10.9875 11.325 11.025C11.2875 11.0625 11.25 11.1 11.2125 11.175C11.175 11.2125 11.175 11.25 11.1375 11.325C11.1 11.3625 11.1 11.4375 11.1 11.475C11.1 11.5125 11.1 11.5875 11.1 11.625C11.1 11.6625 11.1 11.7375 11.1 11.775C11.1 11.8125 11.1375 11.8875 11.1375 11.925C11.175 11.9625 11.175 12.0375 11.2125 12.075C11.25 12.1125 11.2875 12.15 11.325 12.1875C11.475 12.3375 11.7 12.45 11.925 12.45C11.9625 12.45 12.0375 12.45 12.075 12.45C12.15 12.45 12.1875 12.4125 12.225 12.4125C12.2625 12.375 12.3375 12.375 12.375 12.3375C12.4125 12.3 12.45 12.2625 12.4875 12.225C12.525 12.1875 12.5625 12.15 12.6 12.1125C12.6375 12.075 12.675 12.0375 12.675 11.9625C12.7125 11.925 12.7125 11.85 12.7125 11.8125C12.7125 11.775 12.7125 11.7 12.7125 11.6625C12.7125 11.625 12.7125 11.55 12.7125 11.5125C12.75 11.4375 12.7125 11.4 12.7125 11.325Z" fill="#161A23"/>
</svg>
