<svg width="24" height="24" viewBox="0 0 24 24" fill="none" xmlns="http://www.w3.org/2000/svg">
<g clip-path="url(#clip0_914_45043)">
<path d="M23.1003 10.95C23.0628 10.725 23.0628 10.65 23.0628 10.65C23.0628 10.65 23.0253 10.7625 22.8378 10.95C22.8003 10.425 22.6878 9.9375 22.5753 9.45C22.4253 8.8125 22.1628 8.25 21.9003 7.6875C21.7503 7.3125 21.4878 6.9375 21.2628 6.6375C21.2253 6.525 21.1128 6.375 21.0003 6.2625C20.5878 5.5875 20.1003 5.1375 19.5003 4.35C19.1253 3.7125 18.8628 3.075 18.7503 2.4C18.6003 2.8125 18.4878 3.2625 18.3753 3.675C17.7753 3.075 17.3253 2.6625 17.0628 2.4C15.5628 1.125 15.7503 0.375 15.7503 0.375C15.7503 0.375 13.0128 3.45 14.1753 6.6375C14.5878 7.7625 15.3003 8.7 16.2378 9.375C17.4003 10.3125 18.6378 11.0625 19.3128 12.975C18.7878 11.9625 18.0003 11.1375 17.0253 10.5375C17.3253 11.2125 17.4378 12.0375 17.4378 12.7125C17.4378 15.5625 15.1128 17.8875 12.2628 17.8875C11.8503 17.8875 11.5128 17.85 11.1003 17.7375C10.6878 17.7 10.2003 17.5125 9.8253 17.325C9.1878 16.95 8.7003 16.4625 8.2878 15.9L8.4003 15.9375C8.6253 15.975 8.8128 16.0875 9.0378 16.0875C9.9378 16.2375 10.8378 16.125 11.7003 15.7875C12.5628 15.3 13.0128 15 13.3878 15.15C13.8003 15.2625 14.0628 14.8875 13.8003 14.5125C13.3128 13.875 12.5253 13.575 11.7378 13.725C10.8753 13.8375 10.1253 14.4 9.0753 13.875C9.0378 13.8375 8.9253 13.8375 8.8503 13.7625C8.8128 13.725 9.0753 13.8 9.0003 13.7625C8.7753 13.65 8.5128 13.5 8.3253 13.35L8.4753 13.3875C8.1753 13.2375 7.9503 12.975 7.8003 12.6375C7.6503 12.2625 7.5753 11.8875 7.7628 11.5125C7.8753 11.3625 8.0253 11.2125 8.1753 11.1C8.3253 11.1375 8.4003 11.2125 8.4003 11.2125C8.4003 11.2125 8.3628 11.1 8.2878 11.0625H8.3253C8.4378 11.1 8.7378 11.2125 8.8503 11.325C8.9628 11.3625 9.0003 11.4375 9.1128 11.55C9.1128 11.55 9.1503 11.5125 9.1128 11.4375C9.0753 11.325 8.9628 11.2125 8.8503 11.1375C8.9628 11.175 9.0753 11.25 9.1503 11.2875C9.1878 11.0625 9.3003 10.875 9.2628 10.65C9.2628 10.5375 9.2628 10.3875 9.2253 10.275C9.1878 10.2375 9.2628 10.1625 9.2628 10.2375C9.2628 10.2 9.2253 10.125 9.2253 10.0875L9.2628 10.05C9.3003 10.0125 9.3753 10.0125 9.4128 9.9375C9.7503 9.7125 10.1253 9.4875 10.5003 9.375C10.8003 9.225 11.0253 9.15 11.1378 9.1125C11.1753 9.075 11.2878 9 11.3628 8.9625C11.6253 8.7375 11.7753 8.4375 11.8503 8.1C11.8503 8.0625 11.8503 8.0625 11.8503 7.95V7.725C11.8128 7.575 11.5503 7.425 10.0503 7.3125C9.5253 7.275 9.1128 6.825 9.0003 6.3C9.3003 5.55 9.7878 4.9125 10.5003 4.5C10.5378 4.4625 10.3503 4.5 10.3878 4.4625C10.5003 4.425 10.6503 4.35 10.8003 4.3125C10.8378 4.275 10.5003 4.1625 10.2003 4.2C10.0503 4.2 9.8253 4.2375 9.6753 4.35C9.7128 4.3125 9.9753 4.2 9.9378 4.2C9.5253 4.2375 9.1878 4.425 8.8128 4.6125C8.8128 4.575 8.8128 4.575 8.8503 4.5C8.5503 4.6125 8.3253 4.8 8.1753 5.025C8.1753 4.9875 8.1753 4.9875 8.1753 4.9125C8.0628 5.025 7.9128 5.1375 7.8753 5.2125C7.0878 4.9125 6.1878 4.8 5.2878 4.9875C5.1378 4.8375 4.9878 4.6875 4.8003 4.4625H4.7628C4.7253 4.425 4.6503 4.3125 4.6128 4.1625C4.5003 4.125 4.5003 4.0125 4.4628 3.9375C4.4253 3.9375 4.4253 3.975 4.4253 3.975C4.2753 3.5625 4.2003 3.1875 4.2003 2.775C3.9378 2.925 3.7503 3.1875 3.67529 3.45C3.60029 3.5625 3.60029 3.6 3.56279 3.675V3.6C3.56279 3.5625 3.60029 3.45 3.60029 3.45C3.60029 3.45 3.60029 3.45 3.60029 3.4875C3.48779 3.5625 3.45029 3.675 3.41279 3.75C3.37529 3.8625 3.37529 3.9 3.30029 4.05C3.30029 4.05 3.30029 4.05 3.30029 4.0125C3.30029 3.975 3.30029 3.9 3.30029 3.975V4.0125C3.00029 4.6875 2.77529 5.5125 2.70029 6.225C2.66279 6.375 2.66279 6.4875 2.66279 6.6375C2.43779 6.9 2.25029 7.1625 2.06279 7.425C1.46279 8.3625 1.05029 9.45 0.787793 10.5375C0.937793 10.125 1.20029 9.75 1.42529 9.375C0.937793 10.575 0.675293 11.9625 0.675293 13.35C0.712793 12.9375 0.825293 12.5625 0.975293 12.15C0.937793 13.8 1.20029 15.375 1.87529 16.9125C2.77529 18.975 4.3128 20.6625 6.2253 21.825C6.9753 22.35 7.8753 22.7625 8.7753 23.025C8.8878 23.0625 9.0378 23.0625 9.1503 23.1375C9.1128 23.1375 9.1128 23.1 9.0378 23.1C10.1253 23.475 11.2503 23.625 12.3378 23.625C16.2753 23.625 17.5878 22.125 17.7003 21.975C17.8503 21.825 18.0753 21.5625 18.1878 21.3375C18.2253 21.3 18.3378 21.3 18.4128 21.225L18.4503 21.1875L18.4878 21.15C19.0878 20.85 19.6503 20.5125 20.1753 20.1C20.9253 19.575 21.4878 18.7875 21.7503 17.8125C21.9003 17.5125 21.9003 17.1375 21.7878 16.7625C21.8253 16.725 21.8253 16.6125 21.9003 16.5375C22.7628 15.225 23.2128 13.6125 23.2878 12.0375V12C23.1378 11.6625 23.1378 11.2875 23.1003 10.95ZM9.0003 6.375C8.9628 6.4125 8.9628 6.4875 8.9628 6.525C8.9628 6.45 9.0003 6.4125 9.0003 6.375Z" fill="#15171A"/>
</g>
<defs>
<clipPath id="clip0_914_45043">
<rect width="24" height="24" fill="white"/>
</clipPath>
</defs>
</svg>
