<svg width="24" height="24" viewBox="0 0 24 24" fill="none" xmlns="http://www.w3.org/2000/svg">
<path d="M16.3129 1.3874C15.6379 1.1999 14.9254 1.5749 14.7379 2.2499V2.2874C14.6254 2.7749 14.7754 3.2999 15.1879 3.6374L15.2629 3.6749C16.1629 4.27489 16.8754 5.58739 17.2879 6.97489C17.0254 6.82489 16.7629 6.78739 16.4629 6.82489C16.1254 6.89989 15.8254 7.08739 15.6754 7.31239C15.3379 7.76239 15.3379 8.36239 15.6754 8.84989C16.3129 9.67489 16.5379 10.6874 16.3879 11.6999C16.2379 12.7124 15.6754 13.6124 14.8504 14.2124C14.1379 14.6999 13.3129 14.9624 12.4879 14.9624H12.4504C12.5254 14.8124 12.6004 14.6624 12.6754 14.5874C12.7504 14.4749 12.9379 14.3999 13.1254 14.2874C13.3129 14.2124 13.5004 14.0999 13.6504 13.9499C13.8004 13.8374 13.9129 13.7624 14.0254 13.6499C14.1379 13.5374 14.2504 13.4624 14.3254 13.4249C14.3629 13.4249 14.4004 13.4249 14.4004 13.3874C14.5129 13.3499 14.7004 13.3124 14.8879 13.1999L14.9254 13.1624C15.3754 12.8624 15.5629 12.2999 15.4129 11.7749C15.3004 11.3624 15.0379 11.0249 14.6629 10.8374C14.2504 10.6124 13.8004 10.5374 13.3879 10.4999C12.8254 10.4624 12.3754 10.5374 12.0004 10.6874C11.7004 10.7999 11.4754 10.9874 11.2504 11.1374C11.1754 11.1749 11.1004 11.2124 11.0629 11.2499C10.8754 11.3624 10.6129 11.3624 10.2004 11.3624H10.0879C9.93788 11.3624 9.75038 11.3624 9.60038 11.3624C9.71288 11.2874 9.78788 11.2499 9.82538 11.1749C10.0504 10.9499 10.2004 10.7249 10.2754 10.3874C10.3504 10.1249 10.5004 9.93739 10.6504 9.82489L12.2254 8.77489C12.6754 8.43739 12.9004 7.91239 12.7879 7.42489C12.6754 6.86239 12.1504 6.44989 11.5504 6.44989H10.6129C10.2004 6.44989 9.93788 6.41239 9.75038 6.37489C9.86288 6.11239 10.1629 5.69989 10.6129 5.24989C10.9879 4.87489 11.1004 4.34989 10.9129 3.89989C10.7254 3.4124 10.2379 3.0749 9.71288 3.0749H9.63788C8.40038 3.1874 7.27538 3.7499 6.48788 4.68739C6.11288 4.68739 5.73788 4.68739 5.32538 4.68739L5.28788 4.64989C5.06288 4.27489 4.91288 3.82489 4.83788 3.3749C4.80038 2.6999 4.23788 2.1749 3.56287 2.1749C3.18787 2.1749 2.85037 2.3249 2.62537 2.5874C1.57537 3.7124 1.20037 5.28739 1.65037 6.74989C0.412872 9.26239 0.187874 12.1124 1.01287 14.7749C1.91287 17.6249 3.90038 19.9874 6.60038 21.3749C8.21288 22.1999 10.0504 22.6499 11.8504 22.6499C18.2254 22.6499 23.2129 17.9624 23.2129 11.9999V11.1374C23.3629 5.47489 19.7254 2.3999 16.3129 1.3874ZM21.6754 12.0374C21.6754 17.0624 17.4379 20.9999 12.0004 20.9999C10.4629 20.9999 8.88788 20.6249 7.50038 19.9124C5.21288 18.7499 3.52537 16.7624 2.73787 14.3249C1.98787 11.9624 2.25037 9.44989 3.41287 7.23739L3.60037 6.86239L3.45037 6.48739C3.15037 5.81239 3.18787 5.09989 3.45037 4.46239C3.56287 4.79989 3.71287 5.13739 3.86288 5.43739C4.01288 5.73739 4.20038 5.96239 4.31288 6.14989L4.61288 6.48739L5.06288 6.44989C5.73788 6.37489 6.33788 6.37489 6.86288 6.41239L7.35038 6.44989L7.65038 6.03739C7.87538 5.69989 8.21288 5.39989 8.55038 5.17489C8.13788 5.77489 7.87538 6.52489 8.13788 7.16239C8.40038 7.76239 9.07538 8.09989 10.2004 8.13739L9.78788 8.39989C9.30038 8.73739 8.92538 9.26239 8.73788 9.82489C8.36288 9.82489 8.02538 9.93739 7.76288 10.0874C7.68788 10.1249 7.61288 10.1624 7.53788 10.2374C7.16288 10.5374 6.90038 10.9874 6.86288 11.4374C6.82538 11.7749 6.93788 12.1499 7.16288 12.3749C7.57538 12.8249 8.21288 12.9374 8.73788 12.9749C9.22538 13.0124 9.67538 13.0124 10.1629 13.0124H10.2754C10.8004 13.0124 11.4004 13.0124 12.0379 12.6374C12.1129 12.5624 12.2254 12.5249 12.3004 12.4499C12.4504 12.3374 12.5629 12.2624 12.7129 12.2249L12.7504 12.1874C12.8254 12.1499 12.9754 12.1124 13.2379 12.1124C13.1629 12.1874 13.0879 12.2249 13.0129 12.2999C12.9379 12.3749 12.8629 12.4124 12.7504 12.4874C12.6379 12.5624 12.5254 12.6374 12.3754 12.7124C12.1129 12.8624 11.7379 13.0499 11.4754 13.3499C11.2129 13.6499 11.0254 14.0249 10.8754 14.3249C10.8004 14.4749 10.7254 14.6249 10.6504 14.7374C10.4629 15.0374 10.4254 15.4499 10.5754 15.7874C10.7254 16.1249 11.0254 16.3874 11.4004 16.4624H11.4379C11.7754 16.4999 12.1504 16.5749 12.5254 16.5374C13.7254 16.5374 14.8504 16.1624 15.8629 15.4874C17.0629 14.6249 17.8879 13.3124 18.0754 11.8499C18.1879 11.1749 18.1504 10.5374 18.0004 9.89989C18.2254 10.0124 18.4504 10.0124 18.6754 9.97489C19.0879 9.86239 19.3879 9.48739 19.3879 9.03739V8.96239C19.2379 7.23739 18.6754 5.21239 17.6629 3.7124C19.8004 4.94989 21.6379 7.34989 21.6379 11.0624V12.0374H21.6754Z" fill="#15171A"/>
</svg>
