<svg width="24" height="24" viewBox="0 0 24 24" fill="none" xmlns="http://www.w3.org/2000/svg">
<g clip-path="url(#clip0_501_47630)">
<path d="M22.575 1.38745C22.35 1.23745 22.05 1.19995 21.7875 1.27495L15.4875 3.52495H10.3875V1.49995C10.3875 1.04995 10.0125 0.637451 9.52497 0.637451C9.03748 0.637451 8.66248 1.01245 8.66248 1.49995V3.56245H5.24998C2.88748 3.56245 0.974976 5.47495 0.974976 7.83745C0.974976 8.28745 1.34998 8.69995 1.83748 8.69995C2.32498 8.69995 2.69998 8.32495 2.69998 7.83745C2.69998 6.41245 3.86248 5.24995 5.28748 5.24995H8.69998V6.44995C6.41248 6.48745 4.53748 8.36245 4.53748 10.6875V20.9999C4.53748 22.275 5.58748 23.3624 6.89998 23.3624H12.225C13.5 23.3624 14.5875 22.3124 14.5875 20.9999V10.6875C14.5875 8.36245 12.7125 6.48745 10.425 6.44995V5.24995H15.5625L21.8625 7.49995C21.9375 7.53745 22.05 7.53745 22.1625 7.53745C22.35 7.53745 22.5 7.49995 22.65 7.38745C22.875 7.23745 23.025 6.97495 23.025 6.71245V2.09995C22.95 1.79995 22.8 1.53745 22.575 1.38745ZM12.8625 17.4749H6.26248V14.8124H12.9V17.4749H12.8625ZM12.225 21.6749H6.89998C6.52498 21.6749 6.22498 21.3749 6.22498 20.9999V19.1624H12.8625V20.9999C12.8625 21.3749 12.6 21.6749 12.225 21.6749ZM12.8625 10.6875V13.1249H6.26248V10.6875C6.26248 9.26245 7.42498 8.13745 8.81248 8.13745H10.35C11.7375 8.13745 12.8625 9.29995 12.8625 10.6875ZM21.2625 5.51245L18.1875 4.38745L21.2625 3.26245V5.51245Z" fill="#161A23"/>
</g>
<defs>
<clipPath id="clip0_501_47630">
<rect width="24" height="24" fill="white"/>
</clipPath>
</defs>
</svg>
