<svg width="24" height="24" viewBox="0 0 24 24" fill="none" xmlns="http://www.w3.org/2000/svg">
<g clip-path="url(#clip0_914_45047)">
<mask id="mask0_914_45047" style="mask-type:luminance" maskUnits="userSpaceOnUse" x="0" y="0" width="24" height="24">
<path d="M24 0H0V24H24V0Z" fill="white"/>
</mask>
<g mask="url(#mask0_914_45047)">
<path d="M13.2065 1.82418C13.2065 2.80143 12.4096 3.60918 11.4489 3.60918C10.4911 3.60918 9.69139 2.80143 9.69139 1.82418C9.69139 0.852184 10.4911 0.0391846 11.4489 0.0391846C12.4096 0.0391846 13.2065 0.852184 13.2065 1.82418ZM11.4489 5.06644C10.4144 5.06644 9.61384 5.87944 9.61384 6.93469C9.61384 7.98844 10.4143 8.80144 11.4534 8.80144C12.4872 8.80144 13.2877 7.98844 13.2877 6.93469C13.2877 5.87944 12.4761 5.06644 11.4415 5.06644H11.4489ZM11.4489 10.0982C10.4144 10.0982 9.53261 10.9884 9.53261 12.0429C9.53261 13.0974 10.4136 13.9877 11.4526 13.9877C12.4865 13.9877 13.3674 13.0974 13.3674 12.0429C13.3674 10.9884 12.4865 10.0982 11.4526 10.0982H11.4489ZM11.4489 15.2034C10.4144 15.2034 9.61384 16.0164 9.61384 17.0664C9.61384 18.1217 10.4143 18.9347 11.4534 18.9347C12.4872 18.9347 13.2877 18.1217 13.2877 17.0664C13.2877 16.0982 12.4761 15.2034 11.4415 15.2034H11.4489ZM11.4489 20.3949C10.4911 20.3949 9.69139 21.2027 9.69139 22.1799C9.69139 23.1482 10.4911 23.9612 11.4489 23.9612C12.4096 23.9612 13.2065 23.1519 13.2065 22.1762C13.2065 21.2034 12.4096 20.3949 11.4489 20.3949ZM16.322 4.82419C15.2025 4.82419 14.2455 5.80144 14.2455 6.93394C14.2455 8.06569 15.2025 9.03919 16.322 9.03919C17.4378 9.03919 18.3949 8.06644 18.3949 6.93394C18.3949 5.80069 17.4378 4.82419 16.322 4.82419ZM16.322 9.85219C15.122 9.85219 14.165 10.8242 14.165 12.0429C14.165 13.2579 15.1257 14.2299 16.322 14.2299C17.5183 14.2299 18.4754 13.2579 18.4754 12.0392C18.4754 10.8242 17.5183 9.85219 16.322 9.85219ZM16.322 14.9612C15.2025 14.9612 14.2455 15.9384 14.2455 17.0664C14.2455 18.2034 15.2025 19.1762 16.322 19.1762C17.4378 19.1762 18.3949 18.1989 18.3949 17.0664C18.3949 15.9347 17.4378 14.9612 16.322 14.9612ZM21.3488 9.60919C20.0727 9.60919 18.9569 10.6644 18.9569 12.0429C18.9569 13.3397 19.9914 14.4767 21.3488 14.4767C22.7068 14.4767 23.745 13.4094 23.745 12.0309C23.6646 10.6479 22.6255 9.60169 21.3488 9.60169V9.60919ZM6.49826 5.31244C5.62174 5.31244 4.90616 6.04369 4.90616 6.93469C4.90616 7.82494 5.62174 8.55544 6.49826 8.55544C7.37925 8.55544 8.09408 7.82419 8.09408 6.93469C8.09408 6.04369 7.37925 5.31694 6.49826 5.31694V5.31244ZM6.49826 10.3404C5.54122 10.3404 4.82122 11.0664 4.82122 12.0437C4.82122 13.0164 5.53309 13.7469 6.49088 13.7469C7.45162 13.7469 8.15981 13.0172 8.15981 12.0437C8.15981 11.0664 7.43685 10.3404 6.47906 10.3404H6.49826ZM6.49826 15.4449C5.62174 15.4449 4.90616 16.1762 4.90616 17.0657C4.90616 17.9604 5.62174 18.6879 6.49826 18.6879C7.37925 18.6879 8.09408 17.9529 8.09408 17.0552C8.09408 16.1522 7.37925 15.4344 6.49826 15.4344V15.4449ZM1.55278 10.5819C0.752287 10.5819 0.114258 11.2299 0.114258 12.0429C0.114258 12.8522 0.752287 13.5002 1.55278 13.5002C2.34958 13.5002 2.98761 12.8522 2.98761 12.0429C2.98761 11.2299 2.34958 10.5819 1.55278 10.5819Z" fill="#15171A"/>
</g>
</g>
<defs>
<clipPath id="clip0_914_45047">
<rect width="24" height="24" fill="white"/>
</clipPath>
</defs>
</svg>
