<svg width="24" height="24" viewBox="0 0 24 24" fill="none" xmlns="http://www.w3.org/2000/svg">
<path d="M19.0125 4.31251C18.5625 3.82501 17.9625 3.52501 17.2875 3.52501H6.1125V1.50001C6.1125 1.05001 5.7375 0.637512 5.25 0.637512C4.7625 0.637512 4.3875 1.01251 4.3875 1.50001V22.5C4.3875 22.95 4.7625 23.3625 5.25 23.3625C5.7375 23.3625 6.1125 22.9875 6.1125 22.5V13.8H16.5C17.6625 13.8 18.6375 12.9375 18.7875 11.8125L19.5375 6.11251C19.6125 5.43751 19.425 4.80001 19.0125 4.31251ZM17.1375 11.5875C17.1 11.8875 16.8375 12.1125 16.5375 12.1125H6.1125V5.21251H17.25C17.475 5.21251 17.625 5.32501 17.7 5.40001C17.775 5.47501 17.8875 5.62501 17.85 5.88751L17.1375 11.5875Z" fill="#161A23"/>
</svg>
