<svg width="24" height="24" viewBox="0 0 24 24" fill="none" xmlns="http://www.w3.org/2000/svg">
<path d="M19.5375 12.0375L20.7 9.75005C21.075 9.00005 21.0375 8.10005 20.5875 7.38755C20.1375 6.67505 19.3875 6.22505 18.525 6.22505H15V4.72505C15 3.63755 14.1 2.77505 13.05 2.77505H4.72498V1.50005C4.72498 1.05005 4.34998 0.675049 3.89998 0.675049C3.44998 0.675049 3.03748 1.05005 3.03748 1.50005V22.5001C3.03748 22.9501 3.41248 23.3251 3.86248 23.3251C4.31248 23.3251 4.68748 22.9501 4.68748 22.5001V14.7375H10.95V15.4125C10.95 16.7626 12.0375 17.85 13.3875 17.85H18.4875C19.35 17.85 20.1 17.4001 20.55 16.6875C21 15.975 21.0375 15.0751 20.6625 14.3251L19.5375 12.0375ZM4.72498 4.50005H13.0125C13.1625 4.50005 13.3125 4.61255 13.3125 4.80005V12.8251C13.3125 12.975 13.2 13.1251 13.0125 13.1251H11.8125H4.72498V4.50005ZM17.8125 12.4125L19.1625 15.0751C19.3125 15.4126 19.2 15.675 19.125 15.7875C19.05 15.9001 18.8625 16.1251 18.4875 16.1251H13.425C13.0125 16.1251 12.675 15.7875 12.675 15.3751V14.7001H13.05C14.1375 14.7001 15 13.8 15 12.7501V7.95005H18.525C18.9 7.95005 19.0875 8.21255 19.1625 8.28755C19.2375 8.40005 19.35 8.66255 19.2 9.00005L17.85 11.6625C17.7 11.8876 17.7 12.1875 17.8125 12.4125Z" fill="#161A23"/>
</svg>
