<svg width="24" height="24" viewBox="0 0 24 24" fill="none" xmlns="http://www.w3.org/2000/svg">
<path d="M19.4625 12.6375L18.1875 9.63751L19.4625 6.63751C19.5 6.60001 19.5 6.52501 19.5 6.48751C19.5 6.45001 19.5 6.37501 19.5 6.30001C19.5 5.85001 19.125 5.43751 18.6375 5.43751H12.8625V4.38751C12.8625 3.93751 12.4875 3.52501 12 3.52501H6.14999V1.50001C6.14999 1.05001 5.77499 0.637512 5.28749 0.637512C4.79999 0.637512 4.42499 1.01251 4.42499 1.50001V22.5C4.42499 22.95 4.79999 23.3625 5.28749 23.3625C5.77499 23.3625 6.14999 22.9875 6.14999 22.5V11.8875H11.1375V12.5625C11.1375 13.2375 11.7 13.8 12.375 13.8H18.6375C19.0875 13.8 19.5 13.425 19.5 12.9375C19.5375 12.825 19.5 12.7125 19.4625 12.6375ZM6.14999 10.2V5.21251H11.1375V10.2H6.14999ZM12.8625 7.12501H17.4375L16.3875 9.63751L17.4375 12.15H12.8625V7.12501Z" fill="#161A23"/>
</svg>
