<svg width="24" height="24" viewBox="0 0 24 24" fill="none" xmlns="http://www.w3.org/2000/svg">
<path d="M20.55 18.8624L15.525 10.5V2.36245H16.65C17.1 2.36245 17.5125 1.98745 17.5125 1.49995C17.5125 1.01245 17.1375 0.637451 16.65 0.637451H7.725C7.275 0.637451 6.8625 1.01245 6.8625 1.49995C6.8625 1.98745 7.2375 2.36245 7.725 2.36245H8.475V10.5L3.45 18.8624C2.8875 19.7999 2.8875 20.8874 3.4125 21.8624C3.9375 22.8374 4.9125 23.3624 6 23.3624H18.075C19.1625 23.3624 20.1375 22.7999 20.6625 21.8624C21.15 20.8874 21.1125 19.7624 20.55 18.8624ZM19.125 20.9999C18.9 21.4124 18.4875 21.6374 18 21.6374H5.9625C5.5125 21.6374 5.1 21.4124 4.8375 20.9999C4.6125 20.5875 4.6125 20.0999 4.875 19.7249L10.05 11.1749C10.125 11.025 10.1625 10.875 10.1625 10.7249V2.36245H13.8V10.7625C13.8 10.9125 13.8375 11.0624 13.9125 11.2125L19.125 19.7249C19.35 20.1374 19.35 20.5875 19.125 20.9999Z" fill="#161A23"/>
</svg>
