<svg width="24" height="24" viewBox="0 0 24 24" fill="none" xmlns="http://www.w3.org/2000/svg">
<g clip-path="url(#clip0_501_47793)">
<path d="M22.425 14.025L12.6 4.20001C12.225 3.82501 11.7375 3.63751 11.2125 3.63751C10.7625 3.63751 10.3875 3.78751 10.05 4.05001L7.38751 1.38751C6.45001 0.450012 4.95001 0.450012 4.01251 1.38751L1.38751 4.01251C0.450012 4.95001 0.450012 6.45001 1.38751 7.38751L4.05001 10.05C3.78751 10.3875 3.63751 10.8 3.63751 11.2125C3.63751 11.7375 3.82501 12.225 4.20001 12.6L14.025 22.425C14.625 23.025 15.375 23.325 16.2 23.325C17.025 23.325 17.8125 22.9875 18.375 22.425L22.3875 18.4125C22.9875 17.8125 23.2875 17.0625 23.2875 16.2375C23.325 15.375 23.025 14.625 22.425 14.025ZM2.55001 5.17501L5.17501 2.55001C5.43751 2.28751 5.88751 2.28751 6.18751 2.55001L8.81251 5.17501L5.17501 8.81251L2.55001 6.18751C2.28751 5.88751 2.28751 5.43751 2.55001 5.17501ZM21.225 17.2125L17.2125 21.225C16.65 21.7875 15.7875 21.7875 15.225 21.225L5.40001 11.4C5.32501 11.325 5.32501 11.25 5.32501 11.2125C5.32501 11.175 5.32501 11.1 5.40001 11.025L11.025 5.40001C11.1 5.32501 11.175 5.32501 11.2125 5.32501C11.25 5.32501 11.325 5.32501 11.4 5.40001L21.225 15.225C21.7875 15.7875 21.7875 16.65 21.225 17.2125Z" fill="#161A23"/>
<path d="M5.21254 7.46249C5.43754 7.46249 5.66254 7.38749 5.81254 7.19999C6.15004 6.86249 6.15004 6.33749 5.81254 5.99999L5.10004 5.28749C4.76254 4.94999 4.23754 4.94999 3.90004 5.28749C3.56254 5.62499 3.56254 6.14999 3.90004 6.48749L4.61254 7.19999C4.76254 7.34999 4.98754 7.46249 5.21254 7.46249Z" fill="#161A23"/>
<path d="M6.075 5.73752C6.225 5.88752 6.45 6.00002 6.675 6.00002C6.9 6.00002 7.125 5.92502 7.275 5.73752C7.6125 5.40002 7.6125 4.87502 7.275 4.53752L6.5625 3.82502C6.225 3.48752 5.7 3.48752 5.3625 3.82502C5.025 4.16252 5.025 4.68752 5.3625 5.02502L6.075 5.73752Z" fill="#161A23"/>
</g>
<defs>
<clipPath id="clip0_501_47793">
<rect width="24" height="24" fill="white"/>
</clipPath>
</defs>
</svg>
