<svg width="24" height="24" viewBox="0 0 24 24" fill="none" xmlns="http://www.w3.org/2000/svg">
<path d="M15.9375 10.2V2.32498H16.2C16.65 2.32498 17.0625 1.94998 17.0625 1.46248C17.0625 0.974976 16.6875 0.599976 16.2 0.599976H7.80001C7.35001 0.599976 6.93751 0.974976 6.93751 1.46248C6.93751 1.94998 7.31251 2.32498 7.80001 2.32498H8.06251V10.2C5.73751 11.7 4.50001 14.3625 4.83751 17.1375C5.25001 20.3625 7.91251 22.95 11.1375 23.2875C11.4 23.325 11.7 23.325 11.9625 23.325C13.7625 23.325 15.4875 22.6875 16.8 21.4875C18.3 20.1375 19.2 18.1875 19.2 16.2C19.2 13.7625 18 11.55 15.9375 10.2ZM15.7125 20.25C14.5125 21.3 12.975 21.7875 11.3625 21.6375C8.88751 21.375 6.86251 19.3875 6.52501 16.95C6.26251 14.8125 7.20001 12.7875 9.03751 11.625C9.48751 11.325 9.75001 10.8375 9.75001 10.275V2.36248H14.25V3.37498H13.35C12.9 3.37498 12.4875 3.74998 12.4875 4.23748C12.4875 4.72498 12.8625 5.09998 13.35 5.09998H14.25V6.14998H13.9875C13.5375 6.14998 13.125 6.52498 13.125 7.01248C13.125 7.49998 13.5 7.87498 13.9875 7.87498H14.25V8.92498H13.35C12.9 8.92498 12.4875 9.29998 12.4875 9.78748C12.4875 10.275 12.8625 10.65 13.35 10.65H14.25C14.325 11.1 14.5875 11.5125 14.9625 11.775C16.575 12.7875 17.5125 14.5125 17.5125 16.3875C17.5125 17.7375 16.875 19.2 15.7125 20.25Z" fill="#161A23"/>
</svg>
