<svg width="24" height="24" viewBox="0 0 24 24" fill="none" xmlns="http://www.w3.org/2000/svg">
<path d="M15.9375 10.2V2.32498H16.575C17.025 2.32498 17.4375 1.94998 17.4375 1.46248C17.4375 0.974976 17.0625 0.599976 16.575 0.599976H7.42499C6.97499 0.599976 6.56249 0.974976 6.56249 1.46248C6.56249 1.94998 6.93749 2.32498 7.42499 2.32498H8.06249V10.2C5.73749 11.7 4.49999 14.3625 4.83749 17.1375C5.24999 20.3625 7.91249 22.95 11.1375 23.2875C11.4 23.325 11.7 23.325 11.9625 23.325C13.7625 23.325 15.4875 22.6875 16.8 21.4875C18.3 20.1375 19.2 18.1875 19.2 16.2C19.2 13.7625 18 11.55 15.9375 10.2ZM15.7125 20.25C14.5125 21.3 12.975 21.7875 11.3625 21.6375C8.88749 21.375 6.86249 19.3875 6.52499 16.95C6.26249 14.8125 7.2 12.7875 9.0375 11.625C9.48749 11.325 9.74999 10.8375 9.74999 10.275V2.36248H14.25V10.275C14.25 10.8375 14.5125 11.325 15 11.625C16.6125 12.6375 17.55 14.3625 17.55 16.2375C17.5125 17.7375 16.875 19.2 15.7125 20.25Z" fill="#161A23"/>
</svg>
