<svg width="24" height="24" viewBox="0 0 24 24" fill="none" xmlns="http://www.w3.org/2000/svg">
<path d="M10.7624 18.6C10.6874 18.6 10.5749 18.6 10.4999 18.5625C10.1624 18.45 9.89993 18.1125 9.93743 17.7375L10.0874 14.2875L8.39993 14.4375C8.06243 14.475 7.76243 14.2875 7.57493 14.025C7.38743 13.7625 7.42493 13.3875 7.61243 13.125L12.5999 6.3375C12.8249 6.0375 13.1999 5.925 13.5749 6.0375C13.9124 6.15 14.1374 6.4875 14.1374 6.8625L13.9874 10.0875L15.6374 10.2C15.9374 10.2375 16.1999 10.3875 16.3499 10.6875C16.4999 10.9875 16.4624 11.2875 16.2749 11.55L11.4374 18.225C11.2874 18.45 11.0249 18.6 10.7624 18.6ZM10.9499 12.4875C11.1749 12.4875 11.3624 12.5625 11.5499 12.7125C11.7374 12.8625 11.8124 13.125 11.8124 13.35L11.7374 14.925L14.0249 11.7375L13.0499 11.6625C12.5999 11.625 12.2249 11.25 12.2624 10.7625L12.3374 9.4875L10.1249 12.4875L10.9124 12.4125C10.8749 12.4875 10.9124 12.4875 10.9499 12.4875Z" fill="#161A23"/>
<path d="M14.55 22.6875C13.6125 22.6875 12.7125 22.35 12 21.7125C11.0625 22.5375 9.82505 22.8375 8.55005 22.575C7.08755 22.2375 5.96255 21.15 5.55005 19.65C4.72505 19.35 4.01255 18.7875 3.48755 18C2.96255 17.2125 2.73755 16.2375 2.81255 15.2625C1.50005 14.55 0.675049 13.125 0.675049 11.5125C0.675049 10.125 1.27505 8.8875 2.32505 8.0625C2.28755 6.9375 2.62505 5.8875 3.33755 5.025C3.97505 4.275 4.87505 3.75 5.81255 3.6375C6.41255 2.4 7.53755 1.5375 8.85005 1.35C10.0125 1.1625 11.1375 1.5 12 2.2875C12.8625 1.5375 13.9875 1.2 15.15 1.35C16.4625 1.5375 17.5875 2.4 18.1875 3.6375C19.125 3.7875 20.025 4.275 20.6625 5.025C21.375 5.8875 21.75 6.9375 21.675 8.0625C22.65 8.8125 23.25 10.0125 23.3251 11.325C23.4 12.975 22.5375 14.5125 21.1875 15.2625C21.2625 16.2 21.0375 17.175 20.5126 18C20.025 18.7875 19.3125 19.35 18.4501 19.65C18.0375 21.1125 16.9125 22.2375 15.45 22.575C15.15 22.65 14.85 22.6875 14.55 22.6875ZM12 19.6125C12.2625 19.6125 12.525 19.7625 12.675 19.9875C13.2375 20.8125 14.1375 21.15 15.0375 20.925C15.7875 20.7375 16.6875 20.1 16.875 18.8625C16.9125 18.525 17.2125 18.225 17.55 18.15C18.15 18.0375 18.7125 17.6625 19.05 17.1C19.4625 16.4625 19.5751 15.7125 19.3876 14.9625C19.275 14.55 19.5375 14.1 19.9501 13.9875C20.9625 13.65 21.675 12.6 21.6 11.4C21.5625 10.4625 21.0751 9.6375 20.3251 9.225C20.025 9.0375 19.8375 8.7 19.9125 8.3625C20.0625 7.575 19.8375 6.75 19.3125 6.15C18.8625 5.625 18.225 5.325 17.5875 5.325C17.2125 5.325 16.8375 5.1 16.725 4.7625C16.425 3.825 15.7125 3.225 14.8125 3.075C13.95 2.9625 13.125 3.3375 12.6 4.05C12.45 4.275 12.1875 4.425 11.925 4.425C11.6625 4.425 11.4 4.275 11.25 4.05C10.725 3.3 9.90005 2.925 9.03755 3.075C8.13755 3.225 7.42505 3.825 7.12505 4.7625C7.01255 5.1 6.67505 5.325 6.33755 5.325H6.30005C5.62505 5.325 5.02505 5.625 4.57505 6.15C4.05005 6.75 3.86255 7.575 3.97505 8.3625C4.05005 8.7 3.86255 9.075 3.56255 9.225C2.81255 9.675 2.28755 10.575 2.28755 11.5125C2.28755 12.6375 2.96255 13.65 3.93755 13.9875C4.35005 14.1375 4.57505 14.55 4.50005 14.9625C4.31255 15.675 4.46255 16.4625 4.83755 17.1C5.21255 17.6625 5.73755 18.0375 6.33755 18.15C6.67505 18.225 6.93755 18.4875 7.01255 18.8625C7.20005 20.1375 8.10005 20.775 8.85005 20.925C9.75005 21.15 10.65 20.775 11.2125 19.9875C11.475 19.7625 11.7375 19.6125 12 19.6125Z" fill="#161A23"/>
</svg>
