<svg width="24" height="24" viewBox="0 0 24 24" fill="none" xmlns="http://www.w3.org/2000/svg">
<g clip-path="url(#clip0_501_45129)">
<path d="M23.3625 11.6625C23.3625 10.2001 22.35 8.96255 21.0375 8.58755V4.65005C21.0375 3.41255 20.025 2.40005 18.7875 2.40005H16.7625C16.725 1.35005 15.8625 0.487549 14.8125 0.487549H9.1875C8.1 0.487549 7.2 1.38755 7.2 2.47505V4.05005C7.2 5.13755 8.1 6.03755 9.1875 6.03755H11.175V8.43755C10.9875 8.55005 10.8 8.66255 10.6125 8.81255L9.1125 10.3125C8.7375 10.6875 8.55 11.1751 8.55 11.7001C8.55 12.225 8.7375 12.7126 9.1125 13.0876L10.6125 14.5876C10.7625 14.7376 10.95 14.8876 11.175 14.9626V18H9.1875C8.1375 18 7.275 18.8626 7.2375 19.9125H5.3625C5.025 19.9125 4.8 19.65 4.8 19.35V14.7375C6.15 14.3625 7.125 13.1251 7.125 11.6625C7.125 9.90005 5.7 8.47505 3.9375 8.47505C2.175 8.47505 0.75 9.90005 0.75 11.6625C0.75 13.1251 1.725 14.3625 3.075 14.7375V19.35C3.075 20.5875 4.0875 21.6 5.325 21.6H7.2C7.2375 22.6501 8.1 23.5126 9.15 23.5126H14.775C15.825 23.5126 16.6875 22.6501 16.725 21.6H18.75C19.9875 21.6 21 20.5875 21 19.35V14.7375C22.35 14.3625 23.3625 13.1251 23.3625 11.6625ZM2.3625 11.6625C2.3625 10.8376 3.0375 10.1625 3.8625 10.1625C4.6875 10.1625 5.3625 10.8376 5.3625 11.6625C5.3625 12.4875 4.6875 13.1625 3.8625 13.1625C3.0375 13.1625 2.3625 12.4875 2.3625 11.6625ZM8.8125 4.01255V2.43755C8.8125 2.28755 8.925 2.13755 9.1125 2.13755H14.7375C14.8875 2.13755 15.0375 2.25005 15.0375 2.43755V4.01255C15.0375 4.16255 14.925 4.31255 14.7375 4.31255H9.1125C8.9625 4.31255 8.8125 4.16255 8.8125 4.01255ZM10.2 11.85C10.125 11.7751 10.125 11.7001 10.125 11.6625C10.125 11.6251 10.125 11.55 10.2 11.475L11.7 9.97505C11.775 9.90005 11.85 9.90005 11.8875 9.90005C11.925 9.90005 12 9.90005 12.075 9.97505L13.575 11.475C13.65 11.55 13.65 11.6251 13.65 11.6625C13.65 11.7001 13.65 11.7751 13.575 11.85L12.075 13.35C11.9625 13.4625 11.775 13.4625 11.6625 13.35L10.2 11.85ZM15.0375 21.5626C15.0375 21.7126 14.925 21.8626 14.7375 21.8626H9.1125C8.9625 21.8626 8.8125 21.7501 8.8125 21.5626V19.9876C8.8125 19.8376 8.925 19.6876 9.1125 19.6876H14.7375C14.8875 19.6876 15.0375 19.8001 15.0375 19.9876V21.5626ZM18.75 19.9125H16.725C16.6875 18.8626 15.825 18 14.775 18H12.75V14.925C12.9375 14.8125 13.125 14.7001 13.3125 14.55L14.8125 13.05C15.1875 12.675 15.375 12.1876 15.375 11.6625C15.375 11.1376 15.1875 10.6501 14.8125 10.2751L13.3125 8.77505C13.1625 8.62505 12.975 8.47505 12.75 8.40005V6.00005H14.7375C15.7875 6.00005 16.65 5.13755 16.6875 4.08755H18.75C19.0875 4.08755 19.3125 4.35005 19.3125 4.65005V8.58755C17.9625 8.96255 16.9875 10.2001 16.9875 11.6625C16.9875 13.1251 17.9625 14.3625 19.3125 14.7375V19.35C19.3125 19.65 19.05 19.9125 18.75 19.9125ZM20.175 13.1625C19.35 13.1625 18.675 12.4875 18.675 11.6625C18.675 10.8376 19.35 10.1625 20.175 10.1625C21 10.1625 21.675 10.8376 21.675 11.6625C21.675 12.4875 21 13.1625 20.175 13.1625Z" fill="#161A23"/>
</g>
<defs>
<clipPath id="clip0_501_45129">
<rect width="24" height="24" fill="white"/>
</clipPath>
</defs>
</svg>
