<svg width="24" height="24" viewBox="0 0 24 24" fill="none" xmlns="http://www.w3.org/2000/svg">
<g clip-path="url(#clip0_501_42828)">
<path d="M3.86251 23.325C3.03751 23.325 2.21251 23.025 1.61251 22.3875C0.375012 21.15 0.375012 19.125 1.61251 17.85L17.8875 1.61245C19.125 0.374951 21.15 0.374951 22.425 1.61245C23.6625 2.84995 23.6625 4.87495 22.425 6.14995L6.11251 22.4249C5.51251 23.025 4.68751 23.325 3.86251 23.325ZM20.1375 2.36245C19.7625 2.36245 19.35 2.51245 19.05 2.81245L2.77501 19.0875C2.17501 19.6875 2.17501 20.625 2.77501 21.225C3.37501 21.825 4.31251 21.825 4.91251 21.225L21.1875 4.94995C21.7875 4.34995 21.7875 3.41245 21.1875 2.81245C20.925 2.47495 20.5125 2.36245 20.1375 2.36245ZM4.87501 19.95C4.65001 19.95 4.42501 19.875 4.27501 19.6875C3.93751 19.35 3.93751 18.825 4.27501 18.4874L5.28751 17.475C5.62501 17.1375 6.15001 17.1375 6.48751 17.475C6.82501 17.8125 6.82501 18.3375 6.48751 18.6749L5.47501 19.6875C5.32501 19.875 5.10001 19.95 4.87501 19.95ZM12.075 12.7875C11.85 12.7875 11.625 12.7125 11.475 12.525C11.1375 12.1875 11.1375 11.6625 11.475 11.325L11.8125 10.9875C12.15 10.65 12.675 10.65 13.0125 10.9875C13.35 11.325 13.35 11.85 13.0125 12.1875L12.675 12.525C12.4875 12.7125 12.2625 12.7875 12.075 12.7875ZM14.1 10.725C13.875 10.725 13.65 10.65 13.5 10.4625C13.1625 10.125 13.1625 9.59995 13.5 9.26245L13.8375 8.92495C14.175 8.58745 14.7 8.58745 15.0375 8.92495C15.375 9.26245 15.375 9.78745 15.0375 10.125L14.7 10.5C14.55 10.65 14.325 10.725 14.1 10.725ZM16.1625 8.69995C15.9375 8.69995 15.7125 8.62495 15.5625 8.43745C15.225 8.09995 15.225 7.57495 15.5625 7.23745L15.9 6.89995C16.2375 6.56245 16.7625 6.56245 17.1 6.89995C17.4375 7.23745 17.4375 7.76245 17.1 8.09995L16.7625 8.43745C16.575 8.62495 16.35 8.69995 16.1625 8.69995ZM18.1875 6.67495C17.9625 6.67495 17.7375 6.59995 17.5875 6.41245C17.25 6.07495 17.25 5.54995 17.5875 5.21245L17.925 4.87495C18.2625 4.53745 18.7875 4.53745 19.125 4.87495C19.4625 5.21245 19.4625 5.73745 19.125 6.07495L18.7875 6.41245C18.6 6.56245 18.4125 6.67495 18.1875 6.67495Z" fill="#161A23"/>
</g>
<defs>
<clipPath id="clip0_501_42828">
<rect width="24" height="24" fill="white"/>
</clipPath>
</defs>
</svg>
