<svg width="24" height="24" viewBox="0 0 24 24" fill="none" xmlns="http://www.w3.org/2000/svg">
<path d="M19.7625 3.71248V1.98748C19.7625 1.53748 19.3875 1.12498 18.9 1.12498H11.5875C11.4375 0.824976 11.1375 0.599976 10.8375 0.599976H5.21251C4.16251 0.599976 3.26251 1.46248 3.26251 2.54998V15.0375C3.26251 16.0875 4.12501 16.9875 5.21251 16.9875H11.2125V18.225C10.4625 18.4875 9.82501 19.0875 9.60001 19.875H5.10001C4.65001 19.875 4.23751 20.25 4.23751 20.7375C4.23751 21.225 4.61251 21.6 5.10001 21.6H9.52501C9.86251 22.6125 10.8375 23.3625 12 23.3625C13.1625 23.3625 14.1375 22.6125 14.475 21.6H18.9C19.35 21.6 19.7625 21.225 19.7625 20.7375C19.7625 20.25 19.3875 19.875 18.9 19.875H14.475C14.2125 19.125 13.6125 18.4875 12.8625 18.225V16.9875H18.8625C19.9125 16.9875 20.8125 16.125 20.8125 15.0375V5.39998C20.775 4.64998 20.3625 4.04998 19.7625 3.71248ZM12 21.675C11.475 21.675 11.0625 21.2625 11.0625 20.775C11.0625 20.2875 11.475 19.875 12 19.875C12.525 19.875 12.9375 20.2875 12.9375 20.775C12.9 21.2625 12.525 21.675 12 21.675ZM18.075 3.44998H12.4875L12.2625 2.84998H18.075V3.44998ZM19.0875 15.1125C19.0875 15.2625 18.975 15.375 18.825 15.375H5.17501C5.02501 15.375 4.91251 15.2625 4.91251 15.1125V2.58748C4.91251 2.43748 5.02501 2.32498 5.17501 2.32498H10.2375L11.1375 4.57498C11.25 4.91248 11.5875 5.09998 11.925 5.09998H18.8625C19.0125 5.09998 19.125 5.21248 19.125 5.36248V15.1125H19.0875Z" fill="#161A23"/>
</svg>
