<svg width="24" height="24" viewBox="0 0 24 24" fill="none" xmlns="http://www.w3.org/2000/svg">
<path d="M23.175 9.075C23.025 8.85 22.7625 8.7375 22.5 8.7375H21.0375V7.3875C21.0375 6.525 20.325 5.85 19.5 5.85H11.325L10.05 3.4875C9.78749 2.9625 9.26249 2.625 8.69999 2.625H2.92499C1.68749 2.625 0.674988 3.6375 0.674988 4.875V19.125C0.674988 20.3625 1.68749 21.375 2.92499 21.375H18.3C18.975 21.375 19.5375 20.9625 19.7625 20.325L23.325 9.8625C23.4 9.6 23.3625 9.3 23.175 9.075ZM2.36249 4.875C2.36249 4.575 2.62499 4.3125 2.92499 4.3125H8.62499L10.0875 7.05C10.2375 7.3125 10.5375 7.5 10.8375 7.5H19.35V8.7H7.46249C7.12499 8.7 6.82499 8.925 6.67499 9.225L2.54999 19.5C2.43749 19.3875 2.36249 19.2375 2.36249 19.0875V4.875ZM18.1875 19.6875H5.36249H4.27499L7.98749 10.425H21.3L18.1875 19.6875Z" fill="#161A23"/>
</svg>
