<svg width="24" height="24" viewBox="0 0 24 24" fill="none" xmlns="http://www.w3.org/2000/svg">
<path d="M21.225 7.12498C20.8875 6.63748 20.3625 6.29998 19.8 6.18748V4.91248C19.8 3.63748 18.75 2.54998 17.4375 2.54998H10.6125L10.0125 1.12498C9.86251 0.824976 9.56251 0.599976 9.22501 0.599976H4.68751C3.37501 0.674976 2.32501 1.72498 2.32501 2.99998V15.9C2.32501 16.8375 3.07501 17.5875 3.97501 17.5875H9.90001V18.5625C9.22501 18.825 8.66251 19.35 8.43751 20.025H4.38751C3.93751 20.025 3.52501 20.4 3.52501 20.8875C3.52501 21.375 3.90001 21.75 4.38751 21.75H8.43751C8.77501 22.6875 9.67501 23.3625 10.7625 23.3625C11.85 23.3625 12.75 22.6875 13.0875 21.75H17.1375C17.5875 21.75 18 21.375 18 20.8875C18 20.4 17.625 20.025 17.1375 20.025H13.05C12.7875 19.35 12.2625 18.7875 11.5875 18.5625V17.5875H16.9875C18 17.5875 18.9375 16.9125 19.275 15.9375L21.525 9.29998C21.7875 8.58748 21.675 7.76248 21.225 7.12498ZM10.7625 21.675C10.35 21.675 9.97501 21.3375 9.97501 20.8875C9.97501 20.475 10.3125 20.1 10.7625 20.1C11.175 20.1 11.55 20.4375 11.55 20.8875C11.5125 21.3 11.175 21.675 10.7625 21.675ZM4.01251 2.99998C4.01251 2.62498 4.31251 2.32498 4.68751 2.32498H8.70001L9.30001 3.74998C9.45001 4.04998 9.75001 4.27498 10.0875 4.27498H17.475C17.85 4.27498 18.15 4.57498 18.15 4.94998V6.14998H9.03751C8.06251 6.14998 7.16251 6.74998 6.78751 7.64998L4.01251 14.55V2.99998ZM19.95 8.77497L17.7 15.4125C17.5875 15.7125 17.325 15.9 17.025 15.9H5.28751L8.36251 8.24998C8.47501 7.98748 8.73751 7.79998 9.03751 7.79998H19.2375C19.4625 7.79998 19.6875 7.91248 19.8375 8.09998C19.9875 8.28748 20.025 8.54998 19.95 8.77497Z" fill="#161A23"/>
</svg>
