<svg width="24" height="24" viewBox="0 0 24 24" fill="none" xmlns="http://www.w3.org/2000/svg">
<g clip-path="url(#clip0_501_39767)">
<path d="M21 0.674988H3.00005C1.72505 0.674988 0.675049 1.72499 0.675049 2.99999V21C0.675049 22.275 1.72505 23.3625 3.03755 23.3625H21.0375C22.3125 23.3625 23.4 22.3125 23.4 21V2.99999C23.3625 1.72499 22.275 0.674988 21 0.674988ZM21.675 21C21.675 21.375 21.375 21.675 21 21.675H3.00005C2.62505 21.675 2.32505 21.375 2.32505 21V2.99999C2.36255 2.62499 2.62505 2.36249 3.00005 2.36249H21C21.375 2.36249 21.675 2.66249 21.675 3.03749V21Z" fill="#161A23"/>
<path d="M15.75 7.42499H8.24995C7.79995 7.42499 7.38745 7.79999 7.38745 8.28749C7.38745 8.77499 7.76245 9.14999 8.24995 9.14999H11.1375V15.975C11.1375 16.425 11.5125 16.8375 12 16.8375C12.45 16.8375 12.8625 16.4625 12.8625 15.975V9.11249H15.75C16.2 9.11249 16.6125 8.73749 16.6125 8.24999C16.6125 7.76249 16.2 7.42499 15.75 7.42499Z" fill="#161A23"/>
</g>
<defs>
<clipPath id="clip0_501_39767">
<rect width="24" height="24" fill="white"/>
</clipPath>
</defs>
</svg>
