<svg width="24" height="24" viewBox="0 0 24 24" fill="none" xmlns="http://www.w3.org/2000/svg">
<path d="M4.50005 5.66249C4.95005 5.66249 5.36255 5.28749 5.36255 4.79999V2.88749C5.36255 2.58749 5.58755 2.36249 5.88755 2.36249H9.41255V14.7375H7.76255C7.31255 14.7375 6.90005 15.1125 6.90005 15.6C6.90005 16.0875 7.27505 16.4625 7.76255 16.4625H16.2375C16.6875 16.4625 17.1 16.0875 17.1 15.6C17.1 15.1125 16.725 14.7375 16.2375 14.7375H14.5875V2.36249H18.1125C18.4125 2.36249 18.6375 2.58749 18.6375 2.88749V4.83749C18.6375 5.28749 19.0125 5.69999 19.5 5.69999C19.9875 5.69999 20.3625 5.32499 20.3625 4.83749V2.88749C20.3625 1.64999 19.35 0.674988 18.15 0.674988H5.88755C4.65005 0.674988 3.67505 1.68749 3.67505 2.88749V4.83749C3.67505 5.28749 4.05005 5.66249 4.50005 5.66249ZM12.9 14.7375H11.1375V2.36249H12.9V14.7375Z" fill="#161A23"/>
<path d="M20.925 20.1L19.2 18.375C18.8625 18.0375 18.3375 18.0375 18 18.375C17.6625 18.7125 17.6625 19.2375 18 19.575L18.3375 19.9125H5.7375L6.075 19.575C6.4125 19.2375 6.4125 18.7125 6.075 18.375C5.7375 18.0375 5.2125 18.0375 4.875 18.375L3.075 20.175C2.925 20.325 2.8125 20.55 2.8125 20.775C2.8125 21 2.8875 21.225 3.075 21.375L4.8 23.1C4.95 23.25 5.175 23.3625 5.4 23.3625C5.625 23.3625 5.85 23.2875 6 23.1C6.3375 22.7625 6.3375 22.2375 6 21.9L5.6625 21.5625H18.2625L17.925 21.9C17.5875 22.2375 17.5875 22.7625 17.925 23.1C18.075 23.25 18.3 23.3625 18.525 23.3625C18.75 23.3625 18.975 23.2875 19.125 23.1L20.925 21.3C21.2625 20.9625 21.2625 20.4375 20.925 20.1Z" fill="#161A23"/>
</svg>
