<svg width="24" height="24" viewBox="0 0 24 24" fill="none" xmlns="http://www.w3.org/2000/svg">
<path fill-rule="evenodd" clip-rule="evenodd" d="M12.1365 7.4436C5.5827 7.4436 0.276855 9.48735 0.276855 12.0036C0.276855 14.5199 5.5827 16.5561 12.1365 16.5561C18.6904 16.5561 23.9889 14.5199 23.9889 12.0036C23.9889 9.48735 18.683 7.4436 12.1365 7.4436ZM12.1365 16.0874C5.85225 16.0874 0.742091 14.2686 0.742091 12.0036C0.742091 9.7386 5.84854 7.90485 12.1365 7.90485C18.4245 7.90485 23.5384 9.7461 23.5384 12.0036C23.5384 14.2611 18.4393 16.0874 12.1365 16.0874ZM16.8738 11.7899C16.6043 11.7599 16.2683 11.9924 15.995 12.3336C15.8584 12.5061 15.7107 12.8324 15.6885 13.0236C15.659 13.2186 15.7107 13.4136 15.7809 13.4661C15.851 13.5224 16.1538 13.6836 16.6301 13.1961C16.8996 12.9261 17.1581 12.4799 17.1581 12.4799L17.0732 12.4574C17.2356 12.1536 17.2024 11.8274 16.8738 11.7899ZM12.1365 8.24235C6.03315 8.24235 1.10393 9.9261 1.10393 11.9999C1.10393 14.0736 6.03686 15.7686 12.1365 15.7686C18.2363 15.7686 23.1803 14.0811 23.1803 11.9999C23.1803 9.9186 18.2325 8.24235 12.1365 8.24235ZM6.98209 13.9949C6.31748 13.9949 5.7267 13.5524 5.71193 12.7611C5.70454 12.2811 6.08486 11.6886 6.79748 11.5124C6.88241 11.5124 6.91193 11.5424 6.91193 11.5911C6.91193 11.6211 6.88241 11.6586 6.81225 11.6924C6.60548 11.7711 6.24731 12.1836 6.24731 12.5624C6.24731 12.8511 6.42454 13.1699 6.72364 13.2374C6.80486 13.2599 6.88241 13.2524 6.95993 13.2524C7.70209 13.2524 8.53654 12.4049 9.43748 11.1149C9.29348 11.1224 8.67315 11.1936 8.51809 11.3699C8.44793 11.4261 8.40364 11.3924 8.38886 11.3324C8.38886 11.3174 8.41103 11.2611 8.43686 11.2311C8.68054 10.9499 9.41531 10.8899 9.59254 10.8674C10.2498 9.83985 11.0916 9.18735 11.3205 9.1386C11.3169 9.1386 11.3095 9.1386 11.3021 9.13485C10.715 8.9961 10.1796 8.87985 9.7587 8.87985C8.28176 8.87985 7.62454 9.52485 7.65409 10.1136C7.66886 10.3536 7.86086 10.5111 8.14148 10.4549C8.44793 10.3986 8.87625 10.1061 8.98331 9.84735C9.00548 9.79485 9.06825 9.7836 9.09041 9.80235C9.1347 9.83985 9.11993 9.8961 9.11993 9.8961C9.08303 10.1999 8.62148 11.0361 7.82764 11.0361C7.38454 11.0361 7.08548 10.6161 7.09286 10.2036C7.10025 9.43485 7.87193 8.6586 9.77715 8.6586C10.1353 8.6586 10.5415 8.6886 10.9845 8.76735C11.4978 8.8611 12.7753 9.0786 13.8129 9.0936C14.1969 9.0936 14.6843 9.1086 15.083 9.0486C15.5039 8.97735 15.4116 8.96235 15.5778 8.96235C15.7292 8.96235 15.7292 9.0261 15.7292 9.0861C15.7292 9.3336 14.8725 9.80985 14.1452 9.80985C13.0744 9.80985 11.963 9.3186 11.387 9.15735C11.4092 9.17985 11.4239 9.2136 11.4055 9.2586C11.3981 9.2736 11.3205 9.35985 11.291 9.38235C11.1396 9.5211 10.619 9.8661 10.0504 10.8336C10.5083 10.8111 11.0436 10.7174 11.0436 10.7174C11.0436 10.7174 11.0141 10.6161 11.0141 10.5299C11.0363 10.1961 11.2283 9.9936 11.4719 10.0311C11.6085 10.0536 11.7009 10.1699 11.7009 10.2974C11.7009 10.4286 11.6012 10.6236 11.5015 10.7174C11.4313 10.7699 11.3575 10.8261 11.2652 10.8711C11.2652 10.9574 11.3796 11.0249 11.4793 11.0361C11.4572 11.1224 11.4645 11.1599 11.4276 11.1524C11.1987 11.1524 11.1064 10.9274 11.1064 10.9274C10.7999 10.9836 10.5045 11.0211 9.89903 11.0811C8.37776 13.5824 7.90148 13.9949 6.97103 13.9949H6.98209ZM17.4683 13.5824C17.7969 13.5674 18.4024 12.9299 18.5464 12.7761C18.5759 12.7386 18.6313 12.6674 18.6609 12.6674C18.6904 12.6674 18.7532 12.6974 18.7532 12.7461C18.7532 12.7761 18.683 12.8924 18.6313 12.9636C18.3249 13.3536 17.819 13.9499 17.2467 13.9649C16.9624 13.9649 16.8553 13.8486 16.8184 13.6236C16.6892 13.7399 16.2461 13.9424 15.7919 13.9424C15.419 13.9349 15.2639 13.7099 15.1901 13.5299C15.1199 13.3836 15.0904 13.1661 15.1458 12.9486C14.939 13.0574 14.747 13.0724 14.4738 13.0649C14.1525 13.0574 13.9532 12.9111 13.8535 12.5286C13.4843 13.2111 13.4695 13.2336 13.0965 13.9499H12.4467L13.2812 12.5136C13.3883 12.3186 13.4436 12.1649 13.4805 11.9999C13.5027 11.9061 13.4363 11.8199 13.3365 11.8124C13.2295 11.8124 13.0559 11.9211 12.8861 12.0824C12.8861 12.0824 12.4578 12.5474 12.1439 13.0199C11.8449 13.4699 11.3316 13.9836 10.7741 13.9836C10.3679 13.9836 10.0024 13.7586 9.92486 13.3236C9.92486 13.3236 9.88425 13.4249 9.52609 13.6349C9.49654 13.6499 9.41903 13.6949 9.39686 13.6799C9.3267 13.6199 9.28976 13.5411 9.28238 13.4849C9.30454 13.4924 9.35254 13.4549 9.49654 13.3386C9.78086 13.1211 9.83993 12.9486 9.83993 12.9486C9.91009 12.8024 10.0319 12.5699 10.1169 12.4049C10.3458 11.9399 10.7445 11.4636 11.3944 11.4411C11.5015 11.4411 11.531 11.4861 11.5532 11.5274C11.6159 11.5724 11.5938 11.6661 11.5938 11.6661C11.1359 11.7374 10.8221 12.0074 10.6301 12.2736C10.5156 12.4461 10.3938 12.7236 10.3716 12.9261C10.3273 13.2749 10.4861 13.5074 10.7224 13.5636C11.1655 13.6349 11.5347 13.3086 11.8227 12.8024C11.8965 12.6711 11.9519 12.3299 11.9519 12.1424C11.9519 11.9549 11.8523 11.7636 11.7747 11.6849C11.7747 11.5536 11.8596 11.4674 11.9593 11.4674C11.9889 11.4674 12.0184 11.4674 12.0516 11.4974C12.203 11.6511 12.2879 11.9474 12.2879 12.1724C12.2879 12.2511 12.2879 12.3261 12.2732 12.4049C12.5944 12.0074 13.0005 11.4974 13.3144 11.3961C13.3772 11.3661 13.4363 11.3661 13.499 11.3661C14.0713 11.3511 13.9938 11.8799 13.9938 11.8799C14.3003 11.5236 14.5144 11.3924 14.795 11.4074C15.1015 11.4224 15.2085 11.6399 15.2085 11.8124C15.2012 12.0149 15.0535 12.2474 14.8024 12.2549C14.5809 12.2549 14.4516 12.1461 14.3815 11.9436C14.2375 11.9961 14.1673 12.0974 14.1378 12.2999C14.0935 12.5549 14.2818 12.7574 14.5292 12.7574C14.9501 12.7574 15.1347 12.5699 15.2861 12.4311C15.8067 11.9324 16.0984 11.4149 16.8479 11.4224C17.2984 11.4299 17.4129 11.7936 17.4904 11.9511L18.4763 10.2599H19.0818L17.4461 13.2036C17.4165 13.2674 17.339 13.3836 17.3464 13.4736C17.3612 13.6199 17.5458 13.5824 17.4756 13.5824H17.4683ZM11.435 10.5786C11.4793 10.5336 11.5569 10.3911 11.5421 10.2974C11.5347 10.2524 11.5125 10.1961 11.4572 10.2036C11.3427 10.2261 11.2725 10.2824 11.243 10.3986C11.2024 10.5224 11.2209 10.6086 11.243 10.7024C11.243 10.7024 11.3169 10.7099 11.435 10.5786Z" fill="#15171A"/>
</svg>
