<svg width="24" height="24" viewBox="0 0 24 24" fill="none" xmlns="http://www.w3.org/2000/svg">
<path d="M22.5 12.4875H21.5625C21.8625 11.9625 22.05 11.3625 22.05 10.725V9.41252C22.05 7.50002 20.5125 5.96252 18.6 5.96252H11.3625V4.35002C11.3625 3.90002 10.9875 3.52502 10.5375 3.52502H7.72499C7.27499 3.52502 6.89999 3.90002 6.89999 4.35002V5.96252H5.43749C3.52499 5.96252 1.98749 7.50002 1.98749 9.41252V10.725C1.98749 11.3625 2.17499 11.9625 2.47499 12.4875H1.49999C1.04999 12.4875 0.674988 12.8625 0.674988 13.3125V18.4125C0.674988 18.8625 1.04999 19.2375 1.49999 19.2375H2.39999C2.77499 19.95 3.52499 20.475 4.42499 20.475C5.28749 20.475 6.07499 19.9875 6.44999 19.2375H7.16249C7.53749 19.95 8.28749 20.475 9.18749 20.475C10.0875 20.475 10.8375 19.9875 11.2125 19.2375H13.0125C13.3875 19.95 14.1375 20.475 15.0375 20.475C15.9375 20.475 16.6875 19.9875 17.0625 19.2375H17.775C18.15 19.95 18.9 20.475 19.8 20.475C20.7 20.475 21.45 19.9875 21.825 19.2375H22.5C22.95 19.2375 23.325 18.8625 23.325 18.4125V13.3125C23.325 12.8625 22.95 12.4875 22.5 12.4875ZM8.51249 5.17502H9.63749V5.96252H8.51249V5.17502ZM3.63749 10.725V9.41252C3.63749 8.43752 4.42499 7.65002 5.39999 7.65002H18.6375C19.6125 7.65002 20.4 8.43752 20.4 9.41252V10.725C20.4 11.7 19.6125 12.4875 18.6375 12.4875H5.39999C4.42499 12.4875 3.63749 11.7 3.63749 10.725ZM21.675 14.175V17.2875C21.3 16.5 20.55 15.975 19.6125 15.975C18.6 15.975 17.7375 16.65 17.4375 17.5875H17.025C16.725 16.65 15.9 15.975 14.85 15.975C13.8 15.975 12.975 16.65 12.675 17.5875H11.175C10.875 16.65 10.05 15.975 8.99999 15.975C7.94999 15.975 7.12499 16.65 6.82499 17.5875H6.41249C6.11249 16.65 5.28749 15.975 4.23749 15.975C3.33749 15.975 2.54999 16.5 2.17499 17.2875V14.175H21.675ZM4.38749 18.825C4.08749 18.825 3.82499 18.5625 3.82499 18.2625C3.82499 17.9625 4.08749 17.7 4.38749 17.7C4.68749 17.7 4.94999 17.9625 4.94999 18.2625C4.94999 18.5625 4.68749 18.825 4.38749 18.825ZM9.11249 18.825C8.81249 18.825 8.54999 18.5625 8.54999 18.2625C8.54999 17.9625 8.81249 17.7 9.11249 17.7C9.41249 17.7 9.67499 17.9625 9.67499 18.2625C9.67499 18.5625 9.41249 18.825 9.11249 18.825ZM14.8875 18.825C14.5875 18.825 14.325 18.5625 14.325 18.2625C14.325 17.9625 14.5875 17.7 14.8875 17.7C15.1875 17.7 15.45 17.9625 15.45 18.2625C15.45 18.5625 15.225 18.825 14.8875 18.825ZM19.6125 18.825C19.3125 18.825 19.05 18.5625 19.05 18.2625C19.05 17.9625 19.3125 17.7 19.6125 17.7C19.9125 17.7 20.175 17.9625 20.175 18.2625C20.175 18.5625 19.9125 18.825 19.6125 18.825Z" fill="#161A23"/>
</svg>
