<svg width="24" height="24" viewBox="0 0 24 24" fill="none" xmlns="http://www.w3.org/2000/svg">
<path d="M21.375 9.11249H20.3625V8.28749C20.3625 7.01249 19.3125 5.92499 18 5.92499H3.00001C1.72501 5.92499 0.637512 6.97499 0.637512 8.28749V15.7125C0.637512 16.9875 1.68751 18.075 3.00001 18.075H18C19.275 18.075 20.3625 17.025 20.3625 15.7125V14.8875H21.375C22.4625 14.8875 23.3625 13.9875 23.3625 12.9V11.0625C23.3625 9.97499 22.4625 9.11249 21.375 9.11249ZM18.675 15.7125C18.675 16.0875 18.375 16.3875 18 16.3875H3.00001C2.62501 16.3875 2.32501 16.0875 2.32501 15.7125V8.28749C2.32501 7.91249 2.62501 7.61249 3.00001 7.61249H18C18.375 7.61249 18.675 7.91249 18.675 8.28749V15.7125ZM21.675 12.9375C21.675 13.0875 21.5625 13.2375 21.375 13.2375H20.3625V10.8375H21.375C21.525 10.8375 21.675 10.95 21.675 11.1375V12.9375Z" fill="#161A23"/>
<path d="M5.10002 9.375C4.65002 9.375 4.23752 9.75 4.23752 10.2375V13.8375C4.23752 14.2875 4.61252 14.7 5.10002 14.7C5.58752 14.7 5.96252 14.325 5.96252 13.8375V10.2375C5.92502 9.75 5.55002 9.375 5.10002 9.375Z" fill="#161A23"/>
<path d="M8.7 9.375C8.25 9.375 7.875 9.75 7.875 10.2V13.8C7.875 14.25 8.25 14.6625 8.7375 14.6625C9.225 14.6625 9.6 14.2875 9.6 13.8V10.2C9.5625 9.75 9.1875 9.375 8.7 9.375Z" fill="#161A23"/>
<path d="M12.3 9.375C11.85 9.375 11.4375 9.75 11.4375 10.2375V13.8375C11.4375 14.2875 11.8125 14.7 12.3 14.7C12.75 14.7 13.1625 14.325 13.1625 13.8375V10.2375C13.1625 9.75 12.7875 9.375 12.3 9.375Z" fill="#161A23"/>
<path d="M15.9 9.375C15.45 9.375 15.0375 9.75 15.0375 10.2375V13.8375C15.0375 14.2875 15.4125 14.7 15.9 14.7C16.3875 14.7 16.7625 14.325 16.7625 13.8375V10.2375C16.7625 9.75 16.3875 9.375 15.9 9.375Z" fill="#161A23"/>
</svg>
