<svg width="24" height="24" viewBox="0 0 24 24" fill="none" xmlns="http://www.w3.org/2000/svg">
<path d="M13.725 23.325C13.575 23.325 13.3875 23.2875 13.2375 23.25L9.75002 21.975C9.18752 21.7875 8.81252 21.225 8.81252 20.6625V13.4625L2.81252 6.0375C2.43752 5.55 2.21252 4.95 2.21252 4.35V2.0625C2.21252 1.275 2.85002 0.674999 3.60002 0.674999H20.2875C21.075 0.674999 21.675 1.3125 21.675 2.0625V4.35C21.675 4.95 21.45 5.55 21.075 6.0375L15.075 13.4625V21.9375C15.075 22.3875 14.85 22.8375 14.475 23.1C14.2875 23.25 14.025 23.325 13.725 23.325ZM10.5375 20.475L13.4625 21.5625V13.2C13.4625 13.0125 13.5375 12.825 13.65 12.675L19.8375 5.025C19.9875 4.8375 20.0625 4.6125 20.0625 4.3875V2.3625H3.93752V4.3875C3.93752 4.6125 4.01252 4.8375 4.16252 5.025L10.35 12.675C10.4625 12.825 10.5375 13.0125 10.5375 13.2V20.475Z" fill="#161A23"/>
</svg>
