<svg width="24" height="24" viewBox="0 0 24 24" fill="none" xmlns="http://www.w3.org/2000/svg">
<path d="M19.3875 0.674999H4.61249C3.18749 0.674999 2.02499 1.8375 2.02499 3.2625V4.425C2.02499 5.0625 2.24999 5.6625 2.62499 6.15L8.77499 13.7625V20.2875C8.77499 21.375 9.44999 22.35 10.4625 22.725L11.7 23.175C12 23.2875 12.3 23.325 12.6 23.325C13.125 23.325 13.65 23.175 14.1 22.875C14.775 22.3875 15.225 21.6 15.225 20.7375V13.725L21.375 6.15C21.75 5.6625 21.975 5.0625 21.975 4.425V3.2625C21.975 1.8375 20.8125 0.674999 19.3875 0.674999ZM3.71249 3.2625C3.71249 2.775 4.12499 2.3625 4.61249 2.3625H19.35C19.8375 2.3625 20.25 2.775 20.25 3.2625V4.425V4.4625H3.71249V4.425V3.2625ZM13.725 12.9375C13.6125 13.0875 13.5375 13.275 13.5375 13.4625V20.7375C13.5375 21.0375 13.3875 21.3 13.1625 21.4875C12.9375 21.675 12.6 21.7125 12.3375 21.6L11.1 21.15C10.725 21.0375 10.5 20.6625 10.5 20.2875V13.4625C10.5 13.275 10.425 13.0875 10.3125 12.9375L4.79999 6.15H19.2L13.725 12.9375Z" fill="#161A23"/>
</svg>
