<svg width="24" height="24" viewBox="0 0 24 24" fill="none" xmlns="http://www.w3.org/2000/svg">
<path d="M22.8 3.375V3.3375C22.8 3.1875 22.7625 3.075 22.725 2.9625C21.825 0.824999 14.3625 0.674999 12 0.674999C9.63751 0.674999 2.17501 0.862499 1.27501 2.9625C1.23751 3.075 1.20001 3.1875 1.20001 3.3375V3.375C1.20001 3.375 1.20001 3.375 1.20001 3.4125V3.45C1.23751 4.05 1.46251 4.65 1.83751 5.1375L8.55001 13.0875V20.4C8.55001 21.225 9.07501 21.975 9.86251 22.2375L12.825 23.25C13.05 23.325 13.2375 23.3625 13.4625 23.3625C13.875 23.3625 14.25 23.25 14.5875 22.9875C15.1125 22.6125 15.4125 22.0125 15.4125 21.4125V13.05L22.125 5.1C22.5375 4.6125 22.7625 4.05 22.7625 3.4125C22.8 3.4125 22.8 3.4125 22.8 3.375ZM12 2.3625C16.65 2.3625 19.65 2.9625 20.775 3.4125C19.65 3.8625 16.6875 4.4625 12 4.4625C7.31251 4.4625 4.35001 3.825 3.22501 3.375C4.35001 2.925 7.35001 2.3625 12 2.3625ZM13.95 12.1875C13.8375 12.3375 13.7625 12.525 13.7625 12.7125V21.375C13.7625 21.4875 13.6875 21.5625 13.65 21.6C13.6125 21.6375 13.5375 21.675 13.425 21.6375L10.425 20.625C10.3125 20.5875 10.2375 20.475 10.2375 20.3625V12.75C10.2375 12.5625 10.1625 12.375 10.05 12.1875L4.35001 5.4375C6.97501 6.0375 10.5 6.075 12 6.075C13.5 6.075 17.025 6 19.65 5.4375L13.95 12.1875Z" fill="#161A23"/>
</svg>
