<svg width="24" height="24" viewBox="0 0 24 24" fill="none" xmlns="http://www.w3.org/2000/svg">
<path d="M22.275 9.41249C21.5625 8.69999 20.55 8.24999 19.5375 8.24999H12.825V2.47499C12.825 2.02499 12.45 1.61249 11.9625 1.61249C11.475 1.61249 11.1 1.98749 11.1 2.47499V8.28749H4.49999C2.39999 8.28749 0.674988 9.97499 0.674988 12.075V18.6C0.674988 20.7 2.39999 22.3875 4.49999 22.3875C6.41249 22.3875 7.98749 21 8.28749 19.2375H15.7875C16.0875 21.0375 17.6625 22.425 19.575 22.425C21.675 22.425 23.4 20.7375 23.4 18.6375V12.075C23.3625 11.1 22.9875 10.1625 22.275 9.41249ZM21.6375 18.6C21.6375 19.7625 20.7 20.7 19.5 20.7C18.3 20.7 17.3625 19.7625 17.3625 18.6C17.3625 18 16.875 17.5125 16.275 17.5125H7.72499C7.12499 17.5125 6.63749 18 6.63749 18.6C6.63749 19.725 5.66249 20.6625 4.49999 20.6625C3.29999 20.6625 2.36249 19.725 2.36249 18.5625V12.075C2.36249 10.9125 3.33749 9.97499 4.49999 9.97499H19.5375C20.1 9.97499 20.6625 10.2 21.075 10.6125C21.45 10.9875 21.675 11.5125 21.675 12.075V18.6H21.6375Z" fill="#161A23"/>
<path d="M7.91249 13.05H7.08749V12.2625C7.08749 11.8125 6.71249 11.4 6.22499 11.4C5.73749 11.4 5.36249 11.775 5.36249 12.2625V13.05H4.53749C4.08749 13.05 3.67499 13.425 3.67499 13.9125C3.67499 14.4 4.04999 14.775 4.53749 14.775H5.36249V15.5625C5.36249 16.0125 5.73749 16.425 6.22499 16.425C6.71249 16.425 7.08749 16.05 7.08749 15.5625V14.775H7.91249C8.36249 14.775 8.77499 14.4 8.77499 13.9125C8.77499 13.425 8.36249 13.05 7.91249 13.05Z" fill="#161A23"/>
<path d="M18.375 13.125C18.45 13.125 18.4875 13.125 18.525 13.125C18.5625 13.125 18.6375 13.0875 18.675 13.0875C18.7125 13.05 18.7875 13.05 18.825 13.0125C18.8625 12.975 18.9 12.9375 18.9375 12.9C19.0875 12.75 19.2 12.525 19.2 12.3C19.2 12.075 19.125 11.85 18.9375 11.7C18.9 11.6625 18.8625 11.625 18.825 11.5875C18.7875 11.55 18.7125 11.55 18.675 11.5125C18.6375 11.475 18.5625 11.475 18.525 11.475C18.2625 11.4375 17.9625 11.5125 17.775 11.7C17.625 11.85 17.5125 12.075 17.5125 12.3C17.5125 12.525 17.5875 12.75 17.775 12.9C17.925 13.0125 18.15 13.125 18.375 13.125Z" fill="#161A23"/>
<path d="M17.325 13.3125C17.2875 13.275 17.25 13.2375 17.2125 13.2C17.175 13.1625 17.1 13.1625 17.0625 13.125C17.025 13.0875 16.95 13.0875 16.9125 13.0875C16.65 13.05 16.35 13.125 16.1625 13.3125C16.0125 13.4625 15.9 13.6875 15.9 13.9125C15.9 14.1375 15.975 14.3625 16.1625 14.5125C16.2375 14.5875 16.35 14.6625 16.425 14.7C16.5375 14.7375 16.65 14.775 16.7625 14.775C16.8375 14.775 16.875 14.775 16.9125 14.775C16.9875 14.775 17.025 14.7375 17.0625 14.7375C17.1 14.7375 17.175 14.7 17.2125 14.6625C17.25 14.625 17.2875 14.5875 17.325 14.55C17.475 14.4 17.5875 14.175 17.5875 13.95C17.5875 13.6875 17.475 13.4625 17.325 13.3125Z" fill="#161A23"/>
<path d="M17.775 15.1125C17.625 15.2625 17.5125 15.4875 17.5125 15.7125C17.5125 15.9375 17.5875 16.1625 17.775 16.3125C17.8125 16.35 17.85 16.3875 17.8875 16.425C17.925 16.4625 18 16.5 18.0375 16.5C18.075 16.5375 18.15 16.5375 18.1875 16.5375C18.225 16.5375 18.3 16.5375 18.3375 16.5375C18.4125 16.5375 18.45 16.5375 18.4875 16.5375C18.525 16.5375 18.6 16.5 18.6375 16.5C18.675 16.4625 18.75 16.4625 18.7875 16.425C18.825 16.3875 18.8625 16.35 18.9 16.3125C19.05 16.1625 19.1625 15.9375 19.1625 15.7125C19.1625 15.4875 19.0875 15.2625 18.9 15.1125C18.675 14.775 18.1125 14.775 17.775 15.1125Z" fill="#161A23"/>
<path d="M20.775 13.575C20.7375 13.5375 20.7375 13.4625 20.7 13.425C20.6625 13.3875 20.625 13.35 20.5875 13.3125C20.4 13.125 20.1 13.0125 19.8375 13.0875C19.8 13.0875 19.725 13.125 19.6875 13.125C19.65 13.125 19.575 13.1625 19.5375 13.2C19.5 13.2375 19.4625 13.275 19.425 13.3125C19.3875 13.35 19.35 13.3875 19.3125 13.425C19.275 13.4625 19.2375 13.5375 19.2375 13.575C19.2 13.6125 19.2 13.6875 19.2 13.725C19.2 13.7625 19.2 13.8375 19.2 13.875C19.2 14.1 19.275 14.325 19.4625 14.475C19.6125 14.625 19.8375 14.7375 20.0625 14.7375C20.2875 14.7375 20.5125 14.6625 20.6625 14.475C20.8125 14.325 20.925 14.1 20.925 13.875C20.925 13.8375 20.925 13.7625 20.925 13.725C20.8125 13.6875 20.8125 13.65 20.775 13.575Z" fill="#161A23"/>
</svg>
