<svg width="24" height="24" viewBox="0 0 24 24" fill="none" xmlns="http://www.w3.org/2000/svg">
<path d="M8.7375 9.7125H7.9125V8.925C7.9125 8.475 7.5375 8.0625 7.05 8.0625C6.5625 8.0625 6.1875 8.4375 6.1875 8.925V9.7125H5.3625C4.9125 9.7125 4.5 10.0875 4.5 10.575C4.5 11.0625 4.875 11.4375 5.3625 11.4375H6.1875V12.225C6.1875 12.675 6.5625 13.0875 7.05 13.0875C7.5375 13.0875 7.9125 12.7125 7.9125 12.225V11.4375H8.7375C9.1875 11.4375 9.6 11.0625 9.6 10.575C9.6 10.0875 9.1875 9.7125 8.7375 9.7125Z" fill="#161A23"/>
<path d="M16.0875 9.37505C16.125 9.41255 16.125 9.48755 16.1625 9.52505C16.2 9.56255 16.2375 9.60005 16.275 9.67505C16.3125 9.71255 16.35 9.75006 16.3875 9.78755C16.425 9.82506 16.5 9.82505 16.5375 9.86255C16.575 9.90005 16.65 9.90005 16.6875 9.90005C16.7625 9.90005 16.8 9.93755 16.8375 9.93755C17.0625 9.93755 17.2875 9.86255 17.4375 9.67505C17.475 9.63755 17.5125 9.60005 17.55 9.52505C17.5875 9.48755 17.5875 9.41255 17.625 9.37505C17.625 9.33755 17.6625 9.26256 17.6625 9.22505C17.6625 9.18755 17.6625 9.11256 17.6625 9.07506C17.6625 8.85006 17.5875 8.62505 17.4 8.47505C17.2125 8.28755 16.9125 8.17505 16.65 8.25005C16.6125 8.25005 16.5375 8.28755 16.5 8.28755C16.4625 8.28755 16.3875 8.32505 16.35 8.36255C16.3125 8.40005 16.275 8.43755 16.2375 8.47505C16.2 8.51255 16.1625 8.55005 16.125 8.62505C16.125 8.62505 16.125 8.66255 16.0875 8.73755C16.0875 8.77505 16.05 8.85006 16.05 8.88756C16.05 8.92506 16.05 9.00005 16.05 9.03755C16.05 9.11255 16.05 9.15005 16.05 9.18755C16.05 9.26255 16.0875 9.30005 16.0875 9.37505Z" fill="#161A23"/>
<path d="M16.0875 10.6877C16.0875 10.6127 16.0875 10.5752 16.0875 10.5377C16.0875 10.4627 16.05 10.4252 16.05 10.3877C16.0125 10.3502 16.0125 10.2752 15.975 10.2377C15.9375 10.2002 15.9 10.1627 15.8625 10.1252C15.675 9.9377 15.375 9.8252 15.1125 9.9002C15.0375 9.9002 15 9.9377 14.9625 9.9377C14.925 9.9752 14.85 9.9752 14.8125 10.0127C14.775 10.0502 14.7375 10.0877 14.7 10.1252C14.6625 10.1627 14.625 10.2002 14.5875 10.2377C14.55 10.2752 14.5125 10.3502 14.5125 10.3877C14.475 10.4252 14.475 10.5002 14.475 10.5377C14.475 10.5752 14.475 10.6502 14.475 10.6877C14.475 10.7252 14.475 10.8002 14.475 10.8377C14.475 10.8752 14.5125 10.9502 14.5125 10.9877C14.55 11.0252 14.55 11.1002 14.5875 11.1377C14.625 11.1752 14.6625 11.2127 14.7 11.2502C14.7375 11.2877 14.775 11.3252 14.8125 11.3627C14.85 11.4002 14.925 11.4377 14.9625 11.4377C15 11.4752 15.075 11.4752 15.1125 11.4752C15.15 11.4752 15.225 11.5127 15.2625 11.5127C15.4875 11.5127 15.7125 11.4377 15.8625 11.2502C15.9 11.2127 15.9375 11.1752 15.975 11.1377C16.0125 11.1002 16.05 11.0252 16.05 10.9877C16.0875 10.9502 16.0875 10.8752 16.0875 10.8377C16.05 10.8002 16.0875 10.7252 16.0875 10.6877Z" fill="#161A23"/>
<path d="M17.6625 12.1501C17.625 12.1126 17.625 12.0376 17.5875 12.0001C17.55 11.9626 17.5125 11.9251 17.475 11.8876C17.175 11.5876 16.6125 11.5876 16.275 11.8876C16.2375 11.9251 16.2 11.9626 16.1625 12.0001C16.125 12.0376 16.0875 12.1126 16.0875 12.1501C16.0875 12.1876 16.05 12.2626 16.05 12.3001C16.05 12.3376 16.05 12.4126 16.05 12.4501C16.05 12.4876 16.05 12.5626 16.05 12.6001C16.05 12.6376 16.0875 12.7126 16.0875 12.7501C16.125 12.7876 16.125 12.8626 16.1625 12.9001C16.2 12.9376 16.2375 12.9751 16.275 13.0126C16.3125 13.0501 16.35 13.0876 16.3875 13.1251C16.425 13.1626 16.5 13.1626 16.5375 13.2001C16.575 13.2376 16.65 13.2376 16.6875 13.2376C16.725 13.2376 16.8 13.2376 16.8375 13.2376C16.875 13.2376 16.95 13.2376 16.9875 13.2376C17.0625 13.2376 17.1 13.2001 17.1375 13.2001C17.175 13.2001 17.25 13.1626 17.2875 13.1251C17.325 13.0876 17.3625 13.0501 17.4 13.0126C17.4375 12.9751 17.475 12.9376 17.5125 12.9001C17.55 12.8626 17.55 12.7876 17.5875 12.7501C17.625 12.7126 17.625 12.6376 17.625 12.6001C17.625 12.5626 17.625 12.4876 17.625 12.4501C17.625 12.4126 17.625 12.3376 17.625 12.3001C17.7 12.2626 17.6625 12.1876 17.6625 12.1501Z" fill="#161A23"/>
<path d="M17.8875 10.0875C17.7375 10.2375 17.625 10.4625 17.625 10.6875C17.625 10.9125 17.7 11.1375 17.8875 11.2875C18.075 11.4375 18.2625 11.55 18.4875 11.55C18.7125 11.55 18.9375 11.475 19.0875 11.2875C19.2375 11.1 19.35 10.9125 19.35 10.6875C19.35 10.4625 19.275 10.2375 19.0875 10.0875C18.7875 9.78755 18.225 9.78755 17.8875 10.0875Z" fill="#161A23"/>
<path d="M23.4375 14.2501L22.05 8.7001C21.45 6.3751 19.3875 4.7251 16.9875 4.7251H7.05C4.65 4.7251 2.55 6.3376 1.9875 8.7001L0.562502 14.2501C0.262502 15.4501 0.525002 16.7251 1.275 17.7001C2.025 18.6751 3.1875 19.2376 4.4625 19.2376C6.075 19.2376 7.5375 18.2626 8.175 16.8001L8.5875 15.8626H15.45L15.8625 16.8001C16.5 18.3001 17.9625 19.2376 19.575 19.2376C20.8125 19.2376 21.975 18.6751 22.7625 17.7001C23.475 16.7251 23.7375 15.4501 23.4375 14.2501ZM21.375 16.6501C20.925 17.2126 20.25 17.5501 19.5375 17.5501C18.6 17.5501 17.7375 16.9876 17.4 16.1251L16.8 14.7001C16.65 14.4001 16.35 14.1751 16.0125 14.1751H8.025C7.6875 14.1751 7.3875 14.3626 7.2375 14.7001L6.6375 16.1251C6.2625 16.9876 5.4375 17.5501 4.5 17.5501C3.75 17.5501 3.075 17.2501 2.625 16.6501C2.175 16.0876 2.025 15.3376 2.2125 14.6626L3.6 9.1126C4.0125 7.5376 5.4 6.4126 7.05 6.4126H16.95C18.5625 6.4126 19.9875 7.5001 20.4 9.1126L21.7875 14.6626C21.975 15.3751 21.825 16.0876 21.375 16.6501Z" fill="#161A23"/>
</svg>
