<svg width="24" height="24" viewBox="0 0 24 24" fill="none" xmlns="http://www.w3.org/2000/svg">
<g clip-path="url(#clip0_914_45060)">
<path d="M12 0.375C5.55 0.375 0.375 5.55 0.375 12C0.375 18.45 5.55 23.625 12 23.625C18.45 23.625 23.625 18.45 23.625 12C23.625 5.55 18.45 0.375 12 0.375ZM2.85 12.1125L11.85 21.1125C6.9375 21.075 2.925 17.0625 2.85 12.1125ZM14.0625 20.8875L3.1125 9.9375C4.0875 5.8875 7.65 2.85 12 2.85C15 2.85 17.7 4.3125 19.3875 6.6L18.1125 7.725C16.8 5.775 14.5125 4.5375 12 4.5375C8.775 4.5375 6.0375 6.6 4.9875 9.45L14.55 19.0125C16.875 18.15 18.675 16.2 19.2375 13.7625H15.2625V12H21.1125C21.15 16.35 18.075 19.9875 14.0625 20.8875Z" fill="#15171A"/>
</g>
<defs>
<clipPath id="clip0_914_45060">
<rect width="24" height="24" fill="white"/>
</clipPath>
</defs>
</svg>
