<svg width="24" height="24" viewBox="0 0 24 24" fill="none" xmlns="http://www.w3.org/2000/svg">
<path d="M22.575 15.3749L13.2 1.19995C12.975 0.862451 12.5625 0.637451 12.15 0.637451C11.7375 0.637451 11.325 0.862451 11.1 1.19995L2.32501 14.6249C2.28751 14.6624 2.28751 14.6999 2.28751 14.7374C1.61251 15.5249 1.20001 16.3874 1.20001 17.3624C1.20001 20.7374 6.11251 23.3624 12.375 23.3624C16.35 23.3624 19.9125 22.3125 21.9375 20.5124C22.275 20.2125 22.3125 19.6874 22.0125 19.3124C21.7125 18.9749 21.1875 18.9374 20.8125 19.2374C19.125 20.7374 15.9 21.6374 12.375 21.6374C6.78751 21.6374 2.88751 19.3499 2.88751 17.3249C2.88751 15.4124 6.33751 13.275 11.3625 13.0499V16.2C11.3625 17.025 12.0375 17.6624 12.8625 17.6624H21.3375C21.9 17.6624 22.3875 17.3624 22.65 16.875C22.9125 16.4249 22.875 15.8249 22.575 15.3749ZM11.325 3.97495L11.3625 11.3624C9.26251 11.4749 7.35001 11.8499 5.73751 12.4874L11.325 3.97495ZM13.05 15.9749V13.0125C13.8 13.05 14.5125 13.0875 15.1875 13.2C15.6375 13.275 16.0875 12.9374 16.1625 12.4874C16.2375 12.0374 15.9 11.5875 15.45 11.5125C14.6625 11.4 13.875 11.325 13.05 11.2874L13.0125 3.93745L20.9625 15.9374H13.05V15.9749Z" fill="#161A23"/>
</svg>
