<svg width="24" height="24" viewBox="0 0 24 24" fill="none" xmlns="http://www.w3.org/2000/svg">
<path d="M20.9999 7.38751H17.8874C19.0124 6.03751 18.9375 4.01251 17.6999 2.77501C16.3499 1.42501 14.1749 1.42501 12.8624 2.77501C12.4874 3.15001 12.2249 3.71251 12.0374 4.38751C11.8124 3.71251 11.5499 3.15001 11.2125 2.77501C9.86245 1.42501 7.68745 1.42501 6.37495 2.77501C5.09995 4.05001 5.06245 6.03751 6.18745 7.38751H2.99995C1.72495 7.38751 0.637451 8.43751 0.637451 9.75001V19.875C0.637451 21.15 1.68745 22.2375 2.99995 22.2375H20.9999C22.275 22.2375 23.3624 21.1875 23.3624 19.875V9.75001C23.3624 8.43751 22.275 7.38751 20.9999 7.38751ZM21.6749 9.75001V11.4375H12.8624V9.07501H20.9999C21.3749 9.07501 21.6749 9.37501 21.6749 9.75001ZM14.025 3.97501C14.7 3.30001 15.7874 3.30001 16.4999 3.97501C17.1749 4.65001 17.1749 5.73751 16.4999 6.45001C16.1249 6.82501 14.6249 7.16251 13.1624 7.35001C13.3124 5.85001 13.65 4.35001 14.025 3.97501ZM7.49995 3.97501C7.83745 3.63751 8.28745 3.45001 8.73745 3.45001C9.18745 3.45001 9.63745 3.63751 9.97495 3.97501C10.3499 4.35001 10.6875 5.85001 10.875 7.31251C9.41245 7.16251 7.91245 6.82501 7.53745 6.41251C6.82495 5.73751 6.82495 4.65001 7.49995 3.97501ZM2.99995 9.07501H11.1749V11.4375H2.36245V9.75001C2.36245 9.37501 2.62495 9.07501 2.99995 9.07501ZM2.36245 19.875V13.125H11.1749V20.55H2.99995C2.62495 20.55 2.36245 20.25 2.36245 19.875ZM20.9999 20.55H12.8624V13.125H21.6749V19.875C21.6749 20.25 21.3749 20.55 20.9999 20.55Z" fill="#161A23"/>
</svg>
