<svg width="24" height="24" viewBox="0 0 24 24" fill="none" xmlns="http://www.w3.org/2000/svg">
<g clip-path="url(#clip0_914_45062)">
<path d="M23.4381 11.625L12.3381 0.4875C12.1881 0.3375 11.8131 0.3375 11.5881 0.4875L8.5131 3.5625L11.3631 6.4125C11.5881 6.3 11.8506 6.2625 12.1131 6.2625C13.1631 6.2625 13.9506 7.125 13.9506 8.1C13.9506 8.3625 13.9131 8.625 13.8006 8.85L16.0881 11.1375C16.3131 11.025 16.5756 10.9875 16.8381 10.9875C17.8881 10.9875 18.6756 11.85 18.6756 12.825C18.6756 13.875 17.8131 14.6625 16.8381 14.6625C15.7881 14.6625 15.0006 13.8 15.0006 12.825C15.0006 12.5625 15.0381 12.3 15.1506 12.075L12.8631 9.7875H12.8256V14.1C13.5006 14.4 13.9881 15.0375 13.9881 15.825C13.9881 16.875 13.1256 17.6625 12.1506 17.6625C11.1006 17.6625 10.3131 16.8 10.3131 15.825C10.3131 15.0375 10.8006 14.3625 11.4756 14.1V9.9C10.8006 9.6 10.3131 8.9625 10.3131 8.175C10.3131 7.9125 10.3506 7.65 10.4631 7.425L7.6131 4.575L0.525586 11.625C0.375586 11.775 0.375586 12.15 0.525586 12.375L11.6631 23.5125C11.8131 23.6625 12.1881 23.6625 12.4131 23.5125L23.5131 12.375C23.6256 12.15 23.6256 11.85 23.4381 11.625Z" fill="#15171A"/>
</g>
<defs>
<clipPath id="clip0_914_45062">
<rect width="24" height="24" fill="white"/>
</clipPath>
</defs>
</svg>
