<svg width="24" height="24" viewBox="0 0 24 24" fill="none" xmlns="http://www.w3.org/2000/svg">
<g clip-path="url(#clip0_914_45066)">
<path d="M23.3247 11.6251C23.0997 5.81257 18.3372 1.05007 12.4872 0.825075C9.3372 0.712575 6.4122 1.83757 4.1247 3.97507C1.87471 6.15007 0.637207 9.03757 0.637207 12.1501C0.637207 17.2876 4.0872 21.7876 9.0372 23.1001C9.1872 23.1376 9.2997 23.1376 9.4497 23.1376C9.7872 23.1376 10.1247 23.0251 10.3872 22.8001C10.7622 22.5001 10.9872 22.0501 10.9872 21.5626V20.3626C10.9872 20.0251 11.0247 18.6001 11.0247 18.3376C11.0622 18.1501 11.0997 18.0001 11.2122 17.8876C11.4372 17.5876 11.4747 17.1751 11.3247 16.8376C11.1747 16.5376 10.8747 16.3126 10.5372 16.3126C10.3122 16.2751 10.0497 16.2376 9.8622 16.1626C9.5622 16.0876 9.2997 15.9751 8.9997 15.8251C8.7747 15.7126 8.5872 15.5251 8.3997 15.3001C8.2872 15.1876 8.1372 14.9251 7.9872 14.4376C7.8372 13.9876 7.7997 13.5376 7.7997 13.0501C7.7997 12.3751 7.9872 11.8501 8.3997 11.4001C8.6247 11.1376 8.6997 10.8001 8.5497 10.5001C8.4372 10.2376 8.3997 9.93757 8.4747 9.56257C8.9997 9.75007 9.1497 9.86257 9.1872 9.90007L9.2247 9.93757C9.3747 10.0126 9.4872 10.0876 9.5997 10.1626L9.7122 10.2376C9.8997 10.3501 10.1622 10.3876 10.3872 10.3126C10.9872 10.1626 11.6247 10.0501 12.2247 10.0501C12.8622 10.0501 13.4622 10.1251 14.0622 10.3126C14.2872 10.3876 14.5122 10.3501 14.7372 10.2376L15.1497 9.97507C15.4122 9.82507 15.7122 9.67507 15.9747 9.56257C16.0497 9.90007 16.0122 10.2376 15.8997 10.5376C15.7872 10.8376 15.8622 11.1751 16.0497 11.4001C16.4622 11.8501 16.6497 12.3751 16.6497 13.0501C16.6497 13.5751 16.5747 14.0251 16.4622 14.4001C16.3122 14.7751 16.1997 15.0751 16.0122 15.3001C15.8622 15.4876 15.6372 15.6376 15.3372 15.8251C15.0372 15.9751 14.7747 16.0876 14.4747 16.1626C14.2872 16.2001 14.0247 16.2751 13.7622 16.3126H13.7247C13.3872 16.3876 13.1247 16.6126 12.9747 16.9126C12.8622 17.2126 12.8622 17.5501 13.0872 17.8501C13.2372 18.0376 13.3122 18.3376 13.3122 18.6751V21.4876C13.3122 21.9751 13.5372 22.4626 13.9497 22.7251C14.3622 23.0251 14.8497 23.1001 15.2997 22.9501C20.3247 21.5251 23.5872 16.8001 23.3247 11.6251ZM15.0747 21.3751V18.7501C15.0747 18.4126 15.0372 18.1126 14.9622 17.8501H14.9997C15.3747 17.7376 15.7872 17.5876 16.1997 17.3626C16.1997 17.3626 16.2372 17.3626 16.2372 17.3251C16.6872 17.0626 17.0622 16.7626 17.3247 16.4251C17.6997 16.0126 17.8872 15.4876 18.0747 15.0001C18.2622 14.4376 18.3372 13.8376 18.3372 13.0876C18.3372 12.1876 18.0747 11.3626 17.5872 10.6876C17.7372 9.97507 17.6622 9.18757 17.3247 8.36257C17.2497 8.13757 17.0247 7.95007 16.7997 7.87507C16.3872 7.72507 15.9372 7.80007 15.3372 7.98757C14.9622 8.13757 14.5872 8.32507 14.2122 8.51257L14.1372 8.62507C12.8622 8.32507 11.5122 8.32507 10.2372 8.62507C10.1997 8.58757 10.1622 8.58757 10.0872 8.55007C9.8622 8.40007 9.5622 8.25007 9.0747 8.06257C8.4747 7.80007 7.9872 7.72507 7.5372 7.87507C7.3122 7.95007 7.0872 8.13757 7.0122 8.40007C6.7122 9.26257 6.6372 10.0126 6.7872 10.7251C6.2997 11.4001 6.0372 12.2251 6.0372 13.1251C6.0372 13.8001 6.1122 14.4001 6.2997 15.0001C6.4872 15.6001 6.7122 16.0876 7.0122 16.4251C7.3497 16.8376 7.7247 17.1376 8.1372 17.3626C8.5122 17.5876 8.9247 17.7376 9.3372 17.8501C9.3747 17.8501 9.3747 17.8501 9.4122 17.8501C9.3747 17.9626 9.3747 18.1126 9.3372 18.2251C9.3372 18.2626 9.3372 18.3001 9.3372 18.3001C9.3372 18.3001 9.3372 18.7876 9.3372 19.3126C8.5122 19.0126 7.8372 18.6001 7.2372 18.0001C6.7872 17.4751 6.2622 16.9876 5.9997 16.8376C5.4747 16.5751 5.1372 17.1001 5.2122 17.4001C5.3247 17.7751 5.8497 18.0001 6.1872 18.3001C6.5247 18.6376 6.5997 19.0876 6.8247 19.4626C7.1622 19.9501 8.3247 20.5876 9.2997 20.5876V21.4501C5.2122 20.2876 2.36221 16.5001 2.36221 12.1876C2.36221 9.52507 3.41221 7.05007 5.3247 5.21257C7.1247 3.45007 9.5247 2.51257 12.0372 2.51257C12.1497 2.51257 12.2997 2.51257 12.4122 2.51257C17.3997 2.70007 21.4497 6.75007 21.6372 11.7001C21.8622 16.0501 19.1622 20.0251 15.0747 21.3751Z" fill="#15171A"/>
</g>
<defs>
<clipPath id="clip0_914_45066">
<rect width="24" height="24" fill="white"/>
</clipPath>
</defs>
</svg>
