<svg width="24" height="24" viewBox="0 0 24 24" fill="none" xmlns="http://www.w3.org/2000/svg">
<g clip-path="url(#clip0_501_45122)">
<path d="M23.3625 12C23.3625 10.0875 22.875 8.17495 21.9 6.41245C20.3625 3.71245 17.775 1.76245 14.7375 0.974951C13.7625 0.749951 12.8625 0.637451 11.9625 0.637451C11.5125 0.637451 11.1375 1.01245 11.1 1.46245V12.225V22.4625C11.1 22.9125 11.475 23.2875 11.9625 23.2875C12.4125 23.2875 12.9 23.25 13.35 23.2125C16.725 22.8 19.725 20.9249 21.5625 18.0375C22.6875 16.3125 23.2875 14.2875 23.3625 12.1875V12ZM19.2375 11.4C19.125 10.2375 18.8625 9.11245 18.45 8.06245H20.85C21.3 9.14995 21.6 10.275 21.675 11.4H19.2375ZM12.825 21.075V18.5625H15.5625C14.775 19.6125 13.8375 20.4375 12.825 21.075ZM15.6 6.37495H12.7875V3.03745C13.725 3.74995 14.6625 4.87495 15.6 6.37495ZM12.7875 16.875V13.0875H17.5875C17.5125 14.4 17.175 15.7125 16.575 16.875H12.7875ZM12.7875 11.4V8.06245H16.575C17.1 9.11245 17.4 10.2375 17.5125 11.4H12.7875ZM19.875 6.37495H17.5875C16.725 4.91245 15.8625 3.74995 15.0375 2.81245C16.9875 3.48745 18.675 4.72495 19.875 6.37495ZM15.75 20.9249C16.425 20.25 17.0625 19.4625 17.5875 18.6H19.0875C18.1125 19.575 16.9875 20.4 15.75 20.9249ZM20.325 16.875H18.45C18.9375 15.675 19.2375 14.4 19.3125 13.0875H21.6375C21.45 14.4375 21 15.75 20.325 16.875Z" fill="#161A23"/>
<path d="M5.2125 12.5624C6.7875 12.5624 8.1 11.2874 8.1 9.67485C8.1 8.06235 6.825 6.78735 5.2125 6.78735C3.6 6.78735 2.325 8.06235 2.325 9.67485C2.325 11.2874 3.6 12.5624 5.2125 12.5624ZM5.2125 8.51235C5.8875 8.51235 6.4125 9.03735 6.4125 9.71235C6.4125 10.3874 5.85 10.8749 5.2125 10.8749C4.575 10.8749 4.0125 10.3499 4.0125 9.67485C4.0125 8.99985 4.5375 8.51235 5.2125 8.51235Z" fill="#161A23"/>
<path d="M5.21249 13.875C3.56249 13.875 1.98749 14.55 0.899993 15.75C0.599993 16.0875 0.599993 16.6125 0.937493 16.95C1.27499 17.25 1.79999 17.25 2.13749 16.9125C2.92499 16.05 4.04999 15.5625 5.21249 15.5625C6.37499 15.5625 7.49999 16.05 8.28749 16.9125C8.43749 17.1 8.66249 17.175 8.92499 17.175C9.11249 17.175 9.33749 17.1 9.48749 16.95C9.82499 16.65 9.86249 16.0875 9.52499 15.75C8.43749 14.5875 6.86249 13.875 5.21249 13.875Z" fill="#161A23"/>
</g>
<defs>
<clipPath id="clip0_501_45122">
<rect width="24" height="24" fill="white"/>
</clipPath>
</defs>
</svg>
