<svg width="23" height="23" viewBox="0 0 23 23" fill="none" xmlns="http://www.w3.org/2000/svg">
<path d="M10.72 21.5777C9.54522 20.716 8.51867 19.6268 7.67069 18.355C8.09346 18.0277 8.53811 17.7161 9.00947 17.4568C9.40188 17.2378 9.82349 17.0443 10.2463 16.8788L11.3615 21.5363C11.1465 21.5558 10.9375 21.5777 10.72 21.5777ZM5.79736 20.2C6.18126 19.7205 6.58946 19.2666 7.03774 18.8686C7.6877 19.8337 8.43727 20.7075 9.27431 21.4609C8.01693 21.2747 6.84701 20.8414 5.79858 20.1988M1.45177 14.6078L4.72342 13.6391C5.14619 15.276 5.77913 16.7997 6.59067 18.1664C6.05248 18.6398 5.56532 19.1753 5.10853 19.751C3.40893 18.5072 2.10416 16.7096 1.45055 14.6078M0.977969 11.5263C0.977969 9.9856 1.32542 8.50207 1.95229 7.15848C2.66786 7.45422 3.39678 7.68059 4.14271 7.81811C4.1257 8.15401 4.11841 8.49598 4.11841 8.83554C4.11841 10.2071 4.26662 11.5434 4.53146 12.831L1.24281 13.8022C1.07152 13.0719 0.979186 12.3101 0.979186 11.5263M4.87284 3.48554C4.53754 4.60762 4.31401 5.7784 4.20588 6.98567C3.56929 6.8591 2.94606 6.66681 2.33741 6.42098C2.98737 5.28063 3.84385 4.28389 4.87284 3.48432M4.94087 7.95077C5.36851 7.99823 5.79858 8.02013 6.2335 8.02013C6.8543 8.02013 7.47024 7.9605 8.07889 7.86192L8.95359 11.5215L5.30655 12.5986C5.0575 11.3913 4.92144 10.1292 4.92144 8.83675C4.92144 8.53858 4.92752 8.24529 4.94087 7.9532M5.96502 2.7395C6.22013 2.58859 6.48011 2.45593 6.75103 2.32937L7.88207 7.05017C7.33781 7.13171 6.78627 7.19378 6.2335 7.19378C5.8168 7.19378 5.40496 7.16335 4.99798 7.11468C5.13404 5.59949 5.46327 4.13177 5.96502 2.7395ZM10.0518 16.061C9.56221 16.2472 9.0848 16.4675 8.62315 16.7218C8.13841 16.9968 7.67555 17.3121 7.23212 17.6529C6.47404 16.3738 5.88726 14.9401 5.49486 13.4103L9.15283 12.3271L10.053 16.061H10.0518ZM22.2917 8.50207L22.2771 8.44731L10.9095 11.2489L11.7588 14.9352L18.2498 13.3153C17.6241 16.0476 15.5989 18.0507 13.0793 18.6703C12.5593 18.8005 12.0661 18.8686 11.5838 18.8917L8.12748 4.52608C8.55512 4.32162 9.01312 4.15124 9.51002 4.02954C12.2192 3.36018 14.4618 4.46523 15.6694 5.64939L20.3442 4.4847L20.2774 4.39708C18.2049 1.72086 14.966 0 11.325 0C5.07087 0 0 5.07983 0 11.345C0 17.6102 5.07087 22.69 11.325 22.69C17.5792 22.69 22.65 17.6102 22.65 11.345C22.65 10.3629 22.5249 9.40993 22.2917 8.50207Z" fill="#5D6068"/>
</svg>
