<svg width="24" height="24" viewBox="0 0 24 24" fill="none" xmlns="http://www.w3.org/2000/svg">
<path d="M21.1499 13.275L20.2124 9.7125L21.1499 6.3C21.3374 5.5875 21.1874 4.8375 20.7374 4.2375C20.2874 3.6375 19.6124 3.3 18.8624 3.3H4.4624V1.5C4.4624 1.05 4.0874 0.637497 3.5999 0.637497C3.1124 0.637497 2.7749 1.05 2.7749 1.5V22.5C2.7749 22.95 3.1499 23.3625 3.6374 23.3625C4.1249 23.3625 4.4999 22.9875 4.4999 22.5V16.2375H18.9374C19.6874 16.2375 20.3624 15.9 20.8124 15.3375C21.1874 14.7375 21.3374 13.9875 21.1499 13.275ZM19.4249 14.2875C19.3124 14.4375 19.1249 14.55 18.8999 14.55H4.4624V5.025H18.8999C19.1249 5.025 19.3124 5.1375 19.4249 5.2875C19.5374 5.4375 19.5749 5.6625 19.5374 5.85L18.5624 9.4875C18.5249 9.6375 18.5249 9.7875 18.5624 9.9375L19.5749 13.725C19.5749 13.9125 19.5374 14.1375 19.4249 14.2875Z" fill="#161A23"/>
<path d="M8.43745 7.6125H10.6125C11.0625 7.6125 11.475 7.2375 11.475 6.75C11.475 6.2625 11.1 5.8875 10.6125 5.8875H8.43745C7.12495 5.8875 6.07495 6.9375 6.07495 8.25V11.1375C6.07495 12.45 7.12495 13.5 8.43745 13.5H9.11245C10.425 13.5 11.475 12.45 11.475 11.1375V9.6375C11.475 9.1875 11.1 8.775 10.6125 8.775H9.52495C9.07495 8.775 8.66245 9.15 8.66245 9.6375C8.66245 10.125 9.03745 10.5 9.52495 10.5H9.74995V11.1375C9.74995 11.5125 9.44995 11.8125 9.07495 11.8125H8.39995C8.02495 11.8125 7.72495 11.5125 7.72495 11.1375V8.25C7.79995 7.875 8.09995 7.6125 8.43745 7.6125Z" fill="#161A23"/>
<path d="M14.9998 5.8875H14.8498C13.5373 5.8875 12.4873 6.9375 12.4873 8.25V11.1375C12.4873 12.45 13.5373 13.5 14.8498 13.5H14.9998C16.3123 13.5 17.3623 12.45 17.3623 11.1375V8.25C17.3248 6.975 16.2748 5.8875 14.9998 5.8875ZM15.6373 11.1375C15.6373 11.5125 15.3373 11.8125 14.9623 11.8125H14.8123C14.4373 11.8125 14.1373 11.5125 14.1373 11.1375V8.25C14.1373 7.875 14.4373 7.575 14.8123 7.575H14.9998C15.3748 7.575 15.6748 7.875 15.6748 8.25V11.1375H15.6373Z" fill="#161A23"/>
</svg>
