<svg width="24" height="24" viewBox="0 0 24 24" fill="none" xmlns="http://www.w3.org/2000/svg">
<path d="M20.625 0.674997C20.175 0.674997 19.7626 1.05 19.7626 1.5375V3.375H4.23755V1.5C4.23755 1.05 3.86255 0.637497 3.37505 0.637497C2.88755 0.637497 2.55005 1.05 2.55005 1.5V22.5C2.55005 22.95 2.92505 23.3625 3.41255 23.3625C3.90005 23.3625 4.27505 22.9875 4.27505 22.5V16.2375H19.8375V22.5C19.8375 22.95 20.2125 23.3625 20.7001 23.3625C21.1875 23.3625 21.5625 22.9875 21.5625 22.5V1.5C21.45 1.05 21.075 0.674997 20.625 0.674997ZM4.23755 14.55V5.025H19.8V14.55H4.23755Z" fill="#161A23"/>
<path d="M8.7375 7.6125H10.9125C11.3625 7.6125 11.775 7.2375 11.775 6.75C11.775 6.2625 11.4 5.8875 10.9125 5.8875H8.7375C7.425 5.8875 6.375 6.9375 6.375 8.25V11.1375C6.375 12.45 7.425 13.5 8.7375 13.5H9.375C10.6875 13.5 11.7375 12.45 11.7375 11.1375V9.6375C11.7375 9.1875 11.3625 8.775 10.875 8.775H9.7875C9.3375 8.775 8.925 9.15 8.925 9.6375C8.925 10.125 9.3 10.5 9.7875 10.5H10.0125V11.1375C10.0125 11.5125 9.7125 11.8125 9.3375 11.8125H8.6625C8.2875 11.8125 7.9875 11.5125 7.9875 11.1375V8.25C8.0625 7.875 8.3625 7.6125 8.7375 7.6125Z" fill="#161A23"/>
<path d="M15.2625 5.8875H15.1125C13.8 5.8875 12.75 6.9375 12.75 8.25V11.1375C12.75 12.45 13.8 13.5 15.1125 13.5H15.2625C16.575 13.5 17.625 12.45 17.625 11.1375V8.25C17.625 6.975 16.575 5.8875 15.2625 5.8875ZM15.9375 11.1375C15.9375 11.5125 15.6375 11.8125 15.2625 11.8125H15.1125C14.7375 11.8125 14.4375 11.5125 14.4375 11.1375V8.25C14.4375 7.875 14.7375 7.575 15.1125 7.575H15.2625C15.6375 7.575 15.9375 7.875 15.9375 8.25V11.1375Z" fill="#161A23"/>
</svg>
