<svg width="24" height="24" viewBox="0 0 24 24" fill="none" xmlns="http://www.w3.org/2000/svg">
<path d="M2.1012 10.2318C2.05518 10.2318 2.04367 10.2085 2.06668 10.1734L2.30829 9.85786C2.3313 9.82284 2.38884 9.79944 2.43486 9.79944H6.54232C6.5883 9.79944 6.59985 9.8345 6.57679 9.86956L6.38122 10.1734C6.3582 10.2085 6.30068 10.2435 6.26618 10.2435L2.1012 10.2318Z" fill="#15171A"/>
<path d="M0.363893 11.3066C0.317871 11.3066 0.306366 11.2832 0.329376 11.2482L0.570994 10.9327C0.594004 10.8976 0.651529 10.8743 0.697549 10.8743H5.94405C5.99006 10.8743 6.01305 10.9093 6.00157 10.9444L5.90951 11.2248C5.898 11.2715 5.85199 11.2949 5.80597 11.2949L0.363893 11.3066Z" fill="#15171A"/>
<path d="M3.14856 12.3818C3.10254 12.3818 3.09103 12.3468 3.11404 12.3117L3.27512 12.0196C3.29813 11.9845 3.34415 11.9495 3.39017 11.9495H5.69126C5.73731 11.9495 5.7603 11.9845 5.7603 12.0313L5.73727 12.3117C5.73727 12.3584 5.69126 12.3935 5.65672 12.3935L3.14856 12.3818Z" fill="#15171A"/>
<path d="M15.0912 10.0215C14.3663 10.2085 13.8716 10.3487 13.1582 10.5357C12.9857 10.5824 12.9741 10.5941 12.8245 10.4188C12.652 10.2201 12.5255 10.0916 12.2838 9.97477C11.559 9.61252 10.8572 9.71767 10.2013 10.15C9.41895 10.6642 9.01628 11.4237 9.02779 12.3702C9.03926 13.305 9.67204 14.0763 10.581 14.2048C11.3634 14.31 12.0192 14.0295 12.5369 13.4336C12.6405 13.305 12.7325 13.1648 12.8476 13.0012C12.4334 13.0012 11.9157 13.0012 10.6271 13.0012C10.3854 13.0012 10.3279 12.8493 10.4084 12.6507C10.558 12.2884 10.8341 11.6808 10.9952 11.377C11.0297 11.3069 11.1102 11.19 11.2828 11.19C11.8696 11.19 14.0327 11.19 15.4708 11.19C15.4478 11.5055 15.4478 11.821 15.4018 12.1365C15.2752 12.9778 14.9646 13.7491 14.4583 14.4268C13.6299 15.5369 12.5484 16.2264 11.1793 16.4133C10.0517 16.5652 9.00476 16.3432 8.08433 15.6421C7.23293 14.9877 6.7497 14.123 6.62314 13.048C6.47355 11.7743 6.84173 10.6291 7.60106 9.62422C8.41796 8.53747 9.49946 7.84803 10.8226 7.60267C11.9041 7.40399 12.9396 7.53254 13.8716 8.17522C14.4814 8.58423 14.9186 9.14512 15.2062 9.82286C15.2752 9.92801 15.2292 9.98643 15.0912 10.0215Z" fill="#15171A"/>
<path d="M18.8984 16.4832C17.8514 16.4599 16.8964 16.1561 16.0911 15.455C15.4122 14.859 14.9866 14.0994 14.8485 13.1997C14.6414 11.8793 14.998 10.7108 15.7804 9.67076C16.6203 8.54899 17.6328 7.9647 19.002 7.71934C20.1755 7.509 21.28 7.62585 22.281 8.31525C23.1899 8.94626 23.7537 9.79928 23.9032 10.9211C24.0988 12.4986 23.6502 13.7839 22.5801 14.8824C21.8208 15.6652 20.8888 16.1561 19.8188 16.3781C19.5082 16.4365 19.1975 16.4482 18.8984 16.4832ZM21.6367 11.7624C21.6252 11.6105 21.6252 11.4936 21.6022 11.3768C21.3951 10.22 20.3481 9.56558 19.255 9.82268C18.1851 10.068 17.4948 10.7575 17.2416 11.8559C17.0345 12.7673 17.4717 13.6905 18.3001 14.0644C18.9329 14.3448 19.5657 14.3098 20.1755 13.9943C21.0844 13.5152 21.5792 12.7673 21.6367 11.7624Z" fill="#15171A"/>
</svg>
