<svg width="24" height="24" viewBox="0 0 24 24" fill="none" xmlns="http://www.w3.org/2000/svg">
<path d="M23.2125 15.7501L22.05 12.8251C21.75 12.1126 21.075 11.6251 20.2875 11.6251H18.4125L16.6125 6.8626C16.35 6.1501 15.6375 5.6626 14.85 5.6626H9.15005C8.36255 5.6626 7.65005 6.1501 7.38755 6.8626L5.58755 11.6251H3.71255C2.92505 11.6251 2.25005 12.0751 1.95005 12.8251L0.787549 15.7501C0.562549 16.3126 0.637549 16.9876 0.975049 17.5126C1.31255 18.0376 1.91255 18.3376 2.51255 18.3376H11.25C11.5125 18.3376 11.775 18.1876 11.9625 17.9626C12 17.9251 12 17.8876 12.0375 17.8126C12.075 17.8501 12.075 17.9251 12.1125 17.9626C12.2625 18.1876 12.525 18.3376 12.825 18.3376H21.525C22.1625 18.3376 22.725 18.0376 23.0625 17.5126C23.4 16.9876 23.4375 16.3501 23.2125 15.7501ZM8.96255 7.4626C9.00005 7.3876 9.07505 7.3501 9.15005 7.3501H14.85C14.925 7.3501 15 7.3876 15.0375 7.4626L16.6125 11.6626H14.775H9.26255H7.42505L8.96255 7.4626ZM2.55005 16.6501C2.47505 16.6501 2.43755 16.6126 2.40005 16.5751C2.36255 16.5376 2.36255 16.4626 2.36255 16.3876L3.52505 13.4626C3.56255 13.3876 3.63755 13.3501 3.71255 13.3501H8.70005L10.0125 16.6501H2.55005ZM12 17.1376L10.5 13.3501H13.5L12 17.1376ZM21.6376 16.5751C21.6 16.6126 21.5625 16.6501 21.4875 16.6501H14.025L15.3375 13.3501H20.3251C20.4 13.3501 20.475 13.3876 20.5126 13.4626L21.675 16.3876C21.675 16.4626 21.6376 16.5376 21.6376 16.5751Z" fill="#161A23"/>
</svg>
