<svg width="24" height="24" viewBox="0 0 24 24" fill="none" xmlns="http://www.w3.org/2000/svg">
<path d="M5.21278 18.7125H5.36278C5.96278 18.7125 6.52528 18.7125 7.12528 18.7125C7.16278 18.7125 7.27528 18.675 7.27528 18.825C7.57528 20.4 8.66278 21.3 10.1253 21.75C11.3253 22.125 12.6003 22.125 13.8378 21.7875C15.3753 21.4875 16.3878 20.5125 16.9128 19.05C17.2878 18.0375 17.4003 17.025 17.4378 16.05C17.4378 15.7875 17.4378 13.875 17.4378 13.6875H17.4003C17.3628 13.725 17.3628 13.8375 17.2878 13.9125C16.2753 15.8625 14.4753 16.9875 12.4878 17.025C7.76278 17.1375 4.72528 14.4 4.61278 9C4.57528 7.875 4.65028 6.825 4.98778 5.8125C5.88778 2.55 8.32528 0.4125 11.9628 0.375C14.7378 0.375 16.5753 2.1375 17.2503 3.6C17.2878 3.6375 17.2878 3.7125 17.3628 3.6375V0.8625H19.3878C19.3878 13.6125 19.3878 15.9375 19.3878 15.9375C19.3878 19.4625 18.1878 22.5 14.7003 23.325C11.5878 24.075 7.50028 23.55 5.81278 20.7375C5.43778 20.1 5.25028 19.425 5.21278 18.7125ZM11.8878 2.025C9.52528 1.9875 6.90028 3.8625 6.63778 8.1C6.48778 10.8 7.31278 13.65 9.86278 14.85C11.1378 15.45 13.2378 15.525 14.7753 14.4375C16.9503 12.9 17.6253 10.05 17.2503 7.3875C16.8378 4.2375 15.1128 2.025 11.8878 2.025Z" fill="#15171A"/>
</svg>
