<svg width="24" height="24" viewBox="0 0 24 24" fill="none" xmlns="http://www.w3.org/2000/svg">
<path fill-rule="evenodd" clip-rule="evenodd" d="M5.68717 9.59594C5.29095 9.21798 4.76186 9.01109 4.21432 9.02001C3.21284 9.02001 2.36282 9.69513 2.05886 10.6049C1.89817 11.0816 1.89817 11.5978 2.05886 12.0745C2.36282 12.9843 3.21284 13.6594 4.21432 13.6594C4.73317 13.6594 5.17687 13.5261 5.52135 13.2925V13.292C5.7213 13.1593 5.89234 12.9876 6.02411 12.787C6.15592 12.5865 6.24574 12.3614 6.28819 12.1252H4.21432V10.6465H7.83517C7.8795 10.9044 7.90162 11.1655 7.90129 11.4272C7.90129 12.5956 7.48376 13.5837 6.75904 14.2519H6.75836L6.75904 14.2524C6.12285 14.839 5.25045 15.1792 4.21432 15.1792C3.50262 15.1792 2.80495 14.9813 2.19918 14.6078C1.59342 14.2342 1.1034 13.6996 0.783836 13.0638C0.515006 12.5288 0.375 11.9384 0.375 11.3397C0.375 10.741 0.515006 10.1506 0.783836 9.6157C1.1034 8.97978 1.59342 8.44521 2.19918 8.07168C2.80495 7.6981 3.50262 7.50029 4.21432 7.50025C5.16757 7.48911 6.08816 7.84743 6.78304 8.50011L5.68717 9.59594ZM11.3707 12.0106V14.7169H10.5121V8.0335H12.7891C13.0609 8.02784 13.3312 8.07603 13.5843 8.17533C13.8373 8.27463 14.0682 8.42309 14.2636 8.61209C14.461 8.78961 14.6181 9.00734 14.7243 9.25064C14.8305 9.4939 14.8835 9.75711 14.8795 10.0226C14.8852 10.2894 14.8331 10.5544 14.7268 10.7992C14.6205 11.044 14.4625 11.263 14.2636 11.4411C13.8655 11.8207 13.374 12.0104 12.7891 12.01H11.3707V12.0106ZM11.3707 8.85633V11.1894H12.8105C12.9683 11.194 13.1254 11.1657 13.2717 11.1062C13.4179 11.0467 13.5502 10.9573 13.66 10.8438C13.7692 10.7376 13.8559 10.6107 13.9152 10.4704C13.9745 10.3301 14.005 10.1794 14.005 10.0271C14.005 9.87483 13.9745 9.72408 13.9152 9.58379C13.8559 9.44354 13.7692 9.31656 13.66 9.2104C13.5516 9.09449 13.4198 9.00291 13.2733 8.94179C13.1269 8.88063 12.9691 8.85134 12.8105 8.8558H11.3707V8.85633ZM16.8579 9.99483C17.4925 9.99483 17.9934 10.1644 18.3607 10.5036C18.7279 10.8427 18.9114 11.3077 18.911 11.8986V14.7169H18.0898V14.0823H18.0525C17.6969 14.6049 17.2241 14.8662 16.634 14.8662C16.1302 14.8662 15.7087 14.7169 15.3696 14.4183C15.2068 14.2812 15.0767 14.1095 14.9887 13.9158C14.9007 13.7221 14.857 13.5111 14.8609 13.2984C14.8609 12.8252 15.0397 12.4489 15.3973 12.1695C15.755 11.89 16.2324 11.75 16.8297 11.7493C17.3395 11.7493 17.7593 11.8426 18.0892 12.0292V11.833C18.0902 11.688 18.0589 11.5445 17.9976 11.4131C17.9362 11.2816 17.8464 11.1655 17.7346 11.0731C17.5076 10.8682 17.2117 10.7565 16.9059 10.7601C16.4263 10.7601 16.0468 10.9624 15.7674 11.3669L15.0112 10.8907C15.4272 10.2935 16.0428 9.99483 16.8579 9.99483ZM15.7471 13.3171C15.7466 13.4263 15.7721 13.5342 15.8217 13.6315C15.8712 13.7289 15.9433 13.8131 16.0319 13.877C16.2218 14.0263 16.4575 14.1055 16.699 14.1009C17.0613 14.1003 17.4086 13.9561 17.6647 13.6999C17.9492 13.4322 18.0914 13.1181 18.0914 12.7577C17.8237 12.5443 17.4504 12.4377 16.9715 12.4377C16.6228 12.4377 16.332 12.5218 16.0991 12.69C15.8639 12.8606 15.7471 13.068 15.7471 13.3171ZM20.7582 16.7326L23.625 10.1442H22.6902L21.3651 13.429H21.3464L19.9839 10.1442H19.0507L20.9358 14.4273L19.8719 16.7326H20.7582Z" fill="#15171A"/>
</svg>
