<svg width="24" height="24" viewBox="0 0 24 24" fill="none" xmlns="http://www.w3.org/2000/svg">
<path d="M13.4282 11.9998L15.7747 14.0155L18.3991 16.2699V11.9998V7.85486L15.9136 9.92861L13.4282 11.9998Z" fill="#15171A"/>
<path d="M1.125 15.8749V19.4999C1.125 20.3286 1.79234 20.9999 2.61626 20.9999H6.22012V18.2474V15.8749H3.67257H1.125Z" fill="#15171A"/>
<path d="M6.22012 3L1.125 8.12501H3.67257H6.22012V5.74609V3Z" fill="#15171A"/>
<path d="M6.22012 8.12512H1.125V15.8751H6.22012V8.12512Z" fill="#15171A"/>
<path d="M21.6542 5.16992L18.3983 7.85492V16.2699L21.6692 18.9674C22.1588 19.3525 22.8746 19.0012 22.8746 18.3749V5.74989C22.8746 5.11614 22.1426 4.76867 21.6542 5.16992ZM13.4275 11.9999V15.8749H6.21973V20.9999H16.9071C17.731 20.9999 18.3983 20.3287 18.3983 19.4999V16.2699L13.4275 11.9999Z" fill="#15171A"/>
<path d="M16.9071 3H6.21973V8.12501H13.4275V12L18.3983 7.85749V4.5C18.3983 3.67125 17.731 3 16.9071 3Z" fill="#15171A"/>
</svg>
