<svg width="24" height="24" viewBox="0 0 24 24" fill="none" xmlns="http://www.w3.org/2000/svg">
<g clip-path="url(#clip0_914_45089)">
<path d="M8.5125 5.2875C10.4625 8.475 11.85 11.1375 12.9 13.725C12.4875 15.4875 11.8875 17.175 11.25 18.7875C10.575 16.05 9.8625 13.5 8.325 11.0625C8.6625 9.2625 8.4375 7.3125 8.5125 5.2875ZM6 9.1125H1.2C0.899998 9.1125 0.674998 9.525 0.899998 9.75C3.075 12.6 4.6125 15.825 5.6625 19.4625H11.0625C10.2 15.825 9.0375 12.525 6.7875 9.4125C6.5625 9.2625 6.3 9.1125 6 9.1125ZM8.5125 4.5C12.0375 10.1625 15.2625 16.725 15.7125 23.625H21.5625C20.925 16.5 18 9.825 14.1375 4.5H8.5125ZM21.5625 0.975C21.45 0.6 21.15 0.375 20.775 0.375H16.2C15.9375 0.375 15.7125 0.6375 15.7875 0.9C16.4625 3.2625 16.95 5.85 17.175 8.5125C19.65 12.9375 21.3 17.775 21.8625 22.5C22.725 19.3875 23.175 15.5625 23.175 12C23.175 8.2125 22.575 4.5 21.5625 0.975Z" fill="#15171A"/>
</g>
<defs>
<clipPath id="clip0_914_45089">
<rect width="24" height="24" fill="white"/>
</clipPath>
</defs>
</svg>
