<svg width="24" height="24" viewBox="0 0 24 24" fill="none" xmlns="http://www.w3.org/2000/svg">
<path d="M23.249 12.5942C22.781 11.2611 21.9018 10.1125 20.7318 9.32542C20.271 7.61659 19.3137 6.07792 17.9878 4.90091L17.9452 4.94344V4.89382C16.7966 3.87277 15.3997 3.16371 13.8894 2.83045C12.3792 2.50429 10.8121 2.56101 9.33019 3.00063C7.85535 3.44733 6.51525 4.26274 5.43746 5.36887C4.35971 6.47501 3.57974 7.83641 3.17558 9.32542C3.22521 9.30416 3.28194 9.28999 3.33157 9.27577C3.24648 9.32542 3.16849 9.38216 3.09049 9.43886C1.98436 10.2401 1.15476 11.3675 0.715147 12.6651C0.282624 13.9556 0.261352 15.3595 0.658425 16.6642C1.0555 17.9759 1.84964 19.1246 2.9345 19.9613H2.94159L2.9345 19.9825C4.0761 20.8476 5.46585 21.3085 6.89812 21.3014H11.9253L11.9537 21.3298H17.0022C18.4132 21.344 19.7888 20.8972 20.9304 20.0676C22.0649 19.2381 22.9086 18.061 23.327 16.7138C23.7453 15.3666 23.717 13.9201 23.249 12.5942ZM19.335 15.7282C19.2074 16.0331 19.023 16.3167 18.789 16.5507C18.555 16.7847 18.2785 16.9691 17.9665 17.0967C17.6616 17.2243 17.3355 17.2881 17.0022 17.2881H11.9466V17.2598H6.89812C6.53651 17.2598 6.18907 17.1818 5.8629 17.0329C5.4942 16.8627 5.17511 16.6074 4.91985 16.2884C4.67167 15.9693 4.5015 15.5864 4.43062 15.1893C4.35262 14.7852 4.38097 14.3739 4.5015 13.9839C4.62206 13.5939 4.83476 13.2394 5.1255 12.9487C5.4162 12.658 5.77072 12.4453 6.16072 12.3247C6.55069 12.2042 6.96195 12.1758 7.36612 12.2467C7.76317 12.3247 8.14609 12.4949 8.46514 12.7431C8.78422 12.9983 9.03949 13.3245 9.20966 13.6932L12.1381 10.7648C11.5212 9.96356 10.7341 9.31125 9.82654 8.86455C9.30892 8.60929 8.75587 8.4249 8.18861 8.31855C8.20987 8.29729 8.22409 8.2902 8.24535 8.29729C9.1104 7.34715 10.3087 6.76571 11.5921 6.66645C12.8755 6.56719 14.1447 6.96427 15.1445 7.77259H15.2012C15.7755 8.24764 16.2293 8.84325 16.5484 9.52395C16.8675 10.2188 17.0235 10.9704 17.0093 11.7362V12.2397C17.3425 12.2397 17.6687 12.3034 17.9736 12.4311C18.2856 12.5587 18.5621 12.7431 18.7961 12.9771C19.0301 13.2111 19.2145 13.4947 19.3421 13.7996C19.4697 14.1045 19.5335 14.4306 19.5335 14.7639C19.5335 15.0972 19.4697 15.4233 19.3421 15.7282H19.335Z" fill="#15171A"/>
</svg>
