<svg width="24" height="24" viewBox="0 0 24 24" fill="none" xmlns="http://www.w3.org/2000/svg">
<path d="M22.8 8.02502L12.5625 4.31252C12.225 4.20002 11.85 4.20002 11.5125 4.31252L1.20001 8.02502C0.862512 8.13752 0.637512 8.47502 0.637512 8.81252C0.637512 9.15002 0.862512 9.48752 1.20001 9.60002L5.28751 11.0625V13.0125C5.28751 16.725 8.28751 19.725 12 19.725C15.7125 19.725 18.7125 16.725 18.7125 13.0125V11.0625L20.925 10.275V14.2875C20.925 14.7375 21.3 15.15 21.7875 15.15C22.275 15.15 22.65 14.775 22.65 14.2875V9.67502L22.8375 9.60002C23.175 9.48752 23.4 9.15002 23.4 8.81252C23.4 8.47502 23.1375 8.13752 22.8 8.02502ZM17.025 13.05C17.025 15.825 14.775 18.075 12 18.075C9.22501 18.075 6.97501 15.825 6.97501 13.05V11.7L11.475 13.3125C11.6625 13.3875 11.8125 13.3875 12 13.3875C12.1875 13.3875 12.375 13.35 12.525 13.3125L17.025 11.7V13.05ZM17.55 9.71252L12 11.7375L6.45001 9.75002C6.45001 9.75002 6.45001 9.75002 6.41251 9.75002L3.97501 8.85002L12 5.92502L20.025 8.81252L17.55 9.71252Z" fill="#161A23"/>
</svg>
