<svg width="24" height="24" viewBox="0 0 24 24" fill="none" xmlns="http://www.w3.org/2000/svg">
<path d="M23.0625 12.75L21.4875 11.1375V9.71248C21.7125 9.44998 21.8625 9.11248 21.8625 8.73748C21.8625 8.17498 21.5625 7.68748 21.0375 7.46248L11.85 3.33748C11.5125 3.18748 11.1 3.18748 10.725 3.33748L1.49999 7.42498C1.01249 7.64998 0.674988 8.13748 0.674988 8.69998C0.674988 9.26248 1.01249 9.74998 1.49999 9.97498L4.64999 11.4V15.825C4.64999 18.5625 6.86249 20.775 9.56249 20.775H12.975C15.7125 20.775 17.8875 18.5625 17.8875 15.825V11.475L19.6875 10.65L19.8 10.6125V11.2125L18.3 12.75C17.8875 13.1625 17.8875 13.8 18.3 14.2125L19.9125 15.9C20.1 16.0875 20.3625 16.2 20.6625 16.2C20.925 16.2 21.225 16.0875 21.4125 15.9L23.025 14.2125C23.4375 13.8 23.4375 13.1625 23.0625 12.75ZM16.2 15.825C16.2 17.625 14.7375 19.0875 12.975 19.0875H9.56249C7.76249 19.0875 6.33749 17.625 6.33749 15.825V12.1875L10.8 14.2125C10.9875 14.2875 11.175 14.325 11.3625 14.325C11.55 14.325 11.7375 14.2875 11.925 14.2125L16.2 12.3V15.825ZM11.3625 12.5625L2.77499 8.69998L11.2875 4.94998L19.7625 8.77498L11.3625 12.5625ZM20.6625 14.25L19.9125 13.5L20.6625 12.75L21.4125 13.5L20.6625 14.25Z" fill="#161A23"/>
</svg>
