<svg width="24" height="24" viewBox="0 0 24 24" fill="none" xmlns="http://www.w3.org/2000/svg">
<path d="M22.8 5.47498L12.3 1.68748C12.1125 1.61248 11.925 1.61248 11.7375 1.68748L1.23749 5.47498C0.899988 5.58748 0.674988 5.92498 0.674988 6.26248C0.674988 6.59998 0.899988 6.93748 1.23749 7.04998L3.97499 8.06248V14.0625C3.97499 14.7375 4.42499 15.3375 5.06249 15.5625C7.91249 16.5 10.2 16.875 12.2625 16.875C13.275 16.875 14.25 16.7625 15.225 16.575V17.2875C14.2125 17.625 13.4625 18.6 13.4625 19.7625C13.4625 21.1875 14.625 22.3875 16.0875 22.3875C17.55 22.3875 18.7125 21.225 18.7125 19.7625C18.7125 18.6375 17.9625 17.6625 16.95 17.2875V16.2C17.625 16.0125 18.3 15.7875 19.0125 15.5625C19.65 15.3375 20.0625 14.7375 20.0625 14.1V8.06248L22.8 7.04998C23.1375 6.93748 23.3625 6.59998 23.3625 6.26248C23.3625 5.92498 23.1375 5.58748 22.8 5.47498ZM16.05 20.7C15.525 20.7 15.1125 20.2875 15.1125 19.7625C15.1125 19.2375 15.525 18.825 16.05 18.825C16.575 18.825 16.9875 19.2375 16.9875 19.7625C16.9875 20.2875 16.575 20.7 16.05 20.7ZM12 3.37498L20.025 6.26248L16.1625 7.64998L13.5375 6.67498C13.0875 6.52498 12.6 6.74998 12.45 7.16248C12.3 7.61248 12.525 8.09998 12.9375 8.24998L13.725 8.54998L12 9.14998L3.97499 6.26248L12 3.37498ZM5.66249 13.9875V8.66248L11.7375 10.8375C11.8125 10.875 11.925 10.875 12.0375 10.875C12.15 10.875 12.225 10.875 12.3375 10.8375L15.2625 9.78748V14.8875C12.45 15.45 9.74999 15.3 5.66249 13.9875ZM18.3375 13.9875C17.85 14.175 17.3625 14.325 16.9125 14.4375V9.18748L18.3375 8.66248V13.9875Z" fill="#161A23"/>
</svg>
