<svg width="24" height="24" viewBox="0 0 24 24" fill="none" xmlns="http://www.w3.org/2000/svg">
<path d="M7.87495 11.1375V4.65C7.87495 3.525 6.97495 2.625 5.84995 2.625H2.06245C1.38745 2.625 0.824951 3.1875 0.824951 3.8625V4.575C0.824951 5.025 1.19995 5.4375 1.68745 5.4375C2.17495 5.4375 2.54995 5.0625 2.54995 4.575V4.3125H5.88745C6.07495 4.3125 6.22495 4.4625 6.22495 4.65V6.6H2.62495C1.53745 6.6 0.637451 7.5 0.637451 8.5875V11.175C0.674951 12.225 1.53745 13.125 2.62495 13.125H5.92495C7.01245 13.125 7.87495 12.225 7.87495 11.1375ZM6.18745 11.1375C6.18745 11.2875 6.07495 11.4375 5.88745 11.4375H2.62495C2.47495 11.4375 2.32495 11.325 2.32495 11.1375V8.55C2.32495 8.4 2.43745 8.25 2.62495 8.25H6.18745V11.1375Z" fill="#161A23"/>
<path d="M10.9499 13.125H14.2499C15.3374 13.125 16.2374 12.225 16.2374 11.1375V8.55001C16.2374 7.46251 15.3374 6.56251 14.2499 6.56251H10.6874V2.02501C10.6874 1.57501 10.3124 1.16251 9.8249 1.16251C9.3374 1.16251 8.9624 1.53751 8.9624 2.02501V11.175C8.9624 12.225 9.8624 13.125 10.9499 13.125ZM14.2499 8.28751C14.3999 8.28751 14.5499 8.40001 14.5499 8.58751V11.175C14.5499 11.325 14.4374 11.475 14.2499 11.475H10.9499C10.7999 11.475 10.6499 11.3625 10.6499 11.175V8.32501H14.2499V8.28751Z" fill="#161A23"/>
<path d="M22.4999 11.4375H19.3124C19.1249 11.4375 18.9749 11.2875 18.9749 11.1V8.625C18.9749 8.4375 19.1249 8.2875 19.3124 8.2875H22.4999C22.9499 8.2875 23.3624 7.9125 23.3624 7.425C23.3624 6.9375 22.9874 6.5625 22.4999 6.5625H19.3124C18.1874 6.5625 17.2874 7.4625 17.2874 8.5875V11.025C17.2874 12.15 18.1874 13.05 19.3124 13.05H22.4999C22.9499 13.05 23.3624 12.675 23.3624 12.1875C23.3624 11.8125 22.9499 11.4375 22.4999 11.4375Z" fill="#161A23"/>
<path d="M15.3 15.675L10.2 20.8125L8.69995 19.3125C8.36245 18.975 7.83745 18.975 7.49995 19.3125C7.16245 19.65 7.16245 20.175 7.49995 20.5125L9.59995 22.6125C9.74995 22.7625 9.97495 22.875 10.2 22.875C10.425 22.875 10.65 22.8 10.8 22.6125L16.5 16.875C16.8375 16.5375 16.8375 16.0125 16.5 15.675C16.1625 15.3375 15.6375 15.375 15.3 15.675Z" fill="#161A23"/>
</svg>
