<svg width="24" height="24" viewBox="0 0 24 24" fill="none" xmlns="http://www.w3.org/2000/svg">
<g clip-path="url(#clip0_914_45093)">
<path fill-rule="evenodd" clip-rule="evenodd" d="M12 23.625C18.4201 23.625 23.625 18.4202 23.625 12C23.625 5.57985 18.4201 0.375 12 0.375C5.57989 0.375 0.375 5.57985 0.375 12C0.375 18.4202 5.57989 23.625 12 23.625ZM14.479 15.1005C14.0887 15.1005 13.7281 14.8431 13.6591 14.4679C13.6376 14.3554 13.6416 14.2395 13.6709 14.1286C13.7002 14.0178 13.7541 13.9147 13.8286 13.8266C13.9031 13.7385 13.9965 13.6677 14.1021 13.6191C14.2077 13.5705 14.3229 13.5455 14.4395 13.5456H18.75V17.9724C18.7496 18.0868 18.7236 18.1998 18.6737 18.3033C18.6239 18.4068 18.5515 18.4983 18.4616 18.5712C18.3718 18.6441 18.2667 18.6968 18.1539 18.7253C18.041 18.7539 17.9231 18.7577 17.8086 18.7365C17.4249 18.6687 17.162 18.3153 17.162 17.9345V17.1953L17.3115 16.3771C16.668 17.1049 15.8723 17.6877 14.9785 18.0859C14.0848 18.484 13.1141 18.688 12.1327 18.6841C8.1969 18.6841 5.03325 15.4968 5.26163 11.5913C5.4588 8.23613 8.2314 5.4918 11.6571 5.26669C12.8889 5.18153 14.1214 5.42351 15.2253 5.96726C16.3292 6.51101 17.2637 7.3365 17.931 8.35718C18.0306 8.52506 18.0616 8.72389 18.0177 8.91337C17.9737 9.1029 17.8582 9.26891 17.6944 9.37792C17.3337 9.62243 16.8375 9.49331 16.5878 9.14066C15.6463 7.8456 14.005 6.77318 12.1327 6.77318C8.54029 6.77318 5.78411 10.3002 7.23161 13.9951C7.86994 15.6226 9.38149 16.7886 11.1412 17.0589C13.3026 17.3906 15.2791 16.6385 16.4177 15.0037L15.7063 15.1005H14.479Z" fill="#15171A"/>
</g>
<defs>
<clipPath id="clip0_914_45093">
<rect width="24" height="24" fill="white"/>
</clipPath>
</defs>
</svg>
