<svg width="24" height="24" viewBox="0 0 24 24" fill="none" xmlns="http://www.w3.org/2000/svg">
<path d="M22.4999 21.1875H22.275V11.5125C22.275 10.65 21.5624 9.89999 20.6624 9.89999H18.6374C17.775 9.89999 17.025 10.6125 17.025 11.5125V21.1875H14.6249V13.6875C14.6249 12.825 13.9124 12.075 13.0125 12.075H10.9874C10.1249 12.075 9.37495 12.7875 9.37495 13.6875V21.15H6.93745V16.2375C6.93745 15.375 6.22495 14.625 5.32495 14.625H3.29995C2.43745 14.625 1.68745 15.3375 1.68745 16.2375V21.15H1.49995C1.04995 21.15 0.637451 21.525 0.637451 22.0125C0.637451 22.5 1.04995 22.875 1.49995 22.875H22.4999C22.9499 22.875 23.3624 22.5 23.3624 22.0125C23.3624 21.525 22.9499 21.1875 22.4999 21.1875ZM3.41245 21.1875V16.35H5.24995V21.1875H3.41245ZM11.0625 21.1875V13.8H12.9V21.1875H11.0625ZM18.7499 21.1875V11.625H20.5875V21.1875H18.7499Z" fill="#161A23"/>
<path d="M3.89994 9.3375C3.97494 9.3375 4.04994 9.3375 4.12494 9.3L18.7499 4.9875L18.2999 5.625C18.0374 6.0375 18.1874 6.525 18.5624 6.7875C18.7124 6.8625 18.8624 6.9 19.0124 6.9C19.2749 6.9 19.5749 6.75 19.7249 6.4875L21.2999 3.975C21.5624 3.5625 21.4124 3.075 21.0374 2.8125L18.5249 1.2375C18.1499 0.975001 17.6249 1.125 17.3624 1.5C17.0999 1.875 17.2499 2.4375 17.6249 2.7L18.5249 3.2625L3.67494 7.6875C3.22494 7.8375 2.96244 8.2875 3.11244 8.7375C3.18744 9.1125 3.52494 9.3375 3.89994 9.3375Z" fill="#161A23"/>
</svg>
