<svg width="24" height="24" viewBox="0 0 24 24" fill="none" xmlns="http://www.w3.org/2000/svg">
<path d="M22.4999 21.15H22.275V12.9C22.275 12.0375 21.5624 11.325 20.6624 11.325H18.6374C17.775 11.325 17.025 12.0375 17.025 12.9V21.15H14.6249V16.5375C14.6249 15.675 13.9124 14.925 13.0125 14.925H10.9874C10.1249 14.925 9.37495 15.6375 9.37495 16.5375V21.15H6.93745V11.5875C6.93745 10.725 6.22495 9.97501 5.32495 9.97501H3.29995C2.43745 9.97501 1.68745 10.6875 1.68745 11.5875V21.15H1.49995C1.04995 21.15 0.637451 21.525 0.637451 22.0125C0.637451 22.5 1.01245 22.875 1.49995 22.875H22.4999C22.9499 22.875 23.3624 22.5 23.3624 22.0125C23.3624 21.525 22.9499 21.15 22.4999 21.15ZM3.41245 21.15V11.6625H5.24995V21.15H3.41245ZM11.0625 21.15V16.6125H12.9V21.15H11.0625ZM18.7499 21.15V13.0125H20.5875V21.15H18.7499Z" fill="#161A23"/>
<path d="M4.0874 6.41251C4.6874 6.41251 5.2499 6.18751 5.6999 5.85001L9.4874 8.32501C9.4124 8.55001 9.3749 8.81251 9.3749 9.03751C9.3749 10.5 10.5374 11.6625 11.9999 11.6625C13.4249 11.6625 14.5874 10.5375 14.6249 9.11251L17.8499 7.76251C18.3374 8.25001 18.9749 8.51251 19.6874 8.51251C21.1124 8.51251 22.3124 7.35001 22.3124 5.88751C22.3124 4.42501 21.1499 3.26251 19.6874 3.26251C18.2249 3.26251 17.0624 4.42501 17.0624 5.88751C17.0624 6.00001 17.0624 6.11251 17.0999 6.22501L14.0999 7.50001C13.6124 6.86251 12.8624 6.41251 11.9999 6.41251C11.4374 6.41251 10.8749 6.60001 10.4624 6.93751L6.6374 4.42501C6.6749 4.23751 6.7124 4.01251 6.7124 3.78751C6.7124 2.32501 5.5499 1.16251 4.0874 1.16251C2.6249 1.16251 1.4624 2.32501 1.4624 3.78751C1.4624 5.25001 2.6249 6.41251 4.0874 6.41251ZM19.6499 4.98751C20.1749 4.98751 20.5874 5.40001 20.5874 5.92501C20.5874 6.45001 20.1749 6.86251 19.6499 6.86251C19.1249 6.86251 18.7499 6.41251 18.7499 5.92501C18.7499 5.40001 19.1624 4.98751 19.6499 4.98751ZM12.9374 9.03751C12.9374 9.56251 12.5249 9.97501 11.9999 9.97501C11.4749 9.97501 11.0624 9.56251 11.0624 9.03751C11.0624 8.51251 11.4749 8.10001 11.9999 8.10001C12.5249 8.10001 12.9374 8.51251 12.9374 9.03751ZM4.0874 2.85001C4.6124 2.85001 5.0249 3.26251 5.0249 3.78751C5.0249 3.97501 4.9874 4.16251 4.8749 4.27501C4.7249 4.53751 4.4249 4.68751 4.0874 4.68751C3.5624 4.68751 3.1499 4.27501 3.1499 3.75001C3.1499 3.22501 3.5624 2.85001 4.0874 2.85001Z" fill="#161A23"/>
</svg>
