<svg width="24" height="24" viewBox="0 0 24 24" fill="none" xmlns="http://www.w3.org/2000/svg">
<path d="M22.4999 21.1875H22.275V11.5125C22.275 10.65 21.5624 9.90001 20.6624 9.90001H18.6374C17.775 9.90001 17.025 10.6125 17.025 11.5125V21.1875H14.6249V13.6875C14.6249 12.825 13.9124 12.075 13.0125 12.075H10.9874C10.1249 12.075 9.37495 12.7875 9.37495 13.6875V21.15H6.93745V16.2375C6.93745 15.375 6.22495 14.625 5.32495 14.625H3.29995C2.43745 14.625 1.68745 15.3375 1.68745 16.2375V21.15H1.49995C1.04995 21.15 0.637451 21.525 0.637451 22.0125C0.637451 22.5 1.04995 22.875 1.49995 22.875H22.4999C22.9499 22.875 23.3624 22.5 23.3624 22.0125C23.3624 21.525 22.9499 21.1875 22.4999 21.1875ZM3.41245 21.1875V16.35H5.24995V21.1875H3.41245ZM11.0625 21.1875V13.8H12.9V21.1875H11.0625ZM18.7499 21.1875V11.625H20.5875V21.1875H18.7499Z" fill="#161A23"/>
<path d="M3.44989 7.6125L5.96239 9.18751C6.11239 9.26251 6.26239 9.3 6.41239 9.3C6.67489 9.3 6.97489 9.15001 7.12489 8.88751C7.38739 8.47501 7.23739 7.98751 6.86239 7.72501L5.96239 7.16251L20.8499 2.77501C21.2999 2.62501 21.5624 2.17501 21.4124 1.72501C21.2624 1.27501 20.8124 1.01251 20.3624 1.16251L5.77489 5.51251L6.18739 4.83751C6.44989 4.42501 6.29989 3.93751 5.92489 3.67501C5.51239 3.41251 5.02489 3.56251 4.76239 3.93751L3.18739 6.45001C2.92489 6.86251 3.07489 7.38751 3.44989 7.6125Z" fill="#161A23"/>
</svg>
