<svg width="24" height="24" viewBox="0 0 24 24" fill="none" xmlns="http://www.w3.org/2000/svg">
<g clip-path="url(#clip0_501_48287)">
<path d="M22.5 21.675H19.65V10.875C19.65 10.425 19.275 10.0125 18.7875 10.0125C18.3 10.0125 17.925 10.3875 17.925 10.875V21.6375H13.575V14.4375C13.575 13.9875 13.2 13.575 12.7125 13.575C12.2625 13.575 11.85 13.95 11.85 14.4375V21.6375H7.23755V18C7.23755 17.55 6.86255 17.1375 6.37505 17.1375C5.88755 17.1375 5.51255 17.5125 5.51255 18V21.6375H2.36255V1.50001C2.36255 1.05001 1.98755 0.637512 1.50005 0.637512C1.01255 0.637512 0.675049 1.05001 0.675049 1.50001V22.5C0.675049 22.95 1.05005 23.3625 1.53755 23.3625H22.5375C22.9875 23.3625 23.4 22.9875 23.4 22.5C23.4 22.0125 22.95 21.675 22.5 21.675Z" fill="#161A23"/>
<path d="M6.225 14.6625C7.8 14.6625 9.075 13.3875 9.075 11.8125C9.075 11.5125 9.0375 11.2125 8.925 10.95L10.3875 10.05C10.875 10.5 11.55 10.7625 12.2625 10.7625C13.8375 10.7625 15.1125 9.48751 15.1125 7.91251C15.1125 7.65001 15.075 7.38751 15 7.16251L16.9125 6.11251C17.4375 6.60001 18.1125 6.90001 18.8625 6.90001C20.4375 6.90001 21.7125 5.62501 21.7125 4.05001C21.7125 2.47501 20.4375 1.20001 18.8625 1.20001C17.2875 1.20001 16.0125 2.47501 16.0125 4.05001C16.0125 4.23751 16.05 4.42501 16.0875 4.61251L14.0625 5.73751C13.575 5.32501 12.9375 5.10001 12.2625 5.10001C10.6875 5.10001 9.4125 6.37501 9.4125 7.95001C9.4125 8.17501 9.45 8.40001 9.4875 8.62501L7.9125 9.60001C7.425 9.22501 6.825 9.00001 6.1875 9.00001C4.65 9.00001 3.375 10.275 3.375 11.85C3.375 13.3875 4.65 14.6625 6.225 14.6625ZM18.825 2.92501C19.4625 2.92501 19.9875 3.45001 19.9875 4.08751C19.9875 4.72501 19.4625 5.25001 18.825 5.25001C18.1875 5.25001 17.6625 4.72501 17.6625 4.08751C17.6625 3.45001 18.1875 2.92501 18.825 2.92501ZM12.225 6.78751C12.8625 6.78751 13.3875 7.31251 13.3875 7.95001C13.3875 8.58751 12.8625 9.11251 12.225 9.11251C11.5875 9.11251 11.0625 8.58751 11.0625 7.95001C11.0625 7.31251 11.5875 6.78751 12.225 6.78751ZM6.225 10.6875C6.8625 10.6875 7.3875 11.2125 7.3875 11.85C7.3875 12.4875 6.8625 13.0125 6.225 13.0125C5.5875 13.0125 5.0625 12.4875 5.0625 11.85C5.0625 11.2125 5.5875 10.6875 6.225 10.6875Z" fill="#161A23"/>
</g>
<defs>
<clipPath id="clip0_501_48287">
<rect width="24" height="24" fill="white"/>
</clipPath>
</defs>
</svg>
