<svg width="24" height="24" viewBox="0 0 24 24" fill="none" xmlns="http://www.w3.org/2000/svg">
<path d="M22.4999 17.4H22.275V6.4875C22.275 5.625 21.5624 4.875 20.6624 4.875H18.6374C17.775 4.875 17.025 5.5875 17.025 6.4875V17.4H14.6249V8.5875C14.6249 7.725 13.9124 6.975 13.0125 6.975H10.9874C10.1249 6.975 9.37495 7.6875 9.37495 8.5875V17.4H6.93745V11.025C6.93745 10.1625 6.22495 9.4125 5.32495 9.4125H3.29995C2.43745 9.4125 1.68745 10.125 1.68745 11.025V17.4H1.49995C1.04995 17.4 0.637451 17.775 0.637451 18.2625C0.637451 18.75 1.01245 19.125 1.49995 19.125H22.4999C22.9499 19.125 23.3624 18.75 23.3624 18.2625C23.3624 17.775 22.9499 17.4 22.4999 17.4ZM3.41245 17.4V11.1375H5.24995V17.4H3.41245ZM11.0625 17.4V8.7H12.9V17.4H11.0625ZM18.7499 17.4V6.6H20.5875V17.4H18.7499Z" fill="#161A23"/>
</svg>
