<svg width="24" height="24" viewBox="0 0 24 24" fill="none" xmlns="http://www.w3.org/2000/svg">
<path d="M22.4999 18.8625H22.275V10.6125C22.275 9.75001 21.5624 9.00001 20.6624 9.00001H18.6374C17.775 9.00001 17.025 9.71251 17.025 10.6125V18.8625H14.6249V14.25C14.6249 13.3875 13.9124 12.6375 13.0125 12.6375H10.9874C10.1249 12.675 9.37495 13.3875 9.37495 14.25V18.8625H6.93745V5.02501C6.93745 4.16251 6.22495 3.41251 5.32495 3.41251H3.29995C2.43745 3.41251 1.68745 4.12501 1.68745 5.02501V18.8625H1.49995C1.04995 18.8625 0.637451 19.2375 0.637451 19.725C0.637451 20.2125 1.01245 20.5875 1.49995 20.5875H22.4999C22.9499 20.5875 23.3624 20.2125 23.3624 19.725C23.3624 19.2375 22.9499 18.8625 22.4999 18.8625ZM3.41245 18.8625V5.13751H5.24995V18.9H3.41245V18.8625ZM11.0625 18.8625V14.3625H12.9V18.9H11.0625V18.8625ZM18.7499 18.8625V10.725H20.5875V18.8625H18.7499Z" fill="#161A23"/>
</svg>
