<svg width="24" height="24" viewBox="0 0 24 24" fill="none" xmlns="http://www.w3.org/2000/svg">
<path d="M22.4999 17.55H22.275V9.71251C22.275 8.85001 21.5624 8.10001 20.6624 8.10001H18.6374C17.775 8.10001 17.025 8.81251 17.025 9.71251V17.55H14.6249V6.33751C14.6249 5.47501 13.9124 4.72501 13.0125 4.72501H10.9874C10.1249 4.72501 9.37495 5.43751 9.37495 6.33751V17.55H6.93745V11.175C6.93745 10.3125 6.22495 9.56251 5.32495 9.56251H3.29995C2.43745 9.56251 1.68745 10.275 1.68745 11.175V17.55H1.49995C1.04995 17.55 0.637451 17.925 0.637451 18.4125C0.637451 18.9 1.01245 19.275 1.49995 19.275H22.4999C22.9499 19.275 23.3624 18.9 23.3624 18.4125C23.3624 17.925 22.9499 17.55 22.4999 17.55ZM3.41245 17.55V11.2875H5.24995V17.5875H3.41245V17.55ZM11.0625 17.55V6.45001H12.9V17.5875H11.0625V17.55ZM18.7499 17.55V9.82501H20.5875V17.55H18.7499Z" fill="#161A23"/>
</svg>
