<svg width="24" height="24" viewBox="0 0 24 24" fill="none" xmlns="http://www.w3.org/2000/svg">
<path d="M23.0625 5.6625V5.625C23.0625 5.5875 23.0625 5.55 23.0625 5.5125C23.0625 5.475 23.0625 5.475 23.0625 5.4375C23.0625 5.4 23.0625 5.3625 23.0625 5.3625C23.0625 5.325 23.0625 5.325 23.025 5.2875C23.025 5.25 23.025 5.25 22.9875 5.2125C22.9875 5.175 22.95 5.175 22.95 5.1375C22.95 5.1 22.9125 5.1 22.9125 5.0625C22.875 5.025 22.875 5.025 22.8375 4.9875L22.8 4.95C22.7625 4.9125 22.7625 4.9125 22.725 4.875L22.6875 4.8375H22.65C22.6125 4.8 22.575 4.8 22.5375 4.8H22.5C22.4625 4.8 22.425 4.7625 22.3875 4.7625L18.6375 4.2375C18.1875 4.1625 17.7375 4.5 17.7 4.95C17.6625 5.4 17.9625 5.85 18.4125 5.8875L20.1 6.1125L18.075 7.6125C17.7 6.4125 17.0625 5.2875 16.125 4.35C14.6625 2.8875 12.7125 2.0625 10.65 2.0625C8.58751 2.0625 6.63751 2.8875 5.17501 4.35C3.71251 5.8125 2.88751 7.7625 2.88751 9.825C2.88751 10.05 2.88751 10.275 2.92501 10.4625L1.16251 11.8125C0.787506 12.1125 0.712506 12.6375 1.01251 13.0125C1.16251 13.2375 1.42501 13.35 1.68751 13.35C1.87501 13.35 2.06251 13.275 2.21251 13.1625L3.33751 12.3C3.71251 13.425 4.35001 14.4375 5.21251 15.3C6.71251 16.8 8.70001 17.5875 10.6875 17.5875C12.4125 17.5875 14.1375 17.025 15.5625 15.8625L21.075 21.375C21.225 21.525 21.45 21.6375 21.675 21.6375C21.9 21.6375 22.125 21.5625 22.275 21.375C22.6125 21.0375 22.6125 20.5125 22.275 20.175L16.65 14.7C17.8875 13.1625 18.4125 11.325 18.3375 9.45L21.15 7.3875L20.925 9.15C20.85 9.6 21.1875 10.05 21.6375 10.0875C21.675 10.0875 21.7125 10.0875 21.75 10.0875C22.1625 10.0875 22.5375 9.7875 22.575 9.375L23.0625 5.6625C23.0625 5.7 23.0625 5.7 23.0625 5.6625ZM6.26251 5.55C7.42501 4.3875 8.92501 3.7875 10.575 3.7875C12.225 3.7875 13.725 4.425 14.8875 5.55C15.7875 6.45 16.3125 7.5375 16.5375 8.7L13.3125 11.0625C13.05 11.25 12.675 11.2125 12.45 10.95L9.86251 7.95C9.00001 6.975 7.53751 6.825 6.52501 7.6125L4.53751 9.15C4.68751 7.8 5.28751 6.525 6.26251 5.55ZM14.8875 14.1375C14.85 14.1375 14.8875 14.1375 14.8875 14.1375C12.4875 16.5375 8.66251 16.5 6.26251 14.1375C5.43751 13.3125 4.91251 12.3 4.65001 11.2125L7.53751 8.9625C7.83751 8.7375 8.28751 8.775 8.55001 9.075L11.1375 12.075C11.925 12.975 13.275 13.125 14.25 12.4125L16.5375 10.725C16.3875 11.9625 15.825 13.1625 14.8875 14.1375Z" fill="#161A23"/>
</svg>
