<svg width="24" height="24" viewBox="0 0 24 24" fill="none" xmlns="http://www.w3.org/2000/svg">
<path d="M17.3625 4.83749C16.0125 4.83749 14.925 5.92499 14.925 7.27499C14.925 7.34999 14.925 7.46249 14.925 7.53749L14.025 8.13749L13.0125 7.79999C12.7125 6.78749 11.775 6.07499 10.6875 6.07499C9.33745 6.07499 8.24995 7.16249 8.24995 8.51249C8.24995 8.73749 8.28745 8.92499 8.32495 9.11249C8.06245 9.33749 7.72495 9.56249 7.46245 9.78749C7.04995 9.52499 6.59995 9.33749 6.07495 9.33749C4.72495 9.33749 3.63745 10.425 3.63745 11.775C3.63745 13.125 4.72495 14.2125 6.07495 14.2125C7.42495 14.2125 8.51245 13.125 8.51245 11.775C8.51245 11.55 8.47495 11.3625 8.43745 11.175C8.69995 10.95 9.03745 10.725 9.29995 10.5C9.71245 10.7625 10.1625 10.95 10.6875 10.95C11.6625 10.95 12.4875 10.3875 12.9 9.56249L13.65 9.82499C13.8 9.86249 13.9125 9.89999 14.0625 9.89999C14.325 9.89999 14.5875 9.82499 14.8125 9.67499L15.675 9.11249C16.125 9.52499 16.6875 9.74999 17.325 9.74999C18.675 9.74999 19.7625 8.66249 19.7625 7.31249C19.7625 5.96249 18.7125 4.83749 17.3625 4.83749ZM6.07495 12.525C5.66245 12.525 5.32495 12.1875 5.32495 11.775C5.32495 11.3625 5.66245 11.025 6.07495 11.025C6.48745 11.025 6.82495 11.3625 6.82495 11.775C6.82495 12.1875 6.48745 12.525 6.07495 12.525ZM10.6875 9.22499C10.275 9.22499 9.93745 8.88749 9.93745 8.47499C9.93745 8.06249 10.275 7.72499 10.6875 7.72499C11.1 7.72499 11.4375 8.06249 11.4375 8.47499C11.4375 8.88749 11.1 9.22499 10.6875 9.22499ZM17.3625 8.02499C16.95 8.02499 16.6125 7.68749 16.6125 7.27499C16.6125 6.86249 16.95 6.52499 17.3625 6.52499C17.775 6.52499 18.1125 6.86249 18.1125 7.27499C18.1125 7.68749 17.775 8.02499 17.3625 8.02499Z" fill="#161A23"/>
<path d="M21.3749 2.21249H2.62495C1.34995 2.21249 0.262451 3.26249 0.262451 4.57499V14.475C0.262451 15.75 1.31245 16.8375 2.62495 16.8375H11.1749V20.1375H7.04995C6.59995 20.1375 6.18745 20.5125 6.18745 21C6.18745 21.4875 6.56245 21.8625 7.04995 21.8625H16.9499C17.4 21.8625 17.8125 21.4875 17.8125 21C17.8125 20.5125 17.4375 20.1375 16.9499 20.1375H12.8624V16.8375H21.3749C22.65 16.8375 23.7374 15.7875 23.7374 14.475V4.53749C23.7374 3.26249 22.65 2.21249 21.3749 2.21249ZM22.0499 14.4375C22.0499 14.8125 21.7499 15.1125 21.3749 15.1125H2.62495C2.24995 15.1125 1.94995 14.8125 1.94995 14.4375V4.53749C1.94995 4.16249 2.24995 3.86249 2.62495 3.86249H21.3749C21.7499 3.86249 22.0499 4.16249 22.0499 4.53749V14.4375Z" fill="#161A23"/>
</svg>
