<svg width="24" height="20" viewBox="0 0 24 20" fill="none" xmlns="http://www.w3.org/2000/svg">
<path d="M1.49995 4.67501C1.94995 4.67501 2.36245 4.30001 2.36245 3.81251V2.31251C2.36245 2.08751 2.54995 1.86251 2.81245 1.86251H3.71245C4.16245 1.86251 4.57495 1.48751 4.57495 1.00001C4.57495 0.512512 4.19995 0.137512 3.71245 0.137512H2.77495C1.61245 0.137512 0.637451 1.07501 0.637451 2.27501V3.77501C0.674951 4.30001 1.04995 4.67501 1.49995 4.67501Z" fill="#5D6068"/>
<path d="M22.5 15.325C22.05 15.325 21.6375 15.7 21.6375 16.1875V17.6875C21.6375 17.9125 21.45 18.1375 21.1875 18.1375H20.2875C19.8375 18.1375 19.425 18.5125 19.425 19C19.425 19.4875 19.8 19.8625 20.2875 19.8625H21.1875C22.35 19.8625 23.325 18.925 23.325 17.725V16.225C23.3625 15.7 22.95 15.325 22.5 15.325Z" fill="#5D6068"/>
<path d="M10.3125 10.9375H9.37495C9.26245 10.9375 9.14995 10.825 9.14995 10.7125C9.14995 10.6 9.26245 10.4875 9.37495 10.4875H9.89995H11.3625C11.8125 10.4875 12.225 10.1125 12.225 9.66252C12.225 9.21252 11.85 8.80002 11.3625 8.80002H10.725V8.72502C10.725 8.27502 10.35 7.86252 9.86245 7.86252C9.37495 7.86252 8.99995 8.23752 8.99995 8.72502V8.83752C8.09995 8.98752 7.38745 9.77502 7.38745 10.7125C7.38745 11.7625 8.24995 12.625 9.29995 12.625H10.2375C10.35 12.625 10.4625 12.7375 10.4625 12.85C10.4625 12.9625 10.35 13.075 10.2375 13.075H8.24995C7.79995 13.075 7.38745 13.45 7.38745 13.9375C7.38745 14.425 7.76245 14.8 8.24995 14.8H8.99995V14.875C8.99995 15.325 9.37495 15.7375 9.86245 15.7375C10.35 15.7375 10.725 15.3625 10.725 14.875V14.7625C11.55 14.575 12.1875 13.825 12.1875 12.925C12.2625 11.8 11.4 10.9375 10.3125 10.9375Z" fill="#5D6068"/>
<path d="M21.2249 1.78751H7.04995C5.88745 1.78751 4.91245 2.72501 4.91245 3.92501V5.65001H2.62495C1.53745 5.65001 0.637451 6.55001 0.637451 7.63751V16.0375C0.637451 17.125 1.53745 18.025 2.62495 18.025H17.0999C18.1874 18.025 19.0875 17.125 19.0875 16.0375V14.1625H21.2249C22.3874 14.1625 23.3624 13.225 23.3624 12.025V3.92501C23.3624 2.72501 22.3874 1.78751 21.2249 1.78751ZM17.4 15.9625C17.4 16.1125 17.2874 16.2625 17.0999 16.2625H2.62495C2.47495 16.2625 2.32495 16.15 2.32495 15.9625V7.60001C2.32495 7.45001 2.43745 7.30001 2.62495 7.30001H17.0999C17.2499 7.30001 17.4 7.41251 17.4 7.60001V15.9625ZM21.6749 11.9875C21.6749 12.2125 21.4874 12.4375 21.2249 12.4375H19.0875V7.60001C19.0875 6.51251 18.1874 5.61251 17.0999 5.61251H6.59995V3.88751C6.59995 3.66251 6.78745 3.43751 7.04995 3.43751H21.2249C21.4499 3.43751 21.6749 3.62501 21.6749 3.88751V11.9875Z" fill="#5D6068"/>
<path d="M5.73745 10.975H4.49995C4.04995 10.975 3.63745 11.35 3.63745 11.8375C3.63745 12.325 4.01245 12.7 4.49995 12.7H5.73745C6.18745 12.7 6.59995 12.325 6.59995 11.8375C6.59995 11.35 6.22495 10.975 5.73745 10.975Z" fill="#5D6068"/>
<path d="M15.5624 10.975H14.3249C13.8749 10.975 13.4624 11.35 13.4624 11.8375C13.4624 12.325 13.8374 12.7 14.3249 12.7H15.5624C16.0124 12.7 16.4249 12.325 16.4249 11.8375C16.4249 11.35 16.0124 10.975 15.5624 10.975Z" fill="#5D6068"/>
</svg>
