<svg width="24" height="24" viewBox="0 0 24 24" fill="none" xmlns="http://www.w3.org/2000/svg">
<path d="M21.9375 17.4375C21.45 15.9375 19.9501 15.075 18.525 15.4875C17.3625 15.825 15.825 16.275 14.5875 16.65C14.6625 16.275 14.5875 15.9375 14.475 15.675C14.1375 14.8125 13.1625 14.4375 12.375 14.4375H8.88755C8.62505 14.4375 8.32505 14.2875 8.06255 14.025C7.65005 13.65 7.12505 13.4625 6.60005 13.4625H3.78755C2.51255 13.4625 1.42505 14.55 1.42505 15.9V20.3625C1.42505 21.7125 2.51255 22.8375 3.82505 22.8375H7.23755C7.65005 22.8375 8.10005 22.725 8.47505 22.5C9.48755 23.0625 10.6125 23.325 11.7375 23.325C12.45 23.325 13.125 23.2125 13.7625 23.025L20.0625 21.1125H20.1C22.0125 20.3625 22.3125 18.675 21.9375 17.4375C21.975 17.4375 21.975 17.4375 21.9375 17.4375ZM3.15005 20.4V15.9C3.15005 15.4875 3.45005 15.15 3.82505 15.15H6.63755C6.78755 15.15 6.90005 15.225 6.97505 15.2625C7.08755 15.3375 7.16255 15.4125 7.27505 15.4875V21.15H3.90005C3.45005 21.1875 3.15005 20.8125 3.15005 20.4ZM19.5375 19.5L13.2375 21.4125C12.75 21.5625 12.2625 21.6375 11.7 21.6375C10.8375 21.6375 9.97505 21.4125 9.22505 21L8.92505 20.85V16.125H12.4125C12.675 16.125 12.9 16.2375 12.9375 16.3125C12.975 16.3875 12.9 16.7625 12.1875 17.4C11.8875 17.6625 11.85 18.1125 12.0375 18.45C12.375 19.05 12.75 18.9375 13.95 18.6C14.5125 18.45 15.2625 18.225 16.0125 18C17.5126 17.55 19.0126 17.1 19.0126 17.1C19.5751 16.95 20.1375 17.2875 20.3625 17.925C20.475 18.45 20.4375 19.1625 19.5375 19.5Z" fill="#161A23"/>
<path d="M16.125 12.3375V13.125C16.125 13.575 16.5 13.9875 16.9875 13.9875C17.475 13.9875 17.85 13.6125 17.85 13.125V7.04999C18.9 6.97499 20.0625 6.41249 21 5.47499C22.275 4.19999 22.8375 2.58749 22.5 1.34999C22.35 1.04999 22.125 0.824995 21.8625 0.749995C20.625 0.374995 18.975 0.974995 17.7375 2.24999C16.6875 3.29999 16.125 4.57499 16.1625 5.69999V5.73749V7.46249C14.925 6.2625 13.35 5.73749 12.1125 6.075C11.8125 6.14999 11.625 6.37499 11.5125 6.6375C11.1375 7.87499 11.7375 9.52499 13.0125 10.7625C13.95 11.7375 15.075 12.2625 16.125 12.3375ZM18.9 3.44999C19.5375 2.81249 20.25 2.47499 20.8125 2.36249C20.7375 2.92499 20.4 3.63749 19.725 4.27499C19.0875 4.91249 18.375 5.24999 17.8125 5.36249C17.925 4.79999 18.2625 4.08749 18.9 3.44999ZM15.0375 8.73749C15.675 9.37499 16.0125 10.0875 16.125 10.65C15.5625 10.575 14.85 10.2375 14.2125 9.5625C13.575 8.925 13.2375 8.21249 13.125 7.64999C13.6875 7.7625 14.4 8.09999 15.0375 8.73749Z" fill="#161A23"/>
</svg>
