<svg width="24" height="24" viewBox="0 0 24 24" fill="none" xmlns="http://www.w3.org/2000/svg">
<g clip-path="url(#clip0_501_45081)">
<path d="M22.125 17.2126C21.92 16.4898 21.439 15.8766 20.7858 15.5054C20.1326 15.1343 19.3596 15.0349 18.6337 15.2288C17.31 15.6038 15.495 16.1588 14.1337 16.5526C14.2583 16.1585 14.2438 15.7335 14.0925 15.3488C13.7475 14.4901 12.7912 14.1076 11.9925 14.1076H8.24998C7.8674 14.0855 7.50781 13.9177 7.24498 13.6388C6.84601 13.2725 6.32414 13.0691 5.78248 13.0688H2.74123C2.10102 13.0826 1.4924 13.3497 1.04882 13.8116C0.605245 14.2734 0.362921 14.8923 0.374983 15.5326V20.3551C0.367515 20.679 0.423995 21.0011 0.541188 21.3032C0.658382 21.6052 0.833989 21.8811 1.05796 22.1152C1.28193 22.3493 1.54986 22.5369 1.84642 22.6673C2.14298 22.7977 2.46234 22.8683 2.78623 22.8751H6.43873C6.90783 22.8729 7.3658 22.732 7.75498 22.4701L7.79998 22.4926C8.86354 23.079 10.058 23.3873 11.2725 23.3888C11.9949 23.3921 12.7134 23.2833 13.4025 23.0663L20.19 21.0001H20.235C20.6078 20.8811 20.9533 20.6893 21.2515 20.4359C21.5497 20.1824 21.7947 19.8723 21.9722 19.5236C22.1497 19.1748 22.2563 18.7943 22.2857 18.404C22.3152 18.0138 22.2669 17.6216 22.1437 17.2501L22.125 17.2126ZM2.78623 21.3751C2.65927 21.3684 2.5349 21.3366 2.42026 21.2817C2.30563 21.2267 2.203 21.1496 2.1183 21.0548C2.0336 20.96 1.96849 20.8493 1.92673 20.7292C1.88497 20.6092 1.86739 20.482 1.87498 20.3551V15.5326C1.8637 15.2903 1.94828 15.0534 2.1104 14.873C2.27252 14.6926 2.49915 14.5834 2.74123 14.5688H5.77873C5.94628 14.5688 6.10741 14.6333 6.22873 14.7488C6.34828 14.8531 6.47347 14.9508 6.60373 15.0413V21.3451C6.55138 21.3506 6.49859 21.3506 6.44623 21.3451L2.78623 21.3751ZM19.7287 19.5676L12.9562 21.6226C12.4115 21.794 11.8435 21.88 11.2725 21.8776C10.3079 21.8759 9.35958 21.6295 8.51623 21.1613L8.09623 20.9401V15.6001H8.24623H12C12.1337 15.5874 12.2685 15.6082 12.3923 15.6605C12.516 15.7129 12.6247 15.7952 12.7087 15.9001C12.7687 16.0538 12.6637 16.5113 11.8762 17.2613L11.445 17.6701L11.7412 18.1801C12.0637 18.7501 12.0637 18.7501 15.8512 17.6251C17.46 17.1563 19.065 16.6763 19.065 16.6763C19.4123 16.5951 19.7775 16.6522 20.0834 16.8356C20.3893 17.019 20.6118 17.3143 20.7037 17.6588C20.7709 17.8472 20.7988 18.0472 20.7856 18.2467C20.7724 18.4462 20.7185 18.6409 20.6271 18.8187C20.5357 18.9965 20.4089 19.1537 20.2543 19.2806C20.0998 19.4075 19.9209 19.5013 19.7287 19.5563V19.5676Z" fill="#161A23"/>
<path d="M23.595 3.83997C23.5714 3.55672 23.4487 3.29086 23.2484 3.08919C23.0481 2.88752 22.7831 2.76297 22.5 2.73747C21.5662 2.66622 19.8187 2.73747 18.5962 3.94122C18.3906 4.14582 18.2094 4.3736 18.0562 4.61997C17.9599 3.70266 17.5931 2.83468 17.0025 2.12622C15.8775 0.858721 14.0025 0.644971 13.005 0.626221C12.7011 0.629287 12.4096 0.746806 12.1886 0.955331C11.9675 1.16386 11.8332 1.44805 11.8125 1.75122C11.7337 2.82372 11.7712 4.81497 12.8887 6.06747C13.815 7.10622 15.24 7.31622 16.2637 7.31622C16.5143 7.31796 16.7647 7.30544 17.0137 7.27872V12.7837C17.0137 12.9826 17.0928 13.1734 17.2334 13.3141C17.3741 13.4547 17.5648 13.5337 17.7637 13.5337C17.9627 13.5337 18.1534 13.4547 18.2941 13.3141C18.4347 13.1734 18.5137 12.9826 18.5137 12.7837V9.40872C19.5787 9.38997 21.3562 9.17997 22.4625 8.08122C23.655 6.85872 23.685 4.89747 23.595 3.83997ZM16.5937 5.81997C15.81 5.86872 14.6137 5.77497 13.9912 5.06997C13.2937 4.29372 13.2412 2.84622 13.275 2.13372C13.9912 2.17872 15.1987 2.36997 15.8662 3.11622C16.5337 3.86247 16.6237 5.11497 16.5937 5.81997ZM21.375 7.03122C20.6512 7.75122 19.3237 7.90122 18.5287 7.92372C18.63 7.11372 18.9037 5.74872 19.6537 5.00247C20.3212 4.33872 21.3337 4.21872 21.9862 4.21872H22.125C22.1475 4.89747 22.125 6.28497 21.375 7.03122Z" fill="#161A23"/>
</g>
<defs>
<clipPath id="clip0_501_45081">
<rect width="24" height="24" fill="white"/>
</clipPath>
</defs>
</svg>
