<svg width="24" height="24" viewBox="0 0 24 24" fill="none" xmlns="http://www.w3.org/2000/svg">
<g clip-path="url(#clip0_501_51271)">
<path d="M21.0375 17.5125C20.5875 16.0125 19.0875 15.1875 17.6625 15.6C16.5375 15.9375 15 16.3875 13.8 16.725C13.875 16.35 13.8 16.05 13.6875 15.7875C13.35 14.925 12.4125 14.55 11.625 14.55H8.17495C7.91245 14.55 7.64995 14.4375 7.34995 14.175C6.93745 13.8 6.44995 13.6125 5.88745 13.6125H3.14995C1.87495 13.6125 0.824951 14.7 0.824951 16.0125V20.4375C0.824951 21.7875 1.87495 22.875 3.18745 22.875H6.52495C6.93745 22.875 7.34995 22.7625 7.72495 22.5375C8.69995 23.0625 9.82495 23.3625 10.95 23.3625C11.6625 23.3625 12.3375 23.25 12.9375 23.0625L19.125 21.1875H19.1625C21.1124 20.4 21.375 18.75 21.0375 17.5125ZM2.51245 20.4375V16.0125C2.51245 15.6 2.81245 15.3 3.14995 15.3H5.92495C6.03745 15.3 6.14995 15.3375 6.22495 15.4125C6.29995 15.4875 6.41245 15.5625 6.52495 15.6375V21.1875H3.18745C2.81245 21.1875 2.51245 20.85 2.51245 20.4375ZM18.6375 19.5375L12.45 21.4125C11.9625 21.5625 11.475 21.6375 10.95 21.6375C10.0875 21.6375 9.26245 21.4125 8.51245 21L8.21245 20.85V16.2375H11.625C11.8875 16.2375 12.1125 16.35 12.1125 16.425C12.15 16.4625 12.075 16.8375 11.4 17.5125C11.1 17.775 11.0625 18.225 11.25 18.5625C11.5875 19.1625 11.9625 19.05 13.1625 18.7125C13.725 18.5625 14.475 18.3375 15.1875 18.1125C16.65 17.6625 18.1124 17.25 18.1124 17.25C18.6749 17.1 19.2374 17.4375 19.4249 18.0375C19.575 18.525 19.5375 19.2 18.6375 19.5375Z" fill="#161A23"/>
<path d="M23.1 1.2C22.9875 0.9375 22.725 0.7125 22.3876 0.7125C20.625 0.5625 18.75 0.6 17.25 2.0625C16.6875 2.625 16.35 3.45 16.3125 4.3125C16.3125 4.875 16.4625 5.4 16.725 5.85C15.75 6.6375 15 7.6125 14.475 8.7C14.025 7.725 13.3875 6.8625 12.5625 6.15C12.975 5.6625 13.1625 4.9875 13.1625 4.3125C13.1625 3.45 12.825 2.625 12.225 2.0625C10.725 0.6 8.85005 0.5625 7.08755 0.7125C6.78755 0.75 6.52505 0.9375 6.37505 1.2C6.26255 1.4625 6.30005 1.8 6.48755 2.0625C6.97505 2.7375 7.12505 3.4125 7.27505 4.125C7.42505 4.875 7.57505 5.6625 8.21255 6.3C8.77505 6.825 9.60005 7.1625 10.425 7.1625C10.65 7.1625 10.8375 7.125 11.0625 7.0875C12.75 8.4 13.6125 10.3125 13.6125 12.675C13.6125 13.125 13.9875 13.5375 14.475 13.5375C14.9625 13.5375 15.3375 13.1625 15.3375 12.675C15.3375 10.2 16.2375 8.2875 18.075 6.9375C18.4125 7.05 18.75 7.125 19.125 7.125C19.95 7.125 20.775 6.7875 21.3375 6.2625C21.975 5.6625 22.125 4.875 22.275 4.0875C22.425 3.375 22.5375 2.7 23.0625 2.025C23.175 1.8375 23.2125 1.5 23.1 1.2ZM9.37505 5.0625C9.15005 4.8375 9.03755 4.425 8.92505 3.7875C8.85005 3.3375 8.73755 2.85 8.55005 2.325C9.56255 2.3625 10.3875 2.5875 11.0625 3.2625C11.2875 3.4875 11.475 3.9 11.475 4.3125C11.475 4.6875 11.3625 4.9875 11.175 5.175C10.6875 5.6625 9.82505 5.5125 9.37505 5.0625ZM20.55 3.7875C20.4375 4.425 20.325 4.8375 20.1 5.0625C19.65 5.5125 18.7875 5.6625 18.3375 5.175C18.15 4.9875 18.0375 4.65 18.0375 4.3125C18.0375 3.9 18.1875 3.525 18.45 3.2625C19.1625 2.5875 19.95 2.3625 20.9625 2.325C20.7375 2.85 20.6625 3.375 20.55 3.7875Z" fill="#161A23"/>
</g>
<defs>
<clipPath id="clip0_501_51271">
<rect width="24" height="24" fill="white"/>
</clipPath>
</defs>
</svg>
