<svg width="24" height="24" viewBox="0 0 24 24" fill="none" xmlns="http://www.w3.org/2000/svg">
<path d="M6.52499 5.17501C7.27499 5.73751 8.84999 7.01251 9.86249 8.77501C10.0875 9.18751 10.6125 9.33751 11.025 9.07501C11.4375 8.81251 11.5875 8.32501 11.325 7.91251C9.78749 5.21251 7.12499 3.52501 7.01249 3.45001C6.74999 3.30001 6.41249 3.26251 6.14999 3.41251C5.92499 3.56251 0.674988 6.56251 0.674988 11.8875C0.674988 14.925 2.66249 17.5875 5.39999 18.1875C5.47499 18.1875 5.51249 18.225 5.58749 18.225C5.96249 18.225 6.33749 17.9625 6.41249 17.55C6.52499 17.1 6.22499 16.65 5.77499 16.5375C3.78749 16.125 2.36249 14.1375 2.36249 11.8875C2.36249 8.36251 5.39999 5.96251 6.52499 5.17501Z" fill="#161A23"/>
<path d="M11.325 9.71252C10.875 9.71252 10.4625 10.0875 10.4625 10.575V12.825H8.81246V10.575C8.81246 10.125 8.43746 9.71252 7.94996 9.71252C7.46246 9.71252 7.08746 10.0875 7.08746 10.575V16.7625C7.08746 17.2125 7.46246 17.625 7.94996 17.625C8.43746 17.625 8.81246 17.25 8.81246 16.7625V14.5125H10.5V16.7625C10.5 17.2125 10.875 17.625 11.3625 17.625C11.85 17.625 12.225 17.25 12.225 16.7625V10.5375C12.1875 10.0875 11.8125 9.71252 11.325 9.71252Z" fill="#161A23"/>
<path d="M20.925 9.375H20.0625C18.7125 9.375 17.6625 10.4625 17.6625 11.775V14.925C17.6625 16.275 18.75 17.325 20.0625 17.325H20.925C22.275 17.325 23.325 16.2375 23.325 14.925V11.775C23.3625 10.4625 22.275 9.375 20.925 9.375ZM21.675 14.9625C21.675 15.375 21.3375 15.675 20.9625 15.675H20.1C19.6875 15.675 19.3875 15.3375 19.3875 14.9625V11.8125C19.3875 11.4 19.725 11.1 20.1 11.1H20.9625C21.375 11.1 21.675 11.4375 21.675 11.8125V14.9625Z" fill="#161A23"/>
<path d="M17.0625 16.4625C17.0625 15.3 16.125 14.3625 14.9625 14.3625C13.8 14.3625 12.8625 15.3 12.8625 16.4625V16.875C12.8625 17.325 13.2375 17.7375 13.725 17.7375C14.2125 17.7375 14.5875 17.3625 14.5875 16.875V16.4625C14.5875 16.2375 14.775 16.05 15 16.05C15.225 16.05 15.4125 16.2375 15.4125 16.4625C15.4125 16.7625 15.3 17.0625 15.1125 17.2875L13.4625 19.3125C13.275 19.575 13.2 19.9125 13.35 20.2125C13.5 20.5125 13.8 20.7 14.1 20.7H16.2375C16.6875 20.7 17.1 20.325 17.1 19.8375C17.1 19.35 16.725 18.975 16.2375 18.975H15.9L16.425 18.3375C16.8 17.8125 17.0625 17.1375 17.0625 16.4625Z" fill="#161A23"/>
</svg>
