<svg width="24" height="24" viewBox="0 0 24 24" fill="none" xmlns="http://www.w3.org/2000/svg">
<g clip-path="url(#clip0_501_38702)">
<path d="M12 23.3251C5.73755 23.3251 0.675049 18.2626 0.675049 12C0.675049 5.73755 5.73755 0.675049 12 0.675049C18.2626 0.675049 23.3251 5.73755 23.3251 12C23.3251 18.2626 18.2626 23.3251 12 23.3251ZM12 2.32505C6.67505 2.32505 2.32505 6.67505 2.32505 12C2.32505 17.3251 6.67505 21.6751 12 21.6751C17.3251 21.6751 21.6751 17.3251 21.6751 12C21.6751 6.67505 17.3251 2.32505 12 2.32505Z" fill="#161A23"/>
<path d="M12 18.375C8.5125 18.375 5.625 15.525 5.625 12C5.625 8.5125 8.475 5.625 12 5.625C12.45 5.625 12.825 6 12.825 6.45V17.475C12.825 17.9625 12.45 18.375 12 18.375ZM11.175 7.425C9 7.8 7.3125 9.7125 7.3125 12C7.3125 14.2875 8.9625 16.2 11.1375 16.575V7.425H11.175Z" fill="#161A23"/>
</g>
<defs>
<clipPath id="clip0_501_38702">
<rect width="24" height="24" fill="white"/>
</clipPath>
</defs>
</svg>
