<svg width="24" height="24" viewBox="0 0 24 24" fill="none" xmlns="http://www.w3.org/2000/svg">
<path d="M5.96245 15.075L4.68745 16.35C4.34995 16.6875 4.34995 17.2125 4.68745 17.55C4.83745 17.7 5.06245 17.8125 5.28745 17.8125C5.51245 17.8125 5.73745 17.7375 5.88745 17.55L7.16245 16.275C7.49995 15.9375 7.49995 15.4125 7.16245 15.075C6.82495 14.7375 6.29995 14.7375 5.96245 15.075Z" fill="#161A23"/>
<path d="M13.9125 9.15005C14.1375 9.15005 14.3625 9.07505 14.5125 8.88755L15.7875 7.61255C16.125 7.27505 16.125 6.75005 15.7875 6.41255C15.45 6.07505 14.925 6.07505 14.5875 6.41255L13.3125 7.68755C12.975 8.02505 12.975 8.55005 13.3125 8.88755C13.5 9.07505 13.725 9.15005 13.9125 9.15005Z" fill="#161A23"/>
<path d="M17.25 11.1376H15.45C15 11.1376 14.625 11.5126 14.625 11.9626C14.625 12.4126 15 12.7876 15.45 12.7876H17.25C17.7 12.7876 18.075 12.4126 18.075 11.9626C18.075 11.5126 17.7 11.1376 17.25 11.1376Z" fill="#161A23"/>
<path d="M5.88745 6.45002C5.54995 6.11252 5.02495 6.11252 4.68745 6.45002C4.34995 6.78752 4.34995 7.31252 4.68745 7.65002L5.96245 8.92502C6.11245 9.07502 6.33745 9.18752 6.56245 9.18752C6.78745 9.18752 7.01245 9.11252 7.16245 8.92502C7.49995 8.58752 7.49995 8.06252 7.16245 7.72502L5.88745 6.45002Z" fill="#161A23"/>
<path d="M14.5125 15.075C14.175 14.7375 13.65 14.7375 13.3125 15.075C12.975 15.4125 12.975 15.9375 13.3125 16.275L14.5875 17.55C14.7375 17.7 14.9625 17.8125 15.1875 17.8125C15.4125 17.8125 15.6375 17.7375 15.7875 17.55C16.125 17.2125 16.125 16.6875 15.7875 16.35L14.5125 15.075Z" fill="#161A23"/>
<path d="M10.2376 0.675049C9.7876 0.675049 9.4126 1.05005 9.4126 1.50005V22.5001C9.4126 22.9501 9.7876 23.3251 10.2376 23.3251C16.5001 23.3251 21.6001 18.2626 21.6001 12C21.6001 5.73755 16.5001 0.675049 10.2376 0.675049ZM11.1001 21.6V2.40005C16.0126 2.81255 19.9126 6.97505 19.9126 12C19.9126 17.0251 16.0126 21.1875 11.1001 21.6Z" fill="#161A23"/>
<path d="M5.8875 12C5.8875 11.55 5.5125 11.175 5.0625 11.175H3.2625C2.8125 11.175 2.4375 11.55 2.4375 12C2.4375 12.45 2.8125 12.825 3.2625 12.825H5.0625C5.5125 12.825 5.8875 12.45 5.8875 12Z" fill="#161A23"/>
</svg>
