<svg width="24" height="24" viewBox="0 0 24 24" fill="none" xmlns="http://www.w3.org/2000/svg">
<path d="M21.4875 17.175V5.69999C21.4875 4.49999 20.4375 3.56249 19.1625 3.56249C18.9375 3.56249 18.7125 3.59999 18.525 3.63749V3.18749C18.525 1.98749 17.475 1.04999 16.2 1.04999C15.75 1.04999 15.3 1.16249 14.9625 1.38749C14.55 0.937488 13.9125 0.674988 13.2375 0.674988C12.2625 0.674988 11.4 1.23749 11.0625 2.02499C10.8 1.91249 10.5375 1.87499 10.2375 1.87499C8.96252 1.87499 7.91252 2.84999 7.91252 4.01249V12.1125L7.42502 11.5125C6.56252 10.3875 4.98752 10.0125 3.75002 10.6875C3.15002 11.025 2.70002 11.5875 2.55002 12.2625C2.40002 12.9375 2.55002 13.65 3.00002 14.25L6.37502 18.7125C6.56252 18.9375 6.71252 19.2 6.90002 19.425C7.42502 20.175 7.98752 21 8.77502 21.6375C10.275 22.875 12.3 23.325 14.2125 23.325C15.15 23.325 16.0125 23.2125 16.8375 23.0625C21.525 22.05 21.525 18.525 21.4875 17.175ZM16.4625 21.4125C14.5125 21.825 11.5875 21.825 9.86252 20.3625C9.26252 19.8375 8.77502 19.1625 8.28752 18.45C8.10002 18.1875 7.91252 17.925 7.72502 17.6625L4.35002 13.2C4.20002 13.0125 4.16252 12.7875 4.20002 12.6C4.23752 12.4125 4.35002 12.2625 4.53752 12.15C5.02502 11.8875 5.73752 12.075 6.07502 12.525L6.11252 12.5625L8.13752 14.9625C8.36252 15.225 8.73752 15.3375 9.07502 15.225C9.41252 15.1125 9.63752 14.775 9.63752 14.4375V4.01249C9.63752 3.78749 9.93752 3.56249 10.275 3.56249C10.6125 3.56249 10.9125 3.78749 10.9125 4.01249V10.6125C10.9125 11.0625 11.2875 11.475 11.775 11.475C12.2625 11.475 12.6 11.1 12.6 10.6125V2.77499C12.6 2.51249 12.9 2.32499 13.2375 2.32499C13.575 2.32499 13.875 2.54999 13.875 2.81249V10.9125C13.875 11.3625 14.25 11.775 14.7375 11.775C15.225 11.775 15.6 11.4 15.6 10.9125V3.18749C15.6 2.96249 15.9 2.73749 16.2375 2.73749C16.575 2.73749 16.875 2.96249 16.875 3.18749V11.6625C16.875 12.1125 17.25 12.525 17.7375 12.525C18.225 12.525 18.6 12.15 18.6 11.6625V5.66249C18.6375 5.43749 18.9 5.24999 19.2375 5.24999C19.575 5.24999 19.875 5.47499 19.875 5.69999V17.0625V17.2125C19.8375 18.9 19.575 20.7375 16.4625 21.4125Z" fill="#161A23"/>
</svg>
