<svg width="24" height="24" viewBox="0 0 24 24" fill="none" xmlns="http://www.w3.org/2000/svg">
<g clip-path="url(#clip0_501_48269)">
<path d="M22.8375 16.6875C22.35 15.075 20.7375 14.175 19.2001 14.625C17.925 15 16.1625 15.525 14.775 15.9375C14.8875 15.4875 14.8125 15.1125 14.7 14.8125C14.325 13.9125 13.35 13.5 12.4875 13.5H8.70005C8.40005 13.5 8.06255 13.35 7.72505 13.05C7.31255 12.675 6.75005 12.45 6.18755 12.45H3.15005C1.80005 12.45 0.675049 13.6125 0.675049 15.0375V19.9125C0.675049 21.375 1.80005 22.5375 3.18755 22.5375H6.90005C7.35005 22.5375 7.83755 22.3875 8.25005 22.125C9.33755 22.725 10.575 23.025 11.8125 23.025C12.5625 23.025 13.3125 22.9125 13.9875 22.6875L20.8125 20.625H20.85C22.9125 19.8375 23.2125 18.0375 22.8375 16.6875ZM3.18755 20.85C2.73755 20.85 2.36255 20.4375 2.36255 19.9125V15.0375C2.36255 14.55 2.70005 14.1375 3.15005 14.1375H6.22505C6.41255 14.1375 6.56255 14.2125 6.63755 14.2875C6.75005 14.4 6.86255 14.475 6.97505 14.55V20.8125C6.93755 20.8125 6.93755 20.8125 6.90005 20.8125H3.18755V20.85ZM20.2875 19.0125L13.425 21.1125C12.9 21.2625 12.3375 21.375 11.7375 21.375C10.7625 21.375 9.82505 21.1125 9.00005 20.6625L8.62505 20.475V15.225C8.66255 15.225 8.66255 15.225 8.70005 15.225H12.525C12.8625 15.225 13.125 15.375 13.1625 15.4875C13.2 15.6 13.125 16.0125 12.3375 16.7625L11.85 17.2125L12.1875 17.775C12.525 18.375 12.8625 18.2625 14.175 17.8875C14.775 17.7 15.6 17.475 16.425 17.25C18.0375 16.7625 19.6875 16.275 19.6875 16.275C20.325 16.0875 21 16.5 21.225 17.2125C21.4125 17.8125 21.375 18.6 20.2875 19.0125Z" fill="#161A23"/>
<path d="M22.5001 8.475H21.5626V1.8C21.5626 1.35 21.1876 0.9375 20.7001 0.9375C20.2126 0.9375 19.8751 1.35 19.8751 1.8V8.475H17.8126V2.925C17.8126 2.475 17.4376 2.0625 16.9501 2.0625C16.4626 2.0625 16.1251 2.475 16.1251 2.925V8.475H14.0626V4.8C14.0626 4.35 13.6876 3.9375 13.2001 3.9375C12.7126 3.9375 12.3376 4.3125 12.3376 4.8V8.475H11.7751C11.3251 8.475 10.9126 8.85 10.9126 9.3375C10.9126 9.825 11.2876 10.2 11.7751 10.2H22.5001C22.9501 10.2 23.3626 9.825 23.3626 9.3375C23.3626 8.85 22.9501 8.475 22.5001 8.475Z" fill="#161A23"/>
</g>
<defs>
<clipPath id="clip0_501_48269">
<rect width="24" height="24" fill="white"/>
</clipPath>
</defs>
</svg>
