<svg width="24" height="24" viewBox="0 0 24 24" fill="none" xmlns="http://www.w3.org/2000/svg">
<path d="M22.875 13.32H21.9975C21.7013 13.32 21.45 12.975 21.45 12.57V6.89997C21.45 6.48372 21.72 6.11997 22.0275 6.11997H22.875C23.0739 6.11997 23.2647 6.04095 23.4053 5.9003C23.546 5.75965 23.625 5.56888 23.625 5.36997C23.625 5.17106 23.546 4.98029 23.4053 4.83964C23.2647 4.69899 23.0739 4.61997 22.875 4.61997H22.0275C21.6608 4.62475 21.3022 4.72827 20.9894 4.91965C20.6766 5.11102 20.4212 5.38318 20.25 5.70747H15.3412L14.625 5.08122C13.9878 4.51012 13.2217 4.10195 12.3923 3.89165C11.5629 3.68136 10.6948 3.6752 9.8625 3.87372C7.7625 4.40622 6.375 6.09747 5.89125 6.79497H5.14125C5.14966 6.23803 4.94109 5.69966 4.55967 5.29374C4.17825 4.88783 3.65388 4.6462 3.0975 4.61997H1.125C0.926088 4.61997 0.735322 4.69899 0.59467 4.83964C0.454018 4.98029 0.375 5.17106 0.375 5.36997C0.375 5.56888 0.454018 5.75965 0.59467 5.9003C0.735322 6.04095 0.926088 6.11997 1.125 6.11997H3.09C3.38625 6.11997 3.6375 6.46122 3.6375 6.86997V12.5362C3.6375 12.9525 3.3675 13.32 3.06 13.32H1.125C0.926088 13.32 0.735322 13.399 0.59467 13.5396C0.454018 13.6803 0.375 13.8711 0.375 14.07C0.375 14.2689 0.454018 14.4596 0.59467 14.6003C0.735322 14.741 0.926088 14.82 1.125 14.82H3.06C3.42457 14.8124 3.78051 14.7076 4.09102 14.5164C4.40154 14.3252 4.65536 14.0546 4.82625 13.7325H5.08875C5.3738 13.733 5.65396 13.8066 5.9025 13.9462C5.8835 14.0478 5.88568 14.1522 5.90891 14.2528C5.93214 14.3535 5.97592 14.4483 6.0375 14.5312L6.90375 15.69C7.00574 15.8225 7.14779 15.9185 7.30875 15.9637L8.45625 16.2712L8.97 17.3662C9.01598 17.4644 9.0827 17.5515 9.16557 17.6214C9.24843 17.6913 9.34547 17.7424 9.45 17.7712L10.6575 18.1012L11.4412 19.3462C11.5401 19.5034 11.6938 19.6183 11.8725 19.6687L13.9613 20.25C14.0271 20.2692 14.0952 20.2793 14.1637 20.28C14.2866 20.2802 14.4076 20.2502 14.5162 20.1926C14.6247 20.1351 14.7175 20.0518 14.7863 19.95L18.705 14.13C18.7394 14.0791 18.7858 14.0374 18.84 14.0086C18.8943 13.9799 18.9548 13.9649 19.0163 13.965H20.3925C20.5729 14.2247 20.8126 14.4377 21.0917 14.5864C21.3708 14.7351 21.6813 14.8151 21.9975 14.82H22.875C23.0739 14.82 23.2647 14.741 23.4053 14.6003C23.546 14.4596 23.625 14.2689 23.625 14.07C23.625 13.8711 23.546 13.6803 23.4053 13.5396C23.2647 13.399 23.0739 13.32 22.875 13.32ZM7.1025 7.66497C7.50375 7.09872 8.6025 5.73747 10.23 5.32497C10.8275 5.18701 11.4494 5.19543 12.0429 5.34951C12.6364 5.5036 13.1839 5.79879 13.6388 6.20997L15.1725 7.54497C15.3592 7.6877 15.4829 7.89753 15.5175 8.12997C15.5204 8.18849 15.5113 8.24698 15.4906 8.30181C15.47 8.35664 15.4383 8.40665 15.3975 8.44872L14.76 9.13122C14.598 9.30654 14.3764 9.41521 14.1386 9.43601C13.9008 9.45681 13.6638 9.38825 13.4738 9.24372L13.3237 9.13122C12.8596 8.78028 12.284 8.60933 11.7035 8.65001C11.123 8.69068 10.5769 8.94023 10.1663 9.35247L6.855 12.7762C6.34774 12.4314 5.75076 12.2424 5.1375 12.2325V8.29497H5.8875C6.12548 8.29387 6.35977 8.23616 6.57104 8.12662C6.78231 8.01707 6.96448 7.85883 7.1025 7.66497ZM17.4637 13.29L13.845 18.66L12.555 18.285L11.7712 17.04C11.6715 16.882 11.5164 16.767 11.3363 16.7175L10.1812 16.4025L9.66375 15.3037C9.61777 15.2055 9.55105 15.1185 9.46818 15.0486C9.38532 14.9786 9.28828 14.9275 9.18375 14.8987L7.95 14.5687L7.62 14.13L11.2275 10.38C11.3838 10.2261 11.5902 10.1335 11.8091 10.119C12.028 10.1046 12.2448 10.1692 12.42 10.3012L12.57 10.4137C13.0567 10.7811 13.6624 10.955 14.2699 10.9017C14.8774 10.8483 15.4435 10.5716 15.8588 10.125L16.5 9.47247C16.6783 9.28301 16.8164 9.05942 16.906 8.81516C16.9956 8.5709 17.0348 8.31103 17.0212 8.05122C17.0056 7.75648 16.9263 7.46863 16.7887 7.20747H19.95V12.4575H19.0163C18.7091 12.4584 18.4069 12.5349 18.1361 12.68C17.8654 12.8252 17.6345 13.0347 17.4637 13.29Z" fill="#161A23"/>
</svg>
