<svg width="24" height="24" viewBox="0 0 24 24" fill="none" xmlns="http://www.w3.org/2000/svg">
<g clip-path="url(#clip0_501_45113)">
<path d="M12 0.675049C7.72499 0.675049 3.97499 3.07505 2.06249 6.60005C1.87499 6.71255 1.76249 6.90005 1.76249 7.12505C1.04999 8.62505 0.674988 10.275 0.674988 12C0.674988 12.825 0.749988 13.6125 0.937488 14.4V14.4375C0.937488 14.5875 0.974988 14.7375 1.04999 14.85C2.32499 19.725 6.74999 23.3625 12.0375 23.3625C18.3 23.3625 23.4 18.2626 23.4 12C23.4 5.73755 18.2625 0.675049 12 0.675049ZM21.525 13.575H19.95C19.875 13.575 19.725 13.425 19.725 13.1625V8.47505C19.725 8.21255 19.875 8.06255 19.9875 8.06255H20.7C20.7375 8.06255 20.8125 8.06255 20.85 8.06255C21.4125 9.26255 21.7125 10.6125 21.7125 12.0375C21.675 12.525 21.6 13.0875 21.525 13.575ZM12 2.36255C15.225 2.36255 18.075 3.93755 19.8375 6.37505C19.2375 6.41255 18.7125 6.75005 18.375 7.27505H14.475L14.1375 6.97505C12.375 5.43755 9.74999 5.28755 7.91249 6.63755C7.19999 7.16255 6.67499 7.80005 6.37499 8.17505H6.07499C5.99999 7.16255 5.21249 6.37505 4.23749 6.37505H4.19999C5.92499 3.93755 8.77499 2.36255 12 2.36255ZM17.4375 12.675C17.025 12.675 16.65 12.825 16.35 13.125C16.3125 13.1625 16.275 13.2 16.2375 13.2375L13.05 18L12.225 17.775L11.625 16.8C11.5125 16.6125 11.325 16.5 11.1375 16.425L10.275 16.2L9.89999 15.375C9.78749 15.15 9.59999 15 9.37499 14.925L8.43749 14.6625L8.32499 14.5125L11.175 11.55C11.3625 11.3625 11.6625 11.325 11.8875 11.5125L12 11.625C12.9375 12.3375 14.2125 12.225 15.0375 11.3625L15.5625 10.8C15.9 10.425 16.0875 9.93755 16.05 9.45005C16.05 9.30005 16.0125 9.15005 15.975 8.96255H18V12.7125H17.4375V12.675ZM7.31249 13.0875C6.93749 12.8625 6.56249 12.75 6.14999 12.7125V9.86255H6.56249C7.04999 9.86255 7.46249 9.63755 7.72499 9.26255C7.91249 9.00005 8.32499 8.43755 8.92499 8.02505C10.125 7.16255 11.85 7.23755 13.0125 8.28755L14.0625 9.22505C14.175 9.33755 14.25 9.45005 14.2875 9.56255C14.2875 9.60005 14.2875 9.63755 14.25 9.67505L13.725 10.2375C13.5375 10.4625 13.2 10.5 12.9375 10.3125L12.825 10.2C11.925 9.52505 10.725 9.60005 9.89999 10.425L7.31249 13.0875ZM2.36249 12C2.36249 10.575 2.66249 9.26255 3.22499 8.06255H4.23749C4.31249 8.06255 4.46249 8.21255 4.46249 8.47505V13.2C4.46249 13.4625 4.31249 13.6125 4.19999 13.6125H2.47499C2.39999 13.0875 2.36249 12.525 2.36249 12ZM12 21.675C7.83749 21.675 4.27499 19.0125 2.92499 15.3H4.19999C4.87499 15.3 5.43749 14.925 5.77499 14.4H5.84999C5.99999 14.4 6.14999 14.4375 6.29999 14.5125C6.29999 14.7 6.37499 14.85 6.44999 15L7.16249 15.975C7.27499 16.125 7.42499 16.2375 7.61249 16.275L8.47499 16.5L8.84999 17.3251C8.96249 17.55 9.14999 17.7001 9.37499 17.775L10.3125 18.0375L10.9125 19.0126C11.025 19.2001 11.2125 19.3125 11.4 19.3876L13.125 19.875C13.2 19.9125 13.275 19.9125 13.35 19.9125C13.6125 19.9125 13.875 19.7625 14.0625 19.5375L17.475 14.475H18.3C18.6375 15.0375 19.2375 15.375 19.875 15.375H21.0375C19.725 18.975 16.1625 21.675 12 21.675Z" fill="#161A23"/>
</g>
<defs>
<clipPath id="clip0_501_45113">
<rect width="24" height="24" fill="white"/>
</clipPath>
</defs>
</svg>
