<svg width="24" height="24" viewBox="0 0 24 24" fill="none" xmlns="http://www.w3.org/2000/svg">
<g clip-path="url(#clip0_501_45133)">
<path d="M21 0.675049H2.99999C1.72499 0.675049 0.674988 1.72505 0.674988 3.00005V21C0.674988 22.275 1.72499 23.3625 3.03749 23.3625H21.0375C22.3125 23.3625 23.4 22.3125 23.4 21V3.00005C23.3625 1.72505 22.275 0.675049 21 0.675049ZM21.675 13.575H20.325C20.25 13.575 20.1 13.425 20.1 13.1625V8.47505C20.1 8.21255 20.25 8.06255 20.3625 8.06255H21.675V13.575ZM2.99999 2.36255H21C21.375 2.36255 21.675 2.66255 21.675 3.03755V6.41255H20.3625C19.6875 6.41255 19.125 6.78755 18.7875 7.31255H14.85L14.5125 7.01255C12.75 5.47505 10.125 5.32505 8.28749 6.67505C7.57499 7.20005 7.04999 7.83755 6.74999 8.21255H6.44999C6.37499 7.16255 5.58749 6.37505 4.61249 6.37505H2.36249V3.00005C2.36249 2.62505 2.62499 2.36255 2.99999 2.36255ZM17.8125 12.675C17.4 12.675 17.025 12.825 16.725 13.125C16.6875 13.1625 16.65 13.2 16.6125 13.2375L13.425 18L12.6 17.775L12 16.8C11.8875 16.6125 11.7 16.5 11.5125 16.425L10.65 16.2L10.275 15.375C10.1625 15.15 9.97499 15 9.74999 14.925L8.81249 14.6625L8.69999 14.5125L11.55 11.55C11.7375 11.3625 12.0375 11.325 12.2625 11.5125L12.375 11.625C13.3125 12.3375 14.5875 12.225 15.4125 11.3625L15.9375 10.8C16.275 10.425 16.4625 9.93755 16.425 9.45005C16.425 9.30005 16.3875 9.15005 16.35 8.96255H18.375V12.7125H17.8125V12.675ZM7.68749 13.0875C7.31249 12.8625 6.93749 12.75 6.52499 12.7125V9.86255H6.93749C7.42499 9.86255 7.83749 9.63755 8.09999 9.26255C8.28749 9.00005 8.69999 8.43755 9.29999 8.02505C10.5 7.16255 12.225 7.23755 13.3875 8.28755L14.4375 9.22505C14.55 9.33755 14.625 9.45005 14.6625 9.56255C14.6625 9.60005 14.6625 9.63755 14.625 9.67505L14.1 10.2375C13.9125 10.4625 13.575 10.5 13.3125 10.3125L13.2 10.2C12.3 9.52505 11.1 9.60005 10.275 10.425L7.68749 13.0875ZM2.36249 8.06255H4.61249C4.68749 8.06255 4.83749 8.21255 4.83749 8.47505V13.2C4.83749 13.4625 4.68749 13.6125 4.57499 13.6125H2.36249V8.06255ZM21 21.675H2.99999C2.62499 21.675 2.32499 21.375 2.32499 21V15.2625H4.53749C5.21249 15.2625 5.77499 14.8875 6.11249 14.3625H6.18749C6.33749 14.3625 6.48749 14.4 6.63749 14.475C6.63749 14.6625 6.71249 14.8125 6.78749 14.9625L7.49999 15.9375C7.61249 16.0875 7.76249 16.2 7.94999 16.2375L8.81249 16.4625L9.18749 17.2875C9.29999 17.5125 9.48749 17.6625 9.71249 17.7375L10.65 18L11.25 18.975C11.3625 19.1625 11.55 19.275 11.7375 19.35L13.4625 19.8375C13.5375 19.875 13.6125 19.875 13.6875 19.875C13.95 19.875 14.2125 19.725 14.4 19.5L17.8125 14.4375H18.6375C18.975 15 19.575 15.3375 20.2125 15.3375H21.5625V21C21.675 21.375 21.375 21.675 21 21.675Z" fill="#161A23"/>
</g>
<defs>
<clipPath id="clip0_501_45133">
<rect width="24" height="24" fill="white"/>
</clipPath>
</defs>
</svg>
