<svg width="24" height="24" viewBox="0 0 24 24" fill="none" xmlns="http://www.w3.org/2000/svg">
<path d="M18.075 0.862488H5.92499C4.68749 0.862488 3.67499 1.87499 3.67499 3.11249V20.8875C3.67499 22.125 4.68749 23.1375 5.92499 23.1375H18.1125C19.35 23.1375 20.3625 22.125 20.3625 20.8875V3.11249C20.3625 1.87499 19.35 0.862488 18.075 0.862488ZM18.675 20.8875C18.675 21.225 18.4125 21.45 18.1125 21.45H5.92499C5.58749 21.45 5.36249 21.1875 5.36249 20.8875V3.11249C5.36249 2.77499 5.62499 2.54999 5.92499 2.54999H18.1125C18.45 2.54999 18.675 2.81249 18.675 3.11249V20.8875Z" fill="#161A23"/>
<path d="M16.35 12C16.35 9.6375 14.4 7.6875 12.0375 7.6875C9.67496 7.6875 7.72496 9.6375 7.72496 12C7.72496 12.8625 7.98746 13.6875 8.43746 14.3625C7.72496 14.85 7.04996 15.375 6.78746 15.8625C5.99996 17.2125 6.44996 18.9375 7.79996 19.725C8.24996 19.9875 8.73746 20.1 9.22496 20.1C9.44996 20.1 9.71246 20.0625 9.93746 19.9875C10.65 19.8 11.2875 19.3125 11.6625 18.675C11.9625 18.1875 12.075 17.25 12.15 16.275C14.475 16.2375 16.35 14.325 16.35 12ZM10.2 17.85C10.05 18.1125 9.78746 18.3 9.52496 18.375C9.22496 18.45 8.92496 18.4125 8.66246 18.2625C8.39996 18.1125 8.21246 17.85 8.13746 17.5875C8.06246 17.325 8.09996 16.9875 8.24996 16.725C8.43746 16.3875 9.41246 15.7125 10.5375 15.075C10.5 16.35 10.3875 17.55 10.2 17.85ZM12.1875 14.625C12.1875 14.2125 12.1875 13.8375 12.15 13.6125C12.15 13.3125 11.9625 13.05 11.7375 12.9C11.475 12.75 11.175 12.75 10.9125 12.8625C10.6875 12.975 10.275 13.2 9.82496 13.4625C9.52496 13.0125 9.37496 12.525 9.37496 11.9625C9.37496 10.5 10.5375 9.3375 12 9.3375C13.4625 9.3375 14.625 10.5 14.625 11.9625C14.6625 13.3875 13.575 14.5125 12.1875 14.625Z" fill="#161A23"/>
<path d="M16.05 18.8625C15.9 19.0125 15.7875 19.2375 15.7875 19.4625C15.7875 19.6875 15.8625 19.9125 16.05 20.0625C16.2 20.2125 16.425 20.325 16.65 20.325C16.6875 20.325 16.7625 20.325 16.8 20.325C16.8375 20.325 16.9125 20.2875 16.95 20.2875C16.9875 20.25 17.0625 20.25 17.1 20.2125C17.1375 20.175 17.175 20.1375 17.2125 20.1C17.3625 19.95 17.475 19.725 17.475 19.5C17.475 19.275 17.4 19.05 17.2125 18.9C16.9125 18.5625 16.35 18.5625 16.05 18.8625Z" fill="#161A23"/>
</svg>
