<svg width="25" height="24" viewBox="0 0 25 24" fill="none" xmlns="http://www.w3.org/2000/svg">
<path d="M13.575 23.3625C13.5 23.3625 13.425 23.3625 13.3875 23.325C13.0125 23.2125 12.75 22.875 12.75 22.5C12.75 22.425 12.75 22.35 12.7875 22.3125L14.175 16.8H7.9875L6.525 22.725C6.4125 23.175 5.9625 23.4375 5.5125 23.325C5.1375 23.2125 4.875 22.875 4.875 22.5C4.875 22.425 4.875 22.35 4.9125 22.3125L6.3 16.8H1.8C1.35 16.8 0.9375 16.425 0.9375 15.9375C0.9375 15.45 1.3125 15.075 1.8 15.075H6.7125L8.25 8.88751H4.3875C3.9375 8.88751 3.525 8.51251 3.525 8.02501C3.525 7.53751 3.9 7.16251 4.3875 7.16251H8.625L10.125 1.31251C10.2375 0.862507 10.6875 0.600007 11.1375 0.712507C11.5125 0.825007 11.775 1.16251 11.775 1.53751C11.775 1.61251 11.775 1.68751 11.7375 1.72501L10.35 7.23751H16.5L18 1.31251C18.1125 0.862507 18.5625 0.600007 19.0125 0.712507C19.3875 0.825007 19.65 1.16251 19.65 1.53751C19.65 1.61251 19.65 1.68751 19.6125 1.72501L18.225 7.23751H22.725C23.175 7.23751 23.5875 7.61251 23.5875 8.10001C23.5875 8.58751 23.2125 8.96251 22.725 8.96251H17.8125L16.275 15.15H20.1C20.55 15.15 20.9625 15.525 20.9625 16.0125C20.9625 16.5 20.5875 16.875 20.1 16.875H15.8625L14.4 22.8C14.2875 23.1 13.95 23.3625 13.575 23.3625ZM8.4 15.1125H14.55L16.0875 8.92501H9.9375L8.4 15.1125Z" fill="#161A23"/>
</svg>
