<svg width="24" height="24" viewBox="0 0 24 24" fill="none" xmlns="http://www.w3.org/2000/svg">
<path d="M19.4625 9.03749V8.13749C19.4625 4.01249 16.125 0.674988 12 0.674988C7.87502 0.674988 4.53752 4.01249 4.53752 8.13749V9.03749C2.88752 9.26249 1.65002 10.6875 1.65002 12.375V14.0625C1.65002 15.9375 3.15002 17.4375 5.02502 17.4375H6.22502C7.31252 17.4375 8.17502 16.5375 8.17502 15.4875V10.9875C8.17502 9.89999 7.27502 9.03749 6.22502 9.03749V8.17499C6.22502 4.98749 8.81252 2.39999 12 2.39999C15.1875 2.39999 17.775 4.98749 17.775 8.17499V8.99999C16.6875 8.99999 15.825 9.89999 15.825 10.95V15.45C15.825 16.5 16.65 17.3625 17.7 17.4C17.325 18.9 16.125 20.0625 14.625 20.3625C14.3625 19.725 13.7625 19.275 13.0125 19.275H10.6125C9.63752 19.275 8.88752 20.0625 8.88752 21V21.6C8.88752 22.5375 9.67502 23.325 10.6125 23.325H13.0125C13.8 23.325 14.475 22.8 14.6625 22.0875C17.1 21.7125 19.0125 19.8375 19.425 17.4C21.1125 17.2125 22.3875 15.7875 22.3875 14.0625V12.375C22.3875 10.6875 21.1125 9.29999 19.4625 9.03749ZM6.48752 10.9875V15.4875C6.48752 15.6375 6.37502 15.7875 6.18752 15.7875H4.98752C4.05002 15.7875 3.30002 15.0375 3.30002 14.1V12.375C3.30002 11.4375 4.05002 10.6875 4.98752 10.6875H6.18752C6.37502 10.6875 6.48752 10.8375 6.48752 10.9875ZM13.0125 21.6C13.0125 21.6375 12.975 21.6375 12.975 21.6375H10.575C10.5375 21.6375 10.5375 21.6 10.5375 21.6V21C10.5375 20.9625 10.575 20.9625 10.575 20.9625H12.975C13.0125 20.9625 13.0125 21 13.0125 21V21.6ZM20.7 14.0625C20.7 15 19.95 15.75 19.0125 15.75H17.8125C17.6625 15.75 17.5125 15.6375 17.5125 15.45V10.95C17.5125 10.8 17.625 10.65 17.8125 10.65H19.0125C19.95 10.65 20.7 11.4 20.7 12.3375V14.0625Z" fill="#161A23"/>
</svg>
