<svg width="24" height="24" viewBox="0 0 24 24" fill="none" xmlns="http://www.w3.org/2000/svg">
<path d="M12.9 0.675049C8.28752 0.675049 4.50002 4.42505 4.50002 9.03755V10.5375L2.77502 13.9501C2.66252 14.2126 2.66252 14.5126 2.81252 14.7751C2.96252 15.0376 3.22502 15.1876 3.52502 15.1876H4.50002V19.5001C4.50002 19.7626 4.61252 19.9876 4.80002 20.1376C4.98752 20.2876 5.25002 20.3626 5.47502 20.3251L9.03752 19.725V22.5001C9.03752 22.7626 9.15002 22.9876 9.33752 23.1376C9.48752 23.2501 9.67502 23.3251 9.90002 23.3251C9.93752 23.3251 9.97502 23.3251 10.05 23.3251L17.5875 22.0501C18 21.975 18.3 21.6376 18.3 21.225V17.2126C18.3 16.2376 18.675 15.225 19.3875 14.3625C20.625 12.8625 21.3 10.9875 21.3 9.03755C21.3 4.42505 17.5125 0.675049 12.9 0.675049ZM18.075 13.3126C17.1 14.475 16.575 15.8626 16.575 17.2126V20.5126L10.725 21.4876V19.6126C10.725 19.125 10.5 18.7125 10.1625 18.4125C9.86252 18.15 9.52502 18.0375 9.11252 18.0375C9.03752 18.0375 8.92502 18.0375 8.85002 18.0751L6.18752 18.5251V15.1125C6.18752 14.3251 5.62502 13.6875 4.91252 13.5375L6.03752 11.2875C6.15002 11.0626 6.22502 10.8376 6.22502 10.5751V9.07505C6.22502 5.36255 9.22502 2.36255 12.9375 2.36255C16.65 2.36255 19.65 5.36255 19.65 9.07505C19.6125 10.6125 19.05 12.1125 18.075 13.3126Z" fill="#161A23"/>
<path d="M11.4 9.975H14.0625C14.5125 9.975 14.8875 9.6 14.8875 9.15C14.8875 8.7 14.5125 8.325 14.0625 8.325H13.2375V7.95C13.2375 7.5 12.8625 7.125 12.4125 7.125C11.9625 7.125 11.5875 7.5 11.5875 7.95V8.325H11.4C10.125 8.325 9.11255 9.3375 9.11255 10.6125C9.11255 11.8875 10.125 12.9 11.4 12.9H12.6375C12.975 12.9 13.2375 13.1625 13.2375 13.5C13.2375 13.8375 12.975 14.1 12.6375 14.1H9.97505C9.52505 14.1 9.15005 14.475 9.15005 14.925C9.15005 15.375 9.52505 15.75 9.97505 15.75H11.5875V16.125C11.5875 16.575 11.9625 16.95 12.4125 16.95C12.8625 16.95 13.2375 16.575 13.2375 16.125V15.6375C14.175 15.375 14.8875 14.475 14.8875 13.4625C14.8875 12.225 13.875 11.175 12.6 11.175H11.3625C11.025 11.175 10.7625 10.9125 10.7625 10.575C10.7625 10.2375 11.0625 9.975 11.4 9.975Z" fill="#161A23"/>
</svg>
