<svg width="24" height="24" viewBox="0 0 24 24" fill="none" xmlns="http://www.w3.org/2000/svg">
<path d="M20.1 6.74999C17.8875 4.57499 14.9625 3.41249 11.8125 3.48749C5.66249 3.56249 0.674988 8.54999 0.674988 14.5875V18.9C0.674988 19.7625 1.38749 20.5125 2.28749 20.5125H4.61249C5.47499 20.5125 6.22499 19.8 6.22499 18.9V15.6C6.22499 14.7375 5.51249 13.9875 4.61249 13.9875H2.36249C2.66249 9.11248 6.78749 5.17499 11.8125 5.09999C14.475 5.02499 17.025 6.03749 18.9 7.87499C20.5875 9.52499 21.5625 11.6625 21.6375 13.95H19.425C18.5625 13.95 17.8125 14.6625 17.8125 15.5625V18.8625C17.8125 19.725 18.525 20.475 19.425 20.475H21.75C22.6125 20.475 23.3625 19.7625 23.3625 18.8625V14.3625C23.3625 11.55 22.2 8.81249 20.1 6.74999ZM4.46249 18.825H2.36249V15.7125H4.49999V18.825H4.46249ZM21.675 18.825H19.5375V15.7125H21.675V18.825Z" fill="#161A23"/>
</svg>
