<svg width="24" height="24" viewBox="0 0 24 24" fill="none" xmlns="http://www.w3.org/2000/svg">
<g clip-path="url(#clip0_501_51281)">
<path d="M22.65 13.725C22.6125 13.725 22.6125 13.725 22.65 13.725L21.6 12.75C21.6375 12.4875 21.6375 12.225 21.6375 12C21.6375 11.7375 21.6375 11.475 21.6 11.25L22.65 10.275C23.3625 9.6 23.55 8.5125 23.0625 7.6125L21.6 5.0625C21.1125 4.2 20.0625 3.7875 19.0875 4.0875L17.7 4.5C17.2875 4.2 16.8375 3.9375 16.35 3.7125L16.05 2.325C15.825 1.35 14.9625 0.637496 13.95 0.637496H12.45C12.4125 0.637496 12.375 0.637496 12.3375 0.637496C8.88745 0.524996 5.73745 2.3625 4.12495 5.55C3.41245 6.9 3.29995 8.4 3.26245 9.4125C3.26245 9.7875 3.14995 10.125 2.96245 10.425L0.899951 13.6875C0.712451 13.95 0.637451 14.2875 0.637451 14.5875C0.637451 15.5625 1.38745 16.3125 2.36245 16.3125H3.26245V18.1125C3.26245 19.5375 4.42495 20.7 5.84995 20.7C6.11245 20.7 6.41245 20.6625 6.63745 20.5875L7.64995 20.2875V22.05C7.64995 22.7625 8.21245 23.325 8.92495 23.325H13.9125C14.925 23.325 15.7875 22.6125 16.0125 21.6375L16.3125 20.25C16.7625 20.025 17.2125 19.7625 17.6625 19.4625L19.0125 19.875C19.9875 20.175 21.0375 19.7625 21.525 18.9L23.025 16.3125C23.5125 15.4875 23.3625 14.4 22.65 13.725ZM9.03745 18.4875C8.81245 18.3375 8.54995 18.3 8.28745 18.375L6.18745 19.0125H6.14995C6.11245 19.0125 6.03745 19.05 5.92495 19.05C5.43745 19.05 5.02495 18.6375 5.02495 18.15V15.525C5.02495 15.075 4.64995 14.6625 4.16245 14.6625H2.39995C2.36245 14.6625 2.36245 14.6625 2.36245 14.625L4.42495 11.3625C4.76245 10.8 4.98745 10.1625 4.98745 9.4875C5.02495 8.1375 5.24995 7.1625 5.66245 6.3375C6.86245 3.975 9.11245 2.5125 11.625 2.3625V21.675H9.37495V19.1625C9.37495 18.9 9.22495 18.6375 9.03745 18.4875ZM21.5625 15.525L20.0625 18.1125C19.95 18.3 19.725 18.375 19.5375 18.3L17.775 17.7375C17.5125 17.6625 17.2125 17.7 16.9875 17.8875C16.4625 18.3 15.9 18.6375 15.3 18.8625C15.0375 18.975 14.85 19.2 14.8125 19.4625L14.4 21.2625C14.3625 21.4875 14.175 21.6375 13.95 21.6375H13.3125V2.3625H13.95C14.175 2.3625 14.3625 2.5125 14.4 2.7375L14.8125 4.5375C14.8875 4.8 15.075 5.025 15.3 5.1375C15.9 5.4 16.5 5.7 16.9875 6.1125C17.2125 6.3 17.5125 6.3375 17.775 6.2625L19.5 5.7C19.725 5.625 19.95 5.7375 20.0625 5.925L21.525 8.475C21.6375 8.6625 21.6 8.925 21.45 9.075L20.1 10.3125C19.9125 10.5 19.8 10.7625 19.8375 11.025C19.875 11.3625 19.9125 11.7 19.9125 12.0375C19.9125 12.375 19.875 12.7125 19.8375 13.05C19.8 13.3125 19.9125 13.575 20.1 13.7625L21.45 15C21.6375 15.1125 21.675 15.3375 21.5625 15.525Z" fill="#161A23"/>
</g>
<defs>
<clipPath id="clip0_501_51281">
<rect width="24" height="24" fill="white"/>
</clipPath>
</defs>
</svg>
