<svg width="24" height="24" viewBox="0 0 24 24" fill="none" xmlns="http://www.w3.org/2000/svg">
<path d="M12 21.6C11.7 21.6 11.4 21.4875 11.175 21.3C10.3125 20.55 9.45 19.8375 8.7 19.2C6.525 17.3625 4.6125 15.75 3.3 14.175C1.8 12.375 1.125 10.725 1.125 8.88752C1.125 7.12502 1.725 5.47502 2.85 4.27502C3.975 3.07502 5.5125 2.40002 7.2 2.40002C8.4375 2.40002 9.6 2.81252 10.6125 3.56252C11.025 3.86252 11.3625 4.23752 11.7 4.65002C11.85 4.83752 12.1125 4.83752 12.2625 4.65002C12.6 4.23752 12.975 3.90002 13.35 3.56252C14.3625 2.77502 15.525 2.40002 16.7625 2.40002C18.45 2.40002 19.9875 3.07502 21.1125 4.27502C22.2375 5.47502 22.8375 7.12502 22.8375 8.88752C22.8375 10.725 22.1625 12.375 20.6625 14.1375C19.35 15.7125 17.4375 17.325 15.2625 19.1625C14.5125 19.8 13.65 20.5125 12.7875 21.2625C12.6 21.4875 12.3 21.6 12 21.6Z" fill="#161A23"/>
</svg>
