<svg width="24" height="24" viewBox="0 0 24 24" fill="none" xmlns="http://www.w3.org/2000/svg">
<path d="M21.45 3.975C20.2125 2.625 18.4875 1.875 16.65 1.875C15.2625 1.875 13.95 2.325 12.825 3.1875C12.525 3.4125 12.2625 3.6375 12 3.9375C11.7375 3.675 11.475 3.4125 11.175 3.1875C10.05 2.325 8.77501 1.875 7.35001 1.875C5.47501 1.875 3.78751 2.625 2.51251 3.975C1.27501 5.2875 0.637512 7.0875 0.637512 9C0.637512 10.9875 1.35001 12.75 2.92501 14.625C4.23751 16.2 6.11251 17.775 8.25001 19.575C8.96251 20.175 9.78751 20.8875 10.6125 21.6C10.9875 21.9375 11.475 22.125 11.9625 22.125C12.45 22.125 12.9375 21.9375 13.3125 21.6C14.175 20.85 14.9625 20.175 15.7125 19.575C17.85 17.775 19.725 16.2 21.0375 14.625C22.575 12.75 23.325 10.9875 23.325 9C23.3625 7.05 22.6875 5.2875 21.45 3.975ZM19.7625 13.5375C18.525 15 16.725 16.5375 14.6625 18.3C13.95 18.9 13.125 19.6125 12.2625 20.3625C12.1125 20.475 11.8875 20.475 11.7375 20.3625C10.875 19.6125 10.05 18.9375 9.33751 18.3C7.23751 16.5 5.43751 15 4.23751 13.5375C2.96251 12 2.36251 10.5375 2.36251 9C2.36251 7.5 2.88751 6.1125 3.78751 5.1375C4.72501 4.125 6.00001 3.6 7.38751 3.6C8.40001 3.6 9.33751 3.9375 10.1625 4.5375C10.5 4.8 10.8 5.1 11.1 5.4375C11.325 5.7 11.6625 5.8875 12.0375 5.8875C12.4125 5.8875 12.7125 5.7375 12.975 5.4375C13.275 5.1 13.575 4.8 13.9125 4.5375C14.7375 3.9 15.675 3.6 16.6875 3.6C18.075 3.6 19.35 4.1625 20.2875 5.1375C21.225 6.15 21.7125 7.5 21.7125 9C21.675 10.5375 21.075 12 19.7625 13.5375Z" fill="#161A23"/>
<path d="M15.1125 11.175H12.825V8.8875C12.825 8.4375 12.45 8.025 11.9625 8.025C11.5125 8.025 11.1 8.4 11.1 8.8875V11.175H8.81251C8.36251 11.175 7.95001 11.55 7.95001 12.0375C7.95001 12.4875 8.32501 12.9 8.81251 12.9H11.1V15.1875C11.1 15.6375 11.475 16.05 11.9625 16.05C12.4125 16.05 12.825 15.675 12.825 15.1875V12.9H15.1125C15.5625 12.9 15.975 12.525 15.975 12.0375C15.975 11.55 15.6 11.175 15.1125 11.175Z" fill="#161A23"/>
</svg>
