<svg width="24" height="24" viewBox="0 0 24 24" fill="none" xmlns="http://www.w3.org/2000/svg">
<path d="M22.425 17.8875L17.25 5.51251C17.1 5.17501 16.9875 5.10001 16.6125 5.10001H13.8375C13.575 5.10001 13.3875 5.10001 13.1625 5.51251L7.95 17.9625C7.725 18.375 8.0625 18.9 8.5875 18.9H10.425C10.8 18.9 11.0625 18.6375 11.1 18.4875L11.9625 16.3125H18.3375L19.125 18.4875C19.2375 18.8625 19.5375 18.9 19.8 18.9H21.75C22.425 18.8625 22.6125 18.375 22.425 17.8875ZM13.275 13.7625L15.15 8.88751L16.9875 13.7625H13.275Z" fill="#161A23"/>
<path d="M4.76261 15.75L4.27511 16.2V7.79999L4.76261 8.24999C4.91261 8.39999 5.13761 8.47499 5.32511 8.47499C5.55011 8.47499 5.77511 8.39999 5.96261 8.21249C6.26261 7.87499 6.26261 7.34999 5.92511 7.01249L3.97511 5.24999C3.63761 4.94999 3.15011 4.94999 2.85011 5.24999L0.937609 6.97499C0.600109 7.27499 0.562609 7.83749 0.900109 8.17499C1.20011 8.51249 1.76261 8.54999 2.10011 8.21249L2.58761 7.76249V16.1625L2.06261 15.75C1.72511 15.45 1.20011 15.45 0.862609 15.7875C0.562609 16.125 0.562609 16.65 0.900109 16.9875L2.85011 18.75C3.00011 18.9 3.22511 18.975 3.41261 18.975C3.60011 18.975 3.82511 18.9 3.97511 18.75L5.88761 17.025C6.22511 16.725 6.26261 16.1625 5.92511 15.825C5.62511 15.45 5.10011 15.45 4.76261 15.75Z" fill="#161A23"/>
</svg>
