<svg width="24" height="24" viewBox="0 0 24 24" fill="none" xmlns="http://www.w3.org/2000/svg">
<path d="M22.5001 8.28752C22.0501 8.28752 21.6751 8.66252 21.6751 9.11252V9.22502H13.8V8.47502C13.8 7.83752 13.2751 7.31252 12.6376 7.31252H9.00005V5.17502H13.4626C13.9126 5.17502 14.2875 4.80002 14.2875 4.35002C14.2875 3.90002 13.9126 3.52502 13.4626 3.52502H2.81255C2.36255 3.52502 1.98755 3.90002 1.98755 4.35002C1.98755 4.80002 2.36255 5.17502 2.81255 5.17502H7.27505V7.31252H3.75005C2.06255 7.31252 0.675049 8.70002 0.675049 10.3875V15.4875C0.675049 16.125 1.20005 16.65 1.83755 16.65H3.56255V18.7875H2.62505C2.58755 18.375 2.21255 18.0375 1.80005 18.0375C1.35005 18.0375 0.975049 18.4125 0.975049 18.8625C0.975049 19.7625 1.72505 20.475 2.66255 20.475H12C12.4501 20.475 12.8251 20.1 12.8251 19.65C12.8251 19.2 12.4501 18.825 12 18.825H9.97505V16.6875H12.6376C13.2751 16.6875 13.8 16.1625 13.8 15.525V14.775L21.6751 13.9125C21.6751 14.3625 22.0501 14.7375 22.5001 14.7375C22.9501 14.7375 23.3251 14.3625 23.3251 13.9125V9.15002C23.3251 8.66252 22.9501 8.28752 22.5001 8.28752ZM8.28755 18.7875H5.21255V16.65H8.28755V18.7875ZM12.1125 14.9625H2.36255V10.425C2.36255 9.63752 3.00005 9.03752 3.75005 9.03752H12.1125V14.9625ZM13.8 13.05V10.9125H21.6751V12.1875L13.8 13.05Z" fill="#161A23"/>
</svg>
