<svg width="24" height="24" viewBox="0 0 24 24" fill="none" xmlns="http://www.w3.org/2000/svg">
<path d="M17.2125 6.26252C16.95 3.78752 14.925 1.76252 12.375 1.42502C10.05 1.16252 7.87501 2.32502 6.82501 4.35002C6.60001 4.76252 6.78751 5.28752 7.20001 5.47502C7.61251 5.70002 8.13751 5.51252 8.32501 5.10002C9.07501 3.67502 10.575 2.88752 12.1875 3.03752C13.95 3.26252 15.3375 4.68752 15.525 6.37502C15.7125 7.98752 14.85 9.52502 13.3875 10.2C11.85 10.95 10.875 12.525 10.875 14.2875V18C10.875 18.45 11.25 18.8625 11.7375 18.8625C12.225 18.8625 12.6 18.4875 12.6 18V14.2875C12.6 13.2 13.2375 12.1875 14.175 11.7375C16.2375 10.8375 17.475 8.58752 17.2125 6.26252Z" fill="#161A23"/>
<path d="M11.7375 20.7C11.2875 20.7 10.875 21.075 10.875 21.5625V21.75C10.875 22.2 11.25 22.6125 11.7375 22.6125C12.225 22.6125 12.6 22.2375 12.6 21.75V21.5625C12.5625 21.075 12.1875 20.7 11.7375 20.7Z" fill="#161A23"/>
</svg>
