<svg width="24" height="24" viewBox="0 0 24 24" fill="none" xmlns="http://www.w3.org/2000/svg">
<g clip-path="url(#clip0_501_45095)">
<path d="M5.06249 19.8001C6.56249 19.8001 7.76249 18.6001 7.76249 17.1001C7.76249 15.6001 6.56249 14.4001 5.06249 14.4001C3.56249 14.4001 2.36249 15.6001 2.36249 17.1001C2.36249 18.5626 3.56249 19.8001 5.06249 19.8001ZM5.06249 16.0876C5.62499 16.0876 6.07499 16.5376 6.07499 17.1001C6.07499 17.6626 5.62499 18.1126 5.06249 18.1126C4.49999 18.1126 4.04999 17.6626 4.04999 17.1001C4.04999 16.5376 4.49999 16.0876 5.06249 16.0876Z" fill="#161A23"/>
<path d="M5.10001 20.175C3.52501 20.175 1.98751 20.8125 0.937512 21.9C0.600012 22.2375 0.600012 22.7625 0.937512 23.1C1.27501 23.4375 1.80001 23.4375 2.13751 23.1C2.88751 22.3125 3.97501 21.9 5.10001 21.9C6.22501 21.9 7.31251 22.35 8.06251 23.1C8.21251 23.2875 8.43751 23.3625 8.66251 23.3625C8.88751 23.3625 9.07501 23.2875 9.26251 23.1375C9.60001 22.8 9.60001 22.275 9.26251 21.9375C8.17501 20.8125 6.67501 20.175 5.10001 20.175Z" fill="#161A23"/>
<path d="M16.1625 17.1001C16.1625 18.6001 17.3625 19.8001 18.8625 19.8001C20.3625 19.8001 21.5625 18.6001 21.5625 17.1001C21.5625 15.6001 20.3625 14.4001 18.8625 14.4001C17.3625 14.4001 16.1625 15.6001 16.1625 17.1001ZM19.875 17.1001C19.875 17.6626 19.425 18.1126 18.8625 18.1126C18.3 18.1126 17.85 17.6626 17.85 17.1001C17.85 16.5376 18.3 16.0876 18.8625 16.0876C19.425 16.0876 19.875 16.5376 19.875 17.1001Z" fill="#161A23"/>
<path d="M23.1 21.9C22.0125 20.8125 20.5125 20.175 18.9375 20.175C17.3625 20.175 15.825 20.8125 14.775 21.9C14.4375 22.2375 14.4375 22.7625 14.775 23.1C15.1125 23.4375 15.6375 23.4375 15.975 23.1C16.725 22.3125 17.8125 21.9 18.9375 21.9C20.0625 21.9 21.15 22.35 21.9 23.1C22.05 23.2875 22.275 23.3625 22.5 23.3625C22.725 23.3625 22.9125 23.2875 23.1 23.1375C23.4 22.7625 23.4 22.2375 23.1 21.9Z" fill="#161A23"/>
<path d="M9.59999 8.25005H13.65C15.4125 8.25005 16.875 6.82505 16.875 5.06255C16.875 4.27505 16.575 3.48755 16.0125 2.88755C15.6 2.43755 15.0375 2.10005 14.4375 1.95005C14.0625 1.42505 13.5375 1.05005 12.975 0.862549C12.675 0.750049 12.3 0.675049 11.9625 0.675049C10.4625 0.675049 9.18749 1.76255 8.92499 3.18755C7.83749 3.48755 7.04999 4.50005 7.04999 5.66255C7.04999 7.08755 8.17499 8.25005 9.59999 8.25005ZM9.59999 4.76255H9.67499C10.125 4.76255 10.5375 4.38755 10.5375 3.90005V3.75005C10.5375 2.96255 11.175 2.32505 11.9625 2.32505C12.1125 2.32505 12.2625 2.36255 12.4125 2.40005C12.75 2.51255 13.0125 2.73755 13.2 3.07505C13.35 3.30005 13.575 3.48755 13.8375 3.52505C14.175 3.56255 14.55 3.75005 14.775 3.97505C14.9625 4.16255 15.1875 4.53755 15.1875 5.02505C15.1875 5.88755 14.5125 6.52505 13.65 6.52505H9.59999C9.11249 6.52505 8.69999 6.11255 8.69999 5.62505C8.69999 5.13755 9.11249 4.76255 9.59999 4.76255Z" fill="#161A23"/>
<path d="M5.06249 13.725C5.51249 13.725 5.92499 13.35 5.92499 12.8625V11.925H18.1125V12.8625C18.1125 13.3125 18.4875 13.725 18.975 13.725C19.4625 13.725 19.8375 13.35 19.8375 12.8625V11.8125C19.8375 10.95 19.125 10.2375 18.2625 10.2375H12.8625V9.675C12.8625 9.225 12.4875 8.8125 12 8.8125C11.55 8.8125 11.1375 9.1875 11.1375 9.675V10.2375H5.81249C4.94999 10.2375 4.23749 10.95 4.23749 11.8125V12.8625C4.23749 13.35 4.61249 13.725 5.06249 13.725Z" fill="#161A23"/>
</g>
<defs>
<clipPath id="clip0_501_45095">
<rect width="24" height="24" fill="white"/>
</clipPath>
</defs>
</svg>
