<svg width="24" height="24" viewBox="0 0 24 24" fill="none" xmlns="http://www.w3.org/2000/svg">
<path d="M18.6 18C18.525 18 18.4125 18 18.3375 18L16.8 14.8875C17.1 14.6625 17.2875 14.325 17.2875 13.95V12.075C17.2875 9.78745 15.45 7.94995 13.1625 7.94995H10.8375C8.55001 7.94995 6.71251 9.78745 6.71251 12.075V13.95C6.71251 14.325 6.90001 14.6625 7.20001 14.8875L5.66251 18C5.58751 18 5.47501 18 5.40001 18C4.01251 18 2.88751 19.125 2.88751 20.5125C2.88751 21.9 4.01251 23.025 5.40001 23.025C6.78751 23.025 7.91251 21.9 7.91251 20.5125C7.91251 19.8375 7.65001 19.2375 7.20001 18.7875L9.00001 15.15H11.175V18.525C10.2 18.8625 9.52501 19.8 9.52501 20.8875C9.52501 22.275 10.65 23.4 12.0375 23.4C13.425 23.4 14.55 22.275 14.55 20.8875C14.55 19.8 13.875 18.9 12.9 18.525V15.15H15L16.8 18.7875C16.35 19.2375 16.0875 19.8375 16.0875 20.5125C16.0875 21.9 17.2125 23.025 18.6 23.025C19.9875 23.025 21.1125 21.9 21.1125 20.5125C21.1125 19.125 19.95 18 18.6 18ZM12 21.675C11.55 21.675 11.175 21.3 11.175 20.85C11.175 20.4 11.55 20.025 12 20.025C12.45 20.025 12.825 20.4 12.825 20.85C12.825 21.3 12.45 21.675 12 21.675ZM8.40001 12.1125C8.40001 10.7625 9.48751 9.67495 10.8375 9.67495H13.1625C14.5125 9.67495 15.6 10.7625 15.6 12.1125V13.425H15.525C15.525 13.425 15.525 13.425 15.4875 13.425H12H8.51251C8.51251 13.425 8.51251 13.425 8.47501 13.425H8.40001V12.1125ZM5.40001 21.3375C4.95001 21.3375 4.57501 20.9625 4.57501 20.5125C4.57501 20.0625 4.95001 19.6875 5.40001 19.6875C5.85001 19.6875 6.22501 20.0625 6.22501 20.5125C6.22501 20.9625 5.85001 21.3375 5.40001 21.3375ZM18.6 21.3375C18.15 21.3375 17.775 20.9625 17.775 20.5125C17.775 20.0625 18.15 19.6875 18.6 19.6875C19.05 19.6875 19.425 20.0625 19.425 20.5125C19.425 20.9625 19.05 21.3375 18.6 21.3375Z" fill="#161A23"/>
<path d="M12 6.90005C13.7625 6.90005 15.225 5.51255 15.225 3.78755C15.225 2.06255 13.8 0.675049 12 0.675049C10.2 0.675049 8.77502 2.06255 8.77502 3.78755C8.77502 5.51255 10.2375 6.90005 12 6.90005ZM12 2.36255C12.825 2.36255 13.5375 3.00005 13.5375 3.78755C13.5375 4.57505 12.8625 5.21255 12 5.21255C11.1375 5.21255 10.4625 4.57505 10.4625 3.78755C10.4625 3.00005 11.175 2.36255 12 2.36255Z" fill="#161A23"/>
</svg>
