<svg width="24" height="24" viewBox="0 0 24 24" fill="none" xmlns="http://www.w3.org/2000/svg">
<g clip-path="url(#clip0_501_45141)">
<path d="M4.79996 20.0251C6.33746 20.0251 7.57496 18.7876 7.57496 17.2501C7.57496 15.7126 6.33746 14.4751 4.79996 14.4751C3.26246 14.4751 2.02496 15.7126 2.02496 17.2501C2.02496 18.7876 3.26246 20.0251 4.79996 20.0251ZM4.79996 16.2001C5.39996 16.2001 5.88746 16.6876 5.88746 17.2876C5.88746 17.8876 5.39996 18.3751 4.79996 18.3751C4.19996 18.3751 3.71246 17.8501 3.71246 17.2501C3.71246 16.6876 4.19996 16.2001 4.79996 16.2001Z" fill="#161A23"/>
<path d="M4.83748 20.5125C3.18748 20.5125 1.64998 21.15 0.524976 22.275C0.187476 22.6125 0.187476 23.1375 0.524976 23.475C0.862476 23.8125 1.38748 23.8125 1.72498 23.475C2.51248 22.6875 3.63748 22.2 4.83748 22.2C6.03748 22.2 7.16248 22.65 7.94998 23.475C8.09998 23.6625 8.32498 23.7375 8.54998 23.7375C8.77497 23.7375 8.96247 23.6625 9.14997 23.5125C9.48748 23.175 9.48748 22.65 9.14997 22.3125C8.02498 21.15 6.44998 20.5125 4.83748 20.5125Z" fill="#161A23"/>
<path d="M16.35 17.2501C16.35 18.7876 17.5875 20.0251 19.125 20.0251C20.6625 20.0251 21.9 18.7876 21.9 17.2501C21.9 15.7126 20.6625 14.4751 19.125 14.4751C17.5875 14.4751 16.35 15.7501 16.35 17.2501ZM20.2125 17.2501C20.2125 17.8501 19.725 18.3376 19.125 18.3376C18.525 18.3376 18.0375 17.8501 18.0375 17.2501C18.0375 16.6501 18.525 16.1626 19.125 16.1626C19.725 16.1626 20.2125 16.6876 20.2125 17.2501Z" fill="#161A23"/>
<path d="M23.475 22.275C22.3875 21.15 20.8125 20.5125 19.1625 20.5125C17.5125 20.5125 15.975 21.15 14.85 22.275C14.5125 22.6125 14.5125 23.1375 14.85 23.475C15 23.625 15.225 23.7 15.45 23.7C15.675 23.7 15.9 23.625 16.05 23.4375C16.8375 22.65 17.9625 22.1625 19.1625 22.1625C20.3625 22.1625 21.4875 22.6125 22.275 23.4375C22.6125 23.775 23.1375 23.775 23.475 23.4375C23.8125 23.1375 23.8125 22.6125 23.475 22.275Z" fill="#161A23"/>
<path d="M4.79997 13.7625C5.24997 13.7625 5.66247 13.3875 5.66247 12.9V11.8875H18.3375V12.9C18.3375 13.35 18.7125 13.7625 19.2 13.7625C19.6875 13.7625 20.0625 13.3875 20.0625 12.9V11.8125C20.0625 10.95 19.35 10.2 18.45 10.2H12.8625V9.56245C12.8625 9.11245 12.4875 8.69995 12 8.69995C11.55 8.69995 11.1375 9.07495 11.1375 9.56245V10.2H5.54997C4.68747 10.2 3.93747 10.9125 3.93747 11.8125V12.9C3.97497 13.3875 4.34997 13.7625 4.79997 13.7625Z" fill="#161A23"/>
<path d="M11.9625 5.81255C13.5 5.81255 14.7375 4.57505 14.7375 3.03755C14.7375 1.50005 13.5 0.300049 11.9625 0.300049C10.425 0.300049 9.18747 1.53755 9.18747 3.07505C9.18747 4.61255 10.425 5.81255 11.9625 5.81255ZM11.9625 1.98755C12.5625 1.98755 13.05 2.47505 13.05 3.07505C13.05 3.67505 12.5625 4.12505 11.9625 4.12505C11.3625 4.12505 10.875 3.63755 10.875 3.03755C10.875 2.43755 11.3625 1.98755 11.9625 1.98755Z" fill="#161A23"/>
<path d="M8.88748 9.26265C9.67498 8.47515 10.8 7.98765 12 7.98765C13.2 7.98765 14.325 8.43765 15.1125 9.26265C15.2625 9.41265 15.4875 9.52515 15.7125 9.52515C15.9375 9.52515 16.125 9.45015 16.3125 9.30015C16.65 8.96265 16.65 8.43765 16.3125 8.10015C15.225 6.97515 13.65 6.33765 12 6.33765C10.35 6.33765 8.81248 6.97515 7.68748 8.10015C7.34998 8.43765 7.34998 8.96265 7.68748 9.30015C8.02498 9.63765 8.58748 9.56265 8.88748 9.26265Z" fill="#161A23"/>
</g>
<defs>
<clipPath id="clip0_501_45141">
<rect width="24" height="24" fill="white"/>
</clipPath>
</defs>
</svg>
