<svg width="24" height="24" viewBox="0 0 24 24" fill="none" xmlns="http://www.w3.org/2000/svg">
<path d="M5.36255 17.625C5.96255 18.225 6.78755 18.5625 7.65005 18.5625C8.51255 18.5625 9.33755 18.225 9.93755 17.625L21.7875 5.77499C22.1625 5.39999 22.35 4.91249 22.35 4.42499C22.35 3.93749 22.125 3.41249 21.7875 3.07499L19.95 1.23749C19.2 0.487488 18 0.487488 17.25 1.23749L5.36255 13.0875C4.76255 13.6875 4.42505 14.5125 4.42505 15.375C4.42505 16.2 4.76255 17.025 5.36255 17.625ZM18.4125 2.39999C18.45 2.36249 18.525 2.32499 18.5625 2.32499C18.6 2.32499 18.675 2.36249 18.7125 2.39999L20.55 4.23749C20.5875 4.27499 20.625 4.34999 20.625 4.38749C20.625 4.42499 20.625 4.49999 20.55 4.53749L11.5875 13.575L9.41255 11.4L18.4125 2.39999ZM6.56255 14.25L8.25005 12.5625L10.425 14.7375L8.73755 16.425C8.43755 16.725 8.06255 16.875 7.65005 16.875C7.23755 16.875 6.86255 16.725 6.56255 16.425C6.26255 16.125 6.11255 15.75 6.11255 15.3375C6.11255 14.925 6.26255 14.55 6.56255 14.25Z" fill="#161A23"/>
<path d="M21.9751 21.675H2.0251C1.5751 21.675 1.1626 22.05 1.1626 22.5375C1.1626 23.025 1.5376 23.4 2.0251 23.4H21.9376C22.3876 23.4 22.8001 23.025 22.8001 22.5375C22.8001 22.05 22.4251 21.675 21.9751 21.675Z" fill="#161A23"/>
</svg>
