<svg width="24" height="24" viewBox="0 0 24 24" fill="none" xmlns="http://www.w3.org/2000/svg">
<path d="M12.3749 8.58752C9.7874 8.58752 7.6499 10.6875 7.6499 13.3125C7.6499 15.9 9.7499 18.0375 12.3749 18.0375C14.9624 18.0375 17.0999 15.9375 17.0999 13.3125C17.0999 10.725 14.9624 8.58752 12.3749 8.58752ZM12.3749 16.35C10.6874 16.35 9.3374 15 9.3374 13.3125C9.3374 11.625 10.6874 10.275 12.3749 10.275C14.0624 10.275 15.4124 11.625 15.4124 13.3125C15.4124 15 14.0624 16.35 12.3749 16.35Z" fill="#161A23"/>
<path d="M13.0123 13.3875V12.375C13.0123 11.925 12.6373 11.55 12.1873 11.55C11.7373 11.55 11.3623 11.925 11.3623 12.375V13.725C11.3623 13.95 11.4373 14.175 11.6248 14.325L12.4498 15.15C12.5998 15.3 12.8248 15.4125 13.0498 15.4125C13.2748 15.4125 13.4998 15.3375 13.6498 15.15C13.9873 14.8125 13.9873 14.2875 13.6498 13.95L13.0123 13.3875Z" fill="#161A23"/>
<path d="M19.0124 4.42505H5.3624C5.0249 4.42505 4.7249 4.27505 4.4999 4.05005C4.3124 3.86255 4.1999 3.60005 4.1999 3.33755C4.1999 3.07505 4.3124 2.81255 4.4999 2.62505C4.6874 2.43755 4.9499 2.32505 5.2499 2.32505H18.5999C19.0499 2.32505 19.4249 1.95005 19.4249 1.50005C19.4249 1.05005 19.0499 0.675049 18.5999 0.675049H5.2874C4.5374 0.675049 3.8624 0.975049 3.3749 1.46255C2.8874 1.95005 2.5874 2.58755 2.5874 3.26255C2.5874 3.30005 2.5874 3.33755 2.5874 3.37505C2.5874 3.37505 2.5874 3.37505 2.5874 3.41255V20.925C2.5874 22.275 3.6749 23.3625 5.0249 23.3625H19.0874C20.4374 23.3625 21.5249 22.275 21.5249 20.925V6.86255C21.4499 5.51255 20.3624 4.42505 19.0124 4.42505ZM19.7624 20.925C19.7624 21.3375 19.4249 21.675 19.0124 21.675H4.9874C4.5749 21.675 4.2374 21.3375 4.2374 20.925V5.88755C4.6124 6.03755 4.9874 6.11255 5.3999 6.11255H19.0499C19.4624 6.11255 19.7999 6.45005 19.7999 6.86255V20.925H19.7624Z" fill="#161A23"/>
</svg>
