<svg width="24" height="24" viewBox="0 0 24 24" fill="none" xmlns="http://www.w3.org/2000/svg">
<path d="M21.15 23.3625H16.2375C15.0375 23.3625 14.025 22.3875 14.025 21.15V17.175C14.025 16.875 13.8 16.65 13.5 16.65H10.5C10.2 16.65 9.97495 16.875 9.97495 17.175V21.15C9.97495 22.3875 8.99995 23.3625 7.76245 23.3625H2.84995C1.64995 23.3625 0.637451 22.3875 0.637451 21.15V8.5125C0.637451 7.875 0.937451 7.3125 1.46245 6.975L11.025 0.9375C11.625 0.5625 12.375 0.5625 12.9375 0.9375L22.5 7.0125C23.025 7.35 23.325 7.9125 23.325 8.55V21.15C23.3625 22.35 22.35 23.3625 21.15 23.3625ZM10.5 14.9625H13.5C14.7375 14.9625 15.7125 15.9375 15.7125 17.175V21.15C15.7125 21.45 15.9375 21.675 16.2375 21.675H21.15C21.45 21.675 21.675 21.45 21.675 21.15V8.5125C21.675 8.475 21.6375 8.4375 21.6375 8.4L12.0375 2.3625C12 2.325 11.9625 2.325 11.925 2.3625L2.39995 8.4C2.36245 8.4375 2.32495 8.475 2.32495 8.5125V21.15C2.32495 21.45 2.54995 21.675 2.84995 21.675H7.76245C8.06245 21.675 8.28745 21.45 8.28745 21.15V17.175C8.28745 15.975 9.26245 14.9625 10.5 14.9625Z" fill="#161A23"/>
</svg>
