<svg width="24" height="24" viewBox="0 0 24 24" fill="none" xmlns="http://www.w3.org/2000/svg">
<path d="M21.3375 21.675H20.2875V2.3625H21.3375C21.7875 2.3625 22.2 1.9875 22.2 1.5C22.2 1.0125 21.825 0.637501 21.3375 0.637501H17.5125C17.0625 0.637501 16.65 1.0125 16.65 1.5C16.65 1.9875 17.025 2.3625 17.5125 2.3625H18.5625V3.525H14.5125V3C14.5125 1.725 13.4625 0.637501 12.15 0.637501H4.16249C2.84999 0.675001 1.79999 1.725 1.79999 3V21C1.79999 22.275 2.84999 23.3625 4.16249 23.3625H12.15C13.425 23.3625 14.5125 22.3125 14.5125 21V20.475H18.6V21.6375H17.55C17.1 21.6375 16.6875 22.0125 16.6875 22.5C16.6875 22.9875 17.0625 23.3625 17.55 23.3625H21.375C21.825 23.3625 22.2375 22.9875 22.2375 22.5C22.2375 22.0125 21.7875 21.675 21.3375 21.675ZM12.825 21C12.825 21.375 12.525 21.675 12.15 21.675H4.16249C3.78749 21.675 3.48749 21.375 3.48749 21V3C3.48749 2.625 3.78749 2.325 4.16249 2.325H12.15C12.525 2.325 12.825 2.625 12.825 3V21ZM14.5125 18.7875V5.2125H18.6V18.7875H14.5125Z" fill="#161A23"/>
<path d="M10.275 3.9H6.03749C5.58749 3.9 5.17499 4.275 5.17499 4.7625C5.17499 5.25 5.54999 5.625 6.03749 5.625H10.275C10.725 5.625 11.1375 5.25 11.1375 4.7625C11.1375 4.275 10.7625 3.9 10.275 3.9Z" fill="#161A23"/>
<path d="M10.275 8.625H6.03749C5.58749 8.625 5.17499 9 5.17499 9.4875C5.17499 9.975 5.54999 10.35 6.03749 10.35H10.275C10.725 10.35 11.1375 9.975 11.1375 9.4875C11.1375 9 10.7625 8.625 10.275 8.625Z" fill="#161A23"/>
<path d="M10.275 13.3875H6.03749C5.58749 13.3875 5.17499 13.7625 5.17499 14.25C5.17499 14.7375 5.54999 15.1125 6.03749 15.1125H10.275C10.725 15.1125 11.1375 14.7375 11.1375 14.25C11.1375 13.7625 10.7625 13.3875 10.275 13.3875Z" fill="#161A23"/>
<path d="M10.275 18.1125H6.03749C5.58749 18.1125 5.17499 18.4875 5.17499 18.975C5.17499 19.4625 5.54999 19.8375 6.03749 19.8375H10.275C10.725 19.8375 11.1375 19.4625 11.1375 18.975C11.1375 18.4875 10.7625 18.1125 10.275 18.1125Z" fill="#161A23"/>
</svg>
