<svg width="24" height="24" viewBox="0 0 24 24" fill="none" xmlns="http://www.w3.org/2000/svg">
<path d="M17.3626 14.3625H19.0876C19.5376 14.3625 19.9126 13.9875 19.9126 13.5375C19.9126 13.0875 19.5376 12.7125 19.0876 12.7125H18.8626C18.8251 12.2625 18.4876 11.925 18.0376 11.925C17.5876 11.925 17.2126 12.3 17.2126 12.75C16.3126 12.825 15.6001 13.575 15.6001 14.5125C15.6001 15.4875 16.3876 16.275 17.3626 16.275H18.1501C18.1876 16.275 18.2251 16.3125 18.2251 16.35C18.2251 16.3875 18.1876 16.425 18.1501 16.425H16.4251C15.9751 16.425 15.6001 16.8 15.6001 17.25C15.6001 17.7 15.9751 18.075 16.4251 18.075H17.1751C17.2126 18.525 17.5501 18.8625 18.0001 18.8625C18.4501 18.8625 18.8251 18.4875 18.8251 18.0375V17.925C19.4626 17.6625 19.8751 17.025 19.8751 16.3125C19.8751 15.3375 19.0876 14.55 18.1126 14.55H17.3251C17.2876 14.55 17.2501 14.5125 17.2501 14.475C17.2501 14.4375 17.3251 14.3625 17.3626 14.3625Z" fill="#161A23"/>
<path d="M17.775 9.4126C14.475 9.4126 11.8125 12.0751 11.8125 15.3751C11.8125 18.6751 14.475 21.3376 17.775 21.3376C21.075 21.3376 23.7375 18.6751 23.7375 15.3751C23.7375 12.0751 21.0375 9.4126 17.775 9.4126ZM17.775 19.6126C15.4125 19.6126 13.5 17.7001 13.5 15.3376C13.5 12.9751 15.4125 11.0626 17.775 11.0626C20.1375 11.0626 22.05 12.9751 22.05 15.3376C22.05 17.7001 20.1 19.6126 17.775 19.6126Z" fill="#161A23"/>
<path d="M10.9125 9.975L9.48755 11.4C9.33755 11.55 9.22505 11.775 9.22505 12C9.22505 12.225 9.30005 12.45 9.48755 12.6L10.125 13.2375C10.275 13.3875 10.5 13.5 10.725 13.5C10.95 13.5 11.175 13.425 11.325 13.2375C11.6625 12.9 11.6625 12.375 11.325 12.0375L11.2875 12L12.1125 11.175C13.5 9.7875 14.2875 7.9125 14.2875 5.9625V4.125H14.55C15 4.125 15.375 3.75 15.375 3.2625C15.375 2.775 15 2.4375 14.55 2.4375H1.12505C0.675049 2.4375 0.300049 2.8125 0.300049 3.2625C0.300049 3.675 0.600049 4.0125 0.975049 4.0875V5.925C0.975049 7.9125 1.72505 9.75 3.15005 11.1375L3.97505 11.9625L3.15005 12.7875C1.76255 14.175 0.975049 16.05 0.975049 18V19.8375C0.600049 19.9125 0.300049 20.25 0.300049 20.6625C0.300049 21.1125 0.675049 21.4875 1.12505 21.4875H10.5C10.95 21.4875 11.325 21.1125 11.325 20.6625C11.325 20.2125 10.9875 19.875 10.5 19.875H2.62505V18.0375C2.62505 16.5375 3.22505 15.075 4.27505 14.025L5.70005 12.6C6.03755 12.2625 6.03755 11.7375 5.70005 11.4L4.27505 9.975C3.22505 8.925 2.66255 7.5 2.66255 5.9625V4.125H12.6V5.9625C12.6 7.4625 11.9625 8.925 10.9125 9.975Z" fill="#161A23"/>
</svg>
