<svg width="24" height="24" viewBox="0 0 24 24" fill="none" xmlns="http://www.w3.org/2000/svg">
<g clip-path="url(#clip0_501_38711)">
<path d="M12 0.599976C5.73755 0.599976 0.675049 5.69998 0.675049 12C0.675049 18.3 5.73755 23.4 12 23.4C18.2626 23.4 23.3251 18.3 23.3251 12C23.3251 5.69998 18.2626 0.599976 12 0.599976ZM12 21.7125C6.67505 21.7125 2.32505 17.3625 2.32505 12C2.32505 6.63748 6.67505 2.28748 12 2.28748C17.3251 2.28748 21.6751 6.63748 21.6751 12C21.6751 17.3625 17.3251 21.7125 12 21.7125Z" fill="#161A23"/>
<path d="M15.4876 9.3375C15.7126 9.3375 15.9376 9.2625 16.0876 9.075L17.2876 7.875C17.6251 7.5375 17.6251 7.0125 17.2876 6.675C16.9501 6.3375 16.4251 6.3375 16.0876 6.675L14.8876 7.875C14.5501 8.2125 14.5501 8.7375 14.8876 9.075C15.0376 9.2625 15.2626 9.3375 15.4876 9.3375Z" fill="#161A23"/>
<path d="M7.9126 14.925L6.7126 16.125C6.3751 16.4625 6.3751 16.9875 6.7126 17.325C6.8626 17.475 7.0876 17.5875 7.3126 17.5875C7.5376 17.5875 7.7626 17.5125 7.9126 17.325L9.1126 16.125C9.4501 15.7875 9.4501 15.2625 9.1126 14.925C8.7751 14.5875 8.2501 14.5875 7.9126 14.925Z" fill="#161A23"/>
<path d="M18.6375 11.1749H16.95C16.5 11.1749 16.125 11.5499 16.125 11.9999C16.125 12.4499 16.5 12.8249 16.95 12.8249H18.6375C19.0875 12.8249 19.4625 12.4499 19.4625 11.9999C19.4625 11.5499 19.0875 11.1749 18.6375 11.1749Z" fill="#161A23"/>
<path d="M7.91245 11.9999C7.91245 11.5499 7.53745 11.1749 7.08745 11.1749H5.39995C4.94995 11.1749 4.57495 11.5499 4.57495 11.9999C4.57495 12.4499 4.94995 12.8249 5.39995 12.8249H7.08745C7.53745 12.8249 7.91245 12.4499 7.91245 11.9999Z" fill="#161A23"/>
<path d="M16.0876 14.925C15.7501 14.5875 15.2251 14.5875 14.8876 14.925C14.5501 15.2625 14.5501 15.7875 14.8876 16.125L16.0876 17.325C16.2376 17.475 16.4626 17.5875 16.6876 17.5875C16.9126 17.5875 17.1001 17.5125 17.2876 17.325C17.6251 16.9875 17.6251 16.4625 17.2876 16.125L16.0876 14.925Z" fill="#161A23"/>
<path d="M7.9126 6.675C7.5751 6.3375 7.0501 6.3375 6.7126 6.675C6.3751 7.0125 6.3751 7.5375 6.7126 7.875L7.9126 9.075C8.0626 9.225 8.2876 9.3375 8.5126 9.3375C8.7376 9.3375 8.9251 9.2625 9.1126 9.075C9.4501 8.7375 9.4501 8.2125 9.1126 7.875L7.9126 6.675Z" fill="#161A23"/>
<path d="M12 16.125C11.55 16.125 11.175 16.5 11.175 16.95V18.6375C11.175 19.0875 11.55 19.4625 12 19.4625C12.45 19.4625 12.825 19.0875 12.825 18.6375V16.95C12.825 16.5 12.45 16.125 12 16.125Z" fill="#161A23"/>
<path d="M12 4.5C11.55 4.5 11.175 4.875 11.175 5.325V7.0125C11.175 7.4625 11.55 7.8375 12 7.8375C12.45 7.8375 12.825 7.4625 12.825 7.0125V5.325C12.825 4.875 12.45 4.5 12 4.5Z" fill="#161A23"/>
</g>
<defs>
<clipPath id="clip0_501_38711">
<rect width="24" height="24" fill="white"/>
</clipPath>
</defs>
</svg>
