<svg width="24" height="24" viewBox="0 0 24 24" fill="none" xmlns="http://www.w3.org/2000/svg">
<path d="M20.0999 21.6751H19.275V18.0751C19.275 16.3501 18.525 14.6625 17.2499 13.5001L15.6749 12.1125C15.5999 12.0375 15.5624 11.9626 15.5624 11.8876C15.5624 11.8126 15.5999 11.7375 15.6749 11.6625L17.2499 10.2751C18.525 9.11255 19.275 7.46255 19.275 5.70005V2.32505H20.0999C20.5499 2.32505 20.9249 1.95005 20.9249 1.50005C20.9249 1.05005 20.5499 0.675049 20.0999 0.675049H3.89995C3.44995 0.675049 3.07495 1.05005 3.07495 1.50005C3.07495 1.95005 3.44995 2.32505 3.89995 2.32505H4.72495V5.66255C4.72495 7.38755 5.47495 9.07505 6.74995 10.2375L8.32495 11.625C8.39995 11.7001 8.43745 11.7751 8.43745 11.85C8.43745 11.925 8.39995 12.0001 8.32495 12.0751L6.74995 13.5001C5.47495 14.6625 4.72495 16.3126 4.72495 18.0751V21.6751H3.89995C3.44995 21.6751 3.07495 22.0501 3.07495 22.5001C3.07495 22.9501 3.44995 23.3251 3.89995 23.3251H20.0999C20.5499 23.3251 20.9249 22.9501 20.9249 22.5001C20.9249 22.0501 20.5874 21.6751 20.0999 21.6751ZM10.5375 2.32505H13.4625V5.55005C13.4625 5.62505 13.425 5.70005 13.3875 5.77505L12 7.16255L10.65 5.81255C10.575 5.73755 10.575 5.66255 10.575 5.58755V2.32505H10.5375ZM6.41245 18.0751C6.41245 16.8001 6.93745 15.6001 7.87495 14.7751L9.44995 13.3876C9.86245 13.0126 10.125 12.4876 10.125 11.8876C10.125 11.3251 9.89995 10.8 9.44995 10.3876L7.87495 8.96255C6.93745 8.13755 6.41245 6.90005 6.41245 5.66255V2.32505H8.88745V5.55005C8.88745 6.07505 9.11245 6.60005 9.48745 6.97505L11.4375 8.92505C11.5875 9.07505 11.8124 9.18755 12.0374 9.18755C12.2624 9.18755 12.4875 9.11255 12.6375 8.92505L14.5875 6.97505C14.9625 6.60005 15.1874 6.07505 15.1874 5.55005V2.32505H17.6624V5.66255C17.6624 6.93755 17.1375 8.13755 16.2 8.96255L14.625 10.35C14.2125 10.725 13.95 11.2501 13.95 11.85C13.95 12.4125 14.1749 12.9375 14.625 13.35L16.2 14.7375C17.1375 15.5625 17.6624 16.8001 17.6624 18.0375V21.6376H6.41245V18.0751Z" fill="#161A23"/>
</svg>
