<svg width="24" height="24" viewBox="0 0 24 24" fill="none" xmlns="http://www.w3.org/2000/svg">
<path d="M21 5.17499H12.8625V2.81249C12.8625 2.36249 12.4875 1.98749 12 1.98749C11.5125 1.98749 11.175 2.36249 11.175 2.81249V5.17499H2.99999C1.72499 5.17499 0.674988 6.22499 0.674988 7.49999V19.6875C0.674988 20.9625 1.72499 22.0125 2.99999 22.0125H21C22.275 22.0125 23.325 20.9625 23.325 19.6875V7.49999C23.3625 6.22499 22.275 5.17499 21 5.17499ZM21.675 19.6875C21.675 20.0625 21.375 20.3625 21 20.3625H2.99999C2.62499 20.3625 2.32499 20.0625 2.32499 19.6875V7.49999C2.32499 7.12499 2.62499 6.82499 2.99999 6.82499H21C21.375 6.82499 21.675 7.12499 21.675 7.49999V19.6875Z" fill="#161A23"/>
<path d="M7.61247 13.4625C9.11247 13.4625 10.3125 12.2625 10.3125 10.7625C10.3125 9.2625 9.11247 8.0625 7.61247 8.0625C6.11248 8.0625 4.91248 9.2625 4.91248 10.7625C4.91248 12.2625 6.11248 13.4625 7.61247 13.4625ZM7.61247 9.75C8.17497 9.75 8.62498 10.2 8.62498 10.7625C8.62498 11.325 8.17497 11.775 7.61247 11.775C7.04997 11.775 6.59998 11.325 6.59998 10.7625C6.59998 10.2 7.04997 9.75 7.61247 9.75Z" fill="#161A23"/>
<path d="M7.61249 14.2875C5.77499 14.2875 4.27499 15.7875 4.27499 17.625C4.27499 18.075 4.64999 18.45 5.09999 18.45C5.54999 18.45 5.92499 18.075 5.92499 17.625C5.92499 16.725 6.67499 15.975 7.57499 15.975C8.47499 15.975 9.22499 16.725 9.22499 17.625C9.22499 18.075 9.59999 18.45 10.05 18.45C10.5 18.45 10.875 18.075 10.875 17.625C10.95 15.7875 9.44999 14.2875 7.61249 14.2875Z" fill="#161A23"/>
<path d="M18.2625 9.375H13.65C13.2 9.375 12.825 9.75 12.825 10.2C12.825 10.65 13.2 11.025 13.65 11.025H18.2625C18.7125 11.025 19.0875 10.65 19.0875 10.2C19.0875 9.75 18.7125 9.375 18.2625 9.375Z" fill="#161A23"/>
<path d="M18.2625 12.675H13.65C13.2 12.675 12.825 13.05 12.825 13.5C12.825 13.95 13.2 14.325 13.65 14.325H18.2625C18.7125 14.325 19.0875 13.95 19.0875 13.5C19.0875 13.05 18.7125 12.675 18.2625 12.675Z" fill="#161A23"/>
<path d="M16.6125 16.6125H13.65C13.2 16.6125 12.825 16.9875 12.825 17.4375C12.825 17.8875 13.2 18.2625 13.65 18.2625H16.6125C17.0625 18.2625 17.4375 17.8875 17.4375 17.4375C17.4375 16.9875 17.1 16.6125 16.6125 16.6125Z" fill="#161A23"/>
</svg>
