<svg width="24" height="24" viewBox="0 0 24 24" fill="none" xmlns="http://www.w3.org/2000/svg">
<path d="M21.0375 5.17495H12.8625V2.81245C12.8625 2.36245 12.4875 1.94995 12 1.94995C11.5125 1.94995 11.1375 2.32495 11.1375 2.81245V5.17495H2.96249C1.68749 5.17495 0.674988 6.18745 0.674988 7.46245V19.7624C0.674988 21.0374 1.68749 22.0499 2.96249 22.0499H21.075C22.35 22.0499 23.3625 21.0374 23.3625 19.7624V7.46245C23.3625 6.18745 22.3125 5.17495 21.0375 5.17495ZM2.96249 6.86245H21.075C21.4125 6.86245 21.675 7.12495 21.675 7.46245V8.39995H2.36249V7.46245C2.36249 7.12495 2.62499 6.86245 2.96249 6.86245ZM21.0375 20.3624H2.96249C2.62499 20.3624 2.36249 20.0999 2.36249 19.7624V10.0499H21.675V19.7249C21.675 20.0624 21.375 20.3624 21.0375 20.3624Z" fill="#161A23"/>
<path d="M9.71249 15.5625C10.0875 15.1125 10.3125 14.5125 10.3125 13.8375C10.3125 12.3375 9.11249 11.1375 7.61249 11.1375C6.11249 11.1375 4.91249 12.375 4.91249 13.875C4.91249 14.5125 5.13749 15.1125 5.51249 15.5999C4.64999 16.2375 4.04999 17.2875 4.04999 18.45C4.04999 18.9 4.42499 19.3125 4.91249 19.3125C5.39999 19.3125 5.77499 18.9375 5.77499 18.45C5.77499 17.4375 6.59999 16.6125 7.61249 16.6125C8.62499 16.6125 9.44999 17.4375 9.44999 18.45C9.44999 18.9 9.82499 19.3125 10.3125 19.3125C10.8 19.3125 11.175 18.9375 11.175 18.45C11.1375 17.25 10.575 16.2 9.71249 15.5625ZM6.59999 13.875C6.59999 13.3125 7.04999 12.8625 7.61249 12.8625C8.17499 12.8625 8.62499 13.3125 8.62499 13.875C8.62499 14.4375 8.17499 14.8875 7.61249 14.8875C7.04999 14.8875 6.59999 14.4375 6.59999 13.875Z" fill="#161A23"/>
<path d="M19.0875 13.0125H14.475C14.025 13.0125 13.6125 13.3875 13.6125 13.875C13.6125 14.3625 13.9875 14.7375 14.475 14.7375H19.0875C19.5375 14.7375 19.95 14.3625 19.95 13.875C19.95 13.3875 19.575 13.0125 19.0875 13.0125Z" fill="#161A23"/>
<path d="M17.475 15.8624H14.5125C14.0625 15.8624 13.65 16.2374 13.65 16.7249C13.65 17.2124 14.025 17.5874 14.5125 17.5874H17.475C17.925 17.5874 18.3375 17.2124 18.3375 16.7249C18.3375 16.2374 17.925 15.8624 17.475 15.8624Z" fill="#161A23"/>
</svg>
