<svg width="24" height="24" viewBox="0 0 24 24" fill="none" xmlns="http://www.w3.org/2000/svg">
<path d="M21.9375 7.9875C21.45 4.2375 18.375 1.2 14.625 0.712501C14.2125 0.675001 13.8 0.637501 13.3875 0.637501C13.35 0.637501 13.35 0.637501 13.3125 0.637501C10.9875 0.637501 8.81252 1.5375 7.16252 3.1875C5.51252 4.875 4.61252 7.05 4.61252 9.375C4.61252 9.75 4.50002 10.125 4.31252 10.4625L2.25002 13.725C1.87502 14.325 1.91252 15.0375 2.28752 15.6C2.62502 16.05 3.15002 16.35 3.75002 16.35H4.61252V18.15C4.61252 19.575 5.77502 20.7375 7.20002 20.7375C7.46252 20.7375 7.76252 20.7 7.98752 20.625L9.00002 20.325V22.0875C9.00002 22.8 9.56252 23.3625 10.275 23.3625H13.35H13.3875H16.875C18.15 23.3625 19.1625 22.35 19.1625 21.075V18.6C19.1625 16.875 19.65 15.2625 20.5125 13.95C21.7125 12.225 22.2375 10.0875 21.9375 7.9875ZM19.125 12.975C18.0375 14.55 17.475 16.5 17.475 18.5625V21.0375C17.475 21.375 17.2125 21.6375 16.875 21.6375H13.3125H13.275H10.65V19.125C10.65 18.8625 10.5375 18.6 10.3125 18.45C10.0875 18.3 9.82502 18.225 9.56252 18.3375L7.46252 18.975H7.42502C7.38752 18.975 7.31252 19.0125 7.20002 19.0125C6.71252 19.0125 6.30002 18.6 6.30002 18.1125V15.4875C6.30002 15.0375 5.92502 14.625 5.43752 14.625H3.75002C3.71252 14.625 3.67502 14.625 3.67502 14.5875L5.73752 11.325C6.11252 10.725 6.30002 10.05 6.30002 9.3375C6.30002 7.4625 7.05002 5.7 8.36252 4.35C9.67502 3.0375 11.4 2.325 13.2375 2.2875C13.275 2.2875 13.3125 2.2875 13.35 2.2875C13.725 2.2875 14.1 2.2875 14.4375 2.325C17.4375 2.7 19.9125 5.1375 20.2875 8.1375C20.5125 9.9 20.1 11.5875 19.125 12.975Z" fill="#161A23"/>
<path d="M13.1625 5.4C11.85 5.3625 10.6125 5.85 9.7125 6.75C8.8125 7.65 8.25 8.8875 8.25 10.2C8.25 11.85 9.075 13.3875 10.5 14.25C10.6125 14.325 10.6875 14.475 10.6875 14.6625V15.4125C10.6875 16.6125 11.6625 17.55 12.825 17.55H13.2375C14.4375 17.55 15.375 16.575 15.375 15.4125V14.625C15.375 14.55 15.375 14.475 15.4125 14.4C15.45 14.325 15.4875 14.2875 15.5625 14.25C16.9125 13.3875 17.775 11.925 17.8125 10.3125C17.85 9.0375 17.3625 7.8375 16.5 6.9C15.6 5.9625 14.4375 5.4375 13.1625 5.4ZM13.2375 15.8625H12.825C12.5625 15.8625 12.375 15.675 12.375 15.4125V14.8875H13.6875V15.4125C13.725 15.6375 13.5 15.8625 13.2375 15.8625ZM14.7 12.825C14.55 12.9375 14.4 13.05 14.2875 13.2H11.85C11.7375 13.05 11.5875 12.9375 11.4375 12.8625C10.5375 12.3 9.975 11.325 9.975 10.2375C9.975 9.4125 10.3125 8.625 10.9125 8.025C11.5125 7.4625 12.2625 7.1625 13.0875 7.1625C13.125 7.1625 13.125 7.1625 13.1625 7.1625C13.9875 7.2 14.7375 7.5375 15.3 8.1375C15.8625 8.7375 16.2 9.525 16.1625 10.35C16.125 11.325 15.5625 12.2625 14.7 12.825Z" fill="#161A23"/>
</svg>
