<svg width="24" height="24" viewBox="0 0 24 24" fill="none" xmlns="http://www.w3.org/2000/svg">
<path d="M20.9249 1.72501H3.07495C1.72495 1.72501 0.637451 2.81251 0.637451 4.16251V16.05C0.637451 17.4 1.72495 18.4875 3.07495 18.4875H4.16245V20.925C4.16245 21.4875 4.46245 21.9375 4.98745 22.1625C5.17495 22.2375 5.36245 22.275 5.54995 22.275C5.88745 22.275 6.18745 22.1625 6.44995 21.9375L10.3125 18.4875H20.9249C22.2749 18.4875 23.3624 17.4 23.3624 16.05V4.12501C23.3624 2.81251 22.2749 1.72501 20.9249 1.72501ZM21.6749 16.05C21.6749 16.4625 21.3374 16.8 20.9249 16.8H9.97495C9.74995 16.8 9.56245 16.875 9.41245 17.025L5.81245 20.2125V17.625C5.81245 17.175 5.43745 16.7625 4.94995 16.7625H3.07495C2.66245 16.7625 2.32495 16.425 2.32495 16.0125V4.12501C2.32495 3.71251 2.66245 3.37501 3.07495 3.37501H20.9249C21.3374 3.37501 21.6749 3.71251 21.6749 4.12501V16.05Z" fill="#161A23"/>
<path d="M12.1125 4.65C10.95 4.6125 9.86245 5.0625 9.03745 5.85C8.21245 6.675 7.76245 7.725 7.76245 8.8875C7.76245 10.35 8.51245 11.7 9.74995 12.4875C9.82495 12.525 9.86245 12.6375 9.86245 12.75V13.3875C9.86245 14.475 10.7625 15.375 11.85 15.375H12.1875C13.275 15.375 14.175 14.475 14.175 13.3875V12.75C14.175 12.6375 14.2125 12.5625 14.2874 12.525C15.4874 11.775 16.2375 10.4625 16.275 9.0375C16.3125 7.9125 15.9 6.825 15.1125 6C14.2874 5.1375 13.2375 4.6875 12.1125 4.65ZM12.1875 13.6875H11.85C11.7 13.6875 11.55 13.575 11.55 13.3875V13.05H12.45V13.3875C12.45 13.575 12.3375 13.6875 12.1875 13.6875ZM13.3499 11.1C13.1999 11.175 13.0875 11.2875 12.9749 11.4H10.95C10.8375 11.2875 10.725 11.175 10.6125 11.1C9.86245 10.6125 9.41245 9.825 9.41245 8.925C9.41245 8.2125 9.67495 7.575 10.2 7.0875C10.6875 6.6 11.325 6.375 12 6.375C12.0375 6.375 12.0375 6.375 12.075 6.375C12.75 6.375 13.3875 6.675 13.875 7.2C14.3625 7.725 14.625 8.3625 14.5875 9.0375C14.55 9.825 14.0999 10.6125 13.3499 11.1Z" fill="#161A23"/>
</svg>
