<svg width="24" height="24" viewBox="0 0 24 24" fill="none" xmlns="http://www.w3.org/2000/svg">
<path d="M12.1126 6.1125C10.8376 6.075 9.6376 6.5625 8.7376 7.425C7.8376 8.325 7.3501 9.48751 7.3501 10.7625C7.3501 12.375 8.1751 13.8375 9.5251 14.7C9.6376 14.775 9.7126 14.925 9.7126 15.075V15.7875C9.7126 16.95 10.6501 17.8875 11.8126 17.8875H12.1876C13.3501 17.8875 14.2876 16.95 14.2876 15.7875V15.0375C14.2876 14.8875 14.3626 14.775 14.4751 14.7C15.7876 13.875 16.6126 12.45 16.6501 10.875C16.6876 9.6375 16.2376 8.475 15.3751 7.53751C14.5126 6.63751 13.3501 6.15 12.1126 6.1125ZM12.1876 16.2H11.8126C11.5876 16.2 11.4001 16.0125 11.4001 15.7875V15.3H12.6001V15.7875C12.6001 16.0125 12.4126 16.2 12.1876 16.2ZM13.5751 13.275C13.4251 13.3875 13.2751 13.5 13.1626 13.6125H10.8376C10.7251 13.5 10.5751 13.35 10.4251 13.275C9.5626 12.7125 9.0376 11.775 9.0376 10.7625C9.0376 9.93751 9.3376 9.1875 9.9376 8.625C10.5001 8.0625 11.2126 7.8 12.0001 7.8C12.0376 7.8 12.0376 7.8 12.0751 7.8C12.8626 7.8375 13.5751 8.1375 14.1376 8.7375C14.7001 9.3375 15.0001 10.0875 14.9626 10.8375C14.9251 11.85 14.4001 12.75 13.5751 13.275Z" fill="#161A23"/>
<path d="M22.6126 10.0875L21.9001 9.2625C21.6751 9 21.5626 8.7 21.6001 8.3625L21.7126 7.275C21.8626 5.85 20.8876 4.5375 19.4626 4.2L18.3751 3.975C18.0751 3.9 17.7751 3.7125 17.6251 3.4125L17.0626 2.475C16.3126 1.2375 14.7751 0.7125 13.4626 1.3125L12.4501 1.7625C12.1501 1.875 11.8126 1.875 11.5126 1.7625L10.5001 1.3125C9.1876 0.75 7.6126 1.2375 6.9001 2.475L6.3376 3.4125C6.1876 3.675 5.8876 3.9 5.5876 3.975L4.5001 4.2C3.1126 4.5 2.1376 5.85 2.2501 7.275L2.3626 8.3625C2.4001 8.7 2.2876 9 2.0626 9.2625L1.3501 10.0875C0.412598 11.175 0.412598 12.7875 1.3501 13.875L2.0626 14.7C2.2876 14.9625 2.4001 15.2625 2.3626 15.6L2.2501 16.6875C2.1001 18.1125 3.0751 19.425 4.5001 19.7625L5.5876 19.9875C5.8876 20.0625 6.1876 20.25 6.3376 20.55L6.9001 21.4875C7.6501 22.725 9.1876 23.25 10.5001 22.65L11.5126 22.2C11.8126 22.0875 12.1501 22.0875 12.4501 22.2L13.4626 22.65C13.8376 22.8 14.2126 22.875 14.5876 22.875C15.5626 22.875 16.5376 22.35 17.0626 21.45L17.6251 20.5125C17.7751 20.25 18.0751 20.025 18.3751 19.95L19.4626 19.725C20.8501 19.425 21.8251 18.075 21.7126 16.65L21.6001 15.5625C21.5626 15.225 21.6751 14.925 21.9001 14.6625L22.6126 13.8375C23.5876 12.825 23.5876 11.175 22.6126 10.0875ZM21.3751 12.7875L20.6251 13.6125C20.1001 14.2125 19.8376 15 19.9126 15.7875L20.0251 16.875C20.0626 17.475 19.6876 18 19.0876 18.15L18.0376 18.375C17.2876 18.5625 16.6126 19.05 16.2001 19.725L15.6376 20.6625C15.3376 21.1875 14.7001 21.375 14.1376 21.15L13.1251 20.7C12.7501 20.55 12.3751 20.475 12.0001 20.475C11.6251 20.475 11.2126 20.55 10.8751 20.7L9.8626 21.15C9.3001 21.375 8.6626 21.1875 8.3626 20.6625L7.8001 19.725C7.3876 19.05 6.7126 18.5625 5.9626 18.375L4.8751 18.15C4.3126 18.0375 3.9001 17.475 3.9376 16.875L4.0501 15.7875C4.1251 15 3.9001 14.2125 3.3751 13.6125L2.6251 12.7875C2.2501 12.3375 2.2501 11.6625 2.6251 11.2125L3.3751 10.3875C3.9001 9.7875 4.1626 9 4.0876 8.2125L3.9751 7.125C3.9376 6.525 4.3126 6 4.9126 5.85L6.0001 5.625C6.7501 5.4375 7.4251 4.95 7.8376 4.275L8.4001 3.3375C8.7001 2.8125 9.3376 2.625 9.9001 2.85L10.8751 3.3C11.5876 3.6 12.4126 3.6 13.1626 3.3L14.1751 2.85C14.7376 2.625 15.3751 2.8125 15.6751 3.3375L16.2376 4.275C16.6501 4.95 17.3251 5.4375 18.0751 5.625L19.1626 5.85C19.7251 5.9625 20.1376 6.525 20.1001 7.125L19.9876 8.2125C19.8751 9 20.1001 9.7875 20.6251 10.3875L21.3376 11.2125C21.7501 11.6625 21.7501 12.3375 21.3751 12.7875Z" fill="#161A23"/>
</svg>
