<svg width="24" height="24" viewBox="0 0 24 24" fill="none" xmlns="http://www.w3.org/2000/svg">
<path d="M7.38745 12.1875C7.38745 13.8 8.21245 15.2625 9.56245 16.125C9.67495 16.2 9.71245 16.3125 9.71245 16.4625V17.175C9.71245 18.3375 10.65 19.275 11.8125 19.275H12.1875C13.35 19.275 14.2875 18.3375 14.2875 17.175V16.425C14.2875 16.275 14.3625 16.1625 14.4375 16.0875C15.75 15.2625 16.575 13.8375 16.6125 12.3C16.65 11.0625 16.2 9.9 15.3375 9C14.475 8.1 13.35 7.575 12.1125 7.5375C10.8375 7.5 9.67495 7.9875 8.77495 8.85C7.87495 9.75 7.38745 10.9125 7.38745 12.1875ZM12.1875 17.5875H11.8125C11.5875 17.5875 11.4 17.4 11.4 17.175V16.6875H12.6V17.175C12.6 17.4 12.4125 17.5875 12.1875 17.5875ZM9.93745 10.0875C10.5 9.5625 11.2125 9.2625 12 9.2625C12.0375 9.2625 12.0375 9.2625 12.075 9.2625C12.825 9.3 13.575 9.6 14.1 10.2C14.6625 10.7625 14.925 11.5125 14.925 12.3C14.8875 13.275 14.4 14.175 13.5375 14.7C13.3875 14.8125 13.2375 14.925 13.125 15.0375H10.8375C10.725 14.925 10.575 14.8125 10.425 14.7C9.56245 14.175 9.03745 13.2375 9.03745 12.225C9.07495 11.4 9.37495 10.65 9.93745 10.0875Z" fill="#161A23"/>
<path d="M19.1625 4.9875C18.8251 4.6875 18.3001 4.6875 17.9626 5.025C17.6626 5.3625 17.6625 5.8875 18 6.225C19.8376 7.9125 20.8876 10.275 20.8876 12.75C20.8876 17.6625 16.9126 21.6375 12 21.6375C7.08755 21.6375 3.11255 17.6625 3.11255 12.75C3.11255 9.1125 5.32505 5.8875 8.66255 4.5375L7.95005 6.3C7.76255 6.75 7.98755 7.2375 8.40005 7.3875C8.51255 7.425 8.62505 7.4625 8.70005 7.4625C9.03755 7.4625 9.33755 7.275 9.48755 6.9375L10.9875 3.3C11.175 2.85 10.9501 2.3625 10.5375 2.2125L6.90005 0.712503C6.45005 0.525003 5.96255 0.750003 5.81255 1.1625C5.62505 1.6125 5.85005 2.1 6.26255 2.25L7.98755 3C4.05005 4.6125 1.42505 8.4375 1.42505 12.7875C1.42505 18.6 6.15005 23.3625 12 23.3625C17.85 23.3625 22.5751 18.6375 22.5751 12.7875C22.5751 9.825 21.3376 6.975 19.1625 4.9875Z" fill="#161A23"/>
</svg>
