<svg width="24" height="24" viewBox="0 0 24 24" fill="none" xmlns="http://www.w3.org/2000/svg">
<path d="M12.1124 5.51251C10.8374 5.47501 9.63735 5.96251 8.73735 6.82501C7.83735 7.72501 7.34985 8.88751 7.34985 10.1625C7.34985 11.775 8.17485 13.2375 9.52485 14.1C9.63735 14.175 9.71235 14.2875 9.71235 14.475V15.1875C9.71235 16.35 10.6499 17.2875 11.8124 17.2875H12.1874C13.3499 17.2875 14.2874 16.35 14.2874 15.1875V14.4375C14.2874 14.3625 14.2874 14.2875 14.3249 14.25C14.3624 14.175 14.3999 14.1375 14.4374 14.1C15.7499 13.275 16.5749 11.85 16.6124 10.275C16.6499 9.03751 16.1999 7.87501 15.3374 6.93751C14.5124 6.07501 13.3499 5.55001 12.1124 5.51251ZM12.1874 15.6H11.8124C11.5874 15.6 11.3999 15.4125 11.3999 15.1875V14.7H12.5999V15.1875C12.5999 15.4125 12.4124 15.6 12.1874 15.6ZM13.5749 12.675C13.4249 12.7875 13.2749 12.9 13.1624 13.0125H10.8374C10.7249 12.9 10.5749 12.75 10.4249 12.675C9.56235 12.1125 9.03735 11.175 9.03735 10.1625C9.03735 9.33751 9.33735 8.58751 9.93735 8.02501C10.4999 7.46251 11.2124 7.20001 11.9999 7.20001C12.0374 7.20001 12.0374 7.20001 12.0749 7.20001C12.8624 7.23751 13.5749 7.53751 14.1374 8.13751C14.6999 8.73751 14.9999 9.48751 14.9624 10.2375C14.9249 11.25 14.3999 12.15 13.5749 12.675Z" fill="#161A23"/>
<path d="M12.7874 0.675003C10.1249 0.487503 7.5749 1.35 5.6249 3.15C3.7124 4.9125 2.5874 7.4625 2.5874 10.0875C2.5874 16.2375 8.1749 21.075 10.6124 22.875C11.0249 23.175 11.5499 23.3625 12.0374 23.3625C12.5249 23.3625 13.0124 23.2125 13.4249 22.9125C15.7874 21.1875 21.2624 16.5375 21.4499 10.425C21.5624 5.4375 17.6999 1.0875 12.7874 0.675003ZM12.4124 21.525C12.1874 21.7125 11.8499 21.7125 11.5874 21.525C9.3749 19.875 4.2749 15.45 4.2749 10.0875C4.2749 7.95 5.1749 5.85 6.7499 4.3875C8.2124 3.0375 10.0499 2.325 11.9999 2.325C12.2249 2.325 12.4124 2.325 12.6374 2.3625C16.6874 2.7 19.8749 6.2625 19.7249 10.35C19.5749 15.7125 14.5499 19.95 12.4124 21.525Z" fill="#161A23"/>
</svg>
