<svg width="24" height="24" viewBox="0 0 24 24" fill="none" xmlns="http://www.w3.org/2000/svg">
<g clip-path="url(#clip0_501_51272)">
<path d="M22.9125 10.95C22.9125 10.9125 22.8751 10.9125 22.8751 10.9125C22.8751 10.9125 22.8751 10.875 22.8376 10.875C22.8376 10.875 22.8376 10.875 22.8001 10.8375C22.7626 10.8 22.7626 10.8 22.725 10.7625C22.6126 10.6125 22.5001 10.5 22.3126 10.35L17.4001 6.6C17.4001 6.4875 17.4375 6.375 17.4375 6.2625C17.475 4.8375 16.9501 3.45 15.9376 2.3625C14.925 1.3125 13.5751 0.675001 12.1501 0.637501C10.6501 0.600001 9.26255 1.1625 8.21255 2.175C7.16255 3.225 6.56255 4.6125 6.56255 6.075C6.56255 6.1875 6.56255 6.3 6.56255 6.4125L1.61255 10.1625C1.35005 10.35 1.16255 10.6125 1.01255 10.8375L0.975049 10.875C0.975049 10.9125 0.937549 10.9125 0.937549 10.95C0.787549 11.2875 0.675049 11.625 0.675049 12V21C0.675049 22.275 1.72505 23.3625 3.03755 23.3625H20.9626C22.2376 23.3625 23.3251 22.3125 23.3251 21V12.2625C23.2876 11.775 23.1376 11.325 22.9125 10.95ZM9.37505 3.4125C10.0876 2.7375 11.0251 2.3625 12 2.3625C12.0375 2.3625 12.075 2.3625 12.1125 2.3625C13.0876 2.4 14.0251 2.8125 14.7375 3.5625C15.4501 4.3125 15.825 5.25 15.7875 6.225C15.75 7.5 15.0751 8.625 14.0251 9.3C13.8376 9.4125 13.6501 9.5625 13.5001 9.75H10.5C10.35 9.5625 10.2001 9.4125 10.0126 9.3C8.88755 8.625 8.25005 7.425 8.25005 6.1125C8.25005 5.0625 8.62505 4.125 9.37505 3.4125ZM11.1 11.4375H12.9376V12.1875C12.9376 12.5625 12.6376 12.8625 12.2626 12.8625H11.8125C11.4375 12.8625 11.1376 12.5625 11.1376 12.1875V11.4375H11.1ZM9.11255 10.725C9.30005 10.8375 9.41255 11.0625 9.41255 11.325V12.1875C9.41255 13.5 10.4626 14.55 11.7751 14.55H12.225C13.5375 14.55 14.5876 13.5 14.5876 12.1875V11.2875C14.5876 11.0625 14.7001 10.8375 14.8876 10.725C15.8251 10.1625 16.5001 9.3375 16.9501 8.3625L20.7001 11.2125L12 16.0875L3.15005 11.175L6.97505 8.25C7.42505 9.2625 8.13755 10.125 9.11255 10.725ZM20.9626 21.675H3.03755C2.66255 21.675 2.36255 21.375 2.36255 21V12.675L11.55 17.775C11.6625 17.85 11.8125 17.8875 11.9626 17.8875C12.1125 17.8875 12.2626 17.85 12.375 17.775L21.5626 12.6375V21C21.6 21.375 21.3001 21.675 20.9626 21.675Z" fill="#161A23"/>
</g>
<defs>
<clipPath id="clip0_501_51272">
<rect width="24" height="24" fill="white"/>
</clipPath>
</defs>
</svg>
