<svg width="24" height="24" viewBox="0 0 24 24" fill="none" xmlns="http://www.w3.org/2000/svg">
<path d="M12.1125 8.4C10.95 8.3625 9.86245 8.8125 9.03745 9.6C8.21245 10.425 7.76245 11.475 7.76245 12.6375C7.76245 14.1 8.51245 15.45 9.74995 16.2375C9.82495 16.275 9.86245 16.3875 9.86245 16.5V17.1375C9.86245 18.225 10.7625 19.125 11.85 19.125H12.1875C13.275 19.125 14.175 18.225 14.175 17.1375V16.5C14.175 16.3875 14.2125 16.3125 14.2874 16.275C15.4874 15.525 16.2375 14.2125 16.275 12.7875C16.3125 11.6625 15.9 10.575 15.1125 9.75C14.2874 8.925 13.2375 8.4375 12.1125 8.4ZM12.1875 17.475H11.85C11.7 17.475 11.55 17.3625 11.55 17.175V16.8375H12.45V17.175C12.45 17.325 12.3375 17.475 12.1875 17.475ZM13.3499 14.85C13.1999 14.925 13.0875 15.0375 12.9749 15.15H10.95C10.8375 15.0375 10.725 14.925 10.6125 14.85C9.86245 14.3625 9.41245 13.575 9.41245 12.675C9.41245 11.9625 9.67495 11.325 10.2 10.8375C10.6875 10.35 11.325 10.125 12 10.125C12.0375 10.125 12.0375 10.125 12.075 10.125C12.75 10.125 13.3875 10.425 13.875 10.95C14.3625 11.475 14.625 12.1125 14.5875 12.7875C14.55 13.6125 14.0999 14.4 13.3499 14.85Z" fill="#161A23"/>
<path d="M20.6249 5.325H16.2374V3.75C16.2374 2.6625 15.3375 1.7625 14.2499 1.7625H9.71245C8.62495 1.7625 7.72495 2.6625 7.72495 3.75V5.325H3.37495C1.87495 5.325 0.637451 6.5625 0.637451 8.0625V19.5C0.637451 21 1.87495 22.2375 3.37495 22.2375H20.6249C22.1249 22.2375 23.3624 21 23.3624 19.5V8.025C23.3624 6.525 22.1249 5.325 20.6249 5.325ZM9.41245 3.75C9.41245 3.6 9.52495 3.45 9.71245 3.45H14.2874C14.4374 3.45 14.5875 3.5625 14.5875 3.75V5.325H9.41245V3.75ZM21.6749 19.5C21.6749 20.0625 21.2249 20.55 20.6249 20.55H3.37495C2.81245 20.55 2.32495 20.1 2.32495 19.5V8.025C2.32495 7.4625 2.77495 6.975 3.37495 6.975H20.6249C21.1874 6.975 21.6749 7.425 21.6749 8.025V19.5Z" fill="#161A23"/>
</svg>
