<svg width="24" height="24" viewBox="0 0 24 24" fill="none" xmlns="http://www.w3.org/2000/svg">
<path d="M16.6875 2.66251C15.3 1.27501 13.5 0.562506 11.5875 0.675006C8.06249 0.900006 5.2875 4.01251 5.25 7.80001C5.2125 10.2 6.26249 12.4125 8.06249 13.7625V17.55C8.06249 18.825 9.1125 19.8375 10.35 19.8375H13.6125C14.8875 19.8375 15.9 18.7875 15.9 17.55V13.7625C17.7 12.4125 18.75 10.2375 18.75 7.87501C18.7875 5.92501 18.0375 4.05001 16.6875 2.66251ZM13.6125 18.1875H10.35C10.0125 18.1875 9.75 17.925 9.75 17.5875V14.325H14.25V17.5875C14.2125 17.8875 13.95 18.1875 13.6125 18.1875ZM14.625 12.6H12.825V10.275C12.825 9.82501 12.45 9.41251 11.9625 9.41251C11.5125 9.41251 11.1 9.78751 11.1 10.275V12.6H9.29999C7.76249 11.5875 6.86249 9.78751 6.89999 7.80001C6.93749 4.91251 9.03749 2.51251 11.6625 2.32501C11.775 2.32501 11.85 2.32501 11.9625 2.32501C13.275 2.32501 14.5125 2.85001 15.45 3.82501C16.5 4.91251 17.0625 6.33751 17.025 7.87501C17.0625 9.82501 16.1625 11.5875 14.625 12.6Z" fill="#161A23"/>
<path d="M14.325 21.675H9.675C9.225 21.675 8.8125 22.05 8.8125 22.5375C8.8125 23.025 9.1875 23.4 9.675 23.4H14.2875C14.7375 23.4 15.15 23.025 15.15 22.5375C15.15 22.05 14.775 21.675 14.325 21.675Z" fill="#161A23"/>
</svg>
