<svg width="24" height="24" viewBox="0 0 24 24" fill="none" xmlns="http://www.w3.org/2000/svg">
<path d="M19.95 3.41251L12.8625 0.787506C12.3375 0.600006 11.7375 0.600006 11.175 0.787506L4.08745 3.41251C3.14995 3.75001 2.51245 4.68751 2.51245 5.70001V12.15C2.51245 19.575 9.18745 22.5 11.25 23.2125C11.5125 23.2875 11.775 23.3625 12.0375 23.3625C12.3 23.3625 12.5625 23.325 12.825 23.2125C14.8875 22.5 21.5625 19.575 21.5625 12.15V5.70001C21.525 4.68751 20.8875 3.78751 19.95 3.41251ZM19.8375 12.15C19.8375 18.3 14.5125 20.8125 12.225 21.6C12.075 21.675 11.8875 21.675 11.7375 21.6C9.44995 20.8125 4.12495 18.3 4.12495 12.15V5.70001C4.12495 5.40001 4.31245 5.10001 4.61245 4.98751L11.7 2.36251C11.85 2.28751 12.0375 2.28751 12.225 2.36251L19.3125 4.98751C19.6125 5.10001 19.7999 5.36251 19.7999 5.70001V12.15H19.8375Z" fill="#161A23"/>
<path d="M12.1124 5.85001C10.9124 5.81251 9.74985 6.26251 8.88735 7.12501C8.02485 7.95001 7.53735 9.11251 7.53735 10.3125C7.53735 11.85 8.32485 13.275 9.63735 14.0625C9.71235 14.1 9.78735 14.25 9.78735 14.3625V15.0375C9.78735 16.1625 10.6874 17.0625 11.8124 17.0625H12.1874C13.3124 17.0625 14.2124 16.1625 14.2124 15.0375V14.325C14.2124 14.2125 14.2499 14.1 14.3624 14.0625C15.6374 13.275 16.3874 11.925 16.4624 10.425C16.4999 9.26251 16.0499 8.13751 15.2249 7.23751C14.3999 6.37501 13.2749 5.88751 12.1124 5.85001ZM12.1874 15.375H11.8124C11.6249 15.375 11.4749 15.225 11.4749 15.0375V14.625H12.5249V15.0375C12.5249 15.225 12.3749 15.375 12.1874 15.375ZM13.4624 12.6375C13.3124 12.7125 13.1999 12.825 13.0874 12.9375H10.9499C10.8374 12.825 10.7249 12.7125 10.5749 12.6375C9.74985 12.1125 9.26235 11.25 9.26235 10.3125C9.26235 9.56251 9.56235 8.85001 10.0874 8.32501C10.6124 7.83751 11.2874 7.53751 11.9999 7.53751C12.0374 7.53751 12.0374 7.53751 12.0749 7.53751C12.7874 7.53751 13.4624 7.87501 13.9874 8.40001C14.5124 8.92501 14.7749 9.63751 14.7374 10.35C14.7374 11.2875 14.2499 12.1125 13.4624 12.6375Z" fill="#161A23"/>
</svg>
