<svg width="24" height="24" viewBox="0 0 24 24" fill="none" xmlns="http://www.w3.org/2000/svg">
<g clip-path="url(#clip0_501_51298)">
<path d="M10.1624 4.725C8.9249 4.6875 7.7999 5.1375 6.9374 6C6.0749 6.8625 5.5874 7.9875 5.5874 9.1875C5.5874 10.725 6.3749 12.15 7.6874 12.975C7.7624 13.0125 7.8374 13.1625 7.8374 13.275V13.95C7.8374 15.075 8.7374 15.975 9.8624 15.975H10.2374C11.3624 15.975 12.2999 15.075 12.2999 13.95V13.2375C12.2999 13.125 12.3374 13.0125 12.4499 12.9375C13.7249 12.15 14.5124 10.7625 14.5499 9.2625C14.5874 8.0625 14.1374 6.9375 13.3124 6.075C12.4499 5.25 11.3249 4.725 10.1624 4.725ZM10.2374 14.325H9.8624C9.6749 14.325 9.5249 14.175 9.5249 13.9875V13.575H10.6124V13.9875C10.5749 14.175 10.4249 14.325 10.2374 14.325ZM11.5124 11.55C11.3624 11.625 11.2499 11.7375 11.1374 11.8875H8.9624C8.8499 11.775 8.7374 11.6625 8.5874 11.5875C7.7624 11.0625 7.2749 10.2 7.2749 9.225C7.2749 8.475 7.5749 7.7625 8.0999 7.2375C8.6249 6.7125 9.2999 6.45 10.0499 6.45C10.0874 6.45 10.0874 6.45 10.1249 6.45C10.8374 6.45 11.5499 6.7875 12.0749 7.3125C12.5999 7.875 12.8624 8.55 12.8624 9.3C12.8249 10.2 12.3374 11.0625 11.5124 11.55Z" fill="#161A23"/>
<path d="M23.0999 21.9L17.5124 16.3125C20.6624 12.5625 20.4749 6.975 16.9499 3.45C13.2374 -0.262498 7.1624 -0.262498 3.4499 3.45C-0.262598 7.1625 -0.262598 13.2375 3.4499 16.95C5.3249 18.825 7.7624 19.725 10.1999 19.725C12.3749 19.725 14.5499 18.975 16.3124 17.5125L21.8999 23.1C22.0499 23.25 22.2749 23.3625 22.4999 23.3625C22.7249 23.3625 22.9499 23.2875 23.0999 23.1C23.4374 22.7625 23.4374 22.2375 23.0999 21.9ZM4.6499 15.75C1.5749 12.675 1.5749 7.6875 4.6499 4.65C6.1874 3.1125 8.2124 2.3625 10.1999 2.3625C12.1874 2.3625 14.2124 3.1125 15.7499 4.65C18.8249 7.725 18.8249 12.7125 15.7499 15.75C12.7124 18.825 7.7249 18.825 4.6499 15.75Z" fill="#161A23"/>
</g>
<defs>
<clipPath id="clip0_501_51298">
<rect width="24" height="24" fill="white"/>
</clipPath>
</defs>
</svg>
