<svg width="24" height="24" viewBox="0 0 24 24" fill="none" xmlns="http://www.w3.org/2000/svg">
<path d="M9.6 10.5375C9.675 10.575 9.75 10.725 9.75 10.8375V11.55C9.75 12.675 10.6875 13.6125 11.8125 13.6125H12.1875C13.3125 13.6125 14.25 12.675 14.25 11.55V10.8375C14.25 10.725 14.325 10.6125 14.4 10.5375C15.675 9.75 16.4625 8.3625 16.5 6.8625C16.5375 5.6625 16.0875 4.5375 15.2625 3.6375C14.4375 2.775 13.3125 2.25 12.1125 2.2125C10.9125 2.175 9.75 2.625 8.85 3.4875C7.9875 4.35 7.5 5.475 7.5 6.7125C7.5 8.25 8.2875 9.675 9.6 10.5375ZM12.1875 11.8875H11.8125C11.625 11.8875 11.4375 11.7375 11.4375 11.5125V11.0625H12.525V11.5125C12.5625 11.7375 12.375 11.8875 12.1875 11.8875ZM10.05 4.6875C10.575 4.1625 11.2875 3.9 12 3.9C12.0375 3.9 12.0375 3.9 12.075 3.9C12.825 3.9 13.5 4.2375 14.025 4.8C14.55 5.3625 14.8125 6.075 14.8125 6.7875C14.775 7.725 14.2875 8.5875 13.5 9.1125C13.35 9.1875 13.2375 9.3 13.125 9.45H10.9125C10.8 9.3375 10.65 9.225 10.5375 9.1125C9.7125 8.5875 9.225 7.6875 9.225 6.7125C9.1875 5.925 9.4875 5.2125 10.05 4.6875Z" fill="#161A23"/>
<path d="M23.175 13.35C23.025 13.1625 22.8375 13.05 22.6125 13.05L18.75 12.6375C18.3 12.6 17.8875 12.9375 17.8125 13.3875C17.7375 13.8375 18.1125 14.25 18.5625 14.325L20.3625 14.5125L13.4625 19.425C13.125 19.65 12.7125 19.6125 12.45 19.3125L9.86251 16.35C9.00001 15.375 7.53751 15.225 6.48751 16.0125L0.975006 20.2875C0.600006 20.5875 0.525006 21.1125 0.825006 21.4875C0.975006 21.7125 1.23751 21.825 1.50001 21.825C1.68751 21.825 1.87501 21.75 2.02501 21.6375L7.53751 17.3625C7.87501 17.1 8.32501 17.175 8.58751 17.475L11.175 20.4375C12 21.4125 13.425 21.5625 14.4375 20.8125L21.45 15.825L21.2625 17.5875C21.225 18.0375 21.5625 18.45 22.0125 18.525C22.05 18.525 22.0875 18.525 22.0875 18.525C22.5 18.525 22.875 18.1875 22.9125 17.775L23.325 13.9875C23.3625 13.7625 23.2875 13.5375 23.175 13.35Z" fill="#161A23"/>
</svg>
