<svg width="24" height="24" viewBox="0 0 24 24" fill="none" xmlns="http://www.w3.org/2000/svg">
<path d="M22.1251 17.475C21.6376 15.9375 20.1376 15.1125 18.7126 15.525C17.5876 15.8625 16.0126 16.3125 14.8126 16.6875C14.8876 16.3125 14.8126 15.975 14.7001 15.75C14.3626 14.8875 13.4251 14.5125 12.6376 14.5125H9.1501C8.8876 14.5125 8.6251 14.3625 8.3251 14.1375C7.9126 13.7625 7.4251 13.575 6.8626 13.575H4.0501C2.7751 13.575 1.7251 14.6625 1.7251 16.0125V20.475C1.7626 21.75 2.8126 22.875 4.1251 22.875H7.5001C7.9126 22.875 8.3251 22.7625 8.7001 22.5375C9.6751 23.0625 10.8001 23.3625 11.9251 23.3625C12.6376 23.3625 13.3126 23.25 13.9501 23.0625L20.2126 21.15H20.2501C22.2001 20.4 22.4626 18.7125 22.1251 17.475ZM3.4501 20.4V15.9375C3.4501 15.525 3.7501 15.1875 4.0876 15.1875H6.9001C7.0126 15.1875 7.1251 15.225 7.2001 15.3C7.3126 15.375 7.3876 15.45 7.5001 15.525V21.1125H4.1251C3.7501 21.1875 3.4501 20.85 3.4501 20.4ZM19.6876 19.5375L13.4626 21.45C12.9751 21.6 12.4876 21.675 11.9626 21.675C11.1001 21.675 10.2376 21.45 9.4876 21.0375L9.1876 20.8875V16.1625H12.6376C12.9376 16.1625 13.1251 16.275 13.1626 16.35C13.2001 16.425 13.1251 16.7625 12.4126 17.4375C12.1126 17.7 12.0751 18.15 12.2626 18.4875C12.6001 19.0875 13.0126 18.975 14.1751 18.6375C14.7376 18.4875 15.4876 18.2625 16.2376 18.0375C17.7376 17.5875 19.2001 17.175 19.2001 17.175C19.7626 17.025 20.3251 17.3625 20.5126 17.9625C20.6626 18.4875 20.6251 19.1625 19.6876 19.5375Z" fill="#161A23"/>
<path d="M13.6501 10.2375C13.8001 10.35 13.9126 10.5375 13.9126 10.7625V11.5875C13.9126 12.8625 14.9251 13.875 16.2001 13.875H16.6501C17.8876 13.875 18.9376 12.8625 18.9376 11.5875V10.725C18.9376 10.5375 19.0501 10.35 19.2001 10.2375C20.6626 9.3 21.6001 7.72501 21.6376 6.00001C21.6751 4.61251 21.1501 3.30001 20.2126 2.28751C19.2376 1.27501 17.9626 0.712505 16.6126 0.675005C15.2251 0.637505 13.8751 1.16251 12.8626 2.13751C11.8501 3.11251 11.2876 4.42501 11.2876 5.85001C11.2126 7.65001 12.1501 9.3 13.6501 10.2375ZM16.6501 12.1875H16.2001C15.8626 12.1875 15.6001 11.925 15.6001 11.5875V10.9125H17.2126V11.5875C17.2126 11.925 16.9501 12.1875 16.6501 12.1875ZM13.9876 3.33751C14.6626 2.70001 15.5251 2.36251 16.4251 2.36251C16.4626 2.36251 16.5001 2.36251 16.5001 2.36251C17.4001 2.40001 18.2626 2.77501 18.9376 3.45001C19.5751 4.12501 19.9501 5.02501 19.9126 5.96251C19.8751 7.12501 19.2751 8.21251 18.2626 8.85001C18.0751 8.96251 17.9251 9.11251 17.7751 9.26251H15.0001C14.8501 9.11251 14.7001 8.96251 14.5126 8.85001C13.5001 8.21251 12.8626 7.08751 12.8626 5.88751C12.9001 4.87501 13.2751 4.01251 13.9876 3.33751Z" fill="#161A23"/>
</svg>
