<svg width="24" height="24" viewBox="0 0 24 24" fill="none" xmlns="http://www.w3.org/2000/svg">
<path d="M12.1125 9.67499C10.95 9.63749 9.86245 10.0875 9.03745 10.875C8.21245 11.7 7.76245 12.75 7.76245 13.9125C7.76245 15.375 8.51245 16.725 9.74995 17.5125C9.82495 17.55 9.86245 17.6625 9.86245 17.775V18.4125C9.86245 19.5 10.7625 20.4 11.85 20.4H12.1875C13.275 20.4 14.175 19.5 14.175 18.4125V17.7375C14.175 17.625 14.2125 17.55 14.2874 17.5125C15.4874 16.7625 16.2375 15.45 16.275 14.025C16.3125 12.9 15.9 11.8125 15.1125 10.9875C14.2874 10.1625 13.2375 9.71249 12.1125 9.67499ZM12.1875 18.7125H11.85C11.7 18.7125 11.55 18.6 11.55 18.4125V18.075H12.45V18.4125C12.45 18.6 12.3375 18.7125 12.1875 18.7125ZM13.3499 16.125C13.1999 16.2 13.0875 16.3125 12.9749 16.425H10.95C10.8375 16.3125 10.725 16.2 10.6125 16.125C9.86245 15.6375 9.41245 14.85 9.41245 13.95C9.41245 13.2375 9.67495 12.6 10.2 12.1125C10.6875 11.625 11.325 11.4 12 11.4C12.0375 11.4 12.0375 11.4 12.075 11.4C12.75 11.4 13.3875 11.7 13.875 12.225C14.3625 12.75 14.625 13.3875 14.5875 14.0625C14.55 14.85 14.0999 15.6375 13.3499 16.125Z" fill="#161A23"/>
<path d="M20.9999 2.8875H18.0749V1.875C18.0749 1.425 17.6999 1.0125 17.2125 1.0125C16.725 1.0125 16.3499 1.3875 16.3499 1.875V2.8875H7.61245V1.875C7.61245 1.425 7.23745 1.0125 6.74995 1.0125C6.26245 1.0125 5.88745 1.3875 5.88745 1.875V2.8875H2.99995C1.72495 2.8875 0.637451 3.9375 0.637451 5.25V20.625C0.637451 21.9 1.68745 22.9875 2.99995 22.9875H20.9999C22.275 22.9875 23.3624 21.9375 23.3624 20.625V5.25C23.3624 3.9375 22.275 2.8875 20.9999 2.8875ZM2.99995 4.575H5.92495V4.875C5.92495 5.325 6.29995 5.7375 6.78745 5.7375C7.27495 5.7375 7.64995 5.3625 7.64995 4.875V4.575H16.4625V4.875C16.4625 5.325 16.8375 5.7375 17.3249 5.7375C17.8125 5.7375 18.1875 5.3625 18.1875 4.875V4.575H20.9999C21.3749 4.575 21.6749 4.875 21.6749 5.25V7.275H2.36245V5.25C2.36245 4.875 2.62495 4.575 2.99995 4.575ZM20.9999 21.2625H2.99995C2.62495 21.2625 2.32495 20.9625 2.32495 20.5875V8.9625H21.6374V20.625C21.6749 20.9625 21.3749 21.2625 20.9999 21.2625Z" fill="#161A23"/>
</svg>
