<svg width="24" height="24" viewBox="0 0 24 24" fill="none" xmlns="http://www.w3.org/2000/svg">
<path d="M23.3251 11.325C23.2876 10.0125 22.6501 8.81251 21.6751 8.02501C21.7126 6.90001 21.375 5.81251 20.6625 4.98751C20.025 4.20001 19.1251 3.71251 18.1501 3.60001C17.5501 2.36251 16.4251 1.50001 15.0751 1.31251C14.1751 1.20001 13.3126 1.35001 12.5625 1.76251C12.3376 1.38751 11.925 1.16251 11.475 1.16251C9.26255 1.16251 7.16255 2.02501 5.58755 3.60001C4.01255 5.17501 3.15005 7.27501 3.15005 9.48751C3.15005 9.86251 3.03755 10.2 2.85005 10.5L0.900049 13.6125C0.750049 13.875 0.675049 14.175 0.675049 14.5125C0.675049 15.45 1.42505 16.2 2.36255 16.2H3.18755V17.85C3.18755 19.2375 4.31255 20.3625 5.70005 20.3625C5.96255 20.3625 6.22505 20.325 6.45005 20.25L7.35005 19.9875V21.6375C7.35005 22.35 7.91255 22.9125 8.62505 22.9125H11.55C12 22.9125 12.4125 22.65 12.6376 22.3125C13.2001 22.65 13.875 22.8375 14.55 22.8375C14.85 22.8375 15.1501 22.8 15.4501 22.725C16.9501 22.3875 18.0751 21.2625 18.4876 19.8C19.3125 19.5 20.0625 18.9375 20.5501 18.15C21.0751 17.325 21.3001 16.3875 21.225 15.4125C22.5375 14.55 23.4001 13.0125 23.3251 11.325ZM11.1 21.15H9.00005V18.7875C9.00005 18.525 8.88755 18.2625 8.66255 18.1125C8.43755 17.9625 8.17505 17.8875 7.91255 18L5.88755 18.6H5.85005C5.81255 18.6 5.77505 18.6375 5.66255 18.6375C5.21255 18.6375 4.83755 18.2625 4.83755 17.8125V15.3C4.83755 14.85 4.46255 14.4375 3.97505 14.4375H2.32505L4.27505 11.325C4.65005 10.7625 4.83755 10.0875 4.83755 9.41251C4.83755 7.65001 5.51255 5.96251 6.78755 4.68751C7.95005 3.52501 9.45005 2.85001 11.0625 2.73751V21.15H11.1ZM19.9876 13.9875C19.5751 14.1375 19.35 14.55 19.4251 14.9625C19.6126 15.7125 19.4626 16.4625 19.0501 17.1C18.6751 17.6625 18.1501 18.0375 17.5126 18.1875C17.1751 18.2625 16.9126 18.525 16.8376 18.9C16.6501 20.175 15.7501 20.8125 14.9626 21C14.1001 21.1875 13.3126 20.8875 12.7126 20.2125V3.78751C13.2376 3.15001 13.9876 2.85001 14.7751 2.96251C15.6751 3.11251 16.3876 3.75001 16.6875 4.65001C16.8001 4.98751 17.1376 5.21251 17.475 5.21251H17.5126C18.1876 5.21251 18.8251 5.51251 19.2751 6.03751C19.8001 6.63751 20.0251 7.46251 19.8751 8.28751C19.8001 8.62501 19.9876 9.00001 20.2875 9.15001C21.0375 9.56251 21.5251 10.425 21.5626 11.3625C21.7126 12.6 21 13.65 19.9876 13.9875Z" fill="#161A23"/>
</svg>
