<svg width="24" height="24" viewBox="0 0 24 24" fill="none" xmlns="http://www.w3.org/2000/svg">
<g clip-path="url(#clip0_501_51260)">
<path d="M9.6 9.1875C9.675 9.225 9.75 9.375 9.75 9.4875V10.2C9.75 11.325 10.6875 12.2625 11.8125 12.2625H12.1875C13.3125 12.2625 14.25 11.325 14.25 10.2V9.4875C14.25 9.375 14.325 9.2625 14.4 9.1875C15.675 8.4 16.4625 7.0125 16.5 5.5125C16.5375 4.3125 16.0875 3.1875 15.2625 2.2875C14.4375 1.425 13.3125 0.9 12.1125 0.8625C10.875 0.825 9.7125 1.275 8.85 2.1375C7.9875 3 7.5 4.125 7.5 5.3625C7.5 6.9375 8.2875 8.3625 9.6 9.1875ZM12.1875 10.5375H11.8125C11.625 10.5375 11.4375 10.3875 11.4375 10.1625V9.75H12.525V10.2C12.5625 10.3875 12.375 10.5375 12.1875 10.5375ZM10.05 3.3375C10.575 2.8125 11.25 2.55 12 2.55C12.0375 2.55 12.0375 2.55 12.075 2.55C12.825 2.55 13.5 2.8875 14.025 3.45C14.55 4.0125 14.8125 4.725 14.8125 5.4375C14.775 6.375 14.2875 7.2375 13.5 7.7625C13.35 7.8375 13.2375 7.95 13.125 8.1H10.9125C10.8 7.9875 10.65 7.875 10.5375 7.7625C9.7125 7.2375 9.225 6.3375 9.225 5.3625C9.1875 4.575 9.4875 3.8625 10.05 3.3375Z" fill="#161A23"/>
<path d="M23.25 21.7125C23.25 21.675 23.2875 21.675 23.2875 21.6375C23.2875 21.6 23.2875 21.6 23.325 21.5625C23.325 21.525 23.325 21.525 23.3625 21.4875C23.3625 21.45 23.3625 21.45 23.3625 21.4125C23.3625 21.375 23.3625 21.3375 23.3625 21.3375C23.3625 21.3 23.3625 21.3 23.3625 21.2625C23.3625 21.225 23.3625 21.1875 23.3625 21.1875V21.15L22.3875 17.475C22.275 17.025 21.825 16.7625 21.375 16.875C20.925 16.9875 20.6625 17.4375 20.775 17.8875L21.15 19.3125L14.4375 14.55C13.3875 13.8 12 13.9875 11.175 14.925L8.58751 17.8875C8.32501 18.1875 7.83751 18.225 7.53751 18L2.02501 13.725C1.65001 13.425 1.12501 13.5 0.825006 13.875C0.525006 14.25 0.600006 14.775 0.975006 15.075L6.48751 19.35C7.50001 20.1375 9.00001 19.9875 9.86251 19.0125L12.45 16.05C12.7125 15.75 13.1625 15.7125 13.4625 15.9375L20.55 20.9625L18.5625 21.4875C18.1125 21.6 17.85 22.05 17.9625 22.5C18.075 22.875 18.4125 23.1375 18.7875 23.1375C18.8625 23.1375 18.9375 23.1375 19.0125 23.1L22.725 22.125C22.7625 22.125 22.8375 22.0875 22.875 22.05C22.875 22.05 22.9125 22.05 22.9125 22.0125C22.95 21.975 22.9875 21.975 23.025 21.9375L23.0625 21.9C23.1 21.8625 23.1375 21.825 23.1375 21.7875C23.1375 21.7875 23.1375 21.7875 23.175 21.75V21.7125C23.175 21.7125 23.175 21.675 23.2125 21.675C23.25 21.75 23.25 21.7125 23.25 21.7125Z" fill="#161A23"/>
</g>
<defs>
<clipPath id="clip0_501_51260">
<rect width="24" height="24" fill="white"/>
</clipPath>
</defs>
</svg>
