<svg width="24" height="24" viewBox="0 0 24 24" fill="none" xmlns="http://www.w3.org/2000/svg">
<g clip-path="url(#clip0_501_51280)">
<path d="M9.75006 14.4375C9.82506 14.475 9.86256 14.5875 9.86256 14.7V15.3375C9.86256 16.425 10.7626 17.325 11.8501 17.325H12.1876C13.2751 17.325 14.1751 16.425 14.1751 15.3375V14.6625C14.1751 14.55 14.2126 14.475 14.2876 14.4375C15.4876 13.6875 16.2376 12.375 16.2751 10.95C16.3126 9.82501 15.9001 8.73751 15.1126 7.91251C14.3251 7.08751 13.2751 6.60001 12.1501 6.56251C10.9876 6.52501 9.90006 6.97501 9.07506 7.76251C8.25006 8.58751 7.80006 9.63751 7.80006 10.8C7.72506 12.3 8.47506 13.65 9.75006 14.4375ZM12.1876 15.6H11.8501C11.7001 15.6 11.5501 15.4875 11.5501 15.3V15H12.4501V15.3375C12.4501 15.4875 12.3376 15.6 12.1876 15.6ZM10.2001 8.96251C10.6876 8.47501 11.3251 8.25001 12.0001 8.25001C12.0376 8.25001 12.0376 8.25001 12.0751 8.25001C12.7501 8.25001 13.3876 8.55001 13.8751 9.07501C14.3626 9.60001 14.6251 10.2375 14.5876 10.9125C14.5501 11.775 14.1001 12.5625 13.3876 13.0125C13.2376 13.0875 13.1251 13.2 13.0126 13.3125H10.9876C10.8751 13.2 10.7626 13.0875 10.6501 13.0125C9.90006 12.525 9.45006 11.7375 9.45006 10.8375C9.41256 10.125 9.71256 9.45001 10.2001 8.96251Z" fill="#161A23"/>
<path d="M21.0751 0.675003H2.9251C1.8376 0.675003 0.975098 1.5375 0.975098 2.625V3.4125C0.975098 4.3875 1.6876 5.175 2.5876 5.3625V17.325C2.5876 19.1625 4.0876 20.7 5.9626 20.7H11.1751V22.5C11.1751 22.95 11.5501 23.3625 12.0376 23.3625C12.4876 23.3625 12.9001 22.9875 12.9001 22.5V20.6625H18.1126C19.9501 20.6625 21.4876 19.1625 21.4876 17.2875V5.3625C22.3876 5.2125 23.1001 4.3875 23.1001 3.4125V2.625C23.0251 1.5375 22.1626 0.675003 21.0751 0.675003ZM2.6626 2.625C2.6626 2.475 2.7751 2.325 2.9626 2.325H21.1126C21.2626 2.325 21.4126 2.4375 21.4126 2.625V3.4125C21.4126 3.5625 21.3001 3.7125 21.1126 3.7125H2.9251C2.7751 3.7125 2.6251 3.6 2.6251 3.4125V2.625H2.6626ZM19.7251 17.2875C19.7251 18.225 18.9751 18.975 18.0376 18.975H5.9251C4.9876 18.975 4.2376 18.225 4.2376 17.2875V5.4H19.7251V17.2875Z" fill="#161A23"/>
</g>
<defs>
<clipPath id="clip0_501_51280">
<rect width="24" height="24" fill="white"/>
</clipPath>
</defs>
</svg>
