<svg width="24" height="24" viewBox="0 0 24 24" fill="none" xmlns="http://www.w3.org/2000/svg">
<path d="M22.1625 13.725L21.1125 12.75C21.15 12.4875 21.15 12.225 21.15 12C21.15 11.775 21.15 11.475 21.1125 11.25L22.1625 10.275C22.875 9.6 23.0625 8.5125 22.575 7.6125L21.1125 5.0625C20.625 4.2 19.575 3.7875 18.6 4.0875L17.2125 4.5C16.8 4.2 16.35 3.9375 15.9 3.7125L15.6 2.325C15.375 1.35 14.475 0.674999 13.5 0.674999H10.5C9.48754 0.674999 8.62504 1.3875 8.40004 2.3625L8.10004 3.75C7.65004 3.975 7.20004 4.2375 6.78754 4.5375L5.43754 4.125C4.46254 3.825 3.41254 4.2375 2.92504 5.1L1.42504 7.6875C0.937538 8.55 1.08754 9.6375 1.83754 10.35L2.88754 11.25C2.85004 11.5125 2.85004 11.775 2.85004 12C2.85004 12.2625 2.85004 12.525 2.88754 12.75L1.83754 13.725C1.12504 14.4 0.937538 15.4875 1.42504 16.3875L2.88754 18.9375C3.37504 19.8 4.46254 20.25 5.40004 19.9125L6.75004 19.5C7.16254 19.8 7.61254 20.0625 8.06254 20.2875L8.36254 21.675C8.58754 22.65 9.45004 23.3625 10.4625 23.3625H13.5C14.5125 23.3625 15.375 22.65 15.6 21.675L15.9 20.2875C16.35 20.0625 16.8 19.8 17.2125 19.5L18.5625 19.9125C19.5375 20.2125 20.5875 19.8 21.075 18.9375L22.575 16.35C23.0625 15.4875 22.9125 14.4 22.1625 13.725ZM21.1125 15.525L19.6125 18.1125C19.5 18.3 19.275 18.375 19.0875 18.3L17.325 17.7375C17.0625 17.6625 16.7625 17.7 16.5375 17.8875C16.0125 18.3 15.45 18.6375 14.85 18.8625C14.5875 18.975 14.4 19.2 14.3625 19.4625L13.95 21.2625C13.9125 21.45 13.725 21.6375 13.5 21.6375H10.5C10.275 21.6375 10.0875 21.4875 10.05 21.2625L9.67504 19.5C9.60004 19.2375 9.41254 19.0125 9.18754 18.9C8.58754 18.675 8.02504 18.3375 7.50004 17.925C7.35004 17.8125 7.16254 17.7375 6.97504 17.7375C6.90004 17.7375 6.78754 17.7375 6.71254 17.775L4.95004 18.3375C4.72504 18.4125 4.50004 18.3 4.38754 18.1125L2.92504 15.5625C2.81254 15.375 2.85004 15.1125 3.00004 14.9625L4.35004 13.725C4.53754 13.5375 4.65004 13.275 4.61254 13.0125C4.57504 12.675 4.53754 12.3375 4.53754 12C4.53754 11.6625 4.57504 11.325 4.61254 10.9875C4.65004 10.725 4.53754 10.4625 4.35004 10.275L3.00004 9.0375C2.85004 8.8875 2.81254 8.625 2.88754 8.4375L4.38754 5.85C4.50004 5.6625 4.72504 5.5875 4.91254 5.6625L6.67504 6.225C6.93754 6.3 7.23754 6.2625 7.46254 6.075C7.98754 5.6625 8.58754 5.325 9.15004 5.1C9.41254 4.9875 9.60004 4.7625 9.63754 4.5L10.05 2.7C10.0875 2.5125 10.275 2.325 10.5 2.325H13.5C13.725 2.325 13.9125 2.475 13.95 2.7L14.3625 4.5C14.4375 4.7625 14.625 4.9875 14.85 5.1C15.45 5.325 16.0125 5.6625 16.5375 6.075C16.7625 6.2625 17.0625 6.3 17.325 6.225L19.05 5.6625C19.275 5.5875 19.5 5.7 19.6125 5.8875L21.075 8.4375C21.1875 8.625 21.15 8.8875 21 9.0375L19.65 10.275C19.4625 10.4625 19.35 10.725 19.3875 10.9875C19.425 11.325 19.4625 11.6625 19.4625 12C19.4625 12.3375 19.425 12.675 19.3875 13.0125C19.35 13.275 19.4625 13.5375 19.65 13.725L21 14.9625C21.1875 15.1125 21.225 15.3375 21.1125 15.525Z" fill="#161A23"/>
<path d="M12.1125 6.45C10.9125 6.4125 9.78755 6.8625 8.92505 7.6875C8.06255 8.5125 7.61255 9.6375 7.61255 10.8375C7.61255 12.375 8.40005 13.7625 9.67505 14.5875C9.75005 14.625 9.82505 14.7375 9.82505 14.8875V15.5625C9.82505 16.6875 10.725 17.5875 11.85 17.5875H12.225C13.35 17.5875 14.25 16.6875 14.25 15.5625V14.85C14.25 14.7375 14.2875 14.625 14.4 14.5875C15.6375 13.8 16.425 12.45 16.4625 10.9875C16.5 9.825 16.05 8.7 15.225 7.8375C14.3625 6.9375 13.275 6.45 12.1125 6.45ZM12.1875 15.8625H11.8125C11.625 15.8625 11.475 15.7125 11.475 15.525V15.1125H12.4875V15.525C12.525 15.75 12.375 15.8625 12.1875 15.8625ZM13.425 13.1625C13.275 13.2375 13.1625 13.35 13.05 13.4625H10.9125C10.8 13.35 10.6875 13.2375 10.5375 13.1625C9.75005 12.675 9.26255 11.8125 9.26255 10.8375C9.26255 10.0875 9.56255 9.4125 10.0875 8.8875C10.6125 8.4 11.2875 8.1 12 8.1C12.0375 8.1 12.0375 8.1 12.075 8.1C12.7875 8.1 13.4625 8.4375 13.95 8.9625C14.475 9.4875 14.7375 10.2 14.7 10.9125C14.7 11.8125 14.2125 12.675 13.425 13.1625Z" fill="#161A23"/>
</svg>
