<svg width="24" height="24" viewBox="0 0 24 24" fill="none" xmlns="http://www.w3.org/2000/svg">
<path d="M16.9125 0.674988H7.08751C5.81251 0.674988 4.72501 1.72499 4.72501 3.03749V21.0375C4.72501 22.3125 5.77501 23.4 7.08751 23.4H16.9125C18.1875 23.4 19.275 22.35 19.275 21.0375V2.99999C19.2375 1.72499 18.1875 0.674988 16.9125 0.674988ZM17.55 21C17.55 21.375 17.25 21.675 16.875 21.675H7.08751C6.71251 21.675 6.41251 21.375 6.41251 21V2.99999C6.41251 2.62499 6.71251 2.32499 7.08751 2.32499H16.9125C17.2875 2.32499 17.5875 2.62499 17.5875 2.99999V21H17.55Z" fill="#161A23"/>
<path d="M12 16.2375C13.4625 16.2375 14.625 15.075 14.625 13.6125C14.625 12.15 13.4625 10.9875 12 10.9875C10.5375 10.9875 9.375 12.15 9.375 13.6125C9.375 15.0375 10.5375 16.2375 12 16.2375ZM12 12.6375C12.525 12.6375 12.9375 13.05 12.9375 13.575C12.9375 14.1 12.525 14.5125 12 14.5125C11.475 14.5125 11.0625 14.1 11.0625 13.575C11.0625 13.05 11.475 12.6375 12 12.6375Z" fill="#161A23"/>
<path d="M12.0375 16.65C10.425 16.65 8.96251 17.475 8.10001 18.825C7.83751 19.2 7.95001 19.725 8.36251 19.9875C8.51251 20.0625 8.66251 20.1375 8.81251 20.1375C9.07501 20.1375 9.37501 19.9875 9.52501 19.7625C10.0875 18.9 11.025 18.375 12.0375 18.375C12.975 18.375 13.9125 18.9 14.5125 19.8C14.775 20.175 15.3 20.2875 15.675 20.025C16.05 19.7625 16.1625 19.2375 15.9 18.8625C14.9625 17.475 13.5375 16.65 12.0375 16.65Z" fill="#161A23"/>
<path d="M10.35 6.97498H11.175V7.79998C11.175 8.24998 11.55 8.66248 12.0375 8.66248C12.4875 8.66248 12.9 8.28748 12.9 7.79998V6.97498H13.725C14.175 6.97498 14.5875 6.59998 14.5875 6.11248C14.5875 5.62498 14.2125 5.24998 13.725 5.24998H12.9V4.49998C12.9 4.04998 12.525 3.63748 12.0375 3.63748C11.5875 3.63748 11.175 4.01248 11.175 4.49998V5.32498H10.35C9.90002 5.32498 9.48752 5.69998 9.48752 6.18748C9.48752 6.67498 9.86252 6.97498 10.35 6.97498Z" fill="#161A23"/>
</svg>
