<svg width="24" height="24" viewBox="0 0 24 24" fill="none" xmlns="http://www.w3.org/2000/svg">
<path d="M14.85 11.8875C16.6125 11.8875 18.075 10.4625 18.075 8.6625C18.075 6.8625 16.65 5.4375 14.85 5.4375C13.05 5.4375 11.625 6.9375 11.625 8.7C11.625 10.4625 13.0875 11.8875 14.85 11.8875ZM14.85 7.1625C15.675 7.1625 16.3875 7.8375 16.3875 8.7C16.3875 9.5625 15.7125 10.2375 14.85 10.2375C13.9875 10.2375 13.3125 9.5625 13.3125 8.7C13.3125 7.8375 13.9875 7.1625 14.85 7.1625Z" fill="#161A23"/>
<path d="M19.7625 0.674988H4.23748C2.96248 0.674988 1.91248 1.72499 1.91248 2.99999V21C1.91248 22.275 2.96248 23.3625 4.27498 23.3625H19.7625C21.0375 23.3625 22.125 22.3125 22.125 21V2.99999C22.0875 1.72499 21.0375 0.674988 19.7625 0.674988ZM4.23748 2.36249H19.725C20.1 2.36249 20.4 2.66249 20.4 3.03749V16.125L17.6625 13.875C16.875 13.2375 15.75 13.275 15.0375 13.9875L11.9625 17.025L8.02498 13.5C7.27498 12.825 6.14998 12.825 5.39998 13.5L3.59998 15.1125V2.99999C3.59998 2.62499 3.89998 2.36249 4.23748 2.36249ZM19.7625 21.675H4.23748C3.86248 21.675 3.56248 21.375 3.56248 21V17.3625L6.48748 14.7C6.59998 14.5875 6.74998 14.5875 6.86248 14.7L11.4 18.75C11.55 18.9 11.775 18.975 11.9625 18.975C12.1875 18.975 12.375 18.9 12.5625 18.7125L16.2 15.1125C16.3125 15 16.4625 15 16.575 15.1125L20.3625 18.2625V21C20.4 21.375 20.1 21.675 19.7625 21.675Z" fill="#161A23"/>
</svg>
