<svg width="24" height="24" viewBox="0 0 24 24" fill="none" xmlns="http://www.w3.org/2000/svg">
<g clip-path="url(#clip0_914_45100)">
<path d="M22.0494 0.375H1.94941C1.08691 0.4125 0.411915 1.125 0.336914 1.9125V22.05C0.411915 22.875 1.04941 23.5125 1.87441 23.625H1.91191H22.0494H22.1244C22.9869 23.5875 23.6619 22.8375 23.6619 21.975V2.025C23.5869 1.1625 22.9119 0.4125 22.0494 0.375ZM23.1369 21.975C23.1369 22.6125 22.6494 23.1 22.0869 23.1375H1.87441C1.27441 23.1 0.824415 22.6125 0.824415 22.0125V1.95C0.861915 1.35 1.34941 0.9 1.94941 0.825H22.0119C22.6494 0.8625 23.1369 1.35 23.1369 1.9875V21.975Z" fill="#15171A"/>
<path d="M4.9869 8.36243H3.14941V15.4874H4.9869V8.36243Z" fill="#15171A"/>
<path d="M8.475 11.7374L8.2125 9.89993C8.175 9.33743 8.0625 8.77493 7.9875 8.36243H5.625V15.4874H7.2V10.7999L7.875 15.4874H9.0375L9.675 10.6874V15.4874H11.25V8.36243H8.8125L8.475 11.7374Z" fill="#15171A"/>
<path d="M15.7869 8.92515C15.6369 8.70015 15.3744 8.62515 15.0369 8.51265C14.7369 8.47515 14.1744 8.40015 13.3494 8.40015H11.9619V15.5251H14.1744C14.7369 15.5251 15.5244 15.6001 15.8619 15.0376C16.0119 14.8126 16.0494 14.5126 16.0869 14.2126C16.1244 13.9501 16.1244 13.6876 16.1244 13.3876V10.9126C16.1244 10.2376 16.1244 9.78765 16.0869 9.52515C16.0494 9.30015 15.9369 9.11265 15.7869 8.92515ZM14.4744 13.2751C14.4744 13.7626 14.3619 14.0251 14.3244 14.1376C14.2869 14.2501 14.0994 14.2876 13.8369 14.2876V9.56265C14.0619 9.56265 14.1369 9.56265 14.2494 9.60015C14.2869 9.63765 14.3619 9.71265 14.3994 9.82515C14.4369 9.93765 14.4369 10.1251 14.4369 10.4626V13.2751H14.4744Z" fill="#15171A"/>
<path d="M20.7375 10.6124C20.6625 10.4624 20.55 10.3874 20.3625 10.3124C20.0625 10.1999 19.6875 10.1624 19.35 10.2374C19.2 10.2749 19.05 10.3124 18.9 10.3874C18.825 10.4249 18.75 10.4624 18.675 10.5374C18.6375 10.5749 18.4875 10.6499 18.4875 10.6874V8.36243H16.6875V15.4874H18.375L18.4875 14.9999C18.6375 15.1499 18.7875 15.2999 18.975 15.4124C19.125 15.5249 19.35 15.5249 19.5375 15.5249C19.725 15.5249 19.95 15.4874 20.1375 15.4124C20.55 15.2249 20.8125 14.8124 20.85 14.3624C20.8875 13.7249 20.8875 13.0874 20.8875 12.4124C20.8875 11.9624 20.8875 11.5124 20.8875 11.0999C20.85 10.9124 20.8125 10.7624 20.7375 10.6124ZM19.1625 13.7999C19.1625 14.0999 19.1625 14.3624 19.125 14.4374C19.0875 14.5499 18.975 14.5874 18.825 14.5874C18.7125 14.5874 18.675 14.5499 18.6 14.4749C18.5625 14.3624 18.5625 14.2124 18.5625 13.9124V11.9999C18.5625 11.6999 18.5625 11.4749 18.6 11.4374C18.6375 11.3999 18.7125 11.3249 18.825 11.3249C18.9375 11.3249 19.0875 11.3624 19.125 11.4749C19.1625 11.5874 19.1625 11.7374 19.1625 12.0374V13.7999Z" fill="#15171A"/>
</g>
<defs>
<clipPath id="clip0_914_45100">
<rect width="24" height="24" fill="white"/>
</clipPath>
</defs>
</svg>
