<svg width="24" height="24" viewBox="0 0 24 24" fill="none" xmlns="http://www.w3.org/2000/svg">
<path d="M23.3625 7.49995C23.3625 4.83745 21.1875 2.69995 18.5625 2.69995C15.9375 2.69995 13.725 4.87495 13.725 7.49995C13.725 7.76245 13.7625 7.98745 13.8 8.24995H2.66251C1.53751 8.24995 0.637512 9.14995 0.637512 10.275V19.275C0.637512 20.4 1.53751 21.2999 2.66251 21.2999H17.3625C18.4875 21.2999 19.3875 20.4 19.3875 19.275V12.2625C21.6375 11.85 23.3625 9.86245 23.3625 7.49995ZM2.36251 10.9125L7.46251 14.025L2.36251 18.7874V10.9125ZM8.92501 14.9625C9.26251 15.1875 9.63751 15.2625 10.0125 15.2625C10.3875 15.2625 10.7625 15.15 11.0625 14.9625L15.9375 19.6124H3.93751L8.92501 14.9625ZM17.7 18.9375L12.5625 14.0625L16.2375 11.775C16.6875 12 17.175 12.1875 17.7 12.2625V18.9375ZM14.85 10.6125L10.1625 13.5374C10.05 13.6124 9.93751 13.6124 9.82501 13.5374L3.97501 9.93745H14.3625C14.5125 10.2 14.7 10.425 14.85 10.6125ZM18.525 10.65C16.8 10.65 15.4125 9.26245 15.4125 7.53745C15.4125 5.81245 16.8 4.42495 18.525 4.42495C20.25 4.42495 21.6375 5.81245 21.6375 7.53745C21.675 9.22495 20.25 10.65 18.525 10.65Z" fill="#161A23"/>
<path d="M18.525 7.3125C18.075 7.3125 17.6625 7.6875 17.6625 8.175V9.15C17.6625 9.6 18.0375 10.0125 18.525 10.0125C19.0125 10.0125 19.3875 9.6375 19.3875 9.15V8.175C19.3875 7.6875 19.0125 7.3125 18.525 7.3125Z" fill="#161A23"/>
<path d="M18.525 5.25C18.075 5.25 17.6625 5.625 17.6625 6.1125C17.6625 6.6 18.0375 6.975 18.525 6.975C19.0125 6.975 19.3875 6.6 19.3875 6.1125V6.075C19.3875 5.625 19.0125 5.25 18.525 5.25Z" fill="#161A23"/>
</svg>
