<svg width="24" height="24" viewBox="0 0 24 24" fill="none" xmlns="http://www.w3.org/2000/svg">
<path d="M22.5 9.86245C22.05 9.86245 21.6375 10.2375 21.6375 10.725V17.775C21.6375 19.2375 20.55 20.4 19.2 20.4H4.79995C3.41245 20.4 2.36245 19.2375 2.36245 17.775V10.6875C2.36245 10.2375 1.98745 9.82495 1.49995 9.82495C1.01245 9.82495 0.637451 10.2 0.637451 10.6875V17.7375C0.637451 20.1 2.47495 22.05 4.76245 22.05H19.2C21.4875 22.05 23.325 20.1375 23.325 17.7375V10.6875C23.3625 10.2375 22.95 9.86245 22.5 9.86245Z" fill="#161A23"/>
<path d="M11.3999 15.45C11.5499 15.6 11.7749 15.7125 11.9999 15.7125C12.2249 15.7125 12.4124 15.6375 12.5999 15.45L17.1749 10.9125C17.5124 10.575 17.5124 10.05 17.1749 9.71245C16.8374 9.37495 16.3124 9.37495 15.9749 9.71245L12.8624 12.7875V2.81245C12.8624 2.36245 12.4874 1.94995 11.9999 1.94995C11.5499 1.94995 11.1374 2.32495 11.1374 2.81245V12.8625L8.0249 9.74995C7.6874 9.41245 7.1624 9.41245 6.8249 9.74995C6.4874 10.0875 6.4874 10.6125 6.8249 10.95L11.3999 15.45Z" fill="#161A23"/>
</svg>
