<svg width="24" height="24" viewBox="0 0 24 24" fill="none" xmlns="http://www.w3.org/2000/svg">
<path d="M21 1.38745H3.00001C1.72501 1.38745 0.637512 2.43745 0.637512 3.74995V20.2875C0.637512 21.5625 1.68751 22.65 3.00001 22.65H21C22.275 22.65 23.3625 21.6 23.3625 20.2875V3.71245C23.3625 2.43745 22.275 1.38745 21 1.38745ZM3.00001 3.07495H21C21.375 3.07495 21.675 3.37495 21.675 3.74995V6.07495H2.36251V3.71245C2.36251 3.37495 2.62501 3.07495 3.00001 3.07495ZM21 20.9249H3.00001C2.62501 20.9249 2.32501 20.625 2.32501 20.25V7.72495H21.6375V20.25C21.675 20.625 21.375 20.9249 21 20.9249Z" fill="#161A23"/>
<path d="M18.6375 13.2749H17.7375L16.0125 9.33743C15.8625 8.99993 15.4875 8.77493 15.1125 8.84993L11.9625 9.37493L8.85 8.81243C8.475 8.73743 8.0625 8.96243 7.9125 9.29993L6.2625 13.2374H5.3625C4.9125 13.2374 4.5 13.6124 4.5 14.0999C4.5 14.5874 4.875 14.9624 5.3625 14.9624H6.7875H8.025C7.125 15.3749 6.525 16.3124 6.525 17.3624C6.525 18.8249 7.725 20.0249 9.1875 20.0249C10.65 20.0249 11.85 18.8249 11.85 17.3624C11.85 16.3124 11.2125 15.4124 10.35 14.9624H13.575C12.675 15.3749 12.075 16.3124 12.075 17.3624C12.075 18.8249 13.275 20.0249 14.7375 20.0249C16.2 20.0249 17.4 18.8249 17.4 17.3624C17.4 16.3124 16.7625 15.4124 15.9 14.9624H18.7125C19.1625 14.9624 19.575 14.5874 19.575 14.0999C19.575 13.6124 19.0875 13.2749 18.6375 13.2749ZM9.1875 18.3374C8.6625 18.3374 8.2125 17.8874 8.2125 17.3624C8.2125 16.8374 8.6625 16.3874 9.1875 16.3874C9.7125 16.3874 10.1625 16.8374 10.1625 17.3624C10.1625 17.9249 9.7125 18.3374 9.1875 18.3374ZM14.7 18.3374C14.175 18.3374 13.725 17.8874 13.725 17.3624C13.725 16.8374 14.175 16.3874 14.7 16.3874C15.225 16.3874 15.675 16.8374 15.675 17.3624C15.675 17.9249 15.225 18.3374 14.7 18.3374ZM9.225 10.6124L11.8125 11.0624C11.925 11.0624 12 11.0624 12.1125 11.0624L14.7375 10.6124L15.9 13.2749H8.1L9.225 10.6124Z" fill="#161A23"/>
</svg>
