<svg width="24" height="24" viewBox="0 0 24 24" fill="none" xmlns="http://www.w3.org/2000/svg">
<path d="M21 1.38745H3C1.725 1.38745 0.637497 2.43745 0.637497 3.74995V20.2875C0.637497 21.5625 1.6875 22.65 3 22.65H21C22.275 22.65 23.3625 21.6 23.3625 20.2875V3.71245C23.3625 2.43745 22.275 1.38745 21 1.38745ZM3 3.07495H21C21.375 3.07495 21.675 3.37495 21.675 3.74995V6.07495H2.3625V3.71245C2.3625 3.37495 2.625 3.07495 3 3.07495ZM21 20.9249H3C2.625 20.9249 2.325 20.625 2.325 20.25V7.72495H21.6375V20.25C21.675 20.625 21.375 20.9249 21 20.9249Z" fill="#161A23"/>
<path d="M16.275 12.2999C15.9 12.0374 15.375 12.1124 15.1125 12.4874C14.85 12.8624 14.925 13.3874 15.3 13.6499C15.6 13.8749 15.8625 14.0999 16.0875 14.2874C15.5625 14.7374 14.775 15.3749 13.8 15.7499C13.35 15.9374 13.1625 16.4249 13.3125 16.8374C13.4625 17.1749 13.7625 17.3624 14.1 17.3624C14.2125 17.3624 14.325 17.3249 14.4 17.2874C16.425 16.4624 17.85 14.8499 17.925 14.8124C18.1875 14.5124 18.1875 14.0249 17.925 13.6874C17.8875 13.6874 17.25 13.0124 16.275 12.2999Z" fill="#161A23"/>
<path d="M14.325 9.78737C13.9125 9.56237 13.3875 9.71237 13.1625 10.1249L12.675 11.0249C12.525 10.8749 12.3375 10.7999 12.1125 10.7999C8.92499 10.7999 6.41249 13.6124 6.29999 13.7624C6.03749 14.0624 6.03749 14.5499 6.29999 14.8874C6.33749 14.9624 7.53749 16.2749 9.29999 17.1374L8.99999 17.5499C8.77499 17.9624 8.92499 18.4874 9.33749 18.7124C9.44999 18.7874 9.59999 18.8249 9.74999 18.8249C10.05 18.8249 10.35 18.6749 10.5 18.3749L14.625 10.9499C14.85 10.5374 14.7 10.0124 14.325 9.78737ZM8.09999 14.2874C8.84999 13.6124 10.2375 12.5999 11.8125 12.4874L10.05 15.6374C9.26249 15.2249 8.54999 14.6999 8.09999 14.2874Z" fill="#161A23"/>
</svg>
