<svg width="24" height="24" viewBox="0 0 24 24" fill="none" xmlns="http://www.w3.org/2000/svg">
<path d="M3.63765 2.36251H20.8126C21.2626 2.36251 21.6751 1.98751 21.6751 1.50001C21.6751 1.01251 21.3001 0.637512 20.8126 0.637512H3.63765C3.18765 0.637512 2.77515 1.01251 2.77515 1.50001C2.77515 1.98751 3.15015 2.36251 3.63765 2.36251Z" fill="#161A23"/>
<path d="M20.8126 21.675H3.63765C3.18765 21.675 2.77515 22.05 2.77515 22.5375C2.77515 23.025 3.15015 23.4 3.63765 23.4H20.8126C21.2626 23.4 21.6751 23.025 21.6751 22.5375C21.6751 22.05 21.2626 21.675 20.8126 21.675Z" fill="#161A23"/>
<path d="M6.52505 16.0875C6.71255 16.2375 6.97505 16.35 7.23755 16.35C7.38755 16.35 7.53755 16.3125 7.68755 16.275C8.10005 16.125 8.36255 15.75 8.40005 15.3375V8.775C8.40005 8.325 8.13755 7.875 7.72505 7.6875C7.35005 7.5 6.90005 7.575 6.56255 7.8375L2.81255 11.025C2.55005 11.25 2.36255 11.5875 2.36255 11.925C2.36255 12.2625 2.51255 12.6 2.77505 12.825L6.52505 16.0875ZM6.71255 9.9375V14.025L4.31255 11.9625L6.71255 9.9375Z" fill="#161A23"/>
<path d="M20.8125 5.88751H12.6C12.15 5.88751 11.7375 6.26251 11.7375 6.75001C11.7375 7.23751 12.1125 7.61251 12.6 7.61251H20.775C21.225 7.61251 21.6375 7.23751 21.6375 6.75001C21.6375 6.26251 21.2625 5.88751 20.8125 5.88751Z" fill="#161A23"/>
<path d="M20.8125 11.175H12.6C12.15 11.175 11.7375 11.55 11.7375 12.0375C11.7375 12.525 12.1125 12.8625 12.6 12.8625H20.775C21.225 12.8625 21.6375 12.4875 21.6375 12.0375C21.6375 11.5875 21.2625 11.175 20.8125 11.175Z" fill="#161A23"/>
<path d="M20.8125 16.425H12.6C12.15 16.425 11.7375 16.8 11.7375 17.2875C11.7375 17.775 12.1125 18.15 12.6 18.15H20.775C21.225 18.15 21.6375 17.775 21.6375 17.2875C21.6375 16.8 21.2625 16.425 20.8125 16.425Z" fill="#161A23"/>
</svg>
