<svg width="24" height="24" viewBox="0 0 24 24" fill="none" xmlns="http://www.w3.org/2000/svg">
<path d="M3.18745 2.36251H20.3624C20.8125 2.36251 21.225 1.98751 21.225 1.50001C21.225 1.01251 20.85 0.637512 20.3624 0.637512H3.18745C2.73745 0.637512 2.32495 1.01251 2.32495 1.50001C2.32495 1.98751 2.73745 2.36251 3.18745 2.36251Z" fill="#161A23"/>
<path d="M20.3624 21.675H3.18745C2.73745 21.675 2.32495 22.05 2.32495 22.5375C2.32495 23.025 2.69995 23.4 3.18745 23.4H20.3624C20.8125 23.4 21.225 23.025 21.225 22.5375C21.225 22.05 20.85 21.675 20.3624 21.675Z" fill="#161A23"/>
<path d="M21.2249 11.0625L17.4374 7.83748C17.0999 7.53748 16.6499 7.49998 16.2749 7.68748C15.8624 7.87498 15.5999 8.28748 15.5999 8.77498V15.2625V15.3375C15.6374 15.75 15.8999 16.125 16.3124 16.275C16.4624 16.35 16.6124 16.35 16.7624 16.35C17.0249 16.35 17.2499 16.275 17.4749 16.0875L21.2249 12.8625C21.4874 12.6375 21.6374 12.3375 21.6374 11.9625C21.6374 11.5875 21.4874 11.25 21.2249 11.0625ZM17.2874 14.025V9.93748L19.6874 11.9625L17.2874 14.025Z" fill="#161A23"/>
<path d="M3.18745 7.57504H11.3625C11.8125 7.57504 12.225 7.20004 12.225 6.71254C12.225 6.22504 11.85 5.85004 11.3625 5.85004H3.18745C2.73745 5.85004 2.32495 6.22504 2.32495 6.71254C2.32495 7.20004 2.73745 7.57504 3.18745 7.57504Z" fill="#161A23"/>
<path d="M3.18745 12.8625H11.3625C11.8125 12.8625 12.225 12.4875 12.225 12C12.225 11.55 11.85 11.1375 11.3625 11.1375H3.18745C2.73745 11.1375 2.32495 11.5125 2.32495 12C2.36245 12.4875 2.73745 12.8625 3.18745 12.8625Z" fill="#161A23"/>
<path d="M3.18745 18.1125H11.3625C11.8125 18.1125 12.225 17.7375 12.225 17.25C12.225 16.7625 11.85 16.3875 11.3625 16.3875H3.18745C2.73745 16.3875 2.32495 16.7625 2.32495 17.25C2.32495 17.7375 2.73745 18.1125 3.18745 18.1125Z" fill="#161A23"/>
</svg>
