<svg width="24" height="24" viewBox="0 0 24 24" fill="none" xmlns="http://www.w3.org/2000/svg">
<path d="M18 6.67499C15.825 6.67499 13.2 9.29999 12 10.6875C10.7625 9.29999 8.17499 6.67499 5.99999 6.67499C3.03749 6.67499 0.674988 9.07499 0.674988 12C0.674988 14.925 3.03749 17.325 5.99999 17.325C8.17499 17.325 10.8 14.7 12 13.3125C13.2375 14.7 15.825 17.325 18 17.325C20.925 17.325 23.325 14.925 23.325 12C23.325 9.07499 20.9625 6.67499 18 6.67499ZM5.99999 15.6375C3.97499 15.6375 2.36249 13.9875 2.36249 12C2.36249 10.0125 4.01249 8.36249 5.99999 8.36249C7.34999 8.36249 9.56249 10.425 10.9125 12C9.56249 13.575 7.34999 15.6375 5.99999 15.6375ZM18 15.6375C16.65 15.6375 14.4375 13.575 13.0875 12C14.4375 10.425 16.65 8.36249 18 8.36249C20.025 8.36249 21.6375 10.0125 21.6375 12C21.6375 13.9875 20.025 15.6375 18 15.6375Z" fill="#161A23"/>
</svg>
