<svg width="24" height="24" viewBox="0 0 24 24" fill="none" xmlns="http://www.w3.org/2000/svg">
<path d="M11.9636 7.3091H11.9273C11.4909 7.3091 11.0909 7.67273 11.0909 8.14546C11.0909 8.61819 11.4545 8.98182 11.9273 8.98182H11.9636C12.4 8.98182 12.8 8.61819 12.8 8.14546C12.8 7.67273 12.4364 7.3091 11.9636 7.3091Z" fill="#161A23"/>
<path d="M11.9637 10.1818C11.5273 10.1818 11.1273 10.5455 11.1273 11.0182V16.6182C11.1273 17.0546 11.4909 17.4546 11.9637 17.4546C12.4 17.4546 12.8 17.0909 12.8 16.6182V10.9818C12.8 10.5455 12.4364 10.1818 11.9637 10.1818Z" fill="#161A23"/>
<path d="M11.9636 1.01819C5.89092 1.01819 0.945465 5.92728 0.945465 12C0.945465 18.0727 5.89092 23.0182 11.9636 23.0182C18.0364 23.0182 22.9455 18.0727 22.9455 12C22.9455 5.92728 18.0364 1.01819 11.9636 1.01819ZM11.9636 21.3818C6.80001 21.3818 2.58183 17.1636 2.58183 12C2.58183 6.83637 6.80001 2.61819 11.9636 2.61819C17.1273 2.61819 21.3091 6.83637 21.3091 12C21.3091 17.1636 17.1273 21.3818 11.9636 21.3818Z" fill="#161A23"/>
</svg>
