<svg width="24" height="24" viewBox="0 0 24 24" fill="none" xmlns="http://www.w3.org/2000/svg">
<g clip-path="url(#clip0_501_47736)">
<path d="M12 0.675049C5.73749 0.675049 0.674988 5.73755 0.674988 12C0.674988 18.2626 5.73749 23.3625 12 23.3625C18.2625 23.3625 23.3625 18.2626 23.3625 12C23.3625 5.73755 18.2625 0.675049 12 0.675049ZM12 21.675C6.67499 21.675 2.36249 17.325 2.36249 12C2.36249 6.67505 6.67499 2.36255 12 2.36255C17.325 2.36255 21.675 6.71255 21.675 12.0375C21.675 17.325 17.325 21.675 12 21.675Z" fill="#161A23"/>
<path d="M13.5 10.2001H10.5C10.05 10.2001 9.63751 10.5751 9.63751 11.0626V18.5626C9.63751 19.0126 10.0125 19.4251 10.5 19.4251H13.5C13.95 19.4251 14.3625 19.0501 14.3625 18.5626V11.0626C14.3625 10.5751 13.95 10.2001 13.5 10.2001ZM12.675 17.7001H11.3625V11.8876H12.675V17.7001Z" fill="#161A23"/>
<path d="M12 4.61255C10.725 4.61255 9.63751 5.66255 9.63751 6.97505C9.63751 8.28755 10.6875 9.33755 12 9.33755C13.3125 9.33755 14.3625 8.28755 14.3625 6.97505C14.3625 5.66255 13.275 4.61255 12 4.61255ZM12 7.61255C11.625 7.61255 11.325 7.31255 11.325 6.93755C11.325 6.56255 11.625 6.26255 12 6.26255C12.375 6.26255 12.675 6.56255 12.675 6.93755C12.675 7.31255 12.375 7.61255 12 7.61255Z" fill="#161A23"/>
</g>
<defs>
<clipPath id="clip0_501_47736">
<rect width="24" height="24" fill="white"/>
</clipPath>
</defs>
</svg>
