<svg width="24" height="24" viewBox="0 0 24 24" fill="none" xmlns="http://www.w3.org/2000/svg">
<path d="M15.15 21H12.8625V8.10001C12.8625 7.05001 12 6.22501 10.9875 6.22501H8.88752C8.43752 6.22501 8.02502 6.60001 8.02502 7.08751C8.02502 7.57501 8.40002 7.95001 8.88752 7.95001H10.9875C11.1 7.95001 11.175 8.02501 11.175 8.13751V21H8.88752C8.43752 21 8.02502 21.375 8.02502 21.8625C8.02502 22.35 8.40002 22.725 8.88752 22.725H15.1875C15.6375 22.725 16.05 22.35 16.05 21.8625C16.05 21.375 15.6 21 15.15 21Z" fill="#161A23"/>
<path d="M11.8125 4.38751C12.4338 4.38751 12.9375 3.88383 12.9375 3.26251C12.9375 2.64119 12.4338 2.13751 11.8125 2.13751C11.1912 2.13751 10.6875 2.64119 10.6875 3.26251C10.6875 3.88383 11.1912 4.38751 11.8125 4.38751Z" fill="#161A23"/>
</svg>
