<svg width="24" height="24" viewBox="0 0 24 24" fill="none" xmlns="http://www.w3.org/2000/svg">
<path d="M21.375 2.32495H2.62501C1.53751 2.32495 0.637512 3.22495 0.637512 4.31245V9.86245C0.637512 10.95 1.53751 11.85 2.62501 11.85H7.91251V14.55H5.81251C4.72501 14.55 3.82501 15.45 3.82501 16.5375V19.725C3.82501 20.8125 4.72501 21.7125 5.81251 21.7125H18.15C19.2375 21.7125 20.1375 20.8125 20.1375 19.725V16.5375C20.1375 15.45 19.2375 14.55 18.15 14.55H15.9V11.85H21.375C22.4625 11.85 23.3625 10.95 23.3625 9.86245V4.31245C23.3625 3.22495 22.4625 2.32495 21.375 2.32495ZM18.45 16.5375V19.725C18.45 19.875 18.3375 20.025 18.15 20.025H5.85001C5.70001 20.025 5.55001 19.9125 5.55001 19.725V16.5375C5.55001 16.3875 5.66251 16.2375 5.85001 16.2375H18.1875C18.3375 16.2375 18.45 16.35 18.45 16.5375ZM14.2125 14.55H9.60001V11.85H14.2125V14.55ZM21.675 9.86245C21.675 10.0125 21.5625 10.1625 21.375 10.1625H2.62501C2.47501 10.1625 2.32501 10.05 2.32501 9.86245V4.31245C2.32501 4.16245 2.43751 4.01245 2.62501 4.01245H21.375C21.525 4.01245 21.675 4.12495 21.675 4.31245V9.86245Z" fill="#161A23"/>
<path d="M6.15002 6.22485H4.91252C4.46252 6.22485 4.05002 6.59985 4.05002 7.08735C4.05002 7.57485 4.42502 7.94985 4.91252 7.94985H6.15002C6.60002 7.94985 7.01252 7.57485 7.01252 7.08735C7.01252 6.59985 6.60002 6.22485 6.15002 6.22485Z" fill="#161A23"/>
<path d="M10.35 6.22485H9.1125C8.6625 6.22485 8.25 6.59985 8.25 7.08735C8.25 7.57485 8.625 7.94985 9.1125 7.94985H10.35C10.8 7.94985 11.2125 7.57485 11.2125 7.08735C11.2125 6.59985 10.8 6.22485 10.35 6.22485Z" fill="#161A23"/>
<path d="M17.7 6.22485H16.4625C16.0125 6.22485 15.6 6.59985 15.6 7.08735C15.6 7.57485 15.975 7.94985 16.4625 7.94985H17.7C18.15 7.94985 18.5625 7.57485 18.5625 7.08735C18.5625 6.59985 18.15 6.22485 17.7 6.22485Z" fill="#161A23"/>
</svg>
