<svg width="24" height="24" viewBox="0 0 24 24" fill="none" xmlns="http://www.w3.org/2000/svg">
<g clip-path="url(#clip0_914_45114)">
<path d="M12.0006 6.59985C9.03808 6.59985 6.60059 8.99985 6.60059 11.9999C6.60059 14.9624 9.00058 17.3999 12.0006 17.3999C14.9631 17.3999 17.3631 14.9999 17.3631 11.9999C17.3631 9.03735 14.9631 6.59985 12.0006 6.59985ZM12.0006 15.7124C9.97558 15.7124 8.28809 14.0624 8.28809 11.9999C8.28809 9.97485 9.93808 8.28735 12.0006 8.28735C14.0256 8.28735 15.6756 9.93735 15.6756 11.9999C15.6756 14.0249 14.0256 15.7124 12.0006 15.7124Z" fill="#15171A"/>
<path d="M17.625 4.34985C16.875 4.34985 16.3125 4.94985 16.3125 5.66235C16.3125 6.37485 16.9125 6.97485 17.625 6.97485C18.3375 6.97485 18.9375 6.37485 18.9375 5.66235C18.9375 4.94985 18.375 4.34985 17.625 4.34985Z" fill="#15171A"/>
<path d="M17.5878 0.674927H6.4128C3.22529 0.674927 0.675293 3.22493 0.675293 6.41243V17.6249C0.675293 20.7749 3.26279 23.3624 6.4128 23.3624H17.6253C20.7753 23.3624 23.3628 20.7749 23.3628 17.6249V6.41243C23.3628 3.22493 20.7753 0.674927 17.5878 0.674927ZM21.6753 17.5874C21.6753 19.8374 19.8753 21.6374 17.6253 21.6374H6.4128C4.1628 21.6374 2.36279 19.8374 2.36279 17.5874V6.41243C2.36279 4.16243 4.2003 2.36243 6.4128 2.36243H17.5878C19.8378 2.36243 21.6378 4.19993 21.6378 6.41243V17.5874H21.6753Z" fill="#15171A"/>
</g>
<defs>
<clipPath id="clip0_914_45114">
<rect width="24" height="24" fill="white"/>
</clipPath>
</defs>
</svg>
