<svg width="24" height="24" viewBox="0 0 24 24" fill="none" xmlns="http://www.w3.org/2000/svg">
<path d="M21.7125 3.33755H18.975C18.6 3.33755 18.2625 3.60005 18.15 3.97505L17.1375 8.25005H16.275C16.3125 7.91255 16.35 7.53755 16.35 7.20005C16.35 6.03755 16.05 4.87505 15.45 3.90005C14.2875 1.95005 12.2625 0.750049 9.97501 0.675049C9.90001 0.675049 9.78751 0.675049 9.71251 0.675049C9.63751 0.675049 9.60001 0.675049 9.56251 0.675049C7.35001 0.787549 5.36251 1.98755 4.23751 3.86255C3.63751 4.87505 3.33751 6.00005 3.33751 7.16255C3.33751 7.53755 3.37501 7.87505 3.41251 8.25005C2.85001 8.32505 2.32501 8.62505 1.98751 9.07505C1.53751 9.63755 1.38751 10.35 1.53751 11.025L2.55001 15.45C2.77501 16.5 3.71251 17.2125 4.80001 17.2125H14.8875C15.9375 17.2125 16.875 16.5 17.1 15.45L19.65 4.98755H21.7125C22.1625 4.98755 22.5375 4.61255 22.5375 4.16255C22.5375 3.71255 22.1625 3.33755 21.7125 3.33755ZM12.375 8.25005C12.4125 7.91255 12.4125 7.57505 12.4125 7.20005C12.4125 6.75005 12.375 6.26255 12.3375 5.81255C13.0125 5.70005 13.6875 5.55005 14.325 5.32505C14.55 5.92505 14.7 6.52505 14.7 7.16255C14.7 7.53755 14.6625 7.87505 14.5875 8.21255H12.375V8.25005ZM5.10001 8.25005C5.02501 7.91255 4.98751 7.57505 4.98751 7.20005C4.98751 6.56255 5.10001 5.92505 5.36251 5.36255C5.92501 5.55005 6.52501 5.70005 7.08751 5.77505C7.01251 6.26255 6.97501 6.71255 6.97501 7.20005C6.97501 7.53755 6.97501 7.91255 7.01251 8.25005H5.10001ZM10.275 4.31255C9.90001 4.31255 9.52501 4.31255 9.15001 4.31255C9.30001 3.86255 9.48751 3.41255 9.71251 2.96255C9.93751 3.41255 10.125 3.86255 10.275 4.31255ZM8.77501 8.25005C8.73751 7.91255 8.70001 7.57505 8.70001 7.20005C8.70001 6.78755 8.73751 6.37505 8.77501 6.00005C9.11251 6.03755 9.48751 6.03755 9.82501 6.03755C10.0875 6.03755 10.35 6.03755 10.6125 6.00005C10.65 6.37505 10.6875 6.78755 10.6875 7.20005C10.6875 7.57505 10.65 7.91255 10.6125 8.25005H8.77501ZM13.35 3.86255C12.9 3.97505 12.45 4.08755 12 4.16255C11.8125 3.63755 11.625 3.11255 11.4 2.62505C12.15 2.85005 12.825 3.30005 13.35 3.86255ZM7.95001 2.73755C7.76251 3.18755 7.57501 3.63755 7.46251 4.12505C7.08751 4.05005 6.71251 3.97505 6.33751 3.86255C6.78751 3.37505 7.35001 3.00005 7.95001 2.73755ZM15.45 15.075C15.375 15.3375 15.15 15.525 14.85 15.525H4.76251C4.46251 15.525 4.23751 15.3375 4.16251 15.075L3.15001 10.65C3.07501 10.3875 3.18751 10.2375 3.26251 10.125C3.33751 10.05 3.48751 9.90005 3.75001 9.90005H16.725L15.45 15.075Z" fill="#161A23"/>
<path d="M14.0625 18.675H5.55001C4.27501 18.675 3.22501 19.725 3.22501 21C3.22501 22.275 4.27501 23.325 5.55001 23.325C6.82501 23.325 7.87501 22.3125 7.87501 21C7.87501 20.775 7.83751 20.55 7.80001 20.3625H11.8125C11.7375 20.55 11.7375 20.775 11.7375 21C11.7375 22.275 12.7875 23.325 14.0625 23.325C15.3375 23.325 16.3875 22.275 16.3875 21C16.3875 19.725 15.3375 18.675 14.0625 18.675ZM6.18751 21C6.18751 21.3375 5.88751 21.6375 5.55001 21.6375C5.21251 21.6375 4.91251 21.375 4.91251 21C4.91251 20.6625 5.21251 20.3625 5.55001 20.3625C5.88751 20.3625 6.18751 20.6625 6.18751 21ZM14.0625 21.6375C13.725 21.6375 13.425 21.3375 13.425 21C13.425 20.6625 13.725 20.3625 14.0625 20.3625C14.4 20.3625 14.7 20.6625 14.7 21C14.7 21.375 14.4 21.6375 14.0625 21.6375Z" fill="#161A23"/>
</svg>
