<svg width="24" height="24" viewBox="0 0 24 24" fill="none" xmlns="http://www.w3.org/2000/svg">
<path d="M11.025 11.625C11.1375 10.95 11.175 10.275 11.175 9.56248C11.175 8.96248 11.1375 8.39998 11.0625 7.83748C11.925 7.68748 12.7875 7.49998 13.6125 7.23748C13.95 7.98748 14.1 8.77498 14.1 9.59998C14.1 10.1625 14.025 10.725 13.8375 11.25C13.6875 11.7 13.95 12.15 14.4 12.3C14.85 12.45 15.3 12.1875 15.45 11.7375C15.675 11.0625 15.7875 10.3125 15.7875 9.56248C15.7875 8.24998 15.4125 6.89998 14.7375 5.77498C13.3875 3.48748 11.025 2.13748 8.36251 2.09998H8.25001C8.21251 2.09998 8.13751 2.09998 8.10001 2.09998C8.02501 2.09998 7.95001 2.09998 7.83751 2.09998C5.36251 2.24998 3.15001 3.59998 1.87501 5.73748C1.20001 6.89998 0.825012 8.21248 0.825012 9.52498C0.825012 11.1375 1.31251 12.6375 2.25001 13.95C3.56251 15.75 5.58751 16.875 7.80001 16.9875C7.87501 16.9875 7.91251 17.025 7.98751 17.025C8.13751 17.025 8.32501 16.9875 8.47501 16.875C8.73751 16.6875 8.88751 16.35 8.85001 16.05C8.85001 16.0125 8.85001 16.0125 8.81251 15.975C8.81251 15.9375 8.81251 15.9 8.77501 15.9C8.73751 15.825 8.73751 15.7875 8.70001 15.75C8.70001 15.7125 8.66251 15.7125 8.66251 15.675L8.62501 15.6C8.17501 14.925 7.83751 14.2125 7.53751 13.4625C7.68751 13.4625 7.83751 13.4625 7.98751 13.4625C8.43751 13.4625 8.81251 13.0875 8.81251 12.6C8.81251 12.15 8.43751 11.775 7.98751 11.775C7.65001 11.775 7.35001 11.8125 7.05001 11.8125C6.90001 11.1 6.82501 10.35 6.82501 9.56248C6.82501 9.03748 6.86251 8.51248 6.93751 7.98748C7.38751 8.02498 7.83751 8.06248 8.28751 8.06248C8.66251 8.06248 9.00001 8.06248 9.33751 8.02498C9.41251 8.54998 9.45001 9.03748 9.45001 9.56248C9.45001 10.1625 9.41251 10.7625 9.30001 11.325C9.22501 11.775 9.52501 12.225 9.97501 12.3C10.0125 12.3 10.05 12.3 10.125 12.3C10.6125 12.3 10.95 12.0375 11.025 11.625ZM12.7125 5.73748C12.075 5.92498 11.4 6.07498 10.725 6.18748C10.5 5.43748 10.2375 4.68748 9.90001 3.97498C10.9875 4.27498 11.9625 4.87498 12.7125 5.73748ZM6.41251 4.08748C6.11251 4.76248 5.85001 5.43748 5.66251 6.11248C5.10001 5.99998 4.53751 5.88748 3.97501 5.73748C4.61251 4.98748 5.43751 4.42498 6.41251 4.08748ZM5.85001 13.6125C6.00001 14.1 6.18751 14.55 6.41251 15C5.70001 14.7375 5.06251 14.3625 4.50001 13.875C4.95001 13.8 5.40001 13.6875 5.85001 13.6125ZM5.40001 12C4.72501 12.1125 4.01251 12.3 3.33751 12.4875C2.81251 11.5875 2.55001 10.6125 2.55001 9.56248C2.55001 8.73748 2.73751 7.94998 3.03751 7.23748C3.78751 7.46248 4.53751 7.64998 5.28751 7.79998C5.21251 8.39998 5.17501 8.99998 5.17501 9.59998C5.17501 10.3875 5.25001 11.2125 5.40001 12ZM7.35001 6.33748C7.57501 5.66248 7.83751 4.98748 8.21251 4.31248C8.55001 4.94998 8.85001 5.62498 9.07501 6.33748C8.47501 6.37498 7.87501 6.37498 7.35001 6.33748Z" fill="#161A23"/>
<path d="M21.5625 13.275H11.8125C10.95 13.275 10.2375 13.9875 10.2375 14.85V20.325C10.2375 21.1875 10.95 21.9 11.8125 21.9H21.5625C22.425 21.9 23.1375 21.1875 23.1375 20.325V14.85C23.1375 13.9875 22.425 13.275 21.5625 13.275ZM19.35 14.9625L16.6875 16.6125L14.025 14.9625H19.35ZM11.8875 20.25V15.6L16.2375 18.3C16.3875 18.375 16.5375 18.4125 16.6875 18.4125C16.8375 18.4125 16.9875 18.375 17.1375 18.3L21.4875 15.6V20.25H11.8875Z" fill="#161A23"/>
</svg>
