<svg width="24" height="24" viewBox="0 0 24 24" fill="none" xmlns="http://www.w3.org/2000/svg">
<path d="M21.7125 3.33755H18.975C18.6 3.33755 18.2625 3.60005 18.15 3.97505L17.1375 8.25005H16.275C16.3125 7.91255 16.35 7.53755 16.35 7.20005C16.35 6.03755 16.05 4.87505 15.45 3.90005C14.2875 1.95005 12.2625 0.750049 9.975 0.675049C9.9 0.675049 9.7875 0.675049 9.7125 0.675049C9.6375 0.675049 9.6 0.675049 9.5625 0.675049C7.35 0.787549 5.3625 1.98755 4.2375 3.86255C3.6375 4.87505 3.3375 6.00005 3.3375 7.16255C3.3375 7.53755 3.375 7.87505 3.4125 8.25005C2.85 8.32505 2.325 8.62505 1.9875 9.07505C1.5375 9.63755 1.3875 10.35 1.5375 11.025L2.55 15.45C2.775 16.5 3.7125 17.2125 4.8 17.2125H14.8875C15.9375 17.2125 16.875 16.5 17.1 15.45L19.65 4.98755H21.7125C22.1625 4.98755 22.5375 4.61255 22.5375 4.16255C22.5375 3.71255 22.1625 3.33755 21.7125 3.33755ZM12.375 8.25005C12.4125 7.91255 12.4125 7.57505 12.4125 7.20005C12.4125 6.75005 12.375 6.26255 12.3375 5.81255C13.0125 5.70005 13.6875 5.55005 14.325 5.32505C14.55 5.92505 14.7 6.52505 14.7 7.16255C14.7 7.53755 14.6625 7.87505 14.5875 8.21255H12.375V8.25005ZM5.1 8.25005C5.025 7.91255 4.9875 7.57505 4.9875 7.20005C4.9875 6.56255 5.1 5.92505 5.3625 5.36255C5.925 5.55005 6.525 5.70005 7.0875 5.77505C7.0125 6.26255 6.975 6.71255 6.975 7.20005C6.975 7.53755 6.975 7.91255 7.0125 8.25005H5.1ZM10.275 4.31255C9.9 4.31255 9.525 4.31255 9.15 4.31255C9.3 3.86255 9.4875 3.41255 9.7125 2.96255C9.9375 3.41255 10.125 3.86255 10.275 4.31255ZM8.775 8.25005C8.7375 7.91255 8.7 7.57505 8.7 7.20005C8.7 6.78755 8.7375 6.37505 8.775 6.00005C9.1125 6.03755 9.4875 6.03755 9.825 6.03755C10.0875 6.03755 10.35 6.03755 10.6125 6.00005C10.65 6.37505 10.6875 6.78755 10.6875 7.20005C10.6875 7.57505 10.65 7.91255 10.6125 8.25005H8.775ZM13.35 3.86255C12.9 3.97505 12.45 4.08755 12 4.16255C11.8125 3.63755 11.625 3.11255 11.4 2.62505C12.15 2.85005 12.825 3.30005 13.35 3.86255ZM7.95 2.73755C7.7625 3.18755 7.575 3.63755 7.4625 4.12505C7.0875 4.05005 6.7125 3.97505 6.3375 3.86255C6.7875 3.37505 7.35 3.00005 7.95 2.73755ZM15.45 15.075C15.375 15.3375 15.15 15.525 14.85 15.525H4.7625C4.4625 15.525 4.2375 15.3375 4.1625 15.075L3.15 10.65C3.075 10.3875 3.1875 10.2375 3.2625 10.125C3.3375 10.05 3.4875 9.90005 3.75 9.90005H16.725L15.45 15.075Z" fill="#161A23"/>
<path d="M14.0625 18.675H5.54999C4.27499 18.675 3.22499 19.725 3.22499 21C3.22499 22.275 4.27499 23.325 5.54999 23.325C6.82499 23.325 7.87499 22.3125 7.87499 21C7.87499 20.775 7.83749 20.55 7.79999 20.3625H11.8125C11.7375 20.55 11.7375 20.775 11.7375 21C11.7375 22.275 12.7875 23.325 14.0625 23.325C15.3375 23.325 16.3875 22.275 16.3875 21C16.3875 19.725 15.3375 18.675 14.0625 18.675ZM6.18749 21C6.18749 21.3375 5.88749 21.6375 5.54999 21.6375C5.21249 21.6375 4.91249 21.375 4.91249 21C4.91249 20.6625 5.21249 20.3625 5.54999 20.3625C5.88749 20.3625 6.18749 20.6625 6.18749 21ZM14.0625 21.6375C13.725 21.6375 13.425 21.3375 13.425 21C13.425 20.6625 13.725 20.3625 14.0625 20.3625C14.4 20.3625 14.7 20.6625 14.7 21C14.7 21.375 14.4 21.6375 14.0625 21.6375Z" fill="#161A23"/>
</svg>
