<svg width="24" height="24" viewBox="0 0 24 24" fill="none" xmlns="http://www.w3.org/2000/svg">
<g clip-path="url(#clip0_501_47654)">
<path d="M19.1625 14.7375C20.2875 13.2 20.85 11.4 20.85 9.52505C20.85 7.95005 20.4375 6.37505 19.6125 5.02505C18.0375 2.36255 15.225 0.712549 12.1125 0.675049C12 0.675049 11.925 0.675049 11.8125 0.675049C8.7 0.712549 5.925 2.36255 4.3125 5.02505C3.525 6.37505 3.075 7.95005 3.075 9.52505C3.075 11.4 3.675 13.2375 4.7625 14.7375C6.2625 16.8 8.55 18.0751 11.0625 18.3375V18.8625C10.4625 19.0875 9.975 19.575 9.75 20.175H6.15C5.7 20.175 5.2875 20.55 5.2875 21.0375C5.2875 21.525 5.6625 21.9 6.15 21.9H9.75C10.0875 22.7626 10.9125 23.3625 11.8875 23.3625C12.8625 23.3625 13.6875 22.7626 14.025 21.9H17.625C18.075 21.9 18.4875 21.525 18.4875 21.0375C18.4875 20.55 18.1125 20.175 17.625 20.175H14.025C13.8 19.575 13.3125 19.0875 12.7125 18.8625V18.3375C15.375 18.1125 17.625 16.8 19.1625 14.7375ZM10.2375 9.52505C10.2375 8.85005 10.275 8.13755 10.3875 7.46255C10.9125 7.50005 11.4375 7.50005 12 7.50005C12.5625 7.50005 13.0875 7.46255 13.6125 7.42505C13.725 8.10005 13.7625 8.81255 13.7625 9.48755C13.7625 10.4625 13.65 11.4375 13.4625 12.375C12.4875 12.3 11.5125 12.3 10.5375 12.375C10.35 11.4375 10.2375 10.5 10.2375 9.52505ZM12.975 14.0625C12.7125 14.8125 12.375 15.525 12 16.2C11.625 15.4875 11.2875 14.775 11.025 14.0625C11.6625 14.025 12.3375 14.025 12.975 14.0625ZM10.7625 5.77505C11.0625 4.76255 11.475 3.75005 12 2.81255C12.525 3.75005 12.9375 4.76255 13.2375 5.77505C12.4125 5.85005 11.5875 5.85005 10.7625 5.77505ZM13.7625 16.4625C14.1375 15.7125 14.4375 14.9625 14.7 14.2125C15.45 14.325 16.2375 14.475 16.95 14.6625C16.0875 15.5625 15 16.1625 13.7625 16.4625ZM18.1125 13.2375C17.1375 12.9375 16.1625 12.7125 15.15 12.5625C15.375 11.55 15.45 10.5375 15.45 9.52505C15.45 8.77505 15.375 8.02505 15.2625 7.27505C16.35 7.08755 17.4375 6.82505 18.45 6.48755C18.9 7.42505 19.125 8.47505 19.125 9.52505C19.1625 10.8375 18.825 12.1125 18.1125 13.2375ZM17.5875 4.98755C16.725 5.25005 15.8625 5.43755 14.9625 5.58755C14.7 4.53755 14.2875 3.52505 13.8 2.55005C15.2625 2.96255 16.6125 3.78755 17.5875 4.98755ZM10.2375 2.55005C9.75 3.52505 9.3375 4.53755 9.075 5.58755C8.175 5.43755 7.3125 5.25005 6.45 4.98755C7.3875 3.78755 8.7375 2.96255 10.2375 2.55005ZM4.8375 9.52505C4.8375 8.47505 5.0625 7.42505 5.5125 6.48755C6.5625 6.82505 7.6125 7.08755 8.7 7.27505C8.5875 8.02505 8.5125 8.77505 8.5125 9.52505C8.5125 10.575 8.625 11.5875 8.8125 12.5625C7.8 12.7125 6.825 12.9375 5.85 13.2375C5.175 12.1125 4.8375 10.8375 4.8375 9.52505ZM7.0125 14.6625C7.7625 14.475 8.5125 14.2875 9.2625 14.2125C9.525 15 9.825 15.75 10.2 16.4625C9 16.1625 7.9125 15.5625 7.0125 14.6625ZM12 21.675C11.6625 21.675 11.3625 21.4125 11.3625 21.0751C11.3625 20.7375 11.6625 20.4375 12 20.4375C12.3375 20.4375 12.6375 20.7 12.6375 21.0375C12.6375 21.375 12.3375 21.675 12 21.675Z" fill="#161A23"/>
</g>
<defs>
<clipPath id="clip0_501_47654">
<rect width="24" height="24" fill="white"/>
</clipPath>
</defs>
</svg>
