<svg width="24" height="24" viewBox="0 0 24 24" fill="none" xmlns="http://www.w3.org/2000/svg">
<path d="M16.35 8.21248C15.075 7.01248 13.425 6.41247 11.625 6.52497C8.36251 6.71247 5.77501 9.41248 5.73751 12.6375C5.70001 14.7 6.67501 16.575 8.28751 17.7375V20.4375C8.28751 21.825 9.41251 22.9125 10.8 22.9125H13.125C14.5125 22.9125 15.6375 21.7875 15.6375 20.4375V17.775C17.2875 16.6125 18.2625 14.7375 18.2625 12.7125C18.3 11.025 17.5875 9.41248 16.35 8.21248ZM13.1625 21.2625H10.8375C10.3875 21.2625 10.0125 20.8875 10.0125 20.475V18.1875H14.025V20.475C13.9875 20.8875 13.6125 21.2625 13.1625 21.2625ZM14.5875 16.4625H12.825V15.45C12.825 15 12.45 14.5875 11.9625 14.5875C11.5125 14.5875 11.1 14.9625 11.1 15.45V16.4625H9.37501C8.10001 15.6 7.35001 14.2125 7.38751 12.6375C7.42501 10.275 9.30001 8.32497 11.7 8.17497C11.775 8.17497 11.8875 8.17497 11.9625 8.17497C13.2 8.17497 14.2875 8.58748 15.15 9.41248C16.05 10.275 16.575 11.475 16.575 12.7125C16.6125 14.25 15.8625 15.6375 14.5875 16.4625Z" fill="#161A23"/>
<path d="M12 4.91249C12.45 4.91249 12.8625 4.53749 12.8625 4.04999V1.91249C12.8625 1.46249 12.4875 1.04999 12 1.04999C11.55 1.04999 11.1375 1.42499 11.1375 1.91249V4.08749C11.175 4.53749 11.55 4.91249 12 4.91249Z" fill="#161A23"/>
<path d="M21.75 6.14996C22.0875 5.81246 22.0875 5.28746 21.75 4.94996C21.4125 4.61246 20.8875 4.61246 20.55 4.94996L19.05 6.41246C18.7125 6.74996 18.7125 7.27496 19.05 7.61246C19.2 7.76246 19.425 7.87496 19.65 7.87496C19.875 7.87496 20.0625 7.79996 20.25 7.64996L21.75 6.14996Z" fill="#161A23"/>
<path d="M3.45001 4.94996C3.11251 4.61246 2.58751 4.61246 2.25001 4.94996C1.91251 5.28746 1.91251 5.81246 2.25001 6.14996L3.71251 7.61246C3.86251 7.76246 4.08751 7.87496 4.31251 7.87496C4.53751 7.87496 4.76251 7.79996 4.91251 7.61246C5.25001 7.27496 5.25001 6.74996 4.91251 6.41246L3.45001 4.94996Z" fill="#161A23"/>
<path d="M3.30001 13.4625H1.12501C0.675012 13.4625 0.262512 13.8375 0.262512 14.325C0.262512 14.8125 0.637512 15.1875 1.12501 15.1875H3.30001C3.75001 15.1875 4.16251 14.8125 4.16251 14.325C4.16251 13.8375 3.75001 13.4625 3.30001 13.4625Z" fill="#161A23"/>
<path d="M22.875 13.4625H20.7C20.25 13.4625 19.8375 13.8375 19.8375 14.325C19.8375 14.8125 20.2125 15.1875 20.7 15.1875H22.875C23.325 15.1875 23.7375 14.8125 23.7375 14.325C23.7375 13.8375 23.325 13.4625 22.875 13.4625Z" fill="#161A23"/>
</svg>
