<svg width="24" height="24" viewBox="0 0 24 24" fill="none" xmlns="http://www.w3.org/2000/svg">
<path d="M13.1625 4.46245H11.1375C10.7625 4.46245 10.4625 4.19995 10.4625 3.86245C10.4625 3.52495 10.7625 3.26245 11.1375 3.26245H14.1375C14.5875 3.26245 15 2.88745 15 2.39995C15 1.91245 14.625 1.53745 14.1375 1.53745H13.275V1.49995C13.275 1.04995 12.9 0.637451 12.4125 0.637451C11.9625 0.637451 11.55 1.01245 11.55 1.49995V1.53745H11.1C9.78755 1.53745 8.73755 2.58745 8.73755 3.82495C8.73755 5.06245 9.78755 6.11245 11.1 6.11245H13.125C13.5 6.11245 13.8 6.37495 13.8 6.71245C13.8 7.04995 13.5 7.31245 13.125 7.31245H9.75005C9.30005 7.31245 8.88755 7.68745 8.88755 8.17495C8.88755 8.66245 9.26255 9.03745 9.75005 9.03745H11.5875V9.07495C11.5875 9.52495 11.9625 9.93745 12.45 9.93745C12.9 9.93745 13.3125 9.56245 13.3125 9.07495V9.03745C14.55 8.99995 15.5625 7.98745 15.5625 6.74995C15.525 5.47495 14.475 4.46245 13.1625 4.46245Z" fill="#161A23"/>
<path d="M5.17502 13.2375H3.63752C2.77502 13.2375 2.02502 13.95 2.02502 14.85V21.75C2.02502 22.6125 2.73752 23.3625 3.63752 23.3625H5.17502C6.03752 23.3625 6.78752 22.65 6.78752 21.75V14.85C6.75002 13.95 6.03752 13.2375 5.17502 13.2375ZM5.06252 21.675H3.71252V14.925H5.06252V21.675Z" fill="#161A23"/>
<path d="M12.7875 11.0999H11.25C10.3875 11.0999 9.63751 11.8124 9.63751 12.6749V21.7499C9.63751 22.6124 10.35 23.3624 11.25 23.3624H12.7875C13.65 23.3624 14.4 22.6499 14.4 21.7499V12.7124C14.3625 11.8124 13.65 11.0999 12.7875 11.0999ZM12.675 21.6749H11.325V12.7874H12.675V21.6749Z" fill="#161A23"/>
<path d="M20.3625 13.2375H18.825C17.9625 13.2375 17.2125 13.95 17.2125 14.85V21.75C17.2125 22.6125 17.925 23.3625 18.825 23.3625H20.3625C21.225 23.3625 21.975 22.65 21.975 21.75V14.85C21.975 13.95 21.2625 13.2375 20.3625 13.2375ZM20.2875 21.675H18.9375V14.925H20.2875V21.675Z" fill="#161A23"/>
</svg>
