<svg width="24" height="24" viewBox="0 0 24 24" fill="none" xmlns="http://www.w3.org/2000/svg">
<path d="M12.075 16.9126C12.4875 16.9126 12.825 16.5751 12.825 16.1626V15.7876H13.0875C14.325 15.7876 15.375 14.7751 15.375 13.5376C15.375 12.3001 14.3625 11.2876 13.0875 11.2876H11.1375C10.725 11.2876 10.35 10.9501 10.35 10.5376C10.35 10.1251 10.6875 9.7876 11.1375 9.7876H14.25C14.6625 9.7876 15 9.4501 15 9.0376C15 8.6251 14.6625 8.2876 14.25 8.2876H12.825V7.9126C12.825 7.5001 12.4875 7.1626 12.075 7.1626C11.6625 7.1626 11.325 7.5001 11.325 7.9126V8.2876H11.1375C9.90004 8.2876 8.85004 9.3001 8.85004 10.5376C8.85004 11.7751 9.86254 12.7876 11.1375 12.7876H13.0875C13.5 12.7876 13.875 13.1251 13.875 13.5376C13.875 13.9501 13.5375 14.2876 13.0875 14.2876H9.86254C9.45004 14.2876 9.11254 14.6251 9.11254 15.0376C9.11254 15.4501 9.45004 15.7876 9.86254 15.7876H11.2875V16.1626C11.325 16.5751 11.6625 16.9126 12.075 16.9126Z" fill="#161A23"/>
<path d="M3.15002 11.8876C3.33752 11.8876 3.48752 11.8126 3.60002 11.7376L6.26253 9.6376C6.60003 9.3751 6.63752 8.9251 6.37502 8.5876C6.11252 8.2501 5.66252 8.2126 5.32502 8.4751L3.97502 9.5626C4.91253 5.7376 8.32502 3.0751 12.225 3.0751C16.1625 3.0751 19.575 5.7376 20.55 9.5626C20.6625 9.9751 21.075 10.2001 21.45 10.0876C21.8625 9.9751 22.0875 9.5626 21.975 9.1876C20.85 4.6876 16.8 1.5376 12.1875 1.5376C7.61252 1.5376 3.63752 4.6126 2.47502 9.0376L1.65002 7.8751C1.38752 7.5376 0.937525 7.4626 0.600025 7.7251C0.262525 7.9876 0.187525 8.4376 0.450025 8.7751L2.55002 11.5876C2.66252 11.7376 2.85002 11.8501 3.03752 11.8876C3.07502 11.8876 3.11252 11.8876 3.15002 11.8876Z" fill="#161A23"/>
<path d="M23.625 16.8001L22.1625 13.6126C22.0875 13.4251 21.9375 13.2751 21.7125 13.2001C21.525 13.1251 21.3 13.1626 21.1125 13.2376L18.075 14.7376C17.7 14.9251 17.55 15.3751 17.7375 15.7501C17.925 16.1251 18.375 16.2751 18.75 16.0876L20.25 15.3751C18.975 18.7126 15.825 20.9251 12.225 20.9251C8.51252 20.9251 5.28752 18.5626 4.12502 15.0376C4.01252 14.6626 3.56252 14.4376 3.18752 14.5501C2.81252 14.6626 2.58752 15.1126 2.70002 15.4876C4.05002 19.6126 7.87502 22.3876 12.225 22.3876C16.3875 22.3876 20.1 19.8376 21.6 15.9751L22.2375 17.4001C22.35 17.6626 22.65 17.8501 22.9125 17.8501C23.025 17.8501 23.1375 17.8126 23.2125 17.7751C23.6625 17.6251 23.8125 17.1751 23.625 16.8001Z" fill="#161A23"/>
</svg>
