<svg width="24" height="24" viewBox="0 0 24 24" fill="none" xmlns="http://www.w3.org/2000/svg">
<path d="M21.1125 3.26251C21.1125 1.83751 19.95 0.637512 18.4875 0.637512H5.51251C4.08751 0.637512 2.88751 1.80001 2.88751 3.26251V22.0875C2.88751 22.3875 3.07501 22.6875 3.33751 22.8375C3.60001 22.9875 3.93751 22.95 4.20001 22.8L6.07501 21.5625L8.58751 23.2125C8.88751 23.4 9.22501 23.4 9.52501 23.2125L12 21.5625L14.475 23.2125C14.625 23.325 14.775 23.3625 14.925 23.3625C15.075 23.3625 15.2625 23.325 15.375 23.2125L17.85 21.5625L19.725 22.8375C19.9875 23.025 20.325 23.025 20.5875 22.875C20.85 22.725 21.0375 22.425 21.0375 22.125L21.1125 3.26251ZM18.7125 20.0625C18.225 19.725 17.5875 19.725 17.1 20.0625L14.9625 21.4875L12.825 20.0625C12.5625 19.9125 12.3 19.8 12 19.8C11.7375 19.8 11.4375 19.875 11.2125 20.0625L9.07501 21.4875L6.93751 20.0625C6.45001 19.725 5.81251 19.725 5.32501 20.0625L4.61251 20.5125V3.26251C4.61251 2.73751 5.02501 2.32501 5.55001 2.32501H18.5625C19.0875 2.32501 19.5 2.73751 19.5 3.26251V20.5125L18.7125 20.0625Z" fill="#161A23"/>
<path d="M10.575 4.98749H7.35002C6.90002 4.98749 6.52502 5.36249 6.52502 5.81249C6.52502 6.26249 6.90002 6.63749 7.35002 6.63749H10.575C11.025 6.63749 11.4 6.26249 11.4 5.81249C11.4 5.36249 11.025 4.98749 10.575 4.98749Z" fill="#161A23"/>
<path d="M16.4625 4.98749H15.5625C15.1125 4.98749 14.7375 5.36249 14.7375 5.81249C14.7375 6.26249 15.1125 6.63749 15.5625 6.63749H16.4625C16.9125 6.63749 17.2875 6.26249 17.2875 5.81249C17.2875 5.36249 16.9125 4.98749 16.4625 4.98749Z" fill="#161A23"/>
<path d="M7.35002 11.5875H9.41252C9.86252 11.5875 10.2375 11.2125 10.2375 10.7625C10.2375 10.3125 9.86252 9.9375 9.41252 9.9375H7.35002C6.90002 9.9375 6.52502 10.3125 6.52502 10.7625C6.52502 11.2125 6.86252 11.5875 7.35002 11.5875Z" fill="#161A23"/>
<path d="M16.4625 9.90002H15.5625C15.1125 9.90002 14.7375 10.275 14.7375 10.725C14.7375 11.175 15.1125 11.55 15.5625 11.55H16.4625C16.9125 11.55 17.2875 11.175 17.2875 10.725C17.2875 10.275 16.9125 9.90002 16.4625 9.90002Z" fill="#161A23"/>
<path d="M10.575 14.775H7.35002C6.90002 14.775 6.52502 15.15 6.52502 15.6C6.52502 16.05 6.90002 16.425 7.35002 16.425H10.575C11.025 16.425 11.4 16.05 11.4 15.6C11.4 15.15 11.025 14.775 10.575 14.775Z" fill="#161A23"/>
<path d="M16.4625 14.775H15.5625C15.1125 14.775 14.7375 15.15 14.7375 15.6C14.7375 16.05 15.1125 16.425 15.5625 16.425H16.4625C16.9125 16.425 17.2875 16.05 17.2875 15.6C17.2875 15.15 16.9125 14.775 16.4625 14.775Z" fill="#161A23"/>
</svg>
