<svg width="24" height="24" viewBox="0 0 24 24" fill="none" xmlns="http://www.w3.org/2000/svg">
<g clip-path="url(#clip0_914_45118)">
<mask id="mask0_914_45118" style="mask-type:luminance" maskUnits="userSpaceOnUse" x="0" y="0" width="24" height="24">
<path d="M24 0H0V24H24V0Z" fill="white"/>
</mask>
<g mask="url(#mask0_914_45118)">
<path d="M23.52 3.195C23.295 2.6025 22.755 1.77 21.99 1.1775C21.54 0.84 21.03 0.51 20.31 0.3C19.53 0.075 18.57 0 17.4 0H6.6C5.4225 0 4.47 0.075 3.6975 0.3075C2.9775 0.525 2.445 0.8475 2.01 1.185C1.245 1.77 0.705 2.61 0.4725 3.2025C0.00749995 4.395 0 5.745 0 6.6V17.4C0 18.255 0.00749995 19.605 0.4725 20.805C0.705 21.3975 1.245 22.23 2.01 22.8225C2.4525 23.16 2.9775 23.49 3.6975 23.7C4.47 23.925 5.4225 24 6.6 24H17.4C18.5775 24 19.53 23.925 20.3025 23.6925C21.0225 23.475 21.555 23.1525 21.99 22.815C22.755 22.23 23.295 21.39 23.5275 20.7975C24 19.605 24 18.2475 24 17.3925V6.5925C24 5.7375 23.9925 4.3875 23.5275 3.1875L23.52 3.195ZM4.755 16.5H3.8625V11.1675H4.755V16.5ZM4.3125 10.2675C4.0125 10.2675 3.7575 10.02 3.7575 9.7125C3.7575 9.405 4.005 9.1575 4.3125 9.1575C4.62 9.1575 4.875 9.405 4.875 9.7125C4.8675 10.02 4.62 10.2675 4.3125 10.2675ZM9.675 16.635C7.32 16.635 5.835 14.955 5.835 12.2775C5.835 9.6 7.32 7.9125 9.675 7.9125C12.03 7.9125 13.515 9.6 13.515 12.2775C13.515 14.955 12.03 16.635 9.675 16.635ZM17.445 16.635C15.675 16.635 14.43 15.66 14.3475 14.205H15.15C15.24 15.2175 16.1925 15.9075 17.52 15.9075C18.7875 15.9075 19.695 15.2175 19.695 14.265C19.695 13.4775 19.1475 13.005 17.895 12.69L16.845 12.42C15.2775 12.0225 14.58 11.3625 14.58 10.245C14.58 8.88 15.81 7.905 17.475 7.905C19.125 7.905 20.325 8.88 20.3775 10.2225H19.575C19.5 9.27 18.6525 8.6325 17.4525 8.6325C16.2825 8.6325 15.4125 9.285 15.4125 10.215C15.4125 10.9425 15.9375 11.37 17.1825 11.685L18.0975 11.9175C19.8 12.345 20.5125 12.9975 20.5125 14.175C20.5125 15.66 19.32 16.635 17.445 16.635ZM12.6975 12.2775C12.6975 14.49 11.5275 15.8925 9.675 15.8925C7.8225 15.8925 6.66 14.49 6.66 12.2775C6.66 10.0575 7.8225 8.655 9.675 8.655C11.5275 8.655 12.6975 10.0575 12.6975 12.2775Z" fill="#15171A"/>
</g>
</g>
<defs>
<clipPath id="clip0_914_45118">
<rect width="24" height="24" fill="white"/>
</clipPath>
</defs>
</svg>
