<svg width="25" height="24" viewBox="0 0 25 24" fill="none" xmlns="http://www.w3.org/2000/svg">
<path d="M16.3125 0.675049H8.06251C6.33751 0.675049 4.95001 2.06255 4.95001 3.78755V20.25C4.95001 21.975 6.33751 23.3625 8.06251 23.3625H16.275C18 23.3625 19.3875 21.975 19.3875 20.25V3.78755C19.425 2.06255 18.0375 0.675049 16.3125 0.675049ZM17.7375 20.2125C17.7375 21 17.1 21.6376 16.3125 21.6376H8.06251C7.27501 21.6376 6.63751 21 6.63751 20.2125V3.78755C6.63751 3.00005 7.27501 2.36255 8.06251 2.36255H16.275C17.0625 2.36255 17.7 3.00005 17.7 3.78755V20.2125H17.7375Z" fill="#161A23"/>
<path d="M11.5875 5.0625H12.75C13.2 5.0625 13.6125 4.6875 13.6125 4.2C13.6125 3.7125 13.2375 3.375 12.75 3.375H11.5875C11.1375 3.375 10.725 3.75 10.725 4.2375C10.725 4.725 11.1375 5.0625 11.5875 5.0625Z" fill="#161A23"/>
<path d="M13.05 18.7126H11.325C10.875 18.7126 10.4625 19.0876 10.4625 19.5751C10.4625 20.0626 10.8375 20.4376 11.325 20.4376H13.05C13.5 20.4376 13.9125 20.0626 13.9125 19.5751C13.9125 19.0876 13.5 18.7126 13.05 18.7126Z" fill="#161A23"/>
<path d="M8.84999 12.2625C8.51249 12.6 8.51249 13.125 8.84999 13.4625C9.18749 13.8 9.71249 13.8 10.05 13.4625C11.25 12.2625 13.1625 12.2625 14.3625 13.4625C14.5125 13.6125 14.7375 13.725 14.9625 13.725C15.1875 13.725 15.4125 13.65 15.5625 13.4625C15.9 13.125 15.9 12.6 15.5625 12.2625C13.6875 10.3875 10.6875 10.3875 8.84999 12.2625Z" fill="#161A23"/>
<path d="M10.0125 14.1751C9.67502 14.5126 9.67502 15.0376 10.0125 15.3751C10.35 15.7126 10.875 15.7126 11.2125 15.3751C11.775 14.8126 12.675 14.8126 13.2 15.3751C13.35 15.5251 13.575 15.6376 13.8 15.6376C14.025 15.6376 14.25 15.5626 14.4 15.3751C14.7375 15.0376 14.7375 14.5126 14.4 14.1751C13.1625 12.9751 11.2125 12.9376 10.0125 14.1751Z" fill="#161A23"/>
<path d="M12.1875 8.4751C10.4625 8.4751 8.88754 9.1501 7.65004 10.3501C7.31254 10.6876 7.31254 11.2126 7.65004 11.5501C7.98754 11.8876 8.51254 11.8876 8.85004 11.5501C9.75004 10.6501 10.9125 10.1626 12.1875 10.1626C13.4625 10.1626 14.625 10.6501 15.525 11.5501C15.675 11.7001 15.9 11.8126 16.125 11.8126C16.35 11.8126 16.575 11.7376 16.725 11.5501C17.0625 11.2126 17.0625 10.6876 16.725 10.3501C15.4875 9.1126 13.9125 8.4751 12.1875 8.4751Z" fill="#161A23"/>
<path d="M12.15 17.2125C12.5228 17.2125 12.825 16.9103 12.825 16.5375C12.825 16.1648 12.5228 15.8625 12.15 15.8625C11.7772 15.8625 11.475 16.1648 11.475 16.5375C11.475 16.9103 11.7772 17.2125 12.15 17.2125Z" fill="#161A23"/>
</svg>
