<svg width="24" height="24" viewBox="0 0 24 24" fill="none" xmlns="http://www.w3.org/2000/svg">
<g clip-path="url(#clip0_501_47577)">
<path d="M22.6875 8.5124C22.2375 8.5124 21.825 8.8874 21.825 9.3749V11.5874C21.825 11.6249 21.7875 11.6249 21.7875 11.6249H18.15V10.1999H19.125C19.575 10.1999 19.9875 9.8249 19.9875 9.3374C19.9875 8.8499 19.6125 8.4749 19.125 8.4749H18.15C18.075 7.2749 17.1375 6.3374 15.9375 6.2624V4.8749C15.9375 4.4249 15.5625 4.0124 15.075 4.0124C14.5875 4.0124 14.2125 4.3874 14.2125 4.8749V6.2624H12.7875V2.2499C12.7875 1.3124 12 0.524902 11.0625 0.524902H8.84999C8.39999 0.524902 7.98749 0.899902 7.98749 1.3874C7.98749 1.8749 8.36249 2.2499 8.84999 2.2499H11.0625C11.1 2.2499 11.1 2.2874 11.1 2.2874V6.2999H9.74999V4.9124C9.74999 4.4624 9.37499 4.0499 8.88749 4.0499C8.39999 4.0499 8.02499 4.4249 8.02499 4.9124V6.2999C6.82499 6.3749 5.88749 7.3124 5.81249 8.5124H4.87499C4.42499 8.5124 4.01249 8.8874 4.01249 9.3749C4.01249 9.8624 4.38749 10.2374 4.87499 10.2374H5.84999V11.6624H2.21249C1.27499 11.6624 0.487488 12.4499 0.487488 13.3874V15.5999C0.487488 16.0499 0.862488 16.4624 1.34999 16.4624C1.83749 16.4624 2.21249 16.0874 2.21249 15.5999V13.3874C2.21249 13.3499 2.24999 13.3499 2.24999 13.3499H5.88749V14.7749H4.87499C4.42499 14.7749 4.01249 15.1499 4.01249 15.6374C4.01249 16.1249 4.38749 16.4999 4.87499 16.4999H5.84999C5.92499 17.6999 6.86249 18.6374 8.06249 18.7124V19.6499C8.06249 20.0999 8.43749 20.5124 8.92499 20.5124C9.41249 20.5124 9.78749 20.1374 9.78749 19.6499V18.7124H11.2125V21.7499C11.2125 22.6874 12 23.4749 12.9375 23.4749H15.15C15.6 23.4749 16.0125 23.0999 16.0125 22.6124C16.0125 22.1249 15.6375 21.7499 15.15 21.7499H12.9375C12.9 21.7499 12.9 21.7124 12.9 21.7124V18.5624H14.25V19.4999C14.25 19.9499 14.625 20.3624 15.1125 20.3624C15.6 20.3624 15.975 19.9874 15.975 19.4999V18.5624C17.175 18.4874 18.1125 17.5499 18.1875 16.3499H19.125C19.575 16.3499 19.9875 15.9749 19.9875 15.4874C19.9875 14.9999 19.6125 14.6249 19.125 14.6249H18.15V13.1999H21.7875C22.725 13.1999 23.5125 12.4124 23.5125 11.4749V9.2624C23.55 8.8874 23.1375 8.5124 22.6875 8.5124ZM16.4625 16.2749C16.4625 16.6499 16.1625 16.9499 15.7875 16.9499H8.17499C7.79999 16.9499 7.49999 16.6499 7.49999 16.2749V8.6249C7.49999 8.2499 7.79999 7.9499 8.17499 7.9499H15.825C16.2 7.9499 16.5 8.2499 16.5 8.6249V16.2749H16.4625Z" fill="#161A23"/>
<path d="M13.0125 9.82495H10.95C10.0875 9.82495 9.33749 10.5375 9.33749 11.4375V13.5C9.33749 14.3625 10.05 15.1125 10.95 15.1125H13.0125C13.875 15.1125 14.625 14.4 14.625 13.5V11.4375C14.625 10.5375 13.9125 9.82495 13.0125 9.82495ZM12.9375 13.3875H11.0625V11.5125H12.9375V13.3875Z" fill="#161A23"/>
</g>
<defs>
<clipPath id="clip0_501_47577">
<rect width="24" height="24" fill="white"/>
</clipPath>
</defs>
</svg>
