<svg width="24" height="24" viewBox="0 0 24 24" fill="none" xmlns="http://www.w3.org/2000/svg">
<path d="M19.35 3.225H4.38745V1.5C4.38745 1.05 4.01245 0.637501 3.52495 0.637501C3.03745 0.637501 2.69995 1.05 2.69995 1.5V22.5C2.69995 22.95 3.07495 23.3625 3.56245 23.3625C4.04995 23.3625 4.42495 22.9875 4.42495 22.5V15.6H19.3875C20.475 15.6 21.375 14.7 21.375 13.6125V5.175C21.3 4.0875 20.4375 3.225 19.35 3.225ZM19.6124 13.6125C19.6124 13.7625 19.5 13.9125 19.3125 13.9125H4.38745V4.9125H19.35C19.5 4.9125 19.65 5.025 19.65 5.2125V13.6125H19.6124Z" fill="#161A23"/>
<path d="M10.875 5.6625H8.81245C8.36245 5.6625 7.94995 6.0375 7.94995 6.525V12.15C7.94995 12.6 8.32495 13.0125 8.81245 13.0125C9.29995 13.0125 9.67495 12.6375 9.67495 12.15V10.2375H10.875C12.1125 10.2375 13.1625 9.225 13.1625 7.95C13.125 6.675 12.1125 5.6625 10.875 5.6625ZM10.875 8.5125H9.63745V7.35H10.875C11.2125 7.35 11.475 7.6125 11.475 7.95C11.4375 8.25 11.2125 8.5125 10.875 8.5125Z" fill="#161A23"/>
<path d="M16.3125 5.6625H16.1625C14.8875 5.6625 13.875 6.675 13.875 7.95V10.6875C13.875 11.9625 14.8875 12.975 16.1625 12.975H16.3125C17.5875 12.975 18.6 11.9625 18.6 10.6875V7.95C18.6 6.675 17.5875 5.6625 16.3125 5.6625ZM16.9125 10.6875C16.9125 11.025 16.65 11.2875 16.3125 11.2875H16.1625C15.825 11.2875 15.5625 11.025 15.5625 10.6875V7.95C15.5625 7.6125 15.825 7.35 16.1625 7.35H16.3125C16.65 7.35 16.9125 7.6125 16.9125 7.95V10.6875Z" fill="#161A23"/>
<path d="M6.2624 5.6625C5.8124 5.6625 5.3999 6.0375 5.3999 6.525V12.15C5.3999 12.6 5.7749 13.0125 6.2624 13.0125C6.7499 13.0125 7.1249 12.6375 7.1249 12.15V6.525C7.0874 6.0375 6.7124 5.6625 6.2624 5.6625Z" fill="#161A23"/>
</svg>
