<svg width="24" height="24" viewBox="0 0 24 24" fill="none" xmlns="http://www.w3.org/2000/svg">
<path d="M19.2 0.674988H8.55C8.1 0.674988 7.6875 1.04999 7.6875 1.53749C7.6875 2.02499 8.0625 2.39999 8.55 2.39999H12.8625L9.4125 21.7125H4.8C4.35 21.7125 3.9375 22.0875 3.9375 22.575C3.9375 23.0625 4.3125 23.4375 4.8 23.4375H16.2C16.65 23.4375 17.0625 23.0625 17.0625 22.575C17.0625 22.0875 16.6875 21.7125 16.2 21.7125H11.1375L14.5875 2.39999H19.2C19.65 2.39999 20.0625 2.02499 20.0625 1.53749C20.0625 1.04999 19.6875 0.674988 19.2 0.674988Z" fill="#161A23"/>
</svg>
