<svg width="24" height="24" viewBox="0 0 24 24" fill="none" xmlns="http://www.w3.org/2000/svg">
<path fill-rule="evenodd" clip-rule="evenodd" d="M3.04446 6.80119C3.03917 6.81075 3.02691 6.85459 3.02691 6.85459C3.05638 6.85541 3.1296 6.84446 3.13365 6.84386C3.32842 6.82324 3.3762 6.69855 3.3762 6.69855C3.2935 6.67256 3.22172 6.67905 3.22172 6.67905C3.09124 6.68914 3.05551 6.7749 3.04636 6.79684C3.04552 6.79886 3.04491 6.80032 3.04446 6.80119ZM21.6007 12.8329C21.8442 12.7502 22.0516 12.5955 22.1 12.474C22.1383 12.3928 22.1345 12.307 22.0691 12.241C21.9634 12.1349 21.7216 12.2393 21.5433 12.3162C21.5052 12.3327 21.4699 12.3478 21.4396 12.3595C21.4396 12.3595 20.9005 12.5189 20.1591 12.1709C20.1591 12.1709 19.4063 11.7975 18.5881 11.2817C18.5881 11.2817 17.4935 10.7325 17.2308 10.585C15.8708 9.8205 13.7778 8.94281 12.7339 8.505C12.6481 8.46904 12.5694 8.43604 12.4987 8.4063C11.88 8.14567 10.7454 7.74176 10.7454 7.74176C9.23175 7.17934 8.57966 7.07048 8.57966 7.07048C8.40101 7.03403 8.38759 7.07955 8.38759 7.07955C8.36955 7.10242 8.40101 7.13377 8.40101 7.13377C8.55742 7.39695 8.59301 7.57841 8.59301 7.57841C7.56607 6.48994 5.73926 6.39465 5.73926 6.39465C5.18681 6.36469 4.87376 6.64961 4.87376 6.64961C4.82921 6.69514 4.87822 6.72679 4.87822 6.72679C5.53976 6.94586 5.92241 7.66462 5.92241 7.66462C5.13311 7.02071 4.64974 6.91616 4.64974 6.91616C4.11371 6.81641 4.1226 6.61684 4.1226 6.61684C4.61411 6.74205 4.92049 6.48319 5.01847 6.36641C5.05519 6.32235 5.0274 6.29689 4.99871 6.29377C4.21976 6.207 3.78112 6.2952 3.78112 6.2952C2.99592 6.4149 2.84044 6.61159 2.79556 6.66836C2.79318 6.6714 2.79111 6.67399 2.78927 6.6762C2.74306 6.72056 2.73222 6.88905 2.94819 6.8568C2.94819 6.8568 2.94837 6.85628 2.94866 6.85526C2.95492 6.8334 3.0255 6.58725 3.26379 6.57105C3.26379 6.57105 3.5198 6.53374 3.6631 6.60409C3.6631 6.60409 3.44098 6.93424 3.10096 6.95936C3.10096 6.95936 2.96206 6.96986 2.92091 6.97238C2.87999 6.97496 2.57891 7.00575 2.40436 7.31891C2.40436 7.31891 2.31312 7.45852 2.41912 7.57417C2.42085 7.57605 2.42251 7.57804 2.42421 7.58006C2.42709 7.58351 2.43006 7.58707 2.43358 7.59026C2.43358 7.59026 2.53711 7.71915 2.68015 7.70981C2.68015 7.70981 2.79618 7.7418 2.92588 7.52411C2.92588 7.52411 3.07312 7.26949 3.14047 7.18807C3.14047 7.18807 3.22672 7.05296 3.40124 7.05296C3.40124 7.05296 3.77246 7.01846 3.83955 7.48601C3.87296 7.72005 3.8151 7.89161 3.40374 8.22712C3.40374 8.22712 3.33636 8.28619 3.26514 8.33141C3.26514 8.33141 3.2206 8.36786 3.24735 8.40859C3.24735 8.40859 3.30826 8.49536 3.39066 8.48944C3.3935 8.48921 3.39633 8.48902 3.39917 8.48884C3.47852 8.48329 3.56077 8.47759 3.96817 8.06633C3.96817 8.06633 4.53225 7.9185 4.53225 7.473C4.53225 7.473 4.5456 7.23131 4.41874 7.05469C4.41874 7.05469 4.67644 7.07475 4.9041 7.50041C4.9041 7.50041 4.97452 7.68724 5.15209 7.71806C5.15209 7.71806 5.76664 7.8294 6.1899 8.17399C6.3555 8.30884 6.54112 8.48715 6.6714 8.69831C6.58316 8.50639 6.45262 8.13274 6.55811 7.76303C6.55811 7.76303 6.80546 8.51711 7.07014 8.74155C7.26667 8.90801 7.50041 9.03011 8.18786 9.19661C8.18786 9.19661 7.22685 8.97307 6.31009 9.06604C6.31009 9.06604 5.44849 9.14689 5.20331 9.70399C5.20222 9.7065 5.2011 9.70901 5.20001 9.71152C5.16626 9.78855 5.13157 9.8676 5.12482 9.97928C5.12482 9.97928 5.09591 10.3046 5.48606 10.3241C5.60295 10.2648 5.72074 10.1596 5.80556 10.0237C5.85709 9.94147 5.748 9.90979 5.748 9.90979C5.64971 9.86456 5.67427 9.76931 5.67427 9.76931C5.71931 9.57004 6.09581 9.55421 6.09581 9.55421C6.59595 9.55421 7.23915 9.80831 7.23915 9.80831C8.63764 10.26 8.91037 9.58305 8.91037 9.58305C9.11272 9.21023 8.85667 8.32241 8.85667 8.32241C9.89445 9.16241 11.5581 9.24495 11.5581 9.24495C10.5273 9.37665 9.23179 8.91199 9.23179 8.91199C9.3924 9.23846 9.34729 9.63131 9.34729 9.63131C9.75161 9.82043 10.1677 9.9459 10.4159 9.99653C10.4289 9.99915 10.4421 10.0019 10.4557 10.0047C10.7014 10.0557 11.0722 10.1326 12.5597 10.0884C12.5967 10.0873 12.6319 10.086 12.6653 10.0848C12.7375 10.0821 12.8019 10.0797 12.8609 10.0805C12.9012 9.88714 12.499 9.53381 12.499 9.53381C12.918 9.71895 13.3089 10.2373 13.3816 10.3368C13.4289 10.3981 13.4787 10.4731 13.5324 10.566C13.5438 10.5856 13.5574 10.6106 13.5736 10.6401C13.7769 11.0129 14.3722 12.1046 15.8159 12.0831L16.6158 12.0882C16.6158 12.0882 17.7073 12.061 18.1718 12.3883C18.4003 12.5496 18.4891 12.6272 18.5858 12.7116C18.6183 12.74 18.6516 12.7691 18.6914 12.8025C18.7272 12.8324 18.7639 12.8639 18.8014 12.896C19.0649 13.1219 19.3691 13.3827 19.7156 13.4138C19.9775 13.4514 20.2018 13.3868 20.2641 13.2064C20.2641 13.2064 20.354 12.9799 20.1366 12.8503C20.0395 12.8148 19.9339 12.7649 19.8143 12.6886L19.8031 12.6814C19.5772 12.5375 19.5689 12.5322 19.3682 12.3531C19.2917 12.2844 19.1988 12.1661 19.108 12.0504C19.0179 11.9356 18.9299 11.8235 18.862 11.7652C18.7136 11.6388 18.5107 11.4896 18.0363 11.4709C17.5536 11.4517 16.9912 11.4265 16.8264 11.3926C16.6542 11.3572 16.5556 11.3298 16.4032 11.2055C16.2802 11.1052 16.2013 10.9952 16.1332 10.8716C16.1034 10.8175 16.0752 10.7551 16.0423 10.6823C16.0007 10.5901 15.9517 10.4814 15.8825 10.3524C15.7967 10.1935 15.6336 10.0627 15.6336 10.0627C15.6444 10.0697 15.655 10.0765 15.6653 10.0832C15.8588 10.2083 15.967 10.2782 16.1076 10.4921C16.4164 10.9612 16.6625 11.1034 16.8701 11.1783C17.0756 11.2521 17.5159 11.3056 17.888 11.3508C18.0747 11.3734 18.2442 11.394 18.3582 11.4141C18.6855 11.4717 18.8716 11.6611 18.9482 11.7414C18.9817 11.7764 19.0154 11.8119 19.0491 11.8475C19.1886 11.9944 19.3289 12.1422 19.4586 12.2648C19.6866 12.4805 19.8318 12.5741 20.281 12.7083C20.4741 12.7659 20.532 12.8298 20.532 12.8298C20.8066 12.9225 21.3436 12.9202 21.6007 12.8329ZM21.8756 12.009C21.8756 12.009 22.1875 11.9528 22.2844 12.182C22.3189 12.2643 22.2989 12.3957 22.1849 12.539C21.7767 13.0833 20.9037 13.0263 20.6978 13.0128C20.6605 13.0104 20.6451 13.0093 20.6583 13.0136C20.7282 13.1828 20.7507 13.4851 20.4638 13.6549C20.4638 13.6549 19.9768 13.9231 19.1338 13.3462C18.9752 13.2585 18.7615 13.075 18.5731 12.9133C18.4232 12.7846 18.2893 12.6696 18.2118 12.6274C17.811 12.4098 17.4028 12.4056 16.9015 12.4056L16.0769 12.4285C14.4568 12.471 13.9254 11.5217 13.5653 10.8784C13.5204 10.7982 13.4782 10.7228 13.4369 10.6546C13.3456 10.5039 13.114 10.3114 12.7497 10.267C12.7497 10.267 12.4867 10.2481 12.2628 10.2654C11.1247 10.3524 10.4231 10.2786 10.4231 10.2786C9.70316 10.195 9.21112 9.9906 9.21112 9.9906C9.00435 10.4615 8.14796 10.3733 8.14796 10.3733C7.39492 10.3052 6.81439 9.9615 6.81439 9.9615C6.27997 9.72176 6.01537 9.78986 6.01537 9.78986C5.93494 9.80828 5.95271 9.89899 5.95271 9.89899C5.98192 10.0118 5.93771 10.1302 5.89372 10.1785C5.82772 10.2749 5.69111 10.3656 5.61457 10.4115C5.58146 10.4346 5.5164 10.457 5.45707 10.4635C5.37499 10.4728 5.28784 10.4708 5.18186 10.4239C5.10836 10.3911 4.99316 10.3061 4.95221 10.1894C4.95221 10.1894 4.73325 9.65287 5.29567 9.20824C5.29567 9.20824 5.69869 8.81903 6.69724 8.83005C6.43481 8.62766 5.47125 7.92637 4.79696 7.97306C4.79696 7.97306 4.1886 8.03666 3.7569 8.50954C3.7569 8.50954 3.58941 8.70345 3.38816 8.69662C3.16052 8.69662 3.07897 8.38515 3.07897 8.38515C3.04193 8.28652 3.12571 8.21809 3.12571 8.21809L3.15328 8.19548C3.14297 8.16244 3.13071 8.11943 3.1221 8.08076C3.10737 8.01263 3.11292 7.9965 3.11292 7.9965C3.11292 7.9965 3.24565 8.07079 3.30523 8.07195L3.33413 8.07053C3.43822 8.04851 3.55093 7.85066 3.55093 7.85066C3.65108 7.60024 3.56236 7.41 3.47882 7.35064C3.37473 7.27657 3.23533 7.32293 3.17912 7.36759C3.11592 7.41791 3.05383 7.51882 3.02071 7.60024C3.02071 7.60024 2.99234 7.66894 2.99819 7.74296C3.0015 7.78429 3.02644 7.84417 3.04855 7.89731C3.06183 7.92919 3.07408 7.95859 3.08003 7.98011C3.08003 7.98011 2.92111 7.97445 2.83011 7.88119C2.83011 7.88119 2.8276 7.9035 2.73994 7.91254C2.54182 7.9326 2.41215 7.79749 2.3473 7.72031C2.28298 7.64284 2.18113 7.46254 2.18113 7.46254C2.09882 7.30395 2.20117 7.19767 2.20117 7.19767C2.39213 6.97298 2.62674 6.81641 2.62674 6.81641C2.6465 6.79916 2.64009 6.77231 2.64009 6.77231C2.5942 6.67477 2.68827 6.59565 2.68827 6.59565C3.22175 5.98001 4.79696 6.00008 4.79696 6.00008C7.83791 6.00008 12.066 7.94843 12.066 7.94843C14.2573 8.86849 15.7385 9.63956 15.7385 9.63956C17.0315 10.2995 18.3242 10.9892 18.6735 11.1922C18.7665 11.2462 18.8729 11.3138 18.9939 11.3906C19.327 11.6022 19.7709 11.8841 20.3527 12.1487C20.3527 12.1487 20.7643 12.3346 21.3026 12.2218C21.4319 12.1948 21.5424 12.1413 21.6388 12.0946C21.729 12.0509 21.8066 12.0133 21.8756 12.009ZM4.40591 6.49988C4.60882 6.5061 4.78301 6.42919 4.78361 6.4182C4.78417 6.40718 4.55902 6.38539 4.55902 6.38539C4.35281 6.39416 4.26874 6.47186 4.26761 6.48094C4.26622 6.48967 4.32135 6.49699 4.40591 6.49988ZM9.58406 17.5779C8.60831 17.5779 7.68097 17.2369 7.68097 16.0846C7.68097 15.7101 7.84466 15.3262 8.09182 15.0514C8.4792 14.6243 9.06746 14.454 9.62302 14.454C9.95895 14.454 10.348 14.5314 10.6508 14.6877V15.0441C10.3764 14.8363 10.0152 14.693 9.66289 14.693C8.86024 14.693 8.30666 15.203 8.30666 16.0467C8.30666 16.8103 8.79514 17.3331 9.54652 17.3331C9.73774 17.3331 10.0024 17.2985 10.1844 17.2276V16.1321H10.7491V17.3554C10.7077 17.3744 10.6641 17.392 10.6188 17.4084C10.302 17.5235 9.90229 17.5779 9.58406 17.5779ZM4.74799 15.0798L4.09447 16.4648H5.37056L4.74799 15.0798ZM5.83586 17.5117L5.46409 16.6689H3.99817L3.59886 17.5117H3.24066L4.71457 14.5108H5.06554L6.50827 17.5117H5.83586ZM18.1992 15.0798L17.5453 16.4648H18.821L18.1992 15.0798ZM19.2866 17.5117L18.9142 16.6689H17.4487L17.0499 17.5117H16.6915L18.1654 14.5108H18.5166L19.9588 17.5117H19.2866ZM14.0094 17.5782C14.7524 17.5782 15.1963 17.3264 15.3382 16.7288C15.3747 16.5756 15.3917 16.4071 15.3916 16.1087V14.5108H15.0441V16.2288C15.0441 16.4362 15.0268 16.5705 15.0045 16.6802C14.9082 17.1562 14.5534 17.3315 14.0207 17.3315C13.7689 17.3315 13.4703 17.2718 13.2974 17.068C13.1452 16.8942 13.1131 16.6582 13.1131 16.2625V14.5109H12.5485V16.293C12.5485 16.3157 12.5487 16.3383 12.549 16.3608C12.5539 16.6985 12.6012 17.0118 12.8332 17.2429C13.0614 17.4753 13.5051 17.5782 14.0094 17.5782ZM23.1921 15.4182C23.1921 14.911 22.8292 14.7192 22.3764 14.7192H21.9611V16.1547H22.3243C22.6288 16.1547 22.8109 16.097 22.9528 15.9809C23.1025 15.8588 23.1921 15.6714 23.1921 15.4182ZM23.336 17.5117L22.553 16.3593H21.9611V17.5117H21.3961V14.5108H22.4648C22.8984 14.5108 23.3323 14.5747 23.5739 14.8458C23.7003 14.9874 23.769 15.1845 23.769 15.438C23.769 15.9018 23.4247 16.1827 23.118 16.2932L23.9863 17.5117L23.336 17.5117ZM0.854164 18.1285C0.705034 18.1998 0.54165 18.2469 0.373535 18.2469C0.76065 17.9627 0.924304 17.6735 0.980239 17.1947C1.01308 16.929 1.01308 16.6632 1.01308 16.3978V14.5109H1.57804V16.782C1.5781 17.3365 1.36795 17.8727 0.854164 18.1285Z" fill="#15171A"/>
</svg>
