<svg width="24" height="24" viewBox="0 0 24 24" fill="none" xmlns="http://www.w3.org/2000/svg">
<g clip-path="url(#clip0_914_45126)">
<path d="M9.48581 0.840393C10.2384 0.66487 11.0073 0.560883 11.7782 0.521808C14.5622 0.519157 17.3462 0.52048 20.1303 0.521144C21.128 0.531078 22.1285 0.490015 23.1256 0.542999C23.1263 4.36537 23.1275 8.18842 23.1249 12.0108C23.123 14.1621 22.5315 16.3134 21.4118 18.1408C20.1335 20.2371 18.1705 21.9069 15.8906 22.7652C14.767 23.2097 13.5663 23.4223 12.3657 23.4826C11.1273 23.5064 9.88166 23.3282 8.70128 22.9467C6.51788 22.236 4.57384 20.8027 3.21409 18.9296C2.24108 17.6149 1.5661 16.0762 1.23024 14.4687C0.716997 12.0591 0.973947 9.48199 1.97239 7.23334C3.33734 4.08521 6.18071 1.62792 9.48581 0.840393ZM12.2784 3.46525C12.2744 6.22721 12.2744 8.9892 12.2784 11.7511C14.943 11.7538 17.6071 11.7545 20.2718 11.7511C20.2737 8.9892 20.2751 6.22721 20.2711 3.46591C17.6071 3.46459 14.9424 3.46525 12.2784 3.46525ZM3.8232 12.2353C3.79909 12.5387 3.83689 12.842 3.87146 13.1427C4.13884 15.2112 5.17121 17.1731 6.7383 18.5256C8.13394 19.7542 9.9528 20.4861 11.8023 20.5232C11.8049 17.7646 11.8023 15.0052 11.8036 12.2466C9.14348 12.23 6.4833 12.2532 3.8232 12.2353ZM12.2803 12.2578C12.2738 15.0211 12.2718 17.7851 12.2816 20.5484C12.7433 20.5192 13.2057 20.4802 13.6589 20.3828C15.5365 20.0013 17.251 18.8991 18.4399 17.3817C19.5805 15.9378 20.2307 14.1084 20.2692 12.2585C17.6064 12.2572 14.9437 12.2578 12.2803 12.2578Z" fill="#15171A"/>
</g>
<defs>
<clipPath id="clip0_914_45126">
<rect width="24" height="24" fill="white"/>
</clipPath>
</defs>
</svg>
