<svg width="24" height="24" viewBox="0 0 24 24" fill="none" xmlns="http://www.w3.org/2000/svg">
<path d="M15.8996 14.5875C16.3121 14.2875 16.9496 14.025 16.9496 14.025C16.9496 14.025 15.2246 14.325 13.4621 14.5125C11.3246 14.625 9.03709 14.7 7.87459 14.5125C5.13709 14.1375 9.33709 13.125 9.33709 13.125C9.33709 13.125 7.68709 13.0125 5.62459 14.025C3.29959 15.15 11.5871 15.675 15.8996 14.5875ZM12.0746 13.0875C11.1746 11.1375 8.28709 9.45 12.0746 6.4875C16.7621 2.7375 14.3246 0.375 14.3246 0.375C15.3371 4.2375 10.8746 5.4 9.29959 7.7625C8.21209 9.3375 9.86209 11.1 12.0746 13.0875ZM17.2496 5.1375C17.2496 5.1375 9.26209 7.1625 13.0871 11.5125C14.2121 12.7875 12.7871 13.95 12.7871 13.95C12.7871 13.95 15.6371 12.4875 14.3246 10.6125C13.1246 8.8875 12.1496 8.025 17.2496 5.1375ZM16.9871 17.3625C16.9496 17.4 16.9496 17.4 16.9496 17.475C22.7621 15.9375 20.6621 12.0375 17.8496 13.05C17.6996 13.0875 17.5496 13.2 17.4746 13.35C17.6246 13.3125 17.7746 13.2375 17.9996 13.2C19.3121 12.9375 21.3371 15.1125 16.9871 17.3625ZM19.0871 20.2125C19.0871 20.2125 19.7246 20.7375 18.3371 21.15C15.7121 21.9375 7.42459 22.1625 5.09959 21.1875C4.23709 20.8125 5.84959 20.2875 6.29959 20.175C6.82459 20.0625 7.08709 20.1375 7.08709 20.1375C6.18709 19.5 1.12459 21.4125 4.53709 21.9375C13.8746 23.5125 21.5246 21.3375 19.0871 20.2125ZM8.96209 18.3375C5.43709 19.35 11.1371 21.4125 15.6746 19.4625C15.2621 19.3125 14.7746 19.05 14.3996 18.825C12.3371 19.2375 11.4371 19.2375 9.59959 19.05C8.06209 18.8625 8.96209 18.3375 8.96209 18.3375ZM17.1371 22.7625C13.6121 23.4 9.11209 23.325 6.52459 22.9125C6.52459 22.9125 7.04959 23.325 9.78709 23.55C13.9496 23.8125 20.3996 23.4 20.5496 21.375C20.5496 21.375 20.2871 22.2 17.1371 22.7625ZM15.1121 16.3875C12.4121 16.9125 10.8371 16.9125 8.88709 16.6875C7.34959 16.5375 8.36209 15.7875 8.36209 15.7875C4.46209 17.1 10.5371 18.6 16.0871 16.95C15.7496 16.8375 15.4496 16.65 15.1121 16.3875Z" fill="#15171A"/>
</svg>
