<svg width="24" height="24" viewBox="0 0 24 24" fill="none" xmlns="http://www.w3.org/2000/svg">
<path d="M3.975 3.2124C2.025 3.2124 0.375 4.76317 0.375 6.72011V20.8247H20.025C22.05 20.8247 23.625 19.2001 23.625 17.2801V3.2124H3.975ZM8.025 17.0955C8.025 18.5355 6.8625 19.6432 5.4375 19.6432H1.65V14.2155C1.65 14.2155 2.8125 14.5108 4.275 14.5108C6.75 14.5108 7.5 13.5878 7.5 12.4432V9.48934H5.2875V12.517C5.2875 13.2555 4.8 13.7724 3.9 13.7724C3.15 13.7724 2.4375 13.5508 1.6875 13.2185V6.94166C1.6875 5.50166 2.85 4.39395 4.275 4.39395H8.025V17.0955ZM15.1875 17.0955C15.1875 18.5355 14.025 19.6432 12.6 19.6432H8.85V13.8093C9.4875 14.3263 10.65 14.6955 12.4875 14.6586C13.5 14.6217 14.5125 14.3632 14.5125 14.3632V13.2555C13.9875 13.5139 13.35 13.7724 12.5625 13.8093C11.175 13.9201 10.35 13.2555 10.35 12.037C10.35 10.8555 11.2125 10.1539 12.5625 10.2647C13.35 10.3016 14.025 10.5232 14.5125 10.8555V9.74779C14.5125 9.74779 13.4625 9.48934 12.4875 9.45244C10.6875 9.4155 9.525 9.71089 8.85 10.3017V6.97856C8.85 5.53856 10.0125 4.43089 11.4375 4.43089H15.1875V17.0955ZM22.3125 17.0955C22.3125 18.5355 21.15 19.6432 19.725 19.6432H15.9V14.4739H19.9125C20.85 14.4739 21.5625 13.957 21.5625 13.1817C21.5625 12.4432 20.925 12.0001 20.1 12.0001V11.9632C20.85 11.8524 21.2625 11.4093 21.2625 10.8185C21.2625 10.0801 20.625 9.67395 19.8 9.63705C19.7625 9.63705 19.65 9.63705 19.5375 9.63705H15.9375V6.97856C15.9375 5.53856 17.1 4.43089 18.525 4.43089H22.3125V17.0955ZM18.7125 12.1847C18.75 12.1847 18.8625 12.1847 18.8625 12.1847C19.125 12.2217 19.3875 12.5909 19.3875 12.9232C19.3875 13.2924 19.125 13.5509 18.8625 13.5509C18.825 13.5509 18.7125 13.5509 18.7125 13.5509H17.25V12.1847H18.7125ZM17.25 11.5939V10.3386H18.5625C18.6 10.3386 18.675 10.3386 18.7125 10.3386C18.975 10.3755 19.2375 10.597 19.2375 10.9663C19.2375 11.2617 18.975 11.557 18.7125 11.5939C18.7125 11.5939 18.6 11.5939 18.5625 11.5939C18.4262 11.5939 17.25 11.5939 17.25 11.5939Z" fill="#15171A"/>
</svg>
