<svg width="24" height="24" viewBox="0 0 24 24" fill="none" xmlns="http://www.w3.org/2000/svg">
<g clip-path="url(#clip0_914_45134)">
<path d="M4.5756 12.0376L4.1631 11.6252C2.77559 10.2376 2.36309 8.28765 2.85059 6.48765C1.46309 6.18765 0.413086 4.91265 0.413086 3.41265C0.413086 1.72515 1.80059 0.337646 3.48809 0.337646C5.0631 0.337646 6.3381 1.46265 6.5631 2.92515C8.2506 2.51265 10.0506 2.96265 11.3631 4.31265L11.5131 4.46265L9.2256 6.75015L9.0756 6.60015C8.3256 5.85015 7.1256 5.85015 6.3756 6.60015C5.6256 7.35015 5.6256 8.55015 6.3756 9.30015L11.5131 14.4377L9.2256 16.7251L6.7881 14.4001L4.5756 12.0376Z" fill="#15171A"/>
<path d="M7.16309 9.52507L9.60059 7.08757L11.8881 4.80007L12.3006 4.38757C13.6881 3.00007 15.6381 2.58757 17.3631 3.07507C17.5881 1.53757 18.9006 0.450073 20.4381 0.450073C22.1256 0.450073 23.5131 1.83757 23.5131 3.52507C23.5131 5.10007 22.3506 6.37507 20.8131 6.60007C21.3381 8.32507 20.8506 10.3126 19.5006 11.6251L19.3506 11.7751L17.1381 9.48757L17.2881 9.33757C18.0381 8.58757 18.0381 7.38757 17.2881 6.63757C16.5381 5.88757 15.3381 5.88757 14.5881 6.63757L14.2131 7.12507L11.9256 9.37507L9.48809 11.8126L7.16309 9.52507Z" fill="#15171A"/>
<path d="M17.4753 21.0749C15.6753 21.5999 13.7253 21.1874 12.3378 19.7999L12.1878 19.6499L14.4753 17.3624L14.6253 17.5124C15.3753 18.2624 16.5753 18.2624 17.3253 17.5124C18.0753 16.7624 18.0753 15.5624 17.3253 14.8124L16.8378 14.3999L14.5503 12.0749L12.1128 9.63735L14.4003 7.34985L19.5753 12.5249C20.8878 13.8374 21.3753 15.7124 20.9628 17.3999C22.5003 17.6249 23.5878 18.9374 23.5878 20.4749C23.5878 22.1624 22.2003 23.5499 20.5128 23.5499C19.0503 23.5874 17.7753 22.4624 17.4753 21.0749Z" fill="#15171A"/>
<path d="M16.6122 14.6249L14.1747 17.0624L11.8872 19.3499L11.4747 19.7624C10.1622 21.0749 8.2872 21.5624 6.5997 21.1499C6.2247 22.5749 5.02474 23.6249 3.52471 23.6249C1.83721 23.6249 0.449707 22.2374 0.449707 20.5499C0.449707 19.1249 1.46221 17.8499 2.81221 17.5499C2.39971 15.7874 2.81221 13.9499 4.12474 12.6374L4.27474 12.4874L6.56224 14.7749L6.4122 14.9249C5.6622 15.6749 5.6622 16.8749 6.4122 17.6249C7.1622 18.3749 8.3622 18.3749 9.1122 17.6249L9.52474 17.2124L11.8122 14.9249L14.2497 12.4874L16.6122 14.6249Z" fill="#15171A"/>
</g>
<defs>
<clipPath id="clip0_914_45134">
<rect width="24" height="24" fill="white"/>
</clipPath>
</defs>
</svg>
