<svg width="24" height="24" viewBox="0 0 24 24" fill="none" xmlns="http://www.w3.org/2000/svg">
<g clip-path="url(#clip0_914_45139)">
<path d="M21.3 16.3876C21.4125 14.8126 20.8875 13.2751 19.8 12.1126C20.85 10.9126 21.375 9.30008 21.1875 7.76258C22.575 7.23758 23.5125 5.85008 23.5125 4.27508C23.5125 2.21259 21.825 0.525087 19.7625 0.525087C18.225 0.525087 16.8375 1.46259 16.275 2.81259C14.7 2.66259 13.05 3.11259 11.8125 4.20008C10.65 3.15009 9.1125 2.62509 7.575 2.77509C6.975 1.46259 5.6625 0.487587 4.0875 0.487587C2.0625 0.412587 0.375 2.13759 0.375 4.20008C0.375 5.70008 1.2375 6.93758 2.475 7.57508C2.25 9.26258 2.7375 10.8751 3.9 12.1126C2.775 13.3126 2.325 14.8501 2.475 16.4626C1.2375 17.0626 0.375 18.3751 0.375 19.8001C0.375 21.8626 2.0625 23.5501 4.125 23.5501C5.625 23.5501 6.9375 22.6876 7.575 21.4501C9.15 21.6001 10.65 21.0751 11.85 20.0251C13.05 21.1501 14.775 21.6751 16.3875 21.4126C17.025 22.6876 18.3375 23.5126 19.8375 23.5126C21.9 23.5126 23.5875 21.8251 23.5875 19.7626C23.6625 18.3376 22.725 16.9501 21.3 16.3876ZM16.5375 15.9001C16.5375 16.1251 16.5 16.3126 16.275 16.5001C16.0125 16.7626 15.6375 16.8001 15.3375 16.6501L16.4625 15.5251C16.4625 15.6376 16.5375 15.7876 16.5375 15.9001ZM7.3125 15.5626L8.4375 16.6876C8.175 16.8001 7.8 16.7251 7.5375 16.5376C7.3875 16.3876 7.275 16.1626 7.275 15.9376C7.275 15.7876 7.275 15.6376 7.3125 15.5626ZM11.85 13.3501L10.65 12.1501L11.85 10.9501L13.05 12.1501L11.85 13.3501ZM7.275 8.36258C7.275 8.13758 7.3125 7.95008 7.5375 7.76258C7.8 7.50008 8.175 7.46258 8.475 7.61258L7.35 8.73758C7.275 8.58758 7.275 8.47508 7.275 8.36258ZM16.425 8.70008L15.3 7.57508C15.5625 7.46258 15.975 7.53758 16.2375 7.72508C16.3875 7.87508 16.5 8.10008 16.5 8.32508C16.5375 8.47508 16.4625 8.58757 16.425 8.70008ZM16.6875 4.72508L17.7 4.98758L17.85 3.93758C18 3.00009 18.8625 2.25009 19.7625 2.25009C20.8875 2.25009 21.7125 3.11259 21.7125 4.16258C21.7125 5.17508 20.9625 5.96257 20.025 6.07508L18.975 6.22508L19.2375 7.23758C19.5375 8.36258 19.35 9.52508 18.7125 10.4626L17.925 9.60008C18.1875 9.18758 18.3 8.73758 18.3 8.28758C18.3 7.53758 18.0375 6.90008 17.5125 6.37508C16.4625 5.32508 14.8125 5.32508 13.7625 6.37508L9.6375 10.5001L8.775 9.71258L12.9 5.62508C13.875 4.65008 15.375 4.31258 16.6875 4.72508ZM2.2125 4.20008C2.2125 3.15009 3.075 2.28759 4.1625 2.28759C5.1 2.28759 5.9625 2.96259 6.075 3.93758L6.225 4.87508L7.1625 4.65008C8.2875 4.38758 9.3375 4.61258 10.2375 5.25008L9.375 6.11258C8.3625 5.47508 6.975 5.62508 6.15 6.52508C5.625 7.05008 5.3625 7.68758 5.3625 8.43758C5.3625 9.18758 5.625 9.82508 6.15 10.3501L10.275 14.4751L9.375 15.2251L5.7375 11.4751L5.325 11.0626C4.3125 10.0501 4.0125 8.66258 4.3125 7.23758L4.575 6.33758L3.6375 6.11258C2.8125 5.92508 2.2125 5.10008 2.2125 4.20008ZM7.2 19.6126L6.3 19.3876L6.075 20.2876C5.925 21.1876 5.0625 21.8251 4.1625 21.8251C3.0375 21.8251 2.2125 20.9626 2.2125 19.9126C2.2125 19.0126 2.85 18.2251 3.7125 18.0001L4.6125 17.7751L4.3875 16.7626C4.125 15.6376 4.35 14.4751 4.9125 13.5751L5.775 14.4376C5.5125 14.8501 5.4 15.3001 5.4 15.7501C5.4 16.5001 5.6625 17.1376 6.1875 17.6626C7.2375 18.7126 8.8875 18.7126 9.9375 17.6626L14.0625 13.5376L14.925 14.3251L10.8 18.4501C9.8625 19.5001 8.5125 19.8751 7.2 19.6126ZM19.9125 21.7876C18.9 21.7501 18.1125 21.1126 17.8875 20.2126L17.7375 19.2001L16.8 19.5751C15.6375 19.8751 14.4 19.7251 13.4625 19.0501L14.325 18.1876C15.3375 18.8251 16.725 18.6751 17.55 17.7751C18.075 17.2501 18.3375 16.6126 18.3375 15.8626C18.3375 15.1126 18.075 14.4751 17.55 13.9501L13.4625 9.90008L14.325 9.03758L18.45 13.1626C19.3875 14.1001 19.7625 15.4876 19.4625 16.8001L19.2375 17.8126L20.25 18.0001C21.1875 18.1501 21.9375 19.0126 21.9375 19.9126C21.825 20.9251 20.9625 21.7876 19.9125 21.7876Z" fill="#15171A"/>
</g>
<defs>
<clipPath id="clip0_914_45139">
<rect width="24" height="24" fill="white"/>
</clipPath>
</defs>
</svg>
