<svg width="25" height="24" viewBox="0 0 25 24" fill="none" xmlns="http://www.w3.org/2000/svg">
<path d="M20.775 6.22505L15.6 1.12505C15.3 0.825049 14.8875 0.675049 14.475 0.675049H5.47499C4.19999 0.675049 3.11249 1.72505 3.11249 3.03755V11.85C3.11249 12.3 3.48749 12.7125 3.97499 12.7125C4.46249 12.7125 4.83749 12.3375 4.83749 11.85V3.00005C4.83749 2.62505 5.13749 2.32505 5.51249 2.32505H13.9875V7.12505C13.9875 7.57505 14.3625 7.98755 14.85 7.98755H19.6125V11.625C19.6125 12.075 19.9875 12.4875 20.475 12.4875C20.9625 12.4875 21.3375 12.1125 21.3375 11.625V7.35005C21.225 6.93755 21.075 6.52505 20.775 6.22505ZM15.6375 3.52505L18.45 6.30005H15.6375V3.52505Z" fill="#161A23"/>
<path d="M20.4 19.425C19.95 19.425 19.5375 19.8 19.5375 20.2875V21.0375C19.5375 21.4125 19.2375 21.7125 18.8625 21.7125H5.47501C5.10001 21.7125 4.80001 21.4125 4.80001 21.0375V20.5125C4.80001 20.0625 4.42501 19.65 3.93751 19.65C3.45001 19.65 3.07501 20.025 3.07501 20.5125V21C3.07501 22.275 4.12501 23.3625 5.43751 23.3625H18.825C20.1 23.3625 21.1875 22.3125 21.1875 21V20.25C21.225 19.8 20.85 19.425 20.4 19.425Z" fill="#161A23"/>
<path d="M10.9125 18.2625V16.0125H12.75C13.2 16.0125 13.6125 15.6375 13.6125 15.15V12.675C13.6125 12.225 13.2375 11.8125 12.75 11.8125H10.0875C9.63754 11.8125 9.22504 12.1875 9.22504 12.675V18.2625C9.22504 18.7125 9.60004 19.125 10.0875 19.125C10.575 19.125 10.9125 18.7125 10.9125 18.2625ZM10.9125 13.5375H11.8875V14.325H10.9125V13.5375Z" fill="#161A23"/>
<path d="M4.72501 19.0875H7.38751C7.83751 19.0875 8.25001 18.7125 8.25001 18.225V12.675C8.25001 12.225 7.87501 11.8125 7.38751 11.8125C6.90001 11.8125 6.52501 12.1875 6.52501 12.675V17.4H4.68751C4.23751 17.4 3.82501 17.775 3.82501 18.2625C3.82501 18.75 4.27501 19.0875 4.72501 19.0875Z" fill="#161A23"/>
<path d="M18.525 13.5375C18.975 13.5375 19.3875 13.1625 19.3875 12.675C19.3875 12.1875 19.0125 11.8125 18.525 11.8125H15.45C15 11.8125 14.5875 12.1875 14.5875 12.675V18.2625C14.5875 18.7125 14.9625 19.125 15.45 19.125H18.6C19.05 19.125 19.4625 18.75 19.4625 18.2625V15.4875C19.4625 15.0375 19.0875 14.625 18.6 14.625H17.4C16.95 14.625 16.5375 15 16.5375 15.4875C16.5375 15.975 16.9125 16.35 17.4 16.35H17.775V17.4375H16.3125V13.5375H18.525Z" fill="#161A23"/>
</svg>
