<svg width="24" height="24" viewBox="0 0 24 24" fill="none" xmlns="http://www.w3.org/2000/svg">
<path fill-rule="evenodd" clip-rule="evenodd" d="M5.81104 13.8947C5.81104 12.3516 7.14536 11.1615 8.70592 11.1615C9.54108 11.1615 10.2835 11.601 10.9047 12.1059C11.3094 12.4349 11.7005 12.8244 12.0623 13.1985C12.0641 13.2003 12.0659 13.2021 12.0677 13.2039C12.2109 13.3499 12.3533 13.499 12.4958 13.6483C12.8962 14.0676 13.2981 14.4886 13.7245 14.8465C14.3062 15.3348 14.8248 15.6074 15.2939 15.6074C16.3605 15.6074 17.1682 14.807 17.1682 13.8947C17.1682 12.9811 16.3691 12.1821 15.2939 12.1821C14.4231 12.1821 13.9823 12.6571 13.6411 13.0248C13.6147 13.0533 13.5889 13.0811 13.5635 13.108C13.3702 13.3131 13.0472 13.3226 12.8422 13.1293C12.6371 12.9359 12.6276 12.613 12.8209 12.408C12.844 12.3835 12.8692 12.356 12.8968 12.3259C13.2447 11.946 13.9631 11.1615 15.2939 11.1615C16.866 11.1615 18.1888 12.353 18.1888 13.8947C18.1888 15.4378 16.8545 16.6279 15.2939 16.6279C14.4495 16.6279 13.6933 16.1528 13.0683 15.6281C12.6502 15.2772 12.2425 14.8602 11.8705 14.4716C11.7712 14.3694 11.6724 14.2662 11.5737 14.1632C11.1427 13.7135 10.7134 13.2655 10.261 12.8979C9.69615 12.4388 9.18431 12.1821 8.70592 12.1821C7.63935 12.1821 6.83156 12.9825 6.83156 13.8947C6.83156 14.8083 7.63068 15.6074 8.70592 15.6074C9.57315 15.6074 10.0131 15.1326 10.3552 14.7634C10.3828 14.7336 10.4098 14.7045 10.4363 14.6764C10.6297 14.4713 10.9526 14.4618 11.1577 14.6551C11.3627 14.8485 11.3722 15.1714 11.1789 15.3765C11.1553 15.4015 11.1294 15.4299 11.101 15.4609C10.7534 15.8412 10.0345 16.6279 8.70592 16.6279C7.13381 16.6279 5.81104 15.4365 5.81104 13.8947Z" fill="#15171A"/>
<path fill-rule="evenodd" clip-rule="evenodd" d="M7.66755 7.27804C8.89924 5.16746 11.1954 3.75 13.8188 3.75C17.7548 3.75 20.9473 6.91526 20.9473 10.8281C20.9473 10.854 20.9471 10.8793 20.9465 10.9041C22.5357 11.7068 23.625 13.3448 23.625 15.2386C23.625 17.9322 21.439 20.0999 18.7325 20.0786H5.29579L5.28945 20.0785C2.57287 20.0448 0.375 17.8448 0.375 15.1224C0.375 13.453 1.21827 11.9718 2.49735 11.0742C2.45425 10.8574 2.43123 10.6329 2.43123 10.4037C2.43123 8.44125 4.03215 6.86213 5.98793 6.86213C6.59452 6.86213 7.16629 7.00973 7.66755 7.27804ZM13.8188 4.77056C11.3944 4.77056 9.29644 6.18285 8.31754 8.22915C8.25075 8.3688 8.12419 8.47058 7.97344 8.50583C7.82273 8.54108 7.66414 8.50601 7.54234 8.41046C7.11686 8.07679 6.58106 7.88269 5.98793 7.88269C4.58914 7.88269 3.45177 9.01151 3.45177 10.4037C3.45177 10.662 3.49343 10.9125 3.56875 11.1468C3.64164 11.3736 3.54795 11.6206 3.343 11.742C2.1755 12.4335 1.39554 13.6962 1.39554 15.1224C1.39554 17.2793 3.13671 19.0295 5.29909 19.058H18.7388C20.8814 19.0759 22.6044 17.364 22.6044 15.2386C22.6044 13.6452 21.6257 12.2749 20.2217 11.6936C20.0177 11.6091 19.8912 11.4031 19.9081 11.183L19.9096 11.163C19.9194 11.0371 19.9268 10.9404 19.9268 10.8281C19.9268 7.48601 17.1983 4.77056 13.8188 4.77056Z" fill="#15171A"/>
</svg>
