<svg width="24" height="24" viewBox="0 0 24 24" fill="none" xmlns="http://www.w3.org/2000/svg">
<g clip-path="url(#clip0_501_49632)">
<path d="M22.7999 19.3126L20.0625 16.5751C19.725 16.2376 19.2 16.2376 18.8624 16.5751L18.2999 17.1376L16.7999 15.6376L18.6375 13.8001C21.0375 11.4001 21.975 7.7251 21.2625 3.4126C21.1875 3.0376 20.9249 2.7751 20.5499 2.7001C16.2375 2.0251 12.5625 2.9626 10.1625 5.3251L8.32495 7.1626L6.82495 5.6626L7.38745 5.1001C7.53745 4.9501 7.64995 4.7251 7.64995 4.5001C7.64995 4.2751 7.57495 4.0501 7.38745 3.9001L4.64995 1.1626C3.89995 0.412598 2.69995 0.412598 1.94995 1.1626L1.19995 1.9876C0.449951 2.7376 0.449951 3.9376 1.19995 4.6876L3.93745 7.4251C4.08745 7.5751 4.31245 7.6876 4.53745 7.6876C4.76245 7.6876 4.98745 7.6126 5.13745 7.4251L5.69995 6.8626L7.19995 8.3626L5.36245 10.2001C2.99995 12.5626 2.06245 16.2376 2.73745 20.5876C2.81245 20.9626 3.07495 21.2251 3.44995 21.3001C4.38745 21.4501 5.24995 21.5251 6.11245 21.5251C9.26245 21.5251 11.9625 20.5501 13.8 18.6751L15.6375 16.8376L17.1375 18.3376L16.575 18.9001C16.425 19.0501 16.3125 19.2751 16.3125 19.5001C16.3125 19.7251 16.3875 19.9501 16.575 20.1001L19.3125 22.8376C19.6875 23.2126 20.1749 23.4001 20.6625 23.4001C21.15 23.4001 21.6375 23.2126 22.0125 22.8376L22.7999 22.0501C23.5499 21.2626 23.5125 20.0626 22.7999 19.3126ZM2.39995 3.4876C2.32495 3.4126 2.32495 3.2626 2.39995 3.1876L3.18745 2.4001C3.22495 2.3626 3.29995 2.3251 3.33745 2.3251C3.37495 2.3251 3.44995 2.3251 3.48745 2.4001L5.62495 4.5376L4.53745 5.6251L2.39995 3.4876ZM11.4 6.5251C13.275 4.6501 16.2 3.8626 19.725 4.2751C20.1375 7.7626 19.35 10.6876 17.475 12.5626L15.6375 14.4001L14.4 13.1626C14.7 12.7126 14.925 12.2251 15.0375 11.7376C15.2625 10.8001 15.1125 9.9751 14.55 9.4126C13.6875 8.5501 12.1875 8.6626 10.8 9.5626L9.56245 8.3251L11.4 6.5251ZM11.1 11.5501C11.8125 10.8376 12.5625 10.5751 13.0125 10.5751C13.1625 10.5751 13.275 10.6126 13.35 10.6876C13.4625 10.8001 13.5 11.0626 13.3875 11.4001C13.275 11.8876 12.9375 12.4501 12.45 12.9001C12 13.3501 11.4375 13.6876 10.95 13.8376C10.6125 13.9126 10.35 13.9126 10.2375 13.8001C10.1625 13.7251 10.125 13.5751 10.125 13.4251C10.125 12.9751 10.3875 12.2251 11.1 11.5501ZM12.6 17.4751C10.725 19.3501 7.79995 20.1376 4.31245 19.7251C3.89995 16.2376 4.68745 13.3126 6.56245 11.4376L8.39995 9.6001L9.59995 10.8001C8.92495 11.6251 8.51245 12.6001 8.51245 13.4251C8.51245 14.0626 8.69995 14.5876 9.11245 15.0001C9.48745 15.3751 10.05 15.6001 10.65 15.6001C10.9125 15.6001 11.175 15.5626 11.4375 15.4876C12.075 15.3376 12.7125 14.9626 13.3125 14.5126L14.475 15.6751L12.6 17.4751ZM21.6 20.8126L20.8125 21.6001C20.7375 21.6751 20.5875 21.6751 20.5125 21.6001L18.375 19.4626L19.4625 18.3751L21.6 20.5126C21.6749 20.5876 21.6749 20.7376 21.6 20.8126Z" fill="#161A23"/>
</g>
<defs>
<clipPath id="clip0_501_49632">
<rect width="24" height="24" fill="white"/>
</clipPath>
</defs>
</svg>
