<svg width="24" height="24" viewBox="0 0 24 24" fill="none" xmlns="http://www.w3.org/2000/svg">
<path d="M12.8625 11.9625V1.5C12.8625 1.05 12.4875 0.637497 12 0.637497C11.55 0.637497 11.1375 1.0125 11.1375 1.5V1.9125H8.92499C8.47499 1.9125 8.06249 2.2875 8.06249 2.775C8.06249 3.2625 8.43749 3.6375 8.92499 3.6375H11.1375V4.5H10.0125C9.56249 4.5 9.14999 4.875 9.14999 5.3625C9.14999 5.85 9.52499 6.225 10.0125 6.225H11.1375V7.125H8.24999C7.79999 7.125 7.38749 7.5 7.38749 7.9875C7.38749 8.475 7.76249 8.85 8.24999 8.85H11.175V12.0375C8.43749 12.45 6.29999 14.8125 6.29999 17.7C6.29999 20.85 8.84999 23.4375 12 23.4375C15.15 23.4375 17.7 20.775 17.7 17.625C17.7 14.7375 15.6 12.375 12.8625 11.9625ZM12 21.675C9.78749 21.675 7.98749 19.875 7.98749 17.625C7.98749 15.4125 9.78749 13.575 12 13.575C14.2125 13.575 16.0125 15.4125 16.0125 17.625C16.0125 19.8375 14.2125 21.675 12 21.675Z" fill="#161A23"/>
</svg>
