<svg width="23" height="23" viewBox="0 0 23 23" fill="none" xmlns="http://www.w3.org/2000/svg">
<path d="M20.4375 2.2125C19.0125 0.7875 17.1 0 15.075 0C13.05 0 11.1 0.7875 9.675 2.2125C7.7625 4.125 7.0125 6.825 7.6875 9.45L0.4125 16.6875C0.15 16.95 0 17.325 0 17.7375V21.225C0 22.0125 0.6375 22.6875 1.4625 22.6875H4.95C5.325 22.6875 5.7 22.5375 6 22.275L6.8625 21.4125C7.1625 21.1125 7.35 20.6625 7.275 20.2125V20.1375L7.725 20.1C8.4375 20.025 8.9625 19.5 9.0375 18.7875L9.075 18.3375H9.15C9.5625 18.375 9.975 18.2625 10.3125 17.9625C10.6125 17.7 10.8 17.2875 10.8 16.875V16.575H11.0625C11.4375 16.575 11.8125 16.425 12.075 16.1625L13.3125 14.9625C15.9 15.6 18.6 14.8875 20.475 13.0125C23.4 10.0125 23.4 5.175 20.4375 2.2125ZM19.2375 11.775C17.7 13.3125 15.4125 13.875 13.275 13.1625C12.975 13.05 12.6375 13.125 12.4125 13.35L10.9125 14.85H9.9C9.45 14.85 9.0375 15.225 9.0375 15.7125V16.6125L8.3625 16.5375C8.1375 16.5 7.9125 16.575 7.725 16.725C7.5375 16.875 7.425 17.0625 7.425 17.2875L7.3125 18.4125L6.1875 18.525C5.9625 18.5625 5.7375 18.675 5.625 18.825C5.475 19.0125 5.4 19.2375 5.4375 19.4625L5.55 20.2875L4.8375 21H1.6875V17.85L9.225 10.3125C9.45 10.0875 9.525 9.75 9.4125 9.45C8.7375 7.3125 9.2625 5.025 10.8375 3.45C11.9625 2.325 13.425 1.725 15.0375 1.725C16.6125 1.725 18.1125 2.325 19.2375 3.45C21.5625 5.7 21.5625 9.45 19.2375 11.775Z" fill="#161A23"/>
<path d="M16.35 3.63751C15.6375 3.63751 14.9625 3.90001 14.4375 4.42501C13.3875 5.47501 13.3875 7.16251 14.4375 8.21251C14.9625 8.73751 15.6375 9.00001 16.35 9.00001C17.0625 9.00001 17.7375 8.73751 18.2625 8.21251C18.7875 7.68751 19.05 7.01251 19.05 6.30001C19.05 5.58751 18.7875 4.91251 18.2625 4.38751C17.7375 3.90001 17.0625 3.63751 16.35 3.63751ZM17.0625 7.01251C16.6875 7.38751 16.0125 7.38751 15.6375 7.01251C15.2625 6.63751 15.2625 6.00001 15.6375 5.58751C15.825 5.40001 16.0875 5.28751 16.35 5.28751C16.6125 5.28751 16.875 5.40001 17.0625 5.58751C17.25 5.77501 17.3625 6.03751 17.3625 6.30001C17.3625 6.56251 17.25 6.82501 17.0625 7.01251Z" fill="#161A23"/>
</svg>
