<svg width="24" height="24" viewBox="0 0 24 24" fill="none" xmlns="http://www.w3.org/2000/svg">
<g clip-path="url(#clip0_501_43652)">
<path d="M5.92499 23.3625H2.17499C1.34999 23.3625 0.674988 22.6875 0.674988 21.8625V18.1125C0.674988 17.7 0.824988 17.325 1.12499 17.0625L9.14999 9.00001L9.59999 5.66251C9.63749 5.47501 9.71249 5.32501 9.82499 5.17501L14.175 0.900006C14.4 0.675006 14.7 0.600006 15 0.675006L20.85 2.25001C21.15 2.32501 21.3375 2.55001 21.45 2.81251L23.2875 8.92501C23.3625 9.22501 23.2875 9.56251 23.0625 9.75001L18.7875 14.0625C18.675 14.175 18.4875 14.25 18.3375 14.2875L15.1125 14.8125L13.575 16.3125C13.4625 16.425 13.35 16.5 13.2 16.5375L11.625 16.95L11.025 18.7125C10.95 18.975 10.7625 19.1625 10.5 19.2375L8.73749 19.875L8.17499 21.6375C8.13749 21.75 8.06249 21.8625 7.94999 21.975L7.01249 22.9125C6.71249 23.175 6.33749 23.3625 5.92499 23.3625ZM2.32499 21.675H5.84999L6.59999 20.925L7.23749 18.975C7.31249 18.7125 7.49999 18.525 7.76249 18.45L9.59999 17.8125L10.2 16.0125C10.275 15.75 10.5 15.5625 10.7625 15.4875L12.5625 15L14.1 13.4625C14.2125 13.35 14.3625 13.275 14.55 13.2375L17.7375 12.7125L21.4875 8.96251L19.9875 3.75001L15 2.43751L11.25 6.18751L10.8 9.52501C10.7625 9.71251 10.6875 9.86251 10.575 10.0125L2.32499 18.15V21.675Z" fill="#161A23"/>
<path d="M16.0875 10.425C15.4125 10.425 14.775 10.1625 14.25 9.67501C13.7625 9.18751 13.5 8.55001 13.5 7.83751C13.5 7.16251 13.7625 6.48751 14.25 6.00001C15.2625 4.98751 16.9125 4.98751 17.8875 6.00001C18.375 6.48751 18.6375 7.12501 18.6375 7.83751C18.6375 8.55001 18.375 9.18751 17.8875 9.67501C17.4 10.2 16.7625 10.425 16.0875 10.425ZM16.0875 6.97501C15.8625 6.97501 15.6375 7.05001 15.45 7.23751C15.2625 7.38751 15.1875 7.61251 15.1875 7.87501C15.1875 8.13751 15.2625 8.32501 15.45 8.51251C15.7875 8.85001 16.3875 8.85001 16.725 8.51251C16.9125 8.36251 16.9875 8.13751 16.9875 7.87501C16.9875 7.61251 16.9125 7.42501 16.725 7.23751C16.5375 7.08751 16.3125 6.97501 16.0875 6.97501Z" fill="#161A23"/>
</g>
<defs>
<clipPath id="clip0_501_43652">
<rect width="24" height="24" fill="white"/>
</clipPath>
</defs>
</svg>
