<svg width="24" height="24" viewBox="0 0 24 24" fill="none" xmlns="http://www.w3.org/2000/svg">
<path d="M12.8625 11.9625V1.5C12.8625 1.05 12.4875 0.637497 12 0.637497C11.55 0.637497 11.1375 1.0125 11.1375 1.5V3.1125H8.55001C8.10001 3.1125 7.68751 3.4875 7.68751 3.975C7.68751 4.4625 8.06251 4.8375 8.55001 4.8375H11.1375V12C8.36251 12.4125 6.26251 14.775 6.26251 17.6625C6.26251 20.8125 8.85001 23.4 12 23.4C15.15 23.4 17.7375 20.85 17.7375 17.6625C17.7375 14.7375 15.6 12.375 12.8625 11.9625ZM12 21.675C9.78751 21.675 7.95001 19.875 7.95001 17.625C7.95001 15.4125 9.75001 13.575 12 13.575C14.2125 13.575 16.05 15.375 16.05 17.625C16.05 19.8375 14.2125 21.675 12 21.675Z" fill="#161A23"/>
</svg>
