<svg width="24" height="24" viewBox="0 0 24 24" fill="none" xmlns="http://www.w3.org/2000/svg">
<g clip-path="url(#clip0_501_43562)">
<path d="M22.5375 16.2375L18.225 11.9625C17.1 10.875 15.4125 10.875 14.325 11.9625L13.7625 12.525L2.62501 0.900006C2.32501 0.562506 1.76251 0.562506 1.42501 0.900006C1.08751 1.20001 1.08751 1.76251 1.42501 2.10001L2.70001 3.45001L0.900011 5.32501C0.562511 5.66251 0.600011 6.18751 0.937511 6.52501C1.08751 6.67501 1.31251 6.75001 1.53751 6.75001C1.76251 6.75001 1.98751 6.67501 2.13751 6.48751L3.90001 4.65001L6.00001 6.86251L3.37501 9.63751C3.03751 9.97501 3.07501 10.5 3.41251 10.8375C3.56251 10.9875 3.78751 11.0625 4.01251 11.0625C4.23751 11.0625 4.46251 10.9875 4.61251 10.8L7.20001 8.10001L12.6375 13.7625L12.075 14.325C10.9875 15.45 10.9875 17.1375 12.075 18.225L16.35 22.575C16.9125 23.1 17.625 23.3625 18.3 23.3625C19.0125 23.3625 19.725 23.1 20.25 22.5375L22.575 20.2125C23.1 19.6875 23.4 18.975 23.4 18.225C23.325 17.475 23.0625 16.7625 22.5375 16.2375ZM21.3375 19.0125L19.0125 21.3375C18.5625 21.7875 17.925 21.7875 17.475 21.3375L13.1625 17.025C12.7125 16.575 12.7125 15.9375 13.1625 15.4875L14.2875 14.3625C14.2875 14.3625 14.2875 14.3625 14.325 14.325L14.3625 14.2875L15.525 13.125C15.75 12.9 16.0125 12.7875 16.275 12.7875C16.5375 12.7875 16.8375 12.9 17.0625 13.125L21.3375 17.4375C21.5625 17.6625 21.675 17.925 21.675 18.225C21.6375 18.525 21.525 18.7875 21.3375 19.0125Z" fill="#161A23"/>
</g>
<defs>
<clipPath id="clip0_501_43562">
<rect width="24" height="24" fill="white"/>
</clipPath>
</defs>
</svg>
