<svg width="24" height="24" viewBox="0 0 24 24" fill="none" xmlns="http://www.w3.org/2000/svg">
<path d="M21 4.46252H3.00001C1.72501 4.46252 0.637512 5.51252 0.637512 6.82502V17.175C0.637512 18.45 1.68751 19.5375 3.00001 19.5375H21C22.275 19.5375 23.3625 18.4875 23.3625 17.175V6.82502C23.3625 5.51252 22.275 4.46252 21 4.46252ZM21.675 17.175C21.675 17.55 21.375 17.85 21 17.85H3.00001C2.62501 17.85 2.32501 17.55 2.32501 17.175V6.82502C2.32501 6.45002 2.62501 6.15002 3.00001 6.15002H21C21.375 6.15002 21.675 6.45002 21.675 6.82502V17.175Z" fill="#161A23"/>
<path d="M15.825 14.5875H8.175C7.725 14.5875 7.3125 14.9625 7.3125 15.45C7.3125 15.9375 7.6875 16.3125 8.175 16.3125H15.825C16.275 16.3125 16.6875 15.9375 16.6875 15.45C16.6875 14.9625 16.275 14.5875 15.825 14.5875Z" fill="#161A23"/>
<path d="M8.81251 9.00001C8.81251 8.55001 8.43751 8.13751 7.95001 8.13751H7.31251C6.86251 8.13751 6.45001 8.51251 6.45001 9.00001C6.45001 9.48751 6.82501 9.86251 7.31251 9.86251H7.95001C8.43751 9.86251 8.81251 9.48751 8.81251 9.00001Z" fill="#161A23"/>
<path d="M11.6625 9.86251H12.3C12.75 9.86251 13.1625 9.48751 13.1625 9.00001C13.1625 8.51251 12.7875 8.13751 12.3 8.13751H11.6625C11.2125 8.13751 10.8 8.51251 10.8 9.00001C10.8 9.48751 11.2125 9.86251 11.6625 9.86251Z" fill="#161A23"/>
<path d="M16.6875 8.17505H16.05C15.6 8.17505 15.1875 8.55005 15.1875 9.03755C15.1875 9.52505 15.5625 9.90005 16.05 9.90005H16.6875C17.1375 9.90005 17.55 9.52505 17.55 9.03755C17.55 8.55005 17.1375 8.17505 16.6875 8.17505Z" fill="#161A23"/>
<path d="M9.4875 12.75H10.125C10.575 12.75 10.9875 12.375 10.9875 11.925C10.9875 11.475 10.6125 11.0625 10.125 11.0625H9.4875C9.0375 11.0625 8.625 11.4375 8.625 11.925C8.625 12.4125 9.0375 12.75 9.4875 12.75Z" fill="#161A23"/>
<path d="M13.8375 12.75H14.475C14.925 12.75 15.3375 12.375 15.3375 11.925C15.3375 11.475 14.9625 11.0625 14.475 11.0625H13.8375C13.3875 11.0625 12.975 11.4375 12.975 11.925C12.975 12.4125 13.3875 12.75 13.8375 12.75Z" fill="#161A23"/>
</svg>
