<svg width="24" height="24" viewBox="0 0 24 24" fill="none" xmlns="http://www.w3.org/2000/svg">
<g clip-path="url(#clip0_501_48274)">
<path d="M22.7625 18.975L17.85 14.0625C17.1375 13.35 15.975 13.3125 15.1875 13.95L13.275 12.0375C15.45 9.26251 15.2625 5.25001 12.7125 2.70001C9.97495 -0.0374938 5.47495 -0.0374938 2.73745 2.70001C-4.87566e-05 5.43751 -4.87566e-05 9.93751 2.73745 12.675C4.12495 14.0625 5.92495 14.7375 7.72495 14.7375C9.26245 14.7375 10.8 14.25 12.075 13.2375L13.9875 15.15C13.3125 15.9375 13.35 17.1 14.1 17.8125L19.0125 22.725C19.3875 23.1 19.9125 23.2875 20.4 23.2875C20.8875 23.2875 21.4125 23.1 21.7875 22.725L22.7625 21.75C23.5125 21 23.5125 19.7625 22.7625 18.975ZM3.89995 11.5125C1.79995 9.41251 1.79995 6.00001 3.89995 3.90001C4.94995 2.85001 6.33745 2.32501 7.68745 2.32501C9.03745 2.32501 10.425 2.85001 11.475 3.90001C13.575 6.00001 13.575 9.41251 11.475 11.5125C9.41245 13.6125 5.99995 13.6125 3.89995 11.5125ZM21.5625 20.5875L20.5875 21.5625C20.475 21.675 20.2875 21.675 20.1749 21.5625L15.2625 16.65C15.15 16.5375 15.15 16.35 15.2625 16.2375L16.2375 15.2625C16.275 15.225 16.35 15.1875 16.425 15.1875C16.5 15.1875 16.575 15.225 16.6125 15.2625L21.525 20.175C21.675 20.2875 21.675 20.475 21.5625 20.5875Z" fill="#161A23"/>
<path d="M5.84993 7.20001H7.68743C8.13743 7.20001 8.54993 6.82501 8.54993 6.33751C8.54993 5.85001 8.17493 5.47501 7.68743 5.47501H5.84993C5.39993 5.47501 4.98743 5.85001 4.98743 6.33751C4.98743 6.82501 5.36243 7.20001 5.84993 7.20001Z" fill="#161A23"/>
<path d="M9.67493 8.28751H5.84993C5.39993 8.28751 4.98743 8.66251 4.98743 9.15001C4.98743 9.63751 5.36243 10.0125 5.84993 10.0125H9.67493C10.1249 10.0125 10.5374 9.63751 10.5374 9.15001C10.5374 8.66251 10.1249 8.28751 9.67493 8.28751Z" fill="#161A23"/>
</g>
<defs>
<clipPath id="clip0_501_48274">
<rect width="24" height="24" fill="white"/>
</clipPath>
</defs>
</svg>
