<svg width="24" height="24" viewBox="0 0 24 24" fill="none" xmlns="http://www.w3.org/2000/svg">
<path d="M22.5 15.9374H20.925V12.3375H22.5C22.95 12.3375 23.3625 11.9625 23.3625 11.5125C23.3625 11.0625 22.9875 10.65 22.5 10.65H15.8625C16.2375 10.1249 16.5375 9.48745 16.7625 8.69995C17.2875 7.04995 17.1375 5.54995 16.35 4.57495C15.7125 3.78745 14.775 3.41245 13.6875 3.48745C13.3875 3.52495 13.0875 3.56245 12.7875 3.63745C12.5625 2.81245 12.1125 2.02495 11.4 1.31245C11.1 0.97495 10.5375 0.93745 10.2 1.27495C9.8625 1.57495 9.825 2.13745 10.1625 2.47495C10.5 2.84995 10.7625 3.22495 10.95 3.59995C10.725 3.56245 10.5 3.52495 10.3125 3.52495C9.225 3.44995 8.25 3.82495 7.65 4.61245C6.8625 5.58745 6.7125 7.12495 7.2375 8.73745C7.5 9.48745 7.8 10.1249 8.1375 10.65H4.1625C2.25 10.65 0.675003 12.2249 0.675003 14.1374C0.675003 15.1874 1.1625 16.1249 1.9125 16.7999C1.1625 17.4374 0.675003 18.375 0.675003 19.4625C0.675003 21.375 2.25 22.9499 4.1625 22.9499H20.5875C21.0375 22.9499 21.45 22.5749 21.45 22.0875C21.45 21.5999 21.075 21.2249 20.5875 21.2249H18.6V17.6249H22.5C22.95 17.6249 23.3625 17.2499 23.3625 16.7624C23.3625 16.2749 22.95 15.9374 22.5 15.9374ZM8.9625 5.66245C9.225 5.32495 9.6375 5.17495 10.1625 5.21245C10.6125 5.24995 11.325 5.43745 11.6625 5.62495C11.8875 5.73745 12.15 5.73745 12.4125 5.62495L12.7125 5.47495C13.05 5.32495 13.3875 5.24995 13.7625 5.21245C14.2875 5.17495 14.7 5.32495 14.9625 5.66245C15.375 6.18745 15.45 7.16245 15.1125 8.24995C14.7 9.56245 13.8375 10.8749 12.7875 10.6874C12.6375 10.65 12.525 10.6124 12.375 10.5374C12.2625 10.4625 12.1125 10.4249 11.9625 10.4249C11.8125 10.4249 11.7 10.4625 11.55 10.5374C11.3625 10.6124 11.25 10.6874 11.1375 10.7249C10.0875 10.95 9.225 9.59995 8.8125 8.28745C8.5125 7.12495 8.55 6.18745 8.9625 5.66245ZM2.3625 14.1374C2.3625 13.1624 3.1875 12.3375 4.1625 12.3375H19.275V15.9374H4.1625C3.15 15.9374 2.3625 15.1499 2.3625 14.1374ZM16.9125 21.2249H4.1625C3.1875 21.2249 2.3625 20.3999 2.3625 19.4249C2.3625 18.4499 3.15 17.6249 4.1625 17.6249H16.9125V21.2249Z" fill="#161A23"/>
</svg>
