<svg width="24" height="18" viewBox="0 0 24 18" fill="none" xmlns="http://www.w3.org/2000/svg">
<path d="M17.6975 8.99696H6.3192C6.3192 12.0378 8.86656 14.5033 12.0084 14.5033C15.1502 14.5033 17.6975 12.0378 17.6975 8.99696ZM21.4568 15.8282V11.2092C20.8394 14.0515 19.0581 16.4786 16.6154 18V16.3367C15.2779 17.1208 13.7101 17.5725 12.0335 17.5725C10.3569 17.5725 8.73888 17.1066 7.3888 16.3003V18C4.9461 16.4786 3.16484 14.0515 2.54736 11.2092V15.8282C0.956567 13.9746 0 11.5962 0 8.99899C0 6.4018 0.956567 4.02341 2.54526 2.17175V6.79077C3.16274 3.94845 4.94401 1.52144 7.38671 0V1.69972C8.73679 0.893416 10.3276 0.427462 12.0314 0.427462C13.7352 0.427462 15.2779 0.879235 16.6133 1.66325V0C19.056 1.52144 20.8373 3.94845 21.4547 6.79077V2.17175C23.0434 4.02341 24 6.40383 24 8.99899C24 11.5941 23.0434 13.9746 21.4547 15.8262L21.4568 15.8282Z" fill="#5D6068"/>
</svg>
