<svg width="24" height="24" viewBox="0 0 24 24" fill="none" xmlns="http://www.w3.org/2000/svg">
<g clip-path="url(#clip0_914_45144)">
<path d="M9.30815 12.4757L6.72845 13.2194C6.64947 12.1032 6.91535 10.9595 7.49971 9.97632L9.46741 11.7308C9.653 11.89 9.67932 12.1559 9.52006 12.3428C9.46741 12.4218 9.41345 12.4494 9.30815 12.4757Z" fill="#15171A"/>
<path d="M10.1311 14.3632C10.1575 14.4435 10.1575 14.5488 10.1048 14.6291L9.094 17.0746C8.16348 16.4639 7.4185 15.5333 7.04736 14.4698L9.6784 14.0171C9.89163 14.0171 10.1048 14.15 10.1311 14.3632Z" fill="#15171A"/>
<path d="M10.4764 10.5608L8.27051 8.99194C8.96148 8.32729 9.81176 7.8495 10.7423 7.63628L11.274 7.52966L11.1411 10.1897C11.1411 10.4279 10.9292 10.6148 10.6896 10.6148C10.6093 10.6148 10.5567 10.5885 10.4764 10.5608Z" fill="#15171A"/>
<path d="M11.0361 12.5021L11.5402 11.8638H12.3378L12.8432 12.5021L12.6577 13.2734L11.939 13.6182L11.2217 13.2734L11.0361 12.5021Z" fill="#15171A"/>
<path d="M12.3108 15.3464L13.5875 17.6602C13.4283 17.6865 13.2677 17.7128 13.0821 17.7668C12.7096 17.8458 12.3372 17.8997 11.9383 17.8997C11.3803 17.8997 10.7959 17.7931 10.2642 17.6339L11.5672 15.2674C11.7001 15.1081 11.912 15.0542 12.0989 15.1608C12.1779 15.2134 12.2319 15.2674 12.3108 15.3464Z" fill="#15171A"/>
<path d="M12.71 10.2421L12.5508 7.55713C13.7208 7.69007 14.758 8.19418 15.5556 8.99177L13.3747 10.5343C13.1891 10.6409 12.9232 10.6146 12.7903 10.4277C12.7364 10.3751 12.71 10.3224 12.71 10.2421Z" fill="#15171A"/>
<path d="M14.1719 13.9907L16.8307 14.4435C16.6977 14.8146 16.5385 15.1608 16.3265 15.453C15.9277 16.0913 15.3684 16.6494 14.73 17.0482L13.6942 14.5488C13.6402 14.3368 13.7468 14.1237 13.9324 14.0447C14.0127 14.017 14.093 13.9907 14.1719 13.9907Z" fill="#15171A"/>
<path d="M16.9908 11.5452C17.1237 12.1032 17.1514 12.6613 17.0974 13.2194L14.5717 12.5021C14.3321 12.4494 14.1992 12.2099 14.2531 11.9703C14.2795 11.89 14.3058 11.8374 14.3598 11.7847L16.3538 9.97632C16.646 10.4554 16.8592 10.9871 16.9908 11.5452Z" fill="#15171A"/>
<path d="M23.612 14.4435L21.5916 5.74886C21.4574 5.32373 21.1389 4.97756 20.7401 4.76565L12.6311 0.882934C12.4179 0.777641 12.1796 0.75 11.9664 0.75C11.7532 0.75 11.5149 0.75 11.3018 0.803962L3.19276 4.71169C2.79396 4.89859 2.50177 5.24344 2.39516 5.69621L0.401149 14.4435C0.32086 14.895 0.42747 15.3464 0.693337 15.7189L6.30289 22.6578C6.62273 22.9776 7.07419 23.1908 7.52693 23.2172H16.4598C16.9376 23.2698 17.3904 23.0579 17.6826 22.6578L23.2921 15.7189C23.558 15.3464 23.6646 14.895 23.612 14.4435ZM20.2873 15.0279C20.2346 15.0279 20.2083 15.0279 20.1543 15.0016C20.1368 14.984 20.1192 14.9753 20.1017 14.9753C20.049 14.9753 20.0214 14.9476 19.9951 14.9476C19.8885 14.9213 19.8095 14.8686 19.7029 14.8147C19.6503 14.8147 19.5963 14.7884 19.5437 14.762H19.516C19.2515 14.6554 18.9579 14.5764 18.6657 14.5225H18.6394C18.5591 14.5225 18.4802 14.5488 18.4262 14.6028C18.4262 14.6028 18.4262 14.6291 18.3999 14.6291L18.188 14.6028C17.7089 16.1177 16.6718 17.3944 15.3161 18.2183L15.3964 18.4316C15.3964 18.4316 15.3687 18.4316 15.3687 18.4579C15.3161 18.5368 15.3161 18.6434 15.3424 18.7237C15.449 18.9896 15.582 19.2555 15.7675 19.495V19.5477C15.8215 19.6003 15.8478 19.628 15.8741 19.6806C15.9544 19.7609 16.0071 19.8399 16.0597 19.9465C16.0874 19.9728 16.1137 19.9991 16.1137 20.0268C16.1137 20.0268 16.14 20.0268 16.14 20.0531C16.194 20.186 16.194 20.3189 16.1663 20.4519C16.14 20.5848 16.0334 20.6914 15.9281 20.7441C15.8478 20.7704 15.7952 20.798 15.7149 20.798C15.5017 20.798 15.3161 20.6651 15.2095 20.4782C15.1832 20.4782 15.1832 20.4519 15.1832 20.4519C15.1568 20.4255 15.1568 20.3992 15.1292 20.3716C15.0765 20.2926 15.0502 20.186 15.0239 20.0794L14.9699 19.9202V19.8938C14.891 19.6003 14.758 19.3344 14.6251 19.0686C14.5711 18.9896 14.4921 18.9356 14.4119 18.9093C14.4119 18.8918 14.4031 18.883 14.3855 18.883L14.2789 18.6974C14.0131 18.7764 13.7209 18.883 13.4287 18.9356C12.9496 19.0686 12.4705 19.1225 11.9927 19.1225C11.1951 19.1225 10.4238 18.9896 9.6789 18.6974L9.5736 18.9093C9.5736 18.9269 9.56438 18.9356 9.54596 18.9356C9.46699 18.9633 9.3867 19.0159 9.33405 19.0962C9.20111 19.3621 9.06818 19.628 8.98789 19.9202L8.93524 20.0794C8.90891 20.186 8.85495 20.2663 8.82863 20.3716C8.8023 20.3992 8.77598 20.4255 8.77598 20.4519C8.74834 20.4519 8.74834 20.4782 8.74834 20.4782C8.64304 20.6651 8.45618 20.798 8.24426 20.798C8.1903 20.798 8.11133 20.7704 8.05736 20.7441C7.81781 20.6111 7.71251 20.2926 7.84545 20.0268C7.87178 20.0268 7.87178 19.9991 7.87178 19.9991C7.8981 19.9728 7.8981 19.9465 7.92443 19.9202C8.00471 19.8135 8.05736 19.7069 8.11133 19.6543C8.16398 19.6003 8.1903 19.574 8.21663 19.5213V19.495C8.3772 19.2555 8.53646 18.9896 8.64304 18.7237C8.66936 18.6434 8.66936 18.5368 8.6154 18.4579C8.6154 18.4579 8.58908 18.4579 8.58908 18.4316L8.72201 18.2447C8.45618 18.1117 8.24426 17.9525 8.00471 17.7669C6.96758 16.9693 6.2226 15.8781 5.82379 14.6554L5.58559 14.6817C5.58559 14.6817 5.58559 14.6554 5.55795 14.6554C5.5053 14.6028 5.42501 14.5764 5.34604 14.5764H5.31971C4.99988 14.6291 4.734 14.7094 4.4418 14.8147H4.41547C4.36151 14.8147 4.30886 14.8423 4.2549 14.8686C4.17596 14.895 4.06935 14.9476 3.96274 14.9753C3.93641 14.9753 3.85612 14.9476 3.85612 14.9753C3.85612 15.0029 3.85612 15.0016 3.8298 15.0016C3.77715 15.0279 3.75082 15.0279 3.69686 15.0279C3.45731 15.0542 3.21909 14.895 3.16512 14.6554C3.11247 14.3632 3.29805 14.0974 3.59025 14.0447C3.60867 14.0263 3.62666 14.0171 3.64421 14.0171C3.69686 14.0171 3.72318 13.9908 3.75082 13.9908C3.85612 13.9908 3.96274 13.9644 4.06935 13.9644C4.122 13.9381 4.17596 13.9381 4.22857 13.9381C4.54841 13.9118 4.84061 13.8578 5.13281 13.7789C5.2131 13.7249 5.29208 13.6722 5.31971 13.592C5.31971 13.592 5.34604 13.592 5.34604 13.5656L5.55795 13.513C5.31971 11.9967 5.66456 10.4555 6.48848 9.15248C6.51611 9.09851 6.54244 9.07219 6.56876 9.01954L6.41475 8.86425C6.4266 8.7879 6.37792 8.69445 6.32921 8.64705C6.1173 8.43386 5.85143 8.2746 5.58559 8.11534C5.53163 8.08901 5.47897 8.06138 5.42501 8.03505C5.31971 7.9824 5.2131 7.92844 5.13281 7.87579C5.10649 7.87579 5.05384 7.82314 5.05384 7.82314C5.05384 7.82314 5.05384 7.7955 5.0262 7.7955C4.81429 7.60991 4.76032 7.29139 4.91959 7.05188C4.99988 6.91894 5.13281 6.86498 5.29208 6.86498C5.42501 6.86498 5.55795 6.91894 5.66453 6.99791L5.69085 7.02555C5.71852 7.05188 5.74481 7.05188 5.77114 7.0782C5.85143 7.15849 5.90408 7.23743 5.98436 7.31771C6.01069 7.34404 6.06334 7.37036 6.08966 7.42433C6.27656 7.63624 6.51611 7.84946 6.75435 8.03505C6.80831 8.06138 6.86096 8.08901 6.91493 8.08901C6.96889 8.08901 6.9939 8.06138 7.02023 8.06138H7.04786L7.20709 8.16799C8.08369 7.23743 9.22744 6.57278 10.4765 6.3069C10.7963 6.25425 11.0885 6.20029 11.3807 6.17396L11.407 5.96205V5.90809C11.4873 5.85544 11.5136 5.77515 11.54 5.69621C11.54 5.37638 11.54 5.08418 11.4873 4.79198V4.76565C11.4873 4.71169 11.4873 4.65904 11.461 4.60508C11.4347 4.49978 11.407 4.39316 11.407 4.28659V4.15365C11.407 4.02071 11.461 3.88778 11.5676 3.78116C11.7005 3.64823 11.8598 3.56925 12.0191 3.59558C12.2849 3.6219 12.4982 3.88778 12.4705 4.15365V4.31291C12.4442 4.41949 12.4442 4.5261 12.4179 4.63271C12.4179 4.68536 12.3915 4.73801 12.3915 4.79198V4.8183C12.3376 5.13683 12.3376 5.43034 12.3376 5.72254C12.3652 5.80148 12.3915 5.88176 12.4705 5.93441V5.90809L12.4982 6.12131C13.7472 6.25425 14.9699 6.73204 15.9544 7.5033C16.1663 7.71653 16.4059 7.92844 16.6191 8.14166L16.831 8.00873H16.8587C16.885 8.03505 16.9376 8.03505 16.964 8.03505C17.0179 8.03505 17.0705 8.00873 17.1232 7.9824C17.3627 7.82314 17.6023 7.60991 17.7892 7.39669C17.8155 7.37036 17.8682 7.34404 17.8945 7.29139C17.9484 7.2111 18.0274 7.13085 18.1077 7.05188C18.134 7.05188 18.1604 7.02555 18.188 6.99791L18.2143 6.97159C18.3196 6.89261 18.4539 6.83865 18.5868 6.83865C18.7197 6.83865 18.879 6.91894 18.9579 7.02555C19.1448 7.26375 19.0909 7.58359 18.8526 7.76918C18.8526 7.7955 18.879 7.7955 18.8526 7.82314C18.825 7.84946 18.7987 7.84946 18.7724 7.87579C18.6657 7.92844 18.5868 7.9824 18.4802 8.03505C18.4262 8.06138 18.3736 8.08901 18.3196 8.11534C18.0551 8.2746 17.8155 8.43386 17.576 8.64705C17.522 8.6997 17.4957 8.80631 17.4957 8.8866V8.91293L17.3364 9.07219C17.7615 9.73688 18.0814 10.4818 18.267 11.2531C18.4262 12.0231 18.4802 12.8207 18.3736 13.592L18.5868 13.6459C18.6131 13.7249 18.6921 13.8052 18.7724 13.8315C19.0646 13.9118 19.3831 13.9644 19.6766 13.9908H19.7029C19.7556 14.0171 19.8095 14.0171 19.8621 14.0171C19.9688 14.0171 20.0754 14.0171 20.1807 14.0447C20.2346 14.0447 20.2873 14.0447 20.2873 14.0711C20.2873 14.0974 20.3149 14.0974 20.3412 14.0974C20.5795 14.15 20.7927 14.3632 20.819 14.6554C20.7401 14.8686 20.5268 15.0279 20.2873 15.0279Z" fill="#15171A"/>
</g>
<defs>
<clipPath id="clip0_914_45144">
<rect width="24" height="24" fill="white"/>
</clipPath>
</defs>
</svg>
