<svg width="24" height="24" viewBox="0 0 24 24" fill="none" xmlns="http://www.w3.org/2000/svg">
<path d="M15.1125 2.47502C15.1875 2.51252 15.3375 2.58752 15.4125 2.77502L16.05 4.46252C16.35 5.25002 17.1 5.81252 17.9625 5.85002L19.7625 5.96252C19.95 5.96252 20.0625 6.07502 20.1375 6.15002C20.175 6.22502 20.25 6.37502 20.2125 6.56252L19.725 8.25002C19.5 9.07502 19.8 9.93752 20.4375 10.5L21.825 11.625C21.975 11.7375 22.0125 11.925 22.0125 12C22.0125 12.075 21.975 12.2625 21.825 12.375L20.4 13.5C19.725 14.025 19.4625 14.925 19.6875 15.75C19.8 16.2 20.25 16.4625 20.7375 16.35C21.1875 16.2375 21.45 15.75 21.3375 15.3C21.3 15.1125 21.3375 14.925 21.4875 14.8125L22.875 13.6875C23.4 13.275 23.6625 12.675 23.6625 12C23.6625 11.3625 23.3625 10.725 22.875 10.3125L21.4875 9.18752C21.3375 9.07502 21.2625 8.88752 21.3375 8.70002L21.7875 6.93752C21.9375 6.30002 21.825 5.62502 21.45 5.10002C21.075 4.57502 20.475 4.23752 19.8 4.20002L18.0375 4.12502C17.85 4.12502 17.7 4.01252 17.625 3.82502L16.9875 2.13752C16.7625 1.53752 16.275 1.05002 15.6375 0.862524C15 0.637524 14.325 0.750024 13.7625 1.08752L12.2625 2.06252C12.1125 2.17502 11.8875 2.17502 11.7375 2.06252L10.2 1.08752C9.63749 0.712524 8.96249 0.637524 8.36249 0.862524C7.72499 1.05002 7.23749 1.53752 7.01249 2.13752L6.37499 3.82502C6.29999 4.01252 6.14999 4.12502 5.96249 4.12502L4.16249 4.23752C3.52499 4.27502 2.92499 4.61252 2.51249 5.13752C2.09999 5.66252 1.98749 6.33752 2.17499 6.97502L2.62499 8.73752C2.66249 8.92502 2.62499 9.11252 2.47499 9.22503L1.08749 10.35C0.562488 10.7625 0.299988 11.3625 0.299988 12.0375C0.299988 12.675 0.599988 13.3125 1.08749 13.725L2.47499 14.85C2.62499 14.9625 2.69999 15.15 2.62499 15.3375L2.17499 17.1C2.02499 17.7375 2.13749 18.4125 2.51249 18.9375C2.88749 19.4625 3.48749 19.8 4.16249 19.8375L5.96249 19.95H5.99999C6.44999 19.95 6.82499 19.6125 6.82499 19.1625C6.86249 18.7125 6.48749 18.3 6.03749 18.2625L4.23749 18.15C4.04999 18.15 3.93749 18.0375 3.86249 17.9625C3.82499 17.8875 3.74999 17.7375 3.78749 17.55L4.23749 15.7875C4.46249 14.9625 4.16249 14.1 3.52499 13.5375L2.13749 12.4125C1.98749 12.3 1.94999 12.1125 1.94999 12.0375C1.94999 11.9625 1.98749 11.775 2.13749 11.6625L3.52499 10.5375C4.19999 10.0125 4.46249 9.11252 4.23749 8.28752L3.78749 6.52502C3.74999 6.33752 3.82499 6.18752 3.86249 6.11252C3.89999 6.03752 4.01249 5.92502 4.23749 5.92502L6.03749 5.81252C6.89999 5.77502 7.64999 5.21252 7.94999 4.42502L8.58749 2.73752C8.66249 2.55002 8.81249 2.47502 8.88749 2.43752C8.96249 2.40002 9.11249 2.40002 9.29999 2.47502L10.8375 3.45002C11.55 3.90002 12.4875 3.90002 13.2 3.45002L14.7 2.47502C14.85 2.40002 15.0375 2.43752 15.1125 2.47502Z" fill="#161A23"/>
<path d="M11.1375 17.025C10.6875 17.025 10.3125 17.4 10.3125 17.85V18.6375L9.67498 17.4375C9.48748 17.1 9.11248 16.9125 8.73748 17.025C8.36248 17.1 8.09998 17.4375 8.09998 17.85V22.05C8.09998 22.5 8.47498 22.875 8.92498 22.875C9.37498 22.875 9.74998 22.5 9.74998 22.05V21.2625L10.3875 22.4625C10.5375 22.7625 10.8375 22.9125 11.1375 22.9125C11.2125 22.9125 11.2875 22.9125 11.325 22.875C11.7 22.8 11.9625 22.4625 11.9625 22.05V17.85C12 17.4 11.625 17.025 11.1375 17.025Z" fill="#161A23"/>
<path d="M15.75 18.7125C16.2 18.7125 16.575 18.3375 16.575 17.8875C16.575 17.4375 16.2 17.0625 15.75 17.0625H14.0625C13.6125 17.0625 13.2375 17.4375 13.2375 17.8875V22.0875C13.2375 22.5375 13.6125 22.9125 14.0625 22.9125H15.75C16.2 22.9125 16.575 22.5375 16.575 22.0875C16.575 21.6375 16.2 21.2625 15.75 21.2625H14.925V20.85C15.375 20.85 15.75 20.475 15.75 20.025C15.75 19.575 15.375 19.125 14.925 19.125V18.7125H15.75Z" fill="#161A23"/>
<path d="M22.6875 17.0625C22.2375 16.95 21.7875 17.175 21.6375 17.625L21.3 18.75L21.0375 17.6625C20.925 17.25 20.55 16.95 20.1375 17.025C19.8 17.0625 19.5 17.325 19.425 17.625L19.0875 18.75L18.825 17.6625C18.7125 17.2125 18.2625 16.9125 17.8125 17.025C17.3625 17.1375 17.0625 17.5875 17.175 18.0375L18.15 22.2375C18.225 22.6125 18.5625 22.875 18.9375 22.875C18.9375 22.875 18.9375 22.875 18.975 22.875C19.35 22.875 19.6875 22.6125 19.8 22.275L20.1375 21.15L20.4 22.2375C20.475 22.6125 20.8125 22.875 21.1875 22.875C21.5625 22.9125 21.9 22.65 22.0125 22.275L23.25 18.075C23.4 17.6625 23.1375 17.175 22.6875 17.0625Z" fill="#161A23"/>
</svg>
