<svg width="24" height="24" viewBox="0 0 24 24" fill="none" xmlns="http://www.w3.org/2000/svg">
<path d="M23.325 20.1375L21.825 13.65C21.9 13.5375 21.9375 13.3875 21.9375 13.275V4.64998C21.9375 3.37498 20.8875 2.28748 19.575 2.28748H4.42499C3.14999 2.28748 2.06249 3.33748 2.06249 4.64998V13.275C2.06249 13.3875 2.09999 13.5375 2.13749 13.6125L0.637494 20.175C0.562494 20.55 0.674994 20.925 0.937494 21.225C1.19999 21.525 1.57499 21.7125 1.98749 21.7125H22.0125C22.425 21.7125 22.8375 21.525 23.0625 21.1875C23.325 20.8875 23.4 20.475 23.325 20.1375ZM3.78749 4.64998C3.78749 4.27498 4.08749 3.97498 4.46249 3.97498H19.575C19.95 3.97498 20.25 4.27498 20.25 4.64998V12.45H3.78749V4.64998ZM2.43749 20.025L3.78749 14.1375H20.175L21.525 20.025H2.43749Z" fill="#161A23"/>
</svg>
