<svg width="24" height="24" viewBox="0 0 24 24" fill="none" xmlns="http://www.w3.org/2000/svg">
<path d="M22.5 16.5749H21.15V8.8124C21.15 7.1249 19.7625 5.7749 18.1125 5.7749H5.925C4.2375 5.7749 2.8875 7.1249 2.8875 8.8124V16.5749H1.5C1.05 16.5749 0.637497 16.9499 0.637497 17.4374C0.637497 17.9249 1.0125 18.2999 1.5 18.2999H22.5C22.95 18.2999 23.3625 17.9249 23.3625 17.4374C23.3625 16.9499 22.95 16.5749 22.5 16.5749ZM4.5375 16.5749V8.8124C4.5375 8.0624 5.1375 7.4624 5.8875 7.4624H18.075C18.825 7.4624 19.425 8.0624 19.425 8.8124V16.5749H4.5375Z" fill="#161A23"/>
<path d="M15.2625 10.4625L13.5375 10.2L12.75 8.62495C12.6 8.32495 12.3 8.13745 12 8.13745C11.7 8.13745 11.4 8.32495 11.25 8.62495L10.4625 10.2L8.7375 10.4625C8.4375 10.5 8.1375 10.725 8.0625 11.025C7.9875 11.325 8.0625 11.6625 8.2875 11.8875L9.5625 13.125L9.2625 14.85C9.225 15.15 9.3375 15.4875 9.6 15.675C9.8625 15.8625 10.2 15.9 10.5 15.75L12.075 14.925L13.65 15.75C13.7625 15.825 13.9125 15.8625 14.025 15.8625C14.2125 15.8625 14.3625 15.825 14.5125 15.7125C14.775 15.525 14.8875 15.1875 14.85 14.8875L14.475 13.125L15.75 11.8875C15.975 11.6625 16.05 11.325 15.975 11.025C15.9 10.725 15.6 10.5 15.2625 10.4625ZM12.975 12.225C12.7875 12.4125 12.675 12.7125 12.75 12.975L12.825 13.4625L12.375 13.2375C12.2625 13.1625 12.1125 13.125 12 13.125C11.8875 13.125 11.7375 13.1625 11.625 13.2375L11.175 13.4625L11.25 12.975C11.2875 12.7125 11.2125 12.4125 11.025 12.225L10.6875 11.8875L11.175 11.8125C11.4375 11.775 11.7 11.5875 11.8125 11.3625L12.0375 10.9125L12.2625 11.3625C12.375 11.625 12.6375 11.775 12.9 11.8125L13.3875 11.8875L12.975 12.225Z" fill="#161A23"/>
</svg>
