<svg width="24" height="24" viewBox="0 0 24 24" fill="none" xmlns="http://www.w3.org/2000/svg">
<path d="M22.5 15.3375H21.4875V5.96245C21.4875 4.38745 20.2125 3.07495 18.6 3.07495H5.40001C3.82501 3.07495 2.51251 4.34995 2.51251 5.96245V15.3375H1.50001C1.05001 15.3375 0.637512 15.7125 0.637512 16.2V17.8125C0.637512 19.575 2.06251 20.9625 3.78751 20.9625H20.1375C21.9 20.9625 23.2875 19.5375 23.2875 17.8125V16.2C23.3625 15.7125 22.95 15.3375 22.5 15.3375ZM4.20001 5.92495C4.20001 5.24995 4.72501 4.72495 5.40001 4.72495H18.5625C19.2375 4.72495 19.7625 5.24995 19.7625 5.92495V15.3H4.20001V5.92495ZM21.675 17.775C21.675 18.6 21 19.2374 20.2125 19.2374H3.82501C3.00001 19.2374 2.36251 18.5625 2.36251 17.775V17.025H21.675V17.775Z" fill="#161A23"/>
<path d="M15.4875 8.51255L13.7625 7.91255L12.675 6.45005C12.525 6.22505 12.2625 6.11255 12 6.11255C11.7375 6.11255 11.475 6.22505 11.325 6.45005L10.2375 7.91255L8.51251 8.51255C8.25001 8.58755 8.06251 8.81255 7.98751 9.03755C7.91251 9.30005 7.95001 9.56255 8.10001 9.78755L9.15001 11.2875L9.18751 13.125C9.18751 13.3875 9.33751 13.65 9.52501 13.8C9.75001 13.95 10.0125 13.9875 10.275 13.9125L12 13.35L13.725 13.9125C13.8 13.95 13.875 13.95 13.9875 13.95C14.175 13.95 14.325 13.9125 14.475 13.8C14.7 13.65 14.8125 13.3875 14.8125 13.125L14.85 11.2875L15.9 9.78755C16.05 9.56255 16.0875 9.30005 16.0125 9.03755C15.9375 8.81255 15.75 8.58755 15.4875 8.51255ZM13.3125 10.5375C13.2 10.6875 13.1625 10.8375 13.1625 11.025V11.9625L12.2625 11.6625C12.1125 11.625 11.925 11.625 11.775 11.6625L10.875 11.9625V11.025C10.875 10.8375 10.8375 10.6875 10.725 10.5375L10.125 9.75005L11.025 9.45005C11.175 9.41255 11.325 9.30005 11.4375 9.15005L12 8.40005L12.5625 9.15005C12.675 9.30005 12.825 9.37505 12.975 9.45005L13.875 9.75005L13.3125 10.5375Z" fill="#161A23"/>
</svg>
