<svg width="24" height="24" viewBox="0 0 24 24" fill="none" xmlns="http://www.w3.org/2000/svg">
<path d="M19.6875 18.4126H18.6375V15.7876C18.6375 15.3376 18.2625 14.9251 17.775 14.9251C17.2875 14.9251 16.9125 15.3001 16.9125 15.7876V18.4126H4.23751V11.3626C4.23751 11.0251 4.50001 10.7626 4.83751 10.7626H9.41251C9.86251 10.7626 10.275 10.3876 10.275 9.9001C10.275 9.4126 9.90001 9.0376 9.41251 9.0376H4.87501C3.60001 9.0376 2.58751 10.0876 2.58751 11.3251V18.3751H1.50001C1.05001 18.3751 0.637512 18.7501 0.637512 19.2376C0.637512 19.7251 1.01251 20.1001 1.50001 20.1001H19.6875C20.1375 20.1001 20.55 19.7251 20.55 19.2376C20.55 18.7501 20.175 18.4126 19.6875 18.4126Z" fill="#161A23"/>
<path d="M22.5 7.42505C22.05 7.42505 21.6375 7.80005 21.6375 8.28755V12C21.6375 12.45 22.0125 12.8625 22.5 12.8625C22.9875 12.8625 23.3625 12.4875 23.3625 12V8.28755C23.3625 7.80005 22.95 7.42505 22.5 7.42505Z" fill="#161A23"/>
<path d="M20.475 7.08754C20.3625 6.82504 20.175 6.60004 18.4125 4.87504C18.2625 4.72504 18.1125 4.57504 18.0375 4.50004C17.85 4.31254 17.5875 4.05004 17.1375 3.93754C16.425 3.75004 15.6375 4.20004 15.4125 4.91254C15.3 5.28754 15.375 5.66254 15.4125 5.88754L15.525 6.48754H14.325C14.0625 6.48754 13.6875 6.48754 13.3125 6.67504C12.9 6.90004 12.5625 7.27504 12.45 7.76254C12.4125 7.83754 12.4125 7.91254 12.4125 8.02504C12.375 8.28754 12.375 8.55004 12.4125 8.85004C12.45 9.15004 12.6375 9.78754 13.6875 12.225C13.8 12.4875 14.025 12.975 14.5125 13.2375C14.85 13.425 15.225 13.425 15.45 13.425H18.6375H18.675C19.0125 13.425 19.65 13.425 20.1375 12.9375C20.5875 12.45 20.5875 11.8125 20.5875 11.475V7.91254C20.625 7.72504 20.625 7.38754 20.475 7.08754ZM18.9 11.7C18.825 11.7 18.75 11.7 18.6375 11.7H15.45C15.4125 11.7 15.375 11.7 15.3375 11.7C15.3 11.625 15.2625 11.55 15.2625 11.5125C14.25 9.11254 14.1375 8.62504 14.1 8.55004C14.0625 8.40004 14.0625 8.32504 14.1 8.21254V8.17504C14.1 8.13754 14.1 8.13754 14.1 8.13754C14.175 8.13754 14.2875 8.13754 14.3625 8.13754H16.6125C16.875 8.13754 17.1 8.02504 17.25 7.83754C17.4 7.65004 17.475 7.38754 17.4375 7.12504L17.2125 6.03754C17.5875 6.41254 18.6 7.38754 18.9 7.72504C18.9 7.76254 18.9 7.83754 18.9 7.87504V11.4375C18.9375 11.55 18.9375 11.6625 18.9 11.7Z" fill="#161A23"/>
</svg>
