<svg width="24" height="24" viewBox="0 0 24 24" fill="none" xmlns="http://www.w3.org/2000/svg">
<path d="M21.7875 8.28749H19.5375V3.89999C19.5375 2.62499 18.525 1.61249 17.25 1.61249H4.87497C3.59997 1.61249 2.58747 2.62499 2.58747 3.89999V10.4625C2.36247 10.65 2.17497 10.9125 2.06247 11.25L0.67497 18C0.59997 18.375 0.71247 18.7875 0.97497 19.0875C1.19997 19.3875 1.57497 19.5375 1.94997 19.5375H14.025V20.85C14.025 21.7125 14.7375 22.425 15.6 22.425H21.7875C22.65 22.425 23.3625 21.7125 23.3625 20.85V9.86249C23.3625 8.99999 22.65 8.28749 21.7875 8.28749ZM2.43747 17.85L3.67497 11.8875H3.86247H14.0625V17.85H2.43747ZM14.025 9.86249V10.2H4.27497V3.89999C4.27497 3.56249 4.53747 3.29999 4.87497 3.29999H17.25C17.5875 3.29999 17.85 3.56249 17.85 3.89999V8.28749H15.6C14.7375 8.28749 14.025 8.99999 14.025 9.86249ZM21.675 20.7H15.7125V9.97499H21.675V20.7Z" fill="#161A23"/>
<path d="M17.85 12.8625H19.725C20.175 12.8625 20.5875 12.4875 20.5875 12C20.5875 11.55 20.2125 11.1375 19.725 11.1375H17.85C17.4 11.1375 16.9875 11.5125 16.9875 12C16.9875 12.45 17.3625 12.8625 17.85 12.8625Z" fill="#161A23"/>
<path d="M18.7125 18.675C18.675 18.675 18.6 18.7125 18.5625 18.7125C18.525 18.75 18.45 18.75 18.4125 18.7875C18.375 18.825 18.3375 18.8625 18.3 18.9C18.15 19.05 18.0375 19.275 18.0375 19.5C18.0375 19.725 18.1125 19.95 18.3 20.1C18.3375 20.1375 18.375 20.175 18.4125 20.2125C18.45 20.25 18.525 20.2875 18.5625 20.2875C18.6 20.325 18.675 20.325 18.7125 20.325C18.75 20.325 18.825 20.325 18.8625 20.325C19.0875 20.325 19.3125 20.25 19.4625 20.0625C19.6125 19.9125 19.725 19.6875 19.725 19.4625C19.725 19.2375 19.65 19.0125 19.4625 18.8625C19.275 18.7125 18.975 18.6375 18.7125 18.675Z" fill="#161A23"/>
</svg>
