<svg width="24" height="24" viewBox="0 0 24 24" fill="none" xmlns="http://www.w3.org/2000/svg">
<path d="M22.4999 20.1375H20.8874C20.8874 20.1 20.8874 20.0625 20.8874 20.025V11.925C20.8874 10.65 19.8749 9.63751 18.5999 9.63751H18.0749C17.625 9.63751 17.2125 10.0125 17.2125 10.5C17.2125 10.9875 17.5875 11.3625 18.0749 11.3625H18.5999C18.9374 11.3625 19.1999 11.625 19.1999 11.9625V20.0625C19.1999 20.1375 19.1625 20.175 19.0875 20.175H18.5625H5.06245H4.91245C4.83745 20.175 4.79995 20.1375 4.79995 20.0625V11.925C4.79995 11.5875 5.06245 11.325 5.39995 11.325H5.69995C6.14995 11.325 6.56245 10.95 6.56245 10.4625C6.56245 9.97501 6.18745 9.60001 5.69995 9.60001H5.39995C4.12495 9.60001 3.11245 10.6125 3.11245 11.8875V19.9875C3.11245 20.025 3.11245 20.0625 3.11245 20.1H1.49995C1.04995 20.1 0.637451 20.475 0.637451 20.9625C0.637451 21.45 1.01245 21.825 1.49995 21.825H22.4999C22.9499 21.825 23.3624 21.45 23.3624 20.9625C23.3624 20.475 22.9499 20.1375 22.4999 20.1375Z" fill="#161A23"/>
<path d="M11.6625 14.4C14.2125 14.4 16.275 12.3375 16.275 9.7875C16.275 9.3375 15.9 8.925 15.4125 8.925C14.925 8.925 14.55 9.3 14.55 9.7875C14.55 11.4 13.2375 12.7125 11.625 12.7125C10.0125 12.7125 8.69995 11.4 8.69995 9.7875C8.69995 8.175 10.0125 6.8625 11.625 6.8625C11.925 6.8625 12.1875 6.9 12.45 6.975C12.9 7.125 13.35 6.8625 13.5 6.4125C13.65 5.9625 13.3875 5.5125 12.9375 5.3625C12.525 5.25 12.075 5.175 11.625 5.175C9.07495 5.175 7.01245 7.2375 7.01245 9.7875C7.04995 12.3375 9.14995 14.4 11.6625 14.4Z" fill="#161A23"/>
<path d="M11.5126 8.85C11.1751 9.15 11.1376 9.675 11.4376 10.05C11.5876 10.2375 11.8501 10.35 12.0751 10.35C12.2626 10.35 12.4876 10.275 12.6376 10.125L17.2126 6.075H19.35C19.8 6.075 20.2126 5.7 20.2126 5.2125C20.2126 4.725 19.8376 4.35 19.35 4.35H17.7751V3.0375C17.7751 2.5875 17.4001 2.175 16.9126 2.175C16.4251 2.175 16.0501 2.55 16.0501 3.0375V4.8375L11.5126 8.85Z" fill="#161A23"/>
<path d="M11.025 9.825C11.025 9.375 10.65 8.9625 10.1625 8.9625C9.67505 8.9625 9.30005 9.3375 9.30005 9.825C9.30005 11.1375 10.35 12.1875 11.6625 12.1875C12.1125 12.1875 12.525 11.8125 12.525 11.325C12.525 10.8375 12.15 10.4625 11.6625 10.4625C11.325 10.4625 11.025 10.1625 11.025 9.825Z" fill="#161A23"/>
</svg>
