<svg width="24" height="24" viewBox="0 0 24 24" fill="none" xmlns="http://www.w3.org/2000/svg">
<path d="M12.0001 13.65C14.8126 13.65 17.1001 11.3625 17.1001 8.54995C17.1001 5.73745 14.8126 3.44995 12.0001 3.44995C9.18765 3.44995 6.90015 5.73745 6.90015 8.54995C6.90015 11.3625 9.18765 13.65 12.0001 13.65ZM12.0001 5.13745C13.8751 5.13745 15.4126 6.67495 15.4126 8.54995C15.4126 10.425 13.8751 11.9625 12.0001 11.9625C10.1251 11.9625 8.58765 10.425 8.58765 8.54995C8.58765 6.67495 10.1251 5.13745 12.0001 5.13745Z" fill="#161A23"/>
<path d="M12.075 10.3499C12.225 10.4999 12.45 10.6124 12.675 10.6124C12.9 10.6124 13.125 10.5374 13.275 10.3499C13.6125 10.0124 13.6125 9.4874 13.275 9.1499L12.6375 8.5124V7.3499C12.6375 6.8999 12.2625 6.5249 11.8125 6.5249C11.3625 6.5249 10.9875 6.8999 10.9875 7.3499V8.8499C10.9875 9.0749 11.0625 9.2999 11.25 9.4499L12.075 10.3499Z" fill="#161A23"/>
<path d="M22.5001 18.8625H21.6376V9.86248C21.6376 8.69998 20.7001 7.72498 19.5001 7.72498H18.4876C18.0375 7.72498 17.6625 8.09998 17.6625 8.54998C17.6625 8.99998 18.0375 9.37498 18.4876 9.37498H19.5001C19.725 9.37498 19.9501 9.56248 19.9501 9.82498V18.825H4.05005V9.82498C4.05005 9.59998 4.23755 9.37498 4.50005 9.37498H5.51255C5.96255 9.37498 6.33755 8.99998 6.33755 8.54998C6.33755 8.09998 5.96255 7.72498 5.51255 7.72498H4.50005C3.33755 7.72498 2.36255 8.66248 2.36255 9.86248V18.8625H1.50005C1.05005 18.8625 0.675049 19.2375 0.675049 19.6875C0.675049 20.1375 1.05005 20.5125 1.50005 20.5125H22.5001C22.9501 20.5125 23.3251 20.1375 23.3251 19.6875C23.3251 19.2375 22.9501 18.8625 22.5001 18.8625Z" fill="#161A23"/>
</svg>
