<svg width="24" height="24" viewBox="0 0 24 24" fill="none" xmlns="http://www.w3.org/2000/svg">
<path d="M19.6875 18.4125H18.6375V15.7875C18.6375 15.3375 18.2625 14.925 17.775 14.925C17.2875 14.925 16.9125 15.3 16.9125 15.7875V18.4125H4.2375V11.3625C4.2375 11.025 4.5 10.7625 4.8375 10.7625H9.4125C9.8625 10.7625 10.275 10.3875 10.275 9.89998C10.275 9.41248 9.9 9.03748 9.4125 9.03748H4.875C3.6 9.03748 2.5875 10.0875 2.5875 11.325V18.375H1.5C1.05 18.375 0.637497 18.75 0.637497 19.2375C0.637497 19.725 1.0125 20.1 1.5 20.1H19.6875C20.1375 20.1 20.55 19.725 20.55 19.2375C20.55 18.75 20.175 18.4125 19.6875 18.4125Z" fill="#161A23"/>
<path d="M22.5 4.42505C22.05 4.42505 21.6375 4.80005 21.6375 5.28755V9.00005C21.6375 9.45005 22.0125 9.86255 22.5 9.86255C22.9875 9.86255 23.3625 9.48755 23.3625 9.00005V5.28755C23.3625 4.83755 22.95 4.42505 22.5 4.42505Z" fill="#161A23"/>
<path d="M18.675 3.90002H15.4875C15.2625 3.90002 14.8875 3.90002 14.55 4.08752C14.0625 4.35002 13.8375 4.83752 13.725 5.10002C12.5625 7.83752 12.4875 8.28752 12.45 8.47502C12.4125 8.77502 12.4125 9.07502 12.45 9.30002C12.45 9.37502 12.4875 9.45002 12.4875 9.56252C12.6375 10.05 12.9375 10.4625 13.35 10.65C13.725 10.8375 14.1375 10.8375 14.3625 10.8375H15.5625L15.45 11.4375C15.4125 11.6625 15.3375 12 15.45 12.4125C15.6375 13.0125 16.2 13.4625 16.8375 13.4625C16.95 13.4625 17.0625 13.4625 17.175 13.425C17.5875 13.3125 17.8875 13.0125 18.075 12.8625C18.15 12.7875 18.3 12.6375 18.45 12.4875C20.25 10.7625 20.4 10.5375 20.5125 10.275C20.625 9.90002 20.625 9.56252 20.625 9.37502V5.81252C20.625 5.47502 20.625 4.83752 20.175 4.35002C19.65 3.90002 18.975 3.90002 18.675 3.90002ZM18.9375 9.37502C18.9375 9.41252 18.9375 9.48752 18.9375 9.52502C18.6375 9.86252 17.6625 10.8375 17.25 11.2125C17.25 11.2125 17.25 11.2125 17.2125 11.25L17.4375 10.1625C17.475 9.90002 17.4375 9.63752 17.25 9.45002C17.1 9.26252 16.8375 9.15002 16.6125 9.15002H14.3625C14.2875 9.15002 14.175 9.15002 14.1 9.15002V9.11252V9.07502C14.1 9.00002 14.1 8.88752 14.1 8.73752C14.1 8.66252 14.2125 8.17502 15.2625 5.77502C15.2625 5.73752 15.3 5.66252 15.3375 5.58752C15.375 5.58752 15.4125 5.58752 15.45 5.58752H18.6375C18.75 5.58752 18.825 5.58752 18.9 5.58752C18.9 5.66252 18.9 5.73752 18.9 5.85002L18.9375 9.37502Z" fill="#161A23"/>
</svg>
