<svg width="24" height="24" viewBox="0 0 24 24" fill="none" xmlns="http://www.w3.org/2000/svg">
<path d="M23.325 19.3875C23.325 19.275 23.325 19.1625 23.2875 19.05L21.525 14.2875C21.525 14.25 21.4875 14.25 21.4875 14.2125V4.04998C21.4875 2.88748 20.55 1.91248 19.3875 1.91248H4.61249C3.44999 1.91248 2.51249 2.84998 2.51249 4.04998V14.2125C2.51249 14.25 2.47499 14.25 2.47499 14.2875L0.712487 19.05C0.674987 19.1625 0.637487 19.275 0.674987 19.3875C0.674987 19.3875 0.674987 19.3875 0.674987 19.425V20.55C0.674987 21.4125 1.38749 22.125 2.24999 22.125H21.7875C22.65 22.125 23.3625 21.4125 23.3625 20.55L23.325 19.3875C23.3625 19.3875 23.325 19.3875 23.325 19.3875ZM4.19999 4.04998C4.19999 3.82498 4.38749 3.59998 4.61249 3.59998H19.3875C19.6125 3.59998 19.8 3.78748 19.8 4.04998V13.8H4.19999V4.04998ZM2.36249 20.4V19.5L3.86249 15.4875H20.175L21.675 19.5V20.4375H2.36249V20.4Z" fill="#161A23"/>
<path d="M12.7125 4.94995H11.2875C10.8375 4.94995 10.425 5.32495 10.425 5.81245C10.425 6.29995 10.8 6.67495 11.2875 6.67495H12.7125C13.1625 6.67495 13.575 6.29995 13.575 5.81245C13.575 5.32495 13.1625 4.94995 12.7125 4.94995Z" fill="#161A23"/>
</svg>
