<svg width="24" height="24" viewBox="0 0 24 24" fill="none" xmlns="http://www.w3.org/2000/svg">
<path d="M22.5 15.3375H21.4875V5.96245C21.4875 4.38745 20.2125 3.07495 18.6 3.07495H5.4C3.825 3.07495 2.5125 4.34995 2.5125 5.96245V15.3375H1.5C1.05 15.3375 0.637497 15.7125 0.637497 16.2V17.8125C0.637497 19.575 2.0625 20.9625 3.7875 20.9625H20.1375C21.9 20.9625 23.2875 19.5375 23.2875 17.8125V16.2C23.3625 15.7125 22.95 15.3375 22.5 15.3375ZM4.2 5.92495C4.2 5.24995 4.725 4.72495 5.4 4.72495H18.5625C19.2375 4.72495 19.7625 5.24995 19.7625 5.92495V15.3H4.2V5.92495ZM21.675 17.775C21.675 18.6 21 19.2374 20.2125 19.2374H3.825C3 19.2374 2.3625 18.5625 2.3625 17.775V17.025H21.675V17.775Z" fill="#161A23"/>
<path d="M12.7125 5.9624H11.2875C10.8375 5.9624 10.425 6.3374 10.425 6.8249C10.425 7.3124 10.8 7.6874 11.2875 7.6874H12.7125C13.1625 7.6874 13.575 7.3124 13.575 6.8249C13.575 6.3374 13.1625 5.9624 12.7125 5.9624Z" fill="#161A23"/>
</svg>
