<svg width="24" height="24" viewBox="0 0 24 24" fill="none" xmlns="http://www.w3.org/2000/svg">
<path d="M22.5 15.3375H21.4875V5.88748C21.4875 4.31248 20.2125 3.03748 18.6375 3.03748H5.36251C3.78751 3.03748 2.51251 4.31248 2.51251 5.88748V15.3H1.50001C1.05001 15.3 0.637512 15.675 0.637512 16.1625V17.7C0.637512 19.5 2.10001 20.9625 3.90001 20.9625H20.1C21.9 20.9625 23.3625 19.5 23.3625 17.7V16.1625C23.3625 15.7125 22.95 15.3375 22.5 15.3375ZM4.20001 5.88748C4.20001 5.24998 4.72501 4.72498 5.36251 4.72498H18.6375C19.275 4.72498 19.8 5.24998 19.8 5.88748V15.3H14.4375C14.175 15.3 13.95 15.4125 13.8 15.6L13.3875 16.125H10.425L9.97501 15.6C9.82501 15.4125 9.60001 15.3 9.33751 15.3H4.20001V5.88748ZM21.675 17.7C21.675 18.5625 20.9625 19.275 20.1 19.275H3.90001C3.03751 19.275 2.32501 18.5625 2.32501 17.7V17.025H8.96251L9.41251 17.55C9.56251 17.7375 9.78751 17.85 10.05 17.85H13.7625C14.025 17.85 14.25 17.7375 14.4 17.55L14.8125 17.0625H21.6375V17.7H21.675Z" fill="#161A23"/>
<path d="M11.2875 7.64993H12.7125C13.1625 7.64993 13.575 7.27493 13.575 6.78743C13.575 6.29993 13.2 5.92493 12.7125 5.92493H11.2875C10.8375 5.92493 10.425 6.29993 10.425 6.78743C10.425 7.27493 10.8375 7.64993 11.2875 7.64993Z" fill="#161A23"/>
</svg>
