<svg width="24" height="24" viewBox="0 0 24 24" fill="none" xmlns="http://www.w3.org/2000/svg">
<g clip-path="url(#clip0_914_45154)">
<path d="M23.3306 5.67146C23.3306 5.67146 23.3166 5.64356 23.3073 5.62031C23.298 5.59706 23.2887 5.57381 23.2841 5.55986C23.2701 5.53661 23.2562 5.5227 23.2376 5.49945C23.2283 5.48085 23.2143 5.4669 23.1957 5.4483C23.1864 5.439 23.1725 5.4297 23.1446 5.40645C23.1306 5.3925 23.1167 5.3832 23.0934 5.36925L18.7745 2.88201C18.6257 2.79833 18.4258 2.79833 18.277 2.88201L13.9534 5.3739C13.9534 5.3739 13.9255 5.3925 13.8976 5.41575L13.8557 5.4483C13.8557 5.4483 13.8278 5.4855 13.8046 5.5134L13.7767 5.55521C13.7767 5.55521 13.7535 5.59706 13.7395 5.63426L13.7256 5.67146C13.7163 5.71796 13.707 5.75977 13.707 5.80162V10.446L10.3875 12.3568V3.35622C10.3875 3.31437 10.3875 3.26789 10.3736 3.23069C10.3689 3.21674 10.3643 3.2028 10.3503 3.1749C10.341 3.15166 10.3317 3.12841 10.3224 3.11446C10.3131 3.09122 10.2992 3.07727 10.2806 3.05403C10.2713 3.04008 10.2573 3.02148 10.2387 3.00289C10.2294 2.99359 10.2155 2.98429 10.1876 2.96105C10.1737 2.95175 10.1597 2.9378 10.1411 2.9285L5.81749 0.441248C5.66873 0.352917 5.47346 0.352917 5.32005 0.441248L1.00105 2.92385C1.00105 2.92385 0.963859 2.95175 0.940613 2.97499L0.89412 3.00754C0.89412 3.00754 0.870878 3.04008 0.847631 3.06797L0.819735 3.10982C0.819735 3.10982 0.796492 3.16095 0.787192 3.18885L0.768596 3.23069C0.7593 3.27253 0.75 3.31437 0.75 3.36087V18.1542C0.75 18.2379 0.773246 18.3262 0.819735 18.4006C0.861578 18.4796 0.926666 18.5401 1.00105 18.5866L9.64369 23.5611C9.64369 23.5611 9.6855 23.5797 9.71805 23.5936L9.7599 23.6076C9.80175 23.6169 9.84356 23.6262 9.89006 23.6262C9.93191 23.6262 9.97376 23.6169 10.0156 23.6076L10.0574 23.5936C10.0853 23.5843 10.1132 23.575 10.1365 23.5564L18.7791 18.5866C18.9325 18.4936 19.0255 18.3309 19.0255 18.1542V13.5098L23.0934 11.1666C23.1725 11.1248 23.2329 11.0597 23.2794 10.9853C23.3213 10.9063 23.3445 10.8226 23.3445 10.7343V5.80162C23.3445 5.75977 23.3445 5.71796 23.3306 5.67146ZM18.528 7.7124L15.2086 5.80162L18.528 3.8955L21.8475 5.80162L18.528 7.7124ZM5.57108 1.4501L8.88589 3.36087L5.57108 5.27164L2.25165 3.36087L5.57108 1.4501ZM9.38798 4.22093V12.9333L7.37029 14.0956L6.06855 14.8441V6.13635L9.38798 4.22093ZM9.38798 22.2593L1.74955 17.8613V4.22093L5.06899 6.13635V15.7088C5.06899 15.7088 5.07364 15.7413 5.07829 15.7739C5.07829 15.7925 5.08294 15.8157 5.08759 15.839C5.09224 15.8576 5.10154 15.8715 5.11084 15.8994C5.12014 15.9226 5.12944 15.9412 5.13874 15.9552C5.14804 15.9738 5.1573 15.9877 5.18055 16.0203L5.21775 16.0621C5.21775 16.0621 5.241 16.0854 5.27355 16.1086L9.38798 18.4425V22.2593ZM9.89006 17.5777L6.57529 15.7041L14.2091 11.3108L17.5239 13.2215L9.89006 17.5777ZM18.026 17.8613L10.3875 22.264V18.4425L18.026 14.0816V17.8613ZM18.026 12.3568L14.7065 10.446V6.66634L18.026 8.57711V12.3568ZM22.3449 10.446L19.0255 12.3568V8.57711L22.3449 6.66634V10.446Z" fill="#15171A"/>
</g>
<defs>
<clipPath id="clip0_914_45154">
<rect width="24" height="24" fill="white"/>
</clipPath>
</defs>
</svg>
