<svg width="25" height="24" viewBox="0 0 25 24" fill="none" xmlns="http://www.w3.org/2000/svg">
<path d="M12.225 23.3625C11.85 23.3625 11.475 23.2875 11.175 23.1L1.27499 17.85C0.86249 17.625 0.71249 17.1375 0.93749 16.725C1.16249 16.3125 1.64999 16.1625 2.06249 16.3875L11.925 21.6C12.1125 21.675 12.3 21.675 12.4875 21.6L22.275 16.4625C22.6875 16.2375 23.2125 16.3875 23.4 16.8C23.625 17.2125 23.475 17.7375 23.0625 17.925L13.3125 23.0625C12.975 23.25 12.6 23.3625 12.225 23.3625ZM12.225 18.825C11.85 18.825 11.475 18.75 11.175 18.5625L1.27499 13.3125C0.86249 13.0875 0.71249 12.6 0.93749 12.1875C1.16249 11.775 1.64999 11.625 2.06249 11.85L11.925 17.0625C12.1125 17.1375 12.3 17.1375 12.4875 17.0625L22.275 11.925C22.6875 11.7 23.2125 11.85 23.4 12.2625C23.625 12.675 23.475 13.2 23.0625 13.3875L13.3125 18.5625C12.975 18.7125 12.6 18.825 12.225 18.825ZM12.225 14.25C11.8875 14.25 11.55 14.175 11.2125 13.9875L2.32499 9.30001C1.61249 8.92501 1.19999 8.21251 1.19999 7.42501C1.19999 6.63751 1.64999 5.88751 2.32499 5.55001L11.1375 0.900006C11.775 0.562506 12.525 0.562506 13.125 0.900006L22.0125 5.58751C22.725 5.96251 23.1375 6.67501 23.1375 7.46251C23.1375 8.25001 22.6875 9.00001 22.0125 9.33751L13.2375 14.025C12.9 14.175 12.5625 14.25 12.225 14.25ZM12.15 2.36251C12.075 2.36251 12 2.36251 11.925 2.40001L3.11249 7.01251C2.88749 7.12501 2.88749 7.31251 2.88749 7.42501C2.88749 7.50001 2.92499 7.72501 3.11249 7.83751L12 12.525C12.15 12.6 12.3 12.6 12.4125 12.525L21.2625 7.87501C21.4875 7.76251 21.4875 7.57501 21.4875 7.46251C21.4875 7.35001 21.45 7.16251 21.2625 7.05001L12.3375 2.40001C12.3 2.36251 12.225 2.36251 12.15 2.36251Z" fill="#161A23"/>
</svg>
