<svg width="25" height="24" viewBox="0 0 25 24" fill="none" xmlns="http://www.w3.org/2000/svg">
<path d="M16.6875 23.3625H3.18751C2.32501 23.3625 1.57501 22.65 1.57501 21.75V14.25C1.57501 13.3875 2.28751 12.6375 3.18751 12.6375H3.86251V8.25C3.86251 7.3875 4.57501 6.6375 5.47501 6.6375H6.15001V2.25C6.15001 1.3875 6.86251 0.637497 7.76251 0.637497H21.2625C22.125 0.637497 22.875 1.35 22.875 2.25V9.75C22.875 10.6125 22.1625 11.3625 21.2625 11.3625H20.5875V15.75C20.5875 16.6125 19.875 17.3625 18.975 17.3625H18.3V21.75C18.3 22.6125 17.55 23.3625 16.6875 23.3625ZM3.30001 21.675H16.6125V14.3625H3.30001V21.675ZM18.3 15.675H18.8625V8.3625H5.55001V12.675H16.725C17.5875 12.675 18.3375 13.3875 18.3375 14.2875V15.675H18.3ZM20.55 9.675H21.1125V2.3625H7.80001V6.675H18.975C19.8375 6.675 20.5875 7.3875 20.5875 8.2875V9.675H20.55Z" fill="#161A23"/>
</svg>
