<svg width="24" height="24" viewBox="0 0 24 24" fill="none" xmlns="http://www.w3.org/2000/svg">
<g clip-path="url(#clip0_501_41590)">
<path d="M21.0001 0.675049H3.00005C1.72505 0.675049 0.675049 1.72505 0.675049 3.00005V21.0001C0.675049 22.2751 1.72505 23.3251 3.00005 23.3251H21.0001C22.2751 23.3251 23.3251 22.2751 23.3251 21.0001V3.00005C23.3251 1.72505 22.2751 0.675049 21.0001 0.675049ZM21.6751 21.0001C21.6751 21.3751 21.3751 21.6751 21.0001 21.6751H3.00005C2.62505 21.6751 2.32505 21.3751 2.32505 21.0001V3.00005C2.32505 2.62505 2.62505 2.32505 3.00005 2.32505H21.0001C21.3751 2.32505 21.6751 2.62505 21.6751 3.00005V21.0001Z" fill="#161A23"/>
<path d="M16.3876 11.175H9.4126L11.3251 8.92502C11.6251 8.55002 11.5876 8.02502 11.2126 7.72502C10.8751 7.42502 10.3126 7.46252 10.0126 7.83752L6.9376 11.475C6.6751 11.775 6.6751 12.2625 6.9376 12.5625L10.0126 16.2C10.1626 16.3875 10.4251 16.5 10.6501 16.5C10.8376 16.5 11.0251 16.425 11.1751 16.3125C11.5501 16.0125 11.5876 15.4875 11.2876 15.1125L9.3751 12.8625H16.3501C16.8001 12.8625 17.1751 12.4875 17.1751 12.0375C17.2126 11.55 16.8376 11.175 16.3876 11.175Z" fill="#161A23"/>
</g>
<defs>
<clipPath id="clip0_501_41590">
<rect width="24" height="24" fill="white"/>
</clipPath>
</defs>
</svg>
