<svg width="24" height="24" viewBox="0 0 24 24" fill="none" xmlns="http://www.w3.org/2000/svg">
<path d="M11.1375 4.4625C10.05 4.425 9.00005 4.8375 8.25005 5.5875C7.46255 6.3375 7.05005 7.35 7.05005 8.475C7.05005 9.8625 7.76255 11.1375 8.92505 11.8875C8.96255 11.925 9.00005 12 9.00005 12.075V12.675C9.00005 13.725 9.86255 14.55 10.875 14.55H11.2125C12.2625 14.55 13.0875 13.6875 13.0875 12.675V12C13.0875 11.925 13.125 11.8875 13.1625 11.85C14.2875 11.1375 15 9.9 15.0375 8.55C15.075 7.5 14.6625 6.4875 13.9125 5.7C13.2 4.9125 12.225 4.4625 11.1375 4.4625ZM11.2125 12.8625H10.875C10.7625 12.8625 10.6875 12.7875 10.6875 12.675V12.375H11.4V12.6375C11.4 12.75 11.325 12.8625 11.2125 12.8625ZM12.3 10.425C12.1875 10.5 12.075 10.575 11.9625 10.6875H10.1625C10.05 10.575 9.97505 10.5 9.82505 10.425C9.15005 10.0125 8.73755 9.2625 8.73755 8.4375C8.73755 7.8 9.00005 7.2 9.45005 6.7875C9.90005 6.375 10.4625 6.1125 11.0625 6.1125C11.1 6.1125 11.1 6.1125 11.1375 6.1125C11.7375 6.1125 12.3 6.375 12.75 6.8625C13.2 7.3125 13.425 7.9125 13.3875 8.5125C13.35 9.3 12.9375 10.0125 12.3 10.425Z" fill="#161A23"/>
<path d="M20.1749 1.5H5.66245C4.16245 1.5 2.96245 2.7 2.96245 4.2V15.4125H2.88745C1.64995 15.4125 0.637451 16.425 0.637451 17.6625V19.3125C0.637451 21.075 2.06245 22.5 3.82495 22.5H15.375C15.4125 22.5 15.45 22.5 15.525 22.5C17.2875 22.5 18.7125 21.075 18.7125 19.3125V8.5875H21.15C22.3875 8.5875 23.4 7.575 23.4 6.3375V4.6875C23.3625 2.925 21.9375 1.5 20.1749 1.5ZM3.82495 20.8125C2.99995 20.8125 2.32495 20.1375 2.32495 19.3125V17.6625C2.32495 17.3625 2.58745 17.1 2.88745 17.1H11.775C12.075 17.1 12.3375 17.3625 12.3375 17.6625V19.3125C12.3375 19.8375 12.4875 20.3625 12.7125 20.8125H3.82495ZM16.9874 19.3125C16.9874 20.1375 16.3125 20.8125 15.4875 20.8125C14.6625 20.8125 13.9875 20.1375 13.9875 19.3125V17.6625C13.9875 16.425 12.975 15.4125 11.7375 15.4125H4.61245V4.2375C4.61245 3.675 5.06245 3.225 5.62495 3.225H17.325C17.1 3.675 16.95 4.1625 16.95 4.725V19.3125H16.9874ZM21.6749 6.3375C21.6749 6.6375 21.4125 6.9 21.1124 6.9H18.6749V4.725C18.6749 3.9 19.35 3.225 20.1749 3.225C21 3.225 21.6749 3.9 21.6749 4.725V6.3375Z" fill="#161A23"/>
</svg>
