<svg width="24" height="24" viewBox="0 0 24 24" fill="none" xmlns="http://www.w3.org/2000/svg">
<g clip-path="url(#clip0_501_45493)">
<path d="M21.375 11.175H18.075V2.62495C18.075 1.53745 17.175 0.637451 16.0875 0.637451H7.87501C6.78751 0.637451 5.88751 1.53745 5.88751 2.62495V11.175H2.62501C1.53751 11.175 0.637512 12.075 0.637512 13.1625V21.4125C0.637512 22.5 1.53751 23.4 2.62501 23.4H21.375C22.4625 23.4 23.3625 22.5 23.3625 21.4125V13.125C23.3625 12.0375 22.4625 11.175 21.375 11.175ZM7.61251 2.62495C7.61251 2.47495 7.72501 2.32495 7.91251 2.32495H16.1625C16.3125 2.32495 16.4625 2.43745 16.4625 2.62495V11.175H12H7.61251V2.62495ZM2.36251 21.375V13.125C2.36251 12.975 2.47501 12.825 2.66251 12.825H11.2125V21.6375H2.62501C2.47501 21.675 2.36251 21.525 2.36251 21.375ZM21.675 21.375C21.675 21.525 21.5625 21.6749 21.375 21.6749H12.8625V12.8625H17.25H21.375C21.525 12.8625 21.675 12.975 21.675 13.1625V21.375Z" fill="#161A23"/>
<path d="M13.725 9.07493C13.875 9.33743 14.175 9.48743 14.4375 9.48743C14.5875 9.48743 14.7375 9.44993 14.85 9.37493C15.2625 9.14993 15.375 8.62493 15.15 8.21243L12.675 4.08743C12.525 3.82493 12.2625 3.67493 11.9625 3.67493C11.6625 3.67493 11.4 3.82493 11.25 4.08743L8.775 8.21243C8.55 8.62493 8.6625 9.11243 9.075 9.37493C9.4875 9.59993 9.975 9.48743 10.2375 9.07493L11.9625 6.14993L13.725 9.07493Z" fill="#161A23"/>
<path d="M7.05001 13.6124H4.83751C4.38751 13.6124 3.97501 13.9874 3.97501 14.4749V17.2499V20.0624C3.97501 20.5124 4.35001 20.9249 4.83751 20.9249H7.05001C8.10001 20.9249 8.96251 20.0624 8.96251 19.0124V18.3374C8.96251 17.9624 8.85001 17.5874 8.62501 17.2874C8.81251 16.9874 8.96251 16.6124 8.96251 16.2374V15.5624C8.96251 14.4749 8.10001 13.6124 7.05001 13.6124ZM5.70001 15.2999H7.08751C7.20001 15.2999 7.31251 15.4124 7.31251 15.5249V16.1999C7.31251 16.3124 7.20001 16.4249 7.08751 16.4249H5.70001V15.2999ZM7.27501 18.9749C7.27501 19.0874 7.16251 19.1999 7.05001 19.1999H5.66251V18.0749H7.05001C7.16251 18.0749 7.27501 18.1874 7.27501 18.2999V18.9749Z" fill="#161A23"/>
<path d="M18.6 18.3375C18.3 18.6375 17.925 18.7875 17.5125 18.7875C16.65 18.7875 15.9375 18.075 15.9375 17.2125C15.9375 16.35 16.65 15.6375 17.5125 15.6375C17.8875 15.6375 18.225 15.75 18.4875 15.975C18.8625 16.275 19.3875 16.2 19.6875 15.825C19.9875 15.45 19.9125 14.925 19.5375 14.625C18.975 14.175 18.2625 13.9125 17.5125 13.9125C15.7125 13.9125 14.25 15.375 14.25 17.175C14.25 18.975 15.7125 20.4375 17.5125 20.4375C18.375 20.4375 19.2 20.1 19.8 19.5C20.1375 19.1625 20.1375 18.6375 19.8 18.3C19.4625 17.9625 18.9375 18.0375 18.6 18.3375Z" fill="#161A23"/>
</g>
<defs>
<clipPath id="clip0_501_45493">
<rect width="24" height="24" fill="white"/>
</clipPath>
</defs>
</svg>
