<svg width="24" height="24" viewBox="0 0 24 24" fill="none" xmlns="http://www.w3.org/2000/svg">
<path d="M21.45 3.52502H13.2C12.75 3.52502 12.3375 3.67502 12 3.90002C11.6625 3.67502 11.25 3.52502 10.8 3.52502H2.54999C1.49999 3.52502 0.674988 4.38752 0.674988 5.40002V17.625C0.674988 18.675 1.53749 19.5 2.54999 19.5H11.175V19.6125C11.175 20.0625 11.55 20.475 12.0375 20.475C12.4875 20.475 12.9 20.1 12.9 19.6125V19.5H21.525C22.575 19.5 23.4 18.6375 23.4 17.625V5.40002C23.3625 4.35002 22.5 3.52502 21.45 3.52502ZM2.54999 17.85C2.43749 17.85 2.36249 17.775 2.36249 17.6625V5.40002C2.36249 5.28752 2.43749 5.21252 2.54999 5.21252H10.8375C11.025 5.21252 11.175 5.36252 11.175 5.55002V17.85H2.54999ZM21.675 17.625C21.675 17.7375 21.6 17.8125 21.4875 17.8125H12.8625V5.55002C12.8625 5.36252 13.0125 5.21252 13.2 5.21252H21.4875C21.6 5.21252 21.675 5.28752 21.675 5.40002V17.625Z" fill="#161A23"/>
<path d="M5.3625 8.88748H8.1375C8.5875 8.88748 9 8.51248 9 8.02498C9 7.53748 8.625 7.16248 8.1375 7.16248H5.3625C4.9125 7.16248 4.5 7.53748 4.5 8.02498C4.5 8.51248 4.875 8.88748 5.3625 8.88748Z" fill="#161A23"/>
<path d="M15.75 8.88748H18.525C18.975 8.88748 19.3875 8.51248 19.3875 8.02498C19.3875 7.53748 19.0125 7.16248 18.525 7.16248H15.75C15.3 7.16248 14.8875 7.53748 14.8875 8.02498C14.8875 8.51248 15.3 8.88748 15.75 8.88748Z" fill="#161A23"/>
<path d="M18.6 10.275H15.825C15.375 10.275 14.9625 10.65 14.9625 11.1375C14.9625 11.625 15.3375 12 15.825 12H18.6C19.05 12 19.4625 11.625 19.4625 11.1375C19.4625 10.65 19.05 10.275 18.6 10.275Z" fill="#161A23"/>
<path d="M8.17498 10.275H5.39998C4.94998 10.275 4.53748 10.65 4.53748 11.1375C4.53748 11.625 4.91248 12 5.39998 12H8.17498C8.62498 12 9.03748 11.625 9.03748 11.1375C9.03748 10.65 8.66248 10.275 8.17498 10.275Z" fill="#161A23"/>
<path d="M8.17498 13.5751H5.39998C4.94998 13.5751 4.53748 13.9501 4.53748 14.4376C4.53748 14.9251 4.91248 15.3001 5.39998 15.3001H8.17498C8.62498 15.3001 9.03748 14.9251 9.03748 14.4376C9.03748 13.9501 8.66248 13.5751 8.17498 13.5751Z" fill="#161A23"/>
<path d="M18.6 13.5751H15.825C15.375 13.5751 14.9625 13.9501 14.9625 14.4376C14.9625 14.9251 15.3375 15.3001 15.825 15.3001H18.6C19.05 15.3001 19.4625 14.9251 19.4625 14.4376C19.4625 13.9501 19.05 13.5751 18.6 13.5751Z" fill="#161A23"/>
</svg>
