<svg width="24" height="24" viewBox="0 0 24 24" fill="none" xmlns="http://www.w3.org/2000/svg">
<path d="M18.15 15.2251H5.36252C4.91252 15.2251 4.50002 15.6001 4.50002 16.0876C4.50002 16.5751 4.87502 16.9501 5.36252 16.9501H18.1875C18.6375 16.9501 19.05 16.5751 19.05 16.0876C19.05 15.6001 18.6375 15.2251 18.15 15.2251Z" fill="#161A23"/>
<path d="M18.15 8.17505H14.625C14.175 8.17505 13.7625 8.55005 13.7625 9.03755C13.7625 9.52505 14.1375 9.90005 14.625 9.90005H18.15C18.6 9.90005 19.0125 9.52505 19.0125 9.03755C19.0125 8.55005 18.6375 8.17505 18.15 8.17505Z" fill="#161A23"/>
<path d="M18.15 11.7H14.625C14.175 11.7 13.7625 12.075 13.7625 12.5625C13.7625 13.0125 14.1375 13.425 14.625 13.425H18.15C18.6 13.425 19.0125 13.05 19.0125 12.5625C19.0125 12.075 18.6375 11.7 18.15 11.7Z" fill="#161A23"/>
<path d="M21 4.125H3.00001C1.72501 4.125 0.637512 5.175 0.637512 6.4875V17.55C0.675012 18.825 1.72501 19.875 3.00001 19.875H21C22.275 19.875 23.3625 18.825 23.3625 17.5125V6.4875C23.3625 5.175 22.275 4.125 21 4.125ZM21.675 17.5125C21.675 17.8875 21.375 18.1875 21 18.1875H3.00001C2.62501 18.1875 2.32501 17.8875 2.32501 17.5125V6.4875C2.32501 6.1125 2.62501 5.8125 3.00001 5.8125H21C21.375 5.8125 21.675 6.1125 21.675 6.4875V17.5125Z" fill="#161A23"/>
<path d="M6.86251 13.3875C8.32501 13.3875 9.52501 12.1875 9.52501 10.725C9.52501 9.2625 8.32501 8.0625 6.86251 8.0625C5.40001 8.0625 4.20001 9.2625 4.20001 10.725C4.23751 12.225 5.40001 13.3875 6.86251 13.3875ZM6.86251 9.7875C7.38751 9.7875 7.83751 10.2375 7.83751 10.7625C7.83751 11.2875 7.38751 11.7375 6.86251 11.7375C6.33751 11.7375 5.88751 11.2875 5.88751 10.7625C5.92501 10.2 6.33751 9.7875 6.86251 9.7875Z" fill="#161A23"/>
</svg>
