<svg width="24" height="24" viewBox="0 0 24 24" fill="none" xmlns="http://www.w3.org/2000/svg">
<g clip-path="url(#clip0_501_43564)">
<path d="M12 23.325C9.11249 23.325 6.18749 22.2375 3.97499 20.025C1.83749 17.8875 0.674988 15.0375 0.674988 12C0.674988 8.96249 1.83749 6.11249 4.01249 3.97499C6.11249 1.83749 8.96249 0.674988 12 0.674988C15.0375 0.674988 17.8875 1.83749 20.025 4.01249C24.45 8.43749 24.45 15.6375 20.025 20.0625C17.8125 22.2375 14.8875 23.325 12 23.325ZM7.94999 20.775C10.5 21.9375 13.4625 21.9375 16.05 20.775L12 16.725L7.94999 20.775ZM4.08749 17.55C4.38749 18 4.76249 18.4125 5.17499 18.825C5.58749 19.2375 5.99999 19.575 6.44999 19.9125L10.5375 15.825C10.0125 15.6375 9.52499 15.3 9.11249 14.8875C8.69999 14.475 8.39999 13.9875 8.17499 13.4625L4.08749 17.55ZM13.4625 15.825L17.55 19.9125C18 19.6125 18.4125 19.2375 18.825 18.825C19.2375 18.4125 19.575 18 19.9125 17.55L15.825 13.4625C15.6375 13.9875 15.3 14.475 14.8875 14.8875C14.475 15.3 13.9875 15.6 13.4625 15.825ZM3.22499 7.94999C2.66249 9.18749 2.32499 10.575 2.32499 12C2.32499 13.425 2.62499 14.775 3.22499 16.05L7.27499 12L3.22499 7.94999ZM16.725 12L20.775 16.05C21.9375 13.5 21.9375 10.5375 20.775 7.94999L16.725 12ZM12 9.59999C11.3625 9.59999 10.7625 9.86249 10.3125 10.3125C9.86249 10.7625 9.59999 11.3625 9.59999 12C9.59999 12.6375 9.86249 13.2375 10.3125 13.6875C10.7625 14.1375 11.3625 14.4 12 14.4C12.6375 14.4 13.2375 14.1375 13.6875 13.6875C14.1375 13.2375 14.4 12.6375 14.4 12C14.4 11.3625 14.1375 10.7625 13.6875 10.3125C13.2375 9.86249 12.6375 9.59999 12 9.59999ZM4.08749 6.44999L8.17499 10.5375C8.36249 10.0125 8.69999 9.52499 9.11249 9.11249C9.52499 8.69999 10.0125 8.39999 10.5375 8.17499L6.44999 4.08749C5.99999 4.38749 5.58749 4.76249 5.17499 5.17499C4.76249 5.58749 4.42499 5.99999 4.08749 6.44999ZM14.8875 9.11249C15.3 9.52499 15.6 10.0125 15.825 10.5375L19.9125 6.44999C19.6125 5.99999 19.2375 5.58749 18.825 5.17499C18.4125 4.76249 18 4.42499 17.55 4.08749L13.4625 8.17499C13.9875 8.39999 14.475 8.69999 14.8875 9.11249ZM7.94999 3.22499L12 7.27499L16.05 3.22499C14.8125 2.66249 13.425 2.32499 12 2.32499C10.575 2.32499 9.22499 2.66249 7.94999 3.22499Z" fill="#161A23"/>
</g>
<defs>
<clipPath id="clip0_501_43564">
<rect width="24" height="24" fill="white"/>
</clipPath>
</defs>
</svg>
