<svg width="24" height="24" viewBox="0 0 24 24" fill="none" xmlns="http://www.w3.org/2000/svg">
<path d="M20.7001 9.33749C20.7001 4.53749 16.8001 0.674988 12 0.674988C7.20005 0.674988 3.30005 4.53749 3.30005 9.33749C3.30005 12.5625 5.10005 15.525 7.91255 17.025V21.0375C7.91255 22.3125 8.92505 23.325 10.2 23.325H13.7626C15.0375 23.325 16.05 22.3125 16.05 21.0375V17.025C18.9001 15.525 20.7001 12.5625 20.7001 9.33749ZM14.4001 21.0375C14.4001 21.375 14.1375 21.6375 13.8 21.6375H10.2375C9.90005 21.6375 9.63755 21.375 9.63755 21.0375V17.325H14.4001V21.0375ZM15.0375 15.675H8.96255C6.56255 14.5125 4.98755 12.0375 4.98755 9.37499C4.98755 5.51249 8.13755 2.36249 12 2.36249C15.8625 2.36249 19.0126 5.51249 19.0126 9.37499C19.0126 12.0375 17.4375 14.5125 15.0375 15.675Z" fill="#161A23"/>
<path d="M12.0001 3.89999C11.5501 3.89999 11.1376 4.27499 11.1376 4.76249V9.82499C11.1376 10.275 11.5126 10.6875 12.0001 10.6875C12.4501 10.6875 12.8626 10.3125 12.8626 9.82499V4.72499C12.8626 4.27499 12.4501 3.89999 12.0001 3.89999Z" fill="#161A23"/>
<path d="M12.0001 11.775C11.5501 11.775 11.1376 12.15 11.1376 12.6375V12.825C11.1376 13.275 11.5126 13.6875 12.0001 13.6875C12.4501 13.6875 12.8626 13.3125 12.8626 12.825V12.6375C12.8626 12.15 12.4501 11.775 12.0001 11.775Z" fill="#161A23"/>
</svg>
