<svg width="24" height="24" viewBox="0 0 24 24" fill="none" xmlns="http://www.w3.org/2000/svg">
<path d="M21.3 17.7H20.7V16.575C20.7 15.0375 19.4625 13.8 17.925 13.8C16.3875 13.8 15.15 15.0375 15.15 16.575V17.7H14.55C14.1 17.7 13.725 18.075 13.725 18.525V22.5C13.725 22.95 14.1 23.325 14.55 23.325H21.3C21.75 23.325 22.125 22.95 22.125 22.5V18.5625C22.1625 18.075 21.7875 17.7 21.3 17.7ZM16.8375 16.575C16.8375 15.975 17.325 15.4875 17.925 15.4875C18.525 15.4875 19.0125 15.975 19.0125 16.575V17.7H16.8375V16.575ZM20.475 21.675H15.375V19.425H20.4375V21.675H20.475Z" fill="#161A23"/>
<path d="M15.225 8.28749H18.4875C18.8625 8.28749 19.275 8.43749 19.575 8.69999C20.025 9.11249 20.25 9.71249 20.175 10.35C20.1 10.8 20.4 11.25 20.8875 11.325C20.925 11.325 20.9625 11.325 21.0375 11.325C21.45 11.325 21.7875 11.025 21.8625 10.6125C22.05 9.41249 21.6 8.17499 20.7 7.42499C20.0625 6.89999 19.3125 6.59999 18.525 6.59999H15.375V4.57499C15.375 3.07499 14.8875 1.98749 13.9875 1.31249C13.425 0.899988 12.7125 0.674988 11.8875 0.674988C11.1375 0.674988 10.575 0.862488 10.575 0.862488C10.05 1.01249 9.6375 1.53749 9.6375 2.09999V5.32499C9.6375 6.52499 8.7 7.23749 7.95 7.61249C7.8 7.34999 7.5375 7.16249 7.2 7.16249H3.825C2.7375 7.16249 1.875 8.06249 1.875 9.11249V18.45C1.875 19.5375 2.775 20.4 3.825 20.4H7.2C7.5 20.4 7.8 20.2125 7.95 19.95C8.325 20.0625 8.7 20.1375 9.075 20.1375H10.95C11.4 20.1375 11.775 19.7625 11.775 19.3125C11.775 18.8625 11.4 18.4875 10.95 18.4875H9.075C8.7 18.4875 8.3625 18.375 8.0625 18.15V9.41249C9.45 8.88749 11.325 7.57499 11.325 5.28749V2.39999C11.475 2.36249 11.6625 2.36249 11.8875 2.36249C12.3375 2.36249 12.7125 2.47499 13.0125 2.66249C13.4625 2.99999 13.725 3.63749 13.725 4.57499V6.71249C13.65 7.57499 14.3625 8.28749 15.225 8.28749ZM6.3375 18.7125H3.825C3.675 18.7125 3.525 18.6 3.525 18.4125V9.11249C3.525 8.96249 3.6375 8.81249 3.825 8.81249H6.3375V18.7125Z" fill="#161A23"/>
</svg>
