<svg width="24" height="24" viewBox="0 0 24 24" fill="none" xmlns="http://www.w3.org/2000/svg">
<path d="M21.675 8.62505C21 8.06255 20.175 7.76255 19.3125 7.76255H15.75V5.43755C15.75 3.82505 15.2625 2.62505 14.25 1.91255C13.6125 1.46255 12.8625 1.23755 11.9625 1.23755C11.1375 1.23755 10.5375 1.42505 10.5375 1.42505C9.97499 1.57505 9.59999 2.13755 9.59999 2.70005V6.26255C9.59999 7.68755 8.43749 8.51255 7.61249 8.92505C7.49999 8.62505 7.19999 8.40005 6.82499 8.40005H2.99999C1.91249 8.40005 1.04999 9.30005 1.04999 10.35V20.8876C1.04999 21.975 1.94999 22.8375 2.99999 22.8375H6.82499C7.16249 22.8375 7.46249 22.6125 7.61249 22.35C8.02499 22.5 8.47499 22.6125 8.92499 22.6125H17.625C19.9875 22.6125 21.5625 21.3 21.825 19.125L22.95 12.15C23.1375 10.8 22.65 9.48755 21.675 8.62505ZM5.99999 21.1125H2.99999C2.84999 21.1125 2.69999 21 2.69999 20.8125V10.3125C2.69999 10.1625 2.81249 10.0125 2.99999 10.0125H5.99999V21.1125ZM21.2625 11.8125L20.1375 18.8251C19.9125 20.5126 18.6375 20.85 17.625 20.85H8.92499C8.47499 20.85 8.06249 20.7001 7.68749 20.4V10.725C9.18749 10.1625 11.2875 8.73755 11.2875 6.26255V2.96255C11.4375 2.92505 11.7 2.88755 11.9625 2.88755C12.4875 2.88755 12.9 3.00005 13.2375 3.26255C13.7625 3.67505 14.0625 4.38755 14.0625 5.43755V7.91255C14.0625 8.77505 14.7375 9.45005 15.6 9.45005H19.3125C19.7625 9.45005 20.2125 9.63755 20.5875 9.93755C21.1125 10.3875 21.375 11.1 21.2625 11.8125Z" fill="#161A23"/>
</svg>
