<svg width="24" height="24" viewBox="0 0 24 24" fill="none" xmlns="http://www.w3.org/2000/svg">
<path d="M8.17501 10.8375C8.62501 10.8375 9.00001 10.4625 9.00001 10.0125C9.00001 9.5625 8.62501 9.1875 8.17501 9.1875H4.05001C3.60001 9.1875 3.22501 9.5625 3.22501 10.0125C3.22501 10.4625 3.60001 10.8375 4.05001 10.8375H8.17501Z" fill="#161A23"/>
<path d="M19.9875 9.14996H15.8625C15.4125 9.14996 15.0375 9.52496 15.0375 9.97496C15.0375 10.425 15.4125 10.8 15.8625 10.8H19.9875C20.4375 10.8 20.8125 10.425 20.8125 9.97496C20.8125 9.52496 20.4375 9.14996 19.9875 9.14996Z" fill="#161A23"/>
<path d="M11.9625 6.48749C12.4125 6.48749 12.7875 6.11249 12.7875 5.66249V1.49999C12.7875 1.04999 12.4125 0.674988 11.9625 0.674988C11.5125 0.674988 11.1375 1.04999 11.1375 1.49999V5.62499C11.1 6.11249 11.475 6.48749 11.9625 6.48749Z" fill="#161A23"/>
<path d="M15.075 7.98749C15.3 7.98749 15.525 7.91249 15.675 7.72499L18.6 4.79999C18.9375 4.46249 18.9375 3.93749 18.6 3.59999C18.2625 3.26249 17.7375 3.26249 17.4 3.59999L14.475 6.52499C14.1375 6.86249 14.1375 7.38749 14.475 7.72499C14.6625 7.87499 14.85 7.98749 15.075 7.98749Z" fill="#161A23"/>
<path d="M8.32501 7.72499C8.47501 7.87499 8.70001 7.98749 8.92501 7.98749C9.15001 7.98749 9.37501 7.91249 9.52501 7.72499C9.86251 7.38749 9.86251 6.86249 9.52501 6.52499L6.60001 3.59999C6.26251 3.26249 5.73751 3.26249 5.40001 3.59999C5.06251 3.93749 5.06251 4.46249 5.40001 4.79999L8.32501 7.72499Z" fill="#161A23"/>
<path d="M18.4875 13.125C17.9625 12.7125 17.3625 12.45 16.6875 12.45H14.5125V11.1C14.5125 9.59998 13.875 8.84998 13.3875 8.43748C12.9375 8.09998 12.3375 7.91248 11.6625 7.91248C11.0625 7.91248 10.6125 8.06248 10.6125 8.06248C10.125 8.21248 9.78749 8.66248 9.78749 9.18748V11.625C9.78749 12.3375 9.26249 12.825 8.77499 13.0875C8.62499 12.9 8.39999 12.7875 8.13749 12.7875H5.84999C4.76249 12.7875 3.89999 13.6875 3.89999 14.7375V21.375C3.89999 22.4625 4.79999 23.325 5.84999 23.325H8.13749C8.39999 23.325 8.62499 23.2125 8.77499 23.025C9.03749 23.1 9.29999 23.1375 9.56249 23.1375H15.525C17.25 23.1375 18.4875 22.125 18.675 20.5125L19.4625 15.75C19.6125 14.775 19.2375 13.7625 18.4875 13.125ZM7.31249 21.675H5.88749C5.73749 21.675 5.58749 21.5625 5.58749 21.375V14.85C5.58749 14.7 5.69999 14.55 5.88749 14.55H7.31249V21.675ZM17.775 15.4875L16.9875 20.325C16.95 20.625 16.8375 21.4875 15.525 21.4875H9.56249C9.37499 21.4875 9.14999 21.4125 8.99999 21.3V14.925C10.0875 14.475 11.475 13.425 11.475 11.6625V9.63748C11.55 9.63748 11.625 9.63748 11.7 9.63748C12 9.63748 12.225 9.71248 12.4125 9.82498C12.7125 10.05 12.8625 10.4625 12.8625 11.1V12.5625C12.8625 13.425 13.575 14.1375 14.4375 14.1375H16.725C16.9875 14.1375 17.2125 14.25 17.4375 14.4C17.7 14.6625 17.85 15.075 17.775 15.4875Z" fill="#161A23"/>
</svg>
