<svg width="24" height="24" viewBox="0 0 24 24" fill="none" xmlns="http://www.w3.org/2000/svg">
<g clip-path="url(#clip0_914_45171)">
<path d="M19.875 0.375H4.125C2.055 0.375 0.375 2.055 0.375 4.125V19.875C0.375 21.945 2.055 23.625 4.125 23.625H19.875C21.945 23.625 23.625 21.945 23.625 19.875V4.125C23.625 2.055 21.945 0.375 19.875 0.375ZM11.82 5.26125C12.33 4.7475 13.1625 4.7475 13.6763 5.26125L17.2875 8.9175C17.8012 9.435 17.8088 10.275 17.295 10.7925C16.7812 11.31 15.9487 11.31 15.4387 10.7925L11.82 7.13625C11.3063 6.6225 11.3063 5.77875 11.82 5.26125ZM12.4725 18.7388C11.9587 19.2525 11.1263 19.2525 10.6163 18.7388L6.9975 15.0825C6.48375 14.565 6.48375 13.725 6.9975 13.2075C7.5075 12.69 8.34 12.69 8.85375 13.2075L12.4725 16.8638C12.9825 17.3813 12.9825 18.2213 12.4725 18.7388ZM17.5275 17.4412C17.0175 17.9587 16.1813 17.9587 15.6713 17.4412L6.7575 8.4375C6.2475 7.91625 6.2475 7.08 6.7575 6.5625C7.27125 6.045 8.10375 6.045 8.61375 6.5625L17.5275 15.5662C18.0375 16.0837 18.0375 16.9237 17.5275 17.4412Z" fill="#15171A"/>
</g>
<defs>
<clipPath id="clip0_914_45171">
<rect width="24" height="24" fill="white"/>
</clipPath>
</defs>
</svg>
