<svg width="24" height="24" viewBox="0 0 24 24" fill="none" xmlns="http://www.w3.org/2000/svg">
<path d="M3.26245 11.175H1.49995C1.04995 11.175 0.637451 11.55 0.637451 12.0375C0.637451 12.4875 1.01245 12.9 1.49995 12.9H3.26245C3.71245 12.9 4.12495 12.525 4.12495 12.0375C4.08745 11.55 3.71245 11.175 3.26245 11.175Z" fill="#161A23"/>
<path d="M12.8625 11.175H11.1C10.65 11.175 10.2375 11.55 10.2375 12.0375C10.2375 12.4875 10.6125 12.9 11.1 12.9H12.8625C13.3125 12.9 13.725 12.525 13.725 12.0375C13.725 11.55 13.35 11.175 12.8625 11.175Z" fill="#161A23"/>
<path d="M22.5 11.175H20.7375C20.2875 11.175 19.875 11.55 19.875 12.0375C19.875 12.4875 20.25 12.9 20.7375 12.9H22.5C22.95 12.9 23.3625 12.525 23.3625 12.0375C23.3625 11.55 22.95 11.175 22.5 11.175Z" fill="#161A23"/>
</svg>
