<svg width="24" height="24" viewBox="0 0 24 24" fill="none" xmlns="http://www.w3.org/2000/svg">
<path d="M1.42599 15.048H0.75V18.9072H3.04312V18.2852H1.42599V15.048Z" fill="#15171A"/>
<path d="M3.8196 15.7765C4.03084 15.7765 4.20566 15.6017 4.20566 15.3846C4.20566 15.1676 4.03084 15 3.8196 15C3.59816 15 3.42334 15.169 3.42334 15.3861C3.42334 15.6031 3.59962 15.7765 3.8196 15.7765ZM3.4991 18.9088H4.14304V16.2981H3.4991V18.9088Z" fill="#15171A"/>
<path d="M5.45303 18.9074V17.503C5.45303 17.0805 5.69487 16.8051 6.09259 16.8051C6.42623 16.8051 6.64185 17.0164 6.64185 17.4549V18.9074H7.28577V17.3005C7.28577 16.6245 6.94778 16.218 6.2922 16.218C5.93817 16.218 5.62204 16.371 5.45884 16.6361L5.40495 16.2981H4.80762V18.9089H5.45157L5.45303 18.9074Z" fill="#15171A"/>
<path d="M9.08652 18.9773C9.76688 18.9773 10.2433 18.635 10.354 18.0625H9.75668C9.68239 18.3101 9.45072 18.4485 9.09526 18.4485C8.66693 18.4485 8.42509 18.2154 8.37702 17.7565L10.3409 17.7506V17.5554C10.3409 16.741 9.84409 16.218 9.06173 16.218C8.27941 16.218 7.76221 16.7833 7.76221 17.602C7.76221 18.4208 8.30708 18.9759 9.08359 18.9759L9.08652 18.9773ZM9.07051 16.7483C9.45657 16.7483 9.70422 16.9858 9.70422 17.3457H8.39449C8.45716 16.9552 8.69026 16.7483 9.07051 16.7483Z" fill="#15171A"/>
<path d="M11.1804 15.7765C11.3917 15.7765 11.5665 15.6017 11.5665 15.3846C11.5665 15.1676 11.3917 15 11.1804 15C10.959 15 10.7856 15.169 10.7856 15.3861C10.7856 15.6031 10.9575 15.7765 11.1804 15.7765ZM10.857 18.9088H11.501V16.2981H10.857V18.9088Z" fill="#15171A"/>
<path d="M12.0146 17.5991C12.0146 18.4281 12.5318 18.9774 13.3244 18.9774C14.0048 18.9774 14.5132 18.5593 14.5919 17.9517H13.9421C13.8736 18.2373 13.6464 18.3961 13.3244 18.3961C12.9121 18.3961 12.6586 18.0901 12.6586 17.5991C12.6586 17.1082 12.934 16.7964 13.3448 16.7964C13.6507 16.7964 13.8678 16.9494 13.9421 17.2466H14.5861C14.5176 16.6172 14.031 16.2209 13.3186 16.2209C12.5493 16.2209 12.0146 16.7921 12.0146 17.5991Z" fill="#15171A"/>
<path d="M14.918 17.5992C14.918 18.4136 15.5036 18.973 16.3137 18.973C17.1237 18.973 17.7079 18.4136 17.7079 17.5992C17.7079 16.7848 17.1223 16.2253 16.3137 16.2253C15.5066 16.2253 14.918 16.7848 14.918 17.5992ZM15.5634 17.5992C15.5634 17.1228 15.8693 16.8022 16.3137 16.8022C16.758 16.8022 17.0639 17.1242 17.0639 17.5992C17.0639 18.0741 16.758 18.3961 16.3137 18.3961C15.8693 18.3961 15.5634 18.0741 15.5634 17.5992Z" fill="#15171A"/>
<path d="M18.8607 18.9074V17.503C18.8607 17.0805 19.1026 16.8051 19.5003 16.8051C19.8339 16.8051 20.0495 17.0164 20.0495 17.4549V18.9074H20.6935V17.3005C20.6935 16.6245 20.3555 16.218 19.6999 16.218C19.3459 16.218 19.0297 16.371 18.8666 16.6361L18.8127 16.2981H18.2153V18.9089H18.8593L18.8607 18.9074Z" fill="#15171A"/>
<path d="M23.2499 18.1222C23.2499 18.6496 22.8012 18.9788 22.1573 18.9788C21.5133 18.9788 21.0967 18.6292 21.0952 18.1193H21.7056C21.71 18.3466 21.8805 18.4893 22.1748 18.4893C22.469 18.4893 22.6395 18.3669 22.6395 18.1775C22.6395 18.045 22.5725 17.9503 22.3394 17.8978L21.8688 17.7856C21.3997 17.6807 21.1724 17.4578 21.1724 17.0412C21.1724 16.5284 21.6036 16.2209 22.2068 16.2209C22.8099 16.2209 23.1873 16.5604 23.1931 17.0674H22.5812C22.5783 16.846 22.4283 16.7032 22.1806 16.7032C21.9329 16.7032 21.7799 16.8197 21.7799 17.0135C21.7799 17.1621 21.8979 17.2553 22.118 17.3092L22.5885 17.4214C22.9935 17.5132 23.215 17.6924 23.2441 18.0362L23.247 18.1236L23.2499 18.1222Z" fill="#15171A"/>
<path d="M14.8005 11.7863C15.0665 11.5176 15.0665 11.0799 14.8005 10.8112L10.1647 6.12791C9.89873 5.85922 9.46541 5.85922 9.19946 6.12791C8.93351 6.39659 8.93351 6.83201 9.19946 7.10302L13.8353 11.7863C14.1013 12.055 14.5346 12.055 14.8005 11.7863Z" fill="#15171A"/>
<path d="M14.677 8.32818C14.943 8.05953 14.943 7.62175 14.677 7.35307L12.797 5.45152C12.5311 5.18283 12.0977 5.18283 11.8318 5.45152C11.5658 5.72017 11.5658 6.15794 11.8318 6.42659L13.7141 8.32818C13.98 8.59687 14.4134 8.59687 14.6794 8.32818H14.677Z" fill="#15171A"/>
<path d="M12.1715 12.4602C12.4375 12.1915 12.4375 11.7537 12.1715 11.4851L10.2892 9.58347C10.0233 9.31479 9.58995 9.31479 9.324 9.58347C9.05801 9.85212 9.05801 10.2899 9.324 10.5586L11.2063 12.4602C11.4723 12.7288 11.9056 12.7288 12.1715 12.4602Z" fill="#15171A"/>
</svg>
