<svg width="24" height="24" viewBox="0 0 24 24" fill="none" xmlns="http://www.w3.org/2000/svg">
<path d="M20.8207 20.8785C21.655 20.0357 21.655 18.6625 20.8207 17.8197L6.27851 3.12857C5.44425 2.28576 4.08499 2.28576 3.2507 3.12857C2.41643 3.97136 2.41643 5.3373 3.2507 6.18739L17.7929 20.8785C18.6272 21.7213 19.9865 21.7213 20.8207 20.8785Z" fill="#15171A"/>
<path d="M20.4318 10.031C21.2661 9.18821 21.2661 7.815 20.4318 6.97219L14.5344 1.00711C13.7001 0.164297 12.3408 0.164297 11.5065 1.00711C10.6723 1.84992 10.6723 3.22312 11.5065 4.06594L17.4112 10.031C18.2455 10.8738 19.6047 10.8738 20.439 10.031H20.4318Z" fill="#15171A"/>
<path d="M12.5713 22.9931C13.4056 22.1503 13.4056 20.777 12.5713 19.9342L6.66671 13.9691C5.83245 13.1263 4.47315 13.1263 3.63889 13.9691C2.80462 14.812 2.80462 16.1852 3.63889 17.028L9.54349 22.9931C10.3778 23.8359 11.7371 23.8359 12.5713 22.9931Z" fill="#15171A"/>
</svg>
