<svg width="24" height="24" viewBox="0 0 24 24" fill="none" xmlns="http://www.w3.org/2000/svg">
<path d="M5.9228 10.4158H5.37451V13.5461H7.23451V13.0415H5.9228V10.4158Z" fill="#15171A"/>
<path d="M7.86393 11.0064C8.03527 11.0064 8.17706 10.8646 8.17706 10.6885C8.17706 10.5125 8.03527 10.3766 7.86393 10.3766C7.68431 10.3766 7.54248 10.5136 7.54248 10.6897C7.54248 10.8658 7.68547 11.0064 7.86393 11.0064ZM7.60394 13.5471H8.12624V11.4295H7.60394V13.5471Z" fill="#15171A"/>
<path d="M9.18952 13.546V12.4069C9.18952 12.0642 9.38568 11.8409 9.70825 11.8409C9.97889 11.8409 10.1538 12.0122 10.1538 12.3679V13.546H10.6761V12.2426C10.6761 11.6943 10.4019 11.3646 9.87014 11.3646C9.583 11.3646 9.32658 11.4887 9.19424 11.7038L9.15052 11.4296H8.66602V13.5472H9.18832L9.18952 13.546Z" fill="#15171A"/>
<path d="M12.1367 13.6028C12.6885 13.6028 13.0749 13.3251 13.1647 12.8606H12.6802C12.62 13.0616 12.4321 13.1738 12.1438 13.1738C11.7963 13.1738 11.6002 12.9847 11.5612 12.6125L13.1541 12.6078V12.4494C13.1541 11.7889 12.7512 11.3646 12.1166 11.3646C11.482 11.3646 11.0625 11.8231 11.0625 12.4873C11.0625 13.1513 11.5045 13.6016 12.1343 13.6016L12.1367 13.6028ZM12.1237 11.7948C12.4368 11.7948 12.6377 11.9874 12.6377 12.2793H11.5753C11.6262 11.9626 11.8152 11.7948 12.1237 11.7948Z" fill="#15171A"/>
<path d="M13.8349 11.0064C14.0062 11.0064 14.148 10.8646 14.148 10.6885C14.148 10.5125 14.0062 10.3766 13.8349 10.3766C13.6553 10.3766 13.5146 10.5136 13.5146 10.6897C13.5146 10.8658 13.6541 11.0064 13.8349 11.0064ZM13.5725 13.5471H14.0948V11.4295H13.5725V13.5471Z" fill="#15171A"/>
<path d="M14.5122 12.4847C14.5122 13.1571 14.9317 13.6026 15.5745 13.6026C16.1264 13.6026 16.5388 13.2635 16.6026 12.7707H16.0756C16.02 13.0023 15.8357 13.1311 15.5745 13.1311C15.2401 13.1311 15.0345 12.8829 15.0345 12.4847C15.0345 12.0865 15.2579 11.8336 15.5911 11.8336C15.8393 11.8336 16.0153 11.9577 16.0756 12.1988H16.5979C16.5424 11.6882 16.1477 11.3668 15.5698 11.3668C14.9459 11.3668 14.5122 11.8301 14.5122 12.4847Z" fill="#15171A"/>
<path d="M16.8662 12.4848C16.8662 13.1454 17.3413 13.5992 17.9983 13.5992C18.6553 13.5992 19.1292 13.1454 19.1292 12.4848C19.1292 11.8242 18.6541 11.3705 17.9983 11.3705C17.3436 11.3705 16.8662 11.8242 16.8662 12.4848ZM17.3897 12.4848C17.3897 12.0984 17.6379 11.8384 17.9983 11.8384C18.3587 11.8384 18.6069 12.0996 18.6069 12.4848C18.6069 12.8701 18.3587 13.1312 17.9983 13.1312C17.6379 13.1312 17.3897 12.8701 17.3897 12.4848Z" fill="#15171A"/>
<path d="M20.0645 13.546V12.4069C20.0645 12.0642 20.2607 11.8409 20.5833 11.8409C20.8539 11.8409 21.0288 12.0122 21.0288 12.3679V13.546H21.5511V12.2426C21.5511 11.6943 21.277 11.3646 20.7452 11.3646C20.458 11.3646 20.2016 11.4887 20.0692 11.7038L20.0255 11.4296H19.541V13.5472H20.0634L20.0645 13.546Z" fill="#15171A"/>
<path d="M23.6252 12.9089C23.6252 13.3367 23.2612 13.6038 22.7389 13.6038C22.2166 13.6038 21.8786 13.3202 21.8774 12.9066H22.3726C22.3761 13.0909 22.5144 13.2067 22.7531 13.2067C22.9918 13.2067 23.13 13.1075 23.13 12.9539C23.13 12.8463 23.0757 12.7695 22.8866 12.727L22.5049 12.636C22.1244 12.5509 21.9401 12.3701 21.9401 12.0321C21.9401 11.6162 22.2898 11.3668 22.7791 11.3668C23.2683 11.3668 23.5744 11.6422 23.5791 12.0534H23.0828C23.0804 11.8738 22.9587 11.758 22.7578 11.758C22.5569 11.758 22.4328 11.8525 22.4328 12.0097C22.4328 12.1302 22.5286 12.2058 22.707 12.2496L23.0887 12.3405C23.4172 12.415 23.5968 12.5603 23.6204 12.8392L23.6228 12.9101L23.6252 12.9089Z" fill="#15171A"/>
<path d="M3.36471 13.4597C3.50178 13.3226 3.50178 13.0993 3.36471 12.9622L0.975304 10.5728C0.838226 10.4357 0.614887 10.4357 0.47781 10.5728C0.34073 10.7098 0.34073 10.932 0.47781 11.0703L2.86721 13.4597C3.00429 13.5967 3.22763 13.5967 3.36471 13.4597Z" fill="#15171A"/>
<path d="M3.30075 11.6955C3.43782 11.5584 3.43782 11.335 3.30075 11.198L2.33175 10.2278C2.19467 10.0907 1.97133 10.0907 1.83425 10.2278C1.69718 10.3649 1.69718 10.5882 1.83425 10.7253L2.80443 11.6955C2.94151 11.8326 3.16485 11.8326 3.30193 11.6955H3.30075Z" fill="#15171A"/>
<path d="M2.00994 13.8037C2.14701 13.6667 2.14701 13.4433 2.00994 13.3063L1.03976 12.3361C0.902681 12.199 0.679339 12.199 0.542261 12.3361C0.405184 12.4731 0.405184 12.6965 0.542261 12.8336L1.51244 13.8037C1.64952 13.9408 1.87286 13.9408 2.00994 13.8037Z" fill="#15171A"/>
</svg>
