<svg width="24" height="24" viewBox="0 0 24 24" fill="none" xmlns="http://www.w3.org/2000/svg">
<g clip-path="url(#clip0_914_45156)">
<path d="M23.625 10.3876C23.625 5.17515 18.375 0.900146 12 0.900146C5.625 0.900146 0.375 5.13765 0.375 10.3876C0.375 15.0376 4.5 18.9376 10.0875 19.6876C10.4625 19.7251 10.9875 19.9501 11.1 20.2501C11.2125 20.5126 11.1375 21.0001 11.1375 21.3001C11.1375 21.3001 10.9875 22.1626 10.9875 22.3126C10.95 22.5751 10.7625 23.4751 12 22.8751C13.2 22.3501 18.675 18.9001 21.15 16.1251C22.8375 14.3251 23.625 12.4501 23.625 10.3876ZM7.875 13.1251C7.875 13.2376 7.7625 13.3501 7.65 13.3501H4.3875C4.35 13.3501 4.275 13.3126 4.2375 13.3126C4.2 13.2751 4.2 13.2001 4.2 13.1626V8.06265C4.2 7.95015 4.3125 7.83765 4.425 7.83765H5.2125C5.325 7.83765 5.4375 7.95015 5.4375 8.06265V12.0751H7.65C7.7625 12.0751 7.875 12.1876 7.875 12.3001V13.1251ZM9.825 13.1251C9.825 13.2376 9.7125 13.3501 9.6 13.3501H8.8125C8.7 13.3501 8.5875 13.2376 8.5875 13.1251V8.06265C8.5875 7.95015 8.7 7.83765 8.8125 7.83765H9.6C9.7125 7.83765 9.825 7.95015 9.825 8.06265V13.1251ZM15.4875 13.1251C15.4875 13.2376 15.375 13.3501 15.2625 13.3501H14.475C14.4375 13.3501 14.4375 13.3501 14.4375 13.3501C14.4 13.3501 14.4 13.3126 14.4 13.3126L12 10.1626V13.1626C12 13.2751 11.8875 13.3876 11.775 13.3876H10.9875C10.875 13.3876 10.7625 13.2751 10.7625 13.1626V8.10015C10.7625 7.98765 10.875 7.87515 10.9875 7.87515H11.775C11.775 7.87515 11.775 7.87515 11.8125 7.91265L14.1375 11.0251V8.02515C14.1375 7.91265 14.25 7.80015 14.3625 7.80015H15.2625C15.375 7.80015 15.4875 7.91265 15.4875 8.02515V13.1251ZM19.9875 8.88765C19.9875 9.00015 19.875 9.11265 19.7625 9.11265H17.55V9.97515H19.7625C19.875 9.97515 19.9875 10.0876 19.9875 10.2001V10.9876C19.9875 11.1001 19.875 11.2126 19.7625 11.2126H17.55V12.0001H19.7625C19.875 12.0001 19.9875 12.1126 19.9875 12.2251V13.0126C19.9875 13.1251 19.875 13.2376 19.7625 13.2376H16.5C16.4625 13.2376 16.3875 13.2001 16.35 13.2001C16.3125 13.1626 16.3125 13.0876 16.3125 13.0501V7.98765C16.3125 7.95015 16.35 7.87515 16.35 7.83765C16.3875 7.80015 16.4625 7.80015 16.5 7.80015H19.7625C19.875 7.80015 19.9875 7.91265 19.9875 8.02515V8.88765Z" fill="#15171A"/>
</g>
<defs>
<clipPath id="clip0_914_45156">
<rect width="24" height="24" fill="white"/>
</clipPath>
</defs>
</svg>
