<svg width="24" height="24" viewBox="0 0 24 24" fill="none" xmlns="http://www.w3.org/2000/svg">
<g clip-path="url(#clip0_501_39762)">
<path d="M13.9499 2.85H22.4624C22.9124 2.85 23.3249 2.475 23.3249 1.9875C23.3249 1.5 22.9499 1.125 22.4624 1.125H13.9499C13.4999 1.125 13.0874 1.5 13.0874 1.9875C13.0874 2.475 13.4999 2.85 13.9499 2.85Z" fill="#161A23"/>
<path d="M22.4624 7.79999H13.9499C13.4999 7.79999 13.0874 8.17499 13.0874 8.66249C13.0874 9.14999 13.4624 9.52499 13.9499 9.52499H22.4624C22.9124 9.52499 23.3249 9.14999 23.3249 8.66249C23.3249 8.17499 22.9499 7.79999 22.4624 7.79999Z" fill="#161A23"/>
<path d="M22.4624 14.475H13.9499C13.4999 14.475 13.0874 14.85 13.0874 15.3375C13.0874 15.825 13.4624 16.2 13.9499 16.2H22.4624C22.9124 16.2 23.3249 15.825 23.3249 15.3375C23.3249 14.85 22.9499 14.475 22.4624 14.475Z" fill="#161A23"/>
<path d="M22.4624 21.15H13.9499C13.4999 21.15 13.0874 21.525 13.0874 22.0125C13.0874 22.5 13.4624 22.875 13.9499 22.875H22.4624C22.9124 22.875 23.3249 22.5 23.3249 22.0125C23.3249 21.525 22.9499 21.15 22.4624 21.15Z" fill="#161A23"/>
<path d="M8.54995 5.73748C8.69995 5.88748 8.92495 5.99998 9.14995 5.99998C9.37495 5.99998 9.59995 5.92498 9.74995 5.73748C10.0875 5.39998 10.0875 4.87498 9.74995 4.53748L6.22495 1.01248C5.73745 0.524976 4.98745 0.524976 4.49995 1.01248L0.937451 4.53748C0.599951 4.87498 0.599951 5.39998 0.937451 5.73748C1.27495 6.07498 1.79995 6.07498 2.13745 5.73748L4.49995 3.37498V20.625L2.13745 18.225C1.79995 17.8875 1.27495 17.8875 0.937451 18.225C0.599951 18.5625 0.599951 19.0875 0.937451 19.425L4.46245 22.9875C4.68745 23.2125 4.98745 23.3625 5.32495 23.3625C5.66245 23.3625 5.96245 23.25 6.18745 23.025L9.74995 19.4625C10.0875 19.125 10.0875 18.6 9.74995 18.2625C9.41245 17.925 8.88745 17.925 8.54995 18.2625L6.18745 20.625V3.37498L8.54995 5.73748Z" fill="#161A23"/>
</g>
<defs>
<clipPath id="clip0_501_39762">
<rect width="24" height="24" fill="white"/>
</clipPath>
</defs>
</svg>
