<svg width="24" height="24" viewBox="0 0 24 24" fill="none" xmlns="http://www.w3.org/2000/svg">
<path d="M22.5 11.175H18.675C18.225 11.175 17.8125 11.55 17.8125 12.0375C17.8125 12.4875 18.1875 12.9 18.675 12.9H22.5C22.95 12.9 23.3625 12.525 23.3625 12.0375C23.3625 11.55 22.95 11.175 22.5 11.175Z" fill="#161A23"/>
<path d="M13.9124 11.175H10.0874C9.63735 11.175 9.22485 11.55 9.22485 12.0375C9.22485 12.4875 9.59985 12.9 10.0874 12.9H13.9124C14.3624 12.9 14.7749 12.525 14.7749 12.0375C14.7374 11.55 14.3624 11.175 13.9124 11.175Z" fill="#161A23"/>
<path d="M5.32495 11.175H1.49995C1.04995 11.175 0.637451 11.55 0.637451 12.0375C0.637451 12.4875 1.01245 12.9 1.49995 12.9H5.32495C5.77495 12.9 6.18745 12.525 6.18745 12.0375C6.14995 11.55 5.77495 11.175 5.32495 11.175Z" fill="#161A23"/>
</svg>
