<svg width="24" height="24" viewBox="0 0 24 24" fill="none" xmlns="http://www.w3.org/2000/svg">
<g clip-path="url(#clip0_501_47659)">
<path d="M13.2375 16.0875C12.525 16.0875 11.8125 15.825 11.25 15.2625L9.93745 13.95C9.59995 13.6125 9.59995 13.0875 9.93745 12.75C10.275 12.4125 10.8 12.4125 11.1375 12.75L12.45 14.0625C12.9 14.5125 13.575 14.5125 14.025 14.0625L21.3 6.78748C21.75 6.33748 21.75 5.66248 21.3 5.21248L18.75 2.66248C18.3 2.21248 17.625 2.21248 17.175 2.66248L13.65 6.18748C13.3125 6.52498 12.7875 6.52498 12.45 6.18748C12.1125 5.84998 12.1125 5.32498 12.45 4.98748L15.975 1.46248C17.0625 0.374976 18.825 0.374976 19.95 1.46248L22.5 4.01248C23.5875 5.09998 23.5875 6.86248 22.5 7.98748L15.225 15.2625C14.7 15.825 13.9875 16.0875 13.2375 16.0875Z" fill="#161A23"/>
<path d="M5.99998 23.325C5.28748 23.325 4.57498 23.0625 4.01248 22.5L1.46248 19.95C0.374976 18.9 0.374976 17.1375 1.46248 16.0125L8.73748 8.73748C9.26248 8.21248 9.97498 7.91248 10.725 7.91248C11.475 7.91248 12.1875 8.21248 12.7125 8.73748L14.025 10.05C14.3625 10.3875 14.3625 10.9125 14.025 11.25C13.6875 11.5875 13.1625 11.5875 12.825 11.25L11.5125 9.93748C11.1 9.52498 10.35 9.52498 9.93748 9.93748L2.66248 17.2125C2.21248 17.6625 2.21248 18.3375 2.66248 18.7875L5.21248 21.3375C5.66248 21.7875 6.33748 21.7875 6.78748 21.3375L10.3125 17.8125C10.65 17.475 11.175 17.475 11.5125 17.8125C11.85 18.15 11.85 18.675 11.5125 19.0125L7.98748 22.5375C7.42498 23.0625 6.71248 23.325 5.99998 23.325Z" fill="#161A23"/>
</g>
<defs>
<clipPath id="clip0_501_47659">
<rect width="24" height="24" fill="white"/>
</clipPath>
</defs>
</svg>
