<svg width="24" height="24" viewBox="0 0 24 24" fill="none" xmlns="http://www.w3.org/2000/svg">
<path d="M3.86251 10.4625H8.32501C8.77501 10.4625 9.18751 10.0875 9.18751 9.60005C9.18751 9.11255 8.81251 8.73755 8.32501 8.73755H3.86251C2.10001 8.73755 0.637512 10.1625 0.637512 11.9625C0.637512 13.725 2.06251 15.1875 3.86251 15.1875H8.32501C8.77501 15.1875 9.18751 14.8125 9.18751 14.325C9.18751 13.8375 8.81251 13.4625 8.32501 13.4625H3.86251C3.03751 13.4625 2.32501 12.7875 2.32501 11.925C2.36251 11.175 3.03751 10.4625 3.86251 10.4625Z" fill="#161A23"/>
<path d="M13.65 11.175H10.3875C9.93752 11.175 9.52502 11.55 9.52502 12.0375C9.52502 12.4875 9.90002 12.9 10.3875 12.9H13.65C14.1 12.9 14.5125 12.525 14.5125 12.0375C14.475 11.55 14.1 11.175 13.65 11.175Z" fill="#161A23"/>
<path d="M20.1375 8.77515H15.675C15.225 8.77515 14.8125 9.15015 14.8125 9.63765C14.8125 10.1251 15.1875 10.5001 15.675 10.5001H20.1375C20.9625 10.5001 21.675 11.1751 21.675 12.0376C21.675 12.8626 21 13.5751 20.1375 13.5751H15.675C15.225 13.5751 14.8125 13.9501 14.8125 14.4376C14.8125 14.9251 15.1875 15.3001 15.675 15.3001H20.1375C21.9 15.3001 23.3625 13.8751 23.3625 12.0751C23.3625 10.2376 21.9 8.77515 20.1375 8.77515Z" fill="#161A23"/>
</svg>
