<svg width="24" height="24" viewBox="0 0 24 24" fill="none" xmlns="http://www.w3.org/2000/svg">
<path d="M19.6125 6.03748H12.3C10.05 6.03748 8.21246 7.87498 8.21246 10.125V10.3125C8.21246 12.5625 10.05 14.4 12.3 14.4H12.9V12.75H12.3C10.9875 12.75 9.89996 11.6625 9.89996 10.35V10.125C9.89996 8.81248 10.9875 7.72498 12.3 7.72498H19.6125C20.925 7.72498 22.0125 8.81248 22.0125 10.125V10.3125C22.0125 11.625 20.925 12.7125 19.6125 12.7125H16.6875V14.4H19.6125C21.8625 14.4 23.7 12.5625 23.7 10.3125V10.125C23.7375 7.87498 21.9 6.03748 19.6125 6.03748Z" fill="#161A23"/>
<path d="M11.7 9.5625H11.0625V11.25H11.7C13.0125 11.25 14.1 12.3375 14.1 13.65V13.875C14.1 15.1875 13.0125 16.275 11.7 16.275H4.38749C3.07499 16.275 1.98749 15.1875 1.98749 13.875V13.6875C1.98749 12.375 3.07499 11.2875 4.38749 11.2875H7.23749V9.6H4.38749C2.13749 9.6 0.299988 11.4375 0.299988 13.6875V13.875C0.299988 16.125 2.13749 17.9625 4.38749 17.9625H11.7C13.95 17.9625 15.7875 16.125 15.7875 13.875V13.6875C15.7875 11.4 13.95 9.5625 11.7 9.5625Z" fill="#161A23"/>
</svg>
