<svg width="24" height="24" viewBox="0 0 24 24" fill="none" xmlns="http://www.w3.org/2000/svg">
<path d="M12 0.675049C10.2375 0.675049 8.77502 2.10005 8.77502 3.90005V8.36255C8.77502 8.81255 9.15002 9.22505 9.63752 9.22505C10.125 9.22505 10.5 8.85005 10.5 8.36255V3.86255C10.5 3.03755 11.175 2.32505 12.0375 2.32505C12.8625 2.32505 13.575 3.00005 13.575 3.86255V8.32505C13.575 8.77505 13.95 9.18755 14.4375 9.18755C14.925 9.18755 15.3 8.81255 15.3 8.32505V3.86255C15.225 2.10005 13.7625 0.675049 12 0.675049Z" fill="#161A23"/>
<path d="M12.8625 13.65V10.3875C12.8625 9.93752 12.4875 9.52502 12 9.52502C11.55 9.52502 11.1375 9.90002 11.1375 10.3875V13.65C11.1375 14.1 11.5125 14.5125 12 14.5125C12.45 14.475 12.8625 14.1 12.8625 13.65Z" fill="#161A23"/>
<path d="M14.3625 14.85C13.9125 14.85 13.5 15.225 13.5 15.7125V20.175C13.5 21 12.825 21.7125 11.9625 21.7125C11.1375 21.7125 10.425 21.0375 10.425 20.175V15.675C10.425 15.225 10.05 14.8125 9.56251 14.8125C9.07501 14.8125 8.70001 15.1875 8.70001 15.675V20.1375C8.70001 21.9 10.125 23.3625 11.925 23.3625C13.6875 23.3625 15.15 21.9375 15.15 20.1375V15.675C15.225 15.225 14.85 14.85 14.3625 14.85Z" fill="#161A23"/>
</svg>
