<svg width="24" height="24" viewBox="0 0 24 24" fill="none" xmlns="http://www.w3.org/2000/svg">
<path d="M8.32501 13.5749H3.86251C3.03751 13.5749 2.32501 12.8999 2.32501 12.0374C2.32501 11.6249 2.47501 11.2499 2.77501 10.9499C3.07501 10.6499 3.45001 10.4999 3.86251 10.4999H5.43751C5.88751 10.4999 6.30001 10.1249 6.30001 9.6374C6.30001 9.1499 5.92501 8.7749 5.43751 8.7749H3.86251C3.00001 8.7749 2.21251 9.1124 1.57501 9.7124C0.975012 10.3124 0.637512 11.1374 0.637512 11.9999C0.637512 13.7624 2.06251 15.2249 3.86251 15.2249H8.32501C8.77501 15.2249 9.18751 14.8499 9.18751 14.3624C9.18751 13.8749 8.77501 13.5749 8.32501 13.5749Z" fill="#161A23"/>
<path d="M15.675 10.5375H20.1375C20.9625 10.5375 21.675 11.2125 21.675 12.075C21.675 12.9 21 13.6125 20.1375 13.6125H17.925C17.475 13.6125 17.0625 13.9875 17.0625 14.475C17.0625 14.9625 17.4375 15.3375 17.925 15.3375H20.1375C21.9 15.3375 23.3625 13.9125 23.3625 12.1125C23.3625 10.35 21.9375 8.88745 20.1375 8.88745H15.675C15.225 8.88745 14.8125 9.26245 14.8125 9.74995C14.8125 10.2375 15.225 10.5375 15.675 10.5375Z" fill="#161A23"/>
<path d="M13.9125 12.825C14.25 12.7125 14.475 12.4125 14.475 12.0375C14.475 11.5875 14.1 11.175 13.6125 11.175H12.075L2.06251 2.17497C1.72501 1.83747 1.20001 1.87497 0.862509 2.21247C0.562509 2.54997 0.600009 3.11247 0.937509 3.41247L21.375 21.825C21.525 21.975 21.75 22.05 21.9375 22.05C22.1625 22.05 22.3875 21.9375 22.575 21.7875C22.875 21.45 22.875 20.925 22.5 20.5875L13.9125 12.825Z" fill="#161A23"/>
</svg>
