<svg width="24" height="24" viewBox="0 0 24 24" fill="none" xmlns="http://www.w3.org/2000/svg">
<g clip-path="url(#clip0_501_47753)">
<path d="M22.0875 15.8625L19.05 12.825C17.5125 11.2875 15.1125 11.1375 13.3875 12.375L11.5875 10.575C12.1125 9.86248 12.4125 8.99998 12.4125 8.06248C12.4125 6.89998 11.9625 5.77498 11.1375 4.94998L8.09999 1.91248C6.41249 0.224976 3.63749 0.224976 1.91249 1.91248C1.12499 2.77498 0.674988 3.86248 0.674988 5.02498C0.674988 6.18748 1.12499 7.27498 1.94999 8.09998L4.94999 11.1375C5.81249 12 6.93749 12.4125 8.02499 12.4125C8.84999 12.4125 9.63749 12.1875 10.35 11.7375L12.225 13.6125C11.775 14.2875 11.55 15.1125 11.55 15.9375C11.55 17.1 12 18.1875 12.825 19.0125L15.825 22.05C16.6875 22.9125 17.8125 23.325 18.9 23.325C20.025 23.325 21.15 22.9125 21.975 22.05C22.8 21.225 23.25 20.1375 23.25 18.975C23.3625 17.8125 22.9125 16.725 22.0875 15.8625ZM6.14999 9.93748L3.14999 6.89998C2.62499 6.37498 2.36249 5.69998 2.36249 4.98748C2.36249 4.27498 2.62499 3.59998 3.14999 3.07498C3.67499 2.54998 4.34999 2.28748 5.06249 2.28748C5.73749 2.28748 6.44999 2.54998 6.97499 3.07498L10.0125 6.07498C10.5 6.59998 10.8 7.27498 10.8 7.98748C10.8 8.47498 10.6875 8.88748 10.4625 9.29998L9.52499 8.36248C9.18749 8.02498 8.66249 8.02498 8.32499 8.36248C7.98749 8.69998 7.98749 9.22498 8.32499 9.56248L9.18749 10.425C8.13749 10.95 6.93749 10.7625 6.14999 9.93748ZM20.85 20.85C19.8 21.9 18.075 21.9 17.0625 20.85L14.0625 17.8125C13.5375 17.2875 13.275 16.6125 13.275 15.9C13.275 15.525 13.35 15.15 13.5 14.8125L14.3625 15.6375C14.5125 15.7875 14.7375 15.9 14.9625 15.9C15.1875 15.9 15.4125 15.825 15.5625 15.6375C15.9 15.3 15.9 14.775 15.5625 14.4375L14.625 13.6125C15.0375 13.3875 15.4875 13.275 15.9375 13.275C16.6125 13.275 17.325 13.5375 17.85 14.0625L20.8875 17.0625C21.375 17.5875 21.675 18.2625 21.675 18.975C21.6375 19.6875 21.375 20.3625 20.85 20.85Z" fill="#161A23"/>
</g>
<defs>
<clipPath id="clip0_501_47753">
<rect width="24" height="24" fill="white"/>
</clipPath>
</defs>
</svg>
