<svg width="24" height="24" viewBox="0 0 24 24" fill="none" xmlns="http://www.w3.org/2000/svg">
<g clip-path="url(#clip0_914_45192)">
<mask id="mask0_914_45192" style="mask-type:luminance" maskUnits="userSpaceOnUse" x="0" y="0" width="24" height="24">
<path d="M24 0H0V24H24V0Z" fill="white"/>
</mask>
<g mask="url(#mask0_914_45192)">
<path d="M5.475 23.625H2.1375C0.975 23.625 0 22.6875 0 21.5625V10.5C0 9.3375 0.9375 8.4375 2.1375 8.4375H5.475C6.6375 8.4375 7.6125 9.375 7.6125 10.5V21.5625C7.65 22.6875 6.675 23.625 5.475 23.625ZM2.1375 10.275C2.025 10.275 1.9125 10.3125 1.9125 10.425V21.4875C1.9125 21.525 1.95 21.6375 2.1375 21.6375H5.475C5.5875 21.6375 5.7 21.6 5.7 21.4875V10.5C5.7 10.4625 5.5875 10.35 5.475 10.35H2.1375V10.275Z" fill="#15171A"/>
<path d="M22.0494 23.625H18.6744C17.5119 23.625 16.5369 22.6875 16.5369 21.5625V16.9875C16.5369 16.7625 16.3869 16.6125 16.0869 16.6125C15.8619 16.6125 15.6369 16.7625 15.6369 16.9875V21.525C15.6369 22.6875 14.6994 23.5875 13.4994 23.5875H10.1619C8.99941 23.5875 8.02441 22.65 8.02441 21.525V10.5C8.02441 9.3375 8.96191 8.4375 10.1619 8.4375H13.4994C14.2119 8.4375 14.8119 8.775 15.1869 9.3C15.3369 9.2625 15.5244 9.15 15.6369 9.075C16.7994 8.5125 18.1119 8.3625 19.3119 8.5125C21.9369 8.85 23.9619 11.025 23.9994 13.65V21.6375C24.1119 22.6875 23.1744 23.625 22.0494 23.625ZM16.1244 14.775C17.3994 14.775 18.4119 15.825 18.4119 17.025V21.5625C18.4119 21.6 18.4494 21.7125 18.6369 21.7125H21.9744C22.0869 21.7125 22.1994 21.675 22.1994 21.5625V13.6125C22.1619 11.9625 20.8494 10.5375 19.1244 10.3875C18.2619 10.275 17.2494 10.425 16.3869 10.8375C15.9369 10.9875 15.5619 11.2875 15.1869 11.5125L13.7244 12.5625V10.5C13.7244 10.4625 13.6869 10.35 13.4994 10.35H10.1619C10.0494 10.35 9.93691 10.3875 9.93691 10.5V21.5625C9.93691 21.6 9.97441 21.7125 10.1619 21.7125H13.5369C13.6494 21.7125 13.7619 21.675 13.7619 21.5625V16.9875C13.8369 15.75 14.8119 14.775 16.1244 14.775Z" fill="#15171A"/>
<path d="M4.0497 8.2125C1.87471 8.2125 0.074707 6.45 0.074707 4.275C0.074707 2.1 1.79971 0.375 4.0497 0.375C6.2997 0.375 8.0247 2.1375 8.0247 4.3125C8.0247 6.4875 6.2247 8.2125 4.0497 8.2125ZM4.0497 2.2875C2.88721 2.2875 1.91221 3.225 1.91221 4.3125C1.91221 5.475 2.84971 6.3375 4.0497 6.3375C5.2497 6.3375 6.1872 5.4 6.1872 4.3125C6.1872 3.15 5.2497 2.2875 4.0497 2.2875Z" fill="#15171A"/>
</g>
</g>
<defs>
<clipPath id="clip0_914_45192">
<rect width="24" height="24" fill="white"/>
</clipPath>
</defs>
</svg>
