<svg width="24" height="24" viewBox="0 0 24 24" fill="none" xmlns="http://www.w3.org/2000/svg">
<path d="M4.61251 1.3125H2.25001C1.38751 1.3125 0.637512 2.025 0.637512 2.925V5.2875C0.637512 6.15 1.35001 6.9 2.25001 6.9H4.61251C5.47501 6.9 6.22501 6.1875 6.22501 5.2875V2.8875C6.18751 2.025 5.47501 1.3125 4.61251 1.3125ZM4.50001 5.175H2.36251V3H4.50001V5.175Z" fill="#161A23"/>
<path d="M9.63752 4.95H22.5C22.95 4.95 23.3625 4.575 23.3625 4.0875C23.3625 3.6 22.9875 3.225 22.5 3.225H9.63752C9.18752 3.225 8.77502 3.6 8.77502 4.0875C8.77502 4.575 9.18752 4.95 9.63752 4.95Z" fill="#161A23"/>
<path d="M4.61251 9H2.25001C1.38751 9 0.637512 9.7125 0.637512 10.6125V12.975C0.637512 13.8375 1.35001 14.5875 2.25001 14.5875H4.61251C5.47501 14.5875 6.22501 13.875 6.22501 12.975V10.6125C6.18751 9.7125 5.47501 9 4.61251 9ZM4.50001 12.8625H2.36251V10.6875H4.50001V12.8625Z" fill="#161A23"/>
<path d="M22.5 10.95H9.63752C9.18752 10.95 8.77502 11.325 8.77502 11.8125C8.77502 12.3 9.15002 12.6375 9.63752 12.6375H22.5C22.95 12.6375 23.3625 12.2625 23.3625 11.8125C23.3625 11.3625 22.95 10.95 22.5 10.95Z" fill="#161A23"/>
<path d="M4.61251 17.1375H2.25001C1.38751 17.1375 0.637512 17.85 0.637512 18.75V21.1125C0.637512 21.975 1.35001 22.725 2.25001 22.725H4.61251C5.47501 22.725 6.22501 22.0125 6.22501 21.1125V18.75C6.18751 17.85 5.47501 17.1375 4.61251 17.1375ZM4.50001 21H2.36251V18.825H4.50001V21Z" fill="#161A23"/>
<path d="M22.5 19.05H9.63752C9.18752 19.05 8.77502 19.425 8.77502 19.9125C8.77502 20.4 9.15002 20.775 9.63752 20.775H22.5C22.95 20.775 23.3625 20.4 23.3625 19.9125C23.3625 19.425 22.95 19.05 22.5 19.05Z" fill="#161A23"/>
</svg>
