<svg width="24" height="24" viewBox="0 0 24 24" fill="none" xmlns="http://www.w3.org/2000/svg">
<path d="M6.03749 5.43749H22.725C23.175 5.43749 23.5875 5.06249 23.5875 4.57499C23.5875 4.08749 23.2125 3.71249 22.725 3.71249H6.03749C5.58749 3.71249 5.17499 4.08749 5.17499 4.57499C5.17499 5.06249 5.54999 5.43749 6.03749 5.43749Z" fill="#161A23"/>
<path d="M22.6875 11.175H6.03749C5.58749 11.175 5.17499 11.55 5.17499 12.0375C5.17499 12.4875 5.54999 12.9 6.03749 12.9H22.725C23.175 12.9 23.5875 12.525 23.5875 12.0375C23.55 11.55 23.175 11.175 22.6875 11.175Z" fill="#161A23"/>
<path d="M22.6875 18.5625H6.03749C5.58749 18.5625 5.17499 18.9375 5.17499 19.425C5.17499 19.9125 5.54999 20.2875 6.03749 20.2875H22.725C23.175 20.2875 23.5875 19.9125 23.5875 19.425C23.5875 18.9375 23.175 18.5625 22.6875 18.5625Z" fill="#161A23"/>
<path d="M2.325 5.5875C2.88419 5.5875 3.3375 5.13419 3.3375 4.575C3.3375 4.01581 2.88419 3.5625 2.325 3.5625C1.76581 3.5625 1.3125 4.01581 1.3125 4.575C1.3125 5.13419 1.76581 5.5875 2.325 5.5875Z" fill="#161A23"/>
<path d="M2.325 13.0125C2.88419 13.0125 3.3375 12.5592 3.3375 12C3.3375 11.4408 2.88419 10.9875 2.325 10.9875C1.76581 10.9875 1.3125 11.4408 1.3125 12C1.3125 12.5592 1.76581 13.0125 2.325 13.0125Z" fill="#161A23"/>
<path d="M2.325 20.4375C2.88419 20.4375 3.3375 19.9842 3.3375 19.425C3.3375 18.8658 2.88419 18.4125 2.325 18.4125C1.76581 18.4125 1.3125 18.8658 1.3125 19.425C1.3125 19.9842 1.76581 20.4375 2.325 20.4375Z" fill="#161A23"/>
</svg>
