<svg width="24" height="24" viewBox="0 0 24 24" fill="none" xmlns="http://www.w3.org/2000/svg">
<path d="M5.3625 3.22501H2.25C1.3875 3.22501 0.637497 3.93751 0.637497 4.83751V7.95001C0.637497 8.81251 1.35 9.56251 2.25 9.56251H5.3625C6.225 9.56251 6.975 8.85001 6.975 7.95001V4.83751C6.975 3.93751 6.2625 3.22501 5.3625 3.22501ZM5.2875 7.83751H2.3625V4.91251H5.2875V7.83751Z" fill="#161A23"/>
<path d="M5.3625 14.475H2.25C1.3875 14.475 0.637497 15.1875 0.637497 16.0875V19.2C0.637497 20.0625 1.35 20.8125 2.25 20.8125H5.3625C6.225 20.8125 6.975 20.1 6.975 19.2V16.0875C6.975 15.1875 6.2625 14.475 5.3625 14.475ZM5.2875 19.0875H2.3625V16.1625H5.2875V19.0875Z" fill="#161A23"/>
<path d="M10.7625 5.62499H22.5C22.95 5.62499 23.3625 5.24999 23.3625 4.76249C23.3625 4.27499 22.9875 3.89999 22.5 3.89999H10.7625C10.3125 3.89999 9.89999 4.27499 9.89999 4.76249C9.89999 5.24999 10.3125 5.62499 10.7625 5.62499Z" fill="#161A23"/>
<path d="M22.5 7.125H10.7625C10.3125 7.125 9.89999 7.5 9.89999 7.9875C9.89999 8.475 10.275 8.85 10.7625 8.85H22.5C22.95 8.85 23.3625 8.475 23.3625 7.9875C23.3625 7.5 22.95 7.125 22.5 7.125Z" fill="#161A23"/>
<path d="M22.5 15.1875H10.7625C10.3125 15.1875 9.89999 15.5625 9.89999 16.05C9.89999 16.5375 10.275 16.9125 10.7625 16.9125H22.5C22.95 16.9125 23.3625 16.5375 23.3625 16.05C23.3625 15.5625 22.95 15.1875 22.5 15.1875Z" fill="#161A23"/>
<path d="M22.5 18.375H10.7625C10.3125 18.375 9.89999 18.75 9.89999 19.2375C9.89999 19.725 10.275 20.1 10.7625 20.1H22.5C22.95 20.1 23.3625 19.725 23.3625 19.2375C23.3625 18.75 22.95 18.375 22.5 18.375Z" fill="#161A23"/>
</svg>
