<svg width="24" height="24" viewBox="0 0 24 24" fill="none" xmlns="http://www.w3.org/2000/svg">
<path d="M21.375 2.32495H2.625C1.5375 2.32495 0.637497 3.22495 0.637497 4.31245V15.1875C0.637497 16.275 1.5375 17.175 2.625 17.175H11.175V20.025H9.825C9.375 20.025 8.9625 20.4 8.9625 20.8875C8.9625 21.375 9.3375 21.75 9.825 21.75H14.25C14.7 21.75 15.1125 21.375 15.1125 20.8875C15.1125 20.4 14.7375 20.025 14.25 20.025H12.9V17.175H21.375C22.4625 17.175 23.3625 16.275 23.3625 15.1875V4.31245C23.3625 3.18745 22.4625 2.32495 21.375 2.32495ZM21.675 15.1875C21.675 15.3375 21.5625 15.4875 21.375 15.4875H2.625C2.475 15.4875 2.325 15.375 2.325 15.1875V4.31245C2.325 4.16245 2.4375 4.01245 2.625 4.01245H21.375C21.525 4.01245 21.675 4.12495 21.675 4.31245V15.1875Z" fill="#161A23"/>
<path d="M9.3 6.5249C8.85 6.5249 8.4375 6.8999 8.4375 7.3874V12.5999C8.4375 13.0499 8.8125 13.4624 9.3 13.4624C9.7875 13.4624 10.1625 13.0874 10.1625 12.5999V7.3499C10.1625 6.8999 9.75 6.5249 9.3 6.5249Z" fill="#161A23"/>
<path d="M14.85 6.52494C14.4 6.48744 13.9875 6.82494 13.95 7.31244L13.575 11.7749H13.2L12.825 7.31244C12.7875 6.86244 12.375 6.48744 11.925 6.52494C11.475 6.56244 11.1 6.97494 11.1375 7.42494L11.5875 12.6749C11.625 13.1249 12 13.4624 12.4125 13.4624H14.325C14.775 13.4624 15.1125 13.1249 15.15 12.6749L15.6 7.42494C15.675 6.97494 15.3375 6.56244 14.85 6.52494Z" fill="#161A23"/>
<path d="M6.825 11.7374H5.2125V7.34993C5.2125 6.89993 4.8375 6.48743 4.35 6.48743C3.8625 6.48743 3.4875 6.86243 3.4875 7.34993V12.5999C3.4875 13.0499 3.8625 13.4624 4.35 13.4624H6.7875C7.2375 13.4624 7.65 13.0874 7.65 12.5999C7.65 12.1124 7.275 11.7374 6.825 11.7374Z" fill="#161A23"/>
<path d="M19.65 8.21243C20.1 8.21243 20.5125 7.83743 20.5125 7.34993C20.5125 6.86243 20.1375 6.48743 19.65 6.48743H17.7375C17.2875 6.48743 16.875 6.86243 16.875 7.34993V9.71243V9.93743V12.5624C16.875 13.0124 17.25 13.4249 17.7375 13.4249H19.65C20.1 13.4249 20.5125 13.0499 20.5125 12.5624C20.5125 12.0749 20.1375 11.6999 19.65 11.6999H18.5625V10.7624H19.65C20.1 10.7624 20.5125 10.3874 20.5125 9.89993C20.5125 9.41243 20.1375 9.03743 19.65 9.03743H18.5625V8.09993H19.65V8.21243Z" fill="#161A23"/>
</svg>
