<svg width="24" height="24" viewBox="0 0 24 24" fill="none" xmlns="http://www.w3.org/2000/svg">
<path d="M9.225 11.8125C8.775 11.8125 8.3625 12.1875 8.3625 12.675V18.525C8.3625 18.975 8.7375 19.3875 9.225 19.3875C9.7125 19.3875 10.0875 19.0125 10.0875 18.525V12.675C10.05 12.225 9.675 11.8125 9.225 11.8125Z" fill="#161A23"/>
<path d="M15.225 11.8125C14.775 11.775 14.3625 12.1125 14.325 12.6L13.875 17.7H13.275L12.8625 12.6C12.825 12.15 12.4125 11.775 11.9625 11.8125C11.5125 11.85 11.1375 12.2625 11.175 12.7125L11.6625 18.6C11.7 19.05 12.075 19.3875 12.4875 19.3875H14.6625C15.1125 19.3875 15.45 19.05 15.4875 18.6L15.975 12.75C16.0125 12.2625 15.675 11.85 15.225 11.8125Z" fill="#161A23"/>
<path d="M21.5625 8.58757H12.8625V6.97507C13.7625 6.63757 14.4375 5.73757 14.4375 4.72507C14.4375 3.41257 13.35 2.32507 12.0375 2.32507C10.725 2.32507 9.6375 3.41257 9.6375 4.72507C9.6375 5.73757 10.275 6.63757 11.2125 6.97507V8.58757H2.4375C1.35 8.58757 0.449997 9.48757 0.449997 10.5751V20.7001C0.449997 21.7876 1.35 22.6876 2.4375 22.6876H21.5625C22.65 22.6876 23.55 21.7876 23.55 20.7001V10.5751C23.55 9.45007 22.65 8.58757 21.5625 8.58757ZM12 4.01257C12.4125 4.01257 12.7125 4.35007 12.7125 4.72507C12.7125 5.10007 12.375 5.43757 12 5.43757C11.5875 5.43757 11.2875 5.10007 11.2875 4.72507C11.2875 4.35007 11.5875 4.01257 12 4.01257ZM21.8625 20.6626C21.8625 20.8126 21.75 20.9626 21.5625 20.9626H2.4375C2.2875 20.9626 2.1375 20.8501 2.1375 20.6626V10.5376C2.1375 10.3876 2.25 10.2376 2.4375 10.2376H21.5625C21.7125 10.2376 21.8625 10.3501 21.8625 10.5376V20.6626Z" fill="#161A23"/>
<path d="M16.575 6.93752C16.725 7.08752 16.95 7.20002 17.175 7.20002C17.4 7.20002 17.625 7.12502 17.775 6.93752C18.375 6.33752 18.7125 5.51252 18.7125 4.65002C18.7125 3.78752 18.375 2.96252 17.775 2.32502C17.4375 1.98752 16.9125 1.98752 16.575 2.32502C16.2375 2.66252 16.2375 3.18752 16.575 3.52502C16.875 3.82502 17.025 4.20002 17.025 4.61252C17.025 5.02502 16.875 5.43752 16.575 5.70002C16.2375 6.07502 16.2375 6.60002 16.575 6.93752Z" fill="#161A23"/>
<path d="M19.1625 7.65C19.3125 7.8 19.5375 7.9125 19.7625 7.9125C19.9875 7.9125 20.2125 7.8375 20.3625 7.65C22.0125 6 22.0125 3.2625 20.3625 1.6125C20.025 1.275 19.5 1.275 19.1625 1.6125C18.825 1.95 18.825 2.475 19.1625 2.8125C20.175 3.825 20.175 5.4375 19.1625 6.45C18.8625 6.7875 18.8625 7.3125 19.1625 7.65Z" fill="#161A23"/>
<path d="M6.825 7.16255C7.05 7.16255 7.275 7.08755 7.425 6.90005C7.7625 6.56255 7.7625 6.03755 7.425 5.70005C6.825 5.10005 6.825 4.08755 7.425 3.48755C7.7625 3.15005 7.7625 2.62505 7.425 2.28755C7.0875 1.95005 6.5625 1.95005 6.225 2.28755C4.95 3.56255 4.95 5.62505 6.225 6.86255C6.4125 7.08755 6.6375 7.16255 6.825 7.16255Z" fill="#161A23"/>
<path d="M4.2375 7.91252C4.4625 7.91252 4.6875 7.83752 4.8375 7.65002C5.175 7.31252 5.175 6.78752 4.8375 6.45002C4.35 5.96252 4.0875 5.32502 4.0875 4.61252C4.0875 3.90002 4.35 3.26252 4.8375 2.77502C5.175 2.43752 5.175 1.91252 4.8375 1.57502C4.5 1.23752 3.975 1.23752 3.6375 1.57502C1.95 3.26252 1.95 6.00002 3.6375 7.65002C3.7875 7.80002 4.0125 7.91252 4.2375 7.91252Z" fill="#161A23"/>
<path d="M6.97499 17.7H5.06249V12.675C5.06249 12.225 4.68749 11.8125 4.19999 11.8125C3.71249 11.8125 3.33749 12.1875 3.33749 12.675V18.5625C3.33749 19.0125 3.71249 19.425 4.19999 19.425H6.93749C7.38749 19.425 7.79999 19.05 7.79999 18.5625C7.79999 18.075 7.46249 17.7 6.97499 17.7Z" fill="#161A23"/>
<path d="M20.25 13.5C20.7 13.5 21.1125 13.125 21.1125 12.6375C21.1125 12.15 20.7375 11.775 20.25 11.775H18.075C17.625 11.775 17.2125 12.15 17.2125 12.6375V18.525C17.2125 18.975 17.5875 19.3875 18.075 19.3875H20.25C20.7 19.3875 21.1125 19.0125 21.1125 18.525C21.1125 18.0375 20.7375 17.6625 20.25 17.6625H18.9375V16.425H20.25C20.7 16.425 21.1125 16.05 21.1125 15.5625C21.1125 15.075 20.7375 14.7 20.25 14.7H18.9375V13.5H20.25Z" fill="#161A23"/>
</svg>
