<svg width="24" height="24" viewBox="0 0 24 24" fill="none" xmlns="http://www.w3.org/2000/svg">
<g clip-path="url(#clip0_501_45485)">
<path d="M20.8125 0.824951H13.5C12.9375 0.824951 12.4125 1.01245 12 1.38745C11.5875 1.04995 11.0625 0.824951 10.5 0.824951H3.1875C1.9125 0.824951 0.824997 1.87495 0.824997 3.18745V20.8124C0.824997 22.0875 1.875 23.1749 3.1875 23.1749H10.5C11.0625 23.1749 11.5875 22.9874 12 22.6124C12.4125 22.9499 12.9375 23.1749 13.5 23.1749H20.8125C22.0875 23.1749 23.175 22.1249 23.175 20.8124V3.18745C23.175 1.91245 22.0875 0.824951 20.8125 0.824951ZM10.5 21.4874H3.1875C2.8125 21.4874 2.5125 21.1874 2.5125 20.8124V3.18745C2.5125 2.81245 2.8125 2.51245 3.1875 2.51245H10.5C10.875 2.51245 11.175 2.81245 11.175 3.18745V20.8124C11.175 21.1874 10.875 21.4874 10.5 21.4874ZM21.4875 20.8124C21.4875 21.1874 21.1875 21.4874 20.8125 21.4874H13.5C13.125 21.4874 12.825 21.1874 12.825 20.8124V3.18745C12.825 2.81245 13.125 2.51245 13.5 2.51245H20.8125C21.1875 2.51245 21.4875 2.81245 21.4875 3.18745V20.8124Z" fill="#161A23"/>
<path d="M9.3375 4.875H4.5C4.05 4.875 3.6375 5.25 3.6375 5.7375C3.6375 6.225 4.0125 6.6 4.5 6.6H9.3375C9.7875 6.6 10.2 6.225 10.2 5.7375C10.2 5.25 9.7875 4.875 9.3375 4.875Z" fill="#161A23"/>
<path d="M9.3375 7.6875H4.5C4.05 7.6875 3.6375 8.0625 3.6375 8.55C3.6375 9.0375 4.0125 9.4125 4.5 9.4125H9.3375C9.7875 9.4125 10.2 9.0375 10.2 8.55C10.2 8.0625 9.7875 7.6875 9.3375 7.6875Z" fill="#161A23"/>
<path d="M19.3875 4.875H15.0375C14.5875 4.875 14.175 5.25 14.175 5.7375C14.175 6.225 14.55 6.6 15.0375 6.6H19.3875C19.8375 6.6 20.25 6.225 20.25 5.7375C20.25 5.25 19.875 4.875 19.3875 4.875Z" fill="#161A23"/>
<path d="M19.3875 7.6875H15.0375C14.5875 7.6875 14.175 8.0625 14.175 8.55C14.175 9.0375 14.55 9.4125 15.0375 9.4125H19.3875C19.8375 9.4125 20.25 9.0375 20.25 8.55C20.25 8.0625 19.875 7.6875 19.3875 7.6875Z" fill="#161A23"/>
<path d="M4.83749 10.95C4.38749 10.95 3.97499 11.325 3.97499 11.8125V15.9C3.97499 16.35 4.34999 16.7625 4.83749 16.7625C5.32499 16.7625 5.69999 16.3875 5.69999 15.9V11.8125C5.69999 11.325 5.32499 10.95 4.83749 10.95Z" fill="#161A23"/>
<path d="M15.2625 11.25C14.8125 11.25 14.4 11.625 14.4 12.1125V16.2C14.4 16.65 14.775 17.0625 15.2625 17.0625C15.75 17.0625 16.125 16.6875 16.125 16.2V12.075C16.125 11.625 15.75 11.25 15.2625 11.25Z" fill="#161A23"/>
</g>
<defs>
<clipPath id="clip0_501_45485">
<rect width="24" height="24" fill="white"/>
</clipPath>
</defs>
</svg>
