<svg width="24" height="24" viewBox="0 0 24 24" fill="none" xmlns="http://www.w3.org/2000/svg">
<path d="M14.6625 13.7625H14.175V12.825C14.175 11.4 13.0125 10.2375 11.5875 10.2375C10.1625 10.2375 9 11.4 9 12.825V13.7625H8.5125C8.0625 13.7625 7.6875 14.1375 7.6875 14.5875V18.15C7.6875 18.6 8.0625 18.975 8.5125 18.975H14.625C15.075 18.975 15.45 18.6 15.45 18.15V14.5875C15.525 14.1375 15.15 13.7625 14.6625 13.7625ZM10.725 12.825C10.725 12.3375 11.1375 11.925 11.625 11.925C12.1125 11.925 12.525 12.3375 12.525 12.825V13.7625H10.725V12.825ZM13.8375 17.325H9.4125V15.45H13.8375V17.325Z" fill="#161A23"/>
<path d="M21 1.91248H2.99999C1.72499 1.91248 0.674988 2.96248 0.674988 4.23748V19.6875C0.674988 20.9625 1.72499 22.0125 2.99999 22.0125H21C22.275 22.0125 23.325 20.9625 23.325 19.6875V4.27498C23.325 2.96248 22.275 1.91248 21 1.91248ZM2.99999 3.59998H21C21.375 3.59998 21.675 3.89998 21.675 4.27498V7.72498H2.32499V4.27498C2.32499 3.89998 2.62499 3.59998 2.99999 3.59998ZM21 20.4H2.99999C2.62499 20.4 2.32499 20.1 2.32499 19.725V9.41248H21.6375V19.725C21.675 20.1 21.375 20.4 21 20.4Z" fill="#161A23"/>
<path d="M4.79998 6.7125H5.06248C5.51248 6.7125 5.88748 6.3375 5.88748 5.8875C5.88748 5.4375 5.51248 5.0625 5.06248 5.0625H4.79998C4.34998 5.0625 3.97498 5.4375 3.97498 5.8875C3.97498 6.3375 4.31248 6.7125 4.79998 6.7125Z" fill="#161A23"/>
<path d="M8.06249 6.7125H8.32499C8.77499 6.7125 9.14999 6.3375 9.14999 5.8875C9.14999 5.4375 8.77499 5.0625 8.32499 5.0625H8.06249C7.61249 5.0625 7.23749 5.4375 7.23749 5.8875C7.23749 6.3375 7.57499 6.7125 8.06249 6.7125Z" fill="#161A23"/>
<path d="M11.325 6.7125H11.5875C12.0375 6.7125 12.4125 6.3375 12.4125 5.8875C12.4125 5.4375 12.0375 5.0625 11.5875 5.0625H11.325C10.875 5.0625 10.5 5.4375 10.5 5.8875C10.5 6.3375 10.8375 6.7125 11.325 6.7125Z" fill="#161A23"/>
</svg>
