<svg width="24" height="24" viewBox="0 0 24 24" fill="none" xmlns="http://www.w3.org/2000/svg">
<path d="M17.625 7.42502V6.45002C17.625 3.45002 15.375 0.900015 12.525 0.675015C10.95 0.525015 9.37499 1.08752 8.21249 2.13752C7.04999 3.18752 6.37499 4.68752 6.37499 6.22502V7.42502C4.19999 7.83752 2.54999 9.75002 2.54999 12.075V18.8625C2.54999 21.3375 4.57499 23.325 7.01249 23.325H16.9125C19.3875 23.325 21.4125 21.3 21.4125 18.825V12C21.45 9.75002 19.8 7.87502 17.625 7.42502ZM9.33749 3.37502C10.1625 2.62502 11.25 2.25002 12.375 2.36252C14.3625 2.55002 15.9375 4.35002 15.9375 6.45002V7.31252H8.06249V6.18752C8.06249 5.13752 8.51249 4.12502 9.33749 3.37502ZM19.7625 18.8625C19.7625 20.4 18.4875 21.675 16.95 21.675H7.04999C5.51249 21.675 4.27499 20.4375 4.27499 18.9V12.075C4.27499 10.3875 5.62499 9.03752 7.31249 9.03752H16.6875C18.375 9.03752 19.7625 10.3875 19.7625 12V18.8625Z" fill="#161A23"/>
<path d="M12 12.9375C11.55 12.9375 11.1375 13.3125 11.1375 13.8V17.7375C11.1375 18.1875 11.5125 18.6 12 18.6C12.45 18.6 12.8625 18.225 12.8625 17.7375V13.7625C12.8625 13.3125 12.45 12.9375 12 12.9375Z" fill="#161A23"/>
</svg>
