<svg width="24" height="24" viewBox="0 0 24 24" fill="none" xmlns="http://www.w3.org/2000/svg">
<path d="M16.5 7.95V5.1375C16.5 3.9375 16.05 2.8125 15.1875 1.95C14.325 1.0875 13.2 0.637501 12 0.637501C9.52501 0.637501 7.50001 2.6625 7.50001 5.1375V7.9125C5.21251 9.4125 3.63751 12 3.63751 15C3.63751 19.6125 7.38751 23.3625 12 23.3625C16.6125 23.3625 20.3625 19.6125 20.3625 15C20.3625 12.0375 18.825 9.45 16.5 7.95ZM9.22501 5.1375C9.22501 3.6 10.4625 2.325 12.0375 2.325C12.7875 2.325 13.5 2.625 14.025 3.15C14.55 3.675 14.85 4.3875 14.85 5.1375V7.125C13.95 6.825 13.0125 6.6375 12.0375 6.6375C11.0625 6.6375 10.125 6.7875 9.26251 7.125V5.1375H9.22501ZM12 21.675C8.32501 21.675 5.32501 18.675 5.32501 15C5.32501 11.325 8.32501 8.325 12 8.325C15.675 8.325 18.675 11.325 18.675 15C18.675 18.675 15.675 21.675 12 21.675Z" fill="#161A23"/>
<path d="M12 14.85C11.55 14.85 11.1375 15.225 11.1375 15.7125V18.8625C11.1375 19.3125 11.5125 19.725 12 19.725C12.45 19.725 12.8625 19.35 12.8625 18.8625V15.7125C12.8625 15.225 12.45 14.85 12 14.85Z" fill="#161A23"/>
</svg>
