<svg width="24" height="24" viewBox="0 0 24 24" fill="none" xmlns="http://www.w3.org/2000/svg">
<path d="M16.5 7.95V5.1375C16.5 3.9375 16.05 2.8125 15.1875 1.9875C14.3625 1.125 13.2375 0.674999 12.0375 0.674999C10.65 0.674999 9.375 1.3125 8.5125 2.4C8.2125 2.775 8.2875 3.3 8.6625 3.6C9.0375 3.9 9.5625 3.825 9.8625 3.45C10.3875 2.775 11.2125 2.3625 12.075 2.3625C12.825 2.3625 13.5375 2.6625 14.0625 3.1875C14.5875 3.7125 14.8875 4.425 14.8875 5.175V7.125C14.025 6.825 13.05 6.6375 12.075 6.6375C7.4625 6.6375 3.75 10.3875 3.75 15C3.75 19.6125 7.5 23.3625 12.075 23.3625C16.6875 23.3625 20.4 19.6125 20.4 15C20.325 12.0375 18.7875 9.45 16.5 7.95ZM12 21.675C8.325 21.675 5.3625 18.675 5.3625 15C5.3625 11.325 8.3625 8.325 12 8.325C15.675 8.325 18.6375 11.325 18.6375 15C18.6375 18.675 15.675 21.675 12 21.675Z" fill="#161A23"/>
<path d="M12 14.85C11.55 14.85 11.1375 15.225 11.1375 15.7125V18.8625C11.1375 19.3125 11.5125 19.725 12 19.725C12.45 19.725 12.8625 19.35 12.8625 18.8625V15.7125C12.8625 15.225 12.45 14.85 12 14.85Z" fill="#161A23"/>
</svg>
