<svg width="24" height="24" viewBox="0 0 24 24" fill="none" xmlns="http://www.w3.org/2000/svg">
<path d="M18.9 8.21251H16.6125V5.43751C16.6125 2.88751 14.55 0.825012 12 0.825012C9.44999 0.825012 7.42499 2.88751 7.42499 5.43751V8.21251H5.13749C3.71249 8.21251 2.54999 9.33751 2.54999 10.6875V16.125C2.54999 19.9875 5.88749 23.1375 9.97499 23.1375H14.1C18.1875 23.1375 21.4875 19.95 21.4875 16.0125V10.6875C21.4875 9.33751 20.325 8.21251 18.9 8.21251ZM9.11249 5.43751C9.11249 3.82501 10.425 2.51251 12.0375 2.51251C13.65 2.51251 14.9625 3.82501 14.9625 5.43751V8.21251H9.11249V5.43751ZM19.8 16.0125C19.8 19.0125 17.25 21.45 14.1 21.45H9.97499C6.82499 21.45 4.23749 19.05 4.23749 16.125V10.6875C4.23749 10.2375 4.64999 9.90001 5.13749 9.90001H18.9C19.3875 9.90001 19.8 10.2375 19.8 10.6875V16.0125Z" fill="#161A23"/>
<path d="M13.5375 14.775H10.4625C9.78748 14.775 9.22498 15.3375 9.22498 16.0125V19.0875C9.22498 19.7625 9.78748 20.325 10.4625 20.325H13.5375C14.2125 20.325 14.775 19.7625 14.775 19.0875V16.0125C14.775 15.3375 14.2125 14.775 13.5375 14.775ZM13.0875 18.6H10.95V16.4625H13.0875V18.6Z" fill="#161A23"/>
</svg>
