<svg width="24" height="24" viewBox="0 0 24 24" fill="none" xmlns="http://www.w3.org/2000/svg">
<path d="M11.7375 13.5C11.2875 13.5 10.875 13.875 10.875 14.3625V18.2625C10.875 18.7125 11.25 19.125 11.7375 19.125C12.225 19.125 12.6 18.75 12.6 18.2625V14.3625C12.6 13.875 12.225 13.5 11.7375 13.5Z" fill="#161A23"/>
<path d="M18.375 6.4875H17.3625V4.0125C17.3625 2.1375 15.8625 0.637501 13.9875 0.637501H10.0125C8.1375 0.637501 6.6375 2.1375 6.6375 4.0125V6.4875H5.625C4.35 6.4875 3.2625 7.5375 3.2625 8.85V21C3.2625 22.275 4.3125 23.3625 5.625 23.3625H18.375C19.65 23.3625 20.7375 22.3125 20.7375 21V8.85C20.7375 7.5375 19.6875 6.4875 18.375 6.4875ZM8.325 4.0125C8.325 3.075 9.075 2.325 10.0125 2.325H14.025C14.9625 2.325 15.7125 3.075 15.7125 4.0125V6.4875H8.325V4.0125ZM19.05 21C19.05 21.375 18.75 21.675 18.375 21.675H5.625C5.25 21.675 4.95 21.375 4.95 21V8.85C4.95 8.475 5.25 8.175 5.625 8.175H18.375C18.75 8.175 19.05 8.475 19.05 8.85V21Z" fill="#161A23"/>
</svg>
