<svg width="24" height="24" viewBox="0 0 24 24" fill="none" xmlns="http://www.w3.org/2000/svg">
<g clip-path="url(#clip0_501_48301)">
<path d="M23.1 21.9L17.1 15.9C20.1375 12.2625 19.95 6.82501 16.5375 3.37501C14.775 1.61251 12.45 0.637512 9.97505 0.637512C7.46255 0.675012 5.13755 1.61251 3.37505 3.37501C1.61255 5.13751 0.675049 7.46251 0.675049 9.93751C0.675049 12.4125 1.65005 14.7375 3.41255 16.5C5.21255 18.3 7.61255 19.2 9.97505 19.2C12.075 19.2 14.2125 18.4875 15.9375 17.0625L21.9375 23.0625C22.0875 23.2125 22.3125 23.325 22.5375 23.325C22.7625 23.325 22.9875 23.25 23.1376 23.0625C23.4375 22.7625 23.4375 22.2375 23.1 21.9ZM4.57505 15.3375C3.15005 13.875 2.36255 11.9625 2.36255 9.93751C2.36255 7.91251 3.15005 6.00001 4.57505 4.57501C6.00005 3.15001 7.91255 2.36251 9.93755 2.36251C11.9625 2.36251 13.875 3.15001 15.3 4.57501C18.2625 7.53751 18.2625 12.375 15.3 15.3375C12.375 18.3 7.53755 18.3 4.57505 15.3375Z" fill="#161A23"/>
<path d="M14.2125 12.9H7.46255V6.15001C7.46255 5.70001 7.08755 5.28751 6.60005 5.28751C6.11255 5.28751 5.73755 5.66251 5.73755 6.15001V13.7625C5.73755 14.2125 6.11255 14.625 6.60005 14.625H14.2125C14.6625 14.625 15.075 14.25 15.075 13.7625C15.075 13.275 14.6625 12.9 14.2125 12.9Z" fill="#161A23"/>
<path d="M9.675 11.8875C10.125 11.8875 10.5375 11.5125 10.5375 11.025V8.32502C10.5375 7.87502 10.1625 7.46252 9.675 7.46252C9.1875 7.46252 8.8125 7.83752 8.8125 8.32502V11.025C8.85 11.475 9.225 11.8875 9.675 11.8875Z" fill="#161A23"/>
<path d="M12.6 11.8875C13.05 11.8875 13.4625 11.5125 13.4625 11.025V6.56251C13.4625 6.11251 13.0875 5.70001 12.6 5.70001C12.15 5.70001 11.7375 6.07501 11.7375 6.56251V11.025C11.775 11.475 12.15 11.8875 12.6 11.8875Z" fill="#161A23"/>
</g>
<defs>
<clipPath id="clip0_501_48301">
<rect width="24" height="24" fill="white"/>
</clipPath>
</defs>
</svg>
