<svg width="24" height="24" viewBox="0 0 24 24" fill="none" xmlns="http://www.w3.org/2000/svg">
<g clip-path="url(#clip0_501_48299)">
<path d="M23.1 21.9L17.1 15.9C20.1375 12.2625 19.95 6.82501 16.5375 3.37501C14.775 1.61251 12.45 0.637512 9.97505 0.637512C7.46255 0.675012 5.13755 1.61251 3.37505 3.37501C1.61255 5.13751 0.675049 7.46251 0.675049 9.93751C0.675049 12.4125 1.65005 14.7375 3.41255 16.5C5.21255 18.3 7.61255 19.2 9.97505 19.2C12.075 19.2 14.2125 18.4875 15.9375 17.0625L21.9375 23.0625C22.0875 23.2125 22.3125 23.325 22.5375 23.325C22.7625 23.325 22.9875 23.25 23.1376 23.0625C23.4375 22.7625 23.4375 22.2375 23.1 21.9ZM4.57505 15.3375C3.15005 13.875 2.36255 11.9625 2.36255 9.93751C2.36255 7.91251 3.15005 6.00001 4.57505 4.57501C6.00005 3.15001 7.91255 2.36251 9.93755 2.36251C11.9625 2.36251 13.875 3.15001 15.3 4.57501C18.2625 7.53751 18.2625 12.375 15.3 15.3375C12.375 18.3 7.53755 18.3 4.57505 15.3375Z" fill="#161A23"/>
<path d="M9.3001 7.91251H12.0001C12.4501 7.91251 12.8626 7.53751 12.8626 7.05001C12.8626 6.56251 12.4876 6.18751 12.0001 6.18751H11.1751V5.81251C11.1751 5.36251 10.8001 4.95001 10.3126 4.95001C9.8251 4.95001 9.4501 5.32501 9.4501 5.81251V6.18751H9.2626C7.9876 6.18751 6.9751 7.20001 6.9751 8.47501C6.9751 9.75001 7.9876 10.7625 9.2626 10.7625H10.5001C10.8376 10.7625 11.1001 11.025 11.1001 11.3625C11.1001 11.7 10.8376 11.9625 10.5001 11.9625H7.8751C7.4251 11.9625 7.0126 12.3375 7.0126 12.825C7.0126 13.275 7.3876 13.6875 7.8751 13.6875H9.5251V14.0625C9.5251 14.5125 9.9001 14.925 10.3876 14.925C10.8751 14.925 11.2501 14.55 11.2501 14.0625V13.575C12.1876 13.3125 12.9001 12.4125 12.9001 11.4C12.9001 10.125 11.8876 9.11251 10.6126 9.11251H9.3751C9.0376 9.11251 8.7751 8.85001 8.7751 8.51251C8.7751 8.17501 8.9626 7.91251 9.3001 7.91251Z" fill="#161A23"/>
</g>
<defs>
<clipPath id="clip0_501_48299">
<rect width="24" height="24" fill="white"/>
</clipPath>
</defs>
</svg>
