<svg width="23" height="23" viewBox="0 0 23 23" fill="none" xmlns="http://www.w3.org/2000/svg">
<path d="M22.425 21.2625L16.425 15.2625C19.4625 11.625 19.275 6.1875 15.8625 2.7375C14.1 0.975 11.775 0 9.3 0C6.7875 0.0375 4.4625 0.975 2.7 2.7375C0.9375 4.5 0 6.825 0 9.3C0 11.775 0.975 14.1 2.7375 15.8625C4.5375 17.6625 6.9375 18.5625 9.3 18.5625C11.4 18.5625 13.5375 17.85 15.2625 16.425L21.2625 22.425C21.4125 22.575 21.6375 22.6875 21.8625 22.6875C22.0875 22.6875 22.3125 22.6125 22.4625 22.425C22.7625 22.125 22.7625 21.6 22.425 21.2625ZM3.9 14.7C2.475 13.2375 1.6875 11.325 1.6875 9.3C1.6875 7.275 2.475 5.3625 3.9 3.9375C5.325 2.5125 7.2375 1.725 9.2625 1.725C11.2875 1.725 13.2 2.5125 14.625 3.9375C17.5875 6.9 17.5875 11.7375 14.625 14.7C11.7 17.6625 6.8625 17.6625 3.9 14.7Z" fill="#161A23"/>
<path d="M8.625 7.275H11.325C11.775 7.275 12.1875 6.9 12.1875 6.4125C12.1875 5.925 11.8125 5.55 11.325 5.55H10.5V5.175C10.5 4.725 10.125 4.3125 9.6375 4.3125C9.15 4.3125 8.775 4.6875 8.775 5.175V5.55H8.5875C7.3125 5.55 6.3 6.5625 6.3 7.8375C6.3 9.1125 7.3125 10.125 8.5875 10.125H9.825C10.1625 10.125 10.425 10.3875 10.425 10.725C10.425 11.0625 10.1625 11.325 9.825 11.325H7.2C6.75 11.325 6.3375 11.7 6.3375 12.1875C6.3375 12.6375 6.7125 13.05 7.2 13.05H8.85V13.425C8.85 13.875 9.225 14.2875 9.7125 14.2875C10.2 14.2875 10.575 13.9125 10.575 13.425V12.9375C11.5125 12.675 12.225 11.775 12.225 10.7625C12.225 9.4875 11.2125 8.475 9.9375 8.475H8.7C8.3625 8.475 8.1 8.2125 8.1 7.875C8.1 7.5375 8.2875 7.275 8.625 7.275Z" fill="#161A23"/>
</svg>
