<svg width="24" height="24" viewBox="0 0 24 24" fill="none" xmlns="http://www.w3.org/2000/svg">
<g clip-path="url(#clip0_501_47788)">
<path d="M22.65 18.8625L18.2625 14.5125C17.8125 14.0625 17.2125 13.8 16.575 13.8C16.125 13.8 15.7125 13.9125 15.3375 14.1375L13.3875 12.1875C14.3625 10.95 14.925 9.41248 14.925 7.76248C14.925 5.84998 14.175 4.04998 12.825 2.69998C11.475 1.34998 9.67501 0.599976 7.76251 0.599976C5.85001 0.599976 4.05001 1.34998 2.70001 2.69998C1.35001 4.04998 0.600006 5.84998 0.600006 7.76248C0.600006 9.67498 1.35001 11.475 2.70001 12.825C4.05001 14.175 5.85001 14.925 7.76251 14.925C9.37501 14.925 10.9125 14.4 12.1875 13.3875L14.1375 15.3375C13.9125 15.7125 13.8 16.125 13.8 16.575C13.8 17.2125 14.0625 17.8125 14.5125 18.2625L18.8625 22.6125C19.3125 23.0625 19.9125 23.325 20.55 23.325C21.1875 23.325 21.7875 23.0625 22.2375 22.6125L22.65 22.2C23.1 21.75 23.3625 21.15 23.3625 20.5125C23.3625 19.9125 23.1 19.3125 22.65 18.8625ZM3.93751 11.6625C2.92501 10.65 2.32501 9.26248 2.32501 7.79998C2.32501 6.33748 2.88751 4.98748 3.93751 3.93748C4.98751 2.88748 6.33751 2.32498 7.80001 2.32498C9.26251 2.32498 10.6125 2.88748 11.6625 3.93748C12.7125 4.98748 13.275 6.33748 13.275 7.79998C13.275 9.26248 12.7125 10.6125 11.6625 11.6625C10.6125 12.7125 9.26251 13.275 7.80001 13.275C6.33751 13.275 4.98751 12.675 3.93751 11.6625ZM21.45 21.0375L21.0375 21.45C20.775 21.7125 20.325 21.7125 20.025 21.45L15.675 17.1C15.4125 16.8375 15.4125 16.3875 15.675 16.0875L16.0875 15.675C16.2375 15.525 16.3875 15.4875 16.575 15.4875C16.7625 15.4875 16.95 15.5625 17.0625 15.675L21.4125 20.025C21.5625 20.175 21.6 20.325 21.6 20.5125C21.675 20.7375 21.6 20.925 21.45 21.0375Z" fill="#161A23"/>
<path d="M9.26251 4.76246C8.92501 5.09996 8.92501 5.62496 9.26251 5.96246C10.1625 6.86246 10.1625 8.36246 9.26251 9.26246C8.92501 9.59996 8.92501 10.125 9.26251 10.4625C9.41251 10.6125 9.63751 10.725 9.86251 10.725C10.0875 10.725 10.3125 10.65 10.4625 10.4625C11.2125 9.71246 11.625 8.69996 11.625 7.61246C11.625 6.52496 11.2125 5.54996 10.4625 4.76246C10.125 4.42496 9.56251 4.42496 9.26251 4.76246Z" fill="#161A23"/>
</g>
<defs>
<clipPath id="clip0_501_47788">
<rect width="24" height="24" fill="white"/>
</clipPath>
</defs>
</svg>
