<svg width="24" height="24" viewBox="0 0 24 24" fill="none" xmlns="http://www.w3.org/2000/svg">
<g clip-path="url(#clip0_501_41589)">
<path d="M20.3625 3.63745C16.3875 -0.300049 9.93748 -0.300049 5.99998 3.63745C4.08748 5.54995 2.99998 8.09995 2.99998 10.8375C2.99998 13.275 3.86248 15.5625 5.39998 17.4L0.899976 21.9C0.562476 22.2374 0.562476 22.7624 0.899976 23.0999C1.04998 23.2499 1.27498 23.3624 1.49998 23.3624C1.72498 23.3624 1.91248 23.2874 2.09998 23.0999L6.59998 18.5999C8.47498 20.2124 10.8375 20.9999 13.1625 20.9999C15.75 20.9999 18.375 20.0249 20.3625 18.0374C22.275 16.1249 23.325 13.575 23.325 10.875C23.325 8.09995 22.275 5.54995 20.3625 3.63745ZM7.19998 4.83745C8.84998 3.18745 11.025 2.36245 13.2 2.36245C15.075 2.36245 16.95 2.99995 18.525 4.23745L16.125 6.14995C15.375 6.78745 14.2125 6.71245 13.5 5.99995C13.05 5.54995 12.45 5.43745 12.0375 5.54995C11.85 5.58745 11.2125 5.69995 10.875 6.29995L10.3125 7.12495C9.71248 8.02495 8.51248 8.28745 7.57498 7.72495C7.01248 7.38745 6.52498 7.04995 6.03748 6.74995L5.81248 6.59995C6.22498 5.96245 6.63748 5.36245 7.19998 4.83745ZM9.89997 18.0749L9.52497 18.4499C8.66248 18.0374 7.87498 17.5124 7.16248 16.7999C6.29998 15.9374 5.66248 14.9249 5.24998 13.7999L7.64998 13.4625C8.84998 13.275 10.05 13.9874 10.5375 15.1124C10.95 16.1624 10.6875 17.3249 9.89997 18.0749ZM11.2875 19.0499C12.375 17.8124 12.7125 16.0499 12.1125 14.5125C11.325 12.6375 9.41248 11.5125 7.42498 11.8125L4.83748 12.1875C4.76248 11.7374 4.72498 11.2875 4.72498 10.8375C4.72498 9.89995 4.87498 8.99995 5.17498 8.13745C5.66248 8.43745 6.18748 8.77495 6.71248 9.11245C7.31248 9.48745 7.98748 9.67495 8.66248 9.67495C9.86248 9.67495 10.9875 9.11245 11.7375 8.02495L12.2625 7.19995H12.3C13.65 8.54995 15.75 8.66245 17.2125 7.46245L19.725 5.43745C20.25 6.03745 20.6625 6.71245 20.9625 7.46245L18 8.99995C16.2 9.97495 15.0375 11.8125 15.0375 13.8375C15.0375 15.3 15.6 16.65 16.65 17.6999C16.8 17.8499 17.0625 18.0374 17.3625 18.2249C15.4875 19.2374 13.35 19.4999 11.2875 19.0499ZM19.1625 16.7999C19.05 16.9124 18.9375 17.025 18.7875 17.1374C18.375 16.875 17.925 16.575 17.8125 16.4625C17.1 15.75 16.6875 14.8124 16.6875 13.7999C16.6875 12.4124 17.475 11.1375 18.7125 10.4625L21.4125 9.07495C21.525 9.63745 21.6 10.2375 21.6 10.8375C21.675 13.0875 20.775 15.2249 19.1625 16.7999Z" fill="#161A23"/>
</g>
<defs>
<clipPath id="clip0_501_41589">
<rect width="24" height="24" fill="white"/>
</clipPath>
</defs>
</svg>
