<svg width="24" height="24" viewBox="0 0 24 24" fill="none" xmlns="http://www.w3.org/2000/svg">
<g clip-path="url(#clip0_501_47813)">
<path d="M20.4375 3.56251C18.6 1.68751 16.1625 0.637512 13.575 0.637512C11.1375 0.637512 8.84998 1.53751 7.12498 3.26251L1.34998 9.11251C0.412476 10.05 0.412476 11.5875 1.34998 12.525L3.56248 14.7375C4.49998 15.675 6.03748 15.675 6.97498 14.7375L12.4125 9.33751C13.0875 8.66251 14.1375 8.55001 14.775 9.07501C15.1125 9.33751 15.3 9.75001 15.3375 10.2C15.375 10.725 15.15 11.2125 14.775 11.5875L9.33747 17.025C8.39998 17.9625 8.39998 19.5 9.33747 20.4375L11.55 22.65C12 23.1 12.6375 23.3625 13.2375 23.3625C13.8375 23.3625 14.475 23.1375 14.925 22.65L20.7375 16.8375C24.3 13.275 24.1875 7.35001 20.4375 3.56251ZM5.77498 13.5C5.51248 13.7625 5.02498 13.7625 4.76248 13.5L2.54998 11.2875C2.28748 11.025 2.28748 10.5375 2.54998 10.275L4.46248 8.36251L7.68748 11.5875L5.77498 13.5ZM13.725 21.45C13.4625 21.7125 12.975 21.7125 12.7125 21.45L10.5 19.2375C10.2375 18.975 10.2375 18.4875 10.5 18.225L12.4125 16.3125L15.6375 19.5375L13.725 21.45ZM19.575 15.6375L16.875 18.3375L13.65 15.1125L16.0125 12.75C16.725 12.0375 17.1 11.0625 17.0625 10.0875C17.025 9.15001 16.575 8.32501 15.8625 7.72501C15.2625 7.23751 14.55 7.01251 13.8 7.01251C12.8625 7.01251 11.925 7.38751 11.2125 8.10001L8.92498 10.3875L5.69998 7.16251L8.39998 4.46251C9.78748 3.11251 11.625 2.32501 13.6125 2.32501H13.65C15.7875 2.32501 17.775 3.18751 19.3125 4.76251C22.3125 7.87501 22.4625 12.75 19.575 15.6375Z" fill="#161A23"/>
</g>
<defs>
<clipPath id="clip0_501_47813">
<rect width="24" height="24" fill="white"/>
</clipPath>
</defs>
</svg>
