<svg width="24" height="24" viewBox="0 0 24 24" fill="none" xmlns="http://www.w3.org/2000/svg">
<path d="M17.5118 11.325C17.6618 11.2875 17.8118 11.2875 17.9993 11.325C18.0368 11.175 18.1118 10.8 18.0368 10.425C17.9243 9.90004 17.7743 9.52504 17.4743 9.56254C17.1743 9.60004 17.1743 9.97504 17.2493 10.575C17.2493 10.875 17.3993 11.175 17.5118 11.325ZM14.7743 11.775C14.9993 11.8875 15.1493 11.925 15.1868 11.8875C15.2993 11.775 15.0368 11.4 14.5493 11.2125C14.0243 10.9875 13.4243 11.0625 12.9743 11.3625C12.8243 11.475 12.6743 11.625 12.6743 11.7375C12.7118 11.8875 13.1993 11.5875 13.8368 11.5875C14.2493 11.55 14.5118 11.7 14.7743 11.775ZM14.2868 12.0375C13.7993 12.075 13.5368 12.3375 13.6118 12.5625C13.6493 12.5625 13.6493 12.6 13.8743 12.525C14.1743 12.4125 14.5118 12.375 14.8868 12.4125C15.0368 12.4125 15.1118 12.45 15.1493 12.375C15.1868 12.3 14.8118 11.9625 14.2868 12.0375ZM17.0993 12.9375C17.2493 12.5625 16.5368 12.1875 16.3493 12.5625C16.1993 12.9375 16.9493 13.275 17.0993 12.9375ZM17.8868 11.85C17.4743 11.85 17.4743 12.7125 17.8868 12.7125C18.2993 12.7125 18.2993 11.85 17.8868 11.85ZM6.59933 15.9375C6.56182 15.9375 6.29932 15.975 6.18682 15.825C5.92432 15.4125 6.74932 14.775 6.33682 13.9875C5.84932 13.0875 4.87433 13.3125 4.53682 13.6875C4.12433 14.2125 4.12433 14.8875 4.27432 14.8875C4.49933 14.925 4.49933 14.5875 4.68683 14.25C4.83683 13.95 5.32433 13.8375 5.58682 14.1C6.22433 14.5125 5.62433 15 5.69933 15.5625C5.73682 16.4625 6.63683 16.425 6.82433 16.05C6.86182 16.0125 6.82433 16.0125 6.82433 15.9375C6.74933 15.975 6.78683 15.8625 6.59933 15.9375ZM22.1243 15.075C21.9743 14.4375 21.9743 14.5875 21.7493 14.025C21.8618 13.875 22.5368 12.825 21.5993 11.7375C21.0743 11.175 19.8743 10.8375 19.4243 10.8C19.3868 10.2375 19.6868 7.72504 18.2993 6.52504C19.4243 5.40004 20.0243 4.16254 20.0243 3.07505C20.0243 1.01255 17.5493 0.45005 14.4743 1.68755L13.8743 2.02505C13.8743 2.02505 12.7118 0.86255 12.6743 0.86255C9.18682 -2.24995 -1.76318 9.97504 1.72432 12.8625L2.51182 13.5375C2.28682 14.0625 2.21182 14.7 2.28682 15.2625C2.43682 16.9875 4.12433 18.375 5.77432 18.375C8.73682 25.3125 19.6493 25.3125 22.4618 18.525C22.4993 18.3 22.9493 17.25 22.9493 16.35C22.9118 15.45 22.4243 15.075 22.1243 15.075ZM5.73682 17.5875C4.53682 17.55 3.26182 16.4625 3.14932 15.225C2.84932 12.0375 7.01183 11.325 7.53683 14.5875C7.72433 16.0875 7.27432 17.625 5.73682 17.5875ZM4.79932 11.6625C4.01182 11.8125 3.33682 12.225 2.88682 12.8625C2.62432 12.6375 2.13682 12.225 2.09932 12.1125C1.42432 10.8375 2.84932 8.32504 3.78682 6.93754C6.22433 3.45005 10.0118 0.82505 11.8118 1.31255C12.1118 1.35005 13.0868 2.47505 13.0868 2.47505C13.0868 2.47505 11.2868 3.48755 9.63683 4.83754C7.42432 6.48754 5.73682 8.96254 4.79932 11.6625ZM17.1368 16.875C17.1368 16.875 15.2993 17.175 13.5368 16.5C13.8368 15.45 14.9243 16.8 18.4868 15.75C19.2743 15.525 20.2868 15.075 21.1118 14.4375C21.2618 14.85 21.4118 15.3 21.4868 15.7125C21.6368 15.675 22.2368 15.675 22.0493 16.65C21.8993 17.6625 21.4118 18.4875 20.7368 19.275C20.2493 19.8 19.7243 20.175 19.1618 20.475C18.8618 20.625 18.4868 20.775 18.1118 20.8875C15.3743 21.7875 12.5243 20.85 11.5493 18.675C11.5118 18.525 11.3993 18.375 11.3993 18.15C10.9868 16.725 11.3618 15.075 12.4118 13.9875C12.4493 13.95 12.5618 13.8375 12.5618 13.725C12.5618 13.6875 12.5243 13.575 12.4493 13.5C12.0743 12.975 10.8743 12.075 11.0618 10.3125C11.2118 9.11254 12.3368 8.21254 13.3493 8.25004H13.6118C14.0243 8.28754 14.4743 8.28754 14.8118 8.36254C15.4493 8.40004 15.9743 8.32504 16.6118 7.80004C16.8368 7.65004 17.0243 7.50004 17.2868 7.38754C17.5493 7.35004 17.8118 7.38754 17.9618 7.50004C18.4868 7.80004 18.5243 8.66254 18.5993 9.30004C18.5993 9.67504 18.6368 10.5 18.6368 10.725C18.6743 11.25 18.7868 11.3625 19.1243 11.475C19.2743 11.5125 19.4243 11.5875 19.6493 11.625C20.3243 11.775 20.7743 12.0375 20.9618 12.2625C21.1118 12.4125 21.1868 12.5625 21.2243 12.75C21.2618 13.3125 20.7368 14.0625 19.3118 14.7C16.8743 15.825 14.4368 15.45 14.1368 15.45C13.0868 15.3 12.4868 16.65 13.1243 17.625C14.2868 19.35 19.4618 18.675 20.9993 16.5C21.0368 16.4625 20.9993 16.4625 20.9618 16.4625C18.7868 17.925 15.9368 18.4125 14.3243 17.775C14.0618 17.6625 13.5743 17.475 13.4618 16.875C15.7493 17.55 17.0993 16.9125 17.0993 16.9125C17.0993 16.9125 17.2493 16.875 17.1368 16.875ZM9.26183 6.90004C10.1618 5.88754 11.1743 4.98754 12.1493 4.53754H12.1868V4.57504C12.1493 4.72504 11.9618 4.98754 11.9243 5.21254C11.9243 5.25004 11.9243 5.25004 11.9618 5.25004C12.5243 4.83754 13.6118 4.38754 14.5118 4.35004C14.5493 4.35004 14.5493 4.35004 14.5493 4.38754V4.42504C14.3993 4.53754 14.2493 4.68754 14.1368 4.83754V4.87504C14.1368 4.87504 14.1368 4.87504 14.1743 4.87504C14.8118 4.87504 15.7118 5.10004 16.2743 5.40004C16.3118 5.43754 16.2743 5.51254 16.2368 5.43754C12.6368 4.57504 9.89933 6.37504 9.26183 6.82504C9.33683 6.86254 9.33683 6.86254 9.26183 6.90004Z" fill="#15171A"/>
</svg>
