<svg width="24" height="24" viewBox="0 0 24 24" fill="none" xmlns="http://www.w3.org/2000/svg">
<path d="M17.6625 4.72495V2.58745C17.6625 2.43745 17.775 2.36245 17.8875 2.36245H20.85C21.2999 2.36245 21.7125 1.98745 21.7125 1.49995C21.7125 1.01245 21.3375 0.637451 20.85 0.637451H17.8875C16.8375 0.637451 15.975 1.49995 15.975 2.54995V4.57495H7.31245C4.57495 4.57495 2.32495 6.82495 2.32495 9.56245V15.5999C2.32495 16.8749 3.33745 17.8874 4.61245 17.8874H12.2625V22.4999C12.2625 22.9499 12.6375 23.3624 13.125 23.3624C13.6125 23.3624 13.9875 22.9874 13.9875 22.4999V17.9249H18.4874C20.1749 17.9249 21.525 16.575 21.525 14.8875V9.44995C21.525 8.13745 21.0375 6.93745 20.1 6.03745C19.3875 5.36245 18.5625 4.91245 17.6625 4.72495ZM4.61245 16.2374C4.27495 16.2374 4.01245 15.9749 4.01245 15.6375V9.59995C4.01245 7.79995 5.47495 6.29995 7.31245 6.29995C9.18745 6.29995 10.725 7.83745 10.725 9.74995V16.2374H4.61245ZM19.7999 14.8875C19.7999 15.6375 19.2 16.2374 18.45 16.2374H12.4125V9.71245C12.4125 8.39995 11.8875 7.19995 11.1 6.29995H15.975V9.82495C15.975 10.275 16.35 10.6875 16.8375 10.6875C17.325 10.6875 17.7 10.3125 17.7 9.82495V6.48745C18.15 6.63745 18.5625 6.89995 18.9 7.23745C19.5 7.83745 19.8375 8.62495 19.8375 9.48745V14.8875H19.7999Z" fill="#161A23"/>
<path d="M8.09993 12.7874H6.03743C5.58743 12.7874 5.17493 13.1624 5.17493 13.6499C5.17493 14.1374 5.54993 14.5124 6.03743 14.5124H8.09993C8.54993 14.5124 8.96243 14.1374 8.96243 13.6499C8.96243 13.1624 8.58743 12.7874 8.09993 12.7874Z" fill="#161A23"/>
</svg>
