<svg width="24" height="24" viewBox="0 0 24 24" fill="none" xmlns="http://www.w3.org/2000/svg">
<path d="M23.3625 12.3375C23.3625 11.0625 22.3125 9.975 21 9.975H20.7375V3.8625C20.7375 3.4125 20.5875 2.9625 20.3625 2.625C20.3625 2.625 20.3625 2.625 20.3625 2.5875L20.325 2.55C20.325 2.55 20.325 2.55 20.2875 2.5125C20.25 2.475 20.25 2.4375 20.2125 2.4375C19.8375 1.875 19.125 1.5 18.375 1.5H3.03749C1.72499 1.5 0.674988 2.55 0.674988 3.8625V13.6875C0.674988 15 1.72499 16.05 3.03749 16.05H7.27499C7.31249 16.125 7.34999 16.1625 7.38749 16.2375C7.04999 16.65 6.82499 17.175 6.82499 17.7375V20.1375C6.82499 21.4125 7.87499 22.5 9.18749 22.5H21C22.275 22.5 23.3625 21.45 23.3625 20.1375V17.7375C23.3625 17.175 23.175 16.65 22.8 16.2375C23.1375 15.825 23.3625 15.3 23.3625 14.7375V12.3375ZM21.675 12.3375V14.7375C21.675 15.1125 21.375 15.4125 21 15.4125H9.18749C8.81249 15.4125 8.51249 15.1125 8.51249 14.7375V12.3375C8.51249 11.9625 8.81249 11.6625 9.18749 11.6625H21C21.375 11.6625 21.675 11.9625 21.675 12.3375ZM17.55 3.1875L11.025 6.7875C10.8375 6.9 10.575 6.9 10.3875 6.7875L3.82499 3.1875H17.55ZM2.36249 13.6875V4.3125L9.56249 8.2875C9.93749 8.475 10.3125 8.5875 10.6875 8.5875C11.0625 8.5875 11.475 8.475 11.8125 8.2875L19.0125 4.3125V9.975H9.18749C7.91249 9.975 6.82499 11.025 6.82499 12.3375V14.4H3.03749C2.66249 14.3625 2.36249 14.0625 2.36249 13.6875ZM21.675 20.1375C21.675 20.5125 21.375 20.8125 21 20.8125H9.18749C8.81249 20.8125 8.51249 20.5125 8.51249 20.1375V17.7375C8.51249 17.3625 8.81249 17.0625 9.18749 17.0625H21C21.375 17.0625 21.675 17.3625 21.675 17.7375V20.1375Z" fill="#161A23"/>
<path d="M10.9125 12.6375C10.4625 12.6375 10.05 13.0125 10.05 13.5C10.05 13.95 10.425 14.3625 10.9125 14.3625C11.4 14.3625 11.775 13.9875 11.775 13.5V13.4625C11.7375 13.0125 11.3625 12.6375 10.9125 12.6375Z" fill="#161A23"/>
<path d="M19.875 12.6375H18.15C17.7 12.6375 17.2875 13.0125 17.2875 13.5C17.2875 13.9875 17.6625 14.3625 18.15 14.3625H19.875C20.325 14.3625 20.7375 13.9875 20.7375 13.5C20.7375 13.0125 20.3625 12.6375 19.875 12.6375Z" fill="#161A23"/>
<path d="M10.9125 18.0376C10.4625 18.0376 10.05 18.4126 10.05 18.9001V18.9376C10.05 19.3876 10.425 19.8001 10.9125 19.8001C11.4 19.8001 11.775 19.4251 11.775 18.9376V18.9001C11.7375 18.4126 11.3625 18.0376 10.9125 18.0376Z" fill="#161A23"/>
<path d="M19.875 18.075H18.15C17.7 18.075 17.2875 18.45 17.2875 18.9375C17.2875 19.425 17.6625 19.8 18.15 19.8H19.875C20.325 19.8 20.7375 19.425 20.7375 18.9375C20.7375 18.45 20.3625 18.075 19.875 18.075Z" fill="#161A23"/>
</svg>
