<svg width="24" height="24" viewBox="0 0 24 24" fill="none" xmlns="http://www.w3.org/2000/svg">
<path d="M19.5751 10.65C19.5751 9.1125 18.3376 7.875 16.8001 7.875H10.4251C10.0126 7.875 9.63759 8.025 9.37509 8.325L9.11259 8.5875L8.85009 8.325C8.58759 8.0625 8.17509 7.875 7.80009 7.875H7.08759C6.00009 7.875 5.06259 8.7 4.95009 9.825L4.31259 15.75C4.27509 16.1625 4.42509 16.575 4.68759 16.9125C4.95009 17.2125 5.32509 17.4 5.73759 17.4L6.07509 21.6375C6.18759 22.8375 7.20009 23.7375 8.36259 23.7375H9.75009C10.9501 23.7375 11.9251 22.8375 12.0376 21.6375L12.8251 13.4625H16.7626C18.3001 13.4625 19.5751 12.225 19.5751 10.65ZM12.0751 11.775C11.6251 11.775 11.2876 12.1125 11.2501 12.525L10.3876 21.4875C10.3501 21.7875 10.0876 22.05 9.78759 22.05H8.40009C8.06259 22.05 7.80009 21.7875 7.80009 21.4875L7.38759 16.4625C7.35009 16.0125 6.97509 15.675 6.56259 15.675H6.03759L6.60009 9.9375C6.63759 9.675 6.82509 9.4875 7.05009 9.4875H7.68759L8.47509 10.275C8.77509 10.575 9.33759 10.575 9.67509 10.275L10.4626 9.4875H16.7626C17.3626 9.4875 17.8501 9.975 17.8501 10.6125C17.8501 11.2125 17.3626 11.7 16.7626 11.7H12.0751V11.775Z" fill="#161A23"/>
<path d="M17.6252 18.6H16.5752C16.3502 18.6 16.2002 18.45 16.2002 18.225C16.2002 18.0375 16.3877 17.85 16.5752 17.85H18.8627C19.3127 17.85 19.6877 17.475 19.6877 17.025C19.6877 16.575 19.3127 16.2 18.8627 16.2H18.3002V16.0125C18.3002 15.5625 17.9252 15.1875 17.4752 15.1875C17.0252 15.1875 16.6502 15.5625 16.6502 16.0125V16.2H16.6127C15.4877 16.2 14.5502 17.1375 14.5502 18.2625C14.5502 19.3875 15.4877 20.325 16.6127 20.325H17.6252C17.8502 20.325 18.0002 20.475 18.0002 20.7C18.0002 20.8875 17.8127 21.075 17.6252 21.075H15.3377C14.8877 21.075 14.5127 21.45 14.5127 21.9C14.5127 22.35 14.8877 22.725 15.3377 22.725H16.5752V22.9125C16.5752 23.3625 16.9502 23.7375 17.4002 23.7375C17.8502 23.7375 18.2252 23.3625 18.2252 22.9125V22.6125C19.0502 22.35 19.6127 21.5625 19.6127 20.6625C19.6877 19.5 18.7502 18.6 17.6252 18.6Z" fill="#161A23"/>
<path d="M9.3001 7.16245C11.2126 7.16245 12.7501 5.62495 12.7501 3.71245C12.7501 1.79995 11.2126 0.262451 9.3001 0.262451C7.3876 0.262451 5.8501 1.79995 5.8501 3.71245C5.8501 5.62495 7.3876 7.16245 9.3001 7.16245ZM9.3001 1.94995C10.2751 1.94995 11.0626 2.73745 11.0626 3.71245C11.0626 4.68745 10.2751 5.47495 9.3001 5.47495C8.3251 5.47495 7.5376 4.68745 7.5376 3.71245C7.5376 2.73745 8.3251 1.94995 9.3001 1.94995Z" fill="#161A23"/>
</svg>
