<svg width="24" height="24" viewBox="0 0 24 24" fill="none" xmlns="http://www.w3.org/2000/svg">
<path d="M12 0.674988C6.825 0.674988 2.625 4.72499 2.625 9.71249C2.625 13.5 7.65 19.5 10.6125 22.725C10.9875 23.1375 11.475 23.325 12 23.325C12.525 23.325 13.0125 23.1 13.3875 22.725C16.35 19.5 21.375 13.5 21.375 9.71249C21.375 4.72499 17.175 0.674988 12 0.674988ZM12.15 21.6C12.075 21.675 11.9625 21.675 11.85 21.6C8.2125 17.625 4.3125 12.45 4.3125 9.71249C4.3125 5.66249 7.7625 2.36249 12 2.36249C16.2375 2.36249 19.6875 5.66249 19.6875 9.71249C19.6875 12.45 15.7875 17.625 12.15 21.6Z" fill="#161A23"/>
<path d="M12 5.88751C9.75001 5.88751 7.91251 7.72501 7.91251 9.97501C7.91251 12.225 9.75001 14.1 12 14.1C14.25 14.1 16.0875 12.2625 16.0875 10.0125C16.0875 7.76251 14.25 5.88751 12 5.88751ZM12 12.4125C10.65 12.4125 9.60001 11.325 9.60001 10.0125C9.60001 8.70001 10.6875 7.61251 12 7.61251C13.3125 7.61251 14.4 8.70001 14.4 10.0125C14.4 11.325 13.35 12.4125 12 12.4125Z" fill="#161A23"/>
</svg>
