<svg width="24" height="24" viewBox="0 0 24 24" fill="none" xmlns="http://www.w3.org/2000/svg">
<g clip-path="url(#clip0_501_47628)">
<path d="M15.15 8.2876C15.15 6.4126 13.65 4.9126 11.775 4.9126C9.90002 4.9126 8.40002 6.4126 8.40002 8.2876C8.40002 10.1626 9.90002 11.6626 11.775 11.6626C13.65 11.6626 15.15 10.1626 15.15 8.2876ZM10.0875 8.2876C10.0875 7.3501 10.8375 6.6001 11.775 6.6001C12.7125 6.6001 13.4625 7.3501 13.4625 8.2876C13.4625 9.2251 12.7125 9.9751 11.775 9.9751C10.8375 9.9751 10.0875 9.2251 10.0875 8.2876Z" fill="#161A23"/>
<path d="M23.325 22.0875L21.7875 15.15C21.7125 14.8125 21.45 14.55 21.075 14.5125L16.6125 13.875C18.0375 11.85 19.2 9.71255 19.2 8.06255C19.2 4.08755 15.8625 0.862549 11.775 0.862549C7.68751 0.862549 4.35001 4.08755 4.35001 8.06255C4.35001 9.71255 5.51251 11.85 6.93751 13.875L2.43751 14.5125C2.06251 14.55 1.80001 14.85 1.72501 15.225L0.675014 22.1625C0.637514 22.4625 0.750014 22.7626 0.975014 22.9501C1.20001 23.1376 1.50001 23.2125 1.80001 23.1L6.75001 21.375L11.7375 23.0625C11.925 23.1375 12.1125 23.1375 12.2625 23.0625L17.25 21.375L22.2375 23.0625C22.3125 23.1 22.425 23.1 22.5 23.1C22.6875 23.1 22.9125 23.025 23.0625 22.875C23.2875 22.725 23.4 22.3876 23.325 22.0875ZM11.775 2.55005C14.9625 2.55005 17.5125 5.02505 17.5125 8.06255C17.5125 10.125 14.55 14.0625 11.775 17.1C9.00001 14.1 6.03751 10.125 6.03751 8.06255C6.03751 5.02505 8.58751 2.55005 11.775 2.55005ZM17.5125 19.6875C17.325 19.6125 17.1375 19.6125 16.9875 19.6875L12 21.375L7.01251 19.6875C6.82501 19.6125 6.63751 19.6125 6.48751 19.6875L2.55001 21.0375L3.30001 16.125L8.06251 15.4125C8.92501 16.5 9.82501 17.5125 10.5375 18.3C10.8375 18.6375 11.2875 18.8251 11.7375 18.8251C12.1875 18.8251 12.6375 18.6375 12.9375 18.3C13.65 17.5125 14.55 16.5 15.4125 15.4125L20.2875 16.125L21.375 21L17.5125 19.6875Z" fill="#161A23"/>
</g>
<defs>
<clipPath id="clip0_501_47628">
<rect width="24" height="24" fill="white"/>
</clipPath>
</defs>
</svg>
