<svg width="24" height="24" viewBox="0 0 24 24" fill="none" xmlns="http://www.w3.org/2000/svg">
<path d="M21.525 6.67501L15.975 5.40001C15.975 5.28751 16.0125 5.21251 16.0125 5.10001C16.0125 3.22501 14.5125 1.72501 12.675 1.72501C10.8 1.72501 9.30001 3.22501 9.30001 5.10001C9.30001 5.47501 9.41251 5.96251 9.63751 6.52501L8.55001 6.75001L3.63751 5.36251C2.92501 5.17501 2.17501 5.28751 1.57501 5.73751C0.975012 6.18751 0.637512 6.86251 0.637512 7.61251V18.3375C0.637512 19.3875 1.35001 20.325 2.36251 20.5875L8.28751 22.275C8.28751 22.275 8.28751 22.275 8.32501 22.275C8.40001 22.275 8.47501 22.3125 8.55001 22.3125C8.62501 22.3125 8.66251 22.3125 8.73751 22.3125L15.5625 20.8875L20.5125 22.05C20.7 22.0875 20.85 22.125 21.0375 22.125C21.5625 22.125 22.0875 21.9375 22.5 21.6C23.0625 21.15 23.4 20.475 23.4 19.7625V8.96251C23.3625 7.87501 22.6125 6.93751 21.525 6.67501ZM12.6375 3.41251C13.575 3.41251 14.2875 4.16251 14.2875 5.10001C14.2875 5.51251 13.7625 6.75001 12.6 8.55001C11.4375 6.75001 10.9125 5.55001 10.9125 5.10001C10.95 4.16251 11.7 3.41251 12.6375 3.41251ZM10.35 8.06251C10.7625 8.81251 11.25 9.56251 11.7 10.2C11.8875 10.5 12.2625 10.6875 12.6 10.6875C12.975 10.6875 13.3125 10.5 13.5 10.2C13.875 9.63751 14.2875 9.03751 14.6625 8.40001V19.275L9.37501 20.4V8.28751L10.35 8.06251ZM2.36251 18.3V7.61251C2.36251 7.38751 2.47501 7.20001 2.62501 7.08751C2.77501 6.97501 3.00001 6.93751 3.18751 6.97501L7.68751 8.25001V20.325L2.81251 18.9375C2.55001 18.8625 2.36251 18.6 2.36251 18.3ZM21.675 19.6875C21.675 19.95 21.525 20.1375 21.4125 20.2125C21.3375 20.2875 21.1125 20.4 20.85 20.325L16.35 19.275V7.20001L21.15 8.32501C21.45 8.40001 21.675 8.66251 21.675 8.96251V19.6875Z" fill="#161A23"/>
<path d="M12.7875 5.81251C12.825 5.81251 12.9 5.77501 12.9375 5.77501C12.975 5.77501 13.05 5.73751 13.0875 5.70001C13.125 5.66251 13.1625 5.62501 13.2 5.58751C13.35 5.43751 13.4625 5.21251 13.4625 4.98751C13.4625 4.76251 13.3875 4.53751 13.2 4.38751C13.1625 4.35001 13.125 4.31251 13.0875 4.27501C13.05 4.23751 12.975 4.20001 12.9375 4.20001C12.9 4.16251 12.825 4.16251 12.7875 4.16251C12.525 4.12501 12.225 4.20001 12.0375 4.38751C11.8875 4.53751 11.775 4.76251 11.775 4.98751C11.775 5.21251 11.85 5.43751 12.0375 5.58751C12.1875 5.73751 12.4125 5.85001 12.6375 5.85001C12.675 5.81251 12.75 5.81251 12.7875 5.81251Z" fill="#161A23"/>
</svg>
