<svg width="24" height="24" viewBox="0 0 24 24" fill="none" xmlns="http://www.w3.org/2000/svg">
<path d="M21.9 4.875H2.0625C1.1625 4.875 0.375 5.625 0.375 6.5625V17.475C0.375 18.3375 1.125 19.125 2.0625 19.125H21.9375C22.8375 19.125 23.625 18.375 23.625 17.4375V6.4875C23.5875 5.5875 22.8375 4.875 21.9 4.875ZM22.4625 17.475C22.4625 17.775 22.2 18.0375 21.9 18.0375H2.0625C1.7625 18.0375 1.5 17.775 1.5 17.475V6.4875C1.5 6.1875 1.7625 5.925 2.0625 5.925H21.9375C22.2375 5.925 22.5 6.1875 22.5 6.4875V17.4375H22.4625V17.475Z" fill="#15171A"/>
<path d="M18.7881 8.17493H16.5756V12.0749H14.2881L17.6631 15.7874L21.0006 12.0749H18.7881V8.17493Z" fill="#15171A"/>
<path d="M8.1744 10.9874L5.9619 8.17493H3.71191V15.7874H5.9619V11.3999L8.1744 14.1749L10.3869 11.3999V15.7874H12.6744V8.17493H10.3869L8.1744 10.9874Z" fill="#15171A"/>
</svg>
