<svg width="24" height="24" viewBox="0 0 24 24" fill="none" xmlns="http://www.w3.org/2000/svg">
<path d="M20.4378 4.95007H3.56279C1.95029 4.95007 0.675293 6.26257 0.675293 7.83757V16.1626C0.675293 17.7751 1.98779 19.0501 3.56279 19.0501H20.4378C22.0503 19.0501 23.3253 17.7376 23.3253 16.1626V7.83757C23.3628 6.22507 22.0503 4.95007 20.4378 4.95007ZM21.6753 16.1626C21.6753 16.8376 21.1128 17.3626 20.4753 17.3626H3.60029C2.92529 17.3626 2.40029 16.8001 2.40029 16.1626V7.83757C2.40029 7.16257 2.96279 6.63757 3.60029 6.63757H20.4753C21.1503 6.63757 21.6753 7.20007 21.6753 7.83757V16.1626Z" fill="#15171A"/>
<path d="M13.8378 8.40015C13.0878 8.40015 12.3753 8.62515 11.8128 9.03765C11.2878 8.66265 10.6503 8.51265 9.97529 8.51265C8.06279 8.51265 6.48779 10.0876 6.48779 12.0001C6.48779 13.9126 8.06279 15.4876 9.97529 15.4876C10.6128 15.4876 11.2503 15.3001 11.8128 14.9626C12.4128 15.3751 13.0878 15.6001 13.8378 15.6001C15.8253 15.6001 17.4378 13.9876 17.4378 12.0001C17.4378 10.0126 15.8253 8.40015 13.8378 8.40015ZM13.9128 14.7001C13.4253 14.7001 12.9753 14.5501 12.6003 14.3626C13.1628 13.7251 13.5378 12.9376 13.5378 12.0001C13.5003 11.0626 13.1628 10.2376 12.6003 9.63765C13.0128 9.41265 13.4253 9.30015 13.9128 9.30015C15.3753 9.30015 16.6128 10.5001 16.6128 12.0001C16.5753 13.5001 15.3753 14.7001 13.9128 14.7001Z" fill="#15171A"/>
</svg>
