<svg width="24" height="24" viewBox="0 0 24 24" fill="none" xmlns="http://www.w3.org/2000/svg">
<g clip-path="url(#clip0_501_44701)">
<path d="M20.625 0.675049H3.37499C1.87499 0.675049 0.674988 1.91255 0.674988 3.37505V20.55C0.674988 22.05 1.91249 23.25 3.37499 23.25H20.625C22.125 23.25 23.325 22.0125 23.325 20.55V3.41255C23.325 1.91255 22.125 0.675049 20.625 0.675049ZM21.6375 20.5875C21.6375 21.15 21.1875 21.6376 20.5875 21.6376H3.37499C2.81249 21.6376 2.32499 21.1875 2.32499 20.5875V3.41255C2.32499 2.85005 2.77499 2.36255 3.37499 2.36255H20.625C21.1875 2.36255 21.675 2.81255 21.675 3.41255V20.5875H21.6375Z" fill="#161A23"/>
<path d="M8.69999 6.4126H7.64999V5.3626C7.64999 4.9126 7.27499 4.5376 6.82499 4.5376C6.37499 4.5376 5.99999 4.9126 5.99999 5.3626V6.4126H4.87499C4.42499 6.4126 4.04999 6.7876 4.04999 7.2376C4.04999 7.6876 4.42499 8.0626 4.87499 8.0626H5.92499V9.1126C5.92499 9.5626 6.29999 9.9376 6.74999 9.9376C7.19999 9.9376 7.57499 9.5626 7.57499 9.1126V8.0626H8.62499C9.07499 8.0626 9.44999 7.6876 9.44999 7.2376C9.44999 6.7876 9.14999 6.4126 8.69999 6.4126Z" fill="#161A23"/>
<path d="M19.275 4.72505C18.9375 4.38755 18.4125 4.38755 18.075 4.72505L17.25 5.58755L16.425 4.76255C16.0875 4.42505 15.5625 4.42505 15.225 4.76255C14.8875 5.10005 14.8875 5.62505 15.225 5.96255L16.05 6.78755L15.225 7.61255C14.8875 7.95005 14.8875 8.47505 15.225 8.81255C15.375 8.96255 15.6 9.07505 15.825 9.07505C16.05 9.07505 16.2375 9.00005 16.425 8.81255L17.25 7.98755L18.075 8.81255C18.225 8.96255 18.45 9.07505 18.675 9.07505C18.9 9.07505 19.125 9.00005 19.275 8.81255C19.6125 8.47505 19.6125 7.95005 19.275 7.61255L18.45 6.75005L19.275 5.92505C19.6125 5.58755 19.6125 5.06255 19.275 4.72505Z" fill="#161A23"/>
<path d="M8.175 15.9H5.325C4.875 15.9 4.5 16.275 4.5 16.725C4.5 17.175 4.875 17.55 5.325 17.55H8.175C8.625 17.55 9 17.175 9 16.725C9 16.275 8.6625 15.9 8.175 15.9Z" fill="#161A23"/>
<path d="M18.5625 15H15.7125C15.2625 15 14.8875 15.375 14.8875 15.825C14.8875 16.275 15.2625 16.65 15.7125 16.65H18.5625C19.0125 16.65 19.3875 16.275 19.3875 15.825C19.3875 15.375 19.05 15 18.5625 15Z" fill="#161A23"/>
<path d="M18.5625 17.3625H15.7125C15.2625 17.3625 14.8875 17.7375 14.8875 18.1875C14.8875 18.6375 15.2625 19.0125 15.7125 19.0125H18.5625C19.0125 19.0125 19.3875 18.6375 19.3875 18.1875C19.3875 17.7375 19.05 17.3625 18.5625 17.3625Z" fill="#161A23"/>
</g>
<defs>
<clipPath id="clip0_501_44701">
<rect width="24" height="24" fill="white"/>
</clipPath>
</defs>
</svg>
