<svg width="24" height="24" viewBox="0 0 24 24" fill="none" xmlns="http://www.w3.org/2000/svg">
<g clip-path="url(#clip0_501_51286)">
<path d="M20.9249 0.674999H3.07495C1.72495 0.674999 0.637451 1.7625 0.637451 3.1125V6.8625C0.637451 7.3125 1.01245 7.725 1.49995 7.725C1.98745 7.725 2.36245 7.35 2.36245 6.8625V3.1125C2.36245 2.7 2.69995 2.3625 3.11245 2.3625H20.9625C21.375 2.3625 21.7125 2.7 21.7125 3.1125V6.7125H19.35C19.1625 5.55 18.15 4.6875 16.95 4.6875H13.35C12.9 4.6875 12.4875 5.0625 12.4875 5.55C12.4875 6.0375 12.8625 6.4125 13.35 6.4125H16.95C17.3625 6.4125 17.7 6.75 17.7 7.1625V17.025C17.7 17.4375 17.3625 17.775 16.95 17.775H16.575C16.125 17.775 15.7125 18.15 15.7125 18.6375C15.7125 19.125 16.0875 19.5 16.575 19.5H16.95C18.3 19.5 19.3875 18.4125 19.3875 17.0625V8.4H21.7125V11.8125C21.7125 12.2625 22.0875 12.6375 22.575 12.6375C23.0625 12.6375 23.4375 12.2625 23.4375 11.8125V3.075C23.3625 1.725 22.275 0.674999 20.9249 0.674999Z" fill="#161A23"/>
<path d="M22.4999 15.675C22.0499 15.675 21.6374 16.05 21.6374 16.5375V20.925C21.6374 21.3375 21.2999 21.675 20.8874 21.675H3.07495C2.66245 21.675 2.32495 21.3375 2.32495 20.925V16.05H4.64995V16.9125C4.64995 18.2625 5.73745 19.35 7.08745 19.35H12.7125C13.1625 19.35 13.575 18.975 13.575 18.4875C13.575 18 13.2 17.625 12.7125 17.625H7.08745C6.67495 17.625 6.33745 17.2875 6.33745 16.875V11.475C6.33745 11.025 5.96245 10.6125 5.47495 10.6125C4.98745 10.6125 4.61245 10.9875 4.61245 11.475V14.3625H2.36245V10.95C2.36245 10.5 1.94995 10.125 1.49995 10.125C1.04995 10.125 0.637451 10.5 0.637451 10.9875V20.9625C0.637451 22.3125 1.72495 23.4 3.07495 23.4H20.9249C22.2749 23.4 23.3624 22.3125 23.3624 20.9625V16.5375C23.3624 16.05 22.9499 15.675 22.4999 15.675Z" fill="#161A23"/>
<path d="M10.0499 4.65H7.0874C5.7374 4.65 4.6499 5.7375 4.6499 7.0875V7.5375C4.6499 7.9875 5.0249 8.4 5.5124 8.4C5.9999 8.4 6.3749 8.025 6.3749 7.5375V7.0875C6.3749 6.675 6.7124 6.3375 7.1249 6.3375H10.0874C10.5374 6.3375 10.9499 5.9625 10.9499 5.475C10.9499 4.9875 10.4999 4.65 10.0499 4.65Z" fill="#161A23"/>
<path d="M15.2249 11.5875C15.6749 11.5875 16.0874 11.2125 16.0874 10.725V10.35C16.0874 9 14.9999 7.9125 13.6499 7.9125H10.3499C8.99985 7.9125 7.91235 9 7.91235 10.35V13.65C7.91235 15 8.99985 16.0875 10.3499 16.0875H13.6499C14.9999 16.0875 16.0874 15 16.0874 13.65C16.0874 13.2 15.7124 12.7875 15.2249 12.7875C14.7374 12.7875 14.3624 13.1625 14.3624 13.65C14.3624 14.0625 14.0249 14.4 13.6124 14.4H10.3124C9.89985 14.4 9.56235 14.0625 9.56235 13.65V10.35C9.56235 9.9375 9.89985 9.6 10.3124 9.6H13.6124C14.0249 9.6 14.3624 9.9375 14.3624 10.35V10.725C14.3624 11.2125 14.7374 11.5875 15.2249 11.5875Z" fill="#161A23"/>
</g>
<defs>
<clipPath id="clip0_501_51286">
<rect width="24" height="24" fill="white"/>
</clipPath>
</defs>
</svg>
