<svg width="24" height="24" viewBox="0 0 24 24" fill="none" xmlns="http://www.w3.org/2000/svg">
<path d="M19.425 10.9125C19.425 9.03755 18.7125 7.31255 17.55 6.00005V3.03755C17.55 1.72505 16.5 0.675049 15.1875 0.675049H8.81251C7.50001 0.675049 6.45001 1.72505 6.45001 3.03755V6.00005C5.28751 7.31255 4.57501 9.03755 4.57501 10.9125C4.57501 12.7875 5.28751 14.5126 6.45001 15.8251V22.1625C6.45001 22.5751 6.67501 22.9501 7.01251 23.1751C7.20001 23.2875 7.38751 23.3251 7.61251 23.3251C7.80001 23.3251 7.98751 23.2875 8.13751 23.1751L11.925 21.225C11.9625 21.1875 12 21.1875 12.0375 21.225L15.825 23.1751C16.2 23.3626 16.6125 23.3626 16.95 23.1376C17.2875 22.9126 17.5125 22.5375 17.5125 22.1251V15.8251C18.7125 14.5126 19.425 12.7875 19.425 10.9125ZM8.81251 2.36255H15.15C15.525 2.36255 15.825 2.66255 15.825 3.03755V4.57505C14.7 3.90005 13.3875 3.48755 11.9625 3.48755C10.5375 3.48755 9.22501 3.90005 8.10001 4.57505V3.03755C8.13751 2.66255 8.43751 2.36255 8.81251 2.36255ZM12 5.17505C15.15 5.17505 17.7375 7.76255 17.7375 10.9125C17.7375 14.0626 15.15 16.6501 12 16.6501C8.85001 16.6501 6.26251 14.0626 6.26251 10.9125C6.26251 7.76255 8.85001 5.17505 12 5.17505ZM12.7875 19.7626C12.2625 19.5001 11.7 19.5001 11.175 19.7626L8.13751 21.3376V17.25C9.26251 17.9251 10.575 18.3376 12 18.3376C13.425 18.3376 14.7375 17.9251 15.8625 17.25V21.3001L12.7875 19.7626Z" fill="#161A23"/>
<path d="M12 14.3625C13.9125 14.3625 15.45 12.825 15.45 10.9125C15.45 9.00002 13.9125 7.46252 12 7.46252C10.0875 7.46252 8.55002 9.00002 8.55002 10.9125C8.55002 12.825 10.0875 14.3625 12 14.3625ZM12 9.15002C12.975 9.15002 13.7625 9.93752 13.7625 10.9125C13.7625 11.8875 12.975 12.675 12 12.675C11.025 12.675 10.2375 11.8875 10.2375 10.9125C10.2375 9.93752 11.025 9.15002 12 9.15002Z" fill="#161A23"/>
</svg>
