<svg width="24" height="24" viewBox="0 0 24 24" fill="none" xmlns="http://www.w3.org/2000/svg">
<path d="M21.4125 20.1L18.6375 13.2751C19.5375 11.9626 20.0625 10.425 20.0625 8.73755C20.0625 4.31255 16.4625 0.675049 12 0.675049C7.5375 0.675049 3.9375 4.27505 3.9375 8.73755C3.9375 10.425 4.4625 12.0001 5.3625 13.2751L2.5875 20.1C2.475 20.3626 2.5125 20.6625 2.7 20.9251C2.8875 21.1875 3.15 21.3001 3.45 21.2626L6.15 21.0751L7.95 23.0626C8.1 23.2501 8.325 23.3251 8.5875 23.3251C8.625 23.3251 8.7 23.3251 8.7375 23.3251C9.0375 23.2876 9.2625 23.0626 9.375 22.8001L11.8125 16.725C11.8875 16.725 11.9625 16.725 12.0375 16.725C12.1125 16.725 12.1875 16.725 12.2625 16.725L14.7 22.8001C14.8125 23.0626 15.0375 23.2501 15.3375 23.3251C15.375 23.3251 15.45 23.3251 15.4875 23.3251C15.7125 23.3251 15.9375 23.2126 16.125 23.0626L17.925 21.0751L20.625 21.2626C20.925 21.3001 21.1875 21.1501 21.375 20.9251C21.4875 20.6625 21.525 20.3626 21.4125 20.1ZM12 2.36255C15.525 2.36255 18.375 5.21255 18.375 8.73755C18.375 12.2625 15.525 15.1125 12 15.1125C8.475 15.1125 5.625 12.2625 5.625 8.73755C5.625 5.21255 8.475 2.36255 12 2.36255ZM8.2875 20.9251L7.125 19.6126C6.9375 19.4251 6.7125 19.3125 6.45 19.35L4.6875 19.4626L6.6375 14.6625C7.6125 15.5251 8.775 16.1625 10.0875 16.5001L8.2875 20.9251ZM17.5875 19.35C17.325 19.3125 17.0625 19.4251 16.9125 19.6126L15.75 20.9251L13.95 16.5001C15.2625 16.1625 16.425 15.5251 17.4 14.6625L19.35 19.4626L17.5875 19.35Z" fill="#161A23"/>
<path d="M10.5 8.92501L11.175 8.36251V11.2125C11.175 11.6625 11.55 12.0375 12 12.0375C12.45 12.0375 12.825 11.6625 12.825 11.2125V6.60001C12.825 6.26251 12.6375 5.96251 12.3375 5.85001C12.0375 5.70001 11.7 5.73751 11.4375 5.96251L9.375 7.61251C9 7.91251 8.9625 8.43751 9.2625 8.81251C9.6 9.15001 10.125 9.22501 10.5 8.92501Z" fill="#161A23"/>
</svg>
