<svg width="24" height="24" viewBox="0 0 24 24" fill="none" xmlns="http://www.w3.org/2000/svg">
<path d="M19.425 10.9125C19.425 9.03755 18.7125 7.31255 17.55 6.00005V3.03755C17.55 1.72505 16.5 0.675049 15.1875 0.675049H8.81251C7.50001 0.675049 6.45001 1.72505 6.45001 3.03755V6.00005C5.28751 7.31255 4.57501 9.03755 4.57501 10.9125C4.57501 12.7875 5.28751 14.5126 6.45001 15.8251V22.1625C6.45001 22.5751 6.67501 22.9501 7.01251 23.1751C7.20001 23.2875 7.38751 23.3251 7.61251 23.3251C7.80001 23.3251 7.98751 23.2875 8.13751 23.1751L11.925 21.225C11.9625 21.1875 12 21.1875 12.0375 21.225L15.825 23.1751C16.2 23.3626 16.6125 23.3626 16.95 23.1376C17.2875 22.9126 17.5125 22.5375 17.5125 22.1251V15.8251C18.7125 14.5126 19.425 12.7875 19.425 10.9125ZM8.81251 2.36255H15.15C15.525 2.36255 15.825 2.66255 15.825 3.03755V4.57505C14.7 3.90005 13.3875 3.48755 11.9625 3.48755C10.5375 3.48755 9.22501 3.90005 8.10001 4.57505V3.03755C8.13751 2.66255 8.43751 2.36255 8.81251 2.36255ZM12 5.17505C15.15 5.17505 17.7375 7.76255 17.7375 10.9125C17.7375 14.0626 15.15 16.6501 12 16.6501C8.85001 16.6501 6.26251 14.0626 6.26251 10.9125C6.26251 7.76255 8.85001 5.17505 12 5.17505ZM12.7875 19.7626C12.2625 19.5001 11.7 19.5001 11.175 19.7626L8.13751 21.3376V17.25C9.26251 17.9251 10.575 18.3376 12 18.3376C13.425 18.3376 14.7375 17.9251 15.8625 17.25V21.3001L12.7875 19.7626Z" fill="#161A23"/>
<path d="M8.81253 11.7001L9.07503 11.8876C9.11253 11.8876 9.11253 11.9251 9.11253 11.9626L9.00003 12.2251C8.77503 12.9751 9.00003 13.7251 9.63753 14.1751C10.275 14.6251 11.0625 14.6251 11.7 14.1751L11.9625 13.9876C12 13.9876 12.0375 13.9876 12.0375 13.9876L12.3 14.1751C12.6 14.4001 12.975 14.5126 13.35 14.5126C13.725 14.5126 14.0625 14.4001 14.4 14.1751C15.0375 13.7251 15.2625 12.9376 15.0375 12.2251L14.925 11.9251C14.925 11.8876 14.925 11.8501 14.9625 11.8501L15.225 11.6626C15.8625 11.2126 16.0875 10.4251 15.8625 9.7126C15.6375 9.0001 14.9625 8.5126 14.175 8.5126H13.875C13.8375 8.5126 13.8375 8.4751 13.8 8.4751L13.6875 8.1751C13.4625 7.4251 12.7875 6.9751 12 6.9751C11.2125 6.9751 10.575 7.4626 10.3125 8.1751L10.2 8.4751C10.2 8.5126 10.1625 8.5126 10.125 8.5126H9.82503C9.03753 8.5126 8.40003 9.0001 8.13753 9.7126C7.95003 10.4626 8.21253 11.2126 8.81253 11.7001ZM9.78753 10.2376C9.78753 10.2001 9.82503 10.2001 9.86253 10.2001H10.1625C10.9125 10.2001 11.5875 9.7126 11.85 9.0001L11.9625 8.7001C11.9625 8.6626 11.9625 8.6626 12.0375 8.6626C12.1125 8.6626 12.1125 8.7001 12.1125 8.7001L12.225 9.0001C12.45 9.7126 13.125 10.2001 13.9125 10.2001H14.2125C14.25 10.2001 14.25 10.2001 14.2875 10.2376C14.325 10.2751 14.2875 10.3126 14.25 10.3126L13.95 10.5001C13.35 10.9501 13.0875 11.7376 13.3125 12.4501L13.425 12.7501C13.425 12.7876 13.425 12.7876 13.3875 12.8251C13.35 12.8626 13.3125 12.8251 13.3125 12.8251L13.05 12.6376C12.75 12.4126 12.375 12.3001 12 12.3001C11.625 12.3001 11.2875 12.4126 10.95 12.6376L10.6875 12.8251C10.65 12.8251 10.65 12.8626 10.6125 12.8251C10.575 12.7876 10.575 12.7876 10.575 12.7501L10.6875 12.4501C10.9125 11.7376 10.65 10.9501 10.05 10.5001L9.78753 10.3126C9.78753 10.3126 9.78753 10.2751 9.78753 10.2376Z" fill="#161A23"/>
</svg>
