<svg width="24" height="24" viewBox="0 0 24 24" fill="none" xmlns="http://www.w3.org/2000/svg">
<path d="M6.9375 5.40015C10.575 5.40015 13.5 8.36265 13.5 12.0001C13.5 15.6376 10.5375 18.6001 6.9375 18.6001C3.3375 18.6001 0.375 15.6376 0.375 12.0001C0.375 8.36265 3.3375 5.40015 6.9375 5.40015ZM17.4 5.77515C19.2 5.77515 20.6625 8.58765 20.6625 12.0001C20.6625 15.4501 19.2 18.2251 17.4 18.2251C15.6 18.2251 14.1375 15.4126 14.1375 12.0001C14.1375 8.58765 15.6 5.77515 17.4 5.77515ZM22.4625 6.45015C23.1 6.45015 23.625 8.92515 23.625 12.0001C23.625 15.0751 23.1 17.5501 22.4625 17.5501C21.825 17.5501 21.3 15.0751 21.3 12.0001C21.3 8.92515 21.825 6.45015 22.4625 6.45015Z" fill="#15171A"/>
</svg>
