<svg width="24" height="24" viewBox="0 0 24 24" fill="none" xmlns="http://www.w3.org/2000/svg">
<path d="M23.3625 12.825C23.3625 11.55 22.3125 10.4625 21 10.4625H20.7375V3.37495C20.7375 2.06245 19.6875 1.01245 18.375 1.01245H3.03749C1.72499 1.01245 0.674988 2.06245 0.674988 3.37495V14.2125C0.674988 15.525 1.72499 16.575 3.03749 16.575H7.27499C7.31249 16.65 7.34999 16.6875 7.38749 16.7625C7.04999 17.175 6.82499 17.7 6.82499 18.2625V20.6625C6.82499 21.9375 7.87499 23.025 9.18749 23.025H21C22.275 23.025 23.3625 21.975 23.3625 20.6625V18.2625C23.3625 17.7 23.175 17.175 22.8 16.7625C23.1375 16.35 23.3625 15.825 23.3625 15.2625V12.825ZM21.675 12.825V15.225C21.675 15.6 21.375 15.9 21 15.9H9.18749C8.81249 15.9 8.51249 15.6 8.51249 15.225V12.825C8.51249 12.45 8.81249 12.15 9.18749 12.15H19.875C19.875 12.15 19.875 12.15 19.9125 12.15C19.95 12.15 19.9125 12.15 19.95 12.15H21C21.375 12.1875 21.675 12.45 21.675 12.825ZM19.05 3.37495V6.07495H15.7875L17.85 2.69995H18.375C18.75 2.69995 19.05 2.99995 19.05 3.37495ZM10.8375 2.69995L8.77499 6.07495H5.69999L7.76249 2.69995H10.8375ZM12.7875 2.69995H15.8625L13.8 6.07495H10.725L12.7875 2.69995ZM3.03749 2.69995H5.77499L3.71249 6.07495H2.36249V3.37495C2.36249 2.99995 2.66249 2.69995 3.03749 2.69995ZM2.36249 14.2125V7.76245H19.05V10.5H9.18749C7.91249 10.5 6.82499 11.55 6.82499 12.8625V14.925H3.03749C2.66249 14.8875 2.36249 14.5875 2.36249 14.2125ZM21.675 20.6625C21.675 21.0375 21.375 21.3375 21 21.3375H9.18749C8.81249 21.3375 8.51249 21.0375 8.51249 20.6625V18.2625C8.51249 17.8875 8.81249 17.5875 9.18749 17.5875H21C21.375 17.5875 21.675 17.8875 21.675 18.2625V20.6625Z" fill="#161A23"/>
<path d="M10.9125 13.125C10.4625 13.125 10.05 13.5 10.05 13.9875V14.025C10.05 14.475 10.425 14.8875 10.9125 14.8875C11.4 14.8875 11.775 14.5125 11.775 14.025V13.9875C11.7375 13.5 11.3625 13.125 10.9125 13.125Z" fill="#161A23"/>
<path d="M19.875 13.1625H18.15C17.7 13.1625 17.2875 13.5375 17.2875 14.025C17.2875 14.5125 17.6625 14.8875 18.15 14.8875H19.875C20.325 14.8875 20.7375 14.5125 20.7375 14.025C20.7375 13.5375 20.3625 13.1625 19.875 13.1625Z" fill="#161A23"/>
<path d="M10.9125 18.5249C10.4625 18.5249 10.05 18.8999 10.05 19.3874V19.4249C10.05 19.8749 10.425 20.2874 10.9125 20.2874C11.4 20.2874 11.775 19.9124 11.775 19.4249V19.3874C11.7375 18.8999 11.3625 18.5249 10.9125 18.5249Z" fill="#161A23"/>
<path d="M19.875 18.5625H18.15C17.7 18.5625 17.2875 18.9375 17.2875 19.425C17.2875 19.9125 17.6625 20.2875 18.15 20.2875H19.875C20.325 20.2875 20.7375 19.9125 20.7375 19.425C20.7375 18.9375 20.3625 18.5625 19.875 18.5625Z" fill="#161A23"/>
</svg>
