<svg width="24" height="24" viewBox="0 0 24 24" fill="none" xmlns="http://www.w3.org/2000/svg">
<g clip-path="url(#clip0_914_45212)">
<mask id="mask0_914_45212" style="mask-type:luminance" maskUnits="userSpaceOnUse" x="0" y="0" width="24" height="24">
<path d="M24 0H0V24H24V0Z" fill="white"/>
</mask>
<g mask="url(#mask0_914_45212)">
<path fill-rule="evenodd" clip-rule="evenodd" d="M24 11.9997C24 5.3769 18.6231 0 12.0003 0H11.9997C5.3769 0 0 5.3769 0 11.9997C0 18.6225 5.3769 23.9994 11.9997 23.9994H12.0003C18.6231 23.9994 24 18.6225 24 11.9997ZM13.2049 11.9998C13.2049 14.9496 10.8299 17.3408 7.90035 17.3408C4.97078 17.3408 2.59561 14.949 2.59561 11.9998C2.59561 9.05059 4.97059 6.65869 7.90035 6.65869C10.8301 6.65869 13.2049 9.05006 13.2049 11.9998ZM19.0242 11.9998C19.0242 14.7764 17.8366 17.0281 16.3718 17.0281C14.9069 17.0281 13.7194 14.7764 13.7194 11.9998C13.7194 9.22328 14.9067 6.97151 16.3716 6.97151C17.8365 6.97151 19.0242 9.22256 19.0242 11.9998ZM21.4044 11.9998C21.4044 14.4869 20.9868 16.5043 20.4715 16.5043C19.9563 16.5043 19.5389 14.4875 19.5389 11.9998C19.5389 9.51218 19.9565 7.49531 20.4715 7.49531C20.9867 7.49531 21.4044 9.51199 21.4044 11.9998Z" fill="#15171A"/>
</g>
</g>
<defs>
<clipPath id="clip0_914_45212">
<rect width="24" height="24" fill="white"/>
</clipPath>
</defs>
</svg>
