<svg width="24" height="24" viewBox="0 0 24 24" fill="none" xmlns="http://www.w3.org/2000/svg">
<g clip-path="url(#clip0_501_45128)">
<path d="M18.8625 1.31248C18.1875 0.78748 17.325 0.63748 16.5375 0.86248L7.23751 3.37498H2.62501C1.53751 3.37498 0.637512 4.27498 0.637512 5.36248V12.45C0.637512 13.5375 1.53751 14.4375 2.62501 14.4375H2.66251L4.05001 21.15C4.31251 22.3875 5.40001 23.2875 6.67501 23.2875H6.93751C7.76251 23.2875 8.51251 22.9125 9.03751 22.3125C9.56251 21.7125 9.75001 20.85 9.60001 20.0625L8.47501 14.625L16.5375 16.875C16.7625 16.95 17.025 16.9875 17.2875 16.9875C17.85 16.9875 18.4125 16.8 18.9 16.425C19.575 15.9 19.95 15.15 19.95 14.2875V3.44998C19.95 2.58748 19.5375 1.79998 18.8625 1.31248ZM2.32501 5.36248C2.32501 5.21248 2.43751 5.06248 2.62501 5.06248H6.71251V12.7125H2.62501C2.47501 12.7125 2.32501 12.6 2.32501 12.4125V5.36248ZM7.72501 21.1875C7.53751 21.4125 7.23751 21.5625 6.93751 21.5625H6.67501C6.18751 21.5625 5.77501 21.225 5.70001 20.775L4.38751 14.4H6.67501L7.91251 20.3625C7.98751 20.6625 7.91251 20.9625 7.72501 21.1875ZM18.2625 14.2875C18.2625 14.5875 18.1125 14.8875 17.85 15.075C17.5875 15.2625 17.2875 15.3375 16.9875 15.225L8.40001 12.825V4.83748L16.9875 2.47498C17.2875 2.39998 17.625 2.43748 17.85 2.66248C18.1125 2.84998 18.225 3.14998 18.225 3.44998V14.2875H18.2625Z" fill="#161A23"/>
<path d="M22.5 6.07495C22.05 6.07495 21.6375 6.44995 21.6375 6.93745V10.5C21.6375 10.95 22.0125 11.3625 22.5 11.3625C22.9875 11.3625 23.3625 10.9875 23.3625 10.5V6.89995C23.325 6.44995 22.95 6.07495 22.5 6.07495Z" fill="#161A23"/>
</g>
<defs>
<clipPath id="clip0_501_45128">
<rect width="24" height="24" fill="white"/>
</clipPath>
</defs>
</svg>
