<svg width="24" height="24" viewBox="0 0 24 24" fill="none" xmlns="http://www.w3.org/2000/svg">
<path d="M22.875 2.58759C22.875 1.95009 22.5375 1.42509 21.975 1.16259C21.4125 0.900093 20.775 1.01259 20.2875 1.38759C18.0375 3.33759 14.775 4.50009 12.4875 4.95009H12.45C12.375 4.95009 12.3 4.95009 12.2625 4.98759C11.7 5.02509 10.05 5.21259 5.1375 5.73759C2.85 5.96259 1.125 7.91259 1.125 10.2001C1.125 12.5251 2.85 14.4376 5.1375 14.6626C5.3625 14.7001 5.55 14.7001 5.7375 14.7376L7.05 21.0751C7.275 22.1626 8.25 22.9501 9.375 22.9501H9.675C10.3875 22.9501 11.0625 22.6501 11.5125 22.0876C11.9625 21.5251 12.15 20.8126 12 20.1001L10.9875 15.2626C11.625 15.3376 12 15.3751 12.225 15.3751C12.3 15.3751 12.375 15.4126 12.4125 15.4126H12.45C14.775 15.8626 18 17.0626 20.25 18.9751C20.55 19.2376 20.925 19.3501 21.3 19.3501C21.525 19.3501 21.75 19.3126 21.975 19.2001C22.5375 18.9376 22.875 18.4126 22.875 17.7751V2.58759ZM10.2375 21.0376C10.1625 21.1126 9.975 21.3001 9.7125 21.3001H9.375C9.0375 21.3001 8.775 21.0751 8.7 20.7751L7.5375 15.2626L9.2625 15.4126L10.3125 20.5126C10.425 20.7376 10.3125 20.9251 10.2375 21.0376ZM2.8125 10.2001C2.8125 8.77509 3.9 7.57509 5.325 7.42509C8.8125 7.05009 10.65 6.86259 11.5875 6.78759V13.6876C10.6125 13.5751 8.8125 13.3876 5.325 13.0501C3.9 12.8626 2.8125 11.6626 2.8125 10.2001ZM13.275 13.8751V6.52509C16.275 5.85009 19.1625 4.50009 21.1875 2.85009V17.5501C19.1625 15.9001 16.275 14.5501 13.275 13.8751Z" fill="#161A23"/>
</svg>
