<svg width="24" height="24" viewBox="0 0 24 24" fill="none" xmlns="http://www.w3.org/2000/svg">
<g clip-path="url(#clip0_501_49643)">
<path d="M22.2 1.49995C21.6375 0.937451 20.8875 0.637451 20.1 0.637451H20.0625C19.8375 0.637451 19.575 0.674951 19.35 0.712451L6.60002 3.86245H4.08752C2.32502 3.86245 0.900024 5.28745 0.900024 7.04995V12.5625C0.900024 13.9874 1.83752 15.1874 3.11252 15.5999L4.68752 21.9374C4.87502 22.7624 5.62502 23.3624 6.48752 23.3624H7.16252H7.20002C7.35002 23.3624 7.50002 23.3624 7.65002 23.3249C8.66252 23.0999 9.26252 22.0875 9.03753 21.0749L7.87502 16.0875L19.3875 18.9374C19.6125 19.0124 19.875 19.0124 20.1 19.0124C20.6625 19.0124 21.1875 18.8624 21.675 18.5625C22.35 18.15 22.8375 17.4749 23.025 16.6875C23.0625 16.4625 23.1 16.275 23.1 16.0125V3.63745C23.1 2.81245 22.7625 2.06245 22.2 1.49995ZM7.53752 5.39995L12 4.31245V15.3749L7.53752 14.2499V5.39995ZM2.58752 7.04995C2.58752 6.22495 3.26252 5.54995 4.08752 5.54995H5.88752V14.025H4.08752C3.26252 14.025 2.58752 13.35 2.58752 12.525V7.04995ZM7.23752 21.6374C7.23752 21.6374 7.20002 21.6374 7.16252 21.6374H6.45002C6.37502 21.6374 6.30002 21.5624 6.26252 21.4874L4.87502 15.7499H6.03752L7.38752 21.4499C7.38752 21.525 7.35002 21.6374 7.23752 21.6374ZM21.375 16.275C21.3 16.6125 21.075 16.9124 20.775 17.0999C20.475 17.2874 20.1 17.3249 19.7625 17.25L13.6875 15.7499V3.86245L19.7625 2.36245C19.875 2.32495 19.95 2.32495 20.0625 2.32495C20.4 2.32495 20.7375 2.47495 20.9625 2.69995C21.225 2.92495 21.3375 3.26245 21.375 3.59995V15.9374C21.4125 16.0875 21.375 16.1624 21.375 16.275Z" fill="#161A23"/>
</g>
<defs>
<clipPath id="clip0_501_49643">
<rect width="24" height="24" fill="white"/>
</clipPath>
</defs>
</svg>
