<svg width="24" height="24" viewBox="0 0 24 24" fill="none" xmlns="http://www.w3.org/2000/svg">
<g clip-path="url(#clip0_501_45096)">
<path d="M23.325 2.21245C23.325 1.57495 22.9875 1.04995 22.425 0.78745C21.8625 0.52495 21.1875 0.63745 20.7375 1.04995C18.375 3.07495 15 4.27495 12.6 4.76245C11.7 4.76245 4.61249 4.83745 4.31249 4.83745C3.86249 4.83745 3.48749 5.21245 3.48749 5.69995V6.37495H3.11249C1.76249 6.37495 0.674988 7.46245 0.674988 8.81245V11.5125C0.674988 12.8625 1.76249 13.9499 3.11249 13.9499H3.48749V14.6249C3.48749 15.0749 3.86249 15.4499 4.31249 15.4874C4.38749 15.4874 4.98749 15.4874 5.77499 15.4874L7.01249 21.4124C7.23749 22.5374 8.24999 23.3249 9.37499 23.3249H9.71249C10.4625 23.3249 11.1375 22.9874 11.5875 22.4249C12.0375 21.8624 12.225 21.1124 12.075 20.4L11.0625 15.4874C11.7375 15.4874 12.3 15.4874 12.525 15.4874H12.5625C15 16.0124 18.375 17.25 20.7 19.275C21 19.5375 21.375 19.65 21.75 19.65C21.975 19.65 22.2 19.6124 22.425 19.5C22.9875 19.2374 23.325 18.6749 23.325 18.0749V2.21245ZM10.275 21.375C10.2 21.4874 10.0125 21.6374 9.71249 21.6374H9.37499C9.03749 21.6374 8.73749 21.3749 8.66249 21.0374L7.49999 15.525H9.33749L10.425 20.775C10.4625 21.0749 10.35 21.2999 10.275 21.375ZM4.31249 12.2249H3.07499C2.66249 12.2249 2.32499 11.8875 2.32499 11.475V8.77495C2.32499 8.36245 2.66249 8.02495 3.07499 8.02495H4.27499C4.72499 8.02495 5.13749 7.64995 5.13749 7.16245V6.44995C7.23749 6.41245 10.1625 6.41245 11.6625 6.37495V13.7624C10.1625 13.7624 7.23749 13.7249 5.13749 13.6874V12.9749C5.13749 12.5999 4.76249 12.2249 4.31249 12.2249ZM13.3875 13.9874V6.33745C16.5 5.62495 19.5375 4.23745 21.6375 2.47495V17.8499C19.5375 16.0874 16.5 14.6624 13.3875 13.9874Z" fill="#161A23"/>
</g>
<defs>
<clipPath id="clip0_501_45096">
<rect width="24" height="24" fill="white"/>
</clipPath>
</defs>
</svg>
