<svg width="24" height="24" viewBox="0 0 24 24" fill="none" xmlns="http://www.w3.org/2000/svg">
<path d="M17.3625 11.1749H6.63749C6.18749 11.1749 5.77499 11.5499 5.77499 12.0374C5.77499 12.4874 6.14999 12.8999 6.63749 12.8999H17.4C17.85 12.8999 18.2625 12.5249 18.2625 12.0374C18.225 11.5499 17.85 11.1749 17.3625 11.1749Z" fill="#161A23"/>
<path d="M12.2625 17.5499H1.5C1.05 17.5499 0.637497 17.9249 0.637497 18.4124C0.637497 18.8999 1.0125 19.2749 1.5 19.2749H12.2625C12.7125 19.2749 13.0875 18.8999 13.0875 18.4124C13.0875 17.9249 12.7125 17.5499 12.2625 17.5499Z" fill="#161A23"/>
<path d="M22.5 4.76245H11.7375C11.2875 4.76245 10.875 5.13745 10.875 5.62495C10.875 6.11245 11.25 6.48745 11.7375 6.48745H22.5C22.95 6.48745 23.3625 6.11245 23.3625 5.62495C23.3625 5.13745 22.95 4.76245 22.5 4.76245Z" fill="#161A23"/>
</svg>
