<svg width="24" height="24" viewBox="0 0 24 24" fill="none" xmlns="http://www.w3.org/2000/svg">
<path d="M22.5 11.1749H1.50001C1.05001 11.1749 0.637512 11.5499 0.637512 12.0374C0.637512 12.4874 1.01251 12.8999 1.50001 12.8999H22.5C22.95 12.8999 23.3625 12.5249 23.3625 12.0374C23.3625 11.5499 22.95 11.1749 22.5 11.1749Z" fill="#161A23"/>
<path d="M12.2625 17.5499H1.50001C1.05001 17.5499 0.637512 17.9249 0.637512 18.4124C0.637512 18.8999 1.01251 19.2749 1.50001 19.2749H12.2625C12.7125 19.2749 13.0875 18.8999 13.0875 18.4124C13.0875 17.9249 12.7125 17.5499 12.2625 17.5499Z" fill="#161A23"/>
<path d="M11.7375 6.44998H22.5C22.95 6.44998 23.3625 6.07498 23.3625 5.58748C23.3625 5.09998 22.9875 4.72498 22.5 4.72498H11.7375C11.2875 4.72498 10.875 5.09998 10.875 5.58748C10.875 6.07498 11.2875 6.44998 11.7375 6.44998Z" fill="#161A23"/>
</svg>
