<svg width="24" height="24" viewBox="0 0 24 24" fill="none" xmlns="http://www.w3.org/2000/svg">
<path d="M22.5 11.1749H1.50001C1.05001 11.1749 0.637512 11.5499 0.637512 12.0374C0.637512 12.4874 1.01251 12.8999 1.50001 12.8999H22.5C22.95 12.8999 23.3625 12.5249 23.3625 12.0374C23.3625 11.5499 22.95 11.1749 22.5 11.1749Z" fill="#161A23"/>
<path d="M18.4125 17.5499H5.58754C5.13754 17.5499 4.72504 17.9249 4.72504 18.4124C4.72504 18.8999 5.10004 19.2749 5.58754 19.2749H18.375C18.825 19.2749 19.2375 18.8999 19.2375 18.4124C19.2375 17.9249 18.8625 17.5499 18.4125 17.5499Z" fill="#161A23"/>
<path d="M5.58754 6.44998H18.375C18.825 6.44998 19.2375 6.07498 19.2375 5.58748C19.2375 5.09998 18.8625 4.72498 18.375 4.72498H5.58754C5.13754 4.72498 4.72504 5.09998 4.72504 5.58748C4.72504 6.07498 5.13754 6.44998 5.58754 6.44998Z" fill="#161A23"/>
</svg>
