<svg width="24" height="24" viewBox="0 0 24 24" fill="none" xmlns="http://www.w3.org/2000/svg">
<g clip-path="url(#clip0_501_47511)">
<path d="M12 0.675049C5.73749 0.675049 0.674988 5.73755 0.674988 12C0.674988 18.2626 5.73749 23.3625 12 23.3625C18.2625 23.3625 23.3625 18.2626 23.3625 12C23.3625 5.73755 18.2625 0.675049 12 0.675049ZM12 21.675C6.67499 21.675 2.36249 17.325 2.36249 12C2.36249 6.67505 6.67499 2.36255 12 2.36255C17.325 2.36255 21.675 6.71255 21.675 12.0375C21.675 17.325 17.325 21.675 12 21.675Z" fill="#161A23"/>
<path d="M15.7875 6.7876H8.21248C7.76248 6.7876 7.34998 7.1626 7.34998 7.6501C7.34998 8.1376 7.72498 8.5126 8.21248 8.5126H15.75C16.2 8.5126 16.6125 8.1376 16.6125 7.6501C16.6125 7.1626 16.2375 6.7876 15.7875 6.7876Z" fill="#161A23"/>
<path d="M15.7875 11.175H8.21248C7.76248 11.175 7.34998 11.55 7.34998 12.0375C7.34998 12.4875 7.72498 12.9 8.21248 12.9H15.75C16.2 12.9 16.6125 12.525 16.6125 12.0375C16.6125 11.55 16.2375 11.175 15.7875 11.175Z" fill="#161A23"/>
<path d="M15.7875 15.5251H8.21248C7.76248 15.5251 7.34998 15.9001 7.34998 16.3876C7.34998 16.8751 7.72498 17.2501 8.21248 17.2501H15.75C16.2 17.2501 16.6125 16.8751 16.6125 16.3876C16.6125 15.9001 16.2375 15.5251 15.7875 15.5251Z" fill="#161A23"/>
</g>
<defs>
<clipPath id="clip0_501_47511">
<rect width="24" height="24" fill="white"/>
</clipPath>
</defs>
</svg>
