<svg width="24" height="24" viewBox="0 0 24 24" fill="none" xmlns="http://www.w3.org/2000/svg">
<path d="M5.1 11.1749C4.65 11.1749 4.2375 11.5499 4.2375 12.0374C4.2375 12.4874 4.6125 12.8999 5.1 12.8999H18.9375C19.3875 12.8999 19.8 12.5249 19.8 12.0374C19.8 11.5874 19.425 11.1749 18.9375 11.1749H5.1Z" fill="#161A23"/>
<path d="M22.5 17.5499H1.5C1.05 17.5499 0.637497 17.9249 0.637497 18.4124C0.637497 18.8999 1.0125 19.2749 1.5 19.2749H22.5C22.95 19.2749 23.3625 18.8999 23.3625 18.4124C23.3625 17.9249 22.95 17.5499 22.5 17.5499Z" fill="#161A23"/>
<path d="M1.5 6.44998H22.5C22.95 6.44998 23.3625 6.07498 23.3625 5.58748C23.3625 5.09998 22.9875 4.72498 22.5 4.72498H1.5C1.05 4.72498 0.637497 5.09998 0.637497 5.58748C0.637497 6.07498 1.05 6.44998 1.5 6.44998Z" fill="#161A23"/>
</svg>
