<svg width="24" height="24" viewBox="0 0 24 24" fill="none" xmlns="http://www.w3.org/2000/svg">
<g clip-path="url(#clip0_914_45220)">
<path fill-rule="evenodd" clip-rule="evenodd" d="M12 0.375C5.58 0.375 0.375 5.58 0.375 12C0.375 18.42 5.58 23.625 12 23.625C18.42 23.625 23.625 18.42 23.625 12C23.625 5.58 18.42 0.375 12 0.375ZM2.48625 6.53625C4.42125 3.1725 7.995 1.08375 11.8725 1.035L10.3687 10.9987L2.4225 17.4188C0.5175 14.0363 0.53625 9.89625 2.48625 6.53625ZM12.045 23.0212C8.15625 23.0437 4.5525 21.0037 2.565 17.6625L12.0037 13.755L21.48 17.6025C19.515 20.955 15.9187 23.0138 12.045 23.0212ZM13.5863 11.13L12.1537 1.035C14.0512 1.065 15.9113 1.5825 17.55 2.54625C19.1887 3.50625 20.55 4.875 21.5025 6.5175C23.4487 9.85875 23.49 13.965 21.6225 17.3475L13.5863 11.13Z" fill="#15171A"/>
</g>
<defs>
<clipPath id="clip0_914_45220">
<rect width="24" height="24" fill="white"/>
</clipPath>
</defs>
</svg>
