<svg width="24" height="24" viewBox="0 0 24 24" fill="none" xmlns="http://www.w3.org/2000/svg">
<path d="M23.1 11.4L18.9 7.12495C18.5625 6.78745 18.0375 6.78745 17.7 7.12495C17.3625 7.46245 17.3625 7.98745 17.7 8.32495L20.475 11.175H13.2L9.41251 4.61245C9.26251 4.34995 9.00001 4.19995 8.70001 4.19995H1.50001C1.05001 4.19995 0.637512 4.57495 0.637512 5.06245C0.637512 5.54995 1.01251 5.92495 1.50001 5.92495H8.21251L11.7375 12L8.21251 18.15H1.50001C1.05001 18.15 0.637512 18.525 0.637512 19.0125C0.637512 19.5 1.01251 19.875 1.50001 19.875H8.70001C9.00001 19.875 9.26251 19.725 9.41251 19.4625L13.2 12.9H20.475L17.6625 15.75C17.325 16.0875 17.325 16.6125 17.6625 16.95C17.8125 17.1 18.0375 17.175 18.2625 17.175C18.4875 17.175 18.7125 17.1 18.8625 16.9125L23.0625 12.6375C23.4375 12.2625 23.4375 11.7375 23.1 11.4Z" fill="#161A23"/>
</svg>
