<svg width="24" height="24" viewBox="0 0 24 24" fill="none" xmlns="http://www.w3.org/2000/svg">
<path d="M12 5.17505C11.55 5.17505 11.175 5.55005 11.175 6.00005V18C11.175 18.45 11.55 18.825 12 18.825C12.45 18.825 12.825 18.45 12.825 18V6.00005C12.825 5.55005 12.45 5.17505 12 5.17505Z" fill="#161A23"/>
<path d="M2.25005 6.11255C1.95005 5.73755 1.42505 5.70005 1.05005 6.00005C0.675049 6.30005 0.637549 6.82505 0.937549 7.20005L5.02505 12L0.975049 16.8C0.675049 17.175 0.712549 17.7 1.08755 18C1.23755 18.15 1.42505 18.1875 1.61255 18.1875C1.83755 18.1875 2.10005 18.075 2.25005 17.8875L6.75005 12.525C7.01255 12.225 7.01255 11.7375 6.75005 11.4375L2.25005 6.11255Z" fill="#161A23"/>
<path d="M18.9751 12L23.0251 7.20005C23.3251 6.82505 23.2876 6.30005 22.9126 6.00005C22.5376 5.70005 22.0126 5.73755 21.7126 6.11255L17.2501 11.475C16.9876 11.775 16.9876 12.2625 17.2501 12.5625L21.7501 17.925C21.9001 18.1125 22.1626 18.225 22.3876 18.225C22.5751 18.225 22.7626 18.15 22.9126 18.0375C23.2876 17.7375 23.3251 17.2125 23.0251 16.8375L18.9751 12Z" fill="#161A23"/>
</svg>
