<svg width="24" height="24" viewBox="0 0 24 24" fill="none" xmlns="http://www.w3.org/2000/svg">
<path d="M18 12.825H6.00005C5.55005 12.825 5.17505 12.45 5.17505 12C5.17505 11.55 5.55005 11.175 6.00005 11.175H18C18.45 11.175 18.825 11.55 18.825 12C18.825 12.45 18.45 12.825 18 12.825Z" fill="#161A23"/>
<path d="M12 6.93755C11.8125 6.93755 11.625 6.86255 11.475 6.75005L6.11255 2.25005C5.73755 1.95005 5.70005 1.42505 6.00005 1.05005C6.30005 0.675049 6.82505 0.637549 7.20005 0.937549L12 5.02505L16.8 0.975049C17.175 0.675049 17.7 0.712549 18 1.08755C18.3 1.46255 18.2625 1.98755 17.8875 2.28755L12.525 6.75005C12.375 6.90005 12.1875 6.93755 12 6.93755Z" fill="#161A23"/>
<path d="M6.63755 23.2501C6.41255 23.2501 6.15005 23.1376 6.00005 22.9501C5.70005 22.5751 5.73755 22.0501 6.11255 21.7501L11.475 17.2501C11.775 16.9876 12.2625 16.9876 12.5625 17.2501L17.925 21.7501C18.3 22.0501 18.3375 22.5751 18.0375 22.9501C17.7375 23.3251 17.2125 23.3626 16.8375 23.0626L12 18.9751L7.20005 23.0251C7.01255 23.1751 6.82505 23.2501 6.63755 23.2501Z" fill="#161A23"/>
</svg>
