<svg width="24" height="24" viewBox="0 0 24 24" fill="none" xmlns="http://www.w3.org/2000/svg">
<path d="M22.1625 13.9126H18.225C17.775 13.9126 17.3625 14.2876 17.3625 14.7751C17.3625 15.2626 17.7375 15.6376 18.225 15.6376H20.25L16.9125 18.6376C16.575 18.9376 16.5375 19.5001 16.8375 19.8376C16.9875 20.0251 17.25 20.1001 17.475 20.1001C17.6625 20.1001 17.8875 20.0251 18.0375 19.8751L21.3375 16.8751V18.7126C21.3375 19.1626 21.7125 19.5751 22.2 19.5751C22.6875 19.5751 23.0625 19.2001 23.0625 18.7126V14.7376C23.025 14.2876 22.65 13.9126 22.1625 13.9126Z" fill="#161A23"/>
<path d="M21.0375 3.9375H2.96245C1.68745 3.9375 0.637451 4.9875 0.637451 6.2625V17.625C0.637451 18.9 1.68745 19.95 2.96245 19.95H12.9375C13.3875 19.95 13.8 19.575 13.8 19.0875C13.8 18.6 13.425 18.225 12.9375 18.225H2.96245C2.62495 18.225 2.32495 17.925 2.32495 17.5875V6.675L10.725 11.775C11.1 12 11.55 12.1125 12 12.1125C12.45 12.1125 12.8625 12 13.275 11.775L21.6749 6.675V11.475C21.6749 11.925 22.0499 12.3375 22.5375 12.3375C23.025 12.3375 23.4 11.9625 23.4 11.475V6.2625C23.3625 4.9875 22.3125 3.9375 21.0375 3.9375ZM12.375 10.3125C12.15 10.4625 11.85 10.4625 11.625 10.3125L3.86245 5.625H20.1L12.375 10.3125Z" fill="#161A23"/>
</svg>
