<svg width="24" height="24" viewBox="0 0 24 24" fill="none" xmlns="http://www.w3.org/2000/svg">
<path d="M22.425 14.5875C22.0875 14.25 21.5625 14.25 21.225 14.5875L19.8375 15.975L18.45 14.5875C18.1125 14.25 17.5875 14.25 17.25 14.5875C16.9125 14.925 16.9125 15.45 17.25 15.7875L18.6375 17.175L17.25 18.5625C16.9125 18.9 16.9125 19.425 17.25 19.7625C17.4 19.9125 17.625 20.025 17.85 20.025C18.075 20.025 18.3 19.95 18.45 19.7625L19.8375 18.375L21.225 19.7625C21.375 19.9125 21.6 20.025 21.825 20.025C22.05 20.025 22.275 19.95 22.425 19.7625C22.7625 19.425 22.7625 18.9 22.425 18.5625L21.0375 17.175L22.425 15.7875C22.7625 15.45 22.7625 14.8875 22.425 14.5875Z" fill="#161A23"/>
<path d="M21.0375 4.01245H2.96245C1.68745 4.01245 0.637451 5.06245 0.637451 6.33745V17.7C0.637451 18.975 1.68745 20.025 2.96245 20.025H12.9375C13.3875 20.025 13.8 19.65 13.8 19.1625C13.8 18.675 13.425 18.3 12.9375 18.3H2.96245C2.62495 18.3 2.32495 18 2.32495 17.6625V6.71245L10.725 11.8125C11.1 12.0375 11.55 12.15 12 12.15C12.45 12.15 12.8625 12.0375 13.275 11.8125L21.6749 6.71245V11.5125C21.6749 11.9625 22.0499 12.375 22.5375 12.375C23.025 12.375 23.4 12 23.4 11.5125V6.29995C23.3625 5.02495 22.3125 4.01245 21.0375 4.01245ZM12.375 10.3875C12.15 10.5375 11.85 10.5375 11.625 10.3875L3.89995 5.69995H20.1375L12.375 10.3875Z" fill="#161A23"/>
</svg>
