<svg width="24" height="24" viewBox="0 0 24 24" fill="none" xmlns="http://www.w3.org/2000/svg">
<path d="M22.3125 14.7L19.5 13.65C19.3125 13.575 19.0875 13.575 18.9 13.65L16.0875 14.7C15.7125 14.85 15.4875 15.1875 15.5625 15.6L16.05 19.6875C16.0875 19.9875 16.275 20.25 16.5375 20.3625L18.9 21.375C19.0125 21.4125 19.125 21.45 19.2375 21.45C19.35 21.45 19.4625 21.4125 19.575 21.375L21.9375 20.3625C22.2 20.25 22.3875 19.9875 22.425 19.6875L22.9125 15.6C22.9125 15.225 22.6875 14.85 22.3125 14.7ZM20.775 19.0125L19.2 19.6875L17.625 19.0125L17.2875 16.05L19.2 15.3375L21.1125 16.05L20.775 19.0125Z" fill="#161A23"/>
<path d="M21.0375 3.5249H2.96245C1.68745 3.5249 0.637451 4.5749 0.637451 5.8499V17.2124C0.637451 18.4874 1.68745 19.5374 2.96245 19.5374H12.9375C13.3875 19.5374 13.8 19.1624 13.8 18.6749C13.8 18.1874 13.425 17.8124 12.9375 17.8124H2.96245C2.62495 17.8124 2.32495 17.5124 2.32495 17.1749V6.2624L10.725 11.3624C11.1 11.5874 11.55 11.6999 12 11.6999C12.45 11.6999 12.8625 11.5874 13.275 11.3624L21.6749 6.2624V11.0624C21.6749 11.5124 22.0499 11.9249 22.5375 11.9249C23.025 11.9249 23.4 11.5499 23.4 11.0624V5.8499C23.3625 4.5749 22.3125 3.5249 21.0375 3.5249ZM12.375 9.8999C12.15 10.0499 11.85 10.0499 11.625 9.8999L3.86245 5.2124H20.1L12.375 9.8999Z" fill="#161A23"/>
</svg>
