<svg width="24" height="24" viewBox="0 0 24 24" fill="none" xmlns="http://www.w3.org/2000/svg">
<path d="M22.1249 15.5624H20.2124V13.6499C20.2124 13.1999 19.8374 12.7874 19.3499 12.7874C18.8624 12.7874 18.4874 13.1624 18.4874 13.6499V15.5624H16.5749C16.1249 15.5624 15.7124 15.9374 15.7124 16.4249C15.7124 16.9124 16.0874 17.2874 16.5749 17.2874H18.4874V19.1999C18.4874 19.6499 18.8624 20.0624 19.3499 20.0624C19.8374 20.0624 20.2124 19.6874 20.2124 19.1999V17.2499H22.1249C22.5749 17.2499 22.9874 16.8749 22.9874 16.3874C22.9874 15.8999 22.5749 15.5624 22.1249 15.5624Z" fill="#161A23"/>
<path d="M21.0375 4.01245H2.96245C1.68745 4.01245 0.637451 5.06245 0.637451 6.33745V17.7C0.637451 18.975 1.68745 20.025 2.96245 20.025H12.9375C13.3875 20.025 13.8 19.65 13.8 19.1625C13.8 18.675 13.425 18.3 12.9375 18.3H2.96245C2.62495 18.3 2.32495 18 2.32495 17.6625V6.74995L10.725 11.85C11.1 12.075 11.55 12.1875 12 12.1875C12.45 12.1875 12.8625 12.075 13.275 11.85L21.6749 6.74995V11.55C21.6749 12 22.0499 12.4125 22.5375 12.4125C23.025 12.4125 23.4 12.0375 23.4 11.55V6.29995C23.3625 5.02495 22.3125 4.01245 21.0375 4.01245ZM12.375 10.3875C12.15 10.5375 11.85 10.5375 11.625 10.3875L3.86245 5.69995H20.1L12.375 10.3875Z" fill="#161A23"/>
</svg>
