<svg width="24" height="24" viewBox="0 0 24 24" fill="none" xmlns="http://www.w3.org/2000/svg">
<g clip-path="url(#clip0_501_49561)">
<path d="M7.42493 9.45005H16.6499C17.4749 9.45005 18.1124 8.77505 18.1124 7.98755V2.32505C18.1124 1.50005 17.4374 0.862549 16.6499 0.862549H7.42493C6.59993 0.862549 5.96243 1.53755 5.96243 2.32505V7.98755C5.92493 8.77505 6.59993 9.45005 7.42493 9.45005ZM7.61243 7.76255V3.33755L11.1749 5.51255C11.4374 5.66255 11.6999 5.73755 11.9999 5.73755C12.2624 5.73755 12.5624 5.66255 12.8249 5.51255L16.4249 3.37505V7.76255H7.61243ZM9.52493 2.51255H14.5499L12.0374 4.05005L9.52493 2.51255Z" fill="#161A23"/>
<path d="M23.325 21.075L22.1625 14.7C22.2 14.55 22.2375 14.3625 22.2375 14.175V6.03752C22.2375 5.06252 21.45 4.27502 20.5125 4.27502C20.0625 4.27502 19.65 4.65002 19.65 5.13752C19.65 5.62502 20.025 6.00002 20.5125 6.00002C20.55 6.00002 20.55 6.03752 20.55 6.07502V14.2125C20.55 14.25 20.5125 14.2875 20.5125 14.2875H3.52497C3.48747 14.2875 3.48747 14.25 3.48747 14.2125V6.03752C3.44997 6.00002 3.48747 6.00002 3.52497 6.00002C3.97497 6.00002 4.38747 5.62502 4.38747 5.13752C4.38747 4.65002 4.01247 4.27502 3.52497 4.27502C2.54997 4.27502 1.79997 5.06252 1.79997 6.03752V14.175C1.79997 14.3625 1.83747 14.55 1.87497 14.7L0.712472 21.075C0.599972 21.6 0.749972 22.125 1.08747 22.5375C1.42497 22.95 1.91247 23.175 2.39997 23.175H21.6375C22.1625 23.175 22.65 22.95 22.95 22.5375C23.2875 22.125 23.4 21.6 23.325 21.075ZM21.6375 21.45C21.6 21.4875 21.6375 21.4875 21.6375 21.45H2.36247C2.36247 21.45 2.32497 21.4125 2.36247 21.375L3.37497 15.9H3.52497H20.5125H20.6625L21.6375 21.375C21.675 21.4125 21.6375 21.45 21.6375 21.45Z" fill="#161A23"/>
</g>
<defs>
<clipPath id="clip0_501_49561">
<rect width="24" height="24" fill="white"/>
</clipPath>
</defs>
</svg>
