<svg width="24" height="24" viewBox="0 0 24 24" fill="none" xmlns="http://www.w3.org/2000/svg">
<g clip-path="url(#clip0_501_49562)">
<path d="M21.4875 5.25C21.0375 5.25 20.625 5.625 20.625 6.1125C20.625 6.6 21 6.975 21.4875 6.975C21.5625 6.975 21.6376 7.05 21.6376 7.125V16.5C21.6376 16.8375 21.375 17.1 21.0375 17.1H2.96255C2.62505 17.1 2.36255 16.8375 2.36255 16.5V7.0875C2.36255 7.0125 2.43755 6.9375 2.51255 6.9375C2.96255 6.9375 3.37505 6.5625 3.37505 6.075C3.37505 5.5875 2.96255 5.25 2.51255 5.25C1.50005 5.25 0.675049 6.075 0.675049 7.0875V16.5C0.675049 17.775 1.68755 18.7875 2.96255 18.7875H9.00005L7.46255 21.4125H5.32505C4.87505 21.4125 4.46255 21.7875 4.46255 22.275C4.46255 22.7625 4.83755 23.1375 5.32505 23.1375H18.675C19.125 23.1375 19.5375 22.7625 19.5375 22.275C19.5375 21.7875 19.1625 21.4125 18.675 21.4125H16.5375L14.9625 18.7875H21C22.275 18.7875 23.2875 17.775 23.2875 16.5V7.0875C23.3625 6.075 22.5 5.25 21.4875 5.25ZM14.5875 21.4125H9.41255L10.95 18.7875H13.05L14.5875 21.4125Z" fill="#161A23"/>
<path d="M7.3126 9.56252H16.6501C17.4751 9.56252 18.1126 8.88752 18.1126 8.10002V2.36252C18.1126 1.53752 17.4376 0.900024 16.6501 0.900024H7.3126C6.4876 0.900024 5.8501 1.57502 5.8501 2.36252V8.10002C5.8501 8.92502 6.5251 9.56252 7.3126 9.56252ZM7.5376 7.87502V3.37502L11.1751 5.58752C11.4376 5.73752 11.7001 5.81252 12.0001 5.81252C12.3001 5.81252 12.5626 5.73752 12.8251 5.58752L16.4626 3.37502V7.87502H7.5376ZM9.4501 2.58752H14.6251L12.0001 4.12502L9.4501 2.58752Z" fill="#161A23"/>
</g>
<defs>
<clipPath id="clip0_501_49562">
<rect width="24" height="24" fill="white"/>
</clipPath>
</defs>
</svg>
