<svg width="24" height="24" viewBox="0 0 24 24" fill="none" xmlns="http://www.w3.org/2000/svg">
<path d="M21.0375 3.9375H2.96245C1.68745 3.9375 0.637451 4.9875 0.637451 6.2625V17.625C0.637451 18.9 1.68745 19.95 2.96245 19.95H12.9375C13.3875 19.95 13.8 19.575 13.8 19.0875C13.8 18.6 13.425 18.225 12.9375 18.225H2.96245C2.62495 18.225 2.32495 17.925 2.32495 17.5875V6.675L10.725 11.775C11.1 12 11.55 12.1125 12 12.1125C12.45 12.1125 12.8625 12 13.275 11.775L21.6749 6.675V11.475C21.6749 11.925 22.0499 12.3375 22.5375 12.3375C23.025 12.3375 23.4 11.9625 23.4 11.475V6.2625C23.3625 4.9875 22.3125 3.9375 21.0375 3.9375ZM12.375 10.3125C12.15 10.4625 11.85 10.4625 11.625 10.3125L3.86245 5.625H20.1L12.375 10.3125Z" fill="#161A23"/>
<path d="M22.725 17.4001C22.725 17.4001 22.725 17.3626 22.725 17.3251C22.725 17.2876 22.7625 17.2501 22.7625 17.2126C22.7625 17.1751 22.7625 17.1001 22.7625 17.0626C22.7625 17.0251 22.7625 16.9501 22.7625 16.9126C22.7625 16.8751 22.725 16.8376 22.725 16.8001C22.725 16.7626 22.725 16.7626 22.725 16.7251C22.725 16.6876 22.6875 16.6501 22.6875 16.6126C22.6875 16.6126 22.6875 16.5751 22.65 16.5751C22.6125 16.5376 22.575 16.5001 22.5375 16.4626L19.725 13.6501C19.3875 13.3126 18.8625 13.3126 18.525 13.6501C18.1875 13.9876 18.1875 14.5126 18.525 14.8501L19.875 16.2001H16.125C15.675 16.2001 15.2625 16.5751 15.2625 17.0626C15.2625 17.5501 15.6375 17.9251 16.125 17.9251H19.9125L18.5625 19.2751C18.225 19.6126 18.225 20.1376 18.5625 20.4751C18.7125 20.6251 18.9375 20.7376 19.1625 20.7376C19.3875 20.7376 19.6125 20.6626 19.7625 20.4751L22.575 17.6626C22.6125 17.6251 22.65 17.5876 22.6875 17.5501C22.6875 17.5501 22.6875 17.5126 22.725 17.5126C22.6875 17.4751 22.725 17.4376 22.725 17.4001Z" fill="#161A23"/>
</svg>
