<svg width="24" height="24" viewBox="0 0 24 24" fill="none" xmlns="http://www.w3.org/2000/svg">
<path d="M21.1876 17.1C20.5876 17.1 20.0251 17.325 19.6126 17.7L18.3376 16.95C18.3751 16.95 18.4126 16.9125 18.4126 16.9125L20.0251 15.975C20.4001 16.2 20.8126 16.3125 21.2626 16.3125C22.6126 16.3125 23.7001 15.225 23.7001 13.875C23.7001 12.525 22.6126 11.4375 21.2626 11.4375C19.9126 11.4375 18.8251 12.525 18.8251 13.875C18.8251 14.1375 18.8626 14.4 18.9376 14.6625L17.6626 15.4125C17.2126 14.775 16.4626 14.3625 15.6376 14.3625C14.2876 14.3625 13.2001 15.45 13.2001 16.8C13.2001 18.15 14.2876 19.2375 15.6376 19.2375C16.3501 19.2375 17.0251 18.9375 17.4751 18.4125L18.7876 19.2C18.7501 19.275 18.7501 19.3875 18.7501 19.5C18.7501 20.85 19.8376 21.9375 21.1876 21.9375C22.5376 21.9375 23.6251 20.85 23.6251 19.5C23.6626 18.1875 22.5751 17.1 21.1876 17.1ZM21.2626 13.0875C21.6751 13.0875 22.0126 13.425 22.0126 13.8375C22.0126 14.25 21.6751 14.5875 21.2626 14.5875C20.8501 14.5875 20.5126 14.25 20.5126 13.8375C20.5126 13.425 20.8501 13.0875 21.2626 13.0875ZM15.6376 17.475C15.2251 17.475 14.8876 17.1375 14.8876 16.725C14.8876 16.3125 15.2251 15.975 15.6376 15.975C16.0501 15.975 16.3876 16.3125 16.3876 16.725C16.3876 17.1375 16.0501 17.475 15.6376 17.475ZM21.1876 20.25C20.7751 20.25 20.4376 19.9125 20.4376 19.5C20.4376 19.0875 20.7751 18.75 21.1876 18.75C21.6001 18.75 21.9376 19.0875 21.9376 19.5C21.9376 19.9125 21.6376 20.25 21.1876 20.25Z" fill="#161A23"/>
<path d="M21.525 10.0125C21.525 10.4625 21.9 10.875 22.3876 10.875C22.875 10.875 23.25 10.5 23.25 10.0125V4.7625C23.25 3.4875 22.2 2.4375 20.925 2.4375H2.62505C1.35005 2.4375 0.300049 3.4875 0.300049 4.7625V16.2375C0.300049 17.5125 1.35005 18.5625 2.62505 18.5625H9.71255C10.1625 18.5625 10.575 18.1875 10.575 17.7C10.575 17.2125 10.2 16.8375 9.71255 16.8375H2.62505C2.28755 16.8375 1.98755 16.5375 1.98755 16.2V5.175L10.5 10.35C10.875 10.575 11.325 10.6875 11.775 10.6875C12.225 10.6875 12.6375 10.575 13.05 10.35L21.5625 5.175V10.0125H21.525ZM12.15 8.8875C11.925 9.0375 11.625 9.0375 11.3625 8.8875L3.48755 4.125H19.9875L12.15 8.8875Z" fill="#161A23"/>
</svg>
