<svg width="24" height="24" viewBox="0 0 24 24" fill="none" xmlns="http://www.w3.org/2000/svg">
<path d="M22.9875 14.2126L21.225 12.4501C20.7375 11.9626 19.9875 11.9626 19.5 12.4501L15.825 16.1626C15.6375 16.3501 15.525 16.5751 15.4875 16.8001L15 19.0126C14.9625 19.2001 14.9625 19.3501 15 19.5376C15.075 19.8751 15.2625 20.1376 15.525 20.3251C15.7125 20.4751 15.975 20.5126 16.2 20.5126C16.275 20.5126 16.3875 20.5126 16.4625 20.4751L18.675 19.9876C18.9 19.9501 19.0875 19.8376 19.275 19.6501L22.9875 15.9376C23.475 15.4501 23.475 14.7001 22.9875 14.2126ZM18.1875 18.3751L16.8 18.6751L17.1 17.2876L20.4 13.9876L21.4875 15.0751L18.1875 18.3751Z" fill="#161A23"/>
<path d="M12.6375 17.4H2.96255C2.62505 17.4 2.36255 17.1375 2.36255 16.8V6.22505L10.4625 11.1375C10.8375 11.3625 11.2875 11.475 11.7 11.475C12.1125 11.475 12.5625 11.3625 12.9375 11.1375L21.0751 6.18755V10.8375C21.0751 11.2875 21.45 11.7 21.9375 11.7C22.425 11.7 22.8 11.325 22.8 10.8375V5.77505C22.8 4.50005 21.7875 3.48755 20.5126 3.48755H2.96255C1.68755 3.48755 0.675049 4.50005 0.675049 5.77505V16.8375C0.675049 18.075 1.72505 19.0875 2.96255 19.0875H12.6375C13.0875 19.0875 13.5 18.7125 13.5 18.225C13.5 17.7375 13.0875 17.4 12.6375 17.4ZM12.0375 9.71255C11.8125 9.86255 11.55 9.86255 11.325 9.71255L3.82505 5.17505H19.5L12.0375 9.71255Z" fill="#161A23"/>
</svg>
