<svg width="24" height="24" viewBox="0 0 24 24" fill="none" xmlns="http://www.w3.org/2000/svg">
<path d="M21.1874 14.8874L18.0374 17.9999L17.0249 16.9874C16.6874 16.6499 16.1624 16.6499 15.8249 16.9874C15.4874 17.3249 15.4874 17.8499 15.8249 18.1874L17.4374 19.7624C17.5874 19.9124 17.8124 19.9874 18.0374 19.9874C18.2624 19.9874 18.4499 19.9124 18.6374 19.7624L22.3874 16.0874C22.7249 15.7499 22.7249 15.2249 22.3874 14.8874C22.0499 14.5499 21.5249 14.5499 21.1874 14.8874Z" fill="#161A23"/>
<path d="M21.0375 4.01245H2.96245C1.68745 4.01245 0.637451 5.06245 0.637451 6.33745V17.7C0.637451 18.975 1.68745 20.025 2.96245 20.025H12.9375C13.3875 20.025 13.8 19.65 13.8 19.1625C13.8 18.675 13.425 18.3 12.9375 18.3H2.96245C2.62495 18.3 2.32495 18 2.32495 17.6625V6.74995L10.725 11.85C11.1 12.075 11.55 12.1875 12 12.1875C12.45 12.1875 12.8625 12.075 13.275 11.85L21.6749 6.74995V11.55C21.6749 12 22.0499 12.4125 22.5375 12.4125C23.025 12.4125 23.4 12.0375 23.4 11.55V6.29995C23.3625 5.02495 22.3125 4.01245 21.0375 4.01245ZM12.375 10.3875C12.15 10.5375 11.85 10.5375 11.625 10.3875L3.86245 5.69995H20.1375L12.375 10.3875Z" fill="#161A23"/>
</svg>
