<svg width="24" height="24" viewBox="0 0 24 24" fill="none" xmlns="http://www.w3.org/2000/svg">
<path d="M20.7 13.1249C20.4 12.7874 19.875 12.7499 19.5 13.0499C19.1625 13.3499 19.125 13.8749 19.425 14.2499L19.65 14.5124C18.525 14.2499 17.325 14.5124 16.425 15.3749C15.7875 16.0124 15.4125 16.8374 15.4125 17.7374C15.4125 18.6374 15.75 19.4624 16.3875 20.0999C17.025 20.7374 17.8875 21.0749 18.75 21.0749C19.6125 21.0749 20.475 20.7374 21.1125 20.0999C21.45 19.7624 21.45 19.2374 21.1125 18.8999C20.775 18.5624 20.25 18.5624 19.9125 18.8999C19.2375 19.5374 18.1875 19.5374 17.5125 18.8999C17.2125 18.5999 17.025 18.1874 17.025 17.7374C17.025 17.2874 17.2125 16.9124 17.5125 16.5749C18.0375 16.0499 18.8625 15.9749 19.5 16.2749L19.125 16.5749C18.7875 16.8749 18.7125 17.3999 19.0125 17.7749C19.1625 17.9624 19.425 18.0749 19.65 18.0749C19.8375 18.0749 20.025 17.9999 20.2125 17.8874L22.125 16.2749C22.3125 16.1249 22.3875 15.9374 22.425 15.7124C22.425 15.4874 22.3875 15.2624 22.2375 15.1124L20.7 13.1249Z" fill="#161A23"/>
<path d="M21.0375 3.5249H2.96245C1.68745 3.5249 0.637451 4.5749 0.637451 5.8499V17.2124C0.637451 18.4874 1.68745 19.5374 2.96245 19.5374H12.9375C13.3875 19.5374 13.8 19.1624 13.8 18.6749C13.8 18.1874 13.425 17.8124 12.9375 17.8124H2.96245C2.62495 17.8124 2.32495 17.5124 2.32495 17.1749V6.2624L10.725 11.3624C11.1 11.5874 11.55 11.6999 12 11.6999C12.45 11.6999 12.8625 11.5874 13.275 11.3624L21.6749 6.2624V11.0624C21.6749 11.5124 22.0499 11.9249 22.5375 11.9249C23.025 11.9249 23.4 11.5499 23.4 11.0624V5.8499C23.3625 4.5749 22.3125 3.5249 21.0375 3.5249ZM12.375 9.8999C12.15 10.0499 11.85 10.0499 11.625 9.8999L3.86245 5.2124H20.1L12.375 9.8999Z" fill="#161A23"/>
</svg>
