<svg width="24" height="24" viewBox="0 0 24 24" fill="none" xmlns="http://www.w3.org/2000/svg">
<path d="M7.425 18.4125C9.225 18.4125 10.725 16.95 10.725 15.1125C10.725 13.275 9.2625 11.8125 7.425 11.8125C5.625 11.8125 4.125 13.275 4.125 15.1125C4.125 16.95 5.5875 18.4125 7.425 18.4125ZM7.425 13.5375C8.325 13.5375 9.0375 14.25 9.0375 15.15C9.0375 16.05 8.325 16.7625 7.425 16.7625C6.525 16.7625 5.8125 16.05 5.8125 15.15C5.8125 14.25 6.525 13.5375 7.425 13.5375Z" fill="#161A23"/>
<path d="M7.425 19.1624C5.25 19.1624 3.15 19.9124 1.5 21.3374C1.125 21.6374 1.0875 22.1624 1.3875 22.4999C1.6875 22.8374 2.2125 22.9124 2.5875 22.6124C3.9375 21.4874 5.625 20.8499 7.425 20.8499C9.225 20.8499 10.95 21.4874 12.2625 22.6124C12.4125 22.7624 12.6 22.7999 12.825 22.7999C13.05 22.7999 13.3125 22.6874 13.4625 22.4999C13.7625 22.1624 13.725 21.5999 13.35 21.2999C11.7 19.9124 9.6 19.1624 7.425 19.1624Z" fill="#161A23"/>
<path d="M21.3 1.19995H12.225C11.4 1.19995 10.6875 1.87495 10.6875 2.73745V9.78745C10.6875 10.2375 10.95 10.65 11.3625 10.875C11.55 10.95 11.7375 11.025 11.925 11.025C12.1875 11.025 12.4125 10.95 12.6375 10.8L14.4 9.52495H21.2625C22.0875 9.52495 22.8 8.84995 22.8 7.98745V2.69995C22.8 1.87495 22.125 1.19995 21.3 1.19995ZM21.1125 7.79995H14.1375C13.95 7.79995 13.8 7.87495 13.65 7.94995L12.4125 8.84995V2.88745H21.15V7.79995H21.1125Z" fill="#161A23"/>
</svg>
