<svg width="24" height="24" viewBox="0 0 24 24" fill="none" xmlns="http://www.w3.org/2000/svg">
<g clip-path="url(#clip0_501_49670)">
<path d="M21.6374 0.600098H12.5624C11.7374 0.600098 11.0249 1.2751 11.0249 2.1376V9.1876C11.0249 9.6376 11.2874 10.0501 11.6999 10.2751C11.8874 10.3501 12.0749 10.4251 12.2624 10.4251C12.5249 10.4251 12.7499 10.3501 12.9749 10.2001L14.7374 8.9251H21.5999C22.4249 8.9251 23.1374 8.2501 23.1374 7.3876V2.1376C23.1749 1.2751 22.4624 0.600098 21.6374 0.600098ZM21.4874 7.2001H14.4749C14.2874 7.2001 14.1374 7.2751 13.9874 7.3501L12.7499 8.2501V2.2876H21.4874V7.2001Z" fill="#161A23"/>
<path d="M5.8499 15.6001C7.5374 15.6001 8.9249 14.2501 8.9249 12.6001C8.9249 10.9501 7.5374 9.6001 5.8499 9.6001C4.1624 9.6001 2.7749 10.9501 2.7749 12.6001C2.7749 14.2501 4.1624 15.6001 5.8499 15.6001ZM5.8499 11.3251C6.5999 11.3251 7.2374 11.9251 7.2374 12.6376C7.2374 13.3501 6.5999 13.9501 5.8499 13.9501C5.0999 13.9501 4.4624 13.3501 4.4624 12.6376C4.4624 11.8876 5.0999 11.3251 5.8499 11.3251Z" fill="#161A23"/>
<path d="M6.97495 16.6125H4.72495C2.58745 16.6125 0.824951 18.3375 0.824951 20.5125V22.3125C0.824951 22.9125 1.31245 23.4375 1.94995 23.4375H9.74995C10.3499 23.4375 10.875 22.95 10.875 22.3125V20.5125C10.875 18.3375 9.11245 16.6125 6.97495 16.6125ZM9.18745 21.7125H2.54995V20.475C2.54995 19.275 3.52495 18.2625 4.76245 18.2625H7.01245C8.21245 18.2625 9.22495 19.2375 9.22495 20.475V21.7125H9.18745Z" fill="#161A23"/>
</g>
<defs>
<clipPath id="clip0_501_49670">
<rect width="24" height="24" fill="white"/>
</clipPath>
</defs>
</svg>
