<svg width="24" height="24" viewBox="0 0 24 24" fill="none" xmlns="http://www.w3.org/2000/svg">
<path d="M21.0375 3.5249H2.96245C1.68745 3.5249 0.637451 4.5749 0.637451 5.8499V17.2124C0.637451 18.4874 1.68745 19.5374 2.96245 19.5374H12.9375C13.3875 19.5374 13.8 19.1624 13.8 18.6749C13.8 18.1874 13.425 17.8124 12.9375 17.8124H2.96245C2.62495 17.8124 2.32495 17.5124 2.32495 17.1749V6.2624L10.725 11.3624C11.1 11.5874 11.55 11.6999 12 11.6999C12.45 11.6999 12.8625 11.5874 13.275 11.3624L21.6749 6.2624V11.0624C21.6749 11.5124 22.0499 11.9249 22.5375 11.9249C23.025 11.9249 23.4 11.5499 23.4 11.0624V5.8499C23.3625 4.5749 22.3125 3.5249 21.0375 3.5249ZM12.375 9.8999C12.15 10.0499 11.85 10.0499 11.625 9.8999L3.86245 5.2124H20.1L12.375 9.8999Z" fill="#161A23"/>
<path d="M20.0999 12.8623C19.6124 12.8623 19.1249 13.0123 18.7124 13.2748C18.2999 13.0123 17.8124 12.8623 17.3249 12.8623C16.6124 12.8623 15.9374 13.1623 15.4499 13.6498C14.4374 14.6998 14.4374 16.3873 15.4499 17.4373L18.0749 20.1748C18.0749 20.1748 18.0749 20.1748 18.1124 20.2123C18.2624 20.3623 18.4874 20.4373 18.6749 20.4373C18.8999 20.4373 19.1249 20.3623 19.2749 20.1748L21.8999 17.4373C22.3874 16.9123 22.6499 16.2373 22.6499 15.5248C22.6499 14.8123 22.3874 14.1373 21.8999 13.6123C21.4874 13.1248 20.8124 12.8623 20.0999 12.8623ZM20.7749 16.2748L18.7499 18.3748L16.7249 16.2748C16.3499 15.8623 16.3499 15.2248 16.7249 14.8123C16.9124 14.6248 17.1374 14.5123 17.3624 14.5123C17.5874 14.5123 17.8499 14.6248 17.9999 14.8123L18.1124 14.9248C18.2624 15.0748 18.4874 15.1873 18.7124 15.1873C18.9374 15.1873 19.1624 15.0748 19.3124 14.9248L19.4249 14.8123C19.7624 14.4373 20.3624 14.4373 20.7374 14.8123C20.9249 14.9998 21.0374 15.2623 21.0374 15.5623C21.0374 15.8248 20.9624 16.0873 20.7749 16.2748Z" fill="#161A23"/>
</svg>
