<svg width="24" height="24" viewBox="0 0 24 24" fill="none" xmlns="http://www.w3.org/2000/svg">
<path d="M22.9876 13.5002L21.2251 11.7377C20.7376 11.2502 19.9876 11.2502 19.5376 11.7377L17.7376 13.5002C17.2501 13.9877 17.2876 14.7377 17.7376 15.1877L18.0376 15.4877L17.5126 16.0127L17.2126 15.7502C16.9876 15.5252 16.6876 15.4127 16.3501 15.4127C16.0126 15.4127 15.7126 15.5252 15.4876 15.7502L13.7251 17.5127C13.5001 17.7377 13.3876 18.0377 13.3876 18.3752C13.3876 18.7127 13.5001 19.0127 13.7251 19.2377L15.4876 21.0002C15.7126 21.2252 16.0126 21.3377 16.3501 21.3377C16.6876 21.3377 16.9876 21.2252 17.2126 21.0002L18.9751 19.2377C19.2001 19.0127 19.3126 18.7127 19.3126 18.3752C19.3126 18.0377 19.2001 17.7377 18.9751 17.5127L18.6751 17.2127L19.2001 16.6877L19.5001 16.9877C19.7251 17.2127 20.0251 17.3252 20.3626 17.3252C20.6626 17.3252 20.9626 17.2127 21.2251 16.9877L22.9876 15.2252C23.4751 14.7377 23.4751 13.9877 22.9876 13.5002ZM16.3501 19.4627L15.2626 18.3752L16.3501 17.2877L17.4376 18.3752L16.3501 19.4627ZM20.3626 15.4502L19.8376 14.9252L19.3126 14.4002L20.4001 13.3127L21.4876 14.4002L20.3626 15.4502Z" fill="#161A23"/>
<path d="M12.1875 16.0126H2.88755C2.58755 16.0126 2.36255 15.7876 2.36255 15.4876V5.3626L10.0875 10.0501C10.4625 10.2751 10.875 10.3876 11.2875 10.3876C11.7 10.3876 12.1125 10.2751 12.4875 10.0501L20.2125 5.3626V9.7126C20.2125 10.1626 20.5875 10.5751 21.0751 10.5751C21.5625 10.5751 21.9375 10.2001 21.9375 9.7126V4.8751C21.9375 3.6376 20.925 2.6626 19.725 2.6626H2.88755C1.65005 2.6626 0.675049 3.6751 0.675049 4.8751V15.4876C0.675049 16.7251 1.68755 17.7001 2.88755 17.7001H12.1875C12.6375 17.7001 13.0125 17.3251 13.0125 16.8376C13.0125 16.3501 12.6375 16.0126 12.1875 16.0126ZM11.625 8.6251C11.4375 8.7376 11.175 8.7376 10.95 8.6251L3.90005 4.3501H18.6376L11.625 8.6251Z" fill="#161A23"/>
</svg>
