<svg width="24" height="24" viewBox="0 0 24 24" fill="none" xmlns="http://www.w3.org/2000/svg">
<path d="M21.6 14.0999L18.3 17.0999V15.2624C18.3 14.8124 17.925 14.3999 17.4375 14.3999C16.95 14.3999 16.575 14.7749 16.575 15.2624V19.2374C16.575 19.6874 16.95 20.0999 17.4375 20.0999H21.4125C21.8625 20.0999 22.275 19.7249 22.275 19.2374C22.275 18.7499 21.9 18.3749 21.4125 18.3749H19.3875L22.725 15.3749C23.0625 15.0749 23.1 14.5124 22.8 14.1749C22.5 13.8374 21.975 13.7999 21.6 14.0999Z" fill="#161A23"/>
<path d="M21.0375 3.9375H2.96245C1.68745 3.9375 0.637451 4.9875 0.637451 6.2625V17.625C0.637451 18.9 1.68745 19.95 2.96245 19.95H12.9375C13.3875 19.95 13.8 19.575 13.8 19.0875C13.8 18.6 13.425 18.225 12.9375 18.225H2.96245C2.62495 18.225 2.32495 17.925 2.32495 17.5875V6.675L10.725 11.775C11.1 12 11.55 12.1125 12 12.1125C12.45 12.1125 12.8625 12 13.275 11.775L21.6749 6.675V11.475C21.6749 11.925 22.0499 12.3375 22.5375 12.3375C23.025 12.3375 23.4 11.9625 23.4 11.475V6.2625C23.3625 4.9875 22.3125 3.9375 21.0375 3.9375ZM12.375 10.3125C12.15 10.4625 11.85 10.4625 11.625 10.3125L3.86245 5.625H20.1L12.375 10.3125Z" fill="#161A23"/>
</svg>
