<svg width="24" height="24" viewBox="0 0 24 24" fill="none" xmlns="http://www.w3.org/2000/svg">
<path d="M21.7875 15.2625H21.45V14.325C21.45 13.4625 20.7375 12.75 19.875 12.75H18.4875C17.625 12.75 16.9125 13.4625 16.9125 14.325V15.2625H16.575C15.7125 15.2625 15 15.975 15 16.8375V19.2C15 20.0625 15.7125 20.775 16.575 20.775H21.75C22.6125 20.775 23.325 20.0625 23.325 19.2V16.8375C23.3625 15.975 22.65 15.2625 21.7875 15.2625ZM18.6 14.4375H19.7625V15.2625H18.6V14.4375ZM21.675 19.05H16.6875V16.95H21.6375V19.05H21.675Z" fill="#161A23"/>
<path d="M12.8625 18.2251H2.96245C2.62495 18.2251 2.36245 17.9626 2.36245 17.6251V6.7126L10.6875 11.7751C11.0625 12.0001 11.5125 12.1126 11.925 12.1126C12.375 12.1126 12.7875 12.0001 13.1625 11.7751L21.4874 6.7126V11.4751C21.4874 11.9251 21.8624 12.3376 22.35 12.3376C22.8375 12.3376 23.2125 11.9626 23.2125 11.4751V6.2626C23.2125 4.9876 22.2 3.9751 20.9249 3.9751H2.96245C1.68745 3.9751 0.637451 5.0251 0.637451 6.3001V17.6251C0.637451 18.9001 1.64995 19.9126 2.92495 19.9126H12.8625C13.3125 19.9126 13.725 19.5376 13.725 19.0501C13.725 18.5626 13.35 18.2251 12.8625 18.2251ZM12.3 10.3501C12.075 10.5001 11.775 10.5001 11.55 10.3501L3.86245 5.6626H19.9874L12.3 10.3501Z" fill="#161A23"/>
</svg>
