<svg width="24" height="24" viewBox="0 0 24 24" fill="none" xmlns="http://www.w3.org/2000/svg">
<path d="M18.9375 15C18.4875 15 18.075 15.375 18.075 15.8625V19.1625C18.075 19.6125 18.45 20.025 18.9375 20.025C19.425 20.025 19.8 19.65 19.8 19.1625V15.8625C19.8 15.375 19.3875 15 18.9375 15Z" fill="#161A23"/>
<path d="M18.9374 14.325C19.3723 14.325 19.7249 13.9724 19.7249 13.5375C19.7249 13.1026 19.3723 12.75 18.9374 12.75C18.5025 12.75 18.1499 13.1026 18.1499 13.5375C18.1499 13.9724 18.5025 14.325 18.9374 14.325Z" fill="#161A23"/>
<path d="M21.0375 4.01245H2.96245C1.68745 4.01245 0.637451 5.06245 0.637451 6.33745V17.7C0.637451 18.975 1.68745 20.025 2.96245 20.025H12.9375C13.3875 20.025 13.8 19.65 13.8 19.1625C13.8 18.675 13.425 18.3 12.9375 18.3H2.96245C2.62495 18.3 2.32495 18 2.32495 17.6625V6.74995L10.725 11.85C11.1 12.075 11.55 12.1875 12 12.1875C12.45 12.1875 12.8625 12.075 13.275 11.85L21.6749 6.74995V11.55C21.6749 12 22.0499 12.4125 22.5375 12.4125C23.025 12.4125 23.4 12.0375 23.4 11.55V6.29995C23.3625 5.02495 22.3125 4.01245 21.0375 4.01245ZM12.375 10.3875C12.15 10.5375 11.85 10.5375 11.625 10.3875L3.86245 5.69995H20.1L12.375 10.3875Z" fill="#161A23"/>
</svg>
