<svg width="24" height="24" viewBox="0 0 24 24" fill="none" xmlns="http://www.w3.org/2000/svg">
<path d="M18.975 12.3375C17.8875 12.3375 16.875 12.75 16.0875 13.5375C15.3 14.2875 14.8875 15.3375 14.8875 16.425C14.8875 17.5125 15.3 18.525 16.0875 19.3125C16.875 20.1 17.925 20.5125 18.975 20.5125C20.025 20.5125 21.075 20.1 21.8625 19.3125C23.4375 17.7375 23.4375 15.15 21.8625 13.5375C21.1125 12.75 20.0625 12.3375 18.975 12.3375ZM17.2875 14.7375C17.7375 14.2875 18.375 14.025 18.975 14.025C19.3125 14.025 19.65 14.1 19.95 14.25L16.8 17.4C16.65 17.1 16.575 16.7625 16.575 16.425C16.6125 15.7875 16.8375 15.1875 17.2875 14.7375ZM20.6625 18.1125C19.95 18.825 18.8625 18.975 18 18.6L21.15 15.45C21.5625 16.3125 21.4125 17.3625 20.6625 18.1125Z" fill="#161A23"/>
<path d="M21.0375 3.52502H2.96245C1.68745 3.52502 0.637451 4.57502 0.637451 5.85002V17.2125C0.637451 18.4875 1.68745 19.5375 2.96245 19.5375H12.9375C13.3875 19.5375 13.8 19.1625 13.8 18.675C13.8 18.1875 13.425 17.8125 12.9375 17.8125H2.96245C2.62495 17.8125 2.32495 17.5125 2.32495 17.175V6.26252L10.725 11.3625C11.1 11.5875 11.55 11.7 12 11.7C12.45 11.7 12.8625 11.5875 13.275 11.3625L21.6749 6.26252V11.0625C21.6749 11.5125 22.0499 11.925 22.5375 11.925C23.025 11.925 23.4 11.55 23.4 11.0625V5.85002C23.3625 4.57502 22.3125 3.52502 21.0375 3.52502ZM12.375 9.90002C12.15 10.05 11.85 10.05 11.625 9.90002L3.86245 5.21252H20.1L12.375 9.90002Z" fill="#161A23"/>
</svg>
