<svg width="24" height="24" viewBox="0 0 24 24" fill="none" xmlns="http://www.w3.org/2000/svg">
<path d="M20.775 18.2999C21.6375 16.8749 21.45 15.0374 20.25 13.7999C19.575 13.1249 18.6375 12.7124 17.6625 12.7124C16.6875 12.7124 15.75 13.0874 15.075 13.7999C13.65 15.2249 13.65 17.5499 15.075 18.9749C15.75 19.6499 16.6875 20.0624 17.6625 20.0624C18.375 20.0624 19.0125 19.8749 19.6125 19.4999L21.7125 21.4874C21.8625 21.6374 22.0875 21.7124 22.275 21.7124C22.5 21.7124 22.725 21.6374 22.875 21.4499C23.2125 21.1124 23.175 20.5874 22.8375 20.2499L20.775 18.2999ZM16.2375 17.7749C15.45 16.9874 15.45 15.7499 16.2375 14.9624C16.6125 14.5874 17.1 14.3999 17.625 14.3999C18.15 14.3999 18.6375 14.5874 19.0125 14.9624C19.8 15.7499 19.8 16.9874 19.0125 17.7749C18.6375 18.1499 18.15 18.3374 17.625 18.3374C17.1 18.3749 16.6125 18.1499 16.2375 17.7749Z" fill="#161A23"/>
<path d="M21.0375 3.5249H2.96245C1.68745 3.5249 0.637451 4.5749 0.637451 5.8499V17.2124C0.637451 18.4874 1.68745 19.5374 2.96245 19.5374H11.8125C12.2625 19.5374 12.675 19.1624 12.675 18.6749C12.675 18.1874 12.3 17.8124 11.8125 17.8124H2.96245C2.62495 17.8124 2.32495 17.5124 2.32495 17.1749V6.2624L10.725 11.3624C11.1 11.5874 11.55 11.6999 12 11.6999C12.45 11.6999 12.8625 11.5874 13.275 11.3624L21.6749 6.2624V11.0624C21.6749 11.5124 22.0499 11.9249 22.5375 11.9249C23.025 11.9249 23.4 11.5499 23.4 11.0624V5.8499C23.3625 4.5749 22.3125 3.5249 21.0375 3.5249ZM12.375 9.8999C12.15 10.0499 11.85 10.0499 11.625 9.8999L3.86245 5.2124H20.1L12.375 9.8999Z" fill="#161A23"/>
</svg>
