<svg width="24" height="24" viewBox="0 0 24 24" fill="none" xmlns="http://www.w3.org/2000/svg">
<path d="M9.41748 10.1396H10.1538L11.4058 12.4399L12.6579 10.1396H13.3783V13.9195H12.7775V11.0225L11.6797 13.0285H11.1161L10.0182 11.0225V13.9195H9.41748V10.1396Z" fill="#15171A"/>
<path d="M15.3152 13.9868C15.037 13.9868 14.7924 13.9242 14.5815 13.7991C14.3706 13.674 14.2062 13.5008 14.0884 13.2794C13.9705 13.058 13.9116 12.8042 13.9116 12.518C13.9116 12.2282 13.9692 11.9717 14.0844 11.7485C14.1996 11.5254 14.3595 11.3508 14.5642 11.2248C14.7689 11.0988 15.0042 11.0358 15.27 11.0358C15.5341 11.0358 15.7613 11.0992 15.9518 11.2261C16.1423 11.353 16.289 11.5308 16.3918 11.7593C16.4946 11.9879 16.546 12.2561 16.546 12.5639V12.7313H14.507C14.5443 12.9617 14.636 13.143 14.7822 13.2753C14.9284 13.4076 15.1132 13.4738 15.3365 13.4737C15.5154 13.4737 15.6696 13.4468 15.799 13.3928C15.9284 13.3388 16.0498 13.2569 16.1632 13.1471L16.4822 13.544C16.165 13.8392 15.7759 13.9868 15.3152 13.9868ZM15.7538 11.7445C15.628 11.614 15.4631 11.5488 15.2594 11.5487C15.0609 11.5487 14.8947 11.6153 14.761 11.7485C14.6271 11.8817 14.5425 12.0608 14.507 12.2858H15.9691C15.9514 12.0554 15.8797 11.875 15.7538 11.7445Z" fill="#15171A"/>
<path d="M17.2756 11.603H16.7227V11.1035H17.2756V10.2773H17.8551V11.1035H18.6951V11.603H17.8551V12.8692C17.8551 13.0798 17.8905 13.2301 17.9614 13.3201C18.0323 13.4101 18.1537 13.4551 18.3256 13.4551C18.4018 13.4551 18.4665 13.4519 18.5197 13.4456C18.5729 13.4393 18.6313 13.4308 18.6951 13.42V13.9141C18.6223 13.9354 18.5482 13.9516 18.4732 13.9626C18.3873 13.9754 18.3007 13.9818 18.214 13.9815C17.5883 13.9815 17.2756 13.6342 17.2756 12.9394V11.603Z" fill="#15171A"/>
<path d="M21.7146 13.9192H21.1457V13.525C21.0447 13.6727 20.9162 13.7865 20.7603 13.8666C20.6043 13.9466 20.4271 13.9867 20.2286 13.9867C19.984 13.9867 19.7674 13.9233 19.5786 13.7964C19.3899 13.6695 19.2415 13.4949 19.1334 13.2726C19.0253 13.0503 18.9712 12.7961 18.9712 12.5099C18.9712 12.2219 19.0262 11.9672 19.136 11.7458C19.2459 11.5244 19.3979 11.3508 19.5919 11.2247C19.786 11.0988 20.0088 11.0358 20.2605 11.0358C20.4501 11.0358 20.6202 11.0731 20.7709 11.1478C20.9195 11.2208 21.0482 11.3297 21.1457 11.465V11.1033H21.7146V13.9192ZM21.1351 12.0887C21.073 11.9285 20.9751 11.8021 20.8413 11.7093C20.7075 11.6167 20.5529 11.5703 20.3774 11.5703C20.1293 11.5703 19.9317 11.6549 19.7846 11.8241C19.6375 11.9933 19.564 12.2219 19.564 12.5099C19.564 12.7997 19.6349 13.0292 19.7767 13.1984C19.9184 13.3676 20.1107 13.4522 20.3535 13.4522C20.5325 13.4522 20.692 13.4054 20.832 13.3117C20.972 13.2182 21.073 13.0922 21.1351 12.9338V12.0887Z" fill="#15171A"/>
<path d="M6.5136 10.0118C6.03049 10.0118 5.65282 10.3814 5.31097 10.8508C4.84117 10.2433 4.44829 10.0118 3.97815 10.0118C3.0196 10.0118 2.28516 11.2788 2.28516 12.6198C2.28516 13.459 2.68488 13.9882 3.35442 13.9882C3.83629 13.9882 4.1829 13.7575 4.79899 12.6637C4.79899 12.6637 5.05583 12.203 5.23249 11.8858C5.29444 11.9873 5.35961 12.0967 5.42813 12.214L5.71706 12.7076C6.27986 13.6641 6.5934 13.9882 7.16164 13.9882C7.81388 13.9882 8.17688 13.4517 8.17688 12.5951C8.17688 11.191 7.4259 10.0118 6.5136 10.0118ZM4.32919 12.3675C3.82965 13.1628 3.65683 13.3411 3.37872 13.3411C3.0925 13.3411 2.92239 13.0858 2.92239 12.6308C2.92239 11.6572 3.40032 10.6618 3.97005 10.6618C4.27856 10.6618 4.53638 10.8427 4.93132 11.4169C4.55632 12.0011 4.32919 12.3675 4.32919 12.3675ZM6.21446 12.2674L5.86901 11.6823C5.77552 11.5279 5.68571 11.3857 5.5995 11.2559C5.91086 10.7678 6.16766 10.5247 6.4731 10.5247C7.1076 10.5247 7.61527 11.4735 7.61527 12.639C7.61527 13.0833 7.47195 13.3411 7.17514 13.3411C6.89062 13.3411 6.75469 13.1502 6.21446 12.2674Z" fill="#15171A"/>
</svg>
