<svg width="24" height="24" viewBox="0 0 24 24" fill="none" xmlns="http://www.w3.org/2000/svg">
<path d="M16.7347 4.77319C14.9513 4.77319 13.5572 6.11644 12.2952 7.82277C10.5609 5.61462 9.11055 4.77319 7.3749 4.77319C3.83629 4.77319 1.125 9.37838 1.125 14.2527C1.125 17.3029 2.60064 19.2267 5.07229 19.2267C6.85125 19.2267 8.13064 18.388 10.4051 14.4122C10.4051 14.4122 11.3532 12.7379 12.0055 11.5845C12.234 11.9535 12.4748 12.3512 12.7276 12.7775L13.7942 14.5717C15.8719 18.0484 17.0295 19.2267 19.1271 19.2267C21.535 19.2267 22.875 17.2766 22.875 14.163C22.875 9.05941 20.1026 4.77319 16.7347 4.77319ZM8.67071 13.3356C6.82665 16.2263 6.1887 16.8743 5.16202 16.8743C4.10542 16.8743 3.47743 15.9467 3.47743 14.2926C3.47743 10.754 5.24175 7.13558 7.34497 7.13558C8.48392 7.13558 9.43575 7.79337 10.8936 9.88051C9.50929 12.0039 8.67071 13.3356 8.67071 13.3356ZM15.6305 12.9717L14.3553 10.8449C14.0101 10.2837 13.6785 9.76707 13.3603 9.29509C14.5096 7.52112 15.4577 6.63721 16.5852 6.63721C18.9277 6.63721 20.8017 10.0861 20.8017 14.3225C20.8017 15.9373 20.2728 16.8743 19.1769 16.8743C18.1266 16.8743 17.6248 16.1806 15.6305 12.9717Z" fill="#15171A"/>
</svg>
