<svg width="24" height="24" viewBox="0 0 24 24" fill="none" xmlns="http://www.w3.org/2000/svg">
<path d="M12 16.4625C13.2 16.4625 14.325 15.975 15.1875 15.15C16.0125 14.325 16.4625 13.2 16.4625 12.0375V5.10001C16.4625 2.62501 14.475 0.637512 12 0.637512C9.52501 0.637512 7.53751 2.62501 7.53751 5.10001V12C7.53751 14.475 9.52501 16.4625 12 16.4625ZM9.22501 5.10001C9.22501 3.56251 10.4625 2.32501 12 2.32501C13.5375 2.32501 14.775 3.56251 14.775 5.10001V12C14.775 12.7125 14.5125 13.425 13.9875 13.95C13.4625 14.475 12.75 14.775 12 14.775C10.4625 14.775 9.22501 13.5375 9.22501 12V5.10001Z" fill="#161A23"/>
<path d="M19.725 11.8125C19.725 11.3625 19.35 10.95 18.8625 10.95C18.375 10.95 18 11.325 18 11.8125C18 15.15 15.3 17.85 11.9625 17.85C8.6625 17.85 5.9625 15.15 5.9625 11.85C5.9625 11.4 5.5875 10.9875 5.1 10.9875C4.6125 10.9875 4.2375 11.3625 4.2375 11.85C4.2375 15.825 7.2375 19.0875 11.1 19.5V21.6375H8.775C8.325 21.6375 7.9125 22.0125 7.9125 22.5C7.9125 22.9875 8.2875 23.3625 8.775 23.3625H15.1125C15.5625 23.3625 15.975 22.9875 15.975 22.5C15.975 22.0125 15.6 21.6375 15.1125 21.6375H12.7875V19.5C16.6875 19.0875 19.725 15.7875 19.725 11.8125Z" fill="#161A23"/>
</svg>
