<svg width="24" height="24" viewBox="0 0 24 24" fill="none" xmlns="http://www.w3.org/2000/svg">
<g clip-path="url(#clip0_501_47671)">
<path d="M16.575 0.674988C12.825 0.674988 9.7875 3.71249 9.7875 7.46249C9.7875 8.09999 9.9 8.73749 10.05 9.33749L1.6125 17.7375C0.3375 19.0125 0.3375 21.1125 1.6125 22.3875C2.25 23.025 3.075 23.325 3.9375 23.325C4.8 23.325 5.625 23.025 6.2625 22.3875L14.7 13.95C15.3 14.1375 15.9 14.2125 16.575 14.2125C20.325 14.2125 23.3625 11.175 23.3625 7.42499C23.3625 3.67499 20.2875 0.674988 16.575 0.674988ZM2.8125 21.1875C2.2125 20.5875 2.2125 19.5375 2.8125 18.9375L2.925 18.825L5.175 21.075L5.1 21.15C4.4625 21.825 3.4125 21.825 2.8125 21.1875ZM6.3375 19.9125L4.0875 17.6625L10.8 10.9875C11.3625 11.925 12.15 12.675 13.05 13.2375L6.3375 19.9125ZM11.475 7.42499C11.475 6.97499 11.55 6.56249 11.625 6.14999L17.8125 12.375C17.4 12.4875 16.9875 12.525 16.575 12.525C13.7625 12.525 11.475 10.2375 11.475 7.42499ZM19.4625 11.625L12.375 4.53749C13.3125 3.22499 14.8125 2.36249 16.5375 2.36249C19.35 2.36249 21.6375 4.64999 21.6375 7.46249C21.675 9.18749 20.775 10.725 19.4625 11.625Z" fill="#161A23"/>
</g>
<defs>
<clipPath id="clip0_501_47671">
<rect width="24" height="24" fill="white"/>
</clipPath>
</defs>
</svg>
