<svg width="24" height="24" viewBox="0 0 24 24" fill="none" xmlns="http://www.w3.org/2000/svg">
<g clip-path="url(#clip0_914_45239)">
<path d="M0.375 11.475C4.0875 11.475 7.7625 11.475 11.475 11.475C11.475 7.7625 11.475 4.0875 11.475 0.375H0.375V11.475Z" fill="#15171A"/>
<path d="M23.6244 11.475C23.6244 7.7625 23.6244 4.0875 23.6244 0.375H12.5244C12.5244 4.0875 12.5244 7.7625 12.5244 11.475C16.2369 11.475 19.9119 11.475 23.6244 11.475Z" fill="#15171A"/>
<path d="M0.375 23.6251H11.475C11.475 19.9126 11.475 16.2376 11.475 12.5251C7.7625 12.5251 4.0875 12.5251 0.375 12.5251V23.6251Z" fill="#15171A"/>
<path d="M12.5244 23.6251H23.6244C23.6244 19.9126 23.6244 16.2376 23.6244 12.5251C19.9119 12.5251 16.2369 12.5251 12.5244 12.5251C12.5244 16.2376 12.5244 19.9126 12.5244 23.6251Z" fill="#15171A"/>
</g>
<defs>
<clipPath id="clip0_914_45239">
<rect width="24" height="24" fill="white"/>
</clipPath>
</defs>
</svg>
