<svg width="24" height="24" viewBox="0 0 24 24" fill="none" xmlns="http://www.w3.org/2000/svg">
<path d="M23.0842 5.7204C23.0842 7.06459 21.9943 8.15445 20.6501 8.15445C19.306 8.15445 18.2197 7.06459 18.2197 5.7204C18.2197 4.37621 19.3096 3.28638 20.6501 3.28638C21.9907 3.28638 23.0842 4.37621 23.0842 5.7204Z" fill="#15171A"/>
<path d="M16.5965 4.638C16.5965 6.58159 15.0235 8.15464 13.0835 8.15464H12.9927V6.79957C12.9927 5.92042 12.2807 5.20837 11.4015 5.20837H9.61411C9.58141 5.02309 9.56689 4.83056 9.56689 4.638C9.56689 2.69804 11.1399 1.125 13.0835 1.125C15.0271 1.125 16.5965 2.69804 16.5965 4.638Z" fill="#15171A"/>
<path d="M23.6255 10.2618V15.7329C23.6255 17.8182 21.9362 19.5111 19.851 19.5111H19.8328C19.2588 19.5111 18.7139 19.384 18.2234 19.1515C17.2934 21.2259 15.2336 22.6935 12.8104 22.7553C10.2093 22.6899 8.02592 21.0042 7.2085 18.6865H11.4008C12.28 18.6865 12.9921 17.9744 12.9921 17.0953V9.2373H22.5974C23.1678 9.2373 23.6255 9.69507 23.6255 10.2618Z" fill="#15171A"/>
<path d="M12.2509 6.79237C12.2437 6.75967 12.2364 6.72697 12.2255 6.69427C12.2146 6.65793 12.2001 6.62159 12.1819 6.58529C12.1746 6.5671 12.1637 6.54532 12.1529 6.52717C12.1492 6.51989 12.1492 6.51625 12.1456 6.50898C12.102 6.4327 12.0475 6.36003 11.9894 6.29827C11.8077 6.11662 11.5571 6.00037 11.2809 6.00037H1.36678C0.818213 6.00037 0.375 6.44358 0.375 6.99217V16.9027C0.375 17.4513 0.818213 17.8945 1.36678 17.8945H11.2809C11.8259 17.8945 12.2691 17.4513 12.2691 16.9027V6.99217C12.2691 6.92313 12.2618 6.85773 12.2509 6.79237ZM8.93048 9.76405H6.91421V15.1625H5.68628V9.76405H3.71363V8.71777H8.93048V9.76405Z" fill="#15171A"/>
</svg>
