<svg width="24" height="24" viewBox="0 0 24 24" fill="none" xmlns="http://www.w3.org/2000/svg">
<path d="M12 14.2125C14.325 14.2125 16.2375 12.3 16.2375 9.97505V4.91255C16.2375 2.58755 14.325 0.675049 12 0.675049C9.675 0.675049 7.7625 2.58755 7.7625 4.91255V9.97505C7.7625 12.3 9.675 14.2125 12 14.2125ZM12 2.36255C13.3125 2.36255 14.3625 3.33755 14.55 4.61255H14.4375C13.9875 4.61255 13.575 4.98755 13.575 5.47505C13.575 5.96255 13.95 6.33755 14.4375 6.33755H14.5875V6.93755H14.4375C13.9875 6.93755 13.575 7.31255 13.575 7.80005C13.575 8.28755 13.95 8.66255 14.4375 8.66255H14.5875V9.22505H14.4375C13.9875 9.22505 13.575 9.60005 13.575 10.0875C13.575 10.5375 13.95 10.9125 14.4 10.9125C14.0625 11.8875 13.0875 12.6 12 12.6C10.875 12.6 9.9375 11.8875 9.6 10.9125C10.05 10.9125 10.425 10.5375 10.425 10.0875C10.425 9.63755 10.05 9.22505 9.5625 9.22505H9.4125V8.66255H9.5625C10.0125 8.66255 10.425 8.28755 10.425 7.80005C10.425 7.31255 10.05 6.93755 9.5625 6.93755H9.4125V6.33755H9.5625C10.0125 6.33755 10.425 5.96255 10.425 5.47505C10.425 4.98755 10.05 4.61255 9.5625 4.61255H9.45C9.6375 3.33755 10.6875 2.36255 12 2.36255Z" fill="#161A23"/>
<path d="M19.125 10.1625C19.125 9.71245 18.75 9.29995 18.2625 9.29995C17.775 9.29995 17.4 9.67495 17.4 10.1625C17.4375 13.125 15 15.525 12 15.525C8.99999 15.525 6.56249 13.125 6.56249 10.125C6.56249 9.67495 6.18749 9.26245 5.69999 9.26245C5.21249 9.26245 4.83749 9.63745 4.83749 10.125C4.83749 13.725 7.57499 16.725 11.1 17.1375V22.5C11.1 22.95 11.475 23.3625 11.9625 23.3625C12.4125 23.3625 12.825 22.9875 12.825 22.5V17.175C16.3875 16.7625 19.125 13.7625 19.125 10.1625Z" fill="#161A23"/>
</svg>
