<svg width="24" height="24" viewBox="0 0 24 24" fill="none" xmlns="http://www.w3.org/2000/svg">
<path d="M12 14.2125C14.325 14.2125 16.2375 12.3 16.2375 9.97505V4.91255C16.2375 2.58755 14.325 0.675049 12 0.675049C9.67501 0.675049 7.76251 2.58755 7.76251 4.91255V9.97505C7.76251 12.3 9.67501 14.2125 12 14.2125ZM9.45001 4.91255C9.45001 3.48755 10.6125 2.36255 12 2.36255C13.425 2.36255 14.55 3.52505 14.55 4.91255V9.97505C14.55 11.4 13.3875 12.525 12 12.525C10.575 12.525 9.45001 11.3625 9.45001 9.97505V4.91255Z" fill="#161A23"/>
<path d="M19.125 10.1625C19.125 9.71245 18.75 9.29995 18.2625 9.29995C17.775 9.29995 17.4 9.67495 17.4 10.1625C17.4375 13.125 15 15.525 12 15.525C9.00002 15.525 6.56252 13.125 6.56252 10.125C6.56252 9.67495 6.18752 9.26245 5.70002 9.26245C5.21252 9.26245 4.83752 9.63745 4.83752 10.125C4.83752 13.725 7.57502 16.725 11.1 17.1375V22.5C11.1 22.95 11.475 23.3625 11.9625 23.3625C12.4125 23.3625 12.825 22.9875 12.825 22.5V17.175C16.3875 16.7625 19.125 13.7625 19.125 10.1625Z" fill="#161A23"/>
</svg>
