<svg width="24" height="24" viewBox="0 0 24 24" fill="none" xmlns="http://www.w3.org/2000/svg">
<g clip-path="url(#clip0_914_45230)">
<path d="M21.788 18.0375C21.7505 18 21.6755 18 21.638 18.0375C21.338 18.1875 20.963 18.3375 20.6255 18.45C19.5005 18.8625 18.413 19.0875 17.2505 19.0875C15.038 19.0875 12.9755 18.3375 11.3255 17.025C9.67554 15.6375 8.77554 13.8375 8.77554 11.9625C8.77554 11.55 8.88804 11.0625 9.03804 10.6875C6.22554 13.125 5.70054 17.3625 7.98804 20.4C8.51304 21.1875 9.18804 21.825 10.013 22.3125C11.4755 23.2125 13.2005 23.5125 14.888 23.2125C15.1505 23.175 15.413 23.1 15.638 22.9875L15.7505 22.95C18.2255 22.0875 20.4005 20.3625 21.788 18.15C21.9005 18.1125 21.9005 18.0375 21.788 18.0375Z" fill="#15171A"/>
<path d="M9.8625 22.7249C9.825 22.6874 9.75 22.6874 9.7125 22.6124C8.925 22.0874 8.25 21.4499 7.6875 20.6624C6.4875 19.0124 6 16.9499 6.3 14.8874C6.6 12.8249 7.725 11.0999 9.375 9.86243C9.375 9.86243 9.4125 9.82493 9.4875 9.82493C9.6375 9.71243 9.8625 9.56243 10.0875 9.44993C10.2375 9.33743 10.3875 9.29993 10.575 9.18743H10.6125C10.9125 9.03743 11.475 8.81243 12.075 8.81243C12.9375 8.81243 13.725 9.18743 14.2875 9.71243C14.25 9.59993 14.175 9.56243 14.1375 9.44993C13.65 8.66243 12.975 7.64993 11.4 6.82493C9.75 5.96243 7.95 5.92493 7.6125 5.92493C4.0125 5.92493 1.0125 8.13743 0.4875 11.0624C0.375 11.3249 0.375 11.5874 0.375 11.8499C0.375 13.6124 0.75 15.3374 1.5 16.9124C3.3 20.7749 7.05 23.2124 11.0625 23.5874C11.3625 23.6249 11.7 23.6249 12 23.6249H12.0375C11.775 23.5874 11.55 23.5124 11.2875 23.3999C10.8 23.2499 10.3125 22.9874 9.8625 22.7249Z" fill="#15171A"/>
<path d="M22.6872 6.4125L22.6497 6.3C20.7372 2.6625 16.6497 0.375 11.9997 0.375C6.8997 0.375 2.51221 3.75 0.974707 8.3625C0.937207 8.5125 0.862207 8.7375 0.824707 8.8875C0.974707 8.625 1.19971 8.3625 1.38721 8.1C1.76221 7.725 2.13721 7.35 2.54971 7.05C3.8622 6.1125 5.6247 5.475 7.4997 5.475C8.0247 5.475 9.8247 5.5125 11.5122 6.4125C13.1997 7.3125 13.9872 8.3625 14.4747 9.225C14.6997 9.6 14.8497 10.0125 14.9622 10.3875C14.9997 10.65 15.0747 10.9125 15.1122 11.175C15.1497 11.55 15.1497 11.85 15.1497 12.0375C15.1497 12.075 15.1497 12.075 15.1497 12.15C15.1497 12.7125 14.8497 13.5375 14.3622 14.175C14.3247 14.2125 14.3247 14.2125 14.2497 14.2875C14.1372 14.4 14.0997 14.4375 14.0997 14.55C14.0997 14.7 14.2122 14.85 14.3997 15.0375C15.5997 15.9 17.9997 15.825 18.1122 15.7875C19.0497 15.7875 19.9497 15.525 20.8122 15.0375C22.4997 14.1 23.5122 12.3 23.5122 10.35C23.6247 8.3625 22.9872 7.05 22.6872 6.4125Z" fill="#15171A"/>
</g>
<defs>
<clipPath id="clip0_914_45230">
<rect width="24" height="24" fill="white"/>
</clipPath>
</defs>
</svg>
