<svg width="24" height="24" viewBox="0 0 24 24" fill="none" xmlns="http://www.w3.org/2000/svg">
<path d="M17.7374 1.19995C15.2624 1.19995 13.1624 2.81245 12.4124 5.06245C11.5874 4.64995 10.7249 4.42495 9.8249 4.31245V2.96245C9.8249 2.51245 9.4499 2.13745 8.9999 2.13745C8.5499 2.13745 8.1749 2.51245 8.1749 2.96245V4.31245C8.1374 4.31245 8.1374 4.31245 8.0999 4.31245C4.3874 4.72495 1.5749 7.72495 1.5749 11.2874V17.7374C1.5374 18.0374 1.4624 18.1875 1.4249 18.2624L0.824897 19.275C0.599897 19.6124 0.562397 20.0625 0.787397 20.4L0.824897 20.4374C1.0499 20.775 1.3874 20.9625 1.7999 20.9625H8.1749V21.9749C8.1749 22.4249 8.5499 22.7999 8.9999 22.7999C9.4499 22.7999 9.8249 22.4249 9.8249 21.9749V20.9625H16.2374C16.6499 20.9625 16.9874 20.775 17.1749 20.4374C17.3999 20.0624 17.3999 19.6124 17.1749 19.2374L16.5374 18.2624C16.4249 18.0749 16.3874 17.9249 16.3874 17.7374V12.1875C16.7999 12.2999 17.2499 12.3375 17.6999 12.3375C20.7749 12.3375 23.2874 9.82495 23.2874 6.74995C23.2874 3.67495 20.8499 1.19995 17.7374 1.19995ZM15.1499 19.1624L15.2249 19.2374H2.7749L2.8874 19.0499C3.0749 18.7499 3.1874 18.375 3.2624 17.8874V11.2874C3.2624 8.58745 5.4374 6.29995 8.2874 5.99995C9.6749 5.84995 11.0249 6.14995 12.1874 6.82495C12.1874 8.77495 13.2374 10.5 14.7749 11.4749V17.7374C14.7374 18.2624 14.8874 18.7124 15.1499 19.1624ZM17.7374 10.6875C15.5999 10.6875 13.8374 8.92495 13.8374 6.78745C13.8374 4.64995 15.5999 2.88745 17.7374 2.88745C19.8749 2.88745 21.6374 4.64995 21.6374 6.78745C21.6374 8.92495 19.9124 10.6875 17.7374 10.6875Z" fill="#161A23"/>
<path d="M18.7874 5.92493H16.7249C16.2749 5.92493 15.8999 6.29993 15.8999 6.74993C15.8999 7.19993 16.2749 7.57493 16.7249 7.57493H18.7874C19.2374 7.57493 19.6124 7.19993 19.6124 6.74993C19.6124 6.29993 19.2374 5.92493 18.7874 5.92493Z" fill="#161A23"/>
</svg>
