<svg width="24" height="24" viewBox="0 0 24 24" fill="none" xmlns="http://www.w3.org/2000/svg">
<path d="M21.975 19.95L18.6 13.95C18.1875 13.2375 17.4375 12.7875 16.6125 12.7875C15.7875 12.7875 15.0375 13.2375 14.625 13.95L13.8375 15.375L10.0875 8.7375V6.9375H16.6125C16.9125 6.9375 17.2125 6.75 17.3625 6.4875C17.5125 6.225 17.475 5.8875 17.2875 5.625L16.0125 3.825L17.2875 2.025C17.475 1.7625 17.475 1.425 17.3625 1.1625C17.2125 0.9 16.9125 0.7125 16.6125 0.7125H10.65C9.41245 0.7125 8.36245 1.725 8.36245 3V8.775L2.02495 20.025C1.61245 20.7375 1.61245 21.6 2.02495 22.275C2.43745 22.9875 3.18745 23.4 3.97495 23.4H19.9125C20.7374 23.4 21.45 22.9875 21.8624 22.275C22.35 21.525 22.35 20.6625 21.975 19.95ZM9.22495 10.65L10.9875 13.7625C10.95 13.8 10.95 13.8 10.9125 13.8375L10.275 14.475L9.67495 13.875C9.33745 13.5375 8.81245 13.5375 8.47495 13.875L7.79995 14.55L7.31245 14.0625L9.22495 10.65ZM10.05 2.925C10.05 2.5875 10.3125 2.325 10.65 2.325H14.9625L14.2875 3.2625C14.0625 3.5625 14.0625 3.9375 14.2875 4.2375L14.9625 5.175H10.05V2.925ZM10.7625 21.675H4.01245C3.71245 21.675 3.56245 21.4875 3.48745 21.375C3.44995 21.3 3.33745 21.0375 3.48745 20.775L6.41245 15.5625L7.16245 16.3125C7.31245 16.4625 7.53745 16.575 7.76245 16.575C7.98745 16.575 8.21245 16.5 8.36245 16.3125L9.03745 15.6375L9.63745 16.2375C9.97495 16.575 10.5 16.575 10.8375 16.2375L11.8125 15.2625L15.4125 21.6375H10.7625V21.675ZM20.475 21.375C20.4375 21.45 20.2875 21.675 19.95 21.675H17.325L14.7375 17.1L16.05 14.775C16.2 14.5125 16.4625 14.475 16.575 14.475C16.6875 14.475 16.95 14.5125 17.1 14.775L20.475 20.775C20.625 21.0375 20.5499 21.2625 20.475 21.375Z" fill="#161A23"/>
</svg>
