<svg width="24" height="24" viewBox="0 0 24 24" fill="none" xmlns="http://www.w3.org/2000/svg">
<path d="M13.0125 18.5625C12.5625 18.5625 12.15 18.9375 12.15 19.425C12.15 20.1 11.625 20.625 10.95 20.625H3.56255C2.88755 20.625 2.36255 20.1 2.36255 19.425V4.575C2.36255 3.9 2.88755 3.375 3.56255 3.375H10.9875C11.6625 3.375 12.1875 3.9 12.1875 4.575V5.1C12.1875 5.55 12.5625 5.9625 13.05 5.9625C13.5375 5.9625 13.9125 5.5875 13.9125 5.1V4.575C13.9125 2.9625 12.6 1.6875 11.025 1.6875H3.56255C1.95005 1.6875 0.675049 3 0.675049 4.575V19.425C0.675049 21.0375 1.98755 22.3125 3.56255 22.3125H10.9875C12.6 22.3125 13.875 21 13.875 19.425C13.875 18.9375 13.4625 18.5625 13.0125 18.5625Z" fill="#161A23"/>
<path d="M7.7626 5.85C8.2126 5.85 8.6251 5.475 8.6251 4.9875C8.6251 4.5 8.2501 4.125 7.7626 4.125H6.7126C6.2626 4.125 5.8501 4.5 5.8501 4.9875C5.8501 5.475 6.2251 5.85 6.7126 5.85H7.7626Z" fill="#161A23"/>
<path d="M5.625 18.825C5.625 19.275 6 19.6875 6.4875 19.6875H8.0625C8.5125 19.6875 8.925 19.3125 8.925 18.825C8.925 18.3375 8.55 17.9625 8.0625 17.9625H6.4875C6 17.9625 5.625 18.3375 5.625 18.825Z" fill="#161A23"/>
<path d="M18.3375 10.8375C17.8875 10.8375 17.475 11.2125 17.475 11.7C17.475 13.425 16.05 14.85 14.325 14.85C12.6 14.85 11.175 13.425 11.175 11.7C11.175 9.975 12.6 8.55 14.325 8.55C14.625 8.55 14.925 8.5875 15.225 8.6625C15.675 8.8125 16.125 8.55 16.275 8.1C16.425 7.65 16.1625 7.2 15.7125 7.05C15.2625 6.9 14.8125 6.8625 14.325 6.8625C11.6625 6.8625 9.48755 9.0375 9.48755 11.7C9.48755 14.3625 11.6625 16.5 14.325 16.5C16.9875 16.5 19.1625 14.325 19.1625 11.6625C19.2 11.2125 18.825 10.8375 18.3375 10.8375Z" fill="#161A23"/>
<path d="M22.5 5.9625H20.775V4.4625C20.775 4.0125 20.4 3.6 19.9125 3.6C19.425 3.6 19.05 3.975 19.05 4.4625V6.375L14.2125 10.6875C13.875 10.9875 13.8375 11.5125 14.1375 11.8875C14.2875 12.075 14.55 12.1875 14.775 12.1875C14.9625 12.1875 15.1875 12.1125 15.3375 11.9625L20.25 7.65H22.5C22.95 7.65 23.3625 7.275 23.3625 6.7875C23.3625 6.3 22.95 5.9625 22.5 5.9625Z" fill="#161A23"/>
<path d="M12.75 10.8375C12.3 10.8375 11.8875 11.2125 11.8875 11.7C11.8875 13.05 12.975 14.1375 14.325 14.1375C14.775 14.1375 15.1875 13.7625 15.1875 13.275C15.1875 12.7875 14.8125 12.4125 14.325 12.4125C13.9125 12.4125 13.575 12.075 13.575 11.6625C13.575 11.2125 13.2 10.8375 12.75 10.8375Z" fill="#161A23"/>
</svg>
