<svg width="24" height="24" viewBox="0 0 24 24" fill="none" xmlns="http://www.w3.org/2000/svg">
<path d="M16.2375 0.675049H7.7625C6.225 0.675049 4.9875 1.95005 4.9875 3.52505V20.475C4.9875 22.0501 6.225 23.3251 7.7625 23.3251H16.2C17.7375 23.3251 18.975 22.0501 18.975 20.475V3.52505C19.0125 1.95005 17.7375 0.675049 16.2375 0.675049ZM7.7625 2.36255H16.2C16.8 2.36255 17.2875 2.88755 17.2875 3.52505V12.7501H6.675V3.52505C6.675 2.88755 7.1625 2.36255 7.7625 2.36255ZM16.2375 21.6751H7.7625C7.1625 21.6751 6.675 21.1501 6.675 20.5126V14.4376H17.2875V20.475C17.325 21.1126 16.8375 21.6751 16.2375 21.6751Z" fill="#161A23"/>
<path d="M9.00001 15.2626H8.51251C8.06251 15.2626 7.65001 15.6376 7.65001 16.1251C7.65001 16.6126 8.02501 16.9876 8.51251 16.9876H9.00001C9.45001 16.9876 9.86251 16.6126 9.86251 16.1251C9.86251 15.6376 9.45001 15.2626 9.00001 15.2626Z" fill="#161A23"/>
<path d="M12.375 15.2626H11.8875C11.4375 15.2626 11.025 15.6376 11.025 16.1251C11.025 16.6126 11.4 16.9876 11.8875 16.9876H12.375C12.825 16.9876 13.2375 16.6126 13.2375 16.1251C13.2375 15.6376 12.8625 15.2626 12.375 15.2626Z" fill="#161A23"/>
<path d="M15.7875 15.2626H15.2625C14.8125 15.2626 14.4 15.6376 14.4 16.1251C14.4 16.6126 14.775 16.9876 15.2625 16.9876H15.7875C16.2375 16.9876 16.65 16.6126 16.65 16.1251C16.65 15.6376 16.2375 15.2626 15.7875 15.2626Z" fill="#161A23"/>
<path d="M9.00001 18.4501H8.51251C8.06251 18.4501 7.65001 18.8251 7.65001 19.3126C7.65001 19.8001 8.02501 20.1751 8.51251 20.1751H9.00001C9.45001 20.1751 9.86251 19.8001 9.86251 19.3126C9.86251 18.8251 9.45001 18.4501 9.00001 18.4501Z" fill="#161A23"/>
<path d="M12.375 18.4501H11.8875C11.4375 18.4501 11.025 18.8251 11.025 19.3126C11.025 19.8001 11.4 20.1751 11.8875 20.1751H12.375C12.825 20.1751 13.2375 19.8001 13.2375 19.3126C13.2375 18.8251 12.8625 18.4501 12.375 18.4501Z" fill="#161A23"/>
<path d="M15.7875 18.4501H15.2625C14.8125 18.4501 14.4 18.8251 14.4 19.3126C14.4 19.8001 14.775 20.1751 15.2625 20.1751H15.7875C16.2375 20.1751 16.65 19.8001 16.65 19.3126C16.65 18.8251 16.2375 18.4501 15.7875 18.4501Z" fill="#161A23"/>
<path d="M11.3625 5.2875H12.7125C13.1625 5.2875 13.575 4.9125 13.575 4.425C13.575 3.9375 13.2 3.5625 12.7125 3.5625H11.3625C10.9125 3.5625 10.5 3.9375 10.5 4.425C10.5 4.9125 10.9125 5.2875 11.3625 5.2875Z" fill="#161A23"/>
</svg>
