<svg width="24" height="24" viewBox="0 0 24 24" fill="none" xmlns="http://www.w3.org/2000/svg">
<path d="M16.125 0.675049H7.87495C6.14995 0.675049 4.76245 2.06255 4.76245 3.78755V20.25C4.76245 21.975 6.14995 23.3625 7.87495 23.3625H16.125C17.85 23.3625 19.2375 21.975 19.2375 20.25V3.78755C19.2375 2.06255 17.85 0.675049 16.125 0.675049ZM7.87495 2.36255H16.125C16.9125 2.36255 17.55 3.00005 17.55 3.78755V18.15H6.44995V3.78755C6.44995 3.00005 7.08745 2.36255 7.87495 2.36255ZM16.125 21.675H7.87495C7.08745 21.675 6.44995 21.0375 6.44995 20.25V19.8375H17.55V20.25C17.55 21 16.9125 21.675 16.125 21.675Z" fill="#161A23"/>
</svg>
