<svg width="24" height="24" viewBox="0 0 24 24" fill="none" xmlns="http://www.w3.org/2000/svg">
<g clip-path="url(#clip0_501_52117)">
<path d="M18.8251 9.93765C18.8251 8.73765 17.8126 7.76265 16.5376 7.76265H15.0751C14.7376 7.76265 14.4751 7.53765 14.4751 7.27515C14.4751 7.01265 14.7376 6.78765 15.0751 6.78765H17.9626C18.4126 6.78765 18.7876 6.41265 18.7876 5.96265C18.7876 5.51265 18.4126 5.13765 17.9626 5.13765H17.0251V5.10015C17.0251 4.65015 16.6501 4.27515 16.2001 4.27515C15.7501 4.27515 15.3751 4.65015 15.3751 5.10015V5.13765H15.0751C13.8001 5.13765 12.7876 6.11265 12.7876 7.31265C12.7876 8.51265 13.8001 9.48765 15.0751 9.48765H16.5376C16.8751 9.48765 17.1376 9.71265 17.1376 9.97515C17.1376 10.2376 16.8751 10.4626 16.5376 10.4626H13.5376C13.0876 10.4626 12.7126 10.8376 12.7126 11.2876C12.7126 11.7376 13.0876 12.1126 13.5376 12.1126H15.3376V12.1501C15.3376 12.6001 15.7126 12.9751 16.1626 12.9751C16.6126 12.9751 16.9876 12.6001 16.9876 12.1501V12.0751C18.0376 11.8501 18.8251 10.9501 18.8251 9.93765Z" fill="#161A23"/>
<path d="M12.975 16.0876C12.525 16.0876 12.15 16.4626 12.15 16.9126V21.3001C12.15 21.7126 11.8125 22.0126 11.4375 22.0126H2.70005C2.28755 22.0126 1.98755 21.6751 1.98755 21.3001V6.63765C1.98755 6.22515 2.32505 5.92515 2.70005 5.92515H9.03755C9.48755 5.92515 9.86255 5.55015 9.86255 5.10015C9.86255 4.65015 9.48755 4.27515 9.03755 4.27515H2.70005C1.38755 4.27515 0.300049 5.36265 0.300049 6.67515V21.3376C0.300049 22.6501 1.38755 23.7376 2.70005 23.7376H11.4375C12.75 23.7376 13.8375 22.6501 13.8375 21.3376V16.9501C13.8375 16.4626 13.4625 16.0876 12.975 16.0876Z" fill="#161A23"/>
<path d="M21.6374 2.70008C20.2499 1.23758 18.4124 0.375076 16.3874 0.300076C15.2999 0.262576 14.2124 0.450076 13.1999 0.900076C12.7874 1.08758 12.5624 1.57508 12.7499 2.02508C12.9374 2.43758 13.4249 2.66258 13.8749 2.47508C14.6624 2.13758 15.4874 1.98758 16.3499 2.02508C17.8874 2.06258 19.3499 2.73758 20.3999 3.90008C21.5249 5.10008 22.0874 6.63758 22.0124 8.28758C21.9374 10.3501 20.8499 12.2251 19.0874 13.3126C18.6749 13.5376 18.5624 14.0626 18.8249 14.4751C18.9749 14.7376 19.2749 14.8876 19.5374 14.8876C19.6874 14.8876 19.8374 14.8501 19.9874 14.7751C22.1999 13.4251 23.5874 11.0251 23.6999 8.40008C23.7749 6.22508 23.0624 4.20008 21.6374 2.70008Z" fill="#161A23"/>
<path d="M8.0625 8.88755C8.5125 8.88755 8.8875 8.51255 8.8875 8.06255C8.8875 7.61255 8.5125 7.23755 8.0625 7.23755H6.075C5.625 7.23755 5.25 7.61255 5.25 8.06255C5.25 8.51255 5.625 8.88755 6.075 8.88755H8.0625Z" fill="#161A23"/>
<path d="M5.36249 20.5125C5.62499 20.9625 6.03749 21.3 6.56249 21.4125C6.74999 21.45 6.89999 21.4875 7.08749 21.4875C7.42499 21.4875 7.76249 21.4125 8.06249 21.225C8.51249 20.9625 8.84999 20.55 8.96249 20.025C9.11249 19.5 9.03749 18.975 8.77499 18.525C8.51249 18.075 8.09999 17.7375 7.57499 17.625C7.04999 17.475 6.52499 17.55 6.07499 17.8125C5.13749 18.375 4.79999 19.575 5.36249 20.5125ZM6.89999 19.275C6.93749 19.2375 7.01249 19.2375 7.04999 19.2375C7.08749 19.2375 7.08749 19.2375 7.12499 19.2375C7.16249 19.2375 7.23749 19.275 7.31249 19.3875C7.34999 19.4625 7.34999 19.575 7.34999 19.6125C7.34999 19.65 7.31249 19.725 7.23749 19.8C7.16249 19.8375 7.04999 19.8375 7.01249 19.8375C6.97499 19.8375 6.89999 19.8 6.82499 19.6875C6.74999 19.5375 6.78749 19.35 6.89999 19.275Z" fill="#161A23"/>
</g>
<defs>
<clipPath id="clip0_501_52117">
<rect width="24" height="24" fill="white"/>
</clipPath>
</defs>
</svg>
