<svg width="24" height="24" viewBox="0 0 24 24" fill="none" xmlns="http://www.w3.org/2000/svg">
<path d="M16.125 0.675049H7.87501C6.15001 0.675049 4.76251 2.06255 4.76251 3.78755V20.25C4.76251 21.975 6.15001 23.3625 7.87501 23.3625H16.125C17.85 23.3625 19.2375 21.975 19.2375 20.25V3.78755C19.2375 2.06255 17.85 0.675049 16.125 0.675049ZM7.87501 2.36255H16.125C16.9125 2.36255 17.55 3.00005 17.55 3.78755V18.15H6.45001V3.78755C6.45001 3.00005 7.08751 2.36255 7.87501 2.36255ZM16.125 21.675H7.87501C7.08751 21.675 6.45001 21.0375 6.45001 20.25V19.8375H17.55V20.25C17.55 21 16.9125 21.675 16.125 21.675Z" fill="#161A23"/>
<path d="M8.47499 10.3501H12C12.45 10.3501 12.825 9.9751 12.825 9.4876V5.9626C12.825 5.5126 12.45 5.1001 12 5.1001H8.47499C8.02499 5.1001 7.61249 5.4751 7.61249 5.9626V9.4876C7.61249 9.9751 7.98749 10.3501 8.47499 10.3501ZM9.29999 6.8251H11.1375V8.6626H9.29999V6.8251Z" fill="#161A23"/>
<path d="M8.47499 16.875H12C12.45 16.875 12.825 16.5 12.825 16.0125V12.4875C12.825 12.0375 12.45 11.625 12 11.625H8.47499C8.02499 11.625 7.61249 12 7.61249 12.4875V16.0125C7.61249 16.5 7.98749 16.875 8.47499 16.875ZM9.29999 13.35H11.1375V15.1875H9.29999V13.35Z" fill="#161A23"/>
<path d="M15.2625 10.3501H15.9375C16.3875 10.3501 16.8 9.9751 16.8 9.4876C16.8 9.0751 16.5 8.7376 16.125 8.6626V6.7876C16.5 6.7126 16.8 6.3751 16.8 5.9626C16.8 5.5126 16.425 5.1001 15.9375 5.1001H15.2625C14.8125 5.1001 14.4 5.4751 14.4 5.9626V9.4876C14.4375 9.9751 14.8125 10.3501 15.2625 10.3501Z" fill="#161A23"/>
<path d="M15.2625 16.875H15.9375C16.3875 16.875 16.8 16.5 16.8 16.0125C16.8 15.6 16.5 15.2625 16.125 15.1875V13.3125C16.5 13.2375 16.8 12.9 16.8 12.4875C16.8 12.0375 16.425 11.625 15.9375 11.625H15.2625C14.8125 11.625 14.4 12 14.4 12.4875V16.0125C14.4375 16.5 14.8125 16.875 15.2625 16.875Z" fill="#161A23"/>
</svg>
