<svg width="24" height="24" viewBox="0 0 24 24" fill="none" xmlns="http://www.w3.org/2000/svg">
<path d="M12.5249 16.7625C12.1874 16.7625 11.9249 16.95 11.7749 17.2125H2.3624V4.875C2.3624 4.275 2.8499 3.75 3.4874 3.75H10.6124C11.2124 3.75 11.7374 4.2375 11.7374 4.875V5.3625C11.7374 5.8125 12.1124 6.225 12.5999 6.225C13.0874 6.225 13.4624 5.85 13.4624 5.3625V4.875C13.4624 3.3375 12.1874 2.0625 10.6499 2.0625H3.5249C1.9874 2.0625 0.712402 3.3375 0.712402 4.875V19.125C0.712402 20.6625 1.9874 21.9375 3.5249 21.9375H10.6499C12.1874 21.9375 13.4624 20.6625 13.4624 19.125V17.625C13.3874 17.1375 13.0124 16.7625 12.5249 16.7625ZM10.5749 20.25H3.4499C2.8499 20.25 2.3249 19.7625 2.3249 19.125V18.9H11.6624V19.125C11.6999 19.725 11.1749 20.25 10.5749 20.25Z" fill="#161A23"/>
<path d="M18.5249 10.8375C18.0749 10.8375 17.6624 11.2125 17.6624 11.7C17.6624 13.35 16.3124 14.7 14.6624 14.7C13.0124 14.7 11.6624 13.35 11.6624 11.7C11.6624 10.05 13.0124 8.7 14.6624 8.7C14.9624 8.7 15.2249 8.7375 15.5249 8.8125C15.9749 8.9625 16.4249 8.7 16.5749 8.25C16.7249 7.8 16.4624 7.35 16.0124 7.2C15.5624 7.0875 15.1499 7.0125 14.6624 7.0125C12.0749 7.0125 9.97485 9.1125 9.97485 11.7C9.97485 14.2875 12.0749 16.3875 14.6624 16.3875C17.2499 16.3875 19.3499 14.25 19.3499 11.7C19.3499 11.2125 18.9749 10.8375 18.5249 10.8375Z" fill="#161A23"/>
<path d="M22.5 6.14999H20.8875V4.76249C20.8875 4.31249 20.5125 3.89999 20.025 3.89999C19.5375 3.89999 19.1625 4.27499 19.1625 4.76249V6.59999L14.475 10.725C14.1375 11.025 14.1 11.55 14.4 11.925C14.55 12.1125 14.8125 12.225 15.0375 12.225C15.225 12.225 15.45 12.15 15.6 12L20.2875 7.87499H22.5C22.95 7.87499 23.3625 7.49999 23.3625 7.01249C23.3625 6.52499 22.95 6.14999 22.5 6.14999Z" fill="#161A23"/>
<path d="M13.125 10.8375C12.675 10.8375 12.2625 11.2125 12.2625 11.7C12.2625 13.0125 13.3125 14.0625 14.625 14.0625C15.075 14.0625 15.4875 13.6875 15.4875 13.2C15.4875 12.7125 15.1125 12.3375 14.625 12.3375C14.25 12.3375 13.95 12.0375 13.95 11.6625C13.9875 11.2125 13.6125 10.8375 13.125 10.8375Z" fill="#161A23"/>
</svg>
