<svg width="23" height="23" viewBox="0 0 23 23" fill="none" xmlns="http://www.w3.org/2000/svg">
<path d="M7.1375 15C5.975 15 5 15.9375 5 17.1375C5 18.3 5.9375 19.275 7.1375 19.275C8.3375 19.275 9.275 18.3375 9.275 17.1375C9.275 15.975 8.3375 15 7.1375 15ZM7.1375 17.5875C6.9125 17.5875 6.6875 17.4 6.6875 17.1375C6.6875 16.9125 6.875 16.6875 7.1375 16.6875C7.4 16.6875 7.5875 16.875 7.5875 17.1375C7.5875 17.3625 7.4 17.5875 7.1375 17.5875Z" fill="#161A23"/>
<path d="M20.8125 4.7625H14.0625V2.8875C14.0625 1.275 12.75 0 11.175 0H2.8875C1.275 0 0 1.3125 0 2.8875V19.7625C0 21.375 1.3125 22.65 2.8875 22.65H11.175C12.7875 22.65 14.0625 21.3375 14.0625 19.7625V13.125H20.775C21.825 13.125 22.65 12.3 22.65 11.25V6.6375C22.6875 5.5875 21.825 4.7625 20.8125 4.7625ZM11.175 21H2.8875C2.2125 21 1.6875 20.475 1.6875 19.8V2.925C1.6875 2.25 2.2125 1.725 2.8875 1.725H11.175C11.85 1.725 12.375 2.25 12.375 2.925V4.8H10.425C9.375 4.8 8.55 5.625 8.55 6.675V12.7875C8.55 13.5 8.925 14.1 9.5625 14.4375C9.825 14.5875 10.125 14.6625 10.425 14.6625C10.8 14.6625 11.175 14.55 11.475 14.325L12.375 13.725V19.8375C12.375 20.4375 11.85 21 11.175 21ZM21 11.25C21 11.3625 20.925 11.4375 20.8125 11.4375H12.9375C12.75 11.4375 12.6 11.475 12.45 11.5875L10.5375 12.8625C10.4625 12.9 10.425 12.9 10.35 12.8625C10.275 12.825 10.2375 12.7875 10.2375 12.7125V6.6375C10.2375 6.525 10.3125 6.45 10.425 6.45H20.775C20.8875 6.45 20.9625 6.525 20.9625 6.6375V11.25H21Z" fill="#161A23"/>
</svg>
