<svg width="24" height="24" viewBox="0 0 24 24" fill="none" xmlns="http://www.w3.org/2000/svg">
<path d="M16.425 0.675049H7.57498C5.99998 0.675049 4.72498 1.95005 4.72498 3.52505V20.475C4.72498 22.0501 5.99998 23.3251 7.57498 23.3251H16.425C18 23.3251 19.275 22.0501 19.275 20.475V3.52505C19.275 1.95005 18 0.675049 16.425 0.675049ZM6.41248 3.52505C6.41248 2.88755 6.93748 2.36255 7.57498 2.36255H16.425C17.0625 2.36255 17.5875 2.88755 17.5875 3.52505V16.8376C17.5875 17.5126 17.025 18.0751 16.35 18.0751H7.64998C6.97498 18.0751 6.41248 17.5126 6.41248 16.8376V3.52505ZM16.425 21.6751H7.57498C6.93748 21.6751 6.41248 21.1501 6.41248 20.5126V19.5001C6.78748 19.6876 7.19998 19.7626 7.64998 19.7626H16.35C16.8 19.7626 17.2125 19.6501 17.5875 19.5001V20.475C17.5875 21.1126 17.0625 21.6751 16.425 21.6751Z" fill="#161A23"/>
<path d="M11.325 4.98757H12.75C13.2 4.98757 13.6125 4.61257 13.6125 4.12507C13.6125 3.63757 13.2375 3.26257 12.75 3.26257H11.325C10.875 3.26257 10.4625 3.63757 10.4625 4.12507C10.4625 4.61257 10.875 4.98757 11.325 4.98757Z" fill="#161A23"/>
</svg>
