<svg width="24" height="24" viewBox="0 0 24 24" fill="none" xmlns="http://www.w3.org/2000/svg">
<path d="M13.0875 3.5625H10.9125C10.4625 3.5625 10.05 3.9375 10.05 4.425C10.05 4.9125 10.425 5.2875 10.9125 5.2875H13.0875C13.5375 5.2875 13.95 4.9125 13.95 4.425C13.95 3.9375 13.5375 3.5625 13.0875 3.5625Z" fill="#161A23"/>
<path d="M16.65 0.674988H7.34999C6.07499 0.674988 4.98749 1.72499 4.98749 3.03749V21.0375C4.98749 22.3125 6.03749 23.4 7.34999 23.4H16.6875C17.9625 23.4 19.05 22.35 19.05 21.0375V2.99999C19.0125 1.72499 17.9625 0.674988 16.65 0.674988ZM17.325 21C17.325 21.375 17.025 21.675 16.65 21.675H7.34999C6.97499 21.675 6.67499 21.375 6.67499 21V2.99999C6.67499 2.62499 6.97499 2.32499 7.34999 2.32499H16.6875C17.0625 2.32499 17.3625 2.62499 17.3625 2.99999V21H17.325Z" fill="#161A23"/>
<path d="M12.7875 19.9875C12.75 19.95 12.75 19.9125 12.7125 19.875C12.675 19.8375 12.6375 19.8 12.6 19.7625C12.4125 19.575 12.1125 19.4625 11.85 19.5375C11.8125 19.5375 11.7375 19.575 11.7 19.575C11.6625 19.575 11.5875 19.6125 11.55 19.65C11.5125 19.6875 11.475 19.725 11.4375 19.7625C11.4 19.8 11.3625 19.8375 11.325 19.875C11.2875 19.9125 11.2875 19.9875 11.25 20.025C11.2125 20.0625 11.2125 20.1375 11.2125 20.175C11.2125 20.2125 11.2125 20.2875 11.2125 20.325C11.2125 20.55 11.2875 20.775 11.475 20.925C11.5125 20.9625 11.55 21 11.5875 21.0375C11.625 21.075 11.7 21.1125 11.7375 21.1125C11.775 21.1125 11.85 21.15 11.8875 21.15C11.925 21.15 12 21.15 12.0375 21.15C12.2625 21.15 12.4875 21.075 12.6375 20.8875C12.675 20.85 12.7125 20.8125 12.75 20.775C12.7875 20.7375 12.7875 20.6625 12.825 20.625C12.8625 20.5875 12.8625 20.5125 12.8625 20.475C12.8625 20.4 12.8625 20.3625 12.8625 20.325C12.8625 20.25 12.8625 20.2125 12.8625 20.175C12.825 20.1 12.7875 20.0625 12.7875 19.9875Z" fill="#161A23"/>
</svg>
