<svg width="24" height="24" viewBox="0 0 24 24" fill="none" xmlns="http://www.w3.org/2000/svg">
<g clip-path="url(#clip0_501_49567)">
<path d="M14.3625 16.875C13.9125 16.875 13.5 17.25 13.5 17.7375V20.25C13.5 21.0375 12.8625 21.675 12.075 21.675H3.8625C3.075 21.675 2.4375 21.0375 2.4375 20.25V3.78755C2.4375 3.00005 3.075 2.36255 3.8625 2.36255H12.075C12.8625 2.36255 13.5 3.00005 13.5 3.78755V4.72505C13.5 5.17505 13.875 5.58755 14.3625 5.58755C14.85 5.58755 15.225 5.21255 15.225 4.72505V3.78755C15.225 2.06255 13.8375 0.675049 12.1125 0.675049H3.8625C2.1375 0.675049 0.75 2.06255 0.75 3.78755V20.25C0.75 21.975 2.1375 23.3625 3.8625 23.3625H12.075C13.8 23.3625 15.1875 21.975 15.1875 20.25V17.7375C15.225 17.25 14.8125 16.875 14.3625 16.875Z" fill="#161A23"/>
<path d="M8.55002 5.0625C9.00002 5.0625 9.41252 4.6875 9.41252 4.2C9.41252 3.7125 9.00002 3.375 8.55002 3.375H7.38752C6.93752 3.375 6.52502 3.75 6.52502 4.2375C6.52502 4.725 6.90002 5.1 7.38752 5.1H8.55002V5.0625Z" fill="#161A23"/>
<path d="M6.26245 19.575C6.26245 20.025 6.63745 20.4375 7.12495 20.4375H8.84995C9.29995 20.4375 9.71245 20.0625 9.71245 19.575C9.71245 19.0875 9.33745 18.7125 8.84995 18.7125H7.12495C6.63745 18.7125 6.26245 19.0875 6.26245 19.575Z" fill="#161A23"/>
<path d="M14.2875 8.58752C13.8375 8.58752 13.425 8.96252 13.425 9.45002C13.425 9.93752 13.8 10.3125 14.2875 10.3125C16.95 10.3125 19.1625 12.4875 19.1625 15.1875C19.1625 15.6375 19.5375 16.05 20.025 16.05C20.5125 16.05 20.8875 15.675 20.8875 15.1875C20.8125 11.55 17.8875 8.58752 14.2875 8.58752Z" fill="#161A23"/>
<path d="M14.2875 10.9875C13.8375 10.9875 13.425 11.3625 13.425 11.85C13.425 12.3375 13.8 12.675 14.2875 12.675C15.6375 12.675 16.7625 13.7625 16.7625 15.15C16.7625 15.6 17.1375 16.0125 17.625 16.0125C18.1125 16.0125 18.4875 15.6375 18.4875 15.15C18.4125 12.8625 16.575 10.9875 14.2875 10.9875Z" fill="#161A23"/>
<path d="M14.2875 6.1875C13.8375 6.1875 13.425 6.5625 13.425 7.05C13.425 7.5375 13.8 7.9125 14.2875 7.9125C18.3 7.9125 21.5625 11.175 21.5625 15.1875C21.5625 15.6375 21.9375 16.05 22.425 16.05C22.9125 16.05 23.2875 15.675 23.2875 15.1875C23.25 10.2 19.2375 6.1875 14.2875 6.1875Z" fill="#161A23"/>
<path d="M14.475 13.9126C13.95 13.9126 13.5 14.3626 13.5 14.8876C13.5 15.4126 13.95 15.8626 14.475 15.8626C15 15.8626 15.45 15.4126 15.45 14.8876C15.45 14.3626 15 13.9126 14.475 13.9126Z" fill="#161A23"/>
</g>
<defs>
<clipPath id="clip0_501_49567">
<rect width="24" height="24" fill="white"/>
</clipPath>
</defs>
</svg>
