<svg width="24" height="24" viewBox="0 0 24 24" fill="none" xmlns="http://www.w3.org/2000/svg">
<g clip-path="url(#clip0_501_51294)">
<path d="M13.875 17.4375C13.5375 17.4375 13.2375 17.625 13.125 17.925H2.36255V4.01251C2.36255 3.26251 2.96255 2.66251 3.71255 2.66251H11.7C12.45 2.66251 13.05 3.26251 13.05 4.01251V4.57501C13.05 5.02501 13.425 5.43751 13.9125 5.43751C14.4 5.43751 14.775 5.06251 14.775 4.57501V4.01251C14.775 2.32501 13.425 0.975006 11.7375 0.975006H3.71255C2.02505 0.975006 0.675049 2.32501 0.675049 4.01251V19.9875C0.675049 21.675 2.02505 23.025 3.71255 23.025H11.7C13.3875 23.025 14.7375 21.675 14.7375 19.9875V18.3C14.7375 17.8125 14.3625 17.4375 13.875 17.4375ZM11.6625 21.3375H3.71255C2.96255 21.3375 2.36255 20.7375 2.36255 19.9875V19.6125H13.05V19.9875C13.05 20.7375 12.4125 21.3375 11.6625 21.3375Z" fill="#161A23"/>
<path d="M23.325 3.56251C23.2875 3.15001 22.95 2.81251 22.5375 2.77501C19.9125 2.58751 17.7375 3.60001 15.225 6.1125L14.2875 7.05L12.9 6.63751C11.8875 6.33751 10.8375 6.60001 10.0875 7.35001L8.43745 9.00001C8.21245 9.22501 8.13745 9.52501 8.21245 9.78751C8.28745 10.0875 8.51245 10.3125 8.77495 10.3875L10.425 10.875C10.3125 11.025 10.2375 11.2125 10.2375 11.4C10.2375 11.625 10.3125 11.85 10.5 12L14.0625 15.5625C14.2125 15.7125 14.4375 15.825 14.6625 15.825C14.85 15.825 15.0375 15.75 15.1875 15.6375L15.675 17.2875C15.75 17.5875 15.975 17.775 16.275 17.85C16.35 17.85 16.425 17.8875 16.5 17.8875C16.725 17.8875 16.95 17.8125 17.1 17.625L18.75 15.975C19.5 15.225 19.7625 14.175 19.4625 13.1625L19.05 11.775L19.9875 10.8375C22.5 8.36251 23.475 6.18751 23.325 3.56251ZM11.2875 8.51251C11.5875 8.21251 12 8.10001 12.4125 8.21251L12.9375 8.3625L11.8125 9.48751L10.65 9.15001L11.2875 8.51251ZM12.3 11.4L16.425 7.27501C18.675 5.02501 20.2875 4.46251 21.675 4.42501C21.6 5.81251 21.0375 7.42501 18.825 9.67501L14.7 13.8L12.3 11.4ZM17.85 13.6875C17.9625 14.1 17.85 14.5125 17.55 14.8125L16.9125 15.45L16.575 14.2875L17.7 13.1625L17.85 13.6875Z" fill="#161A23"/>
</g>
<defs>
<clipPath id="clip0_501_51294">
<rect width="24" height="24" fill="white"/>
</clipPath>
</defs>
</svg>
