<svg width="24" height="24" viewBox="0 0 24 24" fill="none" xmlns="http://www.w3.org/2000/svg">
<path d="M22.65 3.675C22.6125 3.2625 22.275 2.925 21.8625 2.8875C19.575 2.775 17.7 3.675 15.5625 5.8875L13.4625 8.0625L11.1 8.1C10.875 8.1 10.65 8.2125 10.5 8.3625L9.4875 9.4125C9.15 9.75 9 10.125 9 10.575C9 11.025 9.1875 11.4 9.4875 11.6625L10.2375 12.4125L10.2 12.45C9.525 13.1625 9.225 15.1125 9.1125 15.9375C9.075 16.2 9.1875 16.4625 9.375 16.65C9.525 16.8 9.75 16.875 9.975 16.875C10.0125 16.875 10.05 16.875 10.125 16.875C10.9125 16.7625 12.8625 16.3875 13.575 15.675L13.6125 15.6375L14.3625 16.3875C14.6625 16.6875 15.0375 16.8375 15.45 16.8375C15.45 16.8375 15.45 16.8375 15.4875 16.8375C15.9 16.8375 16.3125 16.65 16.575 16.35L17.5875 15.3C17.7375 15.15 17.8125 14.925 17.8125 14.7L17.775 12.3375L19.875 10.1625C21.975 7.9125 22.8 5.9625 22.65 3.675ZM12.3 14.475C12.15 14.5875 11.625 14.775 10.9875 14.9625C11.1375 14.325 11.2875 13.7625 11.4 13.65L11.4375 13.6125L12.3 14.475C12.3375 14.4375 12.3 14.475 12.3 14.475ZM16.3125 11.325C16.1625 11.475 16.0875 11.7 16.0875 11.925L16.125 14.2875L15.4125 15L10.7625 10.5L11.475 9.7875L13.8375 9.75C14.0625 9.75 14.2875 9.6375 14.4375 9.4875L16.7625 7.0875C18.5625 5.25 19.875 4.725 21 4.6125C20.925 5.7375 20.4375 7.0875 18.675 8.925L16.3125 11.325Z" fill="#161A23"/>
<path d="M14.9626 17.625C14.6251 17.625 14.3251 17.85 14.1751 18.15H3.0376V3.7875C3.0376 3 3.6751 2.3625 4.4626 2.3625H12.6751C13.4626 2.3625 14.1001 3 14.1001 3.7875V4.35C14.1001 4.8 14.4751 5.2125 14.9626 5.2125C15.4501 5.2125 15.8251 4.8375 15.8251 4.35V3.7875C15.8251 2.0625 14.4376 0.675003 12.7126 0.675003H4.4626C2.7376 0.675003 1.3501 2.0625 1.3501 3.7875V20.25C1.3501 21.975 2.7376 23.3625 4.4626 23.3625H12.6751C14.4001 23.3625 15.7876 21.975 15.7876 20.25V18.4875C15.7876 18 15.4126 17.625 14.9626 17.625ZM12.6751 21.675H4.4626C3.6751 21.675 3.0376 21.0375 3.0376 20.25V19.8375H14.1376V20.25C14.1001 21 13.4626 21.675 12.6751 21.675Z" fill="#161A23"/>
</svg>
