<svg width="24" height="24" viewBox="0 0 24 24" fill="none" xmlns="http://www.w3.org/2000/svg">
<path d="M16.125 0.675049H7.87501C6.15001 0.675049 4.76251 2.06255 4.76251 3.78755V20.25C4.76251 21.975 6.15001 23.3625 7.87501 23.3625H16.125C17.85 23.3625 19.2375 21.975 19.2375 20.25V3.78755C19.2375 2.06255 17.85 0.675049 16.125 0.675049ZM7.87501 2.36255H16.125C16.9125 2.36255 17.55 3.00005 17.55 3.78755V18.15H6.45001V3.78755C6.45001 3.00005 7.08751 2.36255 7.87501 2.36255ZM16.125 21.675H7.87501C7.08751 21.675 6.45001 21.0375 6.45001 20.25V19.8375H17.55V20.25C17.55 21 16.9125 21.675 16.125 21.675Z" fill="#161A23"/>
<path d="M8.58751 6.4125H10.65C11.1 6.4125 11.5125 6.0375 11.5125 5.55C11.5125 5.0625 11.1375 4.6875 10.65 4.6875H8.58751C8.13751 4.6875 7.72501 5.0625 7.72501 5.55C7.72501 6.0375 8.10001 6.4125 8.58751 6.4125Z" fill="#161A23"/>
<path d="M13.35 6.4125H15.4125C15.8625 6.4125 16.275 6.0375 16.275 5.55C16.275 5.0625 15.9 4.6875 15.4125 4.6875H13.35C12.9 4.6875 12.4875 5.0625 12.4875 5.55C12.4875 6.0375 12.9 6.4125 13.35 6.4125Z" fill="#161A23"/>
<path d="M9.11251 9.45003C8.70001 9.90003 8.47501 10.5375 8.47501 11.2875C8.47501 12.1125 8.96251 13.0875 9.97501 14.2125C10.575 14.8875 11.2125 15.4125 11.325 15.525L11.475 15.6375C11.625 15.75 11.8125 15.825 12 15.825C12.1875 15.825 12.375 15.75 12.525 15.6375L12.675 15.525C12.7875 15.4125 13.3875 14.925 14.025 14.25C15.0375 13.125 15.525 12.1875 15.525 11.325C15.525 10.575 15.3 9.97503 14.8875 9.48753C14.475 9.03753 13.875 8.77503 13.2375 8.77503C12.7125 8.77503 12.3 8.92503 12 9.07503C11.7 8.88753 11.2875 8.77503 10.7625 8.77503C10.125 8.73753 9.52501 9.00003 9.11251 9.45003ZM11.2875 10.65C11.4375 10.875 11.7 11.025 12 11.025C12.3 11.025 12.5625 10.875 12.7125 10.65C12.75 10.6125 12.8625 10.4625 13.2375 10.4625C13.35 10.4625 13.5 10.5 13.65 10.6125C13.7625 10.7625 13.8375 10.9875 13.8375 11.325C13.8375 11.475 13.7625 12 12.75 13.0875C12.4875 13.3875 12.1875 13.65 12 13.875C11.775 13.6875 11.5125 13.425 11.25 13.0875C10.275 12 10.1625 11.4375 10.1625 11.325C10.1625 11.025 10.2375 10.7625 10.35 10.6125C10.4625 10.4625 10.65 10.4625 10.7625 10.4625C11.1375 10.425 11.25 10.575 11.2875 10.65Z" fill="#161A23"/>
</svg>
