<svg width="24" height="24" viewBox="0 0 24 24" fill="none" xmlns="http://www.w3.org/2000/svg">
<path d="M22.7626 4.08751C22.7251 3.67501 22.3876 3.33751 21.9751 3.30001C19.6126 3.18751 17.6251 4.12501 15.4126 6.41251L13.2376 8.66251L10.7626 8.70001C10.5376 8.70001 10.3126 8.81251 10.1626 8.96251L9.07506 10.0875C8.47506 10.725 8.47506 11.7 9.11256 12.3L9.97506 13.125C9.93756 13.1625 9.93756 13.1625 9.90006 13.2C9.18756 13.9125 8.88756 15.975 8.77506 16.8C8.73756 17.0625 8.85006 17.325 9.03756 17.5125C9.18756 17.6625 9.41256 17.7375 9.63756 17.7375C9.67506 17.7375 9.71256 17.7375 9.78756 17.7375C10.6126 17.5875 12.6376 17.2125 13.3501 16.5C13.3876 16.4625 13.3876 16.425 13.4251 16.425L14.2876 17.25C14.5876 17.55 15.0001 17.7 15.3751 17.7C15.7876 17.7 16.2001 17.55 16.5001 17.2125L17.5876 16.0875C17.7376 15.9375 17.8126 15.7125 17.8126 15.4875L17.7751 13.0125L19.9501 10.7625C22.0876 8.43751 22.9501 6.45001 22.7626 4.08751ZM12.0751 15.3375C11.9251 15.4875 11.3251 15.675 10.6501 15.8625C10.8001 15.15 10.9876 14.55 11.1001 14.4C11.1376 14.3625 11.1376 14.3625 11.1751 14.325L12.1501 15.2625C12.1126 15.2625 12.0751 15.3 12.0751 15.3375ZM16.2376 12.075C16.0876 12.225 16.0126 12.45 16.0126 12.675L16.0501 15.15L15.3001 15.9375L10.3501 11.2125L11.1001 10.425L13.5751 10.3875C13.8001 10.3875 14.0251 10.275 14.1751 10.125L16.6126 7.61251C18.5251 5.66251 19.9126 5.10001 21.0751 5.02501C21.0001 6.22501 20.5126 7.65001 18.6376 9.56251L16.2376 12.075Z" fill="#161A23"/>
<path d="M14.8125 19.3875C14.3625 19.3875 13.95 19.7625 13.95 20.25C13.95 21.0375 13.3125 21.675 12.525 21.675H4.31245C3.52495 21.675 2.88745 21.0375 2.88745 20.25V3.7875C2.88745 3 3.52495 2.3625 4.31245 2.3625H5.13745V3.075C5.13745 4.1625 6.03745 5.0625 7.12495 5.0625H10.0125C11.1 5.0625 12 4.1625 12 3.075V2.3625H12.5625C13.35 2.3625 13.9875 3 13.9875 3.7875V4.35C13.9875 4.8 14.3625 5.2125 14.85 5.2125C15.3375 5.2125 15.7125 4.8375 15.7125 4.35V3.7875C15.7125 2.0625 14.325 0.675003 12.6 0.675003H4.31245C2.58745 0.675003 1.19995 2.0625 1.19995 3.7875V20.25C1.19995 21.975 2.58745 23.3625 4.31245 23.3625H12.525C14.25 23.3625 15.6375 21.975 15.6375 20.25C15.675 19.7625 15.3 19.3875 14.8125 19.3875ZM10.3125 3.075C10.3125 3.225 10.2 3.375 10.0125 3.375H7.12495C6.97495 3.375 6.82495 3.2625 6.82495 3.075V2.3625H10.275V3.075H10.3125Z" fill="#161A23"/>
<path d="M6.7124 19.575C6.7124 20.025 7.0874 20.4375 7.5749 20.4375H9.2999C9.7499 20.4375 10.1624 20.0625 10.1624 19.575C10.1624 19.0875 9.7874 18.7125 9.2999 18.7125H7.5749C7.0874 18.7125 6.7124 19.0875 6.7124 19.575Z" fill="#161A23"/>
</svg>
