<svg width="24" height="24" viewBox="0 0 24 24" fill="none" xmlns="http://www.w3.org/2000/svg">
<path d="M16.125 0.675049H7.87495C6.14995 0.675049 4.76245 2.06255 4.76245 3.78755V20.25C4.76245 21.975 6.14995 23.3625 7.87495 23.3625H16.125C17.85 23.3625 19.2375 21.975 19.2375 20.25V3.78755C19.2375 2.06255 17.85 0.675049 16.125 0.675049ZM10.3875 2.36255H13.875V3.07505C13.875 3.22505 13.7625 3.37505 13.575 3.37505H10.6875C10.5375 3.37505 10.3875 3.26255 10.3875 3.07505V2.36255ZM17.55 20.2125C17.55 21 16.9125 21.6376 16.125 21.6376H7.87495C7.08745 21.6376 6.44995 21 6.44995 20.2125V3.78755C6.44995 3.00005 7.08745 2.36255 7.87495 2.36255H8.69995V3.07505C8.69995 4.16255 9.59995 5.06255 10.6875 5.06255H13.575C14.6625 5.06255 15.5625 4.16255 15.5625 3.07505V2.36255H16.125C16.9125 2.36255 17.55 3.00005 17.55 3.78755V20.2125Z" fill="#161A23"/>
<path d="M12.8624 18.7126H11.1374C10.6874 18.7126 10.2749 19.0876 10.2749 19.5751C10.2749 20.0626 10.6499 20.4376 11.1374 20.4376H12.8624C13.3124 20.4376 13.7249 20.0626 13.7249 19.5751C13.7249 19.0876 13.3124 18.7126 12.8624 18.7126Z" fill="#161A23"/>
</svg>
