<svg width="24" height="24" viewBox="0 0 24 24" fill="none" xmlns="http://www.w3.org/2000/svg">
<g clip-path="url(#clip0_501_52052)">
<path d="M12.975 16.0874C12.525 16.0874 12.15 16.4624 12.15 16.9124V21.2999C12.15 21.7124 11.8125 22.0124 11.4375 22.0124H2.70005C2.28755 22.0124 1.98755 21.6749 1.98755 21.2999V6.6374C1.98755 6.2249 2.32505 5.9249 2.70005 5.9249H9.03755C9.48755 5.9249 9.86255 5.5499 9.86255 5.0999C9.86255 4.6499 9.48755 4.2749 9.03755 4.2749H2.70005C1.38755 4.2749 0.300049 5.3624 0.300049 6.6749V21.3374C0.300049 22.6499 1.38755 23.7374 2.70005 23.7374H11.4375C12.75 23.7374 13.8375 22.6499 13.8375 21.3374V16.9499C13.8375 16.4624 13.4625 16.0874 12.975 16.0874Z" fill="#161A23"/>
<path d="M21.6374 2.69995C20.2499 1.23745 18.4124 0.374954 16.3874 0.299954C15.2999 0.262454 14.2124 0.449954 13.1999 0.899954C12.7874 1.08745 12.5624 1.57495 12.7499 2.02495C12.9374 2.43745 13.4249 2.66245 13.8749 2.47495C14.6624 2.13745 15.4874 1.98745 16.3499 2.02495C17.8874 2.06245 19.3499 2.73745 20.3999 3.89995C21.5249 5.09995 22.0874 6.63745 22.0124 8.28745C21.9374 10.35 20.8499 12.225 19.0874 13.3125C18.6749 13.5375 18.5624 14.0625 18.8249 14.475C18.9749 14.7375 19.2749 14.8875 19.5374 14.8875C19.6874 14.8875 19.8374 14.85 19.9874 14.775C22.1999 13.425 23.5874 11.025 23.6999 8.39995C23.7749 6.22495 23.0624 4.19995 21.6374 2.69995Z" fill="#161A23"/>
<path d="M8.0625 8.88743C8.5125 8.88743 8.8875 8.51243 8.8875 8.06243C8.8875 7.61243 8.5125 7.23743 8.0625 7.23743H6.075C5.625 7.23743 5.25 7.61243 5.25 8.06243C5.25 8.51243 5.625 8.88743 6.075 8.88743H8.0625Z" fill="#161A23"/>
<path d="M7.0501 21.4875C8.1376 21.4875 9.0001 20.5875 9.0001 19.5C9.0001 18.4125 8.1001 17.5125 7.0501 17.5125C6.0001 17.5125 5.1001 18.4125 5.1001 19.5C5.1001 20.5875 5.9626 21.4875 7.0501 21.4875ZM7.0501 19.2375C7.2001 19.2375 7.3501 19.35 7.3501 19.5375C7.3501 19.725 7.2376 19.8375 7.0501 19.8375C6.8626 19.8375 6.7501 19.725 6.7501 19.5375C6.7501 19.35 6.9001 19.2375 7.0501 19.2375Z" fill="#161A23"/>
<path d="M17.1001 8.17493C16.6876 7.98743 16.1626 8.21243 16.0126 8.62493C15.8251 9.03743 16.0501 9.56243 16.4626 9.71243C16.8001 9.86243 16.9876 10.1624 16.9876 10.5374C16.9876 11.0249 16.5751 11.3999 16.0876 11.3999C15.6001 11.3999 15.1876 10.9874 15.1876 10.5374V7.16243H17.6251C18.0751 7.16243 18.4501 6.78743 18.4501 6.33743C18.4501 5.88743 18.0751 5.51243 17.6251 5.51243H15.1876V4.68743C15.1876 4.23743 14.8126 3.86243 14.3626 3.86243C13.9126 3.86243 13.5376 4.23743 13.5376 4.68743V5.51243H13.3501C12.9001 5.51243 12.5251 5.88743 12.5251 6.33743C12.5251 6.78743 12.9001 7.16243 13.3501 7.16243H13.5376V10.5374C13.5376 11.9624 14.7001 13.0874 16.1251 13.0874C17.5501 13.0874 18.7126 11.9249 18.7126 10.5374C18.6751 9.48743 18.0376 8.54993 17.1001 8.17493Z" fill="#161A23"/>
</g>
<defs>
<clipPath id="clip0_501_52052">
<rect width="24" height="24" fill="white"/>
</clipPath>
</defs>
</svg>
