<svg width="24" height="24" viewBox="0 0 24 24" fill="none" xmlns="http://www.w3.org/2000/svg">
<path d="M19.0125 3.52505C19.0125 1.95005 17.775 0.675049 16.2375 0.675049H7.7625C6.225 0.675049 4.9875 1.95005 4.9875 3.52505V20.475C4.9875 22.0501 6.225 23.3251 7.7625 23.3251H16.2C17.7375 23.3251 18.975 22.0501 18.975 20.475V3.52505H19.0125ZM6.675 7.50005H17.2875V17.9626H6.675V7.50005ZM7.7625 2.36255H16.2C16.8 2.36255 17.2875 2.88755 17.2875 3.52505V5.81255H6.675V3.52505C6.675 2.88755 7.1625 2.36255 7.7625 2.36255ZM16.2375 21.6751H7.7625C7.1625 21.6751 6.675 21.1501 6.675 20.5126V19.6501H17.2875V20.5126C17.325 21.1126 16.8375 21.6751 16.2375 21.6751Z" fill="#161A23"/>
<path d="M11.3625 4.98757H12.7125C13.1625 4.98757 13.575 4.61257 13.575 4.12507C13.575 3.63757 13.2 3.26257 12.7125 3.26257H11.3625C10.9125 3.26257 10.5 3.63757 10.5 4.12507C10.5 4.61257 10.9125 4.98757 11.3625 4.98757Z" fill="#161A23"/>
</svg>
