<svg width="24" height="24" viewBox="0 0 24 24" fill="none" xmlns="http://www.w3.org/2000/svg">
<g clip-path="url(#clip0_501_45500)">
<path d="M22.35 3.11255C21.1875 2.17505 19.5 2.32505 18.525 3.48755C17.9625 4.16255 17.775 5.06255 18 5.85005L14.7 7.76255C13.9875 6.71255 12.75 6.00005 11.3625 6.00005C10.275 6.00005 9.29999 6.41255 8.58749 7.12505L5.77499 4.57505C5.96249 4.20005 6.03749 3.82505 6.03749 3.37505C6.03749 1.87505 4.83749 0.675049 3.33749 0.675049C1.83749 0.675049 0.674988 1.87505 0.674988 3.37505C0.674988 4.87505 1.87499 6.07505 3.37499 6.07505C3.82499 6.07505 4.23749 5.96255 4.61249 5.77505L7.61249 8.51255C7.42499 9.00005 7.31249 9.48755 7.31249 10.05C7.31249 12.3 9.11249 14.1 11.3625 14.1C11.4 14.1 11.475 14.1 11.5125 14.1L12.2625 16.875C11.25 17.5125 10.6125 18.6 10.6125 19.875C10.6125 21.825 12.1875 23.4 14.1375 23.4C16.0875 23.4 17.6625 21.825 17.6625 19.875C17.6625 17.925 16.0875 16.35 14.1375 16.35C14.0625 16.35 13.9875 16.35 13.9125 16.35L13.2 13.6875C14.55 13.0125 15.45 11.6625 15.45 10.05C15.45 9.82505 15.4125 9.56255 15.375 9.33755L18.9 7.27505C19.3875 7.68755 20.025 7.91255 20.625 7.91255C21.4125 7.91255 22.1625 7.57505 22.725 6.93755C23.6625 5.77505 23.5125 4.05005 22.35 3.11255ZM15.975 19.8375C15.975 20.85 15.15 21.675 14.1375 21.675C13.125 21.675 12.3 20.85 12.3 19.8375C12.3 18.8251 13.125 18 14.1375 18C15.15 18 15.975 18.8251 15.975 19.8375ZM3.37499 4.38755C2.81249 4.38755 2.36249 3.93755 2.36249 3.37505C2.36249 2.81255 2.81249 2.36255 3.37499 2.36255C3.93749 2.36255 4.38749 2.81255 4.38749 3.37505C4.38749 3.93755 3.93749 4.38755 3.37499 4.38755ZM11.3625 12.4125C10.05 12.4125 8.99999 11.3625 8.99999 10.05C8.99999 8.73755 10.05 7.68755 11.3625 7.68755C12.675 7.68755 13.725 8.73755 13.725 10.05C13.725 11.3625 12.675 12.4125 11.3625 12.4125ZM21.4125 5.85005C21.225 6.07505 21 6.18755 20.7375 6.22505C20.475 6.26255 20.2125 6.15005 19.9875 6.00005C19.7625 5.81255 19.65 5.58755 19.6125 5.32505C19.575 5.06255 19.6875 4.80005 19.8375 4.57505C20.025 4.31255 20.325 4.20005 20.625 4.20005C20.85 4.20005 21.075 4.27505 21.2625 4.42505C21.7125 4.76255 21.7875 5.40005 21.4125 5.85005Z" fill="#161A23"/>
</g>
<defs>
<clipPath id="clip0_501_45500">
<rect width="24" height="24" fill="white"/>
</clipPath>
</defs>
</svg>
