<svg width="24" height="24" viewBox="0 0 24 24" fill="none" xmlns="http://www.w3.org/2000/svg">
<g clip-path="url(#clip0_501_45460)">
<path d="M20.4 8.21245C19.35 8.21245 18.45 8.81245 18.0375 9.71245L13.95 9.18745C13.6125 8.09995 12.6 7.31245 11.4375 7.31245C10.9125 7.31245 10.4625 7.46245 10.05 7.72495L6 4.49995C6.15 4.16245 6.2625 3.74995 6.2625 3.33745C6.2625 1.83745 5.0625 0.637451 3.6 0.637451C2.1375 0.637451 0.9375 1.87495 0.9375 3.37495C0.9375 4.87495 2.1375 6.07495 3.6 6.07495C4.05 6.07495 4.5 5.96245 4.875 5.73745L8.925 8.99995C8.8125 9.29995 8.7375 9.63745 8.7375 10.0125C8.7375 10.875 9.1125 11.625 9.7125 12.1125L8.7 14.7C8.55 14.7 8.4 14.6625 8.25 14.6625C5.925 14.6625 4.0125 16.6125 4.0125 18.975C4.0125 21.3375 5.8875 23.2875 8.25 23.2875C10.6125 23.2875 12.4875 21.3375 12.4875 18.975C12.4875 17.3624 11.625 15.9375 10.3125 15.1875L11.2875 12.675C11.325 12.675 11.3625 12.675 11.4 12.675C12.5625 12.675 13.575 11.8875 13.9125 10.8L17.775 11.2875C18 12.5625 19.0875 13.5375 20.4 13.5375C21.8625 13.5375 23.0625 12.3375 23.0625 10.8375C23.0625 9.33745 21.8625 8.21245 20.4 8.21245ZM8.2875 21.6749C6.9 21.6749 5.7375 20.5125 5.7375 19.0499C5.7375 17.5875 6.8625 16.425 8.2875 16.425C9.7125 16.425 10.8375 17.5875 10.8375 19.0499C10.8375 20.5125 9.675 21.6749 8.2875 21.6749ZM3.6 4.38745C3.075 4.38745 2.625 3.93745 2.625 3.37495C2.625 2.81245 3.075 2.36245 3.6 2.36245C4.125 2.36245 4.575 2.81245 4.575 3.37495C4.575 3.93745 4.125 4.38745 3.6 4.38745ZM11.4 11.0625C10.875 11.0625 10.425 10.6125 10.425 10.05C10.425 9.48745 10.875 9.03745 11.4 9.03745C11.925 9.03745 12.375 9.48745 12.375 10.05C12.375 10.6125 11.925 11.0625 11.4 11.0625ZM20.4 11.9625C19.875 11.9625 19.425 11.5125 19.425 10.95C19.425 10.3875 19.875 9.93745 20.4 9.93745C20.925 9.93745 21.375 10.3875 21.375 10.95C21.375 11.5125 20.925 11.9625 20.4 11.9625Z" fill="#161A23"/>
</g>
<defs>
<clipPath id="clip0_501_45460">
<rect width="24" height="24" fill="white"/>
</clipPath>
</defs>
</svg>
