<svg width="24" height="24" viewBox="0 0 24 24" fill="none" xmlns="http://www.w3.org/2000/svg">
<path d="M11.4 12.975H13.9875C14.4375 12.975 14.8125 12.6 14.8125 12.15C14.8125 11.7 14.4375 11.325 13.9875 11.325H13.2375V10.9875C13.2375 10.5375 12.8625 10.1625 12.4125 10.1625C11.9625 10.1625 11.5875 10.5375 11.5875 10.9875V11.325H11.4375C10.2 11.325 9.1875 12.3375 9.1875 13.575C9.1875 14.8125 10.2 15.825 11.4375 15.825H12.6375C12.9375 15.825 13.2 16.0875 13.2 16.3875C13.2 16.6875 12.9375 16.95 12.6375 16.95H10.05C9.6 16.95 9.225 17.325 9.225 17.775C9.225 18.225 9.6 18.6 10.05 18.6H11.625V18.9375C11.625 19.3875 12 19.7625 12.45 19.7625C12.9 19.7625 13.275 19.3875 13.275 18.9375V18.4875C14.2125 18.225 14.8875 17.3625 14.8875 16.35C14.8875 15.1125 13.875 14.1 12.6375 14.1H11.4375C11.1375 14.1 10.875 13.8375 10.875 13.5375C10.875 13.2375 11.1 12.975 11.4 12.975Z" fill="#161A23"/>
<path d="M20.7375 13.1625C20.1375 11.8125 19.35 10.5 18.3375 9.29999C17.4375 8.21249 16.5375 7.38749 15.8625 6.86249L17.7375 3.37499C18.0375 2.84999 17.925 2.17499 17.475 1.76249C16.725 1.04999 15.9 0.674988 15 0.674988C14.2125 0.674988 13.5 0.974988 12.975 1.19999H12.9375C12.7125 1.27499 12.375 1.42499 12.2625 1.42499C11.1375 1.01249 10.275 0.749988 9.375 0.749988C8.175 0.749988 7.125 1.23749 6.15 2.24999C5.7 2.69999 5.625 3.41249 6 3.97499L7.9875 6.93749C7.35 7.46249 6.4875 8.24999 5.5875 9.29999C4.575 10.5 3.7875 11.8125 3.1875 13.1625C2.4375 14.85 2.0625 16.65 2.0625 18.45C2.0625 21.15 4.275 23.3625 6.975 23.3625H16.875C19.575 23.3625 21.7875 21.15 21.7875 18.45C21.8625 16.65 21.4875 14.85 20.7375 13.1625ZM7.6125 3.26249C8.775 2.17499 9.8625 2.32499 11.775 3.03749C11.9625 3.11249 12.15 3.14999 12.3375 3.14999C12.7875 3.14999 13.2375 2.96249 13.6875 2.77499L13.725 2.73749C14.1375 2.54999 14.625 2.36249 15.075 2.36249C15.45 2.36249 15.825 2.51249 16.1625 2.81249L14.2875 6.29999H9.6L7.6125 3.26249ZM16.95 21.675H7.05C5.2875 21.675 3.825 20.2125 3.825 18.45C3.825 16.875 4.1625 15.3375 4.8 13.8375C5.325 12.6375 6.0375 11.475 6.9375 10.3875C7.9125 9.22499 8.85 8.39999 9.45 7.94999H14.55C15.15 8.39999 16.0875 9.22499 17.0625 10.3875C17.9625 11.475 18.675 12.6 19.2 13.8375C19.8375 15.3375 20.175 16.875 20.175 18.45C20.175 20.2125 18.75 21.675 16.95 21.675Z" fill="#161A23"/>
</svg>
