<svg width="24" height="24" viewBox="0 0 24 24" fill="none" xmlns="http://www.w3.org/2000/svg">
<path d="M13.05 10.3875H15C15.45 10.3875 15.825 10.0125 15.825 9.56249C15.825 9.11249 15.45 8.73749 15 8.73749H14.6625V8.62499C14.6625 8.17499 14.2875 7.79999 13.8375 7.79999C13.3875 7.79999 13.0125 8.17499 13.0125 8.62499V8.66249C12 8.69999 11.2125 9.52499 11.2125 10.5375C11.2125 11.5875 12.075 12.4125 13.0875 12.4125H13.9875C14.1 12.4125 14.175 12.4875 14.175 12.6C14.175 12.7125 14.1 12.7875 13.9875 12.7875H12C11.55 12.7875 11.175 13.1625 11.175 13.6125C11.175 14.0625 11.55 14.4375 12 14.4375H12.9375V14.475C12.9375 14.925 13.3125 15.3 13.7625 15.3C14.2125 15.3 14.5875 14.925 14.5875 14.475V14.2875C15.3 14.025 15.7875 13.35 15.7875 12.525C15.7875 11.475 14.925 10.65 13.9125 10.65H13.0125C12.9 10.65 12.825 10.575 12.825 10.4625C12.825 10.35 12.9375 10.3875 13.05 10.3875Z" fill="#161A23"/>
<path d="M15.2625 16.2H6.41249C6.07499 16.2 5.81249 15.9375 5.81249 15.6V7.61249C5.81249 7.27499 6.07499 7.01249 6.41249 7.01249H20.5875C20.925 7.01249 21.1875 7.27499 21.1875 7.61249V12.45C21.1875 12.9 21.5625 13.275 22.0125 13.275C22.4625 13.275 22.8375 12.9 22.8375 12.45V7.61249C22.8375 6.33749 21.825 5.32499 20.55 5.32499H19.3875V4.87499C19.3875 3.67499 18.4125 2.73749 17.25 2.73749H2.96249C1.68749 2.73749 0.674988 3.74999 0.674988 5.02499V12.975C0.674988 14.25 1.68749 15.2625 2.96249 15.2625H4.12499V15.5625C4.12499 16.8375 5.13749 17.85 6.41249 17.85H15.2625C15.7125 17.85 16.0875 17.475 16.0875 17.025C16.0875 16.575 15.75 16.2 15.2625 16.2ZM2.96249 13.575C2.62499 13.575 2.36249 13.3125 2.36249 12.975V5.02499C2.36249 4.68749 2.62499 4.42499 2.96249 4.42499H17.25C17.5125 4.42499 17.7 4.61249 17.7 4.87499V5.32499H6.41249C5.13749 5.32499 4.12499 6.33749 4.12499 7.61249V13.575H2.96249Z" fill="#161A23"/>
<path d="M22.5 16.725H22.3125V16.1625C22.3125 14.925 21.3 13.95 20.1 13.95C18.8625 13.95 17.8875 14.9625 17.8875 16.1625V16.725H17.625C17.175 16.725 16.8 17.1 16.8 17.55V20.4C16.8 20.85 17.175 21.225 17.625 21.225H22.5C22.95 21.225 23.325 20.85 23.325 20.4V17.55C23.325 17.1 22.95 16.725 22.5 16.725ZM19.5375 16.1625C19.5375 15.8625 19.7625 15.6375 20.0625 15.6375C20.3625 15.6375 20.5875 15.8625 20.5875 16.1625V16.725H19.5V16.1625H19.5375ZM21.6375 19.575H18.45V18.4125H21.6375V19.575Z" fill="#161A23"/>
</svg>
