<svg width="24" height="24" viewBox="0 0 24 24" fill="none" xmlns="http://www.w3.org/2000/svg">
<path d="M21.1124 6.44995H17.1375C17.025 5.77495 16.575 5.17495 15.9375 4.87495L12.825 3.52495C12.3 3.29995 11.7375 3.29995 11.2125 3.52495L8.06245 4.87495C7.38745 5.13745 6.93745 5.73745 6.86245 6.44995H2.88745C1.64995 6.44995 0.637451 7.46245 0.637451 8.69995V18.375C0.637451 19.6125 1.64995 20.625 2.88745 20.625H21.075C22.3125 20.625 23.325 19.6125 23.325 18.375V8.69995C23.325 7.46245 22.35 6.44995 21.1124 6.44995ZM18.2625 18.9375H5.73745C5.77495 18.7875 5.77495 18.6 5.77495 18.45C5.77495 16.725 4.38745 15.3375 2.66245 15.3375C2.54995 15.3375 2.43745 15.3375 2.32495 15.375V11.775C2.43745 11.775 2.54995 11.8125 2.66245 11.8125C4.38745 11.8125 5.77495 10.425 5.77495 8.69995C5.77495 8.54995 5.77495 8.36245 5.73745 8.21245H6.82495V8.43745C6.82495 11.8125 7.94995 13.875 10.8375 15.7875C11.175 16.0125 11.5875 16.125 11.9625 16.125C12.375 16.125 12.75 16.0125 13.0875 15.7875C15.975 13.875 17.1 11.8125 17.1 8.43745V8.21245H18.1875C18.15 8.36245 18.15 8.54995 18.15 8.69995C18.15 10.425 19.5375 11.8125 21.2625 11.8125C21.375 11.8125 21.4874 11.8125 21.6 11.775V15.375C21.4874 15.375 21.375 15.3375 21.2625 15.3375C19.5375 15.3375 18.15 16.725 18.15 18.45C18.225 18.6 18.225 18.75 18.2625 18.9375ZM21.6749 8.69995V10.0125C21.5625 10.05 21.45 10.05 21.3375 10.05C20.55 10.05 19.9125 9.41245 19.9125 8.62495C19.9125 8.43745 19.95 8.28745 19.9874 8.13745H21.1124C21.4125 8.13745 21.6749 8.39995 21.6749 8.69995ZM8.51245 6.78745C8.51245 6.63745 8.58745 6.52495 8.73745 6.44995L11.85 5.09995C11.8875 5.06245 11.925 5.06245 12 5.06245C12.0375 5.06245 12.1125 5.06245 12.15 5.09995L15.2625 6.44995C15.4125 6.52495 15.4875 6.63745 15.4875 6.78745V8.39995C15.4875 11.25 14.6625 12.75 12.225 14.3625C12.1125 14.4375 11.925 14.4375 11.8125 14.3625C9.37495 12.75 8.54995 11.25 8.54995 8.39995V6.78745H8.51245ZM2.88745 8.13745H4.01245C4.08745 8.28745 4.08745 8.47495 4.08745 8.62495C4.08745 9.41245 3.44995 10.05 2.66245 10.05C2.54995 10.05 2.43745 10.05 2.32495 10.0125V8.69995C2.32495 8.39995 2.58745 8.13745 2.88745 8.13745ZM2.32495 18.375V17.0625C2.43745 17.025 2.54995 17.025 2.66245 17.025C3.44995 17.025 4.08745 17.6625 4.08745 18.45C4.08745 18.6375 4.04995 18.7875 4.01245 18.9375H2.88745C2.58745 18.9375 2.32495 18.675 2.32495 18.375ZM21.1124 18.9375H19.9874C19.9125 18.7875 19.9125 18.6 19.9125 18.45C19.9125 17.6625 20.55 17.025 21.3375 17.025C21.45 17.025 21.5625 17.025 21.6749 17.0625V18.375C21.675 18.675 21.4125 18.9375 21.1124 18.9375Z" fill="#161A23"/>
<path d="M10.7249 11.2125C10.8749 11.4 11.1374 11.5125 11.3624 11.5125C11.5499 11.5125 11.7374 11.4375 11.8874 11.325L14.1749 9.48748C14.5499 9.18748 14.5874 8.66248 14.2874 8.28748C13.9874 7.91248 13.4624 7.87498 13.0874 8.17498L11.3999 9.52498L11.1374 9.22498C10.8374 8.88748 10.3124 8.84998 9.93736 9.14998C9.59986 9.44998 9.56236 9.97498 9.86236 10.35L10.7249 11.2125Z" fill="#161A23"/>
</svg>
