<svg width="24" height="24" viewBox="0 0 24 24" fill="none" xmlns="http://www.w3.org/2000/svg">
<path d="M20.1 2.8125L12.4875 0.7125C12.1875 0.6375 11.85 0.6375 11.55 0.7125L3.90005 2.8125C3.11255 3.0375 2.55005 3.75 2.55005 4.575V10.125C2.55005 15.9375 6.00005 21.075 11.3251 23.2125C11.55 23.2875 11.7751 23.3625 12 23.3625C12.225 23.3625 12.45 23.325 12.675 23.2125C18 21.075 21.4501 15.9 21.4501 10.0875V4.575C21.4501 3.75 20.8876 3.0375 20.1 2.8125ZM19.7626 10.0875C19.7626 15.1125 16.6501 19.7625 12.0751 21.6375C12.0375 21.6375 12 21.6375 11.9625 21.6375C7.27505 19.7625 4.23755 15.225 4.23755 10.125V4.575C4.23755 4.5375 4.27505 4.4625 4.31255 4.4625L11.9625 2.3625H12C12 2.3625 12 2.3625 12.0375 2.3625L19.6875 4.4625C19.725 4.4625 19.7626 4.5375 19.7626 4.575V10.0875Z" fill="#161A23"/>
<path d="M13.3125 10.2H10.6875C10.0875 10.2 9.63745 9.71255 9.63745 9.11255C9.63745 8.51255 10.125 8.02505 10.6875 8.02505H14.8875C15.3375 8.02505 15.7125 7.65005 15.7125 7.20005C15.7125 6.75005 15.3375 6.37505 14.8875 6.37505H12.8625V5.81255C12.8625 5.36255 12.4875 4.98755 12 4.98755C11.5125 4.98755 11.175 5.36255 11.175 5.81255V6.37505H10.6875C9.18745 6.37505 7.94995 7.61255 7.94995 9.15005C7.94995 10.6875 9.18745 11.925 10.6875 11.925H13.3125C13.9125 11.925 14.3625 12.4125 14.3625 13.0125C14.3625 13.6125 13.875 14.1 13.3125 14.1H9.14995C8.69995 14.1 8.32495 14.475 8.32495 14.925C8.32495 15.375 8.69995 15.75 9.14995 15.75H11.175V16.3125C11.175 16.7625 11.55 17.1375 12 17.1375C12.45 17.1375 12.8625 16.7625 12.8625 16.3125V15.75H13.35C14.85 15.75 16.0875 14.5125 16.0875 12.975C16.0875 11.4375 14.85 10.2 13.3125 10.2Z" fill="#161A23"/>
</svg>
