<svg width="24" height="24" viewBox="0 0 24 24" fill="none" xmlns="http://www.w3.org/2000/svg">
<path d="M12 0.525024C6.7125 0.525024 2.4375 4.61252 2.4375 9.60003C2.4375 13.3875 7.5375 19.35 10.575 22.575C10.95 22.9875 11.475 23.2125 12 23.2125C12.5625 23.2125 13.05 22.9875 13.425 22.575C16.4625 19.35 21.5625 13.3875 21.5625 9.60003C21.5625 4.61252 17.2875 0.525024 12 0.525024ZM12.1875 21.4125C12.1125 21.4875 12.0375 21.525 12 21.525C11.9625 21.525 11.85 21.525 11.8125 21.4125C8.1 17.475 4.125 12.3 4.125 9.60003C4.125 5.55002 7.65 2.25002 12 2.25002C16.35 2.25002 19.875 5.55002 19.875 9.60003C19.875 12.3 15.9 17.475 12.1875 21.4125Z" fill="#161A23"/>
<path d="M12.975 9.37505H11.0625C10.7625 9.37505 10.5 9.11255 10.5 8.81255C10.5 8.51255 10.7625 8.25005 11.0625 8.25005H14.1375C14.5875 8.25005 14.9625 7.87505 14.9625 7.42505C14.9625 6.97505 14.5875 6.60005 14.1375 6.60005H12.9V6.37505C12.9 5.92505 12.525 5.55005 12.075 5.55005C11.625 5.55005 11.25 5.92505 11.25 6.37505V6.56255H11.1375C9.89995 6.56255 8.88745 7.57505 8.88745 8.81255C8.88745 10.05 9.89995 11.0625 11.1375 11.0625H13.05C13.35 11.0625 13.6125 11.325 13.6125 11.625C13.6125 11.925 13.35 12.1875 13.05 12.1875H9.97495C9.52495 12.1875 9.14995 12.5625 9.14995 13.0125C9.14995 13.4625 9.52495 13.8375 9.97495 13.8375H11.2125V14.025C11.2125 14.475 11.5875 14.85 12.0375 14.85C12.4875 14.85 12.8625 14.475 12.8625 14.025V13.8375H12.975C14.2125 13.8375 15.225 12.825 15.225 11.5875C15.225 10.35 14.2125 9.37505 12.975 9.37505Z" fill="#161A23"/>
</svg>
