<svg width="24" height="24" viewBox="0 0 24 24" fill="none" xmlns="http://www.w3.org/2000/svg">
<path d="M23.1376 8.3625L20.2126 6.525C19.9126 5.475 18.9376 4.725 17.8126 4.725H17.3626L12.4501 1.6875C12.1876 1.5 11.8126 1.5 11.5501 1.6875L6.6001 4.7625H6.1501C5.0251 4.7625 4.0501 5.5125 3.7501 6.5625L0.825098 8.4C0.562598 8.55 0.412598 8.8125 0.412598 9.1125V19.95C0.412598 21.3375 1.5376 22.4625 2.9251 22.4625H21.0001C22.3876 22.4625 23.5126 21.3375 23.5126 19.95V9.1125C23.5501 8.8125 23.4001 8.55 23.1376 8.3625ZM21.8251 10.575L20.3251 11.1375V8.625L21.8251 9.5625V10.575ZM12.0001 3.4125L14.2126 4.8H9.7876L12.0001 3.4125ZM6.1876 6.45H6.8626H17.8126C18.2251 6.45 18.5626 6.75 18.6376 7.1625C18.6376 7.2 18.6376 11.7375 18.6376 11.7375L11.8501 14.25L5.3626 11.8875V7.1625C5.4376 6.75 5.7751 6.45 6.1876 6.45ZM3.6751 8.625V11.2875L2.1751 10.725V9.5625L3.6751 8.625ZM21.0001 20.7375H3.0001C2.5501 20.7375 2.1751 20.3625 2.1751 19.9125V12.525L11.5876 15.9375C11.6626 15.975 11.7751 15.975 11.8876 15.975C12.0001 15.975 12.0751 15.975 12.1876 15.9375L21.8251 12.375V19.9125C21.8251 20.3625 21.4876 20.7375 21.0001 20.7375Z" fill="#161A23"/>
<path d="M12.0001 12.75C13.4626 12.75 14.6626 11.55 14.6626 10.0875C14.6626 8.62505 13.4626 7.42505 12.0001 7.42505C10.5376 7.42505 9.33765 8.62505 9.33765 10.0875C9.33765 11.55 10.5376 12.75 12.0001 12.75ZM12.0001 9.07505C12.5251 9.07505 12.9751 9.52505 12.9751 10.05C12.9751 10.575 12.5251 11.025 12.0001 11.025C11.4751 11.025 11.0251 10.575 11.0251 10.05C11.0251 9.52505 11.4751 9.07505 12.0001 9.07505Z" fill="#161A23"/>
</svg>
