<svg width="24" height="24" viewBox="0 0 24 24" fill="none" xmlns="http://www.w3.org/2000/svg">
<path d="M21.1124 4.91255H15.4125V4.87505C15.4125 3.78755 14.5125 2.92505 13.4625 2.92505H10.575C9.48745 2.92505 8.62495 3.82505 8.62495 4.87505V4.91255H2.88745C1.64995 4.91255 0.637451 5.92505 0.637451 7.16255V16.8376C0.637451 18.0751 1.64995 19.0876 2.88745 19.0876H8.58745V19.125C8.58745 20.2126 9.48745 21.0751 10.5375 21.0751H13.425C14.5125 21.0751 15.375 20.1751 15.375 19.125V19.0876H21.075C22.3125 19.0876 23.325 18.0751 23.325 16.8376V7.16255C23.325 5.92505 22.35 4.91255 21.1124 4.91255ZM21.6749 7.16255V8.47505C21.5625 8.51255 21.45 8.51255 21.3375 8.51255C20.55 8.51255 19.9125 7.87505 19.9125 7.08755C19.9125 6.90005 19.95 6.75005 19.9874 6.60005H21.1124C21.4125 6.60005 21.6749 6.86255 21.6749 7.16255ZM2.88745 6.60005H4.01245C4.08745 6.75005 4.08745 6.93755 4.08745 7.08755C4.08745 7.87505 3.44995 8.51255 2.66245 8.51255C2.54995 8.51255 2.43745 8.51255 2.32495 8.47505V7.16255C2.32495 6.86255 2.58745 6.60005 2.88745 6.60005ZM2.32495 16.8376V15.5251C2.43745 15.4876 2.54995 15.4875 2.66245 15.4875C3.44995 15.4875 4.08745 16.125 4.08745 16.9125C4.08745 17.1 4.04995 17.2501 4.01245 17.4001H2.88745C2.58745 17.4001 2.32495 17.1376 2.32495 16.8376ZM5.73745 17.4001C5.77495 17.2501 5.77495 17.0625 5.77495 16.9125C5.77495 15.1875 4.38745 13.8 2.66245 13.8C2.54995 13.8 2.43745 13.8001 2.32495 13.8376V10.2375C2.43745 10.2375 2.54995 10.275 2.66245 10.275C4.38745 10.275 5.77495 8.88755 5.77495 7.16255C5.77495 7.01255 5.77495 6.82505 5.73745 6.67505H8.58745V17.475H5.73745V17.4001ZM13.725 19.125C13.725 19.2751 13.6125 19.4251 13.425 19.4251H10.5375C10.3875 19.4251 10.2375 19.3125 10.2375 19.125V4.87505C10.2375 4.72505 10.35 4.57505 10.5375 4.57505H13.425C13.575 4.57505 13.725 4.68755 13.725 4.87505V19.125ZM15.4125 6.60005H18.2625C18.225 6.75005 18.225 6.93755 18.225 7.08755C18.225 8.81255 19.6125 10.2 21.3375 10.2C21.45 10.2 21.5625 10.2 21.6749 10.1625V13.7626C21.5625 13.7626 21.45 13.725 21.3375 13.725C19.6125 13.725 18.225 15.1126 18.225 16.8376C18.225 16.9876 18.225 17.1751 18.2625 17.3251H15.4125V6.60005ZM21.1124 17.4001H19.9874C19.9125 17.2501 19.9125 17.0625 19.9125 16.9125C19.9125 16.125 20.55 15.4875 21.3375 15.4875C21.45 15.4875 21.5625 15.4876 21.6749 15.5251V16.8376C21.675 17.1376 21.4125 17.4001 21.1124 17.4001Z" fill="#161A23"/>
</svg>
