<svg width="24" height="24" viewBox="0 0 24 24" fill="none" xmlns="http://www.w3.org/2000/svg">
<path d="M18.3375 3.4125C16.725 1.6875 14.55 0.712502 12.225 0.675002C9.86245 0.600002 7.57495 1.5 5.88745 3.15C4.19995 4.8 3.26245 7.05 3.26245 9.4125C3.26245 12.45 4.79995 15.225 7.38745 16.8375C7.87495 17.1375 8.17495 17.7375 8.17495 18.375V19.875C8.17495 21.7875 9.71245 23.325 11.625 23.325H12.4125C14.325 23.325 15.8625 21.7875 15.8625 19.875V18.3C15.8625 17.7 16.1625 17.1375 16.65 16.8375C19.1625 15.2625 20.7 12.6 20.775 9.6375C20.8125 7.35 19.95 5.1375 18.3375 3.4125ZM14.175 19.875C14.175 20.85 13.3875 21.6375 12.4125 21.6375H11.625C10.65 21.6375 9.86245 20.85 9.86245 19.875V18.375C9.86245 18.225 9.86245 18.1125 9.82495 17.9625H14.2125C14.2125 18.075 14.175 18.1875 14.175 18.3375V19.875ZM15.75 15.4125C15.4125 15.6375 15.075 15.9375 14.85 16.275H9.14995C8.88745 15.9375 8.58745 15.6375 8.24995 15.4125C6.14995 14.1 4.91245 11.85 4.91245 9.4125C4.91245 7.5 5.66245 5.7 7.04995 4.35C8.39995 3.0375 10.125 2.3625 12 2.3625C12.075 2.3625 12.1125 2.3625 12.1875 2.3625C14.025 2.4 15.7875 3.1875 17.1 4.575C18.4125 5.9625 19.125 7.7625 19.0875 9.6375C19.0125 12 17.775 14.175 15.75 15.4125Z" fill="#161A23"/>
<path d="M11.4 7.125H13.9875C14.4375 7.125 14.85 6.75001 14.85 6.26251C14.85 5.77501 14.475 5.4 13.9875 5.4H13.2375V5.0625C13.2375 4.6125 12.8625 4.2 12.375 4.2C11.925 4.2 11.5125 4.575 11.5125 5.0625V5.4H11.3625C10.125 5.4 9.11255 6.4125 9.11255 7.65C9.11255 8.88751 10.125 9.9 11.3625 9.9H12.5625C12.8625 9.9 13.125 10.1625 13.125 10.4625C13.125 10.7625 12.8625 11.025 12.5625 11.025H9.97505C9.52505 11.025 9.11255 11.4 9.11255 11.8875C9.11255 12.375 9.48755 12.7125 9.97505 12.7125H11.55V13.05C11.55 13.5 11.925 13.9125 12.4125 13.9125C12.8625 13.9125 13.275 13.5375 13.275 13.05V12.6C14.2125 12.3375 14.8875 11.475 14.8875 10.4625C14.8875 9.22501 13.875 8.2125 12.6375 8.2125H11.4375C11.1375 8.2125 10.875 7.95 10.875 7.65C10.8375 7.35 11.1 7.125 11.4 7.125Z" fill="#161A23"/>
</svg>
