<svg width="24" height="24" viewBox="0 0 24 24" fill="none" xmlns="http://www.w3.org/2000/svg">
<path d="M22.5 12.4876H22.275V11.8876C22.275 10.6501 21.2625 9.63757 20.025 9.63757C18.7875 9.63757 17.775 10.6501 17.775 11.8876V12.4876H17.55C17.1 12.4876 16.725 12.8626 16.725 13.3126V16.2376C16.725 16.6876 17.1 17.0626 17.55 17.0626H22.5C22.95 17.0626 23.325 16.6876 23.325 16.2376V13.3126C23.3625 12.9001 22.95 12.4876 22.5 12.4876ZM19.425 11.8876C19.425 11.5876 19.6875 11.3251 19.9875 11.3251C20.2875 11.3251 20.55 11.5876 20.55 11.8876V12.4876H19.3875V11.8876H19.425ZM21.675 15.4126H18.375V14.1751H21.675V15.4126Z" fill="#161A23"/>
<path d="M10.0875 8.40005H12.3375C12.7875 8.40005 13.1625 8.02505 13.1625 7.57505C13.1625 7.12505 12.7875 6.75005 12.3375 6.75005H11.8125V6.56255C11.8125 6.11255 11.4375 5.73755 10.9875 5.73755C10.5375 5.73755 10.1625 6.11255 10.1625 6.56255V6.75005H10.125C9 6.75005 8.0625 7.65005 8.0625 8.81255C8.0625 9.97505 9 10.875 10.125 10.875H11.175C11.3625 10.875 11.55 11.025 11.55 11.25C11.55 11.475 11.4 11.625 11.175 11.625H8.925C8.475 11.625 8.1 12 8.1 12.45C8.1 12.9 8.475 13.275 8.925 13.275H10.1625V13.4625C10.1625 13.9125 10.5375 14.2875 10.9875 14.2875C11.4375 14.2875 11.8125 13.9125 11.8125 13.4625V13.1625C12.6 12.9 13.2 12.1125 13.2 11.25C13.2 10.125 12.2625 9.18755 11.1375 9.18755H10.0875C9.9 9.18755 9.7125 9.03755 9.7125 8.81255C9.7125 8.58755 9.8625 8.40005 10.0875 8.40005Z" fill="#161A23"/>
<path d="M14.6625 15.1875H2.85001C2.55001 15.1875 2.32501 14.9625 2.32501 14.6625V4.80002C2.32501 4.50002 2.55001 4.27502 2.85001 4.27502H18.3C18.6 4.27502 18.825 4.50002 18.825 4.80002V8.13752C18.825 8.58752 19.2 8.96252 19.65 8.96252C20.1 8.96252 20.475 8.58752 20.475 8.13752V4.80002C20.475 3.60002 19.5 2.58752 18.2625 2.58752H2.85001C1.65001 2.58752 0.637512 3.56252 0.637512 4.80002V14.6625C0.637512 15.8625 1.61251 16.875 2.85001 16.875H9.75001V19.725H7.23751C6.78751 19.725 6.41251 20.1 6.41251 20.55C6.41251 21 6.78751 21.375 7.23751 21.375H13.95C14.4 21.375 14.775 21 14.775 20.55C14.775 20.1 14.4 19.725 13.95 19.725H11.4375V16.875H14.6625C15.1125 16.875 15.4875 16.5 15.4875 16.05C15.4875 15.6 15.15 15.1875 14.6625 15.1875Z" fill="#161A23"/>
</svg>
