<svg width="24" height="24" viewBox="0 0 24 24" fill="none" xmlns="http://www.w3.org/2000/svg">
<g clip-path="url(#clip0_501_43603)">
<path d="M12 0.675003C5.73749 0.675003 0.674988 5.7375 0.674988 12C0.674988 18.2625 5.73749 23.3625 12 23.3625C18.2625 23.3625 23.3625 18.2625 23.3625 12C23.3625 5.7375 18.2625 0.675003 12 0.675003ZM12 21.675C6.67499 21.675 2.36249 17.325 2.36249 12C2.36249 6.675 6.67499 2.3625 12 2.3625C17.325 2.3625 21.675 6.7125 21.675 12.0375C21.675 17.325 17.325 21.675 12 21.675Z" fill="#161A23"/>
<path d="M5.925 10.575C5.1375 10.575 4.5 11.2125 4.5 12C4.5 12.7875 5.1375 13.425 5.925 13.425C6.7125 13.425 7.35 12.7875 7.35 12C7.35 11.2125 6.75 10.575 5.925 10.575Z" fill="#161A23"/>
<path d="M12 10.575C11.2125 10.575 10.575 11.2125 10.575 12C10.575 12.7875 11.2125 13.425 12 13.425C12.7875 13.425 13.425 12.7875 13.425 12C13.425 11.2125 12.7875 10.575 12 10.575Z" fill="#161A23"/>
<path d="M18.075 10.5375C17.2875 10.5375 16.65 11.175 16.65 11.9625C16.65 12.75 17.2875 13.3875 18.075 13.3875C18.8625 13.3875 19.5 12.7875 19.5 12C19.5 11.2125 18.8625 10.5375 18.075 10.5375Z" fill="#161A23"/>
</g>
<defs>
<clipPath id="clip0_501_43603">
<rect width="24" height="24" fill="white"/>
</clipPath>
</defs>
</svg>
