<svg width="24" height="24" viewBox="0 0 24 24" fill="none" xmlns="http://www.w3.org/2000/svg">
<path d="M12.0002 14C10.9068 14 10.0002 13.0933 10.0002 12C10.0002 10.9067 10.9068 10 12.0002 10C13.0935 10 14.0002 10.9067 14.0002 12C14.0002 13.0933 13.0935 14 12.0002 14ZM12.0002 11.2C11.5468 11.2 11.2002 11.5733 11.2002 12C11.2002 12.4267 11.5735 12.8 12.0002 12.8C12.4268 12.8 12.8002 12.4267 12.8002 12C12.8002 11.5733 12.4535 11.2 12.0002 11.2Z" fill="#161A23"/>
<path d="M19.0002 14C17.9068 14 17.0002 13.0933 17.0002 12C17.0002 10.9067 17.9068 10 19.0002 10C20.0935 10 21.0002 10.9067 21.0002 12C21.0268 13.0933 20.1202 14 19.0002 14ZM19.0002 11.2C18.5468 11.2 18.2002 11.5733 18.2002 12C18.2002 12.4267 18.5735 12.8 19.0002 12.8C19.4268 12.8 19.8002 12.4267 19.8002 12C19.8002 11.5733 19.4535 11.2 19.0002 11.2Z" fill="#161A23"/>
<path d="M5.00018 14C3.90685 14 3.00018 13.0933 3.00018 12C3.00018 10.9067 3.90685 10 5.00018 10C6.09352 10 7.00018 10.9067 7.00018 12C7.00018 13.0933 6.09352 14 5.00018 14ZM5.00018 11.2C4.54685 11.2 4.20018 11.5733 4.20018 12C4.20018 12.4267 4.57352 12.8 5.00018 12.8C5.45352 12.8 5.80018 12.4267 5.80018 12C5.80018 11.5733 5.42685 11.2 5.00018 11.2Z" fill="#161A23"/>
</svg>
