<svg width="24" height="24" viewBox="0 0 24 24" fill="none" xmlns="http://www.w3.org/2000/svg">
<path d="M9.59995 4.79998L6.07495 1.27498C5.73745 0.937476 5.21245 0.937476 4.87495 1.27498C4.53745 1.61248 4.53745 2.13748 4.87495 2.47498L6.97495 4.57498H2.21245C1.34995 4.57498 0.637451 5.28748 0.637451 6.14998V11.775V12.4875V14.4375C0.637451 14.625 0.712451 14.8125 0.824951 14.9625C0.712451 15.1125 0.637451 15.3 0.637451 15.4875V18.4875C0.637451 18.9375 1.01245 19.3125 1.46245 19.3125C1.91245 19.3125 2.28745 18.9375 2.28745 18.4875V15.4875C2.28745 15.3 2.21245 15.1125 2.09995 14.9625C2.21245 14.8125 2.28745 14.625 2.28745 14.4375V12.4875V11.775V6.26248H6.93745L4.83745 8.36248C4.49995 8.69998 4.49995 9.22498 4.83745 9.56248C4.98745 9.71248 5.21245 9.82498 5.43745 9.82498C5.66245 9.82498 5.88745 9.74998 6.03745 9.56248L9.56245 6.03748C9.93745 5.66248 9.93745 5.13748 9.59995 4.79998Z" fill="#161A23"/>
<path d="M16.1624 21.2625H13.1624C12.7124 21.2625 12.3374 21.6375 12.3374 22.0875C12.3374 22.5375 12.7124 22.9125 13.1624 22.9125H16.1624C16.6124 22.9125 16.9874 22.5375 16.9874 22.0875C16.9874 21.6375 16.6124 21.2625 16.1624 21.2625Z" fill="#161A23"/>
<path d="M21.7874 4.65002H20.8499C20.3999 4.65002 20.0249 5.02502 20.0249 5.47502C20.0249 5.92502 20.3999 6.30002 20.8499 6.30002H21.6374V7.12502C21.6374 7.57502 22.0124 7.95002 22.4624 7.95002C22.9124 7.95002 23.2874 7.57502 23.2874 7.12502V6.18752C23.3249 5.32502 22.6499 4.65002 21.7874 4.65002Z" fill="#161A23"/>
<path d="M10.1624 21.2625H7.1624C6.7124 21.2625 6.3374 21.6375 6.3374 22.0875C6.3374 22.5375 6.7124 22.9125 7.1624 22.9125H10.1624C10.6124 22.9125 10.9874 22.5375 10.9874 22.0875C10.9874 21.6375 10.6124 21.2625 10.1624 21.2625Z" fill="#161A23"/>
<path d="M22.4999 9.29993C22.0499 9.29993 21.6749 9.67493 21.6749 10.1249V13.1249C21.6749 13.5749 22.0499 13.9499 22.4999 13.9499C22.9499 13.9499 23.3249 13.5749 23.3249 13.1249V10.1249C23.3249 9.67493 22.9499 9.29993 22.4999 9.29993Z" fill="#161A23"/>
<path d="M4.16247 21.2625H2.32497C2.21247 20.85 1.83747 20.5875 1.42497 20.625C0.974965 20.6625 0.637465 21.075 0.674965 21.5625C0.749965 22.35 1.42497 22.95 2.24997 22.95H4.19997C4.64997 22.95 5.02497 22.575 5.02497 22.125C5.02497 21.675 4.61247 21.2625 4.16247 21.2625Z" fill="#161A23"/>
<path d="M22.4999 15.2999C22.0499 15.2999 21.6749 15.6749 21.6749 16.1249V19.1249C21.6749 19.5749 22.0499 19.9499 22.4999 19.9499C22.9499 19.9499 23.3249 19.5749 23.3249 19.1249V16.1249C23.3249 15.6749 22.9499 15.2999 22.4999 15.2999Z" fill="#161A23"/>
<path d="M21.7499 21.2624H19.1624C18.7124 21.2624 18.3374 21.6374 18.3374 22.0874C18.3374 22.5374 18.7124 22.9124 19.1624 22.9124H21.7874C22.0499 22.9124 22.3499 22.8374 22.5749 22.6874C22.9874 22.4624 23.0999 21.9374 22.8749 21.5249C22.6499 21.1874 22.1249 21.0749 21.7499 21.2624Z" fill="#161A23"/>
<path d="M18.7125 5.47502C18.7125 5.02502 18.3375 4.65002 17.8875 4.65002H14.8875C14.4375 4.65002 14.0625 5.02502 14.0625 5.47502C14.0625 5.92502 14.4375 6.30002 14.8875 6.30002H17.8875C18.3 6.33752 18.7125 5.96252 18.7125 5.47502Z" fill="#161A23"/>
</svg>
