<svg width="24" height="24" viewBox="0 0 24 24" fill="none" xmlns="http://www.w3.org/2000/svg">
<path d="M6.4125 22.9874C4.95 22.9874 3.5625 22.4249 2.55 21.4124C1.4625 20.3249 0.937503 18.8624 1.0125 17.2874C1.0875 15.7499 1.7625 14.2499 2.925 13.0874L5.2125 10.7999C5.25 10.7624 5.2875 10.7249 5.325 10.6874C5.3625 10.6499 5.4 10.6124 5.4375 10.5749L5.9625 10.0499C8.3625 7.64989 12.075 7.49989 14.2875 9.67489L14.325 9.71239C14.325 9.71239 14.325 9.74989 14.3625 9.74989C15.4125 10.8374 15.9 12.2624 15.825 13.8374C15.75 15.3749 15.075 16.8749 13.95 17.9999L13.4625 18.4874C13.425 18.5624 13.3875 18.5999 13.3125 18.6749C13.275 18.7124 13.2 18.7874 13.125 18.8249L10.875 21.0749C9.7125 22.2749 8.0625 22.9874 6.4125 22.9874ZM5.925 12.4874L4.125 14.2874C3.2625 15.1499 2.775 16.2374 2.7 17.3624C2.625 18.4874 3 19.4999 3.75 20.2124C4.4625 20.9249 5.4 21.2999 6.4125 21.2999C7.6125 21.2999 8.775 20.7749 9.675 19.8749L11.475 18.0749L5.925 12.4874ZM10.575 14.6999L12.7125 16.8374L12.75 16.7999C13.6125 15.9374 14.1 14.8499 14.175 13.7249C14.2125 12.9374 14.025 12.2249 13.6875 11.5874L10.575 14.6999ZM7.125 11.2874L9.375 13.5374L12.4875 10.4249C10.9125 9.41239 8.7 9.71239 7.125 11.2874ZM22.125 10.7999C21.6375 10.7999 21.2625 10.3874 21.2625 9.93739C21.3375 7.98739 20.5875 6.14989 19.2 4.76239C17.85 3.37489 16.0125 2.62489 14.025 2.69989C13.5375 2.69989 13.1625 2.36239 13.1625 1.87489C13.1625 1.38739 13.5 1.01239 13.9875 1.01239C16.425 0.937392 18.7125 1.83739 20.4375 3.56239C22.125 5.24989 23.0625 7.61239 22.9875 10.0124C22.9875 10.4624 22.6125 10.7999 22.125 10.7999ZM19.125 10.7249C18.6375 10.7249 18.2625 10.3124 18.2625 9.86239C18.3 8.73739 17.8875 7.64989 17.1 6.86239C16.3125 6.07489 15.225 5.62489 14.1 5.69989C13.65 5.69989 13.2375 5.36239 13.2375 4.87489C13.2375 4.42489 13.575 4.01239 14.0625 4.01239C15.6375 3.93739 17.175 4.57489 18.3 5.66239C19.425 6.78739 20.025 8.32489 19.95 9.89989C19.95 10.3874 19.575 10.7249 19.125 10.7249ZM16.125 10.6499H16.0875C15.6375 10.6124 15.2625 10.2374 15.3 9.74989C15.3 9.44989 15.225 9.18739 15 8.96239C14.775 8.73739 14.5125 8.66239 14.2125 8.66239C13.725 8.69989 13.35 8.32489 13.3125 7.87489C13.275 7.42489 13.65 7.01239 14.1 6.97489C14.85 6.93739 15.6 7.19989 16.1625 7.76239C16.725 8.32489 16.9875 9.07489 16.95 9.82489C16.95 10.3124 16.575 10.6499 16.125 10.6499Z" fill="#161A23"/>
</svg>
