<svg width="24" height="24" viewBox="0 0 24 24" fill="none" xmlns="http://www.w3.org/2000/svg">
<path d="M12 0.674988C7.79999 0.674988 4.42499 4.38749 4.42499 8.96249V15.0375C4.42499 19.6125 7.83749 23.325 12 23.325C13.95 23.325 15.7875 22.5375 17.175 21.1125C18.75 19.5375 19.6125 17.2875 19.575 15V8.96249C19.575 4.38749 16.1625 0.674988 12 0.674988ZM17.8875 8.96249V9.37499H12.9V2.43749C15.75 2.92499 17.8875 5.66249 17.8875 8.96249ZM11.2125 2.39999V9.37499H6.07499V8.96249C6.07499 5.58749 8.32499 2.81249 11.2125 2.39999ZM15.975 19.95C14.8875 21.0375 13.4625 21.6375 12 21.6375C8.73749 21.6375 6.11249 18.675 6.11249 15.0375V11.0625H17.925V15.0375C17.925 16.9125 17.2125 18.7125 15.975 19.95Z" fill="#161A23"/>
</svg>
