<svg width="24" height="24" viewBox="0 0 24 24" fill="none" xmlns="http://www.w3.org/2000/svg">
<path d="M22.4999 11.175H12.2249C11.7749 11.175 11.3999 11.55 11.3999 12C11.3999 12.45 11.7749 12.825 12.2249 12.825H22.4999C22.9499 12.825 23.3249 12.45 23.3249 12C23.3249 11.55 22.9499 11.175 22.4999 11.175Z" fill="#161A23"/>
<path d="M22.5 17.4375H12.3C11.85 17.4375 11.475 17.8125 11.475 18.2625C11.475 18.7125 11.85 19.0875 12.3 19.0875H22.5C22.95 19.0875 23.325 18.7125 23.325 18.2625C23.325 17.8125 22.95 17.4375 22.5 17.4375Z" fill="#161A23"/>
<path d="M12.3 6.5625H22.5C22.95 6.5625 23.325 6.1875 23.325 5.7375C23.325 5.2875 22.95 4.875 22.5 4.875H12.3C11.85 4.875 11.475 5.25 11.475 5.7C11.475 6.15 11.8125 6.5625 12.3 6.5625Z" fill="#161A23"/>
<path d="M7.16245 11.1L2.77495 7.95001C2.36245 7.65001 1.83745 7.61251 1.38745 7.83751C0.937451 8.06251 0.637451 8.51251 0.637451 9.03751V15.375C0.637451 15.9 0.899951 16.35 1.38745 16.575C1.57495 16.6875 1.79995 16.725 1.98745 16.725C2.24995 16.725 2.54995 16.65 2.77495 16.4625L7.16245 13.3125C7.49995 13.05 7.72495 12.6375 7.72495 12.225C7.72495 11.775 7.53745 11.3625 7.16245 11.1ZM2.32495 14.7V9.71251L5.77495 12.1875L2.32495 14.7Z" fill="#161A23"/>
</svg>
