<svg width="24" height="24" viewBox="0 0 24 24" fill="none" xmlns="http://www.w3.org/2000/svg">
<path d="M16.725 17.4375L12.8625 20.7001V1.50005C12.8625 1.05005 12.4875 0.675049 12.0375 0.675049C11.5875 0.675049 11.2125 1.05005 11.2125 1.50005V20.7001L7.34995 17.4375C7.01245 17.1375 6.44995 17.175 6.14995 17.55C5.84995 17.925 5.88745 18.45 6.26245 18.75L11.5125 23.175C11.6625 23.325 11.85 23.3625 12.0375 23.3625C12.225 23.3625 12.4125 23.2875 12.5625 23.175L17.8125 18.75C18.1875 18.45 18.225 17.925 17.925 17.55C17.5875 17.175 17.0625 17.1375 16.725 17.4375Z" fill="#161A23"/>
<path d="M3.2625 0.75C2.8125 0.75 2.4375 1.125 2.4375 1.575V13.1625C2.4375 13.6125 2.8125 13.9875 3.2625 13.9875C3.7125 13.9875 4.0875 13.6125 4.0875 13.1625V1.6125C4.125 1.1625 3.75 0.75 3.2625 0.75Z" fill="#161A23"/>
<path d="M20.7375 0.75C20.25 0.75 19.875 1.1625 19.875 1.6125V13.2C19.875 13.65 20.25 14.025 20.7 14.025C21.15 14.025 21.525 13.65 21.525 13.2V1.6125C21.5625 1.1625 21.1875 0.75 20.7375 0.75Z" fill="#161A23"/>
</svg>
