<svg width="24" height="24" viewBox="0 0 24 24" fill="none" xmlns="http://www.w3.org/2000/svg">
<path d="M3.30005 12.825H22.5001C22.9501 12.825 23.3251 12.45 23.3251 12C23.3251 11.55 22.9501 11.175 22.5001 11.175H3.30005L6.56255 7.31248C6.86255 6.93748 6.82505 6.41248 6.45005 6.11248C6.11255 5.81248 5.55005 5.84998 5.25005 6.22498L0.825049 11.475C0.562549 11.775 0.562549 12.2625 0.825049 12.5625L5.25005 17.8125C5.40005 18 5.66255 18.1125 5.88755 18.1125C6.07505 18.1125 6.26255 18.0375 6.41255 17.925C6.78755 17.625 6.82505 17.1 6.52505 16.725L3.30005 12.825Z" fill="#161A23"/>
<path d="M10.8001 4.12498H22.3876C22.8376 4.12498 23.2126 3.74998 23.2126 3.29998C23.2126 2.84998 22.8376 2.47498 22.3876 2.47498H10.8001C10.3501 2.47498 9.9751 2.84998 9.9751 3.29998C9.9751 3.74998 10.3126 4.12498 10.8001 4.12498Z" fill="#161A23"/>
<path d="M22.3876 19.875H10.8001C10.3501 19.875 9.9751 20.25 9.9751 20.7C9.9751 21.15 10.3501 21.525 10.8001 21.525H22.3876C22.8376 21.525 23.2126 21.15 23.2126 20.7C23.2126 20.25 22.8376 19.875 22.3876 19.875Z" fill="#161A23"/>
</svg>
