<svg width="24" height="24" viewBox="0 0 24 24" fill="none" xmlns="http://www.w3.org/2000/svg">
<path d="M12.525 0.749976C12.225 0.487476 11.7375 0.487476 11.4375 0.749976L6.1875 5.17498C5.8125 5.47498 5.775 5.99998 6.075 6.37498C6.375 6.74998 6.9 6.78748 7.275 6.48748L11.1375 3.22498V22.425C11.1375 22.875 11.5125 23.25 11.9625 23.25C12.4125 23.25 12.7875 22.875 12.7875 22.425V3.18748L16.65 6.44998C16.8 6.59998 16.9875 6.63748 17.175 6.63748C17.4 6.63748 17.6625 6.52498 17.8125 6.33748C18.1125 5.96248 18.075 5.43748 17.7 5.13748L12.525 0.749976Z" fill="#161A23"/>
<path d="M20.7375 9.82495C20.2875 9.82495 19.9125 10.2 19.9125 10.65V22.2375C19.9125 22.6875 20.2875 23.0625 20.7375 23.0625C21.1875 23.0625 21.5625 22.6875 21.5625 22.2375V10.6875C21.5625 10.2 21.1875 9.82495 20.7375 9.82495Z" fill="#161A23"/>
<path d="M3.2625 9.82495C2.8125 9.82495 2.4375 10.2 2.4375 10.65V22.2375C2.4375 22.6875 2.8125 23.0625 3.2625 23.0625C3.7125 23.0625 4.0875 22.6875 4.0875 22.2375V10.6875C4.125 10.2 3.75 9.82495 3.2625 9.82495Z" fill="#161A23"/>
</svg>
