<svg width="24" height="24" viewBox="0 0 24 24" fill="none" xmlns="http://www.w3.org/2000/svg">
<path d="M23.1376 11.475L18.75 6.1875C18.45 5.8125 17.925 5.775 17.55 6.075C17.175 6.375 17.1375 6.9 17.4375 7.275L20.7001 11.1375H1.50005C1.05005 11.1375 0.675049 11.5125 0.675049 11.9625C0.675049 12.4125 1.05005 12.7875 1.50005 12.7875H20.7001L17.4375 16.65C17.1375 17.025 17.175 17.55 17.55 17.85C17.7 18 17.8876 18.0375 18.0751 18.0375C18.3 18.0375 18.5625 17.925 18.7125 17.7375L23.1376 12.4875C23.4 12.225 23.4 11.775 23.1376 11.475Z" fill="#161A23"/>
<path d="M13.2 19.875H1.6125C1.1625 19.875 0.75 20.25 0.75 20.7375C0.75 21.225 1.125 21.5625 1.575 21.5625H13.1625C13.6125 21.5625 13.9875 21.1875 13.9875 20.7375C13.9875 20.2875 13.6875 19.875 13.2 19.875Z" fill="#161A23"/>
<path d="M1.6125 4.125H13.2C13.65 4.125 14.025 3.75 14.025 3.3C14.025 2.85 13.65 2.475 13.2 2.475H1.6125C1.1625 2.4375 0.75 2.8125 0.75 3.2625C0.75 3.7125 1.1625 4.125 1.6125 4.125Z" fill="#161A23"/>
</svg>
