<svg width="24" height="24" viewBox="0 0 24 24" fill="none" xmlns="http://www.w3.org/2000/svg">
<path d="M22.575 0.824992C22.3875 0.674992 22.125 0.599992 21.8625 0.674992L8.32499 3.63749C7.94999 3.71249 7.64999 4.04999 7.64999 4.46249V15.9375C6.97499 15.45 6.11249 15.15 5.21249 15.15C2.92499 15.15 1.08749 16.9875 1.08749 19.275C1.08749 21.5625 2.92499 23.4 5.21249 23.4C7.49999 23.4 9.33749 21.5625 9.33749 19.275V10.9125L21.225 8.32499V13.6125C20.55 13.125 19.6875 12.825 18.7875 12.825C16.5 12.825 14.6625 14.6625 14.6625 16.95C14.6625 19.2375 16.5 21.075 18.7875 21.075C21.075 21.075 22.9125 19.2375 22.9125 16.95V1.49999C22.9125 1.23749 22.8 1.01249 22.575 0.824992ZM5.21249 21.675C3.86249 21.675 2.77499 20.5875 2.77499 19.2375C2.77499 17.8875 3.86249 16.8 5.21249 16.8C6.56249 16.8 7.64999 17.8875 7.64999 19.2375C7.64999 20.5875 6.56249 21.675 5.21249 21.675ZM9.33749 5.13749L21.225 2.54999V6.59999L9.33749 9.18749V5.13749ZM18.7875 19.35C17.4375 19.35 16.35 18.2625 16.35 16.9125C16.35 15.5625 17.4375 14.475 18.7875 14.475C20.1375 14.475 21.225 15.5625 21.225 16.9125C21.225 18.2625 20.1375 19.35 18.7875 19.35Z" fill="#161A23"/>
</svg>
