<svg width="24" height="24" viewBox="0 0 24 24" fill="none" xmlns="http://www.w3.org/2000/svg">
<path d="M20.85 0.675003H14.925C13.3125 0.675003 12 1.9125 12 3.45V16.05C10.9875 15.3 9.56248 14.85 7.98748 14.85C4.79998 14.85 2.28748 16.725 2.28748 19.0875C2.28748 21.45 4.79998 23.325 7.98748 23.325C11.175 23.325 13.6875 21.45 13.6875 19.0875V3.4125C13.6875 2.8125 14.25 2.325 14.925 2.325H20.8125C21.2625 2.325 21.675 1.95 21.675 1.4625C21.675 0.975003 21.3 0.675003 20.85 0.675003ZM8.02498 21.675C5.84998 21.675 4.01248 20.5125 4.01248 19.125C4.01248 17.7375 5.84998 16.575 8.02498 16.575C10.2 16.575 12.0375 17.7375 12.0375 19.125C12.0375 20.5125 10.1625 21.675 8.02498 21.675Z" fill="#161A23"/>
</svg>
