<svg width="24" height="24" viewBox="0 0 24 24" fill="none" xmlns="http://www.w3.org/2000/svg">
<path d="M16.3874 18.4125C16.2749 18.225 16.2374 18.075 16.2374 17.8875V13.0125C16.2374 12.5625 15.8624 12.1875 15.4124 12.1875C14.9624 12.1875 14.5874 12.5625 14.5874 13.0125V17.925C14.5874 18.4125 14.6999 18.8625 14.9999 19.35L15.0374 19.425H2.77488L2.88738 19.2375C3.07488 18.9 3.18738 18.525 3.22488 18.075V11.55C3.22488 8.88748 5.36238 6.63748 8.17488 6.33748C9.67488 6.14998 11.1749 6.56248 12.3749 7.38748C12.7499 7.64998 13.2749 7.57498 13.5374 7.19998C13.7999 6.82498 13.7249 6.29998 13.3499 6.03748C12.2999 5.28748 11.0249 4.79998 9.71238 4.68748V3.29998C9.71238 2.84998 9.33738 2.47498 8.88738 2.47498C8.43738 2.47498 8.06238 2.84998 8.06238 3.29998V4.61248H8.02488C4.34988 5.02498 1.57488 7.98748 1.57488 11.5125V17.85C1.53738 18.15 1.46238 18.2625 1.42488 18.3375L0.824881 19.3125C0.599881 19.65 0.599881 20.1 0.787381 20.4375L0.824881 20.475C1.04988 20.8125 1.38738 21 1.79988 21H8.06238V21.975C8.06238 22.425 8.43738 22.8 8.88738 22.8C9.33738 22.8 9.71238 22.425 9.71238 21.975V21H16.0499C16.4624 21 16.7999 20.8125 16.9874 20.475C17.2124 20.1 17.2124 19.65 16.9874 19.275L16.3874 18.4125Z" fill="#161A23"/>
<path d="M19.1624 9.60005H17.8874L19.7624 7.76255C20.0249 7.53755 20.0999 7.16255 19.9499 6.82505C19.7999 6.48755 19.4999 6.30005 19.1624 6.30005H15.8249C15.3749 6.30005 14.9999 6.67505 14.9999 7.12505C14.9999 7.57505 15.3749 7.95005 15.8249 7.95005H17.0999L15.2249 9.78755C14.9624 10.0125 14.8874 10.3875 15.0374 10.725C15.1874 11.0625 15.4874 11.25 15.8249 11.25H19.1624C19.6124 11.25 19.9874 10.875 19.9874 10.425C19.9874 9.97505 19.6124 9.60005 19.1624 9.60005Z" fill="#161A23"/>
<path d="M22.4999 3.6375H21.9749L23.0999 2.55C23.3624 2.325 23.4374 1.95 23.2874 1.6125C23.1374 1.275 22.8374 1.125 22.4999 1.125H19.9124C19.4624 1.125 19.0874 1.5 19.0874 1.95C19.0874 2.4 19.4624 2.775 19.9124 2.775H20.4374L19.3124 3.8625C19.0874 4.125 19.0124 4.5 19.1249 4.8C19.2374 5.1 19.5749 5.325 19.9124 5.325H22.4999C22.9499 5.325 23.3249 4.95 23.3249 4.5C23.3249 4.05 22.9499 3.6375 22.4999 3.6375Z" fill="#161A23"/>
</svg>
