<svg width="24" height="24" viewBox="0 0 24 24" fill="none" xmlns="http://www.w3.org/2000/svg">
<g clip-path="url(#clip0_914_45250)">
<mask id="mask0_914_45250" style="mask-type:luminance" maskUnits="userSpaceOnUse" x="0" y="0" width="24" height="24">
<path d="M24 0H0V24H24V0Z" fill="white"/>
</mask>
<g mask="url(#mask0_914_45250)">
<path fill-rule="evenodd" clip-rule="evenodd" d="M22.1072 18.6948C20.8019 18.6585 19.7892 18.7923 18.9405 19.1493C18.6961 19.2474 18.3039 19.2474 18.2717 19.555C18.4023 19.6841 18.4181 19.8953 18.5326 20.0742C18.7283 20.3989 19.0714 20.8363 19.3813 21.0631L20.4258 21.8095C21.0624 22.1986 21.7805 22.4258 22.4006 22.8152C22.7598 23.0424 23.1188 23.3344 23.478 23.5779C23.6609 23.7078 23.7718 23.919 24.0004 23.9997V23.9506C23.8863 23.8052 23.8533 23.5943 23.7396 23.4314L23.2493 22.9613C22.7763 22.3287 22.1884 21.7768 21.5518 21.3231C21.0294 20.9661 19.8873 20.4796 19.6751 19.8797L19.6429 19.8433C20.0014 19.807 20.4258 19.6808 20.769 19.5834C21.3243 19.438 21.8299 19.47 22.4006 19.3242L23.1846 19.0969V18.9515C22.8908 18.6595 22.6786 18.2701 22.3688 17.9946C21.5365 17.2809 20.6219 16.5832 19.6751 15.9993C19.1691 15.675 18.5161 15.4638 17.9776 15.1885C17.7812 15.0911 17.4552 15.0424 17.3411 14.8802C17.0465 14.5239 16.8837 14.0531 16.6716 13.631L15.3333 10.8086C15.0395 10.176 14.8595 9.54334 14.501 8.95946C12.8196 6.20175 10.9911 4.53116 8.1837 2.89253C7.58006 2.55186 6.86194 2.40534 6.0984 2.2272L4.87433 2.16175C4.61273 2.04832 4.35188 1.74001 4.12324 1.59385C3.1929 1.00996 0.793365 -0.255272 0.107413 1.41207C-0.333424 2.46642 0.760436 3.50442 1.13176 4.03995C1.4098 4.413 1.76832 4.83473 1.96478 5.25649C2.07453 5.53208 2.11112 5.82439 2.22562 6.11633C2.48647 6.83003 2.73158 7.62514 3.07437 8.2905C3.25729 8.63115 3.44936 8.98853 3.67801 9.29648C3.80861 9.47828 4.03729 9.55609 4.08593 9.84803C3.85729 10.1727 3.84154 10.6588 3.71094 11.0649C3.12303 12.898 3.35168 15.1689 4.18399 16.5185C4.44555 16.9239 5.06198 17.8164 5.8983 17.4754C6.63289 17.1834 6.46901 16.2589 6.68119 15.4477C6.73058 15.2532 6.69765 15.1234 6.79534 14.9933V15.0297L7.46483 16.3759C7.97078 17.1707 8.85244 17.9982 9.58669 18.5501C9.97815 18.8421 10.2884 19.3452 10.7779 19.5234V19.4743H10.7457C10.6476 19.3289 10.5006 19.2634 10.37 19.15C10.0762 18.8581 9.74985 18.501 9.52121 18.1767C8.83597 17.2685 8.23234 16.2625 7.69346 15.2245C7.4319 14.7217 7.20326 14.1702 6.9918 13.6674C6.89302 13.4725 6.89302 13.1802 6.73024 13.0834C6.4851 13.4397 6.1266 13.7488 5.94623 14.1865C5.63599 14.8839 5.60381 15.7437 5.48966 16.6359C5.42381 16.6523 5.45306 16.6359 5.42381 16.6723C4.90211 16.5428 4.72211 16.0069 4.5264 15.5532C4.03691 14.4014 3.95494 12.5523 4.37932 11.2219C4.49347 10.8813 4.98371 9.81056 4.78796 9.48626C4.68919 9.17797 4.36361 8.99981 4.18361 8.75621C3.9714 8.44792 3.74349 8.0589 3.59643 7.71821C3.20498 6.80929 3.00925 5.80403 2.58451 4.89544C2.38806 4.47371 2.04563 4.0356 1.76796 3.64658C1.45773 3.20847 1.11567 2.90017 0.870555 2.38135C0.788974 2.19956 0.674831 1.91089 0.805436 1.71602C0.83763 1.58622 0.90348 1.53423 1.03335 1.50514C1.24554 1.32336 1.84991 1.55386 2.06209 1.65057C2.66573 1.89416 3.17169 2.12103 3.67764 2.46134C3.9063 2.62349 4.1514 2.9318 4.44518 3.01324H4.78834C5.31075 3.12667 5.89792 3.04959 6.38707 3.19502C7.25227 3.47134 8.03554 3.87638 8.73795 4.31483C10.8759 5.66111 12.6393 7.57534 13.8305 9.86295C14.0262 10.236 14.1077 10.5766 14.2877 10.966C14.6309 11.7611 15.0553 12.5719 15.3973 13.351C15.7405 14.1135 16.0668 14.8926 16.5563 15.5252C16.8014 15.8659 17.7804 16.044 18.2209 16.2225C18.5476 16.368 19.0532 16.4988 19.3477 16.677C19.9023 17.0176 20.4573 17.407 20.9793 17.7801C21.2402 17.9742 22.0567 18.3799 22.1054 18.7035L22.1072 18.6948ZM5.4615 4.5984C5.23598 4.59641 5.01116 4.62368 4.79272 4.67948V4.71585H4.82494C4.95551 4.97543 5.18419 5.15396 5.34735 5.38118L5.72306 6.15994L5.75524 6.1236C5.98391 5.96145 6.0984 5.70184 6.0984 5.31281C6.00037 5.19941 5.98429 5.0856 5.90269 4.97216C5.80463 4.81001 5.59245 4.72856 5.4615 4.59915V4.5984Z" fill="#15171A"/>
</g>
</g>
<defs>
<clipPath id="clip0_914_45250">
<rect width="24" height="24" fill="white"/>
</clipPath>
</defs>
</svg>
