<svg width="24" height="24" viewBox="0 0 24 24" fill="none" xmlns="http://www.w3.org/2000/svg">
<g clip-path="url(#clip0_501_41618)">
<path d="M22.6125 12.15L2.85 0.862498C2.2875 0.524998 1.575 0.599998 1.0875 1.0875C0.599998 1.575 0.524998 2.2875 0.862498 2.85L12.1875 22.6125C12.45 23.0625 12.9375 23.3625 13.4625 23.3625C13.5 23.3625 13.5 23.3625 13.5375 23.3625C14.1 23.325 14.5875 22.9875 14.8125 22.5L17.2125 17.175L22.5375 14.775C23.025 14.55 23.3625 14.0625 23.4 13.5C23.4375 12.9375 23.1 12.45 22.6125 12.15ZM16.6875 15.525L13.875 12.675C13.5375 12.3375 13.0125 12.3375 12.675 12.675C12.3375 13.0125 12.3375 13.5375 12.675 13.875L15.525 16.725L13.425 21.375L2.7375 2.7375L21.375 13.425L16.6875 15.525Z" fill="#161A23"/>
</g>
<defs>
<clipPath id="clip0_501_41618">
<rect width="24" height="24" fill="white"/>
</clipPath>
</defs>
</svg>
