<svg width="24" height="24" viewBox="0 0 24 24" fill="none" xmlns="http://www.w3.org/2000/svg">
<path d="M3.5452 14.6931C3.18972 14.7565 2.82799 14.7755 2.4538 14.8261L1.31246 11.431V14.9718C0.956985 15.0098 0.632681 15.0605 0.295898 15.1111V8.625H1.2439L2.5411 12.3052V8.625H3.5452V14.6931ZM5.50976 11.0003C5.89646 11.0003 6.48896 10.9813 6.84443 10.9813V11.9947C6.40159 11.9947 5.88398 11.9947 5.50976 12.0137V13.5213C6.096 13.4833 6.68228 13.4326 7.2747 13.4136V14.389L4.51185 14.6107V8.625H7.2747V9.63848H5.50976V11.0003ZM10.9855 9.63848H9.95025V14.3004C9.6135 14.3004 9.27668 14.3004 8.95245 14.313V9.63848H7.91719V8.625H10.9856L10.9855 9.63848ZM12.607 10.9306H13.9729V11.9441H12.607V14.2434H11.6278V8.625H14.4157V9.63848H12.607V10.9306ZM16.0372 13.3566C16.6048 13.3692 17.1786 13.4136 17.7336 13.4453V14.4461C16.8418 14.389 15.9499 14.3321 15.0394 14.313V8.625H16.0372V13.3566ZM18.5756 14.5157C18.8936 14.5348 19.2304 14.5538 19.5548 14.5917V8.625H18.5756V14.5157ZM23.9267 8.625L22.6606 11.7097L23.9267 15.1111C23.5524 15.0605 23.1782 14.9908 22.804 14.9274L22.0869 13.0526L21.3572 14.7755C20.9954 14.7121 20.6462 14.6931 20.2845 14.6424L21.5693 11.6717L20.4092 8.625H21.4819L22.1367 10.3289L22.8353 8.625H23.9267Z" fill="#15171A"/>
</svg>
