<svg width="24" height="24" viewBox="0 0 24 24" fill="none" xmlns="http://www.w3.org/2000/svg">
<g clip-path="url(#clip0_914_45258)">
<mask id="mask0_914_45258" style="mask-type:luminance" maskUnits="userSpaceOnUse" x="0" y="0" width="24" height="24">
<path d="M24 0H0V24H24V0Z" fill="white"/>
</mask>
<g mask="url(#mask0_914_45258)">
<path d="M17.2277 8.32864L17.2191 8.32496C17.2141 8.32301 17.2092 8.32129 17.2049 8.31679C17.1906 8.30115 17.1842 8.27966 17.1877 8.25859L17.6634 5.30044L19.8943 7.57005L17.5742 8.57404C17.5679 8.5767 17.5608 8.57801 17.5538 8.57771H17.5446C17.5415 8.57576 17.5385 8.57333 17.5323 8.56706C17.446 8.4693 17.3427 8.38849 17.2277 8.32864ZM20.4635 8.14837L22.8488 10.5744C23.3442 11.079 23.5922 11.3306 23.6827 11.6223C23.6963 11.6655 23.7073 11.7086 23.7159 11.7531L18.0154 9.29756C18.0123 9.29625 18.0093 9.29498 18.0062 9.29389C17.9834 9.28451 17.9569 9.27386 17.9569 9.25009C17.9569 9.22628 17.984 9.21502 18.0068 9.20565L18.0142 9.20254L20.4635 8.14837ZM23.6187 12.5317C23.4956 12.7671 23.2556 13.0112 22.8495 13.4249L20.1601 16.1596L16.6818 15.4229L16.6633 15.4192C16.6325 15.4142 16.5999 15.4086 16.5999 15.3804C16.5732 15.0854 16.4273 14.8149 16.1969 14.6337C16.1827 14.6193 16.1864 14.5968 16.1907 14.5761C16.1907 14.573 16.1907 14.5699 16.1919 14.5673L16.8461 10.4825L16.8485 10.4687C16.8522 10.4374 16.8578 10.4011 16.8855 10.4011C17.1687 10.3653 17.4258 10.2153 17.5993 9.98486C17.6049 9.97867 17.6086 9.97174 17.6159 9.96795C17.6356 9.95858 17.6591 9.96795 17.6793 9.97676L23.6181 12.5318L23.6187 12.5317ZM19.5416 16.7886L15.1193 21.2866L15.8762 16.5546L15.8774 16.5484C15.8781 16.5422 15.8793 16.5359 15.881 16.5302C15.8871 16.5152 15.9032 16.5089 15.9186 16.5027L15.926 16.4995C16.0917 16.4276 16.2383 16.3167 16.3537 16.1759C16.3685 16.1584 16.3863 16.1415 16.4091 16.1384C16.415 16.1374 16.421 16.1374 16.4269 16.1384L19.5409 16.7893L19.5416 16.7886ZM14.1832 22.2386L13.6847 22.7456L8.17369 14.6448C8.1717 14.6419 8.16964 14.639 8.16757 14.6361C8.15903 14.6241 8.14976 14.6123 8.15156 14.5985C8.15156 14.5885 8.15839 14.5797 8.1651 14.5722L8.17125 14.5641C8.18786 14.539 8.202 14.514 8.21741 14.4871L8.22968 14.4652L8.23163 14.4632C8.24029 14.4482 8.24824 14.4338 8.26301 14.4256C8.27591 14.4195 8.29376 14.422 8.30794 14.425L14.4134 15.7057C14.4305 15.7083 14.4466 15.7155 14.4602 15.7263C14.4682 15.7345 14.4701 15.7432 14.4719 15.7532C14.5583 16.0854 14.7923 16.3575 15.1046 16.4887C15.1218 16.4975 15.1144 16.5169 15.1065 16.5375C15.1025 16.5466 15.0993 16.556 15.0972 16.5657C15.0203 17.0414 14.3604 21.1338 14.1832 22.2386ZM13.1419 23.2971C12.7745 23.667 12.5579 23.8629 12.3129 23.9418C12.0715 24.0194 11.8123 24.0194 11.5708 23.9418C11.284 23.8491 11.036 23.5975 10.5406 23.093L5.00618 17.464L6.45176 15.1838C6.45859 15.1725 6.46534 15.1625 6.4764 15.1543C6.49178 15.1431 6.5139 15.1482 6.53239 15.1543C6.86419 15.2562 7.22044 15.2378 7.54043 15.1024C7.55708 15.0962 7.57369 15.0918 7.58655 15.1037C7.59311 15.1095 7.59881 15.1164 7.6038 15.1237L13.1419 23.2976V23.2971ZM4.47259 16.9214L3.20301 15.6301L5.7102 14.5422C5.71661 14.5393 5.72351 14.5379 5.73053 14.5378C5.75141 14.5378 5.76375 14.5591 5.77481 14.5785C5.80001 14.6179 5.82671 14.6563 5.85484 14.6937L5.86286 14.7037C5.87025 14.7143 5.86526 14.7249 5.85788 14.735L4.47323 16.9214H4.47259ZM2.64113 15.0586L1.03491 13.4249C0.761662 13.147 0.563501 12.9454 0.425647 12.7721L5.30955 13.8024C5.3157 13.8035 5.32185 13.8046 5.328 13.8055C5.35819 13.8105 5.39141 13.8161 5.39141 13.8449C5.39141 13.8762 5.35508 13.8906 5.32433 13.9025L5.31019 13.9087L2.64113 15.0586ZM0.14502 11.9321C0.150609 11.8269 0.169197 11.7228 0.200403 11.6223C0.291484 11.3306 0.538879 11.079 1.0349 10.5744L3.09038 8.48385C4.03676 9.88084 4.98574 11.276 5.9373 12.6694C5.95391 12.6919 5.97236 12.717 5.95328 12.7358C5.86343 12.8366 5.77358 12.9467 5.7102 13.0663C5.7033 13.0816 5.69276 13.095 5.67941 13.1051C5.67139 13.1101 5.6628 13.1082 5.65358 13.1063H5.65234L0.14502 11.9314V11.9321ZM3.64056 7.92427L6.40316 5.11324C6.66345 5.22904 7.60935 5.63527 8.45434 5.99831C9.09435 6.27371 9.67778 6.52406 9.86115 6.60544C9.8796 6.61298 9.89621 6.62048 9.90424 6.63926C9.90923 6.65051 9.90664 6.66491 9.90424 6.6768C9.81536 7.089 9.9363 7.51901 10.2261 7.821C10.2446 7.83979 10.2261 7.86668 10.2101 7.88985L10.2015 7.90301L7.39523 12.3239C7.38784 12.3364 7.38109 12.3471 7.36875 12.3552C7.35398 12.3646 7.33305 12.3603 7.31584 12.3559C7.20671 12.3268 7.09448 12.3112 6.98164 12.3096C6.88073 12.3096 6.77119 12.3284 6.66041 12.349H6.65981C6.64751 12.3509 6.63641 12.3534 6.62655 12.3459C6.61568 12.3368 6.60634 12.3261 6.59888 12.3139L3.63998 7.92431L3.64056 7.92427ZM6.96255 4.54553L10.5406 0.906386C11.036 0.402514 11.284 0.150265 11.5708 0.0582529C11.8123 -0.0194176 12.0715 -0.0194176 12.3129 0.0582529C12.5997 0.150265 12.8477 0.402514 13.3432 0.906386L14.1186 1.69505L11.5739 5.70349C11.5676 5.71515 11.559 5.72539 11.5487 5.73353C11.5332 5.74417 11.5117 5.73975 11.4932 5.73353C11.0859 5.60782 10.6439 5.69445 10.3116 5.96513C10.295 5.98264 10.2704 5.97263 10.2495 5.96317C9.91714 5.81606 7.33241 4.70512 6.96255 4.54553ZM14.6589 2.24462L17.0086 4.6344L16.4424 8.20095V8.21033C16.4419 8.21846 16.4402 8.22645 16.4374 8.2341C16.4313 8.24662 16.4189 8.24914 16.4066 8.25289C16.2856 8.2902 16.1715 8.34795 16.0694 8.42377C16.065 8.42704 16.0609 8.43056 16.0571 8.43443C16.0503 8.44193 16.0436 8.44879 16.0325 8.45006C16.0235 8.45033 16.0145 8.4489 16.006 8.44564L12.4255 6.89835L12.4187 6.89524C12.396 6.88586 12.3689 6.87458 12.3689 6.8508C12.3478 6.64789 12.2827 6.45225 12.1781 6.2781C12.1608 6.2493 12.1418 6.21926 12.1565 6.18983L14.6589 2.24462ZM12.2391 7.63133L15.5956 9.07725C15.614 9.08603 15.6344 9.09412 15.6423 9.11355C15.6456 9.12521 15.6456 9.13755 15.6423 9.14921C15.6325 9.19928 15.6239 9.25624 15.6239 9.31384V9.40961C15.6239 9.43339 15.5999 9.4434 15.5777 9.45281L15.5709 9.45525C15.0392 9.68621 8.10596 12.6931 8.09546 12.6931C8.08504 12.6931 8.07394 12.6931 8.06351 12.6825C8.04503 12.6637 8.06351 12.6375 8.08013 12.6137C8.08313 12.6096 8.08586 12.6053 8.08868 12.6012L10.847 8.25724L10.8519 8.2497C10.868 8.22345 10.8864 8.19401 10.9159 8.19401L10.9437 8.1984C11.0064 8.20721 11.0618 8.21531 11.1178 8.21531C11.5363 8.21531 11.924 8.00813 12.1578 7.65382C12.1634 7.64437 12.1705 7.6359 12.1788 7.62877C12.1954 7.61629 12.2201 7.6227 12.2391 7.63133ZM8.39524 13.3805L15.9525 10.1025C15.9525 10.1025 15.9636 10.1025 15.9741 10.1131C16.0153 10.1551 16.0504 10.1832 16.0842 10.2095L16.1008 10.2202C16.1162 10.229 16.1316 10.239 16.1328 10.2552C16.1328 10.2614 16.1328 10.2653 16.1315 10.2709L15.4841 14.3156L15.4817 14.3319C15.4774 14.3632 15.4731 14.3989 15.4442 14.3989C15.0938 14.4229 14.7776 14.6213 14.5992 14.929L14.5962 14.9341C14.5876 14.9485 14.5796 14.9622 14.5654 14.9698C14.5524 14.976 14.5358 14.9735 14.5223 14.9704L8.49559 13.706C8.48944 13.7048 8.40203 13.3811 8.39524 13.3805Z" fill="#15171A"/>
</g>
</g>
<defs>
<clipPath id="clip0_914_45258">
<rect width="24" height="24" fill="white"/>
</clipPath>
</defs>
</svg>
