<svg width="24" height="24" viewBox="0 0 24 24" fill="none" xmlns="http://www.w3.org/2000/svg">
<path d="M18.675 7.8375C18.3 7.8375 17.9625 7.875 17.5875 7.95C17.5875 7.875 17.5875 7.8 17.5875 7.725C17.625 4.725 15.1125 2.25 12 2.25C8.8875 2.25 6.375 4.725 6.375 7.7625C6.375 7.8375 6.375 7.9125 6.375 7.9875C6.0375 7.9125 5.6625 7.875 5.2875 7.875C2.7 7.875 0.637497 9.9375 0.637497 12.45C0.637497 14.9625 2.7375 17.025 5.2875 17.025H11.1375V17.5125C10.6125 17.7375 10.1625 18.1875 9.9375 18.7125H6.6375C6.1875 18.7125 5.775 19.0875 5.775 19.575C5.775 20.0625 6.15 20.4375 6.6375 20.4375H9.9375C10.275 21.225 11.0625 21.7875 11.9625 21.7875C12.8625 21.7875 13.6875 21.225 13.9875 20.4375H17.2875C17.7375 20.4375 18.15 20.0625 18.15 19.575C18.15 19.0875 17.775 18.7125 17.2875 18.7125H13.9875C13.7625 18.1875 13.3125 17.7375 12.7875 17.5125V17.025H18.6375C21.225 17.025 23.2875 14.9625 23.2875 12.45C23.3625 9.9 21.2625 7.8375 18.675 7.8375ZM12 20.0625C11.7 20.0625 11.475 19.8375 11.475 19.5375C11.475 19.2375 11.7 19.0125 12 19.0125C12.3 19.0125 12.525 19.2375 12.525 19.5375C12.525 19.8375 12.3 20.0625 12 20.0625ZM18.675 15.3H5.325C3.675 15.3 2.3625 13.9875 2.3625 12.4125C2.3625 10.8375 3.7125 9.525 5.325 9.525C5.9625 9.525 6.525 9.7125 7.05 10.05C7.35 10.275 7.7625 10.2375 8.0625 10.0125C8.3625 9.7875 8.475 9.4125 8.325 9.0375C8.175 8.625 8.1 8.175 8.1 7.725C8.1 5.625 9.8625 3.9 12.0375 3.9C14.2125 3.9 15.975 5.625 15.975 7.725C15.975 8.175 15.9 8.625 15.75 9.0375C15.6375 9.375 15.7125 9.7875 16.0125 10.0125C16.3125 10.2375 16.725 10.2375 17.025 10.05C17.55 9.7125 18.1125 9.525 18.75 9.525C20.4 9.525 21.7125 10.8375 21.7125 12.4125C21.7125 13.9875 20.325 15.3 18.675 15.3Z" fill="#161A23"/>
</svg>
