<svg width="24" height="24" viewBox="0 0 24 24" fill="none" xmlns="http://www.w3.org/2000/svg">
<g clip-path="url(#clip0_501_48277)">
<path d="M20.1749 17.025L14.2875 5.9625C14.8125 5.4 15.15 4.65 15.15 3.825C15.15 2.1 13.725 0.675003 12 0.675003C10.275 0.675003 8.84995 2.1 8.84995 3.825C8.84995 4.65 9.18745 5.4 9.71245 5.9625L3.82495 17.025C3.82495 17.025 3.82495 17.025 3.78745 17.025C2.06245 17.025 0.637451 18.45 0.637451 20.175C0.637451 21.9 2.06245 23.325 3.78745 23.325C5.17495 23.325 6.37495 22.425 6.78745 21.15H17.1749C17.5875 22.425 18.7875 23.325 20.1749 23.325C21.9 23.325 23.325 21.9 23.325 20.175C23.325 18.45 21.9375 17.025 20.1749 17.025ZM12 2.3625C12.825 2.3625 13.4625 3.0375 13.4625 3.825C13.4625 4.6125 12.7875 5.2875 12 5.2875C11.2125 5.2875 10.5375 4.6125 10.5375 3.825C10.5375 3.0375 11.175 2.3625 12 2.3625ZM3.82495 21.675C2.99995 21.675 2.36245 21 2.36245 20.2125C2.36245 19.425 3.03745 18.75 3.82495 18.75C4.61245 18.75 5.28745 19.425 5.28745 20.2125C5.28745 21 4.61245 21.675 3.82495 21.675ZM17.1 19.4625H6.89995C6.71245 18.6375 6.18745 17.925 5.51245 17.5125L11.175 6.8625C11.4375 6.9375 11.7375 6.975 12.0375 6.975C12.3375 6.975 12.6375 6.9375 12.9 6.8625L18.5625 17.5125C17.8125 17.9625 17.2875 18.6375 17.1 19.4625ZM20.1749 21.675C19.35 21.675 18.7125 21 18.7125 20.2125C18.7125 19.425 19.3875 18.75 20.1749 18.75C20.9625 18.75 21.6375 19.425 21.6375 20.2125C21.6375 21 21 21.675 20.1749 21.675Z" fill="#161A23"/>
</g>
<defs>
<clipPath id="clip0_501_48277">
<rect width="24" height="24" fill="white"/>
</clipPath>
</defs>
</svg>
