<svg width="24" height="24" viewBox="0 0 24 24" fill="none" xmlns="http://www.w3.org/2000/svg">
<g clip-path="url(#clip0_501_47834)">
<path d="M7.50001 3.75C7.05001 3.75 6.63751 4.125 6.63751 4.6125V4.65C6.63751 5.1 7.01251 5.5125 7.50001 5.5125C7.98751 5.5125 8.36251 5.1375 8.36251 4.65V4.6125C8.36251 4.125 7.98751 3.75 7.50001 3.75Z" fill="#161A23"/>
<path d="M17.1375 3.75H15.3C14.85 3.75 14.4375 4.125 14.4375 4.6125C14.4375 5.1 14.8125 5.475 15.3 5.475H17.1375C17.5875 5.475 18 5.1 18 4.6125C18 4.125 17.625 3.75 17.1375 3.75Z" fill="#161A23"/>
<path d="M21.375 17.1751H21.225V14.2126C21.225 12.8626 20.1 11.7375 18.75 11.7375H12.8625V8.40005H18.45C19.725 8.40005 20.8125 7.35005 20.8125 6.03755V3.22505C20.8125 1.95005 19.7625 0.862549 18.45 0.862549H5.55001C4.27501 0.862549 3.18751 1.91255 3.18751 3.22505V6.03755C3.18751 7.31255 4.23751 8.40005 5.55001 8.40005H11.1375V11.7375H5.25001C3.90001 11.7375 2.77501 12.8626 2.77501 14.2126V17.1751H2.62501C1.53751 17.1751 0.637512 18.0751 0.637512 19.1625V21.1501C0.637512 22.2376 1.53751 23.1376 2.62501 23.1376H4.61251C5.70001 23.1376 6.60001 22.2376 6.60001 21.1501V19.1251C6.60001 18.0375 5.70001 17.1376 4.61251 17.1376H4.46251V14.175C4.46251 13.725 4.80001 13.3876 5.25001 13.3876H11.1375V17.1376H10.9875C9.90001 17.1376 9.00001 18.0375 9.00001 19.1251V21.1126C9.00001 22.2001 9.90001 23.1 10.9875 23.1H12.975C14.0625 23.1 14.9625 22.2001 14.9625 21.1126V19.1251C14.9625 18.0375 14.0625 17.1376 12.975 17.1376H12.825V13.3876H18.75C19.2 13.3876 19.5375 13.725 19.5375 14.175V17.1376H19.3875C18.3 17.1376 17.4 18.0375 17.4 19.1251V21.1126C17.4 22.2001 18.3 23.1 19.3875 23.1H21.375C22.4625 23.1 23.3625 22.2001 23.3625 21.1126V19.1251C23.3625 18.0375 22.4625 17.1751 21.375 17.1751ZM4.91251 6.03755V3.22505C4.91251 2.85005 5.21251 2.55005 5.58751 2.55005H18.4875C18.8625 2.55005 19.1625 2.85005 19.1625 3.22505V6.03755C19.1625 6.41255 18.8625 6.71255 18.4875 6.71255H5.55001C5.21251 6.71255 4.91251 6.41255 4.91251 6.03755ZM4.91251 19.1251V21.1126C4.91251 21.2626 4.80001 21.4125 4.61251 21.4125H2.62501C2.47501 21.4125 2.32501 21.3001 2.32501 21.1126V19.1251C2.32501 18.975 2.43751 18.8251 2.62501 18.8251H4.61251C4.80001 18.8626 4.91251 18.975 4.91251 19.1251ZM13.275 19.1251V21.1126C13.275 21.2626 13.1625 21.4125 12.975 21.4125H10.9875C10.8375 21.4125 10.6875 21.3001 10.6875 21.1126V19.1251C10.6875 18.975 10.8 18.8251 10.9875 18.8251H12.975C13.1625 18.8626 13.275 18.975 13.275 19.1251ZM21.675 21.1501C21.675 21.3001 21.5625 21.4501 21.375 21.4501H19.3875C19.2375 21.4501 19.0875 21.3376 19.0875 21.1501V19.1251C19.0875 18.975 19.2 18.8251 19.3875 18.8251H21.375C21.525 18.8251 21.675 18.9376 21.675 19.1251V21.1501Z" fill="#161A23"/>
</g>
<defs>
<clipPath id="clip0_501_47834">
<rect width="24" height="24" fill="white"/>
</clipPath>
</defs>
</svg>
