<svg width="24" height="24" viewBox="0 0 24 24" fill="none" xmlns="http://www.w3.org/2000/svg">
<path d="M20.925 2.3625H3.07495C1.72495 2.3625 0.637451 3.45 0.637451 4.8V15.7125C0.637451 17.0625 1.72495 18.15 3.07495 18.15H3.63745V20.775C3.63745 21.075 3.82495 21.375 4.08745 21.525C4.19995 21.6 4.34995 21.6 4.46245 21.6C4.64995 21.6 4.79995 21.5625 4.94995 21.45L9.59995 18.1125H20.8875C22.2375 18.1125 23.325 17.025 23.325 15.675V4.8C23.3625 3.45 22.275 2.3625 20.925 2.3625ZM21.675 15.7125C21.675 16.125 21.3375 16.4625 20.925 16.4625H9.37495C9.18745 16.4625 9.03745 16.5 8.88745 16.6125L5.32495 19.125V17.2875C5.32495 16.8375 4.94995 16.425 4.46245 16.425H3.07495C2.66245 16.425 2.32495 16.0875 2.32495 15.675V4.8C2.32495 4.3875 2.66245 4.05 3.07495 4.05H20.925C21.3375 4.05 21.675 4.3875 21.675 4.8V15.7125Z" fill="#161A23"/>
<path d="M17.9625 6.03751C16.6875 6.03751 15.6375 7.08751 15.6375 8.36251C15.6375 8.58751 15.675 8.81251 15.75 9.03751L14.2125 10.2375C14.025 10.1625 13.8 10.1625 13.575 10.1625C13.4625 10.1625 13.35 10.1625 13.2 10.2L12.3 9.33751C12.4125 9.03751 12.4875 8.73751 12.4875 8.40001C12.4875 7.12501 11.4375 6.07501 10.1625 6.07501C8.8875 6.07501 7.8375 7.12501 7.8375 8.40001C7.8375 8.55001 7.8375 8.70001 7.875 8.88751L7.4625 9.15001C7.0875 8.85001 6.6 8.70001 6.075 8.70001C4.8 8.70001 3.75 9.75001 3.75 11.025C3.75 12.3 4.8 13.35 6.075 13.35C7.35 13.35 8.4 12.3 8.4 11.025C8.4 10.875 8.4 10.725 8.3625 10.575L8.775 10.275C9.15 10.575 9.6375 10.725 10.1625 10.725C10.5 10.725 10.8 10.65 11.1 10.5375L11.7 11.1C11.4 11.475 11.2125 12 11.2125 12.525C11.2125 13.8 12.2625 14.85 13.5375 14.85C14.8125 14.85 15.8625 13.8 15.8625 12.525C15.8625 12.075 15.75 11.7 15.525 11.325L16.725 10.3875C17.0625 10.6125 17.475 10.725 17.925 10.725C19.2 10.725 20.25 9.67501 20.25 8.40001C20.25 7.12501 19.2375 6.03751 17.9625 6.03751ZM6.0375 11.6625C5.6625 11.6625 5.4 11.3625 5.4 11.025C5.4 10.65 5.7 10.3875 6.0375 10.3875C6.375 10.3875 6.675 10.6875 6.675 11.025C6.7125 11.3625 6.4125 11.6625 6.0375 11.6625ZM9.4875 8.40001C9.4875 8.02501 9.7875 7.76251 10.125 7.76251C10.4625 7.76251 10.7625 8.06251 10.7625 8.40001C10.7625 8.73751 10.4625 9.03751 10.125 9.03751C9.7875 9.03751 9.4875 8.73751 9.4875 8.40001ZM13.5375 13.1625C13.1625 13.1625 12.9 12.8625 12.9 12.525C12.9 12.1875 13.2 11.8875 13.5375 11.8875C13.875 11.8875 14.175 12.1875 14.175 12.525C14.175 12.8625 13.9125 13.1625 13.5375 13.1625ZM17.9625 9.03751C17.5875 9.03751 17.325 8.73751 17.325 8.40001C17.325 8.06251 17.625 7.76251 17.9625 7.76251C18.3 7.76251 18.6 8.06251 18.6 8.40001C18.6 8.73751 18.3 9.03751 17.9625 9.03751Z" fill="#161A23"/>
</svg>
