<svg width="24" height="24" viewBox="0 0 24 24" fill="none" xmlns="http://www.w3.org/2000/svg">
<path d="M12 0.675049C7.61251 0.675049 3.22501 1.95005 3.22501 4.35005V14.325C3.22501 16.6125 7.08751 17.85 11.175 18V19.0875C10.6125 19.3125 10.2 19.7625 9.97501 20.2875H6.63751C6.18751 20.2875 5.77501 20.6625 5.77501 21.15C5.77501 21.6376 6.15001 22.0126 6.63751 22.0126H9.97501C10.3125 22.8375 11.1 23.4 12.0375 23.4C12.975 23.4 13.7625 22.8375 14.1 22.0126H17.4375C17.8875 22.0126 18.3 21.6376 18.3 21.15C18.3 20.6625 17.925 20.2875 17.4375 20.2875H14.1C13.875 19.725 13.425 19.3125 12.9 19.0875V18C16.9875 17.85 20.85 16.575 20.85 14.325V4.35005C20.775 1.91255 16.3875 0.675049 12 0.675049ZM12.525 21.1125C12.525 21.4125 12.2625 21.6376 12 21.6376C11.7 21.6376 11.475 21.4125 11.475 21.1125C11.475 20.8125 11.7375 20.5875 12 20.5875C12.3 20.5875 12.525 20.8125 12.525 21.1125ZM19.0875 14.325C19.0875 14.925 16.6125 16.35 11.9625 16.35C7.35001 16.35 4.87501 14.925 4.87501 14.325V13.3875C6.56251 14.325 9.26251 14.8125 11.9625 14.8125C14.6625 14.8125 17.4 14.325 19.05 13.3875V14.325H19.0875ZM19.0875 11.1C19.0875 11.7 16.6875 13.0875 12 13.0875C7.31251 13.0875 4.91251 11.7 4.91251 11.1V10.1625C6.60001 11.1 9.30001 11.5875 12 11.5875C14.7 11.5875 17.4375 11.1 19.0875 10.1625V11.1ZM19.0875 7.91255C19.0875 8.51255 16.6875 9.90005 12 9.90005C7.31251 9.90005 4.91251 8.51255 4.91251 7.91255V6.60005C6.60001 7.53755 9.30001 8.02505 12 8.02505C14.7 8.02505 17.4375 7.53755 19.0875 6.60005V7.91255ZM12 6.33755C7.31251 6.33755 4.91251 4.95005 4.91251 4.35005C4.91251 3.75005 7.31251 2.36255 12 2.36255C16.6875 2.36255 19.0875 3.75005 19.0875 4.35005C19.0875 4.95005 16.6875 6.33755 12 6.33755Z" fill="#161A23"/>
</svg>
