<svg width="24" height="22" viewBox="0 0 24 22" fill="none" xmlns="http://www.w3.org/2000/svg">
<path d="M11.9624 5.89999C13.5374 5.89999 14.7749 4.62499 14.7749 3.08749C14.7749 1.54999 13.4999 0.274994 11.9624 0.274994C10.4249 0.274994 9.1499 1.54999 9.1499 3.08749C9.1499 4.62499 10.3874 5.89999 11.9624 5.89999ZM11.9624 1.92499C12.5999 1.92499 13.0874 2.44999 13.0874 3.04999C13.0874 3.64999 12.5624 4.17499 11.9624 4.17499C11.3624 4.17499 10.8374 3.64999 10.8374 3.04999C10.8374 2.44999 11.3249 1.92499 11.9624 1.92499Z" fill="#161A23"/>
<path d="M8.84999 9.68749C9.63749 8.82499 10.8 8.29999 12 8.29999C13.2 8.29999 14.3625 8.78749 15.15 9.68749C15.3 9.87499 15.525 9.94999 15.7875 9.94999C15.975 9.94999 16.2 9.87499 16.35 9.72499C16.6875 9.42499 16.725 8.86249 16.3875 8.52499C15.2625 7.32499 13.65 6.61249 12 6.61249C10.35 6.61249 8.73749 7.32499 7.61249 8.52499C7.31249 8.86249 7.31249 9.38749 7.64999 9.72499C7.98749 10.0625 8.51249 10.025 8.84999 9.68749Z" fill="#161A23"/>
<path d="M5.02498 17.7875C6.59998 17.7875 7.83748 16.5125 7.83748 14.975C7.83748 13.4 6.56248 12.1625 5.02498 12.1625C3.48748 12.1625 2.21248 13.4375 2.21248 14.975C2.17498 16.55 3.44998 17.7875 5.02498 17.7875ZM5.02498 13.8125C5.66248 13.8125 6.14998 14.3375 6.14998 14.9375C6.14998 15.575 5.62498 16.0625 5.02498 16.0625C4.42498 16.0625 3.89998 15.5375 3.89998 14.9375C3.86248 14.3375 4.38748 13.8125 5.02498 13.8125Z" fill="#161A23"/>
<path d="M4.91246 18.425C3.26246 18.425 1.64996 19.1375 0.524963 20.3375C0.224963 20.675 0.224963 21.2 0.562463 21.5375C0.899963 21.875 1.42496 21.8375 1.76246 21.5C2.54996 20.6375 3.71246 20.1125 4.91246 20.1125C6.11246 20.1125 7.27496 20.6 8.06246 21.5C8.21246 21.6875 8.43746 21.7625 8.69996 21.7625C8.88746 21.7625 9.11246 21.6875 9.26246 21.5375C9.59996 21.2375 9.63746 20.675 9.29996 20.3375C8.17496 19.1375 6.56246 18.425 4.91246 18.425Z" fill="#161A23"/>
<path d="M18.9 17.7875C20.475 17.7875 21.7125 16.5125 21.7125 14.975C21.7125 13.4 20.4375 12.1625 18.9 12.1625C17.325 12.1625 16.0875 13.4375 16.0875 14.975C16.0875 16.55 17.3625 17.7875 18.9 17.7875ZM18.9 13.8125C19.5375 13.8125 20.025 14.3375 20.025 14.9375C20.025 15.575 19.5 16.0625 18.9 16.0625C18.2625 16.0625 17.775 15.5375 17.775 14.9375C17.775 14.3375 18.3 13.8125 18.9 13.8125Z" fill="#161A23"/>
<path d="M23.5125 20.375C22.3875 19.175 20.775 18.4625 19.125 18.4625C17.475 18.4625 15.8625 19.175 14.7375 20.375C14.4375 20.7125 14.4375 21.2375 14.775 21.575C15.1125 21.875 15.6375 21.875 15.975 21.5375C16.7625 20.675 17.925 20.15 19.125 20.15C20.325 20.15 21.4875 20.6375 22.275 21.5375C22.425 21.725 22.65 21.8 22.9125 21.8C23.1 21.8 23.325 21.725 23.475 21.575C23.775 21.2375 23.8125 20.7125 23.5125 20.375Z" fill="#161A23"/>
<path d="M14.7 14.3375C14.8875 13.925 14.7 13.4 14.2875 13.2125L12.825 12.5375V11C12.825 10.55 12.45 10.1375 12 10.1375C11.55 10.1375 11.1375 10.5125 11.1375 11V12.5L9.63745 13.2125C9.22495 13.4 9.03745 13.925 9.22495 14.3375C9.41245 14.75 9.93745 14.9375 10.35 14.75L11.925 14L13.6125 14.75C13.725 14.7875 13.8375 14.825 13.95 14.825C14.25 14.825 14.55 14.6375 14.7 14.3375Z" fill="#161A23"/>
</svg>
