<svg width="24" height="24" viewBox="0 0 24 24" fill="none" xmlns="http://www.w3.org/2000/svg">
<g clip-path="url(#clip0_501_44630)">
<path d="M22.5 2.7375C22.05 2.7375 21.675 3.1125 21.675 3.5625V18.825C21.675 20.25 20.5125 21.4125 19.0875 21.4125H4.49998C3.29998 21.4125 2.32498 20.4375 2.32498 19.2375V3.4875C2.32498 3 2.69998 2.625 3.18748 2.625H17.0625C17.55 2.625 17.925 3 17.925 3.4875V18.1125C17.925 18.5625 18.3 18.9375 18.75 18.9375C19.2 18.9375 19.575 18.5625 19.575 18.1125V3.4875C19.575 2.0625 18.4125 0.9375 17.025 0.9375H3.14998C1.72498 0.9375 0.599976 2.1 0.599976 3.4875V19.2375C0.637476 21.375 2.36248 23.1 4.49998 23.1H19.0875C21.45 23.1 23.3625 21.1875 23.3625 18.825V3.5625C23.3625 3.1125 22.95 2.7375 22.5 2.7375Z" fill="#161A23"/>
<path d="M15.9375 4.3125H4.79998C4.34998 4.3125 3.97498 4.6875 3.97498 5.1375C3.97498 5.5875 4.34998 5.9625 4.79998 5.9625H15.975C16.425 5.9625 16.8 5.5875 16.8 5.1375C16.8 4.6875 16.425 4.3125 15.9375 4.3125Z" fill="#161A23"/>
<path d="M4.79998 18.6H15.975C16.425 18.6 16.8 18.225 16.8 17.775C16.8 17.325 16.425 16.95 15.975 16.95H4.79998C4.34998 16.95 3.97498 17.325 3.97498 17.775C3.97498 18.225 4.31248 18.6 4.79998 18.6Z" fill="#161A23"/>
<path d="M5.325 14.4375H9.1125C9.975 14.4375 10.6875 13.725 10.6875 12.8625V9.11248C10.6875 8.24998 9.975 7.53748 9.1125 7.53748H5.325C4.4625 7.53748 3.75 8.24998 3.75 9.11248V12.8625C3.7875 13.725 4.4625 14.4375 5.325 14.4375ZM5.475 9.22498H9V12.75H5.475V9.22498Z" fill="#161A23"/>
<path d="M13.1625 9.82505H15.7125C16.1625 9.82505 16.5375 9.45005 16.5375 9.00005C16.5375 8.55005 16.1625 8.17505 15.7125 8.17505H13.1625C12.7125 8.17505 12.3375 8.55005 12.3375 9.00005C12.3375 9.45005 12.7125 9.82505 13.1625 9.82505Z" fill="#161A23"/>
<path d="M13.1625 13.6125H15.7125C16.1625 13.6125 16.5375 13.2375 16.5375 12.7875C16.5375 12.3375 16.1625 11.9625 15.7125 11.9625H13.1625C12.7125 11.9625 12.3375 12.3375 12.3375 12.7875C12.3375 13.2375 12.7125 13.6125 13.1625 13.6125Z" fill="#161A23"/>
</g>
<defs>
<clipPath id="clip0_501_44630">
<rect width="24" height="24" fill="white"/>
</clipPath>
</defs>
</svg>
