<svg width="24" height="24" viewBox="0 0 24 24" fill="none" xmlns="http://www.w3.org/2000/svg">
<g clip-path="url(#clip0_914_45264)">
<mask id="mask0_914_45264" style="mask-type:luminance" maskUnits="userSpaceOnUse" x="0" y="0" width="24" height="24">
<path d="M24 0H0V24H24V0Z" fill="white"/>
</mask>
<g mask="url(#mask0_914_45264)">
<path d="M11.2141 0.00645848C11.1625 0.0111499 10.9982 0.0275697 10.8504 0.0392981C7.44165 0.346584 4.24867 2.18561 2.22639 5.01218C1.10029 6.5838 0.380059 8.36651 0.107918 10.2548C0.0117302 10.914 0 11.1086 0 12.0024C0 12.8961 0.0117302 13.0908 0.107918 13.7499C0.760118 18.256 3.96716 22.0419 8.31671 23.4447C9.09559 23.6957 9.91673 23.8669 10.8504 23.9701C11.2141 24.01 12.7859 24.01 13.1496 23.9701C14.7613 23.7918 16.1267 23.3931 17.4733 22.7058C17.6798 22.6002 17.7197 22.5721 17.6915 22.5486C17.6727 22.5345 16.7929 21.3546 15.7372 19.9285L13.8182 17.3365L11.4135 13.778C10.0903 11.8217 9.00176 10.222 8.99239 10.222C8.98298 10.2196 8.9736 11.8006 8.96891 13.7311C8.96186 17.1113 8.95954 17.2473 8.91731 17.3271C8.8563 17.442 8.80939 17.4889 8.71084 17.5406C8.63576 17.5781 8.5701 17.5851 8.21584 17.5851H7.80997L7.70205 17.5171C7.63166 17.4725 7.58006 17.4139 7.54485 17.3458L7.49561 17.2403L7.5003 12.5371L7.50735 7.83169L7.58006 7.74022C7.6176 7.69095 7.69736 7.62761 7.75365 7.59713C7.84984 7.55021 7.88737 7.54553 8.29324 7.54553C8.77185 7.54553 8.85161 7.56428 8.97596 7.70033C9.01114 7.73786 10.3132 9.69889 11.871 12.061C13.4288 14.4231 15.5589 17.6484 16.6053 19.2318L18.5056 22.11L18.6018 22.0466C19.4534 21.493 20.3542 20.7049 21.0675 19.8839C22.5854 18.141 23.5637 16.0158 23.8921 13.7499C23.9883 13.0908 24 12.8961 24 12.0024C24 11.1086 23.9883 10.914 23.8921 10.2548C23.2399 5.74871 20.0328 1.96277 15.6833 0.560044C14.9161 0.311399 14.0997 0.140163 13.1847 0.0369525C12.9595 0.0134956 11.4088 -0.0123071 11.2141 0.00645848ZM16.1267 7.26405C16.2393 7.32034 16.3308 7.42823 16.3636 7.54084C16.3824 7.60181 16.3871 8.90602 16.3824 11.8452L16.3753 16.0627L15.6317 14.9227L14.8856 13.7828V10.7169C14.8856 8.7348 14.895 7.6206 14.9091 7.56664C14.9466 7.43528 15.0287 7.33207 15.1413 7.27106C15.2375 7.22182 15.2727 7.21714 15.6411 7.21714C15.9883 7.21714 16.0492 7.22183 16.1267 7.26405Z" fill="#15171A"/>
</g>
</g>
<defs>
<clipPath id="clip0_914_45264">
<rect width="24" height="24" fill="white"/>
</clipPath>
</defs>
</svg>
