<svg width="24" height="24" viewBox="0 0 24 24" fill="none" xmlns="http://www.w3.org/2000/svg">
<path d="M14.8125 18.3C14.5875 18.3 14.3625 18.225 14.2125 18.0375C13.875 17.7 13.875 17.175 14.2125 16.8375C16.875 14.175 16.875 9.7875 14.2125 7.125C13.875 6.7875 13.875 6.2625 14.2125 5.925C14.55 5.5875 15.075 5.5875 15.4125 5.925C18.75 9.2625 18.75 14.7 15.4125 18.0375C15.225 18.225 15.0375 18.3 14.8125 18.3Z" fill="#161A23"/>
<path d="M19.275 20.625C19.05 20.625 18.825 20.55 18.675 20.3625C18.3375 20.025 18.3375 19.5 18.675 19.1625C22.6125 15.225 22.6125 8.77505 18.675 4.80005C18.3375 4.46255 18.3375 3.93755 18.675 3.60005C19.0125 3.26255 19.5375 3.26255 19.875 3.60005C24.4875 8.25005 24.4875 15.75 19.875 20.3625C19.725 20.55 19.5 20.625 19.275 20.625Z" fill="#161A23"/>
<path d="M10.35 16.0125C10.1625 16.0125 9.97499 15.9375 9.82499 15.825L2.92499 10.05C2.54999 10.6125 2.36249 11.2875 2.36249 12C2.36249 12.975 2.73749 13.875 3.41249 14.55C3.74999 14.8875 3.74999 15.4125 3.41249 15.75C3.07499 16.0875 2.54999 16.0875 2.21249 15.75C1.19999 14.7375 0.674988 13.425 0.674988 12C0.674988 10.575 1.23749 9.2625 2.21249 8.25C2.51249 7.95 2.99999 7.9125 3.33749 8.2125L10.2375 13.9875C10.6125 13.425 10.8 12.75 10.8 12.0375C10.8 11.0625 10.425 10.1625 9.74999 9.4875C9.41249 9.15 9.41249 8.625 9.74999 8.2875C10.0875 7.95 10.6125 7.95 10.95 8.2875C11.9625 9.3 12.4875 10.6125 12.4875 12.0375C12.4875 13.4625 11.925 14.775 10.95 15.7875C10.8 15.9 10.575 16.0125 10.35 16.0125Z" fill="#161A23"/>
</svg>
