<svg width="24" height="24" viewBox="0 0 24 24" fill="none" xmlns="http://www.w3.org/2000/svg">
<path d="M10.0125 19.0125H6.89995C6.44995 19.0125 6.07495 19.3875 6.07495 19.8375C6.07495 20.2875 6.44995 20.6625 6.89995 20.6625H10.0125C10.4625 20.6625 10.8375 20.2875 10.8375 19.8375C10.8375 19.3875 10.4625 19.0125 10.0125 19.0125Z" fill="#161A23"/>
<path d="M8.1375 4.98765H8.7375C9.1875 4.98765 9.5625 4.61265 9.5625 4.16265C9.5625 3.71265 9.1875 3.33765 8.7375 3.33765H8.1375C7.6875 3.33765 7.3125 3.71265 7.3125 4.16265C7.3125 4.61265 7.6875 4.98765 8.1375 4.98765Z" fill="#161A23"/>
<path d="M11.5874 11.7375C9.67493 10.6125 7.27493 10.575 5.32493 11.5875C4.91243 11.8125 4.76243 12.3 4.94993 12.7125C5.17493 13.125 5.66243 13.275 6.07493 13.0875C7.53743 12.3375 9.29993 12.375 10.7249 13.2C10.8749 13.275 10.9874 13.3125 11.1374 13.3125C11.4374 13.3125 11.6999 13.1625 11.8499 12.9C12.1499 12.4875 11.9999 11.9625 11.5874 11.7375Z" fill="#161A23"/>
<path d="M10.6126 14.4375C9.37506 13.4625 7.65006 13.35 6.30006 14.2125C5.92506 14.475 5.81256 15 6.03756 15.375C6.30006 15.75 6.82506 15.8625 7.20006 15.6375C7.91256 15.1875 8.85006 15.225 9.52506 15.75C9.67506 15.8625 9.86256 15.9375 10.0501 15.9375C10.3126 15.9375 10.5376 15.825 10.7251 15.6375C11.0626 15.2625 10.9876 14.7375 10.6126 14.4375Z" fill="#161A23"/>
<path d="M12.6 9.1125C10.0125 7.7625 6.89996 7.725 4.27496 8.9625C3.86246 9.15 3.67496 9.675 3.89996 10.0875C4.08746 10.5 4.61246 10.6875 5.02496 10.4625C7.16246 9.4125 9.71246 9.4875 11.8125 10.575C11.925 10.65 12.075 10.6875 12.1875 10.6875C12.4875 10.6875 12.7875 10.5375 12.9375 10.2375C13.2 9.825 13.0125 9.3375 12.6 9.1125Z" fill="#161A23"/>
<path d="M20.5125 3.11255H15.375V2.62505C15.375 1.53755 14.475 0.675049 13.425 0.675049H3.4875C2.4 0.675049 1.5 1.53755 1.5 2.62505V21.3751C1.5 22.4626 2.4 23.3251 3.45 23.3251H13.3875C14.475 23.3251 15.3375 22.4251 15.3375 21.3751V20.8876H20.475C21.5625 20.8876 22.425 19.9876 22.425 18.9376V5.10005C22.5 4.01255 21.6 3.11255 20.5125 3.11255ZM15.375 7.46255H18.2625V8.58755H15.375V7.46255ZM13.6875 21.3751C13.6875 21.5251 13.575 21.6751 13.3875 21.6751H3.4875C3.3375 21.6751 3.1875 21.5626 3.1875 21.3751V2.62505C3.1875 2.47505 3.3 2.32505 3.4875 2.32505H13.425C13.575 2.32505 13.725 2.43755 13.725 2.62505V21.3751H13.6875ZM20.8125 18.9001C20.8125 19.0501 20.7 19.2001 20.5125 19.2001H15.375V10.2751H19.125C19.575 10.2751 19.95 9.90005 19.95 9.45005V6.63755C19.95 6.18755 19.575 5.81255 19.125 5.81255H15.375V4.83755H20.5125C20.6625 4.83755 20.8125 4.95005 20.8125 5.13755V18.9001Z" fill="#161A23"/>
<path d="M18.9374 12.1125H18.4124C17.9624 12.1125 17.5874 12.4875 17.5874 12.9375C17.5874 13.3875 17.9624 13.7625 18.4124 13.7625H18.9374C19.3874 13.7625 19.7624 13.3875 19.7624 12.9375C19.7624 12.4875 19.3874 12.1125 18.9374 12.1125Z" fill="#161A23"/>
<path d="M18.9374 15.675H18.4124C17.9624 15.675 17.5874 16.05 17.5874 16.5C17.5874 16.95 17.9624 17.325 18.4124 17.325H18.9374C19.3874 17.325 19.7624 16.95 19.7624 16.5C19.7624 16.05 19.3874 15.675 18.9374 15.675Z" fill="#161A23"/>
</svg>
