<svg width="24" height="24" viewBox="0 0 24 24" fill="none" xmlns="http://www.w3.org/2000/svg">
<path d="M12.0349 1.875C7.29187 1.875 3.29288 5.01375 2.13038 9.2685C1.6305 9.32662 1.38637 9.3615 1.17712 9.41962C0.5145 9.57075 0.375 9.80325 0.375 10.2799V13.5C0.375 13.965 0.874875 14.2905 1.22363 14.3486C1.57238 14.4184 1.79325 14.4416 2.15363 14.4765H2.1575C3.35875 18.6906 7.31996 21.777 12.0349 21.777C16.7488 21.777 20.7197 18.6809 21.9113 14.4697C22.2017 14.4455 22.4905 14.4051 22.7764 14.3486C23.1251 14.2905 23.625 13.965 23.625 13.5V10.2799C23.625 9.80325 23.4855 9.57075 22.8229 9.41962C22.6233 9.36439 22.386 9.32951 21.9326 9.27626C21.9287 9.2664 21.927 9.25582 21.9277 9.24525C20.7536 4.9905 16.7662 1.875 12.0349 1.875ZM12.0465 4.22325C15.3945 4.22325 18.2542 6.26925 19.3703 9.14062C19.3703 9.15225 19.3819 9.16387 19.3819 9.16387L19.3955 9.16871C16.9833 9.07766 13.8678 8.97787 12 8.97787C10.1574 8.97787 7.10588 9.07474 4.70629 9.16485L4.71112 9.16387C5.82713 6.28087 8.68688 4.22325 12.0465 4.22325ZM6.57113 10.5356H7.19888C7.257 10.5356 7.26862 10.5589 7.26862 10.6054V13.0466C7.26862 13.1047 7.257 13.128 7.18725 13.128H6.59437C6.52462 13.128 6.513 13.1164 6.513 13.0466V10.6054C6.513 10.5589 6.52463 10.5356 6.57113 10.5356ZM8.652 10.5472H10.512C10.5817 10.5472 10.605 10.5589 10.605 10.617V11.0355C10.605 11.0936 10.5817 11.1169 10.512 11.1052H8.68688C8.6055 11.1052 8.57062 11.1401 8.559 11.2215V11.3261C8.559 11.3842 8.59387 11.4307 8.67525 11.4424C8.8845 11.4772 9.55875 11.5237 9.8145 11.547C10.2679 11.5935 10.605 11.6749 10.698 12.105C10.698 12.1399 10.7096 12.2561 10.7096 12.384C10.7096 12.4654 10.7096 12.57 10.6864 12.663C10.605 13.0699 10.3028 13.1512 9.8145 13.1512H7.89637C7.82662 13.1512 7.815 13.1396 7.815 13.0699V12.663C7.815 12.5932 7.82662 12.5816 7.89637 12.5816H9.83775C9.91912 12.5816 9.94238 12.5584 9.954 12.5002V12.3259C9.94238 12.2794 9.93075 12.2096 9.82612 12.198C9.39532 12.1673 8.96513 12.1285 8.53575 12.0817C7.97775 12.0236 7.83825 11.7911 7.815 11.5819C7.80338 11.5121 7.80338 11.4191 7.80338 11.3377C7.80338 11.268 7.80338 11.1634 7.815 11.082C7.89638 10.7216 8.16375 10.5472 8.652 10.5472ZM11.9535 10.5472H13.8135C13.8832 10.5472 13.9065 10.5589 13.9065 10.617V11.0355C13.9065 11.0936 13.8832 11.1169 13.8135 11.1052H11.9884C11.907 11.1052 11.8721 11.1401 11.8605 11.2215V11.3261C11.8605 11.3842 11.8837 11.4307 11.9767 11.4424C12.186 11.4772 12.8602 11.5237 13.1044 11.547C13.5577 11.5935 13.8949 11.6749 13.9879 12.105C13.9879 12.1399 13.9995 12.2561 13.9995 12.384C13.9995 12.4654 13.9995 12.57 13.9762 12.663C13.8949 13.0699 13.5926 13.1512 13.1044 13.1512H11.1979C11.1281 13.1512 11.1165 13.1396 11.1165 13.0699V12.663C11.1165 12.5932 11.1281 12.5816 11.1979 12.5816H13.1392C13.2206 12.5816 13.2439 12.5584 13.2555 12.5002V12.3259C13.2439 12.2794 13.2206 12.2096 13.1276 12.198C12.6968 12.1673 12.2666 12.1285 11.8372 12.0817C11.2793 12.0236 11.1514 11.7911 11.1165 11.5819C11.1049 11.5121 11.1049 11.4191 11.1049 11.3377C11.1049 11.268 11.1049 11.1634 11.1165 11.082C11.1979 10.7216 11.4653 10.5472 11.9535 10.5472ZM2.92088 10.5589H3.51375C3.9555 10.5589 4.01363 10.5472 4.17637 10.7797C4.30425 10.989 5.33888 12.5816 5.33888 12.5816V10.6402C5.33888 10.5821 5.3505 10.5589 5.42025 10.5589H5.93175C6.0015 10.5589 6.01312 10.5821 6.01312 10.6402V13.0699C6.01312 13.1396 6.0015 13.1512 5.93175 13.1512H5.23425C4.82737 13.1512 4.7925 13.1512 4.653 12.9187C4.374 12.477 3.51375 11.1634 3.51375 11.1634V13.0699C3.51375 13.1396 3.50213 13.1512 3.43237 13.1512H2.92088C2.85113 13.1512 2.8395 13.1396 2.8395 13.0699V10.6402C2.8395 10.5821 2.85113 10.5589 2.92088 10.5589ZM15.9176 10.5589C16.0455 10.5589 16.1385 10.5589 16.1734 10.5705C16.5919 10.5821 16.5221 10.5356 16.7197 10.9657C16.8244 11.2099 17.5684 12.8025 17.6846 13.0815C17.7195 13.1629 17.6963 13.1512 17.6033 13.1512H16.9639C16.929 13.1512 16.8941 13.1396 16.8825 13.1047C16.8825 13.0931 16.8011 12.9071 16.6849 12.6397H15.1852C15.069 12.9071 14.976 13.1047 14.976 13.1047C14.9644 13.128 14.9411 13.1512 14.8946 13.1512H14.2785C14.1855 13.1512 14.1506 13.1512 14.2087 13.035L14.2204 13.0118C14.511 12.3724 15.1969 10.8379 15.1969 10.8379C15.3364 10.5472 15.2666 10.5705 15.6619 10.5705C15.7665 10.5589 15.7897 10.5589 15.9176 10.5589ZM18.1496 10.5589H18.7425C19.1842 10.5589 19.2424 10.5472 19.4051 10.7797C19.5446 10.989 20.5676 12.5816 20.5676 12.5816V10.6402C20.5676 10.5821 20.5793 10.5589 20.649 10.5589H21.1605C21.2303 10.5589 21.2419 10.5821 21.2419 10.6402V13.0699C21.2419 13.1396 21.2303 13.1512 21.1605 13.1512H20.463C20.0561 13.1512 20.0212 13.1512 19.8818 12.9187C19.5911 12.477 18.7425 11.1634 18.7425 11.1634V13.0699C18.7425 13.1396 18.7309 13.1512 18.6611 13.1512H18.1496C18.0799 13.1512 18.0682 13.1396 18.0682 13.0699V10.6402C18.0682 10.5821 18.0799 10.5589 18.1496 10.5589ZM15.9525 11.1401C15.9176 11.1401 15.8828 11.1401 15.8711 11.1517C15.8363 11.1517 15.813 11.1634 15.8014 11.1866C15.8014 11.1982 15.6154 11.64 15.4177 12.0934H16.4524C16.3013 11.7097 16.1269 11.3261 16.0804 11.1982C16.0688 11.1634 16.0455 11.1517 16.0223 11.1517C16.0106 11.1401 15.9757 11.1401 15.9525 11.1401ZM19.3237 14.6179C19.3208 14.6315 19.3005 14.6635 19.3005 14.6741C18.138 17.4641 15.3247 19.4404 12.0349 19.4404C8.72175 19.4404 5.89687 17.4409 4.746 14.6276L4.72372 14.6208C6.83171 14.7274 9.56164 14.8369 12 14.8369C14.4587 14.8369 17.208 14.7264 19.3237 14.6189V14.6179Z" fill="#15171A"/>
</svg>
