<svg width="24" height="24" viewBox="0 0 24 24" fill="none" xmlns="http://www.w3.org/2000/svg">
<path d="M4.72501 2.13745C4.50001 1.72495 3.97501 1.57495 3.60001 1.79995C3.18751 2.02495 3.03751 2.54995 3.26251 2.92495L4.91251 5.96245H3.48751C1.91251 5.96245 0.637512 7.23745 0.637512 8.81245V15.2249C0.637512 16.7999 1.91251 18.0749 3.48751 18.0749H11.4L13.5 21.8624C13.65 22.1624 13.95 22.3124 14.25 22.3124C14.4 22.3124 14.5125 22.2749 14.6625 22.1999C15.075 21.9749 15.225 21.4499 15 21.0749L4.72501 2.13745ZM3.48751 16.3499C2.85001 16.3499 2.32501 15.8249 2.32501 15.1874V8.77495C2.32501 8.13745 2.85001 7.61245 3.48751 7.61245H5.77501L10.5 16.3499H3.48751Z" fill="#161A23"/>
<path d="M21.375 9.1124H20.3625V8.8124C20.3625 7.2374 19.0875 5.9624 17.5125 5.9624H10.5C10.05 5.9624 9.63751 6.3374 9.63751 6.8249C9.63751 7.3124 10.0125 7.6874 10.5 7.6874H17.5125C18.15 7.6874 18.675 8.2124 18.675 8.8499V15.2624C18.675 15.8999 18.15 16.4249 17.5125 16.4249H15.45C15 16.4249 14.5875 16.7999 14.5875 17.2874C14.5875 17.7749 14.9625 18.1499 15.45 18.1499H17.5125C19.0875 18.1499 20.3625 16.8749 20.3625 15.2999V14.9999H21.375C22.4625 14.9999 23.3625 14.0999 23.3625 13.0124V11.1749C23.3625 9.9749 22.4625 9.1124 21.375 9.1124ZM21.675 12.9374C21.675 13.0874 21.5625 13.2374 21.375 13.2374H20.3625V10.8374H21.375C21.525 10.8374 21.675 10.9499 21.675 11.1374V12.9374Z" fill="#161A23"/>
</svg>
