<svg width="24" height="24" viewBox="0 0 24 24" fill="none" xmlns="http://www.w3.org/2000/svg">
<path fill-rule="evenodd" clip-rule="evenodd" d="M5.01184 9.17149C5.09797 9.2211 5.15055 9.31279 5.15055 9.41262L5.14612 12.9732C5.14612 13.0226 5.11946 13.0688 5.07731 13.0932C5.03468 13.1186 4.98131 13.1186 4.93845 13.0932L3.57323 12.3114C3.48741 12.2604 3.43407 12.1692 3.43407 12.0705V10.4069C3.43407 10.3076 3.38123 10.2159 3.29516 10.1666L2.71385 9.83172C2.67186 9.80674 2.62336 9.79444 2.57583 9.79444C2.52755 9.79444 2.48013 9.80682 2.43695 9.83175L1.85535 10.1667C1.76936 10.2161 1.71674 10.3078 1.71674 10.407V12.0708C1.71674 12.1696 1.66411 12.2603 1.57785 12.3116L0.211751 13.094C0.169432 13.12 0.116264 13.12 0.0739489 13.094C0.0305462 13.0696 0.00504416 13.0234 0.00504416 12.9741L0 9.41288C0 9.31309 0.0533835 9.22137 0.138997 9.17149L2.43684 7.84932C2.47628 7.82652 2.51973 7.81459 2.56379 7.81294H2.58755C2.63161 7.81459 2.67507 7.82652 2.71385 7.84932L5.01184 9.17149ZM15.9593 11.3268C15.9809 11.3145 15.994 11.2916 15.994 11.2668L15.9938 10.3556C15.9938 10.3307 15.9808 10.3078 15.9591 10.2953L15.1697 9.83959C15.148 9.82714 15.1214 9.82714 15.0997 9.83959L14.3109 10.2953C14.2897 10.3078 14.2767 10.3307 14.2767 10.3556V11.2668C14.2767 11.2915 14.2897 11.3145 14.3114 11.3268L15.1008 11.7818C15.1221 11.7941 15.1486 11.7941 15.1701 11.7818L15.9593 11.3268ZM16.0693 4.51902C16.1118 4.49423 16.1642 4.49359 16.2073 4.51759L17.5748 5.28087C17.6627 5.33007 17.7174 5.42269 17.7174 5.52334V12.1379C17.7174 12.2372 17.6643 12.3284 17.5785 12.3782L15.2798 13.7064C15.1937 13.7558 15.088 13.7558 15.0022 13.7064L12.7035 12.3788C12.6176 12.3289 12.5646 12.2378 12.5646 12.1385V9.48439C12.5646 9.38565 12.6176 9.29397 12.7035 9.24458L15.0022 7.91794C15.0883 7.86837 15.1938 7.86837 15.2796 7.91794L15.8552 8.24952C15.8853 8.26684 15.9225 8.26684 15.9523 8.24952C15.9824 8.23212 16.0008 8.20009 16.0008 8.16537V4.6389C16.0008 4.58955 16.0269 4.54399 16.0693 4.51902ZM24 10.0917C24 10.1904 23.9475 10.282 23.862 10.3316L22.4832 11.1324C22.4404 11.1573 22.3872 11.1573 22.3444 11.1329C22.3015 11.108 22.2749 11.0618 22.2749 11.0125V10.3582C22.2749 10.3088 22.2483 10.2627 22.2055 10.2383L21.4855 9.82324C21.4427 9.7983 21.39 9.7983 21.3472 9.82324L20.6278 10.2383C20.5844 10.263 20.5584 10.3088 20.5584 10.3585V11.1908C20.5584 11.2401 20.5849 11.2862 20.6283 11.3106L22.9406 12.6377C22.984 12.6621 23.0106 12.7088 23.0106 12.7587C23.0106 12.8086 22.9829 12.8547 22.9395 12.8792L21.5582 13.6468C21.4731 13.694 21.37 13.6935 21.2859 13.6452L19.0024 12.3437C18.9161 12.2943 18.8624 12.2021 18.8624 12.1022V9.44925C18.8624 9.34995 18.915 9.25883 19.0012 9.20888L21.2994 7.88239C21.3857 7.83248 21.4915 7.83248 21.5777 7.88239L23.8619 9.20835C23.9473 9.25815 24 9.34943 24 9.44843V10.0917ZM11.8623 19.1988C11.7831 19.1988 11.7044 19.178 11.635 19.138L10.9115 18.7096C10.8033 18.6492 10.8561 18.6278 10.8917 18.6155C11.0358 18.565 11.0651 18.5536 11.2189 18.4663C11.2351 18.457 11.2562 18.4603 11.2728 18.4701L11.8287 18.8C11.8487 18.8108 11.8772 18.8108 11.8958 18.8L14.0632 17.5488C14.0833 17.5374 14.0963 17.5141 14.0963 17.4902V14.9892C14.0963 14.9642 14.0833 14.942 14.0628 14.9295L11.8962 13.6795C11.8761 13.6676 11.8496 13.6676 11.8295 13.6795L9.66337 14.9295C9.64237 14.9414 9.62906 14.9648 9.62906 14.9886V17.4897C9.62906 17.5136 9.64208 17.5364 9.6627 17.5478L10.2562 17.8906C10.5785 18.0518 10.7754 17.8619 10.7754 17.6709V15.2024C10.7754 15.1671 10.8031 15.14 10.8384 15.14H11.1129C11.1471 15.14 11.1753 15.1671 11.1753 15.2024V17.672C11.1753 18.1017 10.9409 18.3485 10.5334 18.3485C10.4081 18.3485 10.3094 18.3485 10.0338 18.2129L9.46519 17.8852C9.32467 17.8039 9.2379 17.6519 9.2379 17.4897V14.9886C9.2379 14.8259 9.32467 14.674 9.46519 14.5937L11.6348 13.3421C11.772 13.2645 11.9543 13.2645 12.0905 13.3421L14.2573 14.5942C14.3973 14.675 14.4847 14.8264 14.4847 14.9892V17.4902C14.4847 17.6525 14.3973 17.8039 14.2573 17.8852L12.0905 19.1369C12.0211 19.177 11.9424 19.1976 11.8621 19.1976L11.8623 19.1988ZM12.5318 17.4753C11.5834 17.4753 11.3846 17.04 11.3846 16.6749C11.3846 16.6401 11.4126 16.6125 11.4474 16.6125H11.7273C11.7583 16.6125 11.7843 16.635 11.7892 16.6655C11.8315 16.9508 11.9574 17.0946 12.5308 17.0946C12.9876 17.0946 13.1819 16.9914 13.1819 16.7492C13.1819 16.6098 13.1265 16.5062 12.4169 16.4367C11.8233 16.3781 11.4566 16.2474 11.4566 15.7727C11.4566 15.3354 11.8255 15.075 12.4435 15.075C13.1373 15.075 13.4813 15.3159 13.5248 15.8334C13.5264 15.8513 13.5199 15.8687 13.5079 15.8817C13.496 15.8942 13.4792 15.9018 13.4618 15.9018H13.1802C13.1509 15.9018 13.1254 15.8812 13.1195 15.853C13.0516 15.5529 12.8878 15.4569 12.4424 15.4569C11.9438 15.4569 11.8857 15.6305 11.8857 15.7608C11.8857 15.9186 11.9541 15.9648 12.6269 16.0537C13.2931 16.1421 13.6094 16.2669 13.6094 16.7351C13.6094 17.2071 13.2155 17.4779 12.5287 17.4779L12.5318 17.4753ZM15.1686 14.8254H15.2413C15.301 14.8254 15.3124 14.7837 15.3124 14.7593C15.3124 14.6952 15.2684 14.6952 15.244 14.6952H15.1692L15.1686 14.8254ZM15.0802 14.6204H15.2413C15.2967 14.6204 15.4051 14.6204 15.4051 14.7441C15.4051 14.8301 15.3501 14.8481 15.317 14.859C15.3798 14.8632 15.3853 14.9034 15.3936 14.9606L15.3943 14.9654L15.3948 14.9697C15.3992 15.0076 15.4062 15.0682 15.4187 15.0891H15.3195L15.3176 15.0743C15.3127 15.0354 15.3015 14.9471 15.3015 14.9415C15.295 14.915 15.2858 14.9019 15.2527 14.9019H15.1708V15.0896H15.0802V14.6204ZM14.8865 14.8536C14.8865 15.0479 15.0433 15.2052 15.2359 15.2052C15.4301 15.2052 15.5869 15.0446 15.5869 14.8536C15.5869 14.6589 15.4279 14.5042 15.2353 14.5042C15.0455 14.5042 14.886 14.6567 14.886 14.8531L14.8865 14.8536ZM15.6542 14.8547C15.6542 15.0848 15.4659 15.2725 15.2364 15.2725C15.0086 15.2725 14.8187 15.0869 14.8187 14.8547C14.8187 14.6182 15.0129 14.437 15.2364 14.437C15.4616 14.437 15.6536 14.6187 15.6536 14.8547H15.6542ZM21.405 10.2073C21.4213 10.1977 21.4417 10.1977 21.4581 10.2073L21.8993 10.4618C21.9157 10.4713 21.9258 10.4889 21.9258 10.5079V11.0173C21.9258 11.0363 21.9157 11.0539 21.8993 11.0634L21.4581 11.3179C21.4417 11.3275 21.4213 11.3275 21.405 11.3179L20.9642 11.0634C20.9473 11.0539 20.9371 11.0363 20.9371 11.0173V10.5079C20.9371 10.4889 20.9468 10.4713 20.9637 10.4618L21.405 10.2073ZM9.05404 7.95642C8.96584 7.905 8.85668 7.905 8.7696 7.95642L6.40849 9.31849C6.31849 9.36964 6.26625 9.46373 6.26625 9.56535V12.2925C6.26625 12.3941 6.32137 12.4882 6.41138 12.5393L8.7696 13.9014C8.85668 13.9528 8.96584 13.9528 9.05404 13.9014L11.4137 12.5393C11.502 12.4882 11.556 12.3941 11.556 12.2925V9.56535C11.556 9.46373 11.502 9.36964 11.4137 9.31849L9.05404 7.95642Z" fill="#15171A"/>
</svg>
