<svg width="24" height="24" viewBox="0 0 24 24" fill="none" xmlns="http://www.w3.org/2000/svg">
<path d="M16.05 12.5624C15.6 12.5624 15.225 12.9374 15.225 13.3874V20.2499L8.5875 12.8249C8.3625 12.5624 7.9875 12.4874 7.65 12.5999C7.35 12.7499 7.125 13.0499 7.125 13.3874V22.4999C7.125 22.9499 7.5 23.3249 7.95 23.3249C8.4 23.3249 8.775 22.9499 8.775 22.4999V15.6374L15.375 23.0624C15.525 23.2499 15.7875 23.3624 16.0125 23.3624C16.125 23.3624 16.2 23.3624 16.3125 23.3249C16.65 23.2124 16.875 22.8749 16.875 22.5374V13.3874C16.875 12.9374 16.5 12.5624 16.05 12.5624Z" fill="#161A23"/>
<path d="M18.15 6.33748L12.6 0.899976C12.2625 0.562476 11.7375 0.562476 11.4 0.899976L5.85005 6.33748C5.51255 6.67498 5.51255 7.19998 5.85005 7.53748C6.18755 7.87498 6.71255 7.87498 7.05005 7.53748L12 2.69998L16.95 7.57498C17.1 7.72498 17.325 7.79998 17.55 7.79998C17.775 7.79998 18 7.72498 18.15 7.53748C18.4875 7.19998 18.45 6.67498 18.15 6.33748Z" fill="#161A23"/>
</svg>
