<svg width="24" height="24" viewBox="0 0 24 24" fill="none" xmlns="http://www.w3.org/2000/svg">
<path d="M19.275 1.57505C18.675 0.975049 17.925 0.675049 17.1 0.675049H8.10001C6.82501 0.675049 5.73751 1.72505 5.73751 3.03755V4.50005H4.68751C4.23751 4.50005 3.82501 4.87505 3.82501 5.36255C3.82501 5.85005 4.20001 6.22505 4.68751 6.22505H5.73751V11.2125H4.68751C4.23751 11.2125 3.82501 11.5875 3.82501 12.075C3.82501 12.525 4.20001 12.9375 4.68751 12.9375H5.73751V17.925H4.68751C4.23751 17.925 3.82501 18.3 3.82501 18.7875C3.82501 19.275 4.20001 19.65 4.68751 19.65H5.73751V21C5.73751 22.275 6.78751 23.3625 8.10001 23.3625H17.1C18.7875 23.3625 20.175 21.975 20.2125 20.2875V3.78755C20.175 2.92505 19.875 2.13755 19.275 1.57505ZM18.4875 20.25C18.4875 21.0375 17.85 21.6376 17.0625 21.6376H8.06251C7.68751 21.6376 7.38751 21.3375 7.38751 20.9625V19.5H9.41251C9.86251 19.5 10.275 19.125 10.275 18.6376C10.275 18.15 9.90001 17.775 9.41251 17.775H7.38751V12.8625H9.41251C9.86251 12.8625 10.275 12.4875 10.275 12C10.275 11.55 9.90001 11.1375 9.41251 11.1375H7.38751V6.15005H9.41251C9.86251 6.15005 10.275 5.77505 10.275 5.28755C10.275 4.80005 9.90001 4.42505 9.41251 4.42505H7.38751V3.00005C7.38751 2.62505 7.68751 2.32505 8.06251 2.32505H17.0625C17.4375 2.32505 17.775 2.47505 18.075 2.73755C18.3375 3.00005 18.4875 3.37505 18.4875 3.75005V20.25Z" fill="#161A23"/>
</svg>
