<svg width="24" height="24" viewBox="0 0 24 24" fill="none" xmlns="http://www.w3.org/2000/svg">
<path d="M18.975 1.875C17.1375 1.875 15.5625 3.0375 14.925 4.6875H2.88749C1.64999 4.6875 0.674988 5.7 0.674988 6.9V19.875C0.674988 21.1125 1.68749 22.0875 2.88749 22.0875H16.4625C17.7 22.0875 18.675 21.075 18.675 19.875V10.725C18.7875 10.725 18.8625 10.725 18.975 10.725C21.375 10.725 23.3625 8.7375 23.3625 6.3C23.3625 3.8625 21.375 1.875 18.975 1.875ZM16.9875 19.875C16.9875 20.175 16.7625 20.4 16.4625 20.4H2.88749C2.58749 20.4 2.36249 20.175 2.36249 19.875V6.9375C2.36249 6.6375 2.58749 6.4125 2.88749 6.4125H14.625C14.6625 8.1 15.6 9.5625 17.025 10.275V19.875H16.9875ZM18.975 9.075C17.5125 9.075 16.275 7.8375 16.275 6.3375C16.275 4.8375 17.475 3.6 18.975 3.6C20.4375 3.6 21.675 4.8375 21.675 6.3375C21.675 7.8375 20.4375 9.075 18.975 9.075Z" fill="#161A23"/>
<path d="M4.72499 12H12C12.45 12 12.8625 11.625 12.8625 11.1375C12.8625 10.65 12.4875 10.275 12 10.275H4.72499C4.27499 10.275 3.86249 10.65 3.86249 11.1375C3.86249 11.625 4.27499 12 4.72499 12Z" fill="#161A23"/>
<path d="M13.7625 14.6625H4.72499C4.27499 14.6625 3.86249 15.0375 3.86249 15.525C3.86249 16.0125 4.23749 16.3875 4.72499 16.3875H13.8C14.25 16.3875 14.6625 16.0125 14.6625 15.525C14.6625 15.0375 14.25 14.6625 13.7625 14.6625Z" fill="#161A23"/>
</svg>
