<svg width="24" height="24" viewBox="0 0 24 24" fill="none" xmlns="http://www.w3.org/2000/svg">
<path d="M18.075 11.2875C20.7 11.2875 22.875 9.14998 22.875 6.48748C22.875 3.86248 20.7375 1.68748 18.075 1.68748C16.125 1.68748 14.4375 2.84998 13.6875 4.53748C12.75 4.01248 11.7 3.67498 10.575 3.56248V2.17498C10.575 1.72498 10.2 1.34998 9.75004 1.34998C9.30004 1.34998 8.92504 1.72498 8.92504 2.17498V3.59998C8.88754 3.59998 8.85004 3.59998 8.81254 3.59998C4.98754 4.01248 2.10004 7.08748 2.10004 10.7625V17.4375C2.06254 17.7375 1.98754 17.8875 1.95004 18L1.35004 19.05C1.12504 19.3875 1.08754 19.8375 1.31254 20.2125L1.35004 20.25C1.57504 20.5875 1.91254 20.775 2.32504 20.775H8.96254V21.8625C8.96254 22.3125 9.33754 22.6875 9.78754 22.6875C10.2375 22.6875 10.6125 22.3125 10.6125 21.8625V20.775H17.2875C17.7 20.775 18.0375 20.5875 18.2625 20.25C18.4875 19.875 18.4875 19.425 18.2625 19.05L17.625 18.0375C17.5125 17.85 17.4375 17.6625 17.4375 17.475V11.2125C17.625 11.25 17.85 11.2875 18.075 11.2875ZM18.075 3.37498C19.8 3.37498 21.1875 4.76248 21.1875 6.48748C21.1875 8.21248 19.8 9.59998 18.075 9.59998C16.35 9.59998 14.9625 8.21248 14.9625 6.48748C14.9625 4.76248 16.35 3.37498 18.075 3.37498ZM15.75 10.65V17.475C15.75 17.9625 15.9 18.45 16.1625 18.9375L16.2375 19.0875H9.78754C9.78754 19.0875 9.78754 19.0875 9.75004 19.0875C9.71254 19.0875 9.75004 19.0875 9.71254 19.0875H3.26254L3.41254 18.8625C3.60004 18.525 3.71254 18.15 3.78754 17.625V10.8C3.78754 7.98748 6.03754 5.58748 9.00004 5.28748C10.5375 5.09998 12.0375 5.47498 13.275 6.29998C13.275 6.37498 13.275 6.44998 13.275 6.48748C13.275 8.28748 14.2875 9.82498 15.75 10.65Z" fill="#161A23"/>
</svg>
