<svg width="24" height="24" viewBox="0 0 24 24" fill="none" xmlns="http://www.w3.org/2000/svg">
<g clip-path="url(#clip0_914_45280)">
<path fill-rule="evenodd" clip-rule="evenodd" d="M4.49749 4.27102C5.24014 4.8744 5.51872 4.82835 6.91327 4.73531L20.0602 3.9459C20.3391 3.9459 20.1072 3.66772 20.0142 3.6215L17.8308 2.04305C17.4124 1.71824 16.855 1.34627 15.7867 1.43932L3.05654 2.36781C2.59227 2.41385 2.49955 2.64599 2.68443 2.83204L4.49749 4.27102ZM5.28682 7.33492V21.1678C5.28682 21.9112 5.65834 22.1894 6.49447 22.1434L20.943 21.3073C21.7795 21.2613 21.8727 20.75 21.8727 20.1461V6.40601C21.8727 5.80309 21.6408 5.47792 21.1287 5.52435L6.02989 6.40601C5.47264 6.45285 5.28682 6.73159 5.28682 7.33492ZM19.5503 8.07698C19.643 8.49514 19.5503 8.91296 19.1313 8.95999L18.4352 9.0987V19.311C17.8308 19.6359 17.2734 19.8216 16.809 19.8216C16.0653 19.8216 15.8791 19.5893 15.3221 18.8934L10.7684 11.7447V18.6613L12.2094 18.9864C12.2094 18.9864 12.2094 19.8216 11.0468 19.8216L7.84192 20.0075C7.74881 19.8216 7.84192 19.3578 8.16701 19.2649L9.00334 19.0331V9.88807L7.84215 9.795C7.749 9.37684 7.98097 8.77384 8.63186 8.72704L12.07 8.49529L16.809 15.737V9.33079L15.6007 9.19211C15.508 8.68087 15.8791 8.30966 16.3437 8.26361L19.5503 8.07698ZM1.98769 1.11455L15.2291 0.139408C16.8552 -5.20349e-05 17.2736 0.0933757 18.2956 0.83577L22.5225 3.80662C23.2199 4.31749 23.4523 4.45657 23.4523 5.01349V21.3073C23.4523 22.3285 23.0803 22.9324 21.7798 23.0248L6.40245 23.9534C5.42614 24 4.96151 23.8608 4.4502 23.2105L1.3375 19.172C0.7798 18.4286 0.547852 17.8724 0.547852 17.2217V2.73866C0.547852 1.90359 0.919964 1.20699 1.98769 1.11455Z" fill="#15171A"/>
</g>
<defs>
<clipPath id="clip0_914_45280">
<rect width="24" height="24" fill="white"/>
</clipPath>
</defs>
</svg>
