<svg width="24" height="24" viewBox="0 0 24 24" fill="none" xmlns="http://www.w3.org/2000/svg">
<path d="M4.11022 12.8201C4.0422 12.8634 3.96911 12.89 3.88804 12.9017C3.8073 12.9138 3.72913 12.9114 3.6484 12.9114H2.00331C1.92259 12.9114 1.84441 12.9138 1.76368 12.9017C1.68295 12.8896 1.60986 12.8634 1.5415 12.8201C1.40768 12.7313 1.32696 12.5871 1.32696 12.4332C1.32696 12.277 1.40768 12.1328 1.5415 12.0463C1.6095 12.0031 1.68259 11.9769 1.76368 11.9647C1.84441 11.9526 1.92259 11.9551 2.00331 11.9551H3.64876C3.7295 11.9551 3.80768 11.9526 3.88838 11.9647C3.96911 11.9769 4.0422 12.0031 4.1106 12.0463C4.2444 12.1352 4.3251 12.2794 4.3251 12.4332C4.32476 12.5895 4.24402 12.7337 4.11022 12.8201ZM4.77128 11.3178C4.59457 11.1834 4.39275 11.0896 4.17349 11.0392C4.0473 11.0105 3.92111 10.9984 3.79238 10.9935C3.69638 10.9911 3.60076 10.9911 3.50476 10.9911H2.14731C2.05131 10.9911 1.95568 10.9911 1.85968 10.9935C1.73095 10.9984 1.60477 11.0105 1.47859 11.0392C1.25896 11.0896 1.05714 11.1834 0.880414 11.3178C0.524779 11.5896 0.317871 12.0004 0.317871 12.4332C0.317871 12.8682 0.524779 13.2769 0.880414 13.5483C1.05714 13.6828 1.25896 13.7768 1.47823 13.827C1.60441 13.8556 1.73059 13.8678 1.85931 13.8726C1.95531 13.875 2.05095 13.875 2.14695 13.875H3.5044C3.6004 13.875 3.69638 13.875 3.79204 13.8726C3.92077 13.8678 4.04692 13.8556 4.17311 13.827C4.39275 13.7765 4.59457 13.6828 4.77094 13.5483C5.12692 13.2765 5.33348 12.8658 5.33385 12.4329C5.33423 11.9979 5.1273 11.5896 4.77128 11.3178Z" fill="#15171A"/>
<path d="M21.888 12.8734L21.455 13.2955C21.768 13.6333 22.2273 13.8024 22.7437 13.8024C23.4273 13.8024 23.9488 13.4794 23.9488 12.9525C23.9488 12.4605 23.5837 12.1922 23.0044 12.1376L22.6808 12.1079C22.4146 12.083 22.2426 11.9986 22.2426 11.8496C22.2426 11.6905 22.4201 11.601 22.7226 11.601C23.0513 11.601 23.2964 11.7303 23.4582 11.9191L23.8862 11.5018C23.6201 11.1985 23.2131 11.0544 22.7538 11.0544C22.0389 11.0544 21.5851 11.3922 21.5851 11.8893C21.5851 12.3416 21.9295 12.6396 22.5451 12.6946L22.8738 12.7243C23.1401 12.7492 23.2808 12.8388 23.2808 12.9878C23.2808 13.1718 23.0615 13.2561 22.7801 13.2561C22.4201 13.2558 22.1073 13.1168 21.888 12.8734ZM20.2601 13.7578H20.9331V11.0941H20.2342V12.6248C20.2342 12.9726 19.9735 13.2011 19.6342 13.2011C19.3004 13.2011 19.0761 12.9626 19.0761 12.6248V11.0941H18.3768V12.7292C18.3768 13.3802 18.888 13.7976 19.4724 13.7976C19.8012 13.7976 20.0829 13.6534 20.2604 13.4694L20.2601 13.7578ZM17.5993 10.125H16.9001V13.7578H17.5993V10.125ZM15.4237 13.7578H16.0968V11.0941H15.3975V12.6248C15.3975 12.9726 15.1368 13.2011 14.7975 13.2011C14.4637 13.2011 14.2394 12.9626 14.2394 12.6248V11.0941H13.5401V12.7292C13.5401 13.3802 14.0513 13.7976 14.6357 13.7976C14.9645 13.7976 15.2463 13.6534 15.4237 13.4694V13.7578ZM12.5855 12.9328C12.4499 13.0818 12.2517 13.1863 11.9906 13.1863C11.5263 13.1863 11.2289 12.8633 11.2289 12.4308C11.2289 11.9886 11.5263 11.6653 11.9906 11.6653C12.2514 11.6653 12.4499 11.7697 12.5855 11.9287L13.0655 11.4717C12.815 11.2134 12.4394 11.0492 11.9961 11.0492C11.151 11.0492 10.5299 11.6404 10.5299 12.4256C10.5299 13.2108 11.1506 13.8021 11.9961 13.8021C12.4343 13.8021 12.8153 13.6382 13.0655 13.3847L12.5855 12.9328ZM8.6201 13.1863C8.15577 13.1863 7.85322 12.8633 7.85322 12.4308C7.85322 11.9886 8.15577 11.6653 8.6201 11.6653C9.0845 11.6653 9.38705 11.9882 9.38705 12.4308C9.38738 12.8633 9.0845 13.1863 8.6201 13.1863ZM8.6201 13.8024C9.4652 13.8024 10.0863 13.2112 10.0863 12.426C10.0863 11.6407 9.46557 11.0495 8.6201 11.0495C7.7747 11.0495 7.1543 11.6407 7.1543 12.426C7.1543 13.2112 7.77503 13.8024 8.6201 13.8024Z" fill="#15171A"/>
</svg>
