<svg width="24" height="24" viewBox="0 0 24 24" fill="none" xmlns="http://www.w3.org/2000/svg">
<path d="M22.425 10.125L21.525 9.41249C21.3 9.22499 21.225 8.96249 21.2625 8.7L21.5625 7.61249C21.75 6.93749 21.6 6.22499 21.1875 5.62499C20.7375 5.02499 20.0625 4.64999 19.3125 4.61249L18.15 4.5375C17.85 4.5375 17.55 4.34999 17.475 4.08749L17.0625 3.07499C16.8 2.43749 16.2375 1.91249 15.5625 1.68749C14.85 1.46249 14.1 1.53749 13.4625 1.91249L12.4875 2.51249C12.225 2.66249 11.8875 2.66249 11.5875 2.51249L10.6125 1.91249C9.97499 1.53749 9.22499 1.42499 8.51249 1.68749C7.83749 1.91249 7.27499 2.39999 7.01249 3.07499L6.52499 4.12499C6.41249 4.3875 6.14999 4.57499 5.84999 4.57499L4.68749 4.64999C3.93749 4.68749 3.22499 5.06249 2.81249 5.66249C2.39999 6.22499 2.24999 6.97499 2.43749 7.64999L2.73749 8.73749C2.81249 8.99999 2.69999 9.2625 2.47499 9.45L1.57499 10.125C0.974988 10.575 0.674988 11.25 0.674988 12C0.674988 12.7125 1.01249 13.3875 1.57499 13.875L2.47499 14.5875C2.69999 14.775 2.81249 15.0375 2.73749 15.3L2.43749 16.3875C2.24999 17.0625 2.39999 17.775 2.81249 18.375C3.26249 18.975 3.93749 19.35 4.68749 19.3875L5.84999 19.4625C6.14999 19.4625 6.44999 19.65 6.52499 19.9125L6.93749 20.925C7.19999 21.5625 7.76249 22.0875 8.43749 22.3125C9.14999 22.5375 9.89999 22.4625 10.5375 22.0875L11.5125 21.4875C11.775 21.3375 12.1125 21.3375 12.4125 21.4875L13.3875 22.0875C13.8 22.3125 14.25 22.4625 14.7 22.4625C14.9625 22.4625 15.225 22.425 15.4875 22.35C16.1625 22.125 16.725 21.6375 16.9875 20.9625L17.4 19.95C17.5125 19.6875 17.775 19.5 18.075 19.5L19.2375 19.425C19.9875 19.3875 20.7 19.0125 21.1125 18.4125C21.525 17.85 21.675 17.1 21.4875 16.425L21.1875 15.3375C21.1125 15.075 21.225 14.8125 21.45 14.625L22.35 13.9125C22.95 13.4625 23.25 12.7875 23.25 12.0375C23.3625 11.2875 23.025 10.6125 22.425 10.125ZM21.375 12.525L20.475 13.2375C19.725 13.8375 19.3875 14.8125 19.65 15.7125L19.95 16.8C20.025 17.0625 19.9125 17.25 19.8375 17.3625C19.6875 17.55 19.4625 17.6625 19.2375 17.7L18.075 17.775C17.1375 17.8125 16.275 18.4125 15.9375 19.275L15.4875 20.25C15.375 20.5125 15.15 20.625 15 20.6625C14.775 20.7375 14.5125 20.7 14.2875 20.5875L13.3125 19.9875C12.9 19.7625 12.45 19.6125 12 19.6125C11.55 19.6125 11.1 19.725 10.6875 19.9875L9.71249 20.5875C9.48749 20.7 9.22499 20.7375 8.99999 20.6625C8.88749 20.625 8.62499 20.5125 8.51249 20.25L8.09999 19.2375C7.76249 18.375 6.89999 17.775 5.96249 17.7375L4.79999 17.6625C4.53749 17.6625 4.31249 17.5125 4.19999 17.325C4.12499 17.2125 4.01249 17.025 4.08749 16.7625L4.38749 15.675C4.64999 14.775 4.31249 13.8 3.56249 13.2L2.62499 12.525C2.43749 12.375 2.36249 12.1875 2.36249 12C2.36249 11.775 2.47499 11.5875 2.62499 11.475L3.52499 10.7625C4.27499 10.1625 4.61249 9.18749 4.34999 8.28749L4.04999 7.2C3.97499 6.9375 4.08749 6.75 4.16249 6.6375C4.31249 6.45 4.53749 6.33749 4.76249 6.29999L5.92499 6.22499C6.86249 6.18749 7.72499 5.58749 8.06249 4.72499L8.47499 3.71249C8.62499 3.48749 8.84999 3.37499 8.99999 3.33749C9.22499 3.26249 9.48749 3.3 9.71249 3.4125L10.6875 4.01249C11.475 4.49999 12.525 4.49999 13.3125 4.01249L14.2875 3.4125C14.5125 3.3 14.775 3.26249 15 3.33749C15.1125 3.37499 15.375 3.48749 15.4875 3.74999L15.9 4.76249C16.2375 5.62499 17.1 6.225 18.0375 6.2625L19.2 6.33749C19.4625 6.33749 19.6875 6.48749 19.8 6.67499C19.875 6.78749 19.9875 6.97499 19.9125 7.23749L19.6125 8.325C19.35 9.225 19.6875 10.2 20.4375 10.8L21.3375 11.5125C21.525 11.6625 21.6 11.85 21.6 12.0375C21.675 12.225 21.5625 12.4125 21.375 12.525Z" fill="#161A23"/>
<path d="M15.45 8.55C15.1125 8.2125 14.5875 8.2125 14.25 8.55L8.55 14.25C8.2125 14.5875 8.2125 15.1125 8.55 15.45C8.7 15.6 8.925 15.7125 9.15 15.7125C9.375 15.7125 9.6 15.6375 9.75 15.45L15.45 9.75C15.7875 9.4125 15.7875 8.85 15.45 8.55Z" fill="#161A23"/>
<path d="M10.95 10.9125C11.85 10.0125 11.85 8.58745 10.95 7.68745C10.5375 7.27495 9.93749 7.01245 9.33749 7.01245C8.73749 7.01245 8.17499 7.23745 7.72499 7.68745C6.82499 8.58745 6.82499 10.0125 7.72499 10.9125C8.13749 11.325 8.73749 11.5875 9.33749 11.5875C9.93749 11.5875 10.5 11.3625 10.95 10.9125ZM8.92499 8.92495C9.03749 8.81245 9.18749 8.73745 9.33749 8.73745C9.48749 8.73745 9.63749 8.81245 9.74999 8.92495C9.97499 9.14995 9.97499 9.52495 9.74999 9.74995C9.52499 9.97495 9.14999 9.97495 8.92499 9.74995C8.69999 9.52495 8.69999 9.14995 8.92499 8.92495Z" fill="#161A23"/>
<path d="M12.9375 12.9375C12.525 13.35 12.2625 13.95 12.2625 14.55C12.2625 15.15 12.4875 15.7125 12.9375 16.1625C13.3875 16.6125 13.95 16.8375 14.55 16.8375C15.15 16.8375 15.7125 16.6125 16.1625 16.1625C16.575 15.75 16.8375 15.15 16.8375 14.55C16.8375 13.95 16.6125 13.3875 16.1625 12.9375C15.2625 12.0375 13.8375 12.0375 12.9375 12.9375ZM14.9625 14.9625C14.7375 15.1875 14.3625 15.1875 14.1375 14.9625C14.025 14.85 13.95 14.7 13.95 14.55C13.95 14.4 14.025 14.25 14.1375 14.1375C14.25 14.025 14.4 13.95 14.55 13.95C14.7 13.95 14.85 14.025 14.9625 14.1375C15.075 14.25 15.15 14.4 15.15 14.55C15.15 14.7 15.075 14.85 14.9625 14.9625Z" fill="#161A23"/>
</svg>
