<svg width="24" height="24" viewBox="0 0 24 24" fill="none" xmlns="http://www.w3.org/2000/svg">
<path d="M19.125 16.0124H18.8625V11.0999C18.8625 9.52485 17.5875 8.28735 16.05 8.28735H14.2125C12.6375 8.28735 11.4 9.56235 11.4 11.0999V16.0124H11.25C10.8 16.0124 10.3875 16.3874 10.3875 16.8749C10.3875 17.3624 10.7625 17.7374 11.25 17.7374H19.125C19.575 17.7374 19.9875 17.3624 19.9875 16.8749C19.9875 16.3874 19.6125 16.0124 19.125 16.0124ZM13.05 11.0999C13.05 10.4624 13.575 9.97485 14.175 9.97485H16.0125C16.65 9.97485 17.1375 10.4999 17.1375 11.0999V16.0124H13.0125V11.0999H13.05Z" fill="#161A23"/>
<path d="M20.625 4.7249H7.72501C7.08751 3.5624 5.85001 2.7749 4.42501 2.7749C2.32501 2.7749 0.637512 4.4624 0.637512 6.5624V17.4374C0.637512 19.5374 2.32501 21.2249 4.42501 21.2249H20.625C22.125 21.2249 23.3625 19.9499 23.3625 18.4124V7.5374C23.3625 5.9999 22.125 4.7249 20.625 4.7249ZM4.42501 4.4624C5.58751 4.4624 6.52501 5.3999 6.52501 6.5624V14.3249C5.92501 13.9124 5.21251 13.6874 4.42501 13.6874C3.63751 13.6874 2.92501 13.9124 2.32501 14.3249V6.5624C2.36251 5.3999 3.30001 4.4624 4.42501 4.4624ZM2.36251 17.4374C2.36251 16.2749 3.30001 15.3374 4.46251 15.3374C5.62501 15.3374 6.56251 16.2749 6.56251 17.4374C6.56251 18.5999 5.62501 19.5374 4.46251 19.5374C3.30001 19.5374 2.36251 18.5999 2.36251 17.4374ZM21.675 18.4124C21.675 19.0499 21.225 19.5374 20.625 19.5374H7.57501C7.98751 18.9374 8.21251 18.2249 8.21251 17.4374V6.5624C8.21251 6.5249 8.21251 6.4499 8.21251 6.4124H20.625C21.1875 6.4124 21.675 6.9374 21.675 7.5374V18.4124Z" fill="#161A23"/>
</svg>
