<svg width="24" height="24" viewBox="0 0 24 24" fill="none" xmlns="http://www.w3.org/2000/svg">
<path d="M19.725 7.76248H15.225C14.775 7.76248 14.4 8.13748 14.4 8.58748V10.425H11.7C11.85 10.05 11.9625 9.67498 11.9625 9.22498V7.23748C11.9625 5.66248 10.6875 4.34998 9.07501 4.34998H3.52501C1.95001 4.34998 0.637512 5.62498 0.637512 7.23748V9.22498C0.637512 9.71248 0.750012 10.1625 0.975012 10.575C0.750012 10.725 0.637512 10.9875 0.637512 11.25V17.2875C0.637512 17.7375 1.01251 18.1125 1.46251 18.1125H2.58751C3.00001 18.975 3.86251 19.575 4.87501 19.575C5.88751 19.575 6.75001 18.975 7.16251 18.1125H8.17501C8.58751 18.975 9.45001 19.575 10.4625 19.575C11.475 19.575 12.3375 18.975 12.75 18.1125H16.5375C16.95 18.975 17.8125 19.575 18.825 19.575C19.8375 19.575 20.7 18.975 21.1125 18.1125H22.5C22.95 18.1125 23.325 17.7375 23.325 17.2875V11.4C23.325 9.37498 21.7125 7.76248 19.725 7.76248ZM16.05 9.44998H19.725C20.8125 9.44998 21.675 10.3125 21.675 11.4V11.5125H16.05V9.44998ZM2.32501 7.23748C2.32501 6.59998 2.85001 6.03748 3.52501 6.03748H9.03751C9.67501 6.03748 10.2375 6.56248 10.2375 7.23748V9.22498C10.2375 9.86248 9.71251 10.425 9.03751 10.425H3.52501C2.88751 10.425 2.32501 9.89998 2.32501 9.22498V7.23748ZM2.32501 11.85C2.70001 12 3.07501 12.1125 3.52501 12.1125H14.3625V16.4625H12.9375C12.675 15.375 11.6625 14.5875 10.5 14.5875C9.33751 14.5875 8.36251 15.4125 8.06251 16.4625H7.35001C7.08751 15.375 6.07501 14.5875 4.91251 14.5875C3.75001 14.5875 2.77501 15.4125 2.47501 16.4625H2.32501V11.85ZM4.91251 17.925C4.46251 17.925 4.08751 17.55 4.08751 17.1C4.08751 16.65 4.46251 16.275 4.91251 16.275C5.36251 16.275 5.73751 16.65 5.73751 17.1C5.73751 17.55 5.36251 17.925 4.91251 17.925ZM10.5 17.925C10.05 17.925 9.67501 17.55 9.67501 17.1C9.67501 16.65 10.05 16.275 10.5 16.275C10.95 16.275 11.325 16.65 11.325 17.1C11.325 17.55 10.95 17.925 10.5 17.925ZM18.8625 17.925C18.4125 17.925 18.0375 17.55 18.0375 17.1C18.0375 16.65 18.4125 16.275 18.8625 16.275C19.3125 16.275 19.6875 16.65 19.6875 17.1C19.6875 17.55 19.3125 17.925 18.8625 17.925ZM21.3 16.4625C21.0375 15.375 20.025 14.55 18.8625 14.55C17.7 14.55 16.725 15.375 16.425 16.4625H16.05V13.2H21.675V16.4625H21.3Z" fill="#161A23"/>
</svg>
