<svg width="24" height="24" viewBox="0 0 24 24" fill="none" xmlns="http://www.w3.org/2000/svg">
<g clip-path="url(#clip0_501_44758)">
<path d="M21.375 0.9375H2.62499C1.34999 0.9375 0.299988 1.9875 0.299988 3.2625V15.3C0.299988 16.575 1.34999 17.625 2.62499 17.625H11.175V21.375H7.98749C7.53749 21.375 7.16249 21.75 7.16249 22.2C7.16249 22.65 7.53749 23.025 7.98749 23.025H16.05C16.5 23.025 16.875 22.65 16.875 22.2C16.875 21.75 16.5 21.375 16.0125 21.375H12.825V17.625H21.375C22.65 17.625 23.7 16.575 23.7 15.3V3.2625C23.7 1.9875 22.65 0.9375 21.375 0.9375ZM22.05 15.3C22.05 15.675 21.75 15.975 21.375 15.975H2.62499C2.24999 15.975 1.94999 15.675 1.94999 15.3V3.2625C1.94999 2.8875 2.24999 2.625 2.62499 2.625H21.375C21.75 2.625 22.05 2.925 22.05 3.3V15.3Z" fill="#161A23"/>
<path d="M16.35 3.9375H15.15C14.775 3.9375 14.4375 4.2 14.325 4.575L13.95 6.075H7.64997C7.38747 6.075 7.16247 6.1875 6.97497 6.4125C6.78747 6.6375 6.74997 6.8625 6.82497 7.125L7.57497 10.35C7.64997 10.725 7.98747 10.9875 8.39997 10.9875H13.8375C14.2125 10.9875 14.55 10.725 14.6625 10.35L15.825 5.625H16.35C16.8 5.625 17.175 5.25 17.175 4.8C17.175 4.35 16.8 3.9375 16.35 3.9375ZM13.1625 9.3H9.07497L8.73747 7.7625H13.575L13.1625 9.3Z" fill="#161A23"/>
<path d="M8.24999 11.6625C8.09999 11.8125 7.98749 12.0375 7.98749 12.2625C7.98749 12.4875 8.06249 12.7125 8.24999 12.8625C8.28749 12.9 8.32499 12.9375 8.39999 12.975C8.43749 13.0125 8.47499 13.05 8.54999 13.05C8.58749 13.0875 8.66249 13.0875 8.69999 13.0875C8.73749 13.0875 8.81249 13.0875 8.84999 13.0875C9.07499 13.0875 9.29999 13.0125 9.44999 12.825C9.48749 12.7875 9.52499 12.75 9.56249 12.7125C9.59999 12.675 9.59999 12.6375 9.63749 12.5625C9.67499 12.525 9.67499 12.45 9.67499 12.4125C9.67499 12.375 9.67499 12.3 9.67499 12.2625C9.67499 12.0375 9.59999 11.8125 9.41249 11.6625C9.11249 11.325 8.54999 11.325 8.24999 11.6625Z" fill="#161A23"/>
<path d="M14.1 11.9251C14.0625 11.8876 14.0625 11.8126 14.025 11.7751C13.9875 11.7376 13.95 11.7001 13.9125 11.6626C13.725 11.4751 13.425 11.3626 13.1625 11.4376C13.0875 11.4376 13.05 11.4751 13.0125 11.4751C12.975 11.5126 12.9 11.5126 12.8625 11.5501C12.825 11.5876 12.7875 11.6251 12.75 11.6626C12.7125 11.7001 12.675 11.7376 12.6375 11.7751C12.6 11.8126 12.5625 11.8501 12.5625 11.9251C12.525 11.9626 12.525 12.0376 12.525 12.0751C12.525 12.1126 12.525 12.1876 12.525 12.2251C12.525 12.3001 12.525 12.3376 12.525 12.3751C12.525 12.4126 12.5625 12.4876 12.5625 12.5251C12.6 12.5626 12.6 12.6376 12.6375 12.6751C12.675 12.7126 12.7125 12.7501 12.75 12.7876C12.7875 12.8251 12.825 12.8626 12.8625 12.9001C12.9 12.9376 12.9375 12.9751 13.0125 12.9751C13.05 13.0126 13.125 13.0126 13.1625 13.0126C13.2 13.0126 13.275 13.0126 13.3125 13.0126C13.5375 13.0126 13.7625 12.9376 13.9125 12.7501C14.0625 12.6001 14.175 12.3751 14.175 12.1501C14.175 12.1126 14.175 12.0376 14.1375 12.0001C14.1375 12.0376 14.1 12.0001 14.1 11.9251Z" fill="#161A23"/>
</g>
<defs>
<clipPath id="clip0_501_44758">
<rect width="24" height="24" fill="white"/>
</clipPath>
</defs>
</svg>
