<svg width="24" height="24" viewBox="0 0 24 24" fill="none" xmlns="http://www.w3.org/2000/svg">
<path d="M21.4875 4.76245H2.51251C1.27501 4.76245 0.262512 5.77495 0.262512 7.01245V17.025C0.262512 18.2625 1.27501 19.275 2.51251 19.275H21.4875C22.725 19.275 23.7375 18.2625 23.7375 17.025V6.97495C23.7 5.77495 22.725 4.76245 21.4875 4.76245ZM22.05 17.025C22.05 17.325 21.7875 17.5875 21.4875 17.5875H2.51251C2.21251 17.5875 1.95001 17.325 1.95001 17.025V6.97495C1.95001 6.67495 2.21251 6.41245 2.51251 6.41245H21.4875C21.7875 6.41245 22.05 6.67495 22.05 6.97495V17.025Z" fill="#161A23"/>
<path d="M10.9875 8.84998H8.47502C8.02502 8.84998 7.65002 9.22498 7.65002 9.67498V14.55C7.65002 15 8.02502 15.375 8.47502 15.375C8.92502 15.375 9.30002 15 9.30002 14.55V12.7125H10.95C11.4 12.7125 11.775 12.3375 11.775 11.8875V9.71248C11.85 9.22498 11.4375 8.84998 10.9875 8.84998ZM10.1625 11.025H9.33752V10.5375H10.1625V11.025Z" fill="#161A23"/>
<path d="M6.15 8.84998H3.6375C3.1875 8.84998 2.8125 9.22498 2.8125 9.67498V14.55C2.8125 15 3.1875 15.375 3.6375 15.375H6.15C6.6 15.375 6.975 15 6.975 14.55V9.67498C7.0125 9.22498 6.6 8.84998 6.15 8.84998ZM5.325 13.725H4.5V10.5375H5.325V13.725Z" fill="#161A23"/>
<path d="M20.4 8.84997C19.95 8.84997 19.575 9.22497 19.575 9.67497V10.9875L18.675 9.26247C18.4875 8.92497 18.1125 8.73747 17.7375 8.84997C17.3625 8.92497 17.1 9.26247 17.1 9.67497V14.4C17.1 14.85 17.475 15.225 17.925 15.225C18.375 15.225 18.75 14.85 18.75 14.4V13.125L19.65 14.85C19.8 15.15 20.1 15.3 20.4 15.3C20.475 15.3 20.55 15.3 20.5875 15.2625C20.9625 15.1875 21.225 14.85 21.225 14.4375V9.67497C21.2625 9.22497 20.8875 8.84997 20.4 8.84997Z" fill="#161A23"/>
<path d="M15.3 10.5375C15.75 10.5375 16.125 10.1625 16.125 9.71245C16.125 9.26245 15.75 8.88745 15.3 8.88745H13.425C12.975 8.88745 12.6 9.26245 12.6 9.71245V14.4375C12.6 14.8875 12.975 15.2625 13.425 15.2625H15.3C15.75 15.2625 16.125 14.8875 16.125 14.4375C16.125 13.9875 15.75 13.6125 15.3 13.6125H14.25V12.9375H14.3625C14.8125 12.9375 15.1875 12.5625 15.1875 12.1125C15.1875 11.6625 14.8125 11.2875 14.3625 11.2875H14.25V10.6125H15.3V10.5375Z" fill="#161A23"/>
</svg>
