<svg width="24" height="24" viewBox="0 0 24 24" fill="none" xmlns="http://www.w3.org/2000/svg">
<g clip-path="url(#clip0_914_45287)">
<path d="M15.075 1.9125C7.0875 1.9125 3.225 12.4125 8.1375 18.5625C9.825 20.7375 12.2625 22.0875 15.075 22.0875C16.7625 22.0875 18.4125 21.5625 19.725 20.6625C17.7 22.4625 14.9625 23.625 12 23.625C11.85 23.625 11.625 23.625 11.475 23.625C5.2875 23.3625 0.375 18.225 0.375 12C0.375 5.55 5.55 0.375 12 0.375H12.0375C15 0.375 17.7 1.5 19.7625 3.3375C18.4125 2.4375 16.8 1.9125 15.075 1.9125ZM19.8375 20.55C17.925 21.7125 15.6 21.675 13.65 20.2875C16.275 19.275 18.2625 16.0125 18.2625 12C18.2625 8.025 16.35 4.725 13.65 3.7125C15.6 2.325 17.925 2.2875 19.875 3.4875C24.9 8.1 24.8625 15.975 19.8375 20.55Z" fill="#15171A"/>
</g>
<defs>
<clipPath id="clip0_914_45287">
<rect width="24" height="24" fill="white"/>
</clipPath>
</defs>
</svg>
