<svg width="24" height="24" viewBox="0 0 24 24" fill="none" xmlns="http://www.w3.org/2000/svg">
<path d="M21.375 3.33752H2.62499C1.53749 3.33752 0.674988 4.23752 0.674988 5.28752V7.27502C0.674988 8.10002 1.19999 8.81252 1.91249 9.11252V18.2625C1.91249 19.5375 2.96249 20.5875 4.23749 20.5875H19.7625C21.0375 20.5875 22.0875 19.5375 22.0875 18.2625V9.15002C22.8 8.85002 23.325 8.13752 23.325 7.31252V5.32502C23.3625 4.23752 22.4625 3.33752 21.375 3.33752ZM2.36249 5.32502C2.36249 5.17502 2.47499 5.02502 2.66249 5.02502H21.4125C21.5625 5.02502 21.7125 5.13752 21.7125 5.32502V7.31252C21.7125 7.46252 21.6 7.61252 21.4125 7.61252H21.3H2.73749H2.62499C2.47499 7.61252 2.32499 7.50002 2.32499 7.31252V5.32502H2.36249ZM20.4375 18.3C20.4375 18.675 20.1375 18.975 19.7625 18.975H4.23749C3.86249 18.975 3.56249 18.675 3.56249 18.3V9.30002H20.4V18.3H20.4375Z" fill="#161A23"/>
<path d="M5.02497 18.4876H7.91247C8.36247 18.4876 8.73747 18.1126 8.73747 17.6626V14.7751C8.73747 14.3251 8.36247 13.9501 7.91247 13.9501H5.02497C4.57497 13.9501 4.19997 14.3251 4.19997 14.7751V17.6251C4.16247 18.1126 4.53747 18.4876 5.02497 18.4876ZM5.84997 15.6001H7.04997V16.8001H5.84997V15.6001Z" fill="#161A23"/>
</svg>
