<svg width="24" height="24" viewBox="0 0 24 24" fill="none" xmlns="http://www.w3.org/2000/svg">
<path d="M23.25 7.98752L21.5625 2.73752C21.2625 1.76252 20.325 1.08752 19.3125 1.08752H4.91249C3.89999 1.08752 2.99999 1.72502 2.66249 2.66252L0.787488 7.95002C0.712488 8.17502 0.674988 8.40002 0.674988 8.66252V20.025C0.674988 21.6375 1.98749 22.9125 3.56249 22.9125H20.475C22.0875 22.9125 23.3625 21.6 23.3625 20.025V8.62502C23.3625 8.43752 23.325 8.21252 23.25 7.98752ZM19.95 3.26252L21.3375 7.61252H12.8625V2.77502H19.3125C19.575 2.77502 19.875 2.96252 19.95 3.26252ZM4.23749 3.22502C4.34999 2.96252 4.61249 2.77502 4.87499 2.77502H11.1375V7.61252H2.69999L4.23749 3.22502ZM20.4375 21.225H3.56249C2.88749 21.225 2.36249 20.7 2.36249 20.025V9.30002H21.675V20.025C21.675 20.7 21.1125 21.225 20.4375 21.225Z" fill="#161A23"/>
</svg>
