<svg width="24" height="24" viewBox="0 0 24 24" fill="none" xmlns="http://www.w3.org/2000/svg">
<path d="M2.43164 8.7531V7.9041C3.47158 7.90384 4.46884 7.49062 5.20421 6.75529C5.93955 6.01991 6.35276 5.02264 6.35302 3.98269H7.13786C7.13726 4.49813 7.23821 5.00857 7.43501 5.48494C7.63177 5.9613 7.92052 6.39424 8.28469 6.75892C8.64889 7.12365 9.08137 7.413 9.55744 7.61047C10.0335 7.80791 10.5438 7.90965 11.0593 7.90976V8.75876C10.0193 8.75899 9.02205 9.17224 8.28671 9.90758C7.55134 10.6429 7.13812 11.6402 7.13786 12.6801H6.35302C6.35366 12.1647 6.25267 11.6543 6.05591 11.1779C5.85911 10.7015 5.5704 10.2686 5.2062 9.9039C4.84204 9.53921 4.40951 9.24982 3.93345 9.05239C3.45737 8.85491 2.94705 8.75321 2.43164 8.7531ZM6.35302 2.51018H13.0978C16.3918 2.51018 18.7455 4.86281 18.7455 8.31443C18.7455 11.766 16.3928 14.1178 13.0978 14.1178H6.35302V24H9.1764V16.628H13.0978C17.8351 16.628 21.5688 12.8943 21.5688 8.31443C21.5688 3.73461 17.8351 0 13.0978 0H6.35302V2.51018Z" fill="#15171A"/>
</svg>
