<svg width="24" height="24" viewBox="0 0 24 24" fill="none" xmlns="http://www.w3.org/2000/svg">
<path d="M12.8625 7.42499C11.4375 7.42499 10.275 8.58749 10.275 10.0125V10.95H9.825C9.375 10.95 9 11.325 9 11.775V15.3C9 15.75 9.375 16.125 9.825 16.125H15.9C16.35 16.125 16.725 15.75 16.725 15.3V11.775C16.725 11.325 16.35 10.95 15.9 10.95H15.45V10.0125C15.4125 8.58749 14.25 7.42499 12.8625 7.42499ZM11.9625 10.0125C11.9625 9.52499 12.375 9.11249 12.8625 9.11249C13.35 9.11249 13.7625 9.52499 13.7625 10.0125V10.95H12V10.0125H11.9625ZM15.0375 14.475H10.65V12.6375H15.0375V14.475Z" fill="#161A23"/>
<path d="M12.8625 1.5C9.93747 1.5 7.12497 2.7375 5.13747 4.875C4.83747 5.2125 4.83747 5.7375 5.17497 6.075C5.51247 6.375 6.03747 6.375 6.37497 6.0375C8.02497 4.2375 10.3875 3.1875 12.8625 3.1875C17.7375 3.1875 21.675 7.125 21.675 12C21.675 16.875 17.7 20.8125 12.8625 20.8125C9.18747 20.8125 5.92497 18.5625 4.64997 15.15L6.29997 15.825C6.74997 16.0125 7.23747 15.7875 7.38747 15.375C7.57497 14.925 7.34997 14.4375 6.93747 14.2875L3.33747 12.825C2.88747 12.6375 2.39997 12.8625 2.24997 13.275L0.712473 16.875C0.524973 17.325 0.749973 17.8125 1.16247 17.9625C1.27497 18 1.38747 18.0375 1.49997 18.0375C1.83747 18.0375 2.13747 17.85 2.28747 17.5125L3.03747 15.7125C4.53747 19.7625 8.43747 22.5 12.8625 22.5C18.6375 22.5 23.3625 17.775 23.3625 12C23.3625 6.225 18.6375 1.5 12.8625 1.5Z" fill="#161A23"/>
</svg>
