<svg width="24" height="24" viewBox="0 0 24 24" fill="none" xmlns="http://www.w3.org/2000/svg">
<path d="M17.5499 0.674988H6.4499C5.3624 0.674988 4.4624 1.57499 4.4624 2.66249V8.06249C4.4624 9.14999 5.3624 10.05 6.4499 10.05H17.5874C18.6749 10.05 19.5749 9.14999 19.5749 8.06249V2.62499C19.5374 1.53749 18.6374 0.674988 17.5499 0.674988ZM17.8499 8.02499C17.8499 8.17499 17.7374 8.32499 17.5499 8.32499H6.4499C6.2999 8.32499 6.1499 8.21249 6.1499 8.02499V2.62499C6.1499 2.47499 6.2624 2.32499 6.4499 2.32499H17.5874C17.7374 2.32499 17.8874 2.43749 17.8874 2.62499V8.02499H17.8499Z" fill="#161A23"/>
<path d="M17.5499 14.025H6.4499C5.3624 14.025 4.4624 14.925 4.4624 16.0125V21.375C4.4624 22.4625 5.3624 23.3625 6.4499 23.3625H17.5874C18.6749 23.3625 19.5749 22.4625 19.5749 21.375V15.975C19.5374 14.8875 18.6374 14.025 17.5499 14.025ZM17.8499 21.375C17.8499 21.525 17.7374 21.675 17.5499 21.675H6.4499C6.2999 21.675 6.1499 21.5625 6.1499 21.375V15.975C6.1499 15.825 6.2624 15.675 6.4499 15.675H17.5874C17.7374 15.675 17.8874 15.7875 17.8874 15.975V21.375H17.8499Z" fill="#161A23"/>
<path d="M8.1749 12.8625C8.6249 12.8625 9.0374 12.4875 9.0374 12C9.0374 11.55 8.6624 11.1375 8.1749 11.1375H6.2624C5.8124 11.1375 5.3999 11.5125 5.3999 12C5.3999 12.45 5.7749 12.8625 6.2624 12.8625H8.1749Z" fill="#161A23"/>
<path d="M12.9374 12.8625C13.3874 12.8625 13.7999 12.4875 13.7999 12C13.7999 11.55 13.4249 11.1375 12.9374 11.1375H11.0249C10.5749 11.1375 10.1624 11.5125 10.1624 12C10.1624 12.45 10.5374 12.8625 11.0249 12.8625H12.9374Z" fill="#161A23"/>
<path d="M17.7374 12.8625C18.1874 12.8625 18.5999 12.4875 18.5999 12C18.5999 11.55 18.2249 11.1375 17.7374 11.1375H15.8249C15.3749 11.1375 14.9624 11.5125 14.9624 12C14.9624 12.45 15.3374 12.8625 15.8249 12.8625H17.7374Z" fill="#161A23"/>
</svg>
