<svg width="24" height="24" viewBox="0 0 24 24" fill="none" xmlns="http://www.w3.org/2000/svg">
<path d="M19.8374 7.57501L13.0874 1.20001C12.7124 0.825012 12.2249 0.637512 11.6999 0.637512H5.5499C4.4249 0.637512 3.5249 1.53751 3.5249 2.66251V21.3C3.5249 22.425 4.4249 23.325 5.5499 23.325H18.4499C19.5749 23.325 20.4749 22.425 20.4749 21.3V9.03751C20.4749 8.47501 20.2499 7.95001 19.8374 7.57501ZM12.8624 3.30001L17.5874 7.72501H13.1999C13.0124 7.72501 12.8624 7.57501 12.8624 7.42501V3.30001ZM18.4499 21.675H5.5499C5.3624 21.675 5.2124 21.525 5.2124 21.3375V2.70001C5.2124 2.51251 5.3624 2.36251 5.5499 2.36251H11.1374V7.42501C11.1374 8.51251 12.0374 9.41251 13.1624 9.41251H18.7874V21.3C18.7874 21.4875 18.6374 21.675 18.4499 21.675Z" fill="#161A23"/>
<path d="M14.5874 13.5375L14.6249 13.3875C14.6999 12.9375 14.3999 12.4875 13.9499 12.4125C13.4999 12.3375 13.0499 12.6375 12.9749 13.0875L12.8624 13.5H11.0249L11.0624 13.35C11.1374 12.9 10.8374 12.45 10.3874 12.375C9.9374 12.3 9.4874 12.6 9.4124 13.05L9.2999 13.5C8.8499 13.5 8.4374 13.875 8.4374 14.3625C8.4374 14.7375 8.6624 15.0375 8.9999 15.15L8.7374 16.5375H8.5124C8.0624 16.5375 7.6499 16.9125 7.6499 17.4C7.6499 17.85 7.9874 18.1875 8.3999 18.225L8.3624 18.45C8.2874 18.9 8.5874 19.35 9.0374 19.425C9.0749 19.425 9.1499 19.425 9.1874 19.425C9.5999 19.425 9.9374 19.125 10.0124 18.75L10.1249 18.225H11.9624L11.9249 18.4125C11.8499 18.8625 12.1499 19.3125 12.5999 19.3875C12.6374 19.3875 12.7124 19.3875 12.7499 19.3875C13.1624 19.3875 13.4999 19.0875 13.5749 18.7125L13.6874 18.1875C14.1374 18.15 14.4749 17.8125 14.4749 17.3625C14.4749 17.025 14.2874 16.725 13.9874 16.6125L14.2499 15.1875H14.3624C14.8124 15.1875 15.2249 14.8125 15.2249 14.325C15.1874 13.95 14.9249 13.65 14.5874 13.5375ZM12.2999 16.5375H10.4624L10.7249 15.1875H12.5624L12.2999 16.5375Z" fill="#161A23"/>
</svg>
