<svg width="24" height="24" viewBox="0 0 24 24" fill="none" xmlns="http://www.w3.org/2000/svg">
<path d="M23.025 11.25L19.125 7.31251C18.7875 6.97501 18.2625 6.97501 17.925 7.31251C17.5875 7.65001 17.5875 8.17501 17.925 8.51251L21.4125 12L17.925 15.4875C17.5875 15.825 17.5875 16.35 17.925 16.6875C18.075 16.8375 18.3 16.95 18.525 16.95C18.75 16.95 18.975 16.875 19.125 16.6875L23.025 12.75C23.4375 12.3375 23.4375 11.6625 23.025 11.25Z" fill="#161A23"/>
<path d="M6.0749 7.31251C5.7374 6.97501 5.2124 6.97501 4.8749 7.31251L0.974902 11.25C0.562402 11.6625 0.562402 12.3375 0.974902 12.7875L4.8749 16.6875C5.0249 16.8375 5.2499 16.95 5.4749 16.95C5.6999 16.95 5.8874 16.875 6.0749 16.6875C6.4124 16.35 6.4124 15.825 6.0749 15.4875L2.5874 12L6.0749 8.51251C6.4124 8.17501 6.4124 7.61251 6.0749 7.31251Z" fill="#161A23"/>
<path d="M8.21245 10.9875C7.64995 10.9875 7.19995 11.4375 7.19995 12C7.19995 12.5625 7.64995 13.0125 8.21245 13.0125C8.77495 13.0125 9.22495 12.5625 9.22495 12C9.22495 11.4375 8.77495 10.9875 8.21245 10.9875Z" fill="#161A23"/>
<path d="M12.1124 13.0125C12.6715 13.0125 13.1249 12.5592 13.1249 12C13.1249 11.4408 12.6715 10.9875 12.1124 10.9875C11.5532 10.9875 11.0999 11.4408 11.0999 12C11.0999 12.5592 11.5532 13.0125 12.1124 13.0125Z" fill="#161A23"/>
<path d="M16.0875 10.9875C15.525 10.9875 15.075 11.4375 15.075 12C15.075 12.5625 15.525 13.0125 16.0875 13.0125C16.65 13.0125 17.1 12.5625 17.1 12C17.1 11.4375 16.65 10.9875 16.0875 10.9875Z" fill="#161A23"/>
</svg>
