<svg width="24" height="24" viewBox="0 0 24 24" fill="none" xmlns="http://www.w3.org/2000/svg">
<path d="M21.4875 4.76245H2.51251C1.27501 4.76245 0.262512 5.77495 0.262512 7.01245V17.025C0.262512 18.2625 1.27501 19.275 2.51251 19.275H21.4875C22.725 19.275 23.7375 18.2625 23.7375 17.025V6.97495C23.7375 5.77495 22.725 4.76245 21.4875 4.76245ZM22.05 17.025C22.05 17.325 21.7875 17.5875 21.4875 17.5875H2.51251C2.21251 17.5875 1.95001 17.325 1.95001 17.025V6.97495C1.95001 6.67495 2.21251 6.41245 2.51251 6.41245H21.4875C21.7875 6.41245 22.05 6.67495 22.05 6.97495V17.025Z" fill="#161A23"/>
<path d="M6.71252 8.84998H4.20002C3.75002 8.84998 3.37502 9.22498 3.37502 9.67498V14.55C3.37502 15 3.75002 15.375 4.20002 15.375C4.65002 15.375 5.02502 15 5.02502 14.55V12.7125H6.67501C7.12502 12.7125 7.50002 12.3375 7.50002 11.8875V9.71248C7.57502 9.22498 7.20002 8.84998 6.71252 8.84998ZM5.88752 11.025H5.06252V10.5375H5.88752V11.025Z" fill="#161A23"/>
<path d="M11.7 8.84998H9.18752C8.73752 8.84998 8.36252 9.22498 8.36252 9.67498V14.55C8.36252 15 8.73752 15.375 9.18752 15.375C9.63752 15.375 10.0125 15 10.0125 14.55V12.7125H10.875V14.55C10.875 15 11.25 15.375 11.7 15.375C12.15 15.375 12.525 15 12.525 14.55V9.67498C12.5625 9.22498 12.1875 8.84998 11.7 8.84998ZM10.05 10.5375H10.875V11.025H10.05V10.5375Z" fill="#161A23"/>
<path d="M14.325 8.5874C13.875 8.5874 13.5 8.9624 13.5 9.4124V14.5124C13.5 14.9624 13.875 15.3374 14.325 15.3374C14.775 15.3374 15.15 14.9624 15.15 14.5124V9.4499C15.15 8.9999 14.775 8.5874 14.325 8.5874Z" fill="#161A23"/>
<path d="M19.6125 9.11248C19.4625 8.92498 19.2375 8.84998 18.975 8.84998H17.1C16.65 8.84998 16.275 9.22498 16.275 9.67498V14.4C16.275 14.85 16.65 15.225 17.1 15.225H18.975C19.2375 15.225 19.4625 15.1125 19.65 14.8875L20.85 13.3875C20.9625 13.2375 21.0375 13.05 21.0375 12.8625V10.95C21.0375 10.725 20.9625 10.5375 20.8125 10.3875L19.6125 9.11248ZM19.35 12.6375L18.6 13.575H17.9625V10.5375H18.6375L19.35 11.325V12.6375Z" fill="#161A23"/>
</svg>
