<svg width="24" height="24" viewBox="0 0 24 24" fill="none" xmlns="http://www.w3.org/2000/svg">
<path d="M12.1126 3.0375C10.9501 3 9.8251 3.45 9.0001 4.2375C8.1751 5.0625 7.7251 6.15 7.7251 7.3125C7.7251 8.8125 8.4751 10.1625 9.7501 10.95C9.8251 10.9875 9.8626 11.1 9.8626 11.2125V11.8875C9.8626 12.975 10.7626 13.875 11.8501 13.875H12.1876C13.2751 13.875 14.1751 12.975 14.1751 11.8875V11.2125C14.1751 11.1 14.2126 11.025 14.2876 10.9875C15.5251 10.2375 16.2751 8.925 16.3126 7.4625C16.3501 6.3375 15.9376 5.25 15.1126 4.3875C14.2876 3.525 13.2376 3.075 12.1126 3.0375ZM12.1876 12.1875H11.8501C11.7001 12.1875 11.5501 12.0375 11.5501 11.8875V11.5125H12.4876V11.8875C12.4876 12.0375 12.3376 12.1875 12.1876 12.1875ZM13.3876 9.525C13.2376 9.6 13.1251 9.7125 13.0126 9.825H10.9876C10.8751 9.7125 10.7626 9.6 10.6126 9.525C9.8626 9.0375 9.3751 8.2125 9.3751 7.3125C9.3751 6.6 9.6376 5.925 10.1626 5.4375C10.6501 4.95 11.2876 4.6875 11.9626 4.6875C12.0001 4.6875 12.0001 4.6875 12.0376 4.6875C12.7126 4.6875 13.3501 4.9875 13.8376 5.5125C14.3251 6.0375 14.5876 6.675 14.5501 7.35C14.5876 8.2875 14.1376 9.075 13.3876 9.525Z" fill="#161A23"/>
<path d="M17.6251 0.675003H6.37505C4.80005 0.675003 3.48755 1.95 3.48755 3.5625V15C3.48755 15.5625 3.71255 16.0875 4.12505 16.4625L10.875 22.8375C11.25 23.2125 11.7375 23.4 12.2626 23.4H17.6251C19.2001 23.4 20.5126 22.125 20.5126 20.5125V3.525C20.475 1.95 19.2001 0.675003 17.6251 0.675003ZM6.45005 16.275H10.8375C11.025 16.275 11.175 16.425 11.175 16.575V20.7L6.45005 16.275ZM18.7875 20.475C18.7875 21.1125 18.2626 21.675 17.5876 21.675H12.8625V16.575C12.8625 15.4875 11.9625 14.5875 10.8375 14.5875H5.21255V3.525C5.21255 2.8875 5.73755 2.325 6.41255 2.325H17.6251C18.2626 2.325 18.8251 2.85 18.8251 3.525V20.475H18.7875Z" fill="#161A23"/>
</svg>
