<svg width="24" height="24" viewBox="0 0 24 24" fill="none" xmlns="http://www.w3.org/2000/svg">
<path d="M9.18749 20.5499C9.14999 20.5499 9.18749 20.5499 9.18749 20.5499C9.07499 20.5499 8.99999 20.5499 8.92499 20.5124C8.84999 20.4749 8.77499 20.4375 8.69999 20.4C8.66249 20.3624 8.58749 20.3249 8.54999 20.2874C8.47499 20.2124 8.43749 20.1749 8.39999 20.0999C8.36249 20.0249 8.32499 19.9874 8.32499 19.9124L6.41249 12.7874L0.86249 10.875C0.52499 10.7625 0.26249 10.425 0.29999 10.05C0.29999 9.67495 0.56249 9.37495 0.93749 9.26245L22.6875 3.48745H22.725C22.7625 3.48745 22.8375 3.48745 22.875 3.44995C22.9125 3.44995 22.9125 3.44995 22.95 3.44995C23.025 3.44995 23.1 3.44995 23.175 3.48745C23.25 3.52495 23.325 3.56245 23.4 3.59995C23.4375 3.59995 23.4375 3.63745 23.475 3.63745C23.5125 3.67495 23.55 3.71245 23.55 3.71245C23.5875 3.74995 23.625 3.82495 23.6625 3.86245C23.7 3.93745 23.7 3.97495 23.7375 4.04995C23.7375 4.08745 23.7375 4.16245 23.775 4.19995C23.775 4.23745 23.775 4.27495 23.775 4.27495C23.775 4.34995 23.775 4.42495 23.7375 4.49995V4.53745L18.75 17.7C18.675 17.9249 18.4875 18.1124 18.2625 18.1874C18.0375 18.2624 17.8125 18.2624 17.5875 18.1874L14.1 16.575L9.74999 20.3249C9.71249 20.3624 9.63749 20.4 9.56249 20.4375C9.48749 20.4749 9.41249 20.5124 9.33749 20.5124C9.29999 20.5499 9.22499 20.5499 9.18749 20.5499ZM11.4375 15.1875L10.8375 17.1375L12.4875 15.7125L11.4375 15.1875ZM8.13749 12.5625L9.22499 16.65L10.125 13.7249V13.6875C10.1625 13.6124 10.2 13.5374 10.2375 13.5C10.275 13.4625 10.275 13.4249 10.3125 13.4249C10.35 13.3875 10.3875 13.3499 10.425 13.3125L16.3875 8.47495L8.13749 12.5625ZM14.3625 14.775L17.5125 16.2374L21 6.89995L12.4875 13.7999L14.3625 14.775ZM4.04999 10.1625L7.08749 11.175L15.0375 7.23745L4.04999 10.1625Z" fill="#161A23"/>
</svg>
