<svg width="24" height="24" viewBox="0 0 24 24" fill="none" xmlns="http://www.w3.org/2000/svg">
<path d="M12 0.674988C7.2375 0.674988 3.375 4.53749 3.375 9.29999C3.375 9.74999 3.75 10.125 4.2375 10.125H4.875L6.6 13.875C6.075 14.2125 5.7 14.85 5.7 15.525V21.375C5.7 22.4625 6.6 23.325 7.65 23.325H16.275C17.3625 23.325 18.225 22.425 18.225 21.375V15.525C18.225 14.85 17.85 14.2125 17.325 13.875L19.125 10.125H19.8C20.25 10.125 20.625 9.74999 20.625 9.29999C20.625 4.53749 16.7625 0.674988 12 0.674988ZM12 2.32499C15.525 2.32499 18.45 4.98749 18.9 8.39999H5.1C5.55 5.02499 8.475 2.32499 12 2.32499ZM16.3125 15.2625C16.4625 15.2625 16.6125 15.375 16.6125 15.5625V16.275H7.425V15.5625C7.425 15.4125 7.5375 15.2625 7.725 15.2625H16.3125ZM13.575 10.125L12 13.5L10.425 10.125H13.575ZM8.5875 10.125L10.1625 13.575H8.325L6.75 10.125H8.5875ZM16.3125 21.675H7.6875C7.5375 21.675 7.3875 21.5625 7.3875 21.375V17.925H16.575V21.375C16.575 21.525 16.4625 21.675 16.3125 21.675ZM15.675 13.575H13.8375L15.4125 10.125H17.25L15.675 13.575Z" fill="#161A23"/>
<path d="M14.775 19.35H13.5375C13.0875 19.35 12.7125 19.725 12.7125 20.175C12.7125 20.625 13.0875 21 13.5375 21H14.775C15.225 21 15.6 20.625 15.6 20.175C15.6 19.725 15.225 19.35 14.775 19.35Z" fill="#161A23"/>
</svg>
