<svg width="24" height="24" viewBox="0 0 24 24" fill="none" xmlns="http://www.w3.org/2000/svg">
<path d="M12 0.674988C7.53749 0.674988 3.89999 4.31249 3.89999 8.77499C3.89999 9.22499 4.27499 9.59999 4.72499 9.59999H5.32499L7.23749 13.725C7.04999 13.8375 6.89999 13.9875 6.78749 14.1375C6.74999 14.175 6.74999 14.2125 6.71249 14.25C6.71249 14.2875 6.67499 14.2875 6.67499 14.325C6.52499 14.5875 6.44999 14.8875 6.44999 15.1875V19.6125C6.44999 20.2875 6.82499 20.8875 7.42499 21.1875L11.25 23.1C11.5125 23.2125 11.775 23.2875 12.0375 23.2875C12.3 23.2875 12.6 23.2125 12.825 23.1L16.65 21.1875C17.25 20.8875 17.625 20.2875 17.625 19.6125V15.225C17.625 14.85 17.5125 14.5125 17.325 14.2125C17.325 14.175 17.2875 14.175 17.2875 14.1375C17.175 13.9875 17.025 13.8375 16.8375 13.725L18.75 9.59999H19.35C19.8 9.59999 20.175 9.22499 20.175 8.77499C20.1 4.31249 16.4625 0.674988 12 0.674988ZM12 2.32499C15.2625 2.32499 17.9625 4.76249 18.375 7.91249H5.62499C6.03749 4.76249 8.73749 2.32499 12 2.32499ZM12 16.0125L9.22499 14.6625L11.9625 13.425H12H12.0375L14.775 14.6625L12 16.0125ZM12.375 11.7375C12.1125 11.6625 11.85 11.6625 11.5875 11.7375L10.6125 9.59999H13.35L12.375 11.7375ZM8.77499 9.59999L10.05 12.4125L8.73749 13.0125L7.16249 9.59999H8.77499ZM8.09999 19.65V15.975L11.1375 17.475V21.225L8.13749 19.725C8.09999 19.725 8.09999 19.6875 8.09999 19.65ZM15.8625 19.725L12.8625 21.225V17.475L15.9375 15.975V19.65C15.9 19.6875 15.9 19.725 15.8625 19.725ZM15.2625 13.0125L13.95 12.4125L15.225 9.59999H16.8L15.2625 13.0125Z" fill="#161A23"/>
</svg>
