<svg width="24" height="24" viewBox="0 0 24 24" fill="none" xmlns="http://www.w3.org/2000/svg">
<path d="M7.05 8.13751C7.125 8.13751 7.2375 8.13751 7.3125 8.10001L8.5875 7.68751V9.18751L7.4625 9.75001C7.05 9.97501 6.8625 10.4625 7.0875 10.875C7.2375 11.175 7.5375 11.325 7.8375 11.325C7.95 11.325 8.1 11.2875 8.2125 11.25L9.45 10.65L10.6875 11.25C10.8 11.325 10.95 11.325 11.0625 11.325C11.3625 11.325 11.6625 11.1375 11.8125 10.875C12.0375 10.4625 11.85 9.93751 11.4375 9.75001L10.3125 9.18751V7.68751L11.5875 8.10001C11.6625 8.13751 11.775 8.13751 11.85 8.13751C12.1875 8.13751 12.525 7.91251 12.6375 7.57501C12.7875 7.12501 12.5625 6.63751 12.1125 6.52501L10.275 5.92501V4.95001C10.275 4.50001 9.9 4.08751 9.4125 4.08751C8.925 4.08751 8.55 4.46251 8.55 4.95001V5.92501L6.7125 6.52501C6.2625 6.67501 6.0375 7.16251 6.1875 7.57501C6.375 7.91251 6.7125 8.13751 7.05 8.13751Z" fill="#161A23"/>
<path d="M11.3625 16.875H7.5375C7.0875 16.875 6.675 17.25 6.675 17.7375C6.675 18.225 7.05 18.6 7.5375 18.6H11.325C11.775 18.6 12.1875 18.225 12.1875 17.7375C12.1875 17.25 11.8125 16.875 11.3625 16.875Z" fill="#161A23"/>
<path d="M12.3 14.1375H6.6C6.15 14.1375 5.7375 14.5125 5.7375 15C5.7375 15.4875 6.1125 15.8625 6.6 15.8625H12.3375C12.7875 15.8625 13.1625 15.4875 13.1625 15C13.1625 14.5125 12.7875 14.1375 12.3 14.1375Z" fill="#161A23"/>
<path d="M19.6875 0.675003H3C2.1375 0.675003 1.425 1.3875 1.425 2.25V21.75C1.425 22.6125 2.1375 23.3625 3.0375 23.3625H19.725C21.3 23.3625 22.6125 22.0875 22.6125 20.475V3.525C22.575 1.95 21.3 0.675003 19.6875 0.675003ZM3.1125 21.675V2.3625H15.15C15.525 2.3625 15.825 2.6625 15.825 3.0375V21.0375C15.825 21.4125 15.525 21.7125 15.15 21.7125H3.1125V21.675ZM20.8875 20.475C20.8875 21.15 20.3625 21.675 19.6875 21.675H17.3625C17.4375 21.45 17.475 21.2625 17.475 21V3C17.475 2.775 17.4375 2.55 17.3625 2.325H19.6875C20.3625 2.325 20.8875 2.85 20.8875 3.525V20.475Z" fill="#161A23"/>
</svg>
