<svg width="24" height="24" viewBox="0 0 24 24" fill="none" xmlns="http://www.w3.org/2000/svg">
<path d="M9.44999 11.8875C11.475 11.8875 13.1625 10.2375 13.1625 8.175C13.1625 6.1125 11.475 4.5 9.44999 4.5C7.42499 4.5 5.73749 6.15 5.73749 8.2125C5.73749 10.275 7.42499 11.8875 9.44999 11.8875ZM9.44999 6.1875C10.575 6.1875 11.475 7.0875 11.475 8.2125C11.475 9.3375 10.575 10.2375 9.44999 10.2375C8.32499 10.2375 7.42499 9.3375 7.42499 8.2125C7.42499 7.0875 8.32499 6.1875 9.44999 6.1875Z" fill="#161A23"/>
<path d="M11.3625 16.875H7.53749C7.08749 16.875 6.67499 17.25 6.67499 17.7375C6.67499 18.225 7.04999 18.6 7.53749 18.6H11.325C11.775 18.6 12.1875 18.225 12.1875 17.7375C12.1875 17.25 11.8125 16.875 11.3625 16.875Z" fill="#161A23"/>
<path d="M12.3 14.1375H6.59999C6.14999 14.1375 5.73749 14.5125 5.73749 15C5.73749 15.4875 6.11249 15.8625 6.59999 15.8625H12.3375C12.7875 15.8625 13.1625 15.4875 13.1625 15C13.1625 14.5125 12.7875 14.1375 12.3 14.1375Z" fill="#161A23"/>
<path d="M19.6875 0.675003H2.99999C2.13749 0.675003 1.42499 1.3875 1.42499 2.25V21.75C1.42499 22.6125 2.13749 23.3625 3.03749 23.3625H19.725C21.3 23.3625 22.6125 22.0875 22.6125 20.475V3.525C22.575 1.95 21.3 0.675003 19.6875 0.675003ZM3.11249 21.675V2.3625H15.15C15.525 2.3625 15.825 2.6625 15.825 3.0375V21.0375C15.825 21.4125 15.525 21.7125 15.15 21.7125H3.11249V21.675ZM20.8875 20.475C20.8875 21.15 20.3625 21.675 19.6875 21.675H17.3625C17.4375 21.45 17.475 21.2625 17.475 21V3C17.475 2.775 17.4375 2.55 17.3625 2.325H19.6875C20.3625 2.325 20.8875 2.85 20.8875 3.525V20.475Z" fill="#161A23"/>
</svg>
