<svg width="24" height="24" viewBox="0 0 24 24" fill="none" xmlns="http://www.w3.org/2000/svg">
<path d="M13.8 18.0375H10.1625C9.71249 18.0375 9.29999 18.4125 9.29999 18.9C9.29999 19.3875 9.67499 19.7625 10.1625 19.7625H13.8C14.25 19.7625 14.6625 19.3875 14.6625 18.9C14.6625 18.4125 14.2875 18.0375 13.8 18.0375Z" fill="#161A23"/>
<path d="M16.6125 0.675003H5.88749C5.02499 0.675003 4.27499 1.3875 4.27499 2.2875V21.7875C4.27499 22.65 4.98749 23.4 5.88749 23.4H16.6125C18.3 23.4 19.725 22.0125 19.725 20.2875V3.75C19.6875 2.0625 18.3 0.675003 16.6125 0.675003ZM18 20.25C18 21.0375 17.3625 21.675 16.575 21.675H5.99999V2.3625H16.6125C17.4 2.3625 18.0375 3 18.0375 3.7875V20.25H18Z" fill="#161A23"/>
<path d="M14.7375 15.45H9.26249C8.81249 15.45 8.39999 15.825 8.39999 16.3125C8.39999 16.8 8.77499 17.175 9.26249 17.175H14.7375C15.1875 17.175 15.6 16.8 15.6 16.3125C15.6 15.825 15.1875 15.45 14.7375 15.45Z" fill="#161A23"/>
<path d="M12 3.60001C9.07499 3.60001 6.71249 5.96251 6.71249 8.88751C6.71249 11.8125 9.07499 14.175 12 14.175C14.925 14.175 17.2875 11.8125 17.2875 8.88751C17.2875 5.96251 14.925 3.60001 12 3.60001ZM15.4875 8.02501H14.2875C14.2125 7.27501 14.1 6.52501 13.875 5.81251C14.6625 6.30001 15.2625 7.08751 15.4875 8.02501ZM11.4 8.02501C11.475 7.16251 11.7 6.33751 12 5.58751C12.3 6.30001 12.525 7.12501 12.6 8.02501H11.4ZM12.6 9.71251C12.525 10.575 12.3 11.4 12 12.15C11.7 11.4375 11.475 10.6125 11.4 9.71251H12.6ZM10.125 5.81251C9.89999 6.52501 9.74999 7.23751 9.71249 8.02501H8.51249C8.73749 7.08751 9.33749 6.30001 10.125 5.81251ZM8.51249 9.71251H9.71249C9.78749 10.4625 9.89999 11.2125 10.125 11.925C9.33749 11.4 8.73749 10.65 8.51249 9.71251ZM13.875 11.8875C14.1 11.2125 14.25 10.4625 14.2875 9.67501H15.4875C15.2625 10.65 14.6625 11.4 13.875 11.8875Z" fill="#161A23"/>
</svg>
