<svg width="24" height="24" viewBox="0 0 24 24" fill="none" xmlns="http://www.w3.org/2000/svg">
<path d="M12 11.8875C14.025 11.8875 15.7125 10.2375 15.7125 8.175C15.7125 6.1125 14.025 4.5 12 4.5C9.97498 4.5 8.28748 6.15 8.28748 8.2125C8.28748 10.275 9.97498 11.8875 12 11.8875ZM12 6.1875C13.125 6.1875 14.025 7.0875 14.025 8.2125C14.025 9.3375 13.125 10.2375 12 10.2375C10.875 10.2375 9.97498 9.3375 9.97498 8.2125C9.97498 7.0875 10.875 6.1875 12 6.1875Z" fill="#161A23"/>
<path d="M13.9125 16.875H10.0875C9.63748 16.875 9.22498 17.25 9.22498 17.7375C9.22498 18.225 9.59998 18.6 10.0875 18.6H13.875C14.325 18.6 14.7375 18.225 14.7375 17.7375C14.7375 17.25 14.3625 16.875 13.9125 16.875Z" fill="#161A23"/>
<path d="M16.95 0.674999H5.55C4.6875 0.674999 3.9375 1.3875 3.9375 2.2875V21.7875C3.9375 22.65 4.65 23.4 5.55 23.4H16.95C18.6375 23.4 20.0625 22.0125 20.0625 20.2875V3.75C20.025 2.0625 18.6375 0.674999 16.95 0.674999ZM18.3375 20.25C18.3375 21.0375 17.7 21.675 16.9125 21.675H5.6625V2.3625H16.95C17.7375 2.3625 18.375 3 18.375 3.7875V20.25H18.3375Z" fill="#161A23"/>
<path d="M14.85 14.1375H9.14998C8.69998 14.1375 8.28748 14.5125 8.28748 15C8.28748 15.4875 8.66248 15.8625 9.14998 15.8625H14.8875C15.3375 15.8625 15.75 15.4875 15.75 15C15.75 14.5125 15.3375 14.1375 14.85 14.1375Z" fill="#161A23"/>
</svg>
