<svg width="24" height="24" viewBox="0 0 24 24" fill="none" xmlns="http://www.w3.org/2000/svg">
<path d="M16.95 0.675003H5.55C4.6875 0.675003 3.9375 1.3875 3.9375 2.2875V21.7875C3.9375 22.65 4.65 23.4 5.55 23.4H16.95C18.6375 23.4 20.0625 22.0125 20.0625 20.2875V3.75C20.025 2.0625 18.6375 0.675003 16.95 0.675003ZM18.3375 20.25C18.3375 21.0375 17.7 21.675 16.9125 21.675H5.6625V2.3625H16.95C17.7375 2.3625 18.375 3 18.375 3.7875V20.25H18.3375Z" fill="#161A23"/>
<path d="M14.85 14.1375H9.15001C8.70001 14.1375 8.28751 14.5125 8.28751 15C8.28751 15.4875 8.66251 15.8625 9.15001 15.8625H14.8875C15.3375 15.8625 15.75 15.4875 15.75 15C15.75 14.5125 15.3375 14.1375 14.85 14.1375Z" fill="#161A23"/>
<path d="M13.9125 17.25H10.0875C9.63751 17.25 9.22501 17.625 9.22501 18.1125C9.22501 18.6 9.60001 18.975 10.0875 18.975H13.9125C14.3625 18.975 14.775 18.6 14.775 18.1125C14.775 17.625 14.3625 17.25 13.9125 17.25Z" fill="#161A23"/>
<path d="M9.6 8.13751C9.675 8.13751 9.7875 8.13751 9.8625 8.10001L11.1375 7.68751V9.18751L10.0125 9.75001C9.6 9.97501 9.4125 10.4625 9.6375 10.875C9.7875 11.175 10.0875 11.325 10.3875 11.325C10.5 11.325 10.65 11.2875 10.7625 11.25L12 10.65L13.2375 11.25C13.35 11.325 13.5 11.325 13.6125 11.325C13.9125 11.325 14.2125 11.1375 14.3625 10.875C14.5875 10.4625 14.4 9.93751 13.9875 9.75001L12.8625 9.18751V7.68751L14.1375 8.10001C14.2125 8.13751 14.325 8.13751 14.4 8.13751C14.7375 8.13751 15.075 7.91251 15.1875 7.57501C15.3375 7.12501 15.1125 6.63751 14.6625 6.52501L12.825 5.92501V4.95001C12.825 4.50001 12.45 4.08751 11.9625 4.08751C11.5125 4.08751 11.1 4.46251 11.1 4.95001V5.92501L9.2625 6.52501C8.8125 6.67501 8.5875 7.16251 8.7375 7.57501C8.925 7.91251 9.2625 8.13751 9.6 8.13751Z" fill="#161A23"/>
</svg>
