<svg width="24" height="24" viewBox="0 0 24 24" fill="none" xmlns="http://www.w3.org/2000/svg">
<path d="M21.2625 12L17.9625 8.73745C17.7 8.47495 17.4 8.36245 17.025 8.36245H14.9625V4.94995C14.9625 3.82495 14.0625 2.92495 12.975 2.92495H12.6V2.69995C12.6 1.91245 11.9625 1.27495 11.175 1.27495H9.45001C9.45001 0.824951 9.07501 0.449951 8.62501 0.449951C8.17501 0.449951 7.80001 0.824951 7.80001 1.27495H6.07501C5.28751 1.27495 4.65001 1.91245 4.65001 2.69995V2.88745H4.27501C3.18751 2.88745 2.28751 3.78745 2.28751 4.91245V18.075C2.28751 19.2 3.18751 20.1 4.27501 20.1H9.41251V21.7125C9.41251 22.725 10.2375 23.5125 11.2125 23.5125H19.8375C20.85 23.5125 21.6375 22.6875 21.6375 21.7125V12.9375C21.675 12.6 21.525 12.2625 21.2625 12ZM18.075 11.2125L18.825 11.9625H18.075V11.2125ZM6.37501 2.96245H10.95V3.74995V4.53745H6.37501V2.96245ZM4.31251 18.4125C4.16251 18.4125 4.01251 18.2625 4.01251 18.075V4.94995C4.01251 4.76245 4.12501 4.61245 4.31251 4.61245H4.68751V4.79995C4.68751 5.58745 5.32501 6.22495 6.11251 6.22495H11.25C12.0375 6.22495 12.675 5.58745 12.675 4.79995V4.61245H13.05C13.2 4.61245 13.35 4.76245 13.35 4.94995V8.36245H11.25C10.2375 8.36245 9.45001 9.18745 9.45001 10.1625V18.4125H4.31251ZM19.875 21.8624H11.25C11.175 21.8624 11.1375 21.825 11.1375 21.75V19.3125V10.1625C11.1375 10.0875 11.175 10.05 11.25 10.05H14.1H16.35V12.825C16.35 13.275 16.725 13.6875 17.2125 13.6875H19.95V21.75C19.9875 21.7875 19.9125 21.8624 19.875 21.8624Z" fill="#161A23"/>
</svg>
