<svg width="24" height="24" viewBox="0 0 24 24" fill="none" xmlns="http://www.w3.org/2000/svg">
<g clip-path="url(#clip0_501_52091)">
<path d="M21.7501 5.47495H17.625V4.76245C17.625 4.31245 17.25 3.93745 16.8001 3.93745H14.1V2.58745C14.1 1.49995 13.2001 0.637451 12.1501 0.637451H2.25005C1.16255 0.637451 0.300049 1.49995 0.300049 2.58745V21.4124C0.300049 22.4999 1.20005 23.3624 2.25005 23.3624H12.1125C13.2001 23.3624 14.0626 22.4624 14.0626 21.4124V20.0624H16.7626C17.2126 20.0624 17.5876 19.6874 17.5876 19.2374V18.525H21.7126C22.8001 18.525 23.6625 17.625 23.6625 16.575V7.46245C23.7001 6.37495 22.8376 5.47495 21.7501 5.47495ZM12.4125 21.4124C12.4125 21.5624 12.3 21.7125 12.1125 21.7125H2.25005C2.10005 21.7125 1.95005 21.5999 1.95005 21.4124V2.58745C1.95005 2.43745 2.06255 2.28745 2.25005 2.28745H12.1125C12.2625 2.28745 12.4125 2.39995 12.4125 2.58745V21.4124ZM15.9376 18.375H14.1V5.62495H15.9376V18.375ZM22.0501 16.5374C22.0501 16.6874 21.9376 16.8375 21.7501 16.8375H17.625V7.16245H21.7501C21.9001 7.16245 22.0501 7.27495 22.0501 7.46245V16.5374Z" fill="#161A23"/>
<path d="M20.25 8.4375C19.8 8.4375 19.425 8.8125 19.425 9.2625V11.3625C19.425 11.8125 19.8 12.225 20.25 12.225C20.7 12.225 21.075 11.85 21.075 11.3625V9.2625C21.075 8.8125 20.7 8.4375 20.25 8.4375Z" fill="#161A23"/>
<path d="M4.0876 8.3625H10.0876C10.5376 8.3625 10.9126 7.9875 10.9126 7.5375V4.575C10.9126 4.125 10.5376 3.75 10.0876 3.75H4.0876C3.6376 3.75 3.2626 4.125 3.2626 4.575V7.5C3.2251 7.95 3.6001 8.3625 4.0876 8.3625ZM4.9126 5.3625H9.2251V6.6375H4.9126V5.3625Z" fill="#161A23"/>
<path d="M4.16265 10.6125C3.71265 10.6125 3.33765 10.9875 3.33765 11.4375C3.33765 11.8875 3.71265 12.3 4.16265 12.3H4.72515C5.17515 12.3 5.55015 11.925 5.55015 11.4375C5.55015 10.95 5.17515 10.6125 4.72515 10.6125H4.16265Z" fill="#161A23"/>
<path d="M10.1626 10.6125H9.60015C9.15015 10.6125 8.77515 10.9875 8.77515 11.4375C8.77515 11.8875 9.15015 12.3 9.60015 12.3H10.1626C10.6126 12.3 10.9876 11.925 10.9876 11.4375C10.9876 10.95 10.6126 10.6125 10.1626 10.6125Z" fill="#161A23"/>
<path d="M5.55015 14.7374C5.55015 14.2874 5.17515 13.9124 4.72515 13.9124H4.16265C3.71265 13.9124 3.33765 14.2874 3.33765 14.7374C3.33765 15.1874 3.71265 15.5624 4.16265 15.5624H4.72515C5.17515 15.5624 5.55015 15.1874 5.55015 14.7374Z" fill="#161A23"/>
<path d="M10.1626 13.875H9.60015C9.15015 13.875 8.77515 14.25 8.77515 14.7C8.77515 15.15 9.15015 15.525 9.60015 15.525H10.1626C10.6126 15.525 10.9876 15.15 10.9876 14.7C10.9876 14.25 10.6126 13.875 10.1626 13.875Z" fill="#161A23"/>
<path d="M8.70015 18.1499H5.66265C5.21265 18.1499 4.83765 18.5249 4.83765 18.9749C4.83765 19.4249 5.21265 19.7999 5.66265 19.7999H8.70015C9.15015 19.7999 9.52515 19.4249 9.52515 18.9749C9.52515 18.5249 9.15015 18.1499 8.70015 18.1499Z" fill="#161A23"/>
</g>
<defs>
<clipPath id="clip0_501_52091">
<rect width="24" height="24" fill="white"/>
</clipPath>
</defs>
</svg>
