<svg width="24" height="24" viewBox="0 0 24 24" fill="none" xmlns="http://www.w3.org/2000/svg">
<path d="M20.8876 7.08743C20.8501 7.04993 20.8501 7.04993 20.8501 7.04993C19.8376 11.8499 16.6501 14.4374 11.4751 14.4374H9.37507L8.17507 22.1999H7.05007L6.90007 23.0249C6.86257 23.3249 7.12507 23.6624 7.42507 23.6624H11.1751C11.5876 23.6624 12.0001 23.3624 12.0751 22.9124L12.1126 22.7624L12.7876 18.2624L12.8251 17.9999C12.8626 17.5874 13.2376 17.2499 13.7251 17.2499H14.2876C17.9251 17.2499 20.7751 15.7874 21.6001 11.5124C22.0126 9.63743 21.7876 8.17493 20.8876 7.08743Z" fill="#15171A"/>
<path d="M8.36194 13.9875L8.32444 14.2125C8.36194 13.6875 8.84944 13.3125 9.33694 13.3125H11.4369C15.5994 13.3125 18.8244 11.625 19.8369 6.7125C19.8744 6.5625 19.8744 6.45 19.8744 6.3C20.1369 4.5 19.8744 3.225 18.8619 2.1375C18.5994 1.8375 18.2244 1.575 17.8494 1.3125C17.3244 1.0125 16.7994 0.7875 16.1619 0.675C15.7494 0.5625 15.2244 0.525 14.6994 0.45C14.2494 0.4125 13.8369 0.375 13.3494 0.375H6.18694C5.66194 0.375 5.24944 0.75 5.17444 1.2L2.17445 20.2875C2.13695 20.7 2.39945 21.0375 2.81195 21.0375H7.23694L8.36194 13.9875Z" fill="#15171A"/>
</svg>
