<svg width="24" height="24" viewBox="0 0 24 24" fill="none" xmlns="http://www.w3.org/2000/svg">
<path d="M19.4632 4.46243C19.0882 2.17493 17.2882 0.674927 14.8882 0.674927H7.27571C6.90071 0.674927 6.56321 0.937427 6.45071 1.31243L2.10071 19.0499C2.02571 19.3124 2.10071 19.5749 2.25071 19.7624C2.40071 19.9499 2.66321 20.0999 2.92571 20.0999H5.02571L4.50071 22.3124C4.42571 22.5749 4.50071 22.8374 4.65071 23.0249C4.80071 23.2124 5.06321 23.3624 5.32571 23.3624H10.7257C11.1007 23.3624 11.4757 23.0999 11.5507 22.7249L13.1632 15.7499H14.8507C16.3882 15.7499 17.9257 15.1499 19.2007 14.0624C20.4757 13.0124 21.3757 11.5499 21.7507 10.0124C22.3132 7.61243 21.3757 5.39993 19.4632 4.46243ZM7.95071 2.36243H14.9257C16.5757 2.36243 17.7382 3.44993 17.8507 5.06243C17.8882 5.58743 17.8507 5.99993 17.7382 6.37493C17.4757 7.49993 16.7632 8.66243 15.7507 9.48743C14.7757 10.3124 13.6132 10.7624 12.4882 10.7624H10.1632C9.78821 10.7624 9.45071 11.0249 9.33821 11.3999L7.65071 18.3749H4.01321L7.95071 2.36243ZM20.1382 9.63743C19.8757 10.7999 19.1632 11.9249 18.1507 12.7499C17.1757 13.5749 16.0132 14.0249 14.8882 14.0249H12.5257C12.1507 14.0249 11.7757 14.2874 11.7007 14.6624L10.0882 21.6374H6.37571L6.75071 20.0624H8.28821C8.66321 20.0624 9.00071 19.7999 9.11321 19.4249L10.8007 12.4499H12.4507C13.9882 12.4499 15.5257 11.8499 16.8382 10.7624C18.1132 9.67493 19.0132 8.24993 19.3882 6.74993C19.4257 6.63743 19.4257 6.56243 19.4632 6.44993C20.1382 7.23743 20.4382 8.36243 20.1382 9.63743Z" fill="#15171A"/>
</svg>
