<svg width="25" height="24" viewBox="0 0 25 24" fill="none" xmlns="http://www.w3.org/2000/svg">
<path d="M20.775 6.22505L15.6 1.12505C15.3 0.825049 14.8875 0.675049 14.475 0.675049H5.475C4.2 0.675049 3.1125 1.72505 3.1125 3.03755V11.85C3.1125 12.3 3.4875 12.7125 3.975 12.7125C4.4625 12.7125 4.8375 12.3375 4.8375 11.85V3.00005C4.8375 2.62505 5.1375 2.32505 5.5125 2.32505H13.9875V7.12505C13.9875 7.57505 14.3625 7.98755 14.85 7.98755H19.6125V11.625C19.6125 12.075 19.9875 12.4875 20.475 12.4875C20.9625 12.4875 21.3375 12.1125 21.3375 11.625V7.35005C21.225 6.93755 21.075 6.52505 20.775 6.22505ZM15.6375 3.52505L18.45 6.30005H15.6375V3.52505Z" fill="#161A23"/>
<path d="M20.4 19.425C19.95 19.425 19.5375 19.8 19.5375 20.2875V21.0375C19.5375 21.4125 19.2375 21.7125 18.8625 21.7125H5.475C5.1 21.7125 4.8 21.4125 4.8 21.0375V20.5125C4.8 20.0625 4.425 19.65 3.9375 19.65C3.45 19.65 3.075 20.025 3.075 20.5125V21C3.075 22.275 4.125 23.3625 5.4375 23.3625H18.825C20.1 23.3625 21.1875 22.3125 21.1875 21V20.25C21.225 19.8 20.85 19.425 20.4 19.425Z" fill="#161A23"/>
<path d="M17.0625 14.25H19.125C19.575 14.25 19.9875 13.875 19.9875 13.3875C19.9875 12.9 19.6125 12.525 19.125 12.525H17.0625C16.05 12.525 15.1875 13.3875 15.1875 14.4V18.9375C15.1875 19.3875 15.5625 19.8 16.05 19.8C16.5375 19.8 16.9125 19.425 16.9125 18.9375V16.575H18.3375C18.7875 16.575 19.2 16.2 19.2 15.7125C19.2 15.225 18.825 14.85 18.3375 14.85H16.875V14.3625C16.875 14.3625 16.95 14.25 17.0625 14.25Z" fill="#161A23"/>
<path d="M11.9625 19.8375C13.275 19.8375 14.3625 18.75 14.3625 17.4V14.925C14.3625 13.575 13.275 12.4875 11.9625 12.4875H10.2375C9.7875 12.4875 9.375 12.8625 9.375 13.35V19.0125C9.375 19.4625 9.75 19.875 10.2375 19.875H11.9625V19.8375ZM11.0625 14.175H11.925C12.3 14.175 12.6375 14.5125 12.6375 14.925V17.4C12.6375 17.8125 12.3 18.15 11.925 18.15H11.0625V14.175Z" fill="#161A23"/>
<path d="M5.25 19.8375C5.7 19.8375 6.1125 19.4625 6.1125 18.975V16.725H7.95C8.4 16.725 8.8125 16.35 8.8125 15.8625V13.3875C8.8125 12.9375 8.4375 12.525 7.95 12.525H5.25C4.8 12.525 4.3875 12.9 4.3875 13.3875V18.975C4.425 19.4625 4.8 19.8375 5.25 19.8375ZM6.1125 14.25H7.0875V15.0375H6.1125V14.25Z" fill="#161A23"/>
</svg>
