<svg width="24" height="24" viewBox="0 0 24 24" fill="none" xmlns="http://www.w3.org/2000/svg">
<g clip-path="url(#clip0_501_44750)">
<path d="M23.7375 3.78745C23.7375 3.11245 23.475 2.43745 22.9875 1.94995L22.05 1.01245C21.5625 0.524951 20.925 0.262451 20.2125 0.262451C19.5375 0.262451 18.8625 0.524951 18.375 1.01245L16.9125 2.47495L16.0125 1.57495C15.525 1.08745 14.8875 0.824951 14.175 0.824951C13.5 0.824951 12.825 1.08745 12.3375 1.57495L8.475 5.54995C8.1375 5.88745 8.1375 6.41245 8.475 6.74995C8.8125 7.08745 9.3375 7.08745 9.675 6.74995L13.6125 2.77495C13.95 2.43745 14.55 2.43745 14.8875 2.77495L15.75 3.67495L5.1375 14.2875C4.6875 14.7375 4.5 15.375 4.6125 15.975L3.0375 17.5499C2.7 17.8875 2.475 18.375 2.475 18.8624C2.475 19.275 2.5875 19.65 2.85 19.95L0.4875 22.3125C0.15 22.65 0.15 23.175 0.4875 23.5125C0.6375 23.6625 0.8625 23.775 1.0875 23.775C1.3125 23.775 1.5375 23.7 1.6875 23.5125L4.05 21.15C4.3875 21.375 4.7625 21.525 5.1375 21.525C5.625 21.525 6.075 21.3375 6.45 21L8.025 19.4249C8.1375 19.4625 8.25 19.4625 8.3625 19.4625C8.85 19.4625 9.3 19.275 9.675 18.9375L20.8125 7.79995L22.9125 5.69995C23.4375 5.09995 23.7375 4.46245 23.7375 3.78745ZM5.2875 19.725C5.2125 19.7999 5.1 19.7999 5.0625 19.725L4.275 18.9375C4.2375 18.9 4.2375 18.8625 4.2375 18.825C4.2375 18.7875 4.2375 18.75 4.275 18.7125L5.625 17.3624L6.6375 18.375L5.2875 19.725ZM8.5125 17.6625C8.4375 17.7374 8.325 17.7374 8.2875 17.6625L6.3375 15.7125C6.2625 15.6375 6.2625 15.525 6.3375 15.4875L16.95 4.87495L19.125 7.04995L8.5125 17.6625ZM21.7875 4.42495L20.325 5.88745L18.15 3.71245L19.6125 2.24995C19.95 1.91245 20.55 1.91245 20.8875 2.24995L21.825 3.18745C21.975 3.33745 22.0875 3.56245 22.0875 3.82495C22.0875 4.08745 21.9375 4.23745 21.7875 4.42495Z" fill="#161A23"/>
</g>
<defs>
<clipPath id="clip0_501_44750">
<rect width="24" height="24" fill="white"/>
</clipPath>
</defs>
</svg>
