<svg width="23" height="23" viewBox="0 0 23 23" fill="none" xmlns="http://www.w3.org/2000/svg">
<path d="M22.65 3.79671C22.65 3.49671 22.5375 3.19671 22.3125 2.97171C21.8625 2.52171 21.4125 2.07171 21 1.62171C20.5875 1.20921 20.2125 0.796708 19.8 0.421708C19.6125 0.196708 19.3875 0.0467082 19.0875 0.00920824C18.75 -0.0282918 18.45 0.0467083 18.1875 0.271708L15.6375 2.82171H2.3625C1.0875 2.82171 0 3.87171 0 5.18421V20.3342C0 21.6092 1.05 22.6967 2.3625 22.6967H17.55C18.825 22.6967 19.9125 21.6467 19.9125 20.3342V7.02171L22.35 4.58421C22.5375 4.35921 22.65 4.09671 22.65 3.79671ZM11.625 12.8342C11.5875 12.8717 11.5875 12.8717 11.55 12.8717L8.85 13.7717L9.75 11.0717C9.75 11.0342 9.7875 11.0342 9.7875 10.9967L16.5375 4.24671L18.4125 6.08421L11.625 12.8342ZM18.1875 20.3342C18.1875 20.7092 17.8875 21.0092 17.5125 21.0092H2.3625C1.9875 21.0092 1.6875 20.7092 1.6875 20.3342V5.14671C1.6875 4.77171 1.9875 4.47171 2.3625 4.47171H13.9125L8.5875 9.83421C8.4 10.0217 8.2125 10.2842 8.1375 10.5842L6.75 14.7842C6.6375 15.0842 6.7125 15.3467 6.8625 15.6092C6.975 15.7592 7.2 15.9842 7.6125 15.9842H7.7625L12.075 14.5592C12.3375 14.4842 12.6 14.2967 12.7875 14.1092L18.1875 8.70921V20.3342ZM19.575 4.92171L17.7 3.08421L18.8625 1.92171C19.1625 2.22171 20.4 3.45921 20.7 3.79671L19.575 4.92171Z" fill="#161A23"/>
</svg>
