<svg width="23" height="23" viewBox="0 0 23 23" fill="none" xmlns="http://www.w3.org/2000/svg">
<path d="M22.2917 4.2C21.0917 2.925 19.8167 1.65 18.5417 0.4125C18.2792 0.15 17.9792 0 17.6417 0C17.3042 0 16.9667 0.1125 16.7417 0.375L2.60417 14.4C2.37917 14.625 2.22917 14.8875 2.11667 15.15L0.0541667 21.45C-0.0583333 21.75 0.0166667 22.05 0.166667 22.275C0.354167 22.5 0.616667 22.65 0.954167 22.65H1.10417L7.51667 20.5125C7.81667 20.4 8.07917 20.25 8.26667 20.025L22.3292 6C22.5542 5.775 22.7042 5.4375 22.7042 5.1C22.7042 4.7625 22.5542 4.4625 22.2917 4.2ZM7.06667 18.8625C7.02917 18.9 6.99167 18.9 6.95417 18.9375L2.11667 20.55L3.72917 15.7125C3.72917 15.675 3.76667 15.6375 3.80417 15.6L14.1167 5.325L17.3792 8.5875L7.06667 18.8625ZM18.5417 7.3875L15.2792 4.125L17.5667 1.8375C18.6542 2.8875 19.7417 4.0125 20.7917 5.1L18.5417 7.3875Z" fill="#161A23"/>
</svg>
