<svg width="24" height="24" viewBox="0 0 24 24" fill="none" xmlns="http://www.w3.org/2000/svg">
<g clip-path="url(#clip0_501_47514)">
<path d="M21.5625 13.0876L11.2875 2.77505C10.725 2.21255 9.75002 2.21255 9.22503 2.77505L9.18752 2.81255L7.83752 1.46255C6.78752 0.412549 5.06252 0.412549 4.01252 1.46255L1.50002 3.97505C0.975024 4.50005 0.712524 5.17505 0.712524 5.88755C0.712524 6.60005 1.01252 7.31255 1.50002 7.80005L2.85002 9.15005L2.81252 9.18755C2.55002 9.45005 2.40002 9.82505 2.40002 10.2375C2.40002 10.6125 2.55002 10.9875 2.81252 11.2875L12.975 21.4501C14.2125 22.6876 15.825 23.3251 17.4375 23.3251C18.825 23.3251 20.25 22.8376 21.3375 21.8626C22.6125 20.7376 23.325 19.2001 23.4 17.5126C23.4 15.8626 22.7625 14.2501 21.5625 13.0876ZM2.36252 5.92505C2.36252 5.66255 2.47502 5.40005 2.66252 5.21255L5.17502 2.70005C5.55002 2.32505 6.22502 2.32505 6.63752 2.70005L7.98752 4.05005L4.01252 8.02505L2.66252 6.67505C2.43752 6.45005 2.36252 6.18755 2.36252 5.92505ZM20.175 20.5876C18.45 22.0876 15.7875 21.9376 14.1375 20.2501L4.12502 10.2751L10.275 4.12505L20.4 14.2501C21.2625 15.1125 21.7125 16.2375 21.675 17.475C21.6 18.6751 21.075 19.8001 20.175 20.5876Z" fill="#161A23"/>
<path d="M18.75 14.8125C18.225 14.2875 17.5125 13.9875 16.7625 13.9875C16.0125 13.9875 15.3 14.2875 14.775 14.8125C13.6875 15.9 13.6875 17.6625 14.775 18.75C15.3 19.275 16.0125 19.575 16.7625 19.575C17.5125 19.575 18.225 19.275 18.75 18.75C19.275 18.225 19.575 17.5125 19.575 16.7625C19.575 16.0125 19.275 15.375 18.75 14.8125ZM17.55 17.5875C17.1375 18 16.3875 18 15.975 17.5875C15.525 17.1375 15.525 16.4625 15.975 16.0125C16.2 15.7875 16.4625 15.675 16.7625 15.675C17.0625 15.675 17.325 15.7875 17.55 16.0125C17.775 16.2375 17.8875 16.5 17.8875 16.8C17.8875 17.1 17.775 17.3625 17.55 17.5875Z" fill="#161A23"/>
</g>
<defs>
<clipPath id="clip0_501_47514">
<rect width="24" height="24" fill="white"/>
</clipPath>
</defs>
</svg>
