<svg width="24" height="24" viewBox="0 0 24 24" fill="none" xmlns="http://www.w3.org/2000/svg">
<path d="M21.1125 3.26251C21.1125 1.83751 19.95 0.637512 18.4875 0.637512H5.5125C4.0875 0.637512 2.8875 1.80001 2.8875 3.26251V22.0875C2.8875 22.3875 3.075 22.6875 3.3375 22.8375C3.6 22.9875 3.9375 22.95 4.2 22.8L6.075 21.5625L8.5875 23.2125C8.8875 23.4 9.225 23.4 9.525 23.2125L12 21.5625L14.475 23.2125C14.625 23.325 14.775 23.3625 14.925 23.3625C15.075 23.3625 15.2625 23.325 15.375 23.2125L17.85 21.5625L19.725 22.8375C19.9875 23.025 20.325 23.025 20.5875 22.875C20.85 22.725 21.0375 22.425 21.0375 22.125L21.1125 3.26251ZM18.7125 20.0625C18.225 19.725 17.5875 19.725 17.1 20.0625L14.9625 21.4875L12.825 20.0625C12.5625 19.9125 12.3 19.8 12 19.8C11.7375 19.8 11.4375 19.875 11.2125 20.0625L9.075 21.4875L6.9375 20.0625C6.45 19.725 5.8125 19.725 5.325 20.0625L4.6125 20.5125V3.26251C4.6125 2.73751 5.025 2.32501 5.55 2.32501H18.5625C19.0875 2.32501 19.5 2.73751 19.5 3.26251V20.5125L18.7125 20.0625Z" fill="#161A23"/>
<path d="M16.0125 6.41249L6.7875 15.6375C6.45 15.975 6.45 16.5 6.7875 16.8375C6.9375 16.9875 7.1625 17.1 7.3875 17.1C7.6125 17.1 7.8375 17.025 7.9875 16.8375L17.2125 7.61249C17.55 7.27499 17.55 6.74999 17.2125 6.41249C16.875 6.07499 16.35 6.07499 16.0125 6.41249Z" fill="#161A23"/>
<path d="M9.0375 10.8375C10.3125 10.8375 11.325 9.82501 11.325 8.55001C11.325 7.27501 10.3125 6.26251 9.0375 6.26251C7.7625 6.26251 6.75 7.31251 6.75 8.55001C6.75 9.78751 7.7625 10.8375 9.0375 10.8375ZM9.0375 7.98751C9.375 7.98751 9.6375 8.25001 9.6375 8.58751C9.6375 8.92501 9.375 9.18751 9.0375 9.18751C8.7 9.18751 8.4375 8.92501 8.4375 8.58751C8.4375 8.25001 8.7 7.98751 9.0375 7.98751Z" fill="#161A23"/>
<path d="M14.85 12.4875C13.575 12.4875 12.5625 13.5 12.5625 14.775C12.5625 16.05 13.575 17.0625 14.85 17.0625C16.125 17.0625 17.1375 16.05 17.1375 14.775C17.1375 13.5 16.125 12.4875 14.85 12.4875ZM14.85 15.375C14.5125 15.375 14.25 15.1125 14.25 14.775C14.25 14.4375 14.5125 14.175 14.85 14.175C15.1875 14.175 15.45 14.4375 15.45 14.775C15.45 15.1125 15.1875 15.375 14.85 15.375Z" fill="#161A23"/>
</svg>
