<svg width="24" height="24" viewBox="0 0 24 24" fill="none" xmlns="http://www.w3.org/2000/svg">
<path d="M12.8625 1.27502C9.86247 1.27502 7.01247 2.55002 4.98747 4.72502C4.68747 5.06252 4.68747 5.58752 5.02497 5.92502C5.36247 6.22502 5.88747 6.22502 6.22497 5.88752C7.91247 4.05002 10.35 2.96252 12.8625 2.96252C17.85 2.96252 21.9 7.01252 21.9 12C21.9 16.9875 17.8125 21.0375 12.8625 21.0375C9.03747 21.0375 5.69997 18.675 4.38747 15.1125L6.18747 15.825C6.59997 16.0125 7.12497 15.7875 7.27497 15.375C7.46247 14.925 7.23747 14.4375 6.82497 14.2875L3.11247 12.7875C2.69997 12.6 2.17497 12.825 2.02497 13.2375L0.524973 16.95C0.337473 17.4 0.562473 17.8875 0.974973 18.0375C1.08747 18.075 1.19997 18.1125 1.27497 18.1125C1.61247 18.1125 1.91247 17.925 2.06247 17.5875L2.81247 15.75C4.38747 19.95 8.32497 22.725 12.825 22.725C18.75 22.725 23.55 17.8875 23.55 12C23.55 6.11252 18.75 1.27502 12.8625 1.27502Z" fill="#161A23"/>
<path d="M16.4625 7.46255L8.51246 15.375C8.17496 15.7125 8.17496 16.2375 8.51246 16.575C8.66246 16.725 8.88746 16.8375 9.11246 16.8375C9.33746 16.8375 9.56246 16.7625 9.71246 16.575L17.625 8.62505C17.9625 8.28755 17.9625 7.76255 17.625 7.42505C17.325 7.12505 16.7625 7.12505 16.4625 7.46255Z" fill="#161A23"/>
<path d="M10.125 6.67505C8.84996 6.67505 7.83746 7.68755 7.83746 8.96255C7.83746 10.2375 8.84996 11.25 10.125 11.25C11.4 11.25 12.4125 10.2375 12.4125 8.96255C12.4125 7.68755 11.3625 6.67505 10.125 6.67505ZM10.125 9.56255C9.78746 9.56255 9.52496 9.30005 9.52496 8.96255C9.52496 8.62505 9.78746 8.36255 10.125 8.36255C10.4625 8.36255 10.725 8.62505 10.725 8.96255C10.725 9.30005 10.425 9.56255 10.125 9.56255Z" fill="#161A23"/>
<path d="M15.9375 12.8625C14.6625 12.8625 13.65 13.875 13.65 15.15C13.65 16.425 14.6625 17.4375 15.9375 17.4375C17.2125 17.4375 18.225 16.425 18.225 15.15C18.225 13.875 17.2125 12.8625 15.9375 12.8625ZM15.9375 15.75C15.6 15.75 15.3375 15.4875 15.3375 15.15C15.3375 14.8125 15.6 14.55 15.9375 14.55C16.275 14.55 16.5375 14.8125 16.5375 15.15C16.5375 15.4875 16.275 15.75 15.9375 15.75Z" fill="#161A23"/>
</svg>
