<svg width="24" height="24" viewBox="0 0 24 24" fill="none" xmlns="http://www.w3.org/2000/svg">
<path d="M13.875 14.6249C14.25 14.2124 14.4375 13.6499 14.4375 13.0499C14.4375 11.6999 13.35 10.6124 12 10.6124C10.65 10.6124 9.56251 11.6999 9.56251 13.0499C9.56251 13.6499 9.78751 14.2124 10.125 14.6249C9.75001 14.8499 9.41251 15.1499 9.07501 15.4874C8.36251 16.3499 7.95001 17.5124 7.91251 18.7874C7.91251 19.1249 8.10001 19.4249 8.36251 19.5374C8.77501 19.7624 10.3125 20.4374 11.9625 20.4374C13.7625 20.4374 15.1875 19.7249 15.5625 19.5374C15.825 19.3874 16.0125 19.0874 16.0125 18.7874C15.975 17.5124 15.6 16.3499 14.85 15.4874C14.5875 15.1499 14.25 14.8499 13.875 14.6249ZM12 12.2999C12.4125 12.2999 12.75 12.6374 12.75 13.0499C12.75 13.4624 12.4125 13.7999 12 13.7999C11.5875 13.7999 11.25 13.4624 11.25 13.0499C11.25 12.6374 11.5875 12.2999 12 12.2999ZM12 18.7874C11.1 18.7874 10.2 18.4874 9.67501 18.2999C9.75001 17.6249 10.0125 17.0624 10.3875 16.6124C10.8 16.0874 11.4 15.8249 12 15.8249C12.6 15.8249 13.2 16.1249 13.6125 16.6124C13.9875 17.0624 14.25 17.6624 14.325 18.3374C13.8 18.5249 12.975 18.7874 12 18.7874Z" fill="#161A23"/>
<path d="M19.8375 7.57495L13.0875 1.19995C12.7125 0.824951 12.225 0.637451 11.7 0.637451H5.88749C4.57499 0.637451 3.52499 1.68745 3.52499 2.99995V20.9999C3.52499 22.3124 4.57499 23.3624 5.88749 23.3624H18.1125C19.425 23.3624 20.475 22.3124 20.475 20.9999V9.03745C20.475 8.47495 20.25 7.94995 19.8375 7.57495ZM12.8625 3.29995L17.5875 7.72495H13.2C13.0125 7.72495 12.8625 7.57495 12.8625 7.42495V3.29995ZM18.1125 21.6749H5.88749C5.51249 21.6749 5.21249 21.3749 5.21249 20.9999V2.99995C5.21249 2.62495 5.51249 2.32495 5.88749 2.32495H11.175V7.38745C11.175 8.47495 12.075 9.37495 13.2 9.37495H18.825V20.9999C18.7875 21.3375 18.4875 21.6749 18.1125 21.6749Z" fill="#161A23"/>
</svg>
