<svg width="24" height="24" viewBox="0 0 24 24" fill="none" xmlns="http://www.w3.org/2000/svg">
<g clip-path="url(#clip0_501_42843)">
<path d="M20.9625 4.87505H12.4875L11.5875 2.28755C11.25 1.31255 10.35 0.675049 9.33751 0.675049H3.03751C1.72501 0.675049 0.637512 1.76255 0.637512 3.07505V20.8876C0.637512 22.2001 1.72501 23.2875 3.03751 23.2875H20.925C22.2375 23.2875 23.325 22.2001 23.325 20.8876V7.27505C23.3625 5.96255 22.275 4.87505 20.9625 4.87505ZM21.675 20.925C21.675 21.3 21.375 21.6376 20.9625 21.6376H3.03751C2.66251 21.6376 2.32501 21.3375 2.32501 20.925V3.07505C2.32501 2.70005 2.62501 2.36255 3.03751 2.36255H9.30001C9.60001 2.36255 9.86251 2.55005 9.97501 2.85005L11.0625 6.00005C11.175 6.33755 11.5125 6.56255 11.85 6.56255H20.925C21.3 6.56255 21.6375 6.86255 21.6375 7.27505V20.925H21.675Z" fill="#161A23"/>
<path d="M13.9875 12.7501C14.3625 12.3001 14.5875 11.7376 14.5875 11.1376C14.5875 9.7501 13.4625 8.6626 12.1125 8.6626C10.7625 8.6626 9.63749 9.7876 9.63749 11.1376C9.63749 11.7376 9.86249 12.3001 10.2375 12.7501C9.82499 12.9751 9.48749 13.2751 9.14999 13.6501C8.39999 14.5126 7.98749 15.7126 7.98749 16.9876C7.98749 17.3251 8.17499 17.6251 8.43749 17.7376C8.88749 17.9626 10.425 18.6751 12.1125 18.6751C13.9125 18.6751 15.375 17.9626 15.7875 17.7376C16.05 17.5876 16.2375 17.2876 16.2375 16.9876C16.2 15.7126 15.7875 14.5126 15.075 13.6126C14.7375 13.2751 14.3625 12.9751 13.9875 12.7501ZM12.075 10.3501C12.525 10.3501 12.8625 10.7251 12.8625 11.1376C12.8625 11.5501 12.4875 11.9251 12.075 11.9251C11.6625 11.9251 11.2875 11.5501 11.2875 11.1376C11.2875 10.7251 11.6625 10.3501 12.075 10.3501ZM12.075 17.0251C11.1375 17.0251 10.2375 16.7251 9.67499 16.5001C9.78749 15.8251 10.0125 15.1876 10.3875 14.7376C10.8375 14.2126 11.4375 13.9126 12.0375 13.9126C12.675 13.9126 13.275 14.2126 13.6875 14.7376C14.0625 15.1876 14.325 15.8251 14.4375 16.5001C13.95 16.7251 13.0875 17.0251 12.075 17.0251Z" fill="#161A23"/>
</g>
<defs>
<clipPath id="clip0_501_42843">
<rect width="24" height="24" fill="white"/>
</clipPath>
</defs>
</svg>
