<svg width="24" height="24" viewBox="0 0 24 24" fill="none" xmlns="http://www.w3.org/2000/svg">
<g clip-path="url(#clip0_501_52083)">
<path d="M20.0625 18.1875C18.075 18 16.1625 17.5125 14.325 16.6875C13.9125 16.5 13.4625 16.65 13.2375 17.0625L11.7 19.9501C8.6625 18.3 6.15 15.825 4.5375 12.7875L7.425 11.25C7.8 11.025 7.9875 10.575 7.8 10.1625C6.975 8.36255 6.4875 6.41255 6.3 4.42505C6.2625 3.97505 5.8875 3.67505 5.475 3.67505H1.65C1.425 3.67505 1.2 3.75005 1.05 3.93755C0.825 4.05005 0.75 4.27505 0.75 4.50005C0.75 7.38755 1.3875 10.2 2.625 12.825C4.5 16.7625 7.725 19.95 11.6625 21.8625C14.2875 23.1 17.0625 23.7375 19.9875 23.7375C20.2125 23.7375 20.4375 23.6625 20.5875 23.475C20.7375 23.325 20.85 23.1 20.85 22.875V19.05C20.8125 18.6 20.475 18.225 20.0625 18.1875ZM2.4375 5.32505H4.65C4.875 6.97505 5.2875 8.58755 5.925 10.0875L3.7875 11.25C3 9.37505 2.55 7.38755 2.4375 5.32505ZM13.2 20.6625L14.3625 18.525C15.9 19.1625 17.5125 19.575 19.125 19.8V22.0126C17.0625 21.9 15.075 21.45 13.2 20.6625Z" fill="#161A23"/>
<path d="M15.6751 5.9625H17.7751C18.2251 5.9625 18.6001 5.5875 18.6001 5.1375C18.6001 4.6875 18.2251 4.3125 17.7751 4.3125H17.3251V4.2C17.3251 3.75 16.9501 3.375 16.5001 3.375C16.0501 3.375 15.6751 3.75 15.6751 4.2V4.3125C14.5876 4.3125 13.7251 5.2125 13.7251 6.3C13.7251 7.3875 14.6251 8.2875 15.7126 8.2875H16.6876C16.8376 8.2875 16.9876 8.4 16.9876 8.5875C16.9876 8.775 16.8376 8.8875 16.6876 8.8875H14.5876C14.1376 8.8875 13.7626 9.2625 13.7626 9.7125C13.7626 10.1625 14.1376 10.5375 14.5876 10.5375H15.7126V10.65C15.7126 11.1 16.0876 11.475 16.5376 11.475C16.9876 11.475 17.3626 11.1 17.3626 10.65V10.3875C18.1126 10.125 18.6751 9.375 18.6751 8.55C18.6751 7.4625 17.7751 6.5625 16.6876 6.5625H15.7126C15.5626 6.5625 15.4126 6.45 15.4126 6.2625C15.4126 6.075 15.5251 5.9625 15.6751 5.9625Z" fill="#161A23"/>
<path d="M16.1625 0.300049C12.2625 0.300049 9.07495 3.48755 9.07495 7.38755C9.07495 11.2875 12.2625 14.475 16.1625 14.475C20.0625 14.475 23.25 11.2875 23.25 7.38755C23.25 3.48755 20.0625 0.300049 16.1625 0.300049ZM16.1625 12.7875C13.1625 12.7875 10.7625 10.35 10.7625 7.38755C10.7625 4.42505 13.1625 1.95005 16.1625 1.95005C19.1625 1.95005 21.5625 4.38755 21.5625 7.35005C21.5625 10.3125 19.125 12.7875 16.1625 12.7875Z" fill="#161A23"/>
</g>
<defs>
<clipPath id="clip0_501_52083">
<rect width="24" height="24" fill="white"/>
</clipPath>
</defs>
</svg>
