<svg width="24" height="24" viewBox="0 0 24 24" fill="none" xmlns="http://www.w3.org/2000/svg">
<path d="M21 1.05005H15.4875C14.175 1.05005 13.125 2.10005 13.125 3.37505V9.86255C13.125 11.1375 14.175 12.225 15.4875 12.225H21C22.275 12.225 23.3625 11.175 23.3625 9.86255V3.37505C23.3625 2.10005 22.275 1.05005 21 1.05005ZM21.675 9.86255C21.675 10.2375 21.375 10.5375 21 10.5375H15.4875C15.1125 10.5375 14.8125 10.2375 14.8125 9.86255V3.37505C14.8125 3.00005 15.1125 2.70005 15.4875 2.70005H21C21.375 2.70005 21.675 3.00005 21.675 3.37505V9.86255Z" fill="#161A23"/>
<path d="M16.8 4.76257C16.35 4.76257 15.9375 5.13757 15.9375 5.62507V7.50007C15.9375 7.95007 16.3125 8.36257 16.8 8.36257C17.2875 8.36257 17.6625 7.98757 17.6625 7.50007V5.62507C17.6625 5.13757 17.2875 4.76257 16.8 4.76257Z" fill="#161A23"/>
<path d="M19.65 4.76257C19.2 4.76257 18.7875 5.13757 18.7875 5.62507V7.50007C18.7875 7.95007 19.1625 8.36257 19.65 8.36257C20.1375 8.36257 20.5125 7.98757 20.5125 7.50007V5.62507C20.5125 5.13757 20.1375 4.76257 19.65 4.76257Z" fill="#161A23"/>
<path d="M21.675 16.5001L18.525 14.3626C17.7375 13.8376 16.725 14.0626 16.125 14.9626L15.3375 16.0876C11.1375 13.4626 8.51251 9.7501 7.57501 8.3251L8.85001 7.4251C9.60001 6.9001 9.78751 5.8501 9.30001 5.1001L7.12501 1.9501C6.63751 1.2001 5.62501 0.975103 4.87501 1.4251L1.83751 3.2251C1.80001 3.2626 1.72501 3.3001 1.68751 3.3376C-0.787492 5.8126 1.35001 11.6626 6.63751 16.9876C9.03751 19.3876 11.7 21.2626 14.175 22.2376C15.4125 22.7251 16.5375 22.9876 17.5125 22.9876C18.675 22.9876 19.6125 22.6501 20.2875 21.9751C20.325 21.9376 20.4 21.8626 20.4 21.8251L22.2 18.7876C22.65 18.0001 22.425 16.9876 21.675 16.5001ZM19.0125 20.8126C18.2625 21.4876 16.725 21.4126 14.775 20.6626C12.525 19.7626 10.05 18.0376 7.80001 15.7876C3.11251 11.1001 1.42501 6.1876 2.81251 4.6126L5.73751 2.8876L7.87501 6.0376L6.60001 6.9376C5.85001 7.4626 5.66251 8.4376 6.15001 9.2251C7.16251 10.8001 9.97501 14.7376 14.475 17.5501C15.225 18.0376 16.2 17.8126 16.725 17.1001L17.5125 15.9751C17.55 15.9001 17.5875 15.8626 17.625 15.8626L20.775 17.9626L19.0125 20.8126Z" fill="#161A23"/>
</svg>
