<svg width="23" height="23" viewBox="0 0 23 23" fill="none" xmlns="http://www.w3.org/2000/svg">
<path d="M17.5706 22.6934C16.5581 22.6934 15.3956 22.4309 14.1206 21.9434C11.5706 20.9309 8.7581 18.9809 6.2456 16.4684C3.7331 13.9559 1.7831 11.1434 0.770604 8.55589C-0.354396 5.78089 -0.241896 3.49339 1.0706 2.21839C1.1081 2.18089 1.1831 2.14339 1.2206 2.10589L4.3706 0.230889C5.1581 -0.219111 6.1706 0.00588924 6.6956 0.755889L8.9081 4.05589C9.4331 4.84339 9.2081 5.89339 8.4581 6.41839L7.1081 7.35589C8.0831 8.93089 10.8581 12.7934 15.2831 15.5684L16.1081 14.3684C16.7456 13.4684 17.7581 13.2059 18.5831 13.7684L21.8831 15.9809C22.6331 16.5059 22.8581 17.5184 22.4081 18.3059L20.5331 21.4559C20.4956 21.5309 20.4581 21.5684 20.4206 21.6059C19.7456 22.3184 18.7706 22.6934 17.5706 22.6934ZM2.1956 3.49339C1.4831 4.28089 1.5206 5.89339 2.3456 7.95589C3.2831 10.3184 5.0831 12.9059 7.4456 15.2684C9.7706 17.5934 12.3956 19.3934 14.7206 20.3309C16.7456 21.1559 18.3581 21.1934 19.1831 20.4809L20.9831 17.4059C20.9831 17.3684 20.9831 17.3684 20.9831 17.3309L17.6831 15.1184C17.6831 15.1184 17.6081 15.1559 17.5331 15.2684L16.7081 16.4684C16.1831 17.2184 15.1706 17.4434 14.4206 16.9559C9.6956 14.0309 6.7706 9.94339 5.7206 8.29339C5.2331 7.50589 5.4206 6.49339 6.1706 5.96839L7.5206 5.03089V4.99339L5.3081 1.69339C5.3081 1.65589 5.2706 1.65589 5.2331 1.69339L2.1956 3.49339Z" fill="#161A23"/>
<path d="M21.3206 10.0184C20.8706 10.0184 20.5331 9.6809 20.4956 9.2309C20.1956 5.4434 17.0831 2.4059 13.2581 2.1434C12.8081 2.1059 12.4331 1.7309 12.4706 1.2434C12.5081 0.793397 12.8831 0.418398 13.3706 0.455898C18.0206 0.755898 21.8081 4.4309 22.1831 9.0809C22.2206 9.5309 21.8831 9.9434 21.3956 9.9809C21.3956 10.0184 21.3581 10.0184 21.3206 10.0184Z" fill="#161A23"/>
<path d="M17.608 10.3559C17.1955 10.3559 16.8205 10.0559 16.783 9.60589C16.558 7.58089 14.983 6.00589 12.958 5.74339C12.508 5.70589 12.1705 5.25589 12.208 4.80589C12.2455 4.35589 12.6955 4.01839 13.1455 4.05589C15.958 4.39339 18.133 6.56839 18.4705 9.38089C18.508 9.83089 18.208 10.2434 17.7205 10.3184C17.6455 10.3559 17.608 10.3559 17.608 10.3559Z" fill="#161A23"/>
</svg>
