<svg width="24" height="24" viewBox="0 0 24 24" fill="none" xmlns="http://www.w3.org/2000/svg">
<path d="M18.225 22.8375C15.1875 22.8375 10.875 20.6625 6.89999 16.9125C1.49999 11.7375 -0.78751 5.96251 1.61249 3.41251C1.72499 3.30001 1.87499 3.18751 2.02499 3.11251L5.06249 1.38751C5.84999 0.937505 6.82499 1.16251 7.34999 1.91251L9.56249 5.06251C9.82499 5.43751 9.93749 5.88751 9.82499 6.33751C9.74999 6.75001 9.48749 7.12501 9.11249 7.38751L7.79999 8.25001C8.81249 9.71251 11.55 13.35 15.9 15.9375C15.9375 15.975 15.975 15.9375 15.975 15.9375L16.9125 14.6625C17.4375 13.95 18.45 13.7625 19.2375 14.25L22.5375 16.35C23.325 16.8375 23.55 17.85 23.0625 18.6375L21.2625 21.525C21.15 21.675 21.0375 21.825 20.925 21.9375C20.25 22.5375 19.3125 22.8375 18.225 22.8375ZM5.92499 2.85001C5.88749 2.85001 5.92499 2.85001 5.92499 2.85001L2.84999 4.57501C1.42499 6.11251 3.18749 11.025 8.09999 15.675C13.0875 20.4 18.225 22.0875 19.875 20.6625L21.675 17.775L18.375 15.675C18.3375 15.675 18.3 15.675 18.3 15.675L17.3625 16.95C16.8375 17.6625 15.825 17.85 15.075 17.4C10.3875 14.5875 7.46249 10.6875 6.41249 9.15001C6.14999 8.77501 6.07499 8.32501 6.14999 7.91251C6.22499 7.46251 6.48749 7.08751 6.86249 6.8625L8.17499 6.00001L5.99999 2.88751C5.96249 2.88751 5.92499 2.85001 5.92499 2.85001Z" fill="#161A23"/>
</svg>
