<svg width="24" height="24" viewBox="0 0 24 24" fill="none" xmlns="http://www.w3.org/2000/svg">
<g clip-path="url(#clip0_501_49640)">
<path d="M12.1875 4.42478L14.325 6.11228C14.775 6.44978 15.3375 6.67478 15.9375 6.67478C16.05 6.67478 16.1625 6.67478 16.275 6.63728C16.95 6.56228 17.5875 6.18728 17.9625 5.66228L18.525 4.91228C18.675 4.72478 18.8625 4.61228 19.0875 4.57478C19.3125 4.53728 19.575 4.61228 19.7625 4.76228L21.9 6.44978C22.275 6.74978 22.8 6.67478 23.1 6.29978C23.4 5.92478 23.325 5.39978 22.95 5.09978L20.8125 3.41228C20.2875 2.99978 19.575 2.81228 18.9 2.88728C18.225 2.96228 17.5875 3.33728 17.2125 3.86228L16.65 4.61228C16.5 4.79978 16.3125 4.91228 16.0875 4.94978C15.8625 4.98728 15.6 4.91228 15.4125 4.76228L13.275 3.07478C12.9 2.77478 12.375 2.84978 12.075 3.22478C11.775 3.59978 11.85 4.12478 12.1875 4.42478Z" fill="#161A23"/>
<path d="M22.5751 16.6499L19.2751 14.4374C18.4501 13.8749 17.4376 14.1374 16.8001 15.0374L15.9751 16.2374C11.5501 13.4624 8.77505 9.59988 7.80005 8.02488L9.15005 7.08738C9.90005 6.56238 10.1251 5.51238 9.60005 4.72488L7.38755 1.42488C6.86255 0.674881 5.85005 0.412381 5.06255 0.899881L1.87505 2.77488C1.83755 2.81238 1.76255 2.84988 1.72505 2.88738C0.412553 4.19988 0.337553 6.44988 1.42505 9.22488C2.43755 11.7749 4.38755 14.5874 6.90005 17.0999C9.41255 19.6124 12.1876 21.5624 14.7751 22.5749C16.0501 23.0999 17.2126 23.3249 18.2251 23.3249C19.4251 23.3249 20.4001 22.9874 21.1126 22.2749C21.1501 22.2374 21.2251 22.1624 21.2251 22.1249L23.1001 18.9749C23.5876 18.1874 23.3251 17.1374 22.5751 16.6499ZM21.6376 18.1124L19.8376 21.1874C19.0126 21.8999 17.4001 21.8624 15.3751 21.0374C13.0126 20.0999 10.4251 18.2999 8.06255 15.9374C5.73755 13.5749 3.93755 10.9499 3.00005 8.62488C2.17505 6.59988 2.13755 4.98738 2.85005 4.16238L5.92505 2.36238C5.92505 2.36238 5.96255 2.36238 6.00005 2.36238L8.21255 5.66238V5.69988L6.86255 6.63738C6.11255 7.16238 5.88755 8.17488 6.41255 8.96238C7.46255 10.5749 10.3876 14.6999 15.1126 17.6624C15.8626 18.1499 16.8751 17.9249 17.4001 17.1749L18.2251 15.9749C18.3001 15.8624 18.3751 15.8249 18.3751 15.8249L21.6751 18.0374C21.6376 18.0749 21.6751 18.0749 21.6376 18.1124Z" fill="#161A23"/>
</g>
<defs>
<clipPath id="clip0_501_49640">
<rect width="24" height="24" fill="white"/>
</clipPath>
</defs>
</svg>
