<svg width="24" height="24" viewBox="0 0 24 24" fill="none" xmlns="http://www.w3.org/2000/svg">
<g clip-path="url(#clip0_501_49596)">
<path d="M22.575 16.5L19.275 14.325C18.4875 13.8 17.475 13.9875 16.9125 14.7375L15.975 16.05C15.975 16.05 15.9375 16.05 15.9 16.05C15.225 15.6375 14.55 15.1875 13.9125 14.7C13.5375 14.4 13.0125 14.475 12.7125 14.85C12.4125 15.225 12.4875 15.75 12.8625 16.05C13.5375 16.575 14.2875 17.0625 15 17.5125C15.7875 18 16.8 17.8125 17.325 17.0625L18.2625 15.75H18.3L21.6375 17.925L19.8375 20.925C18.6 22.0125 15.0375 21.375 10.6875 18.075C10.3125 17.775 9.78748 17.85 9.48748 18.225C9.18748 18.6 9.26248 19.125 9.63748 19.425C12.825 21.825 15.8625 23.1 18.15 23.1C19.275 23.1 20.2125 22.8 20.925 22.2C21.0375 22.0875 21.15 21.9375 21.2625 21.7875L23.0625 18.7875C23.5875 18.0375 23.325 17.025 22.575 16.5Z" fill="#161A23"/>
<path d="M21.15 3.07503C20.8125 2.73753 20.2875 2.73753 19.95 3.07503L10.8375 11.9625C9.30003 10.35 8.28753 8.92503 7.76253 8.17503L9.11253 7.27503C9.48753 7.01253 9.75003 6.63753 9.82503 6.18753C9.90003 5.73753 9.82503 5.28753 9.56253 4.91253L7.35003 1.68753C6.82503 0.93753 5.85003 0.71253 5.06253 1.16253L1.98753 2.88753C1.83753 2.96253 1.72503 3.07503 1.61253 3.22503C-0.67497 5.70003 1.35003 11.2875 6.30003 16.425L2.88753 19.7625C2.55003 20.1 2.55003 20.625 2.88753 20.9625C3.03753 21.15 3.26253 21.225 3.48753 21.225C3.71253 21.225 3.90003 21.15 4.08753 21L21.15 4.31253C21.45 3.93753 21.45 3.37503 21.15 3.07503ZM2.85003 4.35003L5.88753 2.58753C5.88753 2.58753 5.92503 2.58753 5.96253 2.58753L8.17503 5.81253L6.82503 6.75003C6.07503 7.27503 5.85003 8.28753 6.37503 9.07503C6.90003 9.90003 8.02503 11.4375 9.63753 13.125L7.50003 15.225C3.03753 10.6125 1.46253 5.85003 2.85003 4.35003Z" fill="#161A23"/>
</g>
<defs>
<clipPath id="clip0_501_49596">
<rect width="24" height="24" fill="white"/>
</clipPath>
</defs>
</svg>
