<svg width="24" height="24" viewBox="0 0 24 24" fill="none" xmlns="http://www.w3.org/2000/svg">
<g clip-path="url(#clip0_501_49611)">
<path d="M23.475 4.98727L20.4375 1.79977C20.1 1.46227 19.575 1.46227 19.2375 1.76227C18.9 2.09977 18.9 2.62477 19.2 2.96227L20.8875 4.72477H15.675C15.225 4.72477 14.8125 5.09977 14.8125 5.58727C14.8125 6.07477 15.1875 6.44977 15.675 6.44977H20.8875L19.2 8.21227C18.8625 8.54977 18.9 9.07477 19.2375 9.41227C19.3875 9.56227 19.6125 9.63727 19.8 9.63727C20.025 9.63727 20.25 9.56227 20.4 9.37477L23.4375 6.18727C23.775 5.81227 23.775 5.28727 23.475 4.98727Z" fill="#161A23"/>
<path d="M22.575 16.6499L19.275 14.4374C18.45 13.8749 17.4375 14.1374 16.8 15.0374L15.975 16.2374C11.55 13.4624 8.77498 9.59988 7.79998 8.02488L9.14998 7.08738C9.89998 6.56238 10.125 5.51238 9.59998 4.72488L7.38748 1.42488C6.86248 0.674881 5.84998 0.412381 5.06248 0.899881L1.87498 2.77488C1.83748 2.81238 1.76248 2.84988 1.72498 2.88738C-0.82502 5.43738 1.46248 11.6624 6.89998 17.0999C9.41248 19.6124 12.1875 21.5624 14.775 22.5749C16.05 23.0999 17.2125 23.3249 18.225 23.3249C19.425 23.3249 20.4 22.9874 21.1125 22.2749C21.15 22.2374 21.225 22.1624 21.225 22.1249L23.1 18.9749C23.55 18.1874 23.325 17.1374 22.575 16.6499ZM21.6375 18.1124L19.8375 21.1874C19.0125 21.8999 17.4 21.8624 15.375 21.0374C13.0125 20.0999 10.425 18.2999 8.06248 15.9374C3.14998 10.9874 1.38748 5.81238 2.84998 4.16238L5.92498 2.36238C5.92498 2.36238 5.96248 2.36238 5.99998 2.36238L8.21248 5.66238V5.69988L6.86248 6.63738C6.11248 7.16238 5.88748 8.17488 6.41248 8.96238C7.46248 10.5749 10.3875 14.6999 15.1125 17.6624C15.8625 18.1499 16.875 17.9249 17.4 17.1749L18.225 15.9749C18.3 15.8624 18.375 15.8249 18.375 15.8249L21.675 18.0374C21.6375 18.0749 21.675 18.0749 21.6375 18.1124Z" fill="#161A23"/>
</g>
<defs>
<clipPath id="clip0_501_49611">
<rect width="24" height="24" fill="white"/>
</clipPath>
</defs>
</svg>
