<svg width="24" height="24" viewBox="0 0 24 24" fill="none" xmlns="http://www.w3.org/2000/svg">
<g clip-path="url(#clip0_501_49617)">
<path d="M14.3625 7.42506C14.8125 7.42506 15.225 7.05006 15.225 6.56256V5.88756L16.875 7.50006C17.025 7.65006 17.25 7.72506 17.4375 7.72506C17.6625 7.72506 17.85 7.65006 18 7.50006L23.0625 2.73756C23.4 2.40006 23.4 1.87506 23.1 1.53756C22.7625 1.20006 22.2375 1.20006 21.9 1.50006L17.475 5.73756L16.3875 4.68756H17.1C17.55 4.68756 17.9625 4.31256 17.9625 3.82506C17.9625 3.33756 17.55 3.00006 17.0625 3.00006H14.3625C13.9125 3.00006 13.5 3.37506 13.5 3.86256V6.60006C13.5 7.05006 13.9125 7.42506 14.3625 7.42506Z" fill="#161A23"/>
<path d="M22.35 16.575L19.0875 14.4C18.2625 13.875 17.25 14.1 16.6125 15L15.7875 16.2C11.4 13.4625 8.69998 9.63748 7.72498 8.09998L9.03748 7.19998C9.78748 6.67498 10.0125 5.62498 9.48748 4.83748L7.31248 1.57498C6.78748 0.824981 5.77498 0.599981 5.02498 1.04998L1.87498 2.84998C1.79998 2.88748 1.76248 2.92498 1.68748 2.96248C-0.862521 5.51248 1.34998 11.55 6.82498 17.025C9.29998 19.5 12.075 21.45 14.625 22.4625C15.9 22.95 17.0625 23.2125 18.0375 23.2125C19.2375 23.2125 20.2125 22.875 20.8875 22.1625C20.925 22.125 21 22.05 21 22.0125L22.8375 18.9C23.3625 18.1125 23.1 17.1 22.35 16.575ZM19.65 21.075C18.8625 21.7875 17.25 21.7125 15.2625 20.925C12.9375 19.9875 10.3875 18.1875 8.02498 15.8625C3.14998 10.9875 1.38748 5.88748 2.84998 4.23748L5.88748 2.43748H5.92498L8.09998 5.73748L6.74998 6.67498C5.99998 7.19998 5.81248 8.21248 6.29998 8.99998C7.34998 10.6125 10.2375 14.7 14.8875 17.5875C15.6375 18.075 16.65 17.85 17.175 17.1L18 15.9375C18.075 15.825 18.15 15.7875 18.15 15.7875L21.4125 17.9625C21.4125 17.9625 21.45 18 21.4125 18L19.65 21.075Z" fill="#161A23"/>
</g>
<defs>
<clipPath id="clip0_501_49617">
<rect width="24" height="24" fill="white"/>
</clipPath>
</defs>
</svg>
