<svg width="24" height="24" viewBox="0 0 24 24" fill="none" xmlns="http://www.w3.org/2000/svg">
<path d="M22.575 20.7L21.9 13.9125C21.7875 12.675 20.7375 11.7375 19.5 11.7375H4.49998C3.26248 11.7375 2.24998 12.675 2.09998 13.9125L1.42498 20.7C1.34998 21.375 1.57498 22.05 2.02498 22.5375C2.47498 23.025 3.11248 23.325 3.78748 23.325H20.1375C20.8125 23.325 21.45 23.025 21.9 22.5375C22.425 22.05 22.6125 21.375 22.575 20.7ZM20.7 21.4125C20.55 21.5625 20.3625 21.6375 20.175 21.6375H3.82498C3.63748 21.6375 3.44998 21.5625 3.29998 21.4125C3.14998 21.2625 3.11248 21.075 3.11248 20.85L3.78748 14.0625C3.82498 13.6875 4.12498 13.425 4.49998 13.425H19.5C19.875 13.425 20.175 13.6875 20.2125 14.0625L20.8875 20.85C20.8875 21.075 20.85 21.2625 20.7 21.4125Z" fill="#161A23"/>
<path d="M12 14.7375C10.4625 14.7375 9.1875 16.0125 9.1875 17.55C9.1875 19.125 10.4625 20.3625 12 20.3625C13.575 20.3625 14.8125 19.0875 14.8125 17.55C14.8125 16.0125 13.575 14.7375 12 14.7375ZM12 18.675C11.3625 18.675 10.875 18.15 10.875 17.55C10.875 16.9125 11.4 16.425 12 16.425C12.6375 16.425 13.125 16.95 13.125 17.55C13.125 18.1875 12.6375 18.675 12 18.675Z" fill="#161A23"/>
<path d="M2.28752 7.72505C2.36252 9.37505 3.78752 10.2375 4.76252 10.2375H7.38752H7.42502C8.62502 10.1625 9.82502 9.37505 9.82502 7.72505V7.01255C11.1 7.01255 13.5375 7.01255 14.775 7.01255V7.72505C14.775 9.37505 15.975 10.1625 17.175 10.2375H19.8375C20.85 10.2375 22.2375 9.37505 22.3125 7.72505C22.3125 7.61255 22.3125 6.26255 22.3125 6.18755C22.3125 6.15005 22.3125 6.11255 22.3125 6.07505C22.2 4.98755 21.825 4.08755 21.15 3.37505L21.1125 3.33755C20.1375 2.43755 19.0125 1.95005 18.15 1.65005C15.6 0.675049 12.4125 0.675049 12.2625 0.675049C10.0125 0.712549 8.58752 0.900049 6.41252 1.65005C5.51252 1.98755 4.38752 2.47505 3.41252 3.33755L3.37502 3.37505C2.70002 4.08755 2.32502 4.98755 2.21252 6.07505C2.21252 6.11255 2.21252 6.15005 2.21252 6.18755C2.25002 6.26255 2.28752 7.57505 2.28752 7.72505ZM4.61252 4.57505C5.36252 3.90005 6.26252 3.52505 7.01252 3.22505C8.96252 2.51255 10.2 2.40005 12.3 2.32505C12.4875 2.32505 15.3375 2.36255 17.5875 3.22505C18.375 3.52505 19.275 3.90005 19.9875 4.57505C20.3625 4.98755 20.5875 5.55005 20.6625 6.18755C20.6625 6.30005 20.6625 7.53755 20.6625 7.65005C20.625 8.43755 19.875 8.55005 19.875 8.55005H17.2875C16.9125 8.51255 16.5 8.36255 16.5 7.72505V6.18755C16.5 5.81255 16.275 5.47505 15.9 5.40005C15.6375 5.25005 9.00002 5.25005 8.73752 5.36255C8.40002 5.47505 8.13752 5.81255 8.13752 6.15005V7.72505C8.13752 8.36255 7.72502 8.51255 7.35002 8.55005H4.76252C4.76252 8.55005 4.01252 8.43755 3.97502 7.68755C3.97502 7.57505 3.97502 7.16255 3.97502 6.78755C3.97502 6.52505 3.97502 6.33755 3.97502 6.22505C4.01252 5.51255 4.23752 4.98755 4.61252 4.57505Z" fill="#161A23"/>
</svg>
