<svg width="24" height="24" viewBox="0 0 24 24" fill="none" xmlns="http://www.w3.org/2000/svg">
<g clip-path="url(#clip0_501_49558)">
<path d="M22.5375 16.65L19.2375 14.4375C18.4125 13.875 17.4 14.1375 16.7626 15.0375L15.9375 16.2375C11.5125 13.4625 8.73755 9.6 7.76255 8.025L9.11255 7.0875C9.86255 6.5625 10.0875 5.5125 9.56255 4.725L7.35005 1.425C6.82505 0.675003 5.81255 0.412503 5.02505 0.900003L1.87505 2.775C1.80005 2.8125 1.72505 2.85 1.68755 2.8875C0.375047 4.2 0.262547 6.45 1.38755 9.225C2.40005 11.775 4.35005 14.5875 6.86255 17.1C9.37505 19.6125 12.15 21.5625 14.7375 22.575C16.0125 23.1 17.175 23.325 18.1875 23.325C19.3876 23.325 20.3626 22.9875 21.0751 22.275C21.1126 22.2375 21.1875 22.1625 21.1875 22.125L23.0625 18.975C23.5126 18.15 23.2875 17.1375 22.5375 16.65ZM21.6 18.1125L19.8 21.1875C18.975 21.9 17.3626 21.8625 15.3376 21.0375C12.975 20.1 10.3875 18.3 8.02505 15.9375C5.66255 13.575 3.90005 10.95 2.96255 8.625C2.13755 6.6 2.10005 4.9875 2.81255 4.1625L5.88755 2.3625C5.92505 2.3625 5.92505 2.3625 5.92505 2.3625L8.13755 5.6625V5.7L6.78755 6.6375C6.03755 7.1625 5.81255 8.175 6.33755 8.9625C7.38755 10.575 10.3125 14.7 15.0375 17.6625C15.7875 18.15 16.8 17.925 17.3251 17.175L18.15 15.975C18.225 15.8625 18.3 15.825 18.3 15.825L21.6 18.0375C21.6 18.075 21.6375 18.075 21.6 18.1125Z" fill="#161A23"/>
<path d="M12.9 6.44995C13.4178 6.44995 13.8375 6.03022 13.8375 5.51245C13.8375 4.99468 13.4178 4.57495 12.9 4.57495C12.3823 4.57495 11.9625 4.99468 11.9625 5.51245C11.9625 6.03022 12.3823 6.44995 12.9 6.44995Z" fill="#161A23"/>
<path d="M17.175 6.44995C17.6928 6.44995 18.1125 6.03022 18.1125 5.51245C18.1125 4.99468 17.6928 4.57495 17.175 4.57495C16.6573 4.57495 16.2375 4.99468 16.2375 5.51245C16.2375 6.03022 16.6573 6.44995 17.175 6.44995Z" fill="#161A23"/>
<path d="M21.4501 6.44995C21.9678 6.44995 22.3876 6.03022 22.3876 5.51245C22.3876 4.99468 21.9678 4.57495 21.4501 4.57495C20.9323 4.57495 20.5126 4.99468 20.5126 5.51245C20.5126 6.03022 20.9323 6.44995 21.4501 6.44995Z" fill="#161A23"/>
</g>
<defs>
<clipPath id="clip0_501_49558">
<rect width="24" height="24" fill="white"/>
</clipPath>
</defs>
</svg>
