<svg width="24" height="24" viewBox="0 0 24 24" fill="none" xmlns="http://www.w3.org/2000/svg">
<g clip-path="url(#clip0_501_49571)">
<path d="M18.675 9.93752C19.875 9.93752 21 9.45002 21.8625 8.62502C23.625 6.86252 23.625 4.01252 21.8625 2.25002C21 1.38752 19.875 0.900024 18.675 0.900024C17.475 0.900024 16.35 1.38752 15.4875 2.21252C13.725 3.97502 13.725 6.82502 15.4875 8.58752C16.3125 9.45002 17.4375 9.93752 18.675 9.93752ZM20.6625 7.42502C20.1375 7.95002 19.425 8.25002 18.675 8.25002C18.225 8.25002 17.775 8.13752 17.3625 7.91252L21.15 4.12502C21.7125 5.17502 21.5625 6.52502 20.6625 7.42502ZM16.65 3.41252C17.175 2.88752 17.8875 2.58752 18.6375 2.58752C19.0875 2.58752 19.5375 2.70002 19.95 2.92502L16.1625 6.75002C15.6 5.66252 15.75 4.31252 16.65 3.41252Z" fill="#161A23"/>
<path d="M22.575 16.65L19.275 14.4375C18.45 13.875 17.4375 14.1375 16.8 15.0375L15.975 16.2375C11.55 13.4625 8.77498 9.6 7.79998 8.025L9.14998 7.0875C9.89998 6.5625 10.125 5.5125 9.59998 4.725L7.38748 1.425C6.86248 0.675003 5.84998 0.412503 5.06248 0.900003L1.87498 2.775C1.83748 2.8125 1.76248 2.85 1.72498 2.8875C-0.82502 5.4375 1.46248 11.6625 6.89998 17.1C9.41248 19.6125 12.1875 21.5625 14.775 22.575C16.05 23.1 17.2125 23.325 18.225 23.325C19.425 23.325 20.4 22.9875 21.1125 22.275C21.15 22.2375 21.225 22.1625 21.225 22.125L23.1 18.975C23.55 18.1875 23.325 17.1375 22.575 16.65ZM21.6375 18.1125L19.8375 21.1875C19.0125 21.9 17.4 21.8625 15.375 21.0375C13.0125 20.1 10.425 18.3 8.06248 15.9375C3.14998 10.9875 1.38748 5.8125 2.84998 4.1625L5.92498 2.3625C5.92498 2.3625 5.96248 2.3625 5.99998 2.3625L8.21248 5.6625V5.7L6.86248 6.6375C6.11248 7.1625 5.88748 8.175 6.41248 8.9625C7.46248 10.575 10.3875 14.7 15.1125 17.6625C15.8625 18.15 16.875 17.925 17.4 17.175L18.225 15.975C18.3 15.8625 18.375 15.825 18.375 15.825L21.675 18.0375C21.6375 18.075 21.675 18.075 21.6375 18.1125Z" fill="#161A23"/>
</g>
<defs>
<clipPath id="clip0_501_49571">
<rect width="24" height="24" fill="white"/>
</clipPath>
</defs>
</svg>
