<svg width="24" height="24" viewBox="0 0 24 24" fill="none" xmlns="http://www.w3.org/2000/svg">
<path d="M12 6.52507C18.225 6.52507 22.9875 9.11257 22.9875 12.0376C22.9875 14.9626 18.225 17.5876 12 17.5876C5.775 17.5876 1.0125 14.9626 1.0125 12.0376C1.0125 9.11257 5.775 6.52507 12 6.52507ZM12 5.88757C5.55 5.88757 0.375 8.62507 0.375 12.0001C0.375 15.3751 5.55 18.0751 12 18.0751C18.45 18.0751 23.625 15.3751 23.625 12.0001C23.625 8.62507 18.45 5.88757 12 5.88757ZM8.2875 11.5501C8.025 13.0126 6.975 12.8626 5.7375 12.8626L6.2625 10.2751C7.65 10.2751 8.55 10.1251 8.2875 11.5501ZM3.9 15.4501H5.25L5.55 13.8001C7.0125 13.8001 7.9875 13.9126 8.8125 13.1251C9.75 12.2251 10.0125 10.6876 9.3375 9.93757C8.9625 9.52507 8.4375 9.30007 7.65 9.30007H5.0625L3.9 15.4501ZM10.6875 7.68757H12L11.7 9.33757C12.825 9.33757 13.9125 9.30007 14.4375 9.75007C14.9625 10.2751 14.7 10.8751 14.175 13.8751H12.7875C13.3125 11.0251 13.425 10.7626 13.275 10.5376C13.125 10.3126 12.525 10.3126 11.475 10.3126L10.8 13.8751H9.4875L10.6875 7.68757ZM18.7125 11.5501C18.45 13.0126 17.4 12.8626 16.1625 12.8626L16.6875 10.2751C18.075 10.2751 18.975 10.1251 18.7125 11.5501ZM14.325 15.4501H15.6375L15.9375 13.8751C17.5125 13.8751 18.375 13.9876 19.2 13.2001C20.1375 12.3001 20.4 10.7626 19.725 10.0126C19.35 9.60007 18.825 9.37507 18.0375 9.37507H15.45L14.325 15.4501Z" fill="#15171A"/>
</svg>
