<svg width="24" height="24" viewBox="0 0 24 24" fill="none" xmlns="http://www.w3.org/2000/svg">
<g clip-path="url(#clip0_501_45084)">
<path d="M14.025 0.825095C7.87498 -0.262405 1.94998 3.8251 0.862478 9.9751C0.299978 12.9376 0.974978 15.9751 2.69998 18.4501C4.42498 20.9626 7.01248 22.6126 9.97498 23.1751C10.65 23.2876 11.325 23.3626 12 23.3626C17.3625 23.3626 22.1625 19.5001 23.175 14.0251C24.2625 7.8751 20.175 1.9501 14.025 0.825095ZM21.4875 13.7251C21.45 14.0251 21.375 14.3251 21.3 14.5876L12.825 11.4001V2.4001C13.125 2.4376 13.425 2.4751 13.6875 2.5126C18.9375 3.4501 22.425 8.47509 21.4875 13.7251ZM11.1375 2.4001V11.1751H2.39998C2.43748 10.8751 2.47498 10.5751 2.51248 10.2751C3.29998 5.8876 6.93748 2.7376 11.1375 2.4001ZM10.275 21.4876C7.72498 21.0376 5.54998 19.6126 4.08748 17.4751C3.11248 16.0876 2.54998 14.4751 2.39998 12.8251H11.85L20.7 16.1626C18.8625 19.9876 14.625 22.3126 10.275 21.4876Z" fill="#161A23"/>
</g>
<defs>
<clipPath id="clip0_501_45084">
<rect width="24" height="24" fill="white"/>
</clipPath>
</defs>
</svg>
