<svg width="24" height="24" viewBox="0 0 24 24" fill="none" xmlns="http://www.w3.org/2000/svg">
<g clip-path="url(#clip0_501_45119)">
<path d="M23.1 11.625C23.0625 11.175 22.6875 10.8375 22.275 10.8375H13.1625V2.13747C13.1625 1.68747 12.7875 1.31247 12.3375 1.31247C12.225 1.31247 12.1125 1.31247 12 1.31247C5.88752 1.27497 0.900024 6.22497 0.900024 12.3C0.900024 18.375 5.88752 23.325 12 23.325C18.1125 23.325 23.1 18.375 23.1 12.3C23.1 12.075 23.1 11.85 23.1 11.625ZM11.475 2.99997V11.2875L4.16252 17.475C3.15002 16.0125 2.58752 14.2125 2.58752 12.3C2.58752 7.34997 6.52502 3.26247 11.475 2.99997ZM12 21.675C9.33752 21.675 6.93752 20.5875 5.21252 18.825L12.6 12.5625H21.4125C21.3 17.5875 17.1375 21.675 12 21.675Z" fill="#161A23"/>
<path d="M19.7625 7.16245H17.25C16.8 7.16245 16.3875 7.53745 16.3875 8.02495C16.3875 8.51245 16.7625 8.88745 17.25 8.88745H18.7125V9.18745C18.7125 9.63745 19.0875 10.05 19.575 10.05C20.0625 10.05 20.4375 9.67495 20.4375 9.18745V8.77495C21.3375 8.51245 21.975 7.68745 21.975 6.67495C21.975 5.47495 21 4.49995 19.8 4.49995H18.6375C18.375 4.49995 18.15 4.27495 18.15 4.01245C18.15 3.74995 18.375 3.52495 18.6375 3.52495H21.15C21.6 3.52495 22.0125 3.14995 22.0125 2.66245C22.0125 2.17495 21.6375 1.79995 21.15 1.79995H20.4375V1.49995C20.4375 1.04995 20.0625 0.637451 19.575 0.637451C19.0875 0.637451 18.7125 1.01245 18.7125 1.49995V1.79995H18.6C17.4 1.79995 16.425 2.77495 16.425 3.97495C16.425 5.17495 17.4 6.14995 18.6 6.14995H19.7625C20.025 6.14995 20.25 6.37495 20.25 6.63745C20.25 6.93745 20.025 7.16245 19.7625 7.16245Z" fill="#161A23"/>
</g>
<defs>
<clipPath id="clip0_501_45119">
<rect width="24" height="24" fill="white"/>
</clipPath>
</defs>
</svg>
