<svg width="24" height="24" viewBox="0 0 24 24" fill="none" xmlns="http://www.w3.org/2000/svg">
<g clip-path="url(#clip0_501_48295)">
<path d="M14.7 2.43751C14.3625 2.36251 14.025 2.32501 13.65 2.28751V1.50001C13.65 1.05001 13.275 0.675012 12.825 0.637512C12.825 0.637512 12.825 0.637512 12.7875 0.637512C6.93755 0.675012 1.91255 4.83751 0.862549 10.6125C0.750049 11.325 0.675049 12.075 0.675049 12.7875C0.675049 13.2375 1.05005 13.65 1.53755 13.65H2.32505C2.70005 18.375 6.18755 22.3125 10.9125 23.175C11.55 23.2875 12.1875 23.3625 12.825 23.3625C14.925 23.3625 17.025 22.725 18.7875 21.4875C21.1125 19.875 22.65 17.475 23.175 14.7C24.1875 8.96251 20.3625 3.48751 14.7 2.43751ZM2.55005 10.9125C3.41255 6.22501 7.27505 2.73751 11.9625 2.36251V11.9625H3.15005H2.40005C2.43755 11.625 2.47505 11.25 2.55005 10.9125ZM21.4875 14.4C21.075 16.725 19.7625 18.75 17.8125 20.1C15.8625 21.45 13.5375 21.975 11.2125 21.525C7.27505 20.8125 4.38755 17.5875 4.01255 13.65H12.7875C13.2375 13.65 13.65 13.275 13.65 12.7875V4.01251C13.9125 4.05001 14.1375 4.05001 14.3625 4.12501C19.1625 4.98751 22.35 9.60001 21.4875 14.4Z" fill="#161A23"/>
</g>
<defs>
<clipPath id="clip0_501_48295">
<rect width="24" height="24" fill="white"/>
</clipPath>
</defs>
</svg>
