<svg width="24" height="24" viewBox="0 0 24 24" fill="none" xmlns="http://www.w3.org/2000/svg">
<path d="M12 10.2749C9.60002 10.2749 7.65002 12.2249 7.65002 14.6249C7.65002 15.8999 8.21252 17.0624 9.07502 17.8499L9.11252 17.8874L9.15002 17.9249C9.90002 18.5624 10.875 18.9749 11.9625 18.9749C14.3625 18.9749 16.3125 17.0249 16.3125 14.6249C16.3125 12.2249 14.4 10.2749 12 10.2749ZM14.5125 13.7624H12.8625V12.1124C13.6125 12.3749 14.25 12.9749 14.5125 13.7624ZM11.1375 12.1124V14.3249L9.71252 15.9749C9.48752 15.5999 9.33752 15.1124 9.33752 14.6249C9.33752 13.4624 10.125 12.4499 11.1375 12.1124ZM12 17.2499C11.625 17.2499 11.2875 17.1749 10.9875 17.0624L12.375 15.4499H14.475C14.1375 16.4999 13.1625 17.2499 12 17.2499Z" fill="#161A23"/>
<path d="M17.0625 3.52495H16.5V3.14995C16.5 2.28745 15.825 1.61245 15 1.61245H12.8625V1.49995C12.8625 1.04995 12.4875 0.637451 12 0.637451C11.55 0.637451 11.1375 1.01245 11.1375 1.49995V1.61245H9.00001C8.17501 1.61245 7.50001 2.28745 7.50001 3.14995V3.52495H6.93751C5.73751 3.52495 4.76251 4.53745 4.76251 5.73745V21.1124C4.76251 22.35 5.73751 23.325 6.93751 23.325H17.1C18.3 23.325 19.275 22.3125 19.275 21.1124V5.73745C19.2375 4.49995 18.2625 3.52495 17.0625 3.52495ZM9.18751 3.29995H14.8125V4.34995V5.39995H9.18751V3.29995ZM17.55 21.1124C17.55 21.4125 17.325 21.6375 17.0625 21.6375H6.93751C6.67501 21.6375 6.45001 21.4125 6.45001 21.1124V5.73745C6.45001 5.43745 6.67501 5.21245 6.93751 5.21245H7.50001V5.58745C7.50001 6.44995 8.17501 7.12495 9.00001 7.12495H15C15.825 7.12495 16.5 6.44995 16.5 5.58745V5.21245H17.1C17.3625 5.21245 17.5875 5.43745 17.5875 5.73745V21.1124H17.55Z" fill="#161A23"/>
</svg>
