<svg width="24" height="24" viewBox="0 0 24 24" fill="none" xmlns="http://www.w3.org/2000/svg">
<path d="M22.725 8.55005C22.275 8.43754 21.825 8.70005 21.675 9.11255C21.4875 9.71254 21.3 10.125 21.075 10.35C20.1 6.82505 16.2375 4.20004 11.6625 4.20004C10.725 4.20004 9.82499 4.31255 8.96249 4.53755C8.47499 3.86255 7.72499 3.37504 6.78749 3.07504C6.48749 2.96254 5.99999 2.88754 5.36249 2.85004C4.87499 2.77504 4.38749 2.96254 4.04999 3.37504C3.71249 3.78754 3.59999 4.31254 3.74999 4.83754L4.46249 7.20005L3.18749 9.00005L1.79999 9.37505C1.12499 9.56255 0.674988 10.2 0.674988 10.875V13.3875C0.674988 14.1 1.16249 14.7 1.79999 14.8875L3.11249 15.2625C3.67499 16.4625 4.61249 17.5125 5.77499 18.3L5.62499 19.425C5.54999 19.875 5.69999 20.325 5.99999 20.6625C6.29999 21 6.71249 21.1875 7.16249 21.1875H9.14999C9.67499 21.1875 10.125 20.925 10.425 20.5125L10.8 19.9875L14.3625 19.6875L14.85 20.4375C15.15 20.8875 15.6375 21.15 16.1625 21.15H18.1125C18.5625 21.15 18.975 20.9625 19.275 20.625C19.575 20.2875 19.725 19.8375 19.65 19.3875L19.35 16.9875C20.6625 15.6 21.3375 13.95 21.3375 12.1875C21.975 11.925 22.8 11.25 23.2875 9.56255C23.4375 9.15005 23.175 8.66255 22.725 8.55005ZM18.1125 15.8625L17.85 16.1625C17.6625 16.35 17.5875 16.6125 17.625 16.8375L17.9625 19.5H16.2L15.45 18.375C15.2625 18.1125 15 17.9625 14.6625 18L10.2 18.3375C9.93749 18.375 9.71249 18.4875 9.56249 18.7125L9.07499 19.5H7.31249L7.49999 18.0375C7.53749 17.7375 7.38749 17.4 7.16249 17.25L6.74999 16.95C5.81249 16.3125 5.09999 15.4875 4.64999 14.55L4.49999 14.2125C4.38749 13.9875 4.19999 13.8375 3.97499 13.7625L2.39999 13.3125V10.9875L3.97499 10.5375C4.16249 10.5 4.31249 10.3875 4.42499 10.2L6.11249 7.80005C6.26249 7.57505 6.29999 7.31254 6.22499 7.05005L5.43749 4.50004C6.07499 4.57504 6.29999 4.65004 6.37499 4.65004C6.97499 4.83754 7.42499 5.13754 7.68749 5.51254L8.02499 5.96254C8.21249 6.22504 8.58749 6.37504 8.92499 6.30004L9.48749 6.15004C10.2 5.96254 10.9875 5.88755 11.775 5.88755C16.1625 5.88755 19.725 8.70005 19.725 12.15C19.65 13.5 19.125 14.775 18.1125 15.8625Z" fill="#161A23"/>
<path d="M10.875 9.86255H13.4625C13.9125 9.86255 14.2875 9.48755 14.2875 9.03755C14.2875 8.58755 13.9125 8.21255 13.4625 8.21255H12.7125V7.87505C12.7125 7.42505 12.3375 7.05005 11.8875 7.05005C11.4375 7.05005 11.0625 7.42505 11.0625 7.87505V8.21255H10.875C9.6375 8.21255 8.625 9.22505 8.625 10.4625C8.625 11.7 9.6375 12.7125 10.875 12.7125H12.075C12.375 12.7125 12.6375 12.975 12.6375 13.275C12.6375 13.575 12.375 13.8375 12.075 13.8375H9.4875C9.0375 13.8375 8.6625 14.2125 8.6625 14.6625C8.6625 15.1125 9.0375 15.4875 9.4875 15.4875H11.0625V15.825C11.0625 16.275 11.4375 16.65 11.8875 16.65C12.3375 16.65 12.7125 16.275 12.7125 15.825V15.375C13.65 15.1125 14.325 14.25 14.325 13.2375C14.325 12 13.3125 10.9875 12.075 10.9875H10.875C10.575 10.9875 10.3125 10.725 10.3125 10.425C10.3125 10.125 10.575 9.86255 10.875 9.86255Z" fill="#161A23"/>
</svg>
