<svg width="24" height="24" viewBox="0 0 24 24" fill="none" xmlns="http://www.w3.org/2000/svg">
<path d="M22.725 9.11252C22.275 9.00002 21.825 9.26252 21.675 9.67502C21.4875 10.275 21.3 10.6875 21.075 10.9125C20.7 9.63752 19.9875 8.43752 18.9 7.42502C19.1625 6.93752 19.3125 6.37502 19.3125 5.77502C19.3125 3.78752 17.7 2.21252 15.75 2.21252C14.1375 2.21252 12.75 3.30002 12.3375 4.76252C12.15 4.76252 11.925 4.72502 11.7 4.72502C10.8 4.72502 9.89999 4.83752 8.99999 5.02502C8.51249 4.35002 7.79999 3.86252 6.82499 3.56252C6.52499 3.45002 6.07499 3.37502 5.39999 3.33752C4.87499 3.30002 4.34999 3.48752 4.01249 3.90002C3.71249 4.35002 3.59999 4.87502 3.74999 5.40002L4.46249 7.76252L3.18749 9.60002L1.79999 9.97502C1.12499 10.1625 0.674988 10.8 0.674988 11.475V13.9875C0.674988 14.7 1.16249 15.3 1.79999 15.4875L3.11249 15.8625C3.67499 17.0625 4.61249 18.1125 5.77499 18.9L5.62499 19.9875C5.54999 20.4375 5.69999 20.8875 5.99999 21.225C6.29999 21.5625 6.71249 21.75 7.16249 21.75H9.14999C9.67499 21.75 10.125 21.4875 10.425 21.075L10.8 20.55L14.3625 20.25L14.85 21C15.15 21.45 15.6375 21.7125 16.1625 21.7125H18.1125C18.5625 21.7125 18.975 21.525 19.275 21.1875C19.575 20.85 19.725 20.4 19.65 19.95L19.35 17.55C20.625 16.2 21.3375 14.55 21.3375 12.7875C21.975 12.525 22.8 11.8125 23.2875 10.125C23.4375 9.71252 23.175 9.22502 22.725 9.11252ZM15.75 3.93752C16.8 3.93752 17.625 4.80002 17.625 5.81252C17.625 6.86252 16.7625 7.68752 15.75 7.68752C14.7375 7.68752 13.875 6.82502 13.875 5.81252C13.875 4.76252 14.7 3.93752 15.75 3.93752ZM18.1125 16.425L17.85 16.725C17.6625 16.9125 17.5875 17.175 17.625 17.4L17.9625 20.0625H16.2375L15.4875 18.9375C15.3 18.675 15.0375 18.525 14.7 18.5625L10.2375 18.9375C9.97499 18.975 9.74999 19.0875 9.59999 19.3125L9.03749 20.1H7.27499L7.46249 18.6375C7.49999 18.3375 7.38749 18.0375 7.12499 17.85L6.71249 17.55C5.77499 16.9125 5.06249 16.0875 4.61249 15.15L4.46249 14.8125C4.34999 14.5875 4.16249 14.4375 3.93749 14.3625L2.32499 13.875V11.55L3.89999 11.1C4.08749 11.0625 4.23749 10.95 4.34999 10.7625L6.03749 8.36252C6.18749 8.13752 6.22499 7.87502 6.14999 7.61252L5.36249 5.02502C5.99999 5.10002 6.22499 5.17502 6.26249 5.17502C6.86249 5.36252 7.31249 5.66252 7.57499 6.03752L7.91249 6.48752C8.09999 6.75002 8.47499 6.90002 8.81249 6.82502L9.33749 6.67502C10.0875 6.48752 10.8375 6.41252 11.625 6.41252C11.8125 6.41252 12 6.41252 12.15 6.41252C12.45 8.06252 13.9125 9.33752 15.675 9.33752C16.4625 9.33752 17.175 9.07502 17.7375 8.66252C18.9375 9.78752 19.575 11.175 19.575 12.675C19.65 14.0625 19.125 15.3375 18.1125 16.425Z" fill="#161A23"/>
</svg>
