<svg width="24" height="24" viewBox="0 0 24 24" fill="none" xmlns="http://www.w3.org/2000/svg">
<path d="M13.9125 10.7625H13.5V9.93752C13.5 8.55002 12.375 7.46252 11.025 7.46252C9.675 7.46252 8.55 8.58752 8.55 9.93752V10.7625H8.1375C7.6875 10.7625 7.3125 11.1375 7.3125 11.5875V14.9625C7.3125 15.4125 7.6875 15.7875 8.1375 15.7875H13.9125C14.3625 15.7875 14.7375 15.4125 14.7375 14.9625V11.5875C14.7375 11.1375 14.3625 10.7625 13.9125 10.7625ZM10.2 9.93752C10.2 9.48752 10.575 9.15002 10.9875 9.15002C11.4 9.15002 11.775 9.52502 11.775 9.93752V10.7625H10.1625V9.93752H10.2ZM13.05 14.1375H8.9625V12.45H13.05V14.1375Z" fill="#161A23"/>
<path d="M22.725 8.55005C22.275 8.43754 21.825 8.70005 21.675 9.11255C21.4875 9.71254 21.3 10.125 21.075 10.35C20.1 6.82505 16.2375 4.20004 11.6625 4.20004C10.725 4.20004 9.82499 4.31255 8.96249 4.53755C8.47499 3.86255 7.76249 3.37504 6.78749 3.07504C6.48749 2.96254 5.99999 2.88754 5.36249 2.85004C4.87499 2.77504 4.38749 2.96254 4.04999 3.37504C3.71249 3.78754 3.59999 4.31254 3.74999 4.83754L4.46249 7.20005L3.18749 9.00005L1.79999 9.37505C1.12499 9.56255 0.674988 10.2 0.674988 10.875V13.3875C0.674988 14.1 1.16249 14.7 1.79999 14.8875L3.11249 15.2625C3.67499 16.4625 4.61249 17.5125 5.77499 18.3L5.62499 19.425C5.54999 19.875 5.69999 20.325 5.99999 20.6625C6.29999 21 6.71249 21.1875 7.16249 21.1875H9.14999C9.67499 21.1875 10.125 20.925 10.425 20.5125L10.8 19.9875L14.3625 19.6875L14.85 20.4375C15.15 20.8875 15.6375 21.15 16.1625 21.15H18.1125C18.5625 21.15 18.975 20.9625 19.275 20.625C19.575 20.2875 19.725 19.8375 19.65 19.3875L19.35 16.9875C20.625 15.6 21.3375 13.9875 21.3375 12.225C21.975 11.9625 22.8375 11.25 23.2875 9.56255C23.4375 9.15005 23.175 8.66255 22.725 8.55005ZM18.1125 15.8625L17.85 16.1625C17.6625 16.35 17.5875 16.6125 17.625 16.8375L17.9625 19.5H16.2L15.45 18.375C15.2625 18.1125 15 17.9625 14.6625 18L10.2 18.3375C9.93749 18.375 9.71249 18.4875 9.56249 18.7125L9.07499 19.5H7.31249L7.49999 18.0375C7.53749 17.7375 7.38749 17.4 7.16249 17.25L6.74999 16.95C5.81249 16.3125 5.09999 15.4875 4.64999 14.55L4.49999 14.2125C4.38749 13.9875 4.19999 13.8375 3.97499 13.7625L2.39999 13.3125V10.9875L3.97499 10.5375C4.16249 10.5 4.31249 10.3875 4.42499 10.2L6.11249 7.80005C6.26249 7.57505 6.29999 7.31254 6.22499 7.05005L5.43749 4.50004C6.07499 4.57504 6.29999 4.65004 6.37499 4.65004C6.97499 4.83754 7.42499 5.13754 7.68749 5.51254L8.02499 5.96254C8.21249 6.22504 8.58749 6.37504 8.92499 6.30004L9.48749 6.15004C10.2 5.96254 10.9875 5.88755 11.775 5.88755C16.1625 5.88755 19.725 8.70005 19.725 12.15C19.65 13.5 19.125 14.775 18.1125 15.8625Z" fill="#161A23"/>
</svg>
