<svg width="24" height="24" viewBox="0 0 24 24" fill="none" xmlns="http://www.w3.org/2000/svg">
<path d="M18.675 0.674988H10.6125C7.2375 0.674988 4.5 3.41249 4.5 6.74999C4.5 9.97499 6.975 12.6 10.125 12.825V22.5C10.125 22.95 10.5 23.3625 10.9875 23.3625C11.475 23.3625 11.85 22.9875 11.85 22.5V2.36249H15V22.5C15 22.95 15.375 23.3625 15.8625 23.3625C16.35 23.3625 16.725 22.9875 16.725 22.5V2.36249H18.7125C19.125 2.36249 19.5 1.94999 19.5 1.49999C19.5 1.04999 19.125 0.674988 18.675 0.674988ZM6.1875 6.74999C6.1875 4.49999 7.9125 2.58749 10.125 2.36249V11.1375C7.9125 10.9125 6.1875 9.03749 6.1875 6.74999Z" fill="#161A23"/>
</svg>
