<svg width="24" height="24" viewBox="0 0 24 24" fill="none" xmlns="http://www.w3.org/2000/svg">
<path d="M20.55 13.0125L18.1125 9.11245V2.99995C18.1125 1.72495 17.0625 0.637451 15.75 0.637451H8.25C6.975 0.637451 5.8875 1.68745 5.8875 2.99995V9.07495L3.45 13.0125C3.075 13.575 3.075 14.3249 3.4125 14.9249C3.75 15.5249 4.3875 15.9 5.0625 15.9H9.45L11.2125 22.7249C11.325 23.0999 11.6625 23.3624 12.0375 23.3624C12.4125 23.3624 12.75 23.0999 12.8625 22.7249L14.625 15.9H19.0125C19.6875 15.9 20.325 15.5249 20.6625 14.9249C20.925 14.2874 20.8875 13.575 20.55 13.0125ZM7.6125 2.99995C7.6125 2.62495 7.9125 2.32495 8.2875 2.32495H15.7875C16.1625 2.32495 16.4625 2.62495 16.4625 2.99995V8.47495H7.6125V2.99995ZM12 19.1249L11.175 15.9H12.825L12 19.1249ZM19.125 14.0999C19.0875 14.1374 19.05 14.2125 18.975 14.2125H5.1C5.025 14.2125 4.95 14.1749 4.95 14.0999C4.9125 14.0624 4.9125 13.9874 4.95 13.9124L7.275 10.2H16.8375L19.1625 13.9124C19.1625 13.9874 19.125 14.0249 19.125 14.0999Z" fill="#161A23"/>
</svg>
