<svg width="24" height="24" viewBox="0 0 24 24" fill="none" xmlns="http://www.w3.org/2000/svg">
<path d="M17.625 6.26245C17.625 3.14995 15.1125 0.637451 12 0.637451C8.8875 0.637451 6.375 3.14995 6.375 6.26245C6.375 9.07495 8.4375 11.4 11.1375 11.8125V22.4999C11.1375 22.9499 11.5125 23.3624 12 23.3624C12.45 23.3624 12.8625 22.9874 12.8625 22.4999V11.8125C15.525 11.4 17.625 9.07495 17.625 6.26245ZM12 10.2C9.825 10.2 8.0625 8.43745 8.0625 6.26245C8.0625 4.08745 9.825 2.32495 12 2.32495C14.175 2.32495 15.9375 4.08745 15.9375 6.26245C15.9375 8.43745 14.175 10.2 12 10.2Z" fill="#161A23"/>
<path d="M12.975 3.1875C11.8125 3.1875 10.8375 4.125 10.8375 5.325C10.8375 6.525 11.775 7.4625 12.975 7.4625C14.175 7.4625 15.1125 6.525 15.1125 5.325C15.1125 4.125 14.1375 3.1875 12.975 3.1875ZM12.975 5.7375C12.75 5.7375 12.525 5.55 12.525 5.2875C12.525 5.025 12.7125 4.8375 12.975 4.8375C13.2375 4.8375 13.425 5.025 13.425 5.2875C13.425 5.55 13.2 5.7375 12.975 5.7375Z" fill="#161A23"/>
</svg>
