<svg width="24" height="24" viewBox="0 0 24 24" fill="none" xmlns="http://www.w3.org/2000/svg">
<g clip-path="url(#clip0_914_45300)">
<path d="M0.675463 12.0376C0.750463 15.5251 2.36297 19.0126 5.10045 21.1126C5.96295 21.7501 6.90045 22.1251 7.87545 22.5376C7.46295 19.8751 8.47545 17.2126 9.03795 14.5876C9.11295 14.3251 9.15045 14.0251 9.15045 13.7251C9.15045 13.3126 9.00045 12.9001 8.88795 12.4876C8.77545 11.8126 8.85045 11.1001 9.15045 10.4626C9.56295 9.60011 10.538 8.92511 11.4005 9.26261C12.188 9.56261 12.488 10.6126 12.338 11.4376C12.188 12.3001 11.738 13.0501 11.513 13.8751C11.2505 14.7001 11.288 15.7126 11.888 16.2751C12.4505 16.8001 13.3505 16.8376 14.063 16.5376C15.113 16.0876 15.7879 15.0376 16.2004 13.9876C16.9504 12.0376 16.8004 9.56261 15.2629 8.13761C14.6255 7.50011 13.7255 7.08761 12.7505 6.93761C11.1005 6.67511 9.30045 7.16261 8.13795 8.36261C6.97545 9.56261 6.45045 11.4001 6.93795 12.9751C7.08795 13.5001 7.38795 14.0251 7.50045 14.5501C7.61295 15.0751 7.57545 15.7501 7.20045 16.1251C7.16295 16.1626 7.12545 16.2001 7.05045 16.2376C6.97545 16.2751 6.86295 16.2001 6.78795 16.1626C6.07545 15.7126 5.51295 15.0001 5.17545 14.2501C4.12545 11.9626 4.65045 9.11261 6.30045 7.23761C7.95045 5.36261 10.613 4.46261 13.0879 4.80011C15.4129 5.10011 17.7005 6.48761 18.6754 8.62511C19.2754 9.90011 19.388 11.3626 19.163 12.7501C18.938 14.1751 18.3755 15.5251 17.438 16.6126C16.5005 17.7001 15.1505 18.4501 13.7255 18.5251C12.563 18.6001 11.3255 18.1876 10.7255 17.2126C10.3505 19.2376 9.63795 21.2251 8.58795 22.9876C8.55045 23.0626 10.988 23.5876 11.213 23.5876C13.988 23.8126 16.9505 22.7251 19.1255 21.0001C25.1255 16.2376 24.4879 7.12511 18.563 2.62512C15.488 0.262618 11.8505 -0.187382 8.25045 1.08762C7.16295 1.46262 6.15045 2.10012 5.21295 2.77512C3.71296 3.90011 2.51296 5.36261 1.72546 7.05011C0.937963 8.58761 0.637963 10.3126 0.675463 12.0376Z" fill="#15171A"/>
</g>
<defs>
<clipPath id="clip0_914_45300">
<rect width="24" height="24" fill="white"/>
</clipPath>
</defs>
</svg>
