<svg width="24" height="24" viewBox="0 0 24 24" fill="none" xmlns="http://www.w3.org/2000/svg">
<path d="M12 0.675049C6.9375 0.675049 2.8125 4.80005 2.8125 9.86255C2.8125 16.9125 11.175 22.9501 11.5125 23.2125C11.6625 23.3251 11.8125 23.3625 12 23.3625C12.1875 23.3625 12.3375 23.3251 12.4875 23.2125C12.825 22.9501 21.1875 16.95 21.1875 9.86255C21.1875 4.80005 17.0625 0.675049 12 0.675049ZM12 21.4501C10.275 20.1 4.5 15.15 4.5 9.86255C4.5 5.73755 7.875 2.36255 12 2.36255C16.125 2.36255 19.5 5.73755 19.5 9.86255C19.5 15.15 13.725 20.0625 12 21.4501Z" fill="#161A23"/>
<path d="M15.1499 12.0376H11.9249C12.0374 11.7751 12.0749 11.4751 12.0749 11.1376V10.6876H14.5499C14.9999 10.6876 15.3749 10.3126 15.3749 9.86265C15.3749 9.41265 14.9999 9.03765 14.5499 9.03765H12.0749V8.28765C12.0749 7.65015 12.5999 7.12515 13.1999 7.12515C13.4999 7.12515 13.7624 7.23765 13.9874 7.42515C14.3249 7.76265 14.8499 7.72515 15.1874 7.38765C15.5249 7.05015 15.4874 6.52515 15.1499 6.18765C14.6249 5.66265 13.9124 5.40015 13.1999 5.40015C11.6249 5.40015 10.3874 6.67515 10.3874 8.25015V9.00015H9.1124C8.6624 9.00015 8.2874 9.37515 8.2874 9.82515C8.2874 10.2751 8.6624 10.6501 9.1124 10.6501H10.3874V11.1001C10.3874 11.5876 10.0124 12.0001 9.5249 12.0001H8.8499C8.3999 12.0001 8.0249 12.3751 8.0249 12.8251C8.0249 13.2751 8.3999 13.6501 8.8499 13.6501H15.1874C15.6374 13.6501 16.0124 13.2751 16.0124 12.8251C16.0124 12.3751 15.6374 12.0376 15.1499 12.0376Z" fill="#161A23"/>
</svg>
