<svg width="24" height="24" viewBox="0 0 24 24" fill="none" xmlns="http://www.w3.org/2000/svg">
<path d="M16.125 3.45005C15.3375 3.45005 14.5875 3.56255 13.875 3.82505C12.4875 2.77505 10.7625 2.17505 8.92495 2.17505C4.34995 2.17505 0.637451 5.88755 0.637451 10.4625C0.637451 14.8125 7.57495 21 8.36245 21.675C8.51245 21.825 8.73745 21.9 8.92495 21.9C9.11245 21.9 9.33745 21.825 9.48745 21.675C9.86245 21.375 11.475 19.9125 13.1625 18C14.4375 19.3875 15.525 20.325 15.6 20.3625C15.75 20.5125 15.975 20.5875 16.1625 20.5875C16.35 20.5875 16.575 20.5125 16.725 20.3625C17.4 19.7625 23.4 14.4375 23.4 10.65C23.325 6.67505 20.1 3.45005 16.125 3.45005ZM8.92495 19.875C6.67495 17.8125 2.32495 13.2375 2.32495 10.425C2.32495 6.78755 5.28745 3.82505 8.92495 3.82505C12.5625 3.82505 15.525 6.78755 15.525 10.425C15.525 13.2375 11.175 17.8125 8.92495 19.875ZM16.125 18.5625C15.675 18.15 14.9625 17.475 14.2125 16.65C15.7875 14.625 17.1749 12.3375 17.1749 10.3875C17.1749 8.40005 16.4625 6.56255 15.3 5.13755C15.5625 5.10005 15.825 5.06255 16.0875 5.06255C19.125 5.06255 21.6 7.53755 21.6 10.575C21.6749 12.975 18.075 16.7625 16.125 18.5625Z" fill="#161A23"/>
<path d="M8.9249 6.48755C6.7874 6.48755 5.0249 8.25005 5.0249 10.3875C5.0249 12.525 6.7874 14.2875 8.9249 14.2875C11.0624 14.2875 12.8249 12.525 12.8249 10.3875C12.8249 8.21255 11.0624 6.48755 8.9249 6.48755ZM8.9249 12.5625C7.7249 12.5625 6.7124 11.5875 6.7124 10.35C6.7124 9.11255 7.6874 8.13755 8.9249 8.13755C10.1624 8.13755 11.1374 9.11255 11.1374 10.35C11.1374 11.5875 10.1249 12.5625 8.9249 12.5625Z" fill="#161A23"/>
</svg>
