<svg width="24" height="24" viewBox="0 0 24 24" fill="none" xmlns="http://www.w3.org/2000/svg">
<path d="M12 0.675049C6.9375 0.675049 2.8125 4.80005 2.8125 9.86255C2.8125 16.9125 11.175 22.9501 11.5125 23.2125C11.6625 23.3251 11.8125 23.3625 12 23.3625C12.1875 23.3625 12.3375 23.3251 12.4875 23.2125C12.825 22.9501 21.1875 16.95 21.1875 9.86255C21.1875 4.80005 17.0625 0.675049 12 0.675049ZM12 21.4501C10.275 20.1 4.5 15.15 4.5 9.86255C4.5 5.73755 7.875 2.36255 12 2.36255C16.125 2.36255 19.5 5.73755 19.5 9.86255C19.5 15.15 13.725 20.0625 12 21.4501Z" fill="#161A23"/>
<path d="M13.875 5.51245H11.25C10.8 5.51245 10.425 5.88745 10.425 6.33745V11.7375H8.58745C8.13745 11.7375 7.76245 12.1125 7.76245 12.5625C7.76245 13.0125 8.13745 13.3875 8.58745 13.3875H10.425V15.1875C10.425 15.6375 10.8 16.0125 11.25 16.0125C11.7 16.0125 12.075 15.6375 12.075 15.1875V13.3875H13.9125C14.3625 13.3875 14.7375 13.0125 14.7375 12.5625C14.7375 12.1125 14.3625 11.7375 13.9125 11.7375H12.075V10.275H13.875C15.1875 10.275 16.275 9.18745 16.275 7.87495C16.275 6.56245 15.1875 5.51245 13.875 5.51245ZM13.875 8.58745H12.075V7.16245H13.875C14.25 7.16245 14.5875 7.46245 14.5875 7.87495C14.5875 8.28745 14.25 8.58745 13.875 8.58745Z" fill="#161A23"/>
</svg>
