<svg width="24" height="24" viewBox="0 0 24 24" fill="none" xmlns="http://www.w3.org/2000/svg">
<path d="M12 0.675049C6.9375 0.675049 2.8125 4.80005 2.8125 9.86255C2.8125 16.9125 11.175 22.9501 11.5125 23.2125C11.6625 23.3251 11.8125 23.3625 12 23.3625C12.1875 23.3625 12.3375 23.3251 12.4875 23.2125C12.825 22.9501 21.1875 16.95 21.1875 9.86255C21.1875 4.80005 17.0625 0.675049 12 0.675049ZM12 21.4501C10.275 20.1 4.5 15.15 4.5 9.86255C4.5 5.73755 7.875 2.36255 12 2.36255C16.125 2.36255 19.5 5.73755 19.5 9.86255C19.5 15.15 13.725 20.0625 12 21.4501Z" fill="#161A23"/>
<path d="M14.025 6.7125C14.475 6.7125 14.85 6.3375 14.85 5.8875C14.85 5.4375 14.475 5.0625 14.025 5.0625C12.0375 5.0625 10.275 6.2625 9.41255 7.9875H8.25005C7.80005 7.9875 7.42505 8.3625 7.42505 8.8125C7.42505 9.2625 7.80005 9.6375 8.25005 9.6375H8.88755C8.85005 9.825 8.85005 10.0125 8.85005 10.2C8.85005 10.5375 8.88755 10.8375 8.96255 11.175H8.25005C7.80005 11.175 7.42505 11.55 7.42505 12C7.42505 12.45 7.80005 12.825 8.25005 12.825H9.60005C10.5 14.325 12.15 15.3375 13.9875 15.3375C14.4375 15.3375 14.8125 14.9625 14.8125 14.5125C14.8125 14.0625 14.4375 13.6875 13.9875 13.6875C13.1625 13.6875 12.4125 13.3875 11.775 12.8625H13.125C13.575 12.8625 13.95 12.4875 13.95 12.0375C13.95 11.5875 13.575 11.2125 13.125 11.2125H10.6875C10.575 10.9125 10.5375 10.575 10.5375 10.2375C10.5375 10.05 10.575 9.8625 10.575 9.675H13.125C13.575 9.675 13.95 9.3 13.95 8.85C13.95 8.4 13.575 8.025 13.125 8.025H11.4375C12.075 7.2 13.05 6.7125 14.025 6.7125Z" fill="#161A23"/>
</svg>
