<svg width="24" height="24" viewBox="0 0 24 24" fill="none" xmlns="http://www.w3.org/2000/svg">
<path d="M12 0.675049C6.9375 0.675049 2.8125 4.80005 2.8125 9.86255C2.8125 16.9125 11.175 22.9501 11.5125 23.2125C11.6625 23.3251 11.8125 23.3625 12 23.3625C12.1875 23.3625 12.3375 23.3251 12.4875 23.2125C12.825 22.9501 21.1875 16.95 21.1875 9.86255C21.1875 4.80005 17.0625 0.675049 12 0.675049ZM12 21.4501C10.275 20.1 4.5 15.15 4.5 9.86255C4.5 5.73755 7.875 2.36255 12 2.36255C16.125 2.36255 19.5 5.73755 19.5 9.86255C19.5 15.15 13.725 20.0625 12 21.4501Z" fill="#161A23"/>
<path d="M11.3626 8.28755H14.2126C14.6626 8.28755 15.0376 7.91255 15.0376 7.46255C15.0376 7.01255 14.6626 6.63755 14.2126 6.63755H13.3126V6.18755C13.3126 5.73755 12.9376 5.36255 12.4876 5.36255C12.0376 5.36255 11.6626 5.73755 11.6626 6.18755V6.63755H11.4001C10.0876 6.63755 9.0376 7.68755 9.0376 9.00005C9.0376 10.3125 10.0876 11.3625 11.4001 11.3625H12.7126C13.0876 11.3625 13.3876 11.6625 13.3876 12.0375C13.3876 12.4125 13.0876 12.7125 12.7126 12.7125H9.8626C9.4126 12.7125 9.0376 13.0875 9.0376 13.5375C9.0376 13.9875 9.4126 14.3625 9.8626 14.3625H11.6251V14.8125C11.6251 15.2625 12.0001 15.6375 12.4501 15.6375C12.9001 15.6375 13.2751 15.2625 13.2751 14.8125V14.25C14.2876 13.9875 15.0376 13.05 15.0376 11.9625C15.0376 10.65 13.9876 9.60005 12.6751 9.60005H11.3626C10.9876 9.60005 10.6876 9.30005 10.6876 8.92505C10.6501 8.58755 10.9501 8.28755 11.3626 8.28755Z" fill="#161A23"/>
</svg>
