<svg width="24" height="24" viewBox="0 0 24 24" fill="none" xmlns="http://www.w3.org/2000/svg">
<path d="M15.8251 23.3624C15.7501 23.3624 15.6751 23.3624 15.6376 23.3249L12 22.4249L8.40005 23.3249C8.13755 23.4 7.87505 23.3249 7.68755 23.1749C7.50005 23.0249 7.35005 22.7624 7.35005 22.4999V20.5875C7.35005 20.3624 7.42505 20.1374 7.61255 19.9874L9.26255 18.3375V15.9374L2.66255 17.5875C2.40005 17.6625 2.13755 17.5875 1.95005 17.4375C1.76255 17.2874 1.61255 17.025 1.61255 16.7624V13.7999C1.61255 13.5374 1.72505 13.275 1.95005 13.1249L9.22505 7.68745V3.37495C9.22505 1.87495 10.4625 0.637451 11.9625 0.637451C13.4625 0.637451 14.7375 1.87495 14.7375 3.37495V7.68745L22.0501 13.1249C22.2751 13.275 22.3876 13.5374 22.3876 13.7999V16.7624C22.3876 17.025 22.2751 17.25 22.0501 17.4375C21.8251 17.625 21.5626 17.6625 21.3376 17.5875L14.7375 15.9374V18.3375L16.3876 19.9874C16.5376 20.1374 16.6501 20.3624 16.6501 20.5875V22.4999C16.6501 22.7624 16.5375 22.9874 16.3126 23.1749C16.2001 23.2874 16.0126 23.3624 15.8251 23.3624ZM12 20.6999C12.0751 20.6999 12.1501 20.6999 12.1875 20.7374L14.9626 21.4124V20.9249L13.3125 19.275C13.1625 19.125 13.05 18.9 13.05 18.6749V14.8875C13.05 14.625 13.1625 14.4 13.3876 14.2125C13.6126 14.025 13.875 13.9874 14.1 14.0624L20.7001 15.7125V14.2499L13.3876 8.81245C13.1625 8.66245 13.05 8.39995 13.05 8.13745V3.37495C13.05 2.81245 12.5625 2.32495 12 2.32495C11.4375 2.32495 10.9501 2.81245 10.9501 3.37495V8.09995C10.9501 8.36245 10.8375 8.62495 10.6125 8.77495L3.30005 14.2125V15.6749L9.90005 14.025C10.1625 13.95 10.425 14.0249 10.6125 14.1749C10.8 14.3249 10.9501 14.5874 10.9501 14.8499V18.6749C10.9501 18.9 10.875 19.125 10.6875 19.275L9.03755 20.9249V21.4124L11.8125 20.7374C11.85 20.6999 11.925 20.6999 12 20.6999Z" fill="#161A23"/>
</svg>
