<svg width="24" height="24" viewBox="0 0 24 24" fill="none" xmlns="http://www.w3.org/2000/svg">
<g clip-path="url(#clip0_501_49656)">
<path d="M13.875 23.3624C13.5375 23.3624 13.2 23.2125 12.975 22.9874L11.025 21C10.6125 20.5875 10.5375 19.9124 10.8375 19.4249L12.3375 17.025L9.78754 14.5124L5.40004 19.875C5.17504 20.1749 4.83754 20.3249 4.46254 20.3624C4.08754 20.4 3.75004 20.2499 3.48754 19.9874L1.05004 17.5499C0.600043 17.0999 0.562543 16.4249 0.900043 15.9374L4.98754 9.74995L3.37504 8.17495C2.06254 6.86245 2.10004 4.72495 3.41254 3.41245C4.05004 2.77495 4.87504 2.43745 5.77504 2.39995C6.71254 2.39995 7.53754 2.73745 8.17504 3.37495L9.75004 4.98745L15.8625 0.862449C16.3875 0.524949 17.0625 0.599949 17.475 1.01245L19.9125 3.44995C20.175 3.71245 20.2875 4.04995 20.2875 4.42495C20.2875 4.79995 20.1 5.13745 19.8 5.36245L14.475 9.78745L16.9875 12.3375L19.425 10.7999C19.95 10.4624 20.5875 10.5374 21.0375 10.9874L22.9875 12.9374C23.2875 13.2374 23.4 13.6124 23.3625 14.025C23.2875 14.4375 23.0625 14.7749 22.6875 14.9999L17.775 17.7374L15.0375 22.65C14.85 23.025 14.475 23.25 14.0625 23.3249C14.025 23.3249 13.95 23.3624 13.875 23.3624ZM12.45 20.025L13.8 21.4124L16.5 16.5374L21.375 13.8375L20.025 12.4499L17.5875 13.9874C17.0625 14.3249 16.3875 14.2499 15.975 13.7999L12.9375 10.6874C12.675 10.4249 12.5625 10.0874 12.5625 9.71245C12.6 9.33745 12.75 8.99995 13.05 8.77495L18.4125 4.38745L16.5375 2.47495L10.425 6.56245C9.90004 6.89995 9.22504 6.82495 8.77504 6.41245L6.97504 4.57495C6.67504 4.27495 6.26254 4.12495 5.81254 4.12495C5.36254 4.12495 4.91254 4.31245 4.61254 4.64995C3.93754 5.32495 3.93754 6.37495 4.57504 7.01245L6.41254 8.81245C6.86254 9.26245 6.90004 9.93745 6.56254 10.4624L2.47504 16.5749L4.35004 18.4874L8.73754 13.1249C8.96254 12.8249 9.30004 12.6749 9.67504 12.6374C10.05 12.6374 10.3875 12.7499 10.65 13.0124L13.725 16.0499C14.1375 16.4624 14.2125 17.1374 13.9125 17.6624L12.45 20.025Z" fill="#161A23"/>
</g>
<defs>
<clipPath id="clip0_501_49656">
<rect width="24" height="24" fill="white"/>
</clipPath>
</defs>
</svg>
