<svg width="24" height="24" viewBox="0 0 24 24" fill="none" xmlns="http://www.w3.org/2000/svg">
<g clip-path="url(#clip0_501_43619)">
<path d="M1.23751 8.4C1.42501 8.5125 1.65001 8.5875 1.83751 8.5875C2.02501 8.5875 2.25001 8.55 2.43751 8.4375L7.23751 5.8125C7.61251 5.5875 7.87501 5.2125 7.87501 4.7625C7.87501 4.3125 7.65001 3.9 7.23751 3.7125L2.43751 1.0875C2.06251 0.862501 1.61251 0.900001 1.23751 1.0875C0.862512 1.3125 0.637512 1.6875 0.637512 2.1375V7.425C0.675012 7.7625 0.862512 8.175 1.23751 8.4ZM2.36251 2.8875L5.66251 4.725L2.36251 6.5625V2.8875Z" fill="#161A23"/>
<path d="M22.5 6.1125H11.5125C11.0625 6.1125 10.65 6.4875 10.65 6.975C10.65 7.4625 11.025 7.8375 11.5125 7.8375H22.5C22.95 7.8375 23.3625 7.4625 23.3625 6.975C23.3625 6.4875 22.95 6.1125 22.5 6.1125Z" fill="#161A23"/>
<path d="M11.5125 2.5875H22.5C22.95 2.5875 23.3625 2.2125 23.3625 1.725C23.3625 1.2375 22.9875 0.862503 22.5 0.862503H11.5125C11.0625 0.862503 10.65 1.2375 10.65 1.725C10.65 2.2125 11.0625 2.5875 11.5125 2.5875Z" fill="#161A23"/>
<path d="M22.4625 11.325H1.50001C1.05001 11.325 0.637512 11.7 0.637512 12.1875C0.637512 12.675 1.01251 13.0125 1.50001 13.0125H22.4625C22.9125 13.0125 23.325 12.6375 23.325 12.1875C23.325 11.7375 22.9125 11.325 22.4625 11.325Z" fill="#161A23"/>
<path d="M22.4625 16.5H1.50001C1.05001 16.5 0.637512 16.875 0.637512 17.3625C0.637512 17.85 1.01251 18.225 1.50001 18.225H22.4625C22.9125 18.225 23.325 17.85 23.325 17.3625C23.325 16.875 22.9125 16.5 22.4625 16.5Z" fill="#161A23"/>
<path d="M22.4625 21.7125H1.50001C1.05001 21.7125 0.637512 22.0875 0.637512 22.575C0.637512 23.0625 1.01251 23.4375 1.50001 23.4375H22.4625C22.9125 23.4375 23.325 23.0625 23.325 22.575C23.325 22.0875 22.9125 21.7125 22.4625 21.7125Z" fill="#161A23"/>
</g>
<defs>
<clipPath id="clip0_501_43619">
<rect width="24" height="24" fill="white"/>
</clipPath>
</defs>
</svg>
