<svg width="24" height="24" viewBox="0 0 24 24" fill="none" xmlns="http://www.w3.org/2000/svg">
<g clip-path="url(#clip0_501_43615)">
<path d="M22.2 18.225L17.4 15.6C17.025 15.375 16.575 15.4125 16.2 15.6C15.825 15.825 15.6 16.2 15.6 16.65V21.9375C15.6 22.3875 15.825 22.7625 16.2 22.9875C16.3875 23.1 16.6125 23.175 16.8 23.175C16.9875 23.175 17.2125 23.1375 17.4 23.025L22.2 20.4C22.575 20.175 22.8375 19.8 22.8375 19.35C22.8375 18.8625 22.6125 18.45 22.2 18.225ZM17.325 21.1125V17.475L20.625 19.3125L17.325 21.1125Z" fill="#161A23"/>
<path d="M1.5 17.8875H12.4875C12.9375 17.8875 13.35 17.5125 13.35 17.025C13.35 16.5375 12.975 16.1625 12.4875 16.1625H1.5C1.05 16.1625 0.637497 16.5375 0.637497 17.025C0.637497 17.5125 1.05 17.8875 1.5 17.8875Z" fill="#161A23"/>
<path d="M12.525 21.45H1.5375C1.0875 21.45 0.675003 21.825 0.675003 22.3125C0.675003 22.8 1.05 23.175 1.5375 23.175H12.525C12.975 23.175 13.3875 22.8 13.3875 22.3125C13.3875 21.825 13.0125 21.45 12.525 21.45Z" fill="#161A23"/>
<path d="M22.5 10.9875H1.5375C1.0875 10.9875 0.675003 11.3625 0.675003 11.85C0.675003 12.3375 1.05 12.7125 1.5375 12.7125H22.5C22.95 12.7125 23.3625 12.3375 23.3625 11.85C23.3625 11.3625 22.95 10.9875 22.5 10.9875Z" fill="#161A23"/>
<path d="M22.5 5.8125H1.5375C1.0875 5.8125 0.675003 6.1875 0.675003 6.675C0.675003 7.1625 1.05 7.5375 1.5375 7.5375H22.5C22.95 7.5375 23.3625 7.1625 23.3625 6.675C23.3625 6.1875 22.95 5.8125 22.5 5.8125Z" fill="#161A23"/>
<path d="M1.5375 2.2875H22.5C22.95 2.2875 23.3625 1.9125 23.3625 1.425C23.3625 0.9375 22.9875 0.5625 22.5 0.5625H1.5375C1.0875 0.5625 0.675003 0.9375 0.675003 1.425C0.675003 1.9125 1.0875 2.2875 1.5375 2.2875Z" fill="#161A23"/>
</g>
<defs>
<clipPath id="clip0_501_43615">
<rect width="24" height="24" fill="white"/>
</clipPath>
</defs>
</svg>
