<svg width="24" height="24" viewBox="0 0 24 24" fill="none" xmlns="http://www.w3.org/2000/svg">
<path fill-rule="evenodd" clip-rule="evenodd" d="M22.1773 11.326C22.0477 11.152 21.8811 11.0187 21.7071 10.9262C21.5331 10.8336 20.4003 10.1857 19.3415 9.57116C18.8121 9.2676 18.2975 8.96771 17.9162 8.74189C17.7237 8.63085 17.5682 8.5383 17.4571 8.47534L17.2831 8.37169L12.6851 5.721L8.44252 3.27021C6.28789 2.03 4.07404 0.749081 3.82969 0.6084H3.82601C3.6446 0.501041 3.42618 0.412188 3.21145 0.386276C3.1078 0.375168 3.00043 0.367764 2.88937 0.386276H2.87827L2.86716 0.393678C2.85976 0.393678 2.85235 0.39738 2.84865 0.401081H2.82644C2.70057 0.419595 2.5821 0.467722 2.48214 0.55287C2.10453 0.767591 1.875 1.18963 1.875 1.64128V22.4841C1.875 22.8284 2.02308 23.1949 2.31185 23.4207C2.45993 23.5799 2.67835 23.6502 2.88937 23.6169H2.9338C3.17073 23.6169 3.41507 23.5614 3.62609 23.4392C3.83711 23.3171 6.10279 22.0065 8.31293 20.7293L12.6851 18.2007L17.1831 15.6019C17.1831 15.6019 17.2054 15.5908 17.2165 15.5833L17.2757 15.5538H17.2868L17.3053 15.5389H17.3312L17.3757 15.4945H17.3794C17.6792 15.3205 21.1999 13.2955 21.696 13.0104C22.0699 12.792 22.3994 12.4218 22.392 11.9442C22.3883 11.7073 22.3032 11.4963 22.1773 11.326ZM9.62719 5.44335L12.0372 6.83531L15.8911 9.06026L13.8883 11.052L6.30641 3.52565C7.38371 4.14761 8.598 4.84729 9.62719 5.44335ZM3.17073 2.22992L12.9776 11.9627L3.17073 21.6918V2.22992ZM12.0372 17.0864L9.67163 18.4525C8.64244 19.0448 7.42072 19.7482 6.3138 20.3887L13.8883 12.8549L15.9059 14.8615L12.0372 17.0864ZM17.3201 14.0433C17.2165 14.1025 17.1276 14.1544 17.061 14.1914L14.799 11.9627L17.0462 9.73035C17.3312 9.89696 17.9014 10.2264 18.6936 10.6855C19.5821 11.2001 20.4891 11.7221 20.9112 11.959C20.267 12.3292 18.216 13.525 17.3201 14.0433Z" fill="#15171A"/>
</svg>
