<svg width="24" height="24" viewBox="0 0 24 24" fill="none" xmlns="http://www.w3.org/2000/svg">
<path d="M22.181 11.2534C22.0493 11.0741 21.8738 10.9241 21.6726 10.818C21.5043 10.7266 20.3922 10.0938 19.3387 9.47917C18.8156 9.18289 18.3071 8.88656 17.9303 8.66344L17.6962 8.5281C17.6121 8.47688 17.5353 8.43296 17.4767 8.40004L8.56928 3.25313C6.98535 2.34227 5.36846 1.40946 4.54541 0.933908L4.01134 0.622969L3.97841 0.608336C3.76988 0.49128 3.54674 0.410801 3.34555 0.388853C3.23581 0.37422 3.11509 0.366904 2.99072 0.388853L2.96145 0.396169C2.96145 0.396169 2.94682 0.399825 2.94316 0.399825H2.93219C2.77123 0.425434 2.63588 0.48762 2.54077 0.568099C2.13107 0.805875 1.875 1.26314 1.875 1.76429V22.3593C1.875 22.769 2.05425 23.1568 2.34324 23.3799C2.48956 23.5372 2.69807 23.625 2.89926 23.625C2.9395 23.625 2.97608 23.6213 3.01266 23.6177H3.05656C3.33092 23.6177 3.59064 23.5482 3.81011 23.4201C4.01865 23.2994 6.2574 22.0045 8.44125 20.7424L17.1804 15.6906C17.206 15.6796 17.228 15.6687 17.2316 15.6614L17.2682 15.6467L17.3377 15.6321L17.4072 15.5662C17.7401 15.3724 21.1787 13.397 21.6653 13.1153C22.1518 12.8337 22.4261 12.4057 22.4188 11.9411C22.4151 11.696 22.3347 11.4582 22.181 11.2534ZM17.0378 13.9933L14.9746 11.963L17.0231 9.92914C17.2243 10.0462 17.528 10.2218 17.9157 10.4449L18.5595 10.818C19.3131 11.2534 20.0776 11.696 20.5422 11.9594C20.1288 12.2008 19.4558 12.5922 18.79 12.98C18.1827 13.3311 17.5865 13.6787 17.2024 13.9018L17.0378 13.9933ZM7.28895 4.30301C8.07544 4.75661 8.8839 5.22484 9.60086 5.6382L15.6367 9.12435L13.8808 10.8693L7.23409 4.27373L7.28895 4.30301ZM3.42969 21.2472V2.67516L12.7871 11.963L3.42969 21.2472ZM9.64478 18.2549C8.90584 18.6829 8.06449 19.1658 7.2414 19.6413L13.8808 13.0385L15.6513 14.798L9.64478 18.2549Z" fill="#15171A"/>
</svg>
