<svg width="24" height="24" viewBox="0 0 24 24" fill="none" xmlns="http://www.w3.org/2000/svg">
<path d="M14.5497 5.8875V11.475C16.9122 12.6375 18.7497 11.475 18.7497 8.475C18.7497 5.4 17.6247 4.05 14.4747 2.925C13.1997 2.5125 10.8747 1.8 9.26221 1.5V18.225L13.0497 19.425V5.4375C13.0497 4.7625 13.3497 4.3125 13.8372 4.5C14.3997 4.6125 14.5497 5.25 14.5497 5.8875Z" fill="#15171A"/>
<path d="M22.0506 13.275C20.4756 12.7125 18.4506 12.4875 16.8381 12.6375C15.1881 12.7875 14.0256 13.2 14.0256 13.2L13.7631 13.3125V15.5625L17.8131 14.1375C18.4881 13.875 19.5006 13.8375 20.0631 14.025C20.6256 14.175 20.5506 14.55 19.8381 14.8125L13.7256 16.9125V19.125L22.0131 16.1625C22.0131 16.1625 23.1381 15.75 23.5881 15.15C24.0381 14.6625 23.8506 13.875 22.0506 13.275Z" fill="#15171A"/>
<path d="M1.01238 14.55C0.187375 15.1875 0.487376 16.2375 2.32488 16.7625C4.27489 17.4 6.26239 17.55 8.13739 17.25C8.24989 17.25 8.39989 17.2125 8.51239 17.2125V15.2625L6.59989 15.9375C5.92489 16.2 4.91239 16.2375 4.34989 16.05C3.78739 15.9 3.86239 15.525 4.61239 15.2625L8.51239 13.875V11.625L3.07488 13.575C3.11238 13.5375 1.79988 13.95 1.01238 14.55Z" fill="#15171A"/>
</svg>
