<svg width="24" height="24" viewBox="0 0 24 24" fill="none" xmlns="http://www.w3.org/2000/svg">
<path d="M16.9875 4.46251H15.7125V1.50001C15.7125 1.05001 15.3375 0.637512 14.85 0.637512C14.3625 0.637512 13.9875 1.01251 13.9875 1.50001V4.46251H9.975V1.50001C9.975 1.05001 9.6 0.637512 9.1125 0.637512C8.625 0.637512 8.25 1.01251 8.25 1.50001V4.46251H6.975C6.1125 4.46251 5.3625 5.17501 5.3625 6.07501V10.725C5.3625 13.4625 7.6125 15.7125 10.35 15.7125H11.1V22.5C11.1 22.95 11.475 23.3625 11.9625 23.3625C12.4125 23.3625 12.825 22.9875 12.825 22.5V15.7125H13.575C16.3125 15.7125 18.5625 13.4625 18.5625 10.725V6.07501C18.5625 5.17501 17.85 4.46251 16.9875 4.46251ZM16.875 10.725C16.875 12.5625 15.375 14.025 13.575 14.025H10.425C8.5875 14.025 7.125 12.525 7.125 10.725V6.15001H16.875V10.725Z" fill="#161A23"/>
</svg>
