<svg width="24" height="24" viewBox="0 0 24 24" fill="none" xmlns="http://www.w3.org/2000/svg">
<g clip-path="url(#clip0_501_43556)">
<path d="M22.5 11.175H12.8625V1.50001C12.8625 1.05001 12.4875 0.637512 12 0.637512C11.55 0.637512 11.1375 1.01251 11.1375 1.50001V11.175H1.50001C1.05001 11.175 0.637512 11.55 0.637512 12.0375C0.637512 12.4875 1.01251 12.9 1.50001 12.9H11.175V22.5C11.175 22.95 11.55 23.3625 12.0375 23.3625C12.4875 23.3625 12.9 22.9875 12.9 22.5V12.8625H22.5C22.95 12.8625 23.3625 12.4875 23.3625 12C23.3625 11.55 22.95 11.175 22.5 11.175Z" fill="#161A23"/>
</g>
<defs>
<clipPath id="clip0_501_43556">
<rect width="24" height="24" fill="white"/>
</clipPath>
</defs>
</svg>
