<svg width="25" height="24" viewBox="0 0 25 24" fill="none" xmlns="http://www.w3.org/2000/svg">
<path d="M20.775 6.22505L15.6 1.12505C15.3 0.825049 14.8875 0.675049 14.475 0.675049H5.47499C4.19999 0.675049 3.11249 1.72505 3.11249 3.03755V11.85C3.11249 12.3 3.48749 12.7125 3.97499 12.7125C4.46249 12.7125 4.83749 12.3375 4.83749 11.85V3.00005C4.83749 2.62505 5.13749 2.32505 5.51249 2.32505H13.9875V7.12505C13.9875 7.57505 14.3625 7.98755 14.85 7.98755H19.6125V11.625C19.6125 12.075 19.9875 12.4875 20.475 12.4875C20.9625 12.4875 21.3375 12.1125 21.3375 11.625V7.35005C21.225 6.93755 21.075 6.52505 20.775 6.22505ZM15.6375 3.52505L18.45 6.30005H15.6375V3.52505Z" fill="#161A23"/>
<path d="M20.4 19.425C19.95 19.425 19.5375 19.8 19.5375 20.2875V21.0375C19.5375 21.4125 19.2375 21.7125 18.8625 21.7125H5.47501C5.10001 21.7125 4.80001 21.4125 4.80001 21.0375V20.5125C4.80001 20.0625 4.42501 19.65 3.93751 19.65C3.45001 19.65 3.07501 20.025 3.07501 20.5125V21C3.07501 22.275 4.12501 23.3625 5.43751 23.3625H18.825C20.1 23.3625 21.1875 22.3125 21.1875 21V20.25C21.225 19.8 20.85 19.425 20.4 19.425Z" fill="#161A23"/>
<path d="M5.81251 19.6125C6.26251 19.6125 6.67501 19.2375 6.67501 18.75V16.5H8.51251C8.96251 16.5 9.37501 16.125 9.37501 15.6375V13.1625C9.37501 12.7125 9.00001 12.3 8.51251 12.3H5.85001C5.40001 12.3 4.98751 12.675 4.98751 13.1625V18.75C4.95001 19.2375 5.32501 19.6125 5.81251 19.6125ZM6.63751 14.0625H7.61251V14.85H6.63751V14.0625Z" fill="#161A23"/>
<path d="M11.55 18.7876V17.0626L12.4875 19.1251C12.6375 19.4251 12.9375 19.6126 13.2375 19.6126C13.3125 19.6126 13.35 19.6126 13.425 19.5751C13.8 19.5001 14.1 19.1626 14.1 18.7501V13.2001C14.1 12.7501 13.725 12.3376 13.2375 12.3376C12.75 12.3376 12.375 12.7126 12.375 13.2001V14.9251L11.4375 12.8626C11.2875 12.4876 10.875 12.3001 10.5 12.3751C10.125 12.4501 9.82501 12.7876 9.82501 13.2001V18.7876C9.82501 19.2376 10.2 19.6501 10.6875 19.6501C11.175 19.6501 11.55 19.2376 11.55 18.7876Z" fill="#161A23"/>
<path d="M18.7125 14.0626C19.1625 14.0626 19.575 13.6876 19.575 13.2001C19.575 12.7126 19.2 12.3376 18.7125 12.3376H15.6375C15.1875 12.3376 14.775 12.7126 14.775 13.2001V18.7876C14.775 19.2376 15.15 19.6501 15.6375 19.6501H18.75C19.2 19.6501 19.6125 19.2751 19.6125 18.7876V16.0126C19.6125 15.5626 19.2375 15.1501 18.75 15.1501H17.55C17.1 15.1501 16.6875 15.5251 16.6875 16.0126C16.6875 16.5001 17.0625 16.8751 17.55 16.8751H17.925V17.9626H16.4625V14.0626H18.7125Z" fill="#161A23"/>
</svg>
