<svg width="24" height="24" viewBox="0 0 24 24" fill="none" xmlns="http://www.w3.org/2000/svg">
<path d="M13.8 23.325C13.2375 23.325 12.7125 23.175 12.2625 22.875C12.075 22.725 11.85 22.575 11.7 22.3875C11.1375 21.75 10.7625 20.8125 10.65 19.7625C10.575 19.125 10.6125 18.525 10.65 17.925C9.82502 18 8.96252 17.7 8.32502 17.1375C7.27502 17.4 6.07502 17.0625 5.32502 16.2375C4.80002 16.35 4.23752 16.3125 3.67502 16.125C2.85002 15.825 2.17502 15.1875 1.87502 14.4C1.61252 13.7625 1.61252 13.0875 1.61252 12.4875C1.61252 11.25 1.57502 9.9375 1.65002 8.6625C1.72502 6.9 1.98752 4.6125 3.33752 3C4.42502 1.6875 6.11252 0.899996 8.28752 0.637496C10.1625 0.449996 12.8625 0.674996 14.6625 1.6125C16.3875 2.5125 17.5125 4.8375 18.075 5.9625C18.15 6.1125 18.225 6.3 18.2625 6.375C19.35 8.175 20.325 9.6 21.2625 10.8C21.75 11.4375 22.35 12.225 22.3875 13.2375C22.3875 14.3625 21.6 15.45 20.475 15.825C19.575 16.125 18.5625 16.0125 17.5875 15.4875C17.4 15.375 17.175 15.2625 16.9875 15.15C16.9875 16.5375 16.9875 17.9625 16.95 19.35C16.9125 20.1 16.875 20.8125 16.575 21.525C16.2 22.35 15.4875 22.95 14.625 23.2125C14.3625 23.2875 14.0625 23.325 13.8 23.325ZM12.9375 21.2625C13.0125 21.3375 13.0875 21.4125 13.2 21.4875C13.4625 21.675 13.8375 21.7125 14.175 21.6C14.5875 21.4875 14.925 21.1875 15.075 20.85C15.2625 20.4375 15.3 19.9125 15.3 19.3125C15.375 17.325 15.3375 15.3 15.3 13.35C15.3 13.0125 15.4875 12.7125 15.7875 12.5625C16.0875 12.4125 16.4625 12.4875 16.6875 12.7125C17.2125 13.2 17.775 13.6875 18.3375 14.025C18.9 14.325 19.4625 14.4 19.9125 14.25C20.2875 14.1375 20.6625 13.725 20.6625 13.3125C20.6625 12.8625 20.2875 12.375 19.9125 11.8875C18.9 10.6125 17.925 9.15 16.8 7.3125C16.725 7.2 16.65 7.0125 16.5375 6.7875C16.125 5.925 15.1125 3.8625 13.875 3.225C12.375 2.4 10.0125 2.25 8.47502 2.4C7.27502 2.5125 5.62502 2.925 4.65002 4.1625C3.60002 5.4 3.37502 7.3125 3.33752 8.8125C3.30002 10.05 3.30002 11.325 3.30002 12.525C3.30002 13.0125 3.30002 13.4625 3.45002 13.8375C3.56252 14.175 3.86252 14.4375 4.23752 14.55C4.57502 14.6625 4.91252 14.6625 5.17502 14.5125C5.36252 14.4 5.58752 14.3625 5.81252 14.4375C6.03752 14.5125 6.22502 14.625 6.33752 14.85C6.67502 15.4875 7.57502 15.75 8.17502 15.4125C8.55002 15.225 9.00002 15.3375 9.26252 15.675C9.67502 16.2375 10.5375 16.425 11.1 16.05C11.3625 15.9 11.7 15.8625 11.9625 16.0125C12.225 16.1625 12.4125 16.4625 12.4125 16.7625C12.4125 17.1375 12.375 17.5125 12.375 17.8875C12.3375 18.4875 12.3 19.05 12.3375 19.6125C12.375 20.2875 12.6 20.8875 12.9375 21.2625Z" fill="#161A23"/>
</svg>
