<svg width="24" height="24" viewBox="0 0 24 24" fill="none" xmlns="http://www.w3.org/2000/svg">
<path d="M14.4001 23.325C12.7126 23.325 10.7625 23.025 9.33755 22.275C7.61255 21.375 6.48755 19.05 5.92505 17.925C5.85005 17.775 5.77505 17.5875 5.73755 17.5125C4.65005 15.7125 3.67505 14.2875 2.73755 13.0875C2.25005 12.45 1.65005 11.6625 1.61255 10.65C1.61255 9.525 2.40005 8.4375 3.52505 8.0625C4.42505 7.7625 5.43755 7.875 6.41255 8.4C6.60005 8.5125 6.82505 8.625 7.01255 8.7375C7.01255 7.35 7.01255 5.925 7.05005 4.5375C7.08755 3.7875 7.12505 3.0375 7.42505 2.3625C7.80005 1.5375 8.51255 0.9375 9.37505 0.675C10.2 0.45 11.0625 0.5625 11.775 1.0125C12 1.1625 12.1876 1.3125 12.3376 1.5C12.9376 2.1375 13.2751 3.075 13.3876 4.125C13.4626 4.7625 13.4251 5.3625 13.3876 5.9625C14.2126 5.8875 15.0751 6.1875 15.7126 6.75C16.7626 6.4875 17.9626 6.825 18.7126 7.65C19.2376 7.5375 19.8001 7.575 20.3626 7.7625C21.1875 8.0625 21.8626 8.7 22.1625 9.4875C22.4251 10.125 22.4251 10.8 22.4251 11.4C22.4251 12.6375 22.4626 13.9125 22.3876 15.225C22.3126 16.9875 22.0501 19.275 20.7001 20.8875C19.6126 22.2 17.9251 22.9875 15.7501 23.25C15.3 23.325 14.8501 23.325 14.4001 23.325ZM4.50005 9.675C4.35005 9.675 4.20005 9.7125 4.05005 9.75C3.67505 9.8625 3.30005 10.275 3.30005 10.6875C3.30005 11.1375 3.67505 11.625 4.05005 12.1125C5.06255 13.3875 6.03755 14.85 7.16255 16.6875C7.23755 16.8 7.31255 16.9875 7.42505 17.2125C7.83755 18.075 8.85005 20.1375 10.0875 20.775C11.5875 21.5625 13.9501 21.75 15.5251 21.5625C16.7251 21.4125 18.375 21.0375 19.35 19.8C20.3626 18.5625 20.5876 16.65 20.6251 15.15C20.6625 13.9125 20.6625 12.6375 20.6625 11.4375C20.6625 10.9875 20.6625 10.5 20.5126 10.125C20.4001 9.7875 20.1 9.525 19.725 9.4125C19.3876 9.3 19.0501 9.3 18.7875 9.45C18.6 9.5625 18.3751 9.6 18.1501 9.525C17.9251 9.45 17.7376 9.3375 17.625 9.1125C17.2875 8.475 16.3875 8.2125 15.7875 8.55C15.4125 8.7375 14.9626 8.625 14.7001 8.2875C14.2875 7.725 13.425 7.5375 12.8625 7.9125C12.6 8.0625 12.2626 8.1 12 7.95C11.7375 7.8 11.55 7.5 11.55 7.2C11.55 6.825 11.5875 6.45 11.5875 6.075C11.625 5.475 11.6625 4.9125 11.625 4.35C11.55 3.675 11.325 3.075 10.9875 2.7C10.9125 2.625 10.8375 2.55 10.725 2.475C10.4625 2.2875 10.0876 2.25 9.75005 2.3625C9.33755 2.475 9.00005 2.775 8.85005 3.1125C8.66255 3.525 8.62505 4.05 8.62505 4.65C8.55005 6.6375 8.58755 8.625 8.62505 10.6125C8.62505 10.95 8.43755 11.25 8.13755 11.4C7.87505 11.55 7.50005 11.5125 7.27505 11.25C6.75005 10.7625 6.18755 10.275 5.62505 9.9375C5.21255 9.75 4.83755 9.675 4.50005 9.675Z" fill="#161A23"/>
</svg>
