<svg width="24" height="24" viewBox="0 0 24 24" fill="none" xmlns="http://www.w3.org/2000/svg">
<g clip-path="url(#clip0_501_43569)">
<path d="M12.45 23.3625C11.85 23.3625 11.2875 23.025 10.9875 22.4625L0.862523 3.07499C0.525023 2.43749 0.637523 1.64999 1.16252 1.16249C1.68752 0.637493 2.43752 0.524993 3.11252 0.862493L22.5 11.025C23.1 11.325 23.4375 11.925 23.4 12.6C23.3625 13.2375 22.95 13.8 22.35 14.0625L16.3875 16.3875L14.0625 22.35C13.8375 22.95 13.275 23.3625 12.6 23.4C12.525 23.325 12.4875 23.3625 12.45 23.3625ZM2.40002 2.39999L12.45 21.6L14.8875 15.375C14.9625 15.15 15.15 14.9625 15.375 14.8875L21.6375 12.45L2.40002 2.39999Z" fill="#161A23"/>
</g>
<defs>
<clipPath id="clip0_501_43569">
<rect width="24" height="24" fill="white"/>
</clipPath>
</defs>
</svg>
