<svg width="24" height="24" viewBox="0 0 24 24" fill="none" xmlns="http://www.w3.org/2000/svg">
<path d="M13.2375 22.3875C12.6375 22.3875 12.0375 22.3875 11.4375 22.3875C10.8375 22.3875 10.2 22.3875 9.52498 22.125C8.73748 21.825 8.09998 21.1875 7.79998 20.325C7.61248 19.7625 7.57498 19.2 7.68748 18.675C6.89998 17.8875 6.52498 16.725 6.78748 15.675C6.22498 15.0375 5.96248 14.175 5.99998 13.35C5.39998 13.3875 4.79998 13.425 4.16248 13.35C3.11248 13.2375 2.17498 12.8625 1.53748 12.3C1.34998 12.1125 1.19998 11.925 1.04998 11.7375C0.599976 11.0625 0.487476 10.2 0.712476 9.33751C0.974976 8.43751 1.57498 7.72501 2.39998 7.38751C3.11248 7.08751 3.82498 7.01251 4.57498 7.01251C5.96248 6.97501 7.38748 6.97501 8.77498 6.97501C8.66248 6.78751 8.51248 6.60001 8.43748 6.37501C7.91248 5.40001 7.79998 4.38751 8.09998 3.48751C8.47498 2.36251 9.56248 1.57501 10.6875 1.57501C11.7 1.57501 12.4875 2.21251 13.125 2.70001C14.3625 3.63751 15.75 4.61251 17.55 5.70001C17.5875 5.73751 17.775 5.81251 17.9625 5.88751C19.0875 6.41251 21.375 7.53751 22.3125 9.30001C23.2875 11.1375 23.5125 13.8375 23.2875 15.675C23.0625 17.85 22.2375 19.5375 20.925 20.625C19.3125 21.975 17.025 22.2375 15.2625 22.3125C14.5875 22.3875 13.9125 22.3875 13.2375 22.3875ZM7.19998 11.625C7.49998 11.625 7.79998 11.775 7.94998 12.075C8.09998 12.3375 8.09998 12.675 7.91248 12.9375C7.53748 13.5 7.72498 14.3625 8.28748 14.775C8.62498 15.0375 8.73748 15.4875 8.54998 15.8625C8.21248 16.4625 8.51248 17.325 9.11248 17.7C9.29998 17.8125 9.44998 18 9.52498 18.225C9.59998 18.45 9.56248 18.675 9.44998 18.8625C9.29998 19.125 9.26248 19.4625 9.41248 19.8C9.52498 20.175 9.82498 20.4375 10.125 20.5875C10.5 20.7375 10.9875 20.7375 11.4375 20.7375C12.675 20.7375 13.9125 20.775 15.15 20.7C16.65 20.625 18.5625 20.4375 19.8 19.425C21 18.4125 21.4125 16.8 21.5625 15.6C21.75 14.025 21.5625 11.6625 20.775 10.2C20.1 8.96251 18.075 7.95001 17.2125 7.53751C16.95 7.42501 16.8 7.35001 16.6875 7.27501C14.8125 6.15001 13.3875 5.13751 12.1125 4.16251C11.625 3.78751 11.1375 3.41251 10.6875 3.41251C10.2375 3.41251 9.86248 3.78751 9.74998 4.16251C9.59998 4.61251 9.67498 5.17501 9.97498 5.73751C10.275 6.33751 10.8 6.86251 11.2875 7.38751C11.5125 7.65001 11.5875 7.98751 11.4375 8.28751C11.2875 8.58751 10.9875 8.77501 10.65 8.77501C8.69998 8.73751 6.67498 8.73751 4.68748 8.77501C4.08748 8.77501 3.56248 8.81251 3.14998 9.00001C2.81248 9.15001 2.51248 9.48751 2.39998 9.90001C2.28748 10.275 2.32498 10.6125 2.51248 10.875C2.58748 10.95 2.66248 11.0625 2.73748 11.1375C3.11248 11.475 3.71248 11.7 4.38748 11.775C4.94998 11.8125 5.51248 11.775 6.11248 11.7375C6.44998 11.625 6.82498 11.625 7.19998 11.625Z" fill="#161A23"/>
</svg>
