<svg width="24" height="24" viewBox="0 0 24 24" fill="none" xmlns="http://www.w3.org/2000/svg">
<path d="M23.2124 9.33751C22.9499 8.43751 22.3499 7.72501 21.5249 7.38751C20.8124 7.08751 20.0999 7.01251 19.3499 7.01251C17.9624 6.97501 16.5374 6.97501 15.1499 6.97501C15.2624 6.78751 15.4124 6.60001 15.4874 6.37501C16.0124 5.40001 16.1249 4.38751 15.8249 3.48751C15.4499 2.36251 14.3999 1.57501 13.2749 1.57501H13.2374C12.2249 1.57501 11.4374 2.21251 10.7999 2.70001C9.59994 3.63751 8.17494 4.61251 6.37494 5.70001C6.33744 5.73751 6.14994 5.81251 5.96244 5.88751C4.83744 6.41251 2.54994 7.53751 1.61244 9.30001C0.637442 11.1375 0.412442 13.8375 0.637442 15.675C0.862442 17.85 1.68744 19.5375 2.99994 20.625C4.61244 21.975 6.89994 22.2375 8.66244 22.3125C9.33744 22.35 10.0124 22.35 10.6874 22.35C11.2874 22.35 11.8874 22.35 12.4874 22.35C13.0874 22.35 13.7249 22.35 14.3999 22.0875C15.1874 21.7875 15.8249 21.15 16.1249 20.2875C16.3124 19.725 16.3499 19.1625 16.2374 18.6375C17.0249 17.8875 17.3999 16.6875 17.1374 15.6375C17.6999 15 17.9624 14.1375 17.9249 13.3125C18.5249 13.35 19.1249 13.3875 19.7624 13.3125C20.8124 13.2 21.7499 12.825 22.3874 12.2625C22.5749 12.075 22.7249 11.8875 22.8749 11.7C23.3249 11.0625 23.4749 10.2 23.2124 9.33751ZM21.4874 10.8C21.4124 10.875 21.3374 10.9875 21.2624 11.0625C20.8874 11.4 20.2874 11.625 19.6124 11.7C19.0499 11.7375 18.4874 11.7 17.8874 11.6625C17.5124 11.625 17.1374 11.625 16.7624 11.625C16.4624 11.625 16.1624 11.775 16.0124 12.075C15.8624 12.3375 15.8624 12.675 16.0499 12.9375C16.4249 13.5 16.2374 14.3625 15.6749 14.775C15.3374 15.0375 15.2249 15.4875 15.4124 15.8625C15.7499 16.4625 15.4499 17.325 14.8499 17.7C14.6624 17.8125 14.5124 18 14.4374 18.225C14.3624 18.45 14.3999 18.675 14.5124 18.8625C14.6624 19.125 14.6999 19.4625 14.5499 19.8C14.4374 20.175 14.1374 20.4375 13.8374 20.5875C13.4624 20.7375 12.9749 20.7375 12.5249 20.7375C11.2874 20.7375 10.0499 20.775 8.81244 20.7C7.31244 20.625 5.39994 20.4375 4.16244 19.425C2.96244 18.4125 2.54994 16.8 2.39994 15.6C2.24994 13.9875 2.39994 11.625 3.18744 10.125C3.86244 8.88751 5.88744 7.87501 6.74994 7.46251C7.01244 7.35001 7.16244 7.27501 7.27494 7.20001C9.14994 6.07501 10.5749 5.06251 11.8499 4.08751C12.3374 3.71251 12.8249 3.33751 13.2749 3.33751C13.7249 3.33751 14.0999 3.71251 14.2124 4.08751C14.3624 4.53751 14.2874 5.10001 13.9874 5.66251C13.6874 6.26251 13.1624 6.78751 12.6749 7.31251C12.4499 7.57501 12.3749 7.91251 12.5249 8.21251C12.6749 8.51251 12.9749 8.73751 13.3124 8.70001C15.2624 8.66251 17.2874 8.66251 19.2749 8.70001C19.8749 8.70001 20.3999 8.73751 20.8124 8.92501C21.1499 9.07501 21.4499 9.41251 21.5624 9.82501C21.7124 10.1625 21.6749 10.5375 21.4874 10.8Z" fill="#161A23"/>
</svg>
