<svg width="24" height="24" viewBox="0 0 24 24" fill="none" xmlns="http://www.w3.org/2000/svg">
<path d="M21.0001 1.875H3.00005C1.72505 1.875 0.675049 2.925 0.675049 4.2V16.5C0.675049 17.775 1.72505 18.825 3.00005 18.825H8.47505L11.0625 21.975C11.2875 22.35 11.625 22.5 12 22.5C12.375 22.5 12.7126 22.35 12.9376 22.05L15.5251 18.9H21.0001C22.2751 18.9 23.3251 17.85 23.3251 16.575V4.2375C23.3251 2.925 22.2751 1.875 21.0001 1.875ZM21.6751 16.5375C21.6751 16.9125 21.3751 17.2125 21.0001 17.2125H15.4875C15.0751 17.2125 14.6625 17.3625 14.3625 17.6625C14.3251 17.7 14.325 17.7 14.2875 17.7375L12 20.55L9.71255 17.7375C9.67505 17.7 9.67505 17.7 9.63755 17.6625C9.33755 17.3625 8.96255 17.2125 8.51255 17.2125H3.00005C2.62505 17.2125 2.32505 16.9125 2.32505 16.5375V4.2375C2.32505 3.8625 2.62505 3.5625 3.00005 3.5625H21.0001C21.3751 3.5625 21.6751 3.8625 21.6751 4.2375V16.5375Z" fill="#161A23"/>
<path d="M6.45 7.38755H16.7625C17.2125 7.38755 17.5875 7.01255 17.5875 6.56255C17.5875 6.11255 17.2125 5.73755 16.7625 5.73755H6.45C6 5.73755 5.625 6.11255 5.625 6.56255C5.625 7.01255 6 7.38755 6.45 7.38755Z" fill="#161A23"/>
<path d="M6.45 11.25H13.9125C14.3625 11.25 14.7375 10.875 14.7375 10.425C14.7375 9.97498 14.3625 9.59998 13.9125 9.59998H6.45C6 9.59998 5.625 9.97498 5.625 10.425C5.625 10.875 6 11.25 6.45 11.25Z" fill="#161A23"/>
<path d="M17.7375 13.3875H6.45C6 13.3875 5.625 13.7625 5.625 14.2125C5.625 14.6625 6 15.0375 6.45 15.0375H17.7375C18.1875 15.0375 18.5625 14.6625 18.5625 14.2125C18.5625 13.7625 18.1875 13.3875 17.7375 13.3875Z" fill="#161A23"/>
</svg>
