<svg width="24" height="24" viewBox="0 0 24 24" fill="none" xmlns="http://www.w3.org/2000/svg">
<path d="M19.3875 22.125H4.61251C3.22501 22.125 2.21251 21 2.21251 19.4625V19.3875L2.58751 14.325C1.65001 13.95 0.937512 13.05 0.900012 11.9625L0.675012 6.975C0.637512 6.225 0.900012 5.5125 1.38751 4.9875C1.87501 4.4625 2.55001 4.1625 3.26251 4.1625H8.58751C8.73751 2.8875 9.86251 1.875 11.175 1.875H12.825C14.175 1.875 15.2625 2.8875 15.4125 4.2H20.7375C21.45 4.2 22.125 4.5 22.6125 5.025C23.1 5.55 23.3625 6.2625 23.325 7.0125L23.1 12C23.0625 13.0125 22.4625 13.875 21.6 14.25L21.975 19.4625C21.975 20.925 20.8125 22.125 19.3875 22.125ZM3.90001 19.5C3.90001 19.725 3.97501 20.4375 4.61251 20.4375H19.35C19.8375 20.4375 20.25 20.025 20.2875 19.5L19.9125 14.5125H15.8625C15.525 15.4875 14.625 16.1625 13.5375 16.1625H10.4625C9.41251 16.1625 8.47501 15.4875 8.13751 14.5125H4.27501L3.90001 19.5ZM10.4625 12.8625C10.05 12.8625 9.67501 13.2375 9.67501 13.6875C9.67501 14.1375 10.0125 14.5125 10.4625 14.5125H13.5375C13.95 14.5125 14.325 14.1375 14.325 13.6875C14.325 13.2375 13.9875 12.8625 13.5375 12.8625H10.4625ZM15.8625 12.825H20.475C20.9625 12.825 21.375 12.4125 21.4125 11.925L21.675 6.9375C21.675 6.675 21.6 6.4125 21.4125 6.225C21.225 6.0375 21 5.925 20.775 5.925H3.26251C3.00001 5.8875 2.77501 6 2.62501 6.1875C2.43751 6.375 2.36251 6.6375 2.36251 6.9L2.62501 11.8875C2.66251 12.4125 3.03751 12.7875 3.56251 12.7875H8.17501C8.51251 11.8125 9.41251 11.1375 10.5 11.1375H13.575C14.5875 11.175 15.525 11.85 15.8625 12.825ZM10.3125 4.2H13.6875C13.575 3.825 13.2375 3.5625 12.825 3.5625H11.175C10.7625 3.5625 10.425 3.825 10.3125 4.2Z" fill="#161A23"/>
</svg>
