<svg width="24" height="24" viewBox="0 0 24 24" fill="none" xmlns="http://www.w3.org/2000/svg">
<path d="M20.325 21.1875H3.67499C2.43749 21.1875 1.42499 20.2125 1.31249 19.0125L0.674991 9.9C0.637491 9.2625 0.862491 8.5875 1.31249 8.1375C1.61249 7.8 2.02499 7.575 2.43749 7.4625V5.2125C2.43749 3.9 3.48749 2.85 4.79999 2.85H7.68749C7.91249 2.85 8.13749 2.925 8.28749 3.1125L10.0125 4.8H19.2375C20.55 4.8 21.6 5.85 21.6 7.1625V7.4625C22.05 7.575 22.425 7.8 22.725 8.1375C23.175 8.625 23.4 9.2625 23.3625 9.9L22.6875 19.0125C22.575 20.2125 21.5625 21.1875 20.325 21.1875ZM2.99999 9.0375C2.81249 9.0375 2.62499 9.1125 2.51249 9.2625C2.39999 9.4125 2.32499 9.5625 2.32499 9.7875L2.99999 18.8625C3.03749 19.2375 3.33749 19.5 3.67499 19.5H20.325C20.6625 19.5 20.9625 19.2375 21 18.8625L21.6375 9.75C21.6375 9.5625 21.6 9.375 21.45 9.225C21.3375 9.075 21.15 9 20.9625 9H2.99999V9.0375ZM4.12499 7.35H19.875V7.125C19.875 6.75 19.575 6.45 19.2 6.45H9.63749C9.41249 6.45 9.18749 6.375 9.03749 6.1875L7.34999 4.5H4.79999C4.42499 4.5 4.12499 4.8 4.12499 5.175V7.35Z" fill="#161A23"/>
</svg>
