<svg width="24" height="24" viewBox="0 0 24 24" fill="none" xmlns="http://www.w3.org/2000/svg">
<g clip-path="url(#clip0_914_45314)">
<mask id="mask0_914_45314" style="mask-type:luminance" maskUnits="userSpaceOnUse" x="0" y="0" width="24" height="24">
<path d="M24 0H0V24H24V0Z" fill="white"/>
</mask>
<g mask="url(#mask0_914_45314)">
<path d="M21.4971 4.66586C17.4466 -0.57931 9.91114 -1.54768 4.66586 2.50277C-0.579317 6.55335 -1.5477 14.089 2.50283 19.3341C6.55346 24.5793 14.0892 25.5476 19.3345 21.4972C19.3353 21.4964 19.3363 21.4957 19.3372 21.495C24.5795 17.4437 25.5471 9.90998 21.4971 4.66586ZM18.4262 7.65983L17.4893 6.73804L17.2875 6.53629L17.3438 6.48004L18.7638 5.13896C19.0187 5.44721 19.1583 5.83526 19.1576 6.23629C19.1566 6.70534 18.9696 7.15489 18.6374 7.48605C18.5712 7.54905 18.5008 7.60703 18.4262 7.65983ZM5.63779 17.6856L5.80399 17.8413L6.67421 18.7115L4.73779 18.5855L5.63779 17.6856ZM17.3876 4.47578C17.7784 4.47825 18.1575 4.60778 18.4676 4.84541L16.9077 6.41546L16.9073 6.41584C16.898 6.4233 16.8897 6.43163 16.8822 6.44096C16.8808 6.44265 16.8795 6.44438 16.8783 6.44621C16.8757 6.44978 16.8732 6.45345 16.8709 6.45713C16.8687 6.4608 16.8666 6.46448 16.8647 6.4683C16.8617 6.47404 16.859 6.47993 16.8569 6.48593C16.8561 6.48814 16.8554 6.49035 16.8547 6.49256C16.854 6.49478 16.8534 6.49695 16.8528 6.49916C16.8367 6.55871 16.8561 6.62505 16.9073 6.66596L18.0872 7.8459C17.4263 8.1339 16.6563 7.98683 16.1479 7.47563C15.6485 6.97238 15.503 6.21825 15.7703 5.56316C16.0377 4.90808 16.6752 4.47945 17.3876 4.47578ZM16.2975 8.39546C16.293 8.54951 16.2236 8.69426 16.1075 8.79552L11.4342 12.8624L11.4183 12.8762L11.2479 12.7058L11.1737 12.6316L11.1373 12.5952L11.0329 12.4908L10.9928 12.4507L10.9128 12.3707L15.3376 7.98563C15.4145 7.90901 15.5081 7.85936 15.6066 7.83683C15.6375 7.8297 15.6689 7.82516 15.7003 7.82348C15.7532 7.8204 15.8064 7.82483 15.8584 7.83671C15.9006 7.84639 15.9419 7.86098 15.9813 7.88059C16.0013 7.89038 16.0208 7.90155 16.0395 7.91393C16.0593 7.9269 16.0783 7.94111 16.0964 7.95683C16.1071 7.96587 16.1175 7.97558 16.1277 7.98563C16.1435 8.00021 16.1582 8.01563 16.1718 8.03183C16.2107 8.08894 16.244 8.14935 16.2716 8.21213C16.2905 8.2707 16.2994 8.33284 16.2975 8.39546ZM10.8998 12.8824C10.9019 12.8903 10.9047 12.8983 10.9079 12.906L10.9485 12.9459L11.1238 13.1174L11.0588 13.1254L10.0887 13.2444L10.2078 13.1254L10.6776 12.6556L10.8998 12.8824ZM15.6166 7.48493C15.423 7.51043 15.2363 7.59746 15.0875 7.746L10.6779 12.1361L9.81248 11.2708C12.0997 8.99408 13.4982 7.8057 14.3675 7.41593C14.7632 7.16651 15.2645 7.2039 15.6166 7.48493ZM9.55793 11.5261L9.57619 11.5441L10.2898 12.2577L8.42798 12.656L9.55793 11.5261ZM7.11788 17.3552C6.99814 17.4125 6.9354 17.5464 6.96788 17.6751L7.16764 18.545C7.18271 18.566 7.18271 18.5942 7.16764 18.6151C7.14499 18.6355 7.11053 18.6355 7.08788 18.6151L5.90816 17.4253L9.54334 13.7355L11.426 13.4436L12.1176 14.1352C10.5875 15.4069 8.90858 16.4882 7.11788 17.3552ZM12.4475 13.8754L11.7174 13.1455L16.3125 9.11637C15.9866 10.4129 14.2535 12.1686 12.4475 13.8754ZM18.7774 6.01579C18.7383 5.95047 18.6567 5.92508 18.5872 5.9562C18.5538 5.97311 18.5286 6.00293 18.5175 6.0387C18.5063 6.07437 18.5099 6.1131 18.5273 6.14633C18.5974 6.29363 18.5779 6.46804 18.4774 6.59625C18.4521 6.62123 18.4385 6.65569 18.4399 6.69109C18.4402 6.72626 18.4536 6.76009 18.4774 6.78596C18.503 6.79613 18.5315 6.79613 18.5573 6.78596C18.6047 6.79796 18.6548 6.7824 18.6873 6.74588C18.8554 6.54011 18.8904 6.25613 18.7774 6.01579Z" fill="#15171A"/>
</g>
</g>
<defs>
<clipPath id="clip0_914_45314">
<rect width="24" height="24" fill="white"/>
</clipPath>
</defs>
</svg>
