<svg width="24" height="24" viewBox="0 0 24 24" fill="none" xmlns="http://www.w3.org/2000/svg">
<path d="M21.0001 4.46252H3.00005C1.72505 4.46252 0.675049 5.51252 0.675049 6.78752V17.175C0.675049 18.45 1.72505 19.5 3.00005 19.5H21.0001C22.2751 19.5 23.3251 18.45 23.3251 17.175V6.82502C23.3251 5.51252 22.2751 4.46252 21.0001 4.46252ZM21.6751 17.175C21.6751 17.55 21.3751 17.85 21.0001 17.85H3.00005C2.62505 17.85 2.32505 17.55 2.32505 17.175V6.82502C2.32505 6.45002 2.62505 6.15002 3.00005 6.15002H21.0001C21.3751 6.15002 21.6751 6.45002 21.6751 6.82502V17.175Z" fill="#161A23"/>
<path d="M12 7.83752C11.55 7.83752 11.175 8.21252 11.175 8.66252V14.4C11.175 14.85 11.55 15.225 12 15.225C12.45 15.225 12.825 14.85 12.825 14.4V8.66252C12.825 8.21252 12.45 7.83752 12 7.83752Z" fill="#161A23"/>
<path d="M4.35002 12.375H7.68752C8.13752 12.375 8.51252 12 8.51252 11.55C8.51252 11.1 8.13752 10.725 7.68752 10.725H4.35002C3.90002 10.725 3.52502 11.1 3.52502 11.55C3.52502 12 3.90002 12.375 4.35002 12.375Z" fill="#161A23"/>
<path d="M19.5 7.83752H15.975C15.4125 7.83752 15 8.28752 15 8.81252V12.3375C15 12.8625 15.45 13.3125 15.975 13.3125H19.5C20.025 13.3125 20.475 12.8625 20.475 12.3375V8.81252C20.475 8.25002 20.025 7.83752 19.5 7.83752ZM18.7875 11.625H16.65V9.48752H18.7875V11.625Z" fill="#161A23"/>
<path d="M8.62502 13.5375H4.35002C3.90002 13.5375 3.52502 13.9125 3.52502 14.3625C3.52502 14.8125 3.90002 15.1875 4.35002 15.1875H8.62502C9.07502 15.1875 9.45002 14.8125 9.45002 14.3625C9.45002 13.9125 9.11252 13.5375 8.62502 13.5375Z" fill="#161A23"/>
</svg>
