<svg width="24" height="24" viewBox="0 0 24 24" fill="none" xmlns="http://www.w3.org/2000/svg">
<path d="M14.9625 14.25H12C12.075 13.9875 12.1125 13.7625 12.1125 13.4625V13.0875H14.3625C14.8125 13.0875 15.1875 12.7125 15.1875 12.2625C15.1875 11.8125 14.8125 11.4375 14.3625 11.4375H12.1125V10.8C12.1125 10.2375 12.5625 9.7875 13.125 9.7875C13.3875 9.7875 13.6125 9.9 13.8 10.05C14.1375 10.3875 14.6625 10.35 15 10.0125C15.3375 9.675 15.3 9.15 14.9625 8.8125C14.475 8.325 13.8 8.0625 13.0875 8.0625C11.5875 8.0625 10.3875 9.2625 10.3875 10.7625V11.4H9.26255C8.81255 11.4 8.43755 11.775 8.43755 12.225C8.43755 12.675 8.81255 13.05 9.26255 13.05H10.3875V13.425C10.3875 13.8375 10.05 14.2125 9.63755 14.2125H9.56255H9.00005C8.55005 14.2125 8.17505 14.5875 8.17505 15.0375C8.17505 15.4875 8.55005 15.8625 9.00005 15.8625H9.56255H9.63755H14.8875C15.3375 15.8625 15.7125 15.4875 15.7125 15.0375C15.7125 14.5875 15.4125 14.25 14.9625 14.25Z" fill="#161A23"/>
<path d="M21.3751 4.9126H2.62505C1.53755 4.9126 0.675049 5.8126 0.675049 6.8626V17.0626C0.675049 18.1501 1.57505 19.0126 2.62505 19.0126H21.3751C22.4626 19.0126 23.3251 18.1126 23.3251 17.0626V6.9001C23.3251 5.8126 22.4626 4.9126 21.3751 4.9126ZM18.2626 17.4001H5.73755C5.77505 17.2501 5.77505 17.0626 5.77505 16.9126C5.77505 15.1876 4.38755 13.8001 2.66255 13.8001C2.55005 13.8001 2.43755 13.8001 2.32505 13.8376V10.2376C2.43755 10.2376 2.55005 10.2751 2.66255 10.2751C4.38755 10.2751 5.77505 8.8876 5.77505 7.1626C5.77505 7.0126 5.77505 6.8251 5.73755 6.6751H18.225C18.1875 6.8251 18.1875 7.0126 18.1875 7.1626C18.1875 8.8876 19.5751 10.2751 21.3001 10.2751C21.4125 10.2751 21.5251 10.2751 21.6376 10.2376V13.8376C21.5251 13.8376 21.4125 13.8001 21.3001 13.8001C19.5751 13.8001 18.1875 15.1876 18.1875 16.9126C18.225 17.0626 18.225 17.2126 18.2626 17.4001ZM21.6751 6.9001V8.5126C21.5625 8.5501 21.4501 8.5501 21.3376 8.5501C20.5501 8.5501 19.9125 7.9126 19.9125 7.1251C19.9125 6.9751 19.9501 6.7876 19.9876 6.6376H21.3751C21.5251 6.6001 21.6751 6.7501 21.6751 6.9001ZM2.62505 6.6001H4.01255C4.08755 6.7501 4.08755 6.9376 4.08755 7.0876C4.08755 7.8751 3.45005 8.5126 2.66255 8.5126C2.55005 8.5126 2.43755 8.5126 2.32505 8.4751V6.8626C2.32505 6.7501 2.47505 6.6001 2.62505 6.6001ZM2.32505 17.1001V15.4876C2.43755 15.4501 2.55005 15.4501 2.66255 15.4501C3.45005 15.4501 4.08755 16.0876 4.08755 16.8751C4.08755 17.0626 4.05005 17.2126 4.01255 17.3626H2.62505C2.47505 17.4001 2.32505 17.2501 2.32505 17.1001ZM21.3751 17.4001H19.9876C19.9125 17.2501 19.9125 17.0626 19.9125 16.9126C19.9125 16.1251 20.5501 15.4876 21.3376 15.4876C21.4501 15.4876 21.5625 15.4876 21.6751 15.5251V17.1376C21.6751 17.2501 21.5251 17.4001 21.3751 17.4001Z" fill="#161A23"/>
</svg>
