<svg width="24" height="24" viewBox="0 0 24 24" fill="none" xmlns="http://www.w3.org/2000/svg">
<path d="M14.9625 14.25H12C12.075 13.9875 12.1125 13.7625 12.1125 13.4625V13.0875H14.3625C14.8125 13.0875 15.1875 12.7125 15.1875 12.2625C15.1875 11.8125 14.8125 11.4375 14.3625 11.4375H12.1125V10.8C12.1125 10.2375 12.5625 9.7875 13.125 9.7875C13.3875 9.7875 13.6125 9.9 13.8 10.05C14.1375 10.3875 14.6625 10.35 15 10.0125C15.3375 9.675 15.3 9.15 14.9625 8.8125C14.475 8.325 13.8 8.0625 13.0875 8.0625C11.5875 8.0625 10.3875 9.2625 10.3875 10.7625V11.4H9.26255C8.81255 11.4 8.43755 11.775 8.43755 12.225C8.43755 12.675 8.81255 13.05 9.26255 13.05H10.3875V13.425C10.3875 13.8375 10.05 14.2125 9.63755 14.2125H9.00005C8.55005 14.2125 8.17505 14.5875 8.17505 15.0375C8.17505 15.4875 8.55005 15.8625 9.00005 15.8625H14.925C15.375 15.8625 15.75 15.4875 15.75 15.0375C15.75 14.5875 15.4125 14.25 14.9625 14.25Z" fill="#161A23"/>
<path d="M21.0001 4.9126H3.00005C1.72505 4.9126 0.675049 5.9626 0.675049 7.2376V16.6876C0.675049 17.9626 1.72505 19.0126 3.00005 19.0126H21.0001C22.2751 19.0126 23.3251 17.9626 23.3251 16.6876V7.2751C23.3251 5.9626 22.2751 4.9126 21.0001 4.9126ZM21.6751 16.7251C21.6751 17.1001 21.3751 17.4001 21.0001 17.4001H3.00005C2.62505 17.4001 2.32505 17.1001 2.32505 16.7251V7.2751C2.32505 6.9001 2.62505 6.6001 3.00005 6.6001H21.0001C21.3751 6.6001 21.6751 6.9001 21.6751 7.2751V16.7251Z" fill="#161A23"/>
<path d="M5.8876 7.6875H4.6126C4.1626 7.6875 3.7876 8.0625 3.7876 8.5125C3.7876 8.9625 4.1626 9.3375 4.6126 9.3375H5.8876C6.3376 9.3375 6.7126 8.9625 6.7126 8.5125C6.7126 8.0625 6.3376 7.6875 5.8876 7.6875Z" fill="#161A23"/>
<path d="M19.425 14.7002H18.15C17.7 14.7002 17.325 15.0752 17.325 15.5252C17.325 15.9752 17.7 16.3502 18.15 16.3502H19.425C19.875 16.3502 20.25 15.9752 20.25 15.5252C20.25 15.0752 19.875 14.7002 19.425 14.7002Z" fill="#161A23"/>
</svg>
