<svg width="24" height="24" viewBox="0 0 24 24" fill="none" xmlns="http://www.w3.org/2000/svg">
<g clip-path="url(#clip0_501_52069)">
<path d="M15.4876 15.525H11.6626C11.8501 15.1125 12.0001 14.625 12.0001 14.1V12.825H14.6251C15.0751 12.825 15.4501 12.45 15.4501 12C15.4501 11.55 15.0751 11.175 14.6251 11.175H11.9626V10.275C11.9626 9.3 12.6376 8.475 13.4626 8.475C13.8376 8.475 14.2126 8.625 14.4751 8.925C14.7751 9.2625 15.3376 9.3 15.6751 8.9625C16.0126 8.6625 16.0501 8.1 15.7126 7.7625C15.1126 7.125 14.3251 6.75 13.4626 6.75C11.7001 6.75 10.2751 8.325 10.2751 10.2375V11.1375H8.47515C8.02515 11.1375 7.65015 11.5125 7.65015 11.9625C7.65015 12.4125 8.02515 12.7875 8.47515 12.7875H10.2751V14.0625C10.2751 14.85 9.75015 15.4875 9.07515 15.4875H8.51265C8.06265 15.4875 7.68765 15.8625 7.68765 16.3125C7.68765 16.7625 8.06265 17.1375 8.51265 17.1375H15.5251C15.9751 17.1375 16.3501 16.7625 16.3501 16.3125C16.3501 15.8625 15.9751 15.525 15.4876 15.525Z" fill="#161A23"/>
<path d="M12 0.675049C5.73755 0.675049 0.675049 5.73755 0.675049 12C0.675049 18.2626 5.73755 23.3251 12 23.3251C18.2626 23.3251 23.3251 18.2626 23.3251 12C23.3251 5.73755 18.2626 0.675049 12 0.675049ZM12 21.6751C6.67505 21.6751 2.32505 17.3251 2.32505 12C2.32505 6.67505 6.67505 2.32505 12 2.32505C17.3251 2.32505 21.6751 6.67505 21.6751 12C21.6751 17.3251 17.3251 21.6751 12 21.6751Z" fill="#161A23"/>
</g>
<defs>
<clipPath id="clip0_501_52069">
<rect width="24" height="24" fill="white"/>
</clipPath>
</defs>
</svg>
