<svg width="24" height="24" viewBox="0 0 24 24" fill="none" xmlns="http://www.w3.org/2000/svg">
<path d="M22.0125 21.6751H8.4375C9.675 20.5126 10.4625 18.8626 10.4625 17.0251V13.725H20.1375C20.5875 13.725 20.9625 13.3501 20.9625 12.9001C20.9625 12.4501 20.5875 12.0751 20.1375 12.0751H10.4625V7.83755C10.4625 4.80005 12.9 2.36255 15.9 2.36255C17.2875 2.36255 18.6375 2.88755 19.65 3.86255C19.9875 4.20005 20.5125 4.16255 20.85 3.82505C21.1875 3.48755 21.15 2.96255 20.8125 2.62505C19.5 1.35005 17.7375 0.675049 15.9 0.675049C11.9625 0.675049 8.775 3.90005 8.775 7.83755V12.0375H2.925C2.475 12.0375 2.1 12.4125 2.1 12.8625C2.1 13.3125 2.475 13.6876 2.925 13.6876H8.775V16.9876C8.775 19.5375 6.7125 21.6376 4.1625 21.6376H1.9875C1.5 21.6751 1.125 22.0501 1.125 22.5001C1.125 22.9501 1.5 23.3251 1.95 23.3251H22.0125C22.4625 23.3251 22.8375 22.9501 22.8375 22.5001C22.8375 22.0501 22.5 21.6751 22.0125 21.6751Z" fill="#161A23"/>
</svg>
