<svg width="24" height="24" viewBox="0 0 24 24" fill="none" xmlns="http://www.w3.org/2000/svg">
<path d="M10.1626 10.275H9.8626C9.4126 10.275 9.0376 10.65 9.0376 11.1C9.0376 11.55 9.4126 11.925 9.8626 11.925H14.4751C14.9251 11.925 15.3001 11.55 15.3001 11.1C15.3001 10.65 14.9251 10.275 14.4751 10.275H12.1876C12.2251 10.0875 12.2626 9.89995 12.2626 9.71245V9.67495H12.9376C13.3876 9.67495 13.7626 9.29995 13.7626 8.84995C13.7626 8.39995 13.3876 8.02495 12.9376 8.02495H12.2626V7.42495C12.2626 7.01245 12.5251 6.63745 12.8251 6.63745C12.9751 6.63745 13.0876 6.71245 13.1626 6.82495C13.4626 7.16245 14.0251 7.19995 14.3626 6.86245C14.7001 6.56245 14.7376 5.99995 14.4001 5.66245C13.9876 5.21245 13.4251 4.94995 12.7876 4.94995C11.5501 4.94995 10.5376 6.03745 10.5376 7.42495V8.02495C10.1251 8.06245 9.7876 8.43745 9.7876 8.84995C9.7876 9.26245 10.1251 9.63745 10.5376 9.67495V9.74995C10.5376 10.05 10.3501 10.275 10.1626 10.275Z" fill="#161A23"/>
<path d="M4.72505 9.60005C5.17505 9.60005 5.55005 9.22505 5.55005 8.77505C5.55005 5.25005 8.43755 2.36255 12 2.36255C15.5625 2.36255 18.45 5.25005 18.45 8.77505C18.45 10.725 17.5875 12.525 16.05 13.7625C15.675 14.0625 15.6375 14.5875 15.9375 14.9625C16.0875 15.1875 16.35 15.2625 16.6125 15.2625C16.8 15.2625 16.9875 15.1875 17.1375 15.075C19.05 13.5375 20.175 11.2125 20.175 8.77505C20.1375 4.27505 16.5 0.675049 12 0.675049C7.50005 0.675049 3.86255 4.31255 3.86255 8.77505C3.86255 9.22505 4.23755 9.60005 4.72505 9.60005Z" fill="#161A23"/>
<path d="M18.3375 18C17.8875 18 17.5125 18.375 17.5125 18.825V20.625L13.5 17.85C13.1625 17.625 12.75 17.475 12.3375 17.475H7.91246C7.79996 17.475 7.68746 17.4375 7.61246 17.3625L5.32496 15C4.98746 14.6625 4.46246 14.6625 4.12496 14.9625C3.78746 15.3 3.78746 15.825 4.08746 16.1625L6.33746 18.4875C6.71246 18.9 7.27496 19.1625 7.87496 19.1625H12.3C12.375 19.1625 12.45 19.2 12.525 19.2375L16.0125 21.6375H14.7C14.25 21.6375 13.875 22.0125 13.875 22.4625C13.875 22.9125 14.25 23.2875 14.7 23.2875H18.3375C18.7875 23.2875 19.1625 22.9125 19.1625 22.4625V18.825C19.2 18.375 18.825 18 18.3375 18Z" fill="#161A23"/>
</svg>
