<svg width="24" height="24" viewBox="0 0 24 24" fill="none" xmlns="http://www.w3.org/2000/svg">
<path d="M10.1624 10.275H9.86235C9.41235 10.275 9.03735 10.65 9.03735 11.1C9.03735 11.55 9.41235 11.925 9.86235 11.925H14.4749C14.9249 11.925 15.2999 11.55 15.2999 11.1C15.2999 10.65 14.9249 10.275 14.4749 10.275H12.1874C12.2249 10.0875 12.2624 9.89995 12.2624 9.71245V9.67495H12.9374C13.3874 9.67495 13.7624 9.29995 13.7624 8.84995C13.7624 8.39995 13.3874 8.02495 12.9374 8.02495H12.2624V7.42495C12.2624 7.01245 12.5249 6.63745 12.8249 6.63745C12.9749 6.63745 13.0874 6.71245 13.1624 6.82495C13.4624 7.16245 14.0249 7.19995 14.3624 6.86245C14.6999 6.56245 14.7374 5.99995 14.3999 5.66245C13.9874 5.21245 13.4249 4.94995 12.7874 4.94995C11.5499 4.94995 10.5374 6.03745 10.5374 7.42495V8.02495C10.1249 8.06245 9.78735 8.43745 9.78735 8.84995C9.78735 9.26245 10.1249 9.63745 10.5374 9.67495V9.74995C10.5374 10.05 10.3499 10.275 10.1624 10.275Z" fill="#161A23"/>
<path d="M12 0.675049C7.50005 0.675049 3.86255 4.31255 3.86255 8.77505C3.86255 11.25 4.95005 13.5375 6.90005 15.075C7.05005 15.1875 7.23755 15.2625 7.42505 15.2625C7.68755 15.2625 7.91255 15.15 8.10005 14.9625C8.40005 14.5875 8.32505 14.0625 7.98755 13.7625C6.45005 12.525 5.58755 10.725 5.58755 8.77505C5.58755 5.25005 8.47505 2.36255 12.0375 2.36255C15.6 2.36255 18.4875 5.25005 18.4875 8.77505C18.4875 9.22505 18.8626 9.60005 19.3126 9.60005C19.7626 9.60005 20.1376 9.22505 20.1376 8.77505C20.1376 4.27505 16.5001 0.675049 12 0.675049Z" fill="#161A23"/>
<path d="M18.3375 14.7751H14.7C14.25 14.7751 13.8749 15.1501 13.8749 15.6001C13.8749 16.0501 14.25 16.4251 14.7 16.4251H16.0124L12.5624 18.8251C12.4874 18.8626 12.4124 18.9001 12.3375 18.9001H7.91245C7.31245 18.9001 6.74995 19.1251 6.37495 19.5376L4.08745 21.9001C3.74995 22.2376 3.78745 22.7626 4.12495 23.1001C4.27495 23.2501 4.49995 23.3251 4.72495 23.3251C4.94995 23.3251 5.17495 23.2501 5.32495 23.0626L7.61245 20.7001C7.68745 20.6251 7.79995 20.5876 7.91245 20.5876H12.3375C12.75 20.5876 13.1624 20.4751 13.5374 20.2126L17.5124 17.4376V19.2001C17.5124 19.6501 17.8874 20.0251 18.3375 20.0251C18.7874 20.0251 19.1624 19.6501 19.1624 19.2001V15.5626C19.1999 15.1501 18.8249 14.7751 18.3375 14.7751Z" fill="#161A23"/>
</svg>
