<svg width="24" height="24" viewBox="0 0 24 24" fill="none" xmlns="http://www.w3.org/2000/svg">
<path d="M20.4375 19.7999H17.55C17.625 19.5374 17.6625 19.2749 17.6625 19.0124V18.7874H18.6375C19.0875 18.7874 19.4625 18.4124 19.4625 17.9624C19.4625 17.5124 19.0875 17.1374 18.6375 17.1374H17.6625V16.2749C17.6625 15.7124 18.0375 15.2249 18.4875 15.2249C18.7125 15.2249 18.9 15.3749 19.0125 15.4874C19.3125 15.8249 19.875 15.8624 20.2125 15.5249C20.55 15.2249 20.5875 14.6624 20.25 14.3249C19.7625 13.7999 19.1625 13.5374 18.4875 13.5374C17.1 13.5374 15.975 14.7749 15.975 16.2749V17.1374H15.9C15.45 17.1374 15.075 17.5124 15.075 17.9624C15.075 18.4124 15.45 18.7874 15.9 18.7874H15.975V19.0124C15.975 19.4624 15.7125 19.7999 15.375 19.7999H15C14.55 19.7999 14.175 20.1749 14.175 20.6249C14.175 21.0749 14.55 21.4499 15 21.4499H20.4C20.85 21.4499 21.225 21.0749 21.225 20.6249C21.225 20.1749 20.925 19.7999 20.4375 19.7999Z" fill="#161A23"/>
<path d="M20.4 2.51245H3.60005C1.98755 2.51245 0.675049 3.74995 0.675049 5.24995V15.75C0.675049 17.25 1.98755 18.4875 3.63755 18.4875H12C12.45 18.4875 12.8625 18.1125 12.8625 17.6625C12.8625 17.2125 12.4875 16.8375 12 16.8375H3.60005C2.92505 16.8375 2.32505 16.35 2.32505 15.7875V11.1375H21.6376V13.8375C21.6376 14.2875 22.0126 14.6625 22.4625 14.6625C22.9125 14.6625 23.2875 14.2875 23.2875 13.8375V5.24995C23.325 3.74995 22.0126 2.51245 20.4 2.51245ZM3.60005 4.19995H20.4C21.0751 4.19995 21.6376 4.68745 21.6376 5.24995V6.29995H2.32505V5.24995C2.32505 4.68745 2.92505 4.19995 3.60005 4.19995ZM2.32505 9.44995V8.02495H21.6376V9.44995H2.32505Z" fill="#161A23"/>
</svg>
