<svg width="24" height="24" viewBox="0 0 24 24" fill="none" xmlns="http://www.w3.org/2000/svg">
<path d="M12 14.2125C12.45 14.2125 12.8625 13.8375 12.8625 13.35V1.87501C12.8625 1.42501 12.4875 1.01251 12 1.01251C11.55 1.01251 11.1375 1.38751 11.1375 1.87501V13.3875C11.175 13.8375 11.55 14.2125 12 14.2125Z" fill="#161A23"/>
<path d="M16.1625 3.63749C15.75 3.44999 15.225 3.63749 15.0375 4.04999C14.85 4.46249 15.0375 4.98749 15.45 5.17499C18.45 6.52499 20.4 9.56249 20.4 12.8625C20.4 17.5125 16.6125 21.3 11.9625 21.3C7.3125 21.3 3.5625 17.5125 3.5625 12.8625C3.5625 9.56249 5.5125 6.56249 8.5125 5.17499C8.925 4.98749 9.1125 4.49999 8.925 4.04999C8.7375 3.63749 8.25 3.44999 7.8 3.63749C4.2375 5.28749 1.875 8.88749 1.875 12.8625C1.875 18.45 6.4125 22.9875 12 22.9875C17.5875 22.9875 22.125 18.45 22.125 12.8625C22.125 8.88749 19.7625 5.28749 16.1625 3.63749Z" fill="#161A23"/>
</svg>
