<svg width="24" height="24" viewBox="0 0 24 24" fill="none" xmlns="http://www.w3.org/2000/svg">
<path d="M21.375 2.0625H2.62501C1.53751 2.0625 0.637512 2.9625 0.637512 4.05V6.45C0.637512 6.9 1.01251 7.3125 1.50001 7.3125H1.57501V14.925C1.57501 16.0125 2.47501 16.9125 3.56251 16.9125H11.175V18.975L9.37501 20.4375C9.00001 20.7375 8.96251 21.2625 9.26251 21.6375C9.41251 21.825 9.67501 21.9375 9.90001 21.9375C10.0875 21.9375 10.275 21.8625 10.425 21.75L11.9625 20.475L13.5 21.75C13.875 22.05 14.4 22.0125 14.7 21.6375C15 21.2625 14.9625 20.7375 14.5875 20.4375L12.825 18.975V16.875H20.4375C21.525 16.875 22.425 15.975 22.425 14.8875V7.3125H22.5C22.95 7.3125 23.3625 6.9375 23.3625 6.45V4.05C23.3625 2.9625 22.4625 2.0625 21.375 2.0625ZM2.36251 4.05C2.36251 3.9 2.47501 3.75 2.62501 3.75H21.375C21.525 3.75 21.675 3.8625 21.675 4.05V5.625H21.6375H21.6H2.40001H2.36251V4.05ZM20.7375 14.925C20.7375 15.075 20.625 15.225 20.4375 15.225H3.52501C3.37501 15.225 3.22501 15.1125 3.22501 14.925V7.3125H20.7V14.925H20.7375Z" fill="#161A23"/>
</svg>
