<svg width="24" height="24" viewBox="0 0 24 24" fill="none" xmlns="http://www.w3.org/2000/svg">
<g clip-path="url(#clip0_501_51278)">
<path d="M11.9999 8.7C8.73736 8.7 6.56236 11.3625 6.44986 11.475C6.26236 11.7375 6.18736 12.075 6.33736 12.375C6.37486 12.4875 7.76236 15.3 11.9624 15.3C15.9374 15.3 17.5124 12.525 17.5874 12.4125C17.7374 12.1125 17.7374 11.775 17.5499 11.5125C17.4749 11.4 15.5624 8.7 11.9999 8.7ZM11.9999 13.6125C9.82486 13.6125 8.69986 12.675 8.21236 12.1125C8.88736 11.475 10.2749 10.425 11.9999 10.425C13.9124 10.425 15.1874 11.4375 15.7874 12.075C15.2624 12.6375 14.0999 13.6125 11.9999 13.6125Z" fill="#161A23"/>
<path d="M22.7625 14.2875L20.6625 13.125C20.7375 12.7125 20.775 12.3 20.775 11.8875C20.775 11.4375 20.7375 11.025 20.7 10.6125L22.8375 9.4125C23.325 9.15 23.5125 8.55 23.2875 8.025L21.1125 4.35C20.85 3.9 20.25 3.7125 19.7625 3.9L17.5125 5.1375C17.4 5.0625 17.2875 4.95 17.2125 4.875C16.8 4.5375 16.425 4.2 15.825 3.9C15.7875 3.9 15.75 3.8625 15.75 3.7875V2.4375C15.75 1.4625 14.9625 0.637497 13.95 0.637497H10.0875C9.11248 0.637497 8.28748 1.4625 8.28748 2.4375V3.9C8.28748 3.9375 8.24998 3.975 8.21248 4.0125C7.64998 4.275 7.23748 4.65 6.78748 4.9875C6.71248 5.0625 6.59998 5.1375 6.52498 5.2125L4.53748 4.0875C3.78748 3.675 3.14998 3.9375 2.88748 4.3875L0.824983 7.95C0.712483 8.25 0.674983 8.55 0.749983 8.85C0.824983 9.15 1.01248 9.375 1.27498 9.525L3.37498 10.65C3.29998 11.025 3.29998 11.4375 3.29998 11.925C3.29998 12.3375 3.33748 12.75 3.37498 13.1625L1.19998 14.3625C0.712483 14.625 0.524983 15.225 0.749983 15.75L2.92498 19.425C3.18748 19.875 3.74998 20.0625 4.27498 19.875L6.52498 18.6375C6.63748 18.7125 6.71248 18.7875 6.82498 18.9C7.23748 19.275 7.64998 19.6125 8.24998 19.875C8.28748 19.875 8.32498 19.9125 8.32498 19.9875V21.6C8.32498 22.575 9.11248 23.4 10.125 23.4H13.95C14.925 23.4 15.75 22.575 15.75 21.6V19.875C15.75 19.8375 15.7875 19.8 15.825 19.7625C16.3875 19.5 16.7625 19.1625 17.2125 18.7875C17.325 18.7125 17.4 18.6375 17.5125 18.525L19.5 19.65C20.25 20.0625 20.85 19.8 21.15 19.35L23.25 15.7875C23.4 15.525 23.4375 15.225 23.3625 14.9625C23.2875 14.7 23.025 14.4375 22.7625 14.2875ZM19.9125 18L18.1125 16.9875C17.5875 16.6875 16.9875 16.7625 16.5375 17.1375C16.35 17.2875 16.2 17.4 16.05 17.55C15.675 17.8875 15.4125 18.1125 15.0375 18.2625C14.4375 18.5625 14.025 19.2 14.025 19.875V21.525C14.025 21.6 13.9875 21.6375 13.9125 21.6375H10.0875C10.0125 21.6375 9.97498 21.6 9.97498 21.525V19.9125C9.97498 19.2375 9.56248 18.6 8.96248 18.3C8.58748 18.1125 8.28748 17.8875 7.91248 17.55C7.76248 17.4375 7.61248 17.2875 7.42498 17.175C7.16248 16.9875 6.86248 16.875 6.52498 16.875C6.29998 16.875 6.03748 16.95 5.81248 17.0625L4.01248 18.075L2.51248 15.525L4.27498 14.55C4.79998 14.25 5.09998 13.6875 5.02498 13.05C4.98748 12.675 4.94998 12.3 4.94998 11.925C4.94998 11.5125 4.98748 11.1375 5.02498 10.8375C5.13748 10.2 4.83748 9.5625 4.27498 9.2625L2.62498 8.325L4.08748 5.8125L5.88748 6.825C6.41248 7.125 7.01248 7.05 7.46248 6.675C7.61248 6.5625 7.76248 6.4125 7.91248 6.3C8.28748 5.9625 8.58748 5.7375 8.96248 5.55C9.59998 5.25 9.97498 4.6125 9.97498 3.9375V2.475C9.97498 2.4 10.0125 2.3625 10.0875 2.3625H13.9125C13.9875 2.3625 14.025 2.4 14.025 2.475V3.9C14.025 4.575 14.4375 5.2125 15.0375 5.5125C15.4125 5.7 15.675 5.925 16.05 6.225C16.2 6.375 16.35 6.4875 16.5375 6.6375C16.9875 7.0125 17.625 7.05 18.1125 6.75L19.9125 5.7375L21.4125 8.2875L19.6875 9.2625C19.1625 9.5625 18.8625 10.2 18.975 10.8375C19.0125 11.175 19.05 11.55 19.05 11.925C19.05 12.3 19.0125 12.675 18.9375 13.05C18.825 13.6875 19.125 14.2875 19.6875 14.5875L21.375 15.525L19.9125 18Z" fill="#161A23"/>
<path d="M11.4 11.4C11.25 11.55 11.1375 11.775 11.1375 12C11.1375 12.0375 11.1375 12.1125 11.1375 12.15C11.1375 12.225 11.175 12.2625 11.175 12.3C11.2125 12.3375 11.2125 12.4125 11.25 12.45C11.2875 12.4875 11.325 12.525 11.3625 12.5625C11.5125 12.7125 11.7375 12.825 11.9625 12.825C12 12.825 12.075 12.825 12.1125 12.825C12.1875 12.825 12.225 12.7875 12.2625 12.7875C12.3 12.75 12.375 12.75 12.4125 12.7125C12.45 12.675 12.4875 12.6375 12.525 12.6C12.5625 12.5625 12.6 12.525 12.6375 12.4875C12.675 12.45 12.675 12.375 12.7125 12.3375C12.75 12.3 12.75 12.225 12.75 12.1875C12.75 12.15 12.75 12.075 12.75 12.0375C12.75 11.8125 12.675 11.5875 12.4875 11.4375C12.45 11.4 12.4125 11.3625 12.375 11.325C12.3375 11.2875 12.375 11.25 12.3375 11.2125C12.3 11.175 12.225 11.175 12.1875 11.175C11.8875 11.1 11.5875 11.2125 11.4 11.4Z" fill="#161A23"/>
</g>
<defs>
<clipPath id="clip0_501_51278">
<rect width="24" height="24" fill="white"/>
</clipPath>
</defs>
</svg>
