<svg width="24" height="24" viewBox="0 0 24 24" fill="none" xmlns="http://www.w3.org/2000/svg">
<path d="M11.625 15.1875H13.5375C13.9875 15.1875 14.3625 14.8125 14.3625 14.3625C14.3625 13.9125 13.9875 13.5375 13.5375 13.5375H13.2V13.5C13.2 13.05 12.825 12.675 12.375 12.675C11.925 12.675 11.55 13.05 11.55 13.5C10.5375 13.575 9.75 14.3625 9.75 15.375C9.75 16.3875 10.575 17.25 11.625 17.25H12.525C12.6375 17.25 12.7125 17.325 12.7125 17.4375C12.7125 17.55 12.6375 17.625 12.525 17.625H10.6125C10.1625 17.625 9.7875 18 9.7875 18.45C9.7875 18.9 10.1625 19.275 10.6125 19.275H11.55V19.3125C11.55 19.7625 11.925 20.1375 12.375 20.1375C12.825 20.1375 13.2 19.7625 13.2 19.3125V19.125C13.875 18.8625 14.3625 18.1875 14.3625 17.4C14.3625 16.3875 13.5375 15.525 12.4875 15.525H11.625C11.5125 15.525 11.4375 15.45 11.4375 15.3375C11.4375 15.2625 11.5125 15.1875 11.625 15.1875Z" fill="#161A23"/>
<path d="M15.2625 5.81255H10.7625C10.725 5.62505 10.725 5.43755 10.725 5.21255C10.725 3.45005 11.5125 2.36255 12.075 2.36255C12.4875 2.36255 13.0125 2.92505 13.275 3.97505C13.3875 4.42505 13.8375 4.68755 14.2875 4.57505C14.7375 4.46255 15 4.01255 14.8875 3.56255C14.4375 1.80005 13.3125 0.675049 12.0375 0.675049C10.3125 0.675049 8.99998 2.66255 8.99998 5.21255C8.99998 5.40005 8.99998 5.62505 9.03748 5.81255H8.73748C7.23748 5.81255 6.03748 7.05005 6.03748 8.51255V20.6251C6.03748 22.1251 7.27498 23.3251 8.73748 23.3251H15.225C16.725 23.3251 17.925 22.0876 17.925 20.6251V8.55005C17.9625 7.05005 16.725 5.81255 15.2625 5.81255ZM16.275 20.6251C16.275 21.1876 15.825 21.6751 15.225 21.6751H8.73748C8.17498 21.6751 7.68748 21.225 7.68748 20.6251V8.55005C7.68748 7.98755 8.13748 7.50005 8.73748 7.50005H9.41248C9.93748 8.85005 10.9125 9.75005 12.0375 9.75005C12.4875 9.75005 12.8625 9.37505 12.8625 8.92505C12.8625 8.47505 12.4875 8.10005 12.0375 8.10005C11.8125 8.10005 11.5125 7.91255 11.2875 7.53755H15.225C15.7875 7.53755 16.275 7.98755 16.275 8.58755V20.6251Z" fill="#161A23"/>
</svg>
