<svg width="24" height="24" viewBox="0 0 24 24" fill="none" xmlns="http://www.w3.org/2000/svg">
<path d="M11.625 15.1875H13.5375C13.9875 15.1875 14.3625 14.8125 14.3625 14.3625C14.3625 13.9125 13.9875 13.5375 13.5375 13.5375H13.2V13.5C13.2 13.05 12.825 12.675 12.375 12.675C11.925 12.675 11.55 13.05 11.55 13.5C10.5375 13.575 9.75 14.3625 9.75 15.375C9.75 16.3875 10.575 17.25 11.625 17.25H12.525C12.6375 17.25 12.7125 17.325 12.7125 17.4375C12.7125 17.55 12.6375 17.625 12.525 17.625H10.6125C10.1625 17.625 9.7875 18 9.7875 18.45C9.7875 18.9 10.1625 19.275 10.6125 19.275H11.55V19.3125C11.55 19.7625 11.925 20.1375 12.375 20.1375C12.825 20.1375 13.2 19.7625 13.2 19.3125V19.125C13.875 18.8625 14.3625 18.1875 14.3625 17.4C14.3625 16.3875 13.5375 15.525 12.4875 15.525H11.625C11.5125 15.525 11.4375 15.45 11.4375 15.3375C11.4375 15.2625 11.5125 15.1875 11.625 15.1875Z" fill="#161A23"/>
<path d="M17.1375 9.63752L13.35 6.67502C12.6375 6.11252 11.6625 6.07502 10.875 6.52502C10.7625 6.15002 10.725 5.73752 10.725 5.25002C10.725 3.48752 11.5125 2.40002 12.075 2.40002C12.4875 2.40002 13.0125 2.96252 13.275 4.01252C13.3875 4.46252 13.8375 4.72502 14.2875 4.61252C14.7375 4.50002 15 4.05002 14.8875 3.60002C14.4375 1.83752 13.3125 0.712524 12.0375 0.712524C10.3125 0.712524 9.00001 2.70002 9.00001 5.25002C9.00001 6.11252 9.15001 6.93752 9.45001 7.61252L6.86251 9.67502C6.33751 10.0875 6.03751 10.725 6.03751 11.4V20.775C6.03751 22.2375 7.23751 23.4 8.66251 23.4H15.3C16.7625 23.4 17.925 22.2 17.925 20.775V11.4C17.9625 10.6875 17.6625 10.05 17.1375 9.63752ZM16.275 20.7C16.275 21.225 15.8625 21.6375 15.3375 21.6375H8.66251C8.13751 21.6375 7.72501 21.225 7.72501 20.7V11.325C7.72501 11.175 7.80001 11.025 7.91251 10.95L10.35 9.00002C10.8375 9.48752 11.4 9.75002 12.0375 9.75002C12.4875 9.75002 12.9 9.37502 12.9 8.92502C12.9 8.47502 12.525 8.10002 12.0375 8.10002C11.925 8.10002 11.8125 8.06252 11.7 7.98752C11.775 7.95002 11.8875 7.91252 11.9625 7.91252C12.075 7.91252 12.1875 7.95002 12.2625 8.02502L16.05 10.9875C16.1625 11.1 16.2375 11.2125 16.2375 11.4V20.7H16.275Z" fill="#161A23"/>
</svg>
