<svg width="24" height="24" viewBox="0 0 24 24" fill="none" xmlns="http://www.w3.org/2000/svg">
<path d="M20.475 5.43751V2.62501C20.475 1.53751 19.575 0.637512 18.4875 0.637512H5.47501C4.38751 0.637512 3.48751 1.53751 3.48751 2.62501V5.43751C2.43751 5.47501 1.57501 6.33751 1.57501 7.38751V12.7875C1.57501 13.8375 2.43751 14.7 3.48751 14.7375V21.375C3.48751 22.4625 4.38751 23.3625 5.47501 23.3625H18.525C19.6125 23.3625 20.5125 22.4625 20.5125 21.375V14.7375C21.5625 14.7 22.425 13.8375 22.425 12.7875V7.38751C22.3875 6.33751 21.525 5.47501 20.475 5.43751ZM5.21251 2.62501C5.21251 2.47501 5.32501 2.32501 5.51251 2.32501H18.5625C18.7125 2.32501 18.8625 2.43751 18.8625 2.62501V5.43751H5.21251V2.62501ZM18.7875 21.375C18.7875 21.525 18.675 21.675 18.4875 21.675H5.47501C5.32501 21.675 5.17501 21.5625 5.17501 21.375V14.7375H18.7875V21.375ZM20.7 12.7875C20.7 12.9375 20.5875 13.0875 20.4 13.0875H3.56251C3.41251 13.0875 3.26251 12.975 3.26251 12.7875V7.38751C3.26251 7.23751 3.37501 7.08751 3.56251 7.08751H20.4C20.55 7.08751 20.7 7.20001 20.7 7.38751V12.7875Z" fill="#161A23"/>
<path d="M9.18751 17.625H14.8125C15.2625 17.625 15.675 17.25 15.675 16.7625C15.675 16.275 15.3 15.9 14.8125 15.9H9.18751C8.73751 15.9 8.32501 16.275 8.32501 16.7625C8.32501 17.25 8.73751 17.625 9.18751 17.625Z" fill="#161A23"/>
<path d="M18.75 8.70001H15.9375C15.4875 8.70001 15.075 9.07501 15.075 9.56251C15.075 10.05 15.45 10.425 15.9375 10.425H18.75C19.2 10.425 19.6125 10.05 19.6125 9.56251C19.6125 9.07501 19.2375 8.70001 18.75 8.70001Z" fill="#161A23"/>
<path d="M9.18751 20.475H14.8125C15.2625 20.475 15.675 20.1 15.675 19.6125C15.675 19.125 15.3 18.75 14.8125 18.75H9.18751C8.73751 18.75 8.32501 19.125 8.32501 19.6125C8.32501 20.1 8.73751 20.475 9.18751 20.475Z" fill="#161A23"/>
</svg>
