<svg width="24" height="24" viewBox="0 0 24 24" fill="none" xmlns="http://www.w3.org/2000/svg">
<g clip-path="url(#clip0_501_47530)">
<path d="M14.5125 7.16235H11.1375C10.5 7.16235 9.93751 7.38735 9.48751 7.83735L7.83751 9.48735C7.38751 9.93735 7.16251 10.4999 7.16251 11.1374V14.5124C7.16251 15.7874 8.21251 16.8374 9.48751 16.8374H14.5125C15.7875 16.8374 16.8375 15.7874 16.8375 14.5124V9.48735C16.8375 8.21235 15.7875 7.16235 14.5125 7.16235ZM15.15 14.5124C15.15 14.8499 14.85 15.1499 14.5125 15.1499H9.48751C9.15001 15.1499 8.85001 14.8499 8.85001 14.5124V11.1374C8.85001 10.9499 8.92501 10.7999 9.03751 10.6874L10.6875 9.03735C10.8 8.92485 10.95 8.84985 11.1375 8.84985H14.5125C14.85 8.84985 15.15 9.14985 15.15 9.48735V14.5124Z" fill="#161A23"/>
<path d="M22.5 12.8624C22.95 12.8624 23.3625 12.4874 23.3625 11.9999C23.3625 11.5499 22.9875 11.1374 22.5 11.1374H20.55V7.8749H22.5C22.95 7.8749 23.3625 7.4999 23.3625 7.0124C23.3625 6.5249 22.9875 6.1499 22.5 6.1499H20.55V5.6999C20.55 4.4249 19.5 3.3749 18.225 3.3749H17.775V1.7624C17.775 1.3124 17.4 0.899902 16.9125 0.899902C16.425 0.899902 16.05 1.2749 16.05 1.7624V3.4499H12.7875V1.7624C12.7875 1.3124 12.4125 0.899902 11.925 0.899902C11.475 0.899902 11.0625 1.2749 11.0625 1.7624V3.4499H7.80001V1.7624C7.80001 1.3124 7.42501 0.899902 6.93751 0.899902C6.45001 0.899902 6.07501 1.2749 6.07501 1.7624V3.4499H5.62501C4.35001 3.4499 3.30001 4.4999 3.30001 5.7749V6.2249H1.50001C1.05001 6.2249 0.637512 6.5999 0.637512 7.0874C0.637512 7.5749 1.01251 7.9499 1.50001 7.9499H3.45001V11.2124H1.50001C1.05001 11.2124 0.637512 11.5874 0.637512 12.0749C0.637512 12.5249 1.01251 12.9374 1.50001 12.9374H3.45001V16.1999H1.50001C1.05001 16.1999 0.637512 16.5749 0.637512 17.0624C0.637512 17.5499 1.01251 17.9249 1.50001 17.9249H3.45001V18.3749C3.45001 19.6499 4.50001 20.6999 5.77501 20.6999H6.22501V22.3874C6.22501 22.8374 6.60001 23.2499 7.08751 23.2499C7.57501 23.2499 7.95001 22.8749 7.95001 22.3874V20.6999H11.2125V22.3874C11.2125 22.8374 11.5875 23.2499 12.075 23.2499C12.525 23.2499 12.9375 22.8749 12.9375 22.3874V20.6999H16.2V22.3874C16.2 22.8374 16.575 23.2499 17.0625 23.2499C17.55 23.2499 17.925 22.8749 17.925 22.3874V20.6999H18.375C19.65 20.6999 20.7 19.6499 20.7 18.3749V17.9249H22.5C22.95 17.9249 23.3625 17.5499 23.3625 17.0624C23.3625 16.5749 22.9875 16.1999 22.5 16.1999H20.55V12.9374H22.5V12.8624ZM18.8625 18.2249C18.8625 18.5624 18.5625 18.8624 18.225 18.8624H5.77501C5.43751 18.8624 5.13751 18.5624 5.13751 18.2249V5.7749C5.13751 5.4374 5.43751 5.1374 5.77501 5.1374H18.225C18.5625 5.1374 18.8625 5.4374 18.8625 5.7749V18.2249Z" fill="#161A23"/>
</g>
<defs>
<clipPath id="clip0_501_47530">
<rect width="24" height="24" fill="white"/>
</clipPath>
</defs>
</svg>
