<svg width="24" height="24" viewBox="0 0 24 24" fill="none" xmlns="http://www.w3.org/2000/svg">
<g clip-path="url(#clip0_914_45320)">
<path d="M13.5372 8.51257H10.1997V12.0001H13.5372C14.4747 12.0001 15.2997 11.2126 15.2997 10.2751C15.3372 9.26257 14.4747 8.51257 13.5372 8.51257Z" fill="#15171A"/>
<path d="M12 0.375C5.55 0.375 0.375 5.55 0.375 12C0.375 18.45 5.55 23.625 12 23.625C18.45 23.625 23.625 18.45 23.625 12C23.625 5.55 18.45 0.375 12 0.375ZM13.5375 14.325H10.2V17.8125H7.875V6.1875H13.5375C15.825 6.1875 17.625 7.9875 17.625 10.275C17.6625 12.525 15.7875 14.325 13.5375 14.325Z" fill="#15171A"/>
</g>
<defs>
<clipPath id="clip0_914_45320">
<rect width="24" height="24" fill="white"/>
</clipPath>
</defs>
</svg>
