<svg width="24" height="24" viewBox="0 0 24 24" fill="none" xmlns="http://www.w3.org/2000/svg">
<path d="M12.675 8.21249H9.74999C9.29999 8.21249 8.92499 8.58749 8.92499 9.03749C8.92499 9.48749 9.29999 9.86249 9.74999 9.86249H11.5875V10.35C11.5875 10.8 11.9625 11.175 12.4125 11.175C12.8625 11.175 13.2375 10.8 13.2375 10.35V9.78749C14.2875 9.52499 15.0375 8.58749 15.0375 7.46249C15.0375 6.14999 13.95 5.06249 12.6375 5.06249H11.2875C10.875 5.06249 10.575 4.72499 10.575 4.34999C10.575 3.97499 10.9125 3.63749 11.2875 3.63749H14.25C14.7 3.63749 15.075 3.26249 15.075 2.81249C15.075 2.36249 14.7 1.98749 14.25 1.98749H13.3125V1.49999C13.3125 1.04999 12.9375 0.674988 12.4875 0.674988C12.0375 0.674988 11.6625 1.04999 11.6625 1.49999V1.98749H11.4C10.05 1.98749 8.99999 3.07499 8.99999 4.38749C8.99999 5.69999 10.0875 6.78749 11.4 6.78749H12.75C13.1625 6.78749 13.4625 7.12499 13.4625 7.49999C13.4625 7.87499 13.0875 8.21249 12.675 8.21249Z" fill="#161A23"/>
<path d="M20.25 21.6375H12.825V15.9L14.5125 17.5875C14.6625 17.7375 14.8875 17.85 15.1125 17.85C15.3375 17.85 15.5625 17.775 15.7125 17.5875C16.05 17.25 16.05 16.725 15.7125 16.3875L12.6 13.275C12.2625 12.9375 11.7375 12.9375 11.4 13.275L8.28749 16.3875C7.94999 16.725 7.94999 17.25 8.28749 17.5875C8.62499 17.925 9.14999 17.925 9.48749 17.5875L11.175 15.9V21.6375H3.74999C3.29999 21.6375 2.92499 22.0125 2.92499 22.4625C2.92499 22.9125 3.29999 23.2875 3.74999 23.2875H20.25C20.7 23.2875 21.075 22.9125 21.075 22.4625C21.075 22.0125 20.7 21.6375 20.25 21.6375Z" fill="#161A23"/>
</svg>
