<svg width="24" height="24" viewBox="0 0 24 24" fill="none" xmlns="http://www.w3.org/2000/svg">
<path d="M5.43755 14.7751H3.93755C2.66255 14.7751 1.61255 15.8251 1.61255 17.1001V21.0001C1.61255 22.2751 2.66255 23.3251 3.93755 23.3251H5.43755C6.71255 23.3251 7.76255 22.2751 7.76255 21.0001V17.1001C7.76255 15.8251 6.71255 14.7751 5.43755 14.7751ZM6.07505 21.0001C6.07505 21.3751 5.77505 21.6751 5.40005 21.6751H3.90005C3.52505 21.6751 3.22505 21.3751 3.22505 21.0001V17.1001C3.22505 16.7251 3.52505 16.4251 3.90005 16.4251H5.40005C5.77505 16.4251 6.07505 16.7251 6.07505 17.1001V21.0001Z" fill="#161A23"/>
<path d="M12.75 12.4126H11.25C9.97505 12.4126 8.92505 13.4626 8.92505 14.7376V21.0001C8.92505 22.2751 9.97505 23.3251 11.25 23.3251H12.75C14.025 23.3251 15.075 22.2751 15.075 21.0001V14.7376C15.075 13.4626 14.025 12.4126 12.75 12.4126ZM13.3875 21.0001C13.3875 21.3751 13.0875 21.6751 12.7125 21.6751H11.2125C10.8375 21.6751 10.5375 21.3751 10.5375 21.0001V14.7376C10.5375 14.3626 10.8375 14.0626 11.2125 14.0626H12.7125C13.0875 14.0626 13.3875 14.3626 13.3875 14.7376V21.0001Z" fill="#161A23"/>
<path d="M20.0625 8.625H18.5625C17.2875 8.625 16.2375 9.675 16.2375 10.95V21C16.2375 22.275 17.2875 23.325 18.5625 23.325H20.0625C21.3375 23.325 22.3875 22.275 22.3875 21V10.95C22.425 9.675 21.375 8.625 20.0625 8.625ZM20.7375 21C20.7375 21.375 20.4375 21.675 20.0625 21.675H18.5625C18.1875 21.675 17.8875 21.375 17.8875 21V10.95C17.8875 10.575 18.1875 10.275 18.5625 10.275H20.0625C20.4375 10.275 20.7375 10.575 20.7375 10.95V21Z" fill="#161A23"/>
<path d="M19.8 5.28755H17.9625C17.5125 5.28755 17.1375 5.66255 17.1375 6.11255C17.1375 6.56255 17.5125 6.93755 17.9625 6.93755H18.75C18.75 7.38755 19.125 7.76255 19.575 7.76255C20.025 7.76255 20.4 7.38755 20.4 6.93755V6.82505C21.0375 6.56255 21.4875 5.92505 21.4875 5.21255V5.13755C21.4875 4.16255 20.7 3.37505 19.725 3.37505H18.7875C18.75 3.37505 18.7125 3.33755 18.7125 3.30005V3.22505C18.7125 3.18755 18.75 3.15005 18.7875 3.15005H20.625C21.075 3.15005 21.45 2.77505 21.45 2.32505C21.45 1.87505 21.075 1.50005 20.625 1.50005H20.3625C20.3625 1.05005 19.9875 0.675049 19.5375 0.675049C19.0875 0.675049 18.7125 1.05005 18.7125 1.50005C17.8125 1.57505 17.0625 2.32505 17.0625 3.22505V3.30005C17.0625 4.27505 17.85 5.06255 18.825 5.06255H19.7625C19.8 5.06255 19.8375 5.10005 19.8375 5.13755V5.21255C19.8375 5.25005 19.8375 5.28755 19.8 5.28755Z" fill="#161A23"/>
</svg>
