<svg width="24" height="24" viewBox="0 0 24 24" fill="none" xmlns="http://www.w3.org/2000/svg">
<path d="M7.42499 16.9124C9.37499 16.9124 10.95 15.3374 10.95 13.3874C10.95 11.4374 9.37499 9.86243 7.42499 9.86243C5.47499 9.86243 3.89999 11.4374 3.89999 13.3874C3.89999 15.3374 5.47499 16.9124 7.42499 16.9124ZM7.42499 11.5124C8.43749 11.5124 9.26249 12.3374 9.26249 13.3499C9.26249 14.3624 8.43749 15.1874 7.42499 15.1874C6.41249 15.1874 5.58749 14.3624 5.58749 13.3499C5.58749 12.3374 6.41249 11.5124 7.42499 11.5124Z" fill="#161A23"/>
<path d="M7.425 17.3624C5.025 17.3624 2.7375 18.1874 0.974999 19.7249C0.637499 20.0249 0.562499 20.5499 0.862499 20.9249C1.1625 21.2624 1.6875 21.3374 2.0625 21.0374C3.5625 19.7624 5.4375 19.0874 7.425 19.0874C9.4125 19.0874 11.325 19.7624 12.7875 21.0374C12.9375 21.1874 13.125 21.2249 13.35 21.2249C13.575 21.2249 13.8375 21.1124 13.9875 20.9249C14.2875 20.5874 14.25 20.0249 13.875 19.7249C12.1125 18.2249 9.7875 17.3624 7.425 17.3624Z" fill="#161A23"/>
<path d="M14.1 4.275C13.8 3.9375 13.2375 3.9 12.9 4.2L10.6875 6.225C10.5 6.375 10.425 6.6 10.425 6.8625C10.425 7.125 10.5375 7.3125 10.6875 7.5L12.9 9.525C13.05 9.675 13.275 9.75 13.4625 9.75C13.6875 9.75 13.9125 9.675 14.1 9.4875C14.4 9.15 14.4 8.625 14.025 8.2875L12.4875 6.9L14.025 5.5125C14.4 5.1375 14.4 4.6125 14.1 4.275Z" fill="#161A23"/>
<path d="M23.0625 6.22493L20.85 4.19993C20.5125 3.89993 19.9875 3.89993 19.65 4.27493C19.35 4.61243 19.35 5.13743 19.725 5.47493L21.2625 6.86243L19.725 8.24993C19.3875 8.54993 19.35 9.11243 19.65 9.44993C19.8 9.63743 20.0625 9.71243 20.2875 9.71243C20.475 9.71243 20.7 9.63743 20.85 9.48743L23.0625 7.46243C23.25 7.31243 23.325 7.08743 23.325 6.82493C23.325 6.56243 23.25 6.37493 23.0625 6.22493Z" fill="#161A23"/>
<path d="M17.925 2.81248C17.475 2.69998 17.025 2.96248 16.875 3.41248L15.1125 9.89998C15 10.35 15.2625 10.8 15.7125 10.95C15.7875 10.9875 15.8625 10.9875 15.9375 10.9875C16.3125 10.9875 16.65 10.725 16.7625 10.35L18.525 3.86248C18.6375 3.37498 18.375 2.92498 17.925 2.81248Z" fill="#161A23"/>
</svg>
