<svg width="24" height="24" viewBox="0 0 24 24" fill="none" xmlns="http://www.w3.org/2000/svg">
<path d="M5.62515 8.21255H2.85015C2.40015 8.21255 2.02515 8.58755 2.02515 9.03755C2.02515 9.48755 2.40015 9.86255 2.85015 9.86255H4.50015V10.275C4.50015 10.725 4.87515 11.1 5.32515 11.1C5.77515 11.1 6.15015 10.725 6.15015 10.275V9.82505C7.08765 9.56255 7.80015 8.70005 7.80015 7.68755V7.53755C7.80015 6.30005 6.78765 5.32505 5.58765 5.32505H4.20015C3.90015 5.32505 3.67515 5.10005 3.67515 4.80005V4.65005C3.67515 4.35005 3.90015 4.12505 4.20015 4.12505H6.97515C7.42515 4.12505 7.80015 3.75005 7.80015 3.30005C7.80015 2.85005 7.42515 2.47505 6.97515 2.47505H6.15015V2.06255C6.15015 1.61255 5.77515 1.23755 5.32515 1.23755C4.87515 1.23755 4.50015 1.57505 4.50015 2.06255V2.47505H4.23765C3.00015 2.47505 2.02515 3.48755 2.02515 4.68755V4.83755C2.02515 6.07505 3.03765 7.05005 4.23765 7.05005H5.62515C5.92515 7.05005 6.15015 7.27505 6.15015 7.57505V7.72505C6.18765 7.98755 5.92515 8.21255 5.62515 8.21255Z" fill="#161A23"/>
<path d="M22.3876 14.0626H16.2751L12.7875 13.1251V6.90015C13.8375 6.56265 14.5876 5.58765 14.5876 4.42515C14.5876 3.00015 13.425 1.83765 12 1.83765C10.5751 1.83765 9.41255 3.00015 9.41255 4.42515C9.41255 5.55015 10.125 6.48765 11.1 6.86265V12.7126L7.91255 11.8876C7.91255 11.8876 7.91255 11.8876 7.87505 11.8876C7.83755 11.8876 7.80005 11.8876 7.80005 11.8876C7.76255 11.8876 7.76255 11.8876 7.72505 11.8876C7.72505 11.8876 7.72505 11.8876 7.68755 11.8876H1.50005C1.05005 11.8876 0.675049 12.2626 0.675049 12.7126C0.675049 13.1626 1.05005 13.5376 1.50005 13.5376H7.57505L11.0625 14.4751V18.1876H7.87505C6.78755 18.1876 5.92505 19.0501 5.92505 20.1376V20.8876C5.92505 21.9751 6.78755 22.8376 7.87505 22.8376H15.9001C16.9876 22.8376 17.85 21.9751 17.85 20.8876V20.1376C17.85 19.0501 16.9876 18.1876 15.9001 18.1876H12.7126V14.9251L15.9001 15.7501C15.9001 15.7501 15.9001 15.7501 15.9376 15.7501C16.0126 15.7501 16.0501 15.7876 16.1251 15.7876H22.3126C22.7626 15.7876 23.1376 15.4126 23.1376 14.9626C23.1376 14.5126 22.8376 14.0626 22.3876 14.0626ZM12 3.52515C12.4875 3.52515 12.9001 3.93765 12.9001 4.42515C12.9001 4.91265 12.4875 5.32515 12 5.32515C11.5126 5.32515 11.1 4.91265 11.1 4.42515C11.1 3.93765 11.5126 3.52515 12 3.52515ZM16.2001 20.1001V20.8501C16.2001 21.0001 16.0876 21.1126 15.9376 21.1126H7.91255C7.76255 21.1126 7.65005 21.0001 7.65005 20.8501V20.1001C7.65005 19.9501 7.76255 19.8376 7.91255 19.8376H15.9376C16.0876 19.8376 16.2001 19.9501 16.2001 20.1001Z" fill="#161A23"/>
<path d="M23.0626 7.31245L20.2876 4.91245C19.9876 4.64995 19.5001 4.64995 19.1626 4.91245L16.3876 7.31245C16.2001 7.46245 16.0876 7.68745 16.0876 7.94995V11.6625C16.0876 12.1125 16.4626 12.4875 16.9126 12.4875H22.5001C22.9501 12.4875 23.3251 12.1125 23.3251 11.6625V7.94995C23.3251 7.68745 23.2501 7.46245 23.0626 7.31245ZM21.6751 10.8375H17.8126V8.36245L19.7251 6.67495L21.6376 8.36245V10.8375H21.6751Z" fill="#161A23"/>
</svg>
