<svg width="24" height="24" viewBox="0 0 24 24" fill="none" xmlns="http://www.w3.org/2000/svg">
<path d="M20.1 2.8125L12.4875 0.7125C12.1875 0.6375 11.85 0.6375 11.55 0.7125L3.89999 2.8125C3.11249 3.0375 2.54999 3.75 2.54999 4.575V10.125C2.54999 15.9375 5.99999 21.075 11.325 23.2125C11.55 23.2875 11.775 23.3625 12 23.3625C12.225 23.3625 12.45 23.325 12.675 23.2125C18 21.075 21.45 15.9 21.45 10.0875V4.575C21.45 3.75 20.8875 3.0375 20.1 2.8125ZM19.7625 10.0875C19.7625 15.1125 16.65 19.7625 12.075 21.6375C12.0375 21.6375 12 21.6375 11.9625 21.6375C7.27499 19.7625 4.23749 15.225 4.23749 10.125V4.575C4.23749 4.5375 4.27499 4.4625 4.31249 4.4625L11.9625 2.3625H12C12 2.3625 12 2.3625 12.0375 2.3625L19.6875 4.4625C19.725 4.4625 19.7625 4.5375 19.7625 4.575V10.0875Z" fill="#161A23"/>
<path d="M16.2375 8.47503L11.0625 12.825L8.73746 10.875C8.36246 10.575 7.83746 10.6125 7.53746 10.9875C7.23746 11.3625 7.27496 11.8875 7.64996 12.1875L10.5 14.5875C10.65 14.7375 10.8375 14.775 11.025 14.775C11.2125 14.775 11.4 14.7 11.55 14.5875L17.325 9.75003C17.7 9.45003 17.7375 8.92503 17.4375 8.55003C17.1375 8.21253 16.575 8.17503 16.2375 8.47503Z" fill="#161A23"/>
</svg>
