<svg width="24" height="24" viewBox="0 0 24 24" fill="none" xmlns="http://www.w3.org/2000/svg">
<path d="M19.65 4.20005L15 1.01255C14.6625 0.787549 14.25 0.675049 13.8375 0.675049H5.88751C4.53751 0.675049 3.45001 1.76255 3.45001 3.11255V20.925C3.45001 22.275 4.53751 23.3625 5.88751 23.3625H18.15C19.5 23.3625 20.5875 22.275 20.5875 20.925V5.85005C20.55 5.21255 20.2125 4.57505 19.65 4.20005ZM18.8625 20.925C18.8625 21.3375 18.525 21.675 18.1125 21.675H5.88751C5.47501 21.675 5.13751 21.3375 5.13751 20.925V3.07505C5.13751 2.66255 5.47501 2.32505 5.88751 2.32505H13.875C13.95 2.32505 14.025 2.36255 14.0625 2.40005L18.7125 5.58755C18.825 5.66255 18.8625 5.77505 18.8625 5.88755V20.925Z" fill="#161A23"/>
<path d="M10.9125 8.4751H8.66252C8.21252 8.4751 7.80002 8.8501 7.80002 9.3376V17.6251C7.80002 18.0751 8.17502 18.4876 8.66252 18.4876C9.15002 18.4876 9.52502 18.1126 9.52502 17.6251V13.5751H10.95C12.075 13.5751 12.975 12.6751 12.975 11.5501V10.5001C12.9 9.4126 12 8.4751 10.9125 8.4751ZM11.2125 11.5501C11.2125 11.7376 11.0625 11.8876 10.875 11.8876H9.45002V10.2001H10.875C11.0625 10.2001 11.2125 10.3501 11.2125 10.5376V11.5501Z" fill="#161A23"/>
<path d="M15 13.725H16.0125C16.4625 13.725 16.875 13.35 16.875 12.8625C16.875 12.375 16.5 12 16.0125 12H15C13.95 12 13.125 12.825 13.125 13.875V14.25C13.125 15.3 13.95 16.125 15 16.125C15.1125 16.125 15.1875 16.2 15.1875 16.3125V16.65C15.1875 16.7625 15.1125 16.8375 15 16.8375H13.9875C13.5375 16.8375 13.125 17.2125 13.125 17.7C13.125 18.1875 13.5 18.5625 13.9875 18.5625H15C16.05 18.5625 16.875 17.7375 16.875 16.6875V16.35C16.875 15.3 16.05 14.475 15 14.475C14.8875 14.475 14.8125 14.4 14.8125 14.2875V13.95C14.8125 13.8 14.925 13.725 15 13.725Z" fill="#161A23"/>
</svg>
