<svg width="24" height="24" viewBox="0 0 24 24" fill="none" xmlns="http://www.w3.org/2000/svg">
<path d="M22.5001 11.175H7.46257L9.97507 8.625C10.3126 8.2875 10.3126 7.7625 9.97507 7.425C9.63757 7.0875 9.11257 7.0875 8.77507 7.425L4.87507 11.4C4.53757 11.7375 4.53757 12.2625 4.87507 12.6L8.81257 16.6125C8.96257 16.7625 9.18757 16.875 9.41257 16.875C9.63757 16.875 9.82507 16.8 10.0126 16.65C10.3501 16.3125 10.3501 15.7875 10.0126 15.45L7.50007 12.9H22.5001C22.9501 12.9 23.3251 12.525 23.3251 12.075C23.3251 11.55 22.9501 11.175 22.5001 11.175Z" fill="#161A23"/>
<path d="M1.50005 6.26245C1.05005 6.26245 0.675049 6.63745 0.675049 7.08745V16.9125C0.675049 17.3625 1.05005 17.7375 1.50005 17.7375C1.95005 17.7375 2.32505 17.3625 2.32505 16.9125V7.08745C2.32505 6.63745 1.95005 6.26245 1.50005 6.26245Z" fill="#161A23"/>
</svg>
