<svg width="24" height="24" viewBox="0 0 24 24" fill="none" xmlns="http://www.w3.org/2000/svg">
<path d="M16.9125 21.675H7.08745C6.63745 21.675 6.26245 22.05 6.26245 22.5C6.26245 22.95 6.63745 23.325 7.08745 23.325H16.9125C17.3625 23.325 17.7375 22.95 17.7375 22.5C17.7375 22.05 17.3625 21.675 16.9125 21.675Z" fill="#161A23"/>
<path d="M11.4 19.125C11.55 19.275 11.775 19.35 12 19.35C12.225 19.35 12.4125 19.275 12.6 19.125L16.6125 15.1875C16.95 14.85 16.95 14.325 16.6125 13.9875C16.275 13.65 15.75 13.65 15.4125 13.9875L12.8625 16.5V1.50005C12.8625 1.05005 12.4875 0.675049 12.0375 0.675049C11.5875 0.675049 11.2125 1.05005 11.2125 1.50005V16.5375L8.66248 14.025C8.32498 13.6875 7.79998 13.6875 7.46248 14.025C7.12498 14.3625 7.12498 14.8875 7.46248 15.225L11.4 19.125Z" fill="#161A23"/>
</svg>
