<svg width="24" height="24" viewBox="0 0 24 24" fill="none" xmlns="http://www.w3.org/2000/svg">
<path d="M22.5 6.26245C22.05 6.26245 21.675 6.63745 21.675 7.08745V16.9125C21.675 17.3625 22.05 17.7375 22.5 17.7375C22.95 17.7375 23.325 17.3625 23.325 16.9125V7.08745C23.325 6.63745 22.95 6.26245 22.5 6.26245Z" fill="#161A23"/>
<path d="M15.1875 7.425C14.85 7.0875 14.325 7.0875 13.9875 7.425C13.65 7.7625 13.65 8.2875 13.9875 8.625L16.5 11.175H1.50005C1.05005 11.175 0.675049 11.55 0.675049 12C0.675049 12.45 1.05005 12.825 1.50005 12.825H16.5375L14.025 15.375C13.6875 15.7125 13.6875 16.2375 14.025 16.575C14.175 16.725 14.4 16.8 14.625 16.8C14.85 16.8 15.075 16.725 15.225 16.5375L19.125 12.6C19.4625 12.2625 19.4625 11.7375 19.125 11.4L15.1875 7.425Z" fill="#161A23"/>
</svg>
