<svg width="24" height="24" viewBox="0 0 24 24" fill="none" xmlns="http://www.w3.org/2000/svg">
<path d="M16.9125 0.675049H7.08745C6.63745 0.675049 6.26245 1.05005 6.26245 1.50005C6.26245 1.95005 6.63745 2.32505 7.08745 2.32505H16.9125C17.3625 2.32505 17.7375 1.95005 17.7375 1.50005C17.7375 1.05005 17.3625 0.675049 16.9125 0.675049Z" fill="#161A23"/>
<path d="M12.6 4.87507C12.2625 4.53757 11.7375 4.53757 11.4 4.87507L7.425 8.81257C7.0875 9.15007 7.0875 9.67507 7.425 10.0126C7.7625 10.3501 8.2875 10.3501 8.625 10.0126L11.175 7.50007V22.5001C11.175 22.9501 11.55 23.3251 12 23.3251C12.45 23.3251 12.825 22.9501 12.825 22.5001V7.46257L15.375 9.97507C15.525 10.1251 15.75 10.2001 15.975 10.2001C16.2 10.2001 16.425 10.1251 16.575 9.93757C16.9125 9.60007 16.9125 9.07507 16.575 8.73757L12.6 4.87507Z" fill="#161A23"/>
</svg>
