<svg width="24" height="24" viewBox="0 0 24 24" fill="none" xmlns="http://www.w3.org/2000/svg">
<path d="M22.9125 6.375C22.7625 4.8 21.4875 3.525 19.95 3.3C19.575 3.2625 19.1625 3.2625 18.7875 3.3375V3.075C18.7875 1.725 17.7 0.637497 16.35 0.637497H7.42497C6.07497 0.637497 5.02497 1.725 5.02497 3.075V13.8C4.64997 13.7625 4.27497 13.7625 3.89997 13.8375C2.51247 14.0625 1.42497 15.15 1.12497 16.5C0.899974 17.55 1.16247 18.6375 1.83747 19.4625C2.51247 20.2875 3.48747 20.7375 4.53747 20.7375C4.68747 20.7375 4.83747 20.7375 4.98747 20.7V20.925C4.98747 22.275 6.07498 23.3625 7.38748 23.3625H16.35C17.7 23.3625 18.7875 22.275 18.7875 20.925V19.65C18.7875 19.35 18.6375 19.0875 18.375 18.9375C18.1125 18.7875 17.8125 18.75 17.55 18.9C17.2875 19.0125 16.875 19.1625 16.35 19.0125C15.675 18.8625 15.15 18.3 15 17.625C14.8875 17.0625 15.0375 16.5375 15.375 16.0875C15.7125 15.675 16.2375 15.4125 16.7625 15.4125C17.025 15.4125 17.325 15.4875 17.55 15.6C17.8125 15.7125 18.1125 15.7125 18.375 15.5625C18.6375 15.4125 18.7875 15.15 18.7875 14.85V10.1625C19.0125 10.2 19.2 10.2375 19.425 10.2375C20.4 10.2375 21.375 9.825 22.0125 9.075C22.725 8.3625 23.025 7.35 22.9125 6.375ZM17.1375 13.7625C15.975 13.65 14.85 14.1375 14.1375 15.0375C13.4625 15.8625 13.2 16.9125 13.425 17.9625C13.6875 19.275 14.7375 20.3625 16.05 20.6625C16.425 20.7375 16.8 20.775 17.1375 20.7375V20.925C17.1375 21.3375 16.8 21.675 16.3875 21.675H7.42497C7.01247 21.675 6.71247 21.3375 6.71247 20.925V19.5375C6.71247 19.2375 6.56247 18.975 6.29997 18.825C6.14997 18.75 6.03747 18.7125 5.88747 18.7125C5.73747 18.7125 5.58747 18.75 5.47497 18.825C5.21247 18.975 4.91247 19.05 4.57497 19.05C4.01247 19.05 3.52497 18.825 3.18747 18.375C2.84997 17.9625 2.69997 17.4 2.81247 16.8375C2.96247 16.1625 3.52497 15.6 4.23747 15.4875C4.68747 15.4125 5.09997 15.4875 5.47497 15.675C5.73747 15.825 6.07497 15.825 6.29997 15.675C6.56247 15.525 6.71247 15.2625 6.71247 14.9625V12.8625H9.63748C9.93748 12.8625 10.2 12.7125 10.35 12.45C10.5 12.1875 10.5 11.85 10.35 11.625C10.2 11.3625 10.125 11.0625 10.125 10.725C10.125 10.2 10.35 9.675 10.8 9.3375C11.2125 9 11.775 8.85 12.3 8.9625C12.975 9.1125 13.575 9.675 13.6875 10.35C13.7625 10.8 13.725 11.25 13.5 11.625C13.35 11.8875 13.35 12.225 13.5 12.45C13.65 12.7125 13.9125 12.8625 14.2125 12.8625H17.1375V13.7625ZM20.8125 7.95C20.475 8.325 19.9875 8.55 19.4625 8.55C19.0875 8.55 18.75 8.4375 18.45 8.25C18.1875 8.0625 17.85 8.0625 17.5875 8.2125C17.325 8.3625 17.1375 8.6625 17.1375 8.9625V11.175H15.375C15.4125 10.8 15.4125 10.3875 15.3375 9.975C15.075 8.625 13.95 7.5375 12.6 7.275C11.55 7.0875 10.5 7.35 9.71247 8.025C8.88747 8.7 8.43747 9.675 8.43747 10.725C8.43747 10.875 8.43747 11.025 8.47497 11.2125H6.71247V3.075C6.71247 2.6625 7.04997 2.325 7.42497 2.325H16.3875C16.8 2.325 17.1375 2.6625 17.1375 3.075V4.575C17.1375 4.875 17.325 5.175 17.5875 5.325C17.85 5.475 18.1875 5.4375 18.45 5.2875C18.825 5.025 19.275 4.95 19.725 4.9875C20.5125 5.1 21.1875 5.775 21.2625 6.5625C21.3 7.0875 21.15 7.575 20.8125 7.95Z" fill="#161A23"/>
</svg>
