<svg width="24" height="24" viewBox="0 0 24 24" fill="none" xmlns="http://www.w3.org/2000/svg">
<path d="M22.9124 17.0625L14.0999 4.08749C13.6124 3.37499 12.8249 2.96249 11.9999 2.96249C11.1374 2.96249 10.3499 3.37499 9.89995 4.08749L1.08745 17.0625C0.562446 17.85 0.487446 18.8625 0.937446 19.6875C1.38745 20.5125 2.24995 21.0375 3.18745 21.0375H20.7749C21.7124 21.0375 22.5749 20.5125 23.0249 19.6875C23.4749 18.8625 23.4374 17.85 22.9124 17.0625ZM7.12495 11.175H16.8749L19.3124 14.775H4.68745L7.12495 11.175ZM11.2874 5.02499C11.4374 4.79999 11.6999 4.64999 11.9999 4.64999C12.2999 4.64999 12.5624 4.79999 12.7124 5.02499L15.7124 9.48749H8.28745L11.2874 5.02499ZM21.5624 18.9C21.4874 19.05 21.2624 19.35 20.8124 19.35H3.22495C2.77495 19.35 2.54995 19.0125 2.47495 18.9C2.39995 18.7875 2.24995 18.4125 2.51245 18L3.56245 16.425H20.4749L21.5249 18C21.7499 18.4125 21.6374 18.75 21.5624 18.9Z" fill="#161A23"/>
</svg>
