<svg width="24" height="24" viewBox="0 0 24 24" fill="none" xmlns="http://www.w3.org/2000/svg">
<path d="M15.45 13.8375C15.1875 13.4625 14.6625 13.35 14.2875 13.65C13.9125 13.9125 13.8 14.4375 14.1 14.8125L14.3625 15.15H3.97502L5.51252 12.975H10.0875C10.5375 12.975 10.95 12.6 10.95 12.15C10.95 11.7 10.575 11.2875 10.0875 11.2875H6.71252L9.15002 7.8375L9.33752 8.1C9.60002 8.475 10.125 8.5875 10.5 8.2875C10.875 8.025 10.9875 7.5 10.6875 7.125L9.82503 5.8875C9.67502 5.6625 9.41252 5.55 9.15002 5.55C8.88752 5.55 8.62502 5.7 8.47502 5.8875L1.12502 16.2375C0.562524 16.9875 0.525024 18 0.937524 18.825C1.38752 19.65 2.21252 20.175 3.15002 20.175H15.1125C16.05 20.175 16.9125 19.65 17.325 18.825C17.775 18 17.7 16.9875 17.1375 16.2375L15.45 13.8375ZM15.8625 18.075C15.7875 18.225 15.6 18.525 15.15 18.525H3.15002C2.70002 18.525 2.47502 18.225 2.43752 18.075C2.28752 17.8125 2.32502 17.475 2.51252 17.2125L2.77502 16.8375H15.525L15.7875 17.2125C15.975 17.475 16.0125 17.8125 15.8625 18.075Z" fill="#161A23"/>
<path d="M18.2626 3.78751C15.4876 3.78751 13.2001 5.96251 13.2001 8.66251C13.2001 11.3625 15.4876 13.5375 18.2626 13.5375C21.0376 13.5375 23.3251 11.3625 23.3251 8.66251C23.3626 5.96251 21.0751 3.78751 18.2626 3.78751ZM18.2626 11.85C16.3876 11.85 14.8876 10.425 14.8876 8.66251C14.8876 6.90001 16.3876 5.47501 18.2626 5.47501C20.1376 5.47501 21.6376 6.90001 21.6376 8.66251C21.6751 10.425 20.1376 11.85 18.2626 11.85Z" fill="#161A23"/>
<path d="M18.8625 7.42501C18.525 7.12501 18.0375 7.12501 17.7 7.42501L16.3875 8.70001C16.05 9.03751 16.05 9.56251 16.35 9.90001C16.5 10.0875 16.725 10.1625 16.95 10.1625C17.175 10.1625 17.3625 10.0875 17.55 9.93751L18.3 9.22501L19.05 9.93751C19.3875 10.275 19.9125 10.2375 20.25 9.90001C20.5875 9.56251 20.55 9.03751 20.2125 8.70001L18.8625 7.42501Z" fill="#161A23"/>
</svg>
