<svg width="24" height="24" viewBox="0 0 24 24" fill="none" xmlns="http://www.w3.org/2000/svg">
<g clip-path="url(#clip0_501_38717)">
<path d="M14.0625 19.5C13.6125 19.5 13.2375 19.875 13.2375 20.325V22.5C13.2375 22.95 13.6125 23.325 14.0625 23.325C14.5125 23.325 14.8875 22.95 14.8875 22.5V20.325C14.8875 19.875 14.5125 19.5 14.0625 19.5Z" fill="#161A23"/>
<path d="M8.99985 17.8875L7.46235 19.425C7.12485 19.7625 7.12485 20.2875 7.46235 20.625C7.61235 20.775 7.83735 20.8875 8.06235 20.8875C8.28735 20.8875 8.51235 20.8125 8.66235 20.625L10.1999 19.0875C10.5374 18.75 10.5374 18.225 10.1999 17.8875C9.86235 17.55 9.33735 17.55 8.99985 17.8875Z" fill="#161A23"/>
<path d="M18.525 10.425C18.75 10.425 18.975 10.35 19.125 10.1625L20.6625 8.625C21 8.2875 21 7.7625 20.6625 7.425C20.325 7.0875 19.8 7.0875 19.4625 7.425L17.925 8.9625C17.5875 9.3 17.5875 9.825 17.925 10.1625C18.075 10.3125 18.3 10.425 18.525 10.425Z" fill="#161A23"/>
<path d="M22.5374 13.2001H20.3624C19.9124 13.2001 19.5374 13.5751 19.5374 14.0251C19.5374 14.4751 19.9124 14.8501 20.3624 14.8501H22.5374C22.9874 14.8501 23.3624 14.4751 23.3624 14.0251C23.3624 13.5751 22.9874 13.2001 22.5374 13.2001Z" fill="#161A23"/>
<path d="M8.99985 10.1625C9.14985 10.3125 9.37485 10.425 9.59985 10.425C9.82485 10.425 10.0499 10.35 10.1999 10.1625C10.5374 9.825 10.5374 9.3 10.1999 8.9625L8.66235 7.425C8.32485 7.0875 7.79985 7.0875 7.46235 7.425C7.12485 7.7625 7.12485 8.2875 7.46235 8.625L8.99985 10.1625Z" fill="#161A23"/>
<path d="M19.125 17.8875C18.7875 17.55 18.2625 17.55 17.925 17.8875C17.5875 18.225 17.5875 18.75 17.925 19.0875L19.4625 20.625C19.6125 20.775 19.8375 20.8875 20.0625 20.8875C20.2875 20.8875 20.5125 20.8125 20.6625 20.625C21 20.2875 21 19.7625 20.6625 19.425L19.125 17.8875Z" fill="#161A23"/>
<path d="M14.0625 0.675049C6.63745 0.675049 0.637451 6.67505 0.637451 14.1C0.637451 14.55 1.01245 14.925 1.46245 14.925H14.0625C14.5125 14.925 14.8875 14.55 14.8875 14.1V1.50005C14.8875 1.05005 14.5125 0.675049 14.0625 0.675049ZM13.2 13.2375H2.32495C2.73745 7.42505 7.38745 2.77505 13.2 2.36255V13.2375Z" fill="#161A23"/>
</g>
<defs>
<clipPath id="clip0_501_38717">
<rect width="24" height="24" fill="white"/>
</clipPath>
</defs>
</svg>
