<svg width="24" height="24" viewBox="0 0 24 24" fill="none" xmlns="http://www.w3.org/2000/svg">
<g clip-path="url(#clip0_501_38689)">
<path d="M12 0.675049C5.73755 0.675049 0.675049 5.73755 0.675049 12C0.675049 18.2626 5.73755 23.3251 12 23.3251C18.2626 23.3251 23.3251 18.2626 23.3251 12C23.3251 5.73755 18.2626 0.675049 12 0.675049ZM12 21.6751C6.67505 21.6751 2.32505 17.3251 2.32505 12C2.32505 6.67505 6.67505 2.32505 12 2.32505C17.3251 2.32505 21.6751 6.67505 21.6751 12C21.6751 17.3251 17.3251 21.6751 12 21.6751Z" fill="#161A23"/>
<path d="M12 5.70007C8.54995 5.70007 5.69995 8.51257 5.69995 12.0001C5.69995 12.4501 6.07495 12.8251 6.52495 12.8251H12C12.45 12.8251 12.825 12.4501 12.825 12.0001V6.56257C12.825 6.07507 12.45 5.70007 12 5.70007ZM11.175 11.1751H7.49995C7.83745 9.30007 9.33745 7.83757 11.175 7.50007V11.1751Z" fill="#161A23"/>
</g>
<defs>
<clipPath id="clip0_501_38689">
<rect width="24" height="24" fill="white"/>
</clipPath>
</defs>
</svg>
