<svg width="24" height="24" viewBox="0 0 24 24" fill="none" xmlns="http://www.w3.org/2000/svg">
<g clip-path="url(#clip0_501_43631)">
<path d="M12 0.674988C5.73749 0.674988 0.674988 5.73749 0.674988 12C0.674988 18.2625 5.73749 23.3625 12 23.3625C18.2625 23.3625 23.3625 18.2625 23.3625 12C23.3625 5.73749 18.2625 0.674988 12 0.674988ZM12 21.675C6.67499 21.675 2.36249 17.325 2.36249 12C2.36249 6.67499 6.67499 2.36249 12 2.36249C17.325 2.36249 21.675 6.71249 21.675 12.0375C21.675 17.325 17.325 21.675 12 21.675Z" fill="#161A23"/>
<path d="M12.675 4.53748C11.5875 4.34998 10.4625 4.64998 9.63748 5.36248C8.81248 6.07498 8.32498 7.08748 8.32498 8.21248C8.32498 8.62498 8.39998 9.03748 8.54998 9.44998C8.69998 9.89998 9.18748 10.125 9.63748 9.97498C10.0875 9.82498 10.3125 9.33748 10.1625 8.88748C10.0875 8.66248 10.05 8.43748 10.05 8.21248C10.05 7.61248 10.3125 7.04998 10.7625 6.67498C11.2125 6.29998 11.8125 6.11248 12.45 6.22498C13.2375 6.37498 13.9125 7.04998 14.0625 7.83748C14.2125 8.77498 13.725 9.71248 12.8625 10.0875C11.8875 10.5 11.25 11.475 11.25 12.6V14.925C11.25 15.375 11.625 15.7875 12.1125 15.7875C12.5625 15.7875 12.975 15.4125 12.975 14.925V12.6C12.975 12.1875 13.2 11.8125 13.5375 11.6625C15.15 10.9875 16.0875 9.29998 15.7875 7.57498C15.375 6.03748 14.175 4.79998 12.675 4.53748Z" fill="#161A23"/>
<path d="M12.0375 17.175H11.925C11.475 17.175 11.0625 17.55 11.0625 18.0375C11.0625 18.525 11.4375 18.9 11.925 18.9H12.0375C12.4875 18.9 12.8625 18.525 12.8625 18.0375C12.8625 17.55 12.525 17.175 12.0375 17.175Z" fill="#161A23"/>
</g>
<defs>
<clipPath id="clip0_501_43631">
<rect width="24" height="24" fill="white"/>
</clipPath>
</defs>
</svg>
