<svg width="24" height="24" viewBox="0 0 24 24" fill="none" xmlns="http://www.w3.org/2000/svg">
<path d="M18.15 1.72495C18.075 1.34995 17.85 1.01245 17.5125 0.824951C17.175 0.637451 16.8 0.599951 16.425 0.712451C15.6375 0.974951 14.1 1.53745 12.45 2.54995C12.3 2.66245 11.9625 2.84995 11.8125 3.86245C10.875 3.63745 10.5375 3.93745 10.3875 4.08745C9.37503 4.98745 8.55003 5.96245 7.95003 7.01245C5.17503 11.8125 6.82503 17.85 6.90003 18.075V18.1124C6.56253 19.0125 6.26253 19.9125 5.96253 20.8875C5.81253 21.3 5.70003 21.75 5.51253 22.2374C5.36253 22.6875 5.58753 23.1749 6.03753 23.2875C6.11253 23.325 6.22503 23.325 6.30003 23.325C6.63753 23.325 6.97503 23.1 7.08753 22.7625C7.23753 22.275 7.38753 21.825 7.53753 21.4125C7.87503 20.3624 8.17503 19.4249 8.55003 18.4874C10.2375 17.9249 14.6625 16.1625 16.9125 12.225C19.2 8.28745 18.525 3.56245 18.15 1.72495ZM15.4875 11.3625C14.0625 13.875 11.5125 15.375 9.67503 16.2C10.2 15.3 10.8375 14.2875 11.7375 13.05C12 12.675 11.925 12.15 11.55 11.8875C11.175 11.625 10.65 11.7 10.3875 12.075C9.41253 13.3875 8.70003 14.5125 8.13753 15.4875C7.91253 13.4625 7.91253 10.3875 9.41253 7.83745C9.90003 7.01245 10.5375 6.22495 11.325 5.47495C11.55 5.51245 11.8875 5.66245 12.1875 5.77495C12.45 5.88745 12.75 5.88745 13.0125 5.73745C13.275 5.58745 13.3875 5.32495 13.3875 5.02495C13.3875 4.61245 13.425 4.12495 13.5 3.86245C14.7 3.14995 15.825 2.66245 16.575 2.39995C16.875 4.08745 17.325 8.13745 15.4875 11.3625Z" fill="#161A23"/>
</svg>
