<svg width="24" height="24" viewBox="0 0 24 24" fill="none" xmlns="http://www.w3.org/2000/svg">
<path d="M19.1625 23.3624C17.6625 23.3624 16.4625 22.8374 15.525 21.7874C14.4 22.1624 13.2 22.3874 11.9625 22.3874C6 22.3874 1.125 17.5124 1.125 11.5124C1.1625 5.51243 6 0.674927 12 0.674927C18 0.674927 22.875 5.54993 22.875 11.5124C22.875 14.7374 21.9 17.1749 19.8 19.0499C20.175 19.2749 20.6625 19.5374 21.075 19.6874C21.375 19.7999 21.6 20.1374 21.6 20.4749V22.3874C21.6 22.8374 21.2625 23.2124 20.8125 23.2124C20.5875 23.2499 19.5 23.3624 19.1625 23.3624ZM15.7875 19.9124C16.05 19.9124 16.3125 20.0249 16.4625 20.2499C16.95 20.9249 17.6625 21.6374 19.1625 21.6374C19.275 21.6374 19.5375 21.6374 19.875 21.5999V20.9999C19.2 20.6999 18.2625 20.1374 17.85 19.4999C17.775 19.3874 17.7375 19.2749 17.7 19.1624C17.625 18.6749 17.9625 18.3749 18.4125 17.9624C20.2875 16.3499 21.15 14.3624 21.15 11.4749C21.15 6.41243 17.025 2.32493 11.9625 2.32493C6.9375 2.36243 2.85 6.44993 2.85 11.5124C2.85 16.5749 6.9375 20.6999 12 20.6999C13.2375 20.6999 14.4 20.4749 15.4875 20.0249C15.6 19.9499 15.7125 19.9124 15.7875 19.9124Z" fill="#15171A"/>
<path d="M12.1122 19.5376C9.29971 19.5376 7.01221 17.2501 7.01221 14.4376V8.55007C7.01221 5.73757 9.29971 3.45007 12.1122 3.45007C13.4622 3.45007 14.7747 4.01257 15.7122 4.95007C16.6497 5.88757 17.1747 7.16257 17.1747 8.55007C17.1372 15.2626 17.0622 15.5626 17.0247 15.6751C16.9497 15.9751 16.7622 16.2001 16.4997 16.2751C16.2372 16.3876 15.9372 16.3126 15.6747 16.1626C15.3372 15.9001 14.1372 15.5626 12.9372 15.3001V15.9001C13.5747 16.2376 14.6622 16.8376 15.1872 17.2876C15.3747 17.4751 15.4872 17.7001 15.4497 17.9626C15.4497 18.2251 15.2997 18.4501 15.1122 18.6001C14.2497 19.2001 13.1622 19.5376 12.1122 19.5376ZM12.1122 5.13757C10.2372 5.13757 8.69971 6.67507 8.69971 8.55007V14.4376C8.69971 16.3126 10.2372 17.8501 12.1122 17.8501C12.4122 17.8501 12.6747 17.8126 12.9372 17.7376C12.5247 17.5126 12.0747 17.2501 11.7372 17.1001C11.4372 16.9501 11.2497 16.6501 11.2497 16.3501V14.2501C11.2497 13.9876 11.3622 13.7626 11.5497 13.6126C11.7372 13.4626 11.9997 13.3876 12.2247 13.4251C12.7872 13.5376 14.2122 13.8001 15.3747 14.1751C15.4122 12.7126 15.4122 10.2376 15.4497 8.51257C15.4497 7.61257 15.1122 6.75007 14.4372 6.11257C13.8747 5.47507 13.0122 5.13757 12.1122 5.13757Z" fill="#15171A"/>
</svg>
