<svg width="24" height="24" viewBox="0 0 24 24" fill="none" xmlns="http://www.w3.org/2000/svg">
<path d="M21.3749 13.275H15.8999V9.86251C15.8999 6.22501 18.8624 3.26251 22.4999 3.26251C22.9499 3.26251 23.3624 2.88751 23.3624 2.40001C23.3624 1.91251 22.9874 1.53751 22.4999 1.53751C17.9249 1.53751 14.2124 5.25001 14.2124 9.82501V20.3625C14.2124 21.45 15.1124 22.35 16.1999 22.35H21.3749C22.4624 22.35 23.3624 21.45 23.3624 20.3625V15.2625C23.3624 14.175 22.4624 13.275 21.3749 13.275ZM21.6749 20.4375C21.6749 20.5875 21.5624 20.7375 21.3749 20.7375H16.1999C16.0499 20.7375 15.8999 20.625 15.8999 20.4375V14.9625H21.3749C21.5249 14.9625 21.6749 15.075 21.6749 15.2625V20.4375Z" fill="#161A23"/>
<path d="M8.92495 3.30001C9.37495 3.30001 9.78745 2.92501 9.78745 2.43751C9.78745 1.95001 9.41245 1.57501 8.92495 1.57501C4.34995 1.57501 0.637451 5.28751 0.637451 9.86251V20.4C0.637451 21.4875 1.53745 22.3875 2.62495 22.3875H7.79995C8.88745 22.3875 9.78745 21.4875 9.78745 20.4V15.2625C9.78745 14.175 8.88745 13.275 7.79995 13.275H2.36245V9.86251C2.36245 6.26251 5.28745 3.30001 8.92495 3.30001ZM8.09995 15.2625V20.4375C8.09995 20.5875 7.98745 20.7375 7.79995 20.7375H2.62495C2.47495 20.7375 2.32495 20.625 2.32495 20.4375V14.9625H7.79995C7.94995 14.9625 8.09995 15.075 8.09995 15.2625Z" fill="#161A23"/>
</svg>
