<svg width="24" height="24" viewBox="0 0 24 24" fill="none" xmlns="http://www.w3.org/2000/svg">
<path d="M9.78745 3.56251C9.78745 2.47501 8.88745 1.57501 7.79995 1.57501H2.62495C1.53745 1.57501 0.637451 2.47501 0.637451 3.56251V8.73751C0.637451 9.82501 1.53745 10.725 2.62495 10.725H8.09995V14.1375C8.09995 17.775 5.13745 20.7375 1.49995 20.7375C1.04995 20.7375 0.637451 21.1125 0.637451 21.6C0.637451 22.0875 1.01245 22.4625 1.49995 22.4625C6.07495 22.4625 9.78745 18.75 9.78745 14.175V3.56251ZM8.09995 9.03751H2.62495C2.47495 9.03751 2.32495 8.92501 2.32495 8.73751V3.56251C2.32495 3.41251 2.43745 3.26251 2.62495 3.26251H7.79995C7.94995 3.26251 8.09995 3.37501 8.09995 3.56251V9.03751Z" fill="#161A23"/>
<path d="M23.3624 3.56251C23.3624 2.47501 22.4624 1.57501 21.3749 1.57501H16.1999C15.1124 1.57501 14.2124 2.47501 14.2124 3.56251V8.73751C14.2124 9.82501 15.1124 10.725 16.1999 10.725H21.6749V14.1375C21.6749 17.775 18.7124 20.7375 15.0749 20.7375C14.6249 20.7375 14.2124 21.1125 14.2124 21.6C14.2124 22.0875 14.5874 22.4625 15.0749 22.4625C19.6499 22.4625 23.3624 18.75 23.3624 14.175V3.56251ZM15.8999 8.73751V3.56251C15.8999 3.41251 16.0124 3.26251 16.1999 3.26251H21.3749C21.5249 3.26251 21.6749 3.37501 21.6749 3.56251V9.03751H16.1999C16.0499 9.03751 15.8999 8.92501 15.8999 8.73751Z" fill="#161A23"/>
</svg>
