<svg width="24" height="24" viewBox="0 0 24 24" fill="none" xmlns="http://www.w3.org/2000/svg">
<g clip-path="url(#clip0_501_39794)">
<path d="M11.4001 7.83748C11.4001 7.16248 10.8376 6.59998 10.1626 6.59998H7.38765C6.71265 6.59998 6.15015 7.16248 6.15015 7.83748V10.6125C6.15015 11.2875 6.71265 11.85 7.38765 11.85H9.71265V13.0125C9.71265 14.5125 8.51265 15.7125 7.01265 15.7125C6.56265 15.7125 6.15015 16.0875 6.15015 16.575C6.15015 17.0625 6.52515 17.4375 7.01265 17.4375C9.41265 17.4375 11.4001 15.4875 11.4001 13.05V7.83748ZM9.71265 10.1625H7.87515V8.32498H9.71265V10.1625Z" fill="#161A23"/>
<path d="M16.6126 6.59998H13.8376C13.1626 6.59998 12.6001 7.16248 12.6001 7.83748V10.6125C12.6001 11.2875 13.1626 11.85 13.8376 11.85H16.1626V13.0125C16.1626 14.5125 14.9626 15.7125 13.4626 15.7125C13.0126 15.7125 12.6001 16.0875 12.6001 16.575C12.6001 17.0625 12.9751 17.4375 13.4626 17.4375C15.8626 17.4375 17.8501 15.4875 17.8501 13.05V7.83748C17.8501 7.16248 17.2876 6.59998 16.6126 6.59998ZM14.2876 8.28748H16.1251V10.125H14.2876V8.28748Z" fill="#161A23"/>
<path d="M12 0.674988C5.73755 0.674988 0.675049 5.73749 0.675049 12C0.675049 18.2625 5.73755 23.3625 12 23.3625C18.2626 23.3625 23.3625 18.2625 23.3625 12C23.3625 5.73749 18.2626 0.674988 12 0.674988ZM12 21.675C6.67505 21.675 2.36255 17.325 2.36255 12C2.36255 6.67499 6.67505 2.36249 12 2.36249C17.325 2.36249 21.675 6.71249 21.675 12.0375C21.675 17.325 17.325 21.675 12 21.675Z" fill="#161A23"/>
</g>
<defs>
<clipPath id="clip0_501_39794">
<rect width="24" height="24" fill="white"/>
</clipPath>
</defs>
</svg>
