<svg width="24" height="24" viewBox="0 0 24 24" fill="none" xmlns="http://www.w3.org/2000/svg">
<g clip-path="url(#clip0_501_39805)">
<path d="M9.56245 7.57498H6.71245C5.84995 7.57498 5.13745 8.28748 5.13745 9.14998V12C5.13745 12.8625 5.84995 13.575 6.71245 13.575H6.78745L6.48745 14.175C6.26245 14.6625 6.26245 15.225 6.56245 15.675C6.86245 16.125 7.34995 16.425 7.87495 16.425H8.43745C9.03745 16.425 9.56245 16.0875 9.82495 15.5625L10.9875 13.2375C11.1 13.0125 11.1375 12.7875 11.1375 12.525V9.11248C11.1375 8.28748 10.425 7.57498 9.56245 7.57498ZM9.44995 12.525L8.32495 14.7375H8.06245L8.36245 14.1375C8.58745 13.65 8.58745 13.0875 8.28745 12.6375C7.98745 12.1875 7.49995 11.8875 6.97495 11.8875H6.82495V9.29998H9.41245V12.525H9.44995Z" fill="#161A23"/>
<path d="M17.2875 7.57498H14.4375C13.575 7.57498 12.8625 8.28748 12.8625 9.14998V12C12.8625 12.8625 13.575 13.575 14.4375 13.575H14.5125L14.2125 14.175C13.9875 14.6625 13.9875 15.225 14.2875 15.675C14.5875 16.125 15.075 16.425 15.6 16.425H16.125C16.725 16.425 17.25 16.0875 17.5125 15.5625L18.675 13.2375C18.7875 13.0125 18.825 12.7875 18.825 12.525V9.11248C18.8625 8.28748 18.15 7.57498 17.2875 7.57498ZM17.175 12.525L16.05 14.7375H15.7875L16.0875 14.1375C16.3125 13.65 16.3125 13.0875 16.0125 12.6375C15.7125 12.1875 15.225 11.8875 14.7 11.8875H14.55V9.29998H17.1375V12.525H17.175Z" fill="#161A23"/>
<path d="M12 0.674988C5.73755 0.674988 0.675049 5.73749 0.675049 12C0.675049 18.2625 5.73755 23.3625 12 23.3625C18.2626 23.3625 23.3625 18.2625 23.3625 12C23.3625 5.73749 18.2626 0.674988 12 0.674988ZM12 21.675C6.67505 21.675 2.36255 17.325 2.36255 12C2.36255 6.67499 6.67505 2.36249 12 2.36249C17.325 2.36249 21.675 6.71249 21.675 12.0375C21.675 17.325 17.325 21.675 12 21.675Z" fill="#161A23"/>
</g>
<defs>
<clipPath id="clip0_501_39805">
<rect width="24" height="24" fill="white"/>
</clipPath>
</defs>
</svg>
