<svg width="24" height="24" viewBox="0 0 24 24" fill="none" xmlns="http://www.w3.org/2000/svg">
<path d="M21 9.67499H20.4375C20.1 9.67499 19.95 9.44999 19.875 9.37499C19.8 9.29999 19.6875 9.03749 19.8375 8.73749L20.6625 7.08749C21.0375 6.33749 21 5.51249 20.55 4.79999C20.1375 4.08749 19.3875 3.67499 18.5625 3.67499H17.4C16.5 3.67499 15.7125 4.16249 15.3 4.98749L12.8625 9.82499C12.75 10.125 12.675 10.5 12.675 10.8375V18C12.675 19.275 13.725 20.3625 15.0375 20.3625H21.0375C22.3125 20.3625 23.4 19.3125 23.4 18V12C23.3625 10.725 22.275 9.67499 21 9.67499ZM21.675 18C21.675 18.375 21.375 18.675 21 18.675H15C14.625 18.675 14.325 18.375 14.325 18V10.8375C14.325 10.725 14.3625 10.65 14.4 10.5375L16.8375 5.69999C16.95 5.47499 17.175 5.32499 17.4375 5.32499H18.6C18.9375 5.32499 19.0875 5.54999 19.1625 5.62499C19.2375 5.69999 19.35 5.96249 19.2 6.26249L18.375 7.91249C18 8.66249 18.0375 9.48749 18.4875 10.2C18.9 10.9125 19.65 11.325 20.475 11.325H21C21.375 11.325 21.675 11.625 21.675 12V18Z" fill="#161A23"/>
<path d="M9.00005 9.67499H8.43755C8.10005 9.67499 7.95005 9.44999 7.87505 9.37499C7.80005 9.29999 7.68755 9.03749 7.83755 8.73749L8.66255 7.08749C9.03755 6.33749 9.00005 5.51249 8.55005 4.79999C8.13755 4.08749 7.38755 3.67499 6.56255 3.67499H5.40005C4.50005 3.67499 3.71255 4.16249 3.30005 4.98749L0.900049 9.78749C0.750049 10.125 0.675049 10.5 0.675049 10.8375V18C0.675049 19.275 1.72505 20.3625 3.03755 20.3625H9.03755C10.3125 20.3625 11.4 19.3125 11.4 18V12C11.3625 10.725 10.275 9.67499 9.00005 9.67499ZM9.67505 18C9.67505 18.375 9.37505 18.675 9.00005 18.675H3.00005C2.62505 18.675 2.32505 18.375 2.32505 18V10.8375C2.32505 10.725 2.36255 10.65 2.40005 10.5375L4.83755 5.69999C4.95005 5.47499 5.17505 5.32499 5.43755 5.32499H6.60005C6.93755 5.32499 7.08755 5.54999 7.16255 5.62499C7.23755 5.69999 7.35005 5.96249 7.20005 6.26249L6.37505 7.91249C6.00005 8.66249 6.03755 9.48749 6.48755 10.2C6.90005 10.9125 7.65005 11.325 8.47505 11.325H9.00005C9.37505 11.325 9.67505 11.625 9.67505 12V18Z" fill="#161A23"/>
</svg>
