<svg width="24" height="24" viewBox="0 0 24 24" fill="none" xmlns="http://www.w3.org/2000/svg">
<g clip-path="url(#clip0_501_39806)">
<path d="M17.2875 10.425H17.2125L17.5125 9.82498C17.7375 9.33748 17.7375 8.77498 17.4375 8.32498C17.1375 7.87498 16.65 7.57498 16.125 7.57498H15.5625C14.9625 7.57498 14.4375 7.91248 14.175 8.43748L13.0125 10.7625C12.9 10.9875 12.8625 11.2125 12.8625 11.475V14.8875C12.8625 15.75 13.575 16.4625 14.4375 16.4625H17.2875C18.15 16.4625 18.8625 15.75 18.8625 14.8875V12C18.8625 11.1375 18.15 10.425 17.2875 10.425ZM17.175 14.7375H14.5875V11.5125L15.7125 9.29998H15.975L15.675 9.89998C15.45 10.3875 15.45 10.95 15.75 11.4C16.05 11.85 16.5375 12.15 17.0625 12.15H17.2125V14.7375H17.175Z" fill="#161A23"/>
<path d="M9.56255 10.425H9.48755L9.78755 9.82498C10.0125 9.33748 10.0125 8.77498 9.71255 8.32498C9.41255 7.87498 8.92505 7.57498 8.40005 7.57498H7.87505C7.27505 7.57498 6.75005 7.91248 6.48755 8.43748L5.32505 10.7625C5.21255 10.9875 5.17505 11.2125 5.17505 11.475V14.8875C5.17505 15.75 5.88755 16.4625 6.75005 16.4625H9.60005C10.4625 16.4625 11.175 15.75 11.175 14.8875V12C11.1375 11.1375 10.425 10.425 9.56255 10.425ZM9.45005 14.7375H6.86255V11.5125L7.98755 9.29998H8.25005L7.95005 9.89998C7.72505 10.3875 7.72505 10.95 8.02505 11.4C8.32505 11.85 8.81255 12.15 9.33755 12.15H9.48755V14.7375H9.45005Z" fill="#161A23"/>
<path d="M12 0.674988C5.73755 0.674988 0.675049 5.73749 0.675049 12C0.675049 18.2625 5.73755 23.3625 12 23.3625C18.2626 23.3625 23.3625 18.2625 23.3625 12C23.3625 5.73749 18.2626 0.674988 12 0.674988ZM12 21.675C6.67505 21.675 2.36255 17.325 2.36255 12C2.36255 6.67499 6.67505 2.36249 12 2.36249C17.325 2.36249 21.675 6.71249 21.675 12.0375C21.675 17.325 17.325 21.675 12 21.675Z" fill="#161A23"/>
</g>
<defs>
<clipPath id="clip0_501_39806">
<rect width="24" height="24" fill="white"/>
</clipPath>
</defs>
</svg>
