<svg width="24" height="24" viewBox="0 0 24 24" fill="none" xmlns="http://www.w3.org/2000/svg">
<path d="M8.99995 3.67499H2.99995C1.72495 3.67499 0.637451 4.72499 0.637451 6.03749V12.0375C0.637451 13.3125 1.68745 14.4 2.99995 14.4H3.56245C3.89995 14.4 4.04995 14.625 4.12495 14.7C4.19995 14.775 4.31245 15.0375 4.16245 15.3375L3.33745 16.9875C2.96245 17.7375 2.99995 18.5625 3.44995 19.275C3.86245 19.9875 4.61245 20.4 5.43745 20.4H6.59995C7.49995 20.4 8.28745 19.9125 8.69995 19.0875L11.1375 14.25C11.2875 13.9125 11.4 13.575 11.4 13.2V5.99999C11.3625 4.72499 10.275 3.67499 8.99995 3.67499ZM9.67495 13.1625C9.67495 13.275 9.63745 13.35 9.59995 13.4625L7.16245 18.3C7.04995 18.525 6.82495 18.675 6.56245 18.675H5.39995C5.06245 18.675 4.91245 18.45 4.83745 18.375C4.76245 18.3 4.64995 18.0375 4.79995 17.7375L5.62495 16.0875C5.99995 15.3375 5.96245 14.5125 5.51245 13.8C5.09995 13.0875 4.34995 12.675 3.52495 12.675H2.99995C2.62495 12.675 2.32495 12.375 2.32495 12V5.99999C2.32495 5.62499 2.62495 5.32499 2.99995 5.32499H8.99995C9.37495 5.32499 9.67495 5.62499 9.67495 5.99999V13.1625Z" fill="#161A23"/>
<path d="M21 3.67499H15C13.725 3.67499 12.6375 4.72499 12.6375 6.03749V12.0375C12.6375 13.3125 13.6875 14.4 15 14.4H15.5625C15.9 14.4 16.05 14.625 16.125 14.7C16.2 14.775 16.3125 15.0375 16.1625 15.3375L15.3375 16.9875C14.9625 17.7375 15 18.5625 15.45 19.275C15.8625 19.9875 16.6125 20.4 17.4375 20.4H18.6C19.5 20.4 20.2875 19.9125 20.7 19.0875L23.1375 14.25C23.2875 13.9125 23.4 13.575 23.4 13.2V5.99999C23.3625 4.72499 22.275 3.67499 21 3.67499ZM21.675 13.1625C21.675 13.275 21.6375 13.35 21.6 13.4625L19.1625 18.3C19.05 18.525 18.825 18.675 18.5625 18.675H17.4C17.0625 18.675 16.9125 18.45 16.8375 18.375C16.7625 18.3 16.65 18.0375 16.8 17.7375L17.625 16.0875C18 15.3375 17.9625 14.5125 17.5125 13.8C17.1 13.0875 16.35 12.675 15.525 12.675H15C14.625 12.675 14.325 12.375 14.325 12V5.99999C14.325 5.62499 14.625 5.32499 15 5.32499H21C21.375 5.32499 21.675 5.62499 21.675 5.99999V13.1625Z" fill="#161A23"/>
</svg>
