<svg width="24" height="24" viewBox="0 0 24 24" fill="none" xmlns="http://www.w3.org/2000/svg">
<path d="M7.20002 18.5626C6.75002 18.5626 6.33752 18.3001 6.18752 17.8876L4.95002 14.8876C3.56252 14.6626 2.32502 13.9501 1.53752 12.8626C0.712515 11.7751 0.450015 10.4251 0.787515 9.11255C1.31252 6.97505 3.52502 5.36255 5.96252 5.40005C7.68752 5.43755 9.11252 6.15005 10.05 7.42505C10.95 8.70005 11.175 10.4251 10.65 12.0001C10.1625 13.4251 9.52501 14.8501 8.92502 16.2376C8.70002 16.8001 8.43752 17.3626 8.21252 17.8876C8.06252 18.3001 7.65002 18.5626 7.20002 18.5626ZM5.88752 7.08755C4.23752 7.08755 2.73752 8.13755 2.40002 9.52505C2.21252 10.3501 2.36252 11.1751 2.88752 11.8501C3.48752 12.6751 4.50002 13.2001 5.58752 13.2751L6.11252 13.3126L7.20002 15.9376C7.23752 15.8251 7.31252 15.6751 7.35002 15.5626C7.95002 14.2126 8.55002 12.8251 9.00002 11.4376C9.37502 10.3876 9.22502 9.22505 8.62502 8.40005C8.02502 7.57505 7.08752 7.12505 5.92502 7.08755C5.92502 7.08755 5.92502 7.08755 5.88752 7.08755Z" fill="#161A23"/>
<path d="M19.6125 18.6002C19.1625 18.6002 18.75 18.3377 18.6 17.9252L17.3625 14.9252C15.975 14.7002 14.7375 13.9877 13.95 12.9002C13.125 11.8127 12.8625 10.4627 13.2 9.15015C13.725 7.01265 15.9375 5.40015 18.375 5.43765C20.1 5.47515 21.525 6.18765 22.425 7.46265C23.325 8.73765 23.55 10.4627 23.025 12.0377C22.5375 13.4627 21.9 14.8877 21.3 16.2752C21.075 16.8377 20.8125 17.4002 20.5875 17.9252C20.475 18.3377 20.0625 18.6002 19.6125 18.6002ZM18.3 7.08765C16.65 7.08765 15.15 8.13765 14.8125 9.52515C14.625 10.3502 14.775 11.1752 15.3 11.8877C15.9 12.7127 16.9125 13.2377 18 13.3127L18.525 13.3502L19.6125 15.9752C19.65 15.8627 19.725 15.7127 19.7625 15.6002C20.3625 14.2502 20.9625 12.8627 21.4125 11.4752C21.7875 10.4252 21.6375 9.26265 21.0375 8.40015C20.4375 7.57515 19.5 7.12515 18.3375 7.08765C18.3375 7.08765 18.3375 7.08765 18.3 7.08765Z" fill="#161A23"/>
</svg>
