<svg width="24" height="24" viewBox="0 0 24 24" fill="none" xmlns="http://www.w3.org/2000/svg">
<g clip-path="url(#clip0_501_39798)">
<path d="M16.9876 8.2875C17.4376 8.2875 17.8501 7.9125 17.8501 7.425C17.8501 6.9375 17.4751 6.5625 16.9876 6.5625C14.5876 6.5625 12.6001 8.5125 12.6001 10.95V12.975V16.125C12.6001 16.8 13.1626 17.3625 13.8376 17.3625H16.6126C17.2876 17.3625 17.8501 16.8 17.8501 16.125V13.35C17.8501 12.675 17.2876 12.1125 16.6126 12.1125H14.2876V10.95C14.2876 9.4875 15.5251 8.2875 16.9876 8.2875ZM16.1626 15.7125H14.3251V13.875H16.1626V15.7125Z" fill="#161A23"/>
<path d="M10.5376 8.2875C10.9876 8.2875 11.4001 7.9125 11.4001 7.425C11.4001 6.9375 11.0251 6.5625 10.5376 6.5625C8.13765 6.5625 6.15015 8.5125 6.15015 10.95V12.975V16.125C6.15015 16.8 6.71265 17.3625 7.38765 17.3625H10.1626C10.8376 17.3625 11.4001 16.8 11.4001 16.125V13.35C11.4001 12.675 10.8376 12.1125 10.1626 12.1125H7.83765V10.95C7.83765 9.4875 9.03765 8.2875 10.5376 8.2875ZM9.71265 15.7125H7.87515V13.875H9.71265V15.7125Z" fill="#161A23"/>
<path d="M12 0.674988C5.73755 0.674988 0.675049 5.73749 0.675049 12C0.675049 18.2625 5.73755 23.3625 12 23.3625C18.2626 23.3625 23.3625 18.2625 23.3625 12C23.3625 5.73749 18.2626 0.674988 12 0.674988ZM12 21.675C6.67505 21.675 2.36255 17.325 2.36255 12C2.36255 6.67499 6.67505 2.36249 12 2.36249C17.325 2.36249 21.675 6.71249 21.675 12.0375C21.675 17.325 17.325 21.675 12 21.675Z" fill="#161A23"/>
</g>
<defs>
<clipPath id="clip0_501_39798">
<rect width="24" height="24" fill="white"/>
</clipPath>
</defs>
</svg>
