<svg width="24" height="24" viewBox="0 0 24 24" fill="none" xmlns="http://www.w3.org/2000/svg">
<path d="M3.41249 1.61249C1.91249 1.61249 0.674988 2.84999 0.674988 4.34999C0.674988 5.84999 1.87499 7.12499 3.41249 7.12499C4.94999 7.12499 6.14999 5.88749 6.14999 4.38749C6.14999 2.88749 4.91249 1.61249 3.41249 1.61249ZM3.41249 5.43749C2.81249 5.43749 2.36249 4.94999 2.36249 4.38749C2.36249 3.82499 2.84999 3.33749 3.41249 3.33749C3.97499 3.33749 4.46249 3.82499 4.46249 4.38749C4.46249 4.94999 4.01249 5.43749 3.41249 5.43749Z" fill="#161A23"/>
<path d="M3.41249 9.26248C1.91249 9.26248 0.674988 10.5 0.674988 12C0.674988 13.5 1.91249 14.7375 3.41249 14.7375C4.91249 14.7375 6.14999 13.5 6.14999 12C6.14999 10.5 4.91249 9.26248 3.41249 9.26248ZM3.41249 13.05C2.81249 13.05 2.36249 12.5625 2.36249 12C2.36249 11.4375 2.84999 10.95 3.41249 10.95C3.97499 10.95 4.46249 11.4375 4.46249 12C4.46249 12.5625 4.01249 13.05 3.41249 13.05Z" fill="#161A23"/>
<path d="M3.41249 16.875C1.91249 16.875 0.674988 18.1125 0.674988 19.6125C0.674988 21.1125 1.91249 22.35 3.41249 22.35C4.91249 22.35 6.14999 21.1125 6.14999 19.6125C6.14999 18.1125 4.91249 16.875 3.41249 16.875ZM3.41249 20.7C2.81249 20.7 2.36249 20.2125 2.36249 19.65C2.36249 19.0875 2.84999 18.6 3.41249 18.6C3.97499 18.6 4.46249 19.0875 4.46249 19.65C4.46249 20.2125 4.01249 20.7 3.41249 20.7Z" fill="#161A23"/>
<path d="M9.14998 5.21249H22.5C22.95 5.21249 23.3625 4.83749 23.3625 4.34999C23.3625 3.86249 22.9875 3.48749 22.5 3.48749H9.14998C8.69998 3.48749 8.28748 3.86249 8.28748 4.34999C8.28748 4.83749 8.66248 5.21249 9.14998 5.21249Z" fill="#161A23"/>
<path d="M22.5 11.175H9.14998C8.69998 11.175 8.28748 11.55 8.28748 12.0375C8.28748 12.4875 8.66248 12.9 9.14998 12.9H22.5C22.95 12.9 23.3625 12.525 23.3625 12.0375C23.3625 11.55 22.95 11.175 22.5 11.175Z" fill="#161A23"/>
<path d="M22.5 18.7875H9.14998C8.69998 18.7875 8.28748 19.1625 8.28748 19.65C8.28748 20.1375 8.66248 20.5125 9.14998 20.5125H22.5C22.95 20.5125 23.3625 20.1375 23.3625 19.65C23.3625 19.1625 22.95 18.7875 22.5 18.7875Z" fill="#161A23"/>
</svg>
