<svg width="24" height="24" viewBox="0 0 24 24" fill="none" xmlns="http://www.w3.org/2000/svg">
<g clip-path="url(#clip0_501_43612)">
<path d="M12 0.675003C5.73749 0.675003 0.674988 5.7375 0.674988 12C0.674988 18.2625 5.73749 23.3625 12 23.3625C18.2625 23.3625 23.3625 18.2625 23.3625 12C23.3625 5.7375 18.2625 0.675003 12 0.675003ZM12 21.675C6.67499 21.675 2.36249 17.325 2.36249 12C2.36249 6.675 6.67499 2.3625 12 2.3625C17.325 2.3625 21.675 6.7125 21.675 12.0375C21.675 17.325 17.325 21.675 12 21.675Z" fill="#161A23"/>
<path d="M12 7.53751C9.52498 7.53751 7.53748 9.56251 7.53748 12C7.53748 14.475 9.56248 16.4625 12 16.4625C14.475 16.4625 16.4625 14.4375 16.4625 12C16.4625 9.52501 14.475 7.53751 12 7.53751ZM12 14.775C10.4625 14.775 9.22498 13.5375 9.22498 12C9.22498 10.4625 10.4625 9.22501 12 9.22501C13.5375 9.22501 14.775 10.4625 14.775 12C14.775 13.5375 13.5375 14.775 12 14.775Z" fill="#161A23"/>
</g>
<defs>
<clipPath id="clip0_501_43612">
<rect width="24" height="24" fill="white"/>
</clipPath>
</defs>
</svg>
