<svg width="24" height="24" viewBox="0 0 24 24" fill="none" xmlns="http://www.w3.org/2000/svg">
<g clip-path="url(#clip0_501_47775)">
<path d="M9.75 21.9749H5.7C4.8 21.9749 3.9 21.4124 3.2625 20.3999C2.1 18.5999 0.449997 15.5999 0.374997 15.4874C0.224997 15.2249 0.224997 14.9249 0.374997 14.6624L2.1 11.4749L1.2375 10.9499C0.937497 10.7624 0.787497 10.4249 0.824997 10.0499C0.862497 9.67491 1.1625 9.41241 1.5375 9.37491L6.7875 8.58741C7.2 8.51241 7.575 8.77491 7.725 9.14991L9.4125 14.0624C9.525 14.3999 9.4125 14.7749 9.15 14.9999C8.8875 15.2249 8.475 15.2624 8.175 15.0749L7.275 14.5499L6.5625 15.8624H9.75C10.2 15.8624 10.575 16.2374 10.575 16.7249V21.1874C10.6125 21.5999 10.2375 21.9749 9.75 21.9749ZM2.1 15.0749C2.5875 15.9749 3.825 18.1499 4.6875 19.5374C4.9875 20.0249 5.3625 20.3249 5.7 20.3249H8.925V17.5499H5.1375C4.8375 17.5499 4.575 17.3999 4.425 17.1374C4.275 16.8749 4.275 16.5749 4.425 16.3124L6.2625 13.0124C6.375 12.8249 6.5625 12.6749 6.7875 12.5999C6.9 12.5624 7.0125 12.5624 7.125 12.5624L6.375 10.3874L3.975 10.7624C4.125 11.0249 4.125 11.3249 3.975 11.5874L2.1 15.0749Z" fill="#161A23"/>
<path d="M9.75 9.48747C9.6 9.48747 9.45 9.44997 9.3375 9.37497L5.475 7.19997C5.0625 6.97497 4.9125 6.44997 5.1375 6.03747L7.35 2.06247C7.8 1.27497 8.7375 0.78747 9.9 0.71247C12.075 0.59997 15.4875 0.63747 15.6 0.63747C15.9 0.63747 16.1625 0.78747 16.3125 1.04997L18.225 4.12497L19.0875 3.63747C19.425 3.44997 19.8375 3.48747 20.1 3.74997C20.3625 4.01247 20.4375 4.42497 20.25 4.76247L18 8.99997C17.85 9.29997 17.5125 9.44997 17.2125 9.44997L12.525 9.18747C12.15 9.14997 11.85 8.88747 11.7375 8.54997C11.625 8.21247 11.8125 7.79997 12.15 7.61247L12.975 7.12497L12.1875 5.84997L10.5 9.07497C10.3875 9.26247 10.2 9.41247 9.975 9.48747C9.9375 9.48747 9.8625 9.48747 9.75 9.48747ZM15.0375 7.64997L16.8375 7.76247L17.7375 6.07497C17.55 5.99997 17.4 5.88747 17.2875 5.73747L15.1875 2.36247C14.175 2.36247 11.7 2.36247 10.0125 2.43747C9.45 2.43747 9 2.62497 8.85 2.92497L7.05 6.14997L9.45 7.49997L11.5125 3.82497C11.6625 3.56247 11.925 3.37497 12.225 3.37497C12.525 3.37497 12.7875 3.52497 12.975 3.78747L14.9625 7.01247C15.075 7.19997 15.1125 7.42497 15.0375 7.64997Z" fill="#161A23"/>
<path d="M15 23.3249C14.7 23.3249 14.4375 23.1749 14.2875 22.9124L11.8875 18.7499C11.7375 18.4499 11.7375 18.1124 11.925 17.8124L14.625 14.0999C14.85 13.7999 15.225 13.6874 15.6 13.7999C15.9375 13.9124 16.1625 14.2499 16.1625 14.6249L16.125 15.4874H17.625L16.3125 12.9374C16.0875 12.5249 16.2375 12.0374 16.65 11.8124L20.55 9.71242C20.7375 9.59992 21 9.59992 21.1875 9.63742C21.4125 9.71242 21.6 9.86242 21.675 10.0499L23.4 13.3499C23.8125 14.1374 23.7375 15.1874 23.175 16.2374C22.125 18.1124 20.2875 20.9999 20.2125 21.1124C20.0625 21.3374 19.8 21.4874 19.5 21.4874H15.8625L15.825 22.4624C15.825 22.8374 15.5625 23.1749 15.1875 23.2499C15.15 23.3249 15.075 23.3249 15 23.3249ZM13.6125 18.3749L14.55 20.0249C14.7 19.9124 14.8875 19.8374 15.075 19.8374H19.05C19.6125 18.9749 20.925 16.8749 21.75 15.4124C22.0125 14.9249 22.125 14.4374 21.975 14.1749L20.625 11.6249L18.1875 12.9374L19.7625 15.9749C19.9125 16.2374 19.875 16.5374 19.725 16.7999C19.575 17.0624 19.3125 17.2124 19.0125 17.2124L15.225 17.1749C15 17.1749 14.8125 17.0999 14.6625 16.9499L13.6125 18.3749Z" fill="#161A23"/>
</g>
<defs>
<clipPath id="clip0_501_47775">
<rect width="24" height="24" fill="white"/>
</clipPath>
</defs>
</svg>
