<svg width="24" height="24" viewBox="0 0 24 24" fill="none" xmlns="http://www.w3.org/2000/svg">
<path d="M18.7125 3.29995H15.45V2.51245C15.45 1.49995 14.625 0.637451 13.575 0.637451H10.3875C9.37501 0.637451 8.51251 1.46245 8.51251 2.51245V3.29995H5.25001C4.38751 3.29995 3.63751 4.01245 3.63751 4.91245V6.78745C3.63751 7.49995 4.12501 8.13745 4.80001 8.32495V20.5125C4.80001 22.0875 6.11251 23.4 7.68751 23.4H16.2375C17.8125 23.4 19.125 22.0875 19.125 20.5125V8.28745C19.8 8.09995 20.2875 7.49995 20.2875 6.74995V4.87495C20.325 4.01245 19.6125 3.29995 18.7125 3.29995ZM10.2375 2.51245C10.2375 2.39995 10.3125 2.32495 10.425 2.32495H13.6125C13.725 2.32495 13.8 2.39995 13.8 2.51245V3.29995H10.275V2.51245H10.2375ZM5.36251 4.98745H18.6V6.67495H5.36251V4.98745ZM16.275 21.6749H7.72501C7.05001 21.6749 6.52501 21.15 6.52501 20.475V8.36245H17.475V20.475C17.475 21.1124 16.9125 21.6749 16.275 21.6749Z" fill="#161A23"/>
<path d="M9.30001 11.4C9.15001 11.5875 8.96251 11.775 8.85001 12C8.58751 12.375 8.40001 12.7875 8.28751 13.2C8.17501 13.6125 8.10001 14.0625 8.10001 14.475C8.10001 15.45 8.40001 16.35 8.96251 17.1C9.11251 17.325 9.37501 17.4375 9.63751 17.4375C9.82501 17.4375 9.97501 17.4 10.125 17.2875C10.5 17.025 10.575 16.5 10.3125 16.125C9.97501 15.6375 9.78751 15.075 9.78751 14.475C9.78751 14.2125 9.82501 13.95 9.90001 13.6875C9.97501 13.425 10.0875 13.1625 10.2375 12.9375C10.3125 12.7875 10.425 12.675 10.5375 12.5625C10.875 12.225 10.8375 11.7 10.5 11.3625C10.1625 11.0625 9.60001 11.0625 9.30001 11.4Z" fill="#161A23"/>
<path d="M15.1125 12C14.9625 11.775 14.8125 11.5875 14.6625 11.4C14.325 11.0625 13.8 11.0625 13.4625 11.3625C13.125 11.7 13.125 12.225 13.425 12.5625C13.5375 12.675 13.6125 12.7875 13.725 12.9375C13.875 13.1625 13.9875 13.425 14.0625 13.6875C14.1375 13.95 14.175 14.2125 14.175 14.475C14.175 15.075 13.9875 15.6375 13.65 16.125C13.3875 16.5 13.4625 17.025 13.8375 17.2875C13.9875 17.4 14.175 17.4375 14.325 17.4375C14.5875 17.4375 14.85 17.325 15 17.1C15.5625 16.35 15.8625 15.4125 15.8625 14.475C15.8625 14.025 15.7875 13.6125 15.675 13.2C15.5625 12.7875 15.3375 12.375 15.1125 12Z" fill="#161A23"/>
</svg>
