<svg width="24" height="24" viewBox="0 0 24 24" fill="none" xmlns="http://www.w3.org/2000/svg">
<path d="M8.47588 15.0376C9.34573 15.0376 10.0509 14.3324 10.0509 13.4626C10.0509 12.5927 9.34573 11.8876 8.47588 11.8876C7.60603 11.8876 6.90088 12.5927 6.90088 13.4626C6.90088 14.3324 7.60603 15.0376 8.47588 15.0376Z" fill="#15171A"/>
<path d="M15.5262 15.0376C16.396 15.0376 17.1012 14.3324 17.1012 13.4626C17.1012 12.5927 16.396 11.8876 15.5262 11.8876C14.6563 11.8876 13.9512 12.5927 13.9512 13.4626C13.9512 14.3324 14.6563 15.0376 15.5262 15.0376Z" fill="#15171A"/>
<path d="M12.0012 19.1999C13.7262 19.1999 14.9637 18.7874 15.7512 18.0374C15.9012 17.8874 15.9012 17.5499 15.7512 17.3999C15.6012 17.2499 15.2637 17.2499 15.1137 17.3999C14.5512 18.0374 13.5012 18.2999 12.0012 18.2999C10.5012 18.2999 9.48867 17.9999 8.88867 17.3999C8.73867 17.2499 8.40117 17.2499 8.25117 17.3999C8.10117 17.5499 8.10117 17.8874 8.25117 18.0374C9.03867 18.8249 10.2762 19.1999 12.0012 19.1999Z" fill="#15171A"/>
<path d="M17.1381 20.7375C17.8881 20.4375 18.6006 20.1 19.2381 19.6875C21.2256 18.375 22.3506 16.575 22.3506 14.7375C22.3506 14.475 22.3131 14.2125 22.3131 13.9875C23.0631 13.5 23.6256 12.675 23.6256 11.7375C23.6256 10.275 22.4256 9.1125 21.0006 9.1125C20.3631 9.1125 19.6881 9.375 19.2756 9.75C17.4756 8.5875 15.1881 7.95 12.7131 7.875L14.0631 3.5625L17.7381 4.4625C17.7381 5.6625 18.7506 6.6375 19.9131 6.6375C21.0756 6.6375 22.0881 5.625 22.0881 4.4625C22.0881 3.3 21.0381 2.25 19.8756 2.25C18.9756 2.25 18.1881 2.775 17.8881 3.5625L13.8006 2.7C13.5756 2.625 13.3131 2.7375 13.2756 3L11.7006 7.95C9.0756 7.9875 6.6381 8.7 4.7631 9.825C4.2756 9.4125 3.67559 9.1875 3.03809 9.1875C1.57559 9.1875 0.413086 10.3875 0.413086 11.8125C0.413086 12.75 0.938086 13.6125 1.72559 14.0625C1.68809 14.325 1.68809 14.5875 1.68809 14.8125C1.68809 16.6875 2.77559 18.45 4.8006 19.7625C5.4381 20.175 6.1131 20.5125 6.9006 20.8125C6.8631 20.7375 12.3006 22.9875 17.1381 20.7375ZM19.8756 3.1125C20.5506 3.1125 21.1881 3.675 21.1881 4.425C21.1881 5.1 20.6256 5.7375 19.8756 5.7375C19.2006 5.7375 18.5631 5.175 18.5631 4.425C18.5631 3.675 19.1631 3.1125 19.8756 3.1125ZM1.31309 11.7375C1.31309 10.8 2.06309 10.0125 3.03809 10.0125C3.41309 10.0125 3.7881 10.125 4.0506 10.3125C3.03809 11.1 2.32559 12.0375 1.95059 13.0875C1.53809 12.75 1.31309 12.2625 1.31309 11.7375ZM12.0006 20.775C6.7881 20.775 2.55059 18.0375 2.55059 14.775C2.55059 11.5125 6.7881 8.7375 12.0006 8.7375C17.2131 8.7375 21.4506 11.475 21.4506 14.7375C21.4506 18 17.2131 20.775 12.0006 20.775ZM22.0881 13.05C21.7131 12.0375 21.0006 11.1 19.9881 10.275C20.2881 10.05 20.6256 9.975 21.0006 9.975C21.9381 9.975 22.7256 10.725 22.7256 11.7C22.6881 12.2625 22.4631 12.75 22.0881 13.05Z" fill="#15171A"/>
</svg>
