<svg width="24" height="24" viewBox="0 0 24 24" fill="none" xmlns="http://www.w3.org/2000/svg">
<path d="M22.8375 7.31251L18 3.37501C17.5875 3.03751 17.0625 3.00001 16.6125 3.22501C16.1625 3.45001 15.8625 3.90001 15.8625 4.42501V7.50001H7.08755C3.56255 7.50001 0.675049 10.5 0.675049 14.2125C0.675049 17.925 3.56255 20.925 7.08755 20.925H12.15C12.6 20.925 13.0125 20.55 13.0125 20.0625C13.0125 19.575 12.6375 19.2 12.15 19.2H7.08755C4.46255 19.2 2.36255 16.95 2.36255 14.175C2.36255 11.4 4.50005 9.15001 7.08755 9.15001H15.8625V12.225C15.8625 12.75 16.1625 13.2 16.6125 13.425C16.8 13.5 16.9875 13.5375 17.175 13.5375C17.475 13.5375 17.775 13.425 18 13.2375L22.8375 9.33751C23.1375 9.07501 23.325 8.70001 23.325 8.32501C23.3625 7.91251 23.175 7.53751 22.8375 7.31251ZM17.55 11.475V5.17501L21.45 8.32501L17.55 11.475Z" fill="#161A23"/>
</svg>
