<svg width="24" height="24" viewBox="0 0 24 24" fill="none" xmlns="http://www.w3.org/2000/svg">
<path d="M7.46245 5.88751H2.99995C1.72495 5.88751 0.637451 6.93751 0.637451 8.25001V15.5625C0.637451 16.8375 1.68745 17.925 2.99995 17.925H7.46245C8.73745 17.925 9.82495 16.875 9.82495 15.5625V8.25001C9.82495 6.93751 8.77495 5.88751 7.46245 5.88751ZM8.13745 15.5625C8.13745 15.9375 7.83745 16.2375 7.46245 16.2375H2.99995C2.62495 16.2375 2.32495 15.9375 2.32495 15.5625V8.25001C2.32495 7.87501 2.62495 7.57501 2.99995 7.57501H7.46245C7.83745 7.57501 8.13745 7.87501 8.13745 8.25001V15.5625Z" fill="#161A23"/>
<path d="M21 5.88751H16.5375C15.2625 5.88751 14.175 6.93751 14.175 8.25001V15.5625C14.175 16.8375 15.225 17.925 16.5375 17.925H21C22.275 17.925 23.3625 16.875 23.3625 15.5625V8.25001C23.3625 6.93751 22.275 5.88751 21 5.88751ZM21.675 15.5625C21.675 15.9375 21.375 16.2375 21 16.2375H16.5375C16.1625 16.2375 15.8625 15.9375 15.8625 15.5625V8.25001C15.8625 7.87501 16.1625 7.57501 16.5375 7.57501H21C21.375 7.57501 21.675 7.87501 21.675 8.25001V15.5625Z" fill="#161A23"/>
<path d="M12 2.25C11.55 2.25 11.1375 2.625 11.1375 3.1125V4.65C11.1375 5.1 11.5125 5.5125 12 5.5125C12.45 5.5125 12.8625 5.1375 12.8625 4.65V3.075C12.8625 2.625 12.45 2.25 12 2.25Z" fill="#161A23"/>
<path d="M12 7.6875C11.55 7.6875 11.1375 8.0625 11.1375 8.55V10.0875C11.1375 10.5375 11.5125 10.95 12 10.95C12.45 10.95 12.8625 10.575 12.8625 10.0875V8.55C12.8625 8.0625 12.45 7.6875 12 7.6875Z" fill="#161A23"/>
<path d="M12 13.125C11.55 13.125 11.1375 13.5 11.1375 13.9875V15.525C11.1375 15.975 11.5125 16.3875 12 16.3875C12.45 16.3875 12.8625 16.0125 12.8625 15.525V13.9875C12.8625 13.5 12.45 13.125 12 13.125Z" fill="#161A23"/>
<path d="M12 18.525C11.55 18.525 11.1375 18.9 11.1375 19.3875V20.925C11.1375 21.375 11.5125 21.7875 12 21.7875C12.45 21.7875 12.8625 21.4125 12.8625 20.925V19.3875C12.8625 18.9375 12.45 18.525 12 18.525Z" fill="#161A23"/>
</svg>
