<svg width="24" height="24" viewBox="0 0 24 24" fill="none" xmlns="http://www.w3.org/2000/svg">
<path d="M21.3375 5.2126H4.65001L7.72501 2.1001C8.06251 1.7626 8.06251 1.2376 7.72501 0.900098C7.38751 0.562598 6.86251 0.562598 6.52501 0.900098L2.06251 5.4376C1.72501 5.7751 1.72501 6.3001 2.06251 6.6376L6.52501 11.1751C6.67501 11.3251 6.90001 11.4376 7.12501 11.4376C7.35001 11.4376 7.53751 11.3626 7.72501 11.2126C8.06251 10.8751 8.06251 10.3501 7.72501 10.0126L4.68751 6.9376H20.5125V9.1876C20.5125 9.6376 20.8875 10.0501 21.375 10.0501C21.8625 10.0501 22.2375 9.6751 22.2375 9.1876V6.0751C22.2 5.5876 21.825 5.2126 21.3375 5.2126Z" fill="#161A23"/>
<path d="M17.475 12.8251C17.1375 12.4876 16.6125 12.4876 16.275 12.8251C15.9375 13.1626 15.9375 13.6876 16.275 14.0251L19.3125 17.1001H3.48751V14.8501C3.48751 14.4001 3.11251 13.9876 2.62501 13.9876C2.13751 13.9876 1.76251 14.3626 1.76251 14.8501V17.9626C1.76251 18.4126 2.13751 18.8251 2.62501 18.8251H19.3125L16.2375 21.9376C15.9 22.2751 15.9 22.8001 16.2375 23.1376C16.3875 23.2876 16.6125 23.3626 16.8375 23.3626C17.0625 23.3626 17.2875 23.2876 17.4375 23.1001L21.9 18.5626C22.2375 18.2251 22.2375 17.7001 21.9 17.3626L17.475 12.8251Z" fill="#161A23"/>
</svg>
