<svg width="24" height="24" viewBox="0 0 24 24" fill="none" xmlns="http://www.w3.org/2000/svg">
<path d="M3.15 10.875C3.2625 10.875 3.4125 10.8375 3.525 10.8L7.6875 9.33748C8.1375 9.18748 8.36249 8.69998 8.21249 8.24998C8.0625 7.79998 7.575 7.57498 7.125 7.72498L4.5375 8.62498C5.775 5.39998 8.925 3.22498 12.525 3.22498C16.4625 3.22498 19.875 5.84998 20.85 9.59998C20.9625 10.05 21.4125 10.3125 21.8625 10.2C22.3125 10.0875 22.575 9.63748 22.4625 9.18748C21.3 4.68748 17.2125 1.53748 12.4875 1.53748C8.2875 1.53748 4.575 4.01248 3.0375 7.72498L2.25 5.47498C2.1 5.02498 1.6125 4.79998 1.1625 4.94998C0.712495 5.09998 0.487495 5.58748 0.637495 6.03748L2.0625 10.125C2.2875 10.6125 2.7 10.875 3.15 10.875Z" fill="#161A23"/>
<path d="M23.2875 18.6375L21.75 14.625C21.6375 14.3625 21.45 14.1375 21.1875 14.025C20.925 13.9125 20.625 13.9125 20.3625 14.025L16.2375 15.6C15.7875 15.75 15.6 16.2375 15.75 16.6875C15.9 17.1375 16.3875 17.325 16.8375 17.175L19.425 16.2C17.925 18.9375 15 20.7375 11.7375 20.7375C8.02501 20.7375 4.76251 18.4125 3.60001 14.9625C3.45001 14.5125 2.96251 14.2875 2.55001 14.4375C2.10001 14.5875 1.87501 15.075 2.02501 15.4875C3.41251 19.6125 7.31251 22.3875 11.7375 22.3875C15.6 22.3875 19.0875 20.25 20.85 16.95L21.7125 19.2375C21.825 19.575 22.1625 19.7625 22.5 19.7625C22.6125 19.7625 22.6875 19.7625 22.8 19.6875C23.25 19.575 23.4375 19.0875 23.2875 18.6375Z" fill="#161A23"/>
</svg>
