<svg width="24" height="24" viewBox="0 0 24 24" fill="none" xmlns="http://www.w3.org/2000/svg">
<path d="M21 1.38745H3.00001C1.72501 1.38745 0.637512 2.43745 0.637512 3.74995V20.2875C0.637512 21.5625 1.68751 22.65 3.00001 22.65H21C22.275 22.65 23.3625 21.6 23.3625 20.2875V3.71245C23.3625 2.43745 22.275 1.38745 21 1.38745ZM3.00001 3.07495H21C21.375 3.07495 21.675 3.37495 21.675 3.74995V6.07495H2.36251V3.71245C2.36251 3.37495 2.62501 3.07495 3.00001 3.07495ZM21 20.9249H3.00001C2.62501 20.9249 2.32501 20.625 2.32501 20.25V7.72495H21.6375V20.25C21.675 20.625 21.375 20.9249 21 20.9249Z" fill="#161A23"/>
<path d="M11.8875 13.0499C11.8875 12.5999 11.5125 12.1874 11.025 12.1874H9.41253C10.0125 11.4374 10.9125 10.9874 11.9625 10.9874C13.05 10.9874 14.0625 11.4749 14.625 12.3374C14.8875 12.7124 15.4125 12.8249 15.7875 12.5624C16.1625 12.2999 16.275 11.7749 16.0125 11.3999C15.1125 10.0874 13.6125 9.3374 11.9625 9.3374C9.75003 9.3374 7.83753 10.7999 7.27503 12.8624C7.20003 13.1249 7.27503 13.3874 7.42503 13.6124C7.57503 13.8374 7.83753 13.9499 8.10003 13.9499H11.0625C11.5125 13.9124 11.8875 13.5374 11.8875 13.0499Z" fill="#161A23"/>
<path d="M15.9 14.3999H13.275C12.825 14.3999 12.4125 14.7749 12.4125 15.2624C12.4125 15.7499 12.7875 16.1249 13.275 16.1249H14.625C14.025 16.9874 13.05 17.5499 11.9625 17.5499C11.1 17.5499 10.2375 17.1749 9.63751 16.4999C9.33751 16.1624 8.77501 16.1249 8.43751 16.4624C8.10001 16.7624 8.06251 17.3249 8.40001 17.6624C9.33751 18.6749 10.65 19.2374 12 19.2374C14.25 19.2374 16.2 17.6999 16.7625 15.5249C16.8375 15.2624 16.7625 14.9999 16.6125 14.8124C16.4625 14.6249 16.1625 14.3999 15.9 14.3999Z" fill="#161A23"/>
</svg>
