<svg width="24" height="24" viewBox="0 0 24 24" fill="none" xmlns="http://www.w3.org/2000/svg">
<g clip-path="url(#clip0_501_47608)">
<path d="M21 0.675049H2.99999C1.72499 0.675049 0.674988 1.72505 0.674988 3.00005V21C0.674988 22.275 1.72499 23.3625 3.03749 23.3625H21.0375C22.3125 23.3625 23.4 22.3125 23.4 21V3.00005C23.3625 1.72505 22.275 0.675049 21 0.675049ZM21.675 21C21.675 21.375 21.375 21.675 21 21.675H2.99999C2.62499 21.675 2.32499 21.375 2.32499 21V3.00005C2.36249 2.62505 2.62499 2.36255 2.99999 2.36255H21C21.375 2.36255 21.675 2.66255 21.675 3.03755V21Z" fill="#161A23"/>
<path d="M17.4 6.9375H8.58748L10.425 5.0625C10.7625 4.725 10.7625 4.2 10.425 3.8625C10.0875 3.525 9.56248 3.525 9.22498 3.8625L5.99998 7.2C5.66248 7.5375 5.66248 8.0625 5.99998 8.4L9.22498 11.7C9.37498 11.85 9.59998 11.9625 9.82498 11.9625C10.05 11.9625 10.2375 11.8875 10.425 11.7375C10.7625 11.4 10.7625 10.875 10.425 10.5375L8.62498 8.625H16.575V10.0125C16.575 10.4625 16.95 10.875 17.4375 10.875C17.925 10.875 18.3 10.5 18.3 10.0125V7.7625C18.2625 7.3125 17.85 6.9375 17.4 6.9375Z" fill="#161A23"/>
<path d="M14.775 12.5251C14.4375 12.1876 13.9125 12.1876 13.575 12.5251C13.2375 12.8626 13.2375 13.3876 13.575 13.7251L15.375 15.5626H7.42498V14.1751C7.42498 13.7251 7.04998 13.3126 6.56248 13.3126C6.07498 13.3126 5.69998 13.6876 5.69998 14.1751V16.4251C5.69998 16.8751 6.07498 17.2876 6.56248 17.2876H15.375L13.5375 19.1626C13.2 19.5001 13.2 20.0251 13.5375 20.3626C13.6875 20.5126 13.9125 20.5876 14.1375 20.5876C14.3625 20.5876 14.5875 20.5126 14.7375 20.3251L17.9625 17.0251C18.3 16.6876 18.3 16.1626 17.9625 15.8251L14.775 12.5251Z" fill="#161A23"/>
</g>
<defs>
<clipPath id="clip0_501_47608">
<rect width="24" height="24" fill="white"/>
</clipPath>
</defs>
</svg>
