<svg width="24" height="24" viewBox="0 0 24 24" fill="none" xmlns="http://www.w3.org/2000/svg">
<path d="M7.87503 13.425C9.93753 13.425 11.625 11.7375 11.625 9.67505C11.625 7.61255 9.93753 5.92505 7.87503 5.92505C5.81253 5.92505 4.12503 7.61255 4.12503 9.67505C4.12503 11.7375 5.81253 13.425 7.87503 13.425ZM7.87503 7.61255C9.00003 7.61255 9.93753 8.55005 9.93753 9.67505C9.93753 10.8 9.00003 11.7375 7.87503 11.7375C6.75003 11.7375 5.81253 10.8 5.81253 9.67505C5.81253 8.55005 6.75003 7.61255 7.87503 7.61255Z" fill="#161A23"/>
<path d="M7.87502 14.0625C5.32502 14.0625 2.85002 14.9625 0.937524 16.575C0.600024 16.875 0.525024 17.4 0.825024 17.775C1.12502 18.1125 1.65002 18.1875 2.02502 17.8875C3.63752 16.5 5.73752 15.75 7.87502 15.75C10.0125 15.75 12.1125 16.5 13.725 17.8875C13.875 18.0375 14.0625 18.075 14.2875 18.075C14.5125 18.075 14.775 17.9625 14.925 17.775C15.225 17.4375 15.1875 16.875 14.8125 16.575C12.9 14.9625 10.425 14.0625 7.87502 14.0625Z" fill="#161A23"/>
<path d="M22.5 13.6875H18.675C18.225 13.6875 17.8125 14.0625 17.8125 14.55C17.8125 15.0375 18.1875 15.4125 18.675 15.4125H22.5C22.95 15.4125 23.3625 15.0375 23.3625 14.55C23.3625 14.0625 22.95 13.6875 22.5 13.6875Z" fill="#161A23"/>
</svg>
