<svg width="24" height="24" viewBox="0 0 24 24" fill="none" xmlns="http://www.w3.org/2000/svg">
<path d="M14.475 8.28748H9.52504C9.07504 8.28748 8.66254 8.66248 8.66254 9.14998C8.66254 9.63748 9.03754 10.0125 9.52504 10.0125H14.475C14.925 10.0125 15.3375 9.63748 15.3375 9.14998C15.3375 8.66248 14.925 8.28748 14.475 8.28748Z" fill="#161A23"/>
<path d="M18.5625 0.674988H5.43752C4.16252 0.674988 3.15002 1.68749 3.15002 2.96249V15C3.15002 15.5625 3.37502 16.0875 3.78752 16.4625L10.5375 22.8375C10.9125 23.2125 11.4 23.4 11.925 23.4H18.525C19.8 23.4 20.8125 22.3875 20.8125 21.1125V2.96249C20.85 1.68749 19.8 0.674988 18.5625 0.674988ZM6.07502 16.275H10.4625C10.65 16.275 10.8 16.425 10.8 16.575V20.7L6.07502 16.275ZM19.1625 21.0375C19.1625 21.375 18.9 21.6375 18.5625 21.6375H12.4875V16.575C12.4875 15.4875 11.5875 14.5875 10.4625 14.5875H4.83752V2.96249C4.83752 2.62499 5.10002 2.36249 5.43752 2.36249H18.525C18.8625 2.36249 19.125 2.62499 19.125 2.96249V21.0375H19.1625Z" fill="#161A23"/>
</svg>
