<svg width="24" height="24" viewBox="0 0 24 24" fill="none" xmlns="http://www.w3.org/2000/svg">
<g clip-path="url(#clip0_501_44674)">
<path d="M21.225 6.74995H17.325L14.1375 3.56245C14.25 3.26245 14.325 2.96245 14.325 2.62495C14.325 1.31245 13.275 0.262451 11.9625 0.262451C10.65 0.262451 9.63752 1.34995 9.63752 2.62495C9.63752 2.96245 9.71252 3.29995 9.82502 3.56245L6.67502 6.74995H2.77502C1.72502 6.74995 0.900024 7.61245 0.900024 8.62495V9.41245C0.900024 10.3125 1.50002 11.025 2.32502 11.25L4.38752 19.0499C4.57502 19.7624 5.21252 20.2499 5.92502 20.2499H7.05002C7.80002 22.275 9.75002 23.7374 12.0375 23.7374C14.325 23.7374 16.275 22.275 17.025 20.2499H18.15C18.8625 20.2499 19.5 19.7624 19.6875 19.0499L21.675 11.25C22.5 11.025 23.1 10.3125 23.1 9.41245V8.62495C23.1375 7.61245 22.275 6.74995 21.225 6.74995ZM12 1.98745C12.375 1.98745 12.675 2.28745 12.675 2.66245C12.675 2.84995 12.6 2.99995 12.4875 3.11245C12.375 3.22495 12.225 3.29995 12.0375 3.29995C11.85 3.29995 11.7 3.22495 11.5875 3.11245C11.475 2.99995 11.4 2.84995 11.4 2.66245C11.325 2.24995 11.625 1.98745 12 1.98745ZM11.0625 4.76245C11.3625 4.87495 11.6625 4.94995 12 4.94995C12.3375 4.94995 12.675 4.87495 12.9375 4.76245L14.925 6.74995H9.07502L11.0625 4.76245ZM2.55002 8.62495C2.55002 8.51245 2.62502 8.43745 2.73752 8.43745H21.1875C21.3 8.43745 21.375 8.51245 21.375 8.62495V9.41245C21.375 9.52495 21.3 9.59995 21.1875 9.59995H21H2.96252H2.77502C2.66252 9.59995 2.58752 9.52495 2.58752 9.41245V8.62495H2.55002ZM12 22.0499C10.275 22.0499 8.85002 20.8499 8.47502 19.275V19.2374C8.43752 18.9749 8.40002 18.7125 8.40002 18.4499C8.40002 16.4625 10.0125 14.8124 12.0375 14.8124C14.0625 14.8124 15.675 16.4249 15.675 18.4499C15.675 18.7125 15.6375 19.0124 15.6 19.2374C15.15 20.8499 13.725 22.0499 12 22.0499ZM18 18.5624H17.2875C17.2875 18.525 17.2875 18.4499 17.2875 18.4124C17.2875 15.4874 14.925 13.0875 11.9625 13.0875C9.03752 13.0875 6.63752 15.4499 6.63752 18.4124C6.63752 18.4499 6.63752 18.525 6.63752 18.5624H6.00002L4.08752 11.325H19.95L18 18.5624Z" fill="#161A23"/>
<path d="M13.5 17.5499H10.5C10.05 17.5499 9.67505 17.9249 9.67505 18.3749C9.67505 18.8249 10.05 19.1999 10.5 19.1999H13.5C13.95 19.1999 14.325 18.8249 14.325 18.3749C14.325 17.9249 13.95 17.5499 13.5 17.5499Z" fill="#161A23"/>
</g>
<defs>
<clipPath id="clip0_501_44674">
<rect width="24" height="24" fill="white"/>
</clipPath>
</defs>
</svg>
