<svg width="24" height="24" viewBox="0 0 24 24" fill="none" xmlns="http://www.w3.org/2000/svg">
<path d="M22.5 1.27499H19.5375C19.1625 1.27499 18.825 1.53749 18.7125 1.91249L17.5875 6.56249H14.85C14.775 3.59999 12.3375 1.23749 9.375 1.23749C6.4125 1.23749 3.975 3.59999 3.9 6.56249H2.9625C2.25 6.56249 1.575 6.89999 1.1625 7.42499C0.7125 7.98749 0.5625 8.69999 0.7125 9.37499L1.875 14.3625C2.1375 15.4125 3.0375 16.1625 4.125 16.1625H15.1875C16.275 16.1625 17.175 15.45 17.4375 14.4L20.2125 2.96249H22.5C22.95 2.96249 23.325 2.58749 23.325 2.13749C23.325 1.68749 22.95 1.27499 22.5 1.27499ZM9.375 2.92499C11.475 2.92499 13.1625 4.61249 13.1625 6.71249C13.1625 6.89999 13.1625 7.04999 13.125 7.19999V7.23749C12.8625 9.07499 11.2875 10.5 9.375 10.5C7.275 10.5 5.5875 8.81249 5.5875 6.71249C5.5875 4.61249 7.275 2.92499 9.375 2.92499ZM15.7875 13.9875C15.7125 14.2875 15.45 14.475 15.1875 14.475H4.125C3.825 14.475 3.5625 14.2875 3.525 13.9875L2.3625 9.03749C2.2875 8.77499 2.4 8.58749 2.475 8.51249C2.55 8.39999 2.7 8.24999 2.9625 8.24999H4.0875C4.7625 10.5375 6.8625 12.225 9.3375 12.225C11.8125 12.225 13.9875 10.5375 14.625 8.24999H17.175L15.7875 13.9875Z" fill="#161A23"/>
<path d="M14.25 17.85H5.02499C3.67499 17.85 2.58749 18.9375 2.58749 20.2875C2.58749 21.6375 3.67499 22.725 5.02499 22.725C6.37499 22.725 7.46249 21.6375 7.46249 20.2875C7.46249 20.025 7.42499 19.7625 7.34999 19.5375H11.8875C11.8125 19.7625 11.775 20.025 11.775 20.2875C11.775 21.6375 12.8625 22.725 14.2125 22.725C15.5625 22.725 16.65 21.6375 16.65 20.2875C16.6875 18.975 15.6 17.85 14.25 17.85ZM5.81249 20.325C5.81249 20.7375 5.47499 21.075 5.06249 21.075C4.64999 21.075 4.31249 20.7375 4.31249 20.325C4.31249 19.9125 4.64999 19.575 5.06249 19.575C5.47499 19.575 5.81249 19.875 5.81249 20.325ZM14.25 21.075C13.8375 21.075 13.5 20.7375 13.5 20.325C13.5 19.9125 13.8375 19.575 14.25 19.575C14.6625 19.575 15 19.9125 15 20.325C15 20.7375 14.6625 21.075 14.25 21.075Z" fill="#161A23"/>
<path d="M7.80001 7.57499H10.9125C11.3625 7.57499 11.7375 7.19999 11.7375 6.74999C11.7375 6.29999 11.3625 5.92499 10.9125 5.92499H7.80001C7.35001 5.92499 6.97501 6.29999 6.97501 6.74999C6.97501 7.19999 7.35001 7.57499 7.80001 7.57499Z" fill="#161A23"/>
</svg>
