<svg width="24" height="24" viewBox="0 0 24 24" fill="none" xmlns="http://www.w3.org/2000/svg">
<path d="M22.1625 10.5375C21.75 10.05 21.2625 9.675 20.7375 9.4125C21.225 8.8875 21.5625 8.2125 21.5625 7.425C21.5625 5.8875 20.2875 4.6125 18.75 4.6125C17.2125 4.6125 15.9375 5.8875 15.9375 7.425C15.9375 8.175 16.2375 8.8875 16.7625 9.4125C16.35 9.6375 15.975 9.9 15.6 10.275C15.15 9.825 14.625 9.4875 14.1 9.225C14.775 8.625 15.225 7.7625 15.225 6.7875C15.225 4.9875 13.7625 3.5625 12 3.5625C10.2 3.5625 8.77499 5.025 8.77499 6.7875C8.77499 7.7625 9.22499 8.625 9.89999 9.225C9.33749 9.4875 8.84999 9.825 8.39999 10.275C8.06249 9.9375 7.64999 9.6375 7.23749 9.4125C7.72499 8.8875 8.06249 8.2125 8.06249 7.425C8.06249 5.8875 6.78749 4.6125 5.24999 4.6125C3.71249 4.6125 2.43749 5.8875 2.43749 7.425C2.43749 8.175 2.73749 8.8875 3.26249 9.4125C2.73749 9.675 2.24999 10.05 1.83749 10.5375C0.974988 11.55 0.487488 12.9375 0.487488 14.4375C0.487488 14.775 0.674988 15.075 0.937488 15.1875C1.46249 15.45 3.26249 16.275 5.24999 16.275C5.81249 16.275 6.37499 16.2 6.97499 16.0875C7.19999 16.2 7.49999 16.35 7.91249 16.5C8.02499 18.675 9.82499 20.4 12.0375 20.4C14.25 20.4 16.0125 18.675 16.1625 16.5C16.6125 16.3125 16.9125 16.1625 17.1 16.05C17.7 16.1625 18.2625 16.2375 18.7875 16.2375C20.925 16.2375 22.65 15.375 23.1375 15.15C23.4 15 23.5875 14.7 23.5875 14.4C23.5125 12.975 23.025 11.55 22.1625 10.5375ZM18.75 6.3C19.35 6.3 19.875 6.7875 19.875 7.425C19.875 8.0625 19.3875 8.55 18.75 8.55C18.1125 8.55 17.625 8.0625 17.625 7.425C17.625 6.7875 18.15 6.3 18.75 6.3ZM12 5.2125C12.8625 5.2125 13.5375 5.925 13.5375 6.75C13.5375 7.575 12.8625 8.2875 12 8.2875C11.1375 8.2875 10.4625 7.6125 10.4625 6.75C10.4625 5.8875 11.1375 5.2125 12 5.2125ZM5.24999 6.3C5.84999 6.3 6.37499 6.7875 6.37499 7.425C6.37499 8.0625 5.88749 8.55 5.24999 8.55C4.61249 8.55 4.12499 8.0625 4.12499 7.425C4.12499 6.7875 4.61249 6.3 5.24999 6.3ZM2.17499 13.95C2.28749 13.05 2.62499 12.225 3.11249 11.625C3.67499 10.95 4.42499 10.575 5.24999 10.575C6.03749 10.575 6.78749 10.95 7.34999 11.5875C6.86249 12.45 6.56249 13.425 6.44999 14.5125C6.03749 14.5875 5.62499 14.625 5.24999 14.625C4.01249 14.625 2.84999 14.2125 2.17499 13.95ZM12 18.7875C10.65 18.7875 9.56249 17.7 9.56249 16.35C9.56249 15 10.65 13.875 12 13.875C13.35 13.875 14.4375 14.9625 14.4375 16.3125C14.4375 17.6625 13.35 18.7875 12 18.7875ZM12 12.1875C10.2375 12.1875 8.73749 13.275 8.13749 14.85C8.13749 14.85 8.09999 14.85 8.09999 14.8125C8.21249 13.7625 8.51249 12.825 9.07499 12.075C9.14999 11.9625 9.22499 11.8875 9.29999 11.775C10.0125 10.9125 10.9875 10.4625 12.0375 10.4625C13.0875 10.4625 14.025 10.95 14.775 11.8125C14.85 11.8875 14.925 12 15 12.1125C15.075 12.225 15.15 12.3 15.1875 12.4125C15.225 12.45 15.225 12.4875 15.2625 12.525C15.3 12.6 15.3375 12.675 15.375 12.75C15.4125 12.7875 15.4125 12.825 15.45 12.9C15.4875 12.975 15.525 13.05 15.525 13.125C15.5625 13.1625 15.5625 13.2375 15.6 13.275C15.6375 13.35 15.6375 13.425 15.675 13.5C15.675 13.5375 15.7125 13.6125 15.7125 13.65C15.75 13.725 15.75 13.8 15.7875 13.875C15.7875 13.95 15.825 13.9875 15.825 14.0625C15.825 14.1375 15.8625 14.2125 15.8625 14.2875C15.8625 14.3625 15.9 14.4 15.9 14.475C15.9 14.55 15.9375 14.6625 15.9375 14.7375C15.9375 14.775 15.9375 14.85 15.9375 14.8875C15.9375 14.8875 15.9375 14.8875 15.9375 14.925H15.9C15.2625 13.275 13.7625 12.1875 12 12.1875ZM18.75 14.625C18.375 14.625 17.9625 14.5875 17.55 14.5125C17.55 14.475 17.55 14.475 17.55 14.4375C17.5125 14.25 17.475 14.025 17.4375 13.8375C17.4375 13.7625 17.4 13.725 17.4 13.65C17.3625 13.425 17.2875 13.2 17.25 13.0125C17.25 13.0125 17.25 13.0125 17.25 12.975C17.175 12.75 17.1 12.525 17.025 12.3375C16.9875 12.3 16.9875 12.225 16.95 12.1875C16.875 12 16.8 11.85 16.6875 11.6625C16.6875 11.625 16.65 11.625 16.65 11.5875C17.2125 10.95 17.9625 10.575 18.75 10.575C19.5375 10.575 20.325 10.95 20.8875 11.625C21.4125 12.225 21.7125 13.05 21.825 13.95C21.1875 14.25 20.0625 14.625 18.75 14.625Z" fill="#161A23"/>
<path d="M12.9 15.4875H11.1375C10.6875 15.4875 10.275 15.8625 10.275 16.35C10.275 16.8375 10.65 17.2125 11.1375 17.2125H12.9C13.35 17.2125 13.7625 16.8375 13.7625 16.35C13.7625 15.8625 13.35 15.4875 12.9 15.4875Z" fill="#161A23"/>
</svg>
