<svg width="24" height="24" viewBox="0 0 24 24" fill="none" xmlns="http://www.w3.org/2000/svg">
<path d="M11.3625 21.3375C11.0625 21.3375 10.7625 21.225 10.5 21.0375L1.53745 13.8375C0.974951 13.3875 0.637451 12.7125 0.637451 12C0.637451 11.2875 0.974951 10.6125 1.53745 10.1625L10.5 2.96247C10.9125 2.62497 11.475 2.58747 11.925 2.81247C12.4125 3.03747 12.675 3.52497 12.675 4.04997V7.87497C15.7125 8.36247 18.4875 9.71247 20.5875 11.775C22.05 13.275 22.7625 14.6625 23.1749 16.7625C23.25 17.2125 23.325 18.0375 23.325 19.125C23.325 19.6125 23.0625 20.1 22.6124 20.325C22.1625 20.55 21.6375 20.55 21.225 20.2875C18.075 18.2625 15.15 17.025 12.675 16.65V20.025C12.675 20.55 12.375 21 11.925 21.2625C11.7375 21.3 11.55 21.3375 11.3625 21.3375ZM11.025 4.72497L2.62495 11.475C2.36245 11.625 2.32495 11.8875 2.32495 12C2.32495 12.1125 2.36245 12.3375 2.58745 12.525L10.9875 19.275V15.675C10.9875 15.45 11.1 15.225 11.25 15.075C11.4375 14.925 11.6625 14.8125 11.8875 14.85C15.375 15.075 19.0125 16.875 21.6375 18.525C21.6 17.6625 21.5625 17.25 21.525 17.1C21.1875 15.3375 20.625 14.25 19.3875 12.975C17.4 11.025 14.7 9.74997 11.7375 9.44997C11.325 9.41247 10.9875 9.03747 10.9875 8.62497V4.72497H11.025Z" fill="#161A23"/>
</svg>
