<svg width="24" height="24" viewBox="0 0 24 24" fill="none" xmlns="http://www.w3.org/2000/svg">
<path d="M23.2125 16.8C22.8 15.525 21.45 14.8125 20.175 15.15L15.6375 16.2375C15.525 15.15 14.6625 14.25 13.4625 14.0625H8.66251C8.28751 13.5 7.68751 13.125 6.93751 13.125H3.00001C1.72501 13.125 0.637512 14.175 0.637512 15.4875V20.1375C0.637512 21.4125 1.68751 22.5 3.00001 22.5H6.93751C7.50001 22.5 8.06251 22.275 8.43751 21.8625C8.51251 21.7875 8.55001 21.7125 8.62501 21.6375C9.71251 22.1625 10.875 22.4625 12.0375 22.4625C12.75 22.4625 13.4625 22.35 14.1375 22.1625L19.875 20.4375L21.4875 19.95C22.125 19.7625 22.6875 19.35 23.025 18.75C23.3625 18.1875 23.4375 17.475 23.2125 16.8ZM7.23751 20.5875C7.16251 20.6625 7.05001 20.7 6.93751 20.7H3.00001C2.62501 20.7 2.32501 20.4 2.32501 20.025V15.4125C2.32501 15.0375 2.62501 14.7375 3.00001 14.7375H7.01251C7.20001 14.7375 7.35001 14.8875 7.35001 15.075V20.325C7.35001 20.475 7.27501 20.55 7.23751 20.5875ZM21.5625 17.9625C21.45 18.15 21.3 18.3 21.075 18.3375L19.425 18.825L13.725 20.4375C12.2625 20.85 10.725 20.7 9.37501 20.025L9.03751 19.8375V15.7125H13.35C13.7625 15.7875 14.025 16.0875 14.025 16.425V16.6125L12.75 16.9125C12.3 17.025 12 17.475 12.1125 17.925C12.225 18.375 12.675 18.675 13.125 18.5625L20.625 16.7625C21.0375 16.65 21.4875 16.875 21.6375 17.2875C21.675 17.5125 21.675 17.775 21.5625 17.9625Z" fill="#161A23"/>
<path d="M17.7375 8.06245H19.65C20.2125 8.06245 20.7 8.54995 20.7 9.11245C20.7 9.67495 20.2125 10.1625 19.65 10.1625H16.7625C16.3125 10.1625 15.9 10.5375 15.9 11.025C15.9 11.5125 16.275 11.8875 16.7625 11.8875H17.8125V12C17.8125 12.45 18.1875 12.8625 18.675 12.8625C19.1625 12.8625 19.5375 12.4875 19.5375 12V11.8875H19.65C21.15 11.8875 22.3875 10.65 22.3875 9.14995C22.3875 7.64995 21.15 6.41245 19.65 6.41245H17.7375C17.175 6.41245 16.6875 5.92495 16.6875 5.36245C16.6875 4.79995 17.175 4.31245 17.7375 4.31245H20.5875C21.0375 4.31245 21.45 3.93745 21.45 3.44995C21.45 2.96245 21.075 2.58745 20.5875 2.58745H19.5375V2.43745C19.5375 1.98745 19.1625 1.57495 18.675 1.57495C18.1875 1.57495 17.8125 1.94995 17.8125 2.43745V2.54995H17.7C16.2 2.54995 14.9625 3.78745 14.9625 5.28745C15 6.82495 16.2375 8.06245 17.7375 8.06245Z" fill="#161A23"/>
</svg>
