<svg width="24" height="24" viewBox="0 0 24 24" fill="none" xmlns="http://www.w3.org/2000/svg">
<g clip-path="url(#clip0_501_41602)">
<path d="M12 0.599976C5.73755 0.599976 0.675049 5.69998 0.675049 12C0.675049 18.3 5.77505 23.4 12 23.4C18.225 23.4 23.3251 18.3 23.3251 12C23.3251 5.69998 18.2626 0.599976 12 0.599976ZM12 21.7125C11.175 21.7125 10.35 21.6 9.60005 21.4125C9.60005 21.4125 9.60005 21.4125 9.60005 21.375V12.6375L13.9125 11.4375L13.1251 13.5375C12.9376 13.9875 13.1625 14.475 13.6125 14.625C13.725 14.6625 13.8 14.7 13.9125 14.7C14.25 14.7 14.5501 14.5125 14.7001 14.175L16.2751 10.125C16.4626 9.67498 16.2375 9.18748 15.7875 9.03748L11.7751 7.46248C11.325 7.27498 10.8376 7.49998 10.6875 7.94998C10.5 8.39998 10.725 8.88748 11.175 9.03748L13.35 9.89997L9.11255 11.0625C8.43755 11.25 7.95005 11.8875 7.95005 12.5625V20.8125C4.61255 19.275 2.32505 15.9 2.32505 12C2.32505 6.63748 6.67505 2.28748 12 2.28748C17.3251 2.28748 21.6751 6.63748 21.6751 12C21.6751 17.3625 17.3251 21.7125 12 21.7125Z" fill="#161A23"/>
</g>
<defs>
<clipPath id="clip0_501_41602">
<rect width="24" height="24" fill="white"/>
</clipPath>
</defs>
</svg>
