<svg width="24" height="24" viewBox="0 0 24 24" fill="none" xmlns="http://www.w3.org/2000/svg">
<g clip-path="url(#clip0_501_41614)">
<path d="M12 0.5625C5.73755 0.5625 0.675049 5.7 0.675049 12C0.675049 18.3 5.77505 23.4375 12 23.4375C18.225 23.4375 23.3251 18.3 23.3251 12C23.3251 5.7 18.2626 0.5625 12 0.5625ZM12 21.75C11.175 21.75 10.35 21.6375 9.60005 21.45C9.60005 21.45 9.60005 21.45 9.60005 21.4125V13.575C9.60005 13.1625 9.93755 12.825 10.3125 12.825H13.5375L12.2626 14.1C11.9251 14.4375 11.9251 14.9625 12.2626 15.3C12.4125 15.45 12.6375 15.5625 12.8625 15.5625C13.0876 15.5625 13.3126 15.4875 13.4626 15.3L16.3126 12.45C16.6501 12.1125 16.6501 11.5875 16.3126 11.25L13.3876 8.2875C13.0501 7.95 12.5251 7.95 12.1875 8.2875C11.85 8.625 11.85 9.15 12.1875 9.4875L13.8376 11.1375H10.3125C8.96255 11.1375 7.91255 12.225 7.91255 13.575V20.8125C4.61255 19.275 2.32505 15.9 2.32505 12C2.32505 6.6375 6.67505 2.25 12 2.25C17.3251 2.25 21.6751 6.6 21.6751 12C21.6751 17.3625 17.3251 21.75 12 21.75Z" fill="#161A23"/>
</g>
<defs>
<clipPath id="clip0_501_41614">
<rect width="24" height="24" fill="white"/>
</clipPath>
</defs>
</svg>
