<svg width="24" height="24" viewBox="0 0 24 24" fill="none" xmlns="http://www.w3.org/2000/svg">
<g clip-path="url(#clip0_501_41627)">
<path d="M21.0001 23.3251H3.00005C1.72505 23.3251 0.675049 22.2751 0.675049 21.0001V3.00005C0.675049 1.72505 1.72505 0.675049 3.00005 0.675049H21.0001C22.2751 0.675049 23.3251 1.72505 23.3251 3.00005V21.0001C23.3251 22.2751 22.2751 23.3251 21.0001 23.3251ZM3.00005 2.32505C2.62505 2.32505 2.32505 2.62505 2.32505 3.00005V21.0001C2.32505 21.3751 2.62505 21.6751 3.00005 21.6751H21.0001C21.3751 21.6751 21.6751 21.3751 21.6751 21.0001V3.00005C21.6751 2.62505 21.3751 2.32505 21.0001 2.32505H3.00005Z" fill="#161A23"/>
<path d="M12.6375 16.9501C12.4125 16.9501 12.1875 16.8751 12.0375 16.6876C11.7 16.3501 11.7 15.8251 12.0375 15.4876L14.625 12.9001H7.31255C6.86255 12.9001 6.48755 12.5251 6.48755 12.0751C6.48755 11.6251 6.86255 11.2501 7.31255 11.2501H14.625L11.8875 8.51257C11.55 8.17507 11.55 7.65007 11.8875 7.31257C12.225 6.97507 12.75 6.97507 13.0875 7.31257L17.25 11.4751C17.4 11.6251 17.5125 11.8501 17.5125 12.0751C17.5125 12.3001 17.4375 12.5251 17.25 12.6751L13.2375 16.6876C13.0875 16.8751 12.8625 16.9501 12.6375 16.9501Z" fill="#161A23"/>
</g>
<defs>
<clipPath id="clip0_501_41627">
<rect width="24" height="24" fill="white"/>
</clipPath>
</defs>
</svg>
