<svg width="24" height="24" viewBox="0 0 24 24" fill="none" xmlns="http://www.w3.org/2000/svg">
<path d="M23.6625 20.1L19.5375 3.2625C19.3875 2.7 18.825 2.25 18.225 2.25H5.77497C5.17497 2.25 4.61247 2.6625 4.46247 3.2625L0.337469 20.1C0.224969 20.5125 0.337469 20.925 0.562469 21.225C0.824969 21.5625 1.19997 21.75 1.61247 21.75H22.3875C22.8 21.75 23.175 21.5625 23.4375 21.225C23.7 20.8875 23.775 20.475 23.6625 20.1ZM12 17.55C11.55 17.55 11.175 17.925 11.175 18.375V20.025H5.13747L8.92497 3.9375H11.175V3.975V5.8125C11.175 6.2625 11.55 6.6375 12 6.6375C12.45 6.6375 12.825 6.2625 12.825 5.8125V3.975V3.9375H15.075L18.8625 20.025H12.825V18.375C12.825 17.925 12.45 17.55 12 17.55ZM6.03747 3.9375H7.16247L3.37497 20.0625H2.06247L6.03747 3.9375ZM20.625 20.0625L16.8375 3.9375H17.9625L21.9375 20.025H20.625V20.0625Z" fill="#161A23"/>
<path d="M11.9999 11.475C12.4499 11.475 12.8249 11.1 12.8249 10.65V8.81255C12.8249 8.36255 12.4499 7.98755 11.9999 7.98755C11.5499 7.98755 11.1749 8.36255 11.1749 8.81255V10.65C11.1749 11.1 11.5499 11.475 11.9999 11.475Z" fill="#161A23"/>
<path d="M12.8249 13.6125C12.8249 13.1625 12.4499 12.7875 11.9999 12.7875C11.5499 12.7875 11.1749 13.1625 11.1749 13.6125V15.45C11.1749 15.9 11.5499 16.275 11.9999 16.275C12.4499 16.275 12.8249 15.9 12.8249 15.45V13.6125Z" fill="#161A23"/>
</svg>
