<svg width="24" height="24" viewBox="0 0 24 24" fill="none" xmlns="http://www.w3.org/2000/svg">
<path d="M2.32502 0.675049C1.87502 0.675049 1.46252 1.05005 1.46252 1.53755V22.5375C1.46252 22.9875 1.83752 23.4 2.32502 23.4C2.81252 23.4 3.18752 23.025 3.18752 22.5375V1.50005C3.15002 1.05005 2.77502 0.675049 2.32502 0.675049Z" fill="#161A23"/>
<path d="M21.675 0.675049C21.225 0.675049 20.8125 1.05005 20.8125 1.53755V22.5375C20.8125 22.9875 21.1875 23.4 21.675 23.4C22.1625 23.4 22.5375 23.025 22.5375 22.5375V1.50005C22.5375 1.05005 22.1625 0.675049 21.675 0.675049Z" fill="#161A23"/>
<path d="M12.0001 0.675049C11.5501 0.675049 11.1376 1.05005 11.1376 1.53755V2.81255C11.1376 3.26255 11.5126 3.67505 12.0001 3.67505C12.4501 3.67505 12.8626 3.30005 12.8626 2.81255V1.50005C12.8626 1.05005 12.4501 0.675049 12.0001 0.675049Z" fill="#161A23"/>
<path d="M12.0001 10.0126C11.5501 10.0126 11.1376 10.3876 11.1376 10.8751V13.6126C11.1376 14.0626 11.5126 14.4751 12.0001 14.4751C12.4501 14.4751 12.8626 14.1001 12.8626 13.6126V10.8751C12.8626 10.3876 12.4501 10.0126 12.0001 10.0126Z" fill="#161A23"/>
<path d="M12.0001 15.4875C11.5501 15.4875 11.1376 15.8625 11.1376 16.35V19.0875C11.1376 19.5375 11.5126 19.95 12.0001 19.95C12.4501 19.95 12.8626 19.575 12.8626 19.0875V16.35C12.8626 15.8625 12.4501 15.4875 12.0001 15.4875Z" fill="#161A23"/>
<path d="M12.0001 4.57507C11.5501 4.57507 11.1376 4.95007 11.1376 5.43757V8.17507C11.1376 8.62507 11.5126 9.03757 12.0001 9.03757C12.4501 9.03757 12.8626 8.66257 12.8626 8.17507V5.43757C12.8626 4.95007 12.4501 4.57507 12.0001 4.57507Z" fill="#161A23"/>
<path d="M12.0001 20.4C11.5501 20.4 11.1376 20.775 11.1376 21.2625V22.5C11.1376 22.95 11.5126 23.3625 12.0001 23.3625C12.4501 23.3625 12.8626 22.9875 12.8626 22.5V21.225C12.8626 20.775 12.4501 20.4 12.0001 20.4Z" fill="#161A23"/>
<path d="M8.43752 11.4001L7.87502 11.9251V8.25007C7.87502 7.80007 7.50002 7.38757 7.01252 7.38757C6.52502 7.38757 6.15002 7.76257 6.15002 8.25007V11.9251L5.58752 11.3626C5.25002 11.0251 4.72502 11.0251 4.38752 11.3626C4.05002 11.7001 4.05002 12.2251 4.38752 12.5626L6.41252 14.5876C6.56252 14.7376 6.78752 14.8501 7.01252 14.8501C7.23752 14.8501 7.46252 14.7751 7.61252 14.5876L9.60002 12.6001C9.93752 12.2626 9.93752 11.7376 9.60002 11.4001C9.30002 11.0626 8.77502 11.0626 8.43752 11.4001Z" fill="#161A23"/>
<path d="M17.85 7.3876C17.55 7.0876 16.9876 7.0876 16.6501 7.3876L14.6625 9.3751C14.325 9.7126 14.325 10.2376 14.6625 10.5751C15 10.9126 15.525 10.9126 15.8625 10.5751L16.425 10.0126V13.7251C16.425 14.1751 16.8 14.5876 17.2875 14.5876C17.775 14.5876 18.1501 14.2126 18.1501 13.7251V10.0501L18.7126 10.6126C18.8626 10.7626 19.0875 10.8751 19.3126 10.8751C19.5375 10.8751 19.7625 10.8001 19.9125 10.6126C20.25 10.2751 20.25 9.7501 19.9125 9.4126L17.85 7.3876Z" fill="#161A23"/>
</svg>
