<svg width="24" height="24" viewBox="0 0 24 24" fill="none" xmlns="http://www.w3.org/2000/svg">
<path d="M14.175 5.81245V1.49995C14.175 1.04995 13.8 0.637451 13.3125 0.637451C12.825 0.637451 12.45 1.01245 12.45 1.49995V5.81245C12.45 6.71245 11.7 7.46245 10.8 7.46245H8.88752C5.10002 7.46245 2.02502 10.5374 2.02502 14.325V22.4999C2.02502 22.9499 2.40002 23.3624 2.88752 23.3624C3.37502 23.3624 3.75002 22.9874 3.75002 22.4999V14.2874C3.75002 11.4374 6.07502 9.11245 8.92502 9.11245H10.8375C12.675 9.14995 14.175 7.64995 14.175 5.81245Z" fill="#161A23"/>
<path d="M21.1126 0.675049C20.6251 0.675049 20.2501 1.05005 20.2501 1.50005V9.56255C20.2501 12.4125 17.9251 14.7375 15.0751 14.7375H13.1626C11.3251 14.7375 9.82507 16.2375 9.82507 18.0751V22.5C9.82507 22.95 10.2001 23.3625 10.6876 23.3625C11.1751 23.3625 11.5501 22.9875 11.5501 22.5V18.0375C11.5501 17.1375 12.3001 16.3875 13.2001 16.3875H15.1126C18.9001 16.3875 21.9751 13.3125 21.9751 9.52505V1.50005C21.9376 1.05005 21.5626 0.675049 21.1126 0.675049Z" fill="#161A23"/>
<path d="M17.325 4.04995C17.775 4.04995 18.1875 3.67495 18.1875 3.18745V1.49995C18.1875 1.04995 17.8125 0.637451 17.325 0.637451C16.8375 0.637451 16.5 1.04995 16.5 1.49995V3.18745C16.5 3.63745 16.875 4.04995 17.325 4.04995Z" fill="#161A23"/>
<path d="M15.9 10.4625C16.05 10.575 16.2 10.6125 16.3875 10.6125C16.65 10.6125 16.9125 10.5 17.1 10.2375C17.8125 9.18745 18.1875 7.98745 18.1875 6.71245V6.56245C18.1875 6.11245 17.8125 5.69995 17.325 5.69995C16.8375 5.69995 16.4625 6.07495 16.4625 6.56245V6.74995C16.4625 7.68745 16.2 8.54995 15.675 9.29995C15.45 9.67495 15.525 10.2 15.9 10.4625Z" fill="#161A23"/>
<path d="M10.6501 13.1249C11.1001 12.9749 11.5501 12.9374 12.0001 12.9374C12.6751 12.9374 13.3501 12.8249 14.0251 12.5999C14.4751 12.4499 14.7001 11.9624 14.5501 11.5124C14.4001 11.0624 13.9126 10.8374 13.4626 10.9874C12.9751 11.1374 12.4876 11.2499 12.0001 11.2499C11.3626 11.2499 10.7626 11.3624 10.1626 11.5124C9.71258 11.6624 9.48758 12.1124 9.60008 12.5624C9.71258 12.9374 10.0501 13.1624 10.3876 13.1624C10.5001 13.1624 10.5751 13.1624 10.6501 13.1249Z" fill="#161A23"/>
<path d="M8.21248 13.5748C7.83748 13.3123 7.31248 13.3873 7.04998 13.7623C6.26248 14.8123 5.84998 16.0873 5.84998 17.4373C5.84998 17.8873 6.22498 18.2998 6.67498 18.2998C7.12498 18.2998 7.49998 17.9248 7.53748 17.4748C7.53748 16.4998 7.83748 15.5998 8.39998 14.8123C8.66248 14.3623 8.58748 13.8373 8.21248 13.5748Z" fill="#161A23"/>
<path d="M6.675 19.9875C6.225 19.9875 5.8125 20.3625 5.8125 20.85V22.5C5.8125 22.95 6.1875 23.3625 6.675 23.3625C7.1625 23.3625 7.5375 22.9875 7.5375 22.5V20.8125C7.5 20.3625 7.125 19.9875 6.675 19.9875Z" fill="#161A23"/>
</svg>
