<svg width="24" height="24" viewBox="0 0 24 24" fill="none" xmlns="http://www.w3.org/2000/svg">
<path d="M14.2875 13.875L17.55 10.575C20.7 7.425 21.9375 4.725 21.7125 1.4625C21.675 1.05 21.3375 0.712501 20.925 0.675001C17.6625 0.487501 14.925 1.725 11.8125 4.8375L8.55005 8.1H4.87505C4.65005 8.1 4.42505 8.175 4.27505 8.3625L2.40005 10.2C2.13755 10.5 1.98755 10.875 1.98755 11.25C1.98755 11.6625 2.13755 12 2.40005 12.3L4.12505 14.025C3.97505 14.1375 3.86255 14.25 3.75005 14.3625C2.77505 15.3375 2.28755 18.3375 2.17505 19.2375C2.13755 19.5 2.21255 19.7625 2.40005 19.95C2.55005 20.1 2.77505 20.2125 3.00005 20.2125C3.03755 20.2125 3.07505 20.2125 3.11255 20.2125C4.01255 20.1 7.01255 19.6125 7.98755 18.6375C8.10005 18.525 8.21255 18.375 8.32505 18.2625L10.05 19.9875C10.35 20.2875 10.725 20.4 11.1 20.4C11.475 20.4 11.85 20.25 12.15 19.9875C12.4875 19.65 12.4875 19.125 12.15 18.7875C11.8875 18.525 11.4375 18.45 11.1375 18.6375L3.75005 11.25L5.21255 9.7875H8.88755C9.11255 9.7875 9.33755 9.7125 9.48755 9.525L13.0125 6C16.05 3 18.225 2.325 20.0625 2.2875C20.025 4.125 19.3875 6.3 16.35 9.3375L12.825 12.8625C12.675 13.0125 12.5625 13.2375 12.5625 13.4625V13.8375C12.5625 14.2875 12.9375 14.7 13.425 14.7C13.9125 14.7 14.2875 14.325 14.2875 13.875ZM6.82505 17.4375C6.52505 17.7375 5.32505 18.1125 4.05005 18.3375C4.31255 17.0625 4.65005 15.8625 4.95005 15.5625C5.06255 15.45 5.21255 15.3375 5.40005 15.2625L7.12505 16.9875C7.05005 17.175 6.93755 17.325 6.82505 17.4375Z" fill="#161A23"/>
<path d="M17.7376 14.2125C15.2251 14.2125 13.1626 16.275 13.1626 18.7875C13.1626 21.3 15.2251 23.3625 17.7376 23.3625C20.2501 23.3625 22.3126 21.3 22.3126 18.7875C22.3126 16.275 20.2501 14.2125 17.7376 14.2125ZM17.7376 21.675C16.1626 21.675 14.8501 20.4 14.8501 18.7875C14.8501 17.175 16.1251 15.9 17.7376 15.9C19.3501 15.9 20.6251 17.175 20.6251 18.7875C20.6251 20.4 19.3126 21.675 17.7376 21.675Z" fill="#161A23"/>
<path d="M18.2251 17.55L17.3251 18.375H17.2876C16.9501 18.0375 16.4251 18.0375 16.0876 18.3375C15.7501 18.675 15.7501 19.2 16.0501 19.5375L16.6876 20.175C16.8376 20.3625 17.0626 20.4375 17.2876 20.4375C17.5126 20.4375 17.7001 20.3625 17.8501 20.2125L19.3501 18.7875C19.6876 18.4875 19.7251 17.925 19.3876 17.5875C19.1251 17.25 18.6001 17.25 18.2251 17.55Z" fill="#161A23"/>
</svg>
