<svg width="24" height="24" viewBox="0 0 24 24" fill="none" xmlns="http://www.w3.org/2000/svg">
<path d="M18.0376 9.0375H17.5501C17.1001 9.0375 16.6876 9.4125 16.6876 9.9C16.6876 10.3875 17.0626 10.7625 17.5501 10.7625H18.0376C18.3001 10.7625 18.5251 10.9875 18.5251 11.25V18.6375C18.5251 18.6375 18.5251 18.675 18.4876 18.675H5.5126C5.5126 18.675 5.4751 18.675 5.4751 18.6375V11.175C5.4751 10.9125 5.7001 10.6875 5.9626 10.6875H6.2251C6.6751 10.6875 7.0876 10.3125 7.0876 9.825C7.0876 9.3375 6.7126 8.9625 6.2251 8.9625H5.9626C4.7626 8.9625 3.7876 9.9375 3.7876 11.1375V18.525C3.7876 19.4625 4.5751 20.25 5.5126 20.25H9.8626L9.6751 21.6375H8.1751C7.7251 21.6375 7.3126 22.0125 7.3126 22.5C7.3126 22.9875 7.6876 23.3625 8.1751 23.3625H15.8251C16.2751 23.3625 16.6876 22.9875 16.6876 22.5C16.6876 22.0125 16.3126 21.6375 15.8251 21.6375H14.3251L14.1376 20.25H18.4876C19.4251 20.25 20.2126 19.4625 20.2126 18.525V11.175C20.1751 10.0125 19.2376 9.0375 18.0376 9.0375ZM12.6001 21.675H11.3626L11.5501 20.2875H12.3751L12.6001 21.675Z" fill="#161A23"/>
<path d="M8.21261 14.8125H9.82511C9.82511 15.75 10.9126 17.25 11.3626 17.8875C11.5126 18.1125 11.7751 18.225 12.0376 18.225C12.3001 18.225 12.5626 18.1125 12.7126 17.8875C13.1626 17.2875 14.2501 15.75 14.2501 14.8125H15.8626C16.3126 14.8125 16.7251 14.4375 16.7251 13.95V11.8875C16.7251 11.6625 16.6501 11.4375 16.4626 11.2875L14.9251 9.75V6.975C14.9251 4.0875 14.2501 2.25 12.6376 0.825C12.3376 0.525 11.8501 0.525 11.5126 0.825C9.90011 2.25 9.22511 4.0875 9.22511 6.975V9.75L7.68761 11.2875C7.53761 11.4375 7.42511 11.6625 7.42511 11.8875V13.95C7.35011 14.4375 7.72511 14.8125 8.21261 14.8125ZM12.0001 15.9C11.7001 15.4125 11.5126 15 11.4751 14.85H12.4876C12.4876 15 12.3001 15.4125 12.0001 15.9ZM9.03761 12.2625L10.5751 10.725C10.7251 10.575 10.8376 10.35 10.8376 10.125V7.0125C10.8376 4.6875 11.3626 3.4875 12.0001 2.7C12.6751 3.4875 13.1626 4.6875 13.1626 7.0125V10.125C13.1626 10.35 13.2376 10.575 13.4251 10.725L14.9626 12.2625V13.125H9.03761V12.2625Z" fill="#161A23"/>
</svg>
