<svg width="24" height="24" viewBox="0 0 24 24" fill="none" xmlns="http://www.w3.org/2000/svg">
<path d="M17.85 10.2375H17.7375C17.2875 10.2375 16.875 10.6125 16.875 11.1C16.875 11.5875 17.25 11.9625 17.7375 11.9625H17.85C18.075 11.9625 18.2625 12.15 18.2625 12.375V16.95H5.73755V12.3375C5.73755 12.1125 5.92505 11.925 6.15005 11.925H6.41255C6.86255 11.925 7.27505 11.55 7.27505 11.0625C7.27505 10.575 6.90005 10.2 6.41255 10.2H6.15005C4.98755 10.2 4.05005 11.1375 4.05005 12.3V19.425C4.05005 20.3625 4.80005 21.1125 5.73755 21.1125H9.90005L9.63755 22.65C9.60005 22.9125 9.67505 23.1375 9.82505 23.325C9.97505 23.5125 10.2375 23.625 10.4625 23.625H13.5375C13.8 23.625 14.025 23.5125 14.175 23.325C14.325 23.1375 14.4 22.875 14.3625 22.65L14.1 21.1125H18.2625C19.2 21.1125 19.95 20.3625 19.95 19.425V12.3C19.95 11.175 19.0125 10.2375 17.85 10.2375ZM12.525 22.05H11.4375L11.5875 21.1875H12.375L12.525 22.05ZM5.73755 19.5V18.6375H18.2625V19.5H5.73755Z" fill="#161A23"/>
<path d="M7.49995 10.275C7.53745 10.275 7.57495 10.275 7.61245 10.275L8.69995 10.1625C8.69995 10.425 8.84995 10.6875 9.11245 10.8375C8.99995 10.9875 8.92495 11.1375 8.84995 11.2875C8.51245 12.15 8.92495 13.875 9.11245 14.625C9.18745 14.8875 9.37495 15.075 9.59995 15.1875C9.71245 15.225 9.82495 15.2625 9.89995 15.2625C10.05 15.2625 10.2 15.225 10.35 15.15C10.9875 14.775 12.4875 13.8 12.8625 12.9375C12.9375 12.7875 12.975 12.6 12.975 12.4125C13.05 12.4125 13.0875 12.45 13.1625 12.45C13.275 12.45 13.3875 12.4125 13.5 12.375C13.575 12.3375 13.6875 12.2625 13.7625 12.225L14.475 13.0875C14.625 13.275 14.8875 13.3875 15.1125 13.3875C15.15 13.3875 15.1875 13.3875 15.225 13.3875C15.525 13.35 15.75 13.1625 15.8625 12.8625L16.5375 11.175C16.875 10.35 16.725 9.45 16.1625 8.775L15.525 7.9875L15.8625 7.1625C16.9125 4.575 16.95 2.6625 16.0125 0.787503C15.825 0.375003 15.375 0.187503 15 0.337503C13.05 1.0125 11.7375 2.4375 10.6875 5.025L10.35 5.85L9.33745 5.9625C8.47495 6.075 7.72495 6.6375 7.38745 7.425L6.71245 9.1125C6.59995 9.375 6.63745 9.7125 6.82495 9.9375C7.01245 10.1625 7.23745 10.275 7.49995 10.275ZM11.2875 12.2625C11.2125 12.4125 10.875 12.675 10.5 12.975C10.425 12.4875 10.3875 12.0375 10.425 11.8875C10.4625 11.775 10.575 11.6625 10.6875 11.625C10.7625 11.5875 10.8 11.5875 10.875 11.5875C10.95 11.5875 10.9875 11.5875 11.0625 11.625C11.175 11.6625 11.2875 11.775 11.325 11.8875C11.325 12.0375 11.325 12.15 11.2875 12.2625ZM14.9625 10.5L14.8125 10.875L14.475 10.5L14.775 9.75L14.85 9.825C15.0375 10.0125 15.075 10.275 14.9625 10.5ZM14.8125 2.25C15.1125 3.1875 15.1125 4.4625 14.2875 6.4875L13.7625 7.8L13.65 8.0625L12.675 10.4625L10.6125 9.6375L12.225 5.6625C13.0875 3.6 13.95 2.7 14.8125 2.25ZM8.96245 8.0625C9.07495 7.8375 9.26245 7.65 9.52495 7.65H9.63745L9.33745 8.4L8.84995 8.475L8.96245 8.0625Z" fill="#161A23"/>
</svg>
