<svg width="24" height="24" viewBox="0 0 24 24" fill="none" xmlns="http://www.w3.org/2000/svg">
<path d="M20.8875 14.7C20.775 14.5875 20.625 14.4375 20.475 14.3625L22.275 12.5625C22.8375 11.9625 22.8375 11.025 22.275 10.4625L20.3625 8.55C20.2125 8.4 19.9875 8.2875 19.7625 8.2875H15.975L12.6375 4.95C9.45003 1.7625 6.63753 0.487501 3.33753 0.675001C2.92503 0.712501 2.58753 1.05 2.55003 1.4625C2.32503 4.7625 3.60003 7.575 6.82503 10.7625L10.1625 14.1V14.1375C10.1625 14.5875 10.5375 15 11.025 15C11.5125 15 11.8875 14.625 11.8875 14.1375V13.7625C11.8875 13.5375 11.8125 13.3125 11.625 13.1625L8.02503 9.5625C4.87503 6.45 4.23753 4.2375 4.20003 2.325C6.11253 2.3625 8.32503 3.0375 11.4375 6.1125L15.0375 9.7125C15.1875 9.8625 15.4125 9.975 15.6375 9.975H19.425L20.925 11.475L13.35 19.0875C13.0125 18.9 12.6 18.9375 12.3 19.2C11.9625 19.5375 11.9625 20.0625 12.3 20.4C12.6 20.7 12.975 20.85 13.35 20.85C13.725 20.85 14.1 20.7 14.4 20.4L16.2 18.6C16.3125 18.75 16.425 18.9 16.5375 19.0125C17.5125 19.9875 20.5875 20.5125 21.525 20.625C21.5625 20.625 21.6 20.625 21.6375 20.625C21.8625 20.625 22.0875 20.55 22.2375 20.3625C22.425 20.175 22.5 19.9125 22.4625 19.65C22.35 18.75 21.8625 15.675 20.8875 14.7ZM17.7375 17.8125C17.5875 17.6625 17.5125 17.5125 17.4375 17.3625L19.2 15.6C19.3875 15.675 19.5375 15.75 19.65 15.9C19.95 16.2 20.325 17.475 20.5875 18.7875C19.3125 18.4875 18.0375 18.1125 17.7375 17.8125Z" fill="#161A23"/>
<path d="M10.9875 16.65L8.625 15.8625L7.125 13.8375C6.975 13.6125 6.7125 13.5 6.45 13.5C6.1875 13.5 5.925 13.6125 5.775 13.8375L4.275 15.8625L1.875 16.65C1.6125 16.725 1.425 16.95 1.35 17.175C1.275 17.4375 1.3125 17.7 1.4625 17.925L2.925 19.9875L2.9625 22.5C2.9625 22.7625 3.1125 23.025 3.3 23.175C3.525 23.325 3.7875 23.3625 4.05 23.2875L6.45 22.5375L8.85 23.2875C8.925 23.325 9 23.325 9.1125 23.325C9.3 23.325 9.45 23.2875 9.6 23.175C9.825 23.025 9.9375 22.7625 9.9375 22.5L9.975 19.9875L11.4375 17.925C11.5875 17.7 11.625 17.4375 11.55 17.175C11.4375 16.95 11.25 16.7625 10.9875 16.65ZM8.4375 19.2375C8.325 19.3875 8.2875 19.5375 8.2875 19.725V21.375L6.7125 20.8875C6.6375 20.85 6.5625 20.85 6.45 20.85C6.3375 20.85 6.2625 20.85 6.1875 20.8875L4.6125 21.375V19.725C4.6125 19.5375 4.575 19.3875 4.4625 19.2375L3.525 17.8875L5.0625 17.3625C5.2125 17.325 5.3625 17.2125 5.475 17.0625L6.45 15.75L7.425 17.0625C7.5375 17.2125 7.6875 17.2875 7.8375 17.3625L9.375 17.8875L8.4375 19.2375Z" fill="#161A23"/>
</svg>
