<svg width="24" height="24" viewBox="0 0 24 24" fill="none" xmlns="http://www.w3.org/2000/svg">
<path d="M18.8999 7.72501H18.3374C17.8874 7.72501 17.4749 8.10001 17.4749 8.58751C17.4749 9.07501 17.8499 9.45001 18.3374 9.45001H18.8999C19.2749 9.45001 19.5749 9.75001 19.5749 10.125V18.1125C19.5749 18.45 19.3124 18.7125 18.9749 18.7125H5.0624C4.7249 18.7125 4.4624 18.45 4.4624 18.1125V10.05C4.4624 9.67501 4.7624 9.37501 5.1374 9.37501H5.4374C5.8874 9.37501 6.2999 9.00001 6.2999 8.51251C6.2999 8.02501 5.9249 7.65001 5.4374 7.65001H5.1374C3.8249 7.65001 2.7749 8.70001 2.7749 10.0125V18C2.7749 19.275 3.7874 20.2875 5.0624 20.2875H9.7124L9.3749 22.3125C9.3374 22.575 9.4124 22.8 9.5624 22.9875C9.7124 23.175 9.9749 23.2875 10.1999 23.2875H13.8374C14.0999 23.2875 14.3249 23.175 14.4749 22.9875C14.6249 22.8 14.6999 22.5375 14.6624 22.3125L14.3249 20.2875H18.9749C20.2499 20.2875 21.2624 19.275 21.2624 18V10.05C21.2624 8.77501 20.1749 7.72501 18.8999 7.72501ZM12.8249 21.675H11.1749L11.3999 20.3625H12.5999L12.8249 21.675Z" fill="#161A23"/>
<path d="M6.7499 14.775C6.8999 14.85 7.0499 14.8875 7.1999 14.8875C7.3499 14.8875 7.4624 14.85 7.6124 14.775L8.9249 14.0625C8.9999 14.4375 9.3374 14.7 9.7499 14.7H14.3624C14.7749 14.7 15.0749 14.4375 15.1874 14.0625L16.4999 14.775C16.6124 14.85 16.7624 14.8875 16.9124 14.8875C17.0624 14.8875 17.2124 14.85 17.3624 14.775C17.6249 14.625 17.7749 14.3625 17.7749 14.0625V11.925C17.7749 10.95 17.2499 10.05 16.3874 9.6L15.2624 9V7.8375C15.2624 4.575 14.4749 2.5125 12.6749 0.900003C12.3749 0.600003 11.8874 0.600003 11.5499 0.900003C9.7499 2.475 8.9624 4.575 8.9624 7.8375V9L7.8374 9.6C6.9749 10.05 6.4499 10.95 6.4499 11.925V14.0625C6.3374 14.325 6.4874 14.625 6.7499 14.775ZM15.4874 11.0625C15.7874 11.2125 15.9749 11.55 15.9749 11.925V12.6375L15.1499 12.1875V10.875L15.4874 11.0625ZM10.5374 7.8C10.5374 4.9875 11.1749 3.6 11.9999 2.7C12.8249 3.6375 13.4624 5.025 13.4624 7.8V13.05H10.5374V7.8ZM8.0249 11.8875C8.0249 11.55 8.2124 11.2125 8.5124 11.025L8.8499 10.8375V12.1125L8.0249 12.5625V11.8875Z" fill="#161A23"/>
</svg>
