<svg width="24" height="24" viewBox="0 0 24 24" fill="none" xmlns="http://www.w3.org/2000/svg">
<path d="M11.325 13.275L14.1 10.5C16.8375 7.7625 17.9249 5.3625 17.7374 2.55C17.7 2.1375 17.3625 1.8 16.95 1.7625C14.1 1.5375 11.7375 2.625 8.99995 5.3625L6.22495 8.1375H3.07495C2.84995 8.1375 2.62495 8.2125 2.47495 8.4L0.862451 10.0125C0.599951 10.275 0.449951 10.6125 0.449951 10.9875C0.449951 11.3625 0.599951 11.7 0.862451 11.9625L2.28745 13.3875C2.21245 13.4625 2.09995 13.5375 2.02495 13.6125C1.16245 14.475 0.749951 17.1 0.637451 17.8875C0.599951 18.15 0.674951 18.4125 0.862451 18.6C1.01245 18.75 1.23745 18.8625 1.46245 18.8625C1.49995 18.8625 1.53745 18.8625 1.57495 18.8625C2.36245 18.75 4.98745 18.3375 5.84995 17.475C5.92495 17.4 5.99995 17.325 6.07495 17.2125L7.49995 18.6375C7.76245 18.9 8.13745 19.05 8.47495 19.05C8.81245 19.05 9.18745 18.9 9.44995 18.6375C9.78745 18.3 9.78745 17.775 9.44995 17.4375C9.18745 17.175 8.81245 17.1375 8.51245 17.25L2.28745 10.9875L3.44995 9.825H6.56245C6.78745 9.825 7.01245 9.75 7.16245 9.5625L10.2 6.525C12.7125 4.0125 14.55 3.4125 16.0875 3.375C16.05 4.9125 15.45 6.75 12.9375 9.2625L9.89995 12.3C9.74995 12.45 9.63745 12.675 9.63745 12.9V13.2375C9.63745 13.6875 10.0125 14.1 10.5 14.1C10.9125 14.0625 11.2875 13.725 11.325 13.275ZM4.68745 16.2375C4.46245 16.4625 3.56245 16.725 2.51245 16.95C2.73745 15.9 3.03745 15 3.22495 14.775C3.29995 14.7 3.41245 14.625 3.48745 14.5875L4.83745 15.9375C4.83745 16.05 4.76245 16.1625 4.68745 16.2375Z" fill="#161A23"/>
<path d="M18.825 16.875C18.375 16.875 17.9625 17.25 17.9625 17.7375C17.9625 19.3125 16.6875 20.625 15.075 20.625C13.4625 20.625 12.1875 19.35 12.1875 17.7375C12.1875 16.125 13.4625 14.85 15.075 14.85C15.3375 14.85 15.6375 14.8875 15.9 14.9625C16.35 15.1125 16.8 14.85 16.95 14.4C17.1 13.95 16.8375 13.5 16.3875 13.35C15.975 13.2375 15.525 13.1625 15.075 13.1625C12.5625 13.1625 10.5 15.225 10.5 17.7375C10.5 20.25 12.5625 22.3125 15.075 22.3125C17.5875 22.3125 19.65 20.25 19.65 17.7375C19.65 17.25 19.275 16.875 18.825 16.875Z" fill="#161A23"/>
<path d="M22.6874 12.3375H21.1499V10.9875C21.1499 10.5375 20.7749 10.125 20.2874 10.125C19.7999 10.125 19.4249 10.5 19.4249 10.9875V12.75L14.9249 16.8C14.5874 17.1 14.5499 17.625 14.8499 18C14.9999 18.1875 15.2624 18.3 15.4874 18.3C15.6749 18.3 15.8999 18.225 16.0499 18.075L20.5874 14.0625H22.6874C23.1374 14.0625 23.5499 13.6875 23.5499 13.2C23.5499 12.7125 23.1374 12.3375 22.6874 12.3375Z" fill="#161A23"/>
<path d="M13.6125 16.875C13.1625 16.875 12.75 17.25 12.75 17.7375C12.75 19.0125 13.8 20.0625 15.075 20.0625C15.525 20.0625 15.9375 19.6875 15.9375 19.2C15.9375 18.7125 15.5625 18.3375 15.075 18.3375C14.7 18.3375 14.4375 18.0375 14.4375 17.7C14.4375 17.25 14.0625 16.875 13.6125 16.875Z" fill="#161A23"/>
</svg>
