<svg width="24" height="24" viewBox="0 0 24 24" fill="none" xmlns="http://www.w3.org/2000/svg">
<path d="M13.875 13.4625L17.025 10.3125C20.0625 7.275 21.2626 4.65 21.0751 1.5C21.0375 1.0875 20.7 0.750001 20.2875 0.712501C17.1375 0.525001 14.475 1.725 11.475 4.7625L8.28755 7.875H4.76255C4.53755 7.875 4.31255 7.95 4.16255 8.1375L2.43755 9.8625C2.13755 10.1625 1.98755 10.5375 1.98755 10.9875C1.98755 11.4 2.13755 11.8125 2.43755 12.1125L4.01255 13.6875C3.90005 13.7625 3.75005 13.875 3.67505 13.9875C2.73755 14.85 2.25005 17.775 2.13755 18.6375C2.10005 18.9 2.17505 19.1625 2.36255 19.35C2.51255 19.5 2.73755 19.6125 2.96255 19.6125C3.00005 19.6125 3.03755 19.6125 3.07505 19.6125C3.93755 19.5 6.86255 19.0125 7.80005 18.075C7.91255 17.9625 8.02505 17.85 8.10005 17.7375L10.2 19.8375C10.35 19.9875 10.575 20.1 10.8 20.1C11.025 20.1 11.2125 20.025 11.4 19.8375L11.8125 19.425C12.15 19.0875 12.15 18.5625 11.8125 18.225C11.55 17.9625 11.1375 17.8875 10.8 18.075L3.71255 10.95L5.10005 9.5625H8.62505C8.85005 9.5625 9.07505 9.4875 9.22505 9.3L12.6 5.925C15.4875 3.0375 17.5875 2.4 19.35 2.3625C19.3125 4.125 18.675 6.225 15.7875 9.1125L12.4125 12.4875C12.2625 12.6375 12.15 12.8625 12.15 13.0875V13.4625C12.15 13.9125 12.525 14.325 13.0125 14.325C13.5 14.325 13.875 13.9125 13.875 13.4625ZM6.63755 16.875C6.37505 17.1375 5.21255 17.5125 4.01255 17.7375C4.23755 16.5375 4.61255 15.4125 4.87505 15.1125C4.98755 15 5.13755 14.925 5.28755 14.85L6.90005 16.4625C6.82505 16.6125 6.75005 16.7625 6.63755 16.875Z" fill="#161A23"/>
<path d="M22.3125 18.5625C22.3125 15.9375 20.175 13.7625 17.5125 13.7625C14.85 13.7625 12.75 15.9 12.75 18.5625C12.75 21.225 14.8875 23.3625 17.55 23.3625C18.7875 23.3625 19.9125 22.875 20.775 22.125C20.8125 22.0875 20.85 22.0875 20.85 22.05C21.75 21.15 22.3125 19.9125 22.3125 18.5625ZM17.4375 15.45L17.175 16.2375C17.0625 16.6125 16.65 16.8375 16.275 16.725L15.225 16.5C15.75 15.8625 16.5375 15.4875 17.4375 15.45ZM14.475 18.0375L15.8625 18.375C16.05 18.4125 16.2375 18.45 16.425 18.45C17.475 18.45 18.4125 17.775 18.75 16.7625L19.05 15.8625C19.9875 16.3875 20.625 17.4 20.625 18.5625C20.625 19.0875 20.5125 19.575 20.2875 19.9875C19.9875 19.725 19.65 19.5375 19.2375 19.4625C18.45 19.275 17.5875 19.5 16.9875 20.0625L15.7875 21.1875C14.9625 20.625 14.4 19.6875 14.4 18.6C14.4375 18.375 14.4375 18.1875 14.475 18.0375ZM19.125 21.225C18.7125 21.45 18.2625 21.6 17.775 21.6375L18.1875 21.2625C18.375 21.075 18.6375 21.0375 18.8625 21.075C18.9375 21.1125 19.05 21.15 19.125 21.225Z" fill="#161A23"/>
</svg>
