<svg width="24" height="24" viewBox="0 0 24 24" fill="none" xmlns="http://www.w3.org/2000/svg">
<path d="M6.11238 9.9C6.14988 9.9 6.18738 9.9 6.26238 9.9L6.14988 11.325C6.11238 11.625 6.26238 11.925 6.48738 12.075C6.63738 12.1875 6.78738 12.225 6.97488 12.225C7.08738 12.225 7.19988 12.1875 7.31238 12.15L9.22488 11.2875C10.0874 10.9125 10.6874 10.05 10.7624 9.1125L10.8749 7.875L11.8874 7.425C14.8124 6.1125 16.3499 4.6125 17.0624 2.325C17.1749 1.9125 16.9874 1.5 16.6124 1.3125C14.4749 0.337501 12.2999 0.450001 9.37488 1.7625L8.36238 2.2125L7.38738 1.4625C6.63738 0.862501 5.62488 0.750001 4.72488 1.1625L2.77488 1.9875C2.51238 2.1 2.32488 2.3625 2.28738 2.6625C2.24988 2.9625 2.36238 3.2625 2.58738 3.45L3.71238 4.3125C3.41238 4.5375 3.29988 4.95 3.48738 5.325L5.32488 9.45C5.47488 9.75 5.77488 9.9 6.11238 9.9ZM9.07488 9C9.03738 9.3375 8.84988 9.6375 8.51238 9.7875L7.91238 10.05L7.98738 9.1875L9.11238 8.7L9.07488 9ZM10.0124 3.3C12.4874 2.175 13.9874 2.2125 15.1499 2.55C14.6624 3.6375 13.6499 4.7625 11.1749 5.8875L6.52488 7.9875L5.36238 5.4L10.0124 3.3ZM5.36238 2.7C5.66238 2.55 6.03738 2.5875 6.29988 2.8125L6.56238 3L5.43738 3.4875L4.72488 2.9625L5.36238 2.7Z" fill="#161A23"/>
<path d="M6.1125 20.0625C5.6625 20.0625 5.25 20.4375 5.25 20.925V22.5C5.25 22.95 5.625 23.3625 6.1125 23.3625C6.6 23.3625 6.975 22.9875 6.975 22.5V20.8875C6.9375 20.4375 6.5625 20.0625 6.1125 20.0625Z" fill="#161A23"/>
<path d="M10.6499 18.7125C10.1999 18.7125 9.78735 19.0875 9.78735 19.575V22.5C9.78735 22.95 10.1624 23.3625 10.6499 23.3625C11.1374 23.3625 11.5124 22.9875 11.5124 22.5V19.5375C11.5124 19.0875 11.1374 18.7125 10.6499 18.7125Z" fill="#161A23"/>
<path d="M15.2248 16.875C14.7748 16.875 14.3623 17.25 14.3623 17.7375V22.5C14.3623 22.95 14.7373 23.3625 15.2248 23.3625C15.7123 23.3625 16.0873 22.9875 16.0873 22.5V17.7C16.0498 17.25 15.6748 16.875 15.2248 16.875Z" fill="#161A23"/>
<path d="M19.7624 15.0375C19.3124 15.0375 18.8999 15.4125 18.8999 15.9V22.5C18.8999 22.95 19.2749 23.3625 19.7624 23.3625C20.2499 23.3625 20.6249 22.9875 20.6249 22.5V15.9C20.6249 15.4125 20.2499 15.0375 19.7624 15.0375Z" fill="#161A23"/>
<path d="M21.7123 9.6C21.7123 9.5625 21.7123 9.5625 21.7123 9.525C21.7123 9.4875 21.7123 9.45 21.7123 9.45C21.7123 9.4125 21.7123 9.4125 21.7123 9.375C21.7123 9.3375 21.7123 9.3375 21.7123 9.3C21.7123 9.2625 21.7123 9.225 21.6748 9.225C21.6748 9.1875 21.6748 9.1875 21.6373 9.15C21.6373 9.1125 21.5998 9.1125 21.5998 9.075C21.5998 9.0375 21.5623 9.0375 21.5623 9C21.5623 8.9625 21.5248 8.9625 21.5248 8.925C21.4873 8.8875 21.4873 8.8875 21.4498 8.85L21.4123 8.8125C21.3748 8.775 21.3748 8.775 21.3373 8.775C21.2998 8.775 21.2998 8.7375 21.2623 8.7375C21.2248 8.7375 21.1873 8.7 21.1873 8.7L18.2998 7.65C17.8498 7.5 17.3623 7.725 17.2123 8.1375C17.0623 8.5875 17.2873 9.075 17.6998 9.225L18.5998 9.5625L4.2373 15.6C3.8248 15.7875 3.5998 16.275 3.7873 16.725C3.9373 17.0625 4.2373 17.25 4.5748 17.25C4.6873 17.25 4.7998 17.2125 4.9123 17.175L19.4248 10.9875L19.0498 11.9625C18.8998 12.4125 19.1248 12.9 19.5373 13.05C19.6498 13.0875 19.7248 13.0875 19.8373 13.0875C20.1748 13.0875 20.5123 12.8625 20.6248 12.525L21.6748 9.7125C21.6748 9.675 21.6748 9.675 21.6748 9.6375C21.7123 9.6375 21.7123 9.6375 21.7123 9.6Z" fill="#161A23"/>
</svg>
