<svg width="24" height="24" viewBox="0 0 24 24" fill="none" xmlns="http://www.w3.org/2000/svg">
<path d="M14.5126 14.625V14.5875L18.0001 11.1C21.3001 7.7625 22.6501 4.9125 22.4251 1.4625C22.3876 1.05 22.0501 0.712504 21.6376 0.675004C18.1876 0.450004 15.3001 1.8 12.0001 5.1L8.5126 8.5875H4.5751C4.3501 8.5875 4.1251 8.6625 3.9751 8.85L1.9876 10.8375C1.6876 11.1375 1.5376 11.5125 1.5376 11.925C1.5376 12.3375 1.6876 12.7125 1.9876 13.0125L3.8626 14.8875C3.7126 15 3.5626 15.1125 3.4126 15.2625C2.4001 16.275 1.8751 19.4625 1.7626 20.4C1.7251 20.6625 1.8001 20.925 1.9876 21.1125C2.1376 21.2625 2.3626 21.375 2.5876 21.375C2.6251 21.375 2.6626 21.375 2.7001 21.375C3.6376 21.225 6.8251 20.7375 7.8376 19.725C7.9876 19.575 8.1001 19.425 8.2126 19.275L10.0876 21.15C10.3876 21.45 10.7626 21.6 11.1751 21.6C11.5501 21.6 11.9626 21.45 12.2251 21.15C12.5626 20.8125 12.5626 20.2875 12.2251 19.95C11.9251 19.65 11.5126 19.6125 11.1751 19.8375L3.3376 11.8875L4.9501 10.275H8.8876C9.1126 10.275 9.3376 10.2 9.4876 10.0125L13.2001 6.3C16.4251 3.0375 18.7501 2.3625 20.7376 2.325C20.7376 4.3125 20.0251 6.6375 16.8001 9.9L13.0876 13.6125C12.9376 13.7625 12.8251 13.9875 12.8251 14.2125V14.625C12.8251 15.075 13.2001 15.4875 13.6876 15.4875C14.1751 15.4875 14.5126 15.1125 14.5126 14.625ZM6.6751 18.45C6.3376 18.7875 4.9876 19.1625 3.6376 19.4625C3.9001 18.075 4.3126 16.725 4.6501 16.425C4.8001 16.275 4.9876 16.1625 5.1751 16.0875L7.0501 17.9625C6.9376 18.15 6.8251 18.3 6.6751 18.45Z" fill="#161A23"/>
<path d="M19.425 20.2875C19.3875 20.25 19.35 20.2125 19.275 20.175C19.9875 18.975 19.8 17.3625 18.7875 16.35C17.55 15.1125 15.525 15.1125 14.2875 16.35C13.05 17.5875 13.05 19.6125 14.2875 20.85C14.925 21.4875 15.7125 21.7875 16.5375 21.7875C17.1 21.7875 17.625 21.6375 18.1125 21.375C18.15 21.4125 18.1875 21.45 18.225 21.525L19.8375 23.1375C19.9875 23.2875 20.2125 23.4 20.4375 23.4C20.6625 23.4 20.8875 23.325 21.0375 23.1375C21.375 22.8 21.375 22.275 21.0375 21.9375L19.425 20.2875ZM15.4875 19.65C14.8875 19.05 14.8875 18.1125 15.4875 17.55C15.7875 17.25 16.1625 17.1 16.5375 17.1C16.9125 17.1 17.2875 17.25 17.5875 17.55C18.1875 18.15 18.1875 19.0875 17.5875 19.65C16.9875 20.25 16.05 20.25 15.4875 19.65Z" fill="#161A23"/>
</svg>
