<svg width="24" height="24" viewBox="0 0 24 24" fill="none" xmlns="http://www.w3.org/2000/svg">
<path d="M18.5624 1.4625C18.5249 1.05 18.1874 0.712497 17.7749 0.674997C14.9999 0.524997 12.6749 1.575 10.0124 4.2375L7.3124 6.9375H4.2749C4.0499 6.9375 3.8249 7.0125 3.6749 7.2L1.7249 9.15C1.5749 9.3 1.4624 9.525 1.4624 9.75C1.4624 9.975 1.5374 10.2 1.7249 10.35L3.4499 12.075C3.3749 12.15 3.2999 12.1875 3.2249 12.2625C2.3624 13.125 1.9499 15.675 1.8374 16.4625C1.7999 16.725 1.8749 16.9875 2.0624 17.175C2.2124 17.325 2.4374 17.4375 2.6624 17.4375C2.6999 17.4375 2.7374 17.4375 2.7749 17.4375C3.5249 17.325 6.1124 16.9125 6.9749 16.05C7.0499 15.975 7.0874 15.9 7.1624 15.825L8.8874 17.55C9.0374 17.7 9.2624 17.8125 9.4874 17.8125C9.7124 17.8125 9.8999 17.7375 10.0874 17.55L10.4624 17.175C10.7999 16.8375 10.7999 16.3125 10.4624 15.975C10.1999 15.7125 9.8249 15.675 9.5249 15.7875L3.4874 9.7125L4.5749 8.625H7.6124C7.8374 8.625 8.0624 8.55 8.2124 8.3625L11.1749 5.4C13.6124 3 15.3749 2.4 16.8749 2.3625C16.8374 3.8625 16.2374 5.625 13.7999 8.0625L10.8374 11.025C10.6874 11.175 10.5749 11.4 10.5749 11.625V11.925C10.5749 12.375 10.9499 12.75 11.4374 12.75C11.8874 12.75 12.2624 12.375 12.2624 11.925L14.9624 9.225C17.6624 6.5625 18.7124 4.2375 18.5624 1.4625ZM5.7749 14.8125C5.5874 15 4.7249 15.3 3.7124 15.4875C3.9374 14.475 4.1999 13.6125 4.3874 13.425C4.4624 13.35 4.5374 13.275 4.6499 13.2375L5.9624 14.55C5.9249 14.6625 5.8499 14.7375 5.7749 14.8125Z" fill="#161A23"/>
<path d="M21.1499 12.075C20.2124 11.1 18.9749 10.5375 17.6249 10.5C16.2749 10.4625 14.9624 10.9875 13.9499 11.925C12.9749 12.9 12.4124 14.175 12.4124 15.525C12.4124 17.2875 13.3124 18.8625 14.7749 19.8C14.9249 19.875 14.9999 20.0625 14.9999 20.2875V21.075C14.9999 22.3125 16.0124 23.325 17.2499 23.325H17.6624C18.8999 23.325 19.9124 22.3125 19.9124 21.075V20.25C19.9124 20.0625 19.9874 19.9125 20.1374 19.8C21.5624 18.9 22.4624 17.3625 22.4999 15.6375C22.5749 14.3625 22.0874 13.0875 21.1499 12.075ZM17.6999 21.675H17.2874C16.9874 21.675 16.7249 21.4125 16.7249 21.1125V20.475H18.2624V21.1125C18.2624 21.4125 17.9999 21.675 17.6999 21.675ZM19.2749 18.4125C19.0874 18.525 18.9374 18.6375 18.8249 18.7875H16.1624C16.0124 18.6375 15.8624 18.4875 15.7124 18.4125C14.7374 17.775 14.1374 16.725 14.1374 15.5625C14.1374 14.6625 14.5124 13.8 15.1499 13.1625C15.7874 12.5625 16.6124 12.225 17.5124 12.225C17.5499 12.225 17.5874 12.225 17.5874 12.225C18.4499 12.2625 19.3124 12.6375 19.9124 13.275C20.5499 13.95 20.8874 14.775 20.8499 15.675C20.8124 16.7625 20.2499 17.8125 19.2749 18.4125Z" fill="#161A23"/>
</svg>
