<svg width="24" height="24" viewBox="0 0 24 24" fill="none" xmlns="http://www.w3.org/2000/svg">
<path d="M23.1 13.8L21.4875 12.1875V9.3375C21.4875 6.375 20.775 4.5 19.125 3.0375C18.825 2.7375 18.3375 2.7375 18 3.0375C16.35 4.5 15.6375 6.375 15.6375 9.3375V12.1875L14.025 13.8C13.875 13.95 13.7625 14.175 13.7625 14.4V16.5C13.7625 16.95 14.1375 17.3625 14.625 17.3625H16.3125V17.4C16.3125 18.3375 17.4 19.9125 17.8875 20.55C18.0375 20.775 18.3 20.8875 18.5625 20.8875C18.825 20.8875 19.0875 20.775 19.2375 20.55C19.725 19.9125 20.8125 18.375 20.8125 17.4V17.3625H22.5C22.95 17.3625 23.3625 16.9875 23.3625 16.5V14.4C23.3625 14.175 23.25 13.95 23.1 13.8ZM19.125 17.3625C19.125 17.55 18.9 18 18.5625 18.525C18.2625 18 18.0375 17.55 18 17.4V17.3625H19.125ZM21.675 15.675H15.525V14.775L17.1375 13.1625C17.2875 13.0125 17.4 12.7875 17.4 12.5625V9.3375C17.4 6.9 17.9625 5.6625 18.6375 4.875C19.3125 5.7 19.875 6.9375 19.875 9.3375V12.5625C19.875 12.7875 19.95 13.0125 20.1375 13.1625L21.75 14.775V15.675H21.675Z" fill="#161A23"/>
<path d="M9.86235 8.77499H9.33735C8.06235 8.77499 6.97485 9.82499 6.97485 11.1375V18.8625C6.97485 20.1375 8.02485 21.225 9.33735 21.225H9.86235C11.1374 21.225 12.1874 20.175 12.1874 18.8625V11.1375C12.1874 9.82499 11.1374 8.77499 9.86235 8.77499ZM10.4999 18.825C10.4999 19.2 10.1999 19.5 9.82485 19.5H9.29985C8.92485 19.5 8.62485 19.2 8.62485 18.825V11.1375C8.62485 10.7625 8.92485 10.4625 9.29985 10.4625H9.82485C10.1999 10.4625 10.4999 10.7625 10.4999 11.1375V18.825Z" fill="#161A23"/>
<path d="M3.52495 13.3125H2.99995C1.72495 13.3125 0.637451 14.3625 0.637451 15.675V18.8625C0.637451 20.1375 1.68745 21.225 2.99995 21.225H3.52495C4.79995 21.225 5.88745 20.175 5.88745 18.8625V15.675C5.88745 14.3625 4.83745 13.3125 3.52495 13.3125ZM4.19995 18.825C4.19995 19.2 3.89995 19.5 3.52495 19.5H2.99995C2.62495 19.5 2.32495 19.2 2.32495 18.825V15.6375C2.36245 15.3 2.62495 15 2.99995 15H3.52495C3.89995 15 4.19995 15.3 4.19995 15.675V18.825Z" fill="#161A23"/>
</svg>
