<svg width="24" height="24" viewBox="0 0 24 24" fill="none" xmlns="http://www.w3.org/2000/svg">
<path d="M19.2 14.3624L17.55 13.4625V10.7999C17.55 4.87495 14.9625 2.43745 12.45 0.824951C12.1875 0.637451 11.8125 0.637451 11.55 0.824951C9.03749 2.39995 6.44999 4.83745 6.44999 10.8375V13.4999L4.79999 14.4C3.74999 14.9625 3.11249 16.0499 3.11249 17.25V20.0999C3.11249 20.3999 3.26249 20.6624 3.52499 20.8124C3.67499 20.8874 3.82499 20.9249 3.97499 20.9249C4.12499 20.9249 4.23749 20.8874 4.38749 20.8124L6.48749 19.6874V19.7624C6.48749 20.2125 6.86249 20.6249 7.34999 20.6249H7.91249V22.4999C7.91249 22.9499 8.28749 23.3624 8.77499 23.3624H15.3375C15.7875 23.3624 16.2 22.9874 16.2 22.4999V20.5875H16.8C17.25 20.5875 17.6625 20.2124 17.6625 19.7249V19.65L19.7625 20.775C19.875 20.85 20.025 20.8874 20.175 20.8874C20.325 20.8874 20.475 20.85 20.625 20.775C20.8875 20.625 21.0375 20.3624 21.0375 20.0624V17.2125C20.925 16.0125 20.25 14.9249 19.2 14.3624ZM8.13749 10.7999C8.13749 5.99995 9.93749 3.89995 12 2.51245C14.0625 3.93745 15.8625 6.03745 15.8625 10.7999V18.9H12.825V14.4C12.825 13.95 12.45 13.5374 11.9625 13.5374C11.5125 13.5374 11.1 13.9125 11.1 14.4V18.8624H8.06249V10.7999H8.13749ZM4.76249 18.6374V17.2125C4.76249 16.65 5.06249 16.125 5.58749 15.825L6.44999 15.3749V17.7374L4.76249 18.6374ZM14.4375 21.6749H9.56249V20.5875H14.4375V21.6749ZM19.2375 18.6374L17.5875 17.7374V15.3749L18.45 15.825C18.9375 16.0875 19.275 16.6125 19.275 17.2125V18.6374H19.2375Z" fill="#161A23"/>
<path d="M12 11.3249C13.275 11.3249 14.325 10.2749 14.325 8.99993C14.325 7.72493 13.275 6.67493 12 6.67493C10.725 6.67493 9.67499 7.72493 9.67499 8.99993C9.67499 10.2749 10.725 11.3249 12 11.3249ZM12 8.36243C12.3375 8.36243 12.6375 8.66243 12.6375 8.99993C12.6375 9.33743 12.3375 9.63743 12 9.63743C11.6625 9.63743 11.3625 9.33743 11.3625 8.99993C11.3625 8.66243 11.6625 8.36243 12 8.36243Z" fill="#161A23"/>
</svg>
