<svg width="24" height="24" viewBox="0 0 24 24" fill="none" xmlns="http://www.w3.org/2000/svg">
<path d="M22.95 22.0125C22.8375 21.3 22.275 17.6625 21.1875 16.5375C21.0375 16.3875 20.85 16.2375 20.6625 16.0875L22.2375 14.5125C22.65 14.1 22.9125 13.5 22.9125 12.9C22.9125 12.3 22.6875 11.7375 22.2375 11.2875L20.85 9.89999C20.55 9.59999 20.175 9.44999 19.7625 9.44999H15.825L12.1125 5.73749C7.64998 1.34999 4.42498 0.899993 1.83748 1.04999C1.42498 1.08749 1.08748 1.42499 1.04998 1.83749C0.824983 5.47499 2.21248 8.54999 5.73748 12.075L9.44998 15.7875V19.6875C9.44998 20.1 9.59998 20.5125 9.89998 20.775L11.2875 22.1625C11.7375 22.6125 12.3 22.8375 12.9 22.8375C13.5 22.8375 14.0625 22.6125 14.5125 22.1625L16.0875 20.5875C16.2 20.775 16.35 20.9625 16.5375 21.1125C17.625 22.2 21.3 22.7625 22.0125 22.875C22.05 22.875 22.0875 22.875 22.125 22.875C22.35 22.875 22.575 22.8 22.725 22.6125C22.9125 22.5375 22.9875 22.275 22.95 22.0125ZM13.35 21.0375C13.125 21.2625 12.75 21.2625 12.525 21.0375L11.175 19.6875V15.45C11.175 15.225 11.1 15 10.9125 14.85L6.93748 10.875C3.41248 7.34999 2.73748 4.83749 2.69998 2.69999C4.87498 2.73749 7.38748 3.44999 10.875 6.93749L14.85 10.9125C15 11.0625 15.225 11.175 15.45 11.175H19.65L21 12.525C21.225 12.75 21.225 13.125 21 13.35L13.35 21.0375ZM17.7375 19.9875C17.55 19.8 17.4375 19.6125 17.3625 19.3875L19.3875 17.3625C19.6125 17.4375 19.8 17.55 19.9875 17.7375C20.3625 18.1125 20.775 19.6125 21.075 21.1125C19.6125 20.8125 18.1125 20.3625 17.7375 19.9875Z" fill="#161A23"/>
</svg>
