<svg width="24" height="24" viewBox="0 0 24 24" fill="none" xmlns="http://www.w3.org/2000/svg">
<path d="M18.75 7.5375H18.1875C17.7375 7.5375 17.325 7.9125 17.325 8.4C17.325 8.8875 17.7 9.2625 18.1875 9.2625H18.75C19.0875 9.2625 19.3876 9.525 19.3876 9.9V17.625C19.3876 17.9625 19.125 18.225 18.7875 18.225H5.25005C4.91255 18.225 4.65005 17.9625 4.65005 17.625V9.8625C4.65005 9.525 4.91255 9.225 5.28755 9.225H5.58755C6.03755 9.225 6.45005 8.85 6.45005 8.3625C6.45005 7.875 6.07505 7.5 5.58755 7.5H5.25005C3.97505 7.5 2.92505 8.55 2.92505 9.825V17.625C2.92505 18.9 3.93755 19.9125 5.21255 19.9125H9.71255L9.45005 21.6375H7.68755C7.23755 21.6375 6.82505 22.0125 6.82505 22.5C6.82505 22.9875 7.20005 23.3625 7.68755 23.3625H16.2375C16.6875 23.3625 17.1 22.9875 17.1 22.5C17.1 22.0125 16.725 21.6375 16.2375 21.6375H14.475L14.25 19.9125H18.75C20.025 19.9125 21.0375 18.9 21.0375 17.625V9.8625C21.0375 8.5875 20.025 7.5375 18.75 7.5375ZM12.7875 21.675H11.175L11.4375 19.95H12.5625L12.7875 21.675Z" fill="#161A23"/>
<path d="M6.86245 14.475C7.01245 14.55 7.16245 14.5875 7.31245 14.5875C7.46245 14.5875 7.57495 14.55 7.72495 14.475L8.96245 13.8C9.07495 14.175 9.37495 14.4375 9.78745 14.4375H14.2874C14.6624 14.4375 14.9999 14.175 15.1124 13.8L16.3499 14.475C16.4624 14.55 16.6125 14.5875 16.7625 14.5875C16.9125 14.5875 17.0625 14.55 17.2125 14.475C17.475 14.325 17.625 14.0625 17.625 13.7625V11.6625C17.625 10.6875 17.1 9.825 16.275 9.375L15.1875 8.775V7.65C15.1875 4.4625 14.4375 2.4375 12.6375 0.862497C12.3375 0.562497 11.85 0.562497 11.5125 0.862497C9.74995 2.4 8.96245 4.4625 8.96245 7.65V8.775L7.79995 9.375C6.97495 9.825 6.44995 10.725 6.44995 11.6625V13.7625C6.44995 14.025 6.59995 14.325 6.86245 14.475ZM15.375 10.8375C15.675 10.9875 15.8624 11.325 15.8624 11.6625V12.3375L15.075 11.925V10.725L15.375 10.8375ZM10.575 7.65C10.575 4.95 11.2125 3.5625 11.9625 2.7C12.75 3.6 13.3875 4.95 13.3875 7.65V9.2625V12.4125V12.75H10.575V12.4125V9.2625V7.65ZM8.13745 11.6625C8.13745 11.325 8.32495 11.025 8.62495 10.8375L8.92495 10.6875V11.8875L8.13745 12.3V11.6625Z" fill="#161A23"/>
</svg>
