<svg width="24" height="24" viewBox="0 0 24 24" fill="none" xmlns="http://www.w3.org/2000/svg">
<path d="M7.91245 16.6125H9.71245C9.71245 16.65 9.71245 16.65 9.71245 16.6875C9.71245 17.6625 10.875 19.3125 11.3625 19.95C11.5125 20.175 11.775 20.2875 12.0375 20.2875C12.3 20.2875 12.5625 20.175 12.7125 19.95C13.2 19.3125 14.3625 17.6625 14.3625 16.6875C14.3625 16.65 14.3625 16.65 14.3625 16.6125H16.1625C16.6125 16.6125 17.025 16.2375 17.025 15.75V13.5375C17.025 13.3125 16.95 13.0875 16.7625 12.9375L15 11.2875V8.2875C15 5.2125 14.25 3.2625 12.5625 1.725C12.2625 1.425 11.775 1.425 11.4375 1.725C9.71245 3.225 8.99995 5.2125 8.96245 8.2875V11.2875L7.27495 12.975C7.12495 13.125 7.01245 13.35 7.01245 13.575V15.7875C7.04995 16.2375 7.42495 16.6125 7.91245 16.6125ZM12.6375 16.6875C12.6375 16.875 12.375 17.4 12 17.9625C11.6625 17.4 11.4 16.875 11.3625 16.6875C11.3625 16.65 11.3625 16.65 11.3625 16.6125H12.6C12.6 16.65 12.6375 16.65 12.6375 16.6875ZM8.73745 13.9125L10.425 12.225C10.575 12.075 10.6875 11.85 10.6875 11.625V8.25C10.6875 5.6625 11.2875 4.35 12 3.4875C12.75 4.35 13.3125 5.6625 13.3125 8.25V11.625C13.3125 11.85 13.3875 12.075 13.575 12.225L15.2625 13.9125V14.925H8.73745V13.9125Z" fill="#161A23"/>
<path d="M22.4999 20.8125H20.7374C20.7374 20.775 20.7374 20.7375 20.7374 20.7V12.75C20.7374 11.5125 19.7249 10.5 18.4874 10.5H17.9625C17.5124 10.5 17.0999 10.875 17.0999 11.3625C17.0999 11.85 17.475 12.225 17.9625 12.225H18.4874C18.7874 12.225 19.0499 12.4875 19.0499 12.7875V20.7375C19.0499 20.775 19.0124 20.85 18.9374 20.85H18.4499H5.02495C4.98745 20.85 4.91245 20.8125 4.91245 20.7375V12.75C4.91245 12.45 5.17495 12.1875 5.47495 12.1875H5.77495C6.22495 12.1875 6.63745 11.8125 6.63745 11.325C6.63745 10.8375 6.26245 10.4625 5.77495 10.4625H5.47495C4.23745 10.4625 3.22495 11.475 3.22495 12.7125V20.6625C3.22495 20.7 3.22495 20.7375 3.22495 20.775H1.49995C1.04995 20.775 0.637451 21.15 0.637451 21.6375C0.637451 22.125 1.04995 22.5 1.49995 22.5H22.4999C22.9499 22.5 23.3624 22.125 23.3624 21.6375C23.3624 21.15 22.9499 20.8125 22.4999 20.8125Z" fill="#161A23"/>
</svg>
