<svg width="24" height="24" viewBox="0 0 24 24" fill="none" xmlns="http://www.w3.org/2000/svg">
<g clip-path="url(#clip0_501_47592)">
<path d="M23.025 7.31248L19.95 4.23748L19.8375 4.12498C19.6125 3.97498 19.3875 3.89998 19.1625 3.89998L14.325 4.31248C10.6875 1.27498 6.11252 -0.0375178 2.25002 1.01248C1.65002 1.16248 1.16252 1.64998 1.01252 2.24998C-0.0374804 6.07498 1.27502 10.6875 4.35002 14.2875L3.93752 19.05V19.125C3.93752 19.35 4.01252 19.6125 4.16252 19.8L7.35002 23.025C7.57502 23.25 7.83752 23.3625 8.13752 23.3625C8.25002 23.3625 8.36252 23.3625 8.43752 23.325C8.81252 23.2125 9.11252 22.875 9.22502 22.5L9.67502 18.4875C10.2 18.75 10.725 18.975 11.25 19.1625C11.4375 19.2375 11.625 19.275 11.8125 19.275C12.3 19.275 12.75 19.0875 13.0875 18.75L18.675 13.1625C19.1625 12.675 19.35 11.925 19.125 11.2875C18.9375 10.7625 18.7125 10.2375 18.45 9.71248L22.3875 9.26248H22.4625C22.875 9.18748 23.175 8.88748 23.2875 8.47498C23.4 8.02498 23.325 7.61248 23.025 7.31248ZM7.65002 21L5.62502 18.9375L5.88752 15.9C6.56252 16.5 7.27502 17.0625 8.02502 17.55L7.65002 21ZM17.475 11.925L11.925 17.475C11.8875 17.5125 11.85 17.5125 11.8125 17.5125C9.86252 16.8375 7.98752 15.6375 6.45002 14.1C3.15002 10.7625 1.65002 6.29998 2.62502 2.69998C2.66252 2.66248 2.66252 2.62498 2.70002 2.62498C3.45002 2.43748 4.20002 2.32498 4.98752 2.32498C8.10002 2.32498 11.475 3.78748 14.0625 6.41248C15.6 7.94998 16.8 9.82498 17.475 11.775C17.5125 11.85 17.5125 11.8875 17.475 11.925ZM17.55 8.06248C17.0625 7.31248 16.5 6.56248 15.9 5.88748L18.9375 5.62498L20.9625 7.64998L17.55 8.06248Z" fill="#161A23"/>
<path d="M20.7375 15.075C20.625 15 20.2125 14.8125 19.7625 15.1875C19.3875 15.4875 17.625 17.25 17.2875 17.5875C14.8875 19.9875 14.8875 19.9875 15.0375 20.5125C15.075 20.6625 15.15 20.8125 15.2625 20.8875C16.4625 22.0875 18.3 22.35 19.6875 22.35C20.7375 22.35 21.525 22.2 21.6 22.1625C21.9375 22.0875 22.2 21.825 22.275 21.4875C22.3125 21.3 23.1 17.2875 20.9625 15.15C20.85 15.15 20.775 15.1125 20.7375 15.075ZM20.6625 20.6625C19.6875 20.775 18.1875 20.775 17.0625 20.2125C17.8875 19.3875 19.35 17.8875 20.175 17.1C20.7375 18.15 20.7375 19.6875 20.6625 20.6625Z" fill="#161A23"/>
<path d="M9.78755 6.67499C8.06255 6.67499 6.67505 8.06249 6.67505 9.78749C6.67505 11.5125 8.06255 12.9 9.78755 12.9C11.5125 12.9 12.9 11.5125 12.9 9.78749C12.9 8.06249 11.5125 6.67499 9.78755 6.67499ZM9.78755 11.25C9.00005 11.25 8.36255 10.6125 8.36255 9.82499C8.36255 9.03749 9.00005 8.39999 9.78755 8.39999C10.575 8.39999 11.25 8.99999 11.25 9.78749C11.25 10.575 10.575 11.25 9.78755 11.25Z" fill="#161A23"/>
</g>
<defs>
<clipPath id="clip0_501_47592">
<rect width="24" height="24" fill="white"/>
</clipPath>
</defs>
</svg>
