<svg width="24" height="24" viewBox="0 0 24 24" fill="none" xmlns="http://www.w3.org/2000/svg">
<path d="M6.67489 16.0125C6.82489 16.0875 6.97489 16.125 7.12489 16.125C7.27489 16.125 7.38739 16.0875 7.53739 16.0125L8.73739 15.3375C8.84989 15.675 9.14989 15.9375 9.56239 15.9375H14.0249C14.3999 15.9375 14.7374 15.675 14.8499 15.3375L16.0499 16.0125C16.1624 16.0875 16.3124 16.125 16.4624 16.125C16.6124 16.125 16.7624 16.0875 16.9124 16.0125C17.1749 15.8625 17.3249 15.6 17.3249 15.3V13.2375C17.3249 12.3 16.7999 11.4 15.9749 10.95L14.8874 10.35V9.2625C14.8874 6.1125 14.1374 4.125 12.3749 2.55C12.0749 2.25 11.5874 2.25 11.2499 2.55C9.48739 4.0875 8.73739 6.075 8.73739 9.2625V10.35L7.64989 10.95C6.82489 11.4 6.29989 12.2625 6.29989 13.2375V15.3C6.26239 15.6 6.41239 15.8625 6.67489 16.0125ZM15.0749 12.45C15.3749 12.6 15.5624 12.9 15.5624 13.2375V13.875L14.8124 13.4625V12.3L15.0749 12.45ZM10.3874 9.2625C10.3874 6.6 10.9874 5.25 11.7749 4.3875C12.5249 5.2875 13.1624 6.6 13.1624 9.2625V10.875V13.95V14.2875H10.3874V13.95V10.875V9.2625ZM7.94989 13.2375C7.94989 12.9 8.13739 12.6 8.43739 12.45L8.69989 12.3V13.4625L7.94989 13.875V13.2375Z" fill="#161A23"/>
<path d="M22.4999 19.95H20.6999C20.6999 19.9125 20.6999 19.875 20.6999 19.8375V11.7C20.6999 10.425 19.6874 9.4125 18.4124 9.4125H17.8499C17.3999 9.4125 16.9874 9.7875 16.9874 10.275C16.9874 10.7625 17.3624 11.1375 17.8499 11.1375H18.4124C18.7499 11.1375 19.0124 11.4 19.0124 11.7375V19.875C19.0124 19.95 18.975 19.9875 18.9 19.9875H4.64995C4.57495 19.9875 4.53745 19.95 4.53745 19.875V11.7C4.53745 11.3625 4.79995 11.1 5.13745 11.1H5.43745C5.88745 11.1 6.29995 10.725 6.29995 10.2375C6.29995 9.75 5.92495 9.375 5.43745 9.375H5.13745C3.86245 9.375 2.84995 10.3875 2.84995 11.6625V19.8C2.84995 19.8375 2.84995 19.875 2.84995 19.9125H1.49995C1.04995 19.9125 0.637451 20.2875 0.637451 20.775C0.637451 21.2625 1.01245 21.6375 1.49995 21.6375H22.4999C22.9499 21.6375 23.3624 21.2625 23.3624 20.775C23.3624 20.2875 22.9499 19.95 22.4999 19.95Z" fill="#161A23"/>
</svg>
