<svg width="24" height="24" viewBox="0 0 24 24" fill="none" xmlns="http://www.w3.org/2000/svg">
<g clip-path="url(#clip0_501_51279)">
<path d="M20.4375 14.7C19.8375 14.7 19.275 14.8875 18.7875 15.225C18.3 14.8875 17.7375 14.7 17.1375 14.7C15.525 14.7 14.175 16.0125 14.175 17.6625C14.175 20.1375 17.7 22.8375 18.1125 23.1375C18.3 23.2875 18.5625 23.3625 18.7875 23.3625C19.0125 23.3625 19.275 23.2875 19.4625 23.1375C19.875 22.8375 23.4 20.1375 23.4 17.6625C23.3625 16.0125 22.05 14.7 20.4375 14.7ZM18.75 21.525C17.5125 20.5125 15.825 18.7875 15.825 17.6625C15.825 16.9875 16.3875 16.3875 17.1 16.3875C17.475 16.3875 17.85 16.575 18.1125 16.875C18.45 17.2875 19.125 17.2875 19.4625 16.875C19.6875 16.575 20.0625 16.3875 20.475 16.3875C21.1875 16.3875 21.75 16.95 21.75 17.6625C21.675 18.7875 20.025 20.5125 18.75 21.525Z" fill="#161A23"/>
<path d="M21.2625 1.4625C21.225 1.05 20.8875 0.712503 20.475 0.675003C17.0625 0.487503 14.2125 1.7625 10.9125 5.0625L7.46245 8.5125H3.59995C3.37495 8.5125 3.14995 8.5875 2.99995 8.775L1.08745 10.6875C0.787451 10.9875 0.637451 11.4 0.637451 11.8125C0.637451 12.225 0.787451 12.6375 1.08745 12.9375L2.88745 14.7375C2.73745 14.85 2.58745 14.9625 2.43745 15.1125C1.42495 16.125 0.899951 19.275 0.787451 20.2125C0.749951 20.475 0.824951 20.7375 1.01245 20.925C1.16245 21.075 1.38745 21.1875 1.61245 21.1875C1.64995 21.1875 1.68745 21.1875 1.72495 21.1875C2.66245 21.0375 5.81245 20.55 6.82495 19.5375C6.97495 19.3875 7.08745 19.2375 7.19995 19.0875L9.52495 21.4125C9.67495 21.5625 9.89995 21.675 10.125 21.675C10.35 21.675 10.5375 21.6 10.725 21.4125L11.2125 20.9625C11.55 20.625 11.55 20.1 11.2125 19.7625C10.9125 19.4625 10.5 19.425 10.1625 19.65L2.36245 11.775L3.93745 10.2H7.83745C8.06245 10.2 8.28745 10.125 8.43745 9.9375L12.1125 6.2625C15.3375 3.0375 17.625 2.3625 19.575 2.325C19.5375 4.275 18.9 6.6 15.675 9.7875L12 13.5C11.85 13.65 11.7375 13.875 11.7375 14.1V14.475C11.7375 14.925 12.1125 15.3375 12.6 15.3375C13.0875 15.3375 13.4625 14.9625 13.4625 14.475V14.4375L16.9125 10.9875C20.1749 7.725 21.4875 4.875 21.2625 1.4625ZM5.66245 18.3C5.32495 18.6375 4.01245 19.0125 2.66245 19.275C2.92495 17.925 3.33745 16.575 3.63745 16.275C3.78745 16.125 3.93745 16.0125 4.12495 15.975L5.96245 17.8125C5.92495 17.9625 5.81245 18.15 5.66245 18.3Z" fill="#161A23"/>
</g>
<defs>
<clipPath id="clip0_501_51279">
<rect width="24" height="24" fill="white"/>
</clipPath>
</defs>
</svg>
