<svg width="24" height="24" viewBox="0 0 24 24" fill="none" xmlns="http://www.w3.org/2000/svg">
<path d="M21.5624 1.4625C21.5249 1.05 21.1874 0.7125 20.7749 0.675C17.6249 0.4875 14.9624 1.6875 11.9249 4.725L8.7749 7.875H5.2124C4.9874 7.875 4.7624 7.95 4.6124 8.1375L2.8124 9.9375C2.5499 10.2 2.3999 10.575 2.3999 10.95C2.3999 11.325 2.5499 11.7 2.8124 11.9625L4.4624 13.6125C4.3499 13.6875 4.1999 13.8 4.0874 13.9125C3.1499 14.85 2.6624 17.775 2.5499 18.675C2.5124 18.9375 2.5874 19.2 2.7749 19.3875C2.9249 19.5375 3.1499 19.65 3.3749 19.65C3.4124 19.65 3.4499 19.65 3.4874 19.65C4.3499 19.5375 7.2749 19.05 8.2499 18.1125C8.3624 18 8.4749 17.8875 8.5499 17.7375L10.1999 19.3875C10.4999 19.6875 10.8374 19.8 11.2124 19.8C11.5874 19.8 11.9624 19.65 12.2249 19.3875C12.5624 19.05 12.5624 18.525 12.2249 18.1875C11.9624 17.925 11.5499 17.85 11.2124 18.0375L4.0874 10.9125L5.4749 9.525H9.0374C9.2624 9.525 9.4874 9.45 9.6374 9.2625L13.0499 5.85C15.9749 2.9625 18.0374 2.325 19.8374 2.25C19.8749 4.125 19.2374 6.225 16.3124 9.1125L12.8999 12.525C12.7499 12.675 12.6374 12.9 12.6374 13.125V13.5C12.6374 13.95 13.0124 14.3625 13.4999 14.3625C13.9874 14.3625 14.3624 13.9875 14.3624 13.5L17.5124 10.3125C20.5499 7.275 21.7874 4.6125 21.5624 1.4625ZM7.0874 16.95C6.7874 17.25 5.6624 17.5875 4.4624 17.8125C4.6874 16.6125 5.0624 15.45 5.3249 15.1875C5.4374 15.075 5.5874 15 5.7374 14.925L7.3874 16.575C7.3124 16.6875 7.1999 16.8 7.0874 16.95Z" fill="#161A23"/>
<path d="M17.0999 16.4625H19.7624C20.2124 16.4625 20.6249 16.0875 20.6249 15.6C20.6249 15.1125 20.2499 14.7375 19.7624 14.7375H18.9749V14.3625C18.9749 13.9125 18.5999 13.5 18.1124 13.5C17.6249 13.5 17.2499 13.875 17.2499 14.3625V14.7375H17.0624C15.8249 14.7375 14.7749 15.75 14.7749 16.9875C14.7749 18.225 15.7874 19.2375 17.0624 19.2375H18.2999C18.6374 19.2375 18.8999 19.5 18.8999 19.8C18.8999 20.1 18.6374 20.3625 18.2999 20.3625H15.6374C15.1874 20.3625 14.7749 20.7375 14.7749 21.225C14.7749 21.7125 15.1499 22.0875 15.6374 22.0875H17.2499V22.4625C17.2499 22.9125 17.6249 23.325 18.1124 23.325C18.5999 23.325 18.9749 22.95 18.9749 22.4625V22.0125C19.9124 21.75 20.5874 20.8875 20.5874 19.8375C20.5874 18.6 19.5749 17.5875 18.2999 17.5875H17.0624C16.7249 17.5875 16.4624 17.325 16.4624 17.025C16.5374 16.725 16.7624 16.4625 17.0999 16.4625Z" fill="#161A23"/>
</svg>
