<svg width="24" height="24" viewBox="0 0 24 24" fill="none" xmlns="http://www.w3.org/2000/svg">
<path d="M13.9501 12.5625V12.3375C13.9501 11.8875 13.5751 11.475 13.0876 11.475C12.6001 11.475 12.2251 11.85 12.2251 12.3375V12.9C12.2251 13.125 12.3001 13.35 12.4876 13.5L14.6251 15.6375V17.1375H6.2251V15.6375L8.3626 13.5C8.5126 13.35 8.6251 13.125 8.6251 12.9V8.775C8.6251 5.3625 9.4501 3.75 10.4251 2.6625C11.0626 3.3375 11.4751 4.0875 11.7751 5.025C11.8501 5.4 12.1876 5.6625 12.6001 5.6625C13.0501 5.6625 13.4626 5.2875 13.4626 4.8C13.4626 4.725 13.4626 4.6125 13.4251 4.5375C12.9751 3.0375 12.1876 1.875 11.0251 0.824999C10.7251 0.562499 10.2376 0.562499 9.9001 0.824999C7.8376 2.625 6.9376 4.9875 6.9376 8.7375V12.525L4.8001 14.6625C4.6501 14.8125 4.5376 15.0375 4.5376 15.2625V17.25C4.5376 18.1125 5.2501 18.825 6.1126 18.825H7.8001C7.8001 18.9375 7.7626 19.0125 7.7626 19.125C7.7626 20.325 9.2626 22.3875 9.7126 23.025C9.8626 23.25 10.1251 23.3625 10.3876 23.3625C10.6501 23.3625 10.9126 23.25 11.0626 23.025C11.5126 22.425 13.0126 20.325 13.0126 19.125C13.0126 19.0125 13.0126 18.9375 12.9751 18.825H14.6626C15.5251 18.825 16.2376 18.1125 16.2376 17.25V15.2625C16.2376 15.0375 16.1626 14.8125 15.9751 14.6625L13.9501 12.5625ZM11.4001 19.125C11.4001 19.3875 10.9876 20.175 10.4626 21.0375C9.9001 20.175 9.5251 19.3875 9.5251 19.125C9.5251 19.0125 9.5626 18.9375 9.5626 18.825H11.3626C11.3626 18.9 11.4001 19.0125 11.4001 19.125Z" fill="#161A23"/>
<path d="M17.1751 6.5625H15.9751C15.6751 6.5625 15.4126 6.3 15.4126 6C15.4126 5.7 15.6751 5.4375 15.9751 5.4375H18.6001C19.0501 5.4375 19.4626 5.0625 19.4626 4.575C19.4626 4.0875 19.0876 3.7125 18.6001 3.7125H17.8126V3.3375C17.8126 2.8875 17.4376 2.475 16.9501 2.475C16.4626 2.475 16.0876 2.85 16.0876 3.3375V3.7125H15.9376C14.7001 3.7125 13.6876 4.725 13.6876 5.9625C13.6876 7.2 14.7001 8.2125 15.9376 8.2125H17.1376C17.4376 8.2125 17.7001 8.475 17.7001 8.775C17.7001 9.075 17.4376 9.3375 17.1376 9.3375H14.5126C14.0626 9.3375 13.6501 9.7125 13.6501 10.2C13.6501 10.6875 14.0251 11.0625 14.5126 11.0625H16.0876V11.4375C16.0876 11.8875 16.4626 12.3 16.9501 12.3C17.4376 12.3 17.8126 11.925 17.8126 11.4375V10.9875C18.7501 10.725 19.4251 9.8625 19.4251 8.85C19.4626 7.575 18.4501 6.5625 17.1751 6.5625Z" fill="#161A23"/>
</svg>
