<svg width="24" height="24" viewBox="0 0 24 24" fill="none" xmlns="http://www.w3.org/2000/svg">
<g clip-path="url(#clip0_501_48298)">
<path d="M21.3375 23.3625H2.66248C1.64998 23.3625 0.787476 22.5375 0.787476 21.4875V18.9375C0.787476 18.4875 1.16248 18.075 1.64998 18.075H2.51248L2.77498 16.3125C2.84998 15.9 3.18748 15.6 3.59998 15.6H5.43748V9.93749L1.38748 8.69999C1.04998 8.58749 0.787476 8.24999 0.787476 7.87499V2.02499C0.787476 1.27499 1.38748 0.674988 2.13748 0.674988H5.73748C6.48748 0.674988 7.08748 1.27499 7.08748 2.02499V4.23749H8.96247V2.02499C8.96247 1.27499 9.56248 0.674988 10.3125 0.674988H13.6125C14.3625 0.674988 14.9625 1.27499 14.9625 2.02499V4.23749H16.8375V2.02499C16.8375 1.27499 17.4375 0.674988 18.1875 0.674988H21.7875C22.5375 0.674988 23.1375 1.27499 23.1375 2.02499V7.91249C23.1375 8.28749 22.9125 8.62499 22.5375 8.73749L18.4875 9.97499V15.6375H20.325C20.7375 15.6375 21.1125 15.9375 21.15 16.35L21.4125 18.1125H22.275C22.725 18.1125 23.1375 18.4875 23.1375 18.975V21.525C23.2125 22.5 22.35 23.3625 21.3375 23.3625ZM2.47498 19.8V21.4875C2.47498 21.6 2.54998 21.675 2.66248 21.675H21.3375C21.45 21.675 21.525 21.6 21.525 21.4875V19.8H20.775C20.3625 19.8 19.9875 19.5 19.95 19.0875L19.6875 17.325H17.7375C17.2875 17.325 16.875 16.95 16.875 16.4625V9.33749C16.875 8.96249 17.1 8.62499 17.475 8.51249L21.525 7.27499V2.36249H18.6V5.06249C18.6 5.51249 18.225 5.92499 17.7375 5.92499H14.175C13.725 5.92499 13.3125 5.54999 13.3125 5.06249V2.36249H10.65V5.06249C10.65 5.51249 10.275 5.92499 9.78748 5.92499H6.22498C5.77498 5.92499 5.36248 5.54999 5.36248 5.06249V2.36249H2.47498V7.31249L6.52498 8.54999C6.86248 8.66249 7.12498 8.99999 7.12498 9.37499V16.5C7.12498 16.95 6.74998 17.3625 6.26248 17.3625H4.31248L4.04998 19.125C3.97498 19.5375 3.63748 19.8375 3.22498 19.8375H2.47498V19.8Z" fill="#161A23"/>
</g>
<defs>
<clipPath id="clip0_501_48298">
<rect width="24" height="24" fill="white"/>
</clipPath>
</defs>
</svg>
