<svg width="24" height="24" viewBox="0 0 24 24" fill="none" xmlns="http://www.w3.org/2000/svg">
<path d="M18.1125 9.90005V4.57505C18.1125 3.82505 17.6625 3.11255 16.9875 2.77505L12.825 0.825049C12.3 0.562549 11.7 0.562549 11.175 0.825049L7.01248 2.77505C6.33748 3.11255 5.88748 3.78755 5.88748 4.57505V9.90005C5.88748 10.6125 6.26248 11.25 6.86248 11.5875L11.025 13.9875C11.325 14.175 11.6625 14.25 12 14.25C12.3375 14.25 12.675 14.175 12.975 13.9875L17.1375 11.5875C17.7375 11.25 18.1125 10.6125 18.1125 9.90005ZM11.8875 2.36255C11.925 2.36255 11.9625 2.32505 12 2.32505C12.0375 2.32505 12.075 2.32505 12.1125 2.36255L15.3 3.82505L12 5.32505L8.69998 3.82505L11.8875 2.36255ZM7.68748 10.125C7.61248 10.0875 7.53748 9.97505 7.53748 9.90005V5.17505L11.1375 6.82505V12.1125L7.68748 10.125ZM16.3125 10.125L12.8625 12.1125V6.82505L16.4625 5.17505V9.90005C16.425 9.97505 16.3875 10.0875 16.3125 10.125Z" fill="#161A23"/>
<path d="M17.2875 14.775C16.8375 14.7 16.3875 15 16.3125 15.45C16.2375 15.9 16.5375 16.35 16.9875 16.425C19.65 16.95 20.5125 17.7375 20.5125 17.9625C20.5125 18.3375 18.9 19.3875 15.0375 19.7625C14.5875 19.8 14.25 20.2125 14.2875 20.7C14.325 21.15 14.7 21.45 15.1125 21.45C15.15 21.45 15.15 21.45 15.1875 21.45C16.8375 21.3 22.1625 20.5875 22.1625 17.9625C22.1625 16.5375 20.4375 15.375 17.2875 14.775Z" fill="#161A23"/>
<path d="M10.3125 18.2626C9.97499 17.9626 9.41249 18.0001 9.11249 18.3376C8.81249 18.6751 8.84999 19.2376 9.18749 19.5376L9.52499 19.8001C5.39999 19.5001 3.52499 18.3751 3.52499 17.9626C3.52499 17.7001 4.53749 16.8376 7.61249 16.3501C8.06249 16.2751 8.39999 15.8626 8.32499 15.3751C8.24999 14.9251 7.83749 14.5876 7.34999 14.6626C5.28749 15.0001 1.83749 15.8626 1.83749 17.9626C1.83749 20.2126 5.84999 21.2626 9.52499 21.4876L9.11249 21.9001C8.77499 22.2376 8.77499 22.7626 9.11249 23.1001C9.26249 23.2501 9.48749 23.3626 9.71249 23.3626C9.93749 23.3626 10.1625 23.2876 10.3125 23.1001L12.2625 21.1501C12.4125 21.0001 12.525 20.7751 12.525 20.5126C12.525 20.2876 12.4125 20.0626 12.225 19.9126L10.3125 18.2626Z" fill="#161A23"/>
</svg>
