<svg width="24" height="24" viewBox="0 0 24 24" fill="none" xmlns="http://www.w3.org/2000/svg">
<g clip-path="url(#clip0_501_43616)">
<path d="M21 0.675003H2.99999C1.72499 0.675003 0.674988 1.725 0.674988 3V21C0.674988 22.275 1.72499 23.3625 3.03749 23.3625H21.0375C22.3125 23.3625 23.4 22.3125 23.4 21V3C23.3625 1.725 22.275 0.675003 21 0.675003ZM21.675 21C21.675 21.375 21.375 21.675 21 21.675H2.99999C2.62499 21.675 2.32499 21.375 2.32499 21V3C2.36249 2.625 2.62499 2.3625 2.99999 2.3625H21C21.375 2.3625 21.675 2.6625 21.675 3.0375V21Z" fill="#161A23"/>
<path d="M16.35 7.83751L9.82499 14.3625L7.64999 12.1875C7.31249 11.85 6.78749 11.85 6.44999 12.1875C6.11249 12.525 6.11249 13.05 6.44999 13.3875L9.22499 16.1625C9.37499 16.3125 9.59999 16.425 9.82499 16.425C10.05 16.425 10.275 16.35 10.425 16.1625L17.55 9.03751C17.8875 8.70001 17.8875 8.17501 17.55 7.83751C17.2125 7.50001 16.6875 7.50001 16.35 7.83751Z" fill="#161A23"/>
</g>
<defs>
<clipPath id="clip0_501_43616">
<rect width="24" height="24" fill="white"/>
</clipPath>
</defs>
</svg>
