<svg width="24" height="24" viewBox="0 0 24 24" fill="none" xmlns="http://www.w3.org/2000/svg">
<g clip-path="url(#clip0_501_43639)">
<path d="M16.65 11.175H12.8625V7.35C12.8625 6.9 12.4875 6.4875 12 6.4875C11.55 6.4875 11.1375 6.8625 11.1375 7.35V11.1375H7.34999C6.89999 11.1375 6.48749 11.5125 6.48749 12C6.48749 12.45 6.86249 12.8625 7.34999 12.8625H11.1375V16.65C11.1375 17.1 11.5125 17.5125 12 17.5125C12.45 17.5125 12.8625 17.1375 12.8625 16.65V12.8625H16.65C17.1 12.8625 17.5125 12.4875 17.5125 12C17.475 11.55 17.1 11.175 16.65 11.175Z" fill="#161A23"/>
<path d="M21 0.674999H2.99999C1.72499 0.674999 0.674988 1.725 0.674988 3V21C0.674988 22.275 1.72499 23.3625 3.03749 23.3625H21.0375C22.3125 23.3625 23.4 22.3125 23.4 21V3C23.3625 1.725 22.275 0.674999 21 0.674999ZM21.675 21C21.675 21.375 21.375 21.675 21 21.675H2.99999C2.62499 21.675 2.32499 21.375 2.32499 21V3C2.36249 2.625 2.62499 2.3625 2.99999 2.3625H21C21.375 2.3625 21.675 2.6625 21.675 3.0375V21Z" fill="#161A23"/>
</g>
<defs>
<clipPath id="clip0_501_43639">
<rect width="24" height="24" fill="white"/>
</clipPath>
</defs>
</svg>
