<svg width="24" height="24" viewBox="0 0 24 24" fill="none" xmlns="http://www.w3.org/2000/svg">
<g clip-path="url(#clip0_501_43653)">
<path d="M16.05 11.175H7.94996C7.49996 11.175 7.08746 11.55 7.08746 12.0375C7.08746 12.4875 7.46246 12.9 7.94996 12.9H16.05C16.5 12.9 16.9125 12.525 16.9125 12.0375C16.875 11.55 16.5 11.175 16.05 11.175Z" fill="#161A23"/>
<path d="M21 0.674999H2.99999C1.72499 0.674999 0.674988 1.725 0.674988 3V21C0.674988 22.275 1.72499 23.3625 3.03749 23.3625H21.0375C22.3125 23.3625 23.4 22.3125 23.4 21V3C23.3625 1.725 22.275 0.674999 21 0.674999ZM21.675 21C21.675 21.375 21.375 21.675 21 21.675H2.99999C2.62499 21.675 2.32499 21.375 2.32499 21V3C2.36249 2.625 2.62499 2.3625 2.99999 2.3625H21C21.375 2.3625 21.675 2.6625 21.675 3.0375V21Z" fill="#161A23"/>
</g>
<defs>
<clipPath id="clip0_501_43653">
<rect width="24" height="24" fill="white"/>
</clipPath>
</defs>
</svg>
