<svg width="24" height="24" viewBox="0 0 24 24" fill="none" xmlns="http://www.w3.org/2000/svg">
<g clip-path="url(#clip0_501_43609)">
<path d="M15.8625 8.1375C15.525 7.8 15 7.8 14.6625 8.1375L12 10.8L9.33749 8.1375C8.99999 7.8 8.47499 7.8 8.13749 8.1375C7.79999 8.475 7.79999 9 8.13749 9.3375L10.8 12L8.13749 14.6625C7.79999 15 7.79999 15.525 8.13749 15.8625C8.28749 16.0125 8.51249 16.125 8.73749 16.125C8.96249 16.125 9.18749 16.05 9.33749 15.8625L12 13.2L14.6625 15.8625C14.8125 16.0125 15.0375 16.125 15.2625 16.125C15.4875 16.125 15.7125 16.05 15.8625 15.8625C16.2 15.525 16.2 15 15.8625 14.6625L13.2 12L15.8625 9.3375C16.2 9 16.2 8.4375 15.8625 8.1375Z" fill="#161A23"/>
<path d="M21 0.674999H2.99999C1.72499 0.674999 0.674988 1.725 0.674988 3V21C0.674988 22.275 1.72499 23.3625 3.03749 23.3625H21.0375C22.3125 23.3625 23.4 22.3125 23.4 21V3C23.3625 1.725 22.275 0.674999 21 0.674999ZM21.675 21C21.675 21.375 21.375 21.675 21 21.675H2.99999C2.62499 21.675 2.32499 21.375 2.32499 21V3C2.36249 2.625 2.62499 2.3625 2.99999 2.3625H21C21.375 2.3625 21.675 2.6625 21.675 3.0375V21Z" fill="#161A23"/>
</g>
<defs>
<clipPath id="clip0_501_43609">
<rect width="24" height="24" fill="white"/>
</clipPath>
</defs>
</svg>
