<svg width="24" height="24" viewBox="0 0 24 24" fill="none" xmlns="http://www.w3.org/2000/svg">
<path d="M18.225 16.2V14.5125C18.225 14.0625 17.85 13.6875 17.4 13.6875C16.95 13.6875 16.575 14.0625 16.575 14.5125V16.2C15 16.575 13.8 18 13.8 19.725C13.8 21.7125 15.4125 23.3625 17.4375 23.3625C19.4625 23.3625 21.075 21.75 21.075 19.725C21 18 19.8 16.575 18.225 16.2ZM17.3625 21.675C16.3125 21.675 15.4125 20.8125 15.4125 19.725C15.4125 18.6375 16.275 17.775 17.3625 17.775C18.45 17.775 19.3125 18.6375 19.3125 19.725C19.3125 20.8125 18.45 21.675 17.3625 21.675Z" fill="#161A23"/>
<path d="M6.9 0.675049C4.7625 0.675049 3 2.40005 3 4.57505C3 6.56255 5.775 9.07505 6.3375 9.56255C6.4875 9.71255 6.7125 9.78755 6.9 9.78755C7.0875 9.78755 7.3125 9.71255 7.4625 9.56255C8.025 9.07505 10.8 6.52505 10.8 4.57505C10.8375 2.40005 9.075 0.675049 6.9 0.675049ZM6.9 7.76255C5.85 6.75005 4.6875 5.28755 4.6875 4.53755C4.6875 3.30005 5.7 2.32505 6.9 2.32505C8.1375 2.32505 9.1125 3.33755 9.1125 4.53755C9.15 5.32505 7.95 6.75005 6.9 7.76255Z" fill="#161A23"/>
<path d="M12.4875 7.80005H10.2375C9.78748 7.80005 9.41248 8.17505 9.41248 8.62505C9.41248 9.07505 9.78748 9.45005 10.2375 9.45005H12.4875C12.9375 9.45005 13.3125 9.07505 13.3125 8.62505C13.3125 8.17505 12.9375 7.80005 12.4875 7.80005Z" fill="#161A23"/>
<path d="M15.1125 9.48755H16.5375V10.875C16.5375 11.325 16.9125 11.7 17.3625 11.7C17.8125 11.7 18.1875 11.325 18.1875 10.875V8.62505C18.1875 8.17505 17.8125 7.80005 17.3625 7.80005H15.1125C14.6625 7.80005 14.2875 8.17505 14.2875 8.62505C14.2875 9.07505 14.6625 9.48755 15.1125 9.48755Z" fill="#161A23"/>
<path d="M17.3625 20.4376C17.756 20.4376 18.075 20.1186 18.075 19.7251C18.075 19.3316 17.756 19.0126 17.3625 19.0126C16.969 19.0126 16.65 19.3316 16.65 19.7251C16.65 20.1186 16.969 20.4376 17.3625 20.4376Z" fill="#161A23"/>
<path d="M6.9 5.28755C7.2935 5.28755 7.6125 4.96855 7.6125 4.57505C7.6125 4.18155 7.2935 3.86255 6.9 3.86255C6.5065 3.86255 6.1875 4.18155 6.1875 4.57505C6.1875 4.96855 6.5065 5.28755 6.9 5.28755Z" fill="#161A23"/>
</svg>
