<svg width="24" height="24" viewBox="0 0 24 24" fill="none" xmlns="http://www.w3.org/2000/svg">
<g clip-path="url(#clip0_501_41595)">
<path d="M19.725 0.675049C17.9625 0.675049 16.5 1.91255 16.1625 3.60005L8.81255 4.87505C8.40005 3.33755 6.97505 2.21255 5.32505 2.21255C3.33755 2.21255 1.68755 3.82505 1.68755 5.85005C1.68755 7.53755 2.81255 8.92505 4.38755 9.33755L3.52505 16.1625C1.87505 16.5 0.675049 17.9625 0.675049 19.725C0.675049 21.7125 2.28755 23.3625 4.31255 23.3625C6.03755 23.3625 7.50005 22.125 7.87505 20.5126H13.875C14.325 20.5126 14.7 20.1375 14.7 19.6875C14.7 19.2375 14.325 18.8625 13.875 18.8625H7.80005C7.46255 17.625 6.48755 16.6125 5.25005 16.275L6.07505 9.37505C7.50005 9.07505 8.58755 7.95005 8.88755 6.56255L16.2375 5.25005C16.65 6.78755 18.075 7.91255 19.725 7.91255C21.7125 7.91255 23.3625 6.30005 23.3625 4.27505C23.325 2.28755 21.7125 0.675049 19.725 0.675049ZM6.22505 19.725C6.22505 20.8125 5.36255 21.675 4.27505 21.675C3.18755 21.675 2.32505 20.8125 2.32505 19.725C2.32505 18.6375 3.18755 17.775 4.27505 17.775C5.36255 17.775 6.22505 18.6375 6.22505 19.725ZM5.32505 7.76255C4.23755 7.76255 3.37505 6.90005 3.37505 5.81255C3.37505 4.72505 4.23755 3.86255 5.32505 3.86255C6.41255 3.86255 7.27505 4.72505 7.27505 5.81255C7.27505 6.90005 6.37505 7.76255 5.32505 7.76255ZM19.725 6.22505C18.6375 6.22505 17.775 5.36255 17.775 4.27505C17.775 3.18755 18.6375 2.32505 19.725 2.32505C20.8125 2.32505 21.675 3.18755 21.675 4.27505C21.675 5.36255 20.775 6.22505 19.725 6.22505Z" fill="#161A23"/>
<path d="M21.0375 18.7876H19.9125C19.4625 18.7876 19.0875 19.1626 19.0875 19.6126C19.0875 20.0626 19.4625 20.4376 19.9125 20.4376H21.0375C21.4875 20.4376 21.8625 20.0626 21.8625 19.6126C21.8625 19.1626 21.525 18.7876 21.0375 18.7876Z" fill="#161A23"/>
<path d="M17.4375 18.7876H16.3125C15.8625 18.7876 15.4875 19.1626 15.4875 19.6126C15.4875 20.0626 15.8625 20.4376 16.3125 20.4376H17.4375C17.8875 20.4376 18.2625 20.0626 18.2625 19.6126C18.2625 19.1626 17.925 18.7876 17.4375 18.7876Z" fill="#161A23"/>
</g>
<defs>
<clipPath id="clip0_501_41595">
<rect width="24" height="24" fill="white"/>
</clipPath>
</defs>
</svg>
