<svg width="24" height="24" viewBox="0 0 24 24" fill="none" xmlns="http://www.w3.org/2000/svg">
<g clip-path="url(#clip0_501_47738)">
<path d="M2.21251 0.674988C1.76251 0.674988 1.35001 1.04999 1.35001 1.53749C1.35001 2.02499 1.72501 2.39999 2.21251 2.39999C12.9375 2.39999 21.6375 11.025 21.6375 21.6C21.6375 22.05 22.0125 22.4625 22.5 22.4625C22.9875 22.4625 23.3625 22.0875 23.3625 21.6C23.3625 10.0125 13.875 0.674988 2.21251 0.674988Z" fill="#161A23"/>
<path d="M2.21251 5.70001C1.76251 5.70001 1.35001 6.07501 1.35001 6.56251C1.35001 7.05001 1.72501 7.42501 2.21251 7.42501C10.2375 7.42501 16.725 13.8 16.725 21.6C16.725 22.05 17.1 22.4625 17.5875 22.4625C18.075 22.4625 18.45 22.0875 18.45 21.6C18.45 12.7875 11.175 5.70001 2.21251 5.70001Z" fill="#161A23"/>
<path d="M2.21251 10.125C1.76251 10.125 1.35001 10.5 1.35001 10.9875C1.35001 11.475 1.72501 11.85 2.21251 11.85C7.68751 11.85 12.15 16.2375 12.15 21.6C12.15 22.05 12.525 22.4625 13.0125 22.4625C13.5 22.4625 13.875 22.0875 13.875 21.6C13.8375 15.225 8.62501 10.125 2.21251 10.125Z" fill="#161A23"/>
<path d="M2.21251 14.6625C1.76251 14.6625 1.35001 15.0375 1.35001 15.525C1.35001 16.0125 1.72501 16.3875 2.21251 16.3875C5.10001 16.3875 7.42501 18.7125 7.42501 21.5625C7.42501 22.0125 7.80001 22.425 8.28751 22.425C8.77501 22.425 9.15001 22.05 9.15001 21.5625C9.15001 17.775 6.03751 14.6625 2.21251 14.6625Z" fill="#161A23"/>
<path d="M3.11251 18.4125C1.76251 18.4125 0.637512 19.5375 0.637512 20.8875C0.637512 22.2375 1.72501 23.3625 3.11251 23.3625C4.50001 23.3625 5.58751 22.2375 5.58751 20.8875C5.58751 19.5375 4.46251 18.4125 3.11251 18.4125ZM3.11251 21.675C2.70001 21.675 2.32501 21.3375 2.32501 20.8875C2.32501 20.4375 2.66251 20.1 3.11251 20.1C3.52501 20.1 3.90001 20.4375 3.90001 20.8875C3.90001 21.3 3.56251 21.675 3.11251 21.675Z" fill="#161A23"/>
</g>
<defs>
<clipPath id="clip0_501_47738">
<rect width="24" height="24" fill="white"/>
</clipPath>
</defs>
</svg>
