<svg width="24" height="24" viewBox="0 0 24 24" fill="none" xmlns="http://www.w3.org/2000/svg">
<g clip-path="url(#clip0_501_52079)">
<path d="M12 0.675049C5.73755 0.675049 0.675049 5.73755 0.675049 12C0.675049 18.2626 5.73755 23.3251 12 23.3251C18.2626 23.3251 23.3251 18.2626 23.3251 12C23.3251 5.73755 18.2626 0.675049 12 0.675049ZM12 21.6751C6.67505 21.6751 2.32505 17.3251 2.32505 12C2.32505 6.67505 6.67505 2.32505 12 2.32505C17.3251 2.32505 21.6751 6.67505 21.6751 12C21.6751 17.3251 17.3251 21.6751 12 21.6751Z" fill="#161A23"/>
<path d="M14.0625 6.26245H11.1375C10.6875 6.26245 10.3125 6.63745 10.3125 7.08745V13.125H8.21245C7.76245 13.125 7.38745 13.5 7.38745 13.95C7.38745 14.4 7.76245 14.775 8.21245 14.775H10.3125V16.8375C10.3125 17.2875 10.6875 17.6625 11.1375 17.6625C11.5875 17.6625 11.9625 17.2875 11.9625 16.8375V14.775H14.0625C14.5125 14.775 14.8875 14.4 14.8875 13.95C14.8875 13.5 14.5125 13.125 14.0625 13.125H12V11.325H14.0625C15.4875 11.325 16.6125 10.1625 16.6125 8.77495C16.6125 7.38745 15.4875 6.26245 14.0625 6.26245ZM14.0625 9.67495H12V7.94995H14.0625C14.55 7.94995 14.925 8.32495 14.925 8.81245C14.925 9.29995 14.55 9.67495 14.0625 9.67495Z" fill="#161A23"/>
</g>
<defs>
<clipPath id="clip0_501_52079">
<rect width="24" height="24" fill="white"/>
</clipPath>
</defs>
</svg>
