<svg width="24" height="24" viewBox="0 0 24 24" fill="none" xmlns="http://www.w3.org/2000/svg">
<path d="M12 0.675049C7.50005 0.675049 3.86255 4.31255 3.86255 8.77505C3.86255 11.25 4.95005 13.5375 6.90005 15.075C7.05005 15.1875 7.23755 15.2625 7.42505 15.2625C7.68755 15.2625 7.91255 15.15 8.10005 14.9625C8.40005 14.5875 8.32505 14.0625 7.98755 13.7625C6.45005 12.525 5.58755 10.725 5.58755 8.77505C5.58755 5.25005 8.47505 2.36255 12.0375 2.36255C15.6 2.36255 18.4875 5.25005 18.4875 8.77505C18.4875 9.22505 18.8626 9.60005 19.3126 9.60005C19.7626 9.60005 20.1376 9.22505 20.1376 8.77505C20.1376 4.27505 16.5001 0.675049 12 0.675049Z" fill="#161A23"/>
<path d="M18.3375 14.7751H14.7C14.25 14.7751 13.8749 15.1501 13.8749 15.6001C13.8749 16.0501 14.25 16.4251 14.7 16.4251H16.0124L12.5624 18.8251C12.4874 18.8626 12.4124 18.9001 12.3375 18.9001H7.91245C7.31245 18.9001 6.74995 19.1251 6.37495 19.5376L4.08745 21.9001C3.74995 22.2376 3.78745 22.7626 4.12495 23.1001C4.27495 23.2501 4.49995 23.3251 4.72495 23.3251C4.94995 23.3251 5.17495 23.2501 5.32495 23.0626L7.61245 20.7001C7.68745 20.6251 7.79995 20.5876 7.91245 20.5876H12.3375C12.75 20.5876 13.1624 20.4751 13.5374 20.2126L17.5124 17.4376V19.2376C17.5124 19.6876 17.8874 20.0626 18.3375 20.0626C18.7874 20.0626 19.1624 19.6876 19.1624 19.2376V15.6001C19.1999 15.1501 18.8249 14.7751 18.3375 14.7751Z" fill="#161A23"/>
<path d="M13.575 8.88755C14.7375 8.88755 15.7125 7.95005 15.7125 6.75005C15.7125 5.58755 14.775 4.61255 13.575 4.61255H11.3625C10.9125 4.61255 10.5375 4.98755 10.5375 5.43755V9.78755H9.14995C8.69995 9.78755 8.32495 10.1625 8.32495 10.6125C8.32495 11.0625 8.69995 11.4375 9.14995 11.4375H10.5375V12.7875C10.5375 13.2375 10.9125 13.6125 11.3625 13.6125C11.8125 13.6125 12.1875 13.2375 12.1875 12.7875V11.4375H13.575C14.025 11.4375 14.4 11.0625 14.4 10.6125C14.4 10.1625 14.025 9.78755 13.575 9.78755H12.1875V8.85005H13.575V8.88755ZM12.225 6.30005H13.575C13.8375 6.30005 14.025 6.48755 14.025 6.75005C14.025 7.01255 13.8375 7.20005 13.575 7.20005H12.225V6.30005Z" fill="#161A23"/>
</svg>
