<svg width="24" height="24" viewBox="0 0 24 24" fill="none" xmlns="http://www.w3.org/2000/svg">
<path d="M4.4251 10.125C4.8751 10.125 5.2501 9.75005 5.2501 9.30005C5.2501 5.47505 8.3626 2.36255 12.2251 2.36255C16.0876 2.36255 19.2001 5.47505 19.2001 9.30005C19.2001 11.4 18.2626 13.3875 16.6126 14.7C16.2376 15 16.2001 15.525 16.5001 15.9C16.6501 16.125 16.9126 16.2 17.1751 16.2C17.3626 16.2 17.5501 16.125 17.7001 16.0125C19.7626 14.3625 20.9251 11.925 20.9251 9.30005C20.9251 4.53755 17.0251 0.675049 12.2626 0.675049C7.5001 0.675049 3.6001 4.53755 3.6001 9.30005C3.6001 9.75005 3.9751 10.125 4.4251 10.125Z" fill="#161A23"/>
<path d="M18.5626 17.7377C18.1126 17.7377 17.7376 18.1127 17.7376 18.5627V20.7377L13.3501 17.5502C12.9751 17.2877 12.5626 17.1752 12.1126 17.1752H7.35011C7.20011 17.1752 7.08761 17.1377 6.97511 17.0252L4.53761 14.5127C4.20011 14.1752 3.67511 14.1752 3.33761 14.4752C3.00011 14.8127 3.00011 15.3752 3.30011 15.7127L5.73761 18.2252C6.15011 18.6752 6.71261 18.9002 7.35011 18.9002H12.1126C12.2251 18.9002 12.3001 18.9377 12.3751 18.9752L16.0876 21.6752H14.6251C14.1751 21.6752 13.8001 22.0502 13.8001 22.5002C13.8001 22.9502 14.1751 23.3252 14.6251 23.3252H18.5251C18.9751 23.3252 19.3501 22.9502 19.3501 22.5002V18.6002C19.3876 18.1127 19.0126 17.7377 18.5626 17.7377Z" fill="#161A23"/>
<path d="M13.9125 9.3376C15.15 9.3376 16.125 8.3251 16.125 7.1251C16.125 5.9251 15.1125 4.9126 13.9125 4.9126H11.55C11.1 4.9126 10.725 5.2876 10.725 5.7376V10.4626H9.18755C8.73755 10.4626 8.36255 10.8376 8.36255 11.2876C8.36255 11.7376 8.73755 12.1126 9.18755 12.1126H10.725V13.6126C10.725 14.0626 11.1 14.4376 11.55 14.4376C12 14.4376 12.4125 14.0626 12.4125 13.6126V12.1126H13.95C14.4 12.1126 14.775 11.7376 14.775 11.2876C14.775 10.8376 14.4 10.4626 13.95 10.4626H12.4125V9.3376H13.9125ZM12.4125 6.6001H13.9125C14.2125 6.6001 14.4375 6.8251 14.4375 7.1251C14.4375 7.4251 14.2125 7.6501 13.9125 7.6501H12.4125V6.6001Z" fill="#161A23"/>
</svg>
