<svg width="24" height="24" viewBox="0 0 24 24" fill="none" xmlns="http://www.w3.org/2000/svg">
<g clip-path="url(#clip0_501_52120)">
<path d="M15.8625 8.09995C16.3125 8.09995 16.6875 7.72495 16.6875 7.27495C16.6875 6.82495 16.3125 6.44995 15.8625 6.44995H8.62505C8.17505 6.44995 7.80005 6.82495 7.80005 7.27495C7.80005 7.72495 8.17505 8.09995 8.62505 8.09995H10.6875C11.4 8.13745 11.85 8.66245 12.0375 9.33745H8.62505C8.17505 9.33745 7.80005 9.71245 7.80005 10.1625C7.80005 10.6125 8.17505 10.9875 8.62505 10.9875H11.625C11.0625 11.5125 10.0875 11.8875 9.33755 11.8875C9.00005 11.8875 8.70005 12.075 8.58755 12.375C8.43755 12.675 8.47505 13.0125 8.70005 13.275L12.825 18.2625C12.975 18.45 13.2376 18.5625 13.4626 18.5625C13.6501 18.5625 13.8375 18.4875 13.9875 18.375C14.3625 18.075 14.4 17.55 14.1 17.175L10.9125 13.275C12.075 12.8625 13.2376 12.0375 13.6501 10.95H15.8625C16.3125 10.95 16.6875 10.575 16.6875 10.125C16.6875 9.67495 16.3125 9.29995 15.8625 9.29995H13.7625C13.6876 8.84995 13.5375 8.43745 13.35 8.06245H15.8625V8.09995Z" fill="#161A23"/>
<path d="M12 0.675049C5.73755 0.675049 0.675049 5.73755 0.675049 12C0.675049 18.2626 5.73755 23.3251 12 23.3251C18.2626 23.3251 23.3251 18.2626 23.3251 12C23.3251 5.73755 18.2626 0.675049 12 0.675049ZM12 21.6751C6.67505 21.6751 2.32505 17.3251 2.32505 12C2.32505 6.67505 6.67505 2.32505 12 2.32505C17.3251 2.32505 21.6751 6.67505 21.6751 12C21.6751 17.3251 17.3251 21.6751 12 21.6751Z" fill="#161A23"/>
</g>
<defs>
<clipPath id="clip0_501_52120">
<rect width="24" height="24" fill="white"/>
</clipPath>
</defs>
</svg>
