<svg width="24" height="24" viewBox="0 0 24 24" fill="none" xmlns="http://www.w3.org/2000/svg">
<path d="M21.1875 15.675H20.1375C20.1 15.4125 20.025 15.15 19.9125 14.8875H21.1125C21.5625 14.8875 21.9375 14.5125 21.9375 14.0625C21.9375 13.6125 21.5625 13.2375 21.1125 13.2375H15.1875C14.7375 13.2375 14.3625 13.6125 14.3625 14.0625C14.3625 14.5125 14.7375 14.8875 15.1875 14.8875H17.5125C18 14.8875 18.2625 15.2625 18.375 15.675H15.2625C14.8125 15.675 14.4375 16.05 14.4375 16.5C14.4375 16.95 14.8125 17.325 15.2625 17.325H17.55C17.2125 17.5125 16.8375 17.625 16.5 17.625C16.1625 17.625 15.8625 17.8125 15.7125 18.1125C15.5625 18.4125 15.6375 18.7875 15.8625 19.0125L18.825 22.35C18.975 22.5375 19.2375 22.65 19.4625 22.65C19.65 22.65 19.875 22.575 20.025 22.425C20.3625 22.125 20.4 21.5625 20.1 21.225L18.075 18.975C18.8625 18.6375 19.575 18.075 19.9125 17.3625H21.15C21.6 17.3625 21.975 16.9875 21.975 16.5375C21.975 16.0875 21.6375 15.675 21.1875 15.675Z" fill="#161A23"/>
<path d="M20.4 1.3501H3.59995C1.98745 1.3501 0.637451 2.5876 0.637451 4.0876V14.5876C0.637451 16.0876 1.94995 17.3251 3.59995 17.3251H11.9625C12.4125 17.3251 12.7875 16.9501 12.7875 16.5001C12.7875 16.0501 12.4125 15.6751 11.9625 15.6751H3.59995C2.92495 15.6751 2.32495 15.1876 2.32495 14.6251V9.9751H21.6375V12.6751C21.6375 13.1251 22.0125 13.5001 22.4625 13.5001C22.9125 13.5001 23.2875 13.1251 23.2875 12.6751V4.1251C23.325 2.5876 22.0125 1.3501 20.4 1.3501ZM3.59995 3.0376H20.4C21.075 3.0376 21.6749 3.5251 21.6749 4.0876V5.1376H2.32495V4.1251C2.32495 3.5251 2.92495 3.0376 3.59995 3.0376ZM2.32495 8.2876V6.8626H21.6375V8.2876H2.32495Z" fill="#161A23"/>
</svg>
