<svg width="24" height="24" viewBox="0 0 24 24" fill="none" xmlns="http://www.w3.org/2000/svg">
<path d="M19.6499 6.37505H14.6999C14.5499 4.87505 13.9874 3.41255 13.0124 2.32505H19.6499C20.0999 2.32505 20.4749 1.95005 20.4749 1.50005C20.4749 1.05005 20.0999 0.675049 19.6499 0.675049H4.3499C3.8999 0.675049 3.5249 1.05005 3.5249 1.50005C3.5249 1.95005 3.8999 2.32505 4.3499 2.32505H9.1124C11.3999 2.32505 12.7124 4.23755 12.9749 6.37505H4.3499C3.8999 6.37505 3.5249 6.75005 3.5249 7.20005C3.5249 7.65005 3.8999 8.02505 4.3499 8.02505H12.8999C12.1499 10.0875 8.8124 11.6625 6.5249 11.6625C6.1874 11.6625 5.8874 11.85 5.7749 12.15C5.6249 12.45 5.6999 12.7875 5.8874 13.05L14.2124 22.9875C14.3624 23.175 14.6249 23.2875 14.8499 23.2875C15.0374 23.2875 15.2249 23.2125 15.3749 23.1C15.7499 22.8 15.7874 22.275 15.4874 21.9L8.2124 13.2C10.9874 12.6375 14.0999 10.725 14.6624 8.06255H19.6499C20.0999 8.06255 20.4749 7.68755 20.4749 7.23755C20.4749 6.78755 20.0999 6.37505 19.6499 6.37505Z" fill="#161A23"/>
</svg>
