<svg width="24" height="24" viewBox="0 0 24 24" fill="none" xmlns="http://www.w3.org/2000/svg">
<path d="M14.25 6.3751C14.7 6.3751 15.075 6.0001 15.075 5.5501C15.075 5.1001 14.7 4.7251 14.25 4.7251H9.6375C9.1875 4.7251 8.8125 5.1001 8.8125 5.5501C8.8125 6.0001 9.1875 6.3751 9.6375 6.3751H10.425C10.6875 6.3751 10.9875 6.5626 11.25 6.8251H9.6375C9.1875 6.8251 8.8125 7.2001 8.8125 7.6501C8.8125 8.1001 9.1875 8.4751 9.6375 8.4751H10.95C10.6875 8.5876 10.3875 8.6626 10.125 8.6626C9.7875 8.6626 9.4875 8.8501 9.3375 9.1501C9.1875 9.4501 9.2625 9.8251 9.4875 10.0501L12.075 12.9376C12.225 13.1251 12.4875 13.2001 12.7125 13.2001C12.9 13.2001 13.125 13.1251 13.275 12.9751C13.6125 12.6751 13.65 12.1126 13.35 11.7751L11.6625 9.9001C12.375 9.5626 12.975 9.0376 13.275 8.4001H14.25C14.7 8.4001 15.075 8.0251 15.075 7.5751C15.075 7.1251 14.7 6.7501 14.25 6.7501H13.2375C13.1625 6.6001 13.0875 6.4501 13.0125 6.3001H14.25V6.3751Z" fill="#161A23"/>
<path d="M6.90005 15.075C7.05005 15.1875 7.23755 15.2625 7.42505 15.2625C7.68755 15.2625 7.91255 15.15 8.10005 14.9625C8.40005 14.5875 8.32505 14.0625 7.98755 13.7625C6.45005 12.525 5.58755 10.725 5.58755 8.77505C5.58755 5.25005 8.47505 2.36255 12.0375 2.36255C15.6 2.36255 18.4875 5.25005 18.4875 8.77505C18.4875 9.22505 18.8626 9.60005 19.3126 9.60005C19.7626 9.60005 20.1376 9.22505 20.1376 8.77505C20.1376 4.27505 16.5001 0.675049 12 0.675049C7.50005 0.675049 3.86255 4.31255 3.86255 8.77505C3.86255 11.2125 4.95005 13.5 6.90005 15.075Z" fill="#161A23"/>
<path d="M19.275 14.7751H15.6375C15.1875 14.7751 14.8124 15.1501 14.8124 15.6001C14.8124 16.0501 15.1875 16.4251 15.6375 16.4251H16.8749L13.4999 18.8251C13.4249 18.8626 13.3499 18.9001 13.275 18.9001H8.84995C8.24995 18.9001 7.68745 19.1251 7.31245 19.5376L5.02495 21.9001C4.68745 22.2376 4.72495 22.7626 5.06245 23.1001C5.21245 23.2501 5.43745 23.3251 5.66245 23.3251C5.88745 23.3251 6.11245 23.2501 6.26245 23.0626L8.54995 20.7001C8.62495 20.6251 8.73745 20.5876 8.84995 20.5876H13.275C13.6875 20.5876 14.0999 20.4751 14.4749 20.2126L18.4499 17.4001V19.2376C18.4499 19.6876 18.8249 20.0626 19.275 20.0626C19.7249 20.0626 20.0999 19.6876 20.0999 19.2376V15.6001C20.1374 15.1501 19.7624 14.7751 19.275 14.7751Z" fill="#161A23"/>
</svg>
