<svg width="24" height="24" viewBox="0 0 24 24" fill="none" xmlns="http://www.w3.org/2000/svg">
<path d="M14.25 6.3751C14.7 6.3751 15.075 6.0001 15.075 5.5501C15.075 5.1001 14.7 4.7251 14.25 4.7251H9.6375C9.1875 4.7251 8.8125 5.1001 8.8125 5.5501C8.8125 6.0001 9.1875 6.3751 9.6375 6.3751H10.425C10.6875 6.3751 10.9875 6.5626 11.25 6.8251H9.6375C9.1875 6.8251 8.8125 7.2001 8.8125 7.6501C8.8125 8.1001 9.1875 8.4751 9.6375 8.4751H10.95C10.6875 8.5876 10.3875 8.6626 10.125 8.6626C9.7875 8.6626 9.4875 8.8501 9.3375 9.1501C9.1875 9.4501 9.2625 9.8251 9.4875 10.0501L12.075 12.9376C12.225 13.1251 12.4875 13.2001 12.7125 13.2001C12.9 13.2001 13.125 13.1251 13.275 12.9751C13.6125 12.6751 13.65 12.1126 13.35 11.7751L11.6625 9.9001C12.375 9.5626 12.975 9.0376 13.275 8.4001H14.25C14.7 8.4001 15.075 8.0251 15.075 7.5751C15.075 7.1251 14.7 6.7501 14.25 6.7501H13.2375C13.1625 6.6001 13.0875 6.4501 13.0125 6.3001H14.25V6.3751Z" fill="#161A23"/>
<path d="M5.55005 8.77505C5.55005 5.25005 8.43755 2.36255 12 2.36255C15.5625 2.36255 18.45 5.25005 18.45 8.77505C18.45 10.725 17.5875 12.525 16.05 13.7625C15.675 14.0625 15.6375 14.5875 15.9375 14.9625C16.0875 15.1875 16.35 15.2625 16.6125 15.2625C16.8 15.2625 16.9875 15.1875 17.1375 15.075C19.05 13.5375 20.175 11.2125 20.175 8.77505C20.1375 4.27505 16.5 0.675049 12 0.675049C7.50005 0.675049 3.86255 4.31255 3.86255 8.77505C3.86255 9.22505 4.23755 9.60005 4.68755 9.60005C5.13755 9.60005 5.55005 9.22505 5.55005 8.77505Z" fill="#161A23"/>
<path d="M19.275 18C18.825 18 18.45 18.375 18.45 18.825V20.625L14.475 17.85C14.1375 17.625 13.725 17.475 13.3125 17.475H8.84996C8.73746 17.475 8.62496 17.4375 8.54996 17.3625L6.26246 15C5.92496 14.6625 5.39996 14.6625 5.06246 14.9625C4.72496 15.3 4.72496 15.825 5.02496 16.1625L7.27496 18.4875C7.64996 18.9 8.21246 19.1625 8.81246 19.1625H13.2375C13.3125 19.1625 13.3875 19.2 13.4625 19.2375L16.9125 21.6375H15.6C15.15 21.6375 14.775 22.0125 14.775 22.4625C14.775 22.9125 15.15 23.2875 15.6 23.2875H19.2375C19.6875 23.2875 20.0625 22.9125 20.0625 22.4625V18.825C20.1375 18.375 19.7625 18 19.275 18Z" fill="#161A23"/>
</svg>
