<svg width="24" height="24" viewBox="0 0 24 24" fill="none" xmlns="http://www.w3.org/2000/svg">
<g clip-path="url(#clip0_914_45335)">
<path d="M12 0.375C5.58015 0.375 0.375 5.58015 0.375 12C0.375 18.4198 5.58015 23.625 12 23.625C18.4198 23.625 23.625 18.4198 23.625 12C23.625 5.58015 18.4198 0.375 12 0.375ZM20.5456 6.47933L20.3819 6.23494C20.4364 6.3156 20.491 6.39626 20.5456 6.47933ZM19.9145 5.61101L19.8148 5.48764C19.8504 5.52795 19.8837 5.57066 19.9145 5.61101ZM18.5076 4.18043L18.3843 4.08075C18.4293 4.11634 18.4673 4.14956 18.5076 4.18043ZM17.7674 3.61814L17.5231 3.45444C17.6037 3.50901 17.6844 3.56357 17.7674 3.61814ZM13.1317 1.89099L12.8873 1.86727C12.9679 1.87439 13.0486 1.88151 13.1317 1.89099ZM11.1103 1.8649L10.866 1.88862C10.9466 1.88151 11.0273 1.87439 11.1103 1.8649ZM6.47933 3.45444L6.23494 3.61814C6.3156 3.56357 6.39626 3.50901 6.47933 3.45444ZM5.61101 4.08551L5.49236 4.18043C5.53271 4.14956 5.57066 4.11634 5.61101 4.08551ZM4.18043 5.49236L4.08075 5.61574C4.11634 5.57543 4.14956 5.53508 4.18043 5.49236ZM3.61814 6.23257L3.45444 6.47692C3.50901 6.39626 3.56357 6.3156 3.61814 6.23257ZM1.89099 10.8683L1.86727 11.1127C1.87439 11.0321 1.88151 10.9514 1.89099 10.8683ZM1.8649 12.8897L1.88862 13.134C1.88151 13.0534 1.87439 12.9727 1.8649 12.8897ZM3.45444 17.5183L3.61814 17.7627C3.56357 17.6868 3.50901 17.6037 3.45444 17.5183ZM3.64424 17.803L5.45678 16.5907L5.2575 16.287L3.44495 17.4993C2.62171 16.223 2.08316 14.7568 1.90048 13.1768L2.98469 13.0676L2.94911 12.7046L1.8649 12.8137C1.84592 12.605 1.8388 12.3915 1.83406 12.1779H4.01434V11.8149H1.83168C1.83643 11.6014 1.84592 11.3927 1.86252 11.1791L2.94674 11.2835L2.98232 10.9205L1.89811 10.8162C2.08079 9.2361 2.62408 7.76992 3.44732 6.49354L5.25986 7.70587L5.45918 7.4022L3.64186 6.19935C3.76522 6.02618 3.88624 5.85536 4.0191 5.69168L4.85891 6.38205L5.09141 6.09971L4.2516 5.40934C4.38683 5.24565 4.5339 5.09141 4.67861 4.93721L6.21832 6.47692L6.47692 6.21832L4.93721 4.67861C5.09141 4.5339 5.24565 4.38683 5.40457 4.2516L6.09499 5.09618L6.37729 4.86368L5.68691 4.02382C5.85536 3.89096 6.02381 3.76522 6.19462 3.64186L7.40693 5.45441L7.7106 5.25514L6.4983 3.44257C7.77469 2.61934 9.24082 2.08079 10.8209 1.89811L10.93 2.98232L11.293 2.94674L11.1839 1.86252C11.3926 1.84355 11.6062 1.83643 11.8197 1.83168V4.01197H12.1827V1.82931C12.3962 1.83406 12.605 1.84355 12.8185 1.86015L12.7141 2.94436L13.0771 2.97995L13.1815 1.89574C14.7615 2.07842 16.2277 2.62171 17.5041 3.44495L16.2941 5.2575L16.5978 5.45678L17.8101 3.64424C17.9833 3.76759 18.1541 3.8886 18.3179 4.02146L17.6274 4.86131L17.9098 5.09381L18.6001 4.25396C18.7638 4.38919 18.9181 4.53626 19.0723 4.68101L18.491 5.24801L10.5433 10.5481L5.24325 18.4958L4.67625 19.0628C4.53154 18.9086 4.38683 18.7543 4.2492 18.5954L5.08905 17.905L4.85891 17.6227L4.0191 18.3131C3.8886 18.1494 3.76523 17.9762 3.64424 17.803ZM4.18043 18.5076C4.14956 18.4673 4.11634 18.4317 4.08551 18.389L4.18043 18.5076ZM5.49236 19.8196L5.61101 19.9145C5.57066 19.8837 5.53271 19.8504 5.49236 19.8196ZM6.23257 20.3795L6.47692 20.5432C6.39626 20.491 6.3156 20.4364 6.23257 20.3795ZM10.8683 22.109L11.1127 22.1327C11.0321 22.1256 10.9514 22.1185 10.8683 22.109ZM12.8897 22.1351L13.1317 22.1114C13.0486 22.1185 12.9727 22.1256 12.8897 22.1351ZM17.5231 20.5456L17.7674 20.3819C17.6844 20.4364 17.6037 20.491 17.5231 20.5456ZM18.389 19.9145L18.5124 19.8148C18.4697 19.8504 18.4293 19.8837 18.389 19.9145ZM19.1838 19.2027L19.2027 19.1838C19.198 19.1885 19.1885 19.198 19.1838 19.2027ZM19.8196 18.5076L19.9193 18.3843C19.8837 18.4246 19.8504 18.4673 19.8196 18.5076ZM19.9785 18.3131L19.1387 17.6227L18.9062 17.905L19.746 18.5954C19.6108 18.7591 19.4637 18.9133 19.319 19.0675L17.7793 17.5278L17.5207 17.7864L19.0604 19.3261C18.9062 19.4708 18.752 19.6179 18.593 19.7532L17.9026 18.9086L17.6203 19.1411L18.3107 19.9809C18.1423 20.1114 17.9738 20.2395 17.803 20.3629L16.5907 18.548L16.287 18.7473L17.4993 20.5598C16.223 21.383 14.7568 21.9216 13.1768 22.1043L13.0676 21.0201L12.7046 21.0556L12.8137 22.1399C12.605 22.1588 12.3915 22.1659 12.1779 22.1707V19.9904H11.8149V22.1707C11.6014 22.1659 11.3927 22.1565 11.1791 22.1399L11.2835 21.0556L10.9205 21.0201L10.8162 22.1043C9.2361 21.9216 7.76992 21.3783 6.49354 20.5551L7.70587 18.7425L7.4022 18.5432L6.19935 20.3558C6.02618 20.2324 5.85536 20.1114 5.69168 19.9785L6.38205 19.1387L6.09971 18.9062L5.40934 19.746C5.24565 19.6108 5.09141 19.4637 4.93721 19.319L5.50898 18.752L13.4567 13.4519L18.7568 5.50425L19.3237 4.93721C19.4685 5.09141 19.6156 5.24565 19.7508 5.40457L18.9109 6.09499L19.1434 6.37729L19.9833 5.68691C20.1138 5.85536 20.2419 6.02381 20.3652 6.19462L18.548 7.40693L18.7473 7.7106L20.5598 6.4983C21.383 7.77469 21.9216 9.24082 22.1043 10.8209L21.0201 10.93L21.0556 11.293L22.1399 11.1839C22.1588 11.3926 22.1659 11.6062 22.1707 11.8197H19.9904V12.1827H22.1707C22.1659 12.3962 22.1565 12.605 22.1399 12.8185L21.0556 12.7141L21.0201 13.0771L22.1043 13.1815C21.9216 14.7615 21.3783 16.2277 20.5551 17.5041L18.7425 16.2941L18.5432 16.5978L20.3558 17.8101C20.2371 17.9738 20.109 18.1423 19.9785 18.3131ZM22.1351 12.8849C22.1256 12.9656 22.1209 13.0486 22.1114 13.1293L22.1351 12.8849ZM20.5456 17.5231C20.491 17.6037 20.4364 17.6868 20.3819 17.7674L20.5456 17.5231Z" fill="#15171A"/>
<path d="M10.1938 1.98926L10.6184 4.12684L10.2625 4.19801L9.83789 2.06043L10.1938 1.98926Z" fill="#15171A"/>
<path d="M13.8075 22.012L13.3828 19.8744L13.7387 19.8032L14.1633 21.9408L13.8075 22.012Z" fill="#15171A"/>
<path d="M9.22131 2.21118L9.53683 3.25506L9.18808 3.35945L8.87256 2.31557L9.22131 2.21118Z" fill="#15171A"/>
<path d="M14.7794 21.7835L14.4639 20.7397L14.8126 20.6353L15.1281 21.6791L14.7794 21.7835Z" fill="#15171A"/>
<path d="M8.27688 2.53418L9.11201 4.54838L8.77747 4.68836L7.94238 2.67416L8.27688 2.53418Z" fill="#15171A"/>
<path d="M15.7267 21.466L14.8916 19.4518L15.2261 19.3118L16.0612 21.326L15.7267 21.466Z" fill="#15171A"/>
<path d="M7.0415 3.11588L7.36179 2.94507L7.87663 3.90592L7.55634 4.07674L7.0415 3.11588Z" fill="#15171A"/>
<path d="M16.9513 20.8842L16.631 21.055L16.1162 20.0942L16.4365 19.9233L16.9513 20.8842Z" fill="#15171A"/>
<path d="M3.11222 7.0459L4.07306 7.5607L3.90225 7.88099L2.94141 7.36615L3.11222 7.0459Z" fill="#15171A"/>
<path d="M20.8827 16.9535L19.9219 16.4387L20.0927 16.1184L21.0535 16.6332L20.8827 16.9535Z" fill="#15171A"/>
<path d="M4.54838 9.10835L2.53418 8.27326L2.67416 7.93872L4.68836 8.77385L4.54838 9.10835Z" fill="#15171A"/>
<path d="M19.4554 14.8901L21.4696 15.7253L21.3296 16.0598L19.3154 15.227L19.4554 14.8901Z" fill="#15171A"/>
<path d="M2.31777 8.87549L3.36164 9.19101L3.25726 9.53976L2.21338 9.22424L2.31777 8.87549Z" fill="#15171A"/>
<path d="M21.6806 15.1237L20.6367 14.8082L20.7412 14.4595L21.785 14.775L21.6806 15.1237Z" fill="#15171A"/>
<path d="M2.0575 9.83862L4.19509 10.2633L4.12391 10.6192L1.98633 10.1945L2.0575 9.83862Z" fill="#15171A"/>
<path d="M21.9379 14.1633L19.8003 13.7387L19.8715 13.3828L22.009 13.8075L21.9379 14.1633Z" fill="#15171A"/>
<path d="M1.98633 13.8053L4.12391 13.3806L4.19509 13.7365L2.0575 14.1612L1.98633 13.8053Z" fill="#15171A"/>
<path d="M22.009 10.1945L19.8715 10.6192L19.8003 10.2633L21.9379 9.83862L22.009 10.1945Z" fill="#15171A"/>
<path d="M2.21338 14.7801L3.25726 14.4646L3.36164 14.8133L2.31777 15.1289L2.21338 14.7801Z" fill="#15171A"/>
<path d="M21.7864 9.22424L20.7425 9.53976L20.6382 9.19101L21.682 8.87549L21.7864 9.22424Z" fill="#15171A"/>
<path d="M2.67269 16.062L2.53271 15.7274L4.54691 14.8923L4.6869 15.2268L2.67269 16.062Z" fill="#15171A"/>
<path d="M21.3267 7.94092L21.4667 8.27542L19.4525 9.11054L19.3125 8.77601L21.3267 7.94092Z" fill="#15171A"/>
<path d="M3.11808 16.9557L2.94727 16.6354L3.9081 16.1206L4.07891 16.4409L3.11808 16.9557Z" fill="#15171A"/>
<path d="M20.8871 7.0459L21.0579 7.36615L20.0971 7.88099L19.9263 7.5607L20.8871 7.0459Z" fill="#15171A"/>
<path d="M7.36468 21.055L7.04443 20.8842L7.55923 19.9233L7.87952 20.0942L7.36468 21.055Z" fill="#15171A"/>
<path d="M16.6339 2.94287L16.9542 3.11369L16.4394 4.07452L16.1191 3.90371L16.6339 2.94287Z" fill="#15171A"/>
<path d="M7.94092 21.326L8.77601 19.3118L9.11054 19.4518L8.27782 21.466L7.94092 21.326Z" fill="#15171A"/>
<path d="M16.0612 2.67067L15.2261 4.68251L14.8916 4.54252L15.7267 2.52832L16.0612 2.67067Z" fill="#15171A"/>
<path d="M9.22131 21.7864L8.87256 21.682L9.18808 20.6382L9.53683 20.7425L9.22131 21.7864Z" fill="#15171A"/>
<path d="M14.7779 2.21118L15.1267 2.31557L14.8112 3.35945L14.4624 3.25506L14.7779 2.21118Z" fill="#15171A"/>
<path d="M10.1938 22.0098L9.83789 21.9386L10.2625 19.801L10.6184 19.8722L10.1938 22.0098Z" fill="#15171A"/>
<path d="M13.8045 1.9856L14.1604 2.05677L13.7358 4.19434L13.3799 4.12316L13.8045 1.9856Z" fill="#15171A"/>
</g>
<defs>
<clipPath id="clip0_914_45335">
<rect width="24" height="24" fill="white"/>
</clipPath>
</defs>
</svg>
