<svg width="24" height="24" viewBox="0 0 24 24" fill="none" xmlns="http://www.w3.org/2000/svg">
<path d="M21 1.4624H3.00005C1.72505 1.4624 0.675049 2.5124 0.675049 3.7874V16.5374C0.675049 17.8124 1.68755 18.8249 2.92505 18.8624V21.6374C2.92505 22.0874 3.30005 22.4624 3.75005 22.4624C4.20005 22.4624 4.57505 22.0874 4.57505 21.6374V18.8624H19.3876V21.6374C19.3876 22.0874 19.7626 22.4624 20.2125 22.4624C20.6625 22.4624 21.0375 22.0874 21.0375 21.6374V18.8624C22.275 18.8249 23.2875 17.7749 23.2875 16.5374V3.7874C23.325 2.5124 22.275 1.4624 21 1.4624ZM21.675 16.5749C21.675 16.9499 21.375 17.2499 21 17.2499H3.00005C2.62505 17.2499 2.32505 16.9499 2.32505 16.5749V3.8249C2.32505 3.4499 2.62505 3.1499 3.00005 3.1499H21C21.375 3.1499 21.675 3.4499 21.675 3.8249V16.5749Z" fill="#161A23"/>
<path d="M5.7 6.75C5.25 6.75 4.875 7.125 4.875 7.575V12.9375C4.875 13.3875 5.25 13.7625 5.7 13.7625C6.15 13.7625 6.525 13.3875 6.525 12.9375V7.6125C6.5625 7.1625 6.15 6.75 5.7 6.75Z" fill="#161A23"/>
<path d="M15.3375 4.875C12.4125 4.875 10.0125 7.275 10.0125 10.2C10.0125 13.125 12.4125 15.525 15.3375 15.525C18.2625 15.525 20.6625 13.125 20.6625 10.2C20.6625 7.2375 18.3 4.875 15.3375 4.875ZM15.3375 13.8375C13.3125 13.8375 11.7 12.1875 11.7 10.2C11.7 8.175 13.35 6.5625 15.3375 6.5625C17.3625 6.5625 18.975 8.2125 18.975 10.2C18.975 12.1875 17.3625 13.8375 15.3375 13.8375Z" fill="#161A23"/>
<path d="M15.3376 7.8374C14.0251 7.8374 12.9751 8.8874 12.9751 10.1999C12.9751 11.5124 14.0251 12.5624 15.3376 12.5624C16.6501 12.5624 17.7001 11.5124 17.7001 10.1999C17.7001 8.8874 16.6501 7.8374 15.3376 7.8374ZM15.3376 10.8749C14.9626 10.8749 14.6626 10.5749 14.6626 10.1999C14.6626 9.8249 14.9626 9.5249 15.3376 9.5249C15.7126 9.5249 16.0126 9.8249 16.0126 10.1999C16.0126 10.5749 15.7126 10.8749 15.3376 10.8749Z" fill="#161A23"/>
</svg>
