<svg width="24" height="24" viewBox="0 0 24 24" fill="none" xmlns="http://www.w3.org/2000/svg">
<g clip-path="url(#clip0_501_52130)">
<path d="M21.0001 0.675049H3.00005C1.72505 0.675049 0.675049 1.72505 0.675049 3.00005V21.0001C0.675049 22.2751 1.72505 23.3251 3.00005 23.3251H21.0001C22.2751 23.3251 23.3251 22.2751 23.3251 21.0001V3.00005C23.3251 1.72505 22.2751 0.675049 21.0001 0.675049ZM2.32505 9.07505H11.1376V14.8876H2.32505V9.07505ZM12.8251 9.07505H21.6376V14.8876H12.8251V9.07505ZM21.6751 3.00005V7.38755H12.8251V2.32505H21.0001C21.3751 2.32505 21.6751 2.62505 21.6751 3.00005ZM3.00005 2.32505H11.175V7.38755H2.32505V3.00005C2.32505 2.62505 2.62505 2.32505 3.00005 2.32505ZM2.32505 21.0001V16.6125H11.1376V21.6751H3.00005C2.62505 21.6751 2.32505 21.3751 2.32505 21.0001ZM21.0001 21.6751H12.8251V16.6125H21.6376V21.0001C21.6751 21.3751 21.3751 21.6751 21.0001 21.6751Z" fill="#161A23"/>
<path d="M4.53765 5.2125H6.63765C7.08765 5.2125 7.46265 4.8375 7.46265 4.3875C7.46265 3.9375 7.08765 3.5625 6.63765 3.5625H4.53765C4.08765 3.5625 3.71265 3.9375 3.71265 4.3875C3.71265 4.8375 4.05015 5.2125 4.53765 5.2125Z" fill="#161A23"/>
<path d="M14.625 5.2125H16.725C17.175 5.2125 17.55 4.8375 17.55 4.3875C17.55 3.9375 17.175 3.5625 16.725 3.5625H14.625C14.175 3.5625 13.8 3.9375 13.8 4.3875C13.8 4.8375 14.175 5.2125 14.625 5.2125Z" fill="#161A23"/>
<path d="M6.63765 10.1626H4.53765C4.08765 10.1626 3.71265 10.5376 3.71265 10.9876C3.71265 11.4376 4.08765 11.8126 4.53765 11.8126H6.63765C7.08765 11.8126 7.46265 11.4376 7.46265 10.9876C7.46265 10.5376 7.08765 10.1626 6.63765 10.1626Z" fill="#161A23"/>
<path d="M16.725 10.1626H14.625C14.175 10.1626 13.8 10.5376 13.8 10.9876C13.8 11.4376 14.175 11.8126 14.625 11.8126H16.725C17.175 11.8126 17.55 11.4376 17.55 10.9876C17.55 10.5376 17.2125 10.1626 16.725 10.1626Z" fill="#161A23"/>
<path d="M6.63765 17.6626H4.53765C4.08765 17.6626 3.71265 18.0376 3.71265 18.4876C3.71265 18.9376 4.08765 19.3126 4.53765 19.3126H6.63765C7.08765 19.3126 7.46265 18.9376 7.46265 18.4876C7.46265 18.0376 7.08765 17.6626 6.63765 17.6626Z" fill="#161A23"/>
<path d="M16.725 17.6626H14.625C14.175 17.6626 13.8 18.0376 13.8 18.4876C13.8 18.9376 14.175 19.3126 14.625 19.3126H16.725C17.175 19.3126 17.55 18.9376 17.55 18.4876C17.55 18.0376 17.2125 17.6626 16.725 17.6626Z" fill="#161A23"/>
<path d="M19.95 6.45005H20.175C20.625 6.45005 21 6.07505 21 5.62505C21 5.17505 20.625 4.80005 20.175 4.80005H19.95C19.5 4.80005 19.125 5.17505 19.125 5.62505C19.125 6.07505 19.5 6.45005 19.95 6.45005Z" fill="#161A23"/>
<path d="M20.175 11.925H19.95C19.5 11.925 19.125 12.3 19.125 12.75C19.125 13.2 19.5 13.575 19.95 13.575H20.175C20.625 13.575 21 13.2 21 12.75C21 12.3 20.6625 11.925 20.175 11.925Z" fill="#161A23"/>
<path d="M20.175 18.8625H19.95C19.5 18.8625 19.125 19.2375 19.125 19.6875C19.125 20.1375 19.5 20.5125 19.95 20.5125H20.175C20.625 20.5125 21 20.1375 21 19.6875C21 19.2375 20.6625 18.8625 20.175 18.8625Z" fill="#161A23"/>
<path d="M9.37505 6.45005H9.60005C10.05 6.45005 10.425 6.07505 10.425 5.62505C10.425 5.17505 10.05 4.80005 9.60005 4.80005H9.37505C8.92505 4.80005 8.55005 5.17505 8.55005 5.62505C8.55005 6.07505 8.92505 6.45005 9.37505 6.45005Z" fill="#161A23"/>
<path d="M9.60005 11.925H9.37505C8.92505 11.925 8.55005 12.3 8.55005 12.75C8.55005 13.2 8.92505 13.575 9.37505 13.575H9.60005C10.05 13.575 10.425 13.2 10.425 12.75C10.425 12.3 10.05 11.925 9.60005 11.925Z" fill="#161A23"/>
<path d="M9.60005 18.8625H9.37505C8.92505 18.8625 8.55005 19.2375 8.55005 19.6875C8.55005 20.1375 8.92505 20.5125 9.37505 20.5125H9.60005C10.05 20.5125 10.425 20.1375 10.425 19.6875C10.425 19.2375 10.05 18.8625 9.60005 18.8625Z" fill="#161A23"/>
</g>
<defs>
<clipPath id="clip0_501_52130">
<rect width="24" height="24" fill="white"/>
</clipPath>
</defs>
</svg>
