<svg width="24" height="24" viewBox="0 0 24 24" fill="none" xmlns="http://www.w3.org/2000/svg">
<path d="M21.0001 3.52502H3.00005C1.72505 3.52502 0.675049 4.57502 0.675049 5.85002V14.8125C0.675049 16.0875 1.72505 17.1375 3.00005 17.1375H4.35005V19.65C4.35005 20.1 4.72505 20.475 5.17505 20.475C5.62505 20.475 6.00005 20.1 6.00005 19.65V17.1375H18.6376V19.65C18.6376 20.1 19.0126 20.475 19.4626 20.475C19.9126 20.475 20.2875 20.1 20.2875 19.65V17.1375H21.0001C22.2751 17.1375 23.3251 16.0875 23.3251 14.8125V5.85002C23.3251 4.57502 22.2751 3.52502 21.0001 3.52502ZM21.6751 14.8125C21.6751 15.1875 21.3751 15.4875 21.0001 15.4875H3.00005C2.62505 15.4875 2.32505 15.1875 2.32505 14.8125V5.85002C2.32505 5.47502 2.62505 5.17502 3.00005 5.17502H21.0001C21.3751 5.17502 21.6751 5.47502 21.6751 5.85002V14.8125Z" fill="#161A23"/>
<path d="M8.99995 6.375H4.27495C3.82495 6.375 3.44995 6.75 3.44995 7.2V9.9C3.44995 10.35 3.82495 10.725 4.27495 10.725H8.99995C9.44995 10.725 9.82495 10.35 9.82495 9.9V7.2C9.86245 6.75 9.48745 6.375 8.99995 6.375ZM8.17495 9.075H5.13745V8.0625H8.17495V9.075Z" fill="#161A23"/>
<path d="M19.4625 5.92505C19.0125 5.92505 18.6375 6.30005 18.6375 6.75005V12.9C18.6375 13.35 19.0125 13.725 19.4625 13.725C19.9125 13.725 20.2875 13.35 20.2875 12.9V6.75005C20.325 6.30005 19.95 5.92505 19.4625 5.92505Z" fill="#161A23"/>
<path d="M12.4125 6.375H12.1875C11.7375 6.375 11.3625 6.75 11.3625 7.2C11.3625 7.65 11.7375 8.025 12.1875 8.025H12.4125C12.8625 8.025 13.2375 7.65 13.2375 7.2C13.2375 6.75 12.9 6.375 12.4125 6.375Z" fill="#161A23"/>
<path d="M15.75 6.375H15.525C15.075 6.375 14.7 6.75 14.7 7.2C14.7 7.65 15.075 8.025 15.525 8.025H15.75C16.2 8.025 16.575 7.65 16.575 7.2C16.575 6.75 16.2375 6.375 15.75 6.375Z" fill="#161A23"/>
<path d="M12.4125 9.48755H12.1875C11.7375 9.48755 11.3625 9.86255 11.3625 10.3125C11.3625 10.7625 11.7375 11.1375 12.1875 11.1375H12.4125C12.8625 11.1375 13.2375 10.7625 13.2375 10.3125C13.2375 9.86255 12.9 9.48755 12.4125 9.48755Z" fill="#161A23"/>
<path d="M15.75 9.48755H15.525C15.075 9.48755 14.7 9.86255 14.7 10.3125C14.7 10.7625 15.075 11.1375 15.525 11.1375H15.75C16.2 11.1375 16.575 10.7625 16.575 10.3125C16.575 9.86255 16.2375 9.48755 15.75 9.48755Z" fill="#161A23"/>
<path d="M12.4125 12.5625H12.1875C11.7375 12.5625 11.3625 12.9375 11.3625 13.3875C11.3625 13.8375 11.7375 14.2125 12.1875 14.2125H12.4125C12.8625 14.2125 13.2375 13.8375 13.2375 13.3875C13.2375 12.9375 12.9 12.5625 12.4125 12.5625Z" fill="#161A23"/>
<path d="M15.75 12.5625H15.525C15.075 12.5625 14.7 12.9375 14.7 13.3875C14.7 13.8375 15.075 14.2125 15.525 14.2125H15.75C16.2 14.2125 16.575 13.8375 16.575 13.3875C16.575 12.9375 16.2375 12.5625 15.75 12.5625Z" fill="#161A23"/>
</svg>
