<svg width="24" height="24" viewBox="0 0 24 24" fill="none" xmlns="http://www.w3.org/2000/svg">
<g clip-path="url(#clip0_501_52115)">
<path d="M20.85 0.675049H3.14995C1.87495 0.675049 0.824951 1.72505 0.824951 3.00005V18.225C0.824951 19.5 1.87495 20.5501 3.14995 20.5501H3.78745V22.5001C3.78745 22.9501 4.16245 23.3251 4.61245 23.3251C5.06245 23.3251 5.43745 22.9501 5.43745 22.5001V20.5876H18.45V22.5001C18.45 22.9501 18.825 23.3251 19.275 23.3251C19.725 23.3251 20.1 22.9501 20.1 22.5001V20.5876H20.7374C22.0125 20.5876 23.0625 19.5376 23.0625 18.2626V3.00005C23.175 1.72505 22.125 0.675049 20.85 0.675049ZM21.4874 18.225C21.4874 18.6 21.1875 18.9001 20.8125 18.9001H3.14995C2.77495 18.9001 2.47495 18.6 2.47495 18.225V3.00005C2.47495 2.62505 2.77495 2.32505 3.14995 2.32505H20.85C21.225 2.32505 21.525 2.62505 21.525 3.00005V18.225H21.4874Z" fill="#161A23"/>
<path d="M16.05 14.025C16.6125 13.2 16.95 12.225 16.95 11.175C16.95 8.7375 15.15 6.675 12.825 6.2625V4.2C12.825 3.75 12.45 3.375 12 3.375C11.55 3.375 11.175 3.75 11.175 4.2V6.2625C8.85 6.675 7.05 8.7 7.05 11.175C7.05 12.225 7.3875 13.2375 7.95 14.025L6.4875 15.4875C6.15 15.825 6.15 16.35 6.4875 16.6875C6.6375 16.8375 6.8625 16.95 7.0875 16.95C7.3125 16.95 7.5375 16.875 7.6875 16.6875L9.15 15.225C9.975 15.7875 10.95 16.125 12 16.125C13.05 16.125 14.0625 15.7875 14.85 15.225L16.3125 16.6875C16.4625 16.8375 16.6875 16.95 16.9125 16.95C17.1375 16.95 17.3625 16.875 17.5125 16.6875C17.85 16.35 17.85 15.825 17.5125 15.4875L16.05 14.025ZM8.7 11.175C8.7 9.375 10.1625 7.875 12 7.875C13.8 7.875 15.3 9.3375 15.3 11.175C15.3 12.975 13.8375 14.475 12 14.475C10.2 14.4375 8.7 12.975 8.7 11.175Z" fill="#161A23"/>
<path d="M8.32505 4.53765C8.32505 4.08765 7.95005 3.71265 7.50005 3.71265H4.68755C4.23755 3.71265 3.86255 4.08765 3.86255 4.53765C3.86255 4.98765 4.23755 5.36265 4.68755 5.36265H7.50005C7.95005 5.40015 8.32505 5.02515 8.32505 4.53765Z" fill="#161A23"/>
</g>
<defs>
<clipPath id="clip0_501_52115">
<rect width="24" height="24" fill="white"/>
</clipPath>
</defs>
</svg>
