<svg width="24" height="24" viewBox="0 0 24 24" fill="none" xmlns="http://www.w3.org/2000/svg">
<path d="M17.0625 3.52495H16.5V3.14995C16.5 2.28745 15.825 1.61245 15 1.61245H12.8625V1.49995C12.8625 1.04995 12.4875 0.637451 12 0.637451C11.55 0.637451 11.1375 1.01245 11.1375 1.49995V1.61245H9.00001C8.17501 1.61245 7.50001 2.28745 7.50001 3.14995V3.52495H6.93751C5.73751 3.52495 4.76251 4.53745 4.76251 5.73745V21.1124C4.76251 22.35 5.73751 23.325 6.93751 23.325H17.1C18.3 23.325 19.275 22.3125 19.275 21.1124V5.73745C19.2375 4.49995 18.2625 3.52495 17.0625 3.52495ZM9.18751 3.29995H14.8125V4.34995V5.39995H9.18751V3.29995ZM17.55 21.1124C17.55 21.4125 17.325 21.6375 17.0625 21.6375H6.93751C6.67501 21.6375 6.45001 21.4125 6.45001 21.1124V5.73745C6.45001 5.43745 6.67501 5.21245 6.93751 5.21245H7.50001V5.58745C7.50001 6.44995 8.17501 7.12495 9.00001 7.12495H15C15.825 7.12495 16.5 6.44995 16.5 5.58745V5.21245H17.1C17.3625 5.21245 17.5875 5.43745 17.5875 5.73745V21.1124H17.55Z" fill="#161A23"/>
<path d="M12.75 13.4249H11.25C10.9125 13.4249 10.6125 13.0499 10.6125 12.5999C10.6125 12.1499 10.9125 11.7749 11.25 11.7749H13.6875C14.1375 11.7749 14.55 11.3999 14.55 10.9124C14.55 10.4249 14.175 10.0499 13.6875 10.0499H12.8625C12.8625 9.59985 12.4875 9.22485 12.0375 9.22485C11.5875 9.22485 11.2125 9.59985 11.2125 10.0499C9.97502 10.0874 8.96252 11.2124 8.96252 12.5624C8.96252 13.9499 10.0125 15.0749 11.2875 15.0749H12.75C13.0875 15.0749 13.3875 15.4499 13.3875 15.8999C13.3875 16.3499 13.125 16.7249 12.75 16.7249H10.35C9.90002 16.7249 9.48752 17.0999 9.48752 17.5874C9.48752 18.0749 9.86252 18.4499 10.35 18.4499H11.175C11.175 18.8999 11.55 19.2749 12 19.2749C12.45 19.2749 12.825 18.8999 12.825 18.4499C14.0625 18.4124 15.075 17.2874 15.075 15.9374C15.1125 14.5499 14.0625 13.4249 12.75 13.4249Z" fill="#161A23"/>
</svg>
