<svg width="24" height="24" viewBox="0 0 24 24" fill="none" xmlns="http://www.w3.org/2000/svg">
<path d="M5.92496 10.575C6.37496 10.575 6.74996 10.2 6.74996 9.74999C6.74996 9.29999 6.37496 8.92499 5.92496 8.92499H3.78746C3.33746 8.92499 2.96246 9.29999 2.96246 9.74999V12.1125C2.96246 12.5625 3.33746 12.9375 3.78746 12.9375H5.06246V13.3875H3.78746C3.33746 13.3875 2.96246 13.7625 2.96246 14.2125C2.96246 14.6625 3.33746 15.0375 3.78746 15.0375H5.92496C6.37496 15.0375 6.74996 14.6625 6.74996 14.2125V12.075C6.74996 11.625 6.37496 11.25 5.92496 11.25H4.64996V10.575H5.92496Z" fill="#161A23"/>
<path d="M21.15 4.98749H2.84999C1.64999 4.98749 0.674988 5.96249 0.674988 7.16249V16.8375C0.674988 18.0375 1.64999 19.0125 2.84999 19.0125H21.1875C22.3875 19.0125 23.3625 18.0375 23.3625 16.8375V7.16249C23.325 5.96249 22.35 4.98749 21.15 4.98749ZM21.6375 16.8375C21.6375 17.1 21.4125 17.325 21.15 17.325H2.84999C2.58749 17.325 2.36249 17.1 2.36249 16.8375V7.16249C2.36249 6.89999 2.58749 6.67499 2.84999 6.67499H21.1875C21.45 6.67499 21.675 6.89999 21.675 7.16249V16.8375H21.6375Z" fill="#161A23"/>
<path d="M15.825 13.6125H14.25V9.78749C14.25 9.33749 13.875 8.96249 13.425 8.96249C12.975 8.96249 12.6 9.33749 12.6 9.78749V14.475C12.6 14.925 12.975 15.3 13.425 15.3H15.8625C16.3125 15.3 16.6875 14.925 16.6875 14.475C16.6875 14.025 16.275 13.6125 15.825 13.6125Z" fill="#161A23"/>
<path d="M19.65 10.6125C20.1 10.6125 20.475 10.2375 20.475 9.78749C20.475 9.33749 20.1 8.96249 19.65 8.96249H17.85C17.4 8.96249 17.025 9.33749 17.025 9.78749V14.3625C17.025 14.8125 17.4 15.1875 17.85 15.1875H19.65C20.1 15.1875 20.475 14.8125 20.475 14.3625C20.475 13.9125 20.1 13.5375 19.65 13.5375H18.675V12.9375H18.75C19.2 12.9375 19.575 12.5625 19.575 12.075C19.575 11.5875 19.2 11.25 18.75 11.25H18.675V10.65H19.65V10.6125Z" fill="#161A23"/>
<path d="M10.95 8.92499H8.5125C8.0625 8.92499 7.6875 9.29999 7.6875 9.74999V14.4375C7.6875 14.8875 8.0625 15.2625 8.5125 15.2625C8.9625 15.2625 9.3375 14.8875 9.3375 14.4375V12.7125H10.0875V14.4375C10.0875 14.8875 10.4625 15.2625 10.9125 15.2625C11.3625 15.2625 11.7375 14.8875 11.7375 14.4375V11.85V9.74999C11.8125 9.29999 11.4 8.92499 10.95 8.92499ZM9.375 10.6125H10.125V11.025H9.375V10.6125Z" fill="#161A23"/>
</svg>
