<svg width="24" height="24" viewBox="0 0 24 24" fill="none" xmlns="http://www.w3.org/2000/svg">
<path d="M21.3 0.675049H6.41251C6.11251 0.675049 5.81251 0.787549 5.55001 0.975049L1.76251 4.42505C1.50001 4.68755 1.35001 5.02505 1.35001 5.40005V21.0751C1.35001 22.35 2.36251 23.3625 3.63751 23.3625H20.325C21.6 23.3625 22.6125 22.35 22.6125 21.0751V1.98755C22.6125 1.23755 22.0125 0.675049 21.3 0.675049ZM8.92501 2.36255H17.025V5.17505H8.92501V2.36255ZM20.925 21.0375C20.925 21.375 20.6625 21.6376 20.325 21.6376H3.67501C3.33751 21.6376 3.07501 21.375 3.07501 21.0375V5.55005L6.56251 2.36255H7.27501V6.00005C7.27501 6.45005 7.65001 6.86255 8.13751 6.86255H17.925C18.375 6.86255 18.7875 6.48755 18.7875 6.00005V2.36255H21V21.0375H20.925Z" fill="#161A23"/>
<path d="M12.4875 8.4751C9.6 8.4751 7.2375 10.8376 7.2375 13.7251C7.2375 16.6126 9.6 18.9751 12.4875 18.9751C15.375 18.9751 17.7375 16.6126 17.7375 13.7251C17.7375 10.8001 15.375 8.4751 12.4875 8.4751ZM12.4875 17.2501C10.5375 17.2501 8.925 15.6751 8.925 13.6876C8.925 11.7376 10.5375 10.1251 12.4875 10.1251C14.4375 10.1251 16.05 11.7001 16.05 13.6876C16.05 15.6751 14.4375 17.2501 12.4875 17.2501Z" fill="#161A23"/>
</svg>
