<svg width="24" height="24" viewBox="0 0 24 24" fill="none" xmlns="http://www.w3.org/2000/svg">
<path d="M21.975 4.31251L18.3375 0.975012L18.2625 0.937512C18 0.750012 17.7 0.637512 17.4375 0.637512H4.46249C2.88749 0.637512 1.61249 1.91251 1.61249 3.48751V20.4375C1.61249 22.0125 2.88749 23.2875 4.46249 23.2875H19.5375C21.1125 23.2875 22.3875 22.0125 22.3875 20.4375V5.28751C22.3875 4.95001 22.275 4.61251 21.975 4.31251ZM14.9625 2.36251V4.50001H7.12499V2.36251H14.9625ZM8.06249 21.675V14.7375H15.9375V21.6375H8.06249V21.675ZM20.7 20.475C20.7 21.1125 20.175 21.6375 19.5375 21.6375H17.625V14.4C17.625 13.6875 17.025 13.0875 16.3125 13.0875H7.68749C6.97499 13.0875 6.37499 13.6875 6.37499 14.4V21.675H4.46249C3.82499 21.675 3.29999 21.15 3.29999 20.5125V3.52501C3.29999 2.88751 3.82499 2.36251 4.46249 2.36251H5.43749V4.87501C5.43749 5.58751 6.03749 6.18751 6.74999 6.18751H15.3375C16.05 6.18751 16.65 5.58751 16.65 4.87501V2.36251H17.325L20.7 5.47501V20.475Z" fill="#161A23"/>
<path d="M13.5375 15.9375H10.4625C10.0125 15.9375 9.59998 16.3125 9.59998 16.8C9.59998 17.2875 9.97498 17.6625 10.4625 17.6625H13.5375C13.9875 17.6625 14.4 17.2875 14.4 16.8C14.4 16.3125 13.9875 15.9375 13.5375 15.9375Z" fill="#161A23"/>
<path d="M13.5375 18.7875H10.4625C10.0125 18.7875 9.59998 19.1625 9.59998 19.65C9.59998 20.1375 9.97498 20.5125 10.4625 20.5125H13.5375C13.9875 20.5125 14.4 20.1375 14.4 19.65C14.4 19.1625 13.9875 18.7875 13.5375 18.7875Z" fill="#161A23"/>
</svg>
