<svg width="24" height="24" viewBox="0 0 24 24" fill="none" xmlns="http://www.w3.org/2000/svg">
<path d="M22.725 8.58752C22.275 8.47502 21.825 8.73752 21.675 9.15002C21.525 9.71252 21.3 10.125 21.075 10.3125C20.0625 6.82502 16.2375 4.23752 11.7 4.23752C10.7625 4.23752 9.86249 4.35002 8.99999 4.57502C8.51249 3.90002 7.79999 3.41252 6.82499 3.11252C6.52499 3.00002 6.03749 2.92502 5.39999 2.88752C4.87499 2.81252 4.38749 3.00002 4.04999 3.41252C3.71249 3.82502 3.59999 4.35002 3.74999 4.87502L4.46249 7.23752L3.18749 9.07502L1.79999 9.45002C1.12499 9.63752 0.674988 10.275 0.674988 10.95V13.4625C0.674988 14.175 1.16249 14.775 1.79999 14.9625L3.11249 15.3375C3.67499 16.5375 4.61249 17.5875 5.77499 18.375L5.62499 19.4625C5.54999 19.9125 5.69999 20.3625 5.99999 20.7C6.29999 21.0375 6.71249 21.225 7.16249 21.225H9.14999C9.67499 21.225 10.125 20.9625 10.425 20.55L10.8 20.025L14.3625 19.725L14.85 20.5125C15.15 20.9625 15.6375 21.225 16.1625 21.225H18.1125C18.5625 21.225 18.975 21.0375 19.275 20.7C19.575 20.3625 19.725 19.9125 19.65 19.4625L19.3125 17.0625C20.625 15.675 21.3 13.9875 21.3 12.225C21.3 12.1875 21.3 12.1125 21.3 12.075C21.4125 12.0375 21.525 12 21.675 11.925C22.425 11.55 22.95 10.8 23.2875 9.63752C23.4375 9.18752 23.175 8.70002 22.725 8.58752ZM18.1125 15.9L17.85 16.2C17.6625 16.3875 17.5875 16.65 17.625 16.875L17.9625 19.5375H16.2L15.45 18.4125C15.2625 18.15 15 18 14.6625 18.0375L10.275 18.375C10.0125 18.4125 9.78749 18.525 9.63749 18.75L9.07499 19.5375H7.31249L7.49999 18.075C7.53749 17.775 7.38749 17.4375 7.16249 17.2875L6.74999 16.9875C5.81249 16.35 5.09999 15.525 4.64999 14.5875L4.46249 14.25C4.34999 14.025 4.16249 13.875 3.93749 13.8L2.36249 13.35V11.025L3.93749 10.575C4.12499 10.5375 4.27499 10.425 4.38749 10.2375L6.07499 7.83752C6.22499 7.61252 6.26249 7.35002 6.18749 7.08752L5.39999 4.50002C6.03749 4.57502 6.26249 4.65002 6.33749 4.65002C6.93749 4.83752 7.38749 5.13752 7.64999 5.51252L7.98749 5.96252C8.17499 6.22502 8.54999 6.37502 8.88749 6.30002L9.44999 6.15002C10.1625 5.96252 10.95 5.88752 11.7375 5.88752C16.125 5.88752 19.6875 8.70002 19.6875 12.15C19.65 13.5375 19.125 14.8125 18.1125 15.9Z" fill="#161A23"/>
</svg>
