<svg width="24" height="24" viewBox="0 0 24 24" fill="none" xmlns="http://www.w3.org/2000/svg">
<path d="M17.8876 8.73755V7.12505C17.8876 6.03755 16.9876 5.17505 15.9376 5.17505H15.3751C15.4876 4.83755 15.5251 4.50005 15.5251 4.16255C15.5251 2.21255 13.9501 0.675049 12.0376 0.675049C10.1251 0.675049 8.5501 2.25005 8.5501 4.16255C8.5501 4.50005 8.5876 4.87505 8.7001 5.17505H8.1376C7.0501 5.17505 6.1876 6.07505 6.1876 7.12505V8.73755C4.9501 8.81255 3.9751 9.82505 3.9751 11.0625V21.0001C3.9751 22.2751 5.0251 23.3251 6.3001 23.3251H17.8126C19.0876 23.3251 20.1376 22.2751 20.1376 21.0001V11.1C20.1001 9.86255 19.1251 8.81255 17.8876 8.73755ZM10.2001 4.16255C10.2001 3.15005 11.0251 2.36255 12.0001 2.36255C12.9751 2.36255 13.8001 3.18755 13.8001 4.16255C13.8001 4.53755 13.6876 4.87505 13.5001 5.17505H10.5001C10.2751 4.87505 10.2001 4.53755 10.2001 4.16255ZM7.8001 7.16255C7.8001 7.01255 7.9126 6.86255 8.1001 6.86255H15.9376C16.0876 6.86255 16.2376 6.97505 16.2376 7.16255V8.77505H7.8001V7.16255ZM18.4126 21.0001C18.4126 21.3751 18.1126 21.6751 17.7376 21.6751H6.2626C5.8876 21.6751 5.5876 21.3751 5.5876 21.0001V11.1C5.5876 10.725 5.8876 10.425 6.2626 10.425H17.7751C18.1501 10.425 18.4501 10.725 18.4501 11.1V21.0001H18.4126Z" fill="#161A23"/>
</svg>
