<svg width="24" height="24" viewBox="0 0 24 24" fill="none" xmlns="http://www.w3.org/2000/svg">
<path d="M23.25 16.8375L20.55 7.12505C20.25 6.07505 19.3125 5.36255 18.225 5.36255H15.2625V3.33755H21.6375C22.0875 3.33755 22.5 2.96255 22.5 2.47505C22.5 1.98755 22.125 1.61255 21.6375 1.61255H2.36247C1.87497 1.65005 1.49997 2.02505 1.49997 2.47505C1.49997 2.92505 1.87497 3.33755 2.36247 3.33755H8.73747V5.36255H5.77497C4.68747 5.36255 3.74997 6.07505 3.44997 7.12505L0.749972 16.8375C0.562472 17.5875 0.674972 18.3375 1.16247 18.9375C1.49997 19.3875 1.98747 19.725 2.54997 19.8375V21.4875C2.54997 21.9375 2.92497 22.35 3.41247 22.35C3.89997 22.35 4.27497 21.975 4.27497 21.4875V19.875H19.8375V21.4875C19.8375 21.9375 20.2125 22.35 20.7 22.35C21.1875 22.35 21.5625 21.975 21.5625 21.4875V19.8375C22.125 19.725 22.6125 19.3875 22.95 18.9375C23.325 18.3375 23.475 17.5875 23.25 16.8375ZM10.425 3.33755H13.575V5.36255H10.425V3.33755ZM21.525 17.925C21.375 18.1125 21.1875 18.225 20.9625 18.225H3.07497C2.84997 18.225 2.62497 18.1125 2.51247 17.925C2.36247 17.7375 2.32497 17.5125 2.39997 17.2875L5.09997 7.57505C5.17497 7.27505 5.47497 7.05005 5.81247 7.05005H18.2625C18.6 7.05005 18.8625 7.27505 18.975 7.57505L21.675 17.2875C21.675 17.5125 21.6375 17.7375 21.525 17.925Z" fill="#161A23"/>
<path d="M12 8.32495C9.63748 8.32495 7.72498 10.2375 7.72498 12.5999C7.72498 14.9625 9.63748 16.875 12 16.875C14.3625 16.875 16.275 14.9625 16.275 12.5999C16.275 10.2375 14.3625 8.32495 12 8.32495ZM12.8625 15V13.5374C12.8625 13.0875 12.4875 12.675 12 12.675C11.55 12.675 11.1375 13.05 11.1375 13.5374V15C10.125 14.6625 9.41248 13.6875 9.41248 12.5625C9.41248 11.1375 10.575 9.97495 12 9.97495C13.425 9.97495 14.5875 11.1375 14.5875 12.5625C14.5875 13.6875 13.8375 14.6625 12.8625 15Z" fill="#161A23"/>
</svg>
