<svg width="24" height="24" viewBox="0 0 24 24" fill="none" xmlns="http://www.w3.org/2000/svg">
<g clip-path="url(#clip0_501_47572)">
<path d="M1.50001 6.71255C1.95001 6.71255 2.36251 6.33755 2.36251 5.85005V2.58755H5.62501C6.07501 2.58755 6.48751 2.21255 6.48751 1.72505C6.48751 1.23755 6.11251 0.862549 5.62501 0.862549H1.50001C1.05001 0.862549 0.637512 1.23755 0.637512 1.72505V5.88755C0.675012 6.33755 1.05001 6.71255 1.50001 6.71255Z" fill="#161A23"/>
<path d="M22.5 0.900024H18.375C17.925 0.900024 17.5125 1.27502 17.5125 1.76252C17.5125 2.25002 17.8875 2.62502 18.375 2.62502H21.6375V5.92502C21.6375 6.37502 22.0125 6.78752 22.5 6.78752C22.9875 6.78752 23.3625 6.41252 23.3625 5.92502V1.72502C23.3625 1.27502 22.95 0.900024 22.5 0.900024Z" fill="#161A23"/>
<path d="M22.5 17.2876C22.05 17.2876 21.6375 17.6626 21.6375 18.1501V21.4501H18.375C17.925 21.4501 17.5125 21.8251 17.5125 22.3126C17.5125 22.8001 17.8875 23.1751 18.375 23.1751H22.5C22.95 23.1751 23.3625 22.8001 23.3625 22.3126V18.1126C23.3625 17.6626 22.95 17.2876 22.5 17.2876Z" fill="#161A23"/>
<path d="M5.62501 21.4125H2.36251V18.1125C2.36251 17.6625 1.98751 17.25 1.50001 17.25C1.01251 17.25 0.637512 17.625 0.637512 18.1125V22.275C0.637512 22.725 1.01251 23.1375 1.50001 23.1375H5.62501C6.07501 23.1375 6.48751 22.7625 6.48751 22.275C6.48751 21.7875 6.07501 21.4125 5.62501 21.4125Z" fill="#161A23"/>
<path d="M19.425 12C19.425 11.625 19.275 11.2875 19.0125 11.0625C18 10.05 15.3 7.6875 12 7.6875C8.70001 7.6875 6.00001 10.05 4.98751 11.0625C4.72501 11.325 4.57501 11.6625 4.57501 12C4.57501 12.3375 4.72501 12.7125 4.98751 12.9375C6.00001 13.95 8.70001 16.3125 12 16.3125C15.3 16.3125 18 13.95 19.0125 12.9375C19.275 12.7125 19.425 12.375 19.425 12ZM12 14.625C9.56251 14.625 7.35001 12.8625 6.41251 12C7.31251 11.1375 9.52501 9.375 12 9.375C14.475 9.375 16.65 11.1375 17.5875 12C16.65 12.8625 14.4375 14.625 12 14.625Z" fill="#161A23"/>
<path d="M11.4 11.4001C11.25 11.5501 11.1375 11.7751 11.1375 12.0001C11.1375 12.0376 11.1375 12.1126 11.1375 12.1501C11.1375 12.1876 11.175 12.2626 11.175 12.3001C11.2125 12.3376 11.2125 12.4126 11.25 12.4501C11.2875 12.4876 11.325 12.5251 11.3625 12.5626C11.5125 12.7126 11.7375 12.8251 11.9625 12.8251C12 12.8251 12.075 12.8251 12.1125 12.8251C12.15 12.8251 12.225 12.7876 12.2625 12.7876C12.3 12.7501 12.375 12.7501 12.4125 12.7126C12.45 12.6751 12.4875 12.6376 12.525 12.6001C12.5625 12.5626 12.6 12.5251 12.6375 12.4876C12.675 12.4501 12.675 12.3751 12.7125 12.3376C12.75 12.3001 12.75 12.2251 12.75 12.1876C12.75 12.1501 12.75 12.0751 12.75 12.0376C12.75 11.8126 12.675 11.5876 12.4875 11.4376C12.45 11.4001 12.4125 11.3626 12.375 11.3251C12.3375 11.2876 12.375 11.2501 12.3375 11.2126C12.3 11.1751 12.225 11.1751 12.1875 11.1751C11.8875 11.1001 11.5875 11.2126 11.4 11.4001Z" fill="#161A23"/>
</g>
<defs>
<clipPath id="clip0_501_47572">
<rect width="24" height="24" fill="white"/>
</clipPath>
</defs>
</svg>
