<svg width="24" height="24" viewBox="0 0 24 24" fill="none" xmlns="http://www.w3.org/2000/svg">
<path d="M22.5 6.26257C22.05 6.26257 21.6375 6.63757 21.6375 7.12507V10.0876H15.825C14.85 10.0876 14.025 10.9126 14.025 11.8876V13.8001C14.025 14.4751 14.4 15.0751 14.9625 15.3751V18.5626C14.9625 19.0126 15.3375 19.4251 15.825 19.4251C16.3125 19.4251 16.6875 19.0501 16.6875 18.5626V15.6001H21.675V18.5626C21.675 19.0126 22.05 19.4251 22.5375 19.4251C23.025 19.4251 23.4 19.0501 23.4 18.5626V7.08757C23.3625 6.63757 22.95 6.26257 22.5 6.26257ZM15.7125 11.8501C15.7125 11.7751 15.75 11.7376 15.825 11.7376H21.675V13.8751H15.825C15.75 13.8751 15.7125 13.8376 15.7125 13.7626V11.8501Z" fill="#161A23"/>
<path d="M11.55 7.05003L2.81251 4.65003C2.32501 4.50003 1.80001 4.61253 1.35001 4.95003C0.900012 5.28753 0.637512 5.81253 0.637512 6.41253V8.25003C0.637512 9.07503 1.16251 9.78753 1.91251 9.97503L2.55001 10.1625V18.5625C2.55001 19.0125 2.92501 19.425 3.41251 19.425C3.90001 19.425 4.27501 19.05 4.27501 18.5625V10.6125L9.26251 12V18.5625C9.26251 19.0125 9.63751 19.425 10.125 19.425C10.6125 19.425 10.9875 19.05 10.9875 18.5625V12.4125C11.0625 12.4125 11.1 12.4125 11.175 12.4125C11.55 12.4125 11.8875 12.3 12.1875 12.075C12.6375 11.7375 12.9 11.2125 12.9 10.6125V8.77503C12.8625 7.98753 12.3 7.27503 11.55 7.05003ZM11.175 10.65C11.175 10.725 11.1375 10.7625 11.1375 10.7625L2.40001 8.36253C2.40001 8.36253 2.36251 8.32503 2.36251 8.25003V6.41253C2.36251 6.33753 2.40001 6.30003 2.40001 6.30003L11.1375 8.70003C11.1375 8.70003 11.175 8.73753 11.175 8.81253V10.65Z" fill="#161A23"/>
</svg>
