<svg width="24" height="24" viewBox="0 0 24 24" fill="none" xmlns="http://www.w3.org/2000/svg">
<path d="M12.3 9.78752L1.80002 5.96252C1.35002 5.81252 0.862519 6.03752 0.712519 6.45002C0.562519 6.90002 0.787519 7.38752 1.20002 7.53752L2.55002 8.02502V17.25C2.55002 17.7 2.92502 18.1125 3.41252 18.1125C3.90002 18.1125 4.27502 17.7375 4.27502 17.25V8.66252L9.26252 10.4625V17.25C9.26252 17.7 9.63752 18.1125 10.125 18.1125C10.6125 18.1125 10.9875 17.7375 10.9875 17.25V11.0625L11.775 11.3625C11.8875 11.4 11.9625 11.4 12.075 11.4C12.4125 11.4 12.75 11.175 12.8625 10.8375C12.9375 10.425 12.7125 9.93752 12.3 9.78752Z" fill="#161A23"/>
<path d="M22.5 5.92505C22.05 5.92505 21.6375 6.30005 21.6375 6.78755V12.6375H17.775C16.7625 12.6375 15.9 13.4625 15.9 14.5125V17.25C15.9 17.7 16.275 18.1125 16.7625 18.1125C17.25 18.1125 17.625 17.7375 17.625 17.25V14.4375C17.625 14.325 17.7 14.25 17.8125 14.25H21.675V17.25C21.675 17.7 22.05 18.1125 22.5375 18.1125C23.025 18.1125 23.4 17.7375 23.4 17.25V6.75005C23.3625 6.30005 22.95 5.92505 22.5 5.92505Z" fill="#161A23"/>
</svg>
