<svg width="24" height="24" viewBox="0 0 24 24" fill="none" xmlns="http://www.w3.org/2000/svg">
<g clip-path="url(#clip0_501_45463)">
<path d="M22.5 3.29996C22.05 3.29996 21.6375 3.67496 21.6375 4.16246V7.04996C21.6375 7.27496 21.4875 7.46246 21.3 7.57496L20.4375 7.91246V4.16246C20.4375 3.22496 19.8375 2.36246 18.975 2.06246C12.6375 -0.300041 7.05001 1.27496 4.95001 2.06246C4.08751 2.39996 3.48751 3.22496 3.48751 4.16246V7.91246L2.66251 7.57496C2.43751 7.49996 2.32501 7.27496 2.32501 7.04996V4.16246C2.32501 3.71246 1.95001 3.29996 1.46251 3.29996C0.975006 3.29996 0.600006 3.67496 0.600006 4.16246V7.04996C0.600006 7.94996 1.16251 8.77496 1.98751 9.11246L3.52501 9.74996V9.86246C2.51251 10.275 1.83751 11.25 1.83751 12.375V20.925C1.83751 22.1625 2.85001 23.175 4.08751 23.175H6.03751C7.27501 23.175 8.28751 22.1625 8.28751 20.925V19.5375H15.7125V20.925C15.7125 22.1625 16.725 23.175 17.9625 23.175H19.9125C21.15 23.175 22.1625 22.1625 22.1625 20.925V12.375C22.1625 11.25 21.45 10.275 20.475 9.86246V9.74996L21.975 9.11246C22.8 8.77496 23.3625 7.94996 23.3625 7.04996V4.16246C23.3625 3.67496 22.95 3.29996 22.5 3.29996ZM5.21251 6.18746H11.1375V9.63746H5.21251V6.18746ZM12.825 6.18746H18.75V9.63746H12.825V6.18746ZM5.55001 3.63746C7.46251 2.92496 12.5625 1.49996 18.375 3.63746C18.6 3.71246 18.75 3.93746 18.75 4.16246V4.49996H5.21251V4.16246C5.21251 3.93746 5.36251 3.71246 5.55001 3.63746ZM6.56251 20.9625C6.56251 21.2625 6.30001 21.525 6.00001 21.525H4.05001C3.75001 21.525 3.48751 21.2625 3.48751 20.9625V19.575H6.56251V20.9625ZM14.5125 17.8875H9.48751V16.875C9.48751 16.575 9.75001 16.3125 10.05 16.3125H13.9875C14.2875 16.3125 14.55 16.575 14.55 16.875V17.8875H14.5125ZM20.475 20.9625C20.475 21.2625 20.2125 21.525 19.9125 21.525H17.9625C17.6625 21.525 17.4 21.2625 17.4 20.9625V19.575H20.475V20.9625ZM20.475 17.8875H16.2V16.875C16.2 15.6375 15.1875 14.625 13.95 14.625H10.05C8.81251 14.625 7.80001 15.6375 7.80001 16.875V17.8875H3.52501V12.375C3.52501 11.8125 3.97501 11.325 4.57501 11.325H19.4625C20.025 11.325 20.5125 11.775 20.5125 12.375V17.8875H20.475Z" fill="#161A23"/>
<path d="M6.22501 15.3374H5.25001C4.80001 15.3374 4.38751 15.7124 4.38751 16.1999C4.38751 16.6874 4.76251 17.0624 5.25001 17.0624H6.22501C6.67501 17.0624 7.08751 16.6874 7.08751 16.1999C7.08751 15.7124 6.67501 15.3374 6.22501 15.3374Z" fill="#161A23"/>
<path d="M18.75 15.3374H17.775C17.325 15.3374 16.9125 15.7124 16.9125 16.1999C16.9125 16.6874 17.2875 17.0624 17.775 17.0624H18.75C19.2 17.0624 19.6125 16.6874 19.6125 16.1999C19.6125 15.7124 19.2375 15.3374 18.75 15.3374Z" fill="#161A23"/>
</g>
<defs>
<clipPath id="clip0_501_45463">
<rect width="24" height="24" fill="white"/>
</clipPath>
</defs>
</svg>
