<svg width="24" height="24" viewBox="0 0 24 24" fill="none" xmlns="http://www.w3.org/2000/svg">
<path d="M18.675 2.54995H14.625C14.25 1.46245 13.2375 0.637451 12 0.637451C10.7625 0.637451 9.75002 1.42495 9.37502 2.54995H5.32502C4.87502 2.54995 4.46252 2.92495 4.46252 3.41245C4.46252 3.89995 4.83752 4.27495 5.32502 4.27495H8.17502C7.08752 5.06245 6.41252 6.33745 6.41252 7.72495V15.6375C6.41252 17.475 7.57502 19.0875 9.26252 19.65V20.9999C9.26252 22.275 10.3125 23.3624 11.625 23.3624H12.45C13.725 23.3624 14.8125 22.3124 14.8125 20.9999V19.6124C16.5 19.0499 17.6625 17.4374 17.6625 15.5999V7.68745C17.6625 6.29995 16.9875 5.02495 15.9 4.23745H18.75C19.2 4.23745 19.6125 3.86245 19.6125 3.37495C19.6125 2.88745 19.1625 2.54995 18.675 2.54995ZM12 2.36245C12.6 2.36245 13.05 2.84995 13.05 3.41245C13.05 3.97495 12.5625 4.46245 12 4.46245C11.4375 4.46245 10.95 3.97495 10.95 3.41245C10.95 2.84995 11.4 2.36245 12 2.36245ZM12.4125 21.6749H11.5875C11.2125 21.6749 10.9125 21.3749 10.9125 20.9999V18.9374V18.2999C10.9125 17.9249 11.2125 17.625 11.5875 17.625H12.4125C12.7875 17.625 13.0875 17.9249 13.0875 18.2999V18.9374V20.9999C13.05 21.3749 12.7875 21.6749 12.4125 21.6749ZM15.9375 15.5999C15.9375 16.5374 15.45 17.3249 14.7 17.775C14.475 16.725 13.5375 15.9374 12.4125 15.9374H11.5875C10.4625 15.9374 9.52502 16.725 9.30002 17.775C8.55002 17.3249 8.06252 16.4999 8.06252 15.5999V7.68745C8.06252 6.52495 8.85002 5.54995 9.93752 5.21245C10.425 5.77495 11.175 6.14995 12 6.14995C12.825 6.14995 13.5375 5.77495 14.0625 5.21245C15.15 5.51245 15.9375 6.52495 15.9375 7.68745V15.5999Z" fill="#161A23"/>
</svg>
