<svg width="24" height="24" viewBox="0 0 24 24" fill="none" xmlns="http://www.w3.org/2000/svg">
<path d="M18.675 2.54995H14.625C14.25 1.46245 13.2375 0.637451 12 0.637451C10.7625 0.637451 9.75 1.42495 9.375 2.54995H5.325C4.875 2.54995 4.5 2.92495 4.5 3.37495C4.5 3.82495 4.875 4.19995 5.325 4.19995H8.175C7.0875 4.98745 6.4125 6.26245 6.4125 7.64995V15.5625C6.4125 17.4 7.575 19.0125 9.2625 19.575V21C9.2625 22.275 10.3125 23.325 11.5875 23.325H12.4125C13.6875 23.325 14.7375 22.275 14.7375 21V19.6124C16.425 19.0499 17.5875 17.4375 17.5875 15.6V7.68745C17.5875 6.29995 16.9125 5.02495 15.825 4.23745H18.675C19.125 4.23745 19.5 3.86245 19.5 3.41245C19.5 2.96245 19.1625 2.54995 18.675 2.54995ZM12 2.32495C12.6 2.32495 13.05 2.81245 13.05 3.37495C13.05 3.93745 12.5625 4.42495 12 4.42495C11.4375 4.42495 10.95 3.93745 10.95 3.37495C10.95 2.81245 11.4 2.32495 12 2.32495ZM12.4125 21.6749H11.5875C11.2125 21.6749 10.9125 21.375 10.9125 21V18.2625C10.9125 17.8875 11.2125 17.5875 11.5875 17.5875H12.4125C12.7875 17.5875 13.0875 17.8875 13.0875 18.2625V21C13.05 21.375 12.7875 21.6749 12.4125 21.6749ZM15.9375 15.6C15.9375 16.5375 15.45 17.325 14.7 17.775C14.475 16.725 13.5375 15.9375 12.4125 15.9375H11.5875C10.4625 15.9375 9.525 16.725 9.3 17.775C8.55 17.325 8.0625 16.5 8.0625 15.6V7.68745C8.0625 6.52495 8.85 5.54995 9.9375 5.21245C10.425 5.77495 11.175 6.14995 12 6.14995C12.825 6.14995 13.5375 5.77495 14.0625 5.21245C15.15 5.51245 15.9375 6.52495 15.9375 7.68745V15.6Z" fill="#161A23"/>
</svg>
