<svg width="24" height="24" viewBox="0 0 24 24" fill="none" xmlns="http://www.w3.org/2000/svg">
<path d="M14.25 15.225L12 17.475L9.75 15.225C9.4125 14.8875 8.8875 14.8875 8.55 15.225C8.2125 15.5625 8.2125 16.0875 8.55 16.425L11.4 19.275C11.55 19.425 11.775 19.5375 12 19.5375C12.225 19.5375 12.4125 19.4625 12.6 19.275L15.45 16.425C15.7875 16.0875 15.7875 15.5625 15.45 15.225C15.1125 14.8875 14.5875 14.8875 14.25 15.225Z" fill="#161A23"/>
<path d="M15.675 0.674988H8.32499C6.18749 0.674988 4.46249 2.39999 4.46249 4.53749V19.5375C4.46249 21.675 6.18749 23.4 8.32499 23.4H15.675C17.8125 23.4 19.5375 21.675 19.5375 19.5375V4.49999C19.5375 2.36249 17.8125 0.674988 15.675 0.674988ZM17.85 19.5C17.85 20.7 16.875 21.675 15.675 21.675H8.32499C7.12499 21.675 6.14999 20.7 6.14999 19.5V4.49999C6.14999 3.29999 7.12499 2.32499 8.32499 2.32499H15.675C16.875 2.32499 17.85 3.29999 17.85 4.49999V19.5Z" fill="#161A23"/>
<path d="M12 9.82496C12.0375 9.82496 12.1125 9.82496 12.15 9.82496C12.1875 9.82496 12.2625 9.78746 12.3 9.78746C12.3375 9.74996 12.4125 9.74996 12.45 9.71246C12.4875 9.67496 12.525 9.63746 12.5625 9.59996C12.7125 9.44996 12.825 9.22496 12.825 8.99996C12.825 8.77496 12.75 8.54996 12.5625 8.39996C12.525 8.36246 12.4875 8.32496 12.45 8.28746C12.4125 8.24996 12.3375 8.21246 12.3 8.21246C12.2625 8.21246 12.1875 8.17496 12.15 8.17496C11.8875 8.13746 11.5875 8.21246 11.4 8.39996C11.25 8.54996 11.1375 8.77496 11.1375 8.99996C11.1375 9.22496 11.2125 9.44996 11.4 9.59996C11.55 9.71246 11.775 9.82496 12 9.82496Z" fill="#161A23"/>
<path d="M11.2125 12.9C11.25 12.9375 11.25 13.0125 11.2875 13.05C11.325 13.0875 11.3625 13.125 11.4 13.2C11.4375 13.2375 11.475 13.275 11.5125 13.3125C11.55 13.35 11.625 13.3875 11.6625 13.3875C11.7 13.425 11.775 13.425 11.8125 13.425C11.85 13.425 11.925 13.425 11.9625 13.425C12.1875 13.425 12.4125 13.35 12.5625 13.2C12.6 13.1625 12.6375 13.125 12.675 13.05C12.7125 13.0125 12.7125 12.9375 12.75 12.9C12.7875 12.8625 12.7875 12.7875 12.7875 12.75C12.7875 12.675 12.7875 12.6375 12.7875 12.6C12.7875 12.375 12.7125 12.15 12.525 12C12.225 11.7 11.6625 11.7 11.325 12C11.175 12.15 11.0625 12.375 11.0625 12.6C11.0625 12.675 11.0625 12.7125 11.0625 12.75C11.175 12.7875 11.2125 12.8625 11.2125 12.9Z" fill="#161A23"/>
</svg>
