<svg width="24" height="24" viewBox="0 0 24 24" fill="none" xmlns="http://www.w3.org/2000/svg">
<path d="M12 7.53748C9.56248 7.53748 7.53748 9.52498 7.53748 12C7.53748 14.475 9.56248 16.4625 12 16.4625C14.4375 16.4625 16.4625 14.4375 16.4625 12C16.4625 9.56248 14.4375 7.53748 12 7.53748ZM12 14.775C10.4625 14.775 9.22498 13.5375 9.22498 12C9.22498 10.4625 10.4625 9.22498 12 9.22498C13.5375 9.22498 14.775 10.4625 14.775 12C14.775 13.5375 13.5375 14.775 12 14.775Z" fill="#161A23"/>
<path d="M6.03748 7.38752C5.69998 7.05002 5.17498 7.05002 4.83748 7.38752L0.899976 11.4C0.562476 11.7375 0.562476 12.2625 0.899976 12.6L4.83748 16.6125C4.98748 16.7625 5.21248 16.875 5.43748 16.875C5.66248 16.875 5.84998 16.8 6.03748 16.65C6.37498 16.3125 6.37498 15.7875 6.03748 15.45L2.69998 12L6.03748 8.58752C6.37498 8.25002 6.33748 7.72502 6.03748 7.38752Z" fill="#161A23"/>
<path d="M23.1 11.4L19.1625 7.425C18.825 7.0875 18.3 7.0875 17.9625 7.425C17.625 7.7625 17.625 8.2875 17.9625 8.625L21.3 12.0375L17.9625 15.45C17.625 15.7875 17.625 16.3125 17.9625 16.65C18.1125 16.8 18.3375 16.875 18.5625 16.875C18.7875 16.875 19.0125 16.8 19.1625 16.6125L23.1 12.6C23.4375 12.2625 23.4375 11.7375 23.1 11.4Z" fill="#161A23"/>
</svg>
