<svg width="24" height="24" viewBox="0 0 24 24" fill="none" xmlns="http://www.w3.org/2000/svg">
<path d="M12 16.4625C9.56248 16.4625 7.53748 14.475 7.53748 12C7.53748 9.52498 9.56248 7.53748 12 7.53748C14.4375 7.53748 16.4625 9.56248 16.4625 12C16.4625 14.4375 14.4375 16.4625 12 16.4625ZM12 9.22498C10.4625 9.22498 9.22498 10.4625 9.22498 12C9.22498 13.5375 10.4625 14.775 12 14.775C13.5375 14.775 14.775 13.5375 14.775 12C14.775 10.4625 13.5375 9.22498 12 9.22498Z" fill="#161A23"/>
<path d="M12 23.325C11.775 23.325 11.5875 23.25 11.4 23.1L7.425 19.1625C7.0875 18.825 7.0875 18.3 7.425 17.9625C7.7625 17.625 8.2875 17.625 8.625 17.9625L12.0375 21.3L15.45 17.9625C15.7875 17.625 16.3125 17.625 16.65 17.9625C16.9875 18.3 16.9875 18.825 16.65 19.1625L12.6 23.1C12.4125 23.25 12.225 23.325 12 23.325Z" fill="#161A23"/>
<path d="M16.0125 6.26248C15.7875 6.26248 15.6 6.18748 15.4125 6.03748L12 2.69998L8.58752 6.03748C8.25002 6.37498 7.72502 6.37498 7.38752 6.03748C7.05002 5.69998 7.05002 5.17498 7.38752 4.83748L11.4 0.899976C11.7375 0.562476 12.2625 0.562476 12.6 0.899976L16.6125 4.83748C16.95 5.17498 16.95 5.69998 16.6125 6.03748C16.425 6.18748 16.2 6.26248 16.0125 6.26248Z" fill="#161A23"/>
</svg>
