<svg width="24" height="24" viewBox="0 0 24 24" fill="none" xmlns="http://www.w3.org/2000/svg">
<g clip-path="url(#clip0_501_47838)">
<path d="M22.5375 18.5625L18.675 14.7C18.15 14.175 17.4375 13.875 16.6875 13.875C16.2375 13.875 15.7875 13.9875 15.4125 14.175L13.4625 12.225C15.675 9.4125 15.4875 5.325 12.9 2.7C10.125 -0.0374966 5.54999 -0.0374964 2.77499 2.775C-0.0375061 5.5875 -0.0375061 10.125 2.77499 12.9375C4.16249 14.2875 5.99999 15 7.83749 15C9.41249 15 10.9875 14.475 12.2625 13.4625L14.2125 15.4125C14.025 15.7875 13.9125 16.2375 13.9125 16.6875C13.9125 17.4375 14.2125 18.15 14.7375 18.675L18.6 22.5375C19.1625 23.1 19.875 23.3625 20.5875 23.3625C21.3 23.3625 22.0125 23.1 22.575 22.5375C23.625 21.45 23.625 19.65 22.5375 18.5625ZM3.93749 11.7C1.79999 9.5625 1.79999 6.075 3.93749 3.9375C5.02499 2.85 6.41249 2.325 7.79999 2.325C9.18749 2.325 10.6125 2.85 11.7 3.9375C13.8375 6.075 13.8375 9.5625 11.7 11.7C9.56249 13.8375 6.07499 13.8375 3.93749 11.7ZM21.3375 21.3375C20.925 21.75 20.2125 21.7875 19.7625 21.3375L15.9 17.475C15.675 17.25 15.5625 16.9875 15.5625 16.6875C15.5625 16.3875 15.675 16.125 15.9 15.9C16.125 15.675 16.3875 15.5625 16.6875 15.5625C16.9875 15.5625 17.25 15.675 17.475 15.9L21.3375 19.7625C21.75 20.2125 21.75 20.8875 21.3375 21.3375Z" fill="#161A23"/>
</g>
<defs>
<clipPath id="clip0_501_47838">
<rect width="24" height="24" fill="white"/>
</clipPath>
</defs>
</svg>
