<svg width="24" height="24" viewBox="0 0 24 24" fill="none" xmlns="http://www.w3.org/2000/svg">
<path d="M22.3125 1.42499H19.425C19.05 1.42499 18.7125 1.68749 18.6 2.06249L17.475 6.63749H13.65C13.95 5.32499 13.95 4.31249 13.95 4.23749C13.95 3.82499 13.65 3.48749 13.275 3.41249C12.1875 3.18749 10.5 2.09999 9.9375 1.68749C9.6375 1.46249 9.225 1.46249 8.925 1.68749C8.3625 2.09999 6.675 3.22499 5.5875 3.41249C5.175 3.48749 4.9125 3.82499 4.9125 4.23749C4.9125 4.34999 4.9125 5.32499 5.2125 6.63749H3.15C2.4375 6.63749 1.8 6.93749 1.35 7.49999C0.9 8.06249 0.75 8.77499 0.9 9.44999L2.025 14.325C2.25 15.375 3.1875 16.0875 4.275 16.0875H15.15C16.2 16.0875 17.1375 15.375 17.3625 14.325L20.1 3.11249H22.3125C22.7625 3.11249 23.1375 2.73749 23.1375 2.28749C23.1375 1.83749 22.7625 1.42499 22.3125 1.42499ZM9.45 3.37499C10.0875 3.78749 11.175 4.49999 12.2625 4.83749C12.15 6.11249 11.625 8.99999 9.45 10.7625C7.275 9.03749 6.75 6.11249 6.6375 4.87499C7.6875 4.49999 8.8125 3.78749 9.45 3.37499ZM15.7125 13.95C15.6375 14.2125 15.4125 14.4 15.1125 14.4H4.2375C3.9375 14.4 3.7125 14.2125 3.6375 13.95L2.5125 9.07499C2.4375 8.81249 2.55 8.66249 2.625 8.54999C2.7 8.47499 2.85 8.32499 3.1125 8.32499H5.7C6.2625 9.82499 7.275 11.4 8.9625 12.525C9.1125 12.6 9.2625 12.675 9.4125 12.675C9.5625 12.675 9.75 12.6375 9.8625 12.525C11.55 11.4 12.525 9.78749 13.125 8.32499H17.0625L15.7125 13.95Z" fill="#161A23"/>
<path d="M14.175 17.7375H5.17499C3.82499 17.7375 2.73749 18.825 2.73749 20.175C2.73749 21.525 3.82499 22.6125 5.17499 22.6125C6.52499 22.6125 7.61249 21.525 7.61249 20.175C7.61249 19.9125 7.57499 19.6875 7.49999 19.425H11.925C11.85 19.65 11.8125 19.9125 11.8125 20.175C11.8125 21.525 12.9 22.6125 14.25 22.6125C15.6 22.6125 16.6875 21.525 16.6875 20.175C16.6875 18.825 15.525 17.7375 14.175 17.7375ZM5.88749 20.1375C5.88749 20.55 5.54999 20.8875 5.13749 20.8875C4.72499 20.8875 4.38749 20.55 4.38749 20.1375C4.38749 19.725 4.72499 19.3875 5.13749 19.3875C5.54999 19.425 5.88749 19.7625 5.88749 20.1375ZM14.175 20.8875C13.7625 20.8875 13.425 20.55 13.425 20.1375C13.425 19.725 13.7625 19.3875 14.175 19.3875C14.5875 19.3875 14.925 19.725 14.925 20.1375C14.925 20.55 14.5875 20.8875 14.175 20.8875Z" fill="#161A23"/>
</svg>
