<svg width="24" height="24" viewBox="0 0 24 24" fill="none" xmlns="http://www.w3.org/2000/svg">
<path d="M19.9125 3.44995L12.7875 0.824951C12.2625 0.637451 11.7 0.637451 11.175 0.824951L4.05005 3.44995C3.15005 3.78745 2.55005 4.64995 2.55005 5.62495V12.15C2.55005 20.0625 10.2 22.8375 11.7 23.3249C11.775 23.3624 11.85 23.3624 11.9625 23.3624C12.0375 23.3624 12.1125 23.3624 12.225 23.3249C13.7625 22.8749 21.375 20.1374 21.375 12.15V5.58745C21.4125 4.64995 20.8125 3.74995 19.9125 3.44995ZM19.725 12.1124C19.725 18.5625 13.7625 21.0374 12 21.5999C10.2375 20.9999 4.27505 18.4874 4.27505 12.1124V5.58745C4.27505 5.32495 4.42505 5.09995 4.68755 5.02495L11.8125 2.39995C11.9625 2.36245 12.1125 2.36245 12.225 2.39995L19.35 5.02495C19.575 5.09995 19.7626 5.36245 19.7626 5.58745V12.1124H19.725Z" fill="#161A23"/>
<path d="M12 6.03748C8.73755 6.03748 6.11255 8.66248 6.11255 11.925C6.11255 15.1875 8.73755 17.8125 12 17.8125C15.2625 17.8125 17.8875 15.1875 17.8875 11.925C17.8875 8.66248 15.2625 6.03748 12 6.03748ZM12 16.125C9.67505 16.125 7.80005 14.25 7.80005 11.925C7.80005 9.59998 9.67505 7.72498 12 7.72498C14.325 7.72498 16.2 9.59998 16.2 11.925C16.2 14.25 14.325 16.125 12 16.125Z" fill="#161A23"/>
<path d="M12.5625 12.1124V10.6874C12.5625 10.2374 12.1875 9.86243 11.7 9.86243C11.2125 9.86243 10.875 10.2374 10.875 10.6874V12.4499C10.875 12.6749 10.95 12.8999 11.1375 13.0499L12.1875 14.0999C12.3375 14.2499 12.5625 14.3624 12.7875 14.3624C13.0125 14.3624 13.2375 14.2874 13.3875 14.0999C13.725 13.7624 13.725 13.2374 13.3875 12.8999L12.5625 12.1124Z" fill="#161A23"/>
</svg>
