<svg width="24" height="24" viewBox="0 0 24 24" fill="none" xmlns="http://www.w3.org/2000/svg">
<path d="M19.5375 9.74998C19.3125 9.74998 19.125 9.67498 18.9375 9.52497L12 2.69998L5.0625 9.52497C4.725 9.86248 4.2 9.86248 3.8625 9.52497C3.525 9.18748 3.525 8.66248 3.8625 8.32498L11.4 0.899976C11.7375 0.562476 12.2625 0.562476 12.6 0.899976L20.1375 8.32498C20.475 8.66248 20.475 9.18748 20.1375 9.52497C19.9875 9.67498 19.7625 9.74998 19.5375 9.74998Z" fill="#161A23"/>
<path d="M12 23.3249C11.775 23.3249 11.5875 23.2499 11.4 23.0999L3.8625 15.6749C3.525 15.3374 3.525 14.8124 3.8625 14.4749C4.2 14.1374 4.725 14.1374 5.0625 14.4749L12 21.2999L18.9375 14.4749C19.275 14.1374 19.8 14.1374 20.1375 14.4749C20.475 14.8124 20.475 15.3374 20.1375 15.6749L12.6 23.0999C12.4125 23.2499 12.225 23.3249 12 23.3249Z" fill="#161A23"/>
</svg>
