<svg width="24" height="24" viewBox="0 0 24 24" fill="none" xmlns="http://www.w3.org/2000/svg">
<g clip-path="url(#clip0_501_41662)">
<path d="M21.0001 0.675049H3.00005C1.72505 0.675049 0.675049 1.72505 0.675049 3.00005V21.0001C0.675049 22.2751 1.72505 23.3251 3.00005 23.3251H21.0001C22.2751 23.3251 23.3251 22.2751 23.3251 21.0001V3.00005C23.3251 1.72505 22.2751 0.675049 21.0001 0.675049ZM21.6751 21.0001C21.6751 21.3751 21.3751 21.6751 21.0001 21.6751H3.00005C2.62505 21.6751 2.32505 21.3751 2.32505 21.0001V3.00005C2.32505 2.62505 2.62505 2.32505 3.00005 2.32505H21.0001C21.3751 2.32505 21.6751 2.62505 21.6751 3.00005V21.0001Z" fill="#161A23"/>
<path d="M16.2751 13.3875L12.0001 17.625L7.7251 13.3875C7.3876 13.05 6.8626 13.05 6.5251 13.3875C6.1876 13.725 6.1876 14.25 6.5251 14.5875L11.4001 19.3875C11.5501 19.5375 11.7751 19.6125 12.0001 19.6125C12.2251 19.6125 12.4126 19.5375 12.6001 19.3875L17.4751 14.5875C17.8126 14.25 17.8126 13.725 17.4751 13.3875C17.1376 13.05 16.6126 13.05 16.2751 13.3875Z" fill="#161A23"/>
<path d="M12.6001 4.6125C12.2626 4.275 11.7376 4.275 11.4001 4.6125L6.5251 9.4125C6.1876 9.75 6.1876 10.275 6.5251 10.6125C6.8626 10.95 7.3876 10.95 7.7251 10.6125L12.0001 6.375L16.2751 10.575C16.4251 10.725 16.6501 10.8 16.8751 10.8C17.1001 10.8 17.3251 10.725 17.4751 10.5375C17.8126 10.2 17.8126 9.675 17.4751 9.3375L12.6001 4.6125Z" fill="#161A23"/>
</g>
<defs>
<clipPath id="clip0_501_41662">
<rect width="24" height="24" fill="white"/>
</clipPath>
</defs>
</svg>
