<svg width="24" height="24" viewBox="0 0 24 24" fill="none" xmlns="http://www.w3.org/2000/svg">
<g clip-path="url(#clip0_501_41594)">
<path d="M12 23.3624C5.73755 23.3624 0.675049 18.2624 0.675049 12C0.675049 5.73745 5.73755 0.637451 12 0.637451C18.2626 0.637451 23.3251 5.73745 23.3251 12C23.3251 18.2624 18.2626 23.3624 12 23.3624ZM12 2.32495C6.67505 2.32495 2.32505 6.67495 2.32505 12C2.32505 17.3249 6.67505 21.6749 12 21.6749C17.3251 21.6749 21.6751 17.3249 21.6751 12C21.6751 6.67495 17.3251 2.32495 12 2.32495Z" fill="#161A23"/>
<path d="M12.0001 19.65C11.7751 19.65 11.5876 19.575 11.4001 19.425L6.5251 14.625C6.1876 14.2875 6.1876 13.7625 6.5251 13.425C6.8626 13.0875 7.3876 13.0875 7.7251 13.425L12.0001 17.625L16.2751 13.425C16.6126 13.0875 17.1376 13.0875 17.4751 13.425C17.8126 13.7625 17.8126 14.2875 17.4751 14.625L12.6001 19.425C12.4126 19.5375 12.2251 19.65 12.0001 19.65Z" fill="#161A23"/>
<path d="M16.8751 10.8375C16.6501 10.8375 16.4626 10.7625 16.2751 10.6125L12.0001 6.375L7.7251 10.6125C7.3876 10.95 6.8626 10.95 6.5251 10.6125C6.1876 10.275 6.1876 9.75 6.5251 9.4125L11.4001 4.6125C11.7376 4.275 12.2626 4.275 12.6001 4.6125L17.4751 9.4125C17.8126 9.75 17.8126 10.275 17.4751 10.6125C17.3251 10.7625 17.1001 10.8375 16.8751 10.8375Z" fill="#161A23"/>
</g>
<defs>
<clipPath id="clip0_501_41594">
<rect width="24" height="24" fill="white"/>
</clipPath>
</defs>
</svg>
