<svg width="24" height="24" viewBox="0 0 24 24" fill="none" xmlns="http://www.w3.org/2000/svg">
<path d="M22.35 11.1375C22.2 10.875 21.975 10.6875 21.7125 10.5375L4.42502 0.862462C4.12502 0.712462 3.78752 0.637462 3.45002 0.674962C3.11252 0.712462 2.81252 0.824962 2.55002 1.04996C2.28752 1.27496 2.10002 1.57496 2.02502 1.87496C1.91252 2.21246 1.95002 2.54996 2.06252 2.88746L5.28752 12L2.06252 21.1125C1.95002 21.45 1.95002 21.7875 2.02502 22.0875C2.10002 22.425 2.28752 22.6875 2.55002 22.9125C2.81252 23.1375 3.11252 23.25 3.45002 23.2875C3.48752 23.2875 3.56252 23.2875 3.60002 23.2875C3.86252 23.2875 4.16252 23.2125 4.42502 23.0625L21.7125 13.3875C21.975 13.2375 22.2 13.05 22.35 12.7875C22.5 12.525 22.575 12.225 22.575 11.9625C22.575 11.7 22.5 11.4 22.35 11.1375ZM3.67502 2.36246L19.35 11.1375H6.78752L3.67502 2.36246ZM3.67502 21.6375L6.82502 12.8625H19.3875L3.67502 21.6375Z" fill="#161A23"/>
</svg>
