<svg width="24" height="24" viewBox="0 0 24 24" fill="none" xmlns="http://www.w3.org/2000/svg">
<path d="M6.1125 9.4875H7.2375C7.6875 9.4875 8.1 9.1125 8.1 8.625C8.1 8.1375 7.725 7.7625 7.2375 7.7625H6.1125C5.025 7.7625 4.125 8.6625 4.125 9.75V10.875C4.125 11.9625 5.025 12.8625 6.1125 12.8625C6.2625 12.8625 6.4125 12.975 6.4125 13.1625V14.2875C6.4125 14.4375 6.3 14.5875 6.1125 14.5875H4.9875C4.5375 14.5875 4.125 14.9625 4.125 15.45C4.125 15.9375 4.5 16.3125 4.9875 16.3125H6.1125C7.2 16.3125 8.1 15.4125 8.1 14.325V13.2C8.1 12.1125 7.2 11.2125 6.1125 11.2125C5.9625 11.2125 5.8125 11.1 5.8125 10.9125V9.7875C5.8125 9.6 5.9625 9.4875 6.1125 9.4875Z" fill="#161A23"/>
<path d="M11.55 9.4875H13.125C13.575 9.4875 13.9875 9.1125 13.9875 8.625C13.9875 8.1375 13.6125 7.7625 13.125 7.7625H11.55C10.4625 7.7625 9.5625 8.6625 9.5625 9.75V14.25C9.5625 15.3375 10.4625 16.2375 11.55 16.2375H13.125C13.575 16.2375 13.9875 15.8625 13.9875 15.375C13.9875 14.8875 13.6125 14.5125 13.125 14.5125H11.55C11.4 14.5125 11.25 14.4 11.25 14.2125V12.7875H12.225C12.675 12.7875 13.05 12.4125 13.05 11.925C13.05 11.475 12.675 11.0625 12.225 11.0625H11.25V9.75C11.25 9.6 11.4 9.4875 11.55 9.4875Z" fill="#161A23"/>
<path d="M17.85 7.79999H17.0625C15.9375 7.79999 15.0375 8.69999 15.0375 9.82499V14.2125C15.0375 15.3375 15.9375 16.2375 17.0625 16.2375H17.85C18.975 16.2375 19.875 15.3375 19.875 14.2125V9.78749C19.875 8.69999 18.975 7.79999 17.85 7.79999ZM18.1875 14.175C18.1875 14.3625 18.0375 14.5125 17.85 14.5125H17.0625C16.875 14.5125 16.725 14.3625 16.725 14.175V9.78749C16.725 9.59999 16.875 9.44999 17.0625 9.44999H17.85C18.0375 9.44999 18.1875 9.59999 18.1875 9.78749V14.175Z" fill="#161A23"/>
<path d="M21.3749 4.64999H2.62495C1.53745 4.64999 0.637451 5.54999 0.637451 6.63749V17.4375C0.637451 18.525 1.53745 19.425 2.62495 19.425H21.3749C22.4625 19.425 23.3624 18.525 23.3624 17.4375V6.59999C23.3624 5.51249 22.4625 4.64999 21.3749 4.64999ZM21.6749 17.4C21.6749 17.55 21.5624 17.7 21.3749 17.7H2.62495C2.47495 17.7 2.32495 17.5875 2.32495 17.4V6.59999C2.32495 6.44999 2.43745 6.29999 2.62495 6.29999H21.3749C21.525 6.29999 21.6749 6.41249 21.6749 6.59999V17.4Z" fill="#161A23"/>
</svg>
