<svg width="24" height="24" viewBox="0 0 24 24" fill="none" xmlns="http://www.w3.org/2000/svg">
<path d="M21.3749 2.47501H2.62495C1.34995 2.47501 0.262451 3.52501 0.262451 4.83751V14.7375C0.262451 16.0125 1.31245 17.1 2.62495 17.1H11.1749V19.875H7.04995C6.59995 19.875 6.18745 20.25 6.18745 20.7375C6.18745 21.225 6.56245 21.6 7.04995 21.6H16.9499C17.4 21.6 17.8125 21.225 17.8125 20.7375C17.8125 20.25 17.4375 19.875 16.9499 19.875H12.8624V17.1H21.3749C22.65 17.1 23.7374 16.05 23.7374 14.7375V4.80001C23.7374 3.52501 22.65 2.47501 21.3749 2.47501ZM22.0499 14.7C22.0499 15.075 21.7499 15.375 21.3749 15.375H2.62495C2.24995 15.375 1.94995 15.075 1.94995 14.7V4.80001C1.94995 4.42501 2.24995 4.12501 2.62495 4.12501H21.3749C21.7499 4.12501 22.0499 4.42501 22.0499 4.80001V14.7Z" fill="#161A23"/>
<path d="M6.03743 7.65H7.53743C7.98743 7.65 8.39993 7.275 8.39993 6.7875C8.39993 6.3 8.02493 5.925 7.53743 5.925H6.03743C4.76243 5.925 3.71243 6.975 3.71243 8.25C3.71243 9.525 4.76243 10.575 6.03743 10.575C6.37493 10.575 6.67493 10.875 6.67493 11.2125C6.67493 11.55 6.37493 11.85 6.03743 11.85H4.53743C4.08743 11.85 3.67493 12.225 3.67493 12.7125C3.67493 13.1625 4.04993 13.575 4.53743 13.575H6.03743C7.31243 13.575 8.36243 12.525 8.36243 11.25C8.36243 9.975 7.31243 8.925 6.03743 8.925C5.69993 8.925 5.39993 8.625 5.39993 8.2875C5.39993 7.95 5.69993 7.65 6.03743 7.65Z" fill="#161A23"/>
<path d="M11.9625 7.65H13.4625C13.9125 7.65 14.325 7.275 14.325 6.7875C14.325 6.3 13.95 5.925 13.4625 5.925H11.9625C10.6875 5.925 9.63745 6.975 9.63745 8.25V11.25C9.63745 12.525 10.6875 13.575 11.9625 13.575H13.4625C13.9125 13.575 14.325 13.2 14.325 12.7125C14.325 12.2625 13.95 11.85 13.4625 11.85H11.9625C11.625 11.85 11.325 11.55 11.325 11.2125V10.575H13.4625C13.9125 10.575 14.325 10.2 14.325 9.7125C14.325 9.225 13.95 8.85 13.4625 8.85H11.325V8.2125C11.325 7.9125 11.625 7.65 11.9625 7.65Z" fill="#161A23"/>
<path d="M18.3375 5.96251H17.475C16.425 5.96251 15.5625 6.82501 15.5625 7.87501V11.7C15.5625 12.75 16.425 13.6125 17.475 13.6125H18.3375C19.3875 13.6125 20.25 12.75 20.25 11.7V7.83751C20.2125 6.78751 19.3875 5.96251 18.3375 5.96251ZM18.525 11.6625C18.525 11.775 18.4125 11.8875 18.3 11.8875H17.4375C17.325 11.8875 17.2125 11.775 17.2125 11.6625V7.83751C17.2125 7.72501 17.325 7.61251 17.4375 7.61251H18.3C18.4125 7.61251 18.525 7.72501 18.525 7.83751V11.6625Z" fill="#161A23"/>
</svg>
