<svg width="24" height="24" viewBox="0 0 24 24" fill="none" xmlns="http://www.w3.org/2000/svg">
<path d="M17.4 18.3C17.85 18.3 18.2625 17.925 18.2625 17.4375C18.2625 16.95 17.8875 16.575 17.4 16.575H16.5C16.95 16.1625 17.55 15.9375 18.1875 15.9375C19.0125 15.9375 19.7625 16.3125 20.2125 16.95C20.475 17.325 21 17.4375 21.375 17.175C21.75 16.9125 21.8625 16.3875 21.6 16.0125C20.85 14.925 19.575 14.25 18.1875 14.25C16.3125 14.25 14.7 15.4875 14.25 17.2125C14.175 17.475 14.25 17.7375 14.4 17.9625C14.55 18.1875 14.8125 18.3 15.075 18.3H17.4Z" fill="#161A23"/>
<path d="M21.375 18.375H19.2375C18.75 18.375 18.375 18.75 18.375 19.2C18.375 19.65 18.75 20.0625 19.2375 20.0625H19.9875C19.5375 20.55 18.9 20.8875 18.1875 20.8875C17.5125 20.8875 16.875 20.5875 16.425 20.1C16.125 19.7625 15.5625 19.725 15.225 20.0625C14.8875 20.3625 14.85 20.925 15.1875 21.2625C15.975 22.125 17.0625 22.6125 18.1875 22.6125C20.0625 22.6125 21.7125 21.3375 22.2 19.4625C22.275 19.2 22.2 18.9375 22.05 18.75C21.9 18.5625 21.6 18.375 21.375 18.375Z" fill="#161A23"/>
<path d="M23.3625 3.78755C23.3625 2.51255 22.3125 1.42505 21 1.42505H3C1.725 1.42505 0.637497 2.47505 0.637497 3.78755V8.43755C0.637497 9.00005 0.824997 9.52505 1.1625 9.93755C0.824997 10.35 0.637497 10.8376 0.637497 11.4001V16.1625C0.637497 17.4375 1.65 18.4501 2.925 18.4501H10.875C11.325 18.4501 11.7375 18.0751 11.7375 17.5876C11.7375 17.1001 11.3625 16.725 10.875 16.725H2.9625C2.625 16.725 2.3625 16.4626 2.3625 16.1251V11.4001C2.3625 11.0625 2.625 10.8 2.9625 10.8H21.075C21.4125 10.8 21.675 11.0625 21.675 11.4001V13.6501C21.675 14.1001 22.05 14.5126 22.5375 14.5126C23.025 14.5126 23.4 14.1376 23.4 13.6501V11.4001C23.4 10.8376 23.2125 10.35 22.875 9.93755C23.2125 9.52505 23.4 9.00005 23.4 8.43755V3.78755H23.3625ZM3 9.11255C2.625 9.11255 2.325 8.81255 2.325 8.43755V3.78755C2.325 3.41255 2.625 3.11255 3 3.11255H21C21.375 3.11255 21.675 3.41255 21.675 3.78755V8.43755C21.675 8.81255 21.375 9.11255 21 9.11255H3Z" fill="#161A23"/>
<path d="M6.0375 5.17505C5.5875 5.17505 5.175 5.55005 5.175 6.03755V6.11255C5.175 6.56255 5.55 6.97505 6.0375 6.97505C6.525 6.97505 6.9 6.60005 6.9 6.11255V6.03755C6.9 5.55005 6.525 5.17505 6.0375 5.17505Z" fill="#161A23"/>
<path d="M18.7875 5.21252H16.35C15.9 5.21252 15.4875 5.58752 15.4875 6.07502C15.4875 6.56252 15.8625 6.93752 16.35 6.93752H18.7875C19.2375 6.93752 19.65 6.56252 19.65 6.07502C19.65 5.58752 19.275 5.21252 18.7875 5.21252Z" fill="#161A23"/>
<path d="M5.21249 13.6876V13.7626C5.21249 14.2126 5.58749 14.6251 6.07499 14.6251C6.56249 14.6251 6.93749 14.2501 6.93749 13.7626V13.6876C6.93749 13.2376 6.56249 12.8251 6.07499 12.8251C5.58749 12.8251 5.21249 13.2376 5.21249 13.6876Z" fill="#161A23"/>
</svg>
