<svg width="24" height="24" viewBox="0 0 24 24" fill="none" xmlns="http://www.w3.org/2000/svg">
<path d="M22.425 10.0125C22.425 9.59995 22.3125 9.18745 22.125 8.84995C22.125 8.84995 22.125 8.84995 22.125 8.81245L19.65 2.54995C19.2 1.38745 18.075 0.637451 16.8375 0.637451H7.16249C5.92499 0.637451 4.79999 1.38745 4.34999 2.54995L1.91249 8.81245C1.91249 8.81245 1.91249 8.81245 1.91249 8.84995C1.72499 9.18745 1.61249 9.59995 1.61249 10.0125V14.025C1.61249 14.6625 1.87499 15.2624 2.28749 15.6749C1.87499 16.1624 1.61249 16.7999 1.61249 17.5124V21.0749C1.61249 22.3499 2.62499 23.3624 3.89999 23.3624H20.175C21.45 23.3624 22.4625 22.3499 22.4625 21.0749V16.9499C22.4625 16.3875 22.275 15.8999 21.9375 15.4874C22.275 15.0749 22.4625 14.5499 22.4625 13.9874V10.0125H22.425ZM20.7375 10.0125V14.025C20.7375 14.4 20.4375 14.7 20.0625 14.7H3.89999C3.52499 14.7 3.22499 14.4 3.22499 14.025V10.0125C3.22499 9.63745 3.52499 9.33745 3.89999 9.33745H20.0625C20.4375 9.33745 20.7375 9.63745 20.7375 10.0125ZM5.92499 3.18745C6.11249 2.66245 6.59999 2.36245 7.16249 2.36245H16.8375C17.4 2.36245 17.8875 2.69995 18.075 3.18745L19.8375 7.68745H4.16249L5.92499 3.18745ZM20.7375 21.0374C20.7375 21.3749 20.475 21.6374 20.1375 21.6374H3.86249C3.52499 21.6374 3.26249 21.3749 3.26249 21.0374V17.4749C3.26249 16.8749 3.74999 16.3499 4.38749 16.3499H20.1375C20.475 16.3499 20.7375 16.6124 20.7375 16.9499V21.0374Z" fill="#161A23"/>
<path d="M6.56251 12.825C7.01251 12.825 7.42501 12.45 7.42501 12V11.925C7.42501 11.475 7.05001 11.0625 6.56251 11.0625C6.07501 11.0625 5.70001 11.4375 5.70001 11.925V12C5.73751 12.45 6.11251 12.825 6.56251 12.825Z" fill="#161A23"/>
<path d="M15.975 12.825H18.1875C18.6375 12.825 19.05 12.45 19.05 11.9625C19.05 11.475 18.675 11.1 18.1875 11.1H15.975C15.525 11.1 15.1125 11.475 15.1125 11.9625C15.1125 12.45 15.525 12.825 15.975 12.825Z" fill="#161A23"/>
<path d="M6.56251 18.075C6.11251 18.075 5.70001 18.45 5.70001 18.9375V19.0125C5.70001 19.4625 6.07501 19.875 6.56251 19.875C7.05001 19.875 7.42501 19.5 7.42501 19.0125V18.9375C7.42501 18.45 7.05001 18.075 6.56251 18.075Z" fill="#161A23"/>
<path d="M18.225 18.3374H16.0125C15.5625 18.3374 15.15 18.7124 15.15 19.1999C15.15 19.6874 15.525 20.0624 16.0125 20.0624H18.225C18.675 20.0624 19.0875 19.6874 19.0875 19.1999C19.0875 18.7124 18.675 18.3374 18.225 18.3374Z" fill="#161A23"/>
</svg>
