<svg width="24" height="24" viewBox="0 0 24 24" fill="none" xmlns="http://www.w3.org/2000/svg">
<path d="M22.425 2.99995C22.425 1.72495 21.375 0.637451 20.0625 0.637451H3.90001C2.62501 0.674951 1.57501 1.72495 1.57501 2.99995V7.01245C1.57501 7.64995 1.83751 8.24995 2.25001 8.66245C1.83751 9.14995 1.57501 9.78745 1.57501 10.5V14.1C1.57501 14.7375 1.83751 15.3 2.21251 15.7125C1.80001 16.2 1.57501 16.8375 1.57501 17.5125V21.1124C1.57501 22.3875 2.58751 23.4 3.86251 23.4H20.175C21.45 23.4 22.4625 22.3875 22.4625 21.1124V16.9874C22.4625 16.425 22.275 15.9375 21.9375 15.5625C22.275 15.15 22.4625 14.6625 22.4625 14.1375V10.0125C22.4625 9.44995 22.275 8.96245 21.9375 8.54995C22.275 8.13745 22.4625 7.61245 22.4625 7.04995V2.99995H22.425ZM20.7375 14.0625C20.7375 14.3625 20.5125 14.625 20.2125 14.6625C20.175 14.6625 20.1375 14.6625 20.1375 14.6625H4.38751C4.31251 14.6625 4.20001 14.6625 4.12501 14.6625H3.86251C3.52501 14.6625 3.26251 14.4 3.26251 14.0625V10.4625C3.26251 9.82495 3.75001 9.33745 4.38751 9.33745H20.175C20.5125 9.33745 20.775 9.59995 20.775 9.93745V14.0625H20.7375ZM3.26251 2.99995C3.26251 2.62495 3.56251 2.32495 3.93751 2.32495H20.1375C20.5125 2.32495 20.8125 2.62495 20.8125 2.99995V7.01245C20.8125 7.38745 20.5125 7.68745 20.1375 7.68745H3.90001C3.52501 7.68745 3.22501 7.38745 3.22501 7.01245V2.99995H3.26251ZM20.7375 21.0375C20.7375 21.375 20.475 21.6375 20.1375 21.6375H3.86251C3.52501 21.6375 3.26251 21.375 3.26251 21.0375V17.4375C3.26251 16.875 3.71251 16.3875 4.23751 16.3125H20.1375C20.175 16.3125 20.2125 16.3125 20.2125 16.3125C20.5125 16.35 20.7375 16.6125 20.7375 16.9125V21.0375Z" fill="#161A23"/>
<path d="M6.56251 5.81245C7.01251 5.81245 7.42501 5.43745 7.42501 4.94995V4.87495C7.42501 4.42495 7.05001 4.01245 6.56251 4.01245C6.07501 4.01245 5.70001 4.38745 5.70001 4.87495V4.94995C5.73751 5.43745 6.11251 5.81245 6.56251 5.81245Z" fill="#161A23"/>
<path d="M15.975 5.8124H18.225C18.675 5.8124 19.0875 5.4374 19.0875 4.9499C19.0875 4.4624 18.7125 4.0874 18.225 4.0874H15.975C15.525 4.0874 15.1125 4.4624 15.1125 4.9499C15.1125 5.4374 15.525 5.8124 15.975 5.8124Z" fill="#161A23"/>
<path d="M6.56251 11.1C6.11251 11.1 5.70001 11.475 5.70001 11.9625V12C5.70001 12.45 6.07501 12.825 6.56251 12.825C7.05001 12.825 7.42501 12.45 7.42501 12V11.925C7.42501 11.475 7.01251 11.1 6.56251 11.1Z" fill="#161A23"/>
<path d="M18.225 11.325H15.975C15.525 11.325 15.1125 11.7 15.1125 12.1875C15.1125 12.6375 15.4875 13.05 15.975 13.05H18.225C18.675 13.05 19.0875 12.675 19.0875 12.1875C19.05 11.7 18.675 11.325 18.225 11.325Z" fill="#161A23"/>
<path d="M6.56251 18.075C6.11251 18.075 5.70001 18.45 5.70001 18.9375V19.0125C5.70001 19.4625 6.07501 19.875 6.56251 19.875C7.05001 19.875 7.42501 19.5 7.42501 19.0125V18.9375C7.42501 18.45 7.01251 18.075 6.56251 18.075Z" fill="#161A23"/>
<path d="M18.225 18.3374H15.975C15.525 18.3374 15.1125 18.7124 15.1125 19.1999C15.1125 19.6874 15.4875 20.0624 15.975 20.0624H18.225C18.675 20.0624 19.0875 19.6874 19.0875 19.1999C19.0875 18.7124 18.675 18.3374 18.225 18.3374Z" fill="#161A23"/>
</svg>
