<svg width="24" height="24" viewBox="0 0 24 24" fill="none" xmlns="http://www.w3.org/2000/svg">
<path d="M23.3625 3.78755C23.3625 2.51255 22.3125 1.42505 21 1.42505H3C1.725 1.42505 0.637497 2.47505 0.637497 3.78755V8.43755C0.637497 9.00005 0.824997 9.52505 1.1625 9.93755C0.824997 10.35 0.637497 10.8376 0.637497 11.4001V16.1625C0.637497 17.4375 1.65 18.4501 2.925 18.4501H10.875C11.325 18.4501 11.7375 18.0751 11.7375 17.5876C11.7375 17.1001 11.3625 16.725 10.875 16.725H2.9625C2.625 16.725 2.3625 16.4626 2.3625 16.1251V11.4001C2.3625 11.0625 2.625 10.8 2.9625 10.8H21.075C21.4125 10.8 21.675 11.0625 21.675 11.4001V13.6501C21.675 14.1001 22.05 14.5126 22.5375 14.5126C23.025 14.5126 23.4 14.1376 23.4 13.6501V11.4001C23.4 10.8376 23.2125 10.35 22.875 9.93755C23.2125 9.52505 23.4 9.00005 23.4 8.43755V3.78755H23.3625ZM3 9.11255C2.625 9.11255 2.325 8.81255 2.325 8.43755V3.78755C2.325 3.41255 2.625 3.11255 3 3.11255H21C21.375 3.11255 21.675 3.41255 21.675 3.78755V8.43755C21.675 8.81255 21.375 9.11255 21 9.11255H3Z" fill="#161A23"/>
<path d="M6.0375 5.21265C5.5875 5.21265 5.175 5.58765 5.175 6.07515V6.15015C5.175 6.60015 5.55 7.01265 6.0375 7.01265C6.525 7.01265 6.9 6.63765 6.9 6.15015V6.07515C6.9 5.58765 6.525 5.21265 6.0375 5.21265Z" fill="#161A23"/>
<path d="M18.7875 5.21265H16.35C15.9 5.21265 15.4875 5.58765 15.4875 6.07515C15.4875 6.56265 15.8625 6.93765 16.35 6.93765H18.7875C19.2375 6.93765 19.65 6.56265 19.65 6.07515C19.65 5.58765 19.275 5.21265 18.7875 5.21265Z" fill="#161A23"/>
<path d="M5.21249 13.6875V13.7625C5.21249 14.2125 5.58749 14.625 6.07499 14.625C6.56249 14.625 6.93749 14.25 6.93749 13.7625V13.6875C6.93749 13.2375 6.56249 12.825 6.07499 12.825C5.58749 12.825 5.21249 13.2375 5.21249 13.6875Z" fill="#161A23"/>
<path d="M20.8125 14.5125H14.325C13.4625 14.5125 12.75 15.225 12.75 16.0875V21C12.75 21.8625 13.4625 22.575 14.325 22.575H20.8125C21.675 22.575 22.3875 21.8625 22.3875 21V16.05C22.3875 15.1875 21.675 14.5125 20.8125 14.5125ZM20.7 16.2V18.45L19.3875 17.775C19.125 17.6625 18.8625 17.6625 18.6 17.775L14.4375 19.9875V16.2H20.7ZM16.425 20.85L19.0125 19.4625L20.7 20.325V20.85H16.425Z" fill="#161A23"/>
<path d="M15.825 18.3001C16.275 18.3001 16.6875 17.9251 16.6875 17.4376V17.4001C16.6875 16.9501 16.3125 16.5376 15.825 16.5376C15.3375 16.5376 14.9625 16.9126 14.9625 17.4001V17.4376C15 17.9251 15.375 18.3001 15.825 18.3001Z" fill="#161A23"/>
</svg>
