<svg width="24" height="24" viewBox="0 0 24 24" fill="none" xmlns="http://www.w3.org/2000/svg">
<path d="M22.6125 16.5C22.6125 16.4625 22.575 16.425 22.575 16.3875L21.825 15.15C21.6 14.775 21.1125 14.625 20.7 14.775C20.6625 14.775 20.625 14.8125 20.5875 14.8125L20.175 15.0375C20.1375 15 20.1 15 20.0625 14.9625V14.775C20.0625 14.1375 19.5375 13.6125 18.9 13.6125H17.5875C16.95 13.6125 16.425 14.1375 16.425 14.775V15C16.3875 15.0375 16.35 15.0375 16.3125 15.075L15.975 14.8875C15.4125 14.5875 14.8875 14.8125 14.6625 15.1875L13.875 16.3875C13.7625 16.6125 13.725 16.875 13.8 17.1C13.875 17.325 14.025 17.55 14.25 17.6625L14.6625 17.8875C14.6625 17.925 14.6625 17.9625 14.6625 18C14.6625 18.0375 14.6625 18.075 14.6625 18.1125L14.2125 18.375C13.8 18.6 13.65 19.0875 13.8375 19.5375C13.8375 19.575 13.875 19.6126 13.875 19.6501L14.625 20.8875C14.85 21.2625 15.3375 21.4125 15.75 21.2625C15.7875 21.2625 15.825 21.225 15.8625 21.225L16.275 21C16.3125 21.0375 16.35 21.075 16.3875 21.075V21.3376C16.3875 21.975 16.9125 22.5 17.55 22.5H18.8625C19.5 22.5 20.025 21.975 20.025 21.3376V21.075C20.0625 21.0375 20.1 21.0375 20.1375 21L20.475 21.1875C21.0375 21.4875 21.5625 21.2625 21.7875 20.8875L22.5 19.6501C22.6125 19.4251 22.65 19.1625 22.6125 18.9375C22.5375 18.7125 22.3875 18.4875 22.1625 18.375L21.75 18.1501C21.75 18.1126 21.75 18.075 21.75 18.0375C21.75 18 21.75 17.9625 21.75 17.925L22.2 17.7C22.6125 17.4 22.7625 16.9125 22.6125 16.5ZM20.0625 17.7375C20.0625 17.8125 20.1 17.925 20.1 18.0375C20.1 18.15 20.1 18.225 20.0625 18.3376C20.025 18.6751 20.1 18.975 20.325 19.2C20.025 19.1251 19.6875 19.2 19.425 19.425C19.35 19.4625 19.3125 19.5375 19.2375 19.575C19.125 19.6876 19.0875 19.725 19.0125 19.7625C18.6 19.95 18.3375 20.3625 18.3375 20.8125V20.8875H18.075V20.85C18.075 20.4 17.8125 19.9875 17.4 19.8C17.325 19.7625 17.2875 19.725 17.175 19.6125C17.1375 19.575 17.0625 19.5001 16.9875 19.4626C16.725 19.2751 16.3875 19.2001 16.0875 19.2751C16.3125 19.0501 16.3875 18.75 16.35 18.4125C16.35 18.3 16.3125 18.1875 16.3125 18.075C16.3125 17.9625 16.3125 17.8875 16.35 17.7751C16.3875 17.4376 16.3125 17.1375 16.0875 16.875C16.3875 16.95 16.725 16.8751 16.9875 16.65C17.0625 16.6126 17.1 16.5375 17.1375 16.5C17.25 16.3875 17.325 16.35 17.3625 16.3125C17.775 16.125 18.0375 15.7125 18.0375 15.2625H18.3C18.3 15.7125 18.5625 16.0875 18.975 16.275C19.05 16.3125 19.0875 16.35 19.2 16.4625C19.275 16.5 19.3125 16.575 19.3875 16.6125C19.65 16.8375 19.9875 16.875 20.2875 16.8C20.1 17.0625 20.025 17.4 20.0625 17.7375Z" fill="#161A23"/>
<path d="M23.3625 3.825C23.3625 2.55 22.275 1.5 21 1.5H3.00001C1.72501 1.5 0.637512 2.55 0.637512 3.8625V8.5125C0.637512 9.075 0.825012 9.6 1.16251 10.0125C0.825012 10.425 0.637512 10.9125 0.637512 11.475V16.2375C0.637512 17.5125 1.65001 18.525 2.92501 18.525H11.25C11.7 18.525 12.1125 18.15 12.1125 17.6625C12.1125 17.175 11.7375 16.8 11.25 16.8H2.96251C2.62501 16.8 2.36251 16.5375 2.36251 16.2V11.4375C2.36251 11.1 2.62501 10.8375 2.96251 10.8375H3.00001H21H21.0375C21.375 10.8375 21.6375 11.1 21.6375 11.4375V13.3125C21.6375 13.7625 22.0125 14.175 22.5 14.175C22.9875 14.175 23.3625 13.8 23.3625 13.3125V11.4375C23.3625 10.875 23.175 10.3875 22.8375 9.975C23.175 9.5625 23.3625 9.0375 23.3625 8.475V3.825ZM3.00001 9.15C2.62501 9.15 2.32501 8.85 2.32501 8.475V3.825C2.32501 3.45 2.62501 3.15 3.00001 3.15H21C21.375 3.15 21.675 3.45 21.675 3.825V8.475C21.675 8.85 21.375 9.15 21 9.15H3.00001Z" fill="#161A23"/>
<path d="M6.03752 5.25C5.58752 5.25 5.17502 5.625 5.17502 6.1125V6.1875C5.17502 6.6375 5.55002 7.05 6.03752 7.05C6.52502 7.05 6.90002 6.675 6.90002 6.1875V6.1125C6.90002 5.625 6.52502 5.25 6.03752 5.25Z" fill="#161A23"/>
<path d="M18.7875 5.25H16.35C15.9 5.25 15.4875 5.625 15.4875 6.1125C15.4875 6.6 15.8625 6.975 16.35 6.975H18.7875C19.2375 6.975 19.65 6.6 19.65 6.1125C19.65 5.625 19.275 5.25 18.7875 5.25Z" fill="#161A23"/>
<path d="M5.21252 13.725V13.8C5.21252 14.25 5.58752 14.6625 6.07502 14.6625C6.56252 14.6625 6.93752 14.2875 6.93752 13.8V13.725C6.93752 13.275 6.56252 12.8625 6.07502 12.8625C5.58752 12.8625 5.21252 13.275 5.21252 13.725Z" fill="#161A23"/>
<path d="M18.0375 17.2125C18 17.2125 17.925 17.25 17.8875 17.25C17.85 17.2875 17.775 17.2875 17.7375 17.325C17.7 17.3625 17.6625 17.4 17.625 17.4375C17.475 17.5875 17.3625 17.8125 17.3625 18.0375C17.3625 18.2625 17.4375 18.4875 17.625 18.6375C17.6625 18.675 17.7 18.7125 17.7375 18.75C17.775 18.7875 17.85 18.825 17.8875 18.825C17.925 18.8625 18 18.8625 18.0375 18.8625C18.075 18.8625 18.15 18.8625 18.1875 18.8625C18.2625 18.8625 18.3 18.8625 18.3375 18.8625C18.375 18.8625 18.45 18.825 18.4875 18.825C18.525 18.7875 18.6 18.7875 18.6375 18.75C18.675 18.7125 18.7125 18.675 18.75 18.6375C18.9 18.4875 19.0125 18.2625 19.0125 18.0375C19.0125 17.8125 18.9375 17.5875 18.75 17.4375C18.6 17.25 18.3 17.175 18.0375 17.2125Z" fill="#161A23"/>
</svg>
