<svg width="24" height="24" viewBox="0 0 24 24" fill="none" xmlns="http://www.w3.org/2000/svg">
<path d="M22.3125 2.99995C22.3125 1.72495 21.2625 0.637451 19.95 0.637451H4.0125C2.7375 0.674951 1.6875 1.72495 1.6875 2.99995V6.89995C1.6875 7.46245 1.875 7.98745 2.2125 8.39995C1.875 8.81245 1.6875 9.29995 1.6875 9.86245V13.875C1.6875 15.15 2.7 16.1625 3.975 16.1625H11.1375V17.7374C10.2375 18 9.525 18.75 9.225 19.65H4.0875C3.6375 19.65 3.225 20.025 3.225 20.5125C3.225 21 3.6 21.375 4.0875 21.375H9.225C9.6 22.5375 10.6875 23.4 11.9625 23.4C13.2375 23.4 14.325 22.5375 14.7 21.375H19.8375C20.2875 21.375 20.7 21 20.7 20.5125C20.7 20.025 20.325 19.65 19.8375 19.65H14.7375C14.475 18.75 13.7625 18.0375 12.825 17.7374V16.1625H19.9875C21.2625 16.1625 22.275 15.15 22.275 13.875V9.86245C22.275 9.29995 22.0875 8.81245 21.75 8.39995C22.0875 7.98745 22.275 7.46245 22.275 6.89995V2.99995H22.3125ZM12 21.6749C11.3625 21.6749 10.8375 21.15 10.8375 20.5125C10.8375 19.875 11.3625 19.35 12 19.35C12.6375 19.35 13.1625 19.875 13.1625 20.5125C13.1625 21.15 12.6375 21.6749 12 21.6749ZM3.375 2.99995C3.375 2.62495 3.675 2.32495 4.05 2.32495H19.9875C20.325 2.36245 20.625 2.62495 20.625 2.99995V6.89995C20.625 7.27495 20.325 7.57495 19.95 7.57495H4.0125C3.6375 7.57495 3.3375 7.27495 3.3375 6.89995V2.99995H3.375ZM20.625 13.875C20.625 14.2125 20.3625 14.475 20.025 14.475H3.975C3.6375 14.475 3.375 14.2125 3.375 13.875V9.86245C3.375 9.52495 3.6375 9.26245 3.975 9.26245H20.025C20.3625 9.26245 20.625 9.52495 20.625 9.86245V13.875Z" fill="#161A23"/>
<path d="M6.63752 5.77495C7.08752 5.77495 7.50002 5.39995 7.50002 4.91245V4.87495C7.50002 4.42495 7.12502 4.01245 6.63752 4.01245C6.15002 4.01245 5.77502 4.38745 5.77502 4.87495V4.94995C5.77502 5.39995 6.18752 5.77495 6.63752 5.77495Z" fill="#161A23"/>
<path d="M15.9375 5.73745H18.15C18.6 5.73745 19.0125 5.36245 19.0125 4.87495C19.0125 4.38745 18.6375 4.01245 18.15 4.01245H15.9375C15.4875 4.01245 15.075 4.38745 15.075 4.87495C15.075 5.36245 15.4875 5.73745 15.9375 5.73745Z" fill="#161A23"/>
<path d="M6.63752 10.95C6.18752 10.95 5.77502 11.325 5.77502 11.8125V11.8875C5.77502 12.3375 6.15002 12.75 6.63752 12.75C7.12502 12.75 7.50002 12.375 7.50002 11.8875V11.8125C7.46252 11.325 7.08752 10.95 6.63752 10.95Z" fill="#161A23"/>
<path d="M18.15 11.1749H15.9375C15.4875 11.1749 15.075 11.5499 15.075 12.0374C15.075 12.4874 15.45 12.8999 15.9375 12.8999H18.15C18.6 12.8999 19.0125 12.5249 19.0125 12.0374C18.975 11.5874 18.6 11.1749 18.15 11.1749Z" fill="#161A23"/>
</svg>
