<svg width="24" height="24" viewBox="0 0 24 24" fill="none" xmlns="http://www.w3.org/2000/svg">
<path d="M18.7875 13.8375C16.3875 13.8375 14.4375 15.7875 14.4375 18.1875C14.4375 20.5875 16.3875 22.5375 18.7875 22.5375C21.1875 22.5375 23.1375 20.5875 23.1375 18.1875C23.1375 15.7875 21.1875 13.8375 18.7875 13.8375ZM18.7875 20.85C17.325 20.85 16.125 19.65 16.125 18.1875C16.125 16.725 17.325 15.525 18.7875 15.525C20.25 15.525 21.45 16.725 21.45 18.1875C21.45 19.65 20.2875 20.85 18.7875 20.85Z" fill="#161A23"/>
<path d="M20.0625 18.3375L19.425 18.075V17.1C19.425 16.65 19.05 16.2375 18.5625 16.2375C18.075 16.2375 17.7 16.6125 17.7 17.1V18.675C17.7 19.0125 17.925 19.35 18.225 19.4625L19.425 19.9125C19.5375 19.95 19.6125 19.95 19.725 19.95C20.0625 19.95 20.4 19.725 20.5125 19.425C20.7 18.975 20.5125 18.4875 20.0625 18.3375Z" fill="#161A23"/>
<path d="M23.3625 3.78755C23.3625 2.51255 22.3125 1.42505 21 1.42505H3.00001C1.72501 1.42505 0.637512 2.47505 0.637512 3.78755V8.43755C0.637512 9.00005 0.825012 9.52505 1.16251 9.93755C0.825012 10.35 0.637512 10.8376 0.637512 11.4001V16.1625C0.637512 17.4375 1.65001 18.4501 2.92501 18.4501H12.7125C13.1625 18.4501 13.575 18.0751 13.575 17.5876C13.575 17.1001 13.2 16.725 12.7125 16.725H2.96251C2.62501 16.725 2.36251 16.4626 2.36251 16.1251V11.4001C2.36251 11.0625 2.62501 10.8 2.96251 10.8H3.00001H21H21.0375C21.375 10.8 21.6375 11.0625 21.6375 11.4001V13.2751C21.6375 13.7251 22.0125 14.1376 22.5 14.1376C22.9875 14.1376 23.3625 13.7626 23.3625 13.2751V11.4001C23.3625 10.8376 23.175 10.35 22.8375 9.93755C23.175 9.52505 23.3625 9.00005 23.3625 8.43755V3.78755ZM3.00001 9.11255C2.62501 9.11255 2.32501 8.81255 2.32501 8.43755V3.78755C2.32501 3.41255 2.62501 3.11255 3.00001 3.11255H21C21.375 3.11255 21.675 3.41255 21.675 3.78755V8.43755C21.675 8.81255 21.375 9.11255 21 9.11255H3.00001Z" fill="#161A23"/>
<path d="M6.03749 5.21252C5.58749 5.21252 5.17499 5.58752 5.17499 6.07502V6.15002C5.17499 6.60002 5.54999 7.01252 6.03749 7.01252C6.52499 7.01252 6.89999 6.63752 6.89999 6.15002V6.07502C6.89999 5.58752 6.52499 5.21252 6.03749 5.21252Z" fill="#161A23"/>
<path d="M18.7875 5.25H16.35C15.9 5.25 15.4875 5.625 15.4875 6.1125C15.4875 6.6 15.8625 6.975 16.35 6.975H18.7875C19.2375 6.975 19.65 6.6 19.65 6.1125C19.65 5.625 19.275 5.25 18.7875 5.25Z" fill="#161A23"/>
<path d="M5.21252 13.725V13.8C5.21252 14.25 5.58752 14.6625 6.07502 14.6625C6.56252 14.6625 6.93752 14.2875 6.93752 13.8V13.725C6.93752 13.275 6.56252 12.8625 6.07502 12.8625C5.58752 12.8625 5.21252 13.2375 5.21252 13.725Z" fill="#161A23"/>
</svg>
