<svg width="24" height="24" viewBox="0 0 24 24" fill="none" xmlns="http://www.w3.org/2000/svg">
<path d="M21 13.875L17.85 12.825C17.6625 12.75 17.5125 12.75 17.325 12.825L14.175 13.875C13.8375 13.9875 13.6125 14.325 13.6125 14.6625V16.875C13.6125 17.8875 13.6875 18.5625 13.8375 19.125C14.25 20.7375 15.4125 21.5625 17.25 22.425C17.3625 22.4625 17.475 22.5 17.625 22.5C17.7375 22.5 17.85 22.4625 18 22.425C21.15 20.9625 21.6375 19.7625 21.6375 16.6875V14.6625C21.6 14.2875 21.3375 13.9875 21 13.875ZM19.9125 16.6875C19.9125 18.975 19.8375 19.65 17.5875 20.7375C16.0125 19.95 15.6375 19.425 15.45 18.7125C15.3375 18.3 15.3 17.7375 15.3 16.875V15.2625L17.625 14.5125L19.95 15.2625V16.6875H19.9125Z" fill="#161A23"/>
<path d="M23.3625 3.825C23.3625 2.55 22.275 1.5 21 1.5H3.00001C1.72501 1.5 0.637512 2.55 0.637512 3.8625V8.5125C0.637512 9.075 0.825012 9.6 1.16251 10.0125C0.825012 10.425 0.637512 10.9125 0.637512 11.475V16.2375C0.637512 17.5125 1.65001 18.525 2.92501 18.525H10.875C11.325 18.525 11.7375 18.15 11.7375 17.6625C11.7375 17.175 11.3625 16.8 10.875 16.8H2.96251C2.62501 16.8 2.36251 16.5375 2.36251 16.2V11.4375C2.36251 11.1 2.62501 10.8375 2.96251 10.8375H3.00001H21H21.0375C21.375 10.8375 21.6375 11.1 21.6375 11.4375V13.3125C21.6375 13.7625 22.0125 14.175 22.5 14.175C22.9875 14.175 23.3625 13.8 23.3625 13.3125V11.4375C23.3625 10.875 23.175 10.3875 22.8375 9.975C23.175 9.5625 23.3625 9.0375 23.3625 8.475V3.825ZM3.00001 9.15C2.62501 9.15 2.32501 8.85 2.32501 8.475V3.825C2.32501 3.45 2.62501 3.15 3.00001 3.15H21C21.375 3.15 21.675 3.45 21.675 3.825V8.475C21.675 8.85 21.375 9.15 21 9.15H3.00001Z" fill="#161A23"/>
<path d="M6.03749 5.21252C5.58749 5.21252 5.17499 5.58752 5.17499 6.07502V6.15002C5.17499 6.60002 5.54999 7.01252 6.03749 7.01252C6.52499 7.01252 6.89999 6.63752 6.89999 6.15002V6.07502C6.89999 5.62502 6.52499 5.21252 6.03749 5.21252Z" fill="#161A23"/>
<path d="M18.7875 5.25H16.35C15.9 5.25 15.4875 5.625 15.4875 6.1125C15.4875 6.6 15.8625 6.975 16.35 6.975H18.7875C19.2375 6.975 19.65 6.6 19.65 6.1125C19.65 5.625 19.275 5.25 18.7875 5.25Z" fill="#161A23"/>
<path d="M5.21252 13.725V13.8C5.21252 14.25 5.58752 14.6625 6.07502 14.6625C6.56252 14.6625 6.93752 14.2875 6.93752 13.8V13.725C6.93752 13.275 6.56252 12.8625 6.07502 12.8625C5.58752 12.8625 5.21252 13.275 5.21252 13.725Z" fill="#161A23"/>
</svg>
