<svg width="24" height="24" viewBox="0 0 24 24" fill="none" xmlns="http://www.w3.org/2000/svg">
<path d="M18.7875 14.8125C16.6125 14.8125 14.85 16.575 14.85 18.75C14.85 20.925 16.6125 22.6875 18.7875 22.6875C20.9625 22.6875 22.7625 20.925 22.7625 18.75C22.7625 16.575 20.9625 14.8125 18.7875 14.8125ZM18.7875 21C17.55 21 16.5375 19.9875 16.5375 18.75C16.5375 17.5125 17.55 16.5 18.7875 16.5C20.025 16.5 21.0375 17.5125 21.0375 18.75C21.0375 19.9875 20.0625 21 18.7875 21Z" fill="#161A23"/>
<path d="M19.5375 17.9625H18.2625C17.8125 17.9625 17.4 18.3375 17.4 18.825C17.4 19.3125 17.775 19.6875 18.2625 19.6875H19.5375C19.9875 19.6875 20.4 19.3125 20.4 18.825C20.4 18.3375 19.9875 17.9625 19.5375 17.9625Z" fill="#161A23"/>
<path d="M23.3625 3.63752C23.3625 2.36252 22.3125 1.27502 21 1.27502H3.00001C1.72501 1.27502 0.637512 2.32502 0.637512 3.63752V8.28752C0.637512 8.85002 0.825012 9.37502 1.16251 9.78753C0.825012 10.2 0.637512 10.6875 0.637512 11.25V16.0125C0.637512 17.2875 1.65001 18.3 2.92501 18.3H13.05C13.5 18.3 13.9125 17.925 13.9125 17.4375C13.9125 16.95 13.5375 16.575 13.05 16.575H2.92501C2.58751 16.575 2.32501 16.3125 2.32501 15.975V11.25C2.32501 10.9125 2.58751 10.65 2.92501 10.65H3.00001H21H21.0375C21.375 10.65 21.6375 10.9125 21.6375 11.25V14.55C21.6375 15 22.0125 15.4125 22.5 15.4125C22.9875 15.4125 23.3625 15.0375 23.3625 14.55V11.25C23.3625 10.6875 23.175 10.2 22.8375 9.78753C23.175 9.37502 23.3625 8.85002 23.3625 8.28752V3.63752ZM3.00001 8.96252C2.62501 8.96252 2.32501 8.66252 2.32501 8.28752V3.63752C2.36251 3.30002 2.62501 3.00002 3.00001 3.00002H21C21.375 3.00002 21.675 3.30002 21.675 3.67502V8.32502C21.675 8.70002 21.375 9.00002 21 9.00002H3.00001V8.96252Z" fill="#161A23"/>
<path d="M6.03752 5.0625C5.58752 5.0625 5.17502 5.4375 5.17502 5.925V6C5.17502 6.45 5.55002 6.8625 6.03752 6.8625C6.52502 6.8625 6.90002 6.4875 6.90002 6V5.925C6.90002 5.4375 6.52502 5.0625 6.03752 5.0625Z" fill="#161A23"/>
<path d="M18.7875 5.09998H16.35C15.9 5.09998 15.4875 5.47498 15.4875 5.96248C15.4875 6.44998 15.8625 6.82498 16.35 6.82498H18.7875C19.2375 6.82498 19.65 6.44998 19.65 5.96248C19.65 5.47498 19.275 5.09998 18.7875 5.09998Z" fill="#161A23"/>
<path d="M5.21252 13.5375V13.6125C5.21252 14.0625 5.58752 14.475 6.07502 14.475C6.56252 14.475 6.93752 14.1 6.93752 13.6125V13.5375C6.93752 13.0875 6.56252 12.675 6.07502 12.675C5.58752 12.675 5.21252 13.0875 5.21252 13.5375Z" fill="#161A23"/>
</svg>
