<svg width="24" height="24" viewBox="0 0 24 24" fill="none" xmlns="http://www.w3.org/2000/svg">
<path d="M21.5625 16.8375H21.075V15.8625C21.075 14.4375 19.9125 13.2375 18.45 13.2375C17.025 13.2375 15.825 14.4 15.825 15.8625V16.8375H15.3375C14.8875 16.8375 14.475 17.2125 14.475 17.7V21.3375C14.475 21.7875 14.85 22.2 15.3375 22.2H21.5625C22.0125 22.2 22.425 21.825 22.425 21.3375V17.7C22.3875 17.2125 22.0125 16.8375 21.5625 16.8375ZM17.5125 15.8625C17.5125 15.3375 17.925 14.925 18.45 14.925C18.975 14.925 19.3875 15.3375 19.3875 15.8625V16.8375H17.55V15.8625H17.5125ZM20.7 20.4375H16.1625V18.4875H20.7V20.4375Z" fill="#161A23"/>
<path d="M23.3625 4.2C23.3625 2.925 22.275 1.875 21 1.875H3.00001C1.72501 1.875 0.637512 2.925 0.637512 4.2375V8.8875C0.637512 9.45 0.825012 9.975 1.16251 10.3875C0.825012 10.8 0.637512 11.2875 0.637512 11.85V16.6125C0.637512 17.8875 1.65001 18.9 2.92501 18.9H12C12.45 18.9 12.8625 18.525 12.8625 18.0375C12.8625 17.55 12.4875 17.175 12 17.175H2.96251C2.62501 17.175 2.36251 16.9125 2.36251 16.575V11.8125C2.36251 11.475 2.62501 11.2125 2.96251 11.2125H21.075C21.4125 11.2125 21.675 11.475 21.675 11.8125V13.6875C21.675 14.1375 22.05 14.55 22.5375 14.55C23.025 14.55 23.4 14.175 23.4 13.6875V11.8125C23.4 11.25 23.2125 10.7625 22.875 10.35C23.2125 9.9375 23.4 9.4125 23.4 8.85V4.2H23.3625ZM3.00001 9.525C2.62501 9.525 2.32501 9.225 2.32501 8.85V4.2C2.32501 3.825 2.62501 3.525 3.00001 3.525H21C21.375 3.525 21.675 3.825 21.675 4.2V8.85C21.675 9.225 21.375 9.525 21 9.525H3.00001Z" fill="#161A23"/>
<path d="M6.03749 5.58752C5.58749 5.58752 5.17499 5.96252 5.17499 6.45002V6.52502C5.17499 6.97502 5.54999 7.38752 6.03749 7.38752C6.52499 7.38752 6.89999 7.01252 6.89999 6.52502V6.45002C6.89999 6.00002 6.52499 5.58752 6.03749 5.58752Z" fill="#161A23"/>
<path d="M18.7875 5.625H16.35C15.9 5.625 15.4875 6 15.4875 6.4875C15.4875 6.975 15.8625 7.35 16.35 7.35H18.7875C19.2375 7.35 19.65 6.975 19.65 6.4875C19.65 6 19.275 5.625 18.7875 5.625Z" fill="#161A23"/>
<path d="M5.21252 14.1V14.175C5.21252 14.625 5.58752 15.0375 6.07502 15.0375C6.56252 15.0375 6.93752 14.6625 6.93752 14.175V14.1C6.93752 13.65 6.56252 13.2375 6.07502 13.2375C5.58752 13.2375 5.21252 13.65 5.21252 14.1Z" fill="#161A23"/>
</svg>
