<svg width="24" height="24" viewBox="0 0 24 24" fill="none" xmlns="http://www.w3.org/2000/svg">
<path d="M20.85 15.375H18.4875L18.225 14.7C18 14.1 17.4 13.725 16.7625 13.725H14.325C13.4625 13.725 12.75 14.4375 12.75 15.3V20.5125C12.75 21.375 13.4625 22.0875 14.325 22.0875H20.8875C21.75 22.0875 22.4625 21.375 22.4625 20.5125V16.95C22.425 16.0875 21.7125 15.375 20.85 15.375ZM20.7375 20.3625H14.4375V15.4125H16.6875L16.95 16.0875C17.175 16.6875 17.775 17.0625 18.4125 17.0625H20.7375V20.3625Z" fill="#161A23"/>
<path d="M23.3625 4.27498C23.3625 2.99998 22.3125 1.91248 21 1.91248H3C1.725 1.91248 0.637497 2.96248 0.637497 4.27498V8.92498C0.637497 9.48748 0.824997 10.0125 1.1625 10.425C0.824997 10.8375 0.637497 11.325 0.637497 11.8875V16.65C0.637497 17.925 1.65 18.9375 2.925 18.9375H10.5375C10.9875 18.9375 11.4 18.5625 11.4 18.075C11.4 17.5875 11.025 17.2125 10.5375 17.2125H2.9625C2.625 17.2125 2.3625 16.95 2.3625 16.6125V11.8875C2.3625 11.55 2.625 11.2875 2.9625 11.2875H3H21H21.0375C21.375 11.2875 21.6375 11.55 21.6375 11.8875V14.1375C21.6375 14.5875 22.0125 15 22.5 15C22.9875 15 23.3625 14.625 23.3625 14.1375V11.8875C23.3625 11.325 23.175 10.8375 22.8375 10.425C23.175 10.0125 23.3625 9.48748 23.3625 8.92498V4.27498ZM3 9.59998C2.625 9.59998 2.325 9.29998 2.325 8.92498V4.27498C2.325 3.89998 2.625 3.59998 3 3.59998H21C21.375 3.59998 21.675 3.89998 21.675 4.27498V8.92498C21.675 9.29998 21.375 9.59998 21 9.59998H3Z" fill="#161A23"/>
<path d="M6.0375 5.69995C5.5875 5.69995 5.175 6.07495 5.175 6.56245V6.63745C5.175 7.08745 5.55 7.49995 6.0375 7.49995C6.525 7.49995 6.9 7.12495 6.9 6.63745V6.56245C6.9 6.07495 6.525 5.69995 6.0375 5.69995Z" fill="#161A23"/>
<path d="M18.7875 5.73743H16.35C15.9 5.73743 15.4875 6.11243 15.4875 6.59993C15.4875 7.08743 15.8625 7.46243 16.35 7.46243H18.7875C19.2375 7.46243 19.65 7.08743 19.65 6.59993C19.65 6.11243 19.275 5.73743 18.7875 5.73743Z" fill="#161A23"/>
<path d="M5.21249 14.175V14.25C5.21249 14.7 5.58749 15.1125 6.07499 15.1125C6.56249 15.1125 6.93749 14.7375 6.93749 14.25V14.175C6.93749 13.725 6.56249 13.3125 6.07499 13.3125C5.58749 13.3125 5.21249 13.725 5.21249 14.175Z" fill="#161A23"/>
</svg>
