<svg width="24" height="24" viewBox="0 0 24 24" fill="none" xmlns="http://www.w3.org/2000/svg">
<path d="M22.5 19.95H22.1625V16.2375C22.1625 15.1125 21.2625 14.2125 20.1375 14.2125H13.6875C12.5625 14.2125 11.6625 15.1125 11.6625 16.2375V19.95H11.325C10.875 19.95 10.4625 20.325 10.4625 20.8125C10.4625 21.3 10.8375 21.675 11.325 21.675H22.5C22.95 21.675 23.3625 21.3 23.3625 20.8125C23.3625 20.325 22.95 19.95 22.5 19.95ZM13.35 16.2375C13.35 16.05 13.5 15.9 13.6875 15.9H20.1375C20.325 15.9 20.475 16.05 20.475 16.2375V19.95H13.35V16.2375Z" fill="#161A23"/>
<path d="M23.3625 4.72505C23.3625 3.45005 22.3125 2.36255 21 2.36255H3.00001C1.72501 2.36255 0.637512 3.41255 0.637512 4.72505V9.37505C0.637512 9.93755 0.825012 10.4626 1.16251 10.875C0.825012 11.2875 0.637512 11.7751 0.637512 12.3376V17.1C0.637512 18.375 1.65001 19.3876 2.92501 19.3876H9.78751C10.2375 19.3876 10.65 19.0126 10.65 18.5251C10.65 18.0376 10.275 17.6625 9.78751 17.6625H2.96251C2.62501 17.6625 2.36251 17.4001 2.36251 17.0626V12.3376C2.36251 12.0001 2.62501 11.7375 2.96251 11.7375H21.075C21.4125 11.7375 21.675 12.0001 21.675 12.3376V13.5C21.675 13.9501 22.05 14.3625 22.5375 14.3625C23.025 14.3625 23.4 13.9875 23.4 13.5V12.3376C23.4 11.7751 23.2125 11.2875 22.875 10.875C23.2125 10.4626 23.4 9.93755 23.4 9.37505V4.72505H23.3625ZM3.00001 10.0125C2.62501 10.0125 2.32501 9.71255 2.32501 9.33755V4.72505C2.32501 4.35005 2.62501 4.05005 3.00001 4.05005H21C21.375 4.05005 21.675 4.35005 21.675 4.72505V9.37505C21.675 9.75005 21.375 10.05 21 10.05H3.00001V10.0125Z" fill="#161A23"/>
<path d="M6.03749 6.11255C5.58749 6.11255 5.17499 6.48755 5.17499 6.97505V7.05005C5.17499 7.50005 5.54999 7.91255 6.03749 7.91255C6.52499 7.91255 6.89999 7.53755 6.89999 7.05005V6.97505C6.89999 6.48755 6.52499 6.11255 6.03749 6.11255Z" fill="#161A23"/>
<path d="M18.7875 6.15002H16.35C15.9 6.15002 15.4875 6.52502 15.4875 7.01252C15.4875 7.50002 15.8625 7.87502 16.35 7.87502H18.7875C19.2375 7.87502 19.65 7.50002 19.65 7.01252C19.65 6.52502 19.275 6.15002 18.7875 6.15002Z" fill="#161A23"/>
<path d="M5.21252 14.6251V14.7001C5.21252 15.1501 5.58752 15.5626 6.07502 15.5626C6.56252 15.5626 6.93752 15.1876 6.93752 14.7001V14.6251C6.93752 14.1751 6.56252 13.7626 6.07502 13.7626C5.58752 13.7626 5.21252 14.1376 5.21252 14.6251Z" fill="#161A23"/>
</svg>
