<svg width="24" height="24" viewBox="0 0 24 24" fill="none" xmlns="http://www.w3.org/2000/svg">
<g clip-path="url(#clip0_501_47547)">
<path d="M23.3625 12.7875C23.3625 11.7 22.4625 10.8375 21.375 10.8375H17.025C17.1375 10.3125 17.175 9.7875 17.175 9.225C17.175 7.7625 16.7625 6.3 16.0125 5.025C14.5875 2.5125 11.9625 0.975 9.075 0.9375C8.9625 0.9375 8.8875 0.9375 8.775 0.9375C8.7375 0.9375 8.7 0.9375 8.625 0.9375C8.5875 0.9375 8.5875 0.9375 8.55 0.9375C8.475 0.9375 8.4375 0.9375 8.4 0.975C5.6625 1.125 3.1875 2.625 1.8 4.9875C1.05 6.2625 0.675003 7.6875 0.675003 9.1875C0.675003 10.95 1.2375 12.6375 2.25 14.0625C3.4875 15.75 5.2875 16.9125 7.3125 17.2875C7.2 17.5125 7.1625 17.775 7.1625 18.0375V21.075C7.1625 22.1625 8.0625 23.0625 9.15 23.0625H21.375C22.4625 23.0625 23.3625 22.1625 23.3625 21.075V18.0375C23.3625 17.625 23.2125 17.25 22.9875 16.9125C23.2125 16.575 23.3625 16.2 23.3625 15.7875V12.7875ZM21.675 12.7875V15.825C21.675 15.975 21.5625 16.125 21.375 16.125H9.15C9 16.125 8.85 16.0125 8.85 15.825V12.7875C8.85 12.6375 8.9625 12.525 9.15 12.525H21.375C21.525 12.4875 21.675 12.6375 21.675 12.7875ZM9.15 10.8C8.4375 10.8 7.8 11.175 7.4625 11.775C7.275 10.95 7.2 10.0875 7.2 9.1875C7.2 8.55 7.2375 7.95 7.35 7.3125C7.875 7.35 8.4 7.3875 8.9625 7.3875C9.4125 7.3875 9.825 7.35 10.2375 7.35C10.3125 7.95 10.3875 8.5875 10.3875 9.1875C10.3875 9.7125 10.35 10.275 10.275 10.8H9.15ZM7.6875 5.6625C7.95 4.8 8.2875 3.9375 8.775 3.1125C9.225 3.9375 9.6 4.8 9.8625 5.7C9.1125 5.7375 8.4 5.7375 7.6875 5.6625ZM6.225 13.65C6.45 14.2875 6.675 14.8875 6.975 15.4875C6.0375 15.1875 5.175 14.7 4.4625 14.025C5.025 13.875 5.625 13.725 6.225 13.65ZM15.3 10.8H11.925C12 10.275 12.0375 9.7125 12.0375 9.1875C12.0375 8.5125 12 7.8375 11.8875 7.1625C12.9375 7.0125 13.95 6.75 14.925 6.45C15.3 7.3125 15.525 8.25 15.525 9.1875C15.525 9.75 15.45 10.275 15.3 10.8ZM13.9875 4.9875C13.2 5.2125 12.375 5.4 11.55 5.5125C11.2875 4.575 10.95 3.675 10.5 2.775C11.85 3.15 13.0875 3.9 13.9875 4.9875ZM6.975 2.925C6.5625 3.75 6.225 4.6125 6 5.475C5.2875 5.3625 4.575 5.175 3.8625 4.9875C4.6875 4.0125 5.775 3.3 6.975 2.925ZM2.925 6.45C3.7875 6.75 4.6875 6.975 5.625 7.125C5.5125 7.8 5.475 8.5125 5.475 9.1875C5.475 10.125 5.5875 11.0625 5.7375 12C4.9125 12.15 4.05 12.3375 3.2625 12.6C2.6625 11.5875 2.325 10.425 2.325 9.225C2.3625 8.25 2.55 7.3125 2.925 6.45ZM21.675 21.1125C21.675 21.2625 21.5625 21.4125 21.375 21.4125H9.15C9 21.4125 8.85 21.3 8.85 21.1125V18.075C8.85 17.925 8.9625 17.775 9.15 17.775H21.375C21.525 17.775 21.675 17.8875 21.675 18.075V21.1125Z" fill="#161A23"/>
<path d="M11.1375 15.15C11.5875 15.15 12 14.775 12 14.2875V14.25C12 13.8 11.625 13.3875 11.1375 13.3875C10.65 13.3875 10.275 13.7625 10.275 14.25V14.2875C10.3125 14.7375 10.6875 15.15 11.1375 15.15Z" fill="#161A23"/>
<path d="M18.2625 15.1125H19.95C20.4 15.1125 20.8125 14.7375 20.8125 14.25C20.8125 13.7625 20.4375 13.3875 19.95 13.3875H18.2625C17.8125 13.3875 17.4 13.7625 17.4 14.25C17.4 14.7375 17.8125 15.1125 18.2625 15.1125Z" fill="#161A23"/>
<path d="M11.1375 18.675C10.6875 18.675 10.275 19.05 10.275 19.5375V19.575C10.275 20.025 10.65 20.4375 11.1375 20.4375C11.625 20.4375 12 20.0625 12 19.575V19.5375C12 19.05 11.625 18.675 11.1375 18.675Z" fill="#161A23"/>
<path d="M19.95 18.7124H18.2625C17.8125 18.7124 17.4 19.0874 17.4 19.5749C17.4 20.0624 17.775 20.4374 18.2625 20.4374H19.95C20.4 20.4374 20.8125 20.0624 20.8125 19.5749C20.8125 19.0874 20.4 18.7124 19.95 18.7124Z" fill="#161A23"/>
</g>
<defs>
<clipPath id="clip0_501_47547">
<rect width="24" height="24" fill="white"/>
</clipPath>
</defs>
</svg>
