<svg width="24" height="24" viewBox="0 0 24 24" fill="none" xmlns="http://www.w3.org/2000/svg">
<path d="M18 13.425C15.4125 13.425 13.3125 15.525 13.3125 18.1125C13.3125 20.7 15.4125 22.7625 18 22.7625C20.5875 22.7625 22.6875 20.6625 22.6875 18.075C22.6875 15.4875 20.55 13.425 18 13.425ZM18 21.075C16.35 21.075 15 19.725 15 18.075C15 16.425 16.35 15.075 18 15.075C19.65 15.075 21 16.425 21 18.075C21 19.725 19.6125 21.075 18 21.075Z" fill="#161A23"/>
<path d="M18.5625 16.6501L17.625 17.5876L17.4375 17.4001C17.1 17.0626 16.575 17.0626 16.2375 17.4001C15.9 17.7376 15.9 18.2626 16.2375 18.6001L17.025 19.3876C17.175 19.5376 17.4 19.6501 17.625 19.6501C17.85 19.6501 18.075 19.5751 18.225 19.3876L19.7625 17.8501C20.1 17.5126 20.1 16.9876 19.7625 16.6501C19.425 16.3126 18.8625 16.3126 18.5625 16.6501Z" fill="#161A23"/>
<path d="M23.3625 3.60005C23.3625 2.32505 22.3125 1.23755 21 1.23755H3.00001C1.72501 1.23755 0.637512 2.28755 0.637512 3.60005V8.25005C0.637512 8.81255 0.825012 9.33755 1.16251 9.75005C0.825012 10.1625 0.637512 10.6501 0.637512 11.2126V15.975C0.637512 17.25 1.65001 18.2626 2.92501 18.2626H10.875C11.325 18.2626 11.7375 17.8876 11.7375 17.4001C11.7375 16.9126 11.3625 16.5375 10.875 16.5375H2.96251C2.62501 16.5375 2.36251 16.2751 2.36251 15.9376V11.2126C2.36251 10.875 2.62501 10.6125 2.96251 10.6125H3.00001H21H21.0375C21.375 10.6125 21.6375 10.875 21.6375 11.2126V13.4626C21.6375 13.9126 22.0125 14.3251 22.5 14.3251C22.9875 14.3251 23.3625 13.9501 23.3625 13.4626V11.2126C23.3625 10.6501 23.175 10.1625 22.8375 9.75005C23.175 9.33755 23.3625 8.81255 23.3625 8.25005V3.60005ZM3.00001 8.88755C2.62501 8.88755 2.32501 8.58755 2.32501 8.21255V3.60005C2.32501 3.22505 2.62501 2.92505 3.00001 2.92505H21C21.375 2.92505 21.675 3.22505 21.675 3.60005V8.25005C21.675 8.62505 21.375 8.92505 21 8.92505H3.00001V8.88755Z" fill="#161A23"/>
<path d="M6.03752 4.98755C5.58752 4.98755 5.17502 5.36255 5.17502 5.85005V5.92505C5.17502 6.37505 5.55002 6.78755 6.03752 6.78755C6.52502 6.78755 6.90002 6.41255 6.90002 5.92505V5.85005C6.90002 5.36255 6.52502 4.98755 6.03752 4.98755Z" fill="#161A23"/>
<path d="M18.7875 5.02502H16.35C15.9 5.02502 15.4875 5.40002 15.4875 5.88752C15.4875 6.37502 15.8625 6.75002 16.35 6.75002H18.7875C19.2375 6.75002 19.65 6.37502 19.65 5.88752C19.65 5.40002 19.275 5.02502 18.7875 5.02502Z" fill="#161A23"/>
<path d="M5.21252 13.5V13.575C5.21252 14.025 5.58752 14.4375 6.07502 14.4375C6.56252 14.4375 6.93752 14.0625 6.93752 13.575V13.5C6.93752 13.05 6.56252 12.6375 6.07502 12.6375C5.58752 12.6375 5.21252 13.0125 5.21252 13.5Z" fill="#161A23"/>
</svg>
