<svg width="24" height="24" viewBox="0 0 24 24" fill="none" xmlns="http://www.w3.org/2000/svg">
<path d="M4.95 9.07497C5.1 9.22497 5.325 9.29997 5.5125 9.29997C5.7375 9.29997 5.9625 9.22497 6.1125 9.03747C6.45 8.69997 6.4125 8.17497 6.075 7.83747L3.9375 5.81247H8.4C10.425 5.81247 12.075 7.46247 12.075 9.48747V15.1125C12.075 15.5625 12.45 15.975 12.9375 15.975C13.425 15.975 13.8 15.6 13.8 15.1125V9.48747C13.8 6.52497 11.4 4.12497 8.4375 4.12497H3.9375L6.1125 2.09997C6.45 1.79997 6.4875 1.23747 6.15 0.899974C5.85 0.562474 5.2875 0.524974 4.95 0.862474L1.5 4.04997C1.2375 4.27497 1.125 4.61247 1.125 4.91247C1.125 5.24997 1.275 5.54997 1.5 5.81247L4.95 9.07497Z" fill="#161A23"/>
<path d="M22.125 14.2875C21.675 14.2875 21.2625 14.6625 21.2625 15.15V20.5875C21.2625 21.1875 20.775 21.675 20.175 21.675H3.82501C3.22501 21.675 2.73751 21.1875 2.73751 20.5875V15.1125C2.73751 14.6625 2.36251 14.25 1.87501 14.25C1.38751 14.25 1.01251 14.625 1.01251 15.1125V20.55C1.01251 22.0875 2.25001 23.325 3.78751 23.325H20.175C21.7125 23.325 22.95 22.0875 22.95 20.55V15.1125C22.9875 14.6625 22.6125 14.2875 22.125 14.2875Z" fill="#161A23"/>
</svg>
