<svg width="24" height="24" viewBox="0 0 24 24" fill="none" xmlns="http://www.w3.org/2000/svg">
<g clip-path="url(#clip0_501_52070)">
<path d="M12 0.5625C5.73755 0.5625 0.675049 5.7 0.675049 12C0.675049 18.3 5.73755 23.4375 12 23.4375C18.2626 23.4375 23.3251 18.3 23.3251 12C23.3251 5.7 18.2626 0.5625 12 0.5625ZM12 21.75C6.67505 21.75 2.32505 17.3625 2.32505 12C2.32505 6.6375 6.67505 2.25 12 2.25C17.3251 2.25 21.6751 6.6375 21.6751 12C21.6751 17.3625 17.3251 21.75 12 21.75Z" fill="#161A23"/>
<path d="M16.3125 6.375C15.8625 6.375 15.4875 6.75 15.4875 7.2V15.9375H12C11.6625 15.9375 11.4 15.675 11.4 15.3375V11.2875C11.4 10.8375 11.025 10.4625 10.575 10.4625C10.125 10.4625 9.75 10.8375 9.75 11.2875V15.3375C9.75 16.6125 10.7625 17.625 12.0375 17.625H15.8625C16.575 17.625 17.175 17.025 17.175 16.3125V7.2C17.1375 6.75 16.7625 6.375 16.3125 6.375Z" fill="#161A23"/>
<path d="M12.6 8.6625V12.7125C12.6 13.1625 12.975 13.5375 13.425 13.5375C13.875 13.5375 14.25 13.1625 14.25 12.7125V8.6625C14.25 7.3875 13.2375 6.375 11.9625 6.375H8.17505C7.46255 6.375 6.86255 6.975 6.86255 7.6875V16.8C6.86255 17.25 7.23755 17.625 7.68755 17.625C8.13755 17.625 8.51255 17.25 8.51255 16.8V8.0625H12C12.3375 8.0625 12.6 8.325 12.6 8.6625Z" fill="#161A23"/>
</g>
<defs>
<clipPath id="clip0_501_52070">
<rect width="24" height="24" fill="white"/>
</clipPath>
</defs>
</svg>
