<svg width="24" height="24" viewBox="0 0 24 24" fill="none" xmlns="http://www.w3.org/2000/svg">
<path d="M20.5875 2.3625C20.1375 2.0625 19.575 2.025 19.0875 2.2125C18.4125 2.475 17.7 2.625 16.95 2.625C15.4875 2.625 14.1375 2.0625 13.0875 1.0875C12.45 0.487497 11.5125 0.487497 10.875 1.0875C9.82501 2.1 8.43751 2.625 7.01251 2.625C6.26251 2.625 5.55001 2.475 4.87501 2.2125C4.38751 2.025 3.82501 2.0625 3.37501 2.3625C2.96251 2.6625 2.70001 3.15 2.70001 3.675V12.2625C2.70001 17.2875 8.62501 21.525 11.175 23.1C11.4375 23.25 11.7375 23.325 12 23.325C12.3 23.325 12.5625 23.25 12.825 23.1C15.375 21.525 21.3 17.2875 21.3 12.2625V3.675C21.3 3.15 21.0375 2.6625 20.5875 2.3625ZM19.6125 12.2625C19.6125 16.5375 13.875 20.475 12 21.6375C10.125 20.475 4.38751 16.5375 4.38751 12.2625V3.825C5.21251 4.1625 6.11251 4.3125 7.01251 4.3125C8.88751 4.3125 10.65 3.6375 12 2.3625C13.35 3.6375 15.1125 4.3125 16.9875 4.3125C17.8875 4.3125 18.7875 4.1625 19.6125 3.825V12.2625Z" fill="#161A23"/>
<path d="M14.9625 8.66249L10.575 12.1875L9.63752 10.875C9.37502 10.5 8.85002 10.425 8.47502 10.6875C8.10002 10.95 8.02502 11.475 8.28752 11.85L9.75002 13.9125C9.90002 14.1 10.0875 14.2125 10.3125 14.25C10.35 14.25 10.3875 14.25 10.425 14.25C10.6125 14.25 10.8 14.175 10.95 14.0625L16.0125 9.97499C16.3875 9.67499 16.425 9.14999 16.125 8.77499C15.8625 8.39999 15.3375 8.36249 14.9625 8.66249Z" fill="#161A23"/>
</svg>
