<svg width="24" height="24" viewBox="0 0 24 24" fill="none" xmlns="http://www.w3.org/2000/svg">
<path d="M12 23.3625C11.7 23.3625 11.4375 23.2875 11.175 23.1375C8.62501 21.525 2.70001 17.2875 2.70001 12.2625V3.67501C2.70001 3.15001 2.96251 2.66251 3.41251 2.36251C3.86251 2.06251 4.42501 2.02501 4.91251 2.21251C5.58751 2.47501 6.30001 2.62501 7.05001 2.62501C8.51251 2.62501 9.86251 2.06251 10.9125 1.08751C11.55 0.487512 12.4875 0.487512 13.125 1.08751C14.175 2.10001 15.5625 2.62501 16.9875 2.62501C17.7375 2.62501 18.45 2.47501 19.125 2.21251C19.6125 2.02501 20.175 2.06251 20.625 2.36251C21.075 2.66251 21.3375 3.15001 21.3375 3.67501V12.2625C21.3375 17.2875 15.4125 21.525 12.8625 23.1C12.5625 23.25 12.3 23.3625 12 23.3625ZM4.38751 3.82501V12.225C4.38751 16.5 10.125 20.4375 12 21.6C13.875 20.4375 19.6125 16.5 19.6125 12.225V3.82501C18.7875 4.16251 17.8875 4.31251 16.9875 4.31251C15.1125 4.31251 13.35 3.63751 12 2.36251C10.65 3.63751 8.88751 4.31251 7.01251 4.31251C6.11251 4.35001 5.21251 4.16251 4.38751 3.82501Z" fill="#161A23"/>
</svg>
