<svg width="24" height="24" viewBox="0 0 24 24" fill="none" xmlns="http://www.w3.org/2000/svg">
<path d="M19.5 2.66251L12.7125 0.750012C12.225 0.600012 11.7 0.600012 11.2125 0.750012L4.49998 2.66251C3.29998 3.00001 2.47498 4.08751 2.47498 5.32501V10.8C2.47498 16.275 5.81248 21.1125 11.025 23.175C11.325 23.2875 11.6625 23.3625 12 23.3625C12.3375 23.3625 12.675 23.2875 12.975 23.175C18.15 21.1125 21.4875 16.275 21.4875 10.8V5.32501C21.525 4.08751 20.7 3.00001 19.5 2.66251ZM19.8375 10.8C19.8375 15.5625 16.9125 19.8 12.375 21.6C12.15 21.675 11.8875 21.675 11.6625 21.6C7.12498 19.8 4.19998 15.5625 4.19998 10.8V5.32501C4.19998 4.83751 4.53748 4.42501 4.98748 4.27501L11.7 2.40001C11.8125 2.36251 11.8875 2.36251 12 2.36251C12.1125 2.36251 12.1875 2.36251 12.3 2.40001L19.0875 4.31251C19.5375 4.42501 19.875 4.87501 19.875 5.36251V10.8H19.8375Z" fill="#161A23"/>
</svg>
