<svg width="24" height="24" viewBox="0 0 24 24" fill="none" xmlns="http://www.w3.org/2000/svg">
<path d="M12 23.325C11.625 23.325 11.25 23.25 10.9125 23.0625C9.97499 22.575 8.58749 21.7875 7.16249 20.775C4.98749 19.2 2.36249 16.725 2.36249 13.9875V5.21251C2.36249 4.16251 3.03749 3.22501 4.08749 2.92501L11.325 0.750012C11.775 0.600012 12.2625 0.600012 12.7125 0.750012L19.95 2.92501C20.9625 3.22501 21.675 4.16251 21.675 5.21251V13.95C21.675 16.725 19.0875 19.1625 16.875 20.7375C15.4875 21.75 14.0625 22.5375 13.125 23.025C12.75 23.25 12.375 23.325 12 23.325ZM12 2.36251C11.925 2.36251 11.85 2.36251 11.8125 2.40001L4.57499 4.57501C4.27499 4.65001 4.04999 4.95001 4.04999 5.25001V13.9875C4.04999 15.6 5.51249 17.5125 8.13749 19.425C9.44999 20.3625 10.7625 21.1125 11.6625 21.6C11.8875 21.7125 12.1125 21.7125 12.3 21.6C13.2 21.15 14.5125 20.4 15.825 19.425C18.45 17.5125 19.9125 15.6 19.9125 13.9875V5.21251C19.9125 4.91251 19.6875 4.61251 19.3875 4.53751L12.1875 2.36251C12.15 2.36251 12.075 2.36251 12 2.36251Z" fill="#161A23"/>
</svg>
