<svg width="24" height="24" viewBox="0 0 24 24" fill="none" xmlns="http://www.w3.org/2000/svg">
<path d="M20.025 4.23755C18 3.63755 14.475 2.10005 12.9375 1.05005C12.6 0.825049 12.3375 0.675049 12 0.675049C11.7 0.675049 11.4 0.825049 11.0625 1.05005C8.51248 2.81255 6.11248 3.97505 4.12498 4.38755C2.96248 4.65005 2.09998 5.70005 2.09998 6.90005C2.09998 9.82505 2.09998 11.8125 2.09998 12.7501C2.09998 13.425 2.17498 14.1001 2.36248 14.7751C2.73748 16.3876 3.56248 17.8126 4.91248 19.2001C6.63748 20.9251 8.77498 22.2751 11.475 23.2875C11.5125 23.2875 11.55 23.3251 11.5875 23.3251C11.625 23.3251 11.6625 23.3251 11.7375 23.3251C12.6 23.3251 15 22.1251 15.0375 22.1251C17.25 20.9626 18.9 19.6126 20.1 17.9626C21.1875 16.5001 21.75 15.0376 21.7875 13.4626C21.7875 13.2001 21.825 8.85005 21.825 6.75005C21.8625 5.58755 21.1125 4.57505 20.025 4.23755ZM20.1375 13.3876C20.1 14.5876 19.65 15.7501 18.75 16.9501C17.7 18.3751 16.2375 19.5751 14.25 20.6251C13.7625 20.8876 12.375 21.4501 11.85 21.6C9.48748 20.6625 7.61248 19.5001 6.11248 18C4.98748 16.8376 4.31248 15.6751 4.01248 14.4001C3.89998 13.8376 3.82498 13.2751 3.82498 12.7501C3.82498 11.7751 3.82498 9.82505 3.82498 6.90005C3.82498 6.48755 4.12498 6.11255 4.53748 6.03755C6.74998 5.55005 9.26248 4.35005 12.0375 2.43755C13.725 3.60005 17.4 5.21255 19.575 5.85005C19.95 5.96255 20.2125 6.33755 20.2125 6.71255C20.175 9.18755 20.1375 13.2001 20.1375 13.3876Z" fill="#161A23"/>
<path d="M11.325 9.7501H14.2125C14.6625 9.7501 15.0375 9.3751 15.0375 8.9251C15.0375 8.4751 14.6625 8.1001 14.2125 8.1001H13.275V7.6126C13.275 7.1626 12.9 6.7876 12.45 6.7876C12 6.7876 11.625 7.1626 11.625 7.6126V8.1001H11.3625C10.05 8.1001 8.96246 9.1876 8.96246 10.5001C8.96246 11.8126 10.05 12.9001 11.3625 12.9001H12.7125C13.125 12.9001 13.425 13.2001 13.425 13.6126C13.425 14.0251 13.05 14.2501 12.675 14.2501H9.78746C9.33746 14.2501 8.96246 14.6251 8.96246 15.0751C8.96246 15.5251 9.33746 15.9001 9.78746 15.9001H11.625V16.3876C11.625 16.8376 12 17.2126 12.45 17.2126C12.9 17.2126 13.275 16.8376 13.275 16.3876V15.8251C14.2875 15.5626 15.075 14.6251 15.075 13.5376C15.075 12.2251 13.9875 11.1376 12.675 11.1376H11.325C10.9125 11.1376 10.6125 10.8376 10.6125 10.4251C10.6125 10.0126 10.95 9.7501 11.325 9.7501Z" fill="#161A23"/>
</svg>
