<svg width="24" height="24" viewBox="0 0 24 24" fill="none" xmlns="http://www.w3.org/2000/svg">
<path d="M12 23.3625C11.8875 23.3625 11.775 23.325 11.7 23.2875C8.775 22.125 6.3 20.175 4.5 17.5875C2.6625 14.925 1.6875 11.8125 1.6875 8.58749V5.24999C1.6875 4.83749 1.9875 4.46249 2.4 4.42499C3.9375 4.19999 5.2125 2.92499 5.4375 1.38749C5.5125 0.974988 5.85 0.674988 6.2625 0.674988H17.7375C18.15 0.674988 18.525 0.974988 18.5625 1.38749C18.7875 2.92499 20.0625 4.19999 21.6 4.42499C22.0125 4.49999 22.3125 4.83749 22.3125 5.24999V8.54999C22.3125 11.775 21.3375 14.8875 19.5 17.55C17.7 20.175 15.225 22.125 12.3 23.2875C12.225 23.325 12.1125 23.3625 12 23.3625ZM3.375 5.92499V8.58749C3.375 11.475 4.2375 14.25 5.8875 16.65C7.425 18.8625 9.525 20.5875 12 21.6C14.475 20.55 16.575 18.8625 18.1125 16.65C19.7625 14.25 20.625 11.475 20.625 8.54999V5.88749C18.9 5.36249 17.55 4.01249 17.0625 2.32499H6.9375C6.4125 4.04999 5.0625 5.39999 3.375 5.92499Z" fill="#161A23"/>
<path d="M10.4625 13.875C10.425 13.875 10.3875 13.875 10.35 13.875C10.125 13.8375 9.9 13.725 9.7875 13.5375L8.55 11.8125C8.2875 11.4375 8.3625 10.9125 8.7375 10.65C9.1125 10.3875 9.6375 10.4625 9.9 10.8375L10.6125 11.85L14.8875 8.39997C15.2625 8.09997 15.7875 8.17498 16.0875 8.51248C16.3875 8.88748 16.3125 9.41247 15.975 9.71247L10.9875 13.6875C10.8375 13.8 10.65 13.875 10.4625 13.875Z" fill="#161A23"/>
</svg>
