<svg width="24" height="24" viewBox="0 0 24 24" fill="none" xmlns="http://www.w3.org/2000/svg">
<path d="M19.9125 2.925L12.675 0.749997C12.225 0.599997 11.7375 0.599997 11.2875 0.749997L4.08749 2.925C3.07499 3.225 2.36249 4.1625 2.36249 5.2125V13.95C2.36249 16.725 4.94999 19.1625 7.16249 20.7375C8.54999 21.75 9.97499 22.5375 10.9125 23.025C11.25 23.25 11.625 23.325 12 23.325C12.375 23.325 12.75 23.25 13.0875 23.0625C14.025 22.575 15.4125 21.7875 16.8375 20.775C19.0125 19.2 21.6375 16.725 21.6375 13.9875V5.2125C21.6375 4.1625 20.925 3.225 19.9125 2.925ZM19.95 13.9875C19.95 15.6 18.4875 17.5125 15.8625 19.425C14.55 20.3625 13.2375 21.1125 12.3375 21.6C12.15 21.7125 11.8875 21.7125 11.7 21.6C10.8 21.15 9.48749 20.4 8.17499 19.425C5.54999 17.5125 4.08749 15.6 4.08749 13.9875V5.2125C4.08749 4.9125 4.31249 4.6125 4.61249 4.5375L11.85 2.3625C11.925 2.325 12 2.325 12.0375 2.325C12.075 2.325 12.1875 2.325 12.225 2.3625L19.4625 4.5375C19.7625 4.6125 19.9875 4.9125 19.9875 5.2125V13.9875H19.95Z" fill="#161A23"/>
<path d="M14.7 8.81249L10.3875 12.3L9.44999 10.9875C9.18749 10.6125 8.66249 10.5375 8.28749 10.8C7.91249 11.0625 7.83749 11.5875 8.09999 11.9625L9.56248 13.9875C9.71249 14.175 9.89998 14.2875 10.125 14.325C10.1625 14.325 10.2 14.325 10.2375 14.325C10.425 14.325 10.6125 14.25 10.7625 14.1375L15.75 10.125C16.125 9.82499 16.1625 9.29999 15.8625 8.92499C15.6 8.58749 15.075 8.54999 14.7 8.81249Z" fill="#161A23"/>
</svg>
