<svg width="24" height="24" viewBox="0 0 24 24" fill="none" xmlns="http://www.w3.org/2000/svg">
<path d="M2.66252 0.674988C2.21252 0.674988 1.83752 1.04999 1.83752 1.49999V22.5C1.83752 22.95 2.21252 23.325 2.66252 23.325C3.11252 23.325 3.48752 22.95 3.48752 22.5V1.49999C3.48752 1.04999 3.11252 0.674988 2.66252 0.674988Z" fill="#161A23"/>
<path d="M21.3376 12.075H10.1251L12.7126 9.45001C13.0501 9.11251 13.0501 8.58751 12.7126 8.25001C12.3751 7.91251 11.8501 7.91251 11.5126 8.25001L7.50007 12.3C7.16257 12.6375 7.16257 13.1625 7.50007 13.5L11.4751 17.55C11.6251 17.7 11.8501 17.8125 12.0751 17.8125C12.3001 17.8125 12.4876 17.7375 12.6751 17.5875C13.0126 17.25 13.0126 16.725 12.6751 16.3875L10.1251 13.7625H21.3376C21.7876 13.7625 22.1626 13.3875 22.1626 12.9375C22.1626 12.4875 21.8251 12.075 21.3376 12.075Z" fill="#161A23"/>
</svg>
