<svg width="24" height="24" viewBox="0 0 24 24" fill="none" xmlns="http://www.w3.org/2000/svg">
<path d="M21.3376 0.674988C20.8876 0.674988 20.5126 1.04999 20.5126 1.49999V22.5C20.5126 22.95 20.8876 23.325 21.3376 23.325C21.7876 23.325 22.1626 22.95 22.1626 22.5V1.49999C22.2001 1.04999 21.8251 0.674988 21.3376 0.674988Z" fill="#161A23"/>
<path d="M12.4875 8.25001C12.15 7.91251 11.625 7.91251 11.2875 8.25001C10.95 8.58751 10.95 9.11251 11.2875 9.45001L13.875 12.075H2.62505C2.17505 12.075 1.80005 12.45 1.80005 12.9C1.80005 13.35 2.17505 13.725 2.62505 13.725H13.875L11.325 16.35C10.9875 16.6875 10.9875 17.2125 11.325 17.55C11.475 17.7 11.7 17.775 11.925 17.775C12.15 17.775 12.375 17.7 12.525 17.5125L16.5 13.5C16.8375 13.1625 16.8375 12.6375 16.5 12.3L12.4875 8.25001Z" fill="#161A23"/>
</svg>
