<svg width="24" height="24" viewBox="0 0 24 24" fill="none" xmlns="http://www.w3.org/2000/svg">
<g clip-path="url(#clip0_501_44710)">
<path d="M14.3625 21.1126L14.325 21.0751L15.8625 15.6751C16.2 14.5501 15.6 13.3501 14.5125 12.9001L13.65 12.5251V11.1001C13.65 10.6501 13.275 10.2751 12.825 10.2751C12.375 10.2751 12 10.6501 12 11.1001V11.8126L9.22501 10.6501C8.66251 10.4251 7.98751 10.4251 7.42501 10.6501L4.61251 11.8126V9.90007C4.61251 9.56257 4.91251 9.26257 5.25001 9.26257H10.0875C10.5375 9.26257 10.9125 8.88757 10.9125 8.43757C10.9125 7.98757 10.5375 7.61257 10.0875 7.61257H6.37501V5.96257C6.37501 5.62507 6.67501 5.32507 7.01251 5.32507H9.86251C10.3125 5.32507 10.6875 4.95007 10.6875 4.50007C10.6875 4.05007 10.3125 3.67507 9.86251 3.67507H9.15001V2.21257C9.15001 1.76257 8.77501 1.38757 8.32501 1.38757C7.87501 1.38757 7.50001 1.76257 7.50001 2.21257V3.60007H7.05001C5.77501 3.60007 4.72501 4.65007 4.72501 5.92507V7.65007C3.71251 7.91257 2.96251 8.81257 2.96251 9.90007V12.5251L2.10001 12.8626C1.01251 13.3126 0.450009 14.5126 0.750009 15.6376L2.28751 21.0376C2.28751 21.0376 2.25001 21.0376 2.25001 21.0751L0.937509 22.2001C0.600009 22.5001 0.562509 23.0251 0.862509 23.4001C0.900009 23.6251 1.12501 23.7001 1.38751 23.7001C1.57501 23.7001 1.76251 23.6251 1.95001 23.5126L3.26251 22.3876C3.48751 22.1626 3.86251 22.1626 4.08751 22.3876L4.42501 22.6876C5.28751 23.4376 6.60001 23.4376 7.46251 22.6876L7.80001 22.3876C8.02501 22.1626 8.40001 22.1626 8.62501 22.3876L8.96251 22.6876C9.82501 23.4376 11.1375 23.4376 12 22.6876L12.3375 22.3876C12.5625 22.1626 12.9375 22.1626 13.1625 22.3876L14.475 23.5126C14.8125 23.8126 15.375 23.7751 15.675 23.4376C15.975 23.1001 15.9375 22.5376 15.6 22.2376L14.3625 21.1126ZM11.325 21.1126L10.9875 21.4126C10.7625 21.6376 10.3875 21.6376 10.1625 21.4126L9.82501 21.1126C8.96251 20.3626 7.65001 20.3626 6.78751 21.1126L6.37501 21.4126C6.15001 21.6376 5.77501 21.6376 5.55001 21.4126L5.21251 21.1126C4.80001 20.7751 4.31251 20.5876 3.82501 20.5501L2.32501 15.2251C2.25001 14.9251 2.40001 14.5876 2.70001 14.4376L8.06251 12.2251C8.21251 12.1501 8.40001 12.1501 8.55001 12.2251L13.875 14.4376C14.175 14.5501 14.325 14.8876 14.25 15.1876L12.75 20.5501C12.1875 20.5876 11.7 20.7376 11.325 21.1126Z" fill="#161A23"/>
<path d="M17.7375 0.300049C14.5875 0.300049 12 2.85005 12 6.03755C12 8.17505 13.2 10.05 14.925 11.025C14.9625 11.025 14.9625 11.0625 15 11.0625C15.825 11.5125 16.7625 11.775 17.7375 11.775C20.8875 11.775 23.475 9.18755 23.475 6.03755C23.475 2.88755 20.8875 0.300049 17.7375 0.300049ZM17.7375 1.95005C18.3 1.95005 18.8625 2.06255 19.35 2.28755L17.625 4.31255C17.4 4.57505 17.0625 4.61255 16.7625 4.42505L16.3875 4.16255C16.35 4.16255 16.35 4.12505 16.3125 4.12505L14.7375 3.26255C15.525 2.47505 16.575 1.95005 17.7375 1.95005ZM13.9125 4.72505L15.4875 5.58755L15.825 5.81255C16.2375 6.07505 16.6875 6.22505 17.1375 6.22505C17.8125 6.22505 18.45 5.92505 18.9 5.40005L20.7 3.30005C21.1875 3.82505 21.525 4.50005 21.675 5.25005L19.6875 6.00005C19.6125 6.03755 19.5375 6.07505 19.4625 6.11255L15.2625 9.30005C14.2875 8.55005 13.65 7.38755 13.65 6.07505C13.6875 5.55005 13.7625 5.13755 13.9125 4.72505ZM17.7375 10.0875C17.5125 10.0875 17.325 10.05 17.1 10.05L20.4 7.53755L21.6 7.08755C21.1875 8.77505 19.6125 10.0875 17.7375 10.0875Z" fill="#161A23"/>
</g>
<defs>
<clipPath id="clip0_501_44710">
<rect width="24" height="24" fill="white"/>
</clipPath>
</defs>
</svg>
