<svg width="24" height="24" viewBox="0 0 24 24" fill="none" xmlns="http://www.w3.org/2000/svg">
<path d="M16.35 21.0375C16.3125 21 16.3125 21 16.275 21L17.8875 15.2625C18.225 14.1 17.625 12.8625 16.5 12.375L15.5625 12V10.5C15.5625 10.05 15.1875 9.67505 14.7375 9.67505C14.2875 9.67505 13.9125 10.05 13.9125 10.5V11.325L10.9125 10.0875C10.3125 9.82505 9.63749 9.82505 9.07499 10.0875L5.99999 11.2875V9.22505C5.99999 8.81255 6.33749 8.51255 6.71249 8.51255H11.8125C12.2625 8.51255 12.6375 8.13755 12.6375 7.68755C12.6375 7.23755 12.2625 6.86255 11.8125 6.86255H7.87499V5.10005C7.87499 4.68755 8.21249 4.38755 8.58749 4.38755H11.5875C12.0375 4.38755 12.45 4.01255 12.45 3.56255C12.45 3.11255 12.075 2.62505 11.5875 2.62505H10.7625V1.12505C10.7625 0.675049 10.3875 0.300049 9.93749 0.300049C9.48749 0.300049 9.11249 0.675049 9.11249 1.12505V2.62505H8.58749C7.27499 2.62505 6.18749 3.71255 6.18749 5.02505V6.86255C5.13749 7.12505 4.31249 8.06255 4.31249 9.22505V12L3.37499 12.375C2.24999 12.825 1.64999 14.1 1.98749 15.2625L3.59999 21C3.56249 21 3.56249 21.0375 3.52499 21.0375L2.13749 22.2375C1.79999 22.5375 1.76249 23.0625 2.06249 23.4375C2.21249 23.625 2.47499 23.7375 2.69999 23.7375C2.88749 23.7375 3.07499 23.6625 3.26249 23.55L4.64999 22.35C4.91249 22.125 5.32499 22.125 5.58749 22.35L5.96249 22.65C6.86249 23.4375 8.21249 23.4375 9.11249 22.65L9.48749 22.35C9.74999 22.125 10.1625 22.125 10.425 22.35L10.8 22.65C11.7 23.4375 13.05 23.4375 13.95 22.65L14.325 22.35C14.5875 22.125 15 22.125 15.2625 22.35L16.65 23.55C16.9875 23.85 17.55 23.8125 17.85 23.475C18.15 23.1375 18.1125 22.5751 17.775 22.275L16.35 21.0375ZM13.2 21.0375L12.825 21.3375C12.5625 21.5625 12.15 21.5625 11.8875 21.3375L11.5125 21.0375C10.6125 20.25 9.26249 20.25 8.36249 21.0375L7.98749 21.3375C7.72499 21.5625 7.31249 21.5625 7.04999 21.3375L6.67499 21.0375C6.26249 20.6625 5.73749 20.475 5.17499 20.475L3.59999 14.8125C3.48749 14.475 3.67499 14.1 4.01249 13.95L9.67499 11.5875C9.86249 11.5125 10.05 11.5125 10.2375 11.5875L15.8625 13.95C16.2 14.1 16.3875 14.475 16.275 14.8125L14.6625 20.475C14.1375 20.475 13.6125 20.6625 13.2 21.0375Z" fill="#161A23"/>
<path d="M22.0875 3.56252C22.0125 3.30002 21.825 3.11252 21.5625 3.03752L20.0625 2.51252L19.125 1.23752C18.975 1.01252 18.7125 0.900024 18.45 0.900024C18.1875 0.900024 17.925 1.01252 17.775 1.23752L16.8375 2.51252L15.3375 3.03752C15.075 3.11252 14.8875 3.33752 14.8125 3.56252C14.7375 3.78752 14.775 4.08752 14.925 4.31252L15.8625 5.62502V7.23752C15.8625 7.50002 16.0125 7.76252 16.2 7.91252C16.35 8.02502 16.5375 8.06252 16.6875 8.06252C16.7625 8.06252 16.875 8.06252 16.95 8.02502L18.4875 7.53752L20.025 8.02502C20.2875 8.10002 20.55 8.06252 20.775 7.91252C21 7.76252 21.1125 7.50002 21.1125 7.23752V5.62502L22.05 4.31252C22.125 4.08752 22.2 3.82502 22.0875 3.56252ZM19.5375 4.87502C19.425 5.02502 19.3875 5.17502 19.3875 5.36252V6.07502L18.7125 5.85002C18.6375 5.81252 18.5625 5.81252 18.45 5.81252C18.3375 5.81252 18.2625 5.81252 18.1875 5.85002L17.5125 6.07502V5.36252C17.5125 5.17502 17.4375 5.02502 17.3625 4.87502L16.95 4.27502L17.625 4.05002C17.775 4.01252 17.925 3.90002 18.0375 3.75002L18.4875 3.15002L18.9375 3.75002C19.05 3.90002 19.2 3.97502 19.35 4.05002L20.025 4.27502L19.5375 4.87502Z" fill="#161A23"/>
</svg>
