<svg width="24" height="24" viewBox="0 0 24 24" fill="none" xmlns="http://www.w3.org/2000/svg">
<path d="M13.9875 21.1875L15.375 16.275C15.675 15.1875 15.1125 14.0625 14.1 13.65L13.35 13.35V12.1125C13.35 11.6625 12.975 11.2875 12.525 11.2875C12.075 11.2875 11.7 11.6625 11.7 12.1125V12.6375L9.22498 11.625C8.69998 11.4 8.06248 11.4 7.53748 11.625L5.06248 12.675V11.025C5.06248 10.725 5.28748 10.5 5.58748 10.5H10.0125C10.4625 10.5 10.8375 10.125 10.8375 9.67497C10.8375 9.22497 10.4625 8.84998 10.0125 8.84998H6.67498V7.42497C6.67498 7.12497 6.89998 6.89998 7.19998 6.89998H8.36248H9.78748C10.2375 6.89998 10.6125 6.52498 10.6125 6.07498C10.6125 5.62498 10.2375 5.24998 9.78748 5.24998H9.18748V4.04998C9.18748 3.59998 8.81248 3.22498 8.36248 3.22498C7.91248 3.22498 7.53748 3.59998 7.53748 4.04998V5.24998H7.19998C5.99998 5.24998 4.98748 6.22498 4.98748 7.46247V8.96247C4.04998 9.22497 3.37498 10.0875 3.37498 11.1V13.4625L2.62498 13.7625C1.61248 14.175 1.04998 15.3375 1.34998 16.3875L2.73748 21.3L1.49998 22.2375C1.16248 22.5375 1.12498 23.0625 1.42498 23.4375C1.57498 23.625 1.83748 23.7375 2.06248 23.7375C2.24998 23.7375 2.43748 23.6625 2.62498 23.55L3.82498 22.5C4.01248 22.35 4.31248 22.35 4.49998 22.5L4.83748 22.7625C5.66248 23.475 6.89998 23.475 7.72498 22.7625L8.02498 22.5C8.21248 22.35 8.51248 22.35 8.69998 22.5L8.99998 22.7625C9.82498 23.475 11.0625 23.475 11.8875 22.7625L12.1875 22.5C12.375 22.35 12.675 22.35 12.8625 22.5L14.0625 23.55C14.4 23.85 14.9625 23.8125 15.2625 23.475C15.5625 23.1375 15.525 22.575 15.1875 22.275L13.9875 21.1875ZM11.1 21.1875L10.8 21.45C10.6125 21.6 10.3125 21.6 10.125 21.45L9.82498 21.1875C8.99998 20.475 7.76248 20.475 6.93748 21.1875L6.63748 21.45C6.44998 21.6 6.14998 21.6 5.96248 21.45L5.62498 21.1875C5.24998 20.8875 4.79998 20.7 4.34998 20.6625L2.96248 15.825C2.88748 15.5625 3.03748 15.3 3.26248 15.1875L4.49998 14.6625C4.53748 14.6625 4.57498 14.625 4.57498 14.625L8.17498 13.125C8.28748 13.0875 8.43748 13.0875 8.58748 13.125L12.1875 14.625C12.225 14.625 12.225 14.6625 12.2625 14.6625L13.5 15.1875C13.725 15.3 13.875 15.5625 13.8 15.825L12.375 20.6625C11.925 20.7 11.475 20.8875 11.1 21.1875Z" fill="#161A23"/>
<path d="M22.0875 3.56249C21.7125 3.26249 21.2625 3.07499 20.775 3.07499H19.875V2.58749C19.875 1.53749 19.425 0.974988 19.05 0.674988C18.7125 0.412488 18.2625 0.299988 17.775 0.299988C17.5125 0.299988 17.0625 0.337488 16.875 0.412488C16.425 0.562488 16.125 0.974988 16.125 1.42499V2.92499C16.125 3.14999 15.975 3.29999 15.825 3.44999C15.7125 3.37499 15.5625 3.33749 15.4125 3.33749H13.125C12.675 3.33749 12.3 3.71249 12.3 4.16249V9.59999C12.3 10.05 12.675 10.425 13.125 10.425H15.4125C15.6 10.425 15.75 10.35 15.9 10.275C16.05 10.3125 16.1625 10.3125 16.3125 10.3125H20.025C21.2625 10.3125 22.1625 9.56249 22.275 8.43749L22.7625 5.47499C22.875 4.76249 22.6125 4.04999 22.0875 3.56249ZM14.5875 8.77499H13.9875V5.02499H14.5875V8.77499ZM21.1125 5.21249L20.625 8.21249C20.5875 8.43749 20.5125 8.66249 20.025 8.66249H16.3125H16.275V5.13749C16.9875 4.76249 17.8125 4.04999 17.8125 2.92499V1.98749C17.8875 1.98749 17.9625 1.98749 18.0375 2.06249C18.1875 2.17499 18.1875 2.47499 18.1875 2.58749V3.93749C18.1875 4.38749 18.5625 4.76249 19.0125 4.76249H20.7375C20.8125 4.76249 20.8875 4.79999 20.9625 4.83749C21.075 4.94999 21.1125 5.09999 21.1125 5.21249Z" fill="#161A23"/>
</svg>
