<svg width="24" height="24" viewBox="0 0 24 24" fill="none" xmlns="http://www.w3.org/2000/svg">
<path d="M13.2 21.1875L14.5875 16.3125C14.8875 15.2625 14.3625 14.1 13.3125 13.6875L12.5625 13.3875V12.15C12.5625 11.7 12.1875 11.325 11.7375 11.325C11.2875 11.325 10.9125 11.7 10.9125 12.15V12.675L8.47501 11.6625C7.95001 11.4375 7.31251 11.4375 6.78751 11.6625L4.31251 12.675V11.0625C4.31251 10.8 4.53751 10.5375 4.83751 10.5375H9.22501C9.67501 10.5375 10.05 10.1625 10.05 9.71249C10.05 9.26249 9.67501 8.88749 9.22501 8.88749H5.92501V7.49999C5.92501 7.23749 6.15002 6.97499 6.45002 6.97499H7.61251H9.03751C9.48751 6.97499 9.86251 6.59999 9.86251 6.14999C9.86251 5.69999 9.48751 5.32499 9.03751 5.32499H8.43751V4.12499C8.43751 3.67499 8.06251 3.29999 7.61251 3.29999C7.16251 3.29999 6.78751 3.67499 6.78751 4.12499V5.32499H6.45002C5.25002 5.32499 4.23751 6.29999 4.23751 7.53749V9.03749C3.30001 9.29999 2.62501 10.1625 2.62501 11.1375V13.4625L1.87501 13.725C0.862515 14.1375 0.300015 15.2625 0.600015 16.35L1.98751 21.225L0.787515 22.275C0.450015 22.575 0.412515 23.1 0.712515 23.475C0.862515 23.625 1.12501 23.7 1.35001 23.7C1.53751 23.7 1.72501 23.625 1.91251 23.5125L3.11251 22.4625C3.30001 22.3125 3.60002 22.3125 3.78752 22.4625L4.08751 22.725C4.91251 23.4375 6.15001 23.4375 6.97501 22.725L7.27501 22.4625C7.46251 22.3125 7.76252 22.3125 7.95002 22.4625L8.25001 22.725C9.07501 23.4375 10.3125 23.4375 11.1375 22.725L11.4375 22.4625C11.625 22.3125 11.925 22.3125 12.1125 22.4625L13.3125 23.5125C13.65 23.8125 14.2125 23.775 14.5125 23.4375C14.8125 23.1 14.775 22.5375 14.4375 22.2375L13.2 21.1875ZM10.3125 21.1875L10.0125 21.45C9.82502 21.6 9.52501 21.6 9.33751 21.45L9.03751 21.1875C8.21251 20.475 6.97501 20.475 6.15001 21.1875L5.85002 21.45C5.66252 21.6 5.36251 21.6 5.17501 21.45L4.87501 21.1875C4.50001 20.8875 4.05001 20.7 3.60002 20.6625L2.25001 15.8625C2.17501 15.6 2.32501 15.3375 2.55001 15.2625L3.75001 14.775C3.78751 14.775 3.82501 14.7375 3.82501 14.7375L7.42501 13.2375C7.53751 13.2 7.68751 13.2 7.80001 13.2375L11.3625 14.7375C11.4 14.7375 11.4 14.775 11.4375 14.775L12.6375 15.3C12.8625 15.4125 13.0125 15.675 12.9375 15.9L11.5875 20.7C11.1375 20.7375 10.6875 20.8875 10.3125 21.1875Z" fill="#161A23"/>
<path d="M15.5625 3.82501H14.175C13.725 3.82501 13.35 4.20001 13.35 4.65001C13.35 5.10001 13.725 5.47501 14.175 5.47501H14.7375V5.96251H14.175C13.725 5.96251 13.35 6.33751 13.35 6.78751V8.96251C13.35 9.41251 13.725 9.78751 14.175 9.78751H15.5625C16.0125 9.78751 16.3875 9.41251 16.3875 8.96251C16.3875 8.51251 16.0125 8.13751 15.5625 8.13751H15V7.65001H15.5625C16.0125 7.65001 16.3875 7.27501 16.3875 6.82501V4.65001C16.3875 4.20001 16.0125 3.82501 15.5625 3.82501Z" fill="#161A23"/>
<path d="M20.0625 3.82501C19.6125 3.82501 19.2375 4.20001 19.2375 4.65001V6.00001H18.9V4.65001C18.9 4.20001 18.525 3.82501 18.075 3.82501C17.625 3.82501 17.25 4.20001 17.25 4.65001V6.82501C17.25 7.27501 17.625 7.65001 18.075 7.65001H19.2375V8.77501C19.2375 9.22501 19.6125 9.60001 20.0625 9.60001C20.5125 9.60001 20.8875 9.22501 20.8875 8.77501V6.78751V6.75001V4.68751C20.925 4.20001 20.5125 3.82501 20.0625 3.82501Z" fill="#161A23"/>
</svg>
