<svg width="24" height="24" viewBox="0 0 24 24" fill="none" xmlns="http://www.w3.org/2000/svg">
<path d="M14.55 21.1125C14.5125 21.1125 14.5125 21.1125 14.55 21.1125L16.0125 15.8625C16.3125 14.7375 15.75 13.575 14.7 13.125L13.875 12.7875V11.4375C13.875 10.9875 13.5 10.6125 13.05 10.6125C12.6 10.6125 12.225 10.9875 12.225 11.4375V12.075L9.56249 10.95C8.99999 10.725 8.36249 10.725 7.79999 10.95L5.09999 12.075V10.275C5.09999 9.93752 5.36249 9.67502 5.69999 9.67502H10.3875C10.8375 9.67502 11.2125 9.30002 11.2125 8.85002C11.2125 8.40002 10.8375 8.02502 10.3875 8.02502H6.74999V6.45002C6.74999 6.11252 7.01249 5.85002 7.34999 5.85002H10.125C10.575 5.85002 10.95 5.47502 10.95 5.02502C10.95 4.57502 10.575 4.20002 10.125 4.20002H9.44999V2.85002C9.44999 2.40002 9.07499 2.02502 8.62499 2.02502C8.17499 2.02502 7.79999 2.40002 7.79999 2.85002V4.16252H7.38749C6.11249 4.16252 5.09999 5.17502 5.09999 6.45002V8.10002C4.12499 8.36252 3.37499 9.26252 3.37499 10.3125V12.825L2.54999 13.1625C1.49999 13.6125 0.89999 14.775 1.23749 15.9L2.69999 21.1125C2.69999 21.1125 2.69999 21.1125 2.66249 21.1125L1.38749 22.2375C1.04999 22.5375 1.01249 23.0625 1.31249 23.4375C1.61249 23.775 2.13749 23.8125 2.51249 23.5125L3.78749 22.3875C4.01249 22.2 4.34999 22.2 4.57499 22.3875L4.91249 22.6875C5.77499 23.4375 7.04999 23.4375 7.91249 22.6875L8.24999 22.3875C8.47499 22.2 8.81249 22.2 9.03749 22.3875L9.37499 22.6875C10.2375 23.4375 11.5125 23.4375 12.375 22.6875L12.7125 22.3875C12.9375 22.2 13.275 22.2 13.5 22.3875L14.775 23.475C14.925 23.625 15.15 23.6625 15.3375 23.6625C15.5625 23.6625 15.825 23.55 15.975 23.3625C16.275 23.025 16.2375 22.4625 15.9 22.1625L14.55 21.1125ZM11.55 21.15L11.2125 21.45C10.9875 21.6375 10.65 21.6375 10.425 21.45L10.0875 21.15C9.22499 20.4 7.94999 20.4 7.08749 21.15L6.74999 21.45C6.52499 21.6375 6.18749 21.6375 5.96249 21.45L5.62499 21.15C5.24999 20.8125 4.76249 20.625 4.27499 20.625L2.84999 15.4125C2.77499 15.1125 2.92499 14.8125 3.18749 14.7L8.39999 12.525C8.54999 12.45 8.69999 12.45 8.84999 12.525L14.025 14.7C14.2875 14.8125 14.4375 15.1125 14.3625 15.4125L12.9 20.5875C12.4125 20.625 11.925 20.8125 11.55 21.15Z" fill="#161A23"/>
<path d="M22.6125 4.53748C22.425 4.08748 21.9375 3.89998 21.525 4.04998C21.075 4.23748 20.8875 4.72498 21.0375 5.13748C21.1875 5.47498 21.225 5.81248 21.225 6.18748C21.225 7.76248 19.95 9.07498 18.3375 9.07498C16.725 9.07498 15.45 7.79998 15.45 6.18748C15.45 4.76248 16.5 3.59998 17.85 3.37498C17.625 3.71248 17.6625 4.12498 17.9625 4.42498C18.1125 4.57498 18.3375 4.68748 18.5625 4.68748C18.7875 4.68748 19.0125 4.61248 19.1625 4.42498L20.5125 3.07498C20.85 2.73748 20.85 2.21248 20.5125 1.87498L19.1625 0.524976C18.825 0.187476 18.3 0.187476 17.9625 0.524976C17.6625 0.824976 17.625 1.31248 17.8875 1.64998C15.5625 1.87498 13.7625 3.82498 13.7625 6.18748C13.7625 8.69998 15.825 10.7625 18.3375 10.7625C20.85 10.7625 22.9125 8.69998 22.9125 6.18748C22.9125 5.62498 22.8 5.06248 22.6125 4.53748Z" fill="#161A23"/>
</svg>
