<svg width="24" height="24" viewBox="0 0 24 24" fill="none" xmlns="http://www.w3.org/2000/svg">
<g clip-path="url(#clip0_501_44641)">
<path d="M14.3625 21.1126L14.325 21.0751L15.8625 15.6751C16.2 14.5501 15.6 13.3501 14.5125 12.9001L13.65 12.5251V11.1001C13.65 10.6501 13.275 10.2751 12.825 10.2751C12.375 10.2751 12 10.6501 12 11.1001V11.8126L9.22498 10.6501C8.66248 10.4251 7.98748 10.4251 7.42498 10.6501L4.61248 11.8126V9.90007C4.61248 9.56257 4.91248 9.26257 5.24998 9.26257H10.0875C10.5375 9.26257 10.9125 8.88757 10.9125 8.43757C10.9125 7.98757 10.5375 7.61257 10.0875 7.61257H6.37498V5.96257C6.37498 5.62507 6.67498 5.32507 7.01248 5.32507H9.86248C10.3125 5.32507 10.6875 4.95007 10.6875 4.50007C10.6875 4.05007 10.3125 3.67507 9.86248 3.67507H9.14998V2.21257C9.14998 1.76257 8.77498 1.38757 8.32498 1.38757C7.87498 1.38757 7.49998 1.76257 7.49998 2.21257V3.60007H7.04998C5.77498 3.60007 4.72498 4.65007 4.72498 5.92507V7.65007C3.71248 7.91257 2.96248 8.81257 2.96248 9.90007V12.5251L2.09998 12.8626C1.01248 13.3126 0.449978 14.5126 0.749978 15.6376L2.28748 21.0376C2.28748 21.0376 2.24998 21.0376 2.24998 21.0751L0.937478 22.2001C0.599978 22.5001 0.562478 23.0251 0.862478 23.4001C0.899978 23.6251 1.12498 23.7001 1.38748 23.7001C1.57498 23.7001 1.76248 23.6251 1.94998 23.5126L3.26248 22.3876C3.48748 22.1626 3.86248 22.1626 4.08748 22.3876L4.42498 22.6876C5.28748 23.4376 6.59998 23.4376 7.46248 22.6876L7.79998 22.3876C8.02498 22.1626 8.39998 22.1626 8.62498 22.3876L8.96248 22.6876C9.82498 23.4376 11.1375 23.4376 12 22.6876L12.3375 22.3876C12.5625 22.1626 12.9375 22.1626 13.1625 22.3876L14.475 23.5126C14.8125 23.8126 15.375 23.7751 15.675 23.4376C15.975 23.1001 15.9375 22.5376 15.6 22.2376L14.3625 21.1126ZM11.325 21.1126L10.9875 21.4126C10.7625 21.6376 10.3875 21.6376 10.1625 21.4126L9.82498 21.1126C8.96248 20.3626 7.64998 20.3626 6.78748 21.1126L6.37498 21.4126C6.14998 21.6376 5.77498 21.6376 5.54998 21.4126L5.21248 21.1126C4.79998 20.7751 4.31248 20.5876 3.82498 20.5501L2.32498 15.2251C2.24998 14.9251 2.39998 14.5876 2.69998 14.4376L8.06248 12.2251C8.21248 12.1501 8.39998 12.1501 8.54998 12.2251L13.875 14.4376C14.175 14.5501 14.325 14.8876 14.25 15.1876L12.75 20.5501C12.1875 20.5876 11.7 20.7376 11.325 21.1126Z" fill="#161A23"/>
<path d="M17.7375 0.300049C14.5875 0.300049 12 2.85005 12 6.03755C12 9.22505 14.5875 11.775 17.7375 11.775C20.8875 11.775 23.475 9.18755 23.475 6.03755C23.475 2.88755 20.8875 0.300049 17.7375 0.300049ZM17.7375 10.0875C15.4875 10.0875 13.6875 8.28755 13.6875 6.03755C13.6875 3.78755 15.4875 1.98755 17.7375 1.98755C19.9875 1.98755 21.7875 3.78755 21.7875 6.03755C21.7875 8.25005 19.9875 10.0875 17.7375 10.0875Z" fill="#161A23"/>
<path d="M18.9 4.95002L17.7375 6.11252L16.6125 4.98752C16.275 4.65002 15.75 4.65002 15.4125 4.98752C15.075 5.32502 15.075 5.85002 15.4125 6.18752L17.1375 7.91252C17.2875 8.06252 17.5125 8.17502 17.7375 8.17502C17.9625 8.17502 18.1875 8.10002 18.3375 7.91252L20.1 6.15002C20.4375 5.81252 20.4375 5.28752 20.1 4.95002C19.7625 4.61252 19.2 4.61252 18.9 4.95002Z" fill="#161A23"/>
</g>
<defs>
<clipPath id="clip0_501_44641">
<rect width="24" height="24" fill="white"/>
</clipPath>
</defs>
</svg>
