<svg width="24" height="24" viewBox="0 0 24 24" fill="none" xmlns="http://www.w3.org/2000/svg">
<path d="M20.9625 1.80002C20.925 1.76252 20.925 1.76252 20.925 1.76252C20.1 1.12502 19.0875 0.712524 18 0.712524C15.4125 0.712524 13.275 2.81252 13.275 5.43752C13.275 6.82503 13.875 8.06252 14.85 8.92502C14.8875 8.96253 14.8875 8.96253 14.925 9.00002C14.925 9.00002 14.9625 9.00003 14.9625 9.03753C15.7875 9.75003 16.8375 10.1625 18.0375 10.1625C20.625 10.1625 22.7625 8.06253 22.7625 5.43752C22.6875 3.97502 22.0125 2.66252 20.9625 1.80002ZM17.9625 2.40002C18.375 2.40002 18.75 2.51252 19.125 2.66252L15.4125 7.08752C15.1125 6.63753 14.9625 6.07503 14.9625 5.47503C14.925 3.78752 16.3125 2.40002 17.9625 2.40002ZM17.9625 8.47503C17.5125 8.47503 17.0625 8.36252 16.65 8.17502L20.4375 3.71252C20.775 4.20002 21 4.80002 21 5.43752C21 7.12503 19.65 8.47503 17.9625 8.47503Z" fill="#161A23"/>
<path d="M14.85 20.6625C14.8125 20.6625 14.8125 20.6625 14.85 20.6625L16.3125 15.375C16.6125 14.25 16.05 13.0875 15 12.6375L14.175 12.3V10.95C14.175 10.5 13.8 10.125 13.35 10.125C12.9 10.125 12.525 10.5 12.525 10.95V11.625L9.75001 10.5C9.18751 10.275 8.55001 10.275 7.98751 10.5L5.28751 11.625V9.7875C5.28751 9.45 5.55001 9.1875 5.88751 9.1875H10.6125C11.0625 9.1875 11.4375 8.8125 11.4375 8.3625C11.4375 7.9125 11.0625 7.5375 10.6125 7.5375H7.01251V5.9625C7.01251 5.625 7.27501 5.3625 7.61251 5.3625H8.85001H10.35C10.8 5.3625 11.175 4.9875 11.175 4.5375C11.175 4.0875 10.8 3.7125 10.35 3.7125H9.67501V2.325C9.67501 1.875 9.30001 1.5 8.85001 1.5C8.40001 1.5 8.02501 1.875 8.02501 2.325V3.6375H7.61251C6.33751 3.6375 5.32501 4.65 5.32501 5.925V7.575C4.35001 7.8375 3.60001 8.7375 3.60001 9.7875V12.3L2.77501 12.6375C1.68751 13.125 1.12501 14.2875 1.46251 15.4125L2.96251 20.6625C2.96251 20.6625 2.92501 20.6625 2.92501 20.7L1.65001 21.825C1.31251 22.125 1.27501 22.65 1.57501 23.025C1.72501 23.2125 1.98751 23.325 2.21251 23.325C2.40001 23.325 2.58751 23.25 2.77501 23.1375L4.05001 22.0125C4.27501 21.825 4.61251 21.825 4.83751 22.0125L5.17501 22.3125C6.03751 23.0625 7.31251 23.0625 8.17501 22.3125L8.51251 22.0125C8.73751 21.825 9.07501 21.825 9.30001 22.0125L9.63751 22.3125C10.5 23.0625 11.775 23.0625 12.6375 22.3125L12.975 22.0125C13.2 21.825 13.5375 21.825 13.7625 22.0125L15.0375 23.1375C15.375 23.4375 15.9375 23.4 16.2375 23.0625C16.5375 22.725 16.5 22.1625 16.1625 21.8625L14.85 20.6625ZM11.8125 20.6625L11.475 20.9625C11.25 21.15 10.9125 21.15 10.6875 20.9625L10.35 20.6625C9.48751 19.9125 8.21251 19.9125 7.35001 20.6625L7.01251 20.9625C6.78751 21.15 6.45001 21.15 6.22501 20.9625L5.88751 20.6625C5.51251 20.325 5.02501 20.1375 4.53751 20.1375L3.07501 14.925C3.00001 14.625 3.15001 14.325 3.41251 14.2125L4.72501 13.6875C4.76251 13.6875 4.80001 13.65 4.80001 13.65L8.62501 12.0375C8.77501 11.9625 8.92501 11.9625 9.07501 12.0375L12.9 13.65C12.9375 13.65 12.9375 13.6875 12.975 13.6875L14.2875 14.25C14.5875 14.3625 14.7375 14.6625 14.625 14.9625L13.1625 20.175C12.7125 20.175 12.225 20.325 11.8125 20.6625Z" fill="#161A23"/>
</svg>
