<svg width="24" height="24" viewBox="0 0 24 24" fill="none" xmlns="http://www.w3.org/2000/svg">
<path d="M14.9625 21.1125L14.925 21.075L16.425 15.7125C16.725 14.5875 16.1625 13.3875 15.075 12.9375L14.25 12.5625V11.175C14.25 10.725 13.875 10.35 13.425 10.35C12.975 10.35 12.6 10.725 12.6 11.175V11.85L9.825 10.6875C9.2625 10.4625 8.625 10.4625 8.025 10.6875L5.25 11.8875V10.0125C5.25 9.675 5.55 9.375 5.8875 9.375H10.6875C11.1375 9.375 11.5125 9 11.5125 8.55C11.5125 8.1 11.1375 7.725 10.6875 7.725H7.0125V6.1125C7.0125 5.775 7.3125 5.475 7.65 5.475H10.5C10.95 5.475 11.325 5.1 11.325 4.65C11.325 4.2 10.95 3.825 10.5 3.825H9.75V2.3625C9.75 1.875 9.375 1.5 8.8875 1.5C8.4 1.5 8.0625 1.875 8.0625 2.325V3.7125H7.6125C6.3375 3.7125 5.2875 4.7625 5.2875 6.0375V7.725C4.275 7.9875 3.525 8.8875 3.525 9.975V12.5625L2.6625 12.9C1.575 13.35 1.0125 14.55 1.3125 15.675L2.8125 21.0375C2.8125 21.0375 2.775 21.0375 2.775 21.075L1.4625 22.2C1.125 22.5 1.0875 23.025 1.3875 23.4C1.5375 23.5875 1.8 23.7 2.025 23.7C2.2125 23.7 2.4 23.625 2.5875 23.5125L3.9 22.3875C4.125 22.2 4.5 22.2 4.725 22.3875L5.0625 22.6875C5.925 23.4375 7.2375 23.4375 8.1 22.6875L8.4375 22.3875C8.6625 22.2 9.0375 22.2 9.2625 22.3875L9.6 22.6875C10.4625 23.4375 11.775 23.4375 12.6375 22.6875L12.975 22.3875C13.2 22.2 13.575 22.2 13.8 22.3875L15.1125 23.5125C15.45 23.8125 16.0125 23.775 16.3125 23.4375C16.6125 23.1 16.575 22.5375 16.2375 22.2375L14.9625 21.1125ZM11.925 21.1125L11.5875 21.4125C11.3625 21.6 10.9875 21.6 10.7625 21.4125L10.425 21.1125C9.5625 20.3625 8.25 20.3625 7.3875 21.1125L7.05 21.4125C6.825 21.6 6.45 21.6 6.225 21.4125L5.8875 21.1125C5.475 20.775 4.9875 20.5875 4.5 20.55L3 15.2625C2.925 14.9625 3.075 14.625 3.375 14.5125L8.7 12.3C8.85 12.225 9.0375 12.225 9.1875 12.3L14.475 14.5125C14.775 14.625 14.925 14.9625 14.85 15.2625L13.35 20.5875C12.825 20.5875 12.3375 20.775 11.925 21.1125Z" fill="#161A23"/>
<path d="M22.725 3.56251L21.75 0.825012C21.6375 0.487512 21.3 0.262512 20.9625 0.262512H15.3375C15 0.262512 14.6625 0.487512 14.55 0.825012L13.575 3.52501C13.5375 3.63751 13.5 3.75001 13.5 3.82501V8.85001C13.5 9.30001 13.875 9.67501 14.325 9.67501H21.9C22.35 9.67501 22.725 9.30001 22.725 8.85001V3.82501C22.7625 3.75001 22.7625 3.63751 22.725 3.56251ZM20.3625 1.95001L20.925 3.48751H15.375L15.9375 1.95001H20.3625ZM15.1875 8.02501V5.21251H21.075V8.02501H15.1875Z" fill="#161A23"/>
</svg>
