<svg width="24" height="24" viewBox="0 0 24 24" fill="none" xmlns="http://www.w3.org/2000/svg">
<g clip-path="url(#clip0_501_44570)">
<path d="M14.3625 21.1125L14.325 21.075L15.8625 15.675C16.2 14.55 15.6 13.35 14.5125 12.9L13.65 12.525V11.1C13.65 10.65 13.275 10.275 12.825 10.275C12.375 10.275 12 10.65 12 11.1V11.8125L9.22498 10.65C8.66248 10.425 7.98748 10.425 7.42498 10.65L4.61248 11.8125V9.90001C4.61248 9.56251 4.91248 9.26251 5.24998 9.26251H10.0875C10.5375 9.26251 10.9125 8.88751 10.9125 8.43751C10.9125 7.98751 10.5375 7.61251 10.0875 7.61251H6.37498V5.96251C6.37498 5.62501 6.67498 5.32501 7.01248 5.32501H9.86248C10.3125 5.32501 10.6875 4.95001 10.6875 4.50001C10.6875 4.05001 10.3125 3.67501 9.86248 3.67501H9.14998V2.21251C9.14998 1.76251 8.77498 1.38751 8.32498 1.38751C7.87498 1.38751 7.49998 1.76251 7.49998 2.21251V3.60001H7.04998C5.77498 3.60001 4.72498 4.65001 4.72498 5.92501V7.65001C3.71248 7.91251 2.96248 8.81251 2.96248 9.90001V12.525L2.09998 12.8625C1.01248 13.3125 0.449978 14.5125 0.749978 15.6375L2.28748 21.0375C2.28748 21.0375 2.24998 21.0375 2.24998 21.075L0.937478 22.2C0.599978 22.5 0.562478 23.025 0.862478 23.4C0.899978 23.625 1.12498 23.7 1.38748 23.7C1.57498 23.7 1.76248 23.625 1.94998 23.5125L3.26248 22.3875C3.48748 22.1625 3.86248 22.1625 4.08748 22.3875L4.42498 22.6875C5.28748 23.4375 6.59998 23.4375 7.46248 22.6875L7.79998 22.3875C8.02498 22.1625 8.39998 22.1625 8.62498 22.3875L8.96248 22.6875C9.82498 23.4375 11.1375 23.4375 12 22.6875L12.3375 22.3875C12.5625 22.1625 12.9375 22.1625 13.1625 22.3875L14.475 23.5125C14.8125 23.8125 15.375 23.775 15.675 23.4375C15.975 23.1 15.9375 22.5375 15.6 22.2375L14.3625 21.1125ZM11.325 21.1125L10.9875 21.4125C10.7625 21.6375 10.3875 21.6375 10.1625 21.4125L9.82498 21.1125C8.96248 20.3625 7.64998 20.3625 6.78748 21.1125L6.37498 21.4125C6.14998 21.6375 5.77498 21.6375 5.54998 21.4125L5.21248 21.1125C4.79998 20.775 4.31248 20.5875 3.82498 20.55L2.32498 15.225C2.24998 14.925 2.39998 14.5875 2.69998 14.4375L4.01248 13.875C4.04998 13.875 4.08748 13.8375 4.08748 13.8375L8.02498 12.1875C8.17498 12.1125 8.36248 12.1125 8.51248 12.1875L12.45 13.8375C12.4875 13.8375 12.4875 13.875 12.525 13.875L13.875 14.4375C14.175 14.55 14.325 14.8875 14.25 15.1875L12.75 20.55C12.1875 20.5875 11.7 20.7375 11.325 21.1125Z" fill="#161A23"/>
<path d="M17.7375 0.299988C14.5875 0.299988 12 2.84999 12 6.03749C12 9.22499 14.5875 11.775 17.7375 11.775C20.8875 11.775 23.475 9.18749 23.475 6.03749C23.475 2.88749 20.8875 0.299988 17.7375 0.299988ZM17.7375 10.0875C15.4875 10.0875 13.6875 8.28749 13.6875 6.03749C13.6875 3.78749 15.4875 1.98749 17.7375 1.98749C19.9875 1.98749 21.7875 3.78749 21.7875 6.03749C21.7875 8.24999 19.9875 10.0875 17.7375 10.0875Z" fill="#161A23"/>
<path d="M18.3375 4.12501C18 3.78751 17.475 3.78751 17.1375 4.12501L15.375 5.88751C15.0375 6.22501 15.0375 6.75001 15.375 7.08751C15.525 7.23751 15.75 7.35001 15.975 7.35001C16.2 7.35001 16.425 7.27501 16.575 7.08751L17.7375 5.92501L18.8625 7.05001C19.2 7.38751 19.725 7.38751 20.0625 7.05001C20.4 6.71251 20.4 6.18751 20.0625 5.85001L18.3375 4.12501Z" fill="#161A23"/>
</g>
<defs>
<clipPath id="clip0_501_44570">
<rect width="24" height="24" fill="white"/>
</clipPath>
</defs>
</svg>
