<svg width="24" height="24" viewBox="0 0 24 24" fill="none" xmlns="http://www.w3.org/2000/svg">
<path d="M17.775 0.5625C15 0.5625 12.7125 2.8125 12.7125 5.625C12.7125 8.4375 15 10.6875 17.775 10.6875C20.55 10.6875 22.8375 8.4 22.8375 5.625C22.8375 2.85 20.5875 0.5625 17.775 0.5625ZM17.775 9C15.9 9 14.4 7.5 14.4 5.625C14.4 3.75 15.9 2.25 17.775 2.25C19.65 2.25 21.15 3.75 21.15 5.625C21.15 7.4625 19.65 9 17.775 9Z" fill="#161A23"/>
<path d="M19.5375 6.41252L18.375 5.58752V4.16252C18.375 3.71252 18 3.33752 17.55 3.33752C17.1 3.33752 16.725 3.71252 16.725 4.20002V6.07502C16.725 6.33752 16.875 6.60002 17.0625 6.75002L18.5625 7.80002C18.7125 7.91252 18.9 7.95002 19.05 7.95002C19.3125 7.95002 19.575 7.83752 19.725 7.61252C20.025 7.20002 19.9125 6.67502 19.5375 6.41252Z" fill="#161A23"/>
<path d="M14.6625 20.85C14.625 20.85 14.6625 20.85 14.6625 20.85L16.125 15.5625C16.425 14.4375 15.8625 13.275 14.8125 12.825L13.9875 12.4875V11.1375C13.9875 10.6875 13.6125 10.3125 13.1625 10.3125C12.7125 10.3125 12.3375 10.6875 12.3375 11.1375V11.775L9.63749 10.65C9.07499 10.425 8.43749 10.425 7.87499 10.65L5.17499 11.775V9.93752C5.17499 9.60002 5.43749 9.33752 5.77499 9.33752H10.5C10.95 9.33752 11.325 8.96252 11.325 8.51252C11.325 8.06252 10.95 7.68752 10.5 7.68752H6.89999V6.11252C6.89999 5.77502 7.16249 5.51252 7.49999 5.51252H8.73749H10.2375C10.6875 5.51252 11.0625 5.13752 11.0625 4.68752C11.0625 4.23752 10.6875 3.86252 10.2375 3.86252H9.56249V2.47502C9.56249 2.02502 9.18749 1.65002 8.73749 1.65002C8.28749 1.65002 7.91249 2.02502 7.91249 2.47502V3.78752H7.49999C6.22499 3.78752 5.21249 4.80002 5.21249 6.07502V7.72502C4.23749 7.98752 3.48749 8.88752 3.48749 9.93752V12.45L2.66249 12.7875C1.57499 13.2375 1.01249 14.4 1.34999 15.525L2.84999 20.775C2.84999 20.775 2.81249 20.775 2.81249 20.8125L1.53749 21.9375C1.19999 22.2375 1.16249 22.7625 1.46249 23.1375C1.61249 23.325 1.87499 23.4375 2.09999 23.4375C2.28749 23.4375 2.47499 23.3625 2.66249 23.25L3.93749 22.125C4.16249 21.9375 4.49999 21.9375 4.72499 22.125L5.06249 22.425C5.92499 23.175 7.19999 23.175 8.06249 22.425L8.39999 22.125C8.62499 21.9375 8.96249 21.9375 9.18749 22.125L9.52499 22.425C10.3875 23.175 11.6625 23.175 12.525 22.425L12.75 22.125C12.975 21.9375 13.3125 21.9375 13.5375 22.125L14.8125 23.25C15.15 23.55 15.7125 23.5125 16.0125 23.175C16.3125 22.8375 16.275 22.275 15.9375 21.975L14.6625 20.85ZM11.6625 20.85L11.325 21.15C11.1 21.3375 10.7625 21.3375 10.5375 21.15L10.2 20.85C9.33749 20.1 8.06249 20.1 7.19999 20.85L6.86249 21.15C6.63749 21.3375 6.29999 21.3375 6.07499 21.15L5.73749 20.85C5.36249 20.5125 4.87499 20.325 4.38749 20.325L2.88749 15.1125C2.81249 14.8125 2.96249 14.5125 3.22499 14.4L4.53749 13.875C4.57499 13.875 4.61249 13.8375 4.61249 13.8375L8.43749 12.225C8.58749 12.15 8.73749 12.15 8.88749 12.225L12.75 13.8C12.7875 13.8 12.7875 13.8375 12.825 13.8375L14.1375 14.4C14.4375 14.5125 14.5875 14.8125 14.475 15.1125L13.0125 20.325C12.525 20.325 12.0375 20.5125 11.6625 20.85Z" fill="#161A23"/>
</svg>
