<svg width="24" height="24" viewBox="0 0 24 24" fill="none" xmlns="http://www.w3.org/2000/svg">
<g clip-path="url(#clip0_501_44685)">
<path d="M20.475 1.125C19.7625 1.125 19.125 1.35 18.5625 1.725C18 1.35 17.3625 1.125 16.65 1.125C14.85 1.125 13.425 2.5875 13.425 4.35C13.425 6.9375 16.9875 9.75 18.0375 10.5375C18.1875 10.65 18.375 10.6875 18.525 10.6875C18.7125 10.6875 18.9 10.6125 19.05 10.5C20.1375 9.7125 23.6625 6.8625 23.6625 4.3125C23.7 2.5875 22.275 1.125 20.475 1.125ZM18.5625 8.8125C16.8 7.425 15.1125 5.55 15.1125 4.35C15.1125 3.4875 15.825 2.8125 16.65 2.8125C17.1375 2.8125 17.5875 3.0375 17.8875 3.4125C18.0375 3.6 18.3 3.75 18.5625 3.75C18.825 3.75 19.0875 3.6375 19.2375 3.4125C19.5375 3.0375 19.9875 2.8125 20.475 2.8125C21.3375 2.8125 22.0125 3.525 22.0125 4.35C22.05 5.55 20.325 7.425 18.5625 8.8125Z" fill="#161A23"/>
<path d="M14.55 20.85C14.5125 20.85 14.5125 20.8125 14.475 20.8125L16.05 15.1875C16.3875 14.025 15.7875 12.825 14.6625 12.3375L13.7625 11.9625V10.5C13.7625 10.05 13.3875 9.67505 12.9375 9.67505C12.4875 9.67505 12.1125 10.05 12.1125 10.5V11.2875L9.18749 10.05C8.58749 9.82505 7.94999 9.82505 7.34999 10.05L4.38749 11.2875V9.26255C4.38749 8.88755 4.68749 8.55005 5.09999 8.55005H10.125C10.575 8.55005 10.95 8.17505 10.95 7.72505C10.95 7.27505 10.575 6.90005 10.125 6.90005H6.22499V5.17505C6.22499 4.80005 6.52499 4.46255 6.93749 4.46255H9.89999C10.35 4.46255 10.725 4.08755 10.725 3.63755C10.725 3.18755 10.35 2.81255 9.89999 2.81255H9.11249V1.31255C9.11249 0.862549 8.73749 0.487549 8.28749 0.487549C7.83749 0.487549 7.46249 0.862549 7.46249 1.31255V2.77505H6.97499C5.66249 2.77505 4.57499 3.82505 4.57499 5.17505V6.97505C3.52499 7.23755 2.73749 8.17505 2.73749 9.30005V12L1.83749 12.375C0.71249 12.825 0.14999 14.0625 0.44999 15.225L2.02499 20.85L1.98749 20.8876L0.63749 22.0875C0.29999 22.3876 0.26249 22.9125 0.56249 23.2875C0.86249 23.625 1.38749 23.6625 1.76249 23.3625L3.03749 22.125C3.29999 21.9 3.67499 21.9 3.93749 22.125L4.31249 22.425C5.21249 23.175 6.52499 23.175 7.42499 22.425L7.79999 22.125C8.06249 21.9 8.43749 21.9 8.69999 22.125L9.07499 22.425C9.97499 23.175 11.2875 23.175 12.1875 22.425L12.525 22.125C12.7875 21.9 13.1625 21.9 13.425 22.125L14.775 23.2875C14.925 23.4375 15.15 23.475 15.3375 23.475C15.5625 23.475 15.825 23.3625 15.975 23.175C16.275 22.8375 16.2375 22.275 15.9 21.975L14.55 20.85ZM11.4375 20.85L11.1 21.15C10.8375 21.375 10.4625 21.375 10.2 21.15L9.82499 20.85C8.92499 20.0625 7.61249 20.1 6.71249 20.85L6.33749 21.15C6.07499 21.375 5.69999 21.375 5.43749 21.15L5.06249 20.85C4.64999 20.475 4.12499 20.2875 3.59999 20.2875L2.02499 14.7375C1.91249 14.4 2.09999 14.025 2.43749 13.9125L7.98749 11.625C8.17499 11.55 8.36249 11.55 8.51249 11.625L14.025 13.9125C14.3625 14.0625 14.5125 14.4 14.4375 14.7375L12.8625 20.2875C12.3375 20.325 11.85 20.5125 11.4375 20.85Z" fill="#161A23"/>
</g>
<defs>
<clipPath id="clip0_501_44685">
<rect width="24" height="24" fill="white"/>
</clipPath>
</defs>
</svg>
