<svg width="24" height="24" viewBox="0 0 24 24" fill="none" xmlns="http://www.w3.org/2000/svg">
<g clip-path="url(#clip0_501_44712)">
<path d="M15.1125 21.0375C15.1125 21 15.075 21 15.0375 21L16.65 15.2625C16.9875 14.1 16.3875 12.8625 15.2625 12.375L14.325 12V10.5C14.325 10.05 13.95 9.67505 13.5 9.67505C13.05 9.67505 12.675 10.05 12.675 10.5V11.325L9.675 10.0875C9.075 9.82505 8.4 9.82505 7.8375 10.0875L4.8 11.3625V9.30005C4.8 8.88755 5.1375 8.58755 5.5125 8.58755H10.6125C11.0625 8.58755 11.4375 8.21255 11.4375 7.76255C11.4375 7.31255 11.0625 6.93755 10.6125 6.93755H6.6375V5.17505C6.6375 4.76255 6.975 4.46255 7.35 4.46255H10.35C10.8 4.46255 11.175 4.08755 11.175 3.63755C11.175 3.18755 10.8375 2.62505 10.3875 2.62505H9.5625V1.12505C9.5625 0.675049 9.1875 0.300049 8.7375 0.300049C8.2875 0.300049 7.875 0.675049 7.875 1.12505V2.62505H7.35C6.0375 2.62505 4.95 3.71255 4.95 5.02505V6.86255C3.9 7.12505 3.075 8.06255 3.075 9.22505V12L2.1375 12.375C1.0125 12.825 0.412503 14.1 0.750003 15.2625L2.3625 21C2.325 21 2.325 21.0375 2.2875 21.0375L0.900003 22.2375C0.562503 22.5375 0.525003 23.0625 0.825003 23.4375C0.975003 23.625 1.2375 23.7375 1.4625 23.7375C1.65 23.7375 1.8375 23.6625 2.025 23.55L3.4125 22.35C3.675 22.125 4.0875 22.125 4.35 22.35L4.725 22.65C5.625 23.4375 6.975 23.4375 7.875 22.65L8.25 22.35C8.5125 22.125 8.925 22.125 9.1875 22.35L9.5625 22.65C10.4625 23.4375 11.8125 23.4375 12.7125 22.65L13.0875 22.35C13.35 22.125 13.7625 22.125 14.025 22.35L15.4125 23.55C15.75 23.85 16.3125 23.8125 16.6125 23.475C16.9125 23.1375 16.875 22.5751 16.5375 22.275L15.1125 21.0375ZM11.9625 21.0375L11.5875 21.3375C11.325 21.5625 10.9125 21.5625 10.65 21.3375L10.275 21.0375C9.375 20.25 8.025 20.25 7.125 21.0375L6.75 21.3375C6.4875 21.5625 6.075 21.5625 5.8125 21.3375L5.4375 21.0375C5.025 20.6625 4.5 20.475 3.9375 20.475L2.4 14.8125C2.2875 14.475 2.475 14.1 2.8125 13.95L8.475 11.5875C8.6625 11.5125 8.85 11.5125 9.0375 11.5875L14.6625 13.95C15 14.1 15.1875 14.475 15.075 14.8125L13.4625 20.475C12.9375 20.475 12.4125 20.6625 11.9625 21.0375Z" fill="#161A23"/>
<path d="M21.4125 0.300049H15.6375C14.55 0.300049 13.6875 1.20005 13.6875 2.25005V6.90005C13.6875 7.98755 14.5875 8.85005 15.6375 8.85005H21.4125C22.5 8.85005 23.3625 7.95005 23.3625 6.90005V2.25005C23.3625 1.16255 22.5 0.300049 21.4125 0.300049ZM15.6375 1.95005H21.4125C21.5625 1.95005 21.7125 2.06255 21.7125 2.25005V2.96255H15.3375V2.25005C15.3375 2.10005 15.4875 1.95005 15.6375 1.95005ZM21.4125 7.16255H15.6375C15.4875 7.16255 15.3375 7.05005 15.3375 6.86255V4.61255H21.675V6.86255C21.675 7.05005 21.5625 7.16255 21.4125 7.16255Z" fill="#161A23"/>
</g>
<defs>
<clipPath id="clip0_501_44712">
<rect width="24" height="24" fill="white"/>
</clipPath>
</defs>
</svg>
