<svg width="24" height="24" viewBox="0 0 24 24" fill="none" xmlns="http://www.w3.org/2000/svg">
<g clip-path="url(#clip0_501_44568)">
<path d="M13.8 21.15C13.7625 21.15 13.7625 21.15 13.8 21.15L15.225 15.975C15.525 14.8875 14.9625 13.725 13.9125 13.275L13.125 12.9375V11.625C13.125 11.175 12.75 10.8 12.3 10.8C11.85 10.8 11.475 11.175 11.475 11.625V12.2625L8.85001 11.175C8.28751 10.95 7.65001 10.95 7.08751 11.175L4.42501 12.2625V10.5C4.42501 10.1625 4.68751 9.9375 4.98751 9.9375H9.63751C10.0875 9.9375 10.4625 9.5625 10.4625 9.1125C10.4625 8.6625 10.0875 8.2875 9.63751 8.2875H6.11251V6.75C6.11251 6.4125 6.37501 6.1875 6.67501 6.1875H9.41251C9.86251 6.1875 10.2375 5.8125 10.2375 5.3625C10.2375 4.9125 9.86251 4.5375 9.41251 4.5375H8.73751V3.075C8.73751 2.625 8.36251 2.25 7.91251 2.25C7.46251 2.25 7.08751 2.625 7.08751 3.075V4.35H6.71251C5.47501 4.35 4.46251 5.3625 4.46251 6.6V8.25C3.48751 8.5125 2.77501 9.375 2.77501 10.425V12.9L1.98751 13.2375C0.937509 13.6875 0.375009 14.85 0.675009 15.9375L2.13751 21.1125C2.13751 21.1125 2.13751 21.1125 2.10001 21.1125L0.750009 22.2375C0.412509 22.5375 0.375009 23.0625 0.675009 23.4375C0.975009 23.775 1.50001 23.8125 1.87501 23.5125L3.15001 22.425C3.37501 22.2375 3.67501 22.2375 3.90001 22.425L4.23751 22.725C5.10001 23.4375 6.37501 23.4375 7.20001 22.725L7.53751 22.425C7.76251 22.2375 8.06251 22.2375 8.28751 22.425L8.62501 22.725C9.48751 23.475 10.7625 23.475 11.5875 22.725L11.925 22.425C12.15 22.2375 12.45 22.2375 12.675 22.425L13.95 23.5125C14.1 23.6625 14.2875 23.7 14.5125 23.7C14.7375 23.7 15 23.5875 15.15 23.4C15.45 23.0625 15.4125 22.5 15.075 22.2L13.8 21.15ZM10.8 21.15L10.5 21.4125C10.275 21.6 9.97501 21.6 9.75001 21.4125L9.41251 21.1125C8.55001 20.3625 7.27501 20.3625 6.45001 21.1125L6.11251 21.4125C5.88751 21.6 5.58751 21.6 5.36251 21.4125L5.02501 21.1125C4.65001 20.775 4.16251 20.625 3.67501 20.5875L2.21251 15.525C2.13751 15.225 2.28751 14.9625 2.55001 14.85L3.82501 14.325C3.86251 14.325 3.90001 14.2875 3.90001 14.2875L7.68751 12.7125C7.83751 12.6375 7.98751 12.6375 8.13751 12.7125L11.8875 14.2875C11.925 14.2875 11.925 14.325 11.9625 14.325L13.2375 14.85C13.5 14.9625 13.65 15.2625 13.575 15.525L12.15 20.625C11.6625 20.625 11.2125 20.8125 10.8 21.15Z" fill="#161A23"/>
<path d="M23.25 6.82499L20.325 1.46249C19.9125 0.749988 19.1625 0.299988 18.3375 0.299988C17.5125 0.299988 16.7625 0.749988 16.35 1.46249L13.425 6.82499C13.05 7.53749 13.05 8.36249 13.4625 9.07499C13.875 9.78749 14.5875 10.2 15.4125 10.2H21.2625C22.0875 10.2 22.8 9.78749 23.2125 9.07499C23.625 8.36249 23.625 7.53749 23.25 6.82499ZM21.75 8.21249C21.7125 8.28749 21.5625 8.51249 21.2625 8.51249H15.375C15.075 8.51249 14.925 8.32499 14.8875 8.21249C14.85 8.13749 14.7375 7.91249 14.8875 7.64999L17.8125 2.28749C17.9625 2.02499 18.225 1.98749 18.3375 1.98749C18.45 1.98749 18.7125 2.02499 18.8625 2.28749L21.75 7.61249C21.9 7.87499 21.7875 8.09999 21.75 8.21249Z" fill="#161A23"/>
<path d="M18.3375 3.5625C17.8875 3.5625 17.5125 3.9375 17.5125 4.3875V5.4375C17.5125 5.8875 17.8875 6.2625 18.3375 6.2625C18.7875 6.2625 19.1625 5.8875 19.1625 5.4375V4.3875C19.1625 3.9375 18.7875 3.5625 18.3375 3.5625Z" fill="#161A23"/>
<path d="M18.3375 6.59998C17.8875 6.59998 17.5125 6.97498 17.5125 7.46248C17.5125 7.94998 17.8875 8.28748 18.3375 8.28748C18.7875 8.28748 19.1625 7.91248 19.1625 7.46248V7.42498C19.1625 6.97498 18.7875 6.59998 18.3375 6.59998Z" fill="#161A23"/>
</g>
<defs>
<clipPath id="clip0_501_44568">
<rect width="24" height="24" fill="white"/>
</clipPath>
</defs>
</svg>
