<svg width="24" height="24" viewBox="0 0 24 24" fill="none" xmlns="http://www.w3.org/2000/svg">
<path d="M15.975 20.7375L17.4375 15.4125C17.7375 14.2875 17.175 13.125 16.125 12.675L15.3 12.3375V10.9875C15.3 10.5375 14.925 10.1625 14.475 10.1625C14.025 10.1625 13.65 10.5375 13.65 10.9875V11.625L10.95 10.5C10.3875 10.275 9.75 10.275 9.1875 10.5L6.45 11.625V9.78746C6.45 9.44996 6.7125 9.18746 7.05 9.18746H11.775C12.225 9.18746 12.6 8.81246 12.6 8.36246C12.6 7.91246 12.225 7.53746 11.775 7.53746H8.1375V5.96246C8.1375 5.62496 8.4 5.36246 8.7375 5.36246H9.975H11.5125C11.9625 5.36246 12.3375 4.98746 12.3375 4.53746C12.3375 4.08746 11.9625 3.71246 11.5125 3.71246H10.8375V2.28746C10.8375 1.83746 10.4625 1.46246 10.0125 1.46246C9.5625 1.46246 9.1875 1.83746 9.1875 2.28746V3.63746H8.775C7.5 3.63746 6.4875 4.68746 6.4875 5.92496V7.57496C5.5125 7.83746 4.7625 8.73746 4.7625 9.78746V12.3375L3.9375 12.675C2.85 13.125 2.2875 14.2875 2.625 15.4125L4.125 20.7C4.125 20.7 4.0875 20.7 4.0875 20.7375L2.775 21.8625C2.4375 22.1625 2.4 22.6875 2.7 23.0625C2.85 23.25 3.1125 23.3625 3.3375 23.3625C3.525 23.3625 3.7125 23.2875 3.9 23.175L5.2125 22.05C5.4375 21.8625 5.775 21.8625 6 22.05L6.3375 22.35C7.2 23.1 8.475 23.1 9.3375 22.35L9.675 22.05C9.9 21.8625 10.2375 21.8625 10.4625 22.05L10.8 22.35C11.6625 23.1 12.9375 23.1 13.8 22.35L14.1375 22.05C14.3625 21.8625 14.7 21.8625 14.925 22.05L16.2 23.175C16.5375 23.475 17.1 23.4375 17.4 23.1C17.7 22.7625 17.6625 22.2 17.325 21.9L15.975 20.7375ZM12.975 20.7375L12.6375 21.0375C12.4125 21.225 12.075 21.225 11.85 21.0375L11.5125 20.7375C10.65 19.9875 9.375 19.9875 8.5125 20.7375L8.175 21.0375C7.95 21.225 7.6125 21.225 7.3875 21.0375L7.05 20.7375C6.675 20.4 6.1875 20.2125 5.6625 20.175L4.2 14.9625C4.125 14.6625 4.275 14.3625 4.5375 14.25L5.85 13.725C5.8875 13.725 5.925 13.6875 5.925 13.6875L9.7875 12.075C9.9375 12 10.125 12 10.275 12.075L14.1 13.6875C14.1375 13.6875 14.1375 13.725 14.175 13.725L15.4875 14.2875C15.7875 14.4 15.9375 14.7375 15.825 15L14.3625 20.2125C13.875 20.2125 13.3875 20.4 12.975 20.7375Z" fill="#161A23"/>
<path d="M18.375 0.674988C17.5875 0.674988 16.8375 0.974988 16.2375 1.49999C15.9 1.79999 15.8625 2.32499 16.1625 2.69999C16.4625 3.03749 16.9875 3.07499 17.3625 2.77499C17.625 2.51249 18 2.39999 18.375 2.39999C19.2 2.39999 19.9125 3.07499 19.9125 3.93749C19.9125 4.76249 19.2375 5.47499 18.375 5.47499C17.925 5.47499 17.55 5.84999 17.55 6.29999V8.24999C17.55 8.69999 17.925 9.07499 18.375 9.07499C18.825 9.07499 19.2 8.69999 19.2 8.24999V6.97499C20.55 6.59999 21.5625 5.36249 21.5625 3.86249C21.5625 2.09999 20.1375 0.674988 18.375 0.674988Z" fill="#161A23"/>
<path d="M18.3375 9.375C17.8875 9.375 17.5125 9.75 17.5125 10.2V10.3125C17.5125 10.7625 17.8875 11.1375 18.3375 11.1375C18.7875 11.1375 19.1625 10.7625 19.1625 10.3125V10.2C19.2 9.75 18.825 9.375 18.3375 9.375Z" fill="#161A23"/>
</svg>
