<svg width="24" height="24" viewBox="0 0 24 24" fill="none" xmlns="http://www.w3.org/2000/svg">
<g clip-path="url(#clip0_501_44585)">
<path d="M14.1375 21.1125C14.1375 21.1125 14.1 21.1125 14.1 21.075L15.6 15.75C15.9 14.625 15.3375 13.425 14.25 12.975L13.425 12.6375V11.25C13.425 10.8 13.05 10.425 12.6 10.425C12.15 10.425 11.775 10.8 11.775 11.25V11.925L9 10.8C8.4375 10.575 7.8 10.575 7.2375 10.8L4.4625 11.9625V10.0875C4.4625 9.75002 4.725 9.45002 5.1 9.45002H9.9C10.35 9.45002 10.725 9.07502 10.725 8.62502C10.725 8.17502 10.35 7.80002 9.9 7.80002H6.225V6.18752C6.225 5.85002 6.4875 5.55002 6.8625 5.55002H9.675C10.125 5.55002 10.5 5.17502 10.5 4.72502C10.5 4.27502 10.125 3.90002 9.675 3.90002H8.9625V2.47502C8.9625 2.02502 8.5875 1.65002 8.1375 1.65002C7.6875 1.65002 7.3125 2.02502 7.3125 2.47502V3.82502H6.9C5.625 3.82502 4.575 4.87502 4.575 6.15002V7.83752C3.5625 8.10002 2.8125 9.00002 2.8125 10.0875V12.675L1.9875 13.0125C0.825003 13.425 0.262503 14.625 0.562503 15.75L2.0625 21.075C2.0625 21.075 2.025 21.075 2.025 21.1125L0.712503 22.2375C0.375003 22.5375 0.337503 23.0625 0.637503 23.4375C0.787503 23.625 1.05 23.7375 1.275 23.7375C1.4625 23.7375 1.65 23.6625 1.8375 23.55L3.15 22.425C3.375 22.2375 3.75 22.2375 3.975 22.425L4.3125 22.725C5.175 23.475 6.4875 23.475 7.35 22.725L7.6875 22.425C7.9125 22.2375 8.2875 22.2375 8.5125 22.425L8.85 22.725C9.7125 23.475 11.025 23.475 11.8875 22.725L12.225 22.425C12.45 22.2375 12.825 22.2375 13.05 22.425L14.3625 23.55C14.7 23.85 15.2625 23.8125 15.5625 23.475C15.8625 23.1375 15.825 22.575 15.4875 22.275L14.1375 21.1125ZM11.1 21.1125L10.7625 21.4125C10.5375 21.6 10.1625 21.6 9.9375 21.4125L9.6 21.1125C8.7375 20.3625 7.425 20.3625 6.5625 21.1125L6.225 21.4125C6 21.6 5.625 21.6 5.4 21.4125L5.0625 21.1125C4.65 20.775 4.1625 20.5875 3.675 20.55L2.175 15.3C2.1 15 2.25 14.6625 2.55 14.55L7.875 12.3375C8.025 12.2625 8.2125 12.2625 8.3625 12.3375L13.65 14.55C13.95 14.6625 14.1 15 14.025 15.3L12.525 20.5875C12 20.5875 11.5125 20.775 11.1 21.1125Z" fill="#161A23"/>
<path d="M23.25 2.85C23.25 2.8125 23.2125 2.8125 23.2125 2.775C23.025 2.55 22.8 2.3625 22.5375 2.2125L18.6 0.45C18.1125 0.225 17.5875 0.225 17.1 0.45L13.2 2.2125C12.9375 2.325 12.7125 2.5125 12.525 2.775C12.4875 2.8125 12.4875 2.8125 12.45 2.85C12.45 2.8875 12.4125 2.8875 12.4125 2.925C12.4125 2.925 12.4125 2.925 12.4125 2.9625C12.2625 3.225 12.1875 3.525 12.1875 3.8625V8.4C12.1875 9.075 12.5625 9.675 13.1625 9.975L17.0625 11.925C17.325 12.0375 17.5875 12.1125 17.85 12.1125C18.1125 12.1125 18.4125 12.0375 18.6375 11.925L22.5375 9.975C23.1375 9.675 23.5125 9.075 23.5125 8.4V3.8625C23.55 3.4875 23.4375 3.15 23.25 2.85ZM17.85 4.6875L15 3.2625L15.5625 3L18.375 4.3875L17.85 4.6875ZM17.85 1.95H17.8875L20.7 3.2625L20.25 3.4875L17.475 2.1L17.775 1.95C17.85 1.9875 17.85 1.95 17.85 1.95ZM13.875 8.3625V4.6125L17.025 6.15V10.0125L13.9125 8.4375C13.875 8.4375 13.875 8.4 13.875 8.3625ZM21.825 8.475L18.7125 10.05V6.15L19.425 5.8125V6.6C19.425 7.05 19.8 7.425 20.25 7.425C20.7 7.425 21.075 7.05 21.075 6.6V4.9875L21.825 4.6125V8.4C21.8625 8.4 21.825 8.4375 21.825 8.475Z" fill="#161A23"/>
</g>
<defs>
<clipPath id="clip0_501_44585">
<rect width="24" height="24" fill="white"/>
</clipPath>
</defs>
</svg>
