<svg width="24" height="24" viewBox="0 0 24 24" fill="none" xmlns="http://www.w3.org/2000/svg">
<path d="M16.1625 21.0375C16.125 21 16.125 21 16.0875 21L17.7 15.2625C18.0375 14.1 17.4375 12.8625 16.3125 12.375L15.375 12V10.5C15.375 10.05 15 9.67499 14.55 9.67499C14.1 9.67499 13.725 10.05 13.725 10.5V11.325L10.725 10.0875C10.125 9.82499 9.44999 9.82499 8.88749 10.0875L5.84999 11.3625V9.29999C5.84999 8.88749 6.18749 8.58749 6.56249 8.58749H11.625C12.075 8.58749 12.45 8.21249 12.45 7.76249C12.45 7.31249 12.075 6.93749 11.625 6.93749H7.68749V5.17499C7.68749 4.76249 8.02499 4.46249 8.39999 4.46249H11.4C11.85 4.46249 12.225 4.08749 12.225 3.63749C12.225 3.18749 11.85 2.62499 11.4 2.62499H10.575V1.12499C10.575 0.674988 10.2 0.299988 9.74999 0.299988C9.29999 0.299988 8.92499 0.674988 8.92499 1.12499V2.62499H8.39999C7.04999 2.62499 5.99999 3.71249 5.99999 5.02499V6.86249C4.94999 7.12499 4.12499 8.06249 4.12499 9.22499V12L3.18749 12.375C2.06249 12.825 1.46249 14.1 1.79999 15.2625L3.41249 21C3.37499 21 3.37499 21 3.33749 21.0375L1.94999 22.2375C1.61249 22.5375 1.57499 23.0625 1.87499 23.4375C2.02499 23.625 2.28749 23.7375 2.51249 23.7375C2.69999 23.7375 2.88749 23.6625 3.07499 23.55L4.46249 22.35C4.72499 22.125 5.13749 22.125 5.39999 22.35L5.77499 22.65C6.67499 23.4375 8.02499 23.4375 8.92499 22.65L9.29999 22.35C9.56249 22.125 9.97499 22.125 10.2375 22.35L10.6125 22.65C11.5125 23.4375 12.8625 23.4375 13.7625 22.65L14.1375 22.35C14.4 22.125 14.8125 22.125 15.075 22.35L16.4625 23.55C16.8 23.85 17.3625 23.8125 17.6625 23.475C17.9625 23.1375 17.925 22.575 17.5875 22.275L16.1625 21.0375ZM13.0125 21.0375L12.6375 21.3375C12.375 21.5625 11.9625 21.5625 11.7 21.3375L11.325 21.0375C10.425 20.25 9.07499 20.25 8.17499 21.0375L7.79999 21.3375C7.53749 21.5625 7.12499 21.5625 6.86249 21.3375L6.48749 21.0375C6.07499 20.6625 5.54999 20.475 4.98749 20.475L3.41249 14.8125C3.29999 14.475 3.48749 14.1 3.82499 13.95L9.48749 11.5875C9.67499 11.5125 9.86249 11.5125 10.05 11.5875L15.675 13.95C16.0125 14.1 16.2 14.475 16.0875 14.8125L14.475 20.475C13.95 20.475 13.425 20.6625 13.0125 21.0375Z" fill="#161A23"/>
<path d="M22.0875 6.90001L20.7 5.51251C20.9625 5.06251 21.075 4.57501 21.075 4.05001C21.075 3.22501 20.775 2.47501 20.175 1.91251C18.975 0.712512 17.0625 0.712512 15.8625 1.91251C15.3 2.47501 15 3.22501 15 4.05001C15 4.87501 15.3 5.62501 15.9 6.18751C16.5 6.78751 17.2875 7.08751 18.0375 7.08751C18.525 7.08751 19.05 6.97501 19.5 6.71251L20.8875 8.10001C21.0375 8.25001 21.2625 8.36251 21.4875 8.36251C21.7125 8.36251 21.9375 8.28751 22.0875 8.10001C22.425 7.76251 22.425 7.23751 22.0875 6.90001ZM17.0625 4.98751C16.8 4.72501 16.65 4.38751 16.65 4.05001C16.65 3.67501 16.8 3.33751 17.0625 3.07501C17.325 2.81251 17.6625 2.66251 18.0375 2.66251C18.4125 2.66251 18.75 2.81251 18.975 3.07501C19.2375 3.33751 19.3875 3.67501 19.3875 4.05001C19.3875 4.42501 19.2375 4.76251 18.975 4.98751C18.4875 5.51251 17.5875 5.51251 17.0625 4.98751Z" fill="#161A23"/>
</svg>
