<svg width="24" height="24" viewBox="0 0 24 24" fill="none" xmlns="http://www.w3.org/2000/svg">
<path d="M15.7125 21.0374C15.675 21.0374 15.675 20.9999 15.6375 20.9999L17.25 15.2999C17.5875 14.1374 16.9875 12.8999 15.8625 12.4499L14.925 12.0749V10.5749C14.925 10.1249 14.55 9.74993 14.1 9.74993C13.65 9.74993 13.275 10.1249 13.275 10.5749V11.3624L10.3125 10.1249C9.7125 9.86243 9.0375 9.86243 8.475 10.1249L5.475 11.3624V9.29993C5.475 8.92493 5.8125 8.58743 6.1875 8.58743H11.25C11.7 8.58743 12.075 8.21243 12.075 7.76243C12.075 7.31243 11.7 6.93743 11.25 6.93743H7.3125V5.17493C7.3125 4.79993 7.65 4.46243 8.025 4.46243H11.025C11.475 4.46243 11.85 4.08743 11.85 3.63743C11.85 3.18743 11.475 2.81243 11.025 2.81243H10.2375V1.31243C10.2375 0.862427 9.8625 0.487427 9.4125 0.487427C8.9625 0.487427 8.5875 0.862427 8.5875 1.31243V2.81243H8.1C6.7875 2.81243 5.7 3.89993 5.7 5.21243V7.01243C4.65 7.27493 3.8625 8.21243 3.8625 9.33743V12.0749L2.9625 12.4499C1.8375 12.8999 1.2375 14.1374 1.575 15.2999L3.075 20.9999C3.0375 20.9999 3.0375 21.0374 3 21.0374L1.6125 22.2374C1.275 22.5374 1.2375 23.0624 1.5375 23.4374C1.8375 23.7749 2.3625 23.8124 2.7375 23.5124L4.125 22.3124C4.3875 22.0874 4.8 22.0874 5.0625 22.3124L5.4375 22.6124C6.3375 23.3999 7.6875 23.3999 8.5875 22.6124L8.9625 22.3124C9.225 22.0874 9.6375 22.0874 9.9 22.3124L10.275 22.6124C11.175 23.3999 12.525 23.3999 13.425 22.6124L13.8 22.3124C14.0625 22.0874 14.475 22.0874 14.7375 22.3124L16.125 23.5124C16.275 23.6624 16.5 23.6999 16.6875 23.6999C16.9125 23.6999 17.175 23.5874 17.325 23.3999C17.625 23.0624 17.5875 22.4999 17.25 22.1999L15.7125 21.0374ZM12.6 21.0374L12.225 21.3374C11.9625 21.5624 11.55 21.5624 11.2875 21.3374L10.9125 21.0374C10.0125 20.2499 8.6625 20.2499 7.7625 21.0374L7.3875 21.3374C7.125 21.5624 6.7125 21.5624 6.45 21.3374L6.075 21.0374C5.6625 20.6624 5.1375 20.4749 4.6125 20.4749L3.0375 14.8499C2.925 14.5124 3.1125 14.1374 3.45 13.9874L9.0375 11.6624C9.225 11.5874 9.4125 11.5874 9.6 11.6624L15.1875 13.9874C15.525 14.1374 15.7125 14.4749 15.6 14.8499L14.025 20.4749C13.5375 20.5124 13.0125 20.6624 12.6 21.0374Z" fill="#161A23"/>
<path d="M21.825 3.63745H21.4125V2.77495C21.4125 1.38745 20.2875 0.262451 18.9 0.262451C17.5125 0.262451 16.3875 1.38745 16.3875 2.77495V3.63745H15.975C15.525 3.63745 15.15 4.01245 15.15 4.46245V7.87495C15.15 8.32495 15.525 8.69995 15.975 8.69995H21.7875C22.2375 8.69995 22.6125 8.32495 22.6125 7.87495V4.46245C22.65 4.01245 22.275 3.63745 21.825 3.63745ZM18.1125 2.77495C18.1125 2.32495 18.4875 1.94995 18.9375 1.94995C19.3875 1.94995 19.7625 2.32495 19.7625 2.77495V3.63745H18.15V2.77495H18.1125ZM20.9625 7.01245H16.8375V5.28745H20.9625V7.01245Z" fill="#161A23"/>
</svg>
