<svg width="24" height="24" viewBox="0 0 24 24" fill="none" xmlns="http://www.w3.org/2000/svg">
<path d="M16.0125 21.0375C15.975 21 15.9375 21 15.9375 21L17.55 15.2625C17.8875 14.1 17.2875 12.8625 16.1625 12.375L15.225 12V10.5C15.225 10.05 14.85 9.67499 14.4 9.67499C13.95 9.67499 13.575 10.05 13.575 10.5V11.325L10.575 10.0875C9.97503 9.82499 9.30003 9.82499 8.73753 10.0875L5.70003 11.3625V9.29999C5.70003 8.88749 6.03753 8.58749 6.41253 8.58749H11.5125C11.9625 8.58749 12.3375 8.21249 12.3375 7.76249C12.3375 7.31249 11.9625 6.93749 11.5125 6.93749H7.50003V5.17499C7.50003 4.76249 7.83753 4.46249 8.21253 4.46249H11.2125C11.6625 4.46249 12.075 4.08749 12.075 3.63749C12.075 3.18749 11.7 2.62499 11.25 2.62499H10.425V1.12499C10.425 0.674988 10.05 0.299988 9.60003 0.299988C9.15003 0.299988 8.77503 0.674988 8.77503 1.12499V2.62499H8.25003C6.93753 2.62499 5.85003 3.71249 5.85003 5.02499V6.86249C4.80003 7.12499 3.97503 8.06249 3.97503 9.22499V12L3.03753 12.375C1.91253 12.825 1.31253 14.1 1.65003 15.2625L3.26253 21C3.22503 21 3.22503 21.0375 3.18753 21.0375L1.80003 22.2375C1.46253 22.5375 1.42503 23.0625 1.72503 23.4375C1.87503 23.625 2.10003 23.7 2.36253 23.7C2.55003 23.7 2.73753 23.625 2.92503 23.5125L4.31253 22.3125C4.57503 22.0875 4.98753 22.0875 5.25003 22.3125L5.62503 22.6125C6.52503 23.4 7.87503 23.4 8.77503 22.6125L9.15003 22.3125C9.41253 22.0875 9.82503 22.0875 10.0875 22.3125L10.4625 22.6125C11.3625 23.4 12.7125 23.4 13.6125 22.6125L13.9875 22.3125C14.25 22.0875 14.6625 22.0875 14.925 22.3125L16.3125 23.5125C16.65 23.8125 17.2125 23.775 17.5125 23.4375C17.8125 23.1 17.775 22.5375 17.4375 22.2375L16.0125 21.0375ZM12.8625 21.0375L12.4875 21.3375C12.225 21.5625 11.8125 21.5625 11.55 21.3375L11.175 21.0375C10.275 20.25 8.92503 20.25 8.02503 21.0375L7.65003 21.3375C7.38753 21.5625 6.97503 21.5625 6.71253 21.3375L6.33753 21.0375C5.92503 20.6625 5.40003 20.475 4.83753 20.475L3.26253 14.8125C3.15003 14.475 3.33753 14.1 3.67503 13.95L9.33753 11.5875C9.52503 11.5125 9.71253 11.5125 9.90003 11.5875L15.525 13.95C15.8625 14.1 16.05 14.475 15.9375 14.8125L14.325 20.475C13.8 20.475 13.275 20.6625 12.8625 21.0375Z" fill="#161A23"/>
<path d="M21.9375 1.80001L19.0125 0.787512C18.825 0.712512 18.6375 0.712512 18.45 0.787512L15.525 1.80001C15.1875 1.91251 14.9625 2.25001 14.9625 2.62501V4.95001C14.9625 7.68751 17.55 9.18751 18.3375 9.60001C18.45 9.67501 18.6 9.67501 18.7125 9.67501C18.825 9.67501 18.975 9.63751 19.0875 9.60001C19.875 9.18751 22.4625 7.65001 22.4625 4.95001V2.62501C22.5 2.25001 22.275 1.91251 21.9375 1.80001ZM20.8125 4.95001C20.8125 6.41251 19.4625 7.42501 18.75 7.87501C18.0375 7.42501 16.6875 6.41251 16.6875 4.95001V3.18751L18.75 2.47501L20.8125 3.18751V4.95001Z" fill="#161A23"/>
</svg>
