<svg width="24" height="24" viewBox="0 0 24 24" fill="none" xmlns="http://www.w3.org/2000/svg">
<path d="M22.5 14.0625H19.3875V3.60002C19.3875 2.51252 18.4875 1.65002 17.4375 1.65002H11.5125C10.425 1.65002 9.56249 2.55002 9.56249 3.60002V4.65002H3.03749C1.72499 4.65002 0.674988 5.70002 0.674988 7.01252V19.95C0.674988 21.2625 1.72499 22.3125 3.03749 22.3125H15.75C16.575 22.3125 17.325 21.9 17.775 21.1875L21.225 15.75H22.5C22.95 15.75 23.325 15.375 23.325 14.925C23.325 14.475 22.95 14.0625 22.5 14.0625ZM18.225 17.3625H2.32499V15.75H19.2375L18.225 17.3625ZM11.2125 14.0625V9.52502H17.6625V14.0625H11.2125ZM11.2125 3.60002C11.2125 3.45002 11.325 3.30002 11.5125 3.30002H17.4C17.55 3.30002 17.7 3.41252 17.7 3.60002V7.83752H11.2125V3.60002ZM3.03749 6.33752H9.52499V14.0625H2.32499V7.05002C2.32499 6.67502 2.66249 6.33752 3.03749 6.33752ZM15.75 20.7H3.03749C2.66249 20.7 2.36249 20.4 2.36249 20.025V19.0875H17.175L16.35 20.4C16.2375 20.55 16.0125 20.7 15.75 20.7Z" fill="#161A23"/>
<path d="M13.05 4.20007C12.6 4.20007 12.225 4.57507 12.225 5.02507V6.07507C12.225 6.52507 12.6 6.90007 13.05 6.90007C13.5 6.90007 13.875 6.52507 13.875 6.07507V5.02507C13.9125 4.57507 13.5375 4.20007 13.05 4.20007Z" fill="#161A23"/>
<path d="M15.9375 4.20007C15.4875 4.20007 15.1125 4.57507 15.1125 5.02507V6.07507C15.1125 6.52507 15.4875 6.90007 15.9375 6.90007C16.3875 6.90007 16.7625 6.52507 16.7625 6.07507V5.02507C16.8 4.57507 16.3875 4.20007 15.9375 4.20007Z" fill="#161A23"/>
<path d="M13.05 10.35C12.6 10.35 12.225 10.725 12.225 11.175V12.225C12.225 12.675 12.6 13.05 13.05 13.05C13.5 13.05 13.875 12.675 13.875 12.225V11.175C13.9125 10.725 13.5375 10.35 13.05 10.35Z" fill="#161A23"/>
<path d="M15.9375 10.35C15.4875 10.35 15.1125 10.725 15.1125 11.175V12.225C15.1125 12.675 15.4875 13.05 15.9375 13.05C16.3875 13.05 16.7625 12.675 16.7625 12.225V11.175C16.8 10.725 16.3875 10.35 15.9375 10.35Z" fill="#161A23"/>
<path d="M4.49999 11.55C4.94999 11.55 5.32499 11.175 5.32499 10.725V9.67498C5.32499 9.22498 4.94999 8.84998 4.49999 8.84998C4.04999 8.84998 3.67499 9.22498 3.67499 9.67498V10.725C3.67499 11.175 4.04999 11.55 4.49999 11.55Z" fill="#161A23"/>
<path d="M7.49998 11.55C7.94998 11.55 8.32498 11.175 8.32498 10.725V9.67498C8.32498 9.22498 7.94998 8.84998 7.49998 8.84998C7.04998 8.84998 6.67498 9.22498 6.67498 9.67498V10.725C6.63748 11.175 7.01248 11.55 7.49998 11.55Z" fill="#161A23"/>
</svg>
