<svg width="24" height="24" viewBox="0 0 24 24" fill="none" xmlns="http://www.w3.org/2000/svg">
<g clip-path="url(#clip0_501_44620)">
<path d="M14.3625 21.1126L14.325 21.0751L15.8625 15.6751C16.2 14.5501 15.6 13.3501 14.5125 12.9001L13.65 12.5251V11.1001C13.65 10.6501 13.275 10.2751 12.825 10.2751C12.375 10.2751 12 10.6501 12 11.1001V11.8126L9.225 10.6501C8.6625 10.4251 7.9875 10.4251 7.425 10.6501L4.6125 11.8126V9.90007C4.6125 9.56257 4.9125 9.26257 5.25 9.26257H10.0875C10.5375 9.26257 10.9125 8.88757 10.9125 8.43757C10.9125 7.98757 10.5375 7.61257 10.0875 7.61257H6.375V5.96257C6.375 5.62507 6.675 5.32507 7.0125 5.32507H8.2875H9.825C10.275 5.32507 10.65 4.95007 10.65 4.50007C10.65 4.05007 10.275 3.67507 9.825 3.67507H9.1125V2.21257C9.1125 1.76257 8.7375 1.38757 8.2875 1.38757C7.8375 1.38757 7.4625 1.76257 7.4625 2.21257V3.60007H7.0125C5.7375 3.60007 4.6875 4.65007 4.6875 5.92507V7.65007C3.675 7.91257 2.925 8.81257 2.925 9.90007V12.5251L2.0625 12.8626C0.975002 13.3126 0.412502 14.5126 0.712503 15.6376L2.25 21.0376C2.25 21.0376 2.2125 21.0376 2.2125 21.0751L0.900003 22.2001C0.562503 22.5001 0.525003 23.0251 0.825003 23.4001C0.900003 23.6251 1.125 23.7001 1.3875 23.7001C1.575 23.7001 1.7625 23.6251 1.95 23.5126L3.2625 22.3876C3.4875 22.1626 3.8625 22.1626 4.0875 22.3876L4.425 22.6876C5.2875 23.4376 6.6 23.4376 7.4625 22.6876L7.8 22.3876C8.025 22.1626 8.4 22.1626 8.625 22.3876L8.9625 22.6876C9.825 23.4376 11.1375 23.4376 12 22.6876L12.3375 22.3876C12.5625 22.1626 12.9375 22.1626 13.1625 22.3876L14.475 23.5126C14.8125 23.8126 15.375 23.7751 15.675 23.4376C15.975 23.1001 15.9375 22.5376 15.6 22.2376L14.3625 21.1126ZM11.325 21.1126L10.9875 21.4126C10.7625 21.6376 10.3875 21.6376 10.1625 21.4126L9.825 21.1126C8.9625 20.3626 7.65 20.3626 6.7875 21.1126L6.375 21.4126C6.15 21.6376 5.775 21.6376 5.55 21.4126L5.2125 21.1126C4.8 20.7751 4.3125 20.5876 3.825 20.5501L2.325 15.2251C2.25 14.9251 2.4 14.5876 2.7 14.4376L4.0125 13.8751C4.05 13.8751 4.0875 13.8376 4.0875 13.8376L8.025 12.1876C8.175 12.1126 8.3625 12.1126 8.5125 12.1876L12.45 13.8376C12.4875 13.8376 12.4875 13.8751 12.525 13.8751L13.875 14.4376C14.175 14.5501 14.325 14.8876 14.25 15.1876L12.75 20.5501C12.1875 20.5876 11.7 20.7376 11.325 21.1126Z" fill="#161A23"/>
<path d="M17.7375 0.300049C14.5875 0.300049 12 2.85005 12 6.03755C12 9.22505 14.5875 11.775 17.7375 11.775C20.8875 11.775 23.475 9.18755 23.475 6.03755C23.475 2.88755 20.8875 0.300049 17.7375 0.300049ZM17.7375 10.0875C15.4875 10.0875 13.6875 8.28755 13.6875 6.03755C13.6875 3.78755 15.4875 1.98755 17.7375 1.98755C19.9875 1.98755 21.7875 3.78755 21.7875 6.03755C21.7875 8.25005 19.9875 10.0875 17.7375 10.0875Z" fill="#161A23"/>
<path d="M18.4875 4.53756L17.325 5.70006L16.95 5.32506C16.6125 4.98756 16.0875 4.98756 15.75 5.32506C15.4125 5.66256 15.4125 6.18756 15.75 6.52506L16.6875 7.46256C16.8375 7.61256 17.0625 7.72506 17.2875 7.72506C17.5125 7.72506 17.7375 7.65006 17.8875 7.46256L19.65 5.70006C19.9875 5.36256 19.9875 4.83756 19.65 4.50006C19.35 4.20006 18.825 4.20006 18.4875 4.53756Z" fill="#161A23"/>
</g>
<defs>
<clipPath id="clip0_501_44620">
<rect width="24" height="24" fill="white"/>
</clipPath>
</defs>
</svg>
