<svg width="24" height="24" viewBox="0 0 24 24" fill="none" xmlns="http://www.w3.org/2000/svg">
<path d="M19.5375 21.8625L18.1875 20.7001L18.15 20.6625L19.6875 15.15C20.025 13.9875 19.425 12.7875 18.3375 12.3375L17.4375 11.9625V9.30005C17.4375 8.17505 16.6875 7.27505 15.6375 7.01255V4.87505C15.6375 3.78755 14.7375 2.92505 13.6875 2.92505H12.825V1.50005C12.825 1.05005 12.45 0.675049 12 0.675049C11.55 0.675049 11.175 1.05005 11.175 1.50005V2.92505H10.3125C9.22498 2.92505 8.36248 3.82505 8.36248 4.87505V7.01255C7.34998 7.27505 6.56248 8.17505 6.56248 9.30005V11.9625L5.69998 12.3375C4.61248 12.7875 4.01248 13.9875 4.34998 15.15L5.88748 20.6625L5.84998 20.7001L4.49998 21.8625C4.16248 22.1625 4.12498 22.6875 4.42498 23.0625C4.72498 23.4 5.24998 23.4375 5.62498 23.1376L6.97498 21.975C7.23748 21.75 7.61248 21.75 7.83748 21.975L8.17498 22.275C9.03748 23.025 10.3875 23.025 11.25 22.275L11.5875 21.975C11.85 21.75 12.225 21.75 12.45 21.975L12.7875 22.275C13.65 23.025 15 23.025 15.8625 22.275L16.2 21.975C16.4625 21.75 16.8375 21.75 17.0625 21.975L18.4125 23.1376C18.5625 23.2875 18.7875 23.3251 18.975 23.3251C19.2 23.3251 19.4625 23.2125 19.6125 23.025C19.95 22.6875 19.9125 22.1625 19.5375 21.8625ZM10.0125 4.87505C10.0125 4.72505 10.125 4.57505 10.3125 4.57505H12H13.6875C13.8375 4.57505 13.9875 4.68755 13.9875 4.87505V6.93755H10.0125V4.87505ZM8.21248 9.30005C8.21248 8.92505 8.51248 8.62505 8.88748 8.62505H15.1125C15.4875 8.62505 15.7875 8.92505 15.7875 9.30005V11.25L12.9375 10.05C12.375 9.82505 11.7 9.82505 11.1375 10.05L8.24998 11.25V9.30005H8.21248ZM15.1125 20.7001L14.775 21C14.5125 21.225 14.1375 21.225 13.9125 21L13.575 20.7001C12.7125 19.9501 11.3625 19.9501 10.5 20.7001L10.125 21C9.86248 21.225 9.48748 21.225 9.26248 21L8.92498 20.7001C8.51248 20.3625 8.02498 20.175 7.49998 20.1376L5.96248 14.7C5.88748 14.3625 6.03748 14.025 6.33748 13.9125L7.68748 13.35C7.72498 13.35 7.76248 13.3125 7.76248 13.3125L11.775 11.625C11.925 11.55 12.1125 11.55 12.3 11.625L16.275 13.275C16.3125 13.275 16.3125 13.3125 16.35 13.3125L17.7 13.875C18 13.9875 18.1875 14.3625 18.075 14.6625L16.5375 20.1C16.05 20.175 15.525 20.3625 15.1125 20.7001Z" fill="#161A23"/>
</svg>
