<svg width="24" height="24" viewBox="0 0 24 24" fill="none" xmlns="http://www.w3.org/2000/svg">
<path d="M10.9662 20.4923C10.3385 20.4923 9.82156 20.3077 9.34156 19.9384C8.23387 19.0892 7.97541 17.5384 8.67694 15.84C9.0831 14.88 9.78464 14.2523 10.4123 13.6615C10.56 13.5138 10.7446 13.3661 10.8923 13.1815C11.1877 12.8861 11.6677 12.8492 12 13.1077L15.2862 15.6553C15.6185 15.9138 15.6923 16.3938 15.4708 16.763C15.1754 17.2061 14.9169 17.6123 14.6954 17.9815C14.3631 18.5353 13.9569 19.163 13.3293 19.5692C12.6646 20.0123 12.0739 20.3077 11.4831 20.4184C11.2985 20.4553 11.1139 20.4923 10.9662 20.4923ZM11.5569 14.88C11.52 14.88 11.5569 14.88 11.5569 14.88C10.9662 15.3969 10.4862 15.84 10.2277 16.5046C10.1169 16.763 9.63694 18.0553 10.4123 18.6461C10.6339 18.7938 10.8185 18.9046 11.2985 18.8307C11.4831 18.7938 11.8523 18.683 12.4431 18.2769C12.8123 18.0184 13.1077 17.6123 13.3293 17.2061C13.44 16.9846 13.5877 16.8 13.7354 16.5784L11.5569 14.88Z" fill="#161A23"/>
<path d="M16.0615 15.6554C15.8769 15.6554 15.6923 15.5815 15.5446 15.4707L12.3692 12.9969C12 12.7015 11.9261 12.1846 12.2215 11.8154C12.2584 11.7784 12.2954 11.7415 12.3323 11.7046C13.0338 10.7446 13.1446 9.78459 13.2923 8.56613C13.3292 8.30766 13.3661 8.01228 13.403 7.71689C13.6984 5.53843 14.6584 4.09843 16.2092 2.43689C16.8369 1.77228 17.9446 0.959971 19.1261 0.849202C19.8277 0.775356 20.4554 0.996894 20.8984 1.21843C22.7446 2.10459 23.003 4.28305 22.6338 5.83382C22.2277 7.75382 21.563 9.23074 20.5292 10.8923C19.8277 12 19.163 12.7384 18.3507 13.6246C18.1661 13.8461 17.9446 14.0307 17.76 14.2154C17.4277 14.5477 17.0954 14.88 16.8369 15.2492C16.8369 15.2492 16.8369 15.2492 16.8 15.2861C16.763 15.323 16.7261 15.3969 16.6892 15.4338C16.5046 15.5446 16.283 15.6554 16.0615 15.6554ZM16.7631 15.2861C16.7261 15.2861 16.7631 15.2861 16.7631 15.2861C16.7261 15.2861 16.7631 15.2861 16.7631 15.2861ZM14.0307 12.1846L15.9507 13.6615C16.1723 13.44 16.3569 13.2184 16.5784 12.9969C16.7631 12.8123 16.9477 12.6277 17.1323 12.443C17.9077 11.6307 18.4984 10.9292 19.1631 9.93228C20.123 8.45536 20.6769 7.16305 21.0461 5.42766C21.2677 4.43074 21.1569 3.13843 20.1969 2.65843C19.9015 2.51074 19.5692 2.43689 19.3107 2.47382C18.7569 2.51074 17.9815 2.99074 17.4646 3.54459C16.0984 5.02151 15.323 6.16613 15.0646 7.93843C15.0277 8.23382 14.9907 8.49228 14.9538 8.75074C14.8061 9.93228 14.6954 11.04 14.0307 12.1846Z" fill="#161A23"/>
<path d="M4.1723 23.1877C3.98769 23.1877 3.80307 23.1508 3.58153 23.1138C2.62153 22.9292 2.14153 22.2646 1.80923 21.8215C1.44 21.2677 1.32923 20.5292 1.25538 19.8646C1.18153 19.1261 1.36615 18.4615 1.55077 17.7969C1.69846 17.3169 1.84615 16.8369 1.99384 16.3938V16.3569C2.10461 15.9508 2.54769 15.6923 2.95384 15.8031L7.01538 16.6892C7.42153 16.7631 7.68 17.1323 7.68 17.5385C7.68 17.76 7.64307 17.9815 7.64307 18.2031C7.60615 19.0523 7.60615 20.0492 7.12615 21.0092C6.5723 22.08 5.53846 23.1877 4.1723 23.1877ZM3.36 17.5754C3.28615 17.7969 3.2123 18.0554 3.13846 18.2769C2.99077 18.7938 2.84307 19.2738 2.88 19.68C2.91692 20.0492 2.99077 20.6031 3.17538 20.8985C3.43384 21.3415 3.65538 21.4523 3.87692 21.4892C4.61538 21.6369 5.28 20.9354 5.6123 20.2338C5.94461 19.6061 5.94461 18.9046 5.98153 18.1292L3.36 17.5754Z" fill="#161A23"/>
<path d="M7.34767 16.2462C7.27383 16.2462 7.2369 16.2462 7.16306 16.2093L3.24921 15.36C2.87998 15.2862 2.58459 14.9539 2.58459 14.5477C2.58459 14.4369 2.58459 14.3631 2.62152 14.2893C2.62152 14.2893 2.62152 14.2893 2.62152 14.2523C2.73229 13.7723 2.76921 13.2923 2.80613 12.8123C2.84306 12.5539 2.84306 12.2954 2.87998 12C3.02767 10.7446 3.17536 9.74771 3.50767 8.52925C4.02459 6.6831 4.76306 5.2431 5.94459 3.6554C7.16306 1.95694 9.00921 1.29233 10.56 1.99387C11.1507 2.25233 11.6677 2.62156 11.9631 3.10156C12.6277 4.06156 12.7754 5.42771 12.6646 6.38771C12.4061 8.38156 12.0738 10.1908 10.4861 12C10.3015 12.2216 10.08 12.4431 9.89536 12.6277C9.04613 13.5508 8.45536 14.2154 8.15998 15.36C8.15998 15.3969 8.15998 15.4708 8.12306 15.4708C8.08613 15.6923 7.97536 15.8769 7.82767 16.0246C7.7169 16.1723 7.53229 16.2462 7.34767 16.2462ZM4.3569 13.92L6.71998 14.4369C7.12613 13.1816 7.90152 12.3693 8.6769 11.52C8.86152 11.3354 9.04613 11.1139 9.23075 10.8923C10.4123 9.5631 10.7446 8.27079 11.0031 6.2031C11.0769 5.46464 10.9292 4.57848 10.5969 4.06156C10.4492 3.87694 10.1907 3.69233 9.89536 3.54464C8.89844 3.10156 7.82767 3.87694 7.27383 4.68925C6.20306 6.09233 5.57536 7.34771 5.09536 9.00925C4.76306 10.08 4.65229 10.9662 4.50459 12.1846C4.46767 12.4062 4.46767 12.6646 4.43075 12.9231C4.43075 13.2554 4.43075 13.5877 4.3569 13.92Z" fill="#161A23"/>
</svg>
