<svg width="24" height="24" viewBox="0 0 24 24" fill="none" xmlns="http://www.w3.org/2000/svg">
<path d="M21.7875 1.20005C21.6375 0.750052 21.15 0.525052 20.7 0.712552L17.9625 1.72505C17.625 1.83755 17.4 2.17505 17.4 2.51255V6.63755H4.72499C3.33749 6.63755 2.17499 7.76255 2.17499 9.18755V13.2751C2.17499 14.5876 3.22499 15.7126 4.53749 15.8251L17.4 16.8001V17.0626C17.4 17.7001 16.875 18.2251 16.2375 18.2251H5.66249C4.23749 18.2251 3.07499 19.3876 3.07499 20.8126C3.07499 22.2376 4.23749 23.4001 5.66249 23.4001C7.08749 23.4001 8.24999 22.2376 8.24999 20.8126C8.24999 20.5126 8.17499 20.1751 8.09999 19.9126H11.85C11.7375 20.2126 11.7 20.5126 11.7 20.8126C11.7 22.2376 12.8625 23.4001 14.2875 23.4001C15.7125 23.4001 16.875 22.2376 16.875 20.8126C16.875 20.4751 16.8 20.1751 16.6875 19.8751C18.0375 19.6501 19.0875 18.4876 19.0875 17.0626V3.15005L21.3 2.36255C21.7125 2.13755 21.9375 1.65005 21.7875 1.20005ZM17.4 15.0751L4.64999 14.1376C4.19999 14.1001 3.86249 13.7251 3.86249 13.2751V9.15005C3.86249 8.66255 4.23749 8.28755 4.72499 8.28755H17.4V15.0751ZM6.56249 20.7376C6.56249 21.2251 6.14999 21.6376 5.66249 21.6376C5.17499 21.6376 4.76249 21.2251 4.76249 20.7376C4.76249 20.2501 5.17499 19.8376 5.66249 19.8376C6.14999 19.8376 6.56249 20.2501 6.56249 20.7376ZM14.25 21.6751C13.7625 21.6751 13.35 21.2626 13.35 20.7751C13.35 20.2876 13.7625 19.8751 14.25 19.8751C14.7375 19.8751 15.15 20.2876 15.15 20.7751C15.15 21.2626 14.775 21.6751 14.25 21.6751Z" fill="#161A23"/>
</svg>
