<svg width="24" height="24" viewBox="0 0 24 24" fill="none" xmlns="http://www.w3.org/2000/svg">
<path d="M15.6375 12.75H14.85V11.4C14.85 9.86252 13.6125 8.58752 12.0375 8.58752C10.4625 8.58752 9.225 9.82502 9.225 11.4V12.75H8.4375C8.025 12.75 7.6875 13.0875 7.6875 13.5V17.7C7.6875 18.1125 8.025 18.45 8.4375 18.45H15.6375C16.05 18.45 16.3875 18.1125 16.3875 17.7V13.5C16.3875 13.0875 16.05 12.75 15.6375 12.75ZM10.7625 11.4C10.7625 10.6875 11.325 10.0875 12.075 10.0875C12.7875 10.0875 13.3875 10.65 13.3875 11.4V12.75H10.8V11.4H10.7625ZM14.8875 16.95H9.225V14.25H14.925V16.95H14.8875Z" fill="#161A23"/>
<path d="M21.375 20.5125L19.8 6.8625C19.65 5.4375 18.45 4.3875 17.025 4.3875H16.05C16.0125 2.175 14.2125 0.375 12 0.375C9.78749 0.375 7.98749 2.175 7.94999 4.3875H6.97499C5.54999 4.3875 4.34999 5.4375 4.19999 6.8625L2.62499 20.5125C2.54999 21.3 2.77499 22.0875 3.29999 22.6875C3.82499 23.2875 4.57499 23.625 5.39999 23.625H18.5625C19.35 23.625 20.1375 23.2875 20.6625 22.6875C21.1875 22.0875 21.45 21.3 21.375 20.5125ZM12 1.875C13.3875 1.875 14.5125 3 14.55 4.3875H9.45C9.48749 3 10.6125 1.875 12 1.875ZM19.5375 21.675C19.275 21.9375 18.9375 22.125 18.5625 22.125H5.43749C5.06249 22.125 4.72499 21.975 4.46249 21.675C4.19999 21.375 4.08749 21.0375 4.12499 20.6625L5.69999 7.0125C5.77499 6.375 6.33749 5.85 6.97499 5.85H8.73749H15.1875H16.95C17.625 5.85 18.15 6.3375 18.225 7.0125L19.875 20.6625C19.9125 21.0375 19.8 21.4125 19.5375 21.675Z" fill="#161A23"/>
</svg>
