<svg width="24" height="24" viewBox="0 0 24 24" fill="none" xmlns="http://www.w3.org/2000/svg">
<path d="M21.15 20.2125L19.6125 7.01251C19.4625 5.58751 18.225 4.50001 16.8 4.50001H15.975C15.9375 2.36251 14.175 0.637512 12 0.637512C9.82499 0.637512 8.06249 2.36251 7.98749 4.50001H7.16249C5.73749 4.50001 4.53749 5.58751 4.34999 7.01251L2.84999 20.2125C2.73749 21 2.99999 21.7875 3.52499 22.3875C4.04999 22.9875 4.83749 23.325 5.62499 23.325H18.3375C19.125 23.325 19.9125 22.9875 20.4375 22.3875C21 21.7875 21.2625 21 21.15 20.2125ZM12 2.32501C13.2375 2.32501 14.25 3.30001 14.325 4.50001H9.67498C9.74998 3.30001 10.7625 2.32501 12 2.32501ZM19.2 21.2625C18.975 21.525 18.675 21.6375 18.3375 21.6375H5.66249C5.32499 21.6375 5.02499 21.4875 4.79999 21.2625C4.57499 21 4.49999 20.7 4.53749 20.3625L6.07499 7.16251C6.14999 6.60001 6.63749 6.15001 7.19999 6.15001H8.92498H15.15H16.875C17.4375 6.15001 17.925 6.60001 18 7.16251L19.5375 20.3625C19.5 20.7 19.425 21.0375 19.2 21.2625Z" fill="#161A23"/>
<path d="M14.55 12.6H12.8625V10.9125C12.8625 10.4625 12.4875 10.0875 12.0375 10.0875C11.5875 10.0875 11.2125 10.4625 11.2125 10.9125V12.6H9.52501C9.07501 12.6 8.70001 12.975 8.70001 13.425C8.70001 13.875 9.07501 14.25 9.52501 14.25H11.2125V15.9375C11.2125 16.3875 11.5875 16.7625 12.0375 16.7625C12.4875 16.7625 12.8625 16.3875 12.8625 15.9375V14.25H14.55C15 14.25 15.375 13.875 15.375 13.425C15.375 12.975 15 12.6 14.55 12.6Z" fill="#161A23"/>
</svg>
