<svg width="24" height="24" viewBox="0 0 24 24" fill="none" xmlns="http://www.w3.org/2000/svg">
<path d="M21.7875 1.20005C21.6375 0.750052 21.15 0.525052 20.7 0.712552L17.9625 1.72505C17.625 1.83755 17.4 2.17505 17.4 2.51255V12.8626C17.4 13.5001 16.875 14.0251 16.2375 14.0251H5.02502C4.38752 14.0251 3.86252 13.5001 3.86252 12.8626V7.46255C3.86252 7.01255 3.48752 6.63755 3.03752 6.63755C2.58752 6.63755 2.21252 7.01255 2.21252 7.46255V12.8626C2.21252 14.4376 3.48752 15.7126 5.06252 15.7126H16.275C16.6875 15.7126 17.0625 15.6376 17.4375 15.4501V17.0251C17.4375 17.6626 16.9125 18.1876 16.275 18.1876H5.66252C4.23752 18.1876 3.07502 19.3501 3.07502 20.7751C3.07502 22.2001 4.23752 23.3626 5.66252 23.3626C7.08752 23.3626 8.25002 22.2001 8.25002 20.7751C8.25002 20.4751 8.17502 20.1376 8.10002 19.8751H11.85C11.7375 20.1751 11.7 20.4751 11.7 20.7751C11.7 22.2001 12.8625 23.3626 14.2875 23.3626C15.7125 23.3626 16.875 22.2001 16.875 20.7751C16.875 20.4376 16.8 20.1376 16.6875 19.8376C18.0375 19.6126 19.0875 18.4501 19.0875 17.0251V3.11255L21.3 2.32505C21.7125 2.13755 21.9375 1.65005 21.7875 1.20005ZM6.56252 20.7376C6.56252 21.2251 6.15002 21.6376 5.66252 21.6376C5.17502 21.6376 4.76252 21.2251 4.76252 20.7376C4.76252 20.2501 5.17502 19.8376 5.66252 19.8376C6.15002 19.8376 6.56252 20.2501 6.56252 20.7376ZM14.25 21.6751C13.7625 21.6751 13.35 21.2626 13.35 20.7751C13.35 20.2876 13.7625 19.8751 14.25 19.8751C14.7375 19.8751 15.15 20.2876 15.15 20.7751C15.15 21.2626 14.775 21.6751 14.25 21.6751Z" fill="#161A23"/>
<path d="M6.4875 12.2251C6.6375 12.3751 6.8625 12.4876 7.0875 12.4876C7.3125 12.4876 7.5375 12.4126 7.6875 12.2251L15.3375 4.57507C15.675 4.23757 15.675 3.71257 15.3375 3.37507C15 3.03757 14.475 3.03757 14.1375 3.37507L6.4875 11.0251C6.15 11.3626 6.15 11.8876 6.4875 12.2251Z" fill="#161A23"/>
<path d="M8.02502 7.08752C9.26252 7.08752 10.275 6.07502 10.275 4.83752C10.275 3.60002 9.26252 2.58752 8.02502 2.58752C6.78752 2.58752 5.77502 3.60002 5.77502 4.83752C5.77502 6.07502 6.78752 7.08752 8.02502 7.08752ZM8.02502 4.31252C8.32502 4.31252 8.58752 4.57502 8.58752 4.87502C8.58752 5.17502 8.32502 5.43752 8.02502 5.43752C7.72502 5.43752 7.46252 5.17502 7.46252 4.87502C7.46252 4.57502 7.72502 4.31252 8.02502 4.31252Z" fill="#161A23"/>
<path d="M13.65 8.625C12.4125 8.625 11.4 9.6375 11.4 10.875C11.4 12.1125 12.4125 13.125 13.65 13.125C14.8875 13.125 15.9 12.1125 15.9 10.875C15.9 9.6 14.8875 8.625 13.65 8.625ZM13.65 11.4C13.35 11.4 13.0875 11.1375 13.0875 10.8375C13.0875 10.5375 13.35 10.275 13.65 10.275C13.95 10.275 14.2125 10.5375 14.2125 10.8375C14.2125 11.1375 13.95 11.4 13.65 11.4Z" fill="#161A23"/>
</svg>
