<svg width="24" height="24" viewBox="0 0 24 24" fill="none" xmlns="http://www.w3.org/2000/svg">
<path d="M21.7875 1.20005C21.6375 0.750052 21.15 0.525052 20.7 0.712552L17.9625 1.72505C17.625 1.83755 17.4 2.17505 17.4 2.51255V12.8626C17.4 13.5001 16.875 14.0251 16.2375 14.0251H5.02502C4.38752 14.0251 3.86252 13.5001 3.86252 12.8626V7.46255C3.86252 7.01255 3.48752 6.63755 3.03752 6.63755C2.58752 6.63755 2.21252 7.01255 2.21252 7.46255V12.8626C2.21252 14.4376 3.48752 15.7126 5.06252 15.7126H16.275C16.6875 15.7126 17.0625 15.6376 17.4375 15.4501V17.0251C17.4375 17.6626 16.9125 18.1876 16.275 18.1876H5.66252C4.23752 18.1876 3.07502 19.3501 3.07502 20.7751C3.07502 22.2001 4.23752 23.3626 5.66252 23.3626C7.08752 23.3626 8.25002 22.2001 8.25002 20.7751C8.25002 20.4751 8.17502 20.1376 8.10002 19.8751H11.85C11.7375 20.1751 11.7 20.4751 11.7 20.7751C11.7 22.2001 12.8625 23.3626 14.2875 23.3626C15.7125 23.3626 16.875 22.2001 16.875 20.7751C16.875 20.4376 16.8 20.1376 16.6875 19.8376C18.0375 19.6126 19.0875 18.4501 19.0875 17.0251V3.11255L21.3 2.32505C21.7125 2.13755 21.9375 1.65005 21.7875 1.20005ZM6.56252 20.7376C6.56252 21.2251 6.15002 21.6376 5.66252 21.6376C5.17502 21.6376 4.76252 21.2251 4.76252 20.7376C4.76252 20.2501 5.17502 19.8376 5.66252 19.8376C6.15002 19.8376 6.56252 20.2501 6.56252 20.7376ZM14.25 21.6376C13.7625 21.6376 13.35 21.2251 13.35 20.7376C13.35 20.2501 13.7625 19.8376 14.25 19.8376C14.7375 19.8376 15.15 20.2501 15.15 20.7376C15.15 21.2251 14.775 21.6376 14.25 21.6376Z" fill="#161A23"/>
<path d="M9.71255 11.4C9.86255 11.55 10.0875 11.6625 10.3125 11.6625C10.5375 11.6625 10.7625 11.5875 10.9125 11.4L12.9 9.45003C13.2375 9.11253 13.2375 8.58752 12.9 8.25002C12.5625 7.91252 12.0375 7.91252 11.7 8.25002L11.175 8.77502V4.16252C11.175 3.71252 10.8 3.33752 10.35 3.33752C9.90005 3.33752 9.52505 3.71252 9.52505 4.16252V8.77502L8.92505 8.25002C8.58755 7.91252 8.06255 7.91252 7.72505 8.25002C7.38755 8.58752 7.38755 9.11253 7.72505 9.45003L9.71255 11.4Z" fill="#161A23"/>
</svg>
