<svg width="24" height="24" viewBox="0 0 24 24" fill="none" xmlns="http://www.w3.org/2000/svg">
<path d="M18.525 5.02505H16.425C16.3875 2.58755 14.4375 0.675049 12 0.675049C9.56248 0.675049 7.61248 2.62505 7.57498 5.02505H5.47498C4.01248 5.02505 2.84998 6.22505 2.84998 7.65005V18.3001C2.84998 21.0751 5.09998 23.3251 7.87498 23.3251H16.125C18.9 23.3251 21.15 21.0751 21.15 18.3001V7.65005C21.15 6.18755 19.9875 5.02505 18.525 5.02505ZM12 2.32505C13.5 2.32505 14.7 3.52505 14.7375 4.98755H9.26248C9.29998 3.52505 10.5 2.32505 12 2.32505ZM5.47498 6.71255H7.53748V8.10005C7.53748 8.55005 7.91248 8.92505 8.36248 8.92505C8.81248 8.92505 9.18748 8.55005 9.18748 8.10005V6.71255H14.7V8.10005C14.7 8.55005 15.075 8.92505 15.525 8.92505C15.975 8.92505 16.35 8.55005 16.35 8.10005V6.71255H18.4125C18.9375 6.71255 19.35 7.12505 19.35 7.65005V17.7376H4.53748V7.65005C4.53748 7.12505 4.94998 6.71255 5.47498 6.71255ZM16.125 21.6751H7.87498C6.41248 21.6751 5.17498 20.7376 4.72498 19.4626H19.275C18.825 20.7376 17.5875 21.6751 16.125 21.6751Z" fill="#161A23"/>
</svg>
