<svg width="24" height="24" viewBox="0 0 24 24" fill="none" xmlns="http://www.w3.org/2000/svg">
<path d="M21.15 20.2125L19.6125 7.01245C19.4625 5.58745 18.225 4.49995 16.8 4.49995H15.975C15.9375 2.36245 14.175 0.637451 12 0.637451C9.82499 0.637451 8.06249 2.36245 7.98749 4.49995H7.16249C5.73749 4.49995 4.53749 5.58745 4.34999 7.01245L2.84999 20.2125C2.73749 21 2.99999 21.7875 3.52499 22.3875C4.04999 22.9875 4.83749 23.325 5.62499 23.325H18.3375C19.125 23.325 19.9125 22.9875 20.4375 22.3875C21 21.7875 21.2625 21 21.15 20.2125ZM12 2.32495C13.2375 2.32495 14.25 3.29995 14.325 4.49995H9.67498C9.74998 3.29995 10.7625 2.32495 12 2.32495ZM19.2 21.2625C18.975 21.525 18.675 21.6375 18.3375 21.6375H5.66249C5.32499 21.6375 5.02499 21.4875 4.79999 21.2625C4.57499 21 4.49999 20.7 4.53749 20.3624L6.07499 7.16245C6.14999 6.59995 6.63749 6.14995 7.19999 6.14995H8.92498H15.15H16.875C17.4375 6.14995 17.925 6.59995 18 7.16245L19.5375 20.3624C19.5 20.7 19.425 21.0375 19.2 21.2625Z" fill="#161A23"/>
<path d="M15.4875 10.275C14.4375 9.5625 13.05 9.6 12 10.3125C11.475 9.9375 10.875 9.75 10.2 9.75C9.375 9.75 8.625 10.0875 8.025 10.65C7.4625 11.25 7.125 12 7.125 12.825C7.125 13.65 7.4625 14.4375 8.025 15L10.5 17.475C10.9125 17.8875 11.4375 18.075 11.9625 18.075C12.4875 18.075 13.0125 17.8875 13.425 17.475L15.9 15C16.5 14.4375 16.8 13.65 16.8 12.825C16.875 11.8125 16.35 10.8375 15.4875 10.275ZM14.775 13.8L12.3 16.275C12.15 16.425 11.8875 16.425 11.7375 16.275L9.2625 13.8C9 13.5375 8.85 13.2 8.85 12.825C8.85 12.45 9 12.1125 9.2625 11.85C9.525 11.5875 9.8625 11.4375 10.2375 11.4375C10.6125 11.4375 10.95 11.5875 11.2125 11.85L11.4 12.0375C11.55 12.1875 11.775 12.3 12 12.3C12.225 12.3 12.45 12.225 12.6 12.0375L12.7125 11.925C13.2 11.4375 14.025 11.325 14.55 11.6625C14.925 11.925 15.15 12.3375 15.15 12.825C15.1875 13.2 15.0375 13.575 14.775 13.8Z" fill="#161A23"/>
</svg>
