<svg width="24" height="24" viewBox="0 0 24 24" fill="none" xmlns="http://www.w3.org/2000/svg">
<path fill-rule="evenodd" clip-rule="evenodd" d="M15.1509 2.9984C15.599 2.848 15.8997 2.848 15.8997 2.848L15.0038 24L1.50293 21.4496C1.50293 21.4496 3.30133 7.80161 3.30133 7.35041C3.30133 6.75199 3.30133 6.75199 4.05015 6.4512C4.11544 6.4512 4.2936 6.39446 4.57256 6.30566C4.93598 6.18994 5.47046 6.01976 6.14933 5.84959C6.60053 3.90079 8.10135 0 11.2502 0C11.7014 0 12.1494 0.1472 12.4502 0.7488H12.6006C13.9509 0.7488 14.6997 1.7984 15.1509 2.9984ZM10.8998 4.36267C11.4257 4.20248 11.9696 4.0368 12.4502 3.7472C12.4502 2.848 12.2997 2.24641 12.1494 1.64481C11.4006 1.94561 10.5014 2.8448 10.0502 4.6464C10.3184 4.53979 10.6063 4.45208 10.8998 4.36267ZM11.5509 1.0496C11.4005 0.899201 11.2502 0.899201 11.0997 0.899201C8.99734 0.899201 7.65015 3.7472 7.19895 5.55199C7.49974 5.4768 7.79974 5.364 8.09974 5.2512C8.39974 5.1384 8.69974 5.0256 9.00056 4.95041C9.45176 2.5504 10.6517 1.5008 11.5509 1.0496ZM9.89974 10.7968C10.799 10.7968 11.6982 11.248 11.6982 11.248L12.2965 8.55041C12.2965 8.55041 11.6982 8.24959 10.4981 8.24959C7.19895 8.24959 5.69813 10.3488 5.69813 12.5984C5.69813 14.1119 6.54829 14.7762 7.29465 15.3595C7.87856 15.8158 8.39895 16.2224 8.39895 16.9472C8.39895 17.2448 8.24854 17.8464 7.49974 17.8464C6.45015 17.8464 5.25015 16.7968 5.25015 16.7968L4.64854 18.896C4.64854 18.896 5.84854 20.3968 8.24854 20.3968C10.1973 20.3968 11.6982 18.896 11.6982 16.6464C11.6982 14.8098 10.4604 13.9289 9.50115 13.2462C8.89433 12.8144 8.39895 12.4618 8.39895 11.9968C8.39895 11.696 8.39895 10.7968 9.89974 10.7968ZM12.8982 1.6448C13.0485 2.096 13.199 2.6976 13.199 3.4464V3.5968C13.4246 3.5968 13.6118 3.5592 13.799 3.5216C13.9862 3.484 14.1734 3.4464 14.399 3.4464C14.0981 2.544 13.647 1.6448 12.8982 1.6448ZM19.647 4.49599C19.7973 4.49599 19.9478 4.49599 19.9478 4.6464C19.9478 4.722 20.5922 9.19493 21.2333 13.6438C21.8674 18.0451 22.4982 22.4228 22.4982 22.496L15.2982 23.9968L16.1973 2.9984H16.3478C16.4982 3.1488 17.6982 4.34561 17.6982 4.34561C17.6982 4.34561 19.4966 4.49599 19.647 4.49599Z" fill="#15171A"/>
</svg>
