<svg width="24" height="24" viewBox="0 0 24 24" fill="none" xmlns="http://www.w3.org/2000/svg">
<path d="M15.0375 21.1125C14.5875 21.6 13.9875 21.8625 13.3125 21.8625H5.13749C3.82499 21.8625 2.77499 20.8125 2.77499 19.5V4.53752C2.77499 3.22502 3.82499 2.17502 5.13749 2.17502H13.3125C14.1 2.17502 14.85 2.55002 15.2625 3.22502C15.525 3.60002 16.05 3.71252 16.425 3.45002C16.8 3.18752 16.9125 2.66252 16.65 2.28752C15.9 1.16252 14.625 0.525024 13.275 0.525024H5.13749C2.88749 0.525024 1.08749 2.36252 1.08749 4.57502V19.5C1.08749 21.75 2.92499 23.55 5.13749 23.55H13.3125C14.4375 23.55 15.525 23.1 16.275 22.275C16.6125 21.9375 16.575 21.4125 16.2375 21.075C15.9 20.7375 15.375 20.775 15.0375 21.1125Z" fill="#161A23"/>
<path d="M22.575 11.0625C22.275 10.6875 21.825 10.4625 21.3375 10.4625H20.85L18.75 8.32501C18.8625 8.06251 18.9 7.80001 18.9 7.50001C18.9 6.30001 17.925 5.32501 16.725 5.32501C15.525 5.32501 14.55 6.30001 14.55 7.50001C14.55 7.80001 14.625 8.06251 14.7 8.32501L12.6 10.425H12.1125C11.625 10.425 11.175 10.65 10.875 11.025C10.575 11.4 10.4625 11.925 10.6125 12.375L11.925 17.325C12.1125 18 12.75 18.4875 13.4625 18.4875H20.0625C20.775 18.4875 21.4125 18 21.6 17.325L22.875 12.4125C22.9875 11.9625 22.875 11.4375 22.575 11.0625ZM16.725 7.01251C16.9875 7.01251 17.2125 7.23751 17.2125 7.50001C17.2125 7.76251 16.9875 7.98751 16.725 7.98751C16.4625 7.98751 16.2375 7.76251 16.2375 7.50001C16.2375 7.23751 16.4625 7.01251 16.725 7.01251ZM15.9 9.52501C16.1625 9.63751 16.425 9.67501 16.725 9.67501C17.025 9.67501 17.2875 9.60001 17.55 9.52501L18.45 10.425H15L15.9 9.52501ZM19.95 16.8375H13.5375L12.3 12.1125H21.225L19.95 16.8375Z" fill="#161A23"/>
<path d="M9.48748 3.11255H8.96248C8.51248 3.11255 8.13748 3.48755 8.13748 3.93755C8.13748 4.38755 8.51248 4.76255 8.96248 4.76255H9.48748C9.93748 4.76255 10.3125 4.38755 10.3125 3.93755C10.3125 3.48755 9.97498 3.11255 9.48748 3.11255Z" fill="#161A23"/>
<path d="M8.43749 19.2C7.98749 19.2 7.61249 19.575 7.61249 20.025C7.61249 20.475 7.98749 20.85 8.43749 20.85H10.05C10.5 20.85 10.875 20.475 10.875 20.025C10.875 19.575 10.5 19.2 10.05 19.2H8.43749Z" fill="#161A23"/>
</svg>
