<svg width="24" height="24" viewBox="0 0 24 24" fill="none" xmlns="http://www.w3.org/2000/svg">
<path d="M11.325 12.375H14.2875C14.7375 12.375 15.1125 12 15.1125 11.55C15.1125 11.1 14.7375 10.725 14.2875 10.725H13.3125V10.2C13.3125 9.75 12.9375 9.375 12.4875 9.375C12.0375 9.375 11.6625 9.75 11.6625 10.2V10.725H11.3625C10.0125 10.725 8.925 11.8125 8.925 13.1625C8.925 14.5125 10.0125 15.6 11.3625 15.6H12.75C13.1625 15.6 13.5 15.9375 13.5 16.35C13.5 16.7625 13.1625 17.1 12.75 17.1H9.7875C9.3375 17.1 8.9625 17.475 8.9625 17.925C8.9625 18.375 9.3375 18.75 9.7875 18.75H11.625V19.275C11.625 19.725 12 20.1 12.45 20.1C12.9 20.1 13.275 19.725 13.275 19.275V18.675C14.325 18.4125 15.1125 17.4375 15.1125 16.3125C15.1125 14.9625 14.025 13.875 12.675 13.875H11.2875C10.875 13.875 10.5375 13.5375 10.5375 13.125C10.5375 12.7125 10.9125 12.375 11.325 12.375Z" fill="#161A23"/>
<path d="M18.525 5.02499H16.425C16.3875 2.58749 14.4375 0.674988 12 0.674988C9.56251 0.674988 7.61251 2.62499 7.57501 5.02499H5.47501C4.01251 5.02499 2.85001 6.22499 2.85001 7.64999V18.3C2.85001 21.075 5.10001 23.325 7.87501 23.325H16.125C18.9 23.325 21.15 21.075 21.15 18.3V7.64999C21.15 6.18749 19.9875 5.02499 18.525 5.02499ZM12 2.32499C13.5 2.32499 14.7 3.52499 14.7375 4.98749H9.26251C9.30001 3.52499 10.5 2.32499 12 2.32499ZM19.4625 18.3C19.4625 20.1375 17.9625 21.6375 16.125 21.6375H7.87501C6.03751 21.6375 4.53751 20.1375 4.53751 18.3V7.64999C4.53751 7.12499 4.95001 6.71249 5.47501 6.71249H7.53751V8.09999C7.53751 8.54999 7.91251 8.92499 8.36251 8.92499C8.81251 8.92499 9.18751 8.54999 9.18751 8.09999V6.71249H14.7V8.09999C14.7 8.54999 15.075 8.92499 15.525 8.92499C15.975 8.92499 16.35 8.54999 16.35 8.09999V6.71249H18.4125C18.9375 6.71249 19.35 7.12499 19.35 7.64999V18.3H19.4625Z" fill="#161A23"/>
</svg>
