<svg width="24" height="24" viewBox="0 0 24 24" fill="none" xmlns="http://www.w3.org/2000/svg">
<path d="M21.15 20.2125L19.6125 7.01245C19.4625 5.58745 18.225 4.49995 16.8 4.49995H15.975C15.9375 2.36245 14.175 0.637451 12 0.637451C9.82499 0.637451 8.06249 2.36245 7.98749 4.49995H7.16249C5.73749 4.49995 4.53749 5.58745 4.34999 7.01245L2.84999 20.2125C2.73749 21 2.99999 21.7875 3.52499 22.3875C4.04999 22.9875 4.83749 23.325 5.62499 23.325H18.3375C19.125 23.325 19.9125 22.9875 20.4375 22.3875C21 21.7875 21.2625 21 21.15 20.2125ZM12 2.32495C13.2375 2.32495 14.25 3.29995 14.325 4.49995H9.67498C9.74998 3.29995 10.7625 2.32495 12 2.32495ZM19.2 21.2625C18.975 21.525 18.675 21.6375 18.3375 21.6375H5.66249C5.32499 21.6375 5.02499 21.4875 4.79999 21.2625C4.57499 21 4.49999 20.7 4.53749 20.3624L6.07499 7.16245C6.14999 6.59995 6.63749 6.14995 7.19999 6.14995H8.92498H15.15H16.875C17.4375 6.14995 17.925 6.59995 18 7.16245L19.5375 20.3624C19.5 20.7 19.425 21.0375 19.2 21.2625Z" fill="#161A23"/>
<path d="M13.8375 14.025L12.825 15V11.2125C12.825 10.7625 12.45 10.3875 12 10.3875C11.55 10.3875 11.175 10.7625 11.175 11.2125V15L10.2 14.025C9.86248 13.6875 9.33748 13.6875 8.99998 14.025C8.66248 14.3625 8.66248 14.8875 8.99998 15.225L11.4375 17.6625C11.5875 17.8125 11.8125 17.925 12.0375 17.925C12.2625 17.925 12.4875 17.85 12.6375 17.6625L15.075 15.225C15.4125 14.8875 15.4125 14.3625 15.075 14.025C14.7375 13.6875 14.1375 13.6875 13.8375 14.025Z" fill="#161A23"/>
</svg>
