<svg width="24" height="24" viewBox="0 0 24 24" fill="none" xmlns="http://www.w3.org/2000/svg">
<path d="M21.7875 1.20005C21.6375 0.750052 21.15 0.525052 20.7 0.712552L17.9625 1.72505C17.625 1.83755 17.4 2.17505 17.4 2.51255V12.8626C17.4 13.5001 16.875 14.0251 16.2375 14.0251H5.02502C4.38752 14.0251 3.86252 13.5001 3.86252 12.8626V7.46255C3.86252 7.01255 3.48752 6.63755 3.03752 6.63755C2.58752 6.63755 2.21252 7.01255 2.21252 7.46255V12.8626C2.21252 14.4376 3.48752 15.7126 5.06252 15.7126H16.275C16.6875 15.7126 17.0625 15.6376 17.4375 15.4501V17.0251C17.4375 17.6626 16.9125 18.1876 16.275 18.1876H5.66252C4.23752 18.1876 3.07502 19.3501 3.07502 20.7751C3.07502 22.2001 4.23752 23.3626 5.66252 23.3626C7.08752 23.3626 8.25002 22.2001 8.25002 20.7751C8.25002 20.4751 8.17502 20.1376 8.10002 19.8751H11.85C11.7375 20.1751 11.7 20.4751 11.7 20.7751C11.7 22.2001 12.8625 23.3626 14.2875 23.3626C15.7125 23.3626 16.875 22.2001 16.875 20.7751C16.875 20.4376 16.8 20.1376 16.6875 19.8376C18.0375 19.6126 19.0875 18.4501 19.0875 17.0251V3.11255L21.3 2.32505C21.7125 2.13755 21.9375 1.65005 21.7875 1.20005ZM6.56252 20.7376C6.56252 21.2251 6.15002 21.6376 5.66252 21.6376C5.17502 21.6376 4.76252 21.2251 4.76252 20.7376C4.76252 20.2501 5.17502 19.8376 5.66252 19.8376C6.15002 19.8376 6.56252 20.2501 6.56252 20.7376ZM14.25 21.6751C13.7625 21.6751 13.35 21.2626 13.35 20.7751C13.35 20.2876 13.7625 19.8751 14.25 19.8751C14.7375 19.8751 15.15 20.2876 15.15 20.7751C15.15 21.2626 14.775 21.6751 14.25 21.6751Z" fill="#161A23"/>
<path d="M10.0501 11.5875C10.2001 11.7375 10.4251 11.8125 10.6126 11.8125C10.8001 11.8125 11.0251 11.7375 11.1751 11.5875L14.2126 8.88755C14.5501 8.58755 14.5876 8.06255 14.2876 7.68755C13.9876 7.35005 13.4626 7.31255 13.0876 7.61255L11.4376 9.07505V4.31255C11.4376 3.86255 11.0626 3.48755 10.6126 3.48755C10.1626 3.48755 9.78755 3.86255 9.78755 4.31255V9.07505L8.13755 7.61255C7.80005 7.31255 7.23755 7.35005 6.93755 7.68755C6.63755 8.02505 6.67505 8.58755 7.01255 8.88755L10.0501 11.5875Z" fill="#161A23"/>
</svg>
