<svg width="24" height="24" viewBox="0 0 24 24" fill="none" xmlns="http://www.w3.org/2000/svg">
<path d="M21.15 20.2126L19.6125 7.01255C19.4625 5.58755 18.225 4.50005 16.8 4.50005H15.975C15.9375 2.36255 14.175 0.675049 12 0.675049C9.82499 0.675049 8.06249 2.40005 7.98749 4.53755H7.16249C5.73749 4.53755 4.53749 5.62505 4.34999 7.05005L2.84999 20.2126C2.73749 21.0001 2.99999 21.7876 3.52499 22.3876C4.04999 22.9876 4.83749 23.3251 5.62499 23.3251H18.3375C19.125 23.3251 19.9125 22.9876 20.4375 22.3876C21 21.7876 21.2625 21.0001 21.15 20.2126ZM12 2.36255C13.2375 2.36255 14.25 3.33755 14.325 4.53755H9.67498C9.74998 3.30005 10.7625 2.36255 12 2.36255ZM6.03749 7.20005C6.11249 6.63755 6.59999 6.18755 7.16249 6.18755H8.88749H15.1125H16.8375C17.4 6.18755 17.8875 6.63755 17.9625 7.20005L19.05 16.5001H4.94999L6.03749 7.20005ZM19.2 21.2626C18.975 21.5251 18.675 21.6376 18.3375 21.6376H5.66249C5.32499 21.6376 5.02499 21.4876 4.79999 21.2626C4.57499 21.0001 4.49999 20.7001 4.53749 20.3626L4.79999 18.1875H19.2375L19.5 20.3626C19.5 20.7001 19.425 21.0376 19.2 21.2626Z" fill="#161A23"/>
</svg>
