<svg width="24" height="24" viewBox="0 0 24 24" fill="none" xmlns="http://www.w3.org/2000/svg">
<path d="M21.7875 1.20005C21.6375 0.750052 21.15 0.525052 20.7 0.712552L17.9625 1.72505C17.625 1.83755 17.4 2.17505 17.4 2.51255V12.8626C17.4 13.5001 16.875 14.0251 16.2375 14.0251H5.02499C4.38749 14.0251 3.86249 13.5001 3.86249 12.8626V7.46255C3.86249 7.01255 3.48749 6.63755 3.03749 6.63755C2.58749 6.63755 2.21249 7.01255 2.21249 7.46255V12.8626C2.21249 14.4376 3.48749 15.7126 5.06249 15.7126H16.275C16.6875 15.7126 17.0625 15.6376 17.4375 15.4501V17.0251C17.4375 17.6626 16.9125 18.1876 16.275 18.1876H5.66249C4.23749 18.1876 3.07499 19.3501 3.07499 20.7751C3.07499 22.2001 4.23749 23.3626 5.66249 23.3626C7.08749 23.3626 8.24999 22.2001 8.24999 20.7751C8.24999 20.4751 8.17499 20.1376 8.09999 19.8751H11.85C11.7375 20.1751 11.7 20.4751 11.7 20.7751C11.7 22.2001 12.8625 23.3626 14.2875 23.3626C15.7125 23.3626 16.875 22.2001 16.875 20.7751C16.875 20.4376 16.8 20.1376 16.6875 19.8376C18.0375 19.6126 19.0875 18.4501 19.0875 17.0251V3.11255L21.3 2.32505C21.7125 2.13755 21.9375 1.65005 21.7875 1.20005ZM6.56249 20.7376C6.56249 21.2251 6.14999 21.6376 5.66249 21.6376C5.17499 21.6376 4.76249 21.2251 4.76249 20.7376C4.76249 20.2501 5.17499 19.8376 5.66249 19.8376C6.14999 19.8376 6.56249 20.2501 6.56249 20.7376ZM14.25 21.6751C13.7625 21.6751 13.35 21.2626 13.35 20.7751C13.35 20.2876 13.7625 19.8751 14.25 19.8751C14.7375 19.8751 15.15 20.2876 15.15 20.7751C15.15 21.2626 14.775 21.6751 14.25 21.6751Z" fill="#161A23"/>
<path d="M10.95 9.63757H8.13749C7.68749 9.63757 7.31249 10.0126 7.31249 10.4626C7.31249 10.9126 7.68749 11.2876 8.13749 11.2876H9.89999V11.7376C9.89999 12.1876 10.275 12.5626 10.725 12.5626C11.175 12.5626 11.55 12.1876 11.55 11.7376V11.2126C12.5625 10.9501 13.275 10.0126 13.275 8.96257C13.275 7.65007 12.225 6.60007 10.9125 6.60007H9.59999C9.22499 6.60007 8.92499 6.30007 8.92499 5.92507C8.92499 5.55007 9.22499 5.25007 9.59999 5.25007H12.4125C12.8625 5.25007 13.2375 4.87507 13.2375 4.42507C13.2375 3.97507 12.8625 3.60007 12.4125 3.60007H11.5125V3.15007C11.5125 2.70007 11.1375 2.32507 10.6875 2.32507C10.2375 2.32507 9.86249 2.70007 9.86249 3.15007V3.60007H9.63749C8.32499 3.60007 7.27499 4.65007 7.27499 5.96257C7.27499 7.27507 8.32499 8.32507 9.63749 8.32507H10.95C11.325 8.32507 11.625 8.62507 11.625 9.00007C11.625 9.37507 11.325 9.63757 10.95 9.63757Z" fill="#161A23"/>
</svg>
