<svg width="24" height="24" viewBox="0 0 24 24" fill="none" xmlns="http://www.w3.org/2000/svg">
<path d="M21.7875 1.19999C21.6375 0.749991 21.15 0.524991 20.7 0.712491L17.9625 1.72499C17.625 1.83749 17.4 2.17499 17.4 2.51249V12.8625C17.4 13.5 16.875 14.025 16.2375 14.025H5.02502C4.38752 14.025 3.86252 13.5 3.86252 12.8625V7.46249C3.86252 7.01249 3.48752 6.63749 3.03752 6.63749C2.58752 6.63749 2.21252 7.01249 2.21252 7.46249V12.8625C2.21252 14.4375 3.48752 15.7125 5.06252 15.7125H16.275C16.6875 15.7125 17.0625 15.6375 17.4375 15.45V17.025C17.4375 17.6625 16.9125 18.1875 16.275 18.1875H5.66252C4.23752 18.1875 3.07502 19.35 3.07502 20.775C3.07502 22.2 4.23752 23.3625 5.66252 23.3625C7.08752 23.3625 8.25002 22.2 8.25002 20.775C8.25002 20.475 8.17502 20.1375 8.10002 19.875H11.85C11.7375 20.175 11.7 20.475 11.7 20.775C11.7 22.2 12.8625 23.3625 14.2875 23.3625C15.7125 23.3625 16.875 22.2 16.875 20.775C16.875 20.4375 16.8 20.1375 16.6875 19.8375C18.0375 19.6125 19.0875 18.45 19.0875 17.025V3.11249L21.3 2.32499C21.7125 2.13749 21.9375 1.64999 21.7875 1.19999ZM6.56252 20.7375C6.56252 21.225 6.15002 21.6375 5.66252 21.6375C5.17502 21.6375 4.76252 21.225 4.76252 20.7375C4.76252 20.25 5.17502 19.8375 5.66252 19.8375C6.15002 19.8375 6.56252 20.25 6.56252 20.7375ZM14.25 21.6375C13.7625 21.6375 13.35 21.225 13.35 20.7375C13.35 20.25 13.7625 19.8375 14.25 19.8375C14.7375 19.8375 15.15 20.25 15.15 20.7375C15.15 21.225 14.775 21.6375 14.25 21.6375Z" fill="#161A23"/>
<path d="M7.425 11.925H13.8C14.25 11.925 14.625 11.55 14.625 11.1V7.38751C14.625 6.93751 14.25 6.56251 13.8 6.56251H13.275V5.55001C13.275 4.08751 12.075 2.88751 10.6125 2.88751C9.15 2.88751 7.95 4.08751 7.95 5.55001V6.56251H7.425C6.975 6.56251 6.6 6.93751 6.6 7.38751V11.1C6.5625 11.55 6.9375 11.925 7.425 11.925ZM12.9375 10.2375H8.25V8.21251H12.9375V10.2375ZM9.6375 5.51251C9.6375 4.98751 10.0875 4.53751 10.6125 4.53751C11.1375 4.53751 11.5875 4.98751 11.5875 5.51251V6.52501H9.6375V5.51251Z" fill="#161A23"/>
</svg>
