<svg width="24" height="24" viewBox="0 0 24 24" fill="none" xmlns="http://www.w3.org/2000/svg">
<path d="M21.15 20.2125L19.6125 7.01245C19.4625 5.58745 18.225 4.49995 16.8 4.49995H15.975C15.9375 2.36245 14.175 0.637451 12 0.637451C9.82499 0.637451 8.06249 2.36245 7.98749 4.49995H7.16249C5.73749 4.49995 4.53749 5.58745 4.34999 7.01245L2.84999 20.2125C2.73749 21 2.99999 21.7875 3.52499 22.3875C4.04999 22.9875 4.83749 23.325 5.62499 23.325H18.3375C19.125 23.325 19.9125 22.9875 20.4375 22.3875C21 21.7875 21.2625 21 21.15 20.2125ZM12 2.32495C13.2375 2.32495 14.25 3.29995 14.325 4.49995H9.67498C9.74998 3.29995 10.7625 2.32495 12 2.32495ZM19.2 21.2625C18.975 21.525 18.675 21.6375 18.3375 21.6375H5.66249C5.32499 21.6375 5.02499 21.4875 4.79999 21.2625C4.57499 21 4.49999 20.7 4.53749 20.3624L6.07499 7.16245C6.14999 6.59995 6.63749 6.14995 7.19999 6.14995H8.92498H15.15H16.875C17.4375 6.14995 17.925 6.59995 18 7.16245L19.5375 20.3624C19.5 20.7 19.425 21.0375 19.2 21.2625Z" fill="#161A23"/>
<path d="M16.5375 9.4499C16.2 9.1124 15.675 9.1124 15.3375 9.4499L7.68751 17.0999C7.35001 17.4374 7.35001 17.9624 7.68751 18.2999C7.83751 18.4499 8.06251 18.5624 8.28751 18.5624C8.51251 18.5624 8.73751 18.4874 8.88751 18.2999L16.5375 10.6499C16.8375 10.3124 16.8375 9.7874 16.5375 9.4499Z" fill="#161A23"/>
<path d="M9.22498 13.1625C10.4625 13.1625 11.475 12.15 11.475 10.9125C11.475 9.67498 10.4625 8.66248 9.22498 8.66248C7.98748 8.66248 6.97498 9.67498 6.97498 10.9125C6.97498 12.15 8.02498 13.1625 9.22498 13.1625ZM9.22498 10.3875C9.52498 10.3875 9.78748 10.65 9.78748 10.95C9.78748 11.25 9.52498 11.5125 9.22498 11.5125C8.92498 11.5125 8.66248 11.25 8.66248 10.95C8.66248 10.65 8.92498 10.3875 9.22498 10.3875Z" fill="#161A23"/>
<path d="M14.85 14.7C13.6125 14.7 12.6 15.7125 12.6 16.95C12.6 18.1875 13.6125 19.2 14.85 19.2C16.0875 19.2 17.1 18.1875 17.1 16.95C17.1 15.7125 16.0875 14.7 14.85 14.7ZM14.85 17.475C14.55 17.475 14.2875 17.2125 14.2875 16.9125C14.2875 16.6125 14.55 16.35 14.85 16.35C15.15 16.35 15.4125 16.6125 15.4125 16.9125C15.4125 17.2125 15.15 17.475 14.85 17.475Z" fill="#161A23"/>
</svg>
