<svg width="24" height="24" viewBox="0 0 24 24" fill="none" xmlns="http://www.w3.org/2000/svg">
<path d="M13.6875 8.25005C13.5375 7.08755 12.5625 6.18755 11.3625 6.18755H10.95C10.7625 4.57505 9.4125 3.30005 7.725 3.30005C6.0375 3.30005 4.6875 4.57505 4.5 6.18755H4.125C2.925 6.18755 1.95 7.08755 1.8 8.25005L0.674996 18.15C0.599996 18.825 0.824996 19.4625 1.2375 19.9501C1.6875 20.4375 2.325 20.7375 2.9625 20.7375H12.4875C13.1625 20.7375 13.8 20.4375 14.2125 19.9501C14.6625 19.4625 14.85 18.7875 14.775 18.15L13.6875 8.25005ZM7.7625 4.98755C8.5125 4.98755 9.1125 5.51255 9.2625 6.18755H6.2625C6.4125 5.47505 7.0125 4.98755 7.7625 4.98755ZM12.975 18.825C12.9 18.9 12.75 19.05 12.4875 19.05H3C2.7375 19.05 2.5875 18.9 2.5125 18.825C2.4375 18.75 2.325 18.5625 2.3625 18.3375L3.4875 8.43755C3.525 8.10005 3.7875 7.87505 4.125 7.87505H5.4H10.05H11.325C11.6625 7.87505 11.925 8.10005 11.9625 8.43755L13.0875 18.3375C13.1625 18.5625 13.05 18.75 12.975 18.825Z" fill="#161A23"/>
<path d="M18.7875 8.9251C18.7875 8.4751 18.4125 8.1001 17.9625 8.1001H15.675C15.225 8.1001 14.85 8.4751 14.85 8.9251C14.85 9.3751 15.225 9.7501 15.675 9.7501H17.9625C18.375 9.7501 18.7875 9.3751 18.7875 8.9251Z" fill="#161A23"/>
<path d="M20.8125 13.0125C20.8125 12.5625 20.4375 12.1875 19.9875 12.1875H16.6875C16.2375 12.1875 15.8625 12.5625 15.8625 13.0125C15.8625 13.4625 16.2375 13.8375 16.6875 13.8375H19.9875C20.4375 13.875 20.8125 13.5 20.8125 13.0125Z" fill="#161A23"/>
<path d="M22.5 16.275H17.6625C17.2125 16.275 16.8375 16.65 16.8375 17.1C16.8375 17.55 17.2125 17.925 17.6625 17.925H22.5C22.95 17.925 23.325 17.55 23.325 17.1C23.325 16.65 22.95 16.275 22.5 16.275Z" fill="#161A23"/>
</svg>
