<svg width="24" height="24" viewBox="0 0 24 24" fill="none" xmlns="http://www.w3.org/2000/svg">
<path d="M21.7875 1.20005C21.6375 0.750052 21.15 0.525052 20.7 0.712552L17.9625 1.72505C17.625 1.83755 17.4 2.17505 17.4 2.51255V12.8626C17.4 13.5001 16.875 14.0251 16.2375 14.0251H5.02499C4.38749 14.0251 3.86249 13.5001 3.86249 12.8626V7.46255C3.86249 7.01255 3.48749 6.63755 3.03749 6.63755C2.58749 6.63755 2.21249 7.01255 2.21249 7.46255V12.8626C2.21249 14.4376 3.48749 15.7126 5.06249 15.7126H16.275C16.6875 15.7126 17.0625 15.6376 17.4375 15.4501V17.0251C17.4375 17.6626 16.9125 18.1876 16.275 18.1876H5.66249C4.23749 18.1876 3.07499 19.3501 3.07499 20.7751C3.07499 22.2001 4.23749 23.3626 5.66249 23.3626C7.08749 23.3626 8.24999 22.2001 8.24999 20.7751C8.24999 20.4751 8.17499 20.1376 8.09999 19.8751H11.85C11.7375 20.1751 11.7 20.4751 11.7 20.7751C11.7 22.2001 12.8625 23.3626 14.2875 23.3626C15.7125 23.3626 16.875 22.2001 16.875 20.7751C16.875 20.4376 16.8 20.1376 16.6875 19.8376C18.0375 19.6126 19.0875 18.4501 19.0875 17.0251V3.11255L21.3 2.32505C21.7125 2.13755 21.9375 1.65005 21.7875 1.20005ZM6.56249 20.7376C6.56249 21.2251 6.14999 21.6376 5.66249 21.6376C5.17499 21.6376 4.76249 21.2251 4.76249 20.7376C4.76249 20.2501 5.17499 19.8376 5.66249 19.8376C6.14999 19.8376 6.56249 20.2501 6.56249 20.7376ZM14.25 21.6751C13.7625 21.6751 13.35 21.2626 13.35 20.7751C13.35 20.2876 13.7625 19.8751 14.25 19.8751C14.7375 19.8751 15.15 20.2876 15.15 20.7751C15.15 21.2626 14.775 21.6751 14.25 21.6751Z" fill="#161A23"/>
<path d="M5.77499 5.625V9.3C5.77499 10.575 6.78749 11.5875 8.06249 11.5875H12.525C13.8 11.5875 14.8125 10.575 14.8125 9.3V5.625C15.2625 5.5875 15.6 5.25 15.6 4.8V2.325C15.6 1.875 15.225 1.5 14.775 1.5H5.84999C5.39999 1.5 5.02499 1.875 5.02499 2.325V4.7625C4.98749 5.2125 5.36249 5.5875 5.77499 5.625ZM12.525 9.9H8.06249C7.72499 9.9 7.46249 9.6375 7.46249 9.3V5.625H13.125V9.3C13.125 9.6375 12.8625 9.9 12.525 9.9ZM6.67499 3.1875H13.875V3.9375H6.67499V3.1875Z" fill="#161A23"/>
</svg>
