<svg width="24" height="24" viewBox="0 0 24 24" fill="none" xmlns="http://www.w3.org/2000/svg">
<path d="M11.2875 11.4H14.3625C14.8125 11.4 15.1875 11.025 15.1875 10.575C15.1875 10.125 14.8125 9.74999 14.3625 9.74999H13.3125V9.18749C13.3125 8.73749 12.9375 8.36249 12.4875 8.36249C12.0375 8.36249 11.6625 8.73749 11.6625 9.18749V9.74999H11.325C9.93748 9.74999 8.84998 10.875 8.84998 12.225C8.84998 13.575 9.97498 14.7 11.325 14.7H12.75C13.2 14.7 13.5375 15.0375 13.5375 15.4875C13.5375 15.9375 13.1625 16.275 12.75 16.275H9.67498C9.22498 16.275 8.84998 16.65 8.84998 17.1C8.84998 17.55 9.22498 17.925 9.67498 17.925H11.625V18.4875C11.625 18.9375 12 19.3125 12.45 19.3125C12.9 19.3125 13.275 18.9375 13.275 18.4875V17.85C14.3625 17.5875 15.15 16.6125 15.15 15.45C15.15 14.1 14.025 12.975 12.675 12.975H11.25C10.8 12.975 10.4625 12.6375 10.4625 12.1875C10.4625 11.7375 10.8375 11.4 11.2875 11.4Z" fill="#161A23"/>
<path d="M21.15 20.2125L19.6125 7.01249C19.4625 5.58749 18.225 4.49999 16.8 4.49999H15.975C15.9375 2.36249 14.175 0.674988 12 0.674988C9.82499 0.674988 8.06249 2.39999 7.98749 4.53749H7.16249C5.73749 4.53749 4.53749 5.62499 4.34999 7.04999L2.84999 20.2125C2.73749 21 2.99999 21.7875 3.52499 22.3875C4.04999 22.9875 4.83749 23.325 5.62499 23.325H18.3375C19.125 23.325 19.9125 22.9875 20.4375 22.3875C21 21.7875 21.2625 21 21.15 20.2125ZM12 2.36249C13.2375 2.36249 14.25 3.33749 14.325 4.53749H9.67498C9.74998 3.29999 10.7625 2.36249 12 2.36249ZM19.2 21.2625C18.975 21.525 18.675 21.6375 18.3375 21.6375H5.66249C5.32499 21.6375 5.02499 21.4875 4.79999 21.2625C4.57499 21 4.49999 20.7 4.53749 20.3625L6.07499 7.16249C6.14999 6.59999 6.63749 6.14999 7.19999 6.14999H16.875C17.4375 6.14999 17.925 6.59999 18 7.16249L19.5375 20.3625C19.5 20.7 19.425 21.0375 19.2 21.2625Z" fill="#161A23"/>
</svg>
