<svg width="24" height="24" viewBox="0 0 24 24" fill="none" xmlns="http://www.w3.org/2000/svg">
<path d="M21.15 7.34998H20.25L17.8125 1.19998C17.625 0.749976 17.1375 0.562476 16.725 0.712476C16.275 0.899976 16.0875 1.38748 16.2375 1.79998L18.4125 7.34998H5.58749L7.76249 1.83748C7.94999 1.38748 7.72499 0.899976 7.27499 0.749976C6.86249 0.562476 6.37499 0.749976 6.18749 1.19998L3.74999 7.34998H2.84999C2.17499 7.34998 1.61249 7.91248 1.61249 8.58748V11.625C1.61249 12.2625 2.06249 12.75 2.69999 12.825L3.63749 21C3.78749 22.35 4.91249 23.3625 6.26249 23.3625H17.7375C19.0875 23.3625 20.2125 22.35 20.3625 21L21.3 12.825C21.9 12.75 22.3875 12.225 22.3875 11.625V8.54998C22.3875 7.87498 21.825 7.34998 21.15 7.34998ZM3.29999 9.03748H20.7V11.175H3.29999V9.03748ZM17.7375 21.675H6.26249C5.77499 21.675 5.36249 21.3 5.28749 20.8125L4.38749 12.8625H19.6125L18.7125 20.8125C18.6375 21.3 18.225 21.675 17.7375 21.675Z" fill="#161A23"/>
<path d="M8.175 14.55C7.725 14.55 7.3125 14.925 7.3125 15.4125V18.225C7.3125 18.675 7.6875 19.0875 8.175 19.0875C8.6625 19.0875 9.0375 18.7125 9.0375 18.225V15.375C9.0375 14.925 8.6625 14.55 8.175 14.55Z" fill="#161A23"/>
<path d="M15.825 14.55C15.375 14.55 14.9625 14.925 14.9625 15.4125V18.225C14.9625 18.675 15.3375 19.0875 15.825 19.0875C16.3125 19.0875 16.6875 18.7125 16.6875 18.225V15.375C16.65 14.925 16.275 14.55 15.825 14.55Z" fill="#161A23"/>
</svg>
