<svg width="24" height="24" viewBox="0 0 24 24" fill="none" xmlns="http://www.w3.org/2000/svg">
<path d="M21.45 20.5125L19.875 6.82499C19.6875 5.36249 18.4875 4.27499 16.9875 4.27499H16.125C16.05 2.06249 14.25 0.299988 12 0.299988C9.74999 0.299988 7.94999 2.06249 7.87499 4.31249H7.01249C5.54999 4.31249 4.31249 5.39999 4.12499 6.86249L2.54999 20.5125C2.43749 21.3375 2.69999 22.1625 3.26249 22.7625C3.82499 23.3625 4.61249 23.7375 5.43749 23.7375H18.6C19.425 23.7375 20.2125 23.4 20.775 22.7625C21.3 22.125 21.5625 21.3 21.45 20.5125ZM12 1.98749C13.3125 1.98749 14.3625 2.99999 14.4375 4.31249H9.56249C9.63749 2.99999 10.6875 1.98749 12 1.98749ZM19.4625 21.6375C19.2375 21.9 18.9 22.05 18.5625 22.05H5.43749C5.09999 22.05 4.76249 21.9 4.53749 21.6375C4.31249 21.375 4.19999 21.0375 4.23749 20.7L5.81249 7.04999C5.88749 6.44999 6.41249 5.99999 7.01249 5.99999H17.025C17.625 5.99999 18.15 6.44999 18.225 7.04999L19.8 20.7C19.8 21.0375 19.725 21.375 19.4625 21.6375Z" fill="#161A23"/>
<path d="M12 7.91248C9.37501 7.91248 7.20001 10.05 7.20001 12.7125C7.20001 15.225 11.025 18.525 11.4375 18.8625C11.5875 19.0125 11.775 19.05 12 19.05C12.1875 19.05 12.375 18.975 12.5625 18.8625C13.0125 18.4875 16.8 15.1875 16.8 12.7125C16.8 10.05 14.625 7.91248 12 7.91248ZM12 17.1C10.575 15.7875 8.88751 13.8 8.88751 12.7125C8.88751 10.9875 10.275 9.59998 12 9.59998C13.725 9.59998 15.1125 10.9875 15.1125 12.7125C15.1125 13.8 13.425 15.7875 12 17.1Z" fill="#161A23"/>
<path d="M12 10.8375C10.875 10.8375 9.97498 11.7375 9.97498 12.8625C9.97498 13.9875 10.875 14.8875 12 14.8875C13.125 14.8875 14.025 13.9875 14.025 12.8625C14.025 11.7375 13.125 10.8375 12 10.8375ZM12 13.2C11.8125 13.2 11.6625 13.05 11.6625 12.8625C11.6625 12.675 11.8125 12.525 12 12.525C12.1875 12.525 12.3375 12.675 12.3375 12.8625C12.3375 13.05 12.1875 13.2 12 13.2Z" fill="#161A23"/>
</svg>
