<svg width="24" height="24" viewBox="0 0 24 24" fill="none" xmlns="http://www.w3.org/2000/svg">
<g clip-path="url(#clip0_501_44751)">
<path d="M20.2125 0.675049H3.78749C2.06249 0.675049 0.674988 2.06255 0.674988 3.78755V17.2125C0.674988 20.5875 3.41249 23.3625 6.82499 23.3625H17.25C20.625 23.3625 23.4 20.625 23.4 17.2125V3.78755C23.325 2.06255 21.9375 0.675049 20.2125 0.675049ZM21.675 17.2125C21.675 19.65 19.6875 21.675 17.2125 21.675H6.78749C4.34999 21.675 2.32499 19.6875 2.32499 17.2125V3.78755C2.32499 3.00005 2.99999 2.32505 3.78749 2.32505H20.25C21.0375 2.32505 21.675 2.96255 21.675 3.75005V17.2125Z" fill="#161A23"/>
<path d="M16.5375 4.98755C16.0875 4.98755 15.7125 5.36255 15.7125 5.81255V9.60005C15.7125 11.625 14.0625 13.3125 12 13.3125C9.93751 13.3125 8.28751 11.6625 8.28751 9.60005V5.85005C8.28751 5.40005 7.91251 5.02505 7.46251 5.02505C7.01251 5.02505 6.63751 5.40005 6.63751 5.85005V9.63755C6.60001 12.6 9.03751 15 12 15C14.9625 15 17.4 12.6 17.4 9.60005V5.85005C17.4 5.36255 16.9875 4.98755 16.5375 4.98755Z" fill="#161A23"/>
</g>
<defs>
<clipPath id="clip0_501_44751">
<rect width="24" height="24" fill="white"/>
</clipPath>
</defs>
</svg>
