<svg width="23" height="23" viewBox="0 0 23 23" fill="none" xmlns="http://www.w3.org/2000/svg">
<path d="M22.1107 19.05L20.2357 2.8875C20.0482 1.2375 18.6607 0 16.9732 0H5.16071C3.51071 0 2.12321 1.2375 1.89821 2.8875L0.0232052 19.05C-0.0892948 19.9875 0.210705 20.8875 0.848205 21.6C1.48571 22.3125 2.3482 22.6875 3.2857 22.6875H18.8482C19.7857 22.6875 20.6857 22.275 21.2857 21.6C21.8857 20.925 22.2232 19.9875 22.1107 19.05ZM20.0482 20.475C19.7482 20.8125 19.3357 21 18.8857 21H3.2857C2.8357 21 2.42321 20.8125 2.12321 20.475C1.82321 20.1375 1.67321 19.6875 1.74821 19.2375L3.58571 3.1125C3.66071 2.325 4.33571 1.725 5.16071 1.725H17.0107C17.7982 1.725 18.4732 2.325 18.5857 3.1125L20.4607 19.275C20.4982 19.725 20.3482 20.1375 20.0482 20.475Z" fill="#161A23"/>
<path d="M14.7232 5.13749C14.2732 5.24999 13.9732 5.69999 14.0857 6.14999C14.1232 6.37499 14.1607 6.59999 14.1607 6.78749C14.1607 8.47499 12.7732 9.86249 11.0857 9.86249C9.39824 9.86249 8.01074 8.47499 8.01074 6.78749C8.01074 6.56249 8.04824 6.37499 8.08574 6.14999C8.19824 5.69999 7.89824 5.24999 7.44824 5.13749C6.99824 5.02499 6.54824 5.32499 6.43574 5.77499C6.36074 6.11249 6.32324 6.44999 6.32324 6.78749C6.32324 9.41249 8.46074 11.55 11.0857 11.55C13.7107 11.55 15.8482 9.41249 15.8482 6.78749C15.8482 6.44999 15.8107 6.11249 15.7357 5.77499C15.6232 5.32499 15.1732 5.06249 14.7232 5.13749Z" fill="#161A23"/>
</svg>
