<svg width="24" height="24" viewBox="0 0 24 24" fill="none" xmlns="http://www.w3.org/2000/svg">
<path d="M8.13749 11.9625H13.05C13.9125 11.9625 14.625 11.25 14.625 10.3875V8.10001C14.625 7.31251 14.025 6.63751 13.2375 6.56251V5.55001C13.2375 4.08751 12.0375 2.88751 10.575 2.88751C9.97499 2.88751 9.37499 3.11251 8.88749 3.48751C8.51249 3.78751 8.47499 4.31251 8.77499 4.68751C9.07499 5.06251 9.59999 5.10001 9.97499 4.80001C10.0875 4.68751 10.3125 4.57501 10.575 4.57501C11.1 4.57501 11.55 5.02501 11.55 5.55001V6.56251H8.09999C7.23749 6.56251 6.52499 7.27501 6.52499 8.13751V10.425C6.56249 11.25 7.27499 11.9625 8.13749 11.9625ZM8.24999 8.25001H12.9375V10.275H8.24999V8.25001Z" fill="#161A23"/>
<path d="M21.7875 1.19999C21.6375 0.749991 21.15 0.524991 20.7 0.712491L17.9625 1.72499C17.625 1.83749 17.4 2.17499 17.4 2.51249V12.8625C17.4 13.5 16.875 14.025 16.2375 14.025H5.02499C4.38749 14.025 3.86249 13.5 3.86249 12.8625V7.46249C3.86249 7.01249 3.48749 6.63749 3.03749 6.63749C2.58749 6.63749 2.21249 7.01249 2.21249 7.46249V12.8625C2.21249 14.4375 3.48749 15.7125 5.06249 15.7125H16.275C16.6875 15.7125 17.0625 15.6375 17.4375 15.45V17.025C17.4375 17.6625 16.9125 18.1875 16.275 18.1875H5.66249C4.23749 18.1875 3.07499 19.35 3.07499 20.775C3.07499 22.2 4.23749 23.3625 5.66249 23.3625C7.08749 23.3625 8.24999 22.2 8.24999 20.775C8.24999 20.475 8.17499 20.1375 8.09999 19.875H11.85C11.7375 20.175 11.7 20.475 11.7 20.775C11.7 22.2 12.8625 23.3625 14.2875 23.3625C15.7125 23.3625 16.875 22.2 16.875 20.775C16.875 20.4375 16.8 20.1375 16.6875 19.8375C18.0375 19.6125 19.0875 18.45 19.0875 17.025V3.11249L21.3 2.32499C21.7125 2.13749 21.9375 1.64999 21.7875 1.19999ZM6.56249 20.7375C6.56249 21.225 6.14999 21.6375 5.66249 21.6375C5.17499 21.6375 4.76249 21.225 4.76249 20.7375C4.76249 20.25 5.17499 19.8375 5.66249 19.8375C6.14999 19.8375 6.56249 20.25 6.56249 20.7375ZM14.25 21.6375C13.7625 21.6375 13.35 21.225 13.35 20.7375C13.35 20.25 13.7625 19.8375 14.25 19.8375C14.7375 19.8375 15.15 20.25 15.15 20.7375C15.15 21.225 14.775 21.6375 14.25 21.6375Z" fill="#161A23"/>
</svg>
