<svg width="24" height="24" viewBox="0 0 24 24" fill="none" xmlns="http://www.w3.org/2000/svg">
<path d="M15.4875 12.675H14.85V11.5125C14.85 9.97501 13.575 8.70001 12.0375 8.70001C11.4 8.70001 10.7625 8.92501 10.2375 9.33751C9.8625 9.63751 9.825 10.1625 10.125 10.5375C10.425 10.9125 10.95 10.95 11.325 10.65C11.475 10.5375 11.7 10.3875 12.0375 10.3875C12.675 10.3875 13.1625 10.9125 13.1625 11.5125V12.675H8.5125C8.0625 12.675 7.6875 13.05 7.6875 13.5V17.55C7.6875 18 8.0625 18.375 8.5125 18.375H15.45C15.9 18.375 16.275 18 16.275 17.55V13.5375C16.3125 13.05 15.9375 12.675 15.4875 12.675ZM14.625 16.725H9.375V14.3625H14.625V16.725Z" fill="#161A23"/>
<path d="M21.15 20.2125L19.6125 7.01249C19.4625 5.58749 18.225 4.49999 16.8 4.49999H15.975C15.9375 2.36249 14.175 0.674988 12 0.674988C9.82499 0.674988 8.06249 2.39999 7.98749 4.53749H7.16249C5.73749 4.53749 4.53749 5.62499 4.34999 7.04999L2.84999 20.2125C2.73749 21 2.99999 21.7875 3.52499 22.3875C4.04999 22.9875 4.83749 23.325 5.62499 23.325H18.3375C19.125 23.325 19.9125 22.9875 20.4375 22.3875C21 21.7875 21.2625 21 21.15 20.2125ZM12 2.32499C13.2375 2.32499 14.25 3.29999 14.325 4.49999H9.67498C9.74998 3.29999 10.7625 2.32499 12 2.32499ZM19.2 21.2625C18.975 21.525 18.675 21.6375 18.3375 21.6375H5.66249C5.32499 21.6375 5.02499 21.4875 4.79999 21.2625C4.57499 21 4.49999 20.7 4.53749 20.3625L6.07499 7.16249C6.14999 6.59999 6.63749 6.14999 7.19999 6.14999H16.875C17.4375 6.14999 17.925 6.59999 18 7.16249L19.5375 20.3625C19.5 20.7 19.425 21.0375 19.2 21.2625Z" fill="#161A23"/>
</svg>
