<svg width="24" height="24" viewBox="0 0 24 24" fill="none" xmlns="http://www.w3.org/2000/svg">
<path d="M21.7875 1.20005C21.6375 0.750052 21.15 0.525052 20.7 0.712552L17.9625 1.72505C17.625 1.83755 17.4 2.17505 17.4 2.51255V12.8626C17.4 13.5001 16.875 14.0251 16.2375 14.0251H5.02502C4.38752 14.0251 3.86252 13.5001 3.86252 12.8626V7.46255C3.86252 7.01255 3.48752 6.63755 3.03752 6.63755C2.58752 6.63755 2.21252 7.01255 2.21252 7.46255V12.8626C2.21252 14.4376 3.48752 15.7126 5.06252 15.7126H16.275C16.6875 15.7126 17.0625 15.6376 17.4375 15.4501V17.0251C17.4375 17.6626 16.9125 18.1876 16.275 18.1876H5.66252C4.23752 18.1876 3.07502 19.3501 3.07502 20.7751C3.07502 22.2001 4.23752 23.3626 5.66252 23.3626C7.08752 23.3626 8.25002 22.2001 8.25002 20.7751C8.25002 20.4751 8.17502 20.1376 8.10002 19.8751H11.85C11.7375 20.1751 11.7 20.4751 11.7 20.7751C11.7 22.2001 12.8625 23.3626 14.2875 23.3626C15.7125 23.3626 16.875 22.2001 16.875 20.7751C16.875 20.4376 16.8 20.1376 16.6875 19.8376C18.0375 19.6126 19.0875 18.4501 19.0875 17.0251V3.11255L21.3 2.32505C21.7125 2.13755 21.9375 1.65005 21.7875 1.20005ZM6.56252 20.7376C6.56252 21.2251 6.15002 21.6376 5.66252 21.6376C5.17502 21.6376 4.76252 21.2251 4.76252 20.7376C4.76252 20.2501 5.17502 19.8376 5.66252 19.8376C6.15002 19.8376 6.56252 20.2501 6.56252 20.7376ZM14.25 21.6751C13.7625 21.6751 13.35 21.2626 13.35 20.7751C13.35 20.2876 13.7625 19.8751 14.25 19.8751C14.7375 19.8751 15.15 20.2876 15.15 20.7751C15.15 21.2626 14.775 21.6751 14.25 21.6751Z" fill="#161A23"/>
<path d="M10.8 7.2751C12.3375 7.2751 13.575 6.0376 13.575 4.5001C13.575 2.9626 12.3375 1.7251 10.8 1.7251C9.26252 1.7251 8.02502 2.9626 8.02502 4.5001C8.02502 6.0376 9.30002 7.2751 10.8 7.2751ZM10.8 3.3751C11.4 3.3751 11.8875 3.8626 11.8875 4.4626C11.8875 5.0626 11.4 5.5501 10.8 5.5501C10.2 5.5501 9.71252 5.0626 9.71252 4.4626C9.71252 3.8626 10.2 3.3751 10.8 3.3751Z" fill="#161A23"/>
<path d="M6.45003 11.5501C6.82503 11.8126 7.35003 11.7376 7.61253 11.3626C8.32503 10.3876 9.52503 9.7876 10.725 9.7876C11.9625 9.7876 13.125 10.3876 13.875 11.3626C14.025 11.5876 14.2875 11.7001 14.55 11.7001C14.7375 11.7001 14.8875 11.6626 15.0375 11.5501C15.4125 11.2876 15.4875 10.7626 15.225 10.3876C14.175 8.9626 12.4875 8.1001 10.725 8.1001C8.96253 8.1001 7.27503 8.9626 6.22503 10.3876C5.96253 10.7626 6.07503 11.2876 6.45003 11.5501Z" fill="#161A23"/>
</svg>
