<svg width="24" height="24" viewBox="0 0 24 24" fill="none" xmlns="http://www.w3.org/2000/svg">
<path d="M11.55 9.225H14.4C14.85 9.225 15.2625 8.85 15.2625 8.3625C15.2625 7.875 14.8875 7.5 14.4 7.5H11.55C10.2375 7.5 9.15002 8.5875 9.15002 9.9V10.5C9.15002 11.8125 10.2375 12.9 11.55 12.9H12.8625C13.2375 12.9 13.575 13.2 13.575 13.6125V14.25C13.575 14.625 13.275 14.9625 12.8625 14.9625H10.2C9.75002 14.9625 9.33752 15.3375 9.33752 15.825C9.33752 16.3125 9.71252 16.6875 10.2 16.6875H12.8625C14.175 16.6875 15.2625 15.6 15.2625 14.2875V13.6875C15.2625 12.375 14.2125 11.2875 12.8625 11.2875H11.55C11.175 11.2875 10.8375 10.9875 10.8375 10.575V9.975C10.875 9.5625 11.175 9.225 11.55 9.225Z" fill="#161A23"/>
<path d="M6.52501 7.6875C6.22501 7.3125 5.70001 7.275 5.32501 7.575L1.08751 11.025C0.825012 11.25 0.637512 11.5875 0.637512 11.9625C0.637512 12.3375 0.787512 12.6375 1.08751 12.8625L5.36251 16.3125C5.51251 16.425 5.70001 16.5 5.88751 16.5C6.15001 16.5 6.37501 16.3875 6.52501 16.2C6.82501 15.825 6.75001 15.3 6.41251 15L2.62501 11.925L6.41251 8.85C6.78751 8.5875 6.82501 8.025 6.52501 7.6875Z" fill="#161A23"/>
<path d="M22.9125 11.025L18.6375 7.57502C18.2625 7.27502 17.7375 7.35002 17.4375 7.68752C17.1375 8.06252 17.2125 8.58752 17.55 8.88752L21.3375 11.925L17.55 15C17.175 15.3 17.1375 15.825 17.4375 16.2C17.5875 16.425 17.85 16.5 18.1125 16.5C18.3 16.5 18.4875 16.425 18.6375 16.3125L22.9125 12.8625C23.2125 12.6375 23.3625 12.3 23.3625 11.925C23.3625 11.55 23.175 11.25 22.9125 11.025Z" fill="#161A23"/>
</svg>
