<svg width="24" height="24" viewBox="0 0 24 24" fill="none" xmlns="http://www.w3.org/2000/svg">
<path d="M12 8.40002C10.8 8.40002 9.82498 9.37502 9.82498 10.575C9.82498 11.475 10.3875 12.2625 11.175 12.6V19.95C11.175 20.4 11.55 20.8125 12.0375 20.8125C12.4875 20.8125 12.9 20.4375 12.9 19.95V12.5625C13.6875 12.225 14.25 11.475 14.25 10.5375C14.175 9.37502 13.2 8.40002 12 8.40002ZM12 10.0875C12.2625 10.0875 12.4875 10.3125 12.4875 10.575C12.4875 10.8375 12.2625 11.0625 12 11.0625C11.7375 11.0625 11.5125 10.8375 11.5125 10.575C11.5125 10.3125 11.7375 10.0875 12 10.0875Z" fill="#161A23"/>
<path d="M8.28748 10.3125C8.28748 9.6 8.58748 8.925 9.07498 8.4375C9.41248 8.1 9.41248 7.575 9.07498 7.2375C8.73748 6.9 8.21248 6.9 7.87498 7.2375C7.04998 8.0625 6.59998 9.15 6.59998 10.3125C6.59998 11.475 7.04998 12.6 7.87498 13.425C8.02498 13.575 8.24998 13.6875 8.47498 13.6875C8.69998 13.6875 8.88748 13.6125 9.07498 13.425C9.41248 13.0875 9.41248 12.5625 9.07498 12.225C8.58748 11.7 8.28748 11.025 8.28748 10.3125Z" fill="#161A23"/>
<path d="M16.0875 7.2375C15.75 6.9 15.225 6.9 14.8875 7.2375C14.55 7.575 14.55 8.1 14.8875 8.4375C15.4125 8.925 15.675 9.6 15.675 10.3125C15.675 11.025 15.4125 11.7 14.8875 12.225C14.55 12.5625 14.55 13.0875 14.8875 13.425C15.0375 13.575 15.2625 13.6875 15.4875 13.6875C15.7125 13.6875 15.9375 13.6125 16.0875 13.425C16.9125 12.6 17.3625 11.475 17.3625 10.3125C17.3625 9.15 16.9125 8.0625 16.0875 7.2375Z" fill="#161A23"/>
<path d="M5.13748 10.3125C5.13748 8.8875 5.69998 7.575 6.71248 6.5625C7.04998 6.225 7.04998 5.7 6.71248 5.3625C6.37498 5.025 5.84998 5.025 5.51248 5.3625C4.16248 6.675 3.44998 8.4375 3.44998 10.3125C3.44998 12.1875 4.19998 13.95 5.51248 15.2625C5.66248 15.4125 5.88748 15.525 6.11248 15.525C6.33748 15.525 6.56248 15.45 6.71248 15.2625C7.04998 14.925 7.04998 14.4 6.71248 14.0625C5.69998 13.05 5.13748 11.7375 5.13748 10.3125Z" fill="#161A23"/>
<path d="M18.4875 5.3625C18.15 5.025 17.625 5.025 17.2875 5.3625C16.95 5.7 16.95 6.225 17.2875 6.5625C18.3 7.575 18.8625 8.8875 18.8625 10.3125C18.8625 11.7375 18.3 13.05 17.2875 14.0625C16.95 14.4 16.95 14.925 17.2875 15.2625C17.4375 15.4125 17.6625 15.525 17.8875 15.525C18.1125 15.525 18.3 15.45 18.4875 15.2625C19.8375 13.95 20.55 12.1875 20.55 10.3125C20.55 8.4375 19.8 6.675 18.4875 5.3625Z" fill="#161A23"/>
<path d="M1.98749 10.3125C1.98749 8.175 2.81249 6.1875 4.34999 4.6875C4.68749 4.35 4.68749 3.825 4.34999 3.4875C4.01249 3.15 3.48749 3.15 3.14999 3.4875C1.31249 5.325 0.299988 7.725 0.299988 10.3125C0.299988 12.9 1.31249 15.3 3.14999 17.1375C3.29999 17.2875 3.52499 17.4 3.74999 17.4C3.97499 17.4 4.19999 17.325 4.34999 17.1375C4.68749 16.8 4.68749 16.275 4.34999 15.9375C2.81249 14.4375 1.98749 12.45 1.98749 10.3125Z" fill="#161A23"/>
<path d="M20.85 3.4875C20.5125 3.15 19.9875 3.15 19.65 3.4875C19.3125 3.825 19.3125 4.35 19.65 4.6875C21.1875 6.1875 22.0125 8.175 22.0125 10.3125C22.0125 12.45 21.1875 14.4375 19.65 15.9375C19.3125 16.275 19.3125 16.8 19.65 17.1375C19.8 17.2875 20.025 17.4 20.25 17.4C20.475 17.4 20.6625 17.325 20.85 17.1375C22.6875 15.3 23.7 12.9 23.7 10.3125C23.7375 7.725 22.6875 5.325 20.85 3.4875Z" fill="#161A23"/>
</svg>
