<svg width="24" height="24" viewBox="0 0 24 24" fill="none" xmlns="http://www.w3.org/2000/svg">
<path d="M19.725 9.9375L15.975 6.1875L16.6875 4.725C17.325 3.375 16.7625 1.725 15.4125 1.05C14.7375 0.749998 14.025 0.674998 13.3125 0.937498C12.7125 1.1625 12.225 1.5375 11.8875 2.1L10.875 1.0875C9.78749 -1.49012e-06 8.02499 -1.49012e-06 6.97499 1.0875C5.88749 2.175 5.88749 3.9375 6.97499 4.9875L9.78749 7.8C9.44999 7.95 9.14999 8.1375 8.84999 8.4C8.47499 8.775 8.24999 9.225 8.13749 9.675C7.19999 9.4125 6.14999 9.6375 5.39999 10.3875C4.64999 11.1375 4.42499 12.1875 4.68749 13.125C4.19999 13.2375 3.78749 13.5 3.41249 13.8375C2.32499 14.925 2.32499 16.6875 3.41249 17.7375L7.64999 21.975C8.77499 23.1 10.275 23.6625 11.775 23.6625C13.275 23.6625 14.7375 23.1 15.9 21.975L19.7625 18.1125C21.975 15.9 21.975 12.1875 19.725 9.9375ZM13.275 3.075C13.3875 2.8125 13.6125 2.625 13.875 2.5125C14.1375 2.4375 14.4375 2.4375 14.7 2.55C15.225 2.8125 15.45 3.45 15.1875 3.975L14.7375 4.9125L13.125 3.3375L13.275 3.075ZM18.525 16.95L14.6625 20.8125C13.875 21.6 12.8625 22.0125 11.7375 22.0125C10.65 22.0125 9.59999 21.6 8.81249 20.8125L4.57499 16.6125C4.38749 16.425 4.27499 16.125 4.27499 15.8625C4.27499 15.5625 4.38749 15.3 4.57499 15.1125C4.79999 14.8875 5.06249 14.8125 5.32499 14.8125C5.58749 14.8125 5.88749 14.925 6.07499 15.1125L10.3125 19.35C10.65 19.6875 11.175 19.6875 11.5125 19.35C11.6625 19.2 11.775 18.975 11.775 18.75C11.775 18.525 11.7 18.3 11.5125 18.15L6.56249 13.125C6.14999 12.7125 6.14999 12 6.56249 11.5875C6.97499 11.175 7.68749 11.175 8.09999 11.5875L13.05 16.5375C13.3875 16.875 13.9125 16.875 14.25 16.5375C14.4 16.3875 14.5125 16.1625 14.5125 15.9375C14.5125 15.7125 14.4375 15.525 14.25 15.375L10.05 11.1375C9.63749 10.725 9.63749 10.0125 10.05 9.6C10.4625 9.1875 11.1375 9.1875 11.5875 9.6L15.825 13.8375C15.8625 13.875 15.9 13.9125 15.9375 13.9125C16.0875 14.025 16.2375 14.0625 16.3875 14.0625C16.6125 14.0625 16.875 13.9875 17.025 13.8C17.3625 13.4625 17.3625 12.9375 17.025 12.6L12.75 8.4375L8.13749 3.825C7.72499 3.4125 7.72499 2.7 8.13749 2.2875C8.54999 1.875 9.26249 1.875 9.67499 2.2875L18.525 11.1C20.1375 12.7125 20.1375 15.3375 18.525 16.95Z" fill="#161A23"/>
</svg>
