<svg width="24" height="24" viewBox="0 0 24 24" fill="none" xmlns="http://www.w3.org/2000/svg">
<path d="M9.65167 1.80606L9.88429 2.7609C8.96921 2.98946 8.09344 3.35729 7.28674 3.85189L6.78922 3.00864C7.6782 2.46351 8.64326 2.05806 9.65167 1.80606ZM14.6141 1.80606L14.3815 2.7609C15.2966 2.98946 16.1723 3.35729 16.9791 3.85189L17.4798 3.00864C16.5898 2.46321 15.6237 2.05775 14.6141 1.80606ZM3.28058 6.57206C2.74384 7.47495 2.34464 8.45509 2.0965 9.47925L3.03666 9.7155C3.2617 8.78614 3.62387 7.89671 4.1109 7.07738L3.28058 6.57206ZM2.76366 11.9993C2.76334 11.522 2.79845 11.0454 2.86866 10.5735L1.91074 10.4259C1.75567 11.4689 1.75567 12.5296 1.91074 13.5726L2.86866 13.425C2.79845 12.9531 2.76334 12.4765 2.76366 11.9993ZM17.4766 20.9899L16.9791 20.1466C16.1733 20.6409 15.2987 21.0087 14.3847 21.2376L14.6173 22.1925C15.6246 21.9401 16.5886 21.5347 17.4766 20.9899ZM21.5021 11.9993C21.5024 12.4765 21.4674 12.9531 21.3971 13.425L22.3551 13.5726C22.5101 12.5296 22.5101 11.4689 22.3551 10.4259L21.3971 10.5735C21.4674 11.0454 21.5024 11.522 21.5021 11.9993ZM22.1693 14.5193L21.2291 14.283C21.0041 15.2124 20.6419 16.1018 20.1549 16.9211L20.9852 17.4297C21.5223 16.5258 21.9215 15.5445 22.1693 14.5193ZM13.5367 21.4099C12.6061 21.5521 11.6597 21.5521 10.7291 21.4099L10.5837 22.3828C11.6107 22.5403 12.6551 22.5403 13.6821 22.3828L13.5367 21.4099ZM19.6752 17.6447C19.1163 18.4133 18.4471 19.0924 17.6898 19.6593L18.2649 20.4518C19.1003 19.8279 19.8387 19.0802 20.4553 18.2336L19.6752 17.6447ZM17.6898 4.33916C18.4472 4.90658 19.1164 5.58626 19.6752 6.3555L20.4553 5.76488C19.8406 4.91876 19.1044 4.17109 18.2713 3.54676L17.6898 4.33916ZM4.59067 6.3555C5.14935 5.58626 5.81857 4.90658 6.576 4.33916L5.99445 3.54676C5.16135 4.17109 4.42515 4.91876 3.81045 5.76488L4.59067 6.3555ZM20.9852 6.57206L20.1549 7.07738C20.6416 7.8957 21.0038 8.784 21.2291 9.71224L22.1693 9.47595C21.9208 8.45295 21.5217 7.47394 20.9852 6.57206ZM10.7291 2.59028C11.6597 2.44808 12.6061 2.44808 13.5367 2.59028L13.6821 1.61739C12.6551 1.45989 11.6107 1.45989 10.5837 1.61739L10.7291 2.59028ZM5.08819 20.7126L3.08674 21.1868L3.55358 19.154L2.6102 18.9293L2.14335 20.962C2.10575 21.1251 2.10974 21.2952 2.15495 21.4563C2.20016 21.6174 2.28509 21.7641 2.4017 21.8825C2.51831 22.0009 2.66276 22.0872 2.82136 22.1331C2.97995 22.179 3.14747 22.1831 3.30804 22.1449L5.3079 21.6789L5.08819 20.7126ZM2.81212 18.0515L3.75551 18.2747L4.07857 16.8654C3.60767 16.0615 3.25655 15.1913 3.03666 14.283L2.0965 14.5193C2.30726 15.3892 2.6276 16.2279 3.04958 17.0147L2.81212 18.0515ZM7.33519 20.1843L5.94757 20.5125L6.16729 21.4706L7.18819 21.2294C7.96282 21.658 8.78865 21.9833 9.64522 22.1974L9.87784 21.2426C8.98537 21.0165 8.13075 20.6577 7.34164 20.1778L7.33519 20.1843ZM12.1329 3.46801C10.632 3.4688 9.15881 3.87795 7.86641 4.65296C6.57401 5.42798 5.50972 6.54049 4.7841 7.87481C4.05851 9.20914 3.6982 10.7166 3.74058 12.2403C3.783 13.764 4.22655 15.2483 5.02522 16.5389L4.21751 20.0383L7.66312 19.218C8.76514 19.923 10.0135 20.358 11.3095 20.4887C12.6055 20.6195 13.9137 20.4424 15.1307 19.9714C16.3478 19.5004 17.4403 18.7485 18.322 17.7749C19.2037 16.8014 19.8505 15.633 20.2112 14.362C20.5719 13.091 20.6367 11.7522 20.4004 10.4514C20.1641 9.15064 19.6332 7.92349 18.8497 6.86689C18.0662 5.81029 17.0515 4.95319 15.8858 4.36328C14.7201 3.7734 13.4353 3.46692 12.1329 3.46801Z" fill="#15171A"/>
</svg>
