<svg width="24" height="24" viewBox="0 0 24 24" fill="none" xmlns="http://www.w3.org/2000/svg">
<path d="M18.8625 3.59999H12.8625V1.49999C12.8625 1.04999 12.4875 0.674988 12.0375 0.674988C11.5875 0.674988 11.2125 1.04999 11.2125 1.49999V3.59999H5.1375C4.05 3.59999 3.1875 4.49999 3.1875 5.54999V10.9125C3.1875 12 4.0875 12.9 5.1375 12.9H11.175V22.5C11.175 22.95 11.55 23.325 12 23.325C12.45 23.325 12.825 22.95 12.825 22.5V12.9375H18.8625C19.95 12.9375 20.8125 12.0375 20.8125 10.95V5.58749C20.85 4.49999 19.95 3.59999 18.8625 3.59999ZM19.1625 10.95C19.1625 11.1 19.05 11.25 18.8625 11.25H5.1375C4.9875 11.25 4.8375 11.1375 4.8375 10.95V5.58749C4.8375 5.43749 4.95 5.28749 5.1375 5.28749H18.8625C19.0125 5.28749 19.1625 5.39999 19.1625 5.58749V10.95Z" fill="#161A23"/>
</svg>
