<svg width="24" height="24" viewBox="0 0 24 24" fill="none" xmlns="http://www.w3.org/2000/svg">
<g clip-path="url(#clip0_501_41641)">
<path d="M12 0.675049C5.73755 0.675049 0.675049 5.73755 0.675049 12C0.675049 18.2626 5.73755 23.3251 12 23.3251C18.2626 23.3251 23.3251 18.2626 23.3251 12C23.3251 5.73755 18.2626 0.675049 12 0.675049ZM12 21.6751C11.25 21.6751 10.5 21.6 9.78755 21.4125V18.3001L12.4875 16.3876C12.7126 16.2376 12.8251 15.9751 12.8251 15.7126V7.76255L15.5251 10.5375C15.6751 10.725 15.9001 10.8 16.1251 10.8C16.35 10.8 16.5375 10.725 16.725 10.5751C17.0625 10.2375 17.0626 9.71255 16.7626 9.37505L12.6 5.10005C12.3 4.76255 11.7 4.76255 11.4001 5.10005L7.23755 9.41255C6.90005 9.75005 6.93755 10.275 7.27505 10.6125C7.61255 10.95 8.13755 10.9125 8.47505 10.5751L11.175 7.80005V15.2626L9.82505 16.2375V14.475C9.82505 14.025 9.45005 13.6501 9.00005 13.6501C8.55005 13.6501 8.17505 14.025 8.17505 14.475V20.8876C4.72505 19.35 2.32505 15.9376 2.32505 12C2.32505 6.67505 6.67505 2.32505 12 2.32505C17.3251 2.32505 21.6751 6.67505 21.6751 12C21.6751 17.3251 17.3251 21.6751 12 21.6751Z" fill="#161A23"/>
</g>
<defs>
<clipPath id="clip0_501_41641">
<rect width="24" height="24" fill="white"/>
</clipPath>
</defs>
</svg>
