<svg width="24" height="24" viewBox="0 0 24 24" fill="none" xmlns="http://www.w3.org/2000/svg">
<path d="M11.2875 10.2C11.4375 10.0875 11.55 9.9375 11.6625 9.7875C12.0375 9.225 12.075 8.5125 11.775 7.9125C11.475 7.2375 11.025 6.675 10.4625 6.1875C9.90001 5.7 9.26251 5.3625 8.58751 5.175L9.18751 4.05C9.41251 3.5625 9.48751 3.0375 9.30001 2.55C9.15001 2.0625 8.81251 1.65 8.32501 1.3875C7.87501 1.1625 7.31251 1.0875 6.82501 1.275C6.33751 1.425 5.92501 1.7625 5.66251 2.25L5.40001 2.7375C5.17501 2.625 4.95001 2.55 4.72501 2.5125C3.63751 2.3625 2.66251 3.1125 2.51251 4.2L2.06251 8.3625C1.91251 8.7 1.83751 9 1.80001 9.375C1.68751 9.975 1.57501 10.575 1.42501 11.0625L0.337507 15.2625C0.150007 16.05 0.562507 16.9125 1.35001 17.2125C1.98751 17.475 2.66251 17.5875 3.30001 17.5875C4.57501 17.5875 5.81251 17.1375 6.75001 16.2375C7.01251 16.0125 7.27501 15.7875 7.57501 15.6375C7.83751 15.4875 8.13751 15.3375 8.47501 15.2625C9.93751 14.85 11.1375 13.8375 11.8125 12.45C12.1125 11.85 12.075 11.175 11.7 10.575C11.55 10.4625 11.4375 10.3125 11.2875 10.2ZM7.16251 3C7.20001 2.925 7.23751 2.8875 7.31251 2.85C7.38751 2.8125 7.46251 2.85 7.53751 2.85C7.61251 2.8875 7.65001 2.925 7.68751 3C7.72501 3.075 7.68751 3.15 7.65001 3.225L6.78751 4.875C6.75001 4.875 6.67501 4.875 6.63751 4.875C6.48751 4.875 6.30001 4.9125 6.15001 4.95L7.16251 3ZM4.53751 4.1625C4.57501 4.1625 4.61251 4.2 4.65001 4.2L4.12501 5.25L4.23751 4.3875C4.23751 4.2375 4.38751 4.125 4.53751 4.1625ZM10.2375 11.7375C9.78751 12.675 8.96251 13.35 7.98751 13.65C7.53751 13.7625 7.12501 13.95 6.71251 14.175C6.30001 14.4 5.92501 14.7 5.58751 15C4.65001 15.8625 3.22501 16.125 1.98751 15.6375L3.03751 11.4375C3.18751 10.875 3.33751 10.2375 3.45001 9.6C3.71251 7.95 5.10001 6.675 6.75001 6.5625C7.68751 6.4875 8.62501 6.7875 9.33751 7.425C9.71251 7.7625 10.0125 8.1375 10.2375 8.5875C10.275 8.625 10.275 8.7 10.2375 8.8125C10.1625 8.925 10.0125 8.9625 9.86251 8.925C9.86251 8.925 9.78751 8.8875 9.75001 8.775C9.52501 8.325 9.15001 7.9125 8.73751 7.6125C8.25001 7.275 7.65001 7.0875 7.05001 7.0875C6.18751 7.0875 5.36251 7.4625 4.80001 8.1C4.23751 8.7375 3.93751 9.6 4.05001 10.4625C4.20001 11.8125 5.21251 12.9 6.56251 13.125C6.75001 13.1625 6.90001 13.1625 7.08751 13.1625C8.25001 13.1625 9.30001 12.525 9.82501 11.475C9.86251 11.4 9.90001 11.3625 9.90001 11.3625C10.0875 11.2875 10.2375 11.325 10.3125 11.475C10.3125 11.625 10.275 11.7 10.2375 11.7375ZM8.66251 10.2C8.47501 10.35 8.32501 10.575 8.21251 10.8C7.95001 11.325 7.35001 11.625 6.75001 11.55C6.15001 11.4375 5.70001 10.9875 5.62501 10.3875C5.58751 10.0125 5.70001 9.6 5.96251 9.3375C6.22501 9.0375 6.60001 8.8875 6.97501 8.8875C7.23751 8.8875 7.50001 8.9625 7.72501 9.1125C7.91251 9.225 8.06251 9.4125 8.17501 9.6375C8.32501 9.825 8.47501 10.0125 8.66251 10.2Z" fill="#161A23"/>
<path d="M22.6875 6.78749C20.8125 6.03749 18.675 6.41249 17.25 7.76249C16.9875 7.98749 16.725 8.21249 16.425 8.36249C16.1625 8.51249 15.8625 8.66249 15.525 8.73749C14.0625 9.14999 12.8625 10.1625 12.1875 11.55C11.8875 12.15 11.925 12.825 12.3 13.425C12.4125 13.575 12.525 13.725 12.675 13.8375C12.525 13.95 12.4125 14.1 12.3 14.25C11.925 14.8125 11.8875 15.525 12.1875 16.125C12.4875 16.8 12.9375 17.3625 13.5 17.85C14.0625 18.3375 14.7 18.675 15.375 18.8625L14.775 19.9875C14.55 20.475 14.475 21 14.6625 21.4875C14.8125 21.975 15.15 22.3875 15.6375 22.65C15.9375 22.8 16.2375 22.875 16.5375 22.875C16.725 22.875 16.95 22.8375 17.1375 22.7625C17.625 22.6125 18.0375 22.275 18.3 21.7875L18.5625 21.3C18.7875 21.4125 19.0125 21.4875 19.2375 21.525C19.3125 21.525 19.425 21.525 19.5 21.525C20.475 21.525 21.3 20.8125 21.45 19.8L21.9375 15.6C22.05 15.3 22.1625 14.9625 22.2 14.625C22.3125 14.025 22.425 13.425 22.575 12.9375L23.6625 8.73749C23.8875 7.91249 23.4375 7.08749 22.6875 6.78749ZM16.8375 21C16.8 21.075 16.7625 21.1125 16.6875 21.15C16.6125 21.1875 16.5375 21.1875 16.4625 21.15C16.3875 21.1125 16.35 21.075 16.3125 21C16.275 20.925 16.3125 20.85 16.35 20.775L17.2125 19.125C17.25 19.125 17.325 19.125 17.3625 19.125C17.5125 19.125 17.7 19.0875 17.85 19.05L16.8375 21ZM19.4625 19.8375C19.425 19.8375 19.3875 19.8 19.35 19.8L19.875 18.75L19.7625 19.6125C19.7625 19.7625 19.6125 19.875 19.4625 19.8375ZM20.9625 12.525C20.8125 13.0875 20.6625 13.725 20.55 14.3625C20.2875 16.0125 18.9 17.2875 17.25 17.4C16.3125 17.475 15.375 17.175 14.6625 16.5375C14.2875 16.2 13.9875 15.825 13.7625 15.375C13.725 15.3375 13.725 15.2625 13.7625 15.15C13.8 15.075 13.9125 15 14.025 15C14.0625 15 14.1375 15 14.175 15.0375C14.175 15.0375 14.25 15.075 14.2875 15.1875C14.5125 15.6375 14.8875 16.05 15.3 16.35C15.7875 16.6875 16.3875 16.875 16.9875 16.875C17.85 16.875 18.675 16.5 19.2375 15.8625C19.8 15.225 20.1 14.3625 19.9875 13.5C19.8375 12.15 18.825 11.0625 17.475 10.8375C17.2875 10.8 17.1375 10.8 16.95 10.8C15.7875 10.8 14.7375 11.4375 14.2125 12.4875C14.175 12.5625 14.1375 12.6 14.1375 12.6C13.95 12.675 13.8 12.6375 13.725 12.4875C13.65 12.375 13.6875 12.3 13.725 12.2625C14.175 11.325 15 10.65 15.975 10.35C16.425 10.2375 16.8375 10.05 17.25 9.82499C17.6625 9.59999 18.0375 9.29999 18.375 8.99999C19.3125 8.13749 20.7375 7.87499 21.975 8.36249L20.9625 12.525ZM15.3375 13.8C15.525 13.65 15.675 13.425 15.7875 13.2C16.05 12.675 16.65 12.375 17.25 12.45C17.85 12.5625 18.3 13.0125 18.375 13.6125C18.4125 13.9875 18.3 14.4 18.0375 14.6625C17.5875 15.15 16.8 15.2625 16.275 14.8875C16.0875 14.775 15.9375 14.5875 15.825 14.3625C15.675 14.175 15.525 13.9875 15.3375 13.8Z" fill="#161A23"/>
</svg>
