<svg width="24" height="24" viewBox="0 0 24 24" fill="none" xmlns="http://www.w3.org/2000/svg">
<path d="M2.96248 16.7625C2.51248 16.7625 2.09998 17.1375 2.09998 17.625V22.5C2.09998 22.95 2.47498 23.3625 2.96248 23.3625C3.44998 23.3625 3.82498 22.9875 3.82498 22.5V17.625C3.82498 17.1375 3.44998 16.7625 2.96248 16.7625Z" fill="#161A23"/>
<path d="M7.64998 12.75C7.19998 12.75 6.78748 13.125 6.78748 13.6125V22.5C6.78748 22.95 7.16248 23.3625 7.64998 23.3625C8.13748 23.3625 8.51248 22.9875 8.51248 22.5V13.575C8.51248 13.125 8.13748 12.75 7.64998 12.75Z" fill="#161A23"/>
<path d="M12.3375 15.4875C11.8875 15.4875 11.475 15.8625 11.475 16.35V22.5C11.475 22.95 11.85 23.3625 12.3375 23.3625C12.825 23.3625 13.2 22.9875 13.2 22.5V16.3125C13.2 15.8625 12.825 15.4875 12.3375 15.4875Z" fill="#161A23"/>
<path d="M17.025 20.325C16.575 20.325 16.1625 20.7 16.1625 21.1875V22.5C16.1625 22.95 16.5375 23.3625 17.025 23.3625C17.5125 23.3625 17.8875 22.9875 17.8875 22.5V21.1875C17.8875 20.7 17.5125 20.325 17.025 20.325Z" fill="#161A23"/>
<path d="M22.575 1.49995C22.575 1.04995 22.2 0.637451 21.7125 0.637451C21.225 0.637451 20.85 1.01245 20.85 1.49995V20.4L17.85 17.3249V5.51245C17.85 5.06245 17.475 4.64995 16.9875 4.64995C16.5 4.64995 16.125 5.02495 16.125 5.51245V15.5624L13.125 12.45V9.52495C13.125 9.07495 12.75 8.66245 12.2625 8.66245C11.775 8.66245 11.4 9.03745 11.4 9.52495V10.7249L2.88745 1.83745C2.54995 1.49995 2.02495 1.49995 1.68745 1.83745C1.34995 2.17495 1.34995 2.69995 1.68745 3.03745L21.15 23.0999C21.1875 23.1374 21.225 23.1749 21.2625 23.1749L21.2999 23.2125C21.3375 23.25 21.375 23.2499 21.4125 23.2874C21.45 23.2874 21.45 23.2874 21.4874 23.3249C21.525 23.3249 21.525 23.3624 21.5625 23.3624C21.6 23.3624 21.675 23.3624 21.7125 23.3624C21.75 23.3624 21.825 23.3624 21.8624 23.3624C21.9 23.3624 21.9 23.3624 21.9375 23.3624C21.975 23.3624 22.0125 23.3624 22.0125 23.3249C22.05 23.3249 22.05 23.2874 22.0875 23.2874C22.125 23.2874 22.125 23.2499 22.1625 23.2499C22.2 23.2499 22.2 23.2124 22.2374 23.1749L22.275 23.1374C22.3125 23.0999 22.3125 23.0624 22.35 23.0624L22.3875 23.025C22.425 22.9874 22.425 22.9499 22.4625 22.9124C22.4625 22.9124 22.4625 22.8749 22.5 22.8749C22.5 22.8375 22.5 22.8374 22.5 22.7999C22.5 22.7624 22.5375 22.7249 22.5375 22.6874V22.65C22.5375 22.6124 22.5375 22.5749 22.5375 22.5374V1.49995H22.575Z" fill="#161A23"/>
</svg>
