<svg width="24" height="24" viewBox="0 0 24 24" fill="none" xmlns="http://www.w3.org/2000/svg">
<path d="M23.2125 7.1626C22.4625 6.4126 21.7125 5.6251 20.925 4.8751C20.7 4.6501 20.4375 4.5376 20.1375 4.5376C19.8375 4.5376 19.5375 4.6501 19.35 4.8751L10.8375 13.3126C10.6875 13.4626 10.5375 13.6876 10.4625 13.9126L9.22497 17.6626C9.03747 17.6626 8.81247 17.7001 8.66247 17.8501C8.62497 17.8501 8.58747 17.8501 8.51247 17.8126C8.39997 17.7751 8.28747 17.6626 8.13747 17.5876C7.98747 17.4751 7.79997 17.3626 7.61247 17.2501C6.93747 16.9126 6.18747 16.9126 5.66247 17.3251C5.58747 17.4001 5.51247 17.4376 5.43747 17.5126L5.39997 17.5501C5.36247 17.5501 5.32497 17.5501 5.32497 17.5501C5.28747 17.4751 5.21247 17.2876 5.17497 17.1376C5.13747 16.9876 5.09997 16.8751 5.06247 16.7251C4.79997 15.9001 4.16247 15.1876 3.33747 14.8876C2.77497 14.6626 2.24997 14.6626 1.79997 14.8876C1.31247 15.1501 1.04997 15.6001 0.937473 15.8251C0.787473 16.0876 0.637473 16.3876 0.524973 16.6876C0.337473 17.1001 0.562473 17.6251 0.974973 17.7751C1.38747 17.9251 1.91247 17.7376 2.06247 17.3251C2.17497 17.1001 2.28747 16.8376 2.39997 16.6126C2.47497 16.5001 2.51247 16.4251 2.51247 16.4251C2.54997 16.4251 2.58747 16.4251 2.66247 16.4626C2.99997 16.6126 3.29997 16.9126 3.41247 17.2876C3.44997 17.3626 3.44997 17.4751 3.48747 17.5501C3.56247 17.8876 3.67497 18.2626 3.93747 18.6376C4.23747 18.9751 4.64997 19.2376 5.13747 19.2751C5.62497 19.3126 6.07497 19.1626 6.44997 18.8626C6.48747 18.8251 6.52497 18.7876 6.59997 18.7501C6.63747 18.7501 6.71247 18.7876 6.78747 18.8251C6.89997 18.8626 7.01247 18.9751 7.12497 19.0501C7.31247 19.1626 7.49997 19.3126 7.72497 19.4251C8.02497 19.5751 8.32497 19.6501 8.62497 19.6501C9.03747 19.6501 9.41247 19.5001 9.71247 19.2751C9.78747 19.2001 9.86247 19.1251 9.89997 19.0126C9.93747 19.0126 10.0125 19.0126 10.05 19.0126H10.2L14.1375 17.7001C14.3625 17.6251 14.55 17.5126 14.7375 17.3251L23.2125 8.8501C23.4375 8.6251 23.55 8.3626 23.55 8.0626C23.5125 7.6501 23.4 7.3501 23.2125 7.1626ZM13.5375 15.9751L11.2875 16.7251L12.0375 14.4751L18 8.5501L19.5 10.0501L13.5375 15.9751ZM20.7 8.8501L19.2 7.3501L20.1375 6.4126C20.625 6.9001 21.1125 7.3876 21.6 7.9126L20.7 8.8501Z" fill="#161A23"/>
</svg>
