<svg width="24" height="24" viewBox="0 0 24 24" fill="none" xmlns="http://www.w3.org/2000/svg">
<path d="M17.625 0.675049H10.1625C9.48749 0.675049 8.84999 0.937549 8.39999 1.42505L4.79999 5.10005C4.34999 5.55005 4.08749 6.18755 4.08749 6.82505V21.0751C4.08749 22.35 5.09999 23.3625 6.37499 23.3625H17.625C18.9 23.3625 19.9125 22.35 19.9125 21.0751V2.96255C19.9125 1.68755 18.8625 0.675049 17.625 0.675049ZM18.225 21.0375C18.225 21.375 17.9625 21.6376 17.625 21.6376H6.37499C6.03749 21.6376 5.77499 21.375 5.77499 21.0375V6.78755C5.77499 6.60005 5.84999 6.37505 5.99999 6.22505L9.59999 2.55005C9.74999 2.40005 9.93749 2.32505 10.1625 2.32505H17.625C17.9625 2.32505 18.225 2.58755 18.225 2.92505V21.0375Z" fill="#161A23"/>
<path d="M14.2875 8.77515H9.71251C8.62501 8.77515 7.72501 9.67515 7.72501 10.7626V17.5876C7.72501 18.6751 8.62501 19.5751 9.71251 19.5751H14.325C15.4125 19.5751 16.3125 18.6751 16.3125 17.5876V10.7626C16.275 9.67515 15.375 8.77515 14.2875 8.77515ZM14.5875 10.7626V13.3501H12.8625V10.5001H14.325C14.475 10.4626 14.5875 10.6126 14.5875 10.7626ZM9.71251 10.4626H11.175V13.3126H9.45001V10.7251C9.41251 10.6126 9.52501 10.4626 9.71251 10.4626ZM9.41251 17.5876V15.0001H11.1375V17.8501H9.67501C9.52501 17.8501 9.41251 17.7376 9.41251 17.5876ZM14.2875 17.8501H12.825V15.0001H14.55V17.5876C14.5875 17.7376 14.475 17.8501 14.2875 17.8501Z" fill="#161A23"/>
</svg>
