<svg width="24" height="24" viewBox="0 0 24 24" fill="none" xmlns="http://www.w3.org/2000/svg">
<path d="M22.5 11.1375H19.2C19.3875 8.47502 20.0625 4.61252 21.4125 3.45002C21.7125 3.18752 22.0125 3.11252 22.3875 3.15002C22.8375 3.22502 23.2875 2.88752 23.325 2.43752C23.4 1.98752 23.0625 1.53752 22.6125 1.50002C21.7875 1.38752 21 1.61252 20.325 2.17502C18.15 4.01252 17.625 9.07502 17.5125 11.175H6.52498C6.78748 7.20002 7.76248 3.11252 8.88748 3.11252C9.11248 3.11252 9.33748 3.18752 9.52498 3.41252C10.575 4.46252 10.9125 7.72502 10.875 9.56252C10.875 10.0125 11.25 10.425 11.7 10.425C12.15 10.425 12.5625 10.05 12.5625 9.60003C12.5625 9.03752 12.6 4.12502 10.725 2.25002C10.2 1.72502 9.59998 1.46252 8.88748 1.46252C5.77498 1.46252 4.98748 8.13752 4.83748 11.2125H1.49998C1.04998 11.2125 0.637482 11.5875 0.637482 12.075C0.637482 12.525 1.01248 12.9375 1.49998 12.9375H11.175C11.325 16.0125 12.0375 22.725 15.3 22.725C16.0125 22.725 16.6875 22.425 17.2125 21.9C19.0875 19.95 19.0125 15.1125 18.975 14.55C18.975 14.1 18.6 13.725 18.15 13.725C18.15 13.725 18.15 13.725 18.1125 13.725C17.6625 13.725 17.2875 14.1375 17.2875 14.5875C17.325 16.3875 17.025 19.65 16.0125 20.7C15.7875 20.925 15.5625 21.0375 15.3 21.0375C14.1 21.0375 13.0875 16.95 12.8625 12.9375H22.5C22.95 12.9375 23.3625 12.5625 23.3625 12.075C23.3625 11.5125 22.95 11.1375 22.5 11.1375Z" fill="#161A23"/>
<path d="M5.62499 13.6125C5.17499 13.6125 4.76249 13.9875 4.76249 14.4375C4.76249 15.6375 4.46249 19.0875 3.03749 20.3625C2.62499 20.7375 2.13749 20.8875 1.57499 20.8125C1.12499 20.775 0.71249 21.1125 0.63749 21.5625C0.59999 22.0125 0.93749 22.425 1.38749 22.5C1.53749 22.5 1.64999 22.5375 1.79999 22.5375C2.69999 22.5375 3.48749 22.2375 4.16249 21.6375C6.37499 19.65 6.44999 15 6.44999 14.475C6.48749 13.9875 6.11249 13.6125 5.62499 13.6125Z" fill="#161A23"/>
</svg>
