<svg width="24" height="24" viewBox="0 0 24 24" fill="none" xmlns="http://www.w3.org/2000/svg">
<path d="M21 5.0625H4.91251C3.63751 5.0625 2.55001 6.1125 2.55001 7.425V8.1H1.50001C1.05001 8.1 0.637512 8.475 0.637512 8.9625C0.637512 9.45 1.01251 9.825 1.50001 9.825H2.58751V11.3625H1.50001C1.05001 11.3625 0.637512 11.7375 0.637512 12.225C0.637512 12.7125 1.01251 13.0875 1.50001 13.0875H2.58751V14.625H1.50001C1.05001 14.625 0.637512 15 0.637512 15.4875C0.637512 15.975 1.01251 16.35 1.50001 16.35H2.58751V16.6875C2.58751 17.9625 3.63751 19.05 4.95001 19.05H21C22.275 19.05 23.3625 18 23.3625 16.6875V7.425C23.3625 6.1125 22.275 5.0625 21 5.0625ZM21.675 16.575C21.675 16.95 21.375 17.25 21 17.25H4.91251C4.53751 17.25 4.23751 16.95 4.23751 16.575V16.2375H4.68751C5.13751 16.2375 5.55001 15.8625 5.55001 15.375C5.55001 14.8875 5.17501 14.5125 4.68751 14.5125H4.23751V12.975H4.68751C5.13751 12.975 5.55001 12.6 5.55001 12.1125C5.55001 11.625 5.17501 11.25 4.68751 11.25H4.23751V9.7125H4.68751C5.13751 9.7125 5.55001 9.3375 5.55001 8.85C5.55001 8.3625 5.17501 7.9875 4.68751 7.9875H4.23751V7.3125C4.23751 6.9375 4.53751 6.6375 4.91251 6.6375H21C21.375 6.6375 21.675 6.9375 21.675 7.3125V16.575Z" fill="#161A23"/>
</svg>
