<svg width="24" height="24" viewBox="0 0 24 24" fill="none" xmlns="http://www.w3.org/2000/svg">
<path d="M1.2375 7.6125L0.375 8.775H4.6125L4.9125 2.6625L1.2375 7.6125ZM18.5625 2.1L12.525 1.5L18.9 8.4375L18.5625 2.1ZM5.25 10.2L4.725 9.1875H0.4125L10.9875 21.4875L5.25 10.2ZM5.325 8.775H18.675L14.85 4.6125L12 1.5L5.325 8.775ZM19.275 9.1875L13.0125 21.525L23.5875 9.225H19.275V9.1875ZM19.5 3.225L19.0875 2.625L19.125 3.45L19.3875 8.775H23.625L19.5 3.225ZM5.2875 4.3875L5.0625 8.4L11.475 1.5L5.4375 2.1L5.2875 4.3875ZM18.825 9.1875H5.175L7.2 13.125L12 22.5L18.825 9.1875Z" fill="#15171A"/>
</svg>
