<svg width="24" height="24" viewBox="0 0 24 24" fill="none" xmlns="http://www.w3.org/2000/svg">
<g clip-path="url(#clip0_914_45375)">
<path d="M1.16222 12.1126C1.19972 11.5876 1.19972 11.1001 1.31222 10.6501C1.34972 10.4251 1.31222 10.2751 1.19972 10.0501C0.337218 8.58758 0.187218 6.97508 0.562219 5.36258C0.974719 3.52506 2.02472 2.10006 3.74972 1.23756C5.8497 0.112558 7.9872 0.112558 10.0872 1.27506C10.2372 1.31256 10.3872 1.38756 10.6122 1.31256C13.3122 1.01256 15.7872 1.53756 18.0747 3.07506C20.4372 4.65007 21.9372 6.86258 22.5747 9.67508C22.8747 10.8751 22.8747 12.1501 22.7247 13.3876C22.6872 13.5376 22.6872 13.6876 22.7622 13.8751C23.6247 15.3376 23.8872 16.9501 23.3997 18.6376C22.9122 20.4751 21.8622 21.9001 20.1747 22.8001C18.0747 23.9251 15.8997 23.9251 13.8372 22.7626C13.6872 22.7251 13.5372 22.6501 13.3497 22.7251C11.6622 22.9501 10.0122 22.7626 8.3997 22.2001C6.2997 21.5251 4.5372 20.1751 3.22472 18.4126C2.21222 16.9501 1.49972 15.4501 1.31222 13.7626C1.19972 13.1626 1.19972 12.6376 1.16222 12.1126ZM12.0372 19.0126C12.6747 18.9751 13.2372 18.8626 13.8747 18.7876C14.7747 18.6376 15.5622 18.2626 16.2372 17.7751C17.3997 16.8376 17.8872 15.6001 17.6997 14.1376C17.5872 13.1251 17.1372 12.3376 16.2747 11.7751C15.8622 11.4751 15.3372 11.2501 14.8497 11.1001C13.7247 10.7251 12.5622 10.4626 11.3997 10.1626C10.8372 10.0501 10.2747 9.86258 9.7497 9.52508C9.1497 9.15008 8.9997 8.51258 9.3372 7.98758C9.5622 7.61258 9.9372 7.38758 10.2747 7.23758C10.9122 6.97508 11.5497 6.97508 12.1872 7.01258C12.9747 7.05008 13.6122 7.42508 13.9872 8.13758C14.1372 8.43758 14.2872 8.73758 14.5122 9.00008C14.6622 9.22508 14.8122 9.41258 15.0747 9.52508C15.7497 9.82508 16.6497 9.48758 16.8747 8.77508C17.0997 8.21258 16.9122 7.65008 16.6122 7.20008C16.0872 6.33758 15.3372 5.81258 14.4372 5.51258C13.5747 5.21258 12.7497 5.10008 11.8122 5.10008C10.6122 5.10008 9.4497 5.25008 8.2872 5.73758C7.0872 6.33758 6.3372 7.20008 6.1872 8.58758C6.0747 9.86258 6.5997 10.8751 7.6122 11.5501C8.2497 12.0376 8.9997 12.3001 9.7872 12.4876C10.5747 12.7126 11.3622 12.9001 12.2247 13.0501C12.7497 13.2001 13.3497 13.3501 13.7997 13.6126C14.7372 14.1751 14.8122 15.4126 13.9497 16.0876C13.5372 16.4626 13.0122 16.6501 12.4122 16.7251C11.7747 16.8376 11.0997 16.8376 10.3872 16.6876C9.6372 16.4626 9.1872 15.9376 8.8122 15.3001C8.6622 14.8876 8.4372 14.5501 8.1747 14.1751C7.8747 13.6876 7.3872 13.6126 6.8622 13.6876C6.3372 13.8001 5.9622 14.1001 5.8497 14.6251C5.8122 15.0376 5.8497 15.4876 5.9997 15.8251C6.4122 16.9501 7.1997 17.6626 8.2122 18.1876C9.5997 18.9376 10.7997 19.0126 12.0372 19.0126Z" fill="#15171A"/>
</g>
<defs>
<clipPath id="clip0_914_45375">
<rect width="24" height="24" fill="white"/>
</clipPath>
</defs>
</svg>
