<svg width="24" height="24" viewBox="0 0 24 24" fill="none" xmlns="http://www.w3.org/2000/svg">
<g clip-path="url(#clip0_914_45386)">
<path d="M8.92529 12.6376C7.61279 12.6376 6.48779 13.7626 6.48779 15.0751V21.1501C6.48779 22.4626 7.61279 23.5876 8.92529 23.5876C10.2378 23.5876 11.3628 22.4626 11.3628 21.1501V15.0751C11.3628 13.6876 10.3128 12.6376 8.92529 12.6376Z" fill="#15171A"/>
<path d="M0.375 15.0751C0.375 16.3876 1.5 17.5126 2.8125 17.5126C4.125 17.5126 5.25 16.3876 5.25 15.0751V12.6376H2.85C1.5 12.6376 0.375 13.6876 0.375 15.0751Z" fill="#15171A"/>
<path d="M8.92529 0.375C7.61279 0.375 6.48779 1.5 6.48779 2.8125C6.48779 4.125 7.61279 5.25 8.92529 5.25H11.3628C11.3628 3.8625 11.3628 4.2 11.3628 2.8125C11.3628 1.5 10.3128 0.375 8.92529 0.375Z" fill="#15171A"/>
<path d="M2.8125 11.3624H8.925C10.2375 11.3624 11.3625 10.2374 11.3625 8.92493C11.3625 7.61243 10.2375 6.48743 8.925 6.48743H2.8125C1.5 6.48743 0.375 7.61243 0.375 8.92493C0.375 10.2374 1.425 11.3624 2.8125 11.3624Z" fill="#15171A"/>
<path d="M21.1494 6.48743C19.8369 6.48743 18.7119 7.61243 18.7119 8.92493V11.3624H21.1494C22.4619 11.3624 23.5869 10.2374 23.5869 8.92493C23.5869 7.61243 22.4994 6.48743 21.1494 6.48743Z" fill="#15171A"/>
<path d="M12.6372 2.8125V8.925C12.6372 10.2375 13.7622 11.3625 15.0747 11.3625C16.3872 11.3625 17.5122 10.2375 17.5122 8.925V2.8125C17.5122 1.5 16.3872 0.375 15.0747 0.375C13.6872 0.375 12.6372 1.5 12.6372 2.8125Z" fill="#15171A"/>
<path d="M17.5122 21.1875C17.5122 19.875 16.3872 18.75 15.0747 18.75H12.6372V21.1875C12.6372 22.5 13.7622 23.625 15.0747 23.625C16.3872 23.625 17.5122 22.5 17.5122 21.1875Z" fill="#15171A"/>
<path d="M21.1872 12.6376H15.0747C13.7622 12.6376 12.6372 13.7626 12.6372 15.0751C12.6372 16.3876 13.7622 17.5126 15.0747 17.5126H21.1872C22.4997 17.5126 23.6247 16.3876 23.6247 15.0751C23.6247 13.6876 22.4997 12.6376 21.1872 12.6376Z" fill="#15171A"/>
</g>
<defs>
<clipPath id="clip0_914_45386">
<rect width="24" height="24" fill="white"/>
</clipPath>
</defs>
</svg>
