<svg width="24" height="24" viewBox="0 0 24 24" fill="none" xmlns="http://www.w3.org/2000/svg">
<path d="M9.48827 5.81254H7.87577C6.63827 5.81254 5.58827 4.98754 5.32577 3.86254C5.13827 3.00005 5.40077 2.10005 6.00077 1.46255C6.63827 0.825053 7.50077 0.600053 8.36327 0.787553C9.48827 1.05005 10.3133 2.13755 10.3133 3.37505V4.98754C10.3133 5.40004 9.93827 5.81254 9.48827 5.81254ZM6.97577 3.45005C7.05077 3.82504 7.46327 4.08754 7.91327 4.08754H8.66327V3.33755C8.66327 2.88755 8.40077 2.47505 8.02577 2.40005C7.72577 2.32505 7.42577 2.40005 7.23827 2.62505C6.97577 2.85005 6.90077 3.15005 6.97577 3.45005Z" fill="#15171A"/>
<path d="M8.1006 12.4874H4.1631C2.40059 12.4874 0.975586 11.0624 0.975586 9.29993C0.975586 7.53743 2.40059 6.11243 4.1631 6.11243H8.0631C9.8256 6.11243 11.2506 7.53743 11.2506 9.29993C11.2506 11.0624 9.8256 12.4874 8.1006 12.4874ZM4.1631 7.79993C3.33809 7.79993 2.66309 8.47493 2.66309 9.29993C2.66309 10.1249 3.33809 10.7999 4.1631 10.7999H8.0631C8.8881 10.7999 9.5631 10.1249 9.5631 9.29993C9.5631 8.47493 8.8881 7.79993 8.0631 7.79993H4.1631Z" fill="#15171A"/>
<path d="M14.6256 11.0251C12.9006 11.0251 11.4756 9.60007 11.4756 7.80007V3.86257C11.4756 2.10007 12.9006 0.637573 14.6256 0.637573C16.3506 0.637573 17.7756 2.06257 17.7756 3.86257V7.80007C17.7756 9.60007 16.3881 11.0251 14.6256 11.0251ZM14.6256 2.36257C13.8006 2.36257 13.1631 3.03757 13.1631 3.90007V7.83757C13.1631 8.66257 13.8381 9.37507 14.6256 9.37507C15.4506 9.37507 16.0881 8.70007 16.0881 7.83757V3.86257C16.0881 3.03757 15.4506 2.36257 14.6256 2.36257Z" fill="#15171A"/>
<path d="M19.5381 17.5501H16.5006C14.7756 17.5501 13.3506 16.1626 13.3506 14.4376C13.3506 12.7126 14.7756 11.3251 16.5006 11.3251H19.5381C21.2631 11.3251 22.6881 12.7126 22.6881 14.4376C22.6881 16.1626 21.2631 17.5501 19.5381 17.5501ZM16.5006 13.0126C15.7131 13.0126 15.0381 13.6501 15.0381 14.4376C15.0381 15.2251 15.6756 15.8626 16.5006 15.8626H19.5381C20.3256 15.8626 21.0006 15.2251 21.0006 14.4376C21.0006 13.6501 20.3631 13.0126 19.5381 13.0126H16.5006Z" fill="#15171A"/>
<path d="M9.9375 22.8001C8.2875 22.8001 6.9375 21.4126 6.9375 19.6876V16.5751C6.9375 14.8501 8.2875 13.4626 9.9375 13.4626C11.5875 13.4626 12.9375 14.8501 12.9375 16.5751V19.6876C12.9375 21.4126 11.5875 22.8001 9.9375 22.8001ZM9.9375 15.1876C9.225 15.1876 8.625 15.8251 8.625 16.6126V19.7251C8.625 20.5126 9.225 21.1501 9.9375 21.1501C10.65 21.1501 11.25 20.5126 11.25 19.7251V16.6126C11.25 15.8251 10.6875 15.1876 9.9375 15.1876Z" fill="#15171A"/>
<path d="M20.4762 10.5374H18.9387C18.4887 10.5374 18.0762 10.1624 18.0762 9.67491V8.13741C18.0762 6.93741 18.8637 5.88741 19.9512 5.62491C20.7762 5.43741 21.6387 5.66241 22.2387 6.26241C22.8387 6.86241 23.1012 7.72491 22.9137 8.58741C22.6887 9.74991 21.6387 10.5374 20.4762 10.5374ZM19.8012 8.84991H20.4762C20.8887 8.84991 21.2262 8.58741 21.3012 8.24991C21.3762 7.94991 21.3012 7.68741 21.0762 7.49991C20.8887 7.31241 20.6262 7.23741 20.3637 7.31241C20.0262 7.38741 19.8012 7.76241 19.8012 8.17491V8.84991Z" fill="#15171A"/>
<path d="M3.63739 18.1501C2.99989 18.1501 2.36239 17.8876 1.91239 17.4376C1.31239 16.8376 1.04989 15.9751 1.23739 15.1126C1.49989 14.0251 2.51239 13.2001 3.71239 13.2001H5.24989C5.69989 13.2001 6.11239 13.5751 6.11239 14.0626V15.6001C6.11239 16.8001 5.32489 17.8501 4.23739 18.1126C4.01239 18.1126 3.82489 18.1501 3.63739 18.1501ZM3.71239 14.8876C3.29989 14.8876 2.96239 15.1501 2.88739 15.4876C2.81239 15.7876 2.88739 16.0501 3.11239 16.2376C3.29989 16.4251 3.56239 16.5001 3.82489 16.4251C4.16239 16.3501 4.38739 15.9751 4.38739 15.5626V14.8876H3.71239Z" fill="#15171A"/>
<path d="M16.2378 23.3251C16.0503 23.3251 15.8628 23.2876 15.6753 23.2501C14.5878 22.9876 13.8003 21.9376 13.8003 20.7376V19.2001C13.8003 18.7501 14.1753 18.3376 14.6628 18.3376H16.2003C17.4003 18.3376 18.4128 19.1251 18.6753 20.2501C18.8628 21.1126 18.6378 21.9751 18.0003 22.5751C17.5128 23.1001 16.8753 23.3251 16.2378 23.3251ZM15.4878 20.1001V20.7751C15.4878 21.1876 15.7503 21.5626 16.0503 21.6376C16.3128 21.7126 16.5753 21.6376 16.7628 21.4501C16.9503 21.2626 17.0253 20.9626 16.9878 20.7001C16.9128 20.3626 16.5378 20.1001 16.1628 20.1001H15.4878Z" fill="#15171A"/>
</svg>
