<svg width="24" height="24" viewBox="0 0 24 24" fill="none" xmlns="http://www.w3.org/2000/svg">
<g clip-path="url(#clip0_914_45395)">
<path d="M23.1754 11.3249C23.0254 11.2124 22.8004 11.2124 22.6504 11.2874C22.5004 11.3249 22.3879 11.4374 22.1629 11.5499C22.1629 11.4374 22.1629 11.3999 22.1629 11.2874C22.1629 8.43735 22.1629 5.62485 22.1629 2.77485C22.1629 2.21235 22.0504 1.68735 21.6379 1.19985C21.3754 0.787353 20.8879 0.562354 20.4379 0.449854C20.4004 0.449854 20.4004 0.412354 20.3254 0.412354C14.7004 0.412354 9.18787 0.412354 3.56286 0.412354C3.30036 0.487354 3.03786 0.599854 2.77536 0.749854C2.17536 1.12485 1.87536 1.64985 1.76286 2.32485C1.76286 2.54985 1.76286 2.73735 1.76286 2.96235C1.76286 5.73735 1.76286 8.54985 1.76286 11.3249C1.76286 11.3624 1.76286 11.4374 1.76286 11.5874C1.72536 11.5499 1.65036 11.5499 1.53786 11.4749C1.42536 11.3999 1.27536 11.3249 1.16286 11.3249C0.86286 11.2124 0.60036 11.4374 0.63786 11.8124C0.67536 12.0374 0.75036 12.2249 0.86286 12.3374C1.38786 12.9749 2.06286 13.5374 2.81286 14.0249C3.63786 14.5499 4.50037 15.0374 5.40037 15.4499C5.43787 15.4874 5.43787 15.4874 5.51287 15.4874C5.47537 15.7874 5.36287 16.1249 5.28787 16.4249C5.13787 17.2499 4.98787 18.1124 5.06287 18.9374C5.10037 19.9874 5.43787 20.9999 6.07537 21.8999C6.71287 22.7999 7.61287 23.3624 8.70037 23.5124C8.73787 23.5124 8.81287 23.5499 8.85037 23.5499C9.07537 23.5499 9.33787 23.5499 9.52537 23.5499C9.75037 23.5124 9.93787 23.4374 10.1629 23.3999C10.9879 23.1374 11.6254 22.3124 11.6254 21.4124C11.6629 19.9499 11.6629 18.4499 11.6629 17.0624C11.6629 17.0249 11.6629 16.9124 11.6629 16.7999C11.8879 16.8374 12.0379 16.9124 12.1879 16.9499C12.2254 16.9874 12.2254 17.0624 12.2254 17.0999C12.2254 18.2999 12.2254 19.5749 12.2629 20.8499C12.2629 21.2624 12.2629 21.6374 12.3754 22.0499C12.6379 22.9499 13.3129 23.3999 14.1754 23.5874C14.2129 23.5874 14.2879 23.6249 14.3254 23.6249C14.5504 23.6249 14.8129 23.6249 15.0004 23.6249C15.4129 23.5124 15.8254 23.3999 16.2004 23.2124C17.1379 22.7999 17.7754 22.0124 18.1879 21.1124C18.7129 19.9499 18.8254 18.7499 18.6754 17.4749C18.6379 16.9124 18.4504 16.3124 18.3754 15.7499C18.3754 15.7124 18.3379 15.6374 18.3379 15.5999C18.6379 15.4499 18.9754 15.3374 19.2754 15.1874C20.3629 14.6624 21.4879 13.9874 22.3879 13.1999C22.6504 12.9374 22.9129 12.5624 23.1754 12.2999C23.2129 12.2624 23.2129 12.1499 23.2129 12.0749C23.4004 11.6249 23.3254 11.4374 23.1754 11.3249ZM20.9254 12.3749C20.0254 12.7874 19.2004 13.1624 18.3004 13.3874C16.9879 13.6499 15.6754 13.7624 14.3629 13.6499C14.0629 13.6124 13.6879 13.6124 13.3504 13.6874C12.8254 13.7249 12.4504 14.0624 12.4129 14.6249C12.4129 14.6624 12.3754 14.6624 12.3754 14.7374C12.0754 14.4749 11.7379 14.2124 11.4379 13.9499C11.1754 13.7249 10.9129 13.6874 10.6129 13.6874C9.86287 13.6874 9.07537 13.7249 8.36287 13.7249C6.56287 13.6874 4.95037 13.3124 3.30036 12.5249C3.26286 12.4874 3.18786 12.4124 3.18786 12.2999C3.18786 9.33735 3.18786 6.33735 3.22536 3.41235C3.22536 3.11235 3.26286 2.84985 3.37536 2.51235C3.48786 2.02485 3.86287 1.83735 4.27537 1.72485C4.53787 1.68735 4.83787 1.68735 5.10037 1.68735C9.78787 1.68735 14.5129 1.68735 19.2004 1.68735C19.5754 1.68735 19.9504 1.68735 20.2879 1.83735C20.7754 2.06235 20.9629 2.39985 21.0754 2.88735C21.1129 3.14985 21.1129 3.52485 21.1129 3.78735C21.1129 6.56235 21.1129 9.37485 21.1129 12.1499C21.1129 12.2249 21.0754 12.2624 20.9254 12.3749Z" fill="#15171A"/>
<path d="M6.67586 8.4748C6.11336 9.2248 6.00086 10.0873 6.41336 10.9498C6.93836 11.9998 7.83836 12.4873 8.88836 12.5248C9.56336 12.4873 10.1634 12.2998 10.6884 11.9998C12.0009 11.0998 12.1134 9.2248 10.9509 8.0998C9.67586 6.8998 7.65086 7.0498 6.67586 8.4748Z" fill="#15171A"/>
<path d="M17.1747 7.91225C15.8622 6.97475 14.0622 7.23725 13.1622 8.43725C12.5997 9.22475 12.4872 10.1248 12.8997 11.0248C13.4247 12.0748 14.3247 12.4873 15.3747 12.5623C16.1622 12.5248 16.8372 12.2998 17.3622 11.8123C18.5622 10.7248 18.4497 8.77475 17.1747 7.91225Z" fill="#15171A"/>
</g>
<defs>
<clipPath id="clip0_914_45395">
<rect width="24" height="24" fill="white"/>
</clipPath>
</defs>
</svg>
