<svg width="24" height="24" viewBox="0 0 24 24" fill="none" xmlns="http://www.w3.org/2000/svg">
<path d="M16.6501 4.64995L16.2001 2.58745C15.9751 1.46245 14.9626 0.637451 13.8001 0.637451H10.1626C9.0376 0.637451 8.0251 1.46245 7.7626 2.58745L7.3126 4.64995C6.3001 4.72495 5.4751 5.54995 5.4751 6.59995V17.7374C5.4751 18.7875 6.3376 19.65 7.3876 19.6875L7.7626 21.375C7.9876 22.5 9.0001 23.325 10.1626 23.325H13.8001C14.9626 23.325 15.9376 22.5375 16.2001 21.375L16.5751 19.6875C17.6251 19.65 18.4876 18.7875 18.4876 17.7374V6.59995C18.4876 5.54995 17.6626 4.72495 16.6501 4.64995ZM10.2001 2.32495H13.8376C14.2126 2.32495 14.5126 2.58745 14.5876 2.92495L14.9251 4.61245H9.0751L9.4126 2.92495C9.5251 2.58745 9.8251 2.32495 10.2001 2.32495ZM13.8001 21.6749H10.1626C9.7876 21.6749 9.4876 21.4125 9.4126 21.075L9.1126 19.725H14.8126L14.5126 21.075C14.4751 21.4125 14.1751 21.6749 13.8001 21.6749ZM16.8001 17.7374C16.8001 17.8875 16.6876 18.0375 16.5001 18.0375H15.8626C15.8626 18.0375 15.8626 18.0375 15.8251 18.0375H8.1001H7.5001C7.3501 18.0375 7.2001 17.9249 7.2001 17.7374V6.59995C7.2001 6.44995 7.3126 6.29995 7.5001 6.29995H8.0626H15.9751H16.5001C16.6501 6.29995 16.8001 6.41245 16.8001 6.59995V17.7374Z" fill="#161A23"/>
<path d="M12.825 11.8125V8.77495C12.825 8.32495 12.45 7.94995 12 7.94995C11.55 7.94995 11.175 8.32495 11.175 8.77495V12.15C11.175 12.375 11.25 12.6 11.4375 12.75L13.5375 14.85C13.6875 15 13.9125 15.1125 14.1375 15.1125C14.3625 15.1125 14.5875 15.0375 14.7375 14.85C15.075 14.5125 15.075 13.9875 14.7375 13.65L12.825 11.8125Z" fill="#161A23"/>
</svg>
