<svg width="25" height="24" viewBox="0 0 25 24" fill="none" xmlns="http://www.w3.org/2000/svg">
<path d="M15.525 15.075C13.6875 13.2375 10.65 13.2375 8.81248 15.075C8.47498 15.4125 8.47498 15.9375 8.81248 16.275C9.14998 16.6125 9.67498 16.6125 10.0125 16.275C11.2125 15.075 13.125 15.075 14.325 16.275C14.475 16.425 14.7 16.5375 14.925 16.5375C15.15 16.5375 15.375 16.4625 15.525 16.275C15.8625 15.9375 15.8625 15.4125 15.525 15.075Z" fill="#161A23"/>
<path d="M10.0125 16.9875C9.67499 17.325 9.67499 17.85 10.0125 18.1875C10.35 18.525 10.875 18.525 11.2125 18.1875C11.775 17.625 12.675 17.625 13.2 18.1875C13.35 18.3375 13.575 18.45 13.8 18.45C14.025 18.45 14.25 18.375 14.4 18.1875C14.7375 17.85 14.7375 17.325 14.4 16.9875C13.1625 15.7875 11.2125 15.7875 10.0125 16.9875Z" fill="#161A23"/>
<path d="M12.1875 12.975C13.4625 12.975 14.625 13.4625 15.525 14.3625C15.675 14.5125 15.9 14.625 16.125 14.625C16.35 14.625 16.575 14.55 16.725 14.3625C17.0625 14.025 17.0625 13.5 16.725 13.1625C15.525 11.9625 13.9125 11.2875 12.1875 11.2875C10.4625 11.2875 8.88748 11.9625 7.64998 13.1625C7.31248 13.5 7.31248 14.025 7.64998 14.3625C7.98748 14.7 8.51248 14.7 8.84998 14.3625C9.74998 13.4625 10.9125 12.975 12.1875 12.975Z" fill="#161A23"/>
<path d="M11.7 18.8625C11.4375 19.125 11.4375 19.5375 11.7 19.8C11.9625 20.0625 12.375 20.0625 12.6375 19.8C12.9 19.5375 12.9 19.125 12.6375 18.8625C12.375 18.6 11.9625 18.6 11.7 18.8625Z" fill="#161A23"/>
<path d="M21.675 8.28752C20.6625 7.20002 19.275 6.48752 17.8125 6.22502C16.9875 4.95002 15.7875 4.01252 14.4 3.52502C13.7625 3.26252 13.0125 3.15002 12.225 3.15002C8.69999 3.15002 5.77499 5.85002 5.54999 9.30002C2.92499 9.60002 0.862488 11.8125 0.862488 14.5125C0.862488 17.4 3.26249 19.7625 6.18749 19.7625C6.63749 19.7625 7.04999 19.3875 7.04999 18.9C7.04999 18.4125 6.67499 18.0375 6.18749 18.0375C4.12499 18.0375 2.54999 16.4625 2.54999 14.475C2.54999 12.4875 4.16249 10.9125 6.18749 10.9125H6.37499C6.82499 10.9125 7.23749 10.5375 7.23749 10.05V9.67502C7.23749 6.97502 9.48749 4.80002 12.225 4.80002C12.825 4.80002 13.35 4.87502 13.8375 5.06252C15 5.43752 15.975 6.26252 16.575 7.35002C16.725 7.57502 16.95 7.76252 17.2125 7.76252C18.45 7.87502 19.65 8.47502 20.475 9.37502C21.375 10.35 21.8625 11.5875 21.8625 12.8625C21.8625 15.675 19.5 17.9625 16.575 17.9625C16.125 17.9625 15.7125 18.3375 15.7125 18.825C15.7125 19.3125 16.0875 19.6875 16.575 19.6875C20.4 19.6875 23.55 16.65 23.55 12.9C23.55 11.2125 22.875 9.56252 21.675 8.28752Z" fill="#161A23"/>
</svg>
