<svg width="24" height="24" viewBox="0 0 24 24" fill="none" xmlns="http://www.w3.org/2000/svg">
<path d="M14.9999 13.5H9.8624V11.8875L10.9874 11.3625L12.8624 12.2625C12.9749 12.3375 13.0874 12.3375 13.2374 12.3375C13.3499 12.3375 13.4624 12.3 13.5749 12.2625L15.3374 11.4375C15.7499 11.25 15.9374 10.725 15.7499 10.3125C15.5624 9.90005 15.0374 9.71255 14.6249 9.90005L13.2374 10.5375L11.3624 9.63755C11.1374 9.52505 10.8749 9.52505 10.6499 9.63755L9.8624 9.97505V8.25005C9.8624 7.80005 9.4874 7.42505 9.0374 7.42505C8.5874 7.42505 8.2124 7.80005 8.2124 8.25005V14.25C8.2124 14.7 8.5874 15.075 9.0374 15.075H14.9999C15.4499 15.075 15.8249 14.7 15.8249 14.25C15.8249 13.8 15.4499 13.5 14.9999 13.5Z" fill="#161A23"/>
<path d="M16.6125 0.675049H7.3875C6.1125 0.675049 5.0625 1.72505 5.0625 3.00005V21.0001C5.0625 22.2751 6.1125 23.3251 7.3875 23.3251H16.575C17.85 23.3251 18.9 22.2751 18.9 21.0001V3.00005C18.9375 1.72505 17.8875 0.675049 16.6125 0.675049ZM17.25 21.0001C17.25 21.3751 16.95 21.6751 16.575 21.6751H7.3875C7.0125 21.6751 6.7125 21.3751 6.7125 21.0001V3.00005C6.7125 2.62505 7.0125 2.32505 7.3875 2.32505H16.575C16.95 2.32505 17.25 2.62505 17.25 3.00005V21.0001Z" fill="#161A23"/>
<path d="M13.575 19.0125H10.4625C10.0125 19.0125 9.63745 19.3875 9.63745 19.8375C9.63745 20.2875 10.0125 20.6625 10.4625 20.6625H13.575C14.025 20.6625 14.4 20.2875 14.4 19.8375C14.4 19.3875 14.025 19.0125 13.575 19.0125Z" fill="#161A23"/>
<path d="M11.7 4.98755H12.3C12.75 4.98755 13.125 4.61255 13.125 4.16255C13.125 3.71255 12.75 3.33755 12.3 3.33755H11.7C11.25 3.30005 10.875 3.67505 10.875 4.12505C10.875 4.57505 11.25 4.98755 11.7 4.98755Z" fill="#161A23"/>
</svg>
