<svg width="25" height="24" viewBox="0 0 25 24" fill="none" xmlns="http://www.w3.org/2000/svg">
<path d="M8.09999 13.1624C7.76249 13.4999 7.76249 14.0249 8.09999 14.3624C8.43749 14.6999 8.96249 14.6999 9.29999 14.3624C10.875 12.7499 13.5 12.7499 15.075 14.3624C15.225 14.5124 15.45 14.6249 15.675 14.6249C15.9 14.6249 16.125 14.5499 16.275 14.3624C16.6125 14.0249 16.6125 13.4999 16.275 13.1624C14.025 10.8749 10.35 10.8749 8.09999 13.1624Z" fill="#161A23"/>
<path d="M12.1875 14.4751C11.2125 14.4751 10.275 14.8501 9.56248 15.5626C9.22498 15.9001 9.22498 16.4251 9.56248 16.7626C9.89998 17.1001 10.425 17.1001 10.7625 16.7626C11.1375 16.3876 11.6625 16.1626 12.1875 16.1626C12.7125 16.1626 13.2375 16.3876 13.6125 16.7626C13.7625 16.9126 13.9875 17.0251 14.2125 17.0251C14.4375 17.0251 14.6625 16.9501 14.8125 16.7626C15.15 16.4251 15.15 15.9001 14.8125 15.5626C14.1 14.8876 13.2 14.4751 12.1875 14.4751Z" fill="#161A23"/>
<path d="M6.59999 10.725C6.26249 11.0625 6.26249 11.5875 6.59999 11.925C6.93749 12.2625 7.46249 12.2625 7.79999 11.925C10.2375 9.48745 14.1375 9.48745 16.575 11.925C16.725 12.075 16.95 12.1875 17.175 12.1875C17.4 12.1875 17.625 12.1125 17.775 11.925C18.1125 11.5875 18.1125 11.0625 17.775 10.725C14.7 7.64995 9.67499 7.64995 6.59999 10.725Z" fill="#161A23"/>
<path d="M11.55 17.8125C11.2125 18.15 11.2125 18.675 11.55 19.0125C11.8875 19.35 12.4125 19.35 12.75 19.0125C13.0875 18.675 13.0875 18.15 12.75 17.8125C12.4125 17.475 11.8875 17.475 11.55 17.8125Z" fill="#161A23"/>
<path d="M22.6875 7.0125L13.1625 0.9375C12.5625 0.5625 11.8125 0.5625 11.25 0.9375L1.68749 6.975C1.16249 7.3125 0.862488 7.875 0.862488 8.5125V21.15C0.862488 22.35 1.83749 23.3625 3.07499 23.3625H21.3375C22.575 23.3625 23.55 22.3875 23.55 21.15V8.5125C23.55 7.9125 23.2125 7.3125 22.6875 7.0125ZM21.8625 21.15C21.8625 21.45 21.6375 21.675 21.3375 21.675H3.03749C2.73749 21.675 2.51249 21.45 2.51249 21.15V8.5125C2.51249 8.475 2.54999 8.4375 2.58749 8.4L12.1125 2.3625H12.15C12.15 2.3625 12.1875 2.3625 12.225 2.3625L21.7875 8.4375C21.825 8.475 21.825 8.5125 21.825 8.55V21.15H21.8625Z" fill="#161A23"/>
</svg>
