<svg width="24" height="24" viewBox="0 0 24 24" fill="none" xmlns="http://www.w3.org/2000/svg">
<path d="M10.8001 4.65007C10.8001 4.20007 10.4251 3.82507 9.97515 3.82507H7.91265C7.46265 3.82507 7.08765 4.20007 7.08765 4.65007C7.08765 5.10007 7.46265 5.47507 7.91265 5.47507H9.97515C10.4251 5.51257 10.8001 5.13757 10.8001 4.65007Z" fill="#161A23"/>
<path d="M8.775 19.5375C9.1685 19.5375 9.4875 19.2186 9.4875 18.825C9.4875 18.4315 9.1685 18.1125 8.775 18.1125C8.3815 18.1125 8.0625 18.4315 8.0625 18.825C8.0625 19.2186 8.3815 19.5375 8.775 19.5375Z" fill="#161A23"/>
<path d="M16.2375 6.26255C16.0876 6.26255 15.9375 6.26255 15.7875 6.30005V3.52505C15.7875 1.95005 14.5501 0.675049 13.0126 0.675049H4.57505C3.03755 0.675049 1.80005 1.95005 1.80005 3.52505V20.475C1.80005 22.0501 3.03755 23.3251 4.57505 23.3251H13.0126C14.5501 23.3251 15.7875 22.0501 15.7875 20.475V18.1875C15.9375 18.1875 16.0876 18.225 16.2375 18.225C19.5375 18.225 22.2001 15.5626 22.2001 12.2626C22.2001 8.96255 19.5375 6.26255 16.2375 6.26255ZM14.1 20.475C14.1 21.1126 13.6126 21.6376 13.0126 21.6376H4.57505C3.97505 21.6376 3.48755 21.1126 3.48755 20.475V3.52505C3.48755 2.88755 3.97505 2.36255 4.57505 2.36255H13.0126C13.6126 2.36255 14.1 2.88755 14.1 3.52505V6.67505C11.85 7.53755 10.2375 9.71255 10.2375 12.2626C10.2375 14.8126 11.85 16.9876 14.1 17.85V20.475ZM16.2375 16.5375C13.875 16.5375 11.9625 14.6251 11.9625 12.2626C11.9625 9.90005 13.875 7.95005 16.2375 7.95005C18.6 7.95005 20.5126 9.86255 20.5126 12.225C20.5126 14.5876 18.6 16.5375 16.2375 16.5375Z" fill="#161A23"/>
<path d="M16.8001 12.4125V10.95C16.8001 10.5 16.4251 10.125 15.9751 10.125C15.5251 10.125 15.1501 10.5 15.1501 10.95V12.75C15.1501 12.975 15.2251 13.2 15.4126 13.35L16.5001 14.4375C16.6501 14.5875 16.8751 14.7 17.1001 14.7C17.3251 14.7 17.5501 14.625 17.7001 14.4375C18.0376 14.1 18.0376 13.575 17.7001 13.2375L16.8001 12.4125Z" fill="#161A23"/>
</svg>
