<svg width="24" height="24" viewBox="0 0 24 24" fill="none" xmlns="http://www.w3.org/2000/svg">
<g clip-path="url(#clip0_914_45399)">
<path d="M23.5419 17.1231C23.3803 16.6835 23.0726 16.4482 22.7221 16.2534C22.6562 16.2148 22.5956 16.1839 22.5439 16.1601C22.4394 16.1061 22.3325 16.0538 22.2261 15.9986C21.1337 15.4194 20.2807 14.6888 19.689 13.8227C19.521 13.5788 19.3752 13.3204 19.2536 13.0504C19.2031 12.906 19.2055 12.8241 19.2417 12.7493C19.2776 12.6916 19.3252 12.642 19.3813 12.6037C19.569 12.4796 19.7626 12.3536 19.8939 12.2687C20.128 12.1172 20.3133 11.9972 20.4327 11.9123C20.8812 11.5986 21.1949 11.2653 21.3909 10.8929C21.5277 10.6356 21.6074 10.3518 21.6248 10.0609C21.6421 9.76999 21.5965 9.47876 21.4913 9.20704C21.1943 8.42527 20.4559 7.93995 19.5613 7.93995C19.3726 7.9398 19.1844 7.95971 18.9999 7.99939C18.9506 8.01007 18.9013 8.02136 18.8532 8.03381C18.8615 7.49921 18.8496 6.93488 18.8021 6.37946C18.6334 4.42688 17.9497 3.40336 17.2368 2.58717C16.7803 2.0757 16.2427 1.64299 15.6454 1.30644C14.5637 0.688646 13.3371 0.375 11.9999 0.375C10.6627 0.375 9.44197 0.688646 8.35909 1.30644C7.76036 1.64309 7.2216 2.07667 6.7647 2.58954C6.05186 3.40574 5.36812 4.43104 5.19945 6.38182C5.1519 6.93724 5.14001 7.50454 5.14774 8.03621C5.09963 8.02372 5.05091 8.01244 5.00164 8.00175C4.81714 7.96207 4.62896 7.94216 4.44026 7.94235C3.54506 7.94235 2.80549 8.42767 2.50967 9.2094C2.40393 9.48127 2.35795 9.77269 2.37486 10.0639C2.39177 10.3551 2.47118 10.6393 2.60768 10.897C2.8043 11.2695 3.11795 11.6028 3.56644 11.9164C3.68525 11.9995 3.87116 12.1196 4.10524 12.2728C4.23176 12.3548 4.41649 12.4748 4.59769 12.5948C4.66106 12.6358 4.71495 12.6898 4.75567 12.7534C4.7937 12.8312 4.7949 12.915 4.73846 13.0694C4.61842 13.3337 4.4751 13.5868 4.31017 13.8256C3.73158 14.6721 2.90351 15.3897 1.84613 15.9641C1.28597 16.2611 0.703815 16.4595 0.457886 17.1278C0.27255 17.6322 0.393731 18.206 0.864799 18.6895C1.03768 18.87 1.2382 19.0218 1.45883 19.1392C1.91789 19.3915 2.40603 19.5868 2.91242 19.7208C3.01692 19.7477 3.11613 19.7921 3.20587 19.8521C3.37754 20.0023 3.35319 20.2287 3.58189 20.5601C3.69669 20.7314 3.84255 20.8797 4.01197 20.9973C4.49194 21.3288 5.03134 21.3496 5.60276 21.3716C6.11899 21.3912 6.7041 21.4137 7.37239 21.6341C7.64921 21.7256 7.93673 21.9026 8.26999 22.1094C9.07013 22.6012 10.1655 23.2743 11.9987 23.2743C13.8319 23.2743 14.935 22.5977 15.7411 22.104C16.072 21.9009 16.3577 21.7256 16.6268 21.6365C17.2951 21.4155 17.8802 21.3936 18.3964 21.374C18.9678 21.352 19.5072 21.3312 19.9872 20.9997C20.1878 20.8598 20.355 20.6772 20.4767 20.4651C20.6412 20.1853 20.6371 19.9899 20.7915 19.8533C20.8757 19.7961 20.9689 19.7536 21.0672 19.7273C21.5805 19.5929 22.0752 19.3958 22.5403 19.1404C22.7748 19.0146 22.9857 18.8495 23.1641 18.6521L23.17 18.645C23.612 18.1721 23.7231 17.6149 23.5419 17.1231ZM21.9125 17.9987C20.9187 18.5475 20.2581 18.4887 19.7442 18.8196C19.3076 19.1006 19.566 19.7065 19.2488 19.9251C18.8592 20.1942 17.7073 19.9061 16.2193 20.3974C14.992 20.8031 14.2091 21.9697 12.0016 21.9697C9.79425 21.9697 9.02974 20.8054 7.78226 20.3944C6.29719 19.9031 5.14301 20.1912 4.75271 19.9221C4.4361 19.7036 4.69331 19.0976 4.2573 18.8166C3.74287 18.4858 3.08231 18.5446 2.08909 17.9987C1.45645 17.6494 1.81524 17.4331 2.02613 17.331C5.62594 15.5881 6.20036 12.8972 6.2259 12.6975C6.2568 12.4558 6.29126 12.2657 6.02512 12.0198C5.76791 11.7822 4.62679 11.0759 4.31017 10.8549C3.78623 10.4889 3.55575 10.1236 3.72564 9.67455C3.84446 9.36386 4.13434 9.24682 4.43846 9.24682C4.53461 9.24712 4.63042 9.25789 4.72421 9.27892C5.29924 9.40365 5.85761 9.69176 6.18019 9.76958C6.219 9.77955 6.2589 9.78495 6.29899 9.78562C6.47126 9.78562 6.53183 9.69889 6.51998 9.50167C6.48311 8.87261 6.39401 7.64651 6.49324 6.50062C6.62925 4.92409 7.13715 4.14293 7.74067 3.45207C8.03059 3.12001 9.3927 1.68068 11.9975 1.68068C14.6023 1.68068 15.968 3.11407 16.2579 3.44494C16.862 4.1358 17.3705 4.91696 17.5053 6.4935C17.6046 7.63939 17.519 8.86605 17.4786 9.49455C17.465 9.70185 17.5273 9.7785 17.6996 9.7785C17.7397 9.77786 17.7796 9.77246 17.8184 9.76245C18.1416 9.68464 18.6999 9.39653 19.275 9.2718C19.3687 9.25076 19.4646 9.24 19.5607 9.2397C19.8666 9.2397 20.1547 9.3585 20.2735 9.66739C20.4434 10.1165 20.2141 10.4818 19.6896 10.8477C19.373 11.0687 18.2319 11.7744 17.9746 12.0126C17.7079 12.2586 17.743 12.4486 17.7738 12.6904C17.7994 12.893 18.3732 15.584 21.9736 17.3238C22.1863 17.4302 22.5451 17.6464 21.9125 17.9987Z" fill="#15171A"/>
</g>
<defs>
<clipPath id="clip0_914_45399">
<rect width="24" height="24" fill="white"/>
</clipPath>
</defs>
</svg>
