<svg width="24" height="24" viewBox="0 0 24 24" fill="none" xmlns="http://www.w3.org/2000/svg">
<path d="M22.5 20.1749H21.15V11.7C21.15 10.425 20.1 9.37495 18.825 9.37495H17.625C17.7375 8.92495 17.8125 8.43745 17.8125 7.94995C17.8125 6.89995 17.55 5.88745 17.025 4.98745C15.975 3.22495 14.175 2.17495 12.1125 2.13745C12.0375 2.13745 11.9625 2.13745 11.925 2.13745C9.90001 2.17495 8.06251 3.22495 7.01251 4.98745C6.48751 5.88745 6.22501 6.89995 6.22501 7.94995C6.22501 8.43745 6.30001 8.92495 6.41251 9.37495H5.21251C3.93751 9.37495 2.88751 10.425 2.88751 11.7V20.1749H1.50001C1.05001 20.1749 0.637512 20.5499 0.637512 21.0375C0.637512 21.525 1.01251 21.9 1.50001 21.9H22.5C22.95 21.9 23.3625 21.525 23.3625 21.0375C23.3625 20.5499 22.95 20.1749 22.5 20.1749ZM15.5625 5.84995C15.7875 6.26245 15.9375 6.67495 16.05 7.12495L14.6625 6.18745C13.9125 5.66245 13.3875 4.87495 13.2 4.01245C14.175 4.31245 15 4.94995 15.5625 5.84995ZM8.43751 5.84995C9.07501 4.72495 10.2 4.01245 11.475 3.86245C11.625 5.36245 12.45 6.71245 13.6875 7.57495L15.9375 9.11245C15.7875 9.56245 15.6 9.97495 15.3375 10.35C15.2625 10.4625 15.1875 10.5375 15.1125 10.6125L14.8875 10.35C13.9875 9.26245 12.6375 8.62495 11.2125 8.69995C10.8375 8.69995 10.5 8.66245 10.1625 8.54995L7.91251 7.76245C7.95001 7.08745 8.10001 6.41245 8.43751 5.84995ZM13.7625 11.6625C13.2375 11.925 12.6375 12.0375 12.0375 12.075H12H11.9625C10.65 12.075 9.48751 11.4375 8.70001 10.3875C8.55001 10.1625 8.40001 9.93745 8.28751 9.67495L9.60001 10.125C10.1625 10.3125 10.725 10.425 11.2875 10.3875C12.15 10.35 13.0125 10.725 13.575 11.4375L13.7625 11.6625ZM4.53751 20.1749V11.7C4.53751 11.3625 4.83751 11.0625 5.17501 11.0625H6.97501C7.01251 11.0625 7.05001 11.0625 7.08751 11.0625C7.16251 11.175 7.23751 11.2875 7.31251 11.3625C8.40001 12.8625 10.0875 13.725 11.925 13.725C11.9625 13.725 11.9625 13.725 12 13.725C12.0375 13.725 12.075 13.725 12.075 13.725C13.9125 13.6875 15.6 12.825 16.6875 11.3625C16.7625 11.25 16.8375 11.175 16.875 11.0625H18.7875C19.125 11.0625 19.425 11.3625 19.425 11.7V20.1749H12.8625V17.8125L13.9125 18.8624C14.0625 19.0499 14.2875 19.125 14.5125 19.125C14.7375 19.125 14.925 19.05 15.1125 18.9C15.45 18.5625 15.45 18.0375 15.1125 17.7L12.6375 15.15C12.4875 15 12.2625 14.8875 12.0375 14.8875C11.8125 14.8875 11.5875 14.9625 11.4375 15.15L8.88751 17.7C8.55001 18.0375 8.55001 18.5625 8.88751 18.9C9.22501 19.2375 9.75001 19.2375 10.0875 18.9L11.175 17.8125V20.2125H4.53751V20.1749Z" fill="#161A23"/>
</svg>
