<svg width="24" height="24" viewBox="0 0 24 24" fill="none" xmlns="http://www.w3.org/2000/svg">
<path d="M8.5125 16.2L6.15 18.5625V3.41249C6.15 2.96249 5.775 2.54999 5.2875 2.54999C4.8 2.54999 4.425 2.92499 4.425 3.41249V18.5625L2.0625 16.2C1.725 15.8625 1.2 15.8625 0.8625 16.2C0.525 16.5375 0.525 17.0625 0.8625 17.4L4.425 20.9625C4.65 21.1875 4.95 21.3 5.2875 21.3C5.5875 21.3 5.8875 21.1875 6.15 20.9625L9.7125 17.4C10.05 17.0625 10.05 16.5375 9.7125 16.2C9.375 15.8625 8.85 15.8625 8.5125 16.2Z" fill="#161A23"/>
<path d="M13.05 4.23749H14.8875C15.3375 4.23749 15.7125 3.86249 15.7125 3.37499C15.7125 2.92499 15.3375 2.54999 14.85 2.54999H13.0125C12.5625 2.54999 12.1875 2.92499 12.1875 3.41249C12.1875 3.86249 12.5625 4.23749 13.05 4.23749Z" fill="#161A23"/>
<path d="M13.05 9.975H17.7375C18.1875 9.975 18.5625 9.6 18.5625 9.1125C18.5625 8.625 18.1875 8.25 17.7 8.2875H13.0125C12.5625 8.2875 12.1875 8.6625 12.1875 9.15C12.1875 9.6 12.5625 9.975 13.05 9.975Z" fill="#161A23"/>
<path d="M13.05 15.7125H19.65C20.1 15.7125 20.475 15.3375 20.475 14.85C20.475 14.4 20.1 14.025 19.6125 14.025H13.0125C12.5625 14.025 12.1875 14.4 12.1875 14.8875C12.1875 15.3375 12.5625 15.7125 13.05 15.7125Z" fill="#161A23"/>
<path d="M22.5001 19.725H13.0501C12.6001 19.725 12.2251 20.1 12.2251 20.5875C12.2251 21.0375 12.6001 21.4125 13.0876 21.4125H22.5376C22.9876 21.4125 23.3626 21.0375 23.3626 20.55C23.3251 20.1 22.9501 19.725 22.5001 19.725Z" fill="#161A23"/>
</svg>
