<svg width="24" height="24" viewBox="0 0 24 24" fill="none" xmlns="http://www.w3.org/2000/svg">
<g clip-path="url(#clip0_501_43634)">
<path d="M8.51247 18.3L6.14997 20.55V1.50001C6.14997 1.05001 5.77497 0.637512 5.28747 0.637512C4.79997 0.637512 4.42497 1.01251 4.42497 1.50001V20.55L2.06247 18.3C1.72497 17.9625 1.19997 18 0.862474 18.3375C0.524974 18.675 0.562474 19.2 0.899974 19.5375L4.68747 23.1375C4.83747 23.2875 5.06247 23.3625 5.24997 23.3625C5.43747 23.3625 5.66247 23.2875 5.81247 23.1375L9.67497 19.5C10.0125 19.1625 10.0125 18.6375 9.71247 18.3C9.41247 17.9625 8.84997 17.9625 8.51247 18.3Z" fill="#161A23"/>
<path d="M23.0625 4.50002L19.275 0.900018C18.9375 0.600018 18.45 0.600018 18.1125 0.900018L14.325 4.50002C13.9875 4.83752 13.9875 5.36252 14.2875 5.70002C14.4375 5.88752 14.6625 5.96252 14.8875 5.96252C15.1125 5.96252 15.3 5.88752 15.45 5.73752L17.8125 3.48752V22.5C17.8125 22.95 18.1875 23.3625 18.675 23.3625C19.1625 23.3625 19.5375 22.9875 19.5375 22.5V3.45002L21.9 5.70002C22.2375 6.03752 22.7625 6.00002 23.1 5.66252C23.4375 5.32502 23.4 4.80002 23.0625 4.50002Z" fill="#161A23"/>
</g>
<defs>
<clipPath id="clip0_501_43634">
<rect width="24" height="24" fill="white"/>
</clipPath>
</defs>
</svg>
