<svg width="24" height="24" viewBox="0 0 24 24" fill="none" xmlns="http://www.w3.org/2000/svg">
<path d="M10.7625 18.075L8.36255 20.4375V1.50001C8.36255 1.05001 7.98755 0.637512 7.50005 0.637512C7.01255 0.637512 6.63755 1.01251 6.63755 1.50001V20.475L4.23755 18.1125C3.90005 17.775 3.37505 17.775 3.03755 18.1125C2.70005 18.45 2.70005 18.975 3.03755 19.3125L6.60005 22.875C6.82505 23.1 7.12505 23.2125 7.46255 23.2125C7.80005 23.2125 8.06255 23.1 8.32505 22.875L11.8875 19.3125C12.225 18.975 12.225 18.45 11.8875 18.1125C11.625 17.775 11.0625 17.775 10.7625 18.075Z" fill="#161A23"/>
<path d="M19.575 21.675H18.075L19.8375 19.2375C20.025 18.975 20.0625 18.6375 19.9125 18.375C19.7625 18.075 19.4625 17.925 19.1625 17.925H16.2375C15.7875 17.925 15.375 18.3 15.375 18.7875C15.375 19.275 15.75 19.65 16.2375 19.65H17.5125L15.75 22.0125C15.5625 22.275 15.525 22.6125 15.675 22.875C15.825 23.175 16.125 23.325 16.425 23.325H19.575C20.025 23.325 20.4375 22.95 20.4375 22.4625C20.4375 21.975 20.025 21.675 19.575 21.675Z" fill="#161A23"/>
<path d="M21.0375 5.88752L18.675 1.12502C18.525 0.825018 18.225 0.675018 17.925 0.675018C17.625 0.675018 17.325 0.862518 17.175 1.12502L14.775 5.88752C14.55 6.30002 14.7375 6.82502 15.15 7.01252C15.5625 7.23752 16.0875 7.05002 16.275 6.63752L16.5 6.15002H19.275L19.5 6.63752C19.65 6.93752 19.95 7.08752 20.25 7.08752C20.3625 7.08752 20.5125 7.05002 20.625 7.01252C21.1125 6.82502 21.2625 6.30002 21.0375 5.88752ZM17.3625 4.46252L17.925 3.37502L18.4875 4.46252H17.3625Z" fill="#161A23"/>
</svg>
