<svg width="24" height="24" viewBox="0 0 24 24" fill="none" xmlns="http://www.w3.org/2000/svg">
<path d="M0.63831 11.289C0.589796 11.289 0.551291 11.3265 0.545017 11.38L0.375 12.6714L0.545017 13.9407C0.551291 13.9941 0.589774 14.0314 0.63831 14.0314C0.685297 14.0314 0.723566 13.9944 0.731059 13.9411L0.932584 12.6714L0.731059 11.3798C0.723802 11.3265 0.685061 11.289 0.63831 11.289ZM1.59445 10.5834C1.58644 10.5279 1.54669 10.4896 1.49769 10.4896C1.44842 10.4896 1.40766 10.5291 1.40092 10.5834L1.17238 12.6714L1.40092 14.7133C1.40742 14.768 1.44819 14.8076 1.49769 14.8076C1.54643 14.8076 1.58621 14.769 1.5942 14.7138L1.85421 12.6714L1.59445 10.5834ZM5.19604 8.65733C5.10229 8.65733 5.02474 8.73405 5.02024 8.83159L4.83821 12.6732L5.02024 15.1558C5.025 15.2528 5.10229 15.3294 5.19604 15.3294C5.2893 15.3294 5.36655 15.2526 5.37206 15.1554V15.1561L5.57783 12.6732L5.37206 8.83159C5.36655 8.73405 5.28926 8.65733 5.19604 8.65733ZM3.33198 9.99251C3.25997 9.99251 3.20121 10.05 3.19543 10.1268L2.99041 12.6722L3.19543 15.1348C3.20093 15.2111 3.25995 15.2686 3.33198 15.2686C3.40323 15.2686 3.46198 15.2111 3.46826 15.1348L3.70128 12.6722L3.46826 10.1263C3.46198 10.05 3.40323 9.99251 3.33198 9.99251ZM7.09035 15.3291C7.2066 15.3291 7.30114 15.2353 7.30586 15.1153L7.4844 12.6744L7.30612 7.55985C7.30136 7.43985 7.20686 7.34606 7.09061 7.34606C6.97331 7.34606 6.87859 7.44007 6.8748 7.56011L6.71651 12.6742L6.8748 15.1161C6.87855 15.2351 6.97331 15.3291 7.09035 15.3291ZM10.9685 15.3407C11.1285 15.3407 11.2605 15.2089 11.2635 15.0468L11.388 12.6759L11.2635 6.76898C11.2607 6.6072 11.1285 6.4752 10.9685 6.4752C10.8082 6.4752 10.6759 6.60697 10.6734 6.76924L10.5621 12.6739C10.5621 12.6777 10.6734 15.0483 10.6734 15.0483C10.6759 15.2088 10.8084 15.3407 10.9685 15.3407ZM9.01462 15.3314C9.15394 15.3314 9.26618 15.2196 9.26993 15.0771V15.0788L9.42142 12.675L9.26966 7.52336C9.26591 7.38082 9.15368 7.26934 9.01436 7.26934C8.87411 7.26934 8.76184 7.38086 8.75884 7.52336L8.6241 12.6752L8.7591 15.0786C8.7621 15.2196 8.87437 15.3314 9.01462 15.3314ZM4.26038 15.3089C4.34314 15.3089 4.41015 15.2426 4.41641 15.1554L4.63594 12.6722L4.41641 10.3101C4.41041 10.2228 4.34344 10.157 4.26038 10.157C4.17637 10.157 4.10936 10.2233 4.10411 10.3111L3.91084 12.6722L4.10411 15.1551C4.10962 15.2426 4.17637 15.3089 4.26038 15.3089ZM2.4111 15.1728C2.47159 15.1728 2.5206 15.1251 2.5276 15.0591L2.77413 12.6717L2.52783 10.1943C2.52057 10.128 2.47157 10.0803 2.41107 10.0803C2.3498 10.0803 2.30079 10.1283 2.29455 10.1943L2.07752 12.6717L2.29455 15.0586C2.30056 15.1248 2.34957 15.1728 2.4111 15.1728ZM9.98782 7.4376C9.83655 7.4376 9.71524 7.5579 9.71228 7.71191L9.58924 12.6755L9.71228 15.0638C9.71527 15.2158 9.83629 15.3361 9.98782 15.3361C10.1388 15.3361 10.2594 15.2161 10.2628 15.0621V15.0641L10.4009 12.6757L10.2628 7.71139C10.2593 7.5579 10.1388 7.4376 9.98782 7.4376ZM6.13969 15.3341C6.2442 15.3341 6.33045 15.2488 6.33547 15.1401L6.52751 12.6739L6.33547 7.95368C6.33019 7.84463 6.2442 7.75965 6.13969 7.75965C6.03416 7.75965 5.94817 7.84489 5.94364 7.95368L5.77361 12.6739L5.9439 15.1411C5.94814 15.2489 6.03412 15.3341 6.13969 15.3341ZM8.28401 15.1L8.44905 12.6747L8.28401 7.38784C8.28 7.25659 8.1765 7.15358 8.04874 7.15358C7.92019 7.15358 7.81669 7.25632 7.8132 7.38784L7.66669 12.6744L7.81343 15.1011C7.81695 15.2311 7.92049 15.3339 8.04874 15.3339C8.17676 15.3339 8.27974 15.2308 8.28401 15.1ZM20.7655 9.62719C20.3737 9.62719 19.9999 9.70646 19.6593 9.84923C19.4318 7.27185 17.2704 5.25 14.634 5.25C13.9889 5.25 13.3601 5.37701 12.8048 5.59181C12.589 5.67532 12.5315 5.76131 12.5295 5.92811V15.0045C12.5317 15.1796 12.6675 15.3254 12.8383 15.3426C12.8455 15.3434 20.7143 15.3474 20.7653 15.3474C22.3445 15.3474 23.625 14.0669 23.625 12.4874C23.625 10.9079 22.3448 9.62719 20.7655 9.62719ZM11.9448 5.92012C11.7731 5.92012 11.6321 6.06116 11.6295 6.23441L11.5005 12.6767L11.6298 15.0148C11.6321 15.1856 11.7731 15.3264 11.9448 15.3264C12.1161 15.3264 12.2571 15.1856 12.2597 15.0123V15.0151L12.3999 12.6767L12.2597 6.23393C12.2571 6.06116 12.1161 5.92012 11.9448 5.92012ZM2.68439 17.1654C2.34609 17.0859 2.25456 17.0434 2.25456 16.9093C2.25456 16.8149 2.33082 16.7171 2.55936 16.7171C2.75463 16.7171 2.90717 16.7963 3.04421 16.9366L3.35201 16.6381C3.15075 16.4278 2.90694 16.3027 2.57489 16.3027C2.15382 16.3027 1.81251 16.5406 1.81251 16.9279C1.81251 17.3484 2.08708 17.4735 2.48014 17.5647C2.88243 17.656 2.95571 17.7172 2.95571 17.8545C2.95571 18.016 2.83644 18.0863 2.58388 18.0863C2.37962 18.0863 2.18758 18.0163 2.03807 17.842L1.73022 18.1166C1.89173 18.3544 2.20304 18.5037 2.55933 18.5037C3.14194 18.5037 3.39796 18.2294 3.39796 17.824C3.39799 17.3604 3.02292 17.2447 2.68439 17.1654ZM4.64816 16.3027C4.06609 16.3027 3.72177 16.7539 3.72177 17.4032C3.72177 18.0526 4.06605 18.5034 4.64816 18.5034C5.23027 18.5034 5.57505 18.0526 5.57505 17.4032C5.57505 16.7539 5.23027 16.3027 4.64816 16.3027ZM4.64816 18.0801C4.30387 18.0801 4.16033 17.7843 4.16033 17.4035C4.16033 17.0224 4.30387 16.7266 4.64816 16.7266C4.99297 16.7266 5.136 17.0224 5.136 17.4035C5.136 17.7843 4.99297 18.0801 4.64816 18.0801ZM7.29761 17.5345C7.29761 17.8758 7.12961 18.0863 6.85856 18.0863C6.58725 18.0863 6.4227 17.8698 6.4227 17.5285V16.3361H5.99565V17.5345C5.99565 18.1561 6.34346 18.5037 6.85853 18.5037C7.40115 18.5037 7.72444 18.1468 7.72444 17.5285V16.3361H7.29761V17.5345ZM9.56546 17.2387C9.56546 17.3577 9.57146 17.6258 9.57146 17.705C9.54397 17.65 9.47396 17.5435 9.42217 17.464L8.66584 16.3358H8.2575V18.4702H8.67833V17.531C8.67833 17.412 8.67233 17.1439 8.67233 17.0646C8.69959 17.1194 8.77009 17.2262 8.82158 17.3057L9.60521 18.4701H9.98625V16.3358H9.56546V17.2387ZM11.2025 16.3361H10.5349V18.4704H11.1717C11.7206 18.4704 12.2634 18.1531 12.2634 17.4032C12.2634 16.6226 11.8121 16.3361 11.2025 16.3361ZM11.1717 18.0558H10.9617V16.7508H11.1873C11.6386 16.7508 11.8246 16.9671 11.8246 17.4032C11.8246 17.7935 11.6201 18.0558 11.1717 18.0558ZM13.5834 16.7263C13.7754 16.7263 13.8974 16.8118 13.9737 16.9581L14.37 16.7754C14.2357 16.498 13.9917 16.3027 13.5893 16.3027C13.032 16.3027 12.6414 16.7539 12.6414 17.4032C12.6414 18.0768 13.0162 18.5034 13.5741 18.5034C13.9614 18.5034 14.2174 18.3236 14.3637 18.0218L14.0041 17.8083C13.8913 17.9976 13.7783 18.0798 13.5863 18.0798C13.2663 18.0798 13.0803 17.787 13.0803 17.4032C13.08 17.0071 13.2636 16.7263 13.5834 16.7263ZM15.1663 16.3361H14.7395V18.4704H16.0223V18.0493H15.1663V16.3361ZM17.1467 16.3027C16.5641 16.3027 16.2198 16.7539 16.2198 17.4032C16.2198 18.0526 16.5641 18.5034 17.1467 18.5034C17.7288 18.5034 18.0733 18.0526 18.0733 17.4032C18.0733 16.7539 17.7288 16.3027 17.1467 16.3027ZM17.1467 18.0801C16.8019 18.0801 16.6588 17.7843 16.6588 17.4035C16.6588 17.0224 16.8019 16.7266 17.1467 16.7266C17.4907 16.7266 17.634 17.0224 17.634 17.4035C17.634 17.7843 17.4907 18.0801 17.1467 18.0801ZM19.7956 17.5345C19.7956 17.8758 19.6283 18.0863 19.357 18.0863C19.0853 18.0863 18.921 17.8698 18.921 17.5285V16.3361H18.4942V17.5345C18.4942 18.1561 18.8417 18.5037 19.357 18.5037C19.8996 18.5037 20.2227 18.1468 20.2227 17.5285V16.3361H19.7956V17.5345ZM21.4236 16.3361H20.7562V18.4704H21.3931C21.9422 18.4704 22.4846 18.1531 22.4846 17.4032C22.4846 16.6226 22.0335 16.3361 21.4236 16.3361ZM21.3931 18.0558H21.1828V16.7508H21.4086C21.8594 16.7508 22.0455 16.9671 22.0455 17.4032C22.0455 17.7935 21.8412 18.0558 21.3931 18.0558Z" fill="#15171A"/>
</svg>
