<svg width="24" height="24" viewBox="0 0 24 24" fill="none" xmlns="http://www.w3.org/2000/svg">
<path d="M18.1119 18.3001H14.7369C14.1369 18.3001 13.6494 17.8126 13.6494 17.2126V6.78757C13.6494 6.18757 14.1369 5.70007 14.6994 5.70007H14.9244C15.3744 5.70007 15.9369 5.77507 16.4994 5.96257H16.5369C17.5869 6.33757 18.4869 7.01257 19.0869 7.91257C20.2119 8.13757 21.2244 8.66257 21.8994 9.48757C22.7994 10.4251 23.2869 11.7001 23.2869 13.0501C23.3619 15.9376 20.9994 18.3001 18.1119 18.3001ZM15.3369 16.6126H18.1119C20.0994 16.6126 21.6744 15.0376 21.6744 13.0876C21.6744 12.1501 21.3369 11.3251 20.7369 10.6876L20.6994 10.6501C20.1744 10.0501 19.3869 9.67507 18.5244 9.56257L18.1119 9.52507L17.8869 9.15007C17.4744 8.43757 16.7994 7.87507 16.0119 7.57507C15.7494 7.50007 15.5244 7.46257 15.3369 7.42507V16.6126Z" fill="#15171A"/>
<path d="M9.93721 17.775C9.48721 17.775 9.07471 17.4 9.07471 16.9125V7.05C9.07471 6.6 9.44971 6.1875 9.93721 6.1875C10.4247 6.1875 10.7997 6.5625 10.7997 7.05V16.9125C10.7622 17.4 10.3872 17.775 9.93721 17.775Z" fill="#15171A"/>
<path d="M5.55 17.1751C5.1 17.1751 4.6875 16.8001 4.6875 16.3126V7.68757C4.6875 7.23757 5.0625 6.82507 5.55 6.82507C6.0375 6.82507 6.4125 7.20007 6.4125 7.68757V16.3501C6.4125 16.8001 6.0375 17.1751 5.55 17.1751Z" fill="#15171A"/>
<path d="M1.49971 15.9C1.04971 15.9 0.637207 15.525 0.637207 15.0375V8.925C0.637207 8.475 1.01221 8.0625 1.49971 8.0625C1.98721 8.0625 2.36221 8.4375 2.36221 8.925V15.0375C2.36221 15.525 1.94971 15.9 1.49971 15.9Z" fill="#15171A"/>
</svg>
