<svg width="24" height="24" viewBox="0 0 24 24" fill="none" xmlns="http://www.w3.org/2000/svg">
<path d="M20.9999 2.73755H2.99995C1.72495 2.73755 0.637451 3.78755 0.637451 5.10005V15.6C0.637451 16.875 1.68745 17.9626 2.99995 17.9626H4.87495V20.4375C4.87495 20.7376 5.06245 21.0375 5.32495 21.1876C5.43745 21.2626 5.58745 21.2626 5.69995 21.2626C5.88745 21.2626 6.03745 21.225 6.18745 21.1126L10.5374 17.9626H20.9999C22.275 17.9626 23.3624 16.9125 23.3624 15.6V5.10005C23.3624 3.78755 22.275 2.73755 20.9999 2.73755ZM21.6749 15.6C21.6749 15.975 21.3749 16.2751 20.9999 16.2751H10.275C10.0875 16.2751 9.93745 16.35 9.78745 16.425L6.56245 18.75V17.1C6.56245 16.65 6.18745 16.2375 5.69995 16.2375H2.99995C2.62495 16.2375 2.32495 15.9376 2.32495 15.5626V5.06255C2.32495 4.68755 2.62495 4.38755 2.99995 4.38755H20.9999C21.3749 4.38755 21.6749 4.68755 21.6749 5.06255V15.6Z" fill="#161A23"/>
<path d="M15.9375 5.96252H8.06245C7.61245 5.96252 7.19995 6.33752 7.19995 6.82502C7.19995 7.31252 7.57495 7.68752 8.06245 7.68752H15.9375C16.3875 7.68752 16.8 7.31252 16.8 6.82502C16.8 6.33752 16.425 5.96252 15.9375 5.96252Z" fill="#161A23"/>
<path d="M15.9375 9.15002H8.06245C7.61245 9.15002 7.19995 9.52502 7.19995 10.0125C7.19995 10.5 7.57495 10.875 8.06245 10.875H15.9375C16.3875 10.875 16.8 10.5 16.8 10.0125C16.8 9.52502 16.425 9.15002 15.9375 9.15002Z" fill="#161A23"/>
<path d="M15.9375 12.3375H8.06245C7.61245 12.3375 7.19995 12.7125 7.19995 13.2C7.19995 13.6875 7.57495 14.0625 8.06245 14.0625H15.9375C16.3875 14.0625 16.8 13.6875 16.8 13.2C16.8 12.7125 16.425 12.3375 15.9375 12.3375Z" fill="#161A23"/>
</svg>
