<svg width="24" height="24" viewBox="0 0 24 24" fill="none" xmlns="http://www.w3.org/2000/svg">
<g clip-path="url(#clip0_501_49657)">
<path d="M20.85 0.675049H3.15005C1.76255 0.675049 0.675049 1.80005 0.675049 3.15005V13.5001C0.675049 14.8876 1.80005 15.975 3.15005 15.975H5.66255C5.58755 16.3125 5.62505 16.6876 5.81255 17.0251L7.05005 19.2001L6.33755 21.4125C6.15005 22.0126 6.33755 22.6501 6.86255 23.0251C7.12505 23.2126 7.42505 23.3251 7.72505 23.3251C8.02505 23.3251 8.28755 23.2501 8.55005 23.0626L12.225 20.5501C12.7875 20.1751 13.0125 19.4626 12.7875 18.8626L11.9625 16.5375L12.225 15.975H20.925C22.3125 15.975 23.4 14.85 23.4 13.5001V3.15005C23.3625 1.76255 22.2375 0.675049 20.85 0.675049ZM21.675 13.5001C21.675 13.9501 21.3 14.2875 20.8876 14.2875H11.625C11.2875 14.2875 10.9875 14.4751 10.8375 14.7751L10.2375 16.1625C10.1625 16.35 10.125 16.5751 10.2 16.8001L11.1 19.2751L8.10005 21.3001L8.73755 19.3876C8.81255 19.1625 8.77505 18.9376 8.66255 18.7126L7.31255 16.2751L7.53755 15.3376C7.61255 15.0751 7.53755 14.8126 7.38755 14.6251C7.23755 14.4376 6.97505 14.2875 6.71255 14.2875H3.15005C2.70005 14.2875 2.36255 13.9125 2.36255 13.5001V3.15005C2.36255 2.70005 2.73755 2.36255 3.15005 2.36255H20.8876C21.3375 2.36255 21.675 2.73755 21.675 3.15005V13.5001Z" fill="#161A23"/>
<path d="M7.87507 5.73745H14.5126C14.9626 5.73745 15.3751 5.36245 15.3751 4.87495C15.3751 4.38745 15.0001 4.01245 14.5126 4.01245H7.87507C7.42507 4.01245 7.01257 4.38745 7.01257 4.87495C7.01257 5.36245 7.42507 5.73745 7.87507 5.73745Z" fill="#161A23"/>
<path d="M16.1251 7.125H7.87507C7.42507 7.125 7.01257 7.5 7.01257 7.9875C7.01257 8.475 7.38757 8.85 7.87507 8.85H16.1251C16.5751 8.85 16.9876 8.475 16.9876 7.9875C16.9876 7.5 16.5751 7.125 16.1251 7.125Z" fill="#161A23"/>
<path d="M14.5126 10.2H7.87507C7.42507 10.2 7.01257 10.575 7.01257 11.0625C7.01257 11.55 7.38757 11.925 7.87507 11.925H14.5126C14.9626 11.925 15.3751 11.55 15.3751 11.0625C15.3751 10.575 15.0001 10.2 14.5126 10.2Z" fill="#161A23"/>
</g>
<defs>
<clipPath id="clip0_501_49657">
<rect width="24" height="24" fill="white"/>
</clipPath>
</defs>
</svg>
