<svg width="24" height="24" viewBox="0 0 24 24" fill="none" xmlns="http://www.w3.org/2000/svg">
<path d="M22.7625 9.52495C22.05 8.13745 20.7 7.12495 19.1625 6.86245C18.075 3.82495 15.225 1.76245 11.9625 1.76245C8.70002 1.76245 5.81252 3.82495 4.76252 6.86245C3.26252 7.16245 1.91252 8.17495 1.20002 9.56245C0.375018 11.25 0.487518 13.1624 1.53752 14.8875C2.32502 16.2 3.82502 17.025 5.47502 17.025H9.33752V20.8874C9.33752 21.4874 9.71252 21.9749 10.275 22.1624C10.425 22.1999 10.5375 22.2374 10.6875 22.2374C11.1 22.2374 11.5125 22.0499 11.775 21.6749L15.15 17.025H18.5625C20.175 17.025 21.7125 16.1999 22.5 14.8499C23.5125 13.1249 23.625 11.175 22.7625 9.52495ZM21.0375 13.9874C20.55 14.8124 19.575 15.3375 18.5625 15.3375H14.7C14.4375 15.3375 14.175 15.4499 14.025 15.6749L11.025 19.7999V16.1624C11.025 15.7124 10.65 15.2999 10.1625 15.2999H5.43752C4.38752 15.2999 3.45002 14.775 2.96252 13.95C2.21252 12.7125 2.13752 11.4375 2.70002 10.275C3.22502 9.22495 4.31252 8.51245 5.47502 8.39995C5.81252 8.36245 6.11252 8.13745 6.22502 7.76245C6.90002 5.24995 9.26252 3.44995 11.9625 3.44995C14.6625 3.44995 16.9875 5.24995 17.7 7.83745C17.8125 8.17495 18.1125 8.43745 18.45 8.47495C19.65 8.54995 20.7 9.26245 21.2625 10.3125C21.8625 11.4375 21.75 12.7874 21.0375 13.9874Z" fill="#161A23"/>
<path d="M14.925 7.94995H9.07502C8.62502 7.94995 8.21252 8.32495 8.21252 8.81245C8.21252 9.29995 8.58752 9.67495 9.07502 9.67495H14.9625C15.4125 9.67495 15.825 9.29995 15.825 8.81245C15.825 8.32495 15.4125 7.94995 14.925 7.94995Z" fill="#161A23"/>
<path d="M14.925 11.1375H9.07502C8.62502 11.1375 8.21252 11.5125 8.21252 12C8.21252 12.45 8.58752 12.8625 9.07502 12.8625H14.9625C15.4125 12.8625 15.825 12.4875 15.825 12C15.7875 11.5125 15.4125 11.1375 14.925 11.1375Z" fill="#161A23"/>
</svg>
