<svg width="24" height="24" viewBox="0 0 24 24" fill="none" xmlns="http://www.w3.org/2000/svg">
<path d="M16.65 7.8001C16.125 7.8001 15.6 7.8751 15.1125 7.9876V4.9126C15.1125 3.6751 14.1 2.6626 12.8625 2.6626H2.92505C1.68755 2.6626 0.675049 3.6751 0.675049 4.9126V11.2876C0.675049 12.4501 1.57505 13.4251 2.73755 13.5376C2.66255 13.7251 2.62505 13.9501 2.55005 14.1376C2.28755 14.9251 2.10005 15.3001 1.98755 15.4501C1.76255 15.7501 1.80005 16.1626 2.02505 16.4626C2.17505 16.6501 2.43755 16.7626 2.66255 16.7626C2.77505 16.7626 2.88755 16.7251 3.00005 16.6876C4.01255 16.2376 6.03755 14.7376 7.01255 13.5376H10.0125C9.82505 14.8501 10.05 16.2001 10.65 17.4376L9.82505 20.2501C9.75005 20.5501 9.82505 20.8876 10.05 21.1126C10.2 21.2626 10.425 21.3376 10.65 21.3376C10.725 21.3376 10.8375 21.3376 10.9125 21.3001L13.575 20.4376C15.6 21.4876 17.9625 21.4501 19.9501 20.3251C22.0875 19.1251 23.3625 16.9501 23.3625 14.5126C23.3625 10.8001 20.3625 7.8001 16.65 7.8001ZM6.60005 11.8876C6.30005 11.8876 6.03755 12.0376 5.88755 12.2626C5.62505 12.6751 5.02505 13.2376 4.38755 13.7626C4.46255 13.5001 4.53755 13.2751 4.57505 13.0501L4.61255 12.9376C4.68755 12.6751 4.61255 12.4126 4.46255 12.1876C4.31255 11.9626 4.05005 11.8501 3.78755 11.8501H2.92505C2.62505 11.8501 2.36255 11.5876 2.36255 11.2876V4.9126C2.36255 4.6126 2.62505 4.3501 2.92505 4.3501H12.8625C13.1625 4.3501 13.425 4.6126 13.425 4.9126V8.6251C12.9 8.9251 12.375 9.3001 11.925 9.7501C11.2875 10.3876 10.8375 11.1001 10.5 11.8876H6.60005ZM19.125 18.8251C17.55 19.7251 15.675 19.6876 14.1 18.7501C13.95 18.6751 13.8 18.6376 13.65 18.6376C13.575 18.6376 13.4625 18.6376 13.3875 18.6751L11.925 19.1626L12.4125 17.6251C12.4875 17.4001 12.45 17.1751 12.3375 16.9501C11.2125 15.0001 11.55 12.5251 13.125 10.9501C14.0625 10.0126 15.3375 9.4876 16.65 9.4876C19.3876 9.4876 21.6376 11.7376 21.6376 14.4751C21.675 16.3126 20.7 17.9251 19.125 18.8251Z" fill="#161A23"/>
<path d="M4.31257 7.1626C3.82507 7.1626 3.45007 7.5376 3.45007 8.0251C3.45007 8.5126 3.86257 8.8876 4.31257 8.8876C4.76257 8.8876 5.17507 8.5126 5.17507 8.0251C5.17507 7.5376 4.80007 7.1626 4.31257 7.1626Z" fill="#161A23"/>
<path d="M7.91255 7.1626C7.42505 7.1626 7.05005 7.5376 7.05005 8.0251C7.05005 8.5126 7.46255 8.8876 7.91255 8.8876C8.36255 8.8876 8.77505 8.5126 8.77505 8.0251C8.77505 7.5376 8.36255 7.1626 7.91255 7.1626Z" fill="#161A23"/>
<path d="M12.3375 8.0251C12.3375 7.5751 11.9625 7.1626 11.475 7.1626H11.4375C10.9875 7.1626 10.6125 7.5376 10.6125 8.0251C10.6125 8.5126 11.025 8.8876 11.475 8.8876C11.925 8.8876 12.3375 8.4751 12.3375 8.0251Z" fill="#161A23"/>
</svg>
