<svg width="24" height="24" viewBox="0 0 24 24" fill="none" xmlns="http://www.w3.org/2000/svg">
<path d="M5.81243 12.4875C5.62493 12.4875 5.43743 12.45 5.24993 12.375C4.72493 12.15 4.42493 11.6625 4.42493 11.1V10.275H3.93743C2.66243 10.275 1.61243 9.22505 1.61243 7.95005V3.00005C1.61243 1.72505 2.66243 0.675049 3.93743 0.675049H20.0999C21.3749 0.675049 22.4249 1.72505 22.4249 3.00005V7.91255C22.4249 9.18755 21.3749 10.2375 20.0999 10.2375H8.84993L6.74993 12.1125C6.48743 12.375 6.14993 12.4875 5.81243 12.4875ZM3.89993 2.36255C3.56243 2.36255 3.26243 2.62505 3.26243 3.00005V7.91255C3.26243 8.28755 3.56243 8.55005 3.89993 8.55005H5.24993C5.69993 8.55005 6.11243 8.92505 6.11243 9.41255V10.4625L7.98743 8.77505C8.13743 8.62505 8.32493 8.55005 8.54993 8.55005H20.0999C20.4749 8.55005 20.7374 8.25005 20.7374 7.91255V3.00005C20.7374 2.62505 20.4374 2.36255 20.0999 2.36255H3.89993Z" fill="#161A23"/>
<path d="M20.0999 23.3626H3.89995C2.62495 23.3626 1.57495 22.3126 1.57495 21.0376V16.0876C1.57495 14.8126 2.62495 13.7626 3.89995 13.7626H15.075L17.2125 11.8501C17.625 11.4751 18.225 11.4001 18.7125 11.6251C19.2374 11.8501 19.5374 12.3376 19.5374 12.9001V13.7251H20.025C21.2999 13.7251 22.3499 14.7751 22.3499 16.0501V21.0001C22.4249 22.2751 21.3749 23.3626 20.0999 23.3626ZM3.89995 15.4501C3.52495 15.4501 3.26245 15.7501 3.26245 16.0876V21.0001C3.26245 21.3751 3.56245 21.6376 3.89995 21.6376H20.0624C20.4374 21.6376 20.6999 21.3376 20.6999 21.0001V16.0876C20.6999 15.7126 20.4 15.4501 20.0624 15.4501H18.75C18.2999 15.4501 17.8874 15.0751 17.8874 14.5876V13.5376L15.9749 15.2251C15.8249 15.3751 15.6374 15.4501 15.4124 15.4501H3.89995Z" fill="#161A23"/>
</svg>
