<svg width="24" height="24" viewBox="0 0 24 24" fill="none" xmlns="http://www.w3.org/2000/svg">
<path d="M7.16245 22.7999C6.97495 22.7999 6.82495 22.7624 6.63745 22.7249C5.13745 22.1624 4.01245 20.9999 3.52495 19.4999C3.11245 18.1874 3.18745 16.8374 3.78745 15.5999C1.68745 13.0874 0.637451 10.6499 0.637451 8.3249C0.637451 5.3249 2.24995 2.7749 4.87495 1.6874C7.31245 0.6749 10.05 1.1999 12 3.0749C13.95 1.1999 16.65 0.6749 19.1249 1.6874C21.7125 2.7749 23.3624 5.2874 23.3624 8.3249C23.3624 12.6374 19.6874 16.6124 16.6124 19.1624C14.2499 21.1124 10.95 21.3374 8.39995 19.8374C8.36245 20.1749 8.39995 20.5124 8.54995 20.8499C8.73745 21.3749 8.62495 21.9749 8.21245 22.3874C7.91245 22.6499 7.53745 22.7999 7.16245 22.7999ZM7.38745 2.8874C6.74995 2.8874 6.14995 2.9999 5.51245 3.2624C3.56245 4.0499 2.36245 5.9999 2.36245 8.3249C2.36245 10.3874 3.41245 12.5999 5.47495 14.9624C5.73745 15.2624 5.73745 15.6749 5.54995 15.9749C4.94995 16.8749 4.83745 17.9624 5.13745 18.9749C5.43745 19.8374 5.99995 20.5499 6.78745 20.9624C6.56245 19.9874 6.71245 18.9749 7.19995 18.1124C7.31245 17.8874 7.53745 17.7374 7.76245 17.6999C7.98745 17.6624 8.24995 17.7374 8.43745 17.8874C10.5 19.5749 13.4624 19.5749 15.4874 17.8874C18.2999 15.5624 21.6374 12.0374 21.6374 8.3624C21.6374 5.9999 20.4375 4.1249 18.4499 3.2999C16.575 2.5124 14.4749 2.9624 13.0125 4.4624C12.75 4.6874 12.375 4.8374 12 4.8374C11.625 4.8374 11.25 4.6874 10.95 4.4249C9.97495 3.4124 8.69995 2.8874 7.38745 2.8874Z" fill="#161A23"/>
<path d="M14.5874 8.92495H9.41243C8.96243 8.92495 8.54993 8.54995 8.54993 8.06245C8.54993 7.57495 8.92493 7.19995 9.41243 7.19995H14.5874C15.0374 7.19995 15.4499 7.57495 15.4499 8.06245C15.4499 8.54995 15.0749 8.92495 14.5874 8.92495Z" fill="#161A23"/>
<path d="M14.5874 11.925H9.41243C8.96243 11.925 8.54993 11.55 8.54993 11.0625C8.54993 10.575 8.92493 10.2 9.41243 10.2H14.5874C15.0374 10.2 15.4499 10.575 15.4499 11.0625C15.4499 11.55 15.0749 11.925 14.5874 11.925Z" fill="#161A23"/>
<path d="M14.5874 14.925H9.41243C8.96243 14.925 8.54993 14.55 8.54993 14.0625C8.54993 13.575 8.92493 13.2 9.41243 13.2H14.5874C15.0374 13.2 15.4499 13.575 15.4499 14.0625C15.4499 14.55 15.0749 14.925 14.5874 14.925Z" fill="#161A23"/>
</svg>
