<svg width="24" height="24" viewBox="0 0 24 24" fill="none" xmlns="http://www.w3.org/2000/svg">
<path d="M18.4874 7.46245H16.3499C15.8624 5.17495 13.7999 3.44995 11.3624 3.44995H5.51245C4.19995 3.44995 2.99995 3.93745 2.06245 4.87495C1.16245 5.77495 0.637451 7.01245 0.637451 8.32495C0.637451 9.97495 1.46245 11.5125 2.84995 12.375V15.5999C2.84995 15.9374 3.07495 16.275 3.41245 16.3875C3.52495 16.425 3.59995 16.4249 3.71245 16.4249C3.93745 16.4249 4.16245 16.3124 4.34995 16.1249L7.01245 13.125H7.64995C8.06245 15.4124 10.0499 17.1375 12.4124 17.1375H16.0499L18.7499 20.25C18.9 20.4375 19.1624 20.5499 19.3874 20.5499C19.5 20.5499 19.5749 20.5499 19.6874 20.5124C20.025 20.4 20.2499 20.0624 20.2499 19.7249V16.8749C20.8874 16.65 21.4499 16.2749 21.9374 15.7874C22.8375 14.8874 23.3624 13.65 23.3624 12.3375C23.3624 9.63745 21.1874 7.46245 18.4874 7.46245ZM6.59995 11.475C6.37495 11.475 6.11245 11.5875 5.96245 11.775L4.53745 13.3875V11.8875C4.53745 11.5875 4.34995 11.2875 4.08745 11.1375C3.03745 10.6125 2.36245 9.52495 2.36245 8.32495C2.36245 7.46245 2.69995 6.67495 3.29995 6.07495C3.89995 5.47495 4.68745 5.13745 5.54995 5.13745H11.4C13.275 5.13745 14.8124 6.67495 14.8124 8.54995C14.8124 10.1625 13.5 11.475 11.8875 11.475H6.59995ZM20.7374 14.5875C20.3249 15 19.7999 15.3 19.1999 15.45C18.8249 15.525 18.525 15.8625 18.525 16.275V17.5125L17.025 15.825C16.875 15.6375 16.65 15.525 16.3875 15.525H12.375C10.9124 15.525 9.71245 14.55 9.33745 13.2H11.8875C14.2125 13.2 16.1624 11.4375 16.4625 9.18745H18.525C20.25 9.18745 21.6749 10.6125 21.6749 12.3375C21.6749 13.1625 21.2999 13.9875 20.7374 14.5875Z" fill="#161A23"/>
<path d="M4.91243 7.4624C4.42493 7.4624 4.04993 7.8374 4.04993 8.3249C4.04993 8.8124 4.46243 9.1874 4.91243 9.1874C5.36243 9.1874 5.77493 8.8124 5.77493 8.3249C5.77493 7.8374 5.36243 7.4624 4.91243 7.4624Z" fill="#161A23"/>
<path d="M8.5124 7.4624C8.0249 7.4624 7.6499 7.8374 7.6499 8.3249C7.6499 8.8124 8.0624 9.1874 8.5124 9.1874C8.9624 9.1874 9.3749 8.8124 9.3749 8.3249C9.3749 7.8374 8.9999 7.4624 8.5124 7.4624Z" fill="#161A23"/>
<path d="M12.975 8.3249C12.975 7.8749 12.6 7.4624 12.1125 7.4624H12.075C11.625 7.4624 11.25 7.8374 11.25 8.3249C11.25 8.8124 11.6625 9.1874 12.1125 9.1874C12.6 9.1499 12.975 8.7749 12.975 8.3249Z" fill="#161A23"/>
<path d="M16.125 11.475C15.6375 11.475 15.2625 11.85 15.2625 12.3375C15.2625 12.7875 15.675 13.2 16.125 13.2C16.575 13.2 16.9875 12.825 16.9875 12.3375C16.95 11.85 16.575 11.475 16.125 11.475Z" fill="#161A23"/>
<path d="M19.7249 11.475C19.2374 11.475 18.8624 11.85 18.8624 12.3375C18.8624 12.7875 19.2749 13.2 19.7249 13.2C20.1749 13.2 20.5874 12.825 20.5874 12.3375C20.5874 11.85 20.2124 11.475 19.7249 11.475Z" fill="#161A23"/>
</svg>
