<svg width="24" height="24" viewBox="0 0 24 24" fill="none" xmlns="http://www.w3.org/2000/svg">
<path d="M18.3375 0.675049H5.66255C4.38755 0.675049 3.30005 1.72505 3.30005 3.03755V18.1875C3.30005 19.4625 4.35005 20.55 5.66255 20.55H9.45005L11.325 23.0625C11.475 23.2875 11.7375 23.4 12 23.4C12.2625 23.4 12.525 23.2875 12.675 23.0625L14.5875 20.55H18.375C19.65 20.55 20.7375 19.5 20.7375 18.1875V3.00005C20.7 1.72505 19.65 0.675049 18.3375 0.675049ZM19.0125 18.15C19.0125 18.525 18.7125 18.8251 18.3375 18.8251H14.1375C13.875 18.8251 13.6125 18.9375 13.4625 19.1625L12 21.0751L10.575 19.125C10.425 18.9 10.1625 18.7875 9.90005 18.7875H5.66255C5.28755 18.7875 4.98755 18.4875 4.98755 18.1125V3.00005C4.98755 2.62505 5.28755 2.32505 5.66255 2.32505H18.3375C18.7125 2.32505 19.0125 2.62505 19.0125 3.00005V18.15Z" fill="#161A23"/>
<path d="M10.4626 8.0625H13.5001C13.9501 8.0625 14.3626 7.6875 14.3626 7.2C14.3626 6.7125 13.9501 6.375 13.5001 6.375H10.4626C10.0126 6.375 9.6001 6.75 9.6001 7.2375C9.6001 7.725 9.9751 8.0625 10.4626 8.0625Z" fill="#161A23"/>
<path d="M15.075 9.71252H8.85005C8.40005 9.71252 7.98755 10.0875 7.98755 10.575C7.98755 11.0625 8.36255 11.4375 8.85005 11.4375H15.075C15.525 11.4375 15.9375 11.0625 15.9375 10.575C15.9375 10.0875 15.5625 9.71252 15.075 9.71252Z" fill="#161A23"/>
<path d="M13.5001 13.05H10.4626C10.0126 13.05 9.6001 13.425 9.6001 13.9125C9.6001 14.4 9.9751 14.775 10.4626 14.775H13.5001C13.9501 14.775 14.3626 14.4 14.3626 13.9125C14.3626 13.425 13.9501 13.05 13.5001 13.05Z" fill="#161A23"/>
</svg>
