<svg width="24" height="24" viewBox="0 0 24 24" fill="none" xmlns="http://www.w3.org/2000/svg">
<g clip-path="url(#clip0_501_49625)">
<path d="M20.9999 0.9375H2.99995C1.72495 0.9375 0.637451 1.9875 0.637451 3.3V15.45C0.637451 16.725 1.68745 17.8125 2.99995 17.8125H4.19995C3.82495 19.125 3.26245 21 2.73745 21.7875C2.51245 22.0875 2.54995 22.5 2.81245 22.8C2.96245 22.9875 3.22495 23.1 3.44995 23.1C3.56245 23.1 3.67495 23.0625 3.78745 23.025C5.43745 22.3125 8.84995 19.7625 10.3499 17.8125H20.9999C22.275 17.8125 23.3624 16.7625 23.3624 15.45V3.3C23.3624 1.9875 22.275 0.9375 20.9999 0.9375ZM21.6749 15.4125C21.6749 15.7875 21.3749 16.0875 20.9999 16.0875H9.89995C9.59995 16.0875 9.33745 16.2375 9.18745 16.4625C8.51245 17.475 6.82495 19.0125 5.24995 20.1375C5.58745 19.1625 5.88745 18.1125 6.11245 17.1375C6.18745 16.875 6.11245 16.6125 5.96245 16.425C5.81245 16.2 5.54995 16.0875 5.28745 16.0875H2.99995C2.62495 16.0875 2.32495 15.7875 2.32495 15.4125V3.3C2.36245 2.925 2.62495 2.625 2.99995 2.625H20.9999C21.3749 2.625 21.6749 2.925 21.6749 3.3V15.4125Z" fill="#161A23"/>
<path d="M7.19993 8.32495H7.16243C6.71243 8.32495 6.29993 8.69995 6.29993 9.18745C6.29993 9.67495 6.67493 10.05 7.16243 10.05H7.19993C7.64993 10.05 8.06243 9.67495 8.06243 9.18745C8.06243 8.69995 7.64993 8.32495 7.19993 8.32495Z" fill="#161A23"/>
<path d="M12.0375 8.32495H12C11.55 8.32495 11.1375 8.69995 11.1375 9.18745C11.1375 9.67495 11.5125 10.05 12 10.05H12.0375C12.4875 10.05 12.9 9.67495 12.9 9.18745C12.9 8.69995 12.4875 8.32495 12.0375 8.32495Z" fill="#161A23"/>
<path d="M16.8375 8.32495H16.8C16.35 8.32495 15.9375 8.69995 15.9375 9.18745C15.9375 9.67495 16.3125 10.05 16.8 10.05H16.8375C17.2875 10.05 17.7 9.67495 17.7 9.18745C17.7 8.69995 17.325 8.32495 16.8375 8.32495Z" fill="#161A23"/>
</g>
<defs>
<clipPath id="clip0_501_49625">
<rect width="24" height="24" fill="white"/>
</clipPath>
</defs>
</svg>
