<svg width="24" height="24" viewBox="0 0 24 24" fill="none" xmlns="http://www.w3.org/2000/svg">
<path d="M20.8875 4.27495C20.0625 3.52495 19.0125 3.07495 17.8875 3.03745C16.9875 1.57495 15.3 0.637451 13.3875 0.637451C11.475 0.637451 9.78745 1.57495 8.88745 3.03745C7.76245 3.07495 6.71245 3.52495 5.88745 4.27495C4.94995 5.13745 4.38745 6.41245 4.38745 7.68745C4.38745 9.37495 5.32495 10.95 6.82495 11.775C6.89995 13.2375 7.72495 14.5125 9.07495 15.225C9.71245 15.5625 10.35 15.7125 11.025 15.7125C11.775 15.7125 12.4875 15.525 13.1625 15.1125C14.3625 15.825 15.825 15.9 17.1375 15.2625C18.45 14.625 19.3125 13.425 19.4625 12C21.225 11.2875 22.3875 9.59995 22.3875 7.68745C22.3875 6.41245 21.825 5.17495 20.8875 4.27495ZM18.4125 10.575C18.0375 10.6875 17.775 11.025 17.775 11.4375C17.8125 12.45 17.2875 13.3125 16.3875 13.7625C15.675 14.1 14.5875 14.2125 13.6875 13.425C13.3875 13.1625 12.9 13.1625 12.6 13.425C11.6625 14.2125 10.575 14.1 9.86245 13.725C8.92495 13.2375 8.43745 12.3375 8.51245 11.325C8.54995 10.95 8.32495 10.6125 7.98745 10.4625C6.86245 10.0125 6.07495 8.88745 6.07495 7.68745C6.07495 6.86245 6.41245 6.07495 7.01245 5.51245C7.57495 4.98745 8.28745 4.72495 9.03745 4.72495C9.11245 4.72495 9.18745 4.72495 9.29995 4.72495C9.63745 4.76245 9.97495 4.53745 10.125 4.23745C10.65 3.07495 11.925 2.32495 13.35 2.32495C14.775 2.32495 16.05 3.07495 16.575 4.23745C16.725 4.57495 17.0625 4.76245 17.4 4.72495C18.2625 4.64995 19.05 4.94995 19.6875 5.51245C20.2875 6.07495 20.625 6.86245 20.625 7.68745C20.7 9.03745 19.7625 10.2375 18.4125 10.575Z" fill="#161A23"/>
<path d="M6.89993 16.2C5.73743 16.2 4.79993 17.1375 4.79993 18.3C4.79993 19.4625 5.73743 20.4 6.89993 20.4C8.06243 20.4 8.99993 19.4625 8.99993 18.3C8.99993 17.1375 8.06243 16.2 6.89993 16.2ZM6.89993 18.675C6.67493 18.675 6.48743 18.4875 6.48743 18.2625C6.48743 18.0375 6.67493 17.85 6.89993 17.85C7.12493 17.85 7.31243 18.0375 7.31243 18.2625C7.31243 18.525 7.12493 18.675 6.89993 18.675Z" fill="#161A23"/>
<path d="M10.1625 7.5H10.05C9.6 7.5 9.1875 7.875 9.1875 8.3625C9.1875 8.85 9.5625 9.225 10.05 9.225H10.1625C10.6125 9.225 11.025 8.85 11.025 8.3625C11.025 7.875 10.6125 7.5 10.1625 7.5Z" fill="#161A23"/>
<path d="M13.6875 7.5H13.575C13.125 7.5 12.7125 7.875 12.7125 8.3625C12.7125 8.85 13.0875 9.225 13.575 9.225H13.6875C14.1375 9.225 14.55 8.85 14.55 8.3625C14.55 7.875 14.1375 7.5 13.6875 7.5Z" fill="#161A23"/>
<path d="M3.22498 22.875C3.8463 22.875 4.34998 22.3713 4.34998 21.75C4.34998 21.1287 3.8463 20.625 3.22498 20.625C2.60366 20.625 2.09998 21.1287 2.09998 21.75C2.09998 22.3713 2.60366 22.875 3.22498 22.875Z" fill="#161A23"/>
<path d="M17.2124 7.5H17.0999C16.6499 7.5 16.2374 7.875 16.2374 8.3625C16.2374 8.85 16.6124 9.225 17.0999 9.225H17.2124C17.6624 9.225 18.0749 8.85 18.0749 8.3625C18.0749 7.875 17.6624 7.5 17.2124 7.5Z" fill="#161A23"/>
</svg>
