<svg width="24" height="24" viewBox="0 0 24 24" fill="none" xmlns="http://www.w3.org/2000/svg">
<path d="M21.7126 16.9125C21.1876 16.6875 20.8126 16.275 20.5876 15.7875C22.3501 14.55 23.3251 12.825 23.3251 10.9875C23.3251 8.9625 22.0876 7.0875 19.9876 5.8125C15.8625 3.375 8.10005 3.375 4.01255 5.8125C1.87505 7.05 0.675049 8.925 0.675049 10.95C0.675049 12.7875 1.65005 14.5125 3.41255 15.75C3.18755 16.2375 2.81255 16.65 2.28755 16.875C1.76255 17.1 1.42505 17.625 1.42505 18.1875C1.42505 18.75 1.76255 19.275 2.28755 19.5C3.00005 19.8375 3.71255 19.9875 4.46255 19.9875C6.15005 19.9875 7.76255 19.1625 8.73755 17.7C10.8375 18.0375 13.2 18.0375 15.3 17.7C16.6875 19.8 19.3876 20.5875 21.7501 19.5375C22.2751 19.3125 22.6126 18.7875 22.6126 18.225C22.5751 17.6625 22.2376 17.1375 21.7126 16.9125ZM16.4626 16.425C16.2751 16.0875 15.9376 15.9 15.5626 15.975C13.3876 16.3875 10.6501 16.3875 8.47505 15.975C8.10005 15.9 7.72505 16.0875 7.57505 16.425C6.82505 17.925 5.06255 18.675 3.48755 18.1875C4.42505 17.5875 5.10005 16.65 5.28755 15.525C5.36255 15.1875 5.17505 14.85 4.87505 14.6625C3.30005 13.725 2.40005 12.375 2.40005 10.95C2.40005 9.525 3.33755 8.175 4.91255 7.2375C8.51255 5.1 15.6 5.1 19.2001 7.2375C20.8126 8.175 21.7126 9.525 21.7126 10.95C21.7126 12.375 20.8125 13.725 19.2376 14.6625C18.9375 14.85 18.7875 15.1875 18.8251 15.525C19.0126 16.6125 19.6501 17.5875 20.6251 18.1875C18.975 18.675 17.2126 17.925 16.4626 16.425Z" fill="#161A23"/>
<path d="M16.6125 8.84998H7.38752C6.93752 8.84998 6.52502 9.22498 6.52502 9.71248C6.52502 10.2 6.90002 10.575 7.38752 10.575H16.65C17.1 10.575 17.5125 10.2 17.5125 9.71248C17.5125 9.22498 17.1 8.84998 16.6125 8.84998Z" fill="#161A23"/>
<path d="M16.6125 11.85H7.38752C6.93752 11.85 6.52502 12.225 6.52502 12.7125C6.52502 13.2 6.90002 13.575 7.38752 13.575H16.65C17.1 13.575 17.5125 13.2 17.5125 12.7125C17.5125 12.225 17.1 11.85 16.6125 11.85Z" fill="#161A23"/>
</svg>
