<svg width="24" height="24" viewBox="0 0 24 24" fill="none" xmlns="http://www.w3.org/2000/svg">
<path d="M23.025 11.3251L20.5124 9.41255V5.66255C20.5124 4.38755 19.4625 3.30005 18.15 3.30005H2.99995C1.72495 3.30005 0.637451 4.35005 0.637451 5.66255V18.3376C0.637451 19.6126 1.68745 20.7001 2.99995 20.7001H18.15C19.4249 20.7001 20.5124 19.6501 20.5124 18.3376V14.55L23.025 12.675C23.25 12.525 23.3624 12.2625 23.3624 12C23.3624 11.7375 23.2125 11.475 23.025 11.3251ZM19.1249 13.425C18.9 13.575 18.7874 13.8375 18.7874 14.1V18.3376C18.7874 18.7126 18.4874 19.0126 18.1124 19.0126H2.99995C2.62495 19.0126 2.32495 18.7126 2.32495 18.3376V5.66255C2.32495 5.28755 2.62495 4.98755 2.99995 4.98755H18.15C18.525 4.98755 18.8249 5.28755 18.8249 5.66255V9.86255C18.8249 10.125 18.9374 10.3875 19.1624 10.5375L21.1124 12L19.1249 13.425Z" fill="#161A23"/>
<path d="M8.99995 9.52505H12.0375C12.4875 9.52505 12.9 9.15005 12.9 8.66255C12.9 8.17505 12.525 7.80005 12.0375 7.80005H8.99995C8.54995 7.80005 8.13745 8.17505 8.13745 8.66255C8.13745 9.15005 8.54995 9.52505 8.99995 9.52505Z" fill="#161A23"/>
<path d="M13.65 11.175H7.425C6.975 11.175 6.5625 11.55 6.5625 12.0375C6.5625 12.4875 6.9375 12.9 7.425 12.9H13.65C14.1 12.9 14.5125 12.525 14.5125 12.0375C14.5125 11.55 14.1 11.175 13.65 11.175Z" fill="#161A23"/>
<path d="M12.075 14.5126H8.99995C8.54995 14.5126 8.13745 14.8876 8.13745 15.3751C8.13745 15.8626 8.51245 16.2376 8.99995 16.2376H12.0375C12.4875 16.2376 12.9 15.8626 12.9 15.3751C12.9 14.8876 12.525 14.5126 12.075 14.5126Z" fill="#161A23"/>
</svg>
