<svg width="24" height="24" viewBox="0 0 24 24" fill="none" xmlns="http://www.w3.org/2000/svg">
<path d="M12.0375 1.3125C5.55005 1.3125 0.675049 5.625 0.675049 11.4C0.675049 17.3625 5.81255 22.6125 11.6625 22.6875H13.5375C13.9125 22.6875 14.25 22.425 14.3625 22.05C14.475 21.675 14.2875 21.3 13.95 21.1125C13.0125 20.625 12.45 20.2125 12.075 19.8375C12.1125 19.8375 12.15 19.8375 12.1875 19.8375C15.3375 19.8375 18.3375 18.7875 20.5126 16.9125C22.3876 15.2625 23.4375 13.0875 23.4375 10.8C23.3625 5.55 18.2625 1.3125 12.0375 1.3125ZM19.3125 15.6375C17.1 17.55 13.6875 18.4875 10.3875 18.0375C10.05 18 9.75005 18.15 9.56255 18.4125C9.37505 18.675 9.37505 19.05 9.56255 19.3125C9.63755 19.425 9.67505 19.5 9.75005 19.6125C9.97505 19.9875 10.2 20.4 10.725 20.925C6.18755 20.4 2.36255 16.125 2.36255 11.4C2.36255 6.6 6.52505 3 12.0375 3C17.325 3 21.6376 6.4875 21.6376 10.7625C21.675 13.0875 20.3625 14.7 19.3125 15.6375Z" fill="#161A23"/>
<path d="M7.6125 8.36245H13.875C14.325 8.36245 14.7375 7.98745 14.7375 7.49995C14.7375 7.01245 14.3625 6.63745 13.875 6.63745H7.6125C7.1625 6.63745 6.75 7.01245 6.75 7.49995C6.75 7.98745 7.1625 8.36245 7.6125 8.36245Z" fill="#161A23"/>
<path d="M16.3875 9.67505H7.6125C7.1625 9.67505 6.75 10.05 6.75 10.5375C6.75 11.025 7.125 11.4 7.6125 11.4H16.35C16.8 11.4 17.2125 11.025 17.2125 10.5375C17.2125 10.05 16.8375 9.67505 16.3875 9.67505Z" fill="#161A23"/>
<path d="M15.375 13.2H7.6125C7.1625 13.2 6.75 13.575 6.75 14.0625C6.75 14.55 7.125 14.925 7.6125 14.925H15.375C15.825 14.925 16.2375 14.55 16.2375 14.0625C16.2375 13.575 15.825 13.2 15.375 13.2Z" fill="#161A23"/>
</svg>
