<svg width="24" height="24" viewBox="0 0 24 24" fill="none" xmlns="http://www.w3.org/2000/svg">
<path d="M18.7875 15.5251C18.7875 15.1501 18.7501 14.8125 18.6376 14.475C19.8376 12.975 20.475 11.1 20.475 9.18755C20.5126 4.46255 16.6876 0.675049 12 0.675049C7.31255 0.675049 3.48755 4.46255 3.48755 9.15005C3.48755 11.475 4.42505 13.6501 6.07505 15.2626C7.61255 16.7626 9.63755 17.5875 11.7375 17.6625C11.9625 18 12.2625 18.3375 12.6 18.6C13.275 19.125 14.1 19.3876 14.8876 19.3876C15.4876 19.3876 16.05 19.2376 16.6125 18.975C18 18.3001 18.7875 16.9876 18.7875 15.5251ZM15.9376 17.4375C15.1875 17.8125 14.3251 17.7376 13.6875 17.25C13.425 17.0251 13.2 16.7626 13.05 16.4626C12.9 16.1626 12.6 15.975 12.3 15.975H12.2626C10.3875 16.05 8.62505 15.3751 7.31255 14.0626C5.96255 12.7501 5.21255 11.0251 5.21255 9.15005C5.21255 5.40005 8.28755 2.32505 12.0375 2.32505C15.7875 2.32505 18.8625 5.40005 18.8625 9.15005C18.8625 10.8376 18.225 12.45 17.1 13.725C16.875 13.9875 16.8376 14.3251 16.9501 14.6251C17.0626 14.8876 17.1376 15.1876 17.1376 15.5251C17.1001 16.3501 16.6876 17.0625 15.9376 17.4375Z" fill="#161A23"/>
<path d="M18 19.05C16.8 19.05 15.8625 20.025 15.8625 21.1875C15.8625 22.3875 16.8375 23.325 18 23.325C19.2 23.325 20.1375 22.35 20.1375 21.1875C20.1375 19.9875 19.1625 19.05 18 19.05ZM18 21.675C17.7375 21.675 17.55 21.45 17.55 21.225C17.55 21 17.775 20.775 18 20.775C18.225 20.775 18.45 21 18.45 21.225C18.45 21.45 18.225 21.675 18 21.675Z" fill="#161A23"/>
<path d="M15.0001 5.40002H9.37507C8.92507 5.40002 8.51257 5.77502 8.51257 6.26252C8.51257 6.75002 8.88757 7.12502 9.37507 7.12502H15.0001C15.4501 7.12502 15.8626 6.75002 15.8626 6.26252C15.8626 5.77502 15.4501 5.40002 15.0001 5.40002Z" fill="#161A23"/>
<path d="M15.0001 8.4375H9.37507C8.92507 8.4375 8.51257 8.8125 8.51257 9.3C8.51257 9.7875 8.88757 10.1625 9.37507 10.1625H15.0001C15.4501 10.1625 15.8626 9.7875 15.8626 9.3C15.8626 8.8125 15.4501 8.4375 15.0001 8.4375Z" fill="#161A23"/>
<path d="M15.0001 11.4751H9.37507C8.92507 11.4751 8.51257 11.8501 8.51257 12.3376C8.51257 12.7876 8.88757 13.2001 9.37507 13.2001H15.0001C15.4501 13.2001 15.8626 12.8251 15.8626 12.3376C15.8251 11.8501 15.4501 11.4751 15.0001 11.4751Z" fill="#161A23"/>
</svg>
