<svg width="24" height="24" viewBox="0 0 24 24" fill="none" xmlns="http://www.w3.org/2000/svg">
<path d="M21.0751 10.725H20.2125V3.5625C20.2125 2.325 19.2001 1.3125 17.9625 1.3125H7.95005C6.71255 1.3125 5.70005 2.325 5.70005 3.5625V6.75H2.92505C1.68755 6.75 0.675049 7.7625 0.675049 9V14.4C0.675049 15.6375 1.68755 16.65 2.92505 16.65H3.22505V17.8125C3.22505 18.1125 3.41255 18.4125 3.67505 18.5625C3.78755 18.6375 3.93755 18.6375 4.05005 18.6375C4.23755 18.6375 4.38755 18.6 4.53755 18.4875L7.12505 16.6125H8.81255V18.3375C8.81255 19.575 9.82505 20.5875 11.0625 20.5875H16.875L19.4625 22.4625C19.6125 22.575 19.8 22.6125 19.9501 22.6125C20.0625 22.6125 20.2125 22.575 20.3251 22.5375C20.625 22.3875 20.775 22.0875 20.775 21.7875V20.625H21.0751C22.3125 20.625 23.3251 19.6125 23.3251 18.375V12.975C23.3625 11.7375 22.3125 10.725 21.0751 10.725ZM7.38755 3.5625C7.38755 3.2625 7.65005 3 7.95005 3H17.9625C18.2626 3 18.525 3.2625 18.525 3.5625V10.725H15.1875V9C15.1875 7.7625 14.175 6.75 12.9375 6.75H7.38755V3.5625ZM6.86255 15C6.67505 15 6.52505 15.075 6.37505 15.15L4.91255 16.2V15.825C4.91255 15.375 4.53755 14.9625 4.05005 14.9625H2.92505C2.62505 14.9625 2.36255 14.7 2.36255 14.4V9C2.36255 8.7 2.62505 8.4375 2.92505 8.4375H12.9375C13.2375 8.4375 13.5 8.7 13.5 9V14.4C13.5 14.7 13.2375 14.9625 12.9375 14.9625H6.86255V15ZM21.675 18.4125C21.675 18.7125 21.4125 18.975 21.1125 18.975H19.9501C19.5 18.975 19.0875 19.35 19.0875 19.8375V20.2125L17.625 19.1625C17.475 19.05 17.3251 19.0125 17.1376 19.0125H11.0625C10.7625 19.0125 10.5 18.75 10.5 18.45V16.725H12.9375C14.175 16.725 15.1875 15.7125 15.1875 14.475V12.45H21.0751C21.375 12.45 21.6376 12.7125 21.6376 13.0125V18.4125H21.675Z" fill="#161A23"/>
<path d="M9.60005 4.34998C9.11255 4.34998 8.73755 4.72498 8.73755 5.21248C8.73755 5.69998 9.15005 6.07498 9.60005 6.07498C10.05 6.07498 10.4625 5.69998 10.4625 5.21248C10.4625 4.72498 10.0875 4.34998 9.60005 4.34998Z" fill="#161A23"/>
<path d="M13.9501 5.175C13.9501 4.725 13.5751 4.3125 13.0876 4.3125H13.0501C12.6001 4.3125 12.2251 4.6875 12.2251 5.175C12.2251 5.6625 12.6376 6.0375 13.0876 6.0375C13.5376 6.0375 13.9501 5.6625 13.9501 5.175Z" fill="#161A23"/>
<path d="M16.6125 6.0375C17.0625 6.0375 17.475 5.6625 17.475 5.175C17.475 4.6875 17.1 4.3125 16.6125 4.3125H16.575C16.125 4.3125 15.75 4.6875 15.75 5.175C15.75 5.6625 16.125 6.0375 16.6125 6.0375Z" fill="#161A23"/>
<path d="M4.425 10.725C3.9375 10.725 3.5625 11.1 3.5625 11.5875C3.5625 12.075 3.975 12.45 4.425 12.45C4.875 12.45 5.2875 12.075 5.2875 11.5875C5.2875 11.1 4.9125 10.725 4.425 10.725Z" fill="#161A23"/>
<path d="M7.95002 10.725C7.46252 10.725 7.08752 11.1 7.08752 11.5875C7.08752 12.075 7.50002 12.45 7.95002 12.45C8.40002 12.45 8.81252 12.075 8.81252 11.5875C8.81252 11.1 8.40002 10.725 7.95002 10.725Z" fill="#161A23"/>
<path d="M11.4376 10.725C10.9501 10.725 10.5751 11.1 10.5751 11.5875C10.5751 12.075 10.9876 12.45 11.4376 12.45C11.8876 12.45 12.3001 12.075 12.3001 11.5875C12.3001 11.1 11.8876 10.725 11.4376 10.725Z" fill="#161A23"/>
<path d="M16.6125 14.7C16.125 14.7 15.75 15.075 15.75 15.5625C15.75 16.05 16.1625 16.425 16.6125 16.425C17.0625 16.425 17.475 16.05 17.475 15.5625C17.475 15.075 17.1 14.7 16.6125 14.7Z" fill="#161A23"/>
<path d="M20.1375 14.7C19.65 14.7 19.275 15.075 19.275 15.5625C19.275 16.05 19.6875 16.425 20.1375 16.425C20.5875 16.425 21 16.05 21 15.5625C21 15.075 20.5875 14.7 20.1375 14.7Z" fill="#161A23"/>
</svg>
