<svg width="24" height="24" viewBox="0 0 24 24" fill="none" xmlns="http://www.w3.org/2000/svg">
<path d="M20.5125 1.38755C20.0625 0.937549 19.4625 0.675049 18.825 0.675049H5.1375C4.5 0.675049 3.9 0.937549 3.45 1.38755C3 1.83755 2.8125 2.47505 2.85 3.11255L3.75 17.55C3.825 18.75 4.8375 19.725 6.0375 19.725H9.45L11.2875 22.9501C11.4375 23.2125 11.7 23.3625 12.0375 23.3625C12.375 23.3625 12.6375 23.2125 12.7875 22.9501L14.625 19.725H18.0375C19.2375 19.725 20.25 18.7875 20.325 17.55L21.225 3.11255C21.1875 2.47505 20.9625 1.83755 20.5125 1.38755ZM18.5625 17.4375C18.525 17.775 18.2625 18 17.9625 18H14.0625C13.7625 18 13.4625 18.15 13.3125 18.4125L12 20.775L10.6875 18.4125C10.5375 18.15 10.275 18 9.9375 18H6.0375C5.7 18 5.4375 17.7375 5.4375 17.4375L4.5375 3.00005C4.5375 2.81255 4.575 2.66255 4.6875 2.55005C4.8 2.43755 4.95 2.36255 5.1375 2.36255H18.825C19.0125 2.36255 19.1625 2.43755 19.275 2.55005C19.3875 2.66255 19.4625 2.85005 19.425 3.00005L18.5625 17.4375Z" fill="#161A23"/>
<path d="M12 5.8501C11.55 5.8501 11.1375 6.2251 11.1375 6.7126V10.8376C11.1375 11.2876 11.5125 11.7001 12 11.7001C12.45 11.7001 12.8625 11.3251 12.8625 10.8376V6.7126C12.8625 6.2251 12.45 5.8501 12 5.8501Z" fill="#161A23"/>
<path d="M12 13.8376C11.55 13.8376 11.1375 14.2126 11.1375 14.7001V14.8126C11.1375 15.2626 11.5125 15.6751 12 15.6751C12.45 15.6751 12.8625 15.3001 12.8625 14.8126V14.7001C12.8625 14.2126 12.45 13.8376 12 13.8376Z" fill="#161A23"/>
</svg>
