<svg width="24" height="24" viewBox="0 0 24 24" fill="none" xmlns="http://www.w3.org/2000/svg">
<path d="M3.07498 22.5C3.5099 22.5 3.86248 22.1475 3.86248 21.7125C3.86248 21.2776 3.5099 20.925 3.07498 20.925C2.64005 20.925 2.28748 21.2776 2.28748 21.7125C2.28748 22.1475 2.64005 22.5 3.07498 22.5Z" fill="#161A23"/>
<path d="M21 4.42505C20.1375 3.63755 19.0125 3.18755 17.8875 3.15005C16.95 1.61255 15.1875 0.675049 13.2375 0.675049C11.2875 0.675049 9.4875 1.65005 8.5875 3.15005C7.425 3.18755 6.3 3.63755 5.475 4.42505C4.5 5.32505 3.9375 6.63755 3.9375 7.95005C3.9375 9.71255 4.95 11.325 6.45 12.1875C6.525 13.725 7.3875 15.075 8.775 15.7875C9.4125 16.125 10.125 16.275 10.8 16.275C11.5875 16.275 12.3375 16.05 13.0125 15.6375C14.25 16.3875 15.7875 16.4625 17.1375 15.825C18.4875 15.15 19.3875 13.9125 19.5375 12.45C21.375 11.7375 22.575 9.97505 22.575 7.98755C22.575 6.63755 22.0125 5.36255 21 4.42505ZM18.4875 11.025C18.1125 11.1375 17.85 11.475 17.85 11.8875C17.8875 12.975 17.325 13.875 16.35 14.3625C15.6 14.7375 14.475 14.8125 13.5 14.025C13.2 13.7625 12.7125 13.7625 12.4125 14.025C11.4375 14.85 10.275 14.7375 9.4875 14.325C8.7375 13.95 7.95 13.05 8.0625 11.775C8.1 11.4 7.875 11.0625 7.5375 10.9125C6.3375 10.425 5.55 9.26255 5.55 7.98755C5.55 7.12505 5.925 6.30005 6.5625 5.70005C7.1625 5.13755 7.9125 4.83755 8.7 4.83755C8.775 4.83755 8.8875 4.83755 8.9625 4.83755C9.3 4.87505 9.6375 4.65005 9.7875 4.35005C10.35 3.11255 11.6625 2.32505 13.1625 2.32505C14.6625 2.32505 16.0125 3.11255 16.5375 4.35005C16.6875 4.68755 17.025 4.87505 17.3625 4.83755C18.2625 4.76255 19.125 5.06255 19.7625 5.66255C20.4 6.26255 20.775 7.08755 20.775 7.95005C20.8875 9.41255 19.875 10.65 18.4875 11.025Z" fill="#161A23"/>
<path d="M6.45 16.875C5.25 16.875 4.3125 17.85 4.3125 19.0125C4.3125 20.2125 5.2875 21.15 6.45 21.15C7.6125 21.15 8.5875 20.175 8.5875 19.0125C8.5875 17.85 7.65 16.875 6.45 16.875ZM6.45 19.5C6.1875 19.5 6 19.3125 6 19.05C6 18.7875 6.1875 18.6 6.45 18.6C6.7125 18.6 6.9 18.7875 6.9 19.05C6.9 19.3125 6.7125 19.5 6.45 19.5Z" fill="#161A23"/>
<path d="M15.6375 6.30005H10.8375C10.3875 6.30005 9.97498 6.67505 9.97498 7.16255C9.97498 7.65005 10.35 8.02505 10.8375 8.02505H15.6375C16.0875 8.02505 16.5 7.65005 16.5 7.16255C16.5 6.67505 16.0875 6.30005 15.6375 6.30005Z" fill="#161A23"/>
<path d="M15.6375 9.45007H10.8375C10.3875 9.45007 9.97498 9.82507 9.97498 10.3126C9.97498 10.8001 10.35 11.1751 10.8375 11.1751H15.6375C16.0875 11.1751 16.5 10.8001 16.5 10.3126C16.5 9.82507 16.0875 9.45007 15.6375 9.45007Z" fill="#161A23"/>
</svg>
