<svg width="24" height="24" viewBox="0 0 24 24" fill="none" xmlns="http://www.w3.org/2000/svg">
<path d="M19.1625 6.3749C18.075 3.3749 15.225 1.2749 11.9625 1.2749C8.70005 1.2749 5.81255 3.3374 4.76255 6.3749C2.40005 6.8999 0.675049 8.9999 0.675049 11.4374C0.675049 14.2499 2.96255 16.5749 5.81255 16.5749H6.71255C6.07505 17.5499 5.02505 18.7874 3.22505 20.0624C2.70005 20.4374 2.47505 21.1124 2.70005 21.7499C2.92505 22.3499 3.45005 22.6874 4.05005 22.6874C4.08755 22.6874 4.12505 22.6874 4.20005 22.6874C7.31255 22.3874 10.0125 21.0749 11.9625 18.8999C12.75 18.0374 13.2375 17.1749 13.575 16.5374H18.2626C21.0751 16.5374 23.4 14.2499 23.4 11.3999C23.3625 8.9249 21.5625 6.8249 19.1625 6.3749ZM18.225 14.8499H12.975C12.6375 14.8499 12.3375 15.0374 12.1875 15.3749C11.9625 15.8624 11.5125 16.7999 10.6125 17.7749C9.15005 19.4249 7.16255 20.5124 4.83755 20.8874C7.35005 18.9374 8.40005 17.0249 8.85005 16.0124C8.96255 15.7499 8.92505 15.4499 8.77505 15.2249C8.62505 14.9999 8.36255 14.8499 8.06255 14.8499H5.73755C3.82505 14.8499 2.28755 13.3124 2.28755 11.3999C2.28755 9.6374 3.67505 8.1374 5.43755 7.9874C5.77505 7.9499 6.07505 7.7249 6.18755 7.3499C6.90005 4.7624 9.22505 2.9624 11.925 2.9624C14.625 2.9624 16.95 4.7624 17.6625 7.3499C17.775 7.6874 18.075 7.9499 18.4125 7.9874C20.2125 8.0999 21.6 9.6374 21.6 11.4374C21.675 13.3124 20.1 14.8499 18.225 14.8499Z" fill="#161A23"/>
<path d="M7.20005 9.7124H7.16255C6.71255 9.7124 6.30005 10.0874 6.30005 10.5749C6.30005 11.0624 6.67505 11.4374 7.16255 11.4374H7.20005C7.65005 11.4374 8.06255 11.0624 8.06255 10.5749C8.06255 10.0874 7.65005 9.7124 7.20005 9.7124Z" fill="#161A23"/>
<path d="M12.0376 9.7124H12.0001C11.5501 9.7124 11.1376 10.0874 11.1376 10.5749C11.1376 11.0624 11.5126 11.4374 12.0001 11.4374H12.0376C12.4876 11.4374 12.9001 11.0624 12.9001 10.5749C12.9001 10.0874 12.4876 9.7124 12.0376 9.7124Z" fill="#161A23"/>
<path d="M16.8375 9.7124H16.8C16.35 9.7124 15.9375 10.0874 15.9375 10.5749C15.9375 11.0624 16.3125 11.4374 16.8 11.4374H16.8375C17.2875 11.4374 17.7 11.0624 17.7 10.5749C17.7 10.0874 17.325 9.7124 16.8375 9.7124Z" fill="#161A23"/>
</svg>
