<svg width="24" height="24" viewBox="0 0 24 24" fill="none" xmlns="http://www.w3.org/2000/svg">
<path d="M23.3625 6.8626C23.3625 4.0126 20.775 1.7251 17.5875 1.7251C15.1875 1.7251 13.05 3.0751 12.225 4.9876C9.26252 4.3876 6.18752 5.0626 3.90002 6.8251C1.83752 8.4001 0.712524 10.5751 0.712524 13.0126C0.712524 14.8501 1.42502 16.6126 2.70002 18.0751C2.47502 18.5626 2.10002 18.9376 1.61252 19.1626C1.08752 19.3876 0.750024 19.9126 0.750024 20.4751C0.750024 21.0376 1.08752 21.5626 1.61252 21.7876C2.25002 22.1251 2.96252 22.2751 3.67502 22.2751C4.98752 22.2751 6.26252 21.7876 7.23752 20.8501C10.8 21.8626 14.6625 20.9251 17.175 18.4501C19.0875 16.5751 19.9125 14.1376 19.425 11.7376C21.75 11.0251 23.3625 9.1126 23.3625 6.8626ZM18.3 10.2751C18.075 10.3126 17.85 10.4626 17.7 10.6501C17.55 10.8376 17.55 11.1001 17.625 11.3626C18.2625 13.4626 17.7 15.6001 16.0125 17.2501C13.8 19.4251 10.3875 20.1376 7.27502 19.0876C6.93752 18.9751 6.60002 19.0876 6.37502 19.3501C5.47502 20.4001 4.05002 20.8126 2.73752 20.4376C3.60002 19.9126 4.20002 19.0501 4.46252 18.0751C4.53752 17.7751 4.46252 17.4751 4.23752 17.2876C3.03752 16.1251 2.36252 14.5876 2.36252 13.0501C2.36252 11.1751 3.26252 9.4501 4.91252 8.2126C6.97502 6.6376 9.93752 6.1126 12.5625 6.8251C12.7875 6.9001 13.0125 6.8626 13.2 6.7501C13.3875 6.6376 13.5375 6.4501 13.575 6.2251C13.95 4.6126 15.6375 3.4501 17.5875 3.4501C19.8375 3.4501 21.675 4.9876 21.675 6.9001C21.675 8.5501 20.25 9.9751 18.3 10.2751Z" fill="#161A23"/>
<path d="M6.22502 11.8877H6.07502C5.62502 11.8877 5.21252 12.2627 5.21252 12.7502C5.21252 13.2377 5.58752 13.6127 6.07502 13.6127H6.22502C6.67502 13.6127 7.08752 13.2377 7.08752 12.7502C7.08752 12.2627 6.71252 11.8877 6.22502 11.8877Z" fill="#161A23"/>
<path d="M10.2375 11.8877H10.0875C9.63748 11.8877 9.22498 12.2627 9.22498 12.7502C9.22498 13.2377 9.59998 13.6127 10.0875 13.6127H10.2375C10.6875 13.6127 11.1 13.2377 11.1 12.7502C11.1 12.2627 10.6875 11.8877 10.2375 11.8877Z" fill="#161A23"/>
<path d="M14.25 11.8877H14.1C13.65 11.8877 13.2375 12.2627 13.2375 12.7502C13.2375 13.2377 13.6125 13.6127 14.1 13.6127H14.25C14.7 13.6127 15.1125 13.2377 15.1125 12.7502C15.1125 12.2627 14.7 11.8877 14.25 11.8877Z" fill="#161A23"/>
</svg>
