<svg width="24" height="24" viewBox="0 0 24 24" fill="none" xmlns="http://www.w3.org/2000/svg">
<path d="M20.7 7.05005H19.425V2.96255C19.425 1.68755 18.4125 0.675049 17.1375 0.675049H3.29995C2.02495 0.675049 1.01245 1.68755 1.01245 2.96255V10.425C1.01245 11.7 2.02495 12.7126 3.29995 12.7126H4.57495V16.8001C4.57495 18.0751 5.58745 19.0876 6.86245 19.0876H8.77495V22.5001C8.77495 22.8376 8.96245 23.1376 9.26245 23.2501C9.37495 23.2875 9.48745 23.3251 9.59995 23.3251C9.78745 23.3251 9.97495 23.2501 10.1625 23.1376L14.8875 19.0876H20.6625C21.9375 19.0876 22.95 18.0751 22.95 16.8001V9.33755C22.9875 8.06255 21.975 7.05005 20.7 7.05005ZM3.29995 11.0251C2.96245 11.0251 2.69995 10.7625 2.69995 10.425V2.96255C2.69995 2.62505 2.96245 2.36255 3.29995 2.36255H17.1375C17.475 2.36255 17.7375 2.62505 17.7375 2.96255V10.9875H16.5375C16.0875 10.9875 15.7125 11.3625 15.7125 11.85V13.425L13.125 11.2126C12.975 11.1 12.7875 11.0251 12.5625 11.0251H3.29995ZM21.3 16.8001C21.3 17.1376 21.0375 17.4001 20.7 17.4001H14.5875C14.4 17.4001 14.175 17.4751 14.025 17.5876L10.425 20.6625V18.225C10.425 17.775 10.05 17.3626 9.56245 17.3626H6.82495C6.48745 17.3626 6.22495 17.1 6.22495 16.7626V12.7126H12.225L15.9375 15.9001C16.0875 16.0501 16.275 16.0876 16.5 16.0876C16.6125 16.0876 16.725 16.0501 16.8375 16.0126C17.1375 15.8626 17.325 15.5626 17.325 15.2626V12.7126H18.525C18.975 12.7126 19.35 12.3376 19.35 11.8876V8.77505H20.625C20.9625 8.77505 21.225 9.03755 21.225 9.37505V16.8001H21.3Z" fill="#161A23"/>
<path d="M6.11248 6.45015C6.11248 6.00015 5.73748 5.58765 5.24998 5.58765H5.21248C4.76248 5.58765 4.34998 5.96265 4.34998 6.45015C4.34998 6.93765 4.72498 7.31265 5.21248 7.31265H5.24998C5.73748 7.27515 6.11248 6.90015 6.11248 6.45015Z" fill="#161A23"/>
<path d="M10.05 7.27505H10.0875C10.5375 7.27505 10.95 6.90005 10.95 6.41255C10.95 5.92505 10.575 5.55005 10.0875 5.55005H10.05C9.6 5.55005 9.1875 5.92505 9.1875 6.41255C9.1875 6.90005 9.5625 7.27505 10.05 7.27505Z" fill="#161A23"/>
<path d="M14.8874 7.27505H14.9249C15.3749 7.27505 15.7874 6.90005 15.7874 6.41255C15.7874 5.92505 15.4124 5.55005 14.9249 5.55005H14.8874C14.4374 5.55005 14.0249 5.92505 14.0249 6.41255C14.0249 6.90005 14.3999 7.27505 14.8874 7.27505Z" fill="#161A23"/>
</svg>
