<svg width="24" height="24" viewBox="0 0 24 24" fill="none" xmlns="http://www.w3.org/2000/svg">
<path d="M20.4 5.73755C18.975 2.66255 15.75 0.675049 12.225 0.675049C7.4625 0.675049 3.375 4.08755 2.7 8.66255C1.9875 13.425 4.9125 17.8501 9.4875 19.0876L10.7625 22.4626C10.95 22.9876 11.4375 23.3251 12 23.3251C12.5625 23.3251 13.05 22.9876 13.2375 22.4626L14.5125 19.0876C17.1 18.3751 19.2375 16.6125 20.4375 14.175C21.7125 11.55 21.7125 8.55005 20.4 5.73755ZM18.9 13.4626C17.85 15.5626 15.975 17.0626 13.6875 17.5876C13.425 17.6626 13.2 17.85 13.0875 18.1126L12 21.0001L10.9125 18.0751C10.8 17.8126 10.575 17.625 10.3125 17.5501C6.3375 16.6501 3.7875 12.9376 4.3875 8.88755C4.9125 5.13755 8.2875 2.32505 12.225 2.32505C15.1125 2.32505 17.7375 3.93755 18.9 6.45005C19.9875 8.81255 19.9875 11.2876 18.9 13.4626Z" fill="#161A23"/>
<path d="M14.925 5.88745H9.07502C8.62502 5.88745 8.21252 6.26245 8.21252 6.74995C8.21252 7.23745 8.58752 7.61245 9.07502 7.61245H14.8875C15.3375 7.61245 15.75 7.23745 15.75 6.74995C15.75 6.26245 15.375 5.88745 14.925 5.88745Z" fill="#161A23"/>
<path d="M14.925 9.0376H9.07502C8.62502 9.0376 8.21252 9.4126 8.21252 9.9001C8.21252 10.3876 8.58752 10.7626 9.07502 10.7626H14.8875C15.3375 10.7626 15.75 10.3876 15.75 9.9001C15.75 9.4126 15.375 9.0376 14.925 9.0376Z" fill="#161A23"/>
<path d="M14.925 11.9626H9.07502C8.62502 11.9626 8.21252 12.3376 8.21252 12.8251C8.21252 13.3126 8.58752 13.6876 9.07502 13.6876H14.8875C15.3375 13.6876 15.75 13.3126 15.75 12.8251C15.75 12.3376 15.375 11.9626 14.925 11.9626Z" fill="#161A23"/>
</svg>
