<svg width="24" height="24" viewBox="0 0 24 24" fill="none" xmlns="http://www.w3.org/2000/svg">
<path d="M23.0625 18.9749C22.6125 18.5999 21.7125 17.8499 21 17.2874C22.0875 15.9374 22.575 14.2874 22.3125 12.6749C22.0125 10.6499 20.625 8.8499 18.4875 7.7249C17.1 5.1749 13.9875 3.5249 10.4625 3.5249C5.62498 3.5249 1.72498 6.6374 1.72498 10.4999C1.72498 11.8499 2.21248 13.1624 3.11248 14.2499C2.32498 14.8874 1.34998 15.6749 1.01248 15.9374C0.749982 16.1624 0.637482 16.5374 0.749982 16.8749C0.862482 17.2124 1.12498 17.4374 1.49998 17.4374H6.41248C8.02498 19.3499 10.6875 20.4749 13.65 20.4749H22.5C22.8375 20.4749 23.175 20.2499 23.2875 19.9124C23.4 19.5749 23.325 19.1999 23.0625 18.9749ZM4.91248 13.7249C3.93748 12.7874 3.41248 11.6624 3.41248 10.4999C3.41248 7.5749 6.56248 5.2124 10.4625 5.2124C13.425 5.2124 16.125 6.6374 17.1 8.6999C17.1 8.7374 18.4125 11.4374 15.1125 14.1374C13.7625 15.1499 11.5875 15.7499 9.14998 15.7499H6.82498H6.78748H3.86248C4.23748 15.4499 4.57498 15.1874 4.79998 14.9999C4.98748 14.8499 5.09998 14.6249 5.09998 14.3624C5.17498 14.1374 5.06248 13.9124 4.91248 13.7249ZM19.2375 18.0374C19.4625 18.2249 19.8 18.4874 20.175 18.7874H13.65C11.8875 18.7874 10.2375 18.2999 8.96248 17.4374H9.18748C10.8375 17.4374 13.9125 17.1749 16.2 15.4499C18.4125 13.6499 19.0875 11.6999 19.0875 10.1249C19.95 10.9124 20.5125 11.8499 20.6625 12.8999C20.85 14.2874 20.3625 15.6374 19.2 16.7249C19.0125 16.8749 18.9375 17.1374 18.9375 17.3624C18.9375 17.6624 19.05 17.8874 19.2375 18.0374Z" fill="#161A23"/>
<path d="M6.4875 11.3625H6.525C6.975 11.3625 7.3875 10.9875 7.3875 10.5C7.3875 10.0125 7.0125 9.63745 6.525 9.63745H6.4875C6.0375 9.63745 5.625 10.0125 5.625 10.5C5.625 10.9875 6 11.3625 6.4875 11.3625Z" fill="#161A23"/>
<path d="M10.4625 11.3625H10.5C10.95 11.3625 11.3625 10.9875 11.3625 10.5C11.3625 10.0125 10.9875 9.63745 10.5 9.63745H10.4625C10.0125 9.63745 9.59998 10.0125 9.59998 10.5C9.59998 10.9875 10.0125 11.3625 10.4625 11.3625Z" fill="#161A23"/>
<path d="M14.4749 11.3625H14.5124C14.9624 11.3625 15.3749 10.9875 15.3749 10.5C15.3749 10.0125 14.9999 9.63745 14.5124 9.63745H14.4749C14.0249 9.63745 13.6124 10.0125 13.6124 10.5C13.6124 10.9875 14.0249 11.3625 14.4749 11.3625Z" fill="#161A23"/>
</svg>
