<svg width="24" height="24" viewBox="0 0 24 24" fill="none" xmlns="http://www.w3.org/2000/svg">
<g clip-path="url(#clip0_501_49582)">
<path d="M20.8124 9.86255H16.3124V3.41255C16.3124 2.02505 15.1875 0.862549 13.7625 0.862549H3.18745C1.79995 0.862549 0.637451 1.98755 0.637451 3.41255V13.875C0.637451 14.2125 0.824951 14.5125 1.16245 14.6625C1.46245 14.775 1.83745 14.7375 2.06245 14.475L3.67495 12.9H7.64995V18.8251C7.64995 20.2125 8.77495 21.375 10.2 21.375H20.2874L21.9 22.9501C22.0499 23.1 22.275 23.175 22.4999 23.175C22.6124 23.175 22.7249 23.1375 22.8375 23.1C23.1374 22.95 23.3624 22.65 23.3624 22.3125V12.4125C23.3624 11.025 22.1999 9.86255 20.8124 9.86255ZM8.39995 10.6125C8.24995 10.7625 8.09995 10.95 7.98745 11.175H3.59995C3.22495 11.175 2.88745 11.325 2.62495 11.5875L2.36245 11.85V3.41255C2.36245 2.92505 2.73745 2.55005 3.22495 2.55005H13.7999C14.2874 2.55005 14.6624 2.92505 14.6624 3.41255V9.90005H10.2C9.52495 9.86255 8.88745 10.125 8.39995 10.6125ZM21.6749 20.2875L21.4124 20.025C21.1499 19.7626 20.8124 19.6125 20.4374 19.6125H10.2C9.71245 19.6125 9.33745 19.2375 9.33745 18.75V12.375C9.33745 12.15 9.41245 11.925 9.59995 11.775C9.74995 11.625 9.97495 11.5125 10.2 11.5125H17.775H20.775C21.2624 11.5125 21.6374 11.8875 21.6374 12.375V20.2875H21.6749Z" fill="#161A23"/>
<path d="M6.03743 5.73745H11.0249C11.4749 5.73745 11.8874 5.36245 11.8874 4.87495C11.8874 4.38745 11.5124 4.01245 11.0249 4.01245H6.03743C5.58743 4.01245 5.17493 4.38745 5.17493 4.87495C5.17493 5.36245 5.54993 5.73745 6.03743 5.73745Z" fill="#161A23"/>
<path d="M11.8499 7.8C11.8499 7.35 11.4749 6.9375 10.9874 6.9375H6.03743C5.58743 6.9375 5.17493 7.3125 5.17493 7.8C5.17493 8.2875 5.54993 8.6625 6.03743 8.6625H11.0249C11.4749 8.6625 11.8499 8.2875 11.8499 7.8Z" fill="#161A23"/>
<path d="M18.1499 13.125H13.1624C12.7124 13.125 12.2999 13.5 12.2999 13.9875C12.2999 14.475 12.6749 14.85 13.1624 14.85H18.1499C18.5999 14.85 19.0124 14.475 19.0124 13.9875C19.0124 13.5 18.6374 13.125 18.1499 13.125Z" fill="#161A23"/>
<path d="M18.1499 16.2751H13.1624C12.7124 16.2751 12.2999 16.6501 12.2999 17.1376C12.2999 17.6251 12.6749 18.0001 13.1624 18.0001H18.1499C18.5999 18.0001 19.0124 17.6251 19.0124 17.1376C19.0124 16.6501 18.6374 16.2751 18.1499 16.2751Z" fill="#161A23"/>
</g>
<defs>
<clipPath id="clip0_501_49582">
<rect width="24" height="24" fill="white"/>
</clipPath>
</defs>
</svg>
