<svg width="24" height="24" viewBox="0 0 24 24" fill="none" xmlns="http://www.w3.org/2000/svg">
<g clip-path="url(#clip0_501_49666)">
<path d="M21.1875 2.3626L3.26252 0.675101C2.58752 0.600101 1.95002 0.825101 1.46252 1.2751C0.975024 1.7251 0.712524 2.3626 0.712524 3.0001V18.2626C0.712524 18.9376 1.01252 19.5751 1.50002 20.0251C2.02502 20.4751 2.66252 20.6626 3.33752 20.5876L13.2 19.2751C13.4625 19.2376 13.725 19.3876 13.875 19.6126L15.4875 22.6501C15.7125 23.1001 16.1625 23.3626 16.6875 23.3626C16.725 23.3626 16.7625 23.3626 16.8 23.3626C17.325 23.3251 17.775 22.9501 17.9625 22.4626L19.2 18.9001C19.275 18.6751 19.5 18.4876 19.725 18.4501L21.3 18.2626C22.4625 18.1126 23.3625 17.1376 23.3625 15.9376V4.6876C23.2875 3.4876 22.3875 2.4751 21.1875 2.3626ZM21.6 15.9001C21.6 16.2376 21.3375 16.5001 21.0375 16.5376L19.4625 16.7251C18.6 16.8376 17.8125 17.4376 17.55 18.3001L16.575 21.1126L15.3375 18.7876C14.925 18.0376 14.1375 17.5501 13.275 17.5501C13.1625 17.5501 13.0875 17.5501 12.975 17.5876L3.11252 18.9001C2.85002 18.9376 2.70002 18.8251 2.58752 18.7501C2.47502 18.6751 2.36252 18.5251 2.36252 18.2626V3.0001C2.36252 2.8126 2.43752 2.6251 2.58752 2.5126C2.73752 2.4001 2.88752 2.3251 3.07502 2.3626L21 4.0876C21.3375 4.1251 21.6 4.3876 21.6 4.7251V15.9001Z" fill="#161A23"/>
<path d="M15.9375 5.77515H7.20002C6.75002 5.77515 6.33752 6.15015 6.33752 6.63765C6.33752 7.12515 6.71252 7.50015 7.20002 7.50015H15.975C16.425 7.50015 16.8375 7.12515 16.8375 6.63765C16.8375 6.15015 16.425 5.77515 15.9375 5.77515Z" fill="#161A23"/>
<path d="M15.9375 9.2627H7.20002C6.75002 9.2627 6.33752 9.6377 6.33752 10.1252C6.33752 10.6127 6.71252 10.9877 7.20002 10.9877H15.975C16.425 10.9877 16.8375 10.6127 16.8375 10.1252C16.8375 9.6377 16.425 9.2627 15.9375 9.2627Z" fill="#161A23"/>
<path d="M15.9375 13.2375H7.20002C6.75002 13.2375 6.33752 13.6125 6.33752 14.1C6.33752 14.5875 6.71252 14.9625 7.20002 14.9625H15.975C16.425 14.9625 16.8375 14.5875 16.8375 14.1C16.8375 13.6125 16.425 13.2375 15.9375 13.2375Z" fill="#161A23"/>
</g>
<defs>
<clipPath id="clip0_501_49666">
<rect width="24" height="24" fill="white"/>
</clipPath>
</defs>
</svg>
