<svg width="24" height="24" viewBox="0 0 24 24" fill="none" xmlns="http://www.w3.org/2000/svg">
<path d="M12 3.97498C5.73755 3.97498 0.675049 7.38748 0.675049 11.625C0.675049 13.3875 1.53755 15.075 3.15005 16.425L2.40005 18.9375C2.28755 19.275 2.40005 19.6125 2.70005 19.8375C2.85005 19.95 3.03755 20.025 3.22505 20.025C3.37505 20.025 3.52505 19.9875 3.63755 19.9125L6.48755 18.3C8.17505 18.9375 10.05 19.2375 12 19.2375C18.2626 19.2375 23.3625 15.7875 23.3625 11.5875C23.3625 7.38748 18.2626 3.97498 12 3.97498ZM12 17.5875C10.125 17.5875 8.28755 17.25 6.75005 16.6125C6.63755 16.575 6.52505 16.5375 6.41255 16.5375C6.26255 16.5375 6.11255 16.575 6.00005 16.65L4.61255 17.4375L4.91255 16.35C5.02505 16.0125 4.87505 15.6375 4.61255 15.45C3.15005 14.3625 2.36255 13.0125 2.36255 11.625C2.36255 8.32498 6.71255 5.66248 12.0375 5.66248C17.3625 5.66248 21.7125 8.32498 21.7125 11.625C21.675 14.85 17.25 17.5875 12 17.5875Z" fill="#161A23"/>
<path d="M7.01255 10.65H6.97505C6.52505 10.65 6.11255 11.025 6.11255 11.5125C6.11255 12 6.48755 12.3375 6.97505 12.3375H7.01255C7.46255 12.3375 7.87505 11.9625 7.87505 11.5125C7.87505 11.0625 7.50005 10.65 7.01255 10.65Z" fill="#161A23"/>
<path d="M12.0376 10.65H12.0001C11.5501 10.65 11.1376 11.025 11.1376 11.5125C11.1376 12 11.5126 12.3375 12.0001 12.3375H12.0376C12.4876 12.3375 12.9001 11.9625 12.9001 11.5125C12.9001 11.0625 12.4876 10.65 12.0376 10.65Z" fill="#161A23"/>
<path d="M17.025 10.65H16.9875C16.5375 10.65 16.125 11.025 16.125 11.5125C16.125 12 16.5 12.3375 16.9875 12.3375H17.025C17.475 12.3375 17.8875 11.9625 17.8875 11.5125C17.8875 11.0625 17.475 10.65 17.025 10.65Z" fill="#161A23"/>
</svg>
