<svg width="24" height="24" viewBox="0 0 24 24" fill="none" xmlns="http://www.w3.org/2000/svg">
<g clip-path="url(#clip0_501_49591)">
<path d="M22.65 1.68755C22.1625 1.05005 21.45 0.675049 20.625 0.675049H7.68747C6.63747 0.675049 5.66247 1.35005 5.32497 2.36255L4.27497 5.62505C4.01247 6.37505 4.16247 7.20005 4.61247 7.83755C5.09997 8.47505 5.81247 8.85005 6.63747 8.85005H15.2625L14.25 11.55H4.42497C3.37497 11.55 2.39997 12.225 2.06247 13.2375L1.01247 16.5C0.749967 17.25 0.899967 18.0751 1.34997 18.7125C1.83747 19.35 2.54997 19.725 3.37497 19.725H9.56247L8.66247 22.2001C8.54997 22.5375 8.66247 22.95 8.92497 23.175C9.07497 23.2875 9.26247 23.3625 9.44997 23.3625C9.63747 23.3625 9.78747 23.3251 9.93747 23.2125L14.85 19.7626H16.3125C17.3625 19.7626 18.3375 19.0875 18.675 18.0751L19.7625 14.8125C20.025 14.0625 19.875 13.2375 19.425 12.6C18.9375 11.9625 18.225 11.5875 17.4 11.5875H16.05L17.0625 8.92505H19.575C20.625 8.92505 21.6 8.25005 21.9375 7.23755L23.025 3.97505C23.25 3.15005 23.1375 2.32505 22.65 1.68755ZM18 13.5375C18.15 13.7625 18.1875 13.9875 18.1125 14.25L17.025 17.5126C16.9125 17.85 16.6125 18.0375 16.275 18.0375H14.55C14.3625 18.0375 14.2125 18.075 14.0625 18.1875L11.175 20.25L11.55 19.1625C11.6625 18.9 11.5875 18.6 11.4375 18.375C11.2875 18.15 11.025 18 10.7625 18H3.33747C3.07497 18 2.84997 17.8875 2.69997 17.6625C2.54997 17.4375 2.51247 17.25 2.62497 17.025L3.71247 13.7625C3.82497 13.425 4.12497 13.2375 4.46247 13.2375H14.85H17.4C17.625 13.2375 17.8875 13.35 18 13.5375ZM21.375 3.37505L20.2875 6.63755C20.175 6.97505 19.875 7.16255 19.5375 7.16255H6.59997C6.33747 7.16255 6.11247 7.05005 5.96247 6.82505C5.81247 6.60005 5.77497 6.37505 5.84997 6.11255L6.93747 2.85005C7.04997 2.51255 7.34997 2.32505 7.68747 2.32505H20.625C20.8875 2.32505 21.1125 2.43755 21.2625 2.66255C21.4125 2.88755 21.4875 3.15005 21.375 3.37505Z" fill="#161A23"/>
<path d="M10.9499 3.90015H9.78743C9.33743 3.90015 8.92493 4.27515 8.92493 4.76265C8.92493 5.25015 9.29993 5.62515 9.78743 5.62515H10.9499C11.3999 5.62515 11.8124 5.25015 11.8124 4.76265C11.8124 4.27515 11.3999 3.90015 10.9499 3.90015Z" fill="#161A23"/>
<path d="M16.3874 3.90015H15.2249C14.7749 3.90015 14.3624 4.27515 14.3624 4.76265C14.3624 5.25015 14.7374 5.62515 15.2249 5.62515H16.3874C16.8374 5.62515 17.2499 5.25015 17.2499 4.76265C17.2499 4.27515 16.8374 3.90015 16.3874 3.90015Z" fill="#161A23"/>
<path d="M8.2125 14.7751H7.05C6.6 14.7751 6.1875 15.1501 6.1875 15.6376C6.1875 16.1251 6.5625 16.5001 7.05 16.5001H8.2125C8.6625 16.5001 9.075 16.1251 9.075 15.6376C9.075 15.1501 8.7 14.7751 8.2125 14.7751Z" fill="#161A23"/>
<path d="M13.65 14.7751H12.4875C12.0375 14.7751 11.625 15.1501 11.625 15.6376C11.625 16.1251 12 16.5001 12.4875 16.5001H13.65C14.1 16.5001 14.5125 16.1251 14.5125 15.6376C14.5125 15.1501 14.1375 14.7751 13.65 14.7751Z" fill="#161A23"/>
</g>
<defs>
<clipPath id="clip0_501_49591">
<rect width="24" height="24" fill="white"/>
</clipPath>
</defs>
</svg>
