<svg width="24" height="24" viewBox="0 0 24 24" fill="none" xmlns="http://www.w3.org/2000/svg">
<path d="M5.58748 7.5752C5.09998 7.5752 4.72498 7.9502 4.72498 8.4377C4.72498 8.92519 5.13748 9.30019 5.58748 9.30019C6.03748 9.30019 6.44998 8.92519 6.44998 8.4377C6.44998 7.9502 6.07498 7.5752 5.58748 7.5752Z" fill="#161A23"/>
<path d="M10.1249 8.4377C10.1249 7.9877 9.7499 7.5752 9.2624 7.5752H9.2249C8.7749 7.5752 8.3999 7.9502 8.3999 8.4377C8.3999 8.92519 8.8124 9.30019 9.2624 9.30019C9.7124 9.30019 10.1249 8.8877 10.1249 8.4377Z" fill="#161A23"/>
<path d="M13.0124 9.2626C13.4624 9.2626 13.8749 8.8876 13.8749 8.4001C13.8749 7.9126 13.4999 7.5376 13.0124 7.5376H12.9749C12.5249 7.5376 12.1499 7.9126 12.1499 8.4001C12.1499 8.8876 12.5249 9.2626 13.0124 9.2626Z" fill="#161A23"/>
<path d="M21.6375 18.7126C22.725 17.7376 23.325 16.5376 23.325 15.3001C23.325 12.7876 21 10.6876 17.625 9.9751C17.775 9.5251 17.8875 9.0376 17.8875 8.5501C17.8875 5.2501 14.1 2.6626 9.26245 2.6626C4.42495 2.6626 0.637451 5.2501 0.637451 8.5501C0.637451 9.9001 1.27495 11.1751 2.43745 12.1876L1.94995 13.8751C1.83745 14.2126 1.94995 14.5501 2.24995 14.7751C2.39995 14.8876 2.58745 14.9626 2.77495 14.9626C2.92495 14.9626 3.07495 14.9251 3.18745 14.8501L5.21245 13.7251C5.84995 13.9501 6.52495 14.1376 7.23745 14.2501C7.16245 14.5876 7.08745 14.9251 7.08745 15.3001C7.08745 18.4126 10.65 20.8876 15.225 20.8876C16.575 20.8876 17.8875 20.6626 19.0499 20.2501L20.9249 21.3001C21.0375 21.3751 21.1875 21.4126 21.3375 21.4126C21.525 21.4126 21.7125 21.3376 21.8624 21.2251C22.125 21.0001 22.2374 20.6626 22.1625 20.3251L21.6375 18.7126ZM5.13745 11.9251C4.98745 11.9251 4.83745 11.9626 4.72495 12.0376L4.16245 12.3751L4.23745 12.1126C4.34995 11.7751 4.19995 11.4001 3.93745 11.2126C2.92495 10.4626 2.32495 9.5251 2.32495 8.5501C2.32495 6.2626 5.51245 4.3501 9.26245 4.3501C13.0125 4.3501 16.2 6.2626 16.2 8.5501C16.2 10.8376 13.0125 12.7501 9.26245 12.7501C7.91245 12.7501 6.56245 12.4876 5.43745 12.0376C5.36245 11.9626 5.24995 11.9251 5.13745 11.9251ZM20.1749 17.7376C19.875 17.9626 19.7625 18.3001 19.875 18.6376L19.9125 18.7876L19.5 18.5626C19.275 18.4501 19.0125 18.4126 18.75 18.5251C17.7 18.9751 16.4625 19.2001 15.1875 19.2001C11.7 19.2001 8.73745 17.4376 8.73745 15.3001C8.73745 15.0001 8.81245 14.7001 8.92495 14.4001C9.03745 14.4001 9.14995 14.4001 9.26245 14.4001C12.4875 14.4001 15.2625 13.2376 16.725 11.5126C19.575 11.9251 21.6375 13.5001 21.6375 15.3001C21.675 16.1626 21.15 17.0251 20.1749 17.7376Z" fill="#161A23"/>
</svg>
