<svg width="24" height="24" viewBox="0 0 24 24" fill="none" xmlns="http://www.w3.org/2000/svg">
<g clip-path="url(#clip0_501_49572)">
<path d="M22.9875 9.75005L21.7875 8.06255L21.75 6.03755C21.75 5.43755 21.375 4.91255 20.8125 4.72505L18.9375 4.05005L17.85 2.36255C17.55 1.87505 16.9875 1.61255 16.425 1.68755L14.4375 1.95005L12.75 0.900049C12.3 0.600049 11.6625 0.600049 11.2125 0.900049L9.52497 1.95005L7.53748 1.68755C6.97498 1.61255 6.41248 1.87505 6.11248 2.36255L5.02498 4.05005L3.14998 4.72505C2.62498 4.91255 2.24998 5.43755 2.24998 6.03755L2.21248 8.10005L0.974976 9.75005C0.599976 10.2375 0.599976 10.9125 0.974976 11.4375L2.17498 13.125L2.24998 15.1875C2.24998 15.7875 2.62498 16.3125 3.18748 16.5375L4.42498 16.9875L3.59998 21.75C3.48748 22.3125 3.74998 22.875 4.27498 23.175C4.49998 23.2875 4.72498 23.3625 4.94998 23.3625C5.24998 23.3625 5.54998 23.25 5.81248 23.0625L10.0125 19.6125L11.25 20.3625C11.7375 20.6625 12.3375 20.6625 12.7875 20.3625L14.475 19.3125L16.4625 19.5751C17.025 19.65 17.5875 19.3876 17.8875 18.9L18.975 17.2125L20.85 16.5375C21.4125 16.3125 21.7875 15.825 21.7875 15.225L21.825 13.1625L23.025 11.475C23.3625 10.95 23.3625 10.275 22.9875 9.75005ZM20.2875 12.375C20.175 12.525 20.1375 12.675 20.1375 12.825L20.1 14.9625L18.075 15.7125C17.8875 15.7875 17.7375 15.9 17.6625 16.05L16.5 17.85L14.3625 17.55C14.175 17.5125 13.9875 17.55 13.8 17.6625L12 18.7875L10.3875 17.775C10.0875 17.5875 9.67498 17.625 9.41248 17.85L5.39998 21.15L6.18748 16.5375C6.26248 16.125 6.03748 15.75 5.66248 15.6L3.93748 14.9625L3.89998 12.825C3.89998 12.675 3.82498 12.4875 3.74998 12.375L2.51248 10.6125L3.74998 8.85005C3.86248 8.70005 3.89998 8.55005 3.89998 8.40005L3.93748 6.26255L5.96248 5.51255C6.14998 5.43755 6.29998 5.32505 6.37498 5.17505L7.49998 3.37505L9.63748 3.67505C9.82498 3.71255 10.0125 3.67505 10.2 3.56255L12 2.43755L13.8 3.56255C13.95 3.67505 14.175 3.71255 14.3625 3.67505L16.5 3.37505L17.6625 5.17505C17.775 5.32505 17.925 5.43755 18.075 5.51255L20.1 6.26255L20.1375 8.40005C20.1375 8.55005 20.2125 8.73755 20.2875 8.85005L21.525 10.6125L20.2875 12.375Z" fill="#161A23"/>
<path d="M15.0375 6.67505H8.96248C8.51248 6.67505 8.09998 7.05005 8.09998 7.53755C8.09998 8.02505 8.47498 8.40005 8.96248 8.40005H15.075C15.525 8.40005 15.9375 8.02505 15.9375 7.53755C15.9375 7.05005 15.525 6.67505 15.0375 6.67505Z" fill="#161A23"/>
<path d="M15.0375 9.9751H8.96248C8.51248 9.9751 8.09998 10.3501 8.09998 10.8376C8.09998 11.3251 8.47498 11.7001 8.96248 11.7001H15.075C15.525 11.7001 15.9375 11.3251 15.9375 10.8376C15.9375 10.3501 15.525 9.9751 15.0375 9.9751Z" fill="#161A23"/>
<path d="M15.0375 13.275H8.96248C8.51248 13.275 8.09998 13.65 8.09998 14.1375C8.09998 14.625 8.47498 15 8.96248 15H15.075C15.525 15 15.9375 14.625 15.9375 14.1375C15.9375 13.65 15.525 13.275 15.0375 13.275Z" fill="#161A23"/>
</g>
<defs>
<clipPath id="clip0_501_49572">
<rect width="24" height="24" fill="white"/>
</clipPath>
</defs>
</svg>
