<svg width="24" height="24" viewBox="0 0 24 24" fill="none" xmlns="http://www.w3.org/2000/svg">
<path d="M12 3.11255C5.62495 3.11255 0.637451 6.33755 0.637451 10.425C0.637451 14.4001 5.02495 16.8751 9.22495 17.5126L10.8 20.2126C11.025 20.6251 11.475 20.8876 11.9625 20.8876C12.45 20.8876 12.8625 20.6251 13.125 20.2126L14.7 17.5126C16.875 17.1751 18.9 16.425 20.3624 15.3751C22.2374 14.0625 23.2875 12.3 23.2875 10.425C23.3624 6.33755 18.375 3.11255 12 3.11255ZM19.4625 13.9875C18.1125 14.9626 16.2 15.6376 14.1375 15.9001C13.875 15.9376 13.65 16.0876 13.5 16.3126L12 18.8625L10.5 16.3126C10.35 16.0876 10.125 15.9376 9.89995 15.9001C6.14995 15.4126 2.36245 13.35 2.36245 10.425C2.36245 7.31255 6.71245 4.80005 12.0375 4.80005C17.3624 4.80005 21.7125 7.31255 21.7125 10.425C21.675 11.7 20.8875 12.975 19.4625 13.9875Z" fill="#161A23"/>
<path d="M8.99995 9.67495H15C15.45 9.67495 15.8625 9.29995 15.8625 8.81245C15.8625 8.32495 15.4875 7.94995 15 7.94995H8.99995C8.54995 7.94995 8.13745 8.32495 8.13745 8.81245C8.13745 9.29995 8.54995 9.67495 8.99995 9.67495Z" fill="#161A23"/>
<path d="M16.125 11.4375H7.87495C7.42495 11.4375 7.01245 11.8125 7.01245 12.3C7.01245 12.75 7.38745 13.1625 7.87495 13.1625H16.125C16.575 13.1625 16.9875 12.7875 16.9875 12.3C16.95 11.8125 16.575 11.4375 16.125 11.4375Z" fill="#161A23"/>
</svg>
