<svg width="24" height="24" viewBox="0 0 24 24" fill="none" xmlns="http://www.w3.org/2000/svg">
<path d="M20.8125 5.5124H17.7V4.3874C17.7 2.9999 16.575 1.8374 15.15 1.8374H3.18745C1.79995 1.8374 0.637451 2.9624 0.637451 4.3874V12.0374C0.637451 13.4249 1.76245 14.5499 3.14995 14.5874C2.77495 15.8999 2.43745 16.7624 2.17495 17.1374C1.94995 17.4374 1.98745 17.8499 2.24995 18.1499C2.39995 18.3374 2.66245 18.4499 2.88745 18.4499C2.99995 18.4499 3.11245 18.4124 3.22495 18.3749C4.42495 17.8499 6.89995 16.0499 8.02495 14.5874H8.62495C8.62495 14.8874 8.62495 15.2249 8.62495 15.7124C8.62495 17.0999 9.74995 18.2624 11.175 18.2624H15.975C17.1375 19.7249 19.575 21.5249 20.775 22.0499C20.8875 22.1249 21 22.1249 21.1124 22.1249C21.375 22.1249 21.6375 22.0124 21.7875 21.7874C22.0125 21.4874 22.0125 21.0374 21.75 20.7374C21.3375 20.2499 21.1124 19.0874 20.9249 18.1874C22.275 18.1124 23.325 16.9874 23.325 15.6374V8.0624C23.3625 6.6749 22.2 5.5124 20.8125 5.5124ZM7.61245 12.8999C7.31245 12.8999 7.04995 13.0499 6.89995 13.2749C6.52495 13.8749 5.58745 14.7374 4.64995 15.4874C4.79995 14.9624 4.94995 14.4374 5.06245 13.9499C5.13745 13.6874 5.06245 13.4249 4.91245 13.1999C4.76245 12.9749 4.49995 12.8624 4.23745 12.8624H3.18745C2.69995 12.8624 2.32495 12.4874 2.32495 11.9999V4.3874C2.32495 3.8999 2.69995 3.5249 3.18745 3.5249H15.1125C15.6 3.5249 15.975 3.8999 15.975 4.3874V12.0374C15.975 12.5249 15.6 12.8999 15.1125 12.8999H7.61245ZM21.6749 15.6749C21.6749 16.1624 21.3 16.5374 20.8125 16.5374H19.9125C19.65 16.5374 19.4249 16.6499 19.2374 16.8749C19.0499 17.0999 19.0125 17.3249 19.0875 17.5874C19.125 17.7749 19.2 18.0374 19.2374 18.3374C19.275 18.6374 19.35 18.9374 19.4249 19.2374C18.45 18.4874 17.5125 17.6249 17.1 16.9874C16.95 16.7624 16.6875 16.6124 16.3875 16.6124H11.1375C10.65 16.6124 10.275 16.2374 10.275 15.7499C10.275 15.3374 10.275 14.9249 10.275 14.6249H15.1125C16.5 14.6249 17.6625 13.4999 17.6625 12.0749V7.1999H20.775C21.2625 7.1999 21.6375 7.5749 21.6375 8.0624V15.6749H21.6749Z" fill="#161A23"/>
<path d="M4.6124 7.4624H4.5749C4.1249 7.4624 3.7124 7.8374 3.7124 8.3249C3.7124 8.8124 4.0874 9.1874 4.5749 9.1874H4.6124C5.0624 9.1874 5.4749 8.8124 5.4749 8.3249C5.4749 7.8374 5.0999 7.4624 4.6124 7.4624Z" fill="#161A23"/>
<path d="M9.1124 7.4624H9.0749C8.6249 7.4624 8.2124 7.8374 8.2124 8.3249C8.2124 8.8124 8.5874 9.1874 9.0749 9.1874H9.1124C9.5624 9.1874 9.9749 8.8124 9.9749 8.3249C9.9749 7.8374 9.5999 7.4624 9.1124 7.4624Z" fill="#161A23"/>
<path d="M13.6124 7.4624H13.5749C13.1249 7.4624 12.7124 7.8374 12.7124 8.3249C12.7124 8.8124 13.0874 9.1874 13.5749 9.1874H13.6124C14.0624 9.1874 14.4749 8.8124 14.4749 8.3249C14.4749 7.8374 14.0999 7.4624 13.6124 7.4624Z" fill="#161A23"/>
</svg>
