<svg width="24" height="24" viewBox="0 0 24 24" fill="none" xmlns="http://www.w3.org/2000/svg">
<path d="M16.95 4.0874H7.05005C3.52505 4.0874 0.675049 6.9374 0.675049 10.4624C0.675049 13.4249 2.73755 15.9374 5.47505 16.6499C5.40005 16.7249 5.28755 16.7624 5.17505 16.7999C4.65005 17.0249 4.31255 17.5499 4.31255 18.1124C4.31255 18.6749 4.65005 19.1999 5.17505 19.4249C5.85005 19.7249 6.60005 19.8749 7.31255 19.8749C8.02505 19.8749 8.77505 19.7249 9.45005 19.4249C10.6125 18.8999 11.55 17.9624 12.0375 16.7999H16.95C20.475 16.7999 23.325 13.9499 23.325 10.4249C23.3625 6.9374 20.475 4.0874 16.95 4.0874ZM16.95 15.1499H11.4375C11.0625 15.1499 10.725 15.4124 10.6125 15.7499C10.3125 16.7249 9.63755 17.5124 8.73755 17.9249C7.98755 18.2624 7.12505 18.3374 6.33755 18.0749C7.01255 17.6624 7.53755 17.0624 7.83755 16.3124C7.95005 16.0499 7.91255 15.7499 7.76255 15.5249C7.61255 15.2999 7.35005 15.1499 7.05005 15.1499C4.46255 15.1499 2.32505 13.0499 2.32505 10.4624C2.32505 7.8749 4.42505 5.7749 7.01255 5.7749H16.95C19.5375 5.7749 21.6375 7.8749 21.6375 10.4624C21.6375 13.0499 19.5375 15.1499 16.95 15.1499Z" fill="#161A23"/>
<path d="M6.93757 9.82495C6.45007 9.82495 6.07507 10.2 6.07507 10.6875C6.07507 11.175 6.48757 11.55 6.93757 11.55C7.38757 11.55 7.80007 11.175 7.80007 10.6875C7.80007 10.2 7.42507 9.82495 6.93757 9.82495Z" fill="#161A23"/>
<path d="M11.9626 9.82495C11.4751 9.82495 11.1001 10.2 11.1001 10.6875C11.1001 11.175 11.5126 11.55 11.9626 11.55C12.4126 11.55 12.8251 11.175 12.8251 10.6875C12.8251 10.2 12.4126 9.82495 11.9626 9.82495Z" fill="#161A23"/>
<path d="M16.95 9.82495C16.4625 9.82495 16.0875 10.2 16.0875 10.6875C16.0875 11.175 16.5 11.55 16.95 11.55C17.4 11.55 17.8125 11.175 17.8125 10.6875C17.8125 10.2 17.4375 9.82495 16.95 9.82495Z" fill="#161A23"/>
</svg>
