<svg width="24" height="24" viewBox="0 0 24 24" fill="none" xmlns="http://www.w3.org/2000/svg">
<g clip-path="url(#clip0_501_49554)">
<path d="M4.35005 4.125C3.86255 4.125 3.48755 4.5 3.48755 4.9875C3.48755 5.475 3.86255 5.85 4.35005 5.85C4.83755 5.85 5.21255 5.475 5.21255 4.9875C5.21255 4.5 4.80005 4.125 4.35005 4.125Z" fill="#161A23"/>
<path d="M6.4875 4.125C6 4.125 5.625 4.5 5.625 4.9875C5.625 5.475 6 5.85 6.4875 5.85C6.975 5.85 7.35 5.475 7.35 4.9875C7.35 4.5 6.975 4.125 6.4875 4.125Z" fill="#161A23"/>
<path d="M8.66255 4.125C8.17505 4.125 7.80005 4.5 7.80005 4.9875C7.80005 5.475 8.17505 5.85 8.66255 5.85C9.15005 5.85 9.52505 5.475 9.52505 4.9875C9.52505 4.5 9.11255 4.125 8.66255 4.125Z" fill="#161A23"/>
<path d="M15.3751 10.6875C14.8876 10.6875 14.5126 11.0625 14.5126 11.55C14.5126 12.0375 14.8876 12.4125 15.3751 12.4125C15.8626 12.4125 16.2376 12.0375 16.2376 11.55C16.2376 11.0625 15.8251 10.6875 15.3751 10.6875Z" fill="#161A23"/>
<path d="M17.5125 10.6875C17.025 10.6875 16.65 11.0625 16.65 11.55C16.65 12.0375 17.025 12.4125 17.5125 12.4125C18 12.4125 18.375 12.0375 18.375 11.55C18.375 11.0625 18 10.6875 17.5125 10.6875Z" fill="#161A23"/>
<path d="M19.6876 10.6875C19.2001 10.6875 18.8251 11.0625 18.8251 11.55C18.8251 12.0375 19.2001 12.4125 19.6876 12.4125C20.1751 12.4125 20.5501 12.0375 20.5501 11.55C20.5501 11.0625 20.1376 10.6875 19.6876 10.6875Z" fill="#161A23"/>
<path d="M4.35005 16.4624C3.86255 16.4624 3.48755 16.8374 3.48755 17.3249C3.48755 17.8124 3.86255 18.1874 4.35005 18.1874C4.83755 18.1874 5.21255 17.8124 5.21255 17.3249C5.21255 16.8374 4.80005 16.4624 4.35005 16.4624Z" fill="#161A23"/>
<path d="M6.4875 16.4624C6 16.4624 5.625 16.8374 5.625 17.3249C5.625 17.8124 6 18.1874 6.4875 18.1874C6.975 18.1874 7.35 17.8124 7.35 17.3249C7.35 16.8374 6.975 16.4624 6.4875 16.4624Z" fill="#161A23"/>
<path d="M8.66255 16.4624C8.17505 16.4624 7.80005 16.8374 7.80005 17.3249C7.80005 17.8124 8.17505 18.1874 8.66255 18.1874C9.15005 18.1874 9.52505 17.8124 9.52505 17.3249C9.52505 16.8374 9.11255 16.4624 8.66255 16.4624Z" fill="#161A23"/>
<path d="M17.5126 7.34995C15.9375 7.34995 14.55 7.79995 13.5 8.51245L11.7 7.12495C12.1125 6.52495 12.3375 5.84995 12.3375 5.13745C12.3375 2.69995 9.78755 0.824951 6.48755 0.824951C3.18755 0.824951 0.675049 2.69995 0.675049 5.09995C0.675049 7.49995 3.22505 9.41245 6.52505 9.41245C8.10005 9.41245 9.48755 8.96245 10.5 8.24995L12.3 9.67495C11.925 10.275 11.7 10.9124 11.7 11.625C11.7 12.4124 11.9625 13.1624 12.45 13.7625L11.0625 14.6249C10.0125 13.65 8.36255 13.0499 6.52505 13.0499C3.22505 13.1249 0.675049 14.9999 0.675049 17.4375C0.675049 19.8375 3.22505 21.7499 6.48755 21.7499C7.01255 21.7499 7.50005 21.7124 8.02505 21.5999L11.1375 23.0999C11.25 23.1749 11.4 23.1749 11.5125 23.1749C11.7 23.1749 11.8875 23.0999 12.0375 22.9874C12.3 22.7624 12.4125 22.4249 12.3 22.1249L11.5875 19.5749C12.075 18.9375 12.3375 18.1875 12.3375 17.4C12.3375 16.9125 12.225 16.4625 12.0375 16.0125L13.725 14.9625C14.7375 15.5999 16.05 15.9749 17.5126 15.9749C20.775 15.9749 23.3625 14.0625 23.3625 11.6624C23.3625 9.26245 20.775 7.34995 17.5126 7.34995ZM2.36255 5.09995C2.36255 3.67495 4.27505 2.47495 6.52505 2.47495C8.77505 2.47495 10.6875 3.67495 10.6875 5.09995C10.6875 6.52495 8.77505 7.72495 6.52505 7.72495C4.23755 7.76245 2.36255 6.52495 2.36255 5.09995ZM9.82505 19.6124L10.1625 20.775L8.51255 19.9499C8.40005 19.875 8.28755 19.8749 8.13755 19.8749C8.06255 19.8749 7.98755 19.8749 7.95005 19.9124C7.50005 20.0249 7.01255 20.0624 6.52505 20.0624C4.27505 20.0624 2.36255 18.8624 2.36255 17.4375C2.36255 16.0124 4.27505 14.8124 6.52505 14.8124C8.77505 14.8124 10.6875 16.0124 10.6875 17.4375C10.6875 18.0374 10.35 18.5249 10.0875 18.7874C9.82505 19.0124 9.75005 19.3124 9.82505 19.6124ZM17.5126 14.2874C15.2625 14.2874 13.35 13.0875 13.35 11.6624C13.35 10.2375 15.2625 9.03745 17.5126 9.03745C19.7626 9.03745 21.675 10.2375 21.675 11.6624C21.675 13.0875 19.7626 14.2874 17.5126 14.2874Z" fill="#161A23"/>
</g>
<defs>
<clipPath id="clip0_501_49554">
<rect width="24" height="24" fill="white"/>
</clipPath>
</defs>
</svg>
