<svg width="24" height="24" viewBox="0 0 24 24" fill="none" xmlns="http://www.w3.org/2000/svg">
<g clip-path="url(#clip0_501_49556)">
<path d="M21.4874 6.26255C20.5875 5.43755 19.425 4.98755 18.1875 4.98755C17.25 2.40005 14.775 0.675049 12 0.675049C9.22495 0.675049 6.74995 2.40005 5.81245 4.95005C4.61245 4.98755 3.44995 5.43755 2.51245 6.22505C1.42495 7.23755 0.824951 8.62505 0.824951 10.05C0.824951 11.6625 1.61245 13.2 2.88745 14.1375C1.87495 15.525 0.787451 18 0.862451 21.975C0.862451 22.65 1.34995 23.175 1.98745 23.3251C2.06245 23.3251 2.13745 23.3625 2.24995 23.3625C2.81245 23.3625 3.29995 23.025 3.52495 22.4625C4.27495 20.55 5.54995 18.9375 7.16245 17.925C8.39995 19.3125 10.1625 20.1 12.0375 20.1C15.075 20.1 17.6625 18 18.3375 15.15C19.5 15.1125 20.625 14.625 21.525 13.8375C22.6125 12.8625 23.2125 11.475 23.2125 10.05C23.175 8.62505 22.575 7.23755 21.4874 6.26255ZM20.3624 12.6C19.6124 13.275 18.675 13.575 17.7 13.4625C17.25 13.425 16.8375 13.725 16.7625 14.2125C16.5 16.6125 14.4375 18.4501 12 18.4501C10.425 18.4501 8.96245 17.6625 8.06245 16.3875C7.83745 16.05 7.34995 15.9375 6.97495 16.125C5.17495 17.025 3.63745 18.6 2.58745 20.5126C2.81245 17.175 4.01245 15.375 4.76245 14.55C4.94995 14.3625 5.02495 14.0625 4.98745 13.8C4.94995 13.5375 4.76245 13.3125 4.49995 13.2C3.29995 12.6375 2.51245 11.4375 2.51245 10.0875C2.51245 9.11255 2.92495 8.17505 3.67495 7.53755C4.31245 6.97505 5.09995 6.67505 5.96245 6.67505C6.11245 6.67505 6.22495 6.67505 6.37495 6.71255C6.78745 6.75005 7.19995 6.48755 7.27495 6.07505C7.79995 3.86255 9.74995 2.36255 12 2.36255C14.25 2.36255 16.2 3.90005 16.7625 6.07505C16.875 6.48755 17.25 6.75005 17.6625 6.71255C18.6375 6.60005 19.6125 6.90005 20.325 7.53755C21.0375 8.17505 21.4874 9.11255 21.4874 10.0875C21.4874 11.025 21.075 11.9625 20.3624 12.6Z" fill="#161A23"/>
<path d="M15.1124 7.76257H8.8874C8.4374 7.76257 8.0249 8.13757 8.0249 8.62507C8.0249 9.11257 8.3999 9.48757 8.8874 9.48757H15.1124C15.5624 9.48757 15.9749 9.11257 15.9749 8.62507C15.9749 8.13757 15.5999 7.76257 15.1124 7.76257Z" fill="#161A23"/>
<path d="M15.1124 11.175H8.8874C8.4374 11.175 8.0249 11.55 8.0249 12.0375C8.0249 12.4875 8.3999 12.9 8.8874 12.9H15.1124C15.5624 12.9 15.9749 12.525 15.9749 12.0375C15.9749 11.55 15.5999 11.175 15.1124 11.175Z" fill="#161A23"/>
</g>
<defs>
<clipPath id="clip0_501_49556">
<rect width="24" height="24" fill="white"/>
</clipPath>
</defs>
</svg>
