<svg width="24" height="24" viewBox="0 0 24 24" fill="none" xmlns="http://www.w3.org/2000/svg">
<path d="M4.23748 11.475H20.85C21.375 11.475 21.825 11.175 22.05 10.6875C22.275 10.2 22.2 9.67505 21.8625 9.26255L19.725 6.75005V3.00005C19.725 1.72505 18.675 0.675049 17.4 0.675049H4.23748C2.92498 0.675049 1.91248 1.68755 1.91248 3.00005V9.18755C1.91248 10.4625 2.92498 11.475 4.23748 11.475ZM3.59998 3.00005C3.59998 2.66255 3.89998 2.36255 4.23748 2.36255H17.4375C17.775 2.36255 18.075 2.66255 18.075 3.00005V7.05005C18.075 7.23755 18.15 7.42505 18.2625 7.57505L20.1 9.78755H4.23748C3.89998 9.78755 3.59998 9.48755 3.59998 9.15005V3.00005Z" fill="#161A23"/>
<path d="M19.7625 12.525H6.60002C5.32502 12.525 4.27502 13.575 4.27502 14.85V18.6L2.13752 21.15C1.80002 21.5625 1.72502 22.0875 1.95002 22.575C2.17502 23.0625 2.62502 23.3625 3.15002 23.3625H19.7625C21.0375 23.3625 22.0875 22.3125 22.0875 21.0375V14.85C22.0875 13.5375 21.075 12.525 19.7625 12.525ZM20.4 21C20.4 21.3375 20.1 21.6375 19.7625 21.6375H3.90002L5.73752 19.425C5.85002 19.275 5.92502 19.0875 5.92502 18.9V14.85C5.92502 14.5125 6.22502 14.2125 6.56252 14.2125H19.7625C20.1 14.2125 20.4 14.5125 20.4 14.85V21Z" fill="#161A23"/>
<path d="M7.38752 5.55007H14.175C14.625 5.55007 15.0375 5.17507 15.0375 4.68757C15.0375 4.20007 14.6625 3.82507 14.175 3.82507H7.38752C6.93752 3.82507 6.52502 4.20007 6.52502 4.68757C6.52502 5.17507 6.90002 5.55007 7.38752 5.55007Z" fill="#161A23"/>
<path d="M7.38752 8.7001H14.175C14.625 8.7001 15.0375 8.3251 15.0375 7.8376C15.0375 7.3501 14.6625 6.9751 14.175 6.9751H7.38752C6.93752 6.9751 6.52502 7.3501 6.52502 7.8376C6.52502 8.3251 6.90002 8.7001 7.38752 8.7001Z" fill="#161A23"/>
<path d="M16.1251 15.75H9.37507C8.92507 15.75 8.51257 16.125 8.51257 16.6125C8.51257 17.1 8.88757 17.475 9.37507 17.475H16.1251C16.5751 17.475 16.9876 17.1 16.9876 16.6125C16.9876 16.125 16.6126 15.75 16.1251 15.75Z" fill="#161A23"/>
<path d="M16.1251 18.9H9.37507C8.92507 18.9 8.51257 19.275 8.51257 19.7625C8.51257 20.25 8.88757 20.625 9.37507 20.625H16.1251C16.5751 20.625 16.9876 20.25 16.9876 19.7625C16.9876 19.275 16.6126 18.9 16.1251 18.9Z" fill="#161A23"/>
</svg>
