<svg width="24" height="24" viewBox="0 0 24 24" fill="none" xmlns="http://www.w3.org/2000/svg">
<g clip-path="url(#clip0_501_49583)">
<path d="M22.7625 3.00002C22.3125 2.47502 21.7125 2.13752 21.0375 2.06252L8.36245 0.937518C7.64995 0.862518 6.93745 1.12502 6.41245 1.57502C5.88745 2.06252 5.58745 2.73752 5.58745 3.45002V12.75L1.08745 15.225C0.787451 15.375 0.637451 15.675 0.637451 16.0125C0.674951 16.35 0.862451 16.6125 1.16245 16.725L5.54995 18.4125V20.475C5.54995 21.225 5.84995 21.9 6.41245 22.3875C6.86245 22.8 7.46245 23.025 8.06245 23.025C8.17495 23.025 8.28745 23.025 8.39995 22.9875L19.5 21.525C20.6625 21.375 21.525 20.4375 21.6749 19.3125L23.325 4.91252C23.4 4.23752 23.2125 3.56252 22.7625 3.00002ZM21.6375 4.72502L19.9874 19.125C19.95 19.5 19.65 19.8 19.275 19.875L8.24995 21.375C7.98745 21.4125 7.76245 21.3375 7.57495 21.1875C7.38745 21.0375 7.27495 20.8125 7.27495 20.55V17.8875C7.27495 17.55 7.04995 17.2125 6.74995 17.1L3.48745 15.825L6.82495 13.9875C7.08745 13.8375 7.27495 13.5375 7.27495 13.2375V3.45002C7.27495 3.22502 7.38745 3.00002 7.53745 2.81252C7.68745 2.62502 7.94995 2.58752 8.17495 2.58752L20.85 3.75002C21.075 3.78752 21.3 3.90002 21.45 4.05002C21.6 4.20002 21.675 4.50002 21.6375 4.72502Z" fill="#161A23"/>
<path d="M17.0249 7.38745H11.5124C11.0624 7.38745 10.6499 7.76245 10.6499 8.24995C10.6499 8.73745 11.0249 9.11245 11.5124 9.11245H17.0249C17.4749 9.11245 17.8874 8.73745 17.8874 8.24995C17.8874 7.76245 17.5124 7.38745 17.0249 7.38745Z" fill="#161A23"/>
<path d="M17.0249 10.9875H11.5124C11.0624 10.9875 10.6499 11.3625 10.6499 11.85C10.6499 12.3 11.0249 12.7125 11.5124 12.7125H17.0249C17.4749 12.7125 17.8874 12.3375 17.8874 11.85C17.8874 11.3625 17.5124 10.9875 17.0249 10.9875Z" fill="#161A23"/>
<path d="M17.0249 14.5874H11.5124C11.0624 14.5874 10.6499 14.9624 10.6499 15.4499C10.6499 15.9374 11.0249 16.3124 11.5124 16.3124H17.0249C17.4749 16.3124 17.8874 15.9374 17.8874 15.4499C17.8874 14.9624 17.5124 14.5874 17.0249 14.5874Z" fill="#161A23"/>
</g>
<defs>
<clipPath id="clip0_501_49583">
<rect width="24" height="24" fill="white"/>
</clipPath>
</defs>
</svg>
