<svg width="24" height="24" viewBox="0 0 24 24" fill="none" xmlns="http://www.w3.org/2000/svg">
<path d="M22.6875 22.4249L21.9375 14.5875C21.825 13.5 20.925 12.675 19.8375 12.675C19.6125 12.675 19.4625 12.525 19.425 12.3L18.4875 2.54995C18.375 1.46245 17.475 0.637451 16.3875 0.637451H3.4125C2.25 0.674951 1.3125 1.61245 1.3125 2.73745V12.225C1.3125 13.3875 2.25 14.325 3.4125 14.325H13.4625C13.65 14.325 13.8 14.4375 13.8375 14.5875L14.8875 17.4C15.2625 18.4125 16.3125 18.975 17.3625 18.7125L17.8125 18.6C17.9625 18.5625 18.15 18.6375 18.2625 18.75L21.1125 22.95C21.2625 23.175 21.525 23.325 21.825 23.325C21.9375 23.325 22.0125 23.325 22.125 23.2875C22.5 23.1749 22.725 22.7999 22.6875 22.4249ZM19.6875 17.8125C19.275 17.25 18.6375 16.9125 17.9625 16.9125C17.8125 16.9125 17.625 16.95 17.475 16.9874L17.025 17.1C16.8375 17.1375 16.6125 17.025 16.5375 16.8375L15.4875 14.025C15.1875 13.2 14.4 12.675 13.5375 12.675H3.4125C3.1875 12.675 3 12.4875 3 12.2625V2.73745C3 2.51245 3.1875 2.32495 3.4125 2.32495H16.3875C16.6125 2.32495 16.7625 2.47495 16.8 2.69995L17.7375 12.45C17.85 13.5375 18.75 14.3625 19.8375 14.3625C20.0625 14.3625 20.2125 14.5125 20.25 14.7375L20.7 19.3125L19.6875 17.8125Z" fill="#161A23"/>
<path d="M5.4 6.3374H5.3625C4.9125 6.3374 4.5 6.7124 4.5 7.1999C4.5 7.6874 4.875 8.0624 5.3625 8.0624H5.4C5.85 8.0624 6.2625 7.6874 6.2625 7.1999C6.2625 6.7124 5.85 6.3374 5.4 6.3374Z" fill="#161A23"/>
<path d="M10.2 6.3374H10.1625C9.71255 6.3374 9.30005 6.7124 9.30005 7.1999C9.30005 7.6874 9.67505 8.0624 10.1625 8.0624H10.2C10.65 8.0624 11.0625 7.6874 11.0625 7.1999C11.0625 6.7124 10.6875 6.3374 10.2 6.3374Z" fill="#161A23"/>
<path d="M15.0375 6.3374H15C14.55 6.3374 14.1375 6.7124 14.1375 7.1999C14.1375 7.6874 14.5125 8.0624 15 8.0624H15.0375C15.4875 8.0624 15.9 7.6874 15.9 7.1999C15.9 6.7124 15.525 6.3374 15.0375 6.3374Z" fill="#161A23"/>
</svg>
