<svg width="24" height="24" viewBox="0 0 24 24" fill="none" xmlns="http://www.w3.org/2000/svg">
<path d="M17.6249 14.2499C15.7874 14.2499 14.0999 13.3874 13.0124 11.9249C11.9999 10.5374 11.6624 8.8124 12.0374 7.1624L8.17495 4.2749C7.87495 4.0499 7.76245 3.6749 7.87495 3.3374C7.98745 2.9999 8.32495 2.7749 8.66245 2.7749H17.5874C19.2374 2.7749 20.8124 3.4874 21.9374 4.7624C23.0249 5.9999 23.5124 7.6874 23.2874 9.3374C22.9124 11.9999 20.5874 14.1374 17.8874 14.2499C17.8124 14.2499 17.6999 14.2499 17.6249 14.2499ZM11.1749 4.4624L13.4624 6.1874C13.7624 6.4124 13.8749 6.7874 13.7624 7.1624C13.3124 8.4374 13.4999 9.8624 14.3249 10.9499C15.1499 12.0749 16.4249 12.6749 17.7749 12.5999C19.6874 12.5249 21.2999 11.0249 21.5999 9.1499C21.7499 7.9499 21.4124 6.7874 20.6624 5.8874C19.8749 4.9874 18.7874 4.4999 17.5874 4.4999H11.1749V4.4624Z" fill="#161A23"/>
<path d="M15.3375 21.2249H6.41246C4.42496 21.2249 2.62496 20.2124 1.53746 18.5249C0.449956 16.8374 0.374956 14.7374 1.27496 12.7874C1.87496 11.5499 2.92496 10.6124 4.19996 10.1249C6.48746 9.29994 8.81246 9.78743 10.425 11.3999C11.8875 12.8624 12.45 14.8499 11.9625 16.7999L15.825 19.6874C16.125 19.9124 16.2375 20.2874 16.125 20.6249C16.0125 20.9999 15.7125 21.2249 15.3375 21.2249ZM6.37496 11.4374C5.84996 11.4374 5.32496 11.5499 4.76246 11.7374C3.89996 12.0374 3.18746 12.7124 2.77496 13.5374C2.09996 14.9624 2.17496 16.4624 2.92496 17.6624C3.67496 18.8624 4.94996 19.5749 6.37496 19.5749H12.7875L10.5 17.8124C10.2 17.5874 10.0875 17.2124 10.2 16.8374C10.725 15.3374 10.35 13.7249 9.22496 12.5999C8.47496 11.8499 7.46246 11.4374 6.37496 11.4374Z" fill="#161A23"/>
</svg>
