<svg width="24" height="24" viewBox="0 0 24 24" fill="none" xmlns="http://www.w3.org/2000/svg">
<path d="M23.1 12.7874C21.5625 11.2874 21.15 9.03743 22.05 7.12493C22.1625 6.86243 22.1625 6.59993 22.0125 6.33743C21.8625 6.11243 21.6375 5.96243 21.375 5.92493C19.0875 5.69993 17.1375 4.16243 16.5 2.13743C16.425 1.87493 16.2375 1.68743 15.975 1.57493C15.7125 1.49993 15.45 1.49993 15.225 1.64993C13.3125 2.88743 10.725 2.88743 8.77496 1.64993C8.54996 1.49993 8.28746 1.46243 8.02496 1.57493C7.76246 1.64993 7.57496 1.87493 7.49996 2.13743C6.86246 4.16243 4.91246 5.69993 2.62496 5.92493C2.36246 5.96243 2.09996 6.11243 1.98746 6.33743C1.87496 6.56243 1.87496 6.89993 1.98746 7.12493C2.88746 9.03743 2.47496 11.2874 0.937457 12.7874C0.749957 12.9749 0.637457 13.2749 0.712457 13.5374C0.749957 13.7999 0.937457 14.0249 1.19996 14.1749C3.22496 15.1124 4.46246 17.0999 4.31246 19.1999C4.31246 19.4624 4.38746 19.7249 4.61246 19.9124C4.79996 20.0999 5.09996 20.1374 5.36246 20.0999C7.61246 19.5749 10.05 20.3999 11.4 22.1249C11.55 22.3499 11.8125 22.4624 12.075 22.4624C12.3375 22.4624 12.6 22.3499 12.75 22.1249C14.1 20.3624 16.5375 19.5374 18.7875 20.0999C19.05 20.1749 19.3125 20.0999 19.5375 19.9124C19.7625 19.7249 19.8375 19.4624 19.8375 19.1999C19.6875 17.0624 20.925 15.1124 22.95 14.1749C23.2125 14.0624 23.3625 13.8374 23.4375 13.5374C23.5125 13.2374 23.2875 13.0124 23.1 12.7874ZM18.075 18.2624C15.825 18.0374 13.575 18.8249 12 20.3249C10.6125 18.9749 8.66246 18.2249 6.67496 18.2249C6.41246 18.2249 6.18746 18.2249 5.92496 18.2624C5.73746 16.1999 4.61246 14.3249 2.81246 13.1624C4.04996 11.5124 4.42496 9.41243 3.86246 7.42493C5.99996 6.89993 7.79996 5.47493 8.73746 3.56243C10.7625 4.49993 13.2 4.49993 15.225 3.56243C16.1625 5.47493 17.9625 6.89993 20.1 7.42493C19.5375 9.41243 19.95 11.4749 21.15 13.1624C19.3875 14.3249 18.2625 16.1999 18.075 18.2624Z" fill="#161A23"/>
<path d="M8.99995 9.1874H13.9125C14.3625 9.1874 14.775 8.8124 14.775 8.3249C14.775 7.8374 14.4 7.4624 13.9125 7.4624H8.99995C8.54995 7.4624 8.13745 7.8374 8.13745 8.3249C8.13745 8.8124 8.51245 9.1874 8.99995 9.1874Z" fill="#161A23"/>
<path d="M15.8625 10.9124H8.99995C8.54995 10.9124 8.13745 11.2874 8.13745 11.7749C8.13745 12.2624 8.51245 12.6374 8.99995 12.6374H15.8625C16.3125 12.6374 16.725 12.2624 16.725 11.7749C16.725 11.2874 16.35 10.9124 15.8625 10.9124Z" fill="#161A23"/>
<path d="M15.375 14.325H8.99995C8.54995 14.325 8.13745 14.7 8.13745 15.1875C8.13745 15.675 8.51245 16.05 8.99995 16.05H15.375C15.825 16.05 16.2375 15.675 16.2375 15.1875C16.2375 14.7 15.8625 14.325 15.375 14.325Z" fill="#161A23"/>
</svg>
