<svg width="24" height="24" viewBox="0 0 24 24" fill="none" xmlns="http://www.w3.org/2000/svg">
<path d="M16.9125 12.75H5.92505C4.68755 12.75 3.67505 13.7625 3.67505 15V15.6L1.12505 16.8375C0.825049 16.9875 0.675049 17.2875 0.675049 17.5875C0.675049 17.925 0.862549 18.1875 1.12505 18.3375L3.67505 19.6125V20.2125C3.67505 21.45 4.68755 22.4625 5.92505 22.4625H16.9125C18.15 22.4625 19.1625 21.45 19.1625 20.2125V15C19.125 13.7625 18.15 12.75 16.9125 12.75ZM17.4375 20.2125C17.4375 20.5125 17.175 20.775 16.875 20.775H5.92505C5.62505 20.775 5.36255 20.5125 5.36255 20.2125V19.0875C5.36255 18.75 5.17505 18.4875 4.91255 18.3375L3.41255 17.5875L4.91255 16.8375C5.21255 16.6875 5.36255 16.3875 5.36255 16.0875V14.9625C5.36255 14.6625 5.62505 14.4 5.92505 14.4H16.9125C17.2125 14.4 17.475 14.6625 17.475 14.9625V20.2125H17.4375Z" fill="#161A23"/>
<path d="M22.875 5.625L20.325 4.35V3.75C20.325 2.5125 19.3125 1.5 18.075 1.5H7.08752C5.85002 1.5 4.83752 2.5125 4.83752 3.75V9C4.83752 10.2375 5.85002 11.25 7.08752 11.25H18.075C19.3125 11.25 20.325 10.2375 20.325 9V8.4L22.875 7.125C23.175 6.975 23.325 6.675 23.325 6.375C23.325 6.075 23.175 5.775 22.875 5.625ZM19.125 7.1625C18.825 7.3125 18.675 7.6125 18.675 7.9125V9.0375C18.675 9.3375 18.4125 9.6 18.1125 9.6H7.08752C6.78752 9.6 6.52502 9.3375 6.52502 9.0375V3.7875C6.52502 3.4875 6.78752 3.225 7.08752 3.225H18.075C18.375 3.225 18.6375 3.4875 18.6375 3.7875V4.9125C18.6375 5.25 18.825 5.5125 19.0875 5.6625L20.5875 6.4125L19.125 7.1625Z" fill="#161A23"/>
<path d="M8.0251 16.7625C7.5376 16.7625 7.1626 17.1375 7.1626 17.625C7.1626 18.1125 7.5751 18.4875 8.0251 18.4875C8.4751 18.4875 8.8876 18.1125 8.8876 17.625C8.8876 17.1375 8.4751 16.7625 8.0251 16.7625Z" fill="#161A23"/>
<path d="M11.55 16.7625C11.0625 16.7625 10.6875 17.1375 10.6875 17.625C10.6875 18.1125 11.1 18.4875 11.55 18.4875C12 18.4875 12.4125 18.1125 12.4125 17.625C12.4125 17.1375 12 16.7625 11.55 16.7625Z" fill="#161A23"/>
<path d="M15.0375 16.7625C14.55 16.7625 14.175 17.1375 14.175 17.625C14.175 18.1125 14.5875 18.4875 15.0375 18.4875C15.4875 18.4875 15.9 18.1125 15.9 17.625C15.9 17.1375 15.525 16.7625 15.0375 16.7625Z" fill="#161A23"/>
<path d="M8.9626 5.55005C8.4751 5.55005 8.1001 5.92505 8.1001 6.41255C8.1001 6.90005 8.5126 7.27505 8.9626 7.27505C9.4126 7.27505 9.8251 6.90005 9.8251 6.41255C9.8251 5.92505 9.4126 5.55005 8.9626 5.55005Z" fill="#161A23"/>
<path d="M12.4875 5.55005C12 5.55005 11.625 5.92505 11.625 6.41255C11.625 6.90005 12.0375 7.27505 12.4875 7.27505C12.9375 7.27505 13.35 6.90005 13.35 6.41255C13.35 5.92505 12.9375 5.55005 12.4875 5.55005Z" fill="#161A23"/>
<path d="M15.975 5.55005C15.4875 5.55005 15.1125 5.92505 15.1125 6.41255C15.1125 6.90005 15.525 7.27505 15.975 7.27505C16.425 7.27505 16.8375 6.90005 16.8375 6.41255C16.8375 5.92505 16.4625 5.55005 15.975 5.55005Z" fill="#161A23"/>
</svg>
