<svg width="24" height="24" viewBox="0 0 24 24" fill="none" xmlns="http://www.w3.org/2000/svg">
<path d="M23.25 20.775L20.175 15.3375C20.55 14.25 20.7375 13.125 20.7375 12C20.7375 6.44995 16.2375 1.94995 10.6875 1.94995C5.17505 1.94995 0.675049 6.44995 0.675049 12C0.675049 17.5499 5.17505 22.0499 10.725 22.0499H22.5C22.8 22.0499 23.0625 21.9 23.2125 21.6374C23.3625 21.375 23.4 21.0375 23.25 20.775ZM10.6875 20.3624C6.07505 20.3624 2.32505 16.6124 2.32505 12C2.32505 7.38745 6.07505 3.63745 10.6875 3.63745C15.3 3.63745 19.05 7.38745 19.05 12C19.05 13.0875 18.8625 14.1374 18.4501 15.1124C18.3375 15.3374 18.375 15.6374 18.4875 15.8624L21.0375 20.3624H10.6875Z" fill="#161A23"/>
<path d="M5.51255 10.6499H5.47505C5.02505 10.6499 4.61255 11.0249 4.61255 11.5124C4.61255 11.9999 4.98755 12.3374 5.47505 12.3374H5.51255C5.96255 12.3374 6.37505 11.9624 6.37505 11.5124C6.37505 11.0624 6.00005 10.6499 5.51255 10.6499Z" fill="#161A23"/>
<path d="M10.5376 10.6499H10.5001C10.0501 10.6499 9.63757 11.0249 9.63757 11.5124C9.63757 11.9999 10.0126 12.3374 10.5001 12.3374H10.5376C10.9876 12.3374 11.4001 11.9624 11.4001 11.5124C11.4001 11.0624 10.9876 10.6499 10.5376 10.6499Z" fill="#161A23"/>
<path d="M15.525 10.6499H15.4875C15.0375 10.6499 14.625 11.0249 14.625 11.5124C14.625 11.9999 15 12.3374 15.4875 12.3374H15.525C15.975 12.3374 16.3875 11.9624 16.3875 11.5124C16.3875 11.0624 15.975 10.6499 15.525 10.6499Z" fill="#161A23"/>
</svg>
