<svg width="24" height="24" viewBox="0 0 24 24" fill="none" xmlns="http://www.w3.org/2000/svg">
<path d="M12 3.90002C5.73755 3.90002 0.675049 7.53752 0.675049 12C0.675049 13.875 1.53755 15.6 3.11255 17.025L1.16255 18.6C0.900049 18.825 0.787549 19.2 0.900049 19.5375C1.01255 19.875 1.35005 20.1 1.68755 20.1H12C18.2626 20.1 23.3625 16.4625 23.3625 12C23.3625 7.53752 18.2626 3.90002 12 3.90002ZM12 18.4125H4.05005L4.95005 17.6625C5.13755 17.5125 5.25005 17.25 5.25005 16.9875C5.25005 16.725 5.10005 16.5 4.91255 16.3125C3.26255 15.15 2.36255 13.6125 2.36255 12C2.36255 8.47502 6.71255 5.58752 12.0375 5.58752C17.3625 5.58752 21.7125 8.47502 21.7125 12C21.675 15.525 17.325 18.4125 12 18.4125Z" fill="#161A23"/>
<path d="M7.01255 11.2875H6.97505C6.52505 11.2875 6.11255 11.6625 6.11255 12.15C6.11255 12.6 6.48755 13.0125 6.97505 13.0125H7.01255C7.46255 13.0125 7.87505 12.6375 7.87505 12.15C7.87505 11.6625 7.50005 11.2875 7.01255 11.2875Z" fill="#161A23"/>
<path d="M12.0376 11.2875H12.0001C11.5501 11.2875 11.1376 11.6625 11.1376 12.15C11.1376 12.6 11.5126 13.0125 12.0001 13.0125H12.0376C12.4876 13.0125 12.9001 12.6375 12.9001 12.15C12.8626 11.6625 12.4876 11.2875 12.0376 11.2875Z" fill="#161A23"/>
<path d="M17.025 11.2875H16.9875C16.5375 11.2875 16.125 11.6625 16.125 12.15C16.125 12.6 16.5 13.0125 16.9875 13.0125H17.025C17.475 13.0125 17.8875 12.6375 17.8875 12.15C17.8875 11.6625 17.475 11.2875 17.025 11.2875Z" fill="#161A23"/>
</svg>
