<svg width="24" height="24" viewBox="0 0 24 24" fill="none" xmlns="http://www.w3.org/2000/svg">
<path d="M20.175 7.91258L17.175 5.92508L16.0125 2.51258C15.7125 1.65008 15.0375 1.01258 14.175 0.750077C13.3125 0.487577 12.375 0.675077 11.7 1.23758L8.88752 3.48758L5.28752 3.52508C4.38752 3.52508 3.56252 3.97508 3.03752 4.72508C2.51252 5.47508 2.40002 6.41258 2.73752 7.23758L4.01252 10.6126L2.92502 14.0251C2.66252 14.8876 2.81252 15.8251 3.37502 16.5376C3.93752 17.2501 4.80002 17.6626 5.66252 17.6251H5.88752C5.25002 18.8251 4.42502 19.9501 3.52502 20.8876C3.11252 21.3001 3.00002 21.9376 3.22502 22.4626C3.45002 22.9876 3.97502 23.3626 4.57502 23.3626C5.21252 23.3626 8.32502 22.5751 11.5125 19.0501L12.225 19.5376C12.9375 20.0626 13.9125 20.1751 14.7375 19.8751C15.6 19.5751 16.2375 18.8626 16.4625 18.0001L17.4375 14.5501L20.325 12.4126C21.0375 11.8876 21.45 11.0251 21.45 10.1251C21.375 9.22508 20.925 8.40008 20.175 7.91258ZM19.275 11.0626L16.35 13.2376C16.0875 13.4251 15.9 13.7251 15.7875 14.0626L14.8125 17.5876C14.7 17.9251 14.475 18.1876 14.1375 18.3001C13.8 18.4126 13.4625 18.3751 13.1625 18.1501L11.85 17.2126C11.475 16.9501 10.9875 17.0251 10.725 17.3626C8.55002 19.9876 6.41252 21.0376 5.32502 21.4501C6.45002 20.1751 7.35002 18.6751 8.06252 17.0251C8.17502 16.7626 8.13752 16.4626 7.98752 16.2001C7.83752 15.9751 7.57502 15.8251 7.27502 15.8251H7.23752L5.62502 15.9001C5.28752 15.9001 4.95002 15.7501 4.72502 15.4876C4.50002 15.2251 4.46252 14.8501 4.53752 14.5126L5.62502 11.0251C5.73752 10.6876 5.70002 10.3501 5.58752 10.0501L4.31252 6.63758C4.20002 6.30008 4.23752 5.96258 4.42502 5.66258C4.61252 5.36258 4.95002 5.21258 5.28752 5.21258L8.92502 5.17508C9.26252 5.17508 9.60002 5.06258 9.86252 4.83758L12.75 2.58758C13.0125 2.36258 13.3875 2.28758 13.725 2.40008C14.0625 2.51258 14.325 2.73758 14.4375 3.07508L15.6 6.52508C15.7125 6.82508 15.9375 7.12508 16.2 7.31258L19.2375 9.33758C19.5375 9.52508 19.6875 9.82508 19.725 10.2001C19.725 10.5376 19.575 10.8376 19.275 11.0626Z" fill="#161A23"/>
<path d="M8.13748 9.48755H8.02498C7.57498 9.48755 7.16248 9.86255 7.16248 10.35C7.16248 10.8375 7.53748 11.2125 8.02498 11.2125H8.13748C8.58748 11.2125 8.99998 10.8375 8.99998 10.35C8.99998 9.86255 8.58748 9.48755 8.13748 9.48755Z" fill="#161A23"/>
<path d="M11.8875 9.48755H11.775C11.325 9.48755 10.9125 9.86255 10.9125 10.35C10.9125 10.8375 11.2875 11.2125 11.775 11.2125H11.8875C12.3375 11.2125 12.7125 10.8375 12.7125 10.35C12.7125 9.86255 12.3375 9.48755 11.8875 9.48755Z" fill="#161A23"/>
<path d="M15.6375 9.48755H15.525C15.075 9.48755 14.6625 9.86255 14.6625 10.35C14.6625 10.8375 15.0375 11.2125 15.525 11.2125H15.6375C16.0875 11.2125 16.5 10.8375 16.5 10.35C16.5 9.86255 16.0875 9.48755 15.6375 9.48755Z" fill="#161A23"/>
</svg>
