<svg width="24" height="24" viewBox="0 0 24 24" fill="none" xmlns="http://www.w3.org/2000/svg">
<g clip-path="url(#clip0_501_49576)">
<path d="M12.15 0.675049C9.14995 0.675049 6.33745 1.83755 4.23745 3.93755C0.787451 7.42505 -4.8697e-05 12.7875 2.28745 17.1L0.712451 22.2376C0.637451 22.5375 0.712451 22.875 0.937451 23.1C1.08745 23.25 1.31245 23.3251 1.53745 23.3251C1.61245 23.3251 1.72495 23.3251 1.79995 23.2875L6.74995 21.6376C10.1624 23.5501 14.2124 23.5126 17.6624 21.5626C21.2249 19.5375 23.3624 15.9001 23.3624 11.85C23.3624 5.70005 18.3375 0.675049 12.15 0.675049ZM16.8375 20.1C13.8375 21.8251 10.2374 21.75 7.27495 19.9876C7.12495 19.9125 6.97495 19.8751 6.82495 19.8751C6.74995 19.8751 6.63745 19.875 6.56245 19.9125L2.77495 21.1501L4.01245 17.25C4.08745 17.0251 4.04995 16.8001 3.93745 16.5751C1.79995 12.8626 2.43745 8.17505 5.47495 5.13755C7.27495 3.33755 9.63745 2.36255 12.1875 2.36255C17.4375 2.36255 21.6749 6.63755 21.6749 11.85C21.6749 15.3001 19.8375 18.375 16.8375 20.1Z" fill="#161A23"/>
<path d="M15.2624 7.76257H9.0749C8.6249 7.76257 8.2124 8.13757 8.2124 8.62507C8.2124 9.11257 8.5874 9.48757 9.0749 9.48757H15.2624C15.7124 9.48757 16.1249 9.11257 16.1249 8.62507C16.1249 8.13757 15.7124 7.76257 15.2624 7.76257Z" fill="#161A23"/>
<path d="M15.2624 11.1001H9.0749C8.6249 11.1001 8.2124 11.4751 8.2124 11.9626C8.2124 12.4501 8.5874 12.7876 9.0749 12.7876H15.2624C15.7124 12.7876 16.1249 12.4126 16.1249 11.9626C16.1249 11.5126 15.7124 11.1001 15.2624 11.1001Z" fill="#161A23"/>
<path d="M15.2625 14.25H9.075C8.625 14.25 8.25 14.625 8.25 15.075C8.25 15.525 8.625 15.9375 9.1125 15.9375H15.3C15.75 15.9375 16.1625 15.5625 16.1625 15.075C16.1625 14.5875 15.7125 14.25 15.2625 14.25Z" fill="#161A23"/>
</g>
<defs>
<clipPath id="clip0_501_49576">
<rect width="24" height="24" fill="white"/>
</clipPath>
</defs>
</svg>
