<svg width="24" height="24" viewBox="0 0 24 24" fill="none" xmlns="http://www.w3.org/2000/svg">
<path d="M12.075 0.675049C6.59995 0.675049 2.13745 3.90005 2.13745 7.87505C2.13745 11.85 6.59995 15.075 12.075 15.075C17.55 15.075 22.0125 11.85 22.0125 7.87505C22.0125 3.90005 17.55 0.675049 12.075 0.675049ZM12.075 13.35C7.53745 13.35 3.82495 10.875 3.82495 7.83755C3.82495 4.80005 7.53745 2.32505 12.075 2.32505C16.6125 2.32505 20.325 4.80005 20.325 7.83755C20.325 10.875 16.65 13.35 12.075 13.35Z" fill="#161A23"/>
<path d="M8.8875 15.7126C7.5 15.7126 6.375 16.8376 6.375 18.2251C6.375 19.6126 7.5 20.7001 8.8875 20.7001C10.275 20.7001 11.3625 19.5751 11.3625 18.2251C11.3625 16.8376 10.275 15.7126 8.8875 15.7126ZM8.8875 19.0126C8.4375 19.0126 8.0625 18.6376 8.0625 18.2251C8.0625 17.8126 8.4375 17.4001 8.8875 17.4001C9.3375 17.4001 9.675 17.7751 9.675 18.2251C9.675 18.6751 9.3375 19.0126 8.8875 19.0126Z" fill="#161A23"/>
<path d="M4.0875 22.5C4.79166 22.5 5.3625 21.9291 5.3625 21.225C5.3625 20.5208 4.79166 19.95 4.0875 19.95C3.38334 19.95 2.8125 20.5208 2.8125 21.225C2.8125 21.9291 3.38334 22.5 4.0875 22.5Z" fill="#161A23"/>
<path d="M8.39998 7.01245C7.91248 7.01245 7.53748 7.38745 7.53748 7.87495C7.53748 8.36245 7.94998 8.73745 8.39998 8.73745C8.84998 8.73745 9.26248 8.36245 9.26248 7.87495C9.26248 7.38745 8.84998 7.01245 8.39998 7.01245Z" fill="#161A23"/>
<path d="M12 7.01245C11.5125 7.01245 11.1375 7.38745 11.1375 7.87495C11.1375 8.36245 11.55 8.73745 12 8.73745C12.45 8.73745 12.825 8.36245 12.825 7.87495C12.825 7.38745 12.45 7.01245 12 7.01245Z" fill="#161A23"/>
<path d="M15.5625 7.01245C15.075 7.01245 14.7 7.38745 14.7 7.87495C14.7 8.36245 15.1125 8.73745 15.5625 8.73745C16.0125 8.73745 16.425 8.36245 16.425 7.87495C16.425 7.38745 16.05 7.01245 15.5625 7.01245Z" fill="#161A23"/>
</svg>
