<svg width="24" height="24" viewBox="0 0 24 24" fill="none" xmlns="http://www.w3.org/2000/svg">
<g clip-path="url(#clip0_501_49637)">
<path d="M20.85 4.46242H19.5V1.98742C19.5 1.46242 19.1625 0.974915 18.675 0.749915C18.1875 0.524915 17.5875 0.637415 17.2125 1.04992L13.8 4.46242H8.06248C6.78748 4.46242 5.73748 5.51242 5.73748 6.78742V8.17491H3.11248C1.83748 8.17491 0.787476 9.22492 0.787476 10.4999V17.2499C0.787476 18.5249 1.83748 19.5749 3.11248 19.5749H4.49998V22.0499C4.49998 22.5749 4.83748 23.0624 5.32498 23.2874C5.47498 23.3624 5.66248 23.3999 5.84998 23.3999C6.18748 23.3999 6.52498 23.2499 6.78748 23.0249L10.2 19.6124H15.9375C17.2125 19.6124 18.2625 18.5624 18.2625 17.2874V15.8999H20.8875C22.1625 15.8999 23.2125 14.8499 23.2125 13.5749V6.82492C23.175 5.47492 22.125 4.46242 20.85 4.46242ZM16.575 17.2124C16.575 17.5499 16.275 17.8499 15.9375 17.8499H9.82498C9.59998 17.8499 9.37498 17.9249 9.22498 18.1124L6.18748 21.1499V18.7124C6.18748 18.2624 5.81248 17.8499 5.32498 17.8499H3.14998C2.81248 17.8499 2.51248 17.5499 2.51248 17.2124V10.4999C2.51248 10.1624 2.81248 9.86242 3.14998 9.86242H15.9375C16.275 9.86242 16.575 10.1624 16.575 10.4999V17.2124ZM21.4875 13.4999C21.4875 13.8374 21.1875 14.1374 20.85 14.1374H18.2625V10.4999C18.2625 9.22492 17.2125 8.17491 15.9375 8.17491H7.42498V6.78742C7.42498 6.44992 7.72498 6.14992 8.06248 6.14992H14.175C14.4 6.14992 14.625 6.07492 14.775 5.88742L17.8125 2.84992V5.28742C17.8125 5.73742 18.1875 6.14992 18.675 6.14992H20.8875C21.225 6.14992 21.525 6.44992 21.525 6.78742V13.4999H21.4875Z" fill="#161A23"/>
<path d="M4.80002 12.9749H4.76252C4.31252 12.9749 3.90002 13.3499 3.90002 13.8374C3.90002 14.3249 4.27502 14.6999 4.76252 14.6999H4.80002C5.25002 14.6999 5.66252 14.3249 5.66252 13.8374C5.66252 13.3499 5.25002 12.9749 4.80002 12.9749Z" fill="#161A23"/>
<path d="M9.44993 12.9749H9.41243C8.96243 12.9749 8.54993 13.3499 8.54993 13.8374C8.54993 14.3249 8.92493 14.6999 9.41243 14.6999H9.44993C9.89993 14.6999 10.3124 14.3249 10.3124 13.8374C10.3124 13.3499 9.89993 12.9749 9.44993 12.9749Z" fill="#161A23"/>
<path d="M14.1 12.9749H14.0625C13.6125 12.9749 13.2 13.3499 13.2 13.8374C13.2 14.3249 13.575 14.6999 14.0625 14.6999H14.1C14.55 14.6999 14.9625 14.3249 14.9625 13.8374C14.9625 13.3499 14.5875 12.9749 14.1 12.9749Z" fill="#161A23"/>
</g>
<defs>
<clipPath id="clip0_501_49637">
<rect width="24" height="24" fill="white"/>
</clipPath>
</defs>
</svg>
