<svg width="24" height="24" viewBox="0 0 24 24" fill="none" xmlns="http://www.w3.org/2000/svg">
<path d="M9.11257 10.9875C9.00007 10.7625 8.81257 10.65 8.58757 10.65H6.33757C6.07507 10.65 5.88757 10.7625 5.81257 10.9875L1.53757 20.775C1.35007 21.1875 1.65007 21.5625 2.06257 21.5625H3.90007C4.12507 21.5625 4.35007 21.4125 4.38757 21.225L4.98757 19.725H9.63757L10.2001 21.225C10.2376 21.45 10.5001 21.5625 10.6876 21.5625H12.6376C13.1251 21.525 13.4251 21.1125 13.2376 20.775L9.11257 10.9875ZM5.88757 17.025L7.42507 13.0875L8.96257 17.025H5.88757Z" fill="#161A23"/>
<path d="M23.1 1.8C22.7625 1.4625 22.2375 1.4625 21.9 1.8L14.0625 9.5625L12.1125 7.65C11.775 7.3125 11.25 7.3125 10.9125 7.65C10.575 7.9875 10.575 8.5125 10.9125 8.85L13.275 11.175C13.5 11.4 13.7625 11.5125 14.0625 11.5125C14.3625 11.5125 14.625 11.4 14.85 11.175L23.1 3C23.4375 2.6625 23.4375 2.1375 23.1 1.8Z" fill="#161A23"/>
</svg>
