<svg width="24" height="24" viewBox="0 0 24 24" fill="none" xmlns="http://www.w3.org/2000/svg">
<g clip-path="url(#clip0_914_45410)">
<path d="M15.8252 18.2625C15.7127 18.2625 15.5627 18.225 15.4502 18.1875C13.0127 16.9875 10.2002 16.725 7.6127 17.4C7.1627 17.5125 6.7127 17.25 6.6002 16.8C6.4877 16.35 6.7502 15.9 7.2002 15.75C10.2002 14.9625 13.3877 15.2625 16.2002 16.65C16.6127 16.8375 16.8002 17.3625 16.5752 17.775C16.4252 18.075 16.1252 18.2625 15.8252 18.2625Z" fill="#15171A"/>
<path d="M16.988 14.2499C16.8755 14.2499 16.763 14.2124 16.6505 14.1749C14.7005 13.2749 12.563 12.7874 10.5005 12.7874C9.263 12.7874 8.213 12.8999 7.2005 13.1999C6.7505 13.3124 6.3005 13.0499 6.1505 12.5999C6.038 12.1499 6.3005 11.6999 6.7505 11.5499C7.913 11.2499 9.113 11.0999 10.463 11.0999C12.788 11.0999 15.1505 11.6249 17.3255 12.6374C17.738 12.8249 17.9255 13.3499 17.738 13.7624C17.588 14.0624 17.288 14.2499 16.988 14.2499Z" fill="#15171A"/>
<path d="M18.1883 10.0499C18.0758 10.0499 17.9633 10.0124 17.8133 9.97493C15.5258 8.88743 13.0508 8.36243 10.4258 8.36243C9.26331 8.36243 7.98831 8.51243 6.67581 8.77493C6.22581 8.88743 5.77581 8.58743 5.66331 8.13743C5.62581 7.64993 5.92581 7.19993 6.37581 7.12493C7.80081 6.82493 9.18831 6.67493 10.4633 6.67493C13.3133 6.67493 16.0133 7.27493 18.5633 8.43743C18.9758 8.62493 19.1633 9.14993 18.9758 9.56243C18.8258 9.86243 18.5258 10.0499 18.1883 10.0499Z" fill="#15171A"/>
<path d="M12.0003 23.3624C5.7378 23.3624 0.675293 18.2624 0.675293 11.9999C0.675293 5.73743 5.7378 0.674927 12.0003 0.674927C18.2628 0.674927 23.3628 5.77493 23.3628 11.9999C23.3628 18.2624 18.2628 23.3624 12.0003 23.3624ZM12.0003 2.36243C6.6753 2.36243 2.36279 6.67493 2.36279 11.9999C2.36279 17.3249 6.6753 21.6749 12.0003 21.6749C17.3253 21.6749 21.6753 17.3249 21.6753 11.9999C21.6753 6.67493 17.3253 2.36243 12.0003 2.36243Z" fill="#15171A"/>
</g>
<defs>
<clipPath id="clip0_914_45410">
<rect width="24" height="24" fill="white"/>
</clipPath>
</defs>
</svg>
