<svg width="24" height="24" viewBox="0 0 24 24" fill="none" xmlns="http://www.w3.org/2000/svg">
<g clip-path="url(#clip0_914_45408)">
<path d="M12 0.375C5.55 0.375 0.375 5.55 0.375 12C0.375 18.45 5.55 23.625 12 23.625C18.45 23.625 23.625 18.45 23.625 12C23.625 5.55 18.45 0.375 12 0.375ZM17.325 17.1375C17.1 17.4375 16.6875 17.55 16.3125 17.4C13.575 15.7125 10.125 15.3375 6.1125 16.2375C5.7 16.35 5.325 16.0875 5.25 15.7125C5.1375 15.3 5.4 14.925 5.775 14.8125C10.2 13.8 13.95 14.25 17.1 16.125C17.4375 16.3875 17.55 16.8 17.325 17.1375ZM18.75 14.025C18.4875 14.4375 17.8875 14.55 17.55 14.2875C14.4375 12.375 9.675 11.8125 5.9625 12.975C5.475 13.125 4.95 12.8625 4.8375 12.3375C4.6875 11.85 4.95 11.325 5.475 11.2125C9.7125 9.9 14.925 10.575 18.525 12.75C18.8625 13.0125 19.0125 13.5375 18.75 14.025ZM18.8625 10.6875C15.1125 8.475 8.925 8.25 5.325 9.375C4.8 9.525 4.1625 9.225 4.0125 8.625C3.8625 8.1 4.1625 7.4625 4.7625 7.3125C8.8875 6.1125 15.6375 6.3 19.9875 8.8875C20.5125 9.1875 20.6625 9.9 20.4 10.35C20.1 10.8375 19.3875 10.9875 18.8625 10.6875Z" fill="#15171A"/>
</g>
<defs>
<clipPath id="clip0_914_45408">
<rect width="24" height="24" fill="white"/>
</clipPath>
</defs>
</svg>
