<svg width="24" height="24" viewBox="0 0 24 24" fill="none" xmlns="http://www.w3.org/2000/svg">
<path d="M8.8503 15.9749C8.4378 16.3874 8.4378 17.1374 8.8503 17.5499C9.2628 17.9624 10.0128 17.9624 10.4253 17.5499L17.5503 10.4249C18.4503 9.52493 19.8378 9.52493 20.7003 10.4249C21.6003 11.3249 21.6003 12.7124 20.7003 13.5749L13.7253 20.5874C14.6253 21.4874 16.0128 21.4874 16.8753 20.5874L22.3128 15.1499C24.0378 13.4249 24.0378 10.5749 22.3128 8.77493C20.5878 7.04993 17.7378 7.04993 15.9378 8.77493L8.8503 15.9749ZM19.9503 11.2124C19.5378 10.7999 18.7878 10.7999 18.3753 11.2124L11.2503 18.3749C10.3503 19.2749 8.9628 19.2749 8.1003 18.3749C7.6878 17.9624 6.9378 17.9624 6.5253 18.3749C6.1128 18.7874 6.1128 19.5374 6.5253 19.9499C8.2503 21.6749 11.1003 21.6749 12.9003 19.9499L19.9878 12.8249C20.3628 12.3749 20.3628 11.6249 19.9503 11.2124ZM8.0628 15.1499L15.1878 8.02493C15.6003 7.61243 15.6003 6.86243 15.1878 6.44993C14.7753 6.03743 14.0253 6.03743 13.6128 6.44993L6.4503 13.5749C5.5503 14.4749 4.1628 14.4749 3.30029 13.5749C2.40029 12.6749 2.40029 11.2499 3.30029 10.3499L10.2753 3.41243C9.3753 2.51243 7.9878 2.51243 7.1253 3.41243L1.68779 8.84993C-0.0372069 10.5749 -0.0372069 13.4249 1.68779 15.2249C3.41279 16.9499 6.3378 16.9499 8.0628 15.1499ZM4.1253 12.7874C4.5378 13.1999 5.2878 13.1999 5.7003 12.7874L12.8628 5.66243C13.7628 4.76243 15.1503 4.76243 16.0128 5.66243C16.4253 6.07493 17.1753 6.07493 17.5878 5.66243C18.0003 5.24993 18.0003 4.49993 17.5878 4.08743C15.8628 2.36243 13.0128 2.36243 11.2128 4.08743L4.0878 11.2124C3.63779 11.6249 3.63779 12.3749 4.1253 12.7874Z" fill="#15171A"/>
</svg>
