<svg width="24" height="24" viewBox="0 0 24 24" fill="none" xmlns="http://www.w3.org/2000/svg">
<g clip-path="url(#clip0_501_48293)">
<path d="M21 0.674988H3.00005C1.72505 0.674988 0.675049 1.72499 0.675049 2.99999V21C0.675049 22.275 1.72505 23.3625 3.03755 23.3625H21.0375C22.3125 23.3625 23.4 22.3125 23.4 21V2.99999C23.3625 1.72499 22.275 0.674988 21 0.674988ZM21.675 21C21.675 21.375 21.375 21.675 21 21.675H3.00005C2.62505 21.675 2.32505 21.375 2.32505 21V2.99999C2.36255 2.62499 2.62505 2.36249 3.00005 2.36249H21C21.375 2.36249 21.675 2.66249 21.675 3.03749V21Z" fill="#161A23"/>
<path d="M5.06257 6.975H10.8001C11.2501 6.975 11.6626 6.6 11.6626 6.1125C11.6626 5.625 11.2876 5.25 10.8001 5.25H5.06257C4.61257 5.25 4.20007 5.625 4.20007 6.1125C4.20007 6.6 4.61257 6.975 5.06257 6.975Z" fill="#161A23"/>
<path d="M16.6876 11.175H5.06257C4.61257 11.175 4.20007 11.55 4.20007 12.0375C4.20007 12.4875 4.57507 12.9 5.06257 12.9H16.6876C17.1376 12.9 17.5501 12.525 17.5501 12.0375C17.5501 11.55 17.1751 11.175 16.6876 11.175Z" fill="#161A23"/>
<path d="M13.5001 17.025H5.06257C4.61257 17.025 4.20007 17.4 4.20007 17.8875C4.20007 18.375 4.57507 18.75 5.06257 18.75H13.5001C13.9501 18.75 14.3626 18.375 14.3626 17.8875C14.3626 17.4 13.9876 17.025 13.5001 17.025Z" fill="#161A23"/>
</g>
<defs>
<clipPath id="clip0_501_48293">
<rect width="24" height="24" fill="white"/>
</clipPath>
</defs>
</svg>
