<svg width="24" height="24" viewBox="0 0 24 24" fill="none" xmlns="http://www.w3.org/2000/svg">
<g clip-path="url(#clip0_501_48286)">
<path d="M21 0.674988H3.00005C1.72505 0.674988 0.675049 1.72499 0.675049 2.99999V21C0.675049 22.275 1.72505 23.3625 3.03755 23.3625H21.0375C22.3125 23.3625 23.4 22.3125 23.4 21V2.99999C23.3625 1.72499 22.275 0.674988 21 0.674988ZM21.675 21C21.675 21.375 21.375 21.675 21 21.675H3.00005C2.62505 21.675 2.32505 21.375 2.32505 21V2.99999C2.36255 2.62499 2.62505 2.36249 3.00005 2.36249H21C21.375 2.36249 21.675 2.66249 21.675 3.03749V21Z" fill="#161A23"/>
<path d="M6.1501 12.3375C5.7001 12.3375 5.2876 12.7125 5.2876 13.2V18.9375C5.2876 19.3875 5.6626 19.8 6.1501 19.8C6.6376 19.8 7.0126 19.425 7.0126 18.9375V13.1625C6.9751 12.7125 6.6001 12.3375 6.1501 12.3375Z" fill="#161A23"/>
<path d="M12.0001 6.44998C11.5501 6.44998 11.1376 6.82498 11.1376 7.31248V18.9375C11.1376 19.3875 11.5126 19.8 12.0001 19.8C12.4501 19.8 12.8626 19.425 12.8626 18.9375V7.31248C12.8626 6.82498 12.4501 6.44998 12.0001 6.44998Z" fill="#161A23"/>
<path d="M17.85 9.63748C17.4 9.63748 16.9875 10.0125 16.9875 10.5V18.9375C16.9875 19.3875 17.3625 19.8 17.85 19.8C18.3375 19.8 18.7125 19.425 18.7125 18.9375V10.5C18.7125 10.0125 18.3375 9.63748 17.85 9.63748Z" fill="#161A23"/>
</g>
<defs>
<clipPath id="clip0_501_48286">
<rect width="24" height="24" fill="white"/>
</clipPath>
</defs>
</svg>
