<svg width="25" height="24" viewBox="0 0 25 24" fill="none" xmlns="http://www.w3.org/2000/svg">
<path d="M20.0625 1.05005H4.3125C3.0375 1.05005 1.9875 2.10005 1.9875 3.37505V20.625C1.9875 21.9 3.0375 22.9875 4.35 22.9875H20.0625C21.3375 22.9875 22.425 21.9375 22.425 20.625V3.37505C22.3875 2.10005 21.3375 1.05005 20.0625 1.05005ZM20.7 20.625C20.7 21 20.4 21.3 20.025 21.3H4.3125C3.9375 21.3 3.6375 21 3.6375 20.625V3.37505C3.6375 3.00005 3.9375 2.70005 4.3125 2.70005H20.025C20.4 2.70005 20.7 3.00005 20.7 3.37505V20.625Z" fill="#161A23"/>
<path d="M7.2 10.0126H8.4C8.85 10.0126 9.2625 9.6376 9.2625 9.1501C9.2625 8.6626 8.8875 8.2876 8.4 8.2876H7.2C6.075 8.2876 5.1375 9.1876 5.1375 10.3501V10.8001C5.1375 11.9251 6.0375 12.8626 7.2 12.8626C7.3875 12.8626 7.575 13.0126 7.575 13.2376V13.6126C7.575 13.8001 7.425 13.9876 7.2 13.9876H6C5.55 13.9876 5.1375 14.3626 5.1375 14.8501C5.1375 15.3376 5.5125 15.7126 6 15.7126H7.2C8.325 15.7126 9.2625 14.8126 9.2625 13.6501V13.2751C9.2625 12.1501 8.3625 11.2126 7.2 11.2126C7.0125 11.2126 6.825 11.0626 6.825 10.8376V10.3876C6.825 10.1626 6.975 10.0126 7.2 10.0126Z" fill="#161A23"/>
<path d="M11.775 10.0126H12.975C13.425 10.0126 13.8375 9.6376 13.8375 9.1501C13.8375 8.6626 13.4625 8.2876 12.975 8.2876H11.775C10.65 8.2876 9.71251 9.1876 9.71251 10.3501V10.8001C9.71251 11.9251 10.6125 12.8626 11.775 12.8626C11.9625 12.8626 12.15 13.0126 12.15 13.2376V13.6126C12.15 13.8001 12 13.9876 11.775 13.9876H10.575C10.125 13.9876 9.71251 14.3626 9.71251 14.8501C9.71251 15.3376 10.0875 15.7126 10.575 15.7126H11.775C12.9 15.7126 13.8375 14.8126 13.8375 13.6501V13.2751C13.8375 12.1501 12.9375 11.2126 11.775 11.2126C11.5875 11.2126 11.4 11.0626 11.4 10.8376V10.3876C11.4 10.1626 11.5875 10.0126 11.775 10.0126Z" fill="#161A23"/>
<path d="M19.2375 13.2376V10.7626C19.2375 9.41257 18.15 8.32507 16.8375 8.32507H15.1125C14.6625 8.32507 14.25 8.70007 14.25 9.18757V14.8501C14.25 15.3001 14.625 15.7126 15.1125 15.7126H16.8375C18.15 15.6751 19.2375 14.5876 19.2375 13.2376ZM17.55 13.2376C17.55 13.6501 17.2125 13.9876 16.8375 13.9876H15.975V10.0126H16.8375C17.2125 10.0126 17.55 10.3501 17.55 10.7626V13.2376Z" fill="#161A23"/>
<path d="M5.77501 5.8125C6.39633 5.8125 6.90001 5.30882 6.90001 4.6875C6.90001 4.06618 6.39633 3.5625 5.77501 3.5625C5.15369 3.5625 4.65001 4.06618 4.65001 4.6875C4.65001 5.30882 5.15369 5.8125 5.77501 5.8125Z" fill="#161A23"/>
<path d="M18.6 5.8125C19.2213 5.8125 19.725 5.30882 19.725 4.6875C19.725 4.06618 19.2213 3.5625 18.6 3.5625C17.9787 3.5625 17.475 4.06618 17.475 4.6875C17.475 5.30882 17.9787 5.8125 18.6 5.8125Z" fill="#161A23"/>
<path d="M5.77501 20.4375C6.39633 20.4375 6.90001 19.9338 6.90001 19.3125C6.90001 18.6912 6.39633 18.1875 5.77501 18.1875C5.15369 18.1875 4.65001 18.6912 4.65001 19.3125C4.65001 19.9338 5.15369 20.4375 5.77501 20.4375Z" fill="#161A23"/>
<path d="M18.6 20.4375C19.2213 20.4375 19.725 19.9338 19.725 19.3125C19.725 18.6912 19.2213 18.1875 18.6 18.1875C17.9787 18.1875 17.475 18.6912 17.475 19.3125C17.475 19.9338 17.9787 20.4375 18.6 20.4375Z" fill="#161A23"/>
</svg>
