<svg width="25" height="24" viewBox="0 0 25 24" fill="none" xmlns="http://www.w3.org/2000/svg">
<path d="M20.0625 1.05005H4.31249C3.03749 1.05005 1.98749 2.10005 1.98749 3.37505V20.625C1.98749 21.9 3.03749 22.9875 4.34999 22.9875H20.0625C21.3375 22.9875 22.425 21.9375 22.425 20.625V3.37505C22.3875 2.10005 21.3375 1.05005 20.0625 1.05005ZM4.31249 2.73755H20.025C20.4 2.73755 20.7 3.03755 20.7 3.41255V5.43755H3.67499V3.37505C3.67499 3.00005 3.97499 2.73755 4.31249 2.73755ZM13.2 19.35V21.3H11.2125V19.35H13.2ZM15.8625 19.35C16.2 19.35 16.4625 19.6125 16.5 19.9125L16.65 21.2626H14.85V19.3125H15.8625V19.35ZM9.48749 21.3H7.68749L7.83749 19.9501C7.87499 19.6125 8.17499 19.3876 8.47499 19.3876H9.44999V21.3H9.48749ZM20.0625 21.3H18.375L18.1875 19.7626C18.0375 18.5625 17.0625 17.7001 15.8625 17.7001H8.51249C7.31249 17.7001 6.33749 18.6 6.18749 19.7626L5.99999 21.3H4.31249C3.93749 21.3 3.63749 21 3.63749 20.625V7.08755H20.6625V20.625C20.7 21 20.4 21.3 20.0625 21.3Z" fill="#161A23"/>
<path d="M7.20001 10.3876H8.40001C8.85001 10.3876 9.26251 10.0126 9.26251 9.5251C9.26251 9.0376 8.88751 8.6626 8.40001 8.6626H7.20001C6.07501 8.6626 5.13751 9.5626 5.13751 10.7251V11.1751C5.13751 12.3001 6.03751 13.2376 7.20001 13.2376C7.38751 13.2376 7.57501 13.3876 7.57501 13.6126V13.9876C7.57501 14.1751 7.42501 14.3626 7.20001 14.3626H6.00001C5.55001 14.3626 5.13751 14.7376 5.13751 15.2251C5.13751 15.7126 5.51251 16.0876 6.00001 16.0876H7.20001C8.32501 16.0876 9.26251 15.1876 9.26251 14.0251V13.6501C9.26251 12.5251 8.36251 11.5876 7.20001 11.5876C7.01251 11.5876 6.82501 11.4376 6.82501 11.2126V10.7626C6.82501 10.5376 6.97501 10.3876 7.20001 10.3876Z" fill="#161A23"/>
<path d="M11.775 10.3876H12.975C13.425 10.3876 13.8375 10.0126 13.8375 9.5251C13.8375 9.0376 13.4625 8.6626 12.975 8.6626H11.775C10.65 8.6626 9.71246 9.5626 9.71246 10.7251V11.1751C9.71246 12.3001 10.6125 13.2376 11.775 13.2376C11.9625 13.2376 12.15 13.3876 12.15 13.6126V13.9876C12.15 14.1751 12 14.3626 11.775 14.3626H10.575C10.125 14.3626 9.71246 14.7376 9.71246 15.2251C9.71246 15.7126 10.0875 16.0876 10.575 16.0876H11.775C12.9 16.0876 13.8375 15.1876 13.8375 14.0251V13.6501C13.8375 12.5251 12.9375 11.5876 11.775 11.5876C11.5875 11.5876 11.4 11.4376 11.4 11.2126V10.7626C11.4 10.5376 11.5875 10.3876 11.775 10.3876Z" fill="#161A23"/>
<path d="M16.8375 8.70007H15.1125C14.6625 8.70007 14.25 9.07507 14.25 9.56257V15.2251C14.25 15.6751 14.625 16.0876 15.1125 16.0876H16.8375C18.15 16.0876 19.2375 15.0001 19.2375 13.6501V11.1751C19.2375 9.78757 18.15 8.70007 16.8375 8.70007ZM17.55 13.6126C17.55 14.0251 17.2125 14.3626 16.8375 14.3626H15.975V10.3876H16.8375C17.2125 10.3876 17.55 10.7251 17.55 11.1376V13.6126Z" fill="#161A23"/>
</svg>
