<svg width="24" height="24" viewBox="0 0 24 24" fill="none" xmlns="http://www.w3.org/2000/svg">
<path d="M17.25 13.125H14.5125L14.9625 3.97505C15 3.07505 14.7 2.21255 14.1 1.57505C13.5 0.975049 12.7875 0.675049 12 0.675049C11.2125 0.675049 10.4625 1.01255 9.9 1.57505C9.3 2.21255 8.9625 3.07505 9 3.97505L9.4875 13.125H6.75C4.425 13.125 2.55 15.15 2.55 17.6625V19.425C2.55 19.9875 2.9625 20.4375 3.4875 20.475V21C3.4875 22.275 4.5375 23.3625 5.85 23.3625H18.1125C19.3875 23.3625 20.475 22.3125 20.475 21V20.475C21 20.4375 21.4125 19.9875 21.4125 19.425V17.6625C21.4125 15.15 19.5375 13.125 17.25 13.125ZM10.725 3.90005C10.6875 3.45005 10.875 3.03755 11.1375 2.73755C11.625 2.25005 12.375 2.25005 12.8625 2.73755C13.1625 3.03755 13.3125 3.45005 13.275 3.86255L12.825 13.125H11.175L10.725 3.90005ZM4.275 17.6625C4.275 16.0875 5.4 14.8125 6.7875 14.8125H9.6H14.4375H17.25C18.6375 14.8125 19.7625 16.0875 19.7625 17.6625V18.8251H4.275V17.6625ZM18.15 21.675H5.85C5.475 21.675 5.175 21.375 5.175 21V20.5126H18.75V21C18.7875 21.375 18.4875 21.675 18.15 21.675Z" fill="#161A23"/>
</svg>
