<svg width="24" height="24" viewBox="0 0 24 24" fill="none" xmlns="http://www.w3.org/2000/svg">
<path d="M22.5 15.6375H7.27501C7.42501 15.225 7.53751 14.775 7.53751 14.325V14.2875H19.2375C19.6875 14.2875 20.1 13.9125 20.1 13.425V9.41253L21.6 8.85003C21.825 8.77503 22.05 8.55003 22.125 8.32503C22.2 8.10003 22.1625 7.80003 22.0125 7.57503L20.5875 5.51253C19.2 3.45003 16.4625 2.73753 14.2125 3.82503L1.12501 10.2C0.825012 10.35 0.637512 10.65 0.637512 10.95V19.875C0.637512 20.325 1.01251 20.7375 1.50001 20.7375H22.5C22.95 20.7375 23.3625 20.3625 23.3625 19.875V16.5C23.3625 16.0125 22.95 15.6375 22.5 15.6375ZM18.4125 12.6H11.4L18.375 10.0125V12.6H18.4125ZM2.36251 11.475L14.9625 5.32503C16.4625 4.61253 18.2625 5.10003 19.2 6.45003L19.9875 7.65003L6.41251 12.675C6.33751 12.7125 6.26251 12.75 6.22501 12.7875L6.18751 12.825C6.15001 12.8625 6.07501 12.9 6.03751 12.975C6.03751 12.975 6.03751 12.975 6.00001 13.0125C5.96251 13.0875 5.92501 13.125 5.88751 13.2V13.2375C5.85001 13.3125 5.85001 13.3875 5.85001 13.4625V14.325C5.85001 15.3 5.06251 16.0875 4.08751 16.0875C3.11251 16.0875 2.32501 15.3 2.32501 14.325V11.475H2.36251ZM21.675 19.0125H2.36251V17.2875C2.88751 17.5875 3.48751 17.775 4.12501 17.775C4.72501 17.775 5.32501 17.625 5.81251 17.325H21.675V19.0125Z" fill="#161A23"/>
<path d="M4.05002 14.5876C4.46252 14.5876 4.76252 14.2501 4.76252 13.8751C4.76252 13.4626 4.42502 13.1626 4.05002 13.1626C3.67502 13.1626 3.33752 13.5001 3.33752 13.8751C3.33752 14.2501 3.63752 14.5876 4.05002 14.5876Z" fill="#161A23"/>
</svg>
