<svg width="24" height="24" viewBox="0 0 24 24" fill="none" xmlns="http://www.w3.org/2000/svg">
<path d="M16.95 10.275C17.4 10.275 17.775 9.89999 17.775 9.44999C17.775 8.99999 17.4375 8.58749 16.95 8.58749L15.3375 8.51249L14.775 7.08749C14.625 6.63749 14.1375 6.44999 13.6875 6.59999C13.2375 6.74999 13.05 7.27499 13.2 7.68749L13.95 9.63749C14.0625 9.93749 14.3625 10.1625 14.7 10.1625L16.95 10.275C16.95 10.275 16.9125 10.275 16.95 10.275Z" fill="#161A23"/>
<path d="M23.2875 9.48751C23.175 9.07501 22.8 8.81251 22.3875 8.81251L20.175 8.73751C19.725 8.70001 19.3125 9.07501 19.3125 9.56251C19.3125 10.0125 19.65 10.425 20.1375 10.425H20.4L19.275 11.2875C18.9 11.55 18.825 12.1125 19.125 12.4875C19.275 12.7125 19.5375 12.825 19.8 12.825C19.9875 12.825 20.1375 12.7875 20.325 12.6375L23.025 10.6125C23.2875 10.3125 23.4375 9.86251 23.2875 9.48751Z" fill="#161A23"/>
<path d="M17.2875 12.7125L15.975 13.6875C15.7125 13.9125 15.5625 14.25 15.675 14.5875L16.125 16.1625C16.2375 16.5375 16.575 16.7625 16.95 16.7625C17.025 16.7625 17.1 16.7625 17.175 16.725C17.625 16.575 17.8875 16.125 17.7375 15.675L17.4375 14.6625L18.3 14.025C18.675 13.7625 18.75 13.2 18.45 12.825C18.1875 12.525 17.6625 12.45 17.2875 12.7125Z" fill="#161A23"/>
<path d="M18.75 19.0875C18.6375 18.6375 18.15 18.375 17.7 18.525C17.25 18.675 16.9875 19.125 17.1375 19.575L17.2125 19.8375L16.1625 19.125C15.7875 18.8625 15.2625 18.975 15 19.3875C14.7375 19.7625 14.85 20.2875 15.2625 20.55L17.8875 22.2375C18.0375 22.35 18.225 22.3875 18.4125 22.3875C18.6375 22.3875 18.825 22.3125 19.0125 22.2C19.35 21.9375 19.5 21.525 19.35 21.15L18.75 19.0875Z" fill="#161A23"/>
<path d="M14.25 17.925L12.45 16.7625C12.45 16.7625 12.45 16.7625 12.4125 16.7625C12.375 16.725 12.3 16.6875 12.225 16.6875H12.1875C12.1125 16.6875 12.0375 16.65 11.9625 16.65H11.925C11.85 16.65 11.8125 16.65 11.7375 16.6875H11.7C11.625 16.725 11.55 16.725 11.5125 16.7625L6.75001 19.8L8.32501 14.625C8.43751 14.2875 8.28751 13.9125 8.02501 13.725L3.63751 10.425L9.26251 10.2C9.60001 10.2 9.90001 9.97499 10.0125 9.67499L12 4.53749L12.1875 5.06249C12.3 5.39999 12.6375 5.58749 12.975 5.58749C13.0875 5.58749 13.1625 5.58749 13.275 5.51249C13.725 5.36249 13.9125 4.83749 13.7625 4.42499L12.9375 2.24999C12.7875 1.87499 12.4125 1.61249 12 1.61249C11.5875 1.61249 11.2125 1.87499 11.0625 2.24999L8.62501 8.54999L1.61251 8.81249C1.20001 8.81249 0.825006 9.11249 0.712506 9.48749C0.600006 9.86249 0.712506 10.3125 1.05001 10.575L6.56251 14.7375L4.68751 21.15C4.57501 21.5625 4.72501 21.975 5.02501 22.2C5.21251 22.35 5.40001 22.3875 5.62501 22.3875C5.81251 22.3875 6.00001 22.35 6.15001 22.2375L12 18.4875L13.35 19.35C13.5 19.425 13.65 19.5 13.8 19.5C14.0625 19.5 14.3625 19.35 14.5125 19.125C14.775 18.7125 14.6625 18.1875 14.25 17.925Z" fill="#161A23"/>
</svg>
