<svg width="24" height="24" viewBox="0 0 24 24" fill="none" xmlns="http://www.w3.org/2000/svg">
<path d="M11.775 3.375L12 3.225L12.225 3.375L12.4125 3.0375L13.275 2.5875L12.75 1.6125C12.6 1.3125 12.3 1.125 12 1.125C11.7 1.125 11.4 1.3125 11.25 1.575L10.725 2.55L11.5875 3L11.775 3.375Z" fill="#161A23"/>
<path d="M14.0763 4.13892L12.5667 4.89307L13.723 7.20784L15.2326 6.4537L14.0763 4.13892Z" fill="#161A23"/>
<path d="M14.625 8.96251C14.7375 9.22501 15 9.37501 15.2625 9.41251L16.3875 9.56251L16.6125 7.87501L15.9375 7.80001L15.6375 7.20001L14.1375 7.98751L14.625 8.96251Z" fill="#161A23"/>
<path d="M18.3675 8.14557L18.1318 9.81653L20.7682 10.1885L21.0039 8.51752L18.3675 8.14557Z" fill="#161A23"/>
<path d="M23.6625 9.4125C23.55 9.1125 23.2875 8.8875 22.9875 8.8125L21.8625 8.625L21.75 9.5625L21.4875 9.7875L21.675 9.975L21.6375 10.275L22.0125 10.35L22.65 11.025L23.475 10.275C23.7 10.05 23.775 9.7125 23.6625 9.4125Z" fill="#161A23"/>
<path d="M20.2254 11.0002L18.3428 12.7753L19.5004 14.0031L21.3831 12.2281L20.2254 11.0002Z" fill="#161A23"/>
<path d="M18.3375 15.075L18.825 14.5875L17.6625 13.3875L16.875 14.175C16.6875 14.3625 16.575 14.6625 16.6125 14.925L16.8 16.0125L18.45 15.75L18.3375 15.075Z" fill="#161A23"/>
<path d="M18.7715 17.4179L17.1113 17.7202L17.5747 20.2657L19.2349 19.9635L18.7715 17.4179Z" fill="#161A23"/>
<path d="M19.35 20.775L18.45 20.925L18.075 20.7375L17.925 21.0375L17.6625 21.075L17.7375 21.375L17.2875 22.2375L18.3 22.7625C18.4125 22.8375 18.5625 22.8375 18.675 22.8375C18.8625 22.8375 19.05 22.7625 19.1625 22.6875C19.425 22.5 19.5375 22.1625 19.5 21.8625L19.35 20.775Z" fill="#161A23"/>
<path d="M14.1896 18.754L13.4218 20.2567L15.7594 21.4511L16.5272 19.9484L14.1896 18.754Z" fill="#161A23"/>
<path d="M11.625 17.85L10.6125 18.375L11.4 19.875L12 19.5375L12.6375 19.875L13.3875 18.375L12.375 17.85C12.15 17.7375 11.85 17.7375 11.625 17.85Z" fill="#161A23"/>
<path d="M9.03713 19.1557L6.69458 20.3401L7.45598 21.846L9.79853 20.6616L9.03713 19.1557Z" fill="#161A23"/>
<path d="M6.3 21.075L6.0375 21.0375L5.8875 20.775L5.5125 20.9625L4.6125 20.8125L4.425 21.9C4.3875 22.2 4.5 22.5375 4.7625 22.725C4.9125 22.8375 5.1 22.875 5.25 22.875C5.4 22.875 5.5125 22.8375 5.625 22.7625L6.6375 22.2375L6.1875 21.4125L6.3 21.075Z" fill="#161A23"/>
<path d="M5.39058 16.5762L4.95886 19.0895L6.62206 19.3752L7.05378 16.8619L5.39058 16.5762Z" fill="#161A23"/>
<path d="M7.38749 14.925C7.42499 14.6625 7.34999 14.3625 7.16249 14.175L6.33749 13.3875L5.17499 14.5875L5.66249 15.075L5.54999 15.7125L7.19999 16.0125L7.38749 14.925Z" fill="#161A23"/>
<path d="M3.1807 10.3939L2.02307 11.6217L3.90574 13.3967L5.06336 12.1689L3.1807 10.3939Z" fill="#161A23"/>
<path d="M2.39998 10.3125L2.36248 10.0125L2.54998 9.825L2.28748 9.6L2.13748 8.625L0.974976 8.8125C0.637476 8.85 0.374976 9.075 0.299976 9.4125C0.224976 9.75 0.299976 10.05 0.524976 10.275L1.38748 11.025L1.98748 10.35L2.39998 10.3125Z" fill="#161A23"/>
<path d="M6.50305 7.99765L3.9043 8.36804L4.1424 10.0387L6.74115 9.66828L6.50305 7.99765Z" fill="#161A23"/>
<path d="M8.09995 7.80001L7.38745 7.87501L7.61245 9.56251L8.77495 9.41251C9.03745 9.37501 9.29995 9.22501 9.41245 8.96251L9.93745 7.98751L8.43745 7.20001L8.09995 7.80001Z" fill="#161A23"/>
<path d="M10.3518 3.35669L9.17523 5.66138L10.6783 6.42868L11.8548 4.124L10.3518 3.35669Z" fill="#161A23"/>
</svg>
