<svg width="24" height="24" viewBox="0 0 24 24" fill="none" xmlns="http://www.w3.org/2000/svg">
<path d="M22.6125 11.8125C23.2875 11.1 23.5125 10.0875 23.2125 9.15001C22.9125 8.21251 22.125 7.53751 21.15 7.35001L17.025 6.60001C16.725 6.56251 16.4625 6.37501 16.3125 6.07501L14.3625 2.43751C13.875 1.57501 12.975 1.01251 12 1.01251C11.025 1.01251 10.0875 1.53751 9.6375 2.43751L7.6875 6.07501C7.5375 6.33751 7.275 6.52501 6.975 6.60001L2.85 7.35001C1.875 7.53751 1.125 8.21251 0.787504 9.15001C0.487504 10.0875 0.675004 11.1 1.3875 11.8125L4.2 14.85C4.3875 15.075 4.5 15.375 4.4625 15.6375L3.9375 19.9125C3.825 20.8875 4.2 21.7875 4.9875 22.3875C5.7375 22.9875 6.75 23.1 7.65 22.725L11.625 21.1125C11.8875 21 12.15 21 12.375 21.1125L16.35 22.7625C16.6875 22.9125 17.025 22.95 17.3625 22.95C17.925 22.95 18.4875 22.7625 18.975 22.3875C19.725 21.7875 20.1375 20.8875 20.025 19.9125L19.5 15.6375C19.4625 15.3375 19.575 15.0375 19.7625 14.85L22.6125 11.8125ZM18.5625 13.725C18.0375 14.2875 17.775 15.075 17.85 15.8625L18.375 20.1375C18.45 20.6625 18.1125 20.9625 18 21.0375C17.85 21.15 17.475 21.375 17.025 21.15L13.05 19.5C12.7125 19.35 12.375 19.3125 12.0375 19.3125C11.7 19.3125 11.3625 19.3875 11.025 19.5L7.05 21.15C6.5625 21.3375 6.1875 21.1125 6.075 21.0375C5.925 20.925 5.625 20.625 5.7 20.1375L6.225 15.8625C6.3375 15.075 6.075 14.2875 5.5125 13.725L2.625 10.6875C2.3625 10.425 2.2875 10.05 2.4 9.67501C2.5125 9.30001 2.8125 9.07501 3.1875 9.00001L7.3125 8.25001C8.1375 8.10001 8.8125 7.61251 9.1875 6.86251L11.1375 3.22501C11.2875 2.92501 11.625 2.73751 12 2.73751C12.375 2.73751 12.7125 2.92501 12.9 3.26251L14.85 6.90001C15.225 7.61251 15.9375 8.13751 16.725 8.28751L20.85 9.03751C21.225 9.11251 21.4875 9.33751 21.6375 9.71251C21.75 10.05 21.675 10.425 21.4125 10.725L18.5625 13.725Z" fill="#161A23"/>
<path d="M11.3625 10.5375H14.1C14.55 10.5375 14.925 10.1625 14.925 9.71252C14.925 9.26252 14.55 8.88752 14.1 8.88752H13.275V8.47502C13.275 8.02502 12.9 7.65002 12.45 7.65002C12 7.65002 11.625 8.02502 11.625 8.47502V8.88752H11.4C10.125 8.88752 9.07501 9.93752 9.07501 11.2125C9.07501 12.4875 10.125 13.5375 11.4 13.5375H12.675C13.0125 13.5375 13.3125 13.8 13.3125 14.175C13.3125 14.55 13.0125 14.8125 12.675 14.8125H9.93751C9.48751 14.8125 9.11251 15.1875 9.11251 15.6375C9.11251 16.0875 9.48751 16.4625 9.93751 16.4625H11.625V16.875C11.625 17.325 12 17.7 12.45 17.7C12.9 17.7 13.275 17.325 13.275 16.875V16.3875C14.25 16.125 14.9625 15.225 14.9625 14.175C14.9625 12.9 13.9125 11.85 12.6375 11.85H11.3625C11.025 11.85 10.725 11.5875 10.725 11.2125C10.725 10.8375 11.025 10.5375 11.3625 10.5375Z" fill="#161A23"/>
</svg>
