<svg width="24" height="24" viewBox="0 0 24 24" fill="none" xmlns="http://www.w3.org/2000/svg">
<g clip-path="url(#clip0_501_47551)">
<path d="M6.03753 23.3251C5.70003 23.3251 5.36253 23.2125 5.10003 23.025C4.57503 22.65 4.27503 21.975 4.38753 21.3375L5.36253 15.3L1.16253 10.9875C0.712529 10.5375 0.56253 9.86255 0.75003 9.22505C0.937529 8.62505 1.46253 8.17505 2.06253 8.10005L7.87503 7.16255L10.5 1.65005C10.8 1.05005 11.3625 0.675049 12 0.675049C12.6375 0.675049 13.2375 1.05005 13.5 1.65005L16.125 7.12505L21.9 8.02505C22.5 8.13755 23.025 8.55005 23.2125 9.15005C23.4375 9.78755 23.25 10.4625 22.8 10.9125L18.6375 15.2625L19.6125 21.3375C19.725 22.0126 19.4625 22.65 18.9 23.025C18.375 23.4 17.7375 23.4375 17.175 23.1376L12 20.3251L6.82503 23.1376C6.60003 23.2875 6.30003 23.3251 6.03753 23.3251ZM2.36253 9.75005C2.36253 9.75005 2.36253 9.78755 2.36253 9.82505L6.75003 14.325C7.01253 14.5875 7.12503 15 7.08753 15.375L6.07503 21.6376C6.07503 21.6376 6.07503 21.6375 6.07503 21.675L11.475 18.75C11.8125 18.5625 12.225 18.5625 12.6 18.75L18 21.675C18 21.675 18 21.675 18 21.6376L16.9875 15.3375C16.9125 14.9625 17.0625 14.5875 17.325 14.2875L21.7125 9.78755C21.75 9.75005 21.7125 9.71255 21.7125 9.71255L15.675 8.77505C15.3 8.70005 14.9625 8.47505 14.8125 8.10005L12 2.40005L9.30003 8.13755C9.15003 8.47505 8.81253 8.73755 8.43753 8.81255L2.36253 9.75005Z" fill="#161A23"/>
</g>
<defs>
<clipPath id="clip0_501_47551">
<rect width="24" height="24" fill="white"/>
</clipPath>
</defs>
</svg>
