<svg width="24" height="24" viewBox="0 0 24 24" fill="none" xmlns="http://www.w3.org/2000/svg">
<g clip-path="url(#clip0_501_45086)">
<path d="M22.5 21.6749H2.36249V1.49995C2.36249 1.04995 1.98749 0.637451 1.49999 0.637451C1.01249 0.637451 0.674988 1.04995 0.674988 1.49995V22.4999C0.674988 22.9499 1.04999 23.3624 1.53749 23.3624H22.5375C22.9875 23.3624 23.4 22.9874 23.4 22.4999C23.4 22.0124 22.95 21.6749 22.5 21.6749Z" fill="#161A23"/>
<path d="M22.5 10.7249C22.05 10.7249 21.6375 11.0999 21.6375 11.5874V14.3999L19.125 12.2999C18.975 12.1874 18.7875 12.1124 18.6 12.1124H13.8L11.1375 8.62485C10.9875 8.39985 10.725 8.28735 10.4625 8.28735H5.7375C5.2875 8.28735 4.875 8.66235 4.875 9.14985C4.875 9.63735 5.25 10.0124 5.7375 10.0124H10.05L12.7125 13.4999C12.8625 13.7249 13.125 13.8374 13.3875 13.8374H18.3375L20.4 15.5624H17.775C17.325 15.5624 16.9125 15.9374 16.9125 16.4249C16.9125 16.9124 17.2875 17.2874 17.775 17.2874H22.5C22.95 17.2874 23.3625 16.9124 23.3625 16.4249V11.5874C23.3625 11.0999 22.95 10.7249 22.5 10.7249Z" fill="#161A23"/>
</g>
<defs>
<clipPath id="clip0_501_45086">
<rect width="24" height="24" fill="white"/>
</clipPath>
</defs>
</svg>
