<svg width="24" height="24" viewBox="0 0 24 24" fill="none" xmlns="http://www.w3.org/2000/svg">
<path d="M10.0125 16.7625H14.0625C14.5125 16.7625 14.8875 16.3875 14.8875 15.9375C14.8875 15.4875 14.5125 15.1125 14.0625 15.1125H10.0125C9.5625 15.1125 9.1875 15.4875 9.1875 15.9375C9.1875 16.3875 9.5625 16.7625 10.0125 16.7625Z" fill="#161A23"/>
<path d="M16.95 18.3H10.0125C9.5625 18.3 9.1875 18.675 9.1875 19.125C9.1875 19.575 9.5625 19.95 10.0125 19.95H16.95C17.4 19.95 17.775 19.575 17.775 19.125C17.775 18.675 17.4375 18.3 16.95 18.3Z" fill="#161A23"/>
<path d="M20.1376 0.675049H7.5376C6.4126 0.675049 5.5126 1.57505 5.5126 2.70005V16.4626H2.3626C1.9126 16.4626 1.5376 16.8375 1.5376 17.2875V21.0001C1.5376 22.2751 2.5876 23.3251 3.8626 23.3251H20.1376C21.4501 23.3251 22.5001 22.2751 22.5001 20.9626V3.00005C22.5001 1.72505 21.4126 0.675049 20.1376 0.675049ZM3.8251 21.6751C3.4876 21.6751 3.1876 21.375 3.1876 21.0375V18.1501H5.5126V21.0001C5.5126 21.3376 5.2126 21.6376 4.8751 21.6376H3.8251V21.6751ZM20.8126 21.0001C20.8126 21.3751 20.5126 21.6751 20.1376 21.6751H7.1251C7.2001 21.4876 7.2001 21.2626 7.2001 21.0375V2.70005C7.2001 2.51255 7.3501 2.36255 7.5376 2.36255H20.1001C20.4751 2.36255 20.7751 2.66255 20.7751 3.03755V21.0001H20.8126Z" fill="#161A23"/>
<path d="M17.5501 7.575L15.7126 8.4375L13.2751 7.275C13.0501 7.1625 12.7876 7.1625 12.5626 7.275L10.8751 7.9875V5.325C10.8751 4.875 10.5001 4.5 10.0501 4.5C9.6001 4.5 9.2251 4.875 9.2251 5.325V12.825C9.2251 13.275 9.6001 13.65 10.0501 13.65H17.5126C17.9626 13.65 18.3376 13.275 18.3376 12.825C18.3376 12.375 17.9626 12 17.5126 12H10.8751V9.8625L12.9376 8.925L15.3751 10.0875C15.4876 10.1625 15.6001 10.1625 15.7501 10.1625C15.8626 10.1625 15.9751 10.125 16.0876 10.0875L18.2626 9.075C18.6751 8.8875 18.8626 8.3625 18.6751 7.95C18.4876 7.5375 17.9626 7.35 17.5501 7.575Z" fill="#161A23"/>
</svg>
