<svg width="24" height="24" viewBox="0 0 24 24" fill="none" xmlns="http://www.w3.org/2000/svg">
<g clip-path="url(#clip0_501_45116)">
<path d="M22.5 21.6749H2.36249V1.49995C2.36249 1.04995 1.98749 0.637451 1.49999 0.637451C1.01249 0.637451 0.674988 1.04995 0.674988 1.49995V21.7874C0.674988 22.6499 1.38749 23.3624 2.24999 23.3624H22.5C22.95 23.3624 23.3625 22.9874 23.3625 22.4999C23.3625 22.0124 22.95 21.6749 22.5 21.6749Z" fill="#161A23"/>
<path d="M22.125 8.28735H17.7375C17.2875 8.28735 16.875 8.66235 16.875 9.14985C16.875 9.63735 17.25 10.0124 17.7375 10.0124H20.2875L18.3 11.7374H13.3875C13.125 11.7374 12.8625 11.8499 12.7125 12.0749L10.05 15.5624H6.1125C5.6625 15.5624 5.25 15.9374 5.25 16.4249C5.25 16.9124 5.625 17.2874 6.1125 17.2874H10.4625C10.725 17.2874 10.9875 17.1749 11.1375 16.9499L13.8 13.4624H18.6375C18.825 13.4624 19.05 13.3874 19.2 13.2374L21.675 11.0624V13.9499C21.675 14.3999 22.05 14.8124 22.5375 14.8124C23.025 14.8124 23.4 14.4374 23.4 13.9499V9.48735C23.3625 8.84985 22.8 8.28735 22.125 8.28735Z" fill="#161A23"/>
</g>
<defs>
<clipPath id="clip0_501_45116">
<rect width="24" height="24" fill="white"/>
</clipPath>
</defs>
</svg>
