<svg width="24" height="24" viewBox="0 0 24 24" fill="none" xmlns="http://www.w3.org/2000/svg">
<g clip-path="url(#clip0_914_45424)">
<path d="M11.9625 0.337646C5.8875 0.337646 0.7875 5.06265 0.375 11.0627L6.6 13.6502C7.125 13.2752 7.7625 13.1252 8.4375 13.1252C8.475 13.1252 8.5875 13.1252 8.5875 13.1252L11.325 9.03765C11.325 9.00015 11.325 9.00015 11.325 9.00015C11.325 6.56265 13.275 4.61265 15.7125 4.61265C18.15 4.61265 20.1375 6.56265 20.1375 9.00015C20.1375 11.4377 18.1875 13.3877 15.75 13.3877C15.7125 13.3877 15.7125 13.3877 15.6375 13.3877L11.6625 16.2377C11.6625 16.2752 11.6625 16.3502 11.6625 16.3877C11.6625 18.1877 10.2 19.7252 8.325 19.7252C6.75 19.7252 5.3625 18.5627 5.1 17.1002L0.75 15.1877C2.1375 20.0627 6.675 23.7002 11.9625 23.7002C18.375 23.6627 23.625 18.4502 23.625 12.0002C23.625 5.55015 18.375 0.337646 11.9625 0.337646Z" fill="#15171A"/>
<path d="M7.65059 18.0375L6.22559 17.475C6.48809 18 6.90059 18.4875 7.50059 18.675C8.70059 19.2 10.2006 18.6375 10.7256 17.3625C10.9881 16.725 10.9881 16.0875 10.7256 15.45C10.4631 14.8125 9.97559 14.325 9.41309 14.0625C8.81309 13.8 8.21309 13.8375 7.61309 14.025L9.07559 14.6625C9.97559 15.075 10.4631 16.125 10.0881 17.025C9.67559 17.9625 8.62559 18.375 7.65059 18.0375Z" fill="#15171A"/>
<path d="M18.7497 9.00022C18.7497 7.42522 17.4372 6.03772 15.7872 6.03772C14.2122 6.03772 12.8247 7.35022 12.8247 9.00022C12.8247 10.6502 14.2122 11.9627 15.7872 11.9627C17.3622 11.9627 18.7497 10.6127 18.7497 9.00022ZM13.6497 9.00022C13.6497 7.80022 14.6622 6.82522 15.8247 6.82522C17.0247 6.82522 17.9997 7.83772 17.9997 9.00022C17.9997 10.2002 16.9872 11.1752 15.8247 11.1752C14.6247 11.2127 13.6497 10.2002 13.6497 9.00022Z" fill="#15171A"/>
</g>
<defs>
<clipPath id="clip0_914_45424">
<rect width="24" height="24" fill="white"/>
</clipPath>
</defs>
</svg>
