<svg width="24" height="24" viewBox="0 0 24 24" fill="none" xmlns="http://www.w3.org/2000/svg">
<path d="M19.0875 0.674988H4.91252C3.63752 0.674988 2.58752 1.72499 2.58752 2.99999V21C2.58752 22.275 3.63752 23.3625 4.95002 23.3625H19.0875C20.3625 23.3625 21.45 22.3125 21.45 21V2.99999C21.4125 1.72499 20.3625 0.674988 19.0875 0.674988ZM19.725 21C19.725 21.375 19.425 21.675 19.05 21.675H4.91252C4.53752 21.675 4.23752 21.375 4.23752 21V2.99999C4.23752 2.62499 4.53752 2.32499 4.91252 2.32499H19.05C19.425 2.32499 19.725 2.62499 19.725 2.99999V21Z" fill="#161A23"/>
<path d="M15.9376 3.78749C15.9001 3.74999 15.9001 3.74999 15.9376 3.78749C15.8626 3.74999 15.8251 3.71249 15.7876 3.67499L15.7501 3.63749C15.7126 3.63749 15.6751 3.59999 15.6751 3.59999C15.6376 3.59999 15.6376 3.59999 15.6001 3.56249C15.5626 3.56249 15.5626 3.52499 15.5251 3.52499C15.4876 3.52499 15.4876 3.52499 15.4501 3.52499C15.4126 3.52499 15.4126 3.52499 15.3751 3.52499C15.3376 3.52499 15.3376 3.52499 15.3001 3.52499C15.2626 3.52499 15.2626 3.52499 15.2251 3.52499C15.1876 3.52499 15.1876 3.52499 15.1501 3.56249C15.1126 3.56249 15.1126 3.56249 15.0751 3.59999C15.0376 3.59999 15.0001 3.63749 15.0001 3.63749C15.0001 3.63749 14.9626 3.63749 14.9626 3.67499C14.9251 3.71249 14.8876 3.71249 14.8501 3.74999C14.8501 3.74999 14.8126 3.74999 14.8126 3.78749L12.5626 6.03749C12.2251 6.37499 12.2251 6.89999 12.5626 7.23749C12.7126 7.38749 12.9376 7.49999 13.1626 7.49999C13.3876 7.49999 13.6126 7.42499 13.7626 7.23749L14.6626 6.33749V9.14999C14.6626 10.7625 13.3501 12.0375 11.7751 12.0375C9.26257 12.0375 7.20007 14.1 7.20007 16.6125V19.9875C7.20007 20.4375 7.57507 20.85 8.06257 20.85C8.55007 20.85 8.92507 20.475 8.92507 19.9875V16.6125C8.92507 15 10.2376 13.725 11.8126 13.725C14.3251 13.725 16.3876 11.6625 16.3876 9.14999V6.44999L17.1751 7.23749C17.3251 7.38749 17.5501 7.49999 17.7751 7.49999C18.0001 7.49999 18.2251 7.42499 18.3751 7.23749C18.7126 6.89999 18.7126 6.37499 18.3751 6.03749L15.9376 3.78749Z" fill="#161A23"/>
<path d="M7.65002 8.51249L8.25002 7.91249L8.85002 8.51249C9.00002 8.66249 9.22502 8.77499 9.45002 8.77499C9.67502 8.77499 9.90002 8.69999 10.05 8.51249C10.3875 8.17499 10.3875 7.64999 10.05 7.31249L9.45002 6.74999L10.05 6.18749C10.3875 5.84999 10.3875 5.32499 10.05 4.98749C9.71252 4.64999 9.18752 4.64999 8.85002 4.98749L8.25002 5.54999L7.65002 4.94999C7.31252 4.61249 6.78752 4.61249 6.45002 4.94999C6.11252 5.28749 6.11252 5.81249 6.45002 6.14999L7.05002 6.71249L6.45002 7.27499C6.11252 7.61249 6.11252 8.13749 6.45002 8.47499C6.60002 8.62499 6.82502 8.73749 7.05002 8.73749C7.27502 8.73749 7.50002 8.66249 7.65002 8.51249Z" fill="#161A23"/>
<path d="M17.1001 16.2C16.7626 15.8625 16.2376 15.8625 15.9001 16.2L15.3001 16.8L14.7001 16.2C14.3626 15.8625 13.8376 15.8625 13.5001 16.2C13.1626 16.5375 13.1626 17.0625 13.5001 17.4L14.1001 17.9625L13.5001 18.525C13.1626 18.8625 13.1626 19.3875 13.5001 19.725C13.6501 19.875 13.8751 19.9875 14.1001 19.9875C14.3251 19.9875 14.5501 19.9125 14.7001 19.725L15.3001 19.125L15.9001 19.725C16.0501 19.875 16.2751 19.9875 16.5001 19.9875C16.7251 19.9875 16.9501 19.9125 17.1001 19.725C17.4376 19.3875 17.4376 18.8625 17.1001 18.525L16.5001 18L17.1001 17.4375C17.4376 17.0625 17.4376 16.5375 17.1001 16.2Z" fill="#161A23"/>
</svg>
