<svg width="24" height="24" viewBox="0 0 24 24" fill="none" xmlns="http://www.w3.org/2000/svg">
<g clip-path="url(#clip0_501_41651)">
<path d="M12 0.675049C5.73755 0.675049 0.675049 5.73755 0.675049 12C0.675049 18.2626 5.73755 23.3251 12 23.3251C18.2626 23.3251 23.3251 18.2626 23.3251 12C23.3251 5.73755 18.2626 0.675049 12 0.675049ZM12.8251 21.6V13.5375L15.5251 16.3126C15.8626 16.6501 16.3875 16.6501 16.725 16.35C17.0625 16.0125 17.0626 15.4876 16.7626 15.1501L12.6 10.875C12.3 10.5375 11.7 10.5375 11.4001 10.875L7.23755 15.1501C6.90005 15.4876 6.93755 16.0125 7.27505 16.35C7.61255 16.6875 8.13755 16.6501 8.47505 16.3126L11.175 13.5375V21.6C6.22505 21.1875 2.32505 17.0251 2.32505 12C2.32505 6.67505 6.67505 2.32505 12 2.32505C17.3251 2.32505 21.6751 6.67505 21.6751 12C21.6751 17.0251 17.7751 21.1875 12.8251 21.6Z" fill="#161A23"/>
</g>
<defs>
<clipPath id="clip0_501_41651">
<rect width="24" height="24" fill="white"/>
</clipPath>
</defs>
</svg>
