<svg width="24" height="24" viewBox="0 0 24 24" fill="none" xmlns="http://www.w3.org/2000/svg">
<path d="M3.3002 9.82501C3.4127 9.82501 3.5252 9.78751 3.6752 9.75001C4.0877 9.56251 4.2752 9.03751 4.0877 8.62501C3.8252 8.02501 3.6752 7.38751 3.6752 6.75001C3.6752 5.58751 4.1252 4.46251 4.9502 3.63751C5.7752 2.81251 6.90019 2.36251 8.06269 2.36251H21.1877C21.6377 2.36251 22.0502 1.98751 22.0502 1.50001C22.0502 1.01251 21.6752 0.637512 21.1877 0.637512H8.06269C6.45019 0.637512 4.9127 1.27501 3.7502 2.43751C2.5877 3.60001 1.9502 5.13751 1.9502 6.75001C1.9502 7.65001 2.1377 8.51251 2.5127 9.33751C2.7002 9.63751 3.0002 9.82501 3.3002 9.82501Z" fill="#161A23"/>
<path d="M20.3251 14.25C19.9126 14.4375 19.7251 14.9625 19.9126 15.375C20.1751 15.975 20.3251 16.6125 20.3251 17.25C20.3251 19.6875 18.3376 21.675 15.9001 21.675H2.7751C2.3251 21.675 1.9126 22.05 1.9126 22.5375C1.9126 23.025 2.2876 23.4 2.7751 23.4H15.9001C19.2751 23.4 22.0126 20.6625 22.0126 17.2875C22.0126 16.3875 21.8251 15.525 21.4501 14.7C21.2626 14.2125 20.7751 14.0625 20.3251 14.25Z" fill="#161A23"/>
<path d="M21.7876 11.175H2.2126C1.7626 11.175 1.3501 11.55 1.3501 12.0375C1.3501 12.4875 1.7251 12.9 2.2126 12.9H21.7501C22.2001 12.9 22.6126 12.525 22.6126 12.0375C22.6126 11.55 22.2376 11.175 21.7876 11.175Z" fill="#161A23"/>
</svg>
