<svg width="24" height="24" viewBox="0 0 24 24" fill="none" xmlns="http://www.w3.org/2000/svg">
<path fill-rule="evenodd" clip-rule="evenodd" d="M23.6247 12.1589C23.6247 10.531 22.8239 9.24646 21.2932 9.24646C19.7562 9.24646 18.8262 10.531 18.8262 12.1462C18.8262 14.0602 19.9241 15.0268 21.4999 15.0268C22.2684 15.0268 22.8497 14.8551 23.2889 14.6135V13.3416C22.8497 13.5579 22.346 13.6914 21.7066 13.6914C21.0801 13.6914 20.5247 13.4752 20.4537 12.7248H23.6118C23.6118 12.6422 23.6247 12.3115 23.6247 12.1589ZM20.4343 11.5548C20.4343 10.8362 20.8799 10.5373 21.2868 10.5373C21.6807 10.5373 22.1005 10.8362 22.1005 11.5548H20.4343Z" fill="#15171A"/>
<path fill-rule="evenodd" clip-rule="evenodd" d="M16.3336 9.24646C15.7007 9.24646 15.2938 9.53896 15.0678 9.74251L14.9838 9.34824H13.563V16.7628L15.1776 16.4258L15.184 14.6262C15.4165 14.7915 15.7588 15.0268 16.3272 15.0268C17.4832 15.0268 18.5359 14.1111 18.5359 12.0953C18.5295 10.2512 17.4639 9.24646 16.3336 9.24646ZM15.9461 13.6278C15.5651 13.6278 15.3391 13.4943 15.184 13.3289L15.1776 10.9697C15.3455 10.7853 15.578 10.6582 15.9461 10.6582C16.5339 10.6582 16.9407 11.3068 16.9407 12.1398C16.9407 12.9919 16.5403 13.6278 15.9461 13.6278Z" fill="#15171A"/>
<path fill-rule="evenodd" clip-rule="evenodd" d="M11.3408 8.87131L12.9619 8.52792V7.23706L11.3408 7.57411V8.87131Z" fill="#15171A"/>
<path d="M12.9619 9.35486H11.3408V14.919H12.9619V9.35486Z" fill="#15171A"/>
<path fill-rule="evenodd" clip-rule="evenodd" d="M9.60329 9.82523L9.49998 9.35464H8.10498V14.9188H9.71954V11.1479C10.1006 10.6583 10.7464 10.7473 10.9467 10.8172V9.35464C10.74 9.27837 9.98437 9.13849 9.60329 9.82523Z" fill="#15171A"/>
<path fill-rule="evenodd" clip-rule="evenodd" d="M6.37532 7.97498L4.79949 8.30561L4.79297 13.3992C4.79297 14.3403 5.50989 15.0335 6.46573 15.0335C6.99531 15.0335 7.38276 14.9381 7.59591 14.8236V13.5327C7.38924 13.6154 6.36887 13.9079 6.36887 12.9668V10.7093H7.59591V9.35486H6.36887L6.37532 7.97498Z" fill="#15171A"/>
<path fill-rule="evenodd" clip-rule="evenodd" d="M2.00896 10.9697C2.00896 10.7218 2.21562 10.6263 2.55792 10.6263C3.04875 10.6263 3.66875 10.7726 4.15957 11.0334V9.53896C3.62354 9.32915 3.09396 9.24646 2.55792 9.24646C1.24687 9.24646 0.375 9.92052 0.375 11.046C0.375 12.8011 2.82916 12.5214 2.82916 13.278C2.82916 13.5706 2.57083 13.666 2.20917 13.666C1.67313 13.666 0.988541 13.4498 0.44604 13.1573V14.6707C1.04667 14.925 1.65375 15.0331 2.20917 15.0331C3.5525 15.0331 4.47604 14.3782 4.47604 13.2399C4.46959 11.345 2.00896 11.6819 2.00896 10.9697Z" fill="#15171A"/>
</svg>
