<svg width="24" height="24" viewBox="0 0 24 24" fill="none" xmlns="http://www.w3.org/2000/svg">
<g clip-path="url(#clip0_501_39776)">
<path d="M22.4999 7.35001H12.8624V2.36251H18.2999C18.7499 2.36251 19.1249 1.95001 19.1249 1.50001C19.1249 1.05001 18.75 0.637512 18.2624 0.637512H5.69995C5.24995 0.675012 4.87495 1.05001 4.87495 1.50001C4.87495 1.95001 5.24995 2.36251 5.73745 2.36251H11.1749V7.35001H1.49995C1.04995 7.35001 0.637451 7.72501 0.637451 8.21251C0.637451 8.70001 1.01245 9.07501 1.49995 9.07501H11.1749V22.5C11.1749 22.95 11.5499 23.3625 12.0374 23.3625C12.4874 23.3625 12.9 22.9875 12.9 22.5V9.03751H22.4999C22.9499 9.03751 23.3624 8.66251 23.3624 8.17501C23.3624 7.68751 22.9499 7.35001 22.4999 7.35001Z" fill="#161A23"/>
</g>
<defs>
<clipPath id="clip0_501_39776">
<rect width="24" height="24" fill="white"/>
</clipPath>
</defs>
</svg>
