<svg width="24" height="24" viewBox="0 0 24 24" fill="none" xmlns="http://www.w3.org/2000/svg">
<path d="M23.625 12.4877V15.7127C23.625 18.5627 21.3 20.8877 18.45 20.8877C15.6 20.8877 13.275 18.6002 13.275 15.7127V12.5252L14.85 13.2752L17.2125 12.6002V15.8627C17.2125 16.5377 17.7375 17.0627 18.4125 17.0627C19.0875 17.0627 19.6125 16.5377 19.6125 15.8627V12.5252C19.65 12.4876 23.625 12.4877 23.625 12.4877ZM13.2 9.78765L14.775 10.5377L17.1375 9.86265V8.21265C17.1375 5.40015 14.775 3.15015 11.9625 3.15015C9.15 3.15015 6.7875 5.36265 6.7875 8.17515V15.6752C6.7875 16.3502 6.2625 16.8752 5.5875 16.8752C4.9125 16.8752 4.3875 16.3502 4.3875 15.6752V12.4877H0.375V15.7127C0.375 18.5627 2.7 20.8877 5.55 20.8877C8.4 20.8877 10.725 18.6002 10.725 15.7502V8.36265C10.725 7.68765 11.25 7.16265 11.925 7.16265C12.6 7.16265 13.125 7.68765 13.125 8.36265V9.78765H13.2Z" fill="#15171A"/>
</svg>
