<svg width="24" height="24" viewBox="0 0 24 24" fill="none" xmlns="http://www.w3.org/2000/svg">
<path d="M11.4751 7.05005H5.4001C4.9501 7.05005 4.5376 7.42505 4.5376 7.91255C4.5376 8.40005 4.9126 8.77505 5.4001 8.77505H11.4751C11.9251 8.77505 12.3376 8.40005 12.3376 7.91255C12.3376 7.42505 11.9626 7.05005 11.4751 7.05005Z" fill="#161A23"/>
<path d="M5.4001 11.6251H8.1751C8.6251 11.6251 9.0376 11.2501 9.0376 10.7626C9.0376 10.2751 8.6626 9.90015 8.1751 9.90015H5.4001C4.9501 9.90015 4.5376 10.2751 4.5376 10.7626C4.5376 11.2501 4.9126 11.6251 5.4001 11.6251Z" fill="#161A23"/>
<path d="M10.0876 12.7876H5.4001C4.9501 12.7876 4.5376 13.1626 4.5376 13.6501C4.5376 14.1376 4.9126 14.5126 5.4001 14.5126H10.0876C10.5376 14.5126 10.9501 14.1376 10.9501 13.6501C10.9501 13.1626 10.5751 12.7876 10.0876 12.7876Z" fill="#161A23"/>
<path d="M17.9625 6.52516C17.0625 6.41266 16.2 6.86266 15.7875 7.65016C15.5625 8.06266 15.7125 8.58766 16.125 8.77516C16.5375 9.00016 17.0625 8.85016 17.25 8.43766C17.3625 8.25016 17.55 8.17516 17.775 8.17516C18.0375 8.21266 18.1875 8.40016 18.1875 8.55016C18.225 8.77516 18.075 8.92516 17.9625 9.00016C17.325 9.30016 16.875 10.0127 16.875 10.6877V11.1377C16.875 11.5877 17.25 12.0002 17.7375 12.0002C18.225 12.0002 18.6 11.6252 18.6 11.1377V10.6877C18.6 10.6502 18.675 10.5377 18.7125 10.5002C19.5375 10.1252 19.9875 9.22516 19.875 8.36266C19.7625 7.42516 18.9375 6.63766 17.9625 6.52516Z" fill="#161A23"/>
<path d="M20.4375 3.67505H3.56255C1.95005 3.67505 0.675049 4.98755 0.675049 6.56255V18.7501C0.675049 19.35 1.01255 19.9125 1.57505 20.1751C1.80005 20.2875 2.02505 20.3251 2.25005 20.3251C2.62505 20.3251 2.96255 20.2126 3.26255 19.9501L5.88755 17.7751H20.475C22.0875 17.7751 23.3625 16.4626 23.3625 14.8876V6.56255C23.3625 4.98755 22.05 3.67505 20.4375 3.67505ZM21.675 14.8876C21.675 15.5626 21.1125 16.0876 20.475 16.0876H5.55005C5.36255 16.0876 5.17505 16.1626 5.02505 16.2751L2.36255 18.4875V6.56255C2.36255 5.88755 2.92505 5.36255 3.56255 5.36255H20.4375C21.1125 5.36255 21.6376 5.92505 21.6376 6.56255V14.8876H21.675Z" fill="#161A23"/>
<path d="M17.7 12.7876H17.6625C17.2125 12.7876 16.8 13.1626 16.8 13.6501C16.8 14.1376 17.175 14.5126 17.6625 14.5126H17.7C18.15 14.5126 18.5625 14.1376 18.5625 13.6501C18.5625 13.1626 18.15 12.7876 17.7 12.7876Z" fill="#161A23"/>
</svg>
