<svg width="24" height="24" viewBox="0 0 24 24" fill="none" xmlns="http://www.w3.org/2000/svg">
<path d="M11.5875 7.61255H5.25005C4.80005 7.61255 4.42505 7.98755 4.42505 8.43755C4.42505 8.88755 4.80005 9.26255 5.25005 9.26255H11.55C12 9.26255 12.375 8.88755 12.375 8.43755C12.375 7.98755 12.0375 7.61255 11.5875 7.61255Z" fill="#161A23"/>
<path d="M8.17505 12.2626H5.25005C4.80005 12.2626 4.42505 12.6376 4.42505 13.0876C4.42505 13.5376 4.80005 13.9126 5.25005 13.9126H8.13755C8.58755 13.9126 8.96255 13.5376 8.96255 13.0876C8.96255 12.6376 8.62505 12.2626 8.17505 12.2626Z" fill="#161A23"/>
<path d="M18.2251 12.9375C18.1876 12.9 18.1501 12.8625 18.0751 12.8625C18.0376 12.825 17.9626 12.825 17.9251 12.825C17.6626 12.7875 17.3626 12.8625 17.1751 13.05C17.1376 13.0875 17.1001 13.125 17.0626 13.1625C17.0251 13.2 16.9876 13.275 16.9876 13.3125C16.9501 13.35 16.9501 13.425 16.9501 13.4625C16.9501 13.5375 16.9126 13.575 16.9126 13.6125C16.9126 13.6875 16.9126 13.725 16.9501 13.7625C16.9501 13.8375 16.9876 13.875 16.9876 13.9125C17.0251 13.95 17.0251 14.025 17.0626 14.0625C17.1001 14.1 17.1376 14.1375 17.1751 14.175C17.3251 14.325 17.5501 14.4375 17.7751 14.4375C18.0001 14.4375 18.2251 14.3625 18.3751 14.175C18.4126 14.1375 18.4501 14.1 18.4876 14.0625C18.5251 14.025 18.5251 13.9875 18.5626 13.9125C18.6001 13.875 18.6001 13.8 18.6001 13.7625C18.6001 13.725 18.6001 13.65 18.6001 13.6125C18.6001 13.3875 18.5251 13.1625 18.3376 13.0125C18.3001 13.0125 18.2626 12.975 18.2251 12.9375Z" fill="#161A23"/>
<path d="M17.9625 5.9625C17.025 5.85 16.1625 6.3 15.7125 7.125C15.4875 7.5375 15.6375 8.0625 16.05 8.25C16.4625 8.475 16.9875 8.325 17.175 7.9125C17.2875 7.725 17.5125 7.6125 17.7375 7.65C17.9625 7.6875 18.1875 7.875 18.1875 8.0625C18.225 8.325 18.075 8.475 17.925 8.55C17.2875 8.85 16.8375 9.6 16.8375 10.275V10.7625C16.8375 11.2125 17.2125 11.5875 17.6625 11.5875C18.1125 11.5875 18.4875 11.2125 18.4875 10.7625V10.275C18.4875 10.2 18.5625 10.0875 18.6375 10.05C19.4625 9.6375 19.95 8.775 19.8375 7.8375C19.7625 6.8625 18.9375 6.075 17.9625 5.9625Z" fill="#161A23"/>
<path d="M21.0001 2.96252H3.00005C1.72505 2.96252 0.675049 4.01252 0.675049 5.28752V19.425C0.675049 20.025 1.01255 20.5875 1.57505 20.85C1.80005 20.9625 2.02505 21 2.25005 21C2.62505 21 2.96255 20.8875 3.26255 20.625L6.45005 18H21.0001C22.2751 18 23.3251 16.95 23.3251 15.675V5.32502C23.3251 4.01252 22.2751 2.96252 21.0001 2.96252ZM21.6751 15.675C21.6751 16.05 21.3751 16.35 21.0001 16.35H6.11255C5.92505 16.35 5.73755 16.425 5.58755 16.5375L2.36255 19.2V5.32502C2.36255 4.95002 2.66255 4.65002 3.03755 4.65002H21.0375C21.4125 4.65002 21.7126 4.95002 21.7126 5.32502V15.675H21.6751Z" fill="#161A23"/>
</svg>
