<svg width="24" height="24" viewBox="0 0 24 24" fill="none" xmlns="http://www.w3.org/2000/svg">
<path fill-rule="evenodd" clip-rule="evenodd" d="M10.8901 1.06821C14.0228 -0.95913 18.3574 -0.0138187 20.5517 3.17563V3.17954C21.3674 4.33774 21.8058 5.72621 21.8055 7.15024C21.8046 7.5516 21.7699 7.95214 21.7017 8.3475C21.549 9.20213 21.2278 10.0166 20.7574 10.742C21.2551 11.709 21.5157 12.7837 21.5171 13.8748C21.5174 14.2764 21.482 14.6771 21.4113 15.0721C21.2572 15.9507 20.9239 16.7869 20.4328 17.5269C19.9416 18.2669 19.3035 18.8944 18.5594 19.369L13.0613 22.9315C9.93821 24.9588 5.59399 24.0135 3.39976 20.8241C2.87844 20.084 2.50785 19.2457 2.30971 18.3582C2.11158 17.4708 2.08989 16.5522 2.24591 15.6561C2.39832 14.8008 2.71951 13.9856 3.19014 13.2596C2.6883 12.2924 2.42439 11.2162 2.42091 10.1229C2.4215 9.72079 2.45689 9.3195 2.52668 8.92369C2.68291 8.04536 3.01795 7.2099 3.51036 6.47066C4.00279 5.73143 4.64171 5.10472 5.38631 4.63069L10.8901 1.06821ZM9.25166 21.2674C9.6228 21.2671 9.9924 21.2192 10.3517 21.1248C10.7476 21.0168 11.125 20.8482 11.4709 20.6248L16.9651 17.0643C17.4121 16.7782 17.7954 16.4007 18.0907 15.9558C18.3861 15.5109 18.5869 15.0084 18.6805 14.4803C18.7233 14.2406 18.7445 13.9974 18.744 13.7538C18.7438 12.8972 18.4803 12.0621 17.9901 11.3651C17.5875 10.7761 17.0504 10.295 16.4248 9.96266C15.7993 9.63037 15.1038 9.45682 14.3978 9.4569C14.0268 9.45735 13.6572 9.50524 13.2978 9.59947C12.9027 9.70684 12.5259 9.8748 12.1805 10.0975L10.0805 11.4647C9.97639 11.533 9.86212 11.5837 9.74209 11.6151C9.63412 11.644 9.52294 11.6585 9.4113 11.658C9.1989 11.6581 8.98961 11.6059 8.80144 11.5059C8.61319 11.4059 8.45167 11.2611 8.33051 11.0838C8.18284 10.8735 8.10349 10.6215 8.10364 10.3631C8.10667 10.2936 8.11504 10.2243 8.12861 10.1561C8.15696 9.99664 8.21756 9.84488 8.30662 9.7104C8.39565 9.57592 8.51119 9.46166 8.64592 9.37485L14.1498 5.8143C14.2537 5.74571 14.368 5.6949 14.4882 5.66393C14.5946 5.63269 14.7045 5.61562 14.8151 5.61311C15.0275 5.61326 15.2367 5.66558 15.4249 5.76555C15.6131 5.86552 15.7747 6.01024 15.8959 6.18735C16.0436 6.39922 16.1229 6.65239 16.1228 6.91196V7.01936L16.1036 7.2264L16.3074 7.29086C17.0815 7.52816 17.8099 7.89806 18.4613 8.38462L18.7421 8.59361L18.8459 8.27329C18.9016 8.10266 18.9459 7.92844 18.9786 7.75181C19.0193 7.5138 19.0399 7.27268 19.0402 7.0311C19.0432 6.17497 18.783 5.33921 18.2959 4.64048C17.8921 4.05053 17.3534 3.56891 16.7261 3.23689C16.0987 2.90488 15.4014 2.73239 14.694 2.73424C14.323 2.73407 13.9534 2.78132 13.594 2.87486C13.1988 2.98305 12.822 3.15165 12.4767 3.37486L6.97286 6.9354C6.52624 7.22186 6.1431 7.59949 5.84779 8.04431C5.55251 8.48914 5.35147 8.99145 5.25742 9.51937C5.21674 9.75675 5.19619 9.9972 5.19592 10.2381C5.19607 11.0947 5.45962 11.9298 5.94975 12.6268C6.35209 13.2156 6.88886 13.6967 7.51406 14.029C8.13934 14.3613 8.83447 14.5349 9.54015 14.535C9.91121 14.5344 10.2808 14.4865 10.6402 14.3924C11.0352 14.2847 11.4119 14.1168 11.7575 13.8944L13.8536 12.535C13.9572 12.4669 14.0707 12.4161 14.1901 12.3846C14.2981 12.3557 14.4093 12.3412 14.5209 12.3417C14.7336 12.3415 14.9432 12.3936 15.1317 12.4936C15.3203 12.5936 15.4822 12.7385 15.6036 12.9159C15.7534 13.1255 15.8347 13.3776 15.8363 13.6366C15.837 13.8348 15.7881 14.0301 15.6943 14.2039C15.6004 14.3778 15.4647 14.5247 15.2997 14.6307L9.80167 18.2108C9.69712 18.2782 9.58297 18.329 9.46324 18.3612C9.35527 18.3901 9.24409 18.4046 9.13245 18.4041C8.91896 18.4032 8.70889 18.3493 8.52056 18.2472C8.3322 18.1451 8.17125 17.9978 8.05166 17.8182C7.90372 17.6073 7.82437 17.3546 7.82479 17.0955V16.9881L7.84399 16.7811L7.64017 16.7186C6.8664 16.4805 6.13811 16.1106 5.48629 15.6249L5.20552 15.408L5.10169 15.7284C5.046 15.899 5.00167 16.0732 4.96901 16.2498C4.92832 16.4872 4.9077 16.7277 4.90744 16.9686C4.90695 17.8253 5.17057 18.6605 5.6613 19.3573C6.06311 19.9468 6.59962 20.4285 7.22497 20.7612C7.85032 21.0939 8.54572 21.2676 9.25166 21.2674Z" fill="#15171A"/>
</svg>
