<svg width="25" height="24" viewBox="0 0 25 24" fill="none" xmlns="http://www.w3.org/2000/svg">
<path d="M20.775 6.22505L15.6 1.12505C15.3 0.825049 14.8875 0.675049 14.475 0.675049H5.475C4.2 0.675049 3.1125 1.72505 3.1125 3.03755V11.85C3.1125 12.3 3.4875 12.7125 3.975 12.7125C4.4625 12.7125 4.8375 12.3375 4.8375 11.85V3.00005C4.8375 2.62505 5.1375 2.32505 5.5125 2.32505H13.9875V7.12505C13.9875 7.57505 14.3625 7.98755 14.85 7.98755H19.6125V11.625C19.6125 12.075 19.9875 12.4875 20.475 12.4875C20.9625 12.4875 21.3375 12.1125 21.3375 11.625V7.35005C21.225 6.93755 21.075 6.52505 20.775 6.22505ZM15.6375 3.52505L18.45 6.30005H15.6375V3.52505Z" fill="#161A23"/>
<path d="M20.4 19.425C19.95 19.425 19.5375 19.8 19.5375 20.2875V21.0375C19.5375 21.4125 19.2375 21.7125 18.8625 21.7125H5.475C5.1 21.7125 4.8 21.4125 4.8 21.0375V20.5125C4.8 20.0625 4.425 19.65 3.9375 19.65C3.45 19.65 3.075 20.025 3.075 20.5125V21C3.075 22.275 4.125 23.3625 5.4375 23.3625H18.825C20.1 23.3625 21.1875 22.3125 21.1875 21V20.25C21.225 19.8 20.85 19.425 20.4 19.425Z" fill="#161A23"/>
<path d="M6.41249 17.775H5.21249C4.76249 17.775 4.34999 18.15 4.34999 18.6375C4.34999 19.125 4.72499 19.5 5.21249 19.5H6.41249C7.53749 19.5 8.47499 18.6 8.47499 17.4375V17.0625C8.47499 15.9375 7.57499 15 6.41249 15C6.22499 15 6.03749 14.85 6.03749 14.625V14.175C6.03749 13.9875 6.18749 13.8 6.41249 13.8H7.61249C8.06249 13.8 8.47499 13.425 8.47499 12.9375C8.47499 12.45 8.09999 12.075 7.61249 12.075H6.41249C5.28749 12.075 4.34999 12.975 4.34999 14.1375V14.625C4.34999 15.75 5.24999 16.6875 6.41249 16.6875C6.59999 16.6875 6.78749 16.8375 6.78749 17.0625V17.4375C6.78749 17.625 6.63749 17.775 6.41249 17.775Z" fill="#161A23"/>
<path d="M19.0875 13.725C19.5375 13.725 19.95 13.35 19.95 12.8625C19.95 12.375 19.575 12 19.0875 12H15.9375C15.4875 12 15.075 12.375 15.075 12.8625V18.6C15.075 19.05 15.45 19.4625 15.9375 19.4625H19.1625C19.6125 19.4625 20.025 19.0875 20.025 18.6V15.75C20.025 15.3 19.65 14.8875 19.1625 14.8875H17.925C17.475 14.8875 17.0625 15.2625 17.0625 15.75C17.0625 16.2375 17.4375 16.6125 17.925 16.6125H18.3V17.775H16.7625V13.725H19.0875Z" fill="#161A23"/>
<path d="M11.7 19.4626C12.075 19.4626 12.4125 19.2001 12.525 18.8626L14.175 13.2376C14.2875 12.7876 14.0625 12.3376 13.6125 12.1876C13.1625 12.0751 12.7125 12.3001 12.5625 12.7501L11.7375 15.6376L10.8 12.7501C10.65 12.3001 10.2 12.0376 9.75 12.1876C9.3 12.3376 9.0375 12.7876 9.1875 13.2376L10.875 18.8626C10.9875 19.2001 11.325 19.4626 11.7 19.4626Z" fill="#161A23"/>
</svg>
