<svg width="24" height="24" viewBox="0 0 24 24" fill="none" xmlns="http://www.w3.org/2000/svg">
<path d="M5.69998 22.575C5.47498 22.575 5.24998 22.5 5.09998 22.3125L0.899976 18.1125C0.562476 17.775 0.562476 17.25 0.899976 16.9125C1.23748 16.575 1.76248 16.575 2.09998 16.9125L4.87498 19.6875V8.02495C4.87498 7.57495 5.24998 7.19995 5.69998 7.19995C6.14998 7.19995 6.52498 7.57495 6.52498 8.02495V19.725L9.44998 16.8C9.78748 16.4625 10.3125 16.4625 10.65 16.8C10.9875 17.1375 10.9875 17.6625 10.65 18L6.29998 22.35C6.14998 22.5 5.92498 22.575 5.69998 22.575Z" fill="#161A23"/>
<path d="M18.2999 16.8375C17.8499 16.8375 17.4749 16.4625 17.4749 16.0125V4.31248L14.5499 7.23748C14.2124 7.57498 13.6874 7.57498 13.3499 7.23748C13.0124 6.89998 13.0124 6.37498 13.3499 6.03748L17.6999 1.64998C18.0374 1.31248 18.5624 1.31248 18.8999 1.64998L23.0999 5.84998C23.4374 6.18748 23.4374 6.71248 23.0999 7.04998C22.7624 7.38748 22.2374 7.38748 21.8999 7.04998L19.1249 4.31248V16.0125C19.1249 16.4625 18.7499 16.8375 18.2999 16.8375Z" fill="#161A23"/>
</svg>
