<svg width="24" height="24" viewBox="0 0 24 24" fill="none" xmlns="http://www.w3.org/2000/svg">
<path d="M17.5125 23.325C17.2875 23.325 17.0625 23.25 16.9125 23.0625C16.575 22.725 16.575 22.2 16.9125 21.8625L19.6875 19.0875H8.02495C7.57495 19.0875 7.19995 18.7125 7.19995 18.2625C7.19995 17.8125 7.57495 17.4375 8.02495 17.4375H19.725L16.8 14.5125C16.4625 14.175 16.4625 13.65 16.8 13.3125C17.1375 12.975 17.6625 12.975 18 13.3125L22.3875 17.7C22.725 18.0375 22.725 18.5625 22.3875 18.9L18.1125 23.1C17.9625 23.25 17.7375 23.325 17.5125 23.325Z" fill="#161A23"/>
<path d="M6.63748 10.9125C6.41248 10.9125 6.18748 10.8375 6.03748 10.65L1.64998 6.29998C1.31248 5.96248 1.31248 5.43748 1.64998 5.09998L5.88748 0.899976C6.22498 0.562476 6.74998 0.562476 7.08748 0.899976C7.42498 1.23748 7.42498 1.76248 7.08748 2.09998L4.31248 4.87498H16.0125C16.4625 4.87498 16.8375 5.24998 16.8375 5.69998C16.8375 6.14998 16.4625 6.52498 16.0125 6.52498H4.31248L7.23748 9.44998C7.57498 9.78748 7.57498 10.3125 7.23748 10.65C7.04998 10.8375 6.86248 10.9125 6.63748 10.9125Z" fill="#161A23"/>
</svg>
