<svg width="24" height="24" viewBox="0 0 24 24" fill="none" xmlns="http://www.w3.org/2000/svg">
<path d="M16.2 0.300049H7.8C6.525 0.300049 5.4375 1.35005 5.4375 2.66255V21.4125C5.4375 22.6875 6.4875 23.775 7.8 23.775H16.2375C17.5125 23.775 18.6 22.725 18.6 21.4125V2.62505C18.5625 1.35005 17.5125 0.300049 16.2 0.300049ZM7.8 1.98755H16.2375C16.575 1.98755 16.875 2.25005 16.875 2.62505V5.06255H7.125V2.62505C7.125 2.25005 7.425 1.98755 7.8 1.98755ZM7.125 9.86255V6.75005H16.875V9.86255H7.125ZM16.875 11.55V14.6625H7.125V11.55H16.875ZM16.2 22.05H7.8C7.425 22.05 7.125 21.75 7.125 21.375V16.35H16.875V21.375C16.875 21.75 16.575 22.05 16.2 22.05Z" fill="#161A23"/>
<path d="M12 17.1375C10.8375 17.1375 9.9375 18.075 9.9375 19.2C9.9375 20.3625 10.875 21.2625 12 21.2625C13.1625 21.2625 14.0625 20.325 14.0625 19.2C14.0625 18.075 13.1625 17.1375 12 17.1375ZM12 19.6125C11.775 19.6125 11.625 19.425 11.625 19.2375C11.625 19.0125 11.8125 18.8625 12 18.8625C12.225 18.8625 12.375 19.05 12.375 19.2375C12.375 19.425 12.225 19.6125 12 19.6125Z" fill="#161A23"/>
</svg>
