<svg width="24" height="24" viewBox="0 0 24 24" fill="none" xmlns="http://www.w3.org/2000/svg">
<g clip-path="url(#clip0_914_45440)">
<path d="M23.6619 6.825C23.6619 6.6 23.6619 6.3375 23.6619 6.15C23.6619 5.625 23.6244 5.1375 23.5119 4.6125C23.4744 4.0875 23.2494 3.6 23.0244 3.1875C22.5369 2.2875 21.8244 1.5 20.8494 1.0125C20.3619 0.7875 19.9119 0.6 19.3869 0.525C18.8619 0.4875 18.3744 0.375 17.8494 0.375C17.6244 0.375 17.3619 0.375 17.1744 0.375H6.8994C6.6744 0.375 6.4119 0.375 6.2244 0.375C6.1119 0.375 5.9619 0.375 5.8119 0.375C5.3994 0.375 5.0619 0.4125 4.6494 0.4875C4.2744 0.525 3.8994 0.6375 3.52441 0.7875C3.41191 0.825 3.26191 0.9 3.14942 0.9375C2.81191 1.1625 2.51191 1.3875 2.21191 1.65C2.09941 1.6875 2.02441 1.8 1.87441 1.9125C1.49941 2.2875 1.23691 2.6625 0.974415 3.1125C0.749415 3.6 0.561915 4.05 0.486915 4.575C0.411915 5.1 0.374414 5.5875 0.336914 6.1125C0.336914 6.3375 0.336914 6.6 0.336914 6.7875V17.1375C0.336914 17.3625 0.336914 17.625 0.336914 17.8125C0.336914 18.3375 0.374414 18.825 0.486915 19.35C0.524415 19.875 0.749415 20.3625 0.974415 20.8125C1.46191 21.75 2.17441 22.5 3.14942 22.9875C3.63691 23.2125 4.0869 23.4 4.6119 23.475C5.1369 23.5125 5.6244 23.625 6.1494 23.625C6.3744 23.625 6.6369 23.625 6.8244 23.625H17.1744C17.3994 23.625 17.6619 23.625 17.8494 23.625C18.3744 23.625 18.8619 23.5875 19.3869 23.475C19.9119 23.4375 20.3994 23.2125 20.8494 22.9875C21.7494 22.5 22.5369 21.7875 23.0244 20.8125C23.2494 20.325 23.4369 19.875 23.5119 19.35C23.5869 18.825 23.6619 18.3375 23.6619 17.8125C23.6619 17.5875 23.6619 17.325 23.6619 17.1375V7.65C23.6619 7.3875 23.6619 7.0875 23.6619 6.825ZM20.0244 19.3125C18.9744 17.325 17.0619 17.775 16.0869 18.3C16.0494 18.3375 15.9369 18.4125 15.8244 18.45H15.7494C13.7619 19.575 10.9494 19.6125 8.2119 18.4125C5.9619 17.4 4.0869 15.7875 2.77441 13.725C3.41191 14.2125 4.0869 14.625 4.8369 14.925C7.7994 16.3125 10.6869 16.2 12.7869 14.925C9.8244 12.675 7.4244 9.7125 5.4744 7.35C5.0994 6.9375 4.7994 6.525 4.4619 6.0375C6.7119 8.1 10.3119 10.725 11.5869 11.4C8.8494 8.55 6.4869 4.95 6.5619 5.1375C10.8369 9.45 14.7744 11.925 14.7744 11.925C14.9244 11.9625 15.0369 12.075 15.1494 12.15C15.1869 11.925 15.2994 11.7375 15.3744 11.5125C16.0494 9.0375 15.3369 6.15 13.5744 3.825C17.5869 6.1875 19.9119 10.725 18.9369 14.5875C18.8994 14.625 18.8994 14.7375 18.8994 14.85C20.8119 17.1375 20.2869 19.7625 20.0244 19.3125Z" fill="#15171A"/>
</g>
<defs>
<clipPath id="clip0_914_45440">
<rect width="24" height="24" fill="white"/>
</clipPath>
</defs>
</svg>
