<svg width="25" height="24" viewBox="0 0 25 24" fill="none" xmlns="http://www.w3.org/2000/svg">
<path d="M17.625 15.1125C15.9375 15.1125 14.5125 13.725 14.5125 12C14.5125 10.275 15.9 8.88745 17.625 8.88745C19.35 8.88745 20.7375 10.275 20.7375 12C20.7375 13.725 19.35 15.1125 17.625 15.1125ZM17.625 10.6125C16.8375 10.6125 16.2 11.25 16.2 12.0375C16.2 12.825 16.8375 13.4625 17.625 13.4625C18.4125 13.4625 19.05 12.825 19.05 12.0375C19.05 11.2125 18.4125 10.6125 17.625 10.6125Z" fill="#161A23"/>
<path d="M17.9625 17.55H6.4125C3.3375 17.55 0.862503 15.075 0.862503 12C0.862503 8.92495 3.375 6.44995 6.4125 6.44995H17.9625C21.0375 6.44995 23.5125 8.92495 23.5125 12C23.55 15.075 21.0375 17.55 17.9625 17.55ZM6.4125 8.13745C4.275 8.13745 2.55 9.86245 2.55 12C2.55 14.1375 4.275 15.8625 6.4125 15.8625H17.9625C20.1 15.8625 21.825 14.1375 21.825 12C21.825 9.86245 20.1 8.13745 17.9625 8.13745H6.4125Z" fill="#161A23"/>
</svg>
