<svg width="24" height="24" viewBox="0 0 24 24" fill="none" xmlns="http://www.w3.org/2000/svg">
<g clip-path="url(#clip0_501_43582)">
<path d="M23.1 18.1125L19.5 14.325C19.1625 13.9875 18.6375 13.9875 18.3 14.2875C17.9625 14.625 17.9625 15.15 18.2625 15.4875L20.5125 17.85H1.50001C1.05001 17.85 0.637512 18.225 0.637512 18.7125C0.637512 19.2 1.01251 19.575 1.50001 19.575H20.55L18.3 21.9375C17.9625 22.275 18 22.8 18.3375 23.1375C18.4875 23.2875 18.7125 23.3625 18.9 23.3625C19.125 23.3625 19.35 23.2875 19.5 23.1L23.1 19.3125C23.4375 18.9375 23.4375 18.4125 23.1 18.1125Z" fill="#161A23"/>
<path d="M4.49999 9.675C4.64999 9.8625 4.87499 9.9375 5.09999 9.9375C5.32499 9.9375 5.51249 9.8625 5.66249 9.7125C5.99999 9.375 5.99999 8.85001 5.69999 8.51251L3.44999 6.15H22.5C22.95 6.15 23.3625 5.775 23.3625 5.2875C23.3625 4.8 22.9875 4.425 22.5 4.425H3.44999L5.69999 2.0625C6.03749 1.725 5.99999 1.2 5.66249 0.862504C5.32499 0.525004 4.79999 0.562505 4.46249 0.900005L0.899988 4.725C0.599988 5.0625 0.599988 5.55 0.899988 5.8875L4.49999 9.675Z" fill="#161A23"/>
</g>
<defs>
<clipPath id="clip0_501_43582">
<rect width="24" height="24" fill="white"/>
</clipPath>
</defs>
</svg>
