<svg width="24" height="24" viewBox="0 0 24 24" fill="none" xmlns="http://www.w3.org/2000/svg">
<path d="M16.575 23.3625H7.42502C6.45002 23.3625 5.58752 22.8375 5.13752 21.975C4.68752 21.1125 4.76252 20.1 5.32502 19.275L10.05 12.525C10.275 12.225 10.275 11.8125 10.05 11.475L5.32502 4.72501C4.76252 3.93751 4.68752 2.88751 5.13752 2.02501C5.58752 1.16251 6.45002 0.637512 7.42502 0.637512H16.575C18 0.637512 19.1625 1.80001 19.1625 3.22501V4.50001C19.1625 4.95001 18.7875 5.36251 18.3 5.36251C17.8125 5.36251 17.4375 4.98751 17.4375 4.50001V3.26251C17.4375 2.77501 17.025 2.36251 16.5375 2.36251H7.42502C7.08752 2.36251 6.78752 2.55001 6.63752 2.85001C6.48752 3.15001 6.48752 3.52501 6.71252 3.78751L11.4375 10.5375C12.075 11.4375 12.075 12.6375 11.4375 13.5375L6.71252 20.2875C6.52502 20.5875 6.48752 20.925 6.63752 21.225C6.78752 21.525 7.08752 21.7125 7.42502 21.7125H16.575C17.0625 21.7125 17.475 21.3 17.475 20.8125V19.5C17.475 19.05 17.85 18.6375 18.3375 18.6375C18.825 18.6375 19.2 19.0125 19.2 19.5V20.7375C19.1625 22.1625 18 23.3625 16.575 23.3625Z" fill="#161A23"/>
</svg>
