<svg width="24" height="24" viewBox="0 0 24 24" fill="none" xmlns="http://www.w3.org/2000/svg">
<path d="M18.225 0.674988H5.77499C4.49999 0.674988 3.48749 1.68749 3.48749 2.96249V21.075C3.48749 22.35 4.49999 23.3625 5.77499 23.3625H18.1875C19.4625 23.3625 20.475 22.35 20.475 21.075V2.96249C20.5125 1.68749 19.4625 0.674988 18.225 0.674988ZM18.825 21.0375C18.825 21.375 18.5625 21.6375 18.225 21.6375H5.77499C5.43749 21.6375 5.17499 21.375 5.17499 21.0375V2.96249C5.17499 2.62499 5.43749 2.36249 5.77499 2.36249H18.1875C18.525 2.36249 18.7875 2.62499 18.7875 2.96249V21.0375H18.825Z" fill="#161A23"/>
<path d="M12.375 3.78748H9.4875C9.0375 3.78748 8.625 4.16248 8.625 4.64998C8.625 5.13748 9 5.51248 9.4875 5.51248H12.375C12.825 5.51248 13.2375 5.13748 13.2375 4.64998C13.2375 4.16248 12.825 3.78748 12.375 3.78748Z" fill="#161A23"/>
<path d="M14.775 3.78748H14.2875C13.8375 3.78748 13.425 4.16248 13.425 4.64998C13.425 5.13748 13.8 5.51248 14.2875 5.51248H14.775C15.225 5.51248 15.6375 5.13748 15.6375 4.64998C15.6375 4.16248 15.2625 3.78748 14.775 3.78748Z" fill="#161A23"/>
<path d="M12 18.3C11.55 18.3 11.1375 18.675 11.1375 19.1625C11.1375 19.6125 11.5125 20.025 12 20.025C12.4875 20.025 12.8625 19.65 12.8625 19.1625C12.8625 18.675 12.45 18.3 12 18.3Z" fill="#161A23"/>
</svg>
