<svg width="24" height="24" viewBox="0 0 24 24" fill="none" xmlns="http://www.w3.org/2000/svg">
<g clip-path="url(#clip0_501_45112)">
<path d="M21 0.675049H2.99999C1.72499 0.675049 0.674988 1.72505 0.674988 3.00005V21C0.674988 22.275 1.72499 23.3625 3.03749 23.3625H21.0375C22.3125 23.3625 23.4 22.3125 23.4 21V3.00005C23.3625 1.72505 22.275 0.675049 21 0.675049ZM8.92499 14.0625V8.55005H15.075V14.025H8.92499V14.0625ZM15.075 15.75V21.675H8.92499V15.75H15.075ZM2.36249 8.55005H7.27499V14.025H2.36249V8.55005ZM16.7625 8.55005H21.675V14.025H16.7625V8.55005ZM2.99999 2.36255H21C21.375 2.36255 21.675 2.66255 21.675 3.03755V6.90005H2.36249V3.00005C2.36249 2.62505 2.62499 2.36255 2.99999 2.36255ZM2.36249 21V15.75H7.27499V21.675H2.99999C2.62499 21.675 2.36249 21.375 2.36249 21ZM21 21.675H16.7625V15.75H21.675V21C21.675 21.375 21.375 21.675 21 21.675Z" fill="#161A23"/>
</g>
<defs>
<clipPath id="clip0_501_45112">
<rect width="24" height="24" fill="white"/>
</clipPath>
</defs>
</svg>
