<svg width="24" height="24" viewBox="0 0 24 24" fill="none" xmlns="http://www.w3.org/2000/svg">
<path d="M17.025 0.675049H6.97499C5.69999 0.675049 4.61249 1.72505 4.61249 3.03755V21.0375C4.61249 22.3125 5.66249 23.4 6.97499 23.4H17.025C18.3 23.4 19.3875 22.35 19.3875 21.0375V3.00005C19.3875 1.72505 18.3375 0.675049 17.025 0.675049ZM17.7 21C17.7 21.375 17.4 21.675 17.025 21.675H6.97499C6.59999 21.675 6.29999 21.375 6.29999 21V3.00005C6.29999 2.62505 6.59999 2.32505 6.97499 2.32505H17.025C17.4 2.32505 17.7 2.62505 17.7 3.00005V21Z" fill="#161A23"/>
<path d="M10.2 4.1626H8.39998C7.94998 4.1626 7.53748 4.5376 7.53748 5.0251C7.53748 5.5126 7.91248 5.8876 8.39998 5.8876H10.2C10.65 5.8876 11.0625 5.5126 11.0625 5.0251C11.0625 4.5376 10.65 4.1626 10.2 4.1626Z" fill="#161A23"/>
<path d="M15.6375 4.1626H13.8375C13.3875 4.1626 12.975 4.5376 12.975 5.0251C12.975 5.5126 13.35 5.8876 13.8375 5.8876H15.6375C16.0875 5.8876 16.5 5.5126 16.5 5.0251C16.5 4.5376 16.0875 4.1626 15.6375 4.1626Z" fill="#161A23"/>
<path d="M10.2 8.8125H8.39998C7.94998 8.8125 7.53748 9.1875 7.53748 9.675C7.53748 10.1625 7.91248 10.5375 8.39998 10.5375H10.2C10.65 10.5375 11.0625 10.1625 11.0625 9.675C11.0625 9.1875 10.65 8.8125 10.2 8.8125Z" fill="#161A23"/>
<path d="M15.6375 8.8125H13.8375C13.3875 8.8125 12.975 9.1875 12.975 9.675C12.975 10.1625 13.35 10.5375 13.8375 10.5375H15.6375C16.0875 10.5375 16.5 10.1625 16.5 9.675C16.5 9.1875 16.0875 8.8125 15.6375 8.8125Z" fill="#161A23"/>
<path d="M10.2 13.5H8.39998C7.94998 13.5 7.53748 13.875 7.53748 14.3625C7.53748 14.85 7.91248 15.225 8.39998 15.225H10.2C10.65 15.225 11.0625 14.85 11.0625 14.3625C11.0625 13.875 10.65 13.5 10.2 13.5Z" fill="#161A23"/>
<path d="M15.6375 13.5H13.8375C13.3875 13.5 12.975 13.875 12.975 14.3625C12.975 14.85 13.35 15.225 13.8375 15.225H15.6375C16.0875 15.225 16.5 14.85 16.5 14.3625C16.5 13.875 16.0875 13.5 15.6375 13.5Z" fill="#161A23"/>
<path d="M10.2 18.1501H8.39998C7.94998 18.1501 7.53748 18.5251 7.53748 19.0126C7.53748 19.5001 7.91248 19.8751 8.39998 19.8751H10.2C10.65 19.8751 11.0625 19.5001 11.0625 19.0126C11.0625 18.5251 10.65 18.1501 10.2 18.1501Z" fill="#161A23"/>
<path d="M15.6375 18.1501H13.8375C13.3875 18.1501 12.975 18.5251 12.975 19.0126C12.975 19.5001 13.35 19.8751 13.8375 19.8751H15.6375C16.0875 19.8751 16.5 19.5001 16.5 19.0126C16.5 18.5251 16.0875 18.1501 15.6375 18.1501Z" fill="#161A23"/>
</svg>
