<svg width="24" height="24" viewBox="0 0 24 24" fill="none" xmlns="http://www.w3.org/2000/svg">
<path d="M21.525 6.11241C21.525 5.24991 20.8125 4.57491 19.95 4.53741L16.65 4.49991C15.075 2.09991 12.2625 -0.262593 7.98749 0.412407C7.53749 0.487407 7.19999 0.899907 7.27499 1.38741C7.34999 1.83741 7.76249 2.17491 8.24999 2.09991C11.25 1.61241 13.275 2.99991 14.5125 4.49991L12.15 4.46241H12.1125C11.7 4.46241 11.2875 4.64991 10.9875 4.91241L3.03749 12.8249C2.58749 13.2749 2.36249 13.8374 2.36249 14.4749C2.36249 15.1124 2.58749 15.6749 3.03749 16.1249L9.89999 22.9874C10.35 23.4374 10.95 23.6624 11.55 23.6624C12.15 23.6624 12.75 23.4374 13.2 22.9874L21.15 15.0374C21.45 14.7374 21.6375 14.3249 21.6 13.8749L21.525 6.11241ZM12.0375 21.8249C11.775 22.0874 11.3625 22.0874 11.1 21.8249L4.23749 14.9624C4.12499 14.8499 4.04999 14.6624 4.04999 14.5124C4.04999 14.3249 4.12499 14.1749 4.23749 14.0624L12.1875 6.11241L15.7125 6.18741C15.8625 6.48741 15.975 6.74991 16.0875 6.97491C15.45 7.34991 15.0375 8.06241 15.0375 8.84991C15.0375 10.0499 16.0125 11.0249 17.2125 11.0249C18.4125 11.0249 19.3875 10.0499 19.3875 8.84991C19.3875 7.83741 18.7125 7.01241 17.775 6.74991C17.7 6.59991 17.6625 6.41241 17.5875 6.26241L19.8375 6.29991L19.9875 13.9499L12.0375 21.8249ZM17.175 8.28741C17.4375 8.28741 17.6625 8.51241 17.6625 8.77491C17.6625 9.03741 17.4375 9.26241 17.175 9.26241C16.9125 9.26241 16.6875 9.03741 16.6875 8.77491C16.6875 8.51241 16.9125 8.28741 17.175 8.28741Z" fill="#161A23"/>
</svg>
