<svg width="24" height="24" viewBox="0 0 24 24" fill="none" xmlns="http://www.w3.org/2000/svg">
<path d="M10.7625 3.5625H10.575C9.63745 3.5625 8.88745 4.3125 8.88745 5.25C8.88745 5.7 9.26245 6.1125 9.71245 6.1125C10.1625 6.1125 10.5375 5.7375 10.5375 5.2875H10.6875V6.225H10.125C9.67495 6.225 9.29995 6.6 9.29995 7.05C9.29995 7.5 9.67495 7.875 10.125 7.875H10.7625V10.8375C10.7625 12.15 11.85 13.2375 13.1625 13.2375C14.475 13.2375 15.5625 12.15 15.5625 10.8375C15.5625 9.8625 15 9 14.1 8.625C13.6875 8.4375 13.1625 8.6625 13.0125 9.075C12.8625 9.4875 13.05 10.0125 13.4625 10.1625C13.725 10.275 13.9125 10.5375 13.9125 10.8C13.9125 11.175 13.575 11.5125 13.2 11.5125C12.825 11.5125 12.4875 11.2125 12.4875 10.8V7.8375H14.5875C15.0375 7.8375 15.4125 7.4625 15.4125 7.0125C15.4125 6.5625 15.0375 6.1875 14.5875 6.1875H12.4875V5.25C12.45 4.3125 11.7 3.5625 10.7625 3.5625Z" fill="#161A23"/>
<path d="M12 0.675049C7.50005 0.675049 3.86255 4.31255 3.86255 8.77505C3.86255 11.25 4.95005 13.5375 6.90005 15.075C7.05005 15.1875 7.23755 15.2625 7.42505 15.2625C7.68755 15.2625 7.91255 15.15 8.10005 14.9625C8.40005 14.5875 8.32505 14.0625 7.98755 13.7625C6.45005 12.525 5.58755 10.725 5.58755 8.77505C5.58755 5.25005 8.47505 2.36255 12.0375 2.36255C15.6 2.36255 18.4875 5.25005 18.4875 8.77505C18.4875 9.22505 18.8626 9.60005 19.3126 9.60005C19.7626 9.60005 20.1376 9.22505 20.1376 8.77505C20.1376 4.27505 16.5001 0.675049 12 0.675049Z" fill="#161A23"/>
<path d="M18.3375 14.7751H14.7C14.25 14.7751 13.8749 15.1501 13.8749 15.6001C13.8749 16.0501 14.25 16.4251 14.7 16.4251H15.9374L12.5624 18.8251C12.4874 18.8626 12.4124 18.9001 12.3375 18.9001H7.91245C7.31245 18.9001 6.74995 19.1251 6.37495 19.5376L4.08745 21.9001C3.74995 22.2376 3.78745 22.7626 4.12495 23.1001C4.27495 23.2501 4.49995 23.3251 4.72495 23.3251C4.94995 23.3251 5.17495 23.2501 5.32495 23.0626L7.61245 20.7001C7.68745 20.6251 7.79995 20.5876 7.91245 20.5876H12.3375C12.75 20.5876 13.1624 20.4751 13.5374 20.2126L17.5124 17.4001V19.2376C17.5124 19.6876 17.8874 20.0626 18.3375 20.0626C18.7874 20.0626 19.1624 19.6876 19.1624 19.2376V15.6001C19.1999 15.1501 18.8249 14.7751 18.3375 14.7751Z" fill="#161A23"/>
</svg>
