<svg width="24" height="24" viewBox="0 0 24 24" fill="none" xmlns="http://www.w3.org/2000/svg">
<path d="M16.2 13.8C15.7875 13.6125 15.2625 13.8376 15.1125 14.2501C14.925 14.6625 15.15 15.1876 15.5625 15.3376C16.725 15.8251 17.475 16.9501 17.475 18.1875C17.475 19.8751 16.0875 21.2626 14.3625 21.2626C12.6375 21.2626 11.25 19.8751 11.25 18.1875V9.33755H17.925C18.375 9.33755 18.75 8.96255 18.75 8.51255C18.75 8.06255 18.375 7.68755 17.925 7.68755H11.2125V4.01255C11.2125 2.40005 9.90005 1.05005 8.25005 1.05005H7.76255C6.15005 1.05005 4.80005 2.36255 4.80005 4.01255C4.80005 4.46255 5.17505 4.83755 5.62505 4.83755C6.07505 4.83755 6.45005 4.46255 6.45005 4.01255C6.45005 3.30005 7.01255 2.73755 7.72505 2.73755H8.25005C8.96255 2.73755 9.52505 3.30005 9.52505 4.01255V7.68755H6.63755C6.18755 7.68755 5.81255 8.06255 5.81255 8.51255C5.81255 8.96255 6.18755 9.33755 6.63755 9.33755H9.52505V18.1875C9.52505 20.8126 11.7 22.9501 14.325 22.9501C16.95 22.9501 19.125 20.8126 19.125 18.1875C19.1625 16.2751 18 14.55 16.2 13.8Z" fill="#161A23"/>
</svg>
