<svg width="24" height="24" viewBox="0 0 24 24" fill="none" xmlns="http://www.w3.org/2000/svg">
<path d="M4.72505 9.60005C5.17505 9.60005 5.55005 9.22505 5.55005 8.77505C5.55005 5.25005 8.43755 2.36255 12 2.36255C15.5625 2.36255 18.45 5.25005 18.45 8.77505C18.45 10.725 17.5875 12.525 16.05 13.7625C15.675 14.0625 15.6375 14.5875 15.9375 14.9625C16.0875 15.1875 16.35 15.2625 16.6125 15.2625C16.8 15.2625 16.9875 15.1875 17.1375 15.075C19.05 13.5375 20.175 11.2125 20.175 8.77505C20.1375 4.27505 16.5 0.675049 12 0.675049C7.50005 0.675049 3.86255 4.31255 3.86255 8.77505C3.86255 9.22505 4.23755 9.60005 4.72505 9.60005Z" fill="#161A23"/>
<path d="M18.3375 18C17.8875 18 17.5125 18.375 17.5125 18.825V20.7L13.5 17.85C13.1625 17.625 12.75 17.475 12.3375 17.475H7.91246C7.79996 17.475 7.68746 17.4375 7.61246 17.3625L5.32496 15C4.98746 14.6625 4.46246 14.6625 4.12496 14.9625C3.78746 15.3 3.78746 15.825 4.08746 16.1625L6.33746 18.4875C6.71246 18.9 7.27496 19.1625 7.87496 19.1625H12.3C12.375 19.1625 12.45 19.2 12.525 19.2375L15.9 21.6375H14.7C14.25 21.6375 13.875 22.0125 13.875 22.4625C13.875 22.9125 14.25 23.2875 14.7 23.2875H18.3375C18.7875 23.2875 19.1625 22.9125 19.1625 22.4625V18.825C19.2 18.375 18.825 18 18.3375 18Z" fill="#161A23"/>
<path d="M12.9001 13.425C14.2126 13.425 15.2626 12.375 15.2626 11.1C15.2626 10.1625 14.7001 9.3 13.8376 8.9625C13.4251 8.775 12.9001 9 12.7501 9.4125C12.5626 9.825 12.7876 10.35 13.2001 10.5C13.4251 10.6125 13.6126 10.8375 13.6126 11.1C13.6126 11.4375 13.3126 11.7375 12.9376 11.7375C12.5626 11.7375 12.2626 11.4375 12.2626 11.1V8.2875H14.2501C14.7001 8.2875 15.0751 7.9125 15.0751 7.4625C15.0751 7.0125 14.7001 6.6375 14.2501 6.6375H12.2626V5.775C12.2626 4.875 11.5126 4.125 10.6126 4.125H10.4251C9.52515 4.125 8.77515 4.875 8.77515 5.775C8.77515 6.225 9.15015 6.6 9.60015 6.6C10.0501 6.6 10.4251 6.2625 10.4251 5.8125H10.5001V6.6375H9.93765C9.48765 6.6375 9.11265 7.0125 9.11265 7.4625C9.11265 7.9125 9.48765 8.2875 9.93765 8.2875H10.5001V11.1C10.5376 12.375 11.5876 13.425 12.9001 13.425Z" fill="#161A23"/>
</svg>
