<svg width="24" height="24" viewBox="0 0 24 24" fill="none" xmlns="http://www.w3.org/2000/svg">
<g clip-path="url(#clip0_501_52082)">
<path d="M12 0.675049C5.73755 0.675049 0.675049 5.73755 0.675049 12C0.675049 18.2626 5.73755 23.3251 12 23.3251C18.2626 23.3251 23.3251 18.2626 23.3251 12C23.3251 5.73755 18.2626 0.675049 12 0.675049ZM12 21.6751C6.67505 21.6751 2.32505 17.3251 2.32505 12C2.32505 6.67505 6.67505 2.32505 12 2.32505C17.3251 2.32505 21.6751 6.67505 21.6751 12C21.6751 17.3251 17.3251 21.6751 12 21.6751Z" fill="#161A23"/>
<path d="M14.4376 12.6C14.0251 12.4125 13.5001 12.6375 13.3501 13.05C13.1626 13.4625 13.3876 13.9875 13.8001 14.1375C14.2876 14.325 14.5876 14.8125 14.5876 15.3375C14.5876 16.05 13.9876 16.6125 13.2751 16.6125C12.5626 16.6125 11.9626 16.05 11.9626 15.3375V10.95H15.1876C15.6376 10.95 16.0126 10.575 16.0126 10.125C16.0126 9.67495 15.6376 9.29995 15.1876 9.29995H11.9626V7.68745C11.9626 6.59995 11.0626 5.69995 9.9751 5.69995H9.7126C8.6251 5.69995 7.7251 6.59995 7.7251 7.68745C7.7251 8.13745 8.1001 8.51245 8.5501 8.51245C9.0001 8.51245 9.3751 8.13745 9.3751 7.68745C9.3751 7.53745 9.5251 7.38745 9.6751 7.38745H9.9376C10.0876 7.38745 10.2376 7.53745 10.2376 7.68745V9.29995H9.0751C8.6251 9.29995 8.2501 9.67495 8.2501 10.125C8.2501 10.575 8.6251 10.95 9.0751 10.95H10.2376V15.3375C10.2376 16.9875 11.5876 18.3 13.2376 18.3C14.8876 18.3 16.2376 16.95 16.2376 15.3375C16.2751 14.1375 15.5251 13.0875 14.4376 12.6Z" fill="#161A23"/>
</g>
<defs>
<clipPath id="clip0_501_52082">
<rect width="24" height="24" fill="white"/>
</clipPath>
</defs>
</svg>
