<svg width="24" height="24" viewBox="0 0 24 24" fill="none" xmlns="http://www.w3.org/2000/svg">
<path d="M20.7001 2.4375H3.30005C1.65005 2.4375 0.300049 3.7125 0.300049 5.25V16.125C0.300049 17.6625 1.65005 18.9375 3.30005 18.9375H11.9626C12.4125 18.9375 12.8251 18.5625 12.8251 18.1125C12.8251 17.6625 12.4501 17.2875 11.9626 17.2875H3.30005C2.55005 17.2875 1.98755 16.7625 1.98755 16.1625V11.325H22.0501V14.1375C22.0501 14.5875 22.4251 14.9625 22.8751 14.9625C23.3251 14.9625 23.7001 14.5875 23.7001 14.1375V5.25C23.7001 3.7125 22.3501 2.4375 20.7001 2.4375ZM3.30005 4.125H20.7001C21.4501 4.125 22.0126 4.65 22.0126 5.25V6.375H1.95005V5.25C1.95005 4.65 2.55005 4.125 3.30005 4.125ZM1.95005 9.6375V8.1H22.0126V9.6375H1.95005Z" fill="#161A23"/>
<path d="M19.65 16.9875C19.2 16.8 18.7125 17.025 18.5625 17.4375C18.375 17.85 18.6 18.375 19.0125 18.525C19.275 18.6375 19.4625 18.9 19.4625 19.1625C19.4625 19.5375 19.125 19.875 18.75 19.875C18.375 19.875 18.0375 19.575 18.0375 19.1625V16.2H20.1375C20.5875 16.2 20.9625 15.825 20.9625 15.375C20.9625 14.925 20.5875 14.55 20.1375 14.55H18V13.6125C18 12.675 17.25 11.925 16.3125 11.925H16.125C15.1875 11.925 14.4375 12.675 14.4375 13.6125C14.4375 14.0625 14.8125 14.475 15.2625 14.475C15.7125 14.475 16.0875 14.1 16.0875 13.65H16.2375V14.5875H15.6C15.15 14.5875 14.775 14.9625 14.775 15.4125C14.775 15.8625 15.15 16.2375 15.6 16.2375H16.2375V19.2C16.2375 20.5125 17.325 21.6 18.6375 21.6C19.95 21.6 21.0375 20.5125 21.0375 19.2C21.1125 18.225 20.55 17.3625 19.65 16.9875Z" fill="#161A23"/>
</svg>
