<svg width="24" height="24" viewBox="0 0 24 24" fill="none" xmlns="http://www.w3.org/2000/svg">
<path d="M8.25001 6.90004C7.83751 6.90004 7.46251 6.60004 7.42501 6.15004C7.31251 5.02504 7.57501 3.90004 8.17501 2.96254C9.63751 0.675037 12.7125 3.70741e-05 15 1.46254C16.6125 2.47504 17.475 4.27504 17.25 6.15004C17.2125 6.60004 16.7625 6.93754 16.3125 6.90004C15.8625 6.86254 15.525 6.45004 15.5625 5.96254C15.7125 4.72504 15.15 3.52504 14.0625 2.88754C12.5625 1.91254 10.5375 2.36254 9.56251 3.86254C9.15001 4.50004 9.00001 5.21254 9.07501 5.96254C9.11251 6.41254 8.81251 6.82504 8.32501 6.90004C8.32501 6.86254 8.28751 6.90004 8.25001 6.90004Z" fill="#161A23"/>
<path d="M11.55 23.3625C10.5 23.3625 9.5625 22.65 9.3 21.6375C8.85 19.875 7.6875 18.45 7.65 18.4125C7.35 18.0375 6.9375 17.5125 6.75 16.7625C6.7125 16.575 6.6 16.35 6.525 16.1625C6.45 15.975 6.375 15.7875 6.3375 15.6375C6.0375 14.7 5.6625 13.9125 5.2125 13.2C4.9125 12.75 4.9125 12.3375 4.9875 12.1125C5.0625 11.7375 5.325 11.4375 5.7 11.175C6.075 10.95 6.6375 10.875 7.05 10.95C7.8 11.1 8.325 11.5875 8.6625 11.9625C8.85 12.15 9.0375 12.4875 9.4125 13.2375C9.4125 13.2375 9.4125 13.275 9.45 13.275C9.7875 11.4 10.0875 9.48748 10.3875 7.64998L10.5375 6.67498C10.6875 5.77498 11.4 5.17498 12.3 5.21248H12.3375C13.2375 5.28748 13.9125 6.03748 13.9125 6.93748C13.9125 7.46248 13.9125 7.98748 13.9125 8.51248V8.99998C13.9125 9.33748 13.9125 9.63748 13.9125 9.93748C13.9125 10.275 13.9125 10.575 13.9125 10.9125V11.1C14.925 11.5125 17.0625 12.6 18.675 14.7C18.675 14.7 18.675 14.7375 18.7125 14.7375C18.975 15.1125 19.05 15.525 18.975 15.9375C18.75 17.2125 18.3 18.975 17.4375 20.4375C17.325 20.7 17.25 21 17.175 21.225L17.1375 21.375L17.025 22.05C16.9125 22.7625 16.3125 23.325 15.5625 23.4H15.525L11.55 23.3625ZM6.9 12.6375C7.3125 13.35 7.6875 14.1375 7.9875 15.075C8.025 15.225 8.1 15.375 8.1375 15.525C8.25 15.7875 8.325 16.05 8.4 16.3125C8.5125 16.65 8.6625 16.95 8.9625 17.325C9.0375 17.4 10.425 19.05 10.95 21.225C11.025 21.4875 11.25 21.675 11.55 21.675L15.4125 21.6375L15.525 21C15.525 20.9625 15.525 20.925 15.5625 20.8875L15.6 20.7C15.675 20.4375 15.7875 20.0625 15.9375 19.6875C15.9375 19.65 15.975 19.6125 15.975 19.575C16.5375 18.6 17.025 17.2125 17.325 15.6375C15.4875 13.35 12.8625 12.4875 12.8625 12.4875C12.525 12.375 12.2625 12.0375 12.2625 11.6625V10.875C12.2625 10.5375 12.2625 10.2375 12.2625 9.93748C12.2625 9.59998 12.2625 9.29998 12.2625 8.96248V8.47498C12.2625 7.94998 12.2625 7.46248 12.2625 6.93748C12.2625 6.89998 12.2625 6.86248 12.225 6.86248V6.89998L12.075 7.87498C11.775 9.74998 11.475 11.7 11.1 13.575C11.1 13.6125 11.1 13.6125 11.1 13.65C11.025 13.9125 10.95 14.25 10.725 14.5875C10.575 14.8125 10.1625 15.4875 9.45 15.4875C9.45 15.4875 9.45 15.4875 9.4125 15.4875C9.1875 15.4875 8.7375 15.4125 8.4 14.85C8.25 14.625 8.1 14.2875 7.9125 13.95C7.7625 13.65 7.5 13.1625 7.425 13.05C7.2375 12.8625 7.0875 12.7125 6.9 12.6375Z" fill="#161A23"/>
</svg>
