<svg width="24" height="24" viewBox="0 0 24 24" fill="none" xmlns="http://www.w3.org/2000/svg">
<g clip-path="url(#clip0_501_45101)">
<path d="M8.77499 21.4874C4.68749 20.1 1.98749 16.3125 1.98749 12C1.98749 6.44995 6.48749 1.94995 12.0375 1.94995C16.1625 1.94995 19.9125 4.53745 21.4125 8.36245C21.5625 8.81245 22.0875 8.99995 22.5 8.84995C22.95 8.69995 23.1375 8.17495 22.9875 7.76245C21.2625 3.26245 16.875 0.262451 12.0375 0.262451C5.54999 0.299951 0.299988 5.54995 0.299988 12C0.299988 17.025 3.48749 21.4874 8.24999 23.1C8.32499 23.1375 8.43749 23.1375 8.51249 23.1375C8.84999 23.1375 9.18749 22.9125 9.29999 22.575C9.44999 22.125 9.22499 21.6375 8.77499 21.4874Z" fill="#161A23"/>
<path d="M12 9.26245C12.6 9.26245 13.1625 9.44995 13.6125 9.82495C13.9875 10.125 14.5125 10.05 14.8125 9.67495C15.1125 9.29995 15.0375 8.77495 14.6625 8.47495C13.9125 7.87495 12.975 7.57495 12 7.57495C9.59996 7.57495 7.64996 9.52495 7.64996 11.925C7.64996 12.9 7.98746 13.8375 8.58746 14.5875C8.73746 14.8125 8.99996 14.925 9.26246 14.925C9.44996 14.925 9.63746 14.85 9.78746 14.7375C10.1625 14.4375 10.2 13.9125 9.93746 13.5375C9.56246 13.05 9.37496 12.4875 9.37496 11.8875C9.33746 10.4625 10.5375 9.26245 12 9.26245Z" fill="#161A23"/>
<path d="M17.175 10.6125C13.575 10.6125 10.6125 13.5375 10.6125 17.175C10.6125 20.8125 13.5375 23.7375 17.175 23.7375C20.8125 23.7375 23.7375 20.8125 23.7375 17.175C23.7375 13.5375 20.775 10.6125 17.175 10.6125ZM17.175 22.05C14.475 22.05 12.3 19.875 12.3 17.175C12.3 14.475 14.475 12.3 17.175 12.3C19.875 12.3 22.05 14.475 22.05 17.175C22.05 19.875 19.8375 22.05 17.175 22.05Z" fill="#161A23"/>
<path d="M9.37498 17.6999C7.12498 16.6874 5.66248 14.3999 5.66248 11.9249C5.66248 8.4374 8.51248 5.5874 12 5.5874C14.5125 5.5874 16.7625 7.0499 17.775 9.3374C17.9625 9.7499 18.45 9.9374 18.9 9.7499C19.3125 9.5624 19.5 9.0749 19.3125 8.6249C18.0375 5.7374 15.15 3.8999 12 3.8999C7.57498 3.8999 3.97498 7.4999 3.97498 11.9249C3.97498 15.0749 5.81248 17.9249 8.66248 19.2374C8.77498 19.2749 8.88748 19.3124 8.99998 19.3124C9.33748 19.3124 9.63748 19.1249 9.74998 18.8249C9.97498 18.3749 9.78748 17.8874 9.37498 17.6999Z" fill="#161A23"/>
<path d="M19.275 15.0375C18.9375 14.7 18.4125 14.7 18.075 15.0375L17.1375 15.975L16.2 15.0375C15.8625 14.7 15.3375 14.7 15 15.0375C14.6625 15.375 14.6625 15.9 15 16.2375L15.9375 17.175L15 18.1125C14.6625 18.45 14.6625 18.975 15 19.3125C15.15 19.4625 15.375 19.575 15.6 19.575C15.825 19.575 16.05 19.5 16.2 19.3125L17.1375 18.375L18.075 19.3125C18.225 19.4625 18.45 19.575 18.675 19.575C18.9 19.575 19.125 19.5 19.275 19.3125C19.6125 18.975 19.6125 18.45 19.275 18.1125L18.3375 17.175L19.275 16.2375C19.6125 15.9 19.6125 15.375 19.275 15.0375Z" fill="#161A23"/>
</g>
<defs>
<clipPath id="clip0_501_45101">
<rect width="24" height="24" fill="white"/>
</clipPath>
</defs>
</svg>
