<svg width="24" height="24" viewBox="0 0 24 24" fill="none" xmlns="http://www.w3.org/2000/svg">
<path d="M18.6 18.3375C20.175 18.3375 21.4875 17.0625 21.4875 15.45C21.4875 13.8375 20.2125 12.5625 18.6 12.5625C16.9875 12.5625 15.7125 13.8375 15.7125 15.45C15.7125 17.0625 17.025 18.3375 18.6 18.3375ZM18.6 14.25C19.275 14.25 19.8 14.775 19.8 15.45C19.8 16.125 19.275 16.65 18.6 16.65C17.925 16.65 17.4 16.125 17.4 15.45C17.4 14.775 17.9625 14.25 18.6 14.25Z" fill="#161A23"/>
<path d="M23.1 20.7C21.975 19.5375 20.325 18.8625 18.6375 18.8625C16.95 18.8625 15.3375 19.5375 14.175 20.7C13.8375 21.0375 13.8375 21.5625 14.175 21.9C14.325 22.05 14.55 22.125 14.775 22.125C15 22.125 15.225 22.05 15.375 21.8625C16.2 21.0375 17.4 20.55 18.6375 20.55C19.875 20.55 21.075 21.0375 21.9 21.8625C22.2375 22.2 22.7625 22.2 23.1 21.8625C23.4375 21.5625 23.4375 21.0375 23.1 20.7Z" fill="#161A23"/>
<path d="M13.3875 6.6375C13.65 6.075 13.575 5.4375 13.2375 4.9125C12.9 4.3875 12.3375 4.0875 11.7375 4.0875H2.36249V2.7C2.36249 2.25 1.94999 1.875 1.49999 1.875C1.04999 1.875 0.674988 2.25 0.674988 2.7V4.95V14.9625V21.1875C0.674988 21.6375 1.04999 22.05 1.53749 22.05C2.02499 22.05 2.39999 21.675 2.39999 21.1875V15.825H11.775C12.375 15.825 12.9375 15.525 13.275 15C13.6125 14.475 13.65 13.8375 13.425 13.275L11.9625 10.0125C11.9625 9.975 11.9625 9.9375 11.9625 9.9L13.3875 6.6375ZM10.3875 10.6875L11.85 13.95C11.85 13.95 11.8875 14.025 11.85 14.0625C11.8125 14.1 11.775 14.1 11.7375 14.1H2.36249V5.775H11.7375C11.7375 5.775 11.8125 5.775 11.85 5.8125C11.8875 5.85 11.85 5.925 11.85 5.925L10.3875 9.1875C10.1625 9.675 10.1625 10.2375 10.3875 10.6875Z" fill="#161A23"/>
<path d="M6.7125 9.29995H6.1125C6.075 9.29995 6.0375 9.26245 6.0375 9.14995C6.0375 9.07495 6.075 8.99995 6.1125 8.99995H7.3125C7.7625 8.99995 8.175 8.62495 8.175 8.13745C8.175 7.64995 7.8 7.27495 7.3125 7.27495H7.2V7.12495C7.2 6.67495 6.825 6.26245 6.3375 6.26245C5.85 6.26245 5.475 6.63745 5.475 7.12495V7.46245C4.8 7.72495 4.3125 8.36245 4.3125 9.14995C4.3125 9.14995 4.3125 9.14995 4.3125 9.18745C4.3125 9.18745 4.3125 9.18745 4.3125 9.22495C4.3125 10.2 5.1 11.025 6.075 11.025H6.675C6.7125 11.025 6.75 11.0625 6.75 11.175C6.75 11.25 6.7125 11.325 6.675 11.325H5.475C5.025 11.325 4.6125 11.7 4.6125 12.1875C4.6125 12.675 4.9875 13.0125 5.475 13.0125C5.475 13.4625 5.85 13.8375 6.3 13.8375C6.75 13.8375 7.125 13.4625 7.125 13.0125V12.9375C7.8375 12.7125 8.4 12.0375 8.4 11.2125C8.4 11.2125 8.4 11.2125 8.4 11.175C8.4 11.175 8.4 11.175 8.4 11.1375C8.4375 10.125 7.65 9.29995 6.7125 9.29995Z" fill="#161A23"/>
</svg>
