<svg width="24" height="24" viewBox="0 0 24 24" fill="none" xmlns="http://www.w3.org/2000/svg">
<g clip-path="url(#clip0_501_45115)">
<path d="M22.875 11.1749H20.55C20.1375 7.12495 16.875 3.86245 12.825 3.48745V1.12495C12.825 0.674951 12.45 0.262451 11.9625 0.262451C11.5125 0.262451 11.1 0.637451 11.1 1.12495V3.44995C7.05001 3.86245 3.82501 7.08745 3.37501 11.1375H1.12501C0.675012 11.1375 0.262512 11.5125 0.262512 12C0.262512 12.45 0.637512 12.8624 1.12501 12.8624H3.45001C3.82501 16.9874 7.08751 20.2874 11.175 20.6624V22.8749C11.175 23.3249 11.55 23.7374 12.0375 23.7374C12.4875 23.7374 12.9 23.3624 12.9 22.8749V20.6624C16.9875 20.2499 20.25 16.9499 20.625 12.8624H22.875C23.325 12.8624 23.7375 12.4874 23.7375 12C23.7375 11.5499 23.325 11.1749 22.875 11.1749ZM12.8625 18.9374V18.7874C12.8625 18.3374 12.4875 17.9249 12 17.9249C11.55 17.9249 11.1375 18.2999 11.1375 18.7874V18.9374C7.98751 18.5624 5.47501 16.0125 5.10001 12.825H5.13751C5.58751 12.825 6.00001 12.45 6.00001 11.9625C6.00001 11.5125 5.62501 11.0999 5.13751 11.0999H5.10001C5.51251 7.94995 7.98751 5.47495 11.1 5.09995V5.13745C11.1 5.58745 11.475 5.99995 11.9625 5.99995C12.4125 5.99995 12.825 5.62495 12.825 5.13745V5.09995C15.9375 5.47495 18.4125 7.94995 18.825 11.0999H18.7875C18.3375 11.0999 17.925 11.4749 17.925 11.9625C17.925 12.4124 18.3 12.825 18.7875 12.825H18.825C18.525 16.0125 16.0125 18.5624 12.8625 18.9374Z" fill="#161A23"/>
<path d="M12 8.7749C10.2 8.7749 8.77502 10.2374 8.77502 11.9999C8.77502 13.7999 10.2375 15.2249 12 15.2249C13.8 15.2249 15.225 13.7624 15.225 11.9999C15.225 10.1999 13.8 8.7749 12 8.7749ZM12 13.5374C11.1375 13.5374 10.4625 12.8249 10.4625 11.9999C10.4625 11.1374 11.175 10.4624 12 10.4624C12.8625 10.4624 13.5375 11.1749 13.5375 11.9999C13.5375 12.8624 12.8625 13.5374 12 13.5374Z" fill="#161A23"/>
</g>
<defs>
<clipPath id="clip0_501_45115">
<rect width="24" height="24" fill="white"/>
</clipPath>
</defs>
</svg>
