<svg width="24" height="24" viewBox="0 0 24 24" fill="none" xmlns="http://www.w3.org/2000/svg">
<g clip-path="url(#clip0_501_49694)">
<path d="M12 0.675049C5.73755 0.675049 0.675049 5.73755 0.675049 12C0.675049 18.2626 5.73755 23.3625 12 23.3625C18.2626 23.3625 23.3625 18.2626 23.3625 12C23.3625 5.73755 18.2626 0.675049 12 0.675049ZM12.8625 21.6V20.3625C12.8625 19.9125 12.4875 19.5 12 19.5C11.55 19.5 11.1375 19.875 11.1375 20.3625V21.6C6.48755 21.1875 2.77505 17.475 2.36255 12.825H3.60005C4.05005 12.825 4.46255 12.45 4.46255 11.9625C4.46255 11.5125 4.08755 11.1 3.60005 11.1H2.40005C2.81255 6.45005 6.52505 2.73755 11.175 2.32505V3.56255C11.175 4.01255 11.55 4.42505 12.0375 4.42505C12.4875 4.42505 12.9 4.05005 12.9 3.56255V2.40005C17.55 2.81255 21.2625 6.52505 21.675 11.175H20.4375C19.9875 11.175 19.5751 11.55 19.5751 12.0375C19.5751 12.4875 19.95 12.9 20.4375 12.9H21.675C21.225 17.5126 17.5125 21.225 12.8625 21.6Z" fill="#161A23"/>
<path d="M15.9 7.98755H8.10005C7.42505 7.98755 6.86255 8.55005 6.86255 9.22505V14.325C6.86255 15 7.42505 15.5625 8.10005 15.5625H15.9C16.575 15.5625 17.1375 15 17.1375 14.325V9.18755C17.1 8.51255 16.575 7.98755 15.9 7.98755ZM13.95 9.67505L12 10.95L10.05 9.63755H13.95V9.67505ZM8.58755 13.8375V10.725L11.55 12.675C11.7 12.7875 11.85 12.825 12 12.825C12.15 12.825 12.3375 12.7875 12.45 12.675L15.4125 10.725V13.8375H8.58755Z" fill="#161A23"/>
</g>
<defs>
<clipPath id="clip0_501_49694">
<rect width="24" height="24" fill="white"/>
</clipPath>
</defs>
</svg>
