<svg width="24" height="24" viewBox="0 0 24 24" fill="none" xmlns="http://www.w3.org/2000/svg">
<g clip-path="url(#clip0_501_48302)">
<path d="M12 12.8625C13.425 12.8625 14.5875 11.7 14.5875 10.275C14.5875 8.85 13.425 7.6875 12 7.6875C10.575 7.6875 9.41248 8.85 9.41248 10.275C9.41248 11.7 10.575 12.8625 12 12.8625ZM12 9.375C12.4875 9.375 12.9 9.7875 12.9 10.275C12.9 10.7625 12.4875 11.175 12 11.175C11.5125 11.175 11.1 10.7625 11.1 10.275C11.1 9.7875 11.5125 9.375 12 9.375Z" fill="#161A23"/>
<path d="M12 13.2C10.4625 13.2 9.03748 13.95 8.17498 15.1875C7.91248 15.5625 7.98748 16.0875 8.39998 16.35C8.77498 16.6125 9.29998 16.5375 9.56248 16.125C10.125 15.3375 11.025 14.85 12 14.85C12.975 14.85 13.875 15.3375 14.4375 16.125C14.5875 16.35 14.85 16.5 15.1125 16.5C15.2625 16.5 15.45 16.4625 15.6 16.35C15.975 16.0875 16.0875 15.5625 15.825 15.1875C14.9625 13.95 13.5375 13.2 12 13.2Z" fill="#161A23"/>
<path d="M4.76245 9.78752C4.42495 9.45002 3.89995 9.45002 3.56245 9.78752C3.22495 10.125 3.22495 10.65 3.56245 10.9875L3.74995 11.175H1.49995C1.04995 11.175 0.637451 11.55 0.637451 12.0375C0.637451 12.4875 1.01245 12.9 1.49995 12.9H3.74995L3.56245 13.0875C3.22495 13.425 3.22495 13.95 3.56245 14.2875C3.71245 14.4375 3.93745 14.55 4.16245 14.55C4.38745 14.55 4.61245 14.475 4.76245 14.2875L6.37495 12.675C6.71245 12.3375 6.71245 11.8125 6.37495 11.475L4.76245 9.78752Z" fill="#161A23"/>
<path d="M22.4999 11.175H20.2499L20.4374 10.9875C20.7749 10.65 20.7749 10.125 20.4374 9.78752C20.0999 9.45002 19.5749 9.45002 19.2374 9.78752L17.6249 11.4C17.4749 11.55 17.3624 11.775 17.3624 12C17.3624 12.225 17.4374 12.45 17.6249 12.6L19.2374 14.2125C19.3874 14.3625 19.6124 14.475 19.8374 14.475C20.0624 14.475 20.2874 14.4 20.4374 14.2125C20.7749 13.875 20.7749 13.35 20.4374 13.0125L20.2499 12.8625H22.4999C22.9499 12.8625 23.3624 12.4875 23.3624 12C23.3624 11.55 22.9499 11.175 22.4999 11.175Z" fill="#161A23"/>
<path d="M11.4 6.37501C11.55 6.52501 11.775 6.63751 12 6.63751C12.225 6.63751 12.45 6.56251 12.6 6.37501L14.2125 4.76251C14.55 4.42501 14.55 3.90001 14.2125 3.56251C13.875 3.22501 13.35 3.22501 13.0125 3.56251L12.8625 3.75001V1.50001C12.8625 1.05001 12.4875 0.637512 12 0.637512C11.55 0.637512 11.1375 1.01251 11.1375 1.50001V3.75001L10.95 3.56251C10.6125 3.22501 10.0875 3.22501 9.74995 3.56251C9.41245 3.90001 9.41245 4.42501 9.74995 4.76251L11.4 6.37501Z" fill="#161A23"/>
<path d="M12.5999 17.625C12.2999 17.325 11.7374 17.325 11.3999 17.625L9.78743 19.2375C9.44993 19.575 9.44993 20.1 9.78743 20.4375C10.1249 20.775 10.6499 20.775 10.9874 20.4375L11.1749 20.25V22.5C11.1749 22.95 11.5499 23.3625 12.0374 23.3625C12.4874 23.3625 12.8999 22.9875 12.8999 22.5V20.25L13.0874 20.4375C13.2374 20.5875 13.4624 20.7 13.6874 20.7C13.9124 20.7 14.1374 20.625 14.2874 20.4375C14.6249 20.1 14.6249 19.575 14.2874 19.2375L12.5999 17.625Z" fill="#161A23"/>
</g>
<defs>
<clipPath id="clip0_501_48302">
<rect width="24" height="24" fill="white"/>
</clipPath>
</defs>
</svg>
