<svg width="25" height="24" viewBox="0 0 25 24" fill="none" xmlns="http://www.w3.org/2000/svg">
<path d="M11.625 23.3625C8.73751 23.3625 6.03751 22.2375 3.97501 20.2125C-0.224988 16.0125 -0.224988 9.15 3.97501 4.95C7.57501 1.35 13.2375 0.749998 17.4375 3.45C17.8125 3.7125 17.925 4.2375 17.7 4.6125C17.4375 4.9875 16.9125 5.1 16.5375 4.875C12.975 2.5875 8.21251 3.1125 5.17501 6.1125C1.61251 9.675 1.61251 15.45 5.17501 18.975C8.73751 22.5375 14.5125 22.5375 18.0375 18.975C21.0375 15.975 21.5625 11.2125 19.275 7.6125C19.0125 7.2375 19.125 6.7125 19.5375 6.45C19.9125 6.1875 20.4375 6.3 20.7 6.7125C23.4 10.95 22.8 16.6125 19.2375 20.175C17.2125 22.2375 14.5125 23.3625 11.625 23.3625Z" fill="#161A23"/>
<path d="M11.625 19.8C9.67502 19.8 7.87502 19.05 6.48752 17.6625C3.67502 14.85 3.67502 10.2375 6.48752 7.425C8.66252 5.25 11.9625 4.6875 14.7375 6C15.15 6.1875 15.3375 6.7125 15.15 7.125C14.9625 7.5375 14.4375 7.725 14.025 7.5375C11.925 6.525 9.37502 6.975 7.72502 8.625C5.55002 10.8 5.55002 14.325 7.72502 16.4625C8.77502 17.5125 10.1625 18.075 11.6625 18.075C13.1625 18.075 14.55 17.5125 15.6 16.4625C17.25 14.8125 17.7 12.2625 16.6875 10.1625C16.5 9.75 16.65 9.225 17.1 9.0375C17.5125 8.85 18.0375 9 18.225 9.45C19.5375 12.225 18.975 15.525 16.8 17.7C15.375 19.05 13.575 19.8 11.625 19.8Z" fill="#161A23"/>
<path d="M11.625 16.2375C10.65 16.2375 9.71251 15.8625 9.00001 15.15C8.28751 14.4375 7.91251 13.5375 7.91251 12.525C7.91251 11.55 8.28751 10.6125 9.00001 9.9C9.63751 9.2625 10.4625 8.8875 11.3625 8.8125C11.85 8.775 12.225 9.15 12.2625 9.6C12.3 10.05 11.925 10.4625 11.475 10.5C10.9875 10.5375 10.5375 10.725 10.2 11.1C9.82501 11.475 9.60001 11.9625 9.60001 12.525C9.60001 13.05 9.82501 13.575 10.2 13.95C10.575 14.325 11.0625 14.55 11.625 14.55C12.15 14.55 12.675 14.325 13.05 13.95C13.3875 13.6125 13.6125 13.1625 13.6125 12.675C13.65 12.225 14.025 11.85 14.5125 11.8875C14.9625 11.925 15.3375 12.3 15.3 12.7875C15.225 13.6875 14.85 14.5125 14.2125 15.15C13.5375 15.8625 12.6375 16.2375 11.625 16.2375Z" fill="#161A23"/>
<path d="M11.85 13.2C11.625 13.2 11.4 13.125 11.25 12.9375C10.9125 12.6 10.9125 12.075 11.25 11.7375L22.0875 0.899998C22.425 0.562498 22.95 0.562498 23.2875 0.899998C23.625 1.2375 23.625 1.7625 23.2875 2.1L12.45 12.9375C12.2625 13.125 12.075 13.2 11.85 13.2Z" fill="#161A23"/>
</svg>
