<svg width="24" height="24" viewBox="0 0 24 24" fill="none" xmlns="http://www.w3.org/2000/svg">
<g clip-path="url(#clip0_501_45105)">
<path d="M22.875 11.1749H20.925C20.5125 6.89995 17.1 3.48745 12.8625 3.07495V1.12495C12.8625 0.674951 12.4875 0.262451 12 0.262451C11.55 0.262451 11.1375 0.637451 11.1375 1.12495V3.07495C6.90001 3.48745 3.48751 6.89995 3.07501 11.1749H1.12501C0.675012 11.1749 0.262512 11.5499 0.262512 12.0374C0.262512 12.4874 0.637512 12.9 1.12501 12.9H3.07501C3.48751 17.1749 6.90001 20.5875 11.175 20.9999V22.8749C11.175 23.3249 11.55 23.7374 12.0375 23.7374C12.4875 23.7374 12.9 23.3624 12.9 22.8749V20.9249C17.175 20.5124 20.5875 17.0999 21 12.825H22.875C23.325 12.825 23.7375 12.45 23.7375 11.9625C23.7375 11.5499 23.325 11.1749 22.875 11.1749ZM12.8625 19.2374V18.9374C12.8625 18.4874 12.4875 18.0749 12 18.0749C11.55 18.0749 11.1375 18.4499 11.1375 18.9374V19.2374C7.80001 18.8624 5.13751 16.1999 4.76251 12.8624H5.06251C5.51251 12.8624 5.92501 12.4874 5.92501 12C5.92501 11.5499 5.55001 11.1375 5.06251 11.1375H4.76251C5.13751 7.79995 7.80001 5.13745 11.1375 4.76245V5.06245C11.1375 5.51245 11.5125 5.92495 12 5.92495C12.45 5.92495 12.8625 5.54995 12.8625 5.06245V4.76245C16.2 5.13745 18.8625 7.79995 19.2375 11.1375H18.9375C18.4875 11.1375 18.075 11.5125 18.075 12C18.075 12.45 18.45 12.8624 18.9375 12.8624H19.2375C18.825 16.1999 16.2 18.8249 12.8625 19.2374Z" fill="#161A23"/>
<path d="M12.9375 11.1749H11.0625C10.7625 11.1749 10.5 10.9499 10.5 10.6874C10.5 10.4249 10.7625 10.1999 11.0625 10.1999H13.8375C14.2875 10.1999 14.7 9.8249 14.7 9.3374C14.7 8.8499 14.325 8.4749 13.8375 8.4749H13.0875C13.0875 8.0249 12.7125 7.6499 12.2625 7.6499C11.8125 7.6499 11.4375 8.0249 11.4375 8.4749H11.1C9.86251 8.4749 8.85001 9.4499 8.85001 10.6499C8.85001 11.8499 9.86251 12.8249 11.1 12.8249H12.975C13.275 12.8249 13.5375 13.0499 13.5375 13.3124C13.5375 13.5749 13.275 13.7999 12.975 13.7999H9.82501C9.37501 13.7999 8.96251 14.1749 8.96251 14.6624C8.96251 15.1499 9.33751 15.5249 9.82501 15.5249H11.475C11.475 15.9749 11.85 16.3499 12.3 16.3499C12.75 16.3499 13.125 15.9749 13.125 15.5249C14.2875 15.4499 15.225 14.5124 15.225 13.3499C15.1875 12.1499 14.175 11.1749 12.9375 11.1749Z" fill="#161A23"/>
</g>
<defs>
<clipPath id="clip0_501_45105">
<rect width="24" height="24" fill="white"/>
</clipPath>
</defs>
</svg>
