<svg width="24" height="24" viewBox="0 0 24 24" fill="none" xmlns="http://www.w3.org/2000/svg">
<path d="M5.8875 13.5001H10.35C10.8 13.5001 11.175 13.1251 11.175 12.6751C11.175 12.2251 10.8 11.8501 10.35 11.8501H5.8875C5.4375 11.8501 5.0625 12.2251 5.0625 12.6751C5.0625 13.1251 5.4 13.5001 5.8875 13.5001Z" fill="#161A23"/>
<path d="M5.8875 16.95H11.2125C11.6625 16.95 12.075 16.575 12.075 16.125C12.075 15.675 11.7 15.3 11.2125 15.3H5.8875C5.4375 15.3 5.0625 15.675 5.0625 16.125C5.0625 16.575 5.4 16.95 5.8875 16.95Z" fill="#161A23"/>
<path d="M12.9 21.0751H4.16245C3.97495 21.0751 3.82495 20.925 3.82495 20.7375V2.51255C3.82495 2.32505 3.97495 2.17505 4.16245 2.17505H9.63745V7.12505C9.63745 8.21255 10.5375 9.11255 11.625 9.11255H17.1V13.0125C17.1 13.4625 17.475 13.8375 17.925 13.8375C18.375 13.8375 18.75 13.4625 18.75 13.0125V8.70005C18.75 8.17505 18.525 7.65005 18.1125 7.27505L11.55 1.05005C11.175 0.712549 10.6875 0.487549 10.1625 0.487549H4.16245C3.03745 0.487549 2.13745 1.38755 2.13745 2.51255V20.775C2.13745 21.9 3.03745 22.8 4.16245 22.8H12.9375C13.3875 22.8 13.7625 22.425 13.7625 21.975C13.7625 21.525 13.3875 21.0751 12.9 21.0751ZM15.8625 7.42505H11.625C11.4375 7.42505 11.325 7.31255 11.325 7.12505V3.15005L15.8625 7.42505Z" fill="#161A23"/>
<path d="M15.9749 16.9126C16.4926 16.9126 16.9124 16.4929 16.9124 15.9751C16.9124 15.4573 16.4926 15.0376 15.9749 15.0376C15.4571 15.0376 15.0374 15.4573 15.0374 15.9751C15.0374 16.4929 15.4571 16.9126 15.9749 16.9126Z" fill="#161A23"/>
<path d="M19.7625 20.5125C19.2375 20.5125 18.825 20.925 18.825 21.45C18.825 21.975 19.2375 22.3875 19.7625 22.3875C20.2875 22.3875 20.7 21.975 20.7 21.45C20.7 20.925 20.2875 20.5125 19.7625 20.5125Z" fill="#161A23"/>
<path d="M21.075 15.375C20.7375 15.0375 20.2125 15.0375 19.875 15.375L14.85 20.4C14.5125 20.7375 14.5125 21.2625 14.85 21.6C15 21.75 15.225 21.8625 15.45 21.8625C15.675 21.8625 15.9 21.7875 16.05 21.6L21.1125 16.5375C21.4125 16.2375 21.4125 15.7125 21.075 15.375Z" fill="#161A23"/>
</svg>
