<svg width="24" height="24" viewBox="0 0 24 24" fill="none" xmlns="http://www.w3.org/2000/svg">
<path d="M5.85002 15.4499H8.13752C8.58752 15.4499 8.96252 15.0749 8.96252 14.6249C8.96252 14.1749 8.58752 13.7999 8.13752 13.7999H5.85002C5.40002 13.7999 5.02502 14.1749 5.02502 14.6249C5.02502 15.0749 5.40002 15.4499 5.85002 15.4499Z" fill="#161A23"/>
<path d="M15.4125 15.4499H17.7C18.15 15.4499 18.525 15.0749 18.525 14.6249C18.525 14.1749 18.15 13.7999 17.7 13.7999H15.4125C14.9625 13.7999 14.5875 14.1749 14.5875 14.6249C14.5875 15.0749 14.9625 15.4499 15.4125 15.4499Z" fill="#161A23"/>
<path d="M22.5001 9.22495H21.0375L19.35 4.91245C19.125 4.23745 18.4501 3.78745 17.7001 3.78745H15.7875L15.5251 2.92495C15.2626 2.13745 14.55 1.57495 13.725 1.57495H10.2751C9.45005 1.57495 8.70005 2.09995 8.47505 2.92495L8.21255 3.78745H6.07505C5.36255 3.78745 4.72505 4.23745 4.42505 4.91245L2.70005 9.22495H1.50005C1.05005 9.22495 0.675049 9.59995 0.675049 10.05C0.675049 10.5 1.05005 10.875 1.50005 10.875H2.06255C2.06255 10.9125 2.06255 10.9125 2.06255 10.95V16.8C2.06255 17.775 2.77505 18.5625 3.67505 18.75V20.0625C3.67505 21.3375 4.72505 22.3875 6.00005 22.3875H6.63755C7.91255 22.3875 8.96255 21.3375 8.96255 20.0625V18.7875H14.5126V20.0625C14.5126 21.3375 15.5626 22.3875 16.8376 22.3875H17.475C18.75 22.3875 19.8001 21.3375 19.8001 20.0625V18.75C20.8125 18.675 21.6 17.8125 21.6 16.8V10.95C21.6 10.9125 21.6 10.9125 21.6 10.875H22.5001C22.9501 10.875 23.3251 10.5 23.3251 10.05C23.3251 9.59995 22.9501 9.22495 22.5001 9.22495ZM10.0876 3.41245C10.125 3.33745 10.2 3.26245 10.2751 3.26245H13.725C13.8 3.26245 13.9125 3.33745 13.9125 3.41245L14.0251 3.78745H9.97505L10.0876 3.41245ZM5.96255 5.51245C5.96255 5.51245 6.00005 5.43745 6.03755 5.43745H17.7001C17.7376 5.43745 17.7751 5.47495 17.7751 5.43745V5.47495L19.6126 10.125H4.16255L5.96255 5.51245ZM7.31255 20.0625C7.31255 20.4375 7.01255 20.7374 6.63755 20.7374H6.00005C5.62505 20.7374 5.32505 20.4375 5.32505 20.0625V18.7875H7.27505V20.0625H7.31255ZM18.1875 20.0625C18.1875 20.4375 17.8876 20.7374 17.5126 20.7374H16.875C16.5001 20.7374 16.2001 20.4375 16.2001 20.0625V18.7875H18.1501V20.0625H18.1875ZM20.0251 16.8375C20.0251 16.9875 19.9125 17.1375 19.725 17.1375H19.0501H15.4125H8.17505H4.53755H4.05005C3.90005 17.1375 3.75005 17.025 3.75005 16.8375V11.8125H20.0251V16.8375Z" fill="#161A23"/>
</svg>
