<svg width="24" height="24" viewBox="0 0 24 24" fill="none" xmlns="http://www.w3.org/2000/svg">
<path d="M5.81251 11.8875H7.72501C8.17501 11.8875 8.58751 11.5125 8.58751 11.025C8.58751 10.5375 8.21251 10.1625 7.72501 10.1625H5.81251C5.36251 10.1625 4.95001 10.5375 4.95001 11.025C4.95001 11.5125 5.32501 11.8875 5.81251 11.8875Z" fill="#161A23"/>
<path d="M22.3875 16.0125L20.9625 15.3V8.32501C20.9625 4.08751 17.5875 0.637512 13.425 0.637512C9.3 0.637512 6.45 2.88751 5.9625 6.37501H3.1125C2.475 6.37501 1.95 6.82501 1.8 7.46251L1.2 10.05C1.125 10.2375 1.125 10.3875 1.125 10.4625V21.0375C1.125 21.6375 1.35 22.2375 1.8 22.65C2.25 23.0625 2.8125 23.325 3.4125 23.325L10.05 23.2875C11.325 23.2875 12.3375 22.2375 12.3375 21V10.425C12.3375 10.35 12.3375 10.275 12.3 10.2375L11.625 7.46251C11.5125 6.82501 10.95 6.37501 10.3125 6.37501H7.6125C8.1375 3.41251 10.9125 2.32501 13.35 2.32501C16.575 2.32501 19.2 5.02501 19.2 8.32501V15.3L17.775 16.0125C17.475 16.1625 17.325 16.4625 17.325 16.7625V21.75C17.325 22.6125 18.0375 23.325 18.9 23.325H21.2625C22.125 23.325 22.8375 22.6125 22.8375 21.75V16.7625C22.875 16.4625 22.6875 16.1625 22.3875 16.0125ZM10.65 10.4625C10.65 10.5 10.65 10.5 10.65 10.5375V21C10.65 21.3375 10.3875 21.6 10.05 21.6L3.4125 21.6375C3.2625 21.6375 3.1125 21.5625 3 21.45C2.8875 21.3375 2.8125 21.1875 2.8125 21.0375V10.5375L3.375 8.06251H10.05L10.65 10.4625ZM21.1875 21.675H19.05V17.2875L20.1 16.7625L21.15 17.2875V21.675H21.1875Z" fill="#161A23"/>
</svg>
