<svg width="24" height="24" viewBox="0 0 24 24" fill="none" xmlns="http://www.w3.org/2000/svg">
<path d="M22.6125 5.66251L22.1625 2.70001C22.05 2.06251 21.7125 1.46251 21.1875 1.08751C20.6625 0.71251 19.9875 0.56251 19.35 0.71251L3.2625 3.93751C2.025 4.20001 1.2 5.36251 1.3875 6.60001L1.575 7.87501C1.7625 9.03751 2.775 9.90001 3.9375 9.90001C4.0125 9.90001 4.0875 9.90001 4.1625 9.90001L11.0625 9.26251V12.375H8.7C8.25 12.375 7.8375 12.75 7.8375 13.2375C7.8375 13.725 8.2125 14.1 8.7 14.1H10.3875L6.225 22.0125C6 22.425 6.15 22.95 6.5625 23.1375C6.675 23.2125 6.825 23.25 6.9375 23.25C7.2375 23.25 7.5375 23.1 7.6875 22.8L11.025 16.4625V22.5C11.025 22.95 11.4 23.3625 11.8875 23.3625C12.375 23.3625 12.75 22.9875 12.75 22.5V16.4625L16.0875 22.8C16.2375 23.1 16.5375 23.25 16.8375 23.25C16.9875 23.25 17.1 23.2125 17.2125 23.1375C17.625 22.9125 17.775 22.425 17.55 22.0125L13.3875 14.0625H15C15.45 14.0625 15.8625 13.6875 15.8625 13.2C15.8625 12.7125 15.4875 12.375 15 12.375H12.75V9.07501L20.5125 8.32501C21.15 8.25001 21.75 7.95001 22.1625 7.42501C22.5375 6.93751 22.725 6.30001 22.6125 5.66251ZM9.3375 7.72501L8.85 4.53751L13.725 3.56251L14.2875 7.27501L9.3375 7.72501ZM3.975 8.21251C3.6 8.25001 3.2625 7.98751 3.225 7.61251L3.0375 6.37501C3 6.00001 3.225 5.66251 3.6 5.58751L7.2 4.87501L7.65 7.87501L3.975 8.21251ZM20.8125 6.41251C20.7 6.56251 20.5125 6.67501 20.325 6.67501L15.975 7.08751L15.4125 3.22501L19.6875 2.36251C19.725 2.36251 19.7625 2.36251 19.8375 2.36251C19.9875 2.36251 20.1 2.40001 20.25 2.47501C20.4 2.58751 20.5125 2.73751 20.55 2.92501L21 5.88751C20.9625 6.07501 20.925 6.26251 20.8125 6.41251Z" fill="#161A23"/>
</svg>
