<svg width="24" height="24" viewBox="0 0 24 24" fill="none" xmlns="http://www.w3.org/2000/svg">
<path d="M21.3375 3.82495C20.55 2.92495 19.575 2.39995 18.8625 2.06245C17.2875 1.34995 15.6 0.899951 13.5 0.712451C12.9375 0.674951 12.4125 0.637451 11.8875 0.637451C9.9375 0.637451 8.02499 0.974951 6.18749 1.61245C5.32499 1.94995 4.12499 2.43745 3.11249 3.33745C2.24999 4.12495 1.79999 5.09995 1.83749 6.22495C1.83749 6.37495 1.83749 7.57495 1.83749 7.76245C1.87499 9.26245 2.92499 10.35 4.42499 10.35H7.2C8.6625 10.35 9.74999 9.26245 9.74999 7.76245V6.89995C10.35 6.78745 11.2125 6.63745 11.9625 6.63745C12.75 6.63745 13.65 6.74995 14.25 6.89995C14.25 7.19995 14.25 7.53745 14.25 7.68745V7.76245C14.25 9.29995 15.3375 10.35 16.8375 10.35C17.2125 10.35 18.15 10.35 18.825 10.35C19.2375 10.35 19.5375 10.35 19.6125 10.35C21.075 10.35 22.125 9.29995 22.1625 7.79995V6.11245C22.1625 5.24995 21.9 4.46245 21.3375 3.82495ZM19.575 8.66245C19.4625 8.66245 17.85 8.66245 16.8375 8.66245C16.2375 8.66245 15.9375 8.36245 15.9375 7.76245V7.64995C15.9375 7.38745 15.9375 6.56245 15.9375 6.26245C15.9375 5.88745 15.75 5.58745 15.4125 5.43745C14.85 5.21245 13.3875 4.91245 12.075 4.91245C12.0375 4.91245 12 4.91245 11.9625 4.91245C10.425 4.94995 8.69999 5.39995 8.66249 5.39995C8.28749 5.51245 8.06249 5.84995 8.06249 6.22495V7.76245C8.06249 8.32495 7.7625 8.66245 7.2 8.66245H4.42499C3.86249 8.66245 3.52499 8.32495 3.52499 7.72495C3.52499 7.53745 3.52499 6.44995 3.52499 6.18745C3.48749 5.58745 3.71249 5.06245 4.23749 4.61245C5.06249 3.89995 6.0375 3.48745 6.7875 3.22495C8.4375 2.66245 10.1625 2.36245 11.925 2.36245C12.375 2.36245 12.8625 2.39995 13.3875 2.43745C15.2625 2.62495 16.8 2.99995 18.1875 3.63745C18.7875 3.89995 19.5375 4.31245 20.0625 4.94995C20.3625 5.28745 20.475 5.66245 20.475 6.11245V7.79995C20.475 8.36245 20.1375 8.66245 19.575 8.66245Z" fill="#161A23"/>
<path d="M7.46249 12.5625C7.42499 12.525 7.42499 12.45 7.38749 12.4125C7.34999 12.375 7.31249 12.3375 7.27499 12.3C7.08749 12.1125 6.78749 12 6.52499 12.075C6.48749 12.075 6.41249 12.1125 6.37499 12.1125C6.33749 12.1125 6.26249 12.15 6.22499 12.1875C6.18749 12.225 6.14999 12.2625 6.07499 12.3C6.03749 12.3375 5.99999 12.375 5.96249 12.4125C5.92499 12.45 5.92499 12.525 5.88749 12.5625C5.84999 12.6 5.84999 12.675 5.84999 12.7125C5.84999 12.7875 5.84999 12.825 5.84999 12.8625C5.84999 12.9 5.84999 12.975 5.84999 13.0125C5.84999 13.0875 5.88749 13.125 5.88749 13.1625C5.92499 13.2 5.92499 13.275 5.96249 13.3125C5.99999 13.35 6.03749 13.3875 6.07499 13.425C6.11249 13.4625 6.14999 13.5 6.22499 13.5375C6.26249 13.575 6.29999 13.6125 6.37499 13.6125C6.41249 13.65 6.48749 13.65 6.52499 13.65C6.56249 13.65 6.63749 13.65 6.67499 13.65C6.71249 13.65 6.78749 13.65 6.82499 13.65C6.86249 13.65 6.93749 13.6125 6.97499 13.6125C7.01249 13.6125 7.08749 13.575 7.12499 13.5375C7.16249 13.5 7.19999 13.4625 7.27499 13.425C7.31249 13.3875 7.34999 13.35 7.38749 13.3125C7.42499 13.275 7.42499 13.2375 7.46249 13.1625C7.49999 13.1625 7.49999 13.125 7.49999 13.05C7.49999 13.0125 7.49999 12.9375 7.49999 12.9C7.49999 12.8625 7.49999 12.7875 7.49999 12.75C7.49999 12.675 7.49999 12.6375 7.46249 12.5625Z" fill="#161A23"/>
<path d="M6.075 17.1C5.925 17.25 5.8125 17.475 5.8125 17.7C5.8125 17.925 5.8875 18.15 6.075 18.3C6.225 18.45 6.45 18.5625 6.675 18.5625C6.9 18.5625 7.125 18.4875 7.275 18.3C7.425 18.15 7.5 17.925 7.5 17.7C7.5 17.475 7.425 17.25 7.275 17.1C6.975 16.8 6.4125 16.8 6.075 17.1Z" fill="#161A23"/>
<path d="M7.4625 22.1624C7.425 22.1249 7.425 22.0499 7.3875 22.0124C7.35 21.9749 7.3125 21.9374 7.275 21.8999C7.2375 21.8624 7.2 21.8249 7.1625 21.7874C7.125 21.7499 7.05 21.7499 7.0125 21.7124C6.975 21.6749 6.9 21.6749 6.8625 21.6749C6.6 21.6374 6.3 21.7124 6.1125 21.8999C6.075 21.9374 6.0375 21.9749 6 22.0124C5.9625 22.0499 5.9625 22.0874 5.925 22.1624C5.8875 22.1999 5.8875 22.2749 5.8875 22.3124C5.8875 22.3499 5.8875 22.4249 5.8875 22.4624C5.8875 22.5749 5.925 22.6874 5.9625 22.7999C6 22.8374 6 22.9124 6.0375 22.9499C6.075 22.9874 6.1125 23.0249 6.15 23.0624C6.1875 23.0999 6.225 23.1374 6.3 23.1749C6.375 23.2124 6.375 23.2499 6.45 23.2499C6.4875 23.2499 6.5625 23.2874 6.6 23.2874C6.6375 23.2874 6.7125 23.2874 6.75 23.2874C6.7875 23.2874 6.8625 23.2874 6.9 23.2874C6.9375 23.2874 7.0125 23.2499 7.05 23.2499C7.0875 23.2124 7.1625 23.2124 7.2 23.1749C7.2375 23.1374 7.275 23.0999 7.3125 23.0624C7.35 23.0249 7.3875 22.9874 7.425 22.9499C7.4625 22.9124 7.4625 22.8749 7.5 22.7999C7.5375 22.6874 7.575 22.5749 7.575 22.4624C7.575 22.4249 7.575 22.3499 7.575 22.3124C7.5 22.2749 7.5 22.2374 7.4625 22.1624Z" fill="#161A23"/>
<path d="M12.7875 12.5625C12.75 12.525 12.75 12.45 12.7125 12.4125C12.675 12.375 12.6375 12.3375 12.6 12.3C12.4125 12.1125 12.1125 12 11.85 12.075C11.8125 12.075 11.7375 12.1125 11.7 12.1125C11.6625 12.1125 11.5875 12.15 11.55 12.1875C11.5125 12.225 11.475 12.2625 11.4375 12.3C11.4 12.3375 11.3625 12.375 11.325 12.4125C11.2875 12.45 11.25 12.525 11.25 12.5625C11.2125 12.6 11.2125 12.675 11.2125 12.7125C11.2125 12.7875 11.175 12.825 11.175 12.8625C11.175 13.0875 11.25 13.3125 11.4375 13.4625C11.475 13.5 11.5125 13.5375 11.55 13.575C11.5875 13.6125 11.625 13.65 11.7 13.65C11.7375 13.6875 11.8125 13.6875 11.85 13.6875C11.8875 13.6875 11.9625 13.6875 12 13.6875C12.075 13.6875 12.1125 13.6875 12.15 13.6875C12.1875 13.6875 12.2625 13.65 12.3 13.65C12.3375 13.65 12.4125 13.6125 12.45 13.575C12.4875 13.5375 12.525 13.5 12.5625 13.4625C12.7125 13.3125 12.825 13.0875 12.825 12.8625C12.825 12.825 12.825 12.75 12.825 12.7125C12.825 12.675 12.7875 12.6375 12.7875 12.5625Z" fill="#161A23"/>
<path d="M11.4 17.1C11.25 17.25 11.1375 17.475 11.1375 17.7C11.1375 17.925 11.2125 18.15 11.4 18.3C11.55 18.45 11.775 18.5625 12 18.5625C12.225 18.5625 12.45 18.4875 12.6 18.3C12.75 18.15 12.8625 17.925 12.8625 17.7C12.8625 17.475 12.75 17.25 12.6 17.1C12.2625 16.8 11.7 16.8 11.4 17.1Z" fill="#161A23"/>
<path d="M12.7875 22.1624C12.75 22.1249 12.75 22.0499 12.7125 22.0124C12.675 21.9749 12.6375 21.9374 12.6 21.8999C12.3 21.5999 11.7375 21.5999 11.4 21.8999C11.3625 21.9374 11.325 21.9749 11.2875 22.0124C11.25 22.0499 11.25 22.1249 11.2125 22.1624C11.175 22.1999 11.175 22.2749 11.175 22.3124C11.175 22.3499 11.1375 22.4249 11.1375 22.4624C11.1375 22.5749 11.175 22.6874 11.2125 22.7999C11.25 22.9124 11.325 22.9874 11.4 23.0624C11.55 23.2124 11.775 23.3249 12 23.3249C12.075 23.3249 12.1125 23.3249 12.15 23.3249C12.1875 23.3249 12.2625 23.2874 12.3 23.2874C12.3375 23.2499 12.4125 23.2499 12.45 23.2124C12.4875 23.1749 12.525 23.1374 12.5625 23.0999C12.6375 23.0249 12.7125 22.9124 12.75 22.8374C12.7875 22.7249 12.825 22.6124 12.825 22.4999C12.825 22.4624 12.825 22.3874 12.825 22.3499C12.825 22.2749 12.7875 22.2374 12.7875 22.1624Z" fill="#161A23"/>
<path d="M17.1375 12.075C17.1 12.075 17.025 12.1125 16.9875 12.1125C16.95 12.15 16.875 12.15 16.8375 12.1875C16.8 12.225 16.7625 12.2625 16.725 12.3C16.575 12.45 16.4625 12.675 16.4625 12.9C16.4625 13.125 16.5375 13.35 16.725 13.5C16.875 13.65 17.1 13.7625 17.325 13.7625C17.55 13.7625 17.775 13.6875 17.925 13.5C18.075 13.35 18.1875 13.125 18.1875 12.9C18.1875 12.675 18.1125 12.45 17.925 12.3C17.7 12.1125 17.4 12 17.1375 12.075Z" fill="#161A23"/>
<path d="M17.1375 16.8749C17.1 16.8749 17.025 16.9124 16.9875 16.9124C16.95 16.9124 16.875 16.9499 16.8375 16.9874C16.8 17.0249 16.7625 17.0624 16.725 17.0999C16.575 17.2499 16.4625 17.4749 16.4625 17.6999C16.4625 17.9249 16.5375 18.1499 16.725 18.2999C16.875 18.4499 17.1 18.5624 17.325 18.5624C17.55 18.5624 17.775 18.4874 17.925 18.2999C18.075 18.1499 18.1875 17.9249 18.1875 17.6999C18.1875 17.4749 18.1125 17.2499 17.925 17.0999C17.7 16.9124 17.4 16.7999 17.1375 16.8749Z" fill="#161A23"/>
<path d="M18.075 22.1624C18.075 22.1249 18.0375 22.0499 18 22.0124C17.9625 21.9749 17.925 21.9374 17.8875 21.8999C17.5875 21.5999 17.025 21.5999 16.6875 21.8999C16.65 21.9374 16.6125 21.9749 16.575 22.0124C16.5375 22.0499 16.5 22.0874 16.5 22.1624C16.4625 22.1999 16.4625 22.2749 16.4625 22.3124C16.4625 22.3499 16.4625 22.4249 16.4625 22.4624C16.4625 22.5749 16.4625 22.6874 16.5375 22.7999C16.575 22.9124 16.65 22.9874 16.725 23.0624C16.875 23.2124 17.1 23.3249 17.325 23.3249C17.55 23.3249 17.775 23.2499 17.925 23.0624C18 22.9874 18.075 22.8749 18.1125 22.7999C18.15 22.6874 18.1875 22.5749 18.1875 22.4624C18.1875 22.4249 18.1875 22.3499 18.1875 22.3124C18.1125 22.2749 18.1125 22.2374 18.075 22.1624Z" fill="#161A23"/>
</svg>
