<svg width="24" height="24" viewBox="0 0 24 24" fill="none" xmlns="http://www.w3.org/2000/svg">
<g clip-path="url(#clip0_914_45446)">
<path d="M20.175 3.825C18.0375 1.575 15.1125 0.375 12 0.375C8.8875 0.375 5.9625 1.575 3.825 3.825C1.6875 6.075 0.375 8.8875 0.375 12C0.375 15.1125 1.575 18.0375 3.825 20.175C6.075 22.3125 8.8875 23.625 12 23.625C15.1125 23.625 18.0375 22.425 20.175 20.175C22.3125 17.925 23.625 15.1125 23.625 12C23.625 8.8875 22.425 5.9625 20.175 3.825ZM12 22.5C6.1875 22.5 1.5 17.8125 1.5 12C1.5 6.1875 6.1875 1.5 12 1.5C17.8125 1.5 22.5 6.2625 22.5 12C22.5 17.7375 17.8125 22.5 12 22.5Z" fill="#15171A"/>
<path d="M17.5125 6.59988C17.1 6.33738 16.5 6.56238 16.35 6.63738L5.24995 10.9874C4.83745 11.1374 4.38745 11.4749 4.49995 11.9999C4.53745 12.5999 5.17495 12.7874 5.24995 12.8624L7.83745 13.7624C8.02495 14.5124 8.28745 15.2624 8.51245 16.0124C8.58745 16.2749 8.69995 16.5374 8.77495 16.7999C8.84995 17.0249 8.88745 17.2499 9.03745 17.4374C9.11245 17.5124 9.18745 17.5874 9.26245 17.6249C9.41245 17.6624 9.56245 17.6999 9.71245 17.6999C9.82495 17.6999 10.0125 17.6624 10.0875 17.5499L11.55 16.1624L14.025 18.0749C14.0625 18.1124 14.0625 18.1124 14.1375 18.1124C14.3625 18.2249 14.55 18.2249 14.6625 18.2249C14.775 18.2249 14.9625 18.1874 15.075 18.1874C15.4875 18.0374 15.7125 17.6249 15.7125 17.5499C15.7125 17.5124 15.75 17.5124 15.75 17.5124L17.775 7.42488C17.775 7.38738 17.775 7.38738 17.775 7.38738C17.8125 6.86238 17.5875 6.71238 17.5125 6.59988ZM9.97495 16.3499L10.125 14.9624L10.875 15.4874L9.97495 16.3499ZM14.9625 17.1374C14.925 17.2499 14.85 17.3249 14.7375 17.3249C14.6625 17.3249 14.625 17.2874 14.55 17.2499C13.1625 16.1624 11.8125 15.1124 10.425 14.0249C12 12.6749 13.5375 11.2874 15.075 9.86238C15.2625 9.71238 15.4125 9.56238 15.525 9.33738C15.6375 9.11238 15.6375 8.84988 15.4875 8.69988C15.3375 8.54988 15.1125 8.47488 14.8875 8.54988C14.6625 8.58738 14.475 8.69988 14.2875 8.81238C12.225 10.1249 10.2 11.4374 8.13745 12.7124C8.06245 12.7499 7.98745 12.7874 7.91245 12.8249C7.83745 12.8249 7.76245 12.8249 7.68745 12.7874C7.27495 12.6374 6.82495 12.5249 6.41245 12.3749C5.99995 12.2249 5.54995 12.1499 5.17495 11.9249C9.03745 10.3874 12.9 8.88738 16.8 7.34988C16.2 10.5374 15.6 13.7249 15 16.9499C15 16.9874 14.9625 17.0624 14.9625 17.1374Z" fill="#15171A"/>
</g>
<defs>
<clipPath id="clip0_914_45446">
<rect width="24" height="24" fill="white"/>
</clipPath>
</defs>
</svg>
