<svg width="24" height="24" viewBox="0 0 24 24" fill="none" xmlns="http://www.w3.org/2000/svg">
<g clip-path="url(#clip0_501_44652)">
<path d="M12 0.637451C5.73751 0.637451 0.637512 5.73745 0.637512 12C0.637512 18.2625 5.73751 23.325 12 23.325C13.8375 23.325 15.675 22.8375 17.475 21.9375C18.975 21.15 19.8 20.1375 19.9125 18.975C20.025 17.775 19.35 16.7625 18.7875 16.1625C19.3875 15.3 19.3125 14.2125 18.525 13.425L17.0625 11.9625C16.2 11.1 14.925 11.1 14.0625 11.9625L13.725 12.3C13.3875 12.075 12.9375 11.7375 12.5625 11.4C12.1875 11.025 11.85 10.575 11.625 10.2375C11.7375 10.125 11.8875 9.97495 11.925 9.93745L11.9625 9.89995C12.4125 9.44995 12.6375 8.92495 12.6375 8.36245C12.6375 7.79995 12.4125 7.27495 11.9625 6.82495C11.55 6.41245 10.575 5.43745 10.5 5.36245C9.63751 4.49995 8.40001 4.49995 7.50001 5.36245L6.60001 6.26245C6.11251 6.74995 5.85001 7.34995 5.77501 8.02495C5.70001 8.96245 5.96251 9.78745 6.15001 10.35C6.60001 11.5875 7.27501 12.75 8.32501 13.95C8.62501 14.2875 8.88751 14.5875 9.15001 14.85C10.2 15.9 11.4 16.7625 12.7125 17.4C13.3875 17.7375 14.2875 18.1125 15.3375 18.15C15.4125 18.15 15.4875 18.15 15.525 18.15C16.3125 18.15 17.025 17.8875 17.55 17.325C17.8875 17.7375 18.225 18.2625 18.15 18.7875C18.075 19.5 17.2875 20.0625 16.6125 20.4C15.075 21.1875 13.5 21.6 11.925 21.6C6.67501 21.6375 2.32501 17.325 2.32501 12C2.32501 6.67495 6.67501 2.32495 12 2.32495C17.325 2.32495 21.675 6.67495 21.675 12C21.675 12.9375 21.525 13.9125 21.2625 14.8125C21.1125 15.2625 21.375 15.7125 21.825 15.8625C22.275 16.0125 22.725 15.75 22.875 15.3C23.2125 14.25 23.3625 13.125 23.3625 12C23.325 5.73745 18.2625 0.637451 12 0.637451ZM15.4875 16.5C14.7375 16.4625 14.025 16.1625 13.5 15.9C12.3375 15.3375 11.2875 14.5875 10.3875 13.6875C10.1625 13.4625 9.90001 13.2 9.67501 12.9C8.77501 11.85 8.21251 10.8375 7.80001 9.78745C7.65001 9.33745 7.46251 8.77495 7.50001 8.17495C7.53751 7.91245 7.65001 7.64995 7.83751 7.46245C8.47501 6.82495 8.66251 6.63745 8.73751 6.56245C8.96251 6.33745 9.15001 6.33745 9.37501 6.56245C9.48751 6.67495 10.8 7.98745 10.8 7.98745C10.875 8.06245 10.9875 8.17495 10.9875 8.32495C10.9875 8.43745 10.875 8.58745 10.8 8.66245L10.7625 8.69995C10.6125 8.84995 10.2 9.26245 10.0125 9.44995C9.75001 9.71245 9.67501 10.0875 9.82501 10.425C10.0125 10.875 10.6875 11.85 11.4375 12.6C12.2625 13.425 13.4625 14.1 13.4625 14.1C13.8 14.2875 14.2125 14.2125 14.475 13.95L15.3 13.125C15.6 12.825 15.7875 12.975 15.9 13.125L17.3625 14.5875C17.5875 14.8125 17.5875 15.0375 17.3625 15.2625C17.25 15.375 16.575 16.05 16.5375 16.0875C16.2375 16.3875 15.9 16.5375 15.4875 16.5Z" fill="#161A23"/>
</g>
<defs>
<clipPath id="clip0_501_44652">
<rect width="24" height="24" fill="white"/>
</clipPath>
</defs>
</svg>
