<svg width="24" height="24" viewBox="0 0 24 24" fill="none" xmlns="http://www.w3.org/2000/svg">
<path d="M10.6875 11.2125L2.10001 2.47505C1.76251 2.13755 1.23751 2.13755 0.900006 2.47505C0.562506 2.81255 0.562506 3.33755 0.900006 3.67505L8.88751 11.8125L0.900006 19.9125C0.562506 20.25 0.562506 20.775 0.900006 21.1125C1.08751 21.3 1.27501 21.375 1.50001 21.375C1.72501 21.375 1.95001 21.3 2.10001 21.1125L10.6875 12.375C10.9875 12.075 10.9875 11.55 10.6875 11.2125Z" fill="#161A23"/>
<path d="M22.5 20.0625H7.57501C7.12501 20.0625 6.71251 20.4375 6.71251 20.925C6.71251 21.4125 7.08751 21.7875 7.57501 21.7875H22.5C22.95 21.7875 23.3625 21.4125 23.3625 20.925C23.3625 20.4375 22.95 20.0625 22.5 20.0625Z" fill="#161A23"/>
</svg>
