<svg width="24" height="24" viewBox="0 0 24 24" fill="none" xmlns="http://www.w3.org/2000/svg">
<g clip-path="url(#clip0_914_45449)">
<path fill-rule="evenodd" clip-rule="evenodd" d="M23.1122 3.9063C19.2331 2.18918 15.4438 1.64333 12.1332 1.66904H12.1328C8.82206 1.64333 5.03213 2.18918 1.15373 3.9063C0.691588 3.05561 0.502441 2.53966 0.502441 2.53966C4.74233 0.835875 8.71328 0.252664 12.1328 0.238037C15.5524 0.252664 19.5235 0.835781 23.764 2.53966C23.764 2.53966 23.6307 2.95853 23.1122 3.9063ZM15.3888 5.17417L12.1345 23.7622L8.85401 5.17147C5.77298 5.17369 4.79576 5.51914 4.65364 6.92929C4.65364 6.92929 2.57199 6.1413 1.52341 4.54091C5.61829 2.61353 9.73331 2.52651 9.73331 2.52651L12.1319 5.49371L14.5302 2.52698C14.5302 2.52698 18.6452 2.6139 22.7406 4.54129C21.6911 6.14167 19.6103 6.92966 19.6103 6.92966C19.4691 5.51962 18.4907 5.17417 15.3888 5.17417Z" fill="#15171A"/>
</g>
<defs>
<clipPath id="clip0_914_45449">
<rect width="24" height="24" fill="white"/>
</clipPath>
</defs>
</svg>
