<svg width="24" height="24" viewBox="0 0 24 24" fill="none" xmlns="http://www.w3.org/2000/svg">
<path d="M22.9662 13.6246L19.3477 2.51077C19.1262 1.84616 18.5354 1.44 17.8708 1.44H6.12925C5.46464 1.44 4.83695 1.88308 4.65233 2.51077L1.03387 13.6246C0.81233 14.2892 1.03387 14.9908 1.58772 15.3969L11.0769 22.2646C11.3354 22.4492 11.6677 22.56 12 22.56C12.3323 22.56 12.6646 22.4492 12.9231 22.2646L22.3754 15.3969C22.9293 14.9908 23.1877 14.2892 22.9662 13.6246ZM12 20.8985L2.62156 14.1046L6.2031 3.10154H17.76L21.3416 14.1046L12 20.8985Z" fill="#161A23"/>
<path d="M12.8493 9.6369V7.75382H15.1016C15.5447 7.75382 15.9508 7.38459 15.9508 6.90459C15.9508 6.42459 15.5816 6.05536 15.1016 6.05536H8.8985C8.45542 6.05536 8.04927 6.42459 8.04927 6.90459C8.04927 7.38459 8.4185 7.75382 8.8985 7.75382H11.1508V9.6369C8.64004 9.74767 6.05542 10.4123 6.05542 11.9631C6.05542 13.5138 8.64004 14.1784 11.1508 14.2892V16.9107C11.1508 17.3538 11.52 17.76 12 17.76C12.4431 17.76 12.8493 17.3907 12.8493 16.9107V14.2892C15.36 14.1784 17.9446 13.5138 17.9446 11.9631C17.9446 10.4123 15.3231 9.74767 12.8493 9.6369ZM7.9385 11.9631C8.4185 11.7046 9.52619 11.3723 11.1877 11.2984V12.6277C9.52619 12.5169 8.4185 12.2215 7.9385 11.9631ZM12.8493 12.6277V11.2984C14.5108 11.3723 15.6185 11.7046 16.0985 11.9631C15.5816 12.2215 14.4739 12.5169 12.8493 12.6277Z" fill="#161A23"/>
</svg>
