<svg width="24" height="24" viewBox="0 0 24 24" fill="none" xmlns="http://www.w3.org/2000/svg">
<path d="M19.5375 0.674988H4.4625C3.15 0.674988 2.0625 1.76249 2.0625 3.07499V5.13749C2.0625 5.58749 2.4375 5.99999 2.925 5.99999C3.4125 5.99999 3.7875 5.62499 3.7875 5.13749V3.07499C3.7875 2.66249 4.125 2.36249 4.5 2.36249H9.1875V21.675H7.05C6.6 21.675 6.1875 22.05 6.1875 22.5375C6.1875 23.025 6.5625 23.4 7.05 23.4H17.0625C17.5125 23.4 17.925 23.025 17.925 22.5375C17.925 22.05 17.55 21.675 17.0625 21.675H14.925V2.36249H19.6125C20.025 2.36249 20.325 2.69999 20.325 3.07499V5.13749C20.325 5.58749 20.7 5.99999 21.1875 5.99999C21.675 5.99999 22.05 5.62499 22.05 5.13749V3.07499C21.9375 1.72499 20.85 0.674988 19.5375 0.674988ZM13.1625 21.675H10.8375V2.36249H13.1625V21.675Z" fill="#161A23"/>
</svg>
