<svg width="24" height="24" viewBox="0 0 24 24" fill="none" xmlns="http://www.w3.org/2000/svg">
<path d="M7.2375 3.33749H22.5C22.95 3.33749 23.3625 2.96249 23.3625 2.47499C23.3625 1.98749 22.9875 1.61249 22.5 1.61249H7.2375C6.7875 1.61249 6.375 1.98749 6.375 2.47499C6.375 2.96249 6.75 3.33749 7.2375 3.33749Z" fill="#161A23"/>
<path d="M22.5 7.98749H4.35005C3.90005 7.98749 3.48755 8.36249 3.48755 8.84999C3.48755 9.33749 3.86255 9.71249 4.35005 9.71249H22.5C22.95 9.71249 23.3625 9.33749 23.3625 8.84999C23.3625 8.36249 22.95 7.98749 22.5 7.98749Z" fill="#161A23"/>
<path d="M22.4999 14.325H10.0874C9.63735 14.325 9.22485 14.7 9.22485 15.1875C9.22485 15.675 9.59985 16.05 10.0874 16.05H22.4999C22.9499 16.05 23.3624 15.675 23.3624 15.1875C23.3624 14.7 22.9499 14.325 22.4999 14.325Z" fill="#161A23"/>
<path d="M22.4999 20.6625H1.49995C1.04995 20.6625 0.637451 21.0375 0.637451 21.525C0.637451 22.0125 1.01245 22.3875 1.49995 22.3875H22.4999C22.9499 22.3875 23.3624 22.0125 23.3624 21.525C23.3624 21.0375 22.9499 20.6625 22.4999 20.6625Z" fill="#161A23"/>
</svg>
