<svg width="24" height="24" viewBox="0 0 24 24" fill="none" xmlns="http://www.w3.org/2000/svg">
<g clip-path="url(#clip0_501_39802)">
<path d="M20.4375 0.674988H3.56245C1.94995 0.674988 0.637451 1.98749 0.637451 3.59999V4.49999C0.637451 4.94999 1.01245 5.36249 1.49995 5.36249C1.98745 5.36249 2.36245 4.98749 2.36245 4.49999V3.56249C2.36245 2.88749 2.92495 2.32499 3.59995 2.32499H11.175V21.6375H7.34995C6.89995 21.6375 6.48745 22.0125 6.48745 22.5C6.48745 22.9875 6.86245 23.3625 7.34995 23.3625H16.6125C17.0625 23.3625 17.475 22.9875 17.475 22.5C17.475 22.0125 17.1 21.6375 16.6125 21.6375H12.8625V2.36249H20.4375C21.1125 2.36249 21.6749 2.92499 21.6749 3.59999V4.49999C21.6749 4.94999 22.0499 5.36249 22.5375 5.36249C23.025 5.36249 23.4 4.98749 23.4 4.49999V3.56249C23.3625 1.94999 22.05 0.674988 20.4375 0.674988Z" fill="#161A23"/>
</g>
<defs>
<clipPath id="clip0_501_39802">
<rect width="24" height="24" fill="white"/>
</clipPath>
</defs>
</svg>
