<svg width="24" height="24" viewBox="0 0 24 24" fill="none" xmlns="http://www.w3.org/2000/svg">
<path d="M18.675 0.674988H5.325C4.05 0.674988 3 1.72499 3 2.99999V5.13749C3 5.58749 3.375 5.99999 3.8625 5.99999C4.35 5.99999 4.725 5.62499 4.725 5.13749V2.99999C4.725 2.62499 5.025 2.32499 5.4 2.32499H9.3375V16.0125H7.4625C7.0125 16.0125 6.6 16.3875 6.6 16.875C6.6 17.3625 6.975 17.7375 7.4625 17.7375H16.6875C17.1375 17.7375 17.55 17.3625 17.55 16.875C17.55 16.3875 17.175 16.0125 16.6875 16.0125H14.8125V2.36249H18.75C19.125 2.36249 19.425 2.66249 19.425 3.03749V5.17499C19.425 5.62499 19.8 6.03749 20.2875 6.03749C20.775 6.03749 21.15 5.66249 21.15 5.17499V2.99999C21 1.72499 19.95 0.674988 18.675 0.674988ZM13.05 16.0125H10.95V2.36249H13.05V16.0125Z" fill="#161A23"/>
<path d="M19.8 21.675H4.2C3.75 21.675 3.375 22.05 3.375 22.5C3.375 22.95 3.75 23.3625 4.2375 23.3625H19.8375C20.2875 23.3625 20.7 22.9875 20.7 22.5C20.7 22.0125 20.25 21.675 19.8 21.675Z" fill="#161A23"/>
</svg>
