<svg width="24" height="24" viewBox="0 0 24 24" fill="none" xmlns="http://www.w3.org/2000/svg">
<path d="M2.2875 17.25H4.275C4.6125 17.25 4.9875 16.9875 5.0625 16.725L6 14.3625H13.05L13.9125 16.725C13.9875 17.0625 14.3625 17.25 14.7 17.25H16.8375C17.5125 17.175 17.8875 16.575 17.625 16.0875L11.8875 2.43751C11.7375 2.10001 11.475 1.95001 11.1375 1.95001H8.1375C7.8375 1.95001 7.4625 2.10001 7.3875 2.43751L1.575 16.1625C1.35 16.6875 1.6875 17.25 2.2875 17.25ZM9.5625 6.15001L11.5875 11.5125H7.5L9.5625 6.15001Z" fill="#161A23"/>
<path d="M17.7374 21.1875H1.49995C1.04995 21.1875 0.637451 21.5625 0.637451 22.05C0.637451 22.5375 1.04995 22.875 1.49995 22.875H17.7374C18.1875 22.875 18.6 22.5 18.6 22.0125C18.6 21.525 18.1875 21.1875 17.7374 21.1875Z" fill="#161A23"/>
<path d="M22.5 1.125C22.05 1.125 21.6375 1.5 21.6375 1.9875V17.25C21.6375 17.7 22.0125 18.1125 22.5 18.1125C22.9875 18.1125 23.3625 17.7375 23.3625 17.25V1.9875C23.3625 1.5 22.95 1.125 22.5 1.125Z" fill="#161A23"/>
</svg>
