<svg width="24" height="24" viewBox="0 0 24 24" fill="none" xmlns="http://www.w3.org/2000/svg">
<path d="M1.49995 3.33749H16.7625C17.2125 3.33749 17.625 2.96249 17.625 2.47499C17.625 1.98749 17.25 1.61249 16.7625 1.61249H1.49995C1.04995 1.61249 0.637451 1.98749 0.637451 2.47499C0.637451 2.96249 1.04995 3.33749 1.49995 3.33749Z" fill="#161A23"/>
<path d="M1.49995 9.67501H19.65C20.1 9.67501 20.5125 9.30001 20.5125 8.81251C20.5125 8.32501 20.1375 7.95001 19.65 7.95001H1.49995C1.04995 7.95001 0.637451 8.32501 0.637451 8.81251C0.637451 9.30001 1.04995 9.67501 1.49995 9.67501Z" fill="#161A23"/>
<path d="M1.49995 16.0125H13.9125C14.3625 16.0125 14.775 15.6375 14.775 15.15C14.775 14.6625 14.4 14.2875 13.9125 14.2875H1.49995C1.04995 14.2875 0.637451 14.6625 0.637451 15.15C0.637451 15.6375 1.04995 16.0125 1.49995 16.0125Z" fill="#161A23"/>
<path d="M22.4999 20.6625H1.49995C1.04995 20.6625 0.637451 21.0375 0.637451 21.525C0.637451 22.0125 1.01245 22.3875 1.49995 22.3875H22.4999C22.9499 22.3875 23.3624 22.0125 23.3624 21.525C23.3624 21.0375 22.9499 20.6625 22.4999 20.6625Z" fill="#161A23"/>
</svg>
