<svg width="24" height="24" viewBox="0 0 24 24" fill="none" xmlns="http://www.w3.org/2000/svg">
<path d="M1.49995 3.33749H22.4999C22.9499 3.33749 23.3624 2.96249 23.3624 2.47499C23.3624 1.98749 22.9874 1.61249 22.4999 1.61249H1.49995C1.04995 1.61249 0.637451 1.98749 0.637451 2.47499C0.637451 2.96249 1.04995 3.33749 1.49995 3.33749Z" fill="#161A23"/>
<path d="M22.4999 7.98749H1.49995C1.04995 7.98749 0.637451 8.36249 0.637451 8.84999C0.637451 9.33749 1.01245 9.71249 1.49995 9.71249H22.4999C22.9499 9.71249 23.3624 9.33749 23.3624 8.84999C23.3624 8.36249 22.9499 7.98749 22.4999 7.98749Z" fill="#161A23"/>
<path d="M22.4999 14.325H1.49995C1.04995 14.325 0.637451 14.7 0.637451 15.1875C0.637451 15.675 1.01245 16.05 1.49995 16.05H22.4999C22.9499 16.05 23.3624 15.675 23.3624 15.1875C23.3624 14.7 22.9499 14.325 22.4999 14.325Z" fill="#161A23"/>
<path d="M15.9374 20.6625H1.49995C1.04995 20.6625 0.637451 21.0375 0.637451 21.525C0.637451 22.0125 1.01245 22.3875 1.49995 22.3875H15.9374C16.3874 22.3875 16.7999 22.0125 16.7999 21.525C16.7999 21.0375 16.3874 20.6625 15.9374 20.6625Z" fill="#161A23"/>
</svg>
