<svg width="24" height="24" viewBox="0 0 24 24" fill="none" xmlns="http://www.w3.org/2000/svg">
<path d="M16.1251 19.8375H2.4001C1.9501 19.8375 1.5376 20.2125 1.5376 20.7C1.5376 21.1875 1.9126 21.5625 2.4001 21.5625H16.1251C16.5751 21.5625 16.9876 21.1875 16.9876 20.7C16.9876 20.2125 16.5751 19.8375 16.1251 19.8375Z" fill="#161A23"/>
<path d="M22.2375 15.375L23.1 14.5125C23.4375 14.175 23.4375 13.65 23.1 13.3125C22.7625 12.975 22.2376 12.975 21.9001 13.3125L21.0375 14.175L20.175 13.3125C19.8375 12.975 19.3125 12.975 18.975 13.3125C18.6375 13.65 18.6375 14.175 18.975 14.5125L19.8376 15.375L18.975 16.2375C18.6375 16.575 18.6375 17.1 18.975 17.4375C19.125 17.5875 19.35 17.7 19.575 17.7C19.8 17.7 20.025 17.625 20.175 17.4375L21.0375 16.575L21.9001 17.4375C22.0501 17.5875 22.275 17.7 22.5 17.7C22.725 17.7 22.95 17.625 23.1 17.4375C23.4375 17.1 23.4375 16.575 23.1 16.2375L22.2375 15.375Z" fill="#161A23"/>
<path d="M11.4376 3.78749C11.3251 3.44999 11.0626 3.33749 10.7251 3.33749H7.83762C7.53762 3.33749 7.20012 3.44999 7.12512 3.78749L1.57512 16.875C1.35012 17.4 1.68762 17.925 2.25012 17.925H4.16262C4.50012 17.925 4.83762 17.6625 4.91262 17.4375L5.81262 15.1875H12.5626L13.3876 17.4375C13.4626 17.775 13.8376 17.925 14.1376 17.925H16.1626C16.8001 17.85 17.1751 17.2875 16.9126 16.8375L11.4376 3.78749ZM7.23762 12.45L9.18762 7.31249L11.1376 12.45H7.23762Z" fill="#161A23"/>
</svg>
