<svg width="24" height="24" viewBox="0 0 24 24" fill="none" xmlns="http://www.w3.org/2000/svg">
<path d="M4.35005 3.33749H19.6125C20.0625 3.33749 20.475 2.96249 20.475 2.47499C20.475 1.98749 20.1 1.61249 19.6125 1.61249H4.35005C3.90005 1.61249 3.48755 1.98749 3.48755 2.47499C3.48755 2.96249 3.90005 3.33749 4.35005 3.33749Z" fill="#161A23"/>
<path d="M2.925 9.67498H21.075C21.525 9.67498 21.9375 9.29998 21.9375 8.81248C21.9375 8.32498 21.5625 7.94998 21.075 7.94998H2.925C2.475 7.94998 2.0625 8.32498 2.0625 8.81248C2.0625 9.29998 2.475 9.67498 2.925 9.67498Z" fill="#161A23"/>
<path d="M5.81245 14.325C5.36245 14.325 4.94995 14.7 4.94995 15.1875C4.94995 15.675 5.32495 16.05 5.81245 16.05H18.225C18.675 16.05 19.0875 15.675 19.0875 15.1875C19.0875 14.7 18.7125 14.325 18.225 14.325H5.81245Z" fill="#161A23"/>
<path d="M22.4999 20.6625H1.49995C1.04995 20.6625 0.637451 21.0375 0.637451 21.525C0.637451 22.0125 1.01245 22.3875 1.49995 22.3875H22.4999C22.9499 22.3875 23.3624 22.0125 23.3624 21.525C23.3624 21.0375 22.9499 20.6625 22.4999 20.6625Z" fill="#161A23"/>
</svg>
