<svg width="24" height="24" viewBox="0 0 24 24" fill="none" xmlns="http://www.w3.org/2000/svg">
<g clip-path="url(#clip0_501_38719)">
<path d="M17.4751 11.8876H12.5626V6.33757C12.5626 5.88757 12.1876 5.51257 11.7376 5.51257C11.2876 5.51257 10.9126 5.88757 10.9126 6.33757V12.7501C10.9126 13.2001 11.2876 13.5751 11.7376 13.5751H17.4751C17.9251 13.5751 18.3001 13.2001 18.3001 12.7501C18.3001 12.3001 17.9626 11.8876 17.4751 11.8876Z" fill="#161A23"/>
<path d="M12 0.525024C5.73755 0.525024 0.675049 5.66252 0.675049 12C0.675049 18.3375 5.73755 23.475 12 23.475C18.2626 23.475 23.3251 18.3375 23.3251 12C23.3251 5.66252 18.2626 0.525024 12 0.525024ZM12 21.7875C6.67505 21.7875 2.32505 17.4 2.32505 12C2.32505 6.60002 6.67505 2.21252 12 2.21252C17.3251 2.21252 21.6751 6.60002 21.6751 12C21.6751 17.4 17.3251 21.7875 12 21.7875Z" fill="#161A23"/>
</g>
<defs>
<clipPath id="clip0_501_38719">
<rect width="24" height="24" fill="white"/>
</clipPath>
</defs>
</svg>
