<svg width="24" height="24" viewBox="0 0 24 24" fill="none" xmlns="http://www.w3.org/2000/svg">
<g clip-path="url(#clip0_501_38703)">
<path d="M14.1 0.712529C13.35 0.562529 12.5625 0.750029 12 1.23753C11.4 1.72503 11.0625 2.43753 11.0625 3.18753V11.0625H3.18753C2.43753 11.0625 1.72503 11.4 1.23753 12C0.750029 12.6 0.562529 13.35 0.712529 14.1C1.76253 19.5375 6.48753 23.325 11.925 23.325C12.3375 23.325 12.7875 23.2875 13.2 23.25C18.45 22.6875 22.6875 18.45 23.2875 13.2C23.9625 7.23753 20.025 1.83753 14.1 0.712529ZM21.6 13.05C21.1125 17.5125 17.475 21.1125 13.0125 21.6C7.91253 22.1625 3.33753 18.7875 2.36253 13.8C2.32503 13.5375 2.36253 13.275 2.55003 13.0875C2.62503 12.9375 2.85003 12.75 3.18753 12.75H11.925C12.375 12.75 12.75 12.375 12.75 11.8875V3.18753C12.75 2.85003 12.9375 2.62503 13.05 2.55003C13.2375 2.40003 13.5 2.32503 13.7625 2.36253C18.825 3.33753 22.1625 7.95003 21.6 13.05Z" fill="#161A23"/>
<path d="M11.9251 16.3125C11.4751 16.3125 11.1001 16.6875 11.1001 17.1375V18.9375C11.1001 19.3875 11.4751 19.7625 11.9251 19.7625C12.3751 19.7625 12.7501 19.3875 12.7501 18.9375V17.1375C12.7501 16.6875 12.3751 16.3125 11.9251 16.3125Z" fill="#161A23"/>
<path d="M7.575 15.0001L6.3 16.2751C5.9625 16.6126 5.9625 17.1376 6.3 17.4751C6.45 17.6251 6.675 17.7376 6.9 17.7376C7.125 17.7376 7.35 17.6626 7.5 17.4751L8.775 16.2001C9.1125 15.8626 9.1125 15.3376 8.775 15.0001C8.4375 14.6626 7.9125 14.6626 7.575 15.0001Z" fill="#161A23"/>
<path d="M15.6751 8.96255C15.9001 8.96255 16.1251 8.88755 16.2751 8.70005L17.5501 7.42505C17.8876 7.08755 17.8876 6.56255 17.5501 6.22505C17.2126 5.88755 16.6876 5.88755 16.3501 6.22505L15.0751 7.50005C14.7376 7.83755 14.7376 8.36255 15.0751 8.70005C15.2251 8.88755 15.4501 8.96255 15.6751 8.96255Z" fill="#161A23"/>
<path d="M16.3875 11.85C16.3875 12.3 16.7625 12.675 17.2125 12.675H19.0125C19.4625 12.675 19.8375 12.3 19.8375 11.85C19.8375 11.4 19.4625 11.025 19.0125 11.025H17.2125C16.7625 11.025 16.3875 11.4 16.3875 11.85Z" fill="#161A23"/>
<path d="M7.575 8.70005C7.725 8.85005 7.95 8.96255 8.175 8.96255C8.4 8.96255 8.625 8.88755 8.775 8.70005C9.1125 8.36255 9.1125 7.83755 8.775 7.50005L7.5 6.22505C7.1625 5.88755 6.6375 5.88755 6.3 6.22505C5.9625 6.56255 5.9625 7.08755 6.3 7.42505L7.575 8.70005Z" fill="#161A23"/>
<path d="M16.2751 15.0001C15.9376 14.6626 15.4126 14.6626 15.0751 15.0001C14.7376 15.3376 14.7376 15.8626 15.0751 16.2001L16.3501 17.4751C16.5001 17.6251 16.7251 17.7376 16.9501 17.7376C17.1751 17.7376 17.4001 17.6626 17.5501 17.4751C17.8876 17.1376 17.8876 16.6126 17.5501 16.2751L16.2751 15.0001Z" fill="#161A23"/>
</g>
<defs>
<clipPath id="clip0_501_38703">
<rect width="24" height="24" fill="white"/>
</clipPath>
</defs>
</svg>
