<svg width="24" height="24" viewBox="0 0 24 24" fill="none" xmlns="http://www.w3.org/2000/svg">
<g clip-path="url(#clip0_501_47807)">
<path d="M5.17499 0.300049H2.24999C1.16249 0.300049 0.299988 1.16255 0.299988 2.25005V5.17505C0.299988 6.26255 1.16249 7.12505 2.24999 7.12505H5.17499C6.26249 7.12505 7.16249 6.22505 7.16249 5.13755V2.25005C7.12499 1.16255 6.26249 0.300049 5.17499 0.300049ZM5.43749 5.17505C5.43749 5.32505 5.32499 5.47505 5.13749 5.47505H2.24999C2.09999 5.47505 1.94999 5.36255 1.94999 5.17505V2.25005C1.94999 2.10005 2.06249 1.95005 2.24999 1.95005H5.17499C5.32499 1.95005 5.47499 2.06255 5.47499 2.25005V5.17505H5.43749Z" fill="#161A23"/>
<path d="M13.4625 0.300049H10.5375C9.44999 0.300049 8.54999 1.20005 8.54999 2.28755V5.21255C8.54999 6.30005 9.44999 7.20005 10.5375 7.20005H13.4625C14.55 7.20005 15.45 6.30005 15.45 5.21255V2.25005C15.4125 1.16255 14.55 0.300049 13.4625 0.300049ZM13.725 5.17505C13.725 5.32505 13.6125 5.47505 13.425 5.47505H10.5C10.35 5.47505 10.2 5.36255 10.2 5.17505V2.25005C10.2 2.10005 10.3125 1.95005 10.5 1.95005H13.425C13.575 1.95005 13.725 2.06255 13.725 2.25005V5.17505Z" fill="#161A23"/>
<path d="M21.75 0.300049H18.825C17.7375 0.300049 16.875 1.16255 16.875 2.25005V5.17505C16.875 6.26255 17.775 7.16255 18.8625 7.16255H21.75C22.8375 7.16255 23.7375 6.26255 23.7375 5.17505V2.25005C23.7375 1.16255 22.8375 0.300049 21.75 0.300049ZM22.05 5.17505C22.05 5.32505 21.9375 5.47505 21.75 5.47505H18.825C18.675 5.47505 18.525 5.36255 18.525 5.17505V2.25005C18.525 2.10005 18.6375 1.95005 18.825 1.95005H21.75C21.9 1.95005 22.05 2.06255 22.05 2.25005V5.17505Z" fill="#161A23"/>
<path d="M5.17501 8.58765H2.25001C1.16251 8.58765 0.262512 9.48765 0.262512 10.5751V13.5001C0.262512 14.5876 1.16251 15.4876 2.25001 15.4876H5.17501C6.26251 15.4876 7.16251 14.5876 7.16251 13.5001V10.5751C7.12501 9.45015 6.26251 8.58765 5.17501 8.58765ZM5.43751 13.4626C5.43751 13.6126 5.32501 13.7626 5.13751 13.7626H2.25001C2.10001 13.7626 1.95001 13.6501 1.95001 13.4626V10.5376C1.95001 10.3876 2.06251 10.2376 2.25001 10.2376H5.17501C5.32501 10.2376 5.47501 10.3501 5.47501 10.5376V13.4626H5.43751Z" fill="#161A23"/>
<path d="M13.4625 8.58765H10.5375C9.44999 8.58765 8.54999 9.48765 8.54999 10.5751V13.5001C8.54999 14.5876 9.44999 15.4876 10.5375 15.4876H13.4625C14.55 15.4876 15.45 14.5876 15.45 13.5001V10.5751C15.4125 9.45015 14.55 8.58765 13.4625 8.58765ZM13.725 13.4626C13.725 13.6126 13.6125 13.7626 13.425 13.7626H10.5C10.35 13.7626 10.2 13.6501 10.2 13.4626V10.5376C10.2 10.3876 10.3125 10.2376 10.5 10.2376H13.425C13.575 10.2376 13.725 10.3501 13.725 10.5376V13.4626Z" fill="#161A23"/>
<path d="M21.75 8.58765H18.825C17.7375 8.58765 16.8375 9.48765 16.8375 10.5751V13.5001C16.8375 14.5876 17.7375 15.4876 18.825 15.4876H21.75C22.8375 15.4876 23.7375 14.5876 23.7375 13.5001V10.5751C23.7375 9.45015 22.8375 8.58765 21.75 8.58765ZM22.05 13.4626C22.05 13.6126 21.9375 13.7626 21.75 13.7626H18.825C18.675 13.7626 18.525 13.6501 18.525 13.4626V10.5376C18.525 10.3876 18.6375 10.2376 18.825 10.2376H21.75C21.9 10.2376 22.05 10.3501 22.05 10.5376V13.4626Z" fill="#161A23"/>
<path d="M5.17501 16.875H2.25001C1.16251 16.875 0.262512 17.775 0.262512 18.8625V21.75C0.262512 22.8375 1.16251 23.7375 2.25001 23.7375H5.17501C6.26251 23.7375 7.16251 22.8375 7.16251 21.75V18.825C7.12501 17.7375 6.26251 16.875 5.17501 16.875ZM5.43751 21.75C5.43751 21.9 5.32501 22.05 5.13751 22.05H2.25001C2.10001 22.05 1.95001 21.9375 1.95001 21.75V18.825C1.95001 18.675 2.06251 18.525 2.25001 18.525H5.17501C5.32501 18.525 5.47501 18.6375 5.47501 18.825V21.75H5.43751Z" fill="#161A23"/>
<path d="M13.4625 16.875H10.5375C9.44999 16.875 8.54999 17.775 8.54999 18.8625V21.75C8.54999 22.8375 9.44999 23.7375 10.5375 23.7375H13.4625C14.55 23.7375 15.45 22.8375 15.45 21.75V18.825C15.4125 17.7375 14.55 16.875 13.4625 16.875ZM13.725 21.75C13.725 21.9 13.6125 22.05 13.425 22.05H10.5C10.35 22.05 10.2 21.9375 10.2 21.75V18.825C10.2 18.675 10.3125 18.525 10.5 18.525H13.425C13.575 18.525 13.725 18.6375 13.725 18.825V21.75Z" fill="#161A23"/>
<path d="M21.75 16.875H18.825C17.7375 16.875 16.8375 17.775 16.8375 18.8625V21.75C16.8375 22.8375 17.7375 23.7375 18.825 23.7375H21.75C22.8375 23.7375 23.7375 22.8375 23.7375 21.75V18.825C23.7375 17.7375 22.8375 16.875 21.75 16.875ZM22.05 21.75C22.05 21.9 21.9375 22.05 21.75 22.05H18.825C18.675 22.05 18.525 21.9375 18.525 21.75V18.825C18.525 18.675 18.6375 18.525 18.825 18.525H21.75C21.9 18.525 22.05 18.6375 22.05 18.825V21.75Z" fill="#161A23"/>
</g>
<defs>
<clipPath id="clip0_501_47807">
<rect width="24" height="24" fill="white"/>
</clipPath>
</defs>
</svg>
