<svg width="24" height="24" viewBox="0 0 24 24" fill="none" xmlns="http://www.w3.org/2000/svg">
<path d="M20.0625 3.03749C18.375 1.91249 15.975 1.27499 13.425 1.27499C12.975 1.27499 12.6 1.27499 12.1125 1.31249C9.07499 1.57499 7.04999 2.06249 6.03749 2.73749C6.03749 2.73749 5.99999 2.73749 5.99999 2.77499L5.81249 2.88749H2.47499C1.46249 2.88749 0.674988 3.71249 0.674988 4.68749V13.275C0.674988 14.25 1.49999 15.075 2.47499 15.075H6.93749C6.97499 15.075 7.01249 15.1125 7.01249 15.1125C7.79999 15.9 9.82499 18.15 11.9625 21.4875C12.45 22.275 13.2375 22.725 14.175 22.725C14.25 22.725 14.325 22.725 14.4 22.725C15.375 22.65 16.2 22.125 16.6125 21.3C17.1375 20.325 16.725 17.475 16.5 16.0875C18.4875 16.125 21.75 16.2 22.725 14.0625C24.1125 10.8 23.2125 5.09999 20.0625 3.03749ZM2.36249 13.3125V4.72499C2.36249 4.64999 2.43749 4.61249 2.47499 4.61249H4.49999V13.425H2.43749C2.39999 13.425 2.36249 13.35 2.36249 13.3125ZM21.15 13.35C20.625 14.5125 17.925 14.4375 16.4625 14.4H15.4125C15.15 14.4 14.925 14.5125 14.7375 14.7C14.5875 14.8875 14.5125 15.15 14.5875 15.4125L14.7 15.9375C15.225 18.7125 15.15 20.25 15.0375 20.5125C14.85 20.8875 14.475 21 14.2125 21.0375C13.8375 21.075 13.575 20.925 13.35 20.5875C11.1375 17.1375 8.99999 14.8125 8.17499 13.95C7.83749 13.6125 7.38749 13.3875 6.86249 13.3875H6.11249V4.57499C6.26249 4.57499 6.41249 4.49999 6.52499 4.42499L6.89999 4.16249C7.27499 3.93749 8.51249 3.33749 12.225 2.99999C12.6 2.96249 12.9375 2.96249 13.35 2.96249C15.5625 2.96249 17.6625 3.48749 19.0875 4.42499C21.525 5.99999 22.275 10.8 21.15 13.35Z" fill="#161A23"/>
</svg>
