<svg width="24" height="24" viewBox="0 0 24 24" fill="none" xmlns="http://www.w3.org/2000/svg">
<path d="M22.6875 9.97498C21.7125 7.79998 18.4125 7.87498 16.4625 7.94998C16.6875 6.59998 17.1 3.71248 16.575 2.73748C16.1625 1.87498 15.3375 1.34998 14.3625 1.27498C13.3875 1.19998 12.4875 1.64998 11.9625 2.51248C9.82501 5.84998 7.76251 8.06248 7.01251 8.88748C7.01251 8.88748 6.97501 8.92498 6.93751 8.92498H2.43751C1.46251 8.92498 0.637512 9.74998 0.637512 10.725V19.3125C0.637512 20.325 1.46251 21.1125 2.43751 21.1125H5.77501L5.96251 21.225C5.96251 21.225 6.00001 21.225 6.00001 21.2625C7.01251 21.9375 9.07501 22.425 12.075 22.6875C12.5625 22.725 12.9375 22.725 13.3875 22.725C15.9375 22.725 18.375 22.0875 20.025 20.9625C23.2125 18.9 24.1125 13.2 22.6875 9.97498ZM2.36251 19.275V10.6875C2.36251 10.6125 2.40001 10.575 2.47501 10.575H4.50001V19.3875H2.47501C2.40001 19.425 2.36251 19.35 2.36251 19.275ZM19.125 19.575C17.7 20.5125 15.6375 21.0375 13.3875 21.0375C12.975 21.0375 12.6375 21.0375 12.2625 21C8.58751 20.6625 7.35001 20.1 6.97501 19.8375L6.60001 19.575C6.48751 19.5 6.33751 19.425 6.18751 19.425V10.575H6.93751C7.42501 10.575 7.91251 10.3875 8.25001 10.0125C9.07501 9.18748 11.2125 6.86248 13.425 3.37498C13.575 3.07498 13.875 2.92498 14.25 2.96248C14.5125 2.99998 14.8875 3.07498 15.075 3.48748C15.1875 3.74998 15.2625 5.28748 14.7375 8.02498L14.5875 8.58748C14.5125 8.84998 14.5875 9.11248 14.7375 9.29998C14.8875 9.48748 15.15 9.59998 15.4125 9.59998H16.4625C17.925 9.56248 20.625 9.48748 21.1125 10.65C22.275 13.2 21.525 18 19.125 19.575Z" fill="#161A23"/>
</svg>
