<svg width="24" height="24" viewBox="0 0 24 24" fill="none" xmlns="http://www.w3.org/2000/svg">
<path d="M3.89999 2.4H2.77499C1.61249 2.4 0.674988 3.3375 0.674988 4.5V12.825C0.674988 13.9875 1.61249 14.925 2.77499 14.925H3.89999C5.06249 14.925 5.99999 13.9875 5.99999 12.825V4.5C5.96249 3.3375 5.02499 2.4 3.89999 2.4ZM4.27499 12.825C4.27499 13.05 4.08749 13.2375 3.86249 13.2375H2.73749C2.51249 13.2375 2.32499 13.05 2.32499 12.825V4.5C2.32499 4.275 2.51249 4.0875 2.73749 4.0875H3.86249C4.08749 4.0875 4.27499 4.275 4.27499 4.5V12.825Z" fill="#161A23"/>
<path d="M23.2875 11.7375C23.1375 10.875 22.2375 8.475 20.55 4.4625C20.325 3.9375 19.9875 3.1125 19.2 2.7C18.6375 2.4 18.0375 2.4 17.5875 2.4H10.425C9.74996 2.4 8.62496 2.4 7.83746 3.1875C7.08746 3.9375 7.08746 5.0625 7.08746 5.7V13.6125C7.08746 14.1 7.08746 14.5875 7.31246 15.1125C7.46246 15.525 8.17496 16.275 11.7 19.725C12.075 20.1 12.375 20.3625 12.5625 20.55C12.9 20.8875 13.3875 21.375 14.0625 21.525C14.2125 21.5625 14.4 21.6 14.55 21.6C15.4875 21.6 16.35 20.9625 16.6125 20.0625C16.8 19.4625 16.65 18.8625 16.575 18.4125L16.0125 15.825L19.9875 15.8625C20.5125 15.8625 21.1875 15.8625 21.825 15.5625C22.5 15.225 23.025 14.5875 23.25 13.7625C23.2875 13.6125 23.325 13.4625 23.3625 13.3125C23.3625 12.825 23.3625 12.3375 23.2875 11.7375ZM21.6375 13.05C21.6375 13.125 21.6 13.2 21.6 13.275C21.4875 13.6125 21.3 13.9125 21.0375 14.025C20.775 14.175 20.325 14.175 19.95 14.1375L14.8875 14.1C14.625 14.1 14.4 14.2125 14.25 14.4C14.1 14.5875 14.025 14.85 14.1 15.1125L14.8875 18.7125C14.9625 19.0125 15.0375 19.35 14.9625 19.5375C14.925 19.725 14.625 19.9125 14.4375 19.8375C14.2125 19.7625 13.9125 19.5 13.725 19.275C13.5375 19.0875 13.2375 18.7875 12.8625 18.4125C11.775 17.3625 9.26246 14.8875 8.84996 14.3625C8.77496 14.1375 8.77496 13.875 8.77496 13.5375V5.625C8.77496 5.1 8.81246 4.5375 9.03746 4.275C9.29996 4.0125 9.86246 4.0125 10.425 4.0125H17.5875C17.8875 4.0125 18.225 4.0125 18.4125 4.125C18.6375 4.2375 18.825 4.65 19.0125 5.0625C21.225 10.275 21.6 11.5875 21.6375 11.925C21.675 12.4125 21.675 12.75 21.6375 13.05Z" fill="#161A23"/>
</svg>
