<svg width="24" height="24" viewBox="0 0 24 24" fill="none" xmlns="http://www.w3.org/2000/svg">
<path d="M23.2875 10.6875C23.25 10.5375 23.25 10.3875 23.175 10.2375C22.95 9.45 22.425 8.775 21.75 8.4375C21.1125 8.1375 20.4375 8.1375 19.9125 8.1375L15.9375 8.175L16.5 5.5875C16.6125 5.1375 16.725 4.5375 16.5375 3.9375C16.2375 2.85 15.075 2.175 13.9875 2.4375C13.3125 2.625 12.825 3.075 12.4875 3.4125C12.3 3.6 12 3.9 11.625 4.2375C8.10001 7.6875 7.42501 8.4375 7.23751 8.85C7.05001 9.3375 7.01251 9.825 7.01251 10.35V18.2625C7.01251 18.9 7.01251 20.025 7.76251 20.775C8.51251 21.525 9.60001 21.5625 10.275 21.5625C10.3125 21.5625 10.3125 21.5625 10.35 21.5625H17.5125C17.9625 21.5625 18.5625 21.5625 19.125 21.2625C19.9125 20.85 20.25 20.025 20.475 19.5C23.025 13.5375 23.175 12.5625 23.2125 12.225C23.3625 11.6625 23.3625 11.175 23.2875 10.6875ZM21.6 12C21.5625 12.3375 21.1875 13.65 18.975 18.8625C18.7875 19.275 18.6 19.6875 18.375 19.8C18.1875 19.9125 17.85 19.9125 17.55 19.9125H10.3875C9.86251 19.9125 9.26251 19.875 9.00001 19.65C8.77501 19.3875 8.73751 18.8625 8.73751 18.3375V10.425C8.73751 10.0875 8.73751 9.825 8.81251 9.6C9.18751 9.075 11.7 6.6 12.825 5.55C13.2 5.175 13.5 4.875 13.6875 4.6875C13.9125 4.4625 14.175 4.2 14.4 4.125C14.5875 4.0875 14.8875 4.2375 14.925 4.425C15 4.65 14.925 4.95 14.85 5.25L14.0625 8.85C14.025 9.1125 14.0625 9.375 14.25 9.5625C14.4 9.75 14.6625 9.8625 14.925 9.8625L19.9875 9.825C20.4 9.825 20.775 9.825 21.075 9.975C21.3375 10.0875 21.525 10.3875 21.6375 10.725C21.675 10.8 21.675 10.875 21.675 10.95C21.675 11.25 21.675 11.5875 21.6 12Z" fill="#161A23"/>
<path d="M3.89999 9.075H2.77499C1.61249 9.075 0.674988 10.0125 0.674988 11.175V19.5C0.674988 20.6625 1.61249 21.6 2.77499 21.6H3.89999C5.06249 21.6 5.99999 20.6625 5.99999 19.5V11.175C5.96249 10.0125 5.02499 9.075 3.89999 9.075ZM4.27499 19.5C4.27499 19.725 4.08749 19.9125 3.86249 19.9125H2.73749C2.51249 19.9125 2.32499 19.725 2.32499 19.5V11.175C2.32499 10.95 2.51249 10.7625 2.73749 10.7625H3.86249C4.08749 10.7625 4.27499 10.95 4.27499 11.175V19.5Z" fill="#161A23"/>
</svg>
