<svg width="24" height="24" viewBox="0 0 24 24" fill="none" xmlns="http://www.w3.org/2000/svg">
<path d="M9.525 23.3625C9.375 23.3625 9.225 23.325 9.0375 23.2875C8.475 23.0625 8.175 22.5375 8.25 21.9375L9.15 14.325L6.3375 14.8875C5.8125 15 5.2875 14.775 5.025 14.325C4.725 13.875 4.7625 13.3125 5.0625 12.9L13.4625 1.2C13.8 0.7125 14.4375 0.5625 14.9625 0.75C15.525 0.975 15.825 1.5 15.75 2.1L14.6625 9.975L17.5875 9.2625C18.1125 9.1125 18.6375 9.3375 18.9375 9.7875C19.2375 10.2375 19.2375 10.8 18.9 11.25L10.5375 22.8C10.3125 23.175 9.9 23.3625 9.525 23.3625ZM9.6375 12.525C9.975 12.525 10.275 12.6375 10.5 12.8625C10.8 13.125 10.95 13.5375 10.9125 13.95L10.125 20.55L16.9125 11.175L14.5125 11.775C14.1 11.8875 13.65 11.775 13.35 11.475C13.05 11.175 12.9 10.7625 12.9375 10.35L13.875 3.525L7.0125 13.0125L9.375 12.5625C9.45 12.525 9.5625 12.525 9.6375 12.525Z" fill="#161A23"/>
</svg>
