<svg width="24" height="24" viewBox="0 0 24 24" fill="none" xmlns="http://www.w3.org/2000/svg">
<path d="M22.35 9.89999C22.9125 9.86249 23.3625 9.41249 23.3625 8.81249V6.74999C23.3625 5.47499 22.35 4.46249 21.075 4.46249H2.96249C1.68749 4.46249 0.674988 5.47499 0.674988 6.74999V8.84999C0.674988 9.41249 1.12499 9.89999 1.68749 9.93749C2.73749 10.05 3.52499 10.95 3.52499 12.0375C3.52499 13.125 2.73749 14.025 1.68749 14.1C1.12499 14.1375 0.674988 14.625 0.674988 15.1875V17.25C0.674988 18.525 1.68749 19.5375 2.96249 19.5375H21.075C22.35 19.5375 23.3625 18.525 23.3625 17.25V15.1875C23.3625 14.625 22.9125 14.1375 22.35 14.1C21.3 13.9875 20.5125 13.0875 20.5125 12C20.5125 10.875 21.3 9.97499 22.35 9.89999ZM21.675 15.675V17.25C21.675 17.5875 21.4125 17.85 21.075 17.85H11.8875V15.825C11.8875 15.375 11.5125 14.9625 11.025 14.9625C10.5375 14.9625 10.1625 15.3375 10.1625 15.825V17.85H2.96249C2.62499 17.85 2.36249 17.5875 2.36249 17.25V15.75C4.01249 15.375 5.21249 13.875 5.21249 12.075C5.21249 10.3125 4.01249 8.77499 2.36249 8.36249V6.74999C2.36249 6.41249 2.62499 6.14999 2.96249 6.14999H10.2V8.17499C10.2 8.62499 10.575 9.03749 11.0625 9.03749C11.55 9.03749 11.925 8.66249 11.925 8.17499V6.14999H21.075C21.4125 6.14999 21.675 6.41249 21.675 6.74999V8.28749C20.025 8.69999 18.825 10.2 18.825 12C18.825 13.7625 20.025 15.2625 21.675 15.675Z" fill="#161A23"/>
<path d="M11.0625 10.2C10.6125 10.2 10.2 10.575 10.2 11.0625V12.975C10.2 13.425 10.575 13.8375 11.0625 13.8375C11.55 13.8375 11.925 13.4625 11.925 12.975V11.0625C11.8875 10.575 11.5125 10.2 11.0625 10.2Z" fill="#161A23"/>
</svg>
