<svg width="24" height="24" viewBox="0 0 24 24" fill="none" xmlns="http://www.w3.org/2000/svg">
<path d="M19.125 2.62499L17.625 1.12499C17.325 0.824988 16.95 0.674988 16.5375 0.674988C16.125 0.674988 15.7125 0.824988 15.4125 1.12499L15 1.53749L14.5875 1.12499C14.2875 0.824988 13.9125 0.674988 13.5 0.674988C13.0875 0.674988 12.675 0.824988 12.4125 1.12499L12 1.53749L11.5875 1.12499C11.2875 0.824988 10.9125 0.674988 10.5 0.674988C10.0875 0.674988 9.67502 0.824988 9.41252 1.12499L9.00002 1.53749L8.58752 1.12499C8.28752 0.824988 7.91252 0.674988 7.50002 0.674988C7.08752 0.674988 6.67502 0.824988 6.41252 1.12499L4.91252 2.62499C4.61252 2.92499 4.46252 3.29999 4.46252 3.71249V20.25C4.46252 20.6625 4.61252 21.0375 4.91252 21.3375L6.41252 22.8375C6.71252 23.1375 7.08752 23.2875 7.50002 23.2875C7.91252 23.2875 8.28752 23.1375 8.58752 22.8375L9.00002 22.425L9.41252 22.8375C9.71252 23.1375 10.0875 23.2875 10.5 23.2875C10.9125 23.2875 11.325 23.1375 11.5875 22.8375L12 22.425L12.4125 22.8375C12.7125 23.1375 13.0875 23.2875 13.5 23.2875C13.9125 23.2875 14.2875 23.1375 14.5875 22.8375L15 22.425L15.4125 22.8375C15.7125 23.1375 16.0875 23.2875 16.5 23.2875C16.9125 23.2875 17.2875 23.1375 17.5875 22.8375L19.0875 21.3375C19.3875 21.0375 19.5375 20.6625 19.5375 20.25V3.71249C19.575 3.29999 19.3875 2.92499 19.125 2.62499ZM17.8875 20.2125L16.5 21.6L15.6 20.7C15.3 20.3625 14.7 20.3625 14.4 20.7L13.5 21.6L12.6 20.7C12.3 20.3625 11.7 20.3625 11.4 20.7L10.5 21.6L9.60002 20.7C9.45002 20.55 9.22502 20.4375 9.00002 20.4375C8.77502 20.4375 8.55002 20.5125 8.40002 20.7L7.50002 21.6L6.15002 20.2125V3.78749L7.50002 2.39999L8.40002 3.29999C8.70002 3.63749 9.30002 3.63749 9.60002 3.29999L10.5 2.39999L11.4 3.29999C11.7 3.63749 12.3 3.63749 12.6 3.29999L13.5 2.39999L14.4 3.29999C14.7 3.63749 15.3 3.63749 15.6 3.29999L16.5 2.39999L17.85 3.78749V20.2125H17.8875Z" fill="#161A23"/>
<path d="M9.75001 9.44998H14.25C14.7 9.44998 15.1125 9.07498 15.1125 8.58748C15.1125 8.09998 14.7375 7.72498 14.25 7.72498H9.75001C9.30001 7.72498 8.88751 8.09998 8.88751 8.58748C8.88751 9.07498 9.30001 9.44998 9.75001 9.44998Z" fill="#161A23"/>
<path d="M15.45 11.175H8.55C8.1 11.175 7.6875 11.55 7.6875 12.0375C7.6875 12.4875 8.0625 12.9 8.55 12.9H15.4125C15.8625 12.9 16.275 12.525 16.275 12.0375C16.275 11.55 15.9 11.175 15.45 11.175Z" fill="#161A23"/>
<path d="M14.25 14.55H9.75001C9.30001 14.55 8.88751 14.925 8.88751 15.4125C8.88751 15.9 9.26251 16.275 9.75001 16.275H14.25C14.7 16.275 15.1125 15.9 15.1125 15.4125C15.1125 14.925 14.7 14.55 14.25 14.55Z" fill="#161A23"/>
</svg>
