<svg width="24" height="24" viewBox="0 0 24 24" fill="none" xmlns="http://www.w3.org/2000/svg">
<path d="M21 5.0625H3.00001C1.72501 5.0625 0.637512 6.1125 0.637512 7.425V16.575C0.637512 17.85 1.68751 18.9375 3.00001 18.9375H21C22.275 18.9375 23.3625 17.8875 23.3625 16.575V7.425C23.3625 6.1125 22.275 5.0625 21 5.0625ZM21.675 16.575C21.675 16.95 21.375 17.25 21 17.25H18.7125V16.95C18.7125 16.5 18.3375 16.0875 17.85 16.0875C17.3625 16.0875 16.9875 16.4625 16.9875 16.95V17.25H3.00001C2.62501 17.25 2.32501 16.95 2.32501 16.575V7.425C2.36251 7.05 2.62501 6.75 3.00001 6.75H17.025V7.3875C17.025 7.8375 17.4 8.25 17.8875 8.25C18.375 8.25 18.75 7.875 18.75 7.3875V6.75H21C21.375 6.75 21.675 7.05 21.675 7.425V16.575Z" fill="#161A23"/>
<path d="M17.8875 12.3C17.4375 12.3 17.025 12.675 17.025 13.1625V15.075C17.025 15.525 17.4 15.9375 17.8875 15.9375C18.375 15.9375 18.75 15.5625 18.75 15.075V13.125C18.7125 12.675 18.3375 12.3 17.8875 12.3Z" fill="#161A23"/>
<path d="M17.8875 8.47501C17.4375 8.47501 17.025 8.85001 17.025 9.33751V11.25C17.025 11.7 17.4 12.1125 17.8875 12.1125C18.375 12.1125 18.75 11.7375 18.75 11.25V9.33751C18.7125 8.85001 18.3375 8.47501 17.8875 8.47501Z" fill="#161A23"/>
<path d="M8.43752 10.8375H7.31252C7.20002 10.8375 7.05002 10.6875 7.05002 10.4625C7.05002 10.2375 7.20002 10.0875 7.31252 10.0875H9.11252C9.56252 10.0875 9.97502 9.71251 9.97502 9.22501C9.97502 8.73751 9.60002 8.36251 9.11252 8.36251H8.70002C8.58752 8.02501 8.28752 7.76251 7.87502 7.76251C7.50002 7.76251 7.16252 8.02501 7.05002 8.40001C6.11252 8.51251 5.36252 9.41251 5.36252 10.425C5.36252 11.55 6.22502 12.4875 7.31252 12.4875H8.43752C8.55002 12.4875 8.70002 12.6375 8.70002 12.8625C8.70002 13.0875 8.55002 13.2375 8.43752 13.2375H6.67502C6.22502 13.2375 5.81252 13.6125 5.81252 14.1C5.81252 14.5875 6.18752 14.9625 6.67502 14.9625H7.08752C7.20002 15.3 7.50002 15.5625 7.91252 15.5625C8.28752 15.5625 8.62502 15.3 8.73752 14.925C9.67502 14.775 10.425 13.9125 10.425 12.9C10.35 11.775 9.48752 10.8375 8.43752 10.8375Z" fill="#161A23"/>
</svg>
