<svg width="24" height="24" viewBox="0 0 24 24" fill="none" xmlns="http://www.w3.org/2000/svg">
<path d="M17.55 0.674988H6.45001C4.80001 0.674988 3.45001 2.02499 3.45001 3.67499V22.05C3.45001 22.5375 3.78751 22.9875 4.27501 23.1C4.76251 23.25 5.25001 23.025 5.51251 22.6125L6.82501 20.4375L8.51251 22.875C8.70001 23.175 9.07501 23.3625 9.41251 23.3625C9.78751 23.3625 10.125 23.175 10.3125 22.875L12.0375 20.3625L13.7625 22.875C13.95 23.175 14.325 23.3625 14.6625 23.3625C15 23.3625 15.375 23.175 15.5625 22.875L17.2125 20.4375L18.525 22.65C18.7875 23.0625 19.275 23.2875 19.7625 23.1375C20.25 22.9875 20.5875 22.575 20.5875 22.0875V3.67499C20.55 2.02499 19.2 0.674988 17.55 0.674988ZM18.8625 19.95L18.15 18.75C17.9625 18.4125 17.625 18.225 17.25 18.225C16.875 18.225 16.5375 18.4125 16.3125 18.7125L14.625 21.1875L12.9 18.675C12.7125 18.375 12.375 18.1875 12 18.1875C11.625 18.1875 11.2875 18.375 11.1 18.675L9.37501 21.1875L7.68751 18.675C7.46251 18.375 7.12501 18.1875 6.78751 18.1875H6.75001C6.37501 18.1875 6.03751 18.4125 5.85001 18.7125L5.17501 19.875V3.67499C5.17501 2.92499 5.77501 2.36249 6.48751 2.36249H17.55C18.3 2.36249 18.8625 2.96249 18.8625 3.67499V19.95Z" fill="#161A23"/>
<path d="M15.8625 7.38748H8.13752C7.68752 7.38748 7.27502 7.76248 7.27502 8.24998C7.27502 8.73748 7.65002 9.11248 8.13752 9.11248H15.8625C16.3125 9.11248 16.725 8.73748 16.725 8.24998C16.725 7.76248 16.3125 7.38748 15.8625 7.38748Z" fill="#161A23"/>
<path d="M15.8625 11.25H8.13752C7.68752 11.25 7.27502 11.625 7.27502 12.1125C7.27502 12.5625 7.65002 12.975 8.13752 12.975H15.8625C16.3125 12.975 16.725 12.6 16.725 12.1125C16.6875 11.625 16.3125 11.25 15.8625 11.25Z" fill="#161A23"/>
</svg>
