<svg width="24" height="24" viewBox="0 0 24 24" fill="none" xmlns="http://www.w3.org/2000/svg">
<path d="M19.125 2.62499L17.625 1.12499C17.325 0.824988 16.95 0.674988 16.5375 0.674988C16.125 0.674988 15.7125 0.824988 15.4125 1.12499L15 1.53749L14.5875 1.12499C14.2875 0.824988 13.9125 0.674988 13.5 0.674988C13.0875 0.674988 12.675 0.824988 12.4125 1.12499L12 1.53749L11.5875 1.12499C11.2875 0.824988 10.9125 0.674988 10.5 0.674988C10.0875 0.674988 9.67502 0.824988 9.41252 1.12499L9.00002 1.53749L8.58752 1.12499C8.28752 0.824988 7.91252 0.674988 7.50002 0.674988C7.08752 0.674988 6.67502 0.824988 6.41252 1.12499L4.91252 2.62499C4.61252 2.92499 4.46252 3.29999 4.46252 3.71249V20.25C4.46252 20.6625 4.61252 21.0375 4.91252 21.3375L6.41252 22.8375C6.71252 23.1375 7.08752 23.2875 7.50002 23.2875C7.91252 23.2875 8.28752 23.1375 8.58752 22.8375L9.00002 22.425L9.41252 22.8375C9.71252 23.1375 10.0875 23.2875 10.5 23.2875C10.9125 23.2875 11.325 23.1375 11.5875 22.8375L12 22.425L12.4125 22.8375C12.7125 23.1375 13.0875 23.2875 13.5 23.2875C13.9125 23.2875 14.2875 23.1375 14.5875 22.8375L15 22.425L15.4125 22.8375C15.7125 23.1375 16.0875 23.2875 16.5 23.2875C16.9125 23.2875 17.2875 23.1375 17.5875 22.8375L19.0875 21.3375C19.3875 21.0375 19.5375 20.6625 19.5375 20.25V3.71249C19.575 3.29999 19.3875 2.92499 19.125 2.62499ZM17.8875 20.2125L16.5 21.6L15.6 20.7C15.3 20.3625 14.7 20.3625 14.4 20.7L13.5 21.6L12.6 20.7C12.3 20.3625 11.7 20.3625 11.4 20.7L10.5 21.6L9.60002 20.7C9.45002 20.55 9.22502 20.4375 9.00002 20.4375C8.77502 20.4375 8.55002 20.5125 8.40002 20.7L7.50002 21.6L6.15002 20.2125V3.78749L7.50002 2.39999L8.40002 3.29999C8.70002 3.63749 9.30002 3.63749 9.60002 3.29999L10.5 2.39999L11.4 3.29999C11.7 3.63749 12.3 3.63749 12.6 3.29999L13.5 2.39999L14.4 3.29999C14.7 3.63749 15.3 3.63749 15.6 3.29999L16.5 2.39999L17.85 3.78749V20.2125H17.8875Z" fill="#161A23"/>
<path d="M14.9625 14.2125H9.03755C8.58755 14.2125 8.17505 14.5875 8.17505 15.075C8.17505 15.5625 8.55005 15.9375 9.03755 15.9375H14.9625C15.4125 15.9375 15.825 15.5625 15.825 15.075C15.825 14.5875 15.4125 14.2125 14.9625 14.2125Z" fill="#161A23"/>
<path d="M13.7625 16.95H10.2375C9.7875 16.95 9.375 17.325 9.375 17.8125C9.375 18.3 9.75 18.675 10.2375 18.675H13.7625C14.2125 18.675 14.625 18.3 14.625 17.8125C14.625 17.325 14.25 16.95 13.7625 16.95Z" fill="#161A23"/>
<path d="M11.475 9.4875H12.5625C12.675 9.4875 12.7875 9.6375 12.7875 9.825C12.7875 10.0125 12.6375 10.125 12.525 10.125H10.8375C10.3875 10.125 9.97502 10.5 9.97502 10.9875C9.97502 11.475 10.35 11.85 10.8375 11.85H11.2125C11.325 12.1875 11.625 12.45 12 12.45C12.375 12.45 12.7125 12.1875 12.825 11.85C13.725 11.7 14.4375 10.875 14.4375 9.8625C14.4375 8.7375 13.575 7.8375 12.525 7.8375H11.4375C11.325 7.8375 11.2125 7.6875 11.2125 7.5C11.2125 7.3125 11.325 7.1625 11.4375 7.1625H13.1625C13.6125 7.1625 14.025 6.7875 14.025 6.3C14.025 5.8125 13.65 5.4375 13.1625 5.4375H12.7875C12.7125 5.1 12.375 4.875 12 4.875C11.625 4.875 11.2875 5.1375 11.175 5.475C10.2375 5.625 9.52502 6.45 9.52502 7.4625C9.56252 8.5875 10.425 9.4875 11.475 9.4875Z" fill="#161A23"/>
</svg>
