<svg width="24" height="24" viewBox="0 0 24 24" fill="none" xmlns="http://www.w3.org/2000/svg">
<path d="M14.5125 4.57505L15.3375 2.10005C15.4875 1.68755 15.4125 1.20005 15.15 0.862549C14.8875 0.487549 14.475 0.300049 14.025 0.300049H9.97498C9.52498 0.300049 9.11248 0.525049 8.84998 0.862549C8.58748 1.23755 8.51248 1.68755 8.66248 2.10005L9.48748 4.57505L7.64998 20.2875C7.61248 20.5875 7.72498 20.8876 7.98748 21.0751L11.175 23.4376C11.4375 23.6251 11.7 23.7001 12 23.7001C12.3 23.7001 12.5625 23.6251 12.825 23.4376L16.0125 21.0751C16.2375 20.8876 16.3875 20.5875 16.35 20.2875L14.5125 4.57505ZM13.6125 1.98755L13.05 3.67505H10.95L10.3875 1.98755H13.6125ZM12 21.975L9.37498 20.0251L11.1 5.36255H12.9375L14.625 19.9876L12 21.975Z" fill="#161A23"/>
</svg>
