<svg width="24" height="24" viewBox="0 0 24 24" fill="none" xmlns="http://www.w3.org/2000/svg">
<g clip-path="url(#clip0_914_45457)">
<path d="M20.8571 0.375H3.14286C1.61666 0.375 0.375 1.61666 0.375 3.14286V20.8571C0.375 22.3833 1.61666 23.625 3.14286 23.625H20.8571C22.3833 23.625 23.625 22.3833 23.625 20.8571V3.14286C23.625 1.61666 22.3833 0.375 20.8571 0.375ZM18.6462 10.5181C18.5192 10.5304 18.3918 10.5369 18.2642 10.5375C17.5755 10.5376 16.8976 10.3662 16.2918 10.0387C15.6859 9.7113 15.1711 9.23812 14.7939 8.66197V15.0485C14.7939 15.9821 14.517 16.8947 13.9984 17.671C13.4797 18.4472 12.7425 19.0522 11.88 19.4095C11.0174 19.7668 10.0683 19.8603 9.1527 19.6781C8.23702 19.496 7.39598 19.0464 6.73583 18.3863C6.07568 17.7261 5.62609 16.885 5.44395 15.9694C5.26185 15.0537 5.3553 14.1047 5.71256 13.2422C6.06986 12.3796 6.67485 11.6424 7.4511 11.1237C8.22735 10.605 9.13999 10.3282 10.0736 10.3282C10.1721 10.3282 10.2684 10.3371 10.3653 10.3432V12.6693C10.2684 12.6576 10.1732 12.6399 10.0736 12.6399C9.43462 12.6399 8.82184 12.8937 8.37004 13.3455C7.91824 13.7973 7.66444 14.4101 7.66444 15.0491C7.66444 15.688 7.91824 16.3008 8.37004 16.7526C8.82184 17.2044 9.43462 17.4582 10.0736 17.4582C11.4044 17.4582 12.5796 16.4097 12.5796 15.079L12.6028 4.23229H14.8282C14.9299 5.19919 15.3682 6.0996 16.0665 6.7761C16.7648 7.45256 17.6787 7.86202 18.6484 7.9329V10.5181" fill="#15171A"/>
</g>
<defs>
<clipPath id="clip0_914_45457">
<rect width="24" height="24" fill="white"/>
</clipPath>
</defs>
</svg>
