<svg width="24" height="24" viewBox="0 0 24 24" fill="none" xmlns="http://www.w3.org/2000/svg">
<path d="M11.9998 10.95C14.8498 10.95 17.1373 8.62505 17.1373 5.81255C17.1373 2.96255 14.8123 0.675049 11.9998 0.675049C9.1873 0.675049 6.8623 2.96255 6.8623 5.81255C6.8623 8.66255 9.14981 10.95 11.9998 10.95ZM11.9998 2.32505C13.9123 2.32505 15.4498 3.86255 15.4498 5.77505C15.4498 7.68755 13.9123 9.22505 11.9998 9.22505C10.0873 9.22505 8.5498 7.68755 8.5498 5.77505C8.5498 3.90005 10.0873 2.32505 11.9998 2.32505Z" fill="#161A23"/>
<path d="M12.0748 7.7625C12.2248 7.9125 12.4498 8.025 12.6748 8.025C12.8998 8.025 13.1248 7.95 13.2748 7.7625C13.6123 7.425 13.6123 6.9 13.2748 6.5625L12.6373 5.925V4.7625C12.6373 4.3125 12.2623 3.9375 11.8123 3.9375C11.3623 3.9375 10.9873 4.3125 10.9873 4.7625V6.2625C10.9873 6.4875 11.0623 6.7125 11.2498 6.8625L12.0748 7.7625Z" fill="#161A23"/>
<path d="M20.3624 3.7876H19.4999C19.0499 3.7876 18.6749 4.1626 18.6749 4.6126C18.6749 5.0626 19.0499 5.4376 19.4999 5.4376H20.3624C20.7374 5.4376 21.0374 5.7376 21.0374 6.1126V16.8751C21.0374 17.2501 20.7374 17.5501 20.3624 17.5501H3.6374C3.2624 17.5501 2.9624 17.2501 2.9624 16.8751V6.1501C2.9624 5.7751 3.2624 5.4751 3.6374 5.4751H4.5374C4.9874 5.4751 5.3624 5.1001 5.3624 4.6501C5.3624 4.2001 4.9874 3.8251 4.5374 3.8251H3.6374C2.3249 3.8251 1.2749 4.8751 1.2749 6.1876V16.8751C1.2749 18.1876 2.3249 19.2376 3.6374 19.2376H11.2124V21.6376H9.4874C9.0374 21.6376 8.6624 22.0126 8.6624 22.4626C8.6624 22.9126 9.0374 23.2876 9.4874 23.2876H14.5499C14.9999 23.2876 15.3749 22.9126 15.3749 22.4626C15.3749 22.0126 14.9999 21.6376 14.5499 21.6376H12.8999V19.2376H20.3624C21.6749 19.2376 22.7249 18.1876 22.7249 16.8751V6.1501C22.7249 4.8376 21.6749 3.7876 20.3624 3.7876Z" fill="#161A23"/>
</svg>
