<svg width="24" height="24" viewBox="0 0 24 24" fill="none" xmlns="http://www.w3.org/2000/svg">
<path d="M21.0751 2.73755H2.92505C1.68755 2.73755 0.675049 3.75005 0.675049 4.98755V15.4501C0.675049 16.6876 1.68755 17.7001 2.92505 17.7001H8.32505L11.325 21.0001C11.475 21.1876 11.7 21.2626 11.9625 21.2626C12.1875 21.2626 12.4125 21.1501 12.6 21.0001L15.675 17.6625H21.1125C22.35 17.6625 23.3625 16.65 23.3625 15.4125V4.98755C23.325 3.75005 22.3125 2.73755 21.0751 2.73755ZM21.675 15.4125C21.675 15.7125 21.4125 15.975 21.1125 15.975H15.2625C15.0375 15.975 14.8125 16.0876 14.625 16.2375L11.925 19.1625L9.30005 16.2751C9.15005 16.0876 8.92505 16.0126 8.66255 16.0126H2.92505C2.62505 16.0126 2.36255 15.7501 2.36255 15.4501V4.98755C2.36255 4.68755 2.62505 4.42505 2.92505 4.42505H21.0751C21.375 4.42505 21.6376 4.68755 21.6376 4.98755V15.4125H21.675Z" fill="#161A23"/>
<path d="M12.0001 5.70007C9.3376 5.70007 7.1626 7.87507 7.1626 10.5376C7.1626 13.2001 9.3376 15.3751 12.0001 15.3751C14.6626 15.3751 16.8376 13.2001 16.8376 10.5376C16.8376 7.87507 14.6626 5.70007 12.0001 5.70007ZM12.0001 13.7251C10.2376 13.7251 8.8501 12.3001 8.8501 10.5751C8.8501 8.85007 10.2751 7.42507 12.0001 7.42507C13.7626 7.42507 15.1501 8.85007 15.1501 10.5751C15.1501 12.3001 13.7626 13.7251 12.0001 13.7251Z" fill="#161A23"/>
<path d="M12.6375 10.6125V9.56255C12.6375 9.11255 12.2625 8.73755 11.8125 8.73755C11.3625 8.73755 10.9875 9.11255 10.9875 9.56255V10.9875C10.9875 11.2125 11.0625 11.4375 11.25 11.5875L12.075 12.4125C12.225 12.5625 12.45 12.675 12.675 12.675C12.9 12.675 13.125 12.6 13.275 12.4125C13.6125 12.075 13.6125 11.55 13.275 11.2125L12.6375 10.6125Z" fill="#161A23"/>
</svg>
