<svg width="24" height="24" viewBox="0 0 24 24" fill="none" xmlns="http://www.w3.org/2000/svg">
<g clip-path="url(#clip0_501_38699)">
<path d="M21.8251 13.6124L20.4001 12.7874C20.4376 12.5624 20.4376 12.2999 20.4376 12C20.4376 11.7374 20.4376 11.4749 20.4001 11.2125L21.8251 10.3875C22.8001 9.82495 23.1376 8.54995 22.5751 7.57495L21.1126 5.02495C20.8501 4.53745 20.4001 4.19995 19.8751 4.08745C19.3501 3.93745 18.7876 4.01245 18.3001 4.27495L16.8751 5.13745C16.4626 4.83745 16.0126 4.57495 15.5251 4.34995V2.69995C15.5251 1.57495 14.5876 0.637451 13.4626 0.637451H10.5376C9.41262 0.637451 8.47512 1.57495 8.47512 2.69995V4.34995C7.98762 4.57495 7.53762 4.83745 7.12512 5.09995L5.70012 4.27495C5.21262 4.01245 4.68762 3.93745 4.12512 4.08745C3.60012 4.23745 3.15012 4.57495 2.88762 5.02495L1.42512 7.57495C0.862618 8.54995 1.20012 9.82495 2.17512 10.3875L3.60012 11.2125C3.56262 11.4374 3.56262 11.7 3.56262 12C3.56262 12.2625 3.56262 12.5249 3.60012 12.7874L2.17512 13.6124C1.20012 14.1749 0.862618 15.4499 1.42512 16.4249L2.88762 18.9749C3.15012 19.4624 3.60012 19.7999 4.12512 19.9124C4.65012 20.0624 5.21262 19.9874 5.70012 19.7249L7.12512 18.9C7.53762 19.1999 7.98762 19.4625 8.47512 19.65V21.2999C8.47512 22.4249 9.41262 23.3624 10.5376 23.3624H13.4626C14.5876 23.3624 15.5251 22.4249 15.5251 21.2999V19.65C16.0126 19.4249 16.4626 19.1624 16.8751 18.8624L18.3001 19.6874C18.7876 19.9499 19.3126 20.025 19.8376 19.8749C20.3626 19.7249 20.8126 19.3874 21.0751 18.9374L22.5376 16.3875C23.1001 15.4124 22.7626 14.1749 21.8251 13.6124ZM21.1126 15.5624L19.6501 18.1124C19.6126 18.1874 19.5376 18.2624 19.4251 18.2624C19.3126 18.2999 19.2376 18.2624 19.1626 18.2249L17.6626 17.3624C17.1001 17.025 16.4251 17.0625 15.9001 17.4375C15.5626 17.6999 15.1876 17.8874 14.7751 18.0749C14.2126 18.3375 13.8376 18.8999 13.8376 19.5374V21.2624C13.8376 21.4499 13.6876 21.6374 13.4626 21.6374H10.5376C10.3501 21.6374 10.1626 21.4874 10.1626 21.2624V19.5374C10.1626 18.8999 9.78762 18.3375 9.22512 18.0749C8.81262 17.8874 8.43762 17.6624 8.10012 17.4375C7.83762 17.25 7.50012 17.1374 7.16262 17.1374C6.86262 17.1374 6.60012 17.2125 6.37512 17.3624L4.87512 18.2249C4.80012 18.2624 4.68762 18.2999 4.61262 18.2624C4.53762 18.2249 4.46262 18.1874 4.38762 18.1124L2.92512 15.5624C2.81262 15.3749 2.88762 15.15 3.03762 15.075L4.53762 14.2125C5.06262 13.9125 5.40012 13.275 5.32512 12.6749C5.28762 12.4874 5.28762 12.2624 5.28762 12.0374C5.28762 11.7749 5.28762 11.5875 5.32512 11.4C5.40012 10.7625 5.10012 10.1624 4.53762 9.86245L3.03762 8.99995C2.85012 8.88745 2.81262 8.66245 2.88762 8.51245L4.35012 5.96245C4.38762 5.88745 4.46262 5.81245 4.57512 5.81245C4.68762 5.77495 4.76262 5.81245 4.83762 5.84995L6.33762 6.71245C6.90012 7.04995 7.57512 7.01245 8.10012 6.63745C8.43762 6.37495 8.81262 6.18745 9.22512 5.99995C9.78762 5.73745 10.1626 5.17495 10.1626 4.53745V2.69995C10.1626 2.51245 10.3126 2.32495 10.5376 2.32495H13.4626C13.6501 2.32495 13.8376 2.47495 13.8376 2.69995V4.42495C13.8376 5.06245 14.2126 5.62495 14.7751 5.88745C15.1876 6.07495 15.5626 6.29995 15.9001 6.52495C16.4251 6.89995 17.1001 6.93745 17.6251 6.63745L19.1251 5.77495C19.2001 5.73745 19.3126 5.69995 19.3876 5.73745C19.4626 5.77495 19.5376 5.81245 19.6126 5.88745L21.0751 8.43745C21.1876 8.62495 21.1126 8.84995 20.9626 8.92495L19.4626 9.78745C18.9376 10.0875 18.6001 10.725 18.6751 11.325C18.7126 11.5125 18.7126 11.7374 18.7126 11.9625C18.7126 12.2249 18.7126 12.4124 18.6751 12.5999C18.6001 13.2374 18.9376 13.8375 19.4626 14.1375L20.9626 14.9999C21.1501 15.15 21.1876 15.3749 21.1126 15.5624Z" fill="#161A23"/>
<path d="M12.0001 7.16248C9.3376 7.16248 7.1626 9.33748 7.1626 12C7.1626 14.6625 9.3376 16.8375 12.0001 16.8375C14.6626 16.8375 16.8376 14.6625 16.8376 12C16.8376 9.33748 14.6626 7.16248 12.0001 7.16248ZM12.0001 15.15C10.2751 15.15 8.8501 13.725 8.8501 12C8.8501 10.275 10.2751 8.84998 12.0001 8.84998C13.7251 8.84998 15.1501 10.275 15.1501 12C15.1501 13.725 13.7251 15.15 12.0001 15.15Z" fill="#161A23"/>
<path d="M12.6375 12.075V11.025C12.6375 10.575 12.2625 10.2 11.8125 10.2C11.3625 10.2 10.9875 10.575 10.9875 11.025V12.45C10.9875 12.675 11.0625 12.9 11.25 13.05L12.075 13.875C12.225 14.025 12.45 14.1375 12.675 14.1375C12.9 14.1375 13.125 14.0625 13.275 13.875C13.6125 13.5375 13.6125 13.0125 13.275 12.675L12.6375 12.075Z" fill="#161A23"/>
</g>
<defs>
<clipPath id="clip0_501_38699">
<rect width="24" height="24" fill="white"/>
</clipPath>
</defs>
</svg>
