<svg width="20" height="24" viewBox="0 0 20 24" fill="none" xmlns="http://www.w3.org/2000/svg">
<path d="M16.4125 5.81255L17.9125 4.08755C18.2125 3.75005 18.175 3.18755 17.8375 2.88755C17.425 2.58755 16.9 2.62505 16.6 3.00005L15.025 4.87505C13.7875 4.16255 12.3625 3.67505 10.8625 3.56255V2.32505H13.2625C13.7125 2.32505 14.0875 1.95005 14.0875 1.50005C14.0875 1.05005 13.7125 0.675049 13.2625 0.675049H6.775C6.325 0.675049 5.95 1.05005 5.95 1.50005C5.95 1.95005 6.325 2.32505 6.775 2.32505H9.175V3.52505C4.075 3.93755 0.0625 8.21255 0.0625 13.425C0.0625 18.9 4.525 23.3625 10 23.3625C15.475 23.3625 19.9375 18.9 19.9375 13.425C19.9375 10.3875 18.55 7.65005 16.4125 5.81255ZM10 21.675C5.4625 21.675 1.75 17.9625 1.75 13.425C1.75 8.88755 5.4625 5.17505 10 5.17505C14.5375 5.17505 18.25 8.88755 18.25 13.425C18.25 17.9625 14.5375 21.675 10 21.675Z" fill="#161A23"/>
<path d="M10.825 13.2751V8.9251C10.825 8.4751 10.45 8.1001 9.99999 8.1001C9.54999 8.1001 9.17499 8.4751 9.17499 8.9251V13.6126C9.17499 13.8376 9.24999 14.0626 9.43749 14.2126L12.2125 16.9876C12.3625 17.1376 12.5875 17.2501 12.8125 17.2501C13.0375 17.2501 13.2625 17.1751 13.4125 16.9876C13.75 16.6501 13.75 16.1251 13.4125 15.7876L10.825 13.2751Z" fill="#161A23"/>
</svg>
