<svg width="24" height="24" viewBox="0 0 24 24" fill="none" xmlns="http://www.w3.org/2000/svg">
<path d="M12.8625 4.50001V2.36251H14.8875C15.3375 2.36251 15.75 1.98751 15.75 1.50001C15.75 1.01251 15.375 0.637512 14.8875 0.637512H9.14999C8.69999 0.637512 8.28749 1.01251 8.28749 1.50001C8.28749 1.98751 8.66249 2.36251 9.14999 2.36251H11.175V4.50001C6.33749 4.95001 2.54999 9.00001 2.54999 13.9125C2.54999 19.125 6.78749 23.3625 12 23.3625C17.2125 23.3625 21.45 19.125 21.45 13.9125C21.45 9.00001 17.6625 4.95001 12.8625 4.50001ZM12 21.675C7.72499 21.675 4.23749 18.1875 4.23749 13.9125C4.23749 9.63751 7.72499 6.15001 12 6.15001C16.275 6.15001 19.7625 9.63751 19.7625 13.9125C19.7625 18.1875 16.275 21.675 12 21.675Z" fill="#161A23"/>
<path d="M16.7625 13.05H12.8625V9.15004C12.8625 8.70004 12.4875 8.28754 12 8.28754C11.55 8.28754 11.1375 8.66254 11.1375 9.15004V13.0875H10.0875C9.63748 13.0875 9.22498 13.4625 9.22498 13.95C9.22498 14.4375 9.59998 14.8125 10.0875 14.8125H11.1375V15.8625C11.1375 16.3125 11.5125 16.725 12 16.725C12.45 16.725 12.8625 16.35 12.8625 15.8625V14.8125H16.8C17.25 14.8125 17.6625 14.4375 17.6625 13.95C17.6625 13.4625 17.25 13.05 16.7625 13.05Z" fill="#161A23"/>
</svg>
