<svg width="24" height="24" viewBox="0 0 24 24" fill="none" xmlns="http://www.w3.org/2000/svg">
<path d="M8.1751 4.80002H9.5251C9.9751 4.80002 10.3501 4.42502 10.3501 3.97502C10.3501 3.52502 9.9751 3.15002 9.5251 3.15002H8.1751C7.7251 3.15002 7.3501 3.52502 7.3501 3.97502C7.3501 4.42502 7.6876 4.80002 8.1751 4.80002Z" fill="#161A23"/>
<path d="M16.2375 6.07505C16.0876 6.07505 15.9375 6.07505 15.7875 6.11255V3.33755C15.7875 1.76255 14.5501 0.487549 13.0126 0.487549H4.57505C3.03755 0.487549 1.80005 1.76255 1.80005 3.33755V20.2875C1.80005 21.8626 3.03755 23.1376 4.57505 23.1376H13.0126C14.5501 23.1376 15.7875 21.8626 15.7875 20.2875V18C15.9375 18 16.0876 18.0375 16.2375 18.0375C19.5375 18.0375 22.2001 15.3751 22.2001 12.0751C22.2001 8.77505 19.5375 6.07505 16.2375 6.07505ZM4.57505 2.17505H13.0126C13.6126 2.17505 14.1 2.70005 14.1 3.33755V6.48755C11.85 7.35005 10.2375 9.52505 10.2375 12.0751C10.2375 14.6251 11.85 16.8001 14.1 17.6625V17.7751H3.48755V3.33755C3.48755 2.70005 3.97505 2.17505 4.57505 2.17505ZM13.0126 21.4501H4.57505C3.97505 21.4501 3.48755 20.9251 3.48755 20.2875V19.4251H14.1V20.2875C14.1 20.9251 13.6126 21.4501 13.0126 21.4501ZM16.2375 16.35C13.875 16.35 11.9625 14.4376 11.9625 12.0751C11.9625 9.71255 13.875 7.76255 16.2375 7.76255C18.6 7.76255 20.5126 9.67505 20.5126 12.0375C20.5126 14.4001 18.6 16.35 16.2375 16.35Z" fill="#161A23"/>
<path d="M16.8001 12.225V10.7625C16.8001 10.3125 16.4251 9.9375 15.9751 9.9375C15.5251 9.9375 15.1501 10.3125 15.1501 10.7625V12.5625C15.1501 12.7875 15.2251 13.0125 15.4126 13.1625L16.5001 14.25C16.6501 14.4 16.8751 14.5125 17.1001 14.5125C17.3251 14.5125 17.5501 14.4375 17.7001 14.25C18.0376 13.9125 18.0376 13.3875 17.7001 13.05L16.8001 12.225Z" fill="#161A23"/>
</svg>
