<svg width="24" height="24" viewBox="0 0 24 24" fill="none" xmlns="http://www.w3.org/2000/svg">
<g clip-path="url(#clip0_501_38690)">
<path d="M22.275 16.875C21.7875 15.3 20.2125 14.4 18.7125 14.85C17.475 15.225 15.7875 15.7125 14.475 16.0875C14.55 15.6375 14.5125 15.3 14.4 15C14.025 14.1 13.05 13.725 12.225 13.725H8.51255C8.21255 13.725 7.91255 13.575 7.61255 13.275C7.20005 12.9 6.67505 12.675 6.11255 12.675H3.11255C1.76255 12.675 0.675049 13.8 0.675049 15.1875V19.95C0.675049 21.3751 1.80005 22.5375 3.15005 22.5375H6.75005C7.20005 22.5375 7.65005 22.3875 8.06255 22.1625C9.11255 22.7625 10.3125 23.0625 11.5125 23.0625C12.2625 23.0625 12.975 22.95 13.65 22.725L20.3251 20.7001H20.3625C22.35 19.95 22.65 18.1875 22.275 16.875C22.3125 16.9125 22.275 16.9125 22.275 16.875ZM3.15005 20.8876C2.70005 20.8876 2.36255 20.475 2.36255 19.9875V15.2625C2.36255 14.8125 2.70005 14.4375 3.11255 14.4375H6.11255C6.30005 14.4375 6.41255 14.5125 6.48755 14.5875C6.60005 14.7 6.71255 14.775 6.82505 14.85V20.925H6.78755H3.15005V20.8876ZM19.8 19.125L13.125 21.1501C12.6 21.3001 12.075 21.4125 11.5125 21.4125C10.575 21.4125 9.67505 21.1875 8.85005 20.7375L8.47505 20.55V15.45H8.51255H12.225C12.525 15.45 12.7875 15.6 12.825 15.675C12.8625 15.75 12.7875 16.1625 12.0375 16.9125C11.7375 17.175 11.7 17.6251 11.8875 17.9626C12.225 18.5626 12.6 18.45 13.8375 18.075C14.4375 17.8875 15.225 17.6625 16.0125 17.4375C17.5875 16.9875 19.1625 16.5 19.1625 16.5C19.8 16.3125 20.4375 16.725 20.6625 17.4001C20.85 17.9626 20.8125 18.75 19.8 19.125Z" fill="#161A23"/>
<path d="M17.7375 12.1125C20.8125 12.1125 23.3625 9.60005 23.3625 6.48755C23.3625 3.37505 20.85 0.862549 17.7375 0.862549C14.625 0.862549 12.1125 3.37505 12.1125 6.48755C12.1125 9.60005 14.625 12.1125 17.7375 12.1125ZM17.7375 2.58755C19.9125 2.58755 21.675 4.35005 21.675 6.52505C21.675 8.70005 19.9125 10.4625 17.7375 10.4625C15.5625 10.4625 13.8 8.70005 13.8 6.52505C13.8 4.35005 15.5625 2.58755 17.7375 2.58755Z" fill="#161A23"/>
<path d="M17.8875 8.5875C18.0375 8.7375 18.2625 8.85 18.4875 8.85C18.7125 8.85 18.9375 8.775 19.0875 8.5875C19.425 8.25 19.425 7.725 19.0875 7.3875L18.3375 6.6375V5.325C18.3375 4.875 17.9625 4.5 17.5125 4.5C17.0625 4.5 16.6875 4.875 16.6875 5.325V7.0125C16.6875 7.2375 16.7625 7.4625 16.95 7.6125L17.8875 8.5875Z" fill="#161A23"/>
</g>
<defs>
<clipPath id="clip0_501_38690">
<rect width="24" height="24" fill="white"/>
</clipPath>
</defs>
</svg>
