<svg width="24" height="24" viewBox="0 0 24 24" fill="none" xmlns="http://www.w3.org/2000/svg">
<path d="M18.2625 12.5625C15.4875 12.5625 13.2 14.85 13.2 17.625C13.2 20.4 15.4875 22.6875 18.2625 22.6875C21.0375 22.6875 23.325 20.4 23.325 17.625C23.325 14.85 21.075 12.5625 18.2625 12.5625ZM18.2625 21C16.3875 21 14.8875 19.5 14.8875 17.625C14.8875 15.75 16.3875 14.25 18.2625 14.25C20.1375 14.25 21.6375 15.75 21.6375 17.625C21.675 19.5 20.1375 21 18.2625 21Z" fill="#161A23"/>
<path d="M18.9 17.7V16.575C18.9 16.125 18.525 15.75 18.075 15.75C17.625 15.75 17.25 16.125 17.25 16.575V18.075C17.25 18.3 17.325 18.525 17.5125 18.675L18.375 19.5375C18.525 19.6875 18.75 19.8 18.975 19.8C19.2 19.8 19.425 19.725 19.575 19.5375C19.9125 19.2 19.9125 18.675 19.575 18.3375L18.9 17.7Z" fill="#161A23"/>
<path d="M10.425 17.4375H3.22495C2.73745 17.4375 2.32495 17.025 2.32495 16.5375V3.8625C2.32495 3.375 2.73745 3 3.22495 3H8.47495L10.3125 4.9125C10.4625 5.0625 10.6875 5.175 10.9125 5.175H19.7999C20.2875 5.175 20.7 5.5875 20.7 6.075V10.2375C20.7 10.6875 21.075 11.0625 21.525 11.0625C21.975 11.0625 22.35 10.6875 22.35 10.2375V6.075C22.35 4.65 21.1875 3.4875 19.7625 3.4875H11.2875L9.44995 1.575C9.29995 1.425 9.07495 1.3125 8.84995 1.3125H3.22495C1.79995 1.3125 0.637451 2.475 0.637451 3.9V16.575C0.637451 18 1.79995 19.1625 3.22495 19.1625H10.425C10.875 19.1625 11.25 18.7875 11.25 18.3375C11.25 17.8875 10.9125 17.4375 10.425 17.4375Z" fill="#161A23"/>
</svg>
