<svg width="24" height="24" viewBox="0 0 24 24" fill="none" xmlns="http://www.w3.org/2000/svg">
<path d="M22.65 11.4375L19.725 8.40001C19.3875 8.06251 18.8625 8.06251 18.525 8.36251C18.1875 8.70001 18.1875 9.22501 18.4875 9.56251L20.025 11.1375H15.225V7.87501C16.125 7.53751 16.8 6.67501 16.8 5.62501C16.8 4.31251 15.7125 3.22501 14.4 3.22501C13.0875 3.22501 12 4.31251 12 5.62501C12 6.63751 12.6375 7.53751 13.575 7.87501V11.175H4.725V7.87501C5.625 7.53751 6.3 6.67501 6.3 5.62501C6.3 4.31251 5.2125 3.22501 3.9 3.22501C2.5875 3.22501 1.5 4.31251 1.5 5.62501C1.5 6.63751 2.1375 7.53751 3.075 7.87501V11.175H1.95C1.5 11.175 1.125 11.55 1.125 12C1.125 12.45 1.5 12.8625 1.9875 12.8625H8.25V16.125C7.35 16.4625 6.675 17.325 6.675 18.375C6.675 19.6875 7.7625 20.775 9.075 20.775C10.3875 20.775 11.475 19.6875 11.475 18.375C11.475 17.3625 10.8375 16.4625 9.9 16.125V12.825H20.025L18.4875 14.4C18.15 14.7375 18.1875 15.2625 18.4875 15.6C18.6375 15.75 18.8625 15.825 19.0875 15.825C19.3125 15.825 19.5375 15.75 19.6875 15.5625L22.6125 12.5625C22.95 12.2625 22.95 11.7375 22.65 11.4375ZM14.4 4.91251C14.775 4.91251 15.1125 5.25001 15.1125 5.62501C15.1125 6.00001 14.775 6.33751 14.4 6.33751C14.025 6.33751 13.65 6.00001 13.65 5.62501C13.65 5.25001 13.9875 4.91251 14.4 4.91251ZM3.9 4.91251C4.275 4.91251 4.6125 5.25001 4.6125 5.62501C4.6125 6.00001 4.275 6.33751 3.9 6.33751C3.4875 6.33751 3.1875 6.00001 3.1875 5.62501C3.1875 5.25001 3.4875 4.91251 3.9 4.91251ZM9.075 19.0875C8.7 19.0875 8.3625 18.75 8.3625 18.375C8.3625 17.9625 8.7 17.6625 9.075 17.6625C9.4875 17.6625 9.7875 18 9.7875 18.375C9.7875 18.7875 9.45 19.0875 9.075 19.0875Z" fill="#161A23"/>
</svg>
