<svg width="24" height="24" viewBox="0 0 24 24" fill="none" xmlns="http://www.w3.org/2000/svg">
<path d="M12.3374 11.175C15.2249 11.175 17.5874 8.81255 17.5874 5.92505C17.5874 3.03755 15.2249 0.675049 12.3374 0.675049C9.4499 0.675049 7.0874 3.03755 7.0874 5.92505C7.0874 8.81255 9.4499 11.175 12.3374 11.175ZM12.3374 2.32505C14.3249 2.32505 15.8999 3.93755 15.8999 5.88755C15.8999 7.83755 14.2874 9.45005 12.3374 9.45005C10.3499 9.45005 8.7749 7.83755 8.7749 5.88755C8.7749 3.93755 10.3874 2.32505 12.3374 2.32505Z" fill="#161A23"/>
<path d="M12.4499 7.8751C12.5999 8.0251 12.8249 8.1376 13.0499 8.1376C13.2749 8.1376 13.4999 8.0626 13.6499 7.8751C13.9874 7.5376 13.9874 7.0126 13.6499 6.6751L12.9374 6.0001V4.8001C12.9374 4.3501 12.5624 3.9751 12.1124 3.9751C11.6624 3.9751 11.2874 4.3501 11.2874 4.8001V6.3751C11.2874 6.6001 11.3624 6.8251 11.5499 6.9751L12.4499 7.8751Z" fill="#161A23"/>
<path d="M20.5875 3.86255H19.725C19.275 3.86255 18.9 4.23755 18.9 4.68755C18.9 5.13755 19.275 5.51255 19.725 5.51255H20.5875C21 5.51255 21.2999 5.85005 21.2999 6.22505V17.2501C21.2999 17.6625 20.9625 17.9626 20.5875 17.9626H3.41245C2.99995 17.9626 2.69995 17.6251 2.69995 17.2501V6.26255C2.69995 5.85005 3.03745 5.55005 3.41245 5.55005H4.83745C5.28745 5.55005 5.66245 5.17505 5.66245 4.72505C5.66245 4.27505 5.28745 3.90005 4.83745 3.90005H3.41245C2.09995 3.90005 1.01245 4.98755 1.01245 6.30005V17.2501C1.01245 18.5626 2.09995 19.6501 3.41245 19.6501H9.37495C9.26245 20.2501 8.96245 21.225 8.28745 21.8626C8.02495 22.0876 7.94995 22.4626 8.06245 22.8001C8.17495 23.1376 8.51245 23.3251 8.84995 23.3251H15.075C15.4125 23.3251 15.75 23.1 15.8625 22.8001C15.975 22.5 15.9 22.125 15.6375 21.8626C14.925 21.225 14.6625 20.2501 14.55 19.6501H20.5125C21.825 19.6501 22.9125 18.5626 22.9125 17.2501V6.26255C22.9874 4.95005 21.9 3.86255 20.5875 3.86255ZM13.5 21.6751H10.5C10.875 20.8876 11.025 20.1376 11.1 19.6876H12.9C12.975 20.1376 13.125 20.8876 13.5 21.6751Z" fill="#161A23"/>
</svg>
