<svg width="24" height="24" viewBox="0 0 24 24" fill="none" xmlns="http://www.w3.org/2000/svg">
<path d="M12 7.875C8.96255 7.875 6.48755 10.35 6.48755 13.3875C6.48755 16.425 8.96255 18.9 12 18.9C15.0375 18.9 17.5125 16.425 17.5125 13.3875C17.5125 10.35 15.0375 7.875 12 7.875ZM12 17.2125C9.90005 17.2125 8.17505 15.4875 8.17505 13.3875C8.17505 11.2875 9.90005 9.5625 12 9.5625C14.1 9.5625 15.825 11.2875 15.825 13.3875C15.825 15.525 14.1 17.2125 12 17.2125Z" fill="#161A23"/>
<path d="M12.6 13.5375V12.225C12.6 11.775 12.225 11.4 11.775 11.4C11.325 11.4 10.95 11.775 10.95 12.225V13.875C10.95 14.1 11.025 14.325 11.2125 14.475L12.1875 15.45C12.3375 15.6 12.5625 15.7125 12.7875 15.7125C13.0125 15.7125 13.2375 15.6375 13.3875 15.45C13.725 15.1125 13.725 14.5875 13.3875 14.25L12.6 13.5375Z" fill="#161A23"/>
<path d="M15.6375 0.675049H8.3625C5.4 0.675049 3 3.03755 3 6.00005V18C3 20.9626 5.4 23.3251 8.325 23.3251H15.6C18.6 23.3251 21 20.9626 21 18V6.00005C21 3.03755 18.6 0.675049 15.6375 0.675049ZM19.3125 18C19.3125 20.0251 17.6625 21.6751 15.6375 21.6751H8.3625C6.3375 21.6751 4.6875 20.0251 4.6875 18V6.00005C4.6875 3.97505 6.3375 2.32505 8.3625 2.32505H15.6375C17.6625 2.32505 19.3125 3.97505 19.3125 6.00005V18Z" fill="#161A23"/>
</svg>
