<svg width="23" height="23" viewBox="0 0 23 23" fill="none" xmlns="http://www.w3.org/2000/svg">
<path d="M20.325 22.65H2.325C1.05 22.65 0 21.6 0 20.325V2.325C0 1.05 1.05 0 2.325 0H20.325C21.6 0 22.65 1.05 22.65 2.325V20.325C22.65 21.6 21.6 22.65 20.325 22.65ZM2.325 1.65C1.95 1.65 1.65 1.95 1.65 2.325V20.325C1.65 20.7 1.95 21 2.325 21H20.325C20.7 21 21 20.7 21 20.325V2.325C21 1.95 20.7 1.65 20.325 1.65H2.325Z" fill="#161A23"/>
<path d="M14.4 15.4875C14.175 15.4875 13.95 15.4125 13.8 15.225L8.62498 10.05V13.725C8.62498 14.175 8.24998 14.55 7.79998 14.55C7.34998 14.55 6.97498 14.175 6.97498 13.725V8.02501C6.97498 7.57501 7.34998 7.20001 7.79998 7.20001H13.6875C14.1375 7.20001 14.5125 7.57501 14.5125 8.02501C14.5125 8.47501 14.1375 8.85001 13.6875 8.85001H9.82498L15 14.025C15.3375 14.3625 15.3375 14.8875 15 15.225C14.85 15.4125 14.625 15.4875 14.4 15.4875Z" fill="#161A23"/>
</svg>
