<svg width="23" height="23" viewBox="0 0 23 23" fill="none" xmlns="http://www.w3.org/2000/svg">
<path d="M20.325 22.65H2.325C1.05 22.65 0 21.6 0 20.325V2.325C0 1.05 1.05 0 2.325 0H20.325C21.6 0 22.65 1.05 22.65 2.325V20.325C22.65 21.6 21.6 22.65 20.325 22.65ZM2.325 1.65C1.95 1.65 1.65 1.95 1.65 2.325V20.325C1.65 20.7 1.95 21 2.325 21H20.325C20.7 21 21 20.7 21 20.325V2.325C21 1.95 20.7 1.65 20.325 1.65H2.325Z" fill="#161A23"/>
<path d="M11.0156 17.0156C10.5656 17.0156 10.1906 16.6406 10.1906 16.1906V8.87813L7.45313 11.6156C7.11563 11.9531 6.59062 11.9531 6.25312 11.6156C5.91562 11.2781 5.91562 10.7531 6.25312 10.4156L10.4156 6.25312C10.7531 5.91562 11.2781 5.91562 11.6156 6.25312L15.6281 10.2656C15.9656 10.6031 15.9656 11.1281 15.6281 11.4656C15.2906 11.8031 14.7656 11.8031 14.4281 11.4656L11.8406 8.87813V16.1906C11.8406 16.6406 11.4656 17.0156 11.0156 17.0156Z" fill="#161A23"/>
</svg>
