<svg width="23" height="23" viewBox="0 0 23 23" fill="none" xmlns="http://www.w3.org/2000/svg">
<path d="M20.325 22.65H2.325C1.05 22.65 0 21.6 0 20.325V2.325C0 1.05 1.05 0 2.325 0H20.325C21.6 0 22.65 1.05 22.65 2.325V20.325C22.65 21.6 21.6 22.65 20.325 22.65ZM2.325 1.65C1.95 1.65 1.65 1.95 1.65 2.325V20.325C1.65 20.7 1.95 21 2.325 21H20.325C20.7 21 21 20.7 21 20.325V2.325C21 1.95 20.7 1.65 20.325 1.65H2.325Z" fill="#161A23"/>
<path d="M7.85312 15.25C7.62812 15.25 7.40312 15.175 7.25312 14.9875C6.91562 14.65 6.91562 14.125 7.25312 13.7875L12.4281 8.65H8.56563C8.11563 8.65 7.74062 8.275 7.74062 7.825C7.74062 7.375 8.11563 7 8.56563 7H14.4531C14.9031 7 15.2781 7.375 15.2781 7.825V13.525C15.2781 13.975 14.9031 14.35 14.4531 14.35C14.0031 14.35 13.6281 13.975 13.6281 13.525V9.85L8.45312 14.9875C8.26562 15.175 8.07812 15.25 7.85312 15.25Z" fill="#161A23"/>
</svg>
