<svg width="24" height="24" viewBox="0 0 24 24" fill="none" xmlns="http://www.w3.org/2000/svg">
<path d="M11.9723 19.5558C11.9689 18.4125 12.8907 17.4904 14.0421 17.4883C15.1652 17.4901 16.0879 18.4125 16.1104 19.5558C16.0879 20.6861 15.1655 21.6085 14.0421 21.6244C12.8907 21.6085 11.9689 20.6861 11.9723 19.5558ZM14.0421 20.8623C14.6635 20.8528 15.1782 20.2688 15.1845 19.5558C15.1782 18.8288 14.6635 18.2452 14.0421 18.2493C13.3936 18.245 12.8777 18.8288 12.8982 19.5558C12.8777 20.2688 13.3936 20.8528 14.0421 20.8623ZM18.4515 18.358V21.5154H17.581V18.358H16.3284V17.6515H19.6499V18.358H18.4515ZM20.6836 20.6434L20.3577 21.5154H19.324L20.9569 17.6515H22.0454L23.625 21.5154H22.591L22.2643 20.6434H20.6836ZM22.0454 19.9912L21.5016 18.5757L20.9569 19.9912H22.0454ZM2.44418 18.358V21.5154H1.57308V18.358H0.375V17.6515H3.64197V18.358H2.44418ZM3.86025 19.5555C3.86197 18.4122 4.78324 17.4901 5.92826 17.488C7.05859 17.4898 7.98131 18.4122 7.99774 19.5555C7.98101 20.6858 7.05832 21.6082 5.92826 21.6241C4.78324 21.6082 3.86197 20.6858 3.86025 19.5555ZM5.92826 20.862C6.55717 20.8525 7.0713 20.2686 7.07186 19.5555C7.0713 18.8286 6.55717 18.245 5.92826 18.249C5.28611 18.2447 4.77112 18.8286 4.78612 19.5555C4.77112 20.2686 5.28611 20.8525 5.92826 20.862ZM10.3931 21.5151V20.0454L11.9181 17.6515H10.9383L9.95794 19.2833L9.03206 17.6515H7.99774L9.52283 20.0454V21.5151H10.3931Z" fill="#15171A"/>
<path d="M12.0272 2.625C6.21302 2.625 1.5 5.54539 1.5 9.14685C1.5 12.7483 6.21302 15.6684 12.0272 15.6684C17.8415 15.6684 22.5536 12.7491 22.5536 9.14685C22.5536 5.54452 17.8409 2.625 12.0272 2.625ZM17.5122 5.42051C17.7853 6.19013 16.5998 6.91357 14.6042 7.25299L14.6008 7.2573C14.3375 5.65928 13.7594 4.43006 13.0275 3.84011C15.3363 3.98138 17.2218 4.60219 17.5122 5.42051ZM12.0269 5.33951C12.604 5.33951 13.1005 6.13447 13.33 7.40696H13.3332C12.9188 7.43779 12.4823 7.45481 12.0269 7.45481C11.5717 7.45481 11.1357 7.43779 10.7213 7.40696H10.7245C10.9537 6.13447 11.4506 5.33951 12.0269 5.33951ZM6.54201 5.42051C6.83267 4.60193 8.71791 3.98111 11.0267 3.84011C10.2946 4.43006 9.71672 5.65897 9.45291 7.257L9.44972 7.25299C7.45435 6.91357 6.26837 6.18983 6.54201 5.42051ZM3.24998 9.24401C3.24998 8.5188 3.49017 7.82764 3.925 7.1976C3.94172 7.17337 3.95901 7.14889 3.9763 7.12466C3.99302 7.1013 4.01035 7.07794 4.02763 7.05487C4.0288 7.05345 4.02966 7.05199 4.03082 7.05056C4.04811 7.0272 4.066 7.00414 4.08415 6.98077C4.1026 6.95711 4.12135 6.93319 4.14066 6.90983C4.15738 6.88879 4.17471 6.86801 4.192 6.84698C4.23036 6.80141 4.26955 6.75615 4.30993 6.71145C4.31713 6.70309 4.32463 6.69502 4.33243 6.68666C4.34886 6.66791 4.36589 6.64946 4.38317 6.63131C4.40421 6.60851 4.42585 6.58575 4.44775 6.56325C4.52935 6.47876 4.61473 6.396 4.70353 6.3147C4.71651 6.30259 4.72978 6.29074 4.74302 6.27892C4.75112 6.27142 4.75948 6.26393 4.76781 6.25673C4.786 6.2403 4.80445 6.22414 4.8232 6.20828C4.82522 6.20629 4.82695 6.20452 4.82897 6.2031C4.84251 6.19129 4.85578 6.17974 4.86962 6.16823C4.8829 6.15698 4.89613 6.14543 4.90971 6.13448C5.1646 7.32045 6.85633 8.33861 9.30467 8.7786L9.3064 8.77661C9.30066 8.92943 9.29777 9.08168 9.29747 9.23419C9.29747 11.6947 9.93298 13.6355 10.8695 14.5095C6.56912 14.1667 3.24998 11.9395 3.24998 9.24401ZM12.0269 12.746C11.2328 12.746 10.589 11.1468 10.589 9.03784C10.589 9.00495 10.5896 8.9721 10.5901 8.94068L10.595 8.9493C11.0549 8.98852 11.5327 9.01102 12.0272 9.01102C12.5218 9.01102 13.0027 8.98882 13.4652 8.94844L13.4647 8.9493C13.4647 8.97814 13.4658 9.00784 13.4658 9.03784C13.4658 11.1468 12.8205 12.746 12.0269 12.746ZM13.1852 14.5095C14.1218 13.6358 14.757 11.6947 14.757 9.23419C14.757 9.07965 14.7539 8.92796 14.7484 8.77748L14.7493 8.7786C17.1976 8.33887 18.889 7.31985 19.1448 6.13504C19.1771 6.16185 19.2088 6.18896 19.2403 6.21664C19.2515 6.22586 19.2625 6.23569 19.2734 6.24577C19.2872 6.25759 19.3008 6.27 19.3147 6.28241C19.3268 6.29306 19.3386 6.30375 19.3504 6.3147C19.3703 6.33285 19.3902 6.35104 19.4098 6.36975C19.4291 6.38764 19.4485 6.40609 19.4675 6.42454C19.4707 6.42742 19.4738 6.43061 19.477 6.43376C19.4983 6.45424 19.5191 6.47501 19.5398 6.49579C19.5623 6.51799 19.5845 6.54045 19.6064 6.56325C19.6503 6.60821 19.693 6.65378 19.7342 6.69994C19.7564 6.72443 19.7783 6.74921 19.7999 6.77374C19.8187 6.79537 19.8374 6.81728 19.8556 6.83918C19.8579 6.8418 19.8599 6.84439 19.8622 6.84698C19.8985 6.89021 19.934 6.93405 19.9683 6.97819C19.9876 7.00297 20.0064 7.02776 20.0251 7.05259C20.043 7.07651 20.0609 7.10074 20.0782 7.12466C20.0955 7.14889 20.1125 7.17311 20.1295 7.19734C20.5646 7.82708 20.8045 8.51824 20.8045 9.24401C20.8045 11.9395 17.4854 14.1664 13.1852 14.5095Z" fill="#15171A"/>
</svg>
