<svg width="25" height="24" viewBox="0 0 25 24" fill="none" xmlns="http://www.w3.org/2000/svg">
<path d="M18.8625 8.40001C18.525 8.28751 18.1125 8.43751 17.925 8.73751L16.125 11.2875L14.3625 8.73751C14.1375 8.43751 13.7625 8.28751 13.425 8.40001C13.0875 8.51251 12.825 8.85001 12.825 9.18751V14.775C12.825 15.225 13.2 15.6375 13.6875 15.6375C14.175 15.6375 14.55 15.2625 14.55 14.775V11.8875L15.4875 13.2C15.6375 13.425 15.9 13.575 16.1625 13.575C16.425 13.575 16.6875 13.425 16.8375 13.2L17.775 11.8875V14.775C17.775 15.225 18.15 15.6375 18.6375 15.6375C19.125 15.6375 19.5 15.2625 19.5 14.775V9.22501C19.425 8.85001 19.2 8.51251 18.8625 8.40001Z" fill="#161A23"/>
<path d="M11.3625 8.3625H5.77498C5.32498 8.3625 4.91248 8.7375 4.91248 9.225C4.91248 9.7125 5.28748 10.0875 5.77498 10.0875H7.72498V14.8125C7.72498 15.2625 8.09998 15.675 8.58748 15.675C9.07498 15.675 9.44998 15.3 9.44998 14.8125V10.05H11.4C11.85 10.05 12.2625 9.675 12.2625 9.1875C12.2625 8.7 11.8125 8.3625 11.3625 8.3625Z" fill="#161A23"/>
<path d="M12.1875 0.675003C5.92499 0.675003 0.862488 5.7375 0.862488 12C0.862488 18.2625 5.96249 23.3625 12.225 23.3625C18.4875 23.3625 23.55 18.2625 23.55 12C23.55 5.7375 18.45 0.675003 12.1875 0.675003ZM12.1875 21.675C6.86249 21.675 2.54999 17.325 2.54999 12C2.54999 6.675 6.89999 2.325 12.225 2.325C17.55 2.325 21.9 6.675 21.9 12C21.8625 17.325 17.5125 21.675 12.1875 21.675Z" fill="#161A23"/>
</svg>
