<svg width="24" height="24" viewBox="0 0 24 24" fill="none" xmlns="http://www.w3.org/2000/svg">
<path d="M15.1875 6.9375C15.1875 5.175 13.7625 3.75 12 3.75C10.2375 3.75 8.8125 5.175 8.8125 6.9375C8.8125 7.95 9.3 8.8875 10.05 9.45C9.3 10.05 8.8125 10.95 8.8125 11.9625C8.8125 12.975 9.3 13.9125 10.05 14.475C9.3 15.075 8.8125 15.975 8.8125 16.9875C8.8125 18.75 10.2375 20.175 12 20.175C13.7625 20.175 15.1875 18.75 15.1875 16.9875C15.1875 15.975 14.7 15.0375 13.95 14.475C14.7 13.875 15.1875 12.975 15.1875 11.9625C15.1875 10.95 14.7 10.0125 13.95 9.45C14.7 8.8875 15.1875 7.9875 15.1875 6.9375ZM12 5.4375C12.825 5.4375 13.5 6.1125 13.5 6.9375C13.5 7.7625 12.825 8.4375 12 8.4375C11.175 8.4375 10.5 7.7625 10.5 6.9375C10.5 6.1125 11.175 5.4375 12 5.4375ZM12 10.5C12.825 10.5 13.5 11.175 13.5 12C13.5 12.825 12.825 13.5 12 13.5C11.175 13.5 10.5 12.825 10.5 12C10.5 11.175 11.175 10.5 12 10.5ZM12 18.5625C11.175 18.5625 10.5 17.8875 10.5 17.0625C10.5 16.2375 11.175 15.5625 12 15.5625C12.825 15.5625 13.5 16.2375 13.5 17.0625C13.5 17.8875 12.825 18.5625 12 18.5625Z" fill="#161A23"/>
<path d="M21.3751 10.5C21.8251 10.5 22.2001 10.125 22.2001 9.67505C22.2001 9.22505 21.8251 8.85005 21.3751 8.85005H19.8751V5.81255H21.3751C21.8251 5.81255 22.2001 5.43755 22.2001 4.98755C22.2001 4.53755 21.8251 4.16255 21.3751 4.16255H19.8751V2.62505C19.8751 1.53755 18.975 0.675049 17.9251 0.675049H6.11255C5.02505 0.675049 4.16255 1.57505 4.16255 2.62505V4.08755H2.62505C2.17505 4.08755 1.80005 4.46255 1.80005 4.91255C1.80005 5.36255 2.17505 5.73755 2.62505 5.73755H4.12505V8.77505H2.62505C2.17505 8.77505 1.80005 9.15005 1.80005 9.60005C1.80005 10.05 2.17505 10.5 2.62505 10.5H4.12505V13.5001H2.62505C2.17505 13.5001 1.80005 13.8751 1.80005 14.3251C1.80005 14.7751 2.17505 15.1501 2.62505 15.1501H4.12505V21.3751C4.12505 22.4626 5.02505 23.3251 6.07505 23.3251H17.85C18.9375 23.3251 19.8001 22.4251 19.8001 21.3751V15.1876H21.3001C21.75 15.1876 22.1251 14.8125 22.1251 14.3625C22.1251 13.9125 21.8251 13.5001 21.3751 13.5001H19.8751V10.5H21.3751ZM18.1501 21.3751C18.1501 21.5251 18.0375 21.6751 17.85 21.6751H6.11255C5.96255 21.6751 5.81255 21.5626 5.81255 21.3751V2.62505C5.81255 2.47505 5.92505 2.32505 6.11255 2.32505H17.8876C18.0375 2.32505 18.1875 2.43755 18.1875 2.62505V21.3751H18.1501Z" fill="#161A23"/>
</svg>
