<svg width="24" height="24" viewBox="0 0 24 24" fill="none" xmlns="http://www.w3.org/2000/svg">
<path d="M20.25 6.60005C19.95 4.05005 17.775 2.13755 15.1875 2.13755H14.925V1.87505C14.925 1.20005 14.3625 0.675049 13.725 0.675049H10.275C9.60002 0.675049 9.07502 1.23755 9.07502 1.87505V2.13755H8.77502C6.18752 2.13755 4.05002 4.05005 3.75002 6.60005C3.71252 6.78755 3.71252 7.01255 3.71252 7.20005V17.3625C3.71252 18.6375 4.72502 19.65 6.00002 19.65H6.33752L4.76252 22.05C4.50002 22.425 4.61252 22.9501 4.98752 23.2125C5.13752 23.3251 5.28752 23.3625 5.43752 23.3625C5.70002 23.3625 5.96252 23.2125 6.15002 22.9875L8.32502 19.65H15.7125L17.8125 22.9501C17.9625 23.2125 18.2625 23.3251 18.525 23.3251C18.675 23.3251 18.825 23.2875 18.975 23.2125C19.3875 22.9501 19.5 22.425 19.2375 22.05L17.7375 19.65H18C19.275 19.65 20.2875 18.6375 20.2875 17.3625V7.16255C20.2875 6.97505 20.2875 6.78755 20.25 6.60005ZM11.175 7.53755V10.5H5.40002V7.53755H11.175ZM12.825 7.53755H18.6V10.5H12.825V7.53755ZM10.7625 2.32505H13.275V3.56255H10.7625V2.32505ZM8.77502 3.82505H9.07502V4.08755C9.07502 4.76255 9.63752 5.28755 10.275 5.28755H13.725C14.4 5.28755 14.925 4.72505 14.925 4.08755V3.82505H15.1875C16.575 3.82505 17.8125 4.65005 18.3 5.85005H5.66252C6.18752 4.65005 7.38752 3.82505 8.77502 3.82505ZM18 17.9625H6.00002C5.66252 17.9625 5.40002 17.7 5.40002 17.3625V12.1875H18.6V17.3625C18.6 17.7 18.3375 17.9625 18 17.9625Z" fill="#161A23"/>
<path d="M9.93752 14.025H7.91252C7.46252 14.025 7.08752 14.4 7.08752 14.85C7.08752 15.3 7.46252 15.675 7.91252 15.675H9.93752C10.3875 15.675 10.7625 15.3 10.7625 14.85C10.7625 14.4 10.425 14.025 9.93752 14.025Z" fill="#161A23"/>
<path d="M16.2376 14.025H14.2126C13.7626 14.025 13.3876 14.4 13.3876 14.85C13.3876 15.3 13.7626 15.675 14.2126 15.675H16.2376C16.6876 15.675 17.0626 15.3 17.0626 14.85C17.0626 14.4 16.7251 14.025 16.2376 14.025Z" fill="#161A23"/>
</svg>
