<svg width="24" height="24" viewBox="0 0 24 24" fill="none" xmlns="http://www.w3.org/2000/svg">
<path d="M23.2125 11.3625L21.0375 8.24998C20.8875 8.02498 20.625 7.87498 20.325 7.87498H17.25V7.42498C17.25 6.26248 16.275 5.28748 15.1125 5.28748H2.81249C1.64999 5.28748 0.674988 6.26248 0.674988 7.42498V15.45C0.674988 16.6125 1.64999 17.5875 2.81249 17.5875H4.01249C4.38749 18.2625 5.09999 18.7125 5.88749 18.7125C6.67499 18.7125 7.42499 18.2625 7.76249 17.5875H9.18749C9.56249 18.2625 10.275 18.7125 11.0625 18.7125C11.8875 18.7125 12.6 18.2625 12.9375 17.5875H17.3625C17.7375 18.2625 18.45 18.7125 19.2375 18.7125C20.025 18.7125 20.775 18.2625 21.1125 17.5875H22.5C22.95 17.5875 23.325 17.2125 23.325 16.7625V11.85C23.325 11.6625 23.2875 11.5125 23.2125 11.3625ZM19.9125 9.56248L21.0375 11.2125H17.25V9.56248H19.9125ZM5.88749 17.025C5.62499 17.025 5.43749 16.8375 5.43749 16.575C5.43749 16.3125 5.62499 16.125 5.88749 16.125C6.14999 16.125 6.33749 16.3125 6.33749 16.575C6.33749 16.8375 6.11249 17.025 5.88749 17.025ZM11.0625 17.025C10.8 17.025 10.6125 16.8375 10.6125 16.575C10.6125 16.3125 10.8 16.125 11.0625 16.125C11.325 16.125 11.5125 16.3125 11.5125 16.575C11.5125 16.8375 11.2875 17.025 11.0625 17.025ZM15.5625 15.9H13.05C12.75 15.0375 11.9625 14.4375 11.025 14.4375C10.0875 14.4375 9.26249 15.0375 8.99999 15.9H7.87499C7.57499 15.0375 6.78749 14.4375 5.84999 14.4375C4.91249 14.4375 4.08749 15.0375 3.82499 15.9H2.81249C2.54999 15.9 2.36249 15.7125 2.36249 15.45V7.42498C2.36249 7.16248 2.54999 6.97498 2.81249 6.97498H15.15C15.4125 6.97498 15.6 7.16248 15.6 7.42498V15.9H15.5625ZM19.2375 17.025C18.975 17.025 18.7875 16.8375 18.7875 16.575C18.7875 16.3125 18.975 16.125 19.2375 16.125C19.5 16.125 19.6875 16.3125 19.6875 16.575C19.6875 16.8375 19.5 17.025 19.2375 17.025ZM21.2625 15.9C20.9625 15.0375 20.175 14.4375 19.2375 14.4375C18.3375 14.4375 17.5875 15 17.25 15.7875V12.9H21.6375V15.9H21.2625Z" fill="#161A23"/>
<path d="M5.88748 8.69995C5.43748 8.69995 5.06248 9.07495 5.06248 9.52495V12.1875C5.06248 12.6375 5.43748 13.0125 5.88748 13.0125C6.33748 13.0125 6.71248 12.6375 6.71248 12.1875V9.52495C6.71248 9.07495 6.33748 8.69995 5.88748 8.69995Z" fill="#161A23"/>
<path d="M8.92499 8.69995C8.47499 8.69995 8.09999 9.07495 8.09999 9.52495V12.1875C8.09999 12.6375 8.47499 13.0125 8.92499 13.0125C9.37499 13.0125 9.74999 12.6375 9.74999 12.1875V9.52495C9.74999 9.07495 9.37499 8.69995 8.92499 8.69995Z" fill="#161A23"/>
<path d="M11.9625 8.69995C11.5125 8.69995 11.1375 9.07495 11.1375 9.52495V12.1875C11.1375 12.6375 11.5125 13.0125 11.9625 13.0125C12.4125 13.0125 12.7875 12.6375 12.7875 12.1875V9.52495C12.825 9.07495 12.45 8.69995 11.9625 8.69995Z" fill="#161A23"/>
</svg>
