<svg width="24" height="24" viewBox="0 0 24 24" fill="none" xmlns="http://www.w3.org/2000/svg">
<path d="M20.925 22.35L16.8375 17.4375L17.7 15.45H18.225C18.675 15.45 19.05 15.075 19.05 14.625V4.53755V3.00005C19.05 1.50005 17.8125 0.300049 16.35 0.300049H7.65C6.15 0.300049 4.95 1.53755 4.95 3.00005V4.53755V14.625C4.95 15.075 5.325 15.45 5.775 15.45H6.3L7.1625 17.4375L3.075 22.35C2.775 22.725 2.8125 23.25 3.1875 23.55C3.3375 23.7 3.525 23.7375 3.7125 23.7375C3.9375 23.7375 4.2 23.625 4.35 23.4375L8.4375 18.525H15.525L19.6125 23.4375C19.7625 23.625 20.025 23.7375 20.25 23.7375C20.4375 23.7375 20.625 23.6625 20.775 23.55C21.1875 23.2125 21.225 22.6875 20.925 22.35ZM17.4 8.85005H6.6V5.40005H17.4V8.85005ZM6.6 13.7625V10.5H17.4V13.7625H6.6ZM6.6 3.00005C6.6 2.43755 7.05 1.95005 7.65 1.95005H16.3875C16.95 1.95005 17.4375 2.40005 17.4375 3.00005V3.71255H6.6V3.00005ZM15.8625 15.45L15.2625 16.8H8.7375L8.1375 15.45H15.8625Z" fill="#161A23"/>
<path d="M10.125 11.2876H8.77495C8.32495 11.2876 7.94995 11.6626 7.94995 12.1126C7.94995 12.5626 8.32495 12.9376 8.77495 12.9376H10.125C10.575 12.9376 10.95 12.5626 10.95 12.1126C10.9875 11.6626 10.6125 11.2876 10.125 11.2876Z" fill="#161A23"/>
<path d="M15.225 11.2876H13.875C13.425 11.2876 13.05 11.6626 13.05 12.1126C13.05 12.5626 13.425 12.9376 13.875 12.9376H15.225C15.675 12.9376 16.05 12.5626 16.05 12.1126C16.05 11.6626 15.675 11.2876 15.225 11.2876Z" fill="#161A23"/>
</svg>
