<svg width="24" height="24" viewBox="0 0 24 24" fill="none" xmlns="http://www.w3.org/2000/svg">
<path d="M18.3375 3.29995H15.45V2.66245C15.45 1.53745 14.55 0.637451 13.425 0.637451H10.5375C9.41251 0.637451 8.51251 1.53745 8.51251 2.66245V3.29995H5.62501C4.53751 3.29995 3.63751 4.19995 3.63751 5.28745V6.41245C3.63751 7.23745 4.12501 7.91245 4.83751 8.21245L5.43751 21.1874C5.51251 22.4249 6.48751 23.3624 7.72501 23.3624H16.1625C17.4 23.3624 18.4125 22.3874 18.45 21.1874L19.125 8.17495C19.8375 7.87495 20.325 7.16245 20.325 6.37495V5.24995C20.325 4.19995 19.425 3.29995 18.3375 3.29995ZM10.2375 2.66245C10.2375 2.47495 10.3875 2.32495 10.575 2.32495H13.4625C13.65 2.32495 13.8 2.47495 13.8 2.66245V3.29995H10.275V2.66245H10.2375ZM5.36251 5.28745C5.36251 5.13745 5.47501 4.98745 5.66251 4.98745H18.3375C18.4875 4.98745 18.6375 5.09995 18.6375 5.28745V6.41245C18.6375 6.56245 18.525 6.71245 18.3375 6.71245H5.66251C5.51251 6.71245 5.36251 6.59995 5.36251 6.41245V5.28745ZM16.2 21.6749H7.80001C7.46251 21.6749 7.20001 21.4124 7.20001 21.1124L6.60001 8.39995H17.4375L16.8375 21.1124C16.8 21.4124 16.5375 21.6749 16.2 21.6749Z" fill="#161A23"/>
<path d="M12 11.6624C11.55 11.6624 11.1375 12.0374 11.1375 12.5249V18.3374C11.1375 18.7874 11.5125 19.1999 12 19.1999C12.45 19.1999 12.8625 18.8249 12.8625 18.3374V12.4874C12.8625 12.0374 12.45 11.6624 12 11.6624Z" fill="#161A23"/>
<path d="M15.4875 12.3749C15.0375 12.3374 14.625 12.7124 14.5875 13.1624L14.3625 17.4749C14.325 17.9249 14.7 18.3374 15.15 18.3749H15.1875C15.6375 18.3749 16.0125 18.0374 16.0125 17.5874L16.2375 13.2749C16.3125 12.7874 15.9375 12.4124 15.4875 12.3749Z" fill="#161A23"/>
<path d="M8.47503 12.3749C8.02503 12.4124 7.65003 12.7874 7.68753 13.2749L7.95003 17.6249C7.98753 18.0749 8.36253 18.4124 8.77503 18.4124H8.81253C9.26253 18.3749 9.63753 17.9999 9.60003 17.5124L9.37503 13.1624C9.33753 12.7124 8.92503 12.3374 8.47503 12.3749Z" fill="#161A23"/>
</svg>
