<svg width="24" height="24" viewBox="0 0 24 24" fill="none" xmlns="http://www.w3.org/2000/svg">
<path d="M18.3375 3.29995H15.45V2.66245C15.45 1.53745 14.55 0.637451 13.425 0.637451H10.5375C9.4125 0.637451 8.5125 1.53745 8.5125 2.66245V3.29995H5.625C4.5375 3.29995 3.6375 4.19995 3.6375 5.28745V6.41245C3.6375 7.23745 4.125 7.91245 4.8375 8.21245L5.4375 20.6249C5.5125 22.1624 6.7875 23.3624 8.325 23.3624H15.6C17.1375 23.3624 18.4125 22.1624 18.4875 20.6249L19.125 8.17495C19.8375 7.87495 20.325 7.16245 20.325 6.37495V5.24995C20.325 4.19995 19.425 3.29995 18.3375 3.29995ZM10.2375 2.66245C10.2375 2.47495 10.3875 2.32495 10.575 2.32495H13.4625C13.65 2.32495 13.8 2.47495 13.8 2.66245V3.29995H10.275V2.66245H10.2375ZM5.3625 5.28745C5.3625 5.13745 5.475 4.98745 5.6625 4.98745H18.3375C18.4875 4.98745 18.6375 5.09995 18.6375 5.28745V6.41245C18.6375 6.56245 18.525 6.71245 18.3375 6.71245H5.6625C5.5125 6.71245 5.3625 6.59995 5.3625 6.41245V5.28745ZM15.6375 21.6749H8.3625C7.725 21.6749 7.2 21.1875 7.1625 20.5124L6.6 8.36245H17.4375L16.875 20.5124C16.8 21.15 16.275 21.6749 15.6375 21.6749Z" fill="#161A23"/>
<path d="M12 12.1499C11.55 12.1499 11.1375 12.5249 11.1375 13.0124V17.7749C11.1375 18.2249 11.5125 18.6374 12 18.6374C12.45 18.6374 12.8625 18.2624 12.8625 17.7749V13.0124C12.8625 12.5249 12.45 12.1499 12 12.1499Z" fill="#161A23"/>
<path d="M15 12.9001C14.5125 12.8626 14.1375 13.2001 14.1 13.6876L13.875 16.9876C13.8375 17.4376 14.175 17.8501 14.6625 17.8876C14.7 17.8876 14.7 17.8876 14.7375 17.8876C15.1875 17.8876 15.5625 17.5501 15.5625 17.1001L15.7875 13.8001C15.7875 13.3126 15.45 12.9376 15 12.9001Z" fill="#161A23"/>
<path d="M8.9625 12.9001C8.5125 12.9376 8.1375 13.3501 8.175 13.8001L8.4375 17.1001C8.475 17.5501 8.85 17.8876 9.2625 17.8876C9.3 17.8876 9.3 17.8876 9.3375 17.8876C9.7875 17.8501 10.1625 17.4376 10.125 16.9876L9.8625 13.6876C9.8625 13.2001 9.45 12.8626 8.9625 12.9001Z" fill="#161A23"/>
</svg>
