<svg width="24" height="24" viewBox="0 0 24 24" fill="none" xmlns="http://www.w3.org/2000/svg">
<path d="M18.2625 3.30001H15.45V3.07501C15.45 1.72501 14.3625 0.637512 13.0125 0.637512H10.95C9.6 0.637512 8.5125 1.72501 8.5125 3.07501V3.30001H5.7C4.575 3.30001 3.6375 4.20001 3.6375 5.36251V6.30001C3.6375 7.12501 4.125 7.80001 4.8 8.13751V17.925C4.8 20.925 7.2375 23.325 10.2 23.325H13.6875C16.6875 23.325 19.0875 20.8875 19.0875 17.925V8.13751C19.7625 7.80001 20.25 7.12501 20.25 6.30001V5.36251C20.325 4.23751 19.3875 3.30001 18.2625 3.30001ZM10.2375 3.07501C10.2375 2.66251 10.575 2.32501 10.9875 2.32501H13.05C13.4625 2.32501 13.8 2.66251 13.8 3.07501V3.30001H10.275V3.07501H10.2375ZM5.3625 5.36251C5.3625 5.17501 5.5125 4.98751 5.7375 4.98751H18.2625C18.45 4.98751 18.6375 5.13751 18.6375 5.36251V6.30001C18.6375 6.48751 18.4875 6.67501 18.2625 6.67501H5.7375C5.55 6.67501 5.3625 6.52501 5.3625 6.30001V5.36251ZM13.7625 21.675H10.275C8.2125 21.675 6.5625 19.9875 6.5625 17.9625V8.36251H17.5125V17.9625C17.475 19.9875 15.7875 21.675 13.7625 21.675Z" fill="#161A23"/>
<path d="M12 11.775C11.55 11.775 11.1375 12.15 11.1375 12.6375V17.4C11.1375 17.85 11.5125 18.2625 12 18.2625C12.45 18.2625 12.8625 17.8875 12.8625 17.4V12.6375C12.8625 12.15 12.45 11.775 12 11.775Z" fill="#161A23"/>
<path d="M15.0375 12.4875C14.5875 12.4875 14.175 12.8625 14.175 13.35V16.6875C14.175 17.1375 14.55 17.55 15.0375 17.55C15.525 17.55 15.9 17.175 15.9 16.6875V13.35C15.9 12.8625 15.525 12.4875 15.0375 12.4875Z" fill="#161A23"/>
<path d="M8.96249 12.4875C8.51249 12.4875 8.09999 12.8625 8.09999 13.35V16.6875C8.09999 17.1375 8.47499 17.55 8.96249 17.55C9.44999 17.55 9.82499 17.175 9.82499 16.6875V13.35C9.78749 12.8625 9.41249 12.4875 8.96249 12.4875Z" fill="#161A23"/>
</svg>
