<svg width="24" height="24" viewBox="0 0 24 24" fill="none" xmlns="http://www.w3.org/2000/svg">
<path d="M20.5875 9.15005C20.5125 8.81255 20.2125 8.51255 19.875 8.47505C18.4125 8.28755 16.7625 8.77505 15.525 9.78755C14.4 10.6876 13.7625 11.9251 13.7625 13.0876L12.825 13.8751V8.51255C13.6875 8.25005 14.325 7.42505 14.325 6.48755C14.325 5.32505 13.35 4.35005 12.1875 4.35005H11.0625C10.8 4.35005 10.6125 4.16255 10.6125 3.90005C10.6125 3.63755 10.8 3.45005 11.0625 3.45005H13.5C13.95 3.45005 14.325 3.07505 14.325 2.62505C14.325 2.17505 13.95 1.80005 13.5 1.80005H12.8625V1.50005C12.8625 1.05005 12.4875 0.675049 12 0.675049C11.5125 0.675049 11.175 1.05005 11.175 1.50005V1.76255H11.1C9.89999 1.76255 8.96249 2.73755 8.96249 3.90005C8.96249 5.06255 9.93749 6.03755 11.1 6.03755H12.225C12.4875 6.03755 12.675 6.22505 12.675 6.48755C12.675 6.75005 12.4875 6.93755 12.225 6.93755H9.74998C9.29998 6.93755 8.92498 7.31255 8.92498 7.76255C8.92498 8.21255 9.29998 8.58755 9.74998 8.58755H11.1375V13.7626L10.275 13.0126C10.3125 11.85 9.63749 10.6501 8.51249 9.71255C7.27499 8.70005 5.62499 8.21255 4.16249 8.40005C3.78749 8.43755 3.52499 8.70005 3.44999 9.07505C3.18749 10.3876 3.82499 11.8501 5.13749 12.9001C6.18749 13.7626 7.57499 14.2501 8.88749 14.2501C8.96249 14.2501 9.03749 14.2501 9.11248 14.2501L11.1 15.9376H10.05C9.33748 15.9376 8.66249 16.2375 8.21249 16.8001C7.76249 17.3626 7.57499 18.0751 7.68749 18.7501L8.17498 21.3376C8.39998 22.4626 9.37499 23.3251 10.5375 23.3251H13.8375C15 23.3251 15.975 22.5001 16.2 21.3376L16.6875 18.7501C16.8 18.0375 16.6125 17.3251 16.1625 16.8001C15.7125 16.2751 15.0375 15.9376 14.325 15.9376H13.05L15.0375 14.2501C15.1125 14.2501 15.1875 14.2501 15.2625 14.2501C16.5375 14.2501 17.925 13.7626 19.0125 12.9001C20.2125 11.8876 20.85 10.4626 20.5875 9.15005ZM6.14999 11.625C5.58749 11.175 5.21249 10.6501 5.09999 10.125C5.92499 10.2 6.74998 10.5375 7.42498 11.0625C7.98748 11.5126 8.36249 12.0375 8.47499 12.5625C7.68749 12.5251 6.86249 12.1875 6.14999 11.625ZM14.775 17.8876C14.85 18.0001 14.9625 18.1875 14.925 18.4876L14.4375 21.0751C14.3625 21.4126 14.0625 21.6751 13.725 21.6751H10.425C10.0875 21.6751 9.78748 21.4126 9.71248 21.0751L9.22499 18.4876C9.18749 18.1875 9.29999 18.0001 9.37499 17.8876C9.44999 17.7751 9.63749 17.625 9.93748 17.625H14.25C14.5125 17.6625 14.7 17.8126 14.775 17.8876ZM17.85 11.625C17.175 12.1501 16.3125 12.5251 15.525 12.5625C15.675 12.0375 16.05 11.5126 16.575 11.0625C17.25 10.5375 18.1125 10.2 18.9 10.125C18.75 10.6501 18.375 11.175 17.85 11.625Z" fill="#161A23"/>
</svg>
