<svg width="24" height="24" viewBox="0 0 24 24" fill="none" xmlns="http://www.w3.org/2000/svg">
<g clip-path="url(#clip0_914_45462)">
<path d="M20.775 0.375H3.3C1.6875 0.375 0.375 1.6875 0.375 3.3C0.375 3.3 0.375 3.075 0.375 20.7375C0.375 22.3125 1.6875 23.625 3.3 23.625H20.7375C22.3125 23.625 23.6625 22.3125 23.6625 20.7V3.3C23.625 1.6875 22.35 0.375 20.775 0.375ZM10.6125 17.9625C10.6125 18.7125 9.975 19.35 9.225 19.35H4.9125C4.1625 19.35 3.525 18.7125 3.4875 17.9625V4.7625C3.4875 4.0125 4.125 3.375 4.875 3.375H9.15C9.9 3.375 10.5375 4.0125 10.5375 4.7625L10.6125 17.9625ZM20.625 12.15C20.625 12.9 19.9875 13.5375 19.2375 13.5375H15C14.25 13.5375 13.6125 12.9 13.6125 12.15V4.7625C13.6125 4.0125 14.25 3.375 15 3.375H19.2375C19.9875 3.375 20.625 4.0125 20.625 4.7625V12.15Z" fill="#15171A"/>
</g>
<defs>
<clipPath id="clip0_914_45462">
<rect width="24" height="24" fill="white"/>
</clipPath>
</defs>
</svg>
