<svg width="24" height="24" viewBox="0 0 24 24" fill="none" xmlns="http://www.w3.org/2000/svg">
<path d="M22.3124 8.13751H16.2749C15.8249 8.13751 15.4499 8.51251 15.4499 8.96251C15.4499 9.41251 15.8249 9.78751 16.2749 9.78751H19.9874L15.1874 13.0125C14.9999 13.1625 14.7374 13.1625 14.5124 13.0125L9.56245 9.75001C8.77495 9.22501 7.79995 9.22501 7.01245 9.75001L1.23745 13.6125C0.862446 13.875 0.749946 14.4 1.01245 14.775C1.16245 15 1.42495 15.15 1.72495 15.15C1.87495 15.15 2.06245 15.1125 2.17495 15L7.98745 11.1375C8.17495 10.9875 8.43745 10.9875 8.66245 11.1375L13.6124 14.4375C14.3999 14.9625 15.3749 14.9625 16.1624 14.4375L21.4499 10.875V15.0375C21.4499 15.4875 21.8249 15.8625 22.2749 15.8625C22.7249 15.8625 23.0999 15.4875 23.0999 15.0375V8.96251C23.1749 8.51251 22.7624 8.13751 22.3124 8.13751Z" fill="#161A23"/>
</svg>
