<svg width="24" height="24" viewBox="0 0 24 24" fill="none" xmlns="http://www.w3.org/2000/svg">
<path d="M22.3125 8.13745C21.8625 8.13745 21.4875 8.51245 21.4875 8.96245V13.125L16.125 9.56245C15.3375 9.03745 14.3625 9.03745 13.575 9.56245L8.62497 12.8625C8.43747 13.0125 8.17497 13.0125 7.94997 12.8625L2.13747 8.99995C1.76247 8.73745 1.23747 8.84995 0.974971 9.22495C0.71247 9.59995 0.824971 10.125 1.19997 10.3875L7.01247 14.25C7.79997 14.775 8.77497 14.775 9.56247 14.25L14.5125 10.95C14.7 10.8 14.9625 10.8 15.1875 10.95L19.9875 14.175H16.275C15.825 14.175 15.45 14.55 15.45 15C15.45 15.45 15.825 15.825 16.275 15.825H22.3125C22.7625 15.825 23.1375 15.45 23.1375 15V8.96245C23.175 8.51245 22.7625 8.13745 22.3125 8.13745Z" fill="#161A23"/>
</svg>
