<svg width="24" height="24" viewBox="0 0 24 24" fill="none" xmlns="http://www.w3.org/2000/svg">
<path d="M23.2125 13.4999L20.775 9.97493C20.625 9.74993 20.3625 9.59993 20.0625 9.59993H16.4625V8.99993C16.4625 7.72493 15.4125 6.67493 14.1375 6.67493H11.4C10.95 6.67493 10.575 7.04993 10.575 7.49993C10.575 7.94993 10.95 8.32493 11.4 8.32493H14.1375C14.475 8.32493 14.775 8.58743 14.775 8.96243V18.6749H11.7375C11.4375 17.6999 10.575 17.0249 9.52496 17.0249C8.47496 17.0249 7.57496 17.7374 7.31246 18.6749H5.06246C4.72496 18.6749 4.42496 18.4124 4.42496 18.0374V13.3874C4.42496 12.9374 4.04996 12.5624 3.59996 12.5624C3.14996 12.5624 2.77496 12.9374 2.77496 13.3874V18.0749C2.77496 19.3499 3.82496 20.3999 5.09996 20.3999H7.49996C7.87496 21.1499 8.66246 21.6749 9.56246 21.6749C10.4625 21.6749 11.25 21.1499 11.625 20.3999H16.8C17.175 21.1499 17.9625 21.6749 18.8625 21.6749C19.7625 21.6749 20.55 21.1499 20.925 20.3999H22.5C22.95 20.3999 23.325 20.0249 23.325 19.5749V13.9874C23.325 13.7999 23.2875 13.6499 23.2125 13.4999ZM19.6125 11.2874L21.075 13.3874H16.4625V11.2874H19.6125ZM9.52496 19.9874C9.18746 19.9874 8.88746 19.7249 8.88746 19.3499C8.88746 19.0124 9.14996 18.7124 9.52496 18.7124C9.89996 18.7124 10.1625 18.9749 10.1625 19.3499C10.125 19.6874 9.86246 19.9874 9.52496 19.9874ZM18.825 19.9874C18.4875 19.9874 18.1875 19.7249 18.1875 19.3499C18.1875 19.0124 18.45 18.7124 18.825 18.7124C19.2 18.7124 19.4625 18.9749 19.4625 19.3499C19.425 19.6874 19.1625 19.9874 18.825 19.9874ZM21.0375 18.7124C20.7375 17.7374 19.875 17.0624 18.825 17.0624C17.775 17.0624 16.875 17.7749 16.6125 18.7124H16.4625V15.0749H21.675V18.7124H21.0375Z" fill="#161A23"/>
<path d="M9.86249 10.8375V5.84998C9.86249 5.73748 9.86249 5.66248 9.82499 5.54998L8.84999 2.84998C8.73749 2.51248 8.39999 2.28748 8.06249 2.28748H2.47499C2.13749 2.28748 1.79999 2.51248 1.68749 2.84998L0.712488 5.54998C0.674988 5.62498 0.674988 5.73748 0.674988 5.84998V10.8375C0.674988 11.2875 1.04999 11.6625 1.49999 11.6625H9.03749C9.48749 11.7 9.86249 11.325 9.86249 10.8375ZM7.46249 4.01248L8.02499 5.54998H2.51249L3.07499 4.01248H7.46249ZM2.32499 10.0125V7.23748H8.17499V10.0125H2.32499Z" fill="#161A23"/>
</svg>
