<svg width="24" height="24" viewBox="0 0 24 24" fill="none" xmlns="http://www.w3.org/2000/svg">
<path d="M23.2125 14.25L21 11.025C20.85 10.8 20.5875 10.65 20.2875 10.65H17.1V10.1625C17.1 8.96255 16.125 7.98755 14.925 7.98755H12.45C12 7.98755 11.625 8.36255 11.625 8.81255C11.625 9.26255 12 9.63755 12.45 9.63755H14.925C15.1875 9.63755 15.4125 9.86255 15.4125 10.125V18.9H12.7875C12.4875 18.0375 11.7 17.4 10.725 17.4C9.74998 17.4 8.92498 18.0375 8.66248 18.9H6.67497C6.41247 18.9 6.18748 18.675 6.18748 18.4125V14.175C6.18748 13.725 5.81248 13.35 5.36248 13.35C4.91248 13.35 4.53748 13.725 4.53748 14.175V18.45C4.53748 19.65 5.51248 20.625 6.71248 20.625H8.84998C9.22498 21.3 9.93748 21.7875 10.7625 21.7875C11.5875 21.7875 12.3375 21.3 12.675 20.625H17.25C17.625 21.3 18.3375 21.7875 19.1625 21.7875C19.9875 21.7875 20.7375 21.3 21.075 20.625H22.5C22.95 20.625 23.325 20.25 23.325 19.8V14.7375C23.325 14.5875 23.2875 14.4 23.2125 14.25ZM19.8375 12.375L21.0375 14.1375H17.1V12.375H19.8375ZM10.725 20.1375C10.4625 20.1375 10.2375 19.9125 10.2375 19.65C10.2375 19.3875 10.4625 19.1625 10.725 19.1625C10.9875 19.1625 11.2125 19.3875 11.2125 19.65C11.2125 19.9125 10.9875 20.1375 10.725 20.1375ZM19.1625 20.1375C18.9 20.1375 18.675 19.9125 18.675 19.65C18.675 19.3875 18.9 19.1625 19.1625 19.1625C19.425 19.1625 19.65 19.3875 19.65 19.65C19.65 19.9125 19.425 20.1375 19.1625 20.1375ZM21.225 18.975C20.925 18.1125 20.1375 17.475 19.1625 17.475C18.1875 17.475 17.4 18.1125 17.1 18.975V15.825H21.675V18.975H21.225Z" fill="#161A23"/>
<path d="M11.1 7.42505C11.1 4.53755 8.73749 2.17505 5.88749 2.17505C3.03749 2.17505 0.674988 4.53755 0.674988 7.42505C0.674988 10.3125 3.03749 12.675 5.88749 12.675C8.73749 12.675 11.1 10.3125 11.1 7.42505ZM2.32499 7.42505C2.32499 5.47505 3.89999 3.86255 5.84999 3.86255C7.79999 3.86255 9.37499 5.47505 9.37499 7.42505C9.37499 9.37505 7.79999 10.9875 5.84999 10.9875C3.93749 10.9875 2.32499 9.37505 2.32499 7.42505Z" fill="#161A23"/>
<path d="M8.06248 7.61255C8.39998 7.27505 8.39998 6.75005 8.06248 6.41255C7.72498 6.07505 7.19998 6.07505 6.86248 6.41255L5.88748 7.38755L4.91248 6.41255C4.57498 6.07505 4.04998 6.07505 3.71248 6.41255C3.37498 6.75005 3.37498 7.31255 3.71248 7.65005L5.24998 9.22505C5.39998 9.37505 5.62498 9.48755 5.84998 9.48755C6.07498 9.48755 6.29998 9.41255 6.44998 9.22505L8.06248 7.61255Z" fill="#161A23"/>
</svg>
