<svg width="24" height="24" viewBox="0 0 24 24" fill="none" xmlns="http://www.w3.org/2000/svg">
<path d="M23.2125 13.65L20.5875 9.86255C20.4375 9.63755 20.175 9.48755 19.875 9.48755H15.9375V8.73755C15.9375 7.38755 14.85 6.30005 13.5 6.30005H10.575C10.125 6.30005 9.74998 6.67505 9.74998 7.12505C9.74998 7.57505 10.125 7.95005 10.575 7.95005H13.5C13.9125 7.95005 14.25 8.28755 14.25 8.70005V19.2375H10.875C10.6125 18.225 9.63748 17.4375 8.54998 17.4375C7.46248 17.4375 6.48748 18.1875 6.22498 19.2375H3.74998C3.33748 19.2375 2.99998 18.9 2.99998 18.4875V13.4625C2.99998 13.0125 2.62498 12.6375 2.17498 12.6375C1.72498 12.6375 1.34998 13.0125 1.34998 13.4625V18.525C1.34998 19.875 2.43748 20.9625 3.78748 20.9625H6.41248C6.78748 21.7875 7.64998 22.35 8.58748 22.35C9.52497 22.35 10.3875 21.7875 10.7625 20.9625H16.3875C16.7625 21.7875 17.625 22.35 18.5625 22.35C19.5 22.35 20.3625 21.7875 20.7375 20.9625H22.5C22.95 20.9625 23.325 20.5875 23.325 20.1375V14.1375C23.325 13.95 23.2875 13.8 23.2125 13.65ZM19.425 11.175L21.075 13.5375H15.9375V11.175H19.425ZM8.54998 20.625C8.13748 20.625 7.79998 20.2875 7.79998 19.875C7.79998 19.4625 8.13748 19.125 8.54998 19.125C8.96248 19.125 9.29998 19.4625 9.29998 19.875C9.29998 20.2875 8.92498 20.625 8.54998 20.625ZM18.525 20.625C18.1125 20.625 17.775 20.2875 17.775 19.875C17.775 19.4625 18.1125 19.125 18.525 19.125C18.9375 19.125 19.275 19.4625 19.275 19.875C19.275 20.2875 18.9375 20.625 18.525 20.625ZM20.85 19.275C20.5875 18.2625 19.6125 17.475 18.525 17.475C17.4375 17.475 16.4625 18.225 16.2 19.275H15.9375V15.225H21.675V19.275H20.85Z" fill="#161A23"/>
<path d="M3.97499 11.325C4.12499 11.475 4.34999 11.55 4.57499 11.55C4.79999 11.55 4.98749 11.475 5.13749 11.325C5.47499 10.9875 8.47499 8.10002 8.47499 5.55002C8.47499 3.41252 6.71249 1.65002 4.57499 1.65002C2.43749 1.65002 0.674988 3.41252 0.674988 5.58752C0.674988 8.06252 3.63749 11.025 3.97499 11.325ZM4.57499 3.37502C5.81249 3.37502 6.78749 4.38752 6.78749 5.58752C6.78749 6.82502 5.47499 8.51252 4.57499 9.52502C3.67499 8.51252 2.36249 6.78752 2.36249 5.58752C2.32499 4.35002 3.33749 3.37502 4.57499 3.37502Z" fill="#161A23"/>
<path d="M5.4 6.00005C5.4 5.55005 5.025 5.17505 4.575 5.17505C4.125 5.17505 3.75 5.55005 3.75 6.00005C3.75 6.45005 4.125 6.82505 4.575 6.82505C5.025 6.82505 5.4 6.48755 5.4 6.00005Z" fill="#161A23"/>
</svg>
