<svg width="24" height="24" viewBox="0 0 24 24" fill="none" xmlns="http://www.w3.org/2000/svg">
<g clip-path="url(#clip0_501_44670)">
<path d="M23.2125 14.2125L20.5125 10.275C20.3625 10.05 20.1 9.90001 19.8 9.90001H15.675V9.11251C15.675 7.76251 14.55 6.63751 13.2 6.63751H10.1625C9.71249 6.63751 9.33749 7.01251 9.33749 7.46251C9.33749 7.91251 9.71249 8.28751 10.1625 8.28751H13.2C13.65 8.28751 13.9875 8.62501 13.9875 9.07501V19.95H10.4625C10.2 18.9 9.22499 18.1125 8.06249 18.1125C6.89999 18.1125 5.96249 18.9 5.66249 19.95H3.11249C2.66249 19.95 2.32499 19.6125 2.32499 19.1625V14.025C2.32499 13.575 1.94999 13.2 1.49999 13.2C1.04999 13.2 0.674988 13.575 0.674988 14.025V19.2375C0.674988 20.5875 1.79999 21.7125 3.14999 21.7125H5.88749C6.29999 22.5375 7.12499 23.1375 8.13749 23.1375C9.14999 23.1375 9.97499 22.575 10.3875 21.7125H16.2375C16.65 22.5375 17.475 23.1375 18.4875 23.1375C19.5 23.1375 20.325 22.575 20.7375 21.7125H22.6125C23.0625 21.7125 23.4375 21.3375 23.4375 20.8875V14.6625C23.325 14.5125 23.2875 14.325 23.2125 14.2125ZM19.35 11.5875L21.075 14.1H15.675V11.5875H19.35ZM8.09999 21.4125C7.64999 21.4125 7.31249 21.075 7.31249 20.625C7.31249 20.175 7.64999 19.8375 8.09999 19.8375C8.54999 19.8375 8.88749 20.175 8.88749 20.625C8.88749 21.075 8.51249 21.4125 8.09999 21.4125ZM18.4125 21.4125C17.9625 21.4125 17.625 21.075 17.625 20.625C17.625 20.175 17.9625 19.8375 18.4125 19.8375C18.8625 19.8375 19.2 20.175 19.2 20.625C19.2 21.075 18.825 21.4125 18.4125 21.4125ZM20.775 20.025C20.5125 18.975 19.5375 18.1875 18.375 18.1875C17.2125 18.1875 16.275 18.975 15.975 20.025H15.6375V15.7875H21.6V19.9875H20.775V20.025Z" fill="#161A23"/>
<path d="M2.58749 3.03752C2.92499 2.73752 3.33749 2.58752 3.78749 2.58752C4.79999 2.58752 5.58749 3.41252 5.58749 4.38752C5.58749 5.36252 4.76249 6.18752 3.78749 6.18752C3.33749 6.18752 2.96249 6.56252 2.96249 7.01252V9.26252C2.96249 9.71252 3.33749 10.0875 3.78749 10.0875C4.23749 10.0875 4.61249 9.71252 4.61249 9.26252V7.76252C6.14999 7.38752 7.27499 6.00002 7.27499 4.38752C7.27499 2.47502 5.69999 0.900024 3.78749 0.900024C2.92499 0.900024 2.09999 1.20002 1.46249 1.80002C1.12499 2.06252 1.08749 2.62502 1.42499 2.96252C1.72499 3.30002 2.24999 3.33752 2.58749 3.03752Z" fill="#161A23"/>
<path d="M3.78749 10.65C3.33749 10.65 2.96249 11.025 2.96249 11.475V11.625C2.96249 12.075 3.33749 12.45 3.78749 12.45C4.23749 12.45 4.61249 12.075 4.61249 11.625V11.475C4.61249 11.025 4.23749 10.65 3.78749 10.65Z" fill="#161A23"/>
</g>
<defs>
<clipPath id="clip0_501_44670">
<rect width="24" height="24" fill="white"/>
</clipPath>
</defs>
</svg>
