<svg width="24" height="24" viewBox="0 0 24 24" fill="none" xmlns="http://www.w3.org/2000/svg">
<path d="M23.2125 14.0249L20.925 10.7249C20.775 10.4999 20.5125 10.3499 20.2125 10.3499H16.9125V9.82493C16.9125 8.58743 15.9375 7.61243 14.7 7.61243H12.15C11.7 7.61243 11.325 7.98743 11.325 8.43743C11.325 8.88743 11.7 9.26243 12.15 9.26243H14.7C15 9.26243 15.225 9.48743 15.225 9.78743V18.8249H12.4875C12.1875 17.9249 11.3625 17.2874 10.3875 17.2874C9.41249 17.2874 8.54999 17.9249 8.28749 18.8249H6.22499C5.92499 18.8249 5.69999 18.5999 5.69999 18.2999V13.9499C5.69999 13.4999 5.32499 13.1249 4.87499 13.1249C4.42499 13.1249 4.04999 13.4999 4.04999 13.9499V18.3374C4.04999 19.5749 5.02499 20.5499 6.26249 20.5499H8.47499C8.84999 21.2624 9.59999 21.7499 10.425 21.7499C11.25 21.7499 12 21.2624 12.375 20.5499H17.1375C17.5125 21.2624 18.2625 21.7499 19.0875 21.7499C19.9125 21.7499 20.6625 21.2624 21.0375 20.5499H22.5375C22.9875 20.5499 23.3625 20.1749 23.3625 19.7249V14.5124C23.325 14.3624 23.2875 14.1749 23.2125 14.0249ZM19.7625 12.0749L21.0375 13.9124H16.9125V12.0749H19.7625ZM10.3875 20.0624C10.0875 20.0624 9.86249 19.8374 9.86249 19.5374C9.86249 19.2374 10.0875 19.0124 10.3875 19.0124C10.6875 19.0124 10.9125 19.2374 10.9125 19.5374C10.9125 19.8374 10.6875 20.0624 10.3875 20.0624ZM19.05 20.0624C18.75 20.0624 18.525 19.8374 18.525 19.5374C18.525 19.2374 18.75 19.0124 19.05 19.0124C19.35 19.0124 19.575 19.2374 19.575 19.5374C19.575 19.8374 19.35 20.0624 19.05 20.0624ZM21.15 18.8624C20.85 17.9624 20.025 17.3249 19.05 17.3249C18.075 17.3249 17.2125 17.9624 16.95 18.8624H16.9125V15.5999H21.675V18.8624H21.15Z" fill="#161A23"/>
<path d="M5.43749 11.8125C8.06249 11.8125 10.2 9.67498 10.2 7.04998C10.2 5.84998 9.74999 4.72498 8.99999 3.89998C8.99999 3.86248 8.96249 3.86248 8.96249 3.82498L8.92499 3.78748C8.06249 2.84998 6.82499 2.28748 5.47499 2.28748C2.84999 2.28748 0.712494 4.42498 0.712494 7.04998C0.712494 8.32498 1.19999 9.44998 2.02499 10.3125L2.06249 10.35C2.06249 10.35 2.09999 10.35 2.09999 10.3875C2.88749 11.25 4.08749 11.8125 5.43749 11.8125ZM5.43749 10.125C4.87499 10.125 4.34999 9.97498 3.89999 9.71248L8.17499 5.66248C8.36249 6.07498 8.51249 6.52498 8.51249 7.01248C8.51249 8.73748 7.12499 10.125 5.43749 10.125ZM5.43749 3.93748C6.03749 3.93748 6.59999 4.12498 7.04999 4.38748L2.69999 8.51248C2.47499 8.06248 2.32499 7.57498 2.32499 7.04998C2.32499 5.32498 3.71249 3.93748 5.43749 3.93748Z" fill="#161A23"/>
</svg>
