<svg width="24" height="24" viewBox="0 0 24 24" fill="none" xmlns="http://www.w3.org/2000/svg">
<path d="M23.2125 14.8875L20.925 11.55C20.775 11.325 20.5125 11.175 20.2125 11.175H16.875V10.65C16.875 9.4125 15.8625 8.4375 14.6625 8.4375H12.1125C11.6625 8.4375 11.2875 8.8125 11.2875 9.2625C11.2875 9.7125 11.6625 10.0875 12.1125 10.0875H14.625C14.925 10.0875 15.15 10.3125 15.15 10.6125V19.725H12.375C12.075 18.825 11.25 18.15 10.2375 18.15C9.22499 18.15 8.39999 18.825 8.09999 19.725H6.03749C5.73749 19.725 5.51249 19.5 5.51249 19.2V14.8125C5.51249 14.3625 5.13749 13.9875 4.68749 13.9875C4.23749 13.9875 3.86249 14.3625 3.86249 14.8125V19.2375C3.86249 20.475 4.87499 21.45 6.07499 21.45H8.28749C8.66249 22.1625 9.41249 22.65 10.275 22.65C11.1375 22.65 11.8875 22.1625 12.2625 21.45H17.0625C17.4375 22.1625 18.1875 22.65 19.05 22.65C19.9125 22.65 20.6625 22.1625 21.0375 21.45H22.5375C22.9875 21.45 23.3625 21.075 23.3625 20.625V15.375C23.325 15.225 23.2875 15.0375 23.2125 14.8875ZM19.7625 12.9L21.0375 14.775H16.8375V12.9H19.7625ZM10.275 20.9625C9.97499 20.9625 9.74999 20.7375 9.74999 20.4375C9.74999 20.1375 9.97499 19.9125 10.275 19.9125C10.575 19.9125 10.8 20.1375 10.8 20.4375C10.8 20.7375 10.575 20.9625 10.275 20.9625ZM19.0125 20.9625C18.7125 20.9625 18.4875 20.7375 18.4875 20.4375C18.4875 20.1375 18.7125 19.9125 19.0125 19.9125C19.3125 19.9125 19.5375 20.1375 19.5375 20.4375C19.5375 20.7375 19.3125 20.9625 19.0125 20.9625ZM21.15 19.7625C20.85 18.8625 20.025 18.1875 19.0125 18.1875C18 18.1875 17.175 18.8625 16.875 19.7625H16.8375V16.4625H21.6375V19.7625H21.15Z" fill="#161A23"/>
<path d="M9.89999 7.68752C9.89999 7.08752 9.78749 6.52502 9.56249 6.00002C9.37499 5.55002 8.88749 5.36252 8.47499 5.51252C8.02499 5.70002 7.83749 6.18752 7.98749 6.60002C8.13749 6.93752 8.17499 7.31252 8.17499 7.68752C8.17499 9.30002 6.86249 10.6125 5.24999 10.6125C3.63749 10.6125 2.32499 9.30002 2.32499 7.68752C2.32499 6.22502 3.37499 5.02502 4.76249 4.80002L4.53749 5.02502C4.19999 5.36252 4.19999 5.88752 4.53749 6.22502C4.68749 6.37502 4.91249 6.48752 5.13749 6.48752C5.36249 6.48752 5.58749 6.41252 5.73749 6.22502L7.46249 4.50002C7.79999 4.16252 7.79999 3.63752 7.46249 3.30002L5.73749 1.57502C5.39999 1.23752 4.87499 1.23752 4.53749 1.57502C4.19999 1.91252 4.19999 2.43752 4.53749 2.77502L4.87499 3.07502C2.51249 3.30002 0.674988 5.28752 0.674988 7.68752C0.674988 10.2375 2.73749 12.3 5.28749 12.3C7.83749 12.3 9.89999 10.2375 9.89999 7.68752Z" fill="#161A23"/>
</svg>
