<svg width="24" height="24" viewBox="0 0 24 24" fill="none" xmlns="http://www.w3.org/2000/svg">
<path d="M4.08749 11.325C4.19999 11.4 4.34999 11.4 4.46249 11.4C4.61249 11.4 4.72499 11.3625 4.83749 11.325C5.66249 10.9125 8.24999 9.375 8.24999 6.6V4.2375C8.24999 3.8625 8.02499 3.5625 7.68749 3.45L4.72499 2.4C4.53749 2.325 4.34999 2.325 4.16249 2.4L1.23749 3.45C0.899988 3.5625 0.674988 3.9 0.674988 4.2375V6.6C0.674988 9.375 3.26249 10.9125 4.08749 11.325ZM2.32499 4.875L4.42499 4.125L6.52499 4.875V6.6375C6.52499 8.1375 5.13749 9.1875 4.38749 9.6375C3.63749 9.1875 2.28749 8.1375 2.28749 6.6375V4.875H2.32499Z" fill="#161A23"/>
<path d="M23.2125 12.9L20.55 9.07495C20.4 8.84995 20.1375 8.69995 19.8375 8.69995H15.9V7.94995C15.9 6.59995 14.8125 5.51245 13.4625 5.51245H10.5C10.05 5.51245 9.67499 5.88745 9.67499 6.33745C9.67499 6.78745 10.05 7.16245 10.5 7.16245H13.4625C13.875 7.16245 14.2125 7.49995 14.2125 7.91245V18.4875H10.8C10.5375 17.4375 9.56249 16.6875 8.47499 16.6875C7.34999 16.6875 6.41249 17.4375 6.14999 18.4875H3.63749C3.22499 18.4875 2.88749 18.15 2.88749 17.7375V12.7125C2.88749 12.2625 2.51249 11.8875 2.06249 11.8875C1.61249 11.8875 1.23749 12.2625 1.23749 12.7125V17.8125C1.23749 19.1625 2.32499 20.25 3.67499 20.25H6.29999C6.67499 21.075 7.53749 21.6375 8.47499 21.6375C9.44999 21.6375 10.275 21.075 10.65 20.25H16.3125C16.6875 21.075 17.55 21.6375 18.4875 21.6375C19.425 21.6375 20.2875 21.075 20.6625 20.25H22.5C22.95 20.25 23.325 19.875 23.325 19.425V13.425C23.325 13.2 23.2875 13.05 23.2125 12.9ZM19.425 10.3875L21.075 12.7875H15.9V10.3875H19.425ZM8.47499 19.9125C8.06249 19.9125 7.72499 19.575 7.72499 19.1625C7.72499 18.75 8.06249 18.4125 8.47499 18.4125C8.88749 18.4125 9.22499 18.75 9.22499 19.1625C9.22499 19.575 8.84999 19.9125 8.47499 19.9125ZM18.525 19.9125C18.1125 19.9125 17.775 19.575 17.775 19.1625C17.775 18.75 18.1125 18.4125 18.525 18.4125C18.9375 18.4125 19.275 18.75 19.275 19.1625C19.275 19.575 18.9 19.9125 18.525 19.9125ZM20.85 18.5625C20.5875 17.5125 19.6125 16.7625 18.525 16.7625C17.4375 16.7625 16.4625 17.5125 16.2 18.5625H15.9375V14.475H21.7125V18.525H20.85V18.5625Z" fill="#161A23"/>
</svg>
