<svg width="24" height="24" viewBox="0 0 24 24" fill="none" xmlns="http://www.w3.org/2000/svg">
<path d="M4.53749 12.2625H8.28749C9.52499 12.2625 10.425 11.5125 10.575 10.35L11.0625 7.34998C11.175 6.63748 10.9125 5.88748 10.35 5.39998C9.97499 5.09998 9.48749 4.91248 9.03749 4.91248H8.13749V4.38748C8.13749 3.29998 7.68749 2.77498 7.31249 2.47498C6.97499 2.21248 6.52499 2.09998 6.03749 2.09998C5.73749 2.09998 5.24999 2.17498 5.13749 2.21248C4.68749 2.36248 4.38749 2.77498 4.38749 3.22498V4.76248C4.38749 4.98748 4.23749 5.17498 4.08749 5.28748C3.97499 5.21248 3.82499 5.17498 3.67499 5.17498H1.31249C0.862488 5.17498 0.487488 5.54998 0.487488 5.99998V11.5125C0.487488 11.9625 0.862488 12.3375 1.31249 12.3375H3.63749C3.82499 12.3375 3.97499 12.2625 4.12499 12.1875C4.27499 12.225 4.38749 12.2625 4.53749 12.2625ZM6.03749 4.76248V3.78748C6.11249 3.78748 6.22499 3.78748 6.29999 3.86248C6.44999 3.97498 6.44999 4.27498 6.44999 4.42498V5.77498C6.44999 6.22498 6.82499 6.59998 7.27499 6.59998H8.99999C9.07499 6.59998 9.14999 6.63748 9.22499 6.67498C9.33749 6.74998 9.37499 6.89998 9.33749 7.04998L8.88749 10.125C8.84999 10.35 8.77499 10.575 8.28749 10.575H4.53749H4.49999V7.01248C5.21249 6.63748 6.03749 5.88748 6.03749 4.76248ZM2.81249 10.6875H2.17499V6.86248H2.81249V10.6875Z" fill="#161A23"/>
<path d="M23.4 14.175L21.1125 10.8375C20.9625 10.6125 20.7 10.4625 20.4 10.4625H17.0625V9.93748C17.0625 8.69998 16.05 7.72498 14.85 7.72498H12.3C11.85 7.72498 11.475 8.09998 11.475 8.54998C11.475 8.99998 11.85 9.37498 12.3 9.37498H14.85C15.15 9.37498 15.375 9.59998 15.375 9.89998V18.975H12.6375C12.3375 18.075 11.5125 17.4 10.5 17.4C9.525 17.4 8.6625 18.0375 8.3625 18.975H6.3C6 18.975 5.775 18.75 5.775 18.45V14.0625C5.775 13.6125 5.4 13.2375 4.95 13.2375C4.5 13.2375 4.125 13.6125 4.125 14.0625V18.4875C4.125 19.725 5.1375 20.7 6.3375 20.7H8.55C8.925 21.4125 9.675 21.9 10.5 21.9C11.3625 21.9 12.1125 21.4125 12.45 20.7H17.25C17.625 21.4125 18.375 21.9 19.2 21.9C20.025 21.9 20.8125 21.4125 21.1875 20.7H22.6875C23.1375 20.7 23.5125 20.325 23.5125 19.875V14.625C23.55 14.475 23.475 14.2875 23.4 14.175ZM19.95 12.15L21.225 14.025H17.0625V12.15H19.95ZM10.5 20.2125C10.2 20.2125 9.975 19.9875 9.975 19.6875C9.975 19.3875 10.2 19.1625 10.5 19.1625C10.8 19.1625 11.025 19.3875 11.025 19.6875C11.025 19.9875 10.8 20.2125 10.5 20.2125ZM19.2375 20.2125C18.9375 20.2125 18.7125 19.9875 18.7125 19.6875C18.7125 19.3875 18.9375 19.1625 19.2375 19.1625C19.5375 19.1625 19.7625 19.3875 19.7625 19.6875C19.7625 19.9875 19.5 20.2125 19.2375 20.2125ZM21.3375 19.0125C21.0375 18.1125 20.2125 17.4375 19.2 17.4375C18.1875 17.4375 17.3625 18.075 17.0625 19.0125H17.025V15.7125H21.825V19.0125H21.3375Z" fill="#161A23"/>
</svg>
