<svg width="24" height="24" viewBox="0 0 24 24" fill="none" xmlns="http://www.w3.org/2000/svg">
<path d="M23.2125 12.4126L20.5875 8.62507C20.4375 8.40007 20.175 8.25007 19.875 8.25007H15.975V7.53757C15.975 6.22507 14.8875 5.13757 13.575 5.13757H10.65C10.2 5.13757 9.825 5.51257 9.825 5.96257C9.825 6.41257 10.2 6.78757 10.65 6.78757H13.575C13.9875 6.78757 14.2875 7.12507 14.2875 7.50007V18.0001H10.95C10.6875 16.9876 9.75 16.2376 8.625 16.2376C7.5 16.2376 6.6 16.9876 6.3 18.0001H3.8625C3.45 18.0001 3.15 17.6626 3.15 17.2876V12.2626C3.15 11.8126 2.775 11.4376 2.325 11.4376C1.875 11.4376 1.5 11.8126 1.5 12.2626V17.2501C1.5 18.5626 2.5875 19.6501 3.9 19.6501H6.4875C6.8625 20.4376 7.6875 21.0001 8.6625 21.0001C9.6375 21.0001 10.425 20.4376 10.8375 19.6501H16.425C16.8 20.4376 17.625 21.0001 18.6 21.0001C19.575 21.0001 20.3625 20.4376 20.775 19.6501H22.5C22.95 19.6501 23.325 19.2751 23.325 18.8251V12.9001C23.325 12.7126 23.2875 12.5626 23.2125 12.4126ZM19.4625 9.97507L21.075 12.3376H15.975V9.97507H19.4625ZM8.625 19.3501C8.2125 19.3501 7.9125 19.0126 7.9125 18.6376C7.9125 18.2626 8.25 17.9251 8.625 17.9251C9 17.9251 9.3375 18.2626 9.3375 18.6376C9.3375 19.0126 9.0375 19.3501 8.625 19.3501ZM18.5625 19.3501C18.15 19.3501 17.85 19.0126 17.85 18.6376C17.85 18.2626 18.1875 17.9251 18.5625 17.9251C18.9375 17.9251 19.275 18.2626 19.275 18.6376C19.275 19.0126 18.975 19.3501 18.5625 19.3501ZM20.8875 18.0001C20.625 16.9876 19.6875 16.2376 18.5625 16.2376C17.4375 16.2376 16.5375 16.9876 16.2375 18.0001H15.975V13.9876H21.6375V18.0001H20.8875Z" fill="#161A23"/>
<path d="M1.7625 9.30002C1.7625 9.56252 1.9125 9.82502 2.1 9.97502C2.325 10.125 2.5875 10.1625 2.85 10.0875L4.3875 9.60002L5.925 10.0875C6 10.125 6.075 10.125 6.1875 10.125C6.375 10.125 6.525 10.0875 6.675 9.97502C6.9 9.82502 7.0125 9.56252 7.0125 9.30002V7.68752L7.95 6.37502C8.1 6.15002 8.1375 5.88752 8.0625 5.62502C7.9875 5.36252 7.8 5.17502 7.5375 5.10002L6.0375 4.57502L5.1 3.30002C4.95 3.07502 4.6875 2.96252 4.425 2.96252C4.1625 2.96252 3.9 3.07502 3.75 3.30002L2.8125 4.57502L1.3125 5.10002C1.05 5.17502 0.8625 5.40002 0.7875 5.62502C0.7125 5.88752 0.75 6.15002 0.9 6.37502L1.8375 7.68752L1.7625 9.30002ZM3.525 6.11252C3.675 6.07502 3.825 5.96252 3.9375 5.81252L4.3875 5.21252L4.8375 5.81252C4.95 5.96252 5.1 6.03752 5.25 6.11252L5.925 6.33752L5.5125 6.93752C5.4 7.08752 5.3625 7.23752 5.3625 7.42502V8.13752L4.6875 7.91252C4.5375 7.87502 4.35 7.87502 4.2 7.91252L3.525 8.13752V7.42502C3.525 7.23752 3.4875 7.08752 3.375 6.93752L2.9625 6.33752L3.525 6.11252Z" fill="#161A23"/>
</svg>
