<svg width="24" height="24" viewBox="0 0 24 24" fill="none" xmlns="http://www.w3.org/2000/svg">
<path d="M23.2125 12.2625L20.5125 8.325C20.3625 8.1 20.1 7.95 19.8 7.95H15.675V7.1625C15.675 5.8125 14.55 4.6875 13.2 4.6875H10.1625C9.71249 4.6875 9.33749 5.0625 9.33749 5.5125C9.33749 5.9625 9.71249 6.3375 10.1625 6.3375H13.2C13.65 6.3375 13.9875 6.675 13.9875 7.125V18.0375H10.4625C10.2 16.9875 9.22499 16.2 8.06249 16.2C6.89999 16.2 5.96249 16.9875 5.66249 18.0375H3.11249C2.66249 18.0375 2.32499 17.7 2.32499 17.25V12.075C2.32499 11.625 1.94999 11.25 1.49999 11.25C1.04999 11.25 0.674988 11.625 0.674988 12.075V17.2875C0.674988 18.6375 1.79999 19.7625 3.14999 19.7625H5.88749C6.29999 20.5875 7.12499 21.1875 8.13749 21.1875C9.14999 21.1875 9.97499 20.5875 10.3875 19.7625H16.2375C16.65 20.5875 17.475 21.1875 18.4875 21.1875C19.5 21.1875 20.325 20.5875 20.7375 19.7625H22.6125C23.0625 19.7625 23.4375 19.3875 23.4375 18.9375V12.75C23.325 12.6 23.2875 12.4125 23.2125 12.2625ZM19.35 9.675L21.075 12.1875H15.675V9.675H19.35ZM8.09999 19.5375C7.64999 19.5375 7.31249 19.2 7.31249 18.75C7.31249 18.3 7.64999 17.9625 8.09999 17.9625C8.54999 17.9625 8.88749 18.3 8.88749 18.75C8.88749 19.2 8.51249 19.5375 8.09999 19.5375ZM18.4125 19.5375C17.9625 19.5375 17.625 19.2 17.625 18.75C17.625 18.3 17.9625 17.9625 18.4125 17.9625C18.8625 17.9625 19.2 18.3 19.2 18.75C19.2 19.2 18.825 19.5375 18.4125 19.5375ZM20.775 18.1125C20.5125 17.0625 19.5375 16.275 18.375 16.275C17.2125 16.275 16.275 17.0625 15.975 18.1125H15.6375V13.875H21.6V18.1125H20.775Z" fill="#161A23"/>
<path d="M3.8625 9.07502C4.425 9.07502 4.95 8.92502 5.4 8.66252L6.8625 10.125C7.0125 10.275 7.2375 10.3875 7.4625 10.3875C7.6875 10.3875 7.9125 10.3125 8.0625 10.125C8.4 9.78752 8.4 9.26252 8.0625 8.92502L6.6 7.46252C7.275 6.26252 7.0875 4.72502 6.075 3.71252C5.475 3.11252 4.6875 2.81252 3.8625 2.81252C3.0375 2.77502 2.25 3.11252 1.65 3.71252C0.45 4.95002 0.45 6.93752 1.65 8.13752C2.25 8.73752 3.0375 9.07502 3.8625 9.07502ZM2.85 4.91252C3.1125 4.65002 3.4875 4.50002 3.8625 4.50002C4.2375 4.50002 4.6125 4.65002 4.875 4.91252C5.4375 5.47502 5.4375 6.37502 4.875 6.97502C4.3125 7.53752 3.375 7.53752 2.85 6.97502C2.2875 6.37502 2.2875 5.47502 2.85 4.91252Z" fill="#161A23"/>
</svg>
