<svg width="24" height="24" viewBox="0 0 24 24" fill="none" xmlns="http://www.w3.org/2000/svg">
<path d="M6.11248 13.125C6.37498 13.125 6.63748 13.05 6.89998 12.9375L10.6875 11.025C11.2875 10.725 11.6625 10.125 11.6625 9.45002V5.06252C11.6625 4.68752 11.55 4.35002 11.3625 4.08752C11.3625 4.05002 11.325 4.05002 11.325 4.01252C11.1375 3.78752 10.9125 3.60002 10.65 3.45002L6.86248 1.72502C6.41248 1.50002 5.84998 1.50002 5.39998 1.72502L1.61248 3.48752C1.34998 3.60002 1.12498 3.78752 0.937476 4.01252C0.899976 4.05002 0.899976 4.05002 0.862476 4.08752C0.862476 4.12502 0.824976 4.12502 0.824976 4.16252C0.674976 4.42502 0.599976 4.72502 0.599976 5.02502V9.41252C0.599976 10.0875 0.974976 10.6875 1.57498 10.9875L5.36248 12.9C5.58748 13.0875 5.84998 13.125 6.11248 13.125ZM3.89998 4.27502L6.59998 5.62502L6.14998 5.85002L3.41248 4.50002L3.89998 4.27502ZM9.93748 9.52502L6.97498 11.025V7.31252L7.64998 6.97502V7.68752C7.64998 8.13752 8.02498 8.51252 8.47498 8.51252C8.92498 8.51252 9.29998 8.13752 9.29998 7.68752V6.15002L9.97498 5.81252V9.45002C9.97498 9.48752 9.97498 9.52502 9.93748 9.52502ZM6.11248 3.26252C6.14998 3.26252 6.14998 3.26252 6.11248 3.26252L8.84998 4.50002L8.47498 4.68752L5.84998 3.37502L6.11248 3.26252ZM2.28748 9.48752V5.85002L5.28748 7.31252V11.025L2.32498 9.52502C2.28748 9.52502 2.28748 9.48752 2.28748 9.48752Z" fill="#161A23"/>
<path d="M23.25 15L21.075 11.85C20.925 11.625 20.6625 11.475 20.3625 11.475H17.25V11.025C17.25 9.82501 16.275 8.88751 15.1125 8.88751H13.425C12.975 8.88751 12.6 9.26251 12.6 9.71251C12.6 10.1625 12.975 10.5375 13.425 10.5375H15.1125C15.375 10.5375 15.5625 10.7625 15.5625 10.9875V19.575H13.0125C12.7125 18.7125 11.925 18.1125 10.95 18.1125C10.0125 18.1125 9.1875 18.75 8.925 19.575H6.975C6.7125 19.575 6.525 19.35 6.525 19.125V15.3C6.525 14.85 6.15 14.475 5.7 14.475C5.25 14.475 4.875 14.85 4.875 15.3V19.125C4.875 20.325 5.85 21.2625 7.0125 21.2625H9.1125C9.4875 21.9375 10.2 22.3875 11.025 22.3875C11.85 22.3875 12.5625 21.9375 12.9375 21.2625H17.4375C17.8125 21.9375 18.525 22.3875 19.35 22.3875C20.175 22.3875 20.8875 21.9375 21.2625 21.2625H22.65C23.1 21.2625 23.475 20.8875 23.475 20.4375V15.4875C23.4 15.3 23.3625 15.15 23.25 15ZM19.95 13.1625L21.1125 14.85H17.25V13.1625H19.95ZM10.9875 20.7375C10.725 20.7375 10.5375 20.5125 10.5375 20.2875C10.5375 20.0625 10.7625 19.8375 10.9875 19.8375C11.25 19.8375 11.4375 20.0625 11.4375 20.2875C11.4375 20.5125 11.25 20.7375 10.9875 20.7375ZM19.275 20.7375C19.0125 20.7375 18.825 20.5125 18.825 20.2875C18.825 20.0625 19.05 19.8375 19.275 19.8375C19.5 19.8375 19.725 20.0625 19.725 20.2875C19.725 20.5125 19.5375 20.7375 19.275 20.7375ZM21.3375 19.575C21.0375 18.7125 20.25 18.1125 19.3125 18.1125C18.375 18.1125 17.5875 18.7125 17.2875 19.5V16.5375H21.75V19.6125H21.3375V19.575Z" fill="#161A23"/>
</svg>
