<svg width="24" height="24" viewBox="0 0 24 24" fill="none" xmlns="http://www.w3.org/2000/svg">
<path d="M23.2125 13.1624L20.55 9.29993C20.4 9.07493 20.1375 8.92493 19.8375 8.92493H15.8625V8.17493C15.8625 6.82493 14.775 5.73743 13.425 5.73743H10.4625C10.0125 5.73743 9.63749 6.11243 9.63749 6.56243C9.63749 7.01243 10.0125 7.38743 10.4625 7.38743H13.425C13.8375 7.38743 14.175 7.72493 14.175 8.13743V18.7874H10.7625C10.5 17.7374 9.52498 16.9874 8.39998 16.9874C7.27498 16.9874 6.33748 17.7374 6.03749 18.7874H3.52498C3.11248 18.7874 2.77498 18.4499 2.77498 18.0374V12.9749C2.77498 12.5249 2.39998 12.1499 1.94998 12.1499C1.49998 12.1499 1.12498 12.5249 1.12498 12.9749V18.0749C1.12498 19.4249 2.21248 20.5124 3.56248 20.5124H6.22499C6.63749 21.3374 7.46248 21.8999 8.43748 21.8999C9.41249 21.8999 10.2375 21.3374 10.65 20.5124H16.35C16.7625 21.3374 17.5875 21.8999 18.5625 21.8999C19.5375 21.8999 20.3625 21.3374 20.775 20.5124H22.5C22.95 20.5124 23.325 20.1374 23.325 19.6874V13.6499C23.325 13.4624 23.2875 13.3124 23.2125 13.1624ZM19.3875 10.6499L21.075 13.0874H15.8625V10.6499H19.3875ZM8.39998 20.2124C7.98748 20.2124 7.64998 19.8749 7.64998 19.4624C7.64998 19.0499 7.98748 18.7124 8.39998 18.7124C8.81248 18.7124 9.14998 19.0499 9.14998 19.4624C9.14998 19.8749 8.81248 20.2124 8.39998 20.2124ZM18.4875 20.2124C18.075 20.2124 17.7375 19.8749 17.7375 19.4624C17.7375 19.0499 18.075 18.7124 18.4875 18.7124C18.9 18.7124 19.2375 19.0499 19.2375 19.4624C19.2375 19.8749 18.9 20.2124 18.4875 20.2124ZM20.85 18.8624C20.5875 17.8124 19.6125 17.0624 18.4875 17.0624C17.3625 17.0624 16.425 17.8124 16.125 18.8624H15.825V14.7374H21.6375V18.8249H20.85V18.8624Z" fill="#161A23"/>
<path d="M7.46249 10.6875C7.91249 10.6875 8.28749 10.3125 8.28749 9.86248V6.37498C8.28749 5.92498 7.91249 5.54998 7.46249 5.54998H7.01249V4.64998C7.01249 3.26248 5.88749 2.09998 4.46249 2.09998C3.03749 2.09998 1.91249 3.22498 1.91249 4.64998V5.54998H1.49999C1.04999 5.54998 0.674988 5.92498 0.674988 6.37498V9.86248C0.674988 10.3125 1.04999 10.6875 1.49999 10.6875H7.46249ZM6.63749 8.99998H2.32499V7.19998H6.59999V8.99998H6.63749ZM3.63749 4.61248C3.63749 4.12498 4.01249 3.74998 4.49999 3.74998C4.98749 3.74998 5.36249 4.12498 5.36249 4.61248V5.51248H3.63749V4.61248Z" fill="#161A23"/>
</svg>
