<svg width="24" height="24" viewBox="0 0 24 24" fill="none" xmlns="http://www.w3.org/2000/svg">
<path d="M23.5875 14.3625L21.3 11.025C21.15 10.8 20.8875 10.65 20.5875 10.65H17.25V10.125C17.25 8.88748 16.2375 7.91248 15.0375 7.91248H12.4875C12.0375 7.91248 11.6625 8.28748 11.6625 8.73748C11.6625 9.18748 12.0375 9.56248 12.4875 9.56248H15C15.3 9.56248 15.525 9.78748 15.525 10.0875V19.1625H12.75C12.45 18.2625 11.625 17.5875 10.6125 17.5875C9.59999 17.5875 8.77499 18.2625 8.47499 19.1625H6.41249C6.11249 19.1625 5.88749 18.9375 5.88749 18.6375V14.25C5.88749 13.8 5.51249 13.425 5.06249 13.425C4.61249 13.425 4.23749 13.8 4.23749 14.25V18.675C4.23749 19.9125 5.24999 20.8875 6.44999 20.8875H8.66249C9.03749 21.6 9.78749 22.0875 10.65 22.0875C11.5125 22.0875 12.2625 21.6 12.6375 20.8875H17.4375C17.8125 21.6 18.5625 22.0875 19.425 22.0875C20.2875 22.0875 21.0375 21.6 21.4125 20.8875H22.9125C23.3625 20.8875 23.7375 20.5125 23.7375 20.0625V14.8125C23.7 14.6625 23.6625 14.475 23.5875 14.3625ZM20.1375 12.3375L21.4125 14.2125H17.25V12.3375H20.1375ZM10.65 20.4C10.35 20.4 10.125 20.175 10.125 19.875C10.125 19.575 10.35 19.35 10.65 19.35C10.95 19.35 11.175 19.575 11.175 19.875C11.2125 20.175 10.95 20.4 10.65 20.4ZM19.3875 20.4C19.0875 20.4 18.8625 20.175 18.8625 19.875C18.8625 19.575 19.0875 19.35 19.3875 19.35C19.6875 19.35 19.9125 19.575 19.9125 19.875C19.95 20.175 19.6875 20.4 19.3875 20.4ZM21.525 19.2C21.225 18.3 20.4 17.625 19.3875 17.625C18.375 17.625 17.55 18.3 17.25 19.2V15.9H22.05V19.2H21.525Z" fill="#161A23"/>
<path d="M11.0625 7.275C11.0625 4.3125 8.66251 1.875 5.66251 1.875C2.70001 1.875 0.262512 4.275 0.262512 7.275C0.262512 10.2375 2.66251 12.675 5.66251 12.675C8.62501 12.675 11.0625 10.2375 11.0625 7.275ZM1.95001 7.275C1.95001 5.25 3.60001 3.5625 5.66251 3.5625C7.68751 3.5625 9.37501 5.2125 9.37501 7.275C9.37501 9.3 7.72501 10.9875 5.66251 10.9875C3.63751 10.9875 1.95001 9.3375 1.95001 7.275Z" fill="#161A23"/>
<path d="M6.67502 8.28755C7.01252 8.62505 7.53752 8.62505 7.87502 8.28755C8.21252 7.95005 8.21252 7.42505 7.87502 7.08755L6.26252 5.47505C5.92502 5.13755 5.40002 5.13755 5.06252 5.47505L3.45002 7.12505C3.11252 7.46255 3.11252 7.98755 3.45002 8.32505C3.60002 8.47505 3.82502 8.58755 4.05002 8.58755C4.27502 8.58755 4.50002 8.51255 4.65002 8.32505L5.70002 7.27505L6.67502 8.28755Z" fill="#161A23"/>
</svg>
