<svg width="24" height="24" viewBox="0 0 24 24" fill="none" xmlns="http://www.w3.org/2000/svg">
<path d="M3.18749 11.5125C3.93749 11.925 4.76249 12.1875 5.69999 12.1875C8.47499 12.1875 10.725 9.93745 10.725 7.16245C10.725 4.38745 8.47499 2.13745 5.69999 2.13745C2.92499 2.13745 0.674988 4.38745 0.674988 7.16245C0.674988 8.96245 1.64999 10.5374 3.07499 11.4375C3.11249 11.4749 3.14999 11.475 3.18749 11.5125ZM5.66249 10.5C5.54999 10.5 5.43749 10.5 5.32499 10.5L7.98749 8.58745L8.77499 8.28745C8.36249 9.56245 7.12499 10.5 5.66249 10.5ZM6.82499 4.04995L5.51249 5.62495C5.36249 5.77495 5.13749 5.81245 4.94999 5.69995L4.61249 5.47495C4.57499 5.47495 4.57499 5.43745 4.53749 5.43745L3.33749 4.79995C3.93749 4.19995 4.76249 3.86245 5.66249 3.86245C6.07499 3.82495 6.48749 3.89995 6.82499 4.04995ZM2.47499 6.22495L3.67499 6.89995L3.97499 7.08745C4.34999 7.34995 4.76249 7.46245 5.17499 7.46245C5.77499 7.46245 6.37499 7.19995 6.78749 6.71245L8.21249 5.02495C8.54999 5.43745 8.77499 5.88745 8.88749 6.41245L7.31249 7.01245C7.23749 7.04995 7.16249 7.08745 7.12499 7.12495L3.52499 9.71245C2.81249 9.11245 2.32499 8.17495 2.32499 7.16245C2.32499 6.86245 2.39999 6.52495 2.47499 6.22495Z" fill="#161A23"/>
<path d="M23.2125 14.1375L20.925 10.8375C20.775 10.6125 20.5125 10.4625 20.2125 10.4625H16.9125V9.93748C16.9125 8.69998 15.9375 7.72498 14.7 7.72498H12.15C11.7 7.72498 11.325 8.09998 11.325 8.54998C11.325 8.99998 11.7 9.37498 12.15 9.37498H14.7C15 9.37498 15.225 9.59998 15.225 9.89998V18.9H12.4875C12.1875 18 11.3625 17.3625 10.3875 17.3625C9.41249 17.3625 8.54999 18 8.28749 18.9H6.22499C5.92499 18.9 5.69999 18.675 5.69999 18.375V14.0625C5.69999 13.6125 5.32499 13.2375 4.87499 13.2375C4.42499 13.2375 4.04999 13.6125 4.04999 14.0625V18.45C4.04999 19.6875 5.02499 20.6625 6.26249 20.6625H8.47499C8.84999 21.375 9.59999 21.8625 10.425 21.8625C11.25 21.8625 12 21.375 12.375 20.6625H17.1375C17.5125 21.375 18.2625 21.8625 19.0875 21.8625C19.95 21.8625 20.6625 21.375 21.0375 20.6625H22.5375C22.9875 20.6625 23.3625 20.2875 23.3625 19.8375V14.625C23.325 14.475 23.2875 14.2875 23.2125 14.1375ZM19.7625 12.1875L21.0375 14.025H16.9125V12.1875H19.7625ZM10.3875 20.175C10.0875 20.175 9.86249 19.95 9.86249 19.65C9.86249 19.35 10.125 19.125 10.3875 19.125C10.65 19.125 10.9125 19.35 10.9125 19.65C10.9125 19.95 10.6875 20.175 10.3875 20.175ZM19.05 20.175C18.75 20.175 18.525 19.95 18.525 19.65C18.525 19.35 18.75 19.125 19.05 19.125C19.35 19.125 19.575 19.35 19.575 19.65C19.575 19.95 19.35 20.175 19.05 20.175ZM21.15 18.975C20.85 18.075 20.025 17.4375 19.05 17.4375C18.075 17.4375 17.2125 18.075 16.95 18.975H16.9125V15.7125H21.6375V18.975H21.15Z" fill="#161A23"/>
</svg>
