<svg width="24" height="24" viewBox="0 0 24 24" fill="none" xmlns="http://www.w3.org/2000/svg">
<path d="M23.5875 13.875L21.1875 10.3875C21.0375 10.1625 20.775 10.0125 20.475 10.0125H16.95V9.4125C16.95 8.1375 15.9375 7.125 14.6625 7.125H11.9625C11.5125 7.125 11.1375 7.5 11.1375 7.95C11.1375 8.4 11.5125 8.775 11.9625 8.775H14.6625C15 8.775 15.2625 9.0375 15.2625 9.375V18.9375H12.3C12 18 11.1375 17.2875 10.125 17.2875C9.07499 17.2875 8.21249 17.9625 7.94999 18.9375H5.73749C5.39999 18.9375 5.13749 18.675 5.13749 18.3375V13.7625C5.13749 13.3125 4.76249 12.9375 4.31249 12.9375C3.86249 12.9375 3.48749 13.3125 3.48749 13.7625V18.375C3.48749 19.65 4.49999 20.6625 5.77499 20.6625H8.13749C8.51249 21.4125 9.29999 21.9 10.1625 21.9C11.0625 21.9 11.8125 21.375 12.1875 20.6625H17.25C17.625 21.4125 18.4125 21.9 19.275 21.9C20.1375 21.9 20.925 21.375 21.3 20.6625H22.875C23.325 20.6625 23.7 20.2875 23.7 19.8375V14.325C23.7 14.175 23.6625 13.9875 23.5875 13.875ZM20.025 11.7L21.4125 13.725H16.9125V11.7H20.025ZM10.125 20.2125C9.78749 20.2125 9.52499 19.95 9.52499 19.6125C9.52499 19.275 9.78749 19.0125 10.125 19.0125C10.4625 19.0125 10.725 19.275 10.725 19.6125C10.725 19.95 10.425 20.2125 10.125 20.2125ZM19.2375 20.2125C18.9 20.2125 18.6375 19.95 18.6375 19.6125C18.6375 19.275 18.9 19.0125 19.2375 19.0125C19.575 19.0125 19.8375 19.275 19.8375 19.6125C19.8375 19.95 19.575 20.2125 19.2375 20.2125ZM21.45 18.975C21.15 18.0375 20.2875 17.325 19.275 17.325C18.2625 17.325 17.3625 18 17.1 18.975H16.9875V15.45H22.0875V18.975H21.45Z" fill="#161A23"/>
<path d="M10.4625 10.95C10.875 10.2375 10.875 9.4125 10.5 8.7L7.5375 3.2625C7.125 2.5125 6.375 2.0625 5.55 2.0625C4.725 2.0625 3.9375 2.5125 3.5625 3.2625L0.562497 8.7C0.187497 9.4125 0.187497 10.275 0.599997 10.95C1.0125 11.6625 1.7625 12.075 2.55 12.075H8.475C9.3375 12.075 10.05 11.6625 10.4625 10.95ZM2.0625 10.125C2.025 10.05 1.9125 9.7875 2.0625 9.525L5.025 4.0875C5.175 3.825 5.4375 3.7875 5.55 3.7875C5.6625 3.7875 5.925 3.825 6.075 4.0875L9.0375 9.525C9.1875 9.7875 9.075 10.0125 9.0375 10.125C9 10.2 8.8125 10.425 8.5125 10.425H2.5875C2.25 10.3875 2.1 10.2 2.0625 10.125Z" fill="#161A23"/>
<path d="M5.54998 5.40002C5.09998 5.40002 4.72498 5.77502 4.72498 6.22502V6.90002C4.72498 7.35002 5.09998 7.72502 5.54998 7.72502C5.99998 7.72502 6.37498 7.35002 6.37498 6.90002V6.22502C6.37498 5.77502 5.99998 5.40002 5.54998 5.40002Z" fill="#161A23"/>
<path d="M5.54998 8.09998C5.09998 8.09998 4.72498 8.47498 4.72498 8.96248C4.72498 9.44998 5.09998 9.78748 5.54998 9.78748C5.99998 9.78748 6.37498 9.41248 6.37498 8.96248V8.92498C6.37498 8.47498 5.99998 8.09998 5.54998 8.09998Z" fill="#161A23"/>
</svg>
