<svg width="24" height="24" viewBox="0 0 24 24" fill="none" xmlns="http://www.w3.org/2000/svg">
<path d="M18.7878 22.1625C18.1503 22.8 16.5378 23.625 14.3628 23.625C8.88779 23.625 7.65029 19.6125 7.65029 17.25V10.6875H5.47529C5.21279 10.6875 4.98779 10.4625 4.98779 10.2V7.125C4.98779 6.825 5.21279 6.4875 5.51279 6.375C8.40029 5.4 9.26279 2.9625 9.37529 1.125C9.41279 0.6 9.63779 0.375 10.1253 0.375H13.3503C13.6128 0.375 13.8378 0.6 13.8378 0.8625V6.075H17.6253C17.8878 6.075 18.1128 6.225 18.1128 6.4875V10.1625C18.1128 10.425 17.8878 10.65 17.6253 10.65H13.8003V16.65C13.8003 18.225 14.9253 19.0875 16.8753 18.3C17.1003 18.2625 17.2878 18.15 17.4378 18.1875C17.5878 18.225 17.7003 18.3375 17.7378 18.5625L18.7503 21.45C18.8628 21.675 18.9753 21.975 18.7878 22.1625Z" fill="#15171A"/>
</svg>
