<svg width="24" height="24" viewBox="0 0 24 24" fill="none" xmlns="http://www.w3.org/2000/svg">
<g clip-path="url(#clip0_501_41600)">
<path d="M22.5375 10.0876L13.9125 1.46255C13.3875 0.937549 12.7125 0.675049 12 0.675049C11.2875 0.675049 10.575 0.975049 10.0875 1.46255L1.46255 10.0876C0.937549 10.6125 0.675049 11.2875 0.675049 12C0.675049 12.7126 0.975049 13.425 1.46255 13.9125L10.0875 22.5375C10.6125 23.0625 11.325 23.3251 12 23.3251C12.675 23.3251 13.3875 23.0625 13.9125 22.5375L22.5375 13.9125C23.5875 12.8625 23.5875 11.1375 22.5375 10.0876ZM21.3375 12.7126L12.7125 21.3376C12.3 21.7501 11.6625 21.7501 11.25 21.3376L2.62505 12.7126C2.43755 12.5251 2.32505 12.2626 2.32505 12C2.32505 11.7375 2.43755 11.475 2.62505 11.2875L11.25 2.66255C11.4375 2.47505 11.7 2.36255 11.9625 2.36255C12.225 2.36255 12.4875 2.47505 12.675 2.66255L21.3 11.2875C21.75 11.6625 21.75 12.3376 21.3375 12.7126Z" fill="#161A23"/>
<path d="M12.7876 8.32502C12.4501 7.98752 11.9251 7.98752 11.5876 8.32502C11.2501 8.66252 11.2501 9.18752 11.5876 9.52502L13.2376 11.175H8.7376C8.2876 11.175 7.9126 11.55 7.9126 12V15.075C7.9126 15.525 8.2876 15.9 8.7376 15.9C9.1876 15.9 9.5626 15.525 9.5626 15.075V12.8625H13.2376L11.6251 14.475C11.2876 14.8125 11.2876 15.3375 11.6251 15.675C11.7751 15.825 12.0001 15.9375 12.2251 15.9375C12.4501 15.9375 12.6751 15.8625 12.8251 15.675L15.9001 12.6C16.2376 12.2625 16.2376 11.7375 15.9001 11.4L12.7876 8.32502Z" fill="#161A23"/>
</g>
<defs>
<clipPath id="clip0_501_41600">
<rect width="24" height="24" fill="white"/>
</clipPath>
</defs>
</svg>
