<svg width="24" height="24" viewBox="0 0 24 24" fill="none" xmlns="http://www.w3.org/2000/svg">
<path d="M20.175 5.28751H13.6875L15.675 1.95001C15.9 1.53751 15.7875 1.05001 15.375 0.787513C14.9625 0.562513 14.475 0.675013 14.2125 1.08751L11.7375 5.28751H11.475L9.00002 2.36251C8.70002 2.02501 8.17502 1.95001 7.80002 2.25001C7.42502 2.55001 7.38752 3.07501 7.68752 3.45001L9.22502 5.28751H3.82502C2.55002 5.28751 1.46252 6.33751 1.46252 7.65001V18.7125C1.46252 19.9875 2.51252 21.075 3.82502 21.075H4.23752V22.5C4.23752 22.95 4.61252 23.3625 5.10002 23.3625C5.58752 23.3625 5.96252 22.9875 5.96252 22.5V21.0375H18.1125V22.5C18.1125 22.95 18.4875 23.3625 18.975 23.3625C19.4625 23.3625 19.8375 22.9875 19.8375 22.5V21.0375H20.25C21.525 21.0375 22.6125 19.9875 22.6125 18.675V7.61251C22.5375 6.33751 21.4875 5.28751 20.175 5.28751ZM20.85 18.675C20.85 19.05 20.55 19.35 20.175 19.35H3.82502C3.45002 19.35 3.15002 19.05 3.15002 18.675V7.61251C3.15002 7.23751 3.45002 6.93751 3.82502 6.93751H20.2125C20.5875 6.93751 20.8875 7.23751 20.8875 7.61251V18.675H20.85Z" fill="#161A23"/>
</svg>
