<svg width="24" height="24" viewBox="0 0 24 24" fill="none" xmlns="http://www.w3.org/2000/svg">
<path d="M21 2.32495H3.00001C1.72501 2.32495 0.637512 3.37495 0.637512 4.68745V14.8125C0.637512 16.0875 1.68751 17.175 3.00001 17.175H11.175V20.025H9.67501C9.22501 20.025 8.81251 20.4 8.81251 20.8875C8.81251 21.375 9.18751 21.75 9.67501 21.75H14.1C14.55 21.75 14.9625 21.375 14.9625 20.8875C14.9625 20.4 14.5875 20.025 14.1 20.025H12.9V17.175H21C22.275 17.175 23.3625 16.125 23.3625 14.8125V4.68745C23.3625 3.37495 22.275 2.32495 21 2.32495ZM21.675 14.8125C21.675 15.1875 21.375 15.4875 21 15.4875H3.00001C2.62501 15.4875 2.32501 15.1875 2.32501 14.8125V4.68745C2.32501 4.31245 2.62501 4.01245 3.00001 4.01245H21C21.375 4.01245 21.675 4.31245 21.675 4.68745V14.8125Z" fill="#161A23"/>
<path d="M11.025 7.5H7.76252C7.31252 7.5 6.90002 7.875 6.90002 8.3625C6.90002 8.85 7.27502 9.225 7.76252 9.225H8.55002V11.625C8.55002 12.075 8.92502 12.4875 9.41252 12.4875C9.90002 12.4875 10.275 12.1125 10.275 11.625V9.1875H11.0625C11.5125 9.1875 11.925 8.8125 11.925 8.325C11.925 7.8375 11.5125 7.5 11.025 7.5Z" fill="#161A23"/>
<path d="M16.6125 7.61243C16.2 7.38743 15.675 7.57493 15.4875 7.98743L14.625 9.67493L13.8375 7.98743C13.65 7.57493 13.125 7.38743 12.7125 7.57493C12.3 7.76243 12.1125 8.28743 12.3 8.69993L13.8375 11.9624C13.9875 12.2624 14.25 12.4499 14.5875 12.4499C14.8875 12.4499 15.1875 12.2624 15.3375 11.9999L16.9875 8.73743C17.2125 8.32493 17.025 7.79993 16.6125 7.61243Z" fill="#161A23"/>
</svg>
