<svg width="24" height="24" viewBox="0 0 24 24" fill="none" xmlns="http://www.w3.org/2000/svg">
<path d="M7.6125 21.5249C16.4625 21.5249 21.2625 14.2123 21.2625 7.87485C21.2625 7.72485 21.2625 7.46235 21.225 7.23735C22.1625 6.56235 22.9875 5.69985 23.625 4.76235C22.725 5.17485 21.825 5.39985 20.8875 5.51235C21.9 4.91235 22.65 3.97485 22.9875 2.84985C22.05 3.37485 21.075 3.78735 19.9125 4.01235C19.0125 3.07485 17.8125 2.47485 16.425 2.47485C13.7625 2.47485 11.5875 4.64985 11.5875 7.31235C11.5875 7.68735 11.625 8.06235 11.7 8.43735C7.8375 8.17485 4.3125 6.26235 1.9125 3.37485C1.5 4.12485 1.275 4.91235 1.275 5.77485C1.275 7.46235 2.1375 8.88735 3.45 9.74985C2.6625 9.71235 1.9125 9.48735 1.275 9.14985C1.275 9.18735 1.275 9.18735 1.275 9.18735C1.275 11.4748 2.925 13.4624 5.1 13.9124C4.6875 14.0249 4.2375 14.0623 3.9 14.0623C3.6 14.0623 3.2625 14.0248 3 13.9499C3.6375 15.8624 5.4 17.2499 7.5 17.2874C5.85 18.5624 3.7875 19.3498 1.575 19.3498C1.125 19.4249 0.75 19.3498 0.375 19.3123C2.4 20.7374 4.9125 21.5249 7.6125 21.5249Z" fill="#15171A"/>
</svg>
