<svg width="24" height="24" viewBox="0 0 24 24" fill="none" xmlns="http://www.w3.org/2000/svg">
<path d="M21.0375 5.7375L22.4625 3.9375C22.875 3.45 22.9875 3.075 23.025 2.8875C21.9 3.5625 20.85 3.7875 20.175 3.7875H19.9125L19.7625 3.6375C18.8625 2.85 17.7375 2.4375 16.5375 2.4375C13.9125 2.4375 11.85 4.6125 11.85 7.125C11.85 7.275 11.85 7.5 11.8875 7.65L12 8.4L11.2125 8.3625C6.4125 8.2125 2.475 4.0875 1.8375 3.375C0.7875 5.25 1.3875 7.05 2.025 8.175L3.3 10.275L1.275 9.15C1.3125 10.725 1.9125 11.9625 3.075 12.8625L4.0875 13.6125L3.075 14.025C3.7125 15.9375 5.1375 16.725 6.1875 17.025L7.575 17.4L6.2625 18.3C4.1625 19.8 1.5375 19.6875 0.375 19.575C2.7375 21.225 5.55 21.6 7.5 21.6C8.9625 21.6 10.05 21.45 10.3125 21.3375C20.8125 18.8625 21.3 9.4875 21.3 7.6125V7.35L21.525 7.2C22.8 6 23.325 5.3625 23.625 4.9875C23.5125 5.025 23.3625 5.1 23.2125 5.1375L21.0375 5.7375Z" fill="#15171A"/>
</svg>
