<svg width="24" height="24" viewBox="0 0 24 24" fill="none" xmlns="http://www.w3.org/2000/svg">
<g clip-path="url(#clip0_914_45480)">
<path d="M12 0.726074C5.55 0.726074 0.375 5.80927 0.375 11.9818C0.375 18.1542 5.55 23.2374 12 23.2374C18.45 23.2374 23.625 18.2268 23.625 11.9818C23.625 5.73667 18.45 0.726074 12 0.726074ZM14.475 4.97418C14.8875 4.24803 15.7875 4.06645 16.5 4.46587C17.25 4.86524 17.4375 5.73667 17.025 6.46285C16.6125 7.189 15.7125 7.37054 15 6.97117C14.2875 6.53545 14.0625 5.66407 14.475 4.97418ZM4.5 13.4341C3.6375 13.4341 3 12.8169 3 11.9818C3 11.1466 3.6375 10.5657 4.4625 10.5657C5.2875 10.5657 5.925 11.1829 5.925 11.9818C5.9625 12.8169 5.2875 13.4341 4.5 13.4341ZM5.775 13.5793C6.825 12.7442 6.825 11.2193 5.775 10.4205C6.1875 8.93182 7.1625 7.66102 8.4 6.82593L9.525 8.60504C7.1625 10.2389 7.1625 13.7246 9.525 15.3585L8.4 17.1376C7.2 16.3388 6.1875 15.068 5.775 13.5793ZM16.5 19.5703C15.75 19.9696 14.85 19.7155 14.475 19.0619C14.1 18.4084 14.325 17.4643 15 17.1013C15.675 16.7382 16.65 16.956 17.025 17.6096C17.5125 18.2995 17.25 19.1709 16.5 19.5703ZM16.5375 16.4477C15.3375 15.9757 13.9125 16.7382 13.6875 18.0453C13.425 18.0816 11.4 18.6625 9.15 17.6459L10.2 15.7942C12.9 16.956 15.975 15.2858 16.2375 12.4174L18.4125 12.4538C18.3375 13.9424 17.5875 15.3585 16.5375 16.4477ZM16.2375 11.655C15.975 8.85922 12.9 7.04377 10.2 8.27827L9.15 6.42652C11.4375 5.33725 13.425 5.9182 13.6875 6.02714C13.9125 7.29794 15.2625 8.06043 16.5375 7.62472C17.6625 8.71398 18.3375 10.0937 18.45 11.6187L16.2375 11.655Z" fill="#15171A"/>
</g>
<defs>
<clipPath id="clip0_914_45480">
<rect width="24" height="24" fill="white"/>
</clipPath>
</defs>
</svg>
