<svg width="24" height="24" viewBox="0 0 24 24" fill="none" xmlns="http://www.w3.org/2000/svg">
<path d="M11.9999 18.5625C16.4249 18.5625 20.0249 15.0375 20.0249 10.725V1.50001C20.0249 1.05001 19.6499 0.637512 19.1624 0.637512C18.6749 0.637512 18.2999 1.01251 18.2999 1.50001V10.725C18.2999 14.1 15.4499 16.875 11.9624 16.875C8.4749 16.875 5.6249 14.1375 5.6249 10.725V1.50001C5.6249 1.05001 5.2499 0.637512 4.7624 0.637512C4.2749 0.637512 3.8999 1.01251 3.8999 1.50001V10.725C3.9749 15.075 7.5749 18.5625 11.9999 18.5625Z" fill="#161A23"/>
<path d="M21.075 21.675H2.925C2.475 21.675 2.0625 22.05 2.0625 22.5375C2.0625 23.025 2.4375 23.4 2.925 23.4H21.075C21.525 23.4 21.9375 23.025 21.9375 22.5375C21.9375 22.05 21.525 21.675 21.075 21.675Z" fill="#161A23"/>
</svg>
