<svg width="24" height="24" viewBox="0 0 24 24" fill="none" xmlns="http://www.w3.org/2000/svg">
<path d="M21.3001 4.65001C20.0251 3.37501 18.3751 2.66251 16.6126 2.62501C14.8501 2.58751 13.2001 3.22501 11.9626 4.46251L5.73761 10.6875L3.90011 8.85001C3.48761 8.43751 2.85011 8.28751 2.28761 8.47501C1.72511 8.66251 1.31261 9.18751 1.23761 9.78751L0.675107 15.225C0.600107 15.7125 0.787607 16.1625 1.12511 16.5C1.42511 16.8 1.80011 16.95 2.21261 16.95C2.25011 16.95 2.32511 16.95 2.40011 16.95L7.83761 16.35C8.43761 16.275 8.92511 15.9 9.15011 15.3C9.37511 14.7 9.22511 14.1 8.77511 13.6875L6.93761 11.85L13.1626 5.62501C14.0626 4.72501 15.2626 4.27501 16.5751 4.31251C17.8876 4.35001 19.1626 4.91251 20.1001 5.85001C22.0876 7.83751 22.1626 10.95 20.3251 12.7875L13.1626 19.95C12.8251 20.2875 12.8251 20.8125 13.1626 21.15C13.3126 21.3 13.5376 21.4125 13.7626 21.4125C13.9876 21.4125 14.2126 21.3375 14.3626 21.15L21.5251 13.9875C24.0376 11.475 23.9251 7.27501 21.3001 4.65001ZM2.36261 15.2625L2.88761 10.2375L7.35011 14.7L2.36261 15.2625Z" fill="#161A23"/>
</svg>
