<svg width="24" height="24" viewBox="0 0 24 24" fill="none" xmlns="http://www.w3.org/2000/svg">
<path d="M16.9125 7.46249H8.13755V4.38749C8.13755 3.86249 7.83755 3.41249 7.38755 3.18749C6.93755 2.99999 6.41255 3.07499 6.00005 3.37499L1.16255 7.31249C0.862549 7.57499 0.675049 7.94999 0.675049 8.32499C0.675049 8.69999 0.862549 9.11249 1.16255 9.33749L6.00005 13.275C6.22505 13.4625 6.52505 13.575 6.82505 13.575C7.01255 13.575 7.20005 13.5375 7.38755 13.4625C7.83755 13.2375 8.13755 12.7875 8.13755 12.2625V9.18749H16.9125C19.5375 9.18749 21.6375 11.4375 21.6375 14.2125C21.6375 16.9875 19.5 19.2375 16.9125 19.2375H11.85C11.4 19.2375 10.9875 19.6125 10.9875 20.1C10.9875 20.5875 11.3625 20.9625 11.85 20.9625H16.9125C20.4375 20.9625 23.325 17.9625 23.325 14.25C23.3625 10.5 20.475 7.46249 16.9125 7.46249ZM6.45005 11.475L2.55005 8.32499L6.45005 5.17499V11.475Z" fill="#161A23"/>
</svg>
