<svg width="24" height="24" viewBox="0 0 24 24" fill="none" xmlns="http://www.w3.org/2000/svg">
<g clip-path="url(#clip0_501_47705)">
<path d="M11.1375 4.94998L8.09999 1.91248C6.41249 0.224976 3.63749 0.224976 1.91249 1.91248C1.12499 2.77498 0.674988 3.86248 0.674988 5.02498C0.674988 6.18748 1.12499 7.27498 1.94999 8.09998L4.94999 11.1375C5.81249 12 6.93749 12.4125 8.02499 12.4125C9.14999 12.4125 10.275 12 11.1 11.1375C11.925 10.3125 12.375 9.22498 12.375 8.06248C12.4125 6.89998 11.9625 5.81248 11.1375 4.94998ZM6.14999 9.93748L3.14999 6.89998C2.62499 6.37498 2.36249 5.69998 2.36249 4.98748C2.36249 4.27498 2.62499 3.59998 3.14999 3.07498C3.67499 2.54998 4.34999 2.28748 5.06249 2.28748C5.73749 2.28748 6.44999 2.54998 6.97499 3.07498L10.0125 6.07498C10.5 6.59998 10.8 7.27498 10.8 7.98748C10.8 8.43748 10.6875 8.88748 10.4625 9.29998L9.52499 8.36248C9.18749 8.02498 8.66249 8.02498 8.32499 8.36248C7.98749 8.69998 7.98749 9.22498 8.32499 9.56248L9.18749 10.425C8.13749 10.95 6.93749 10.7625 6.14999 9.93748Z" fill="#161A23"/>
<path d="M22.0875 15.8625L19.05 12.825C17.3625 11.1375 14.55 11.1375 12.8625 12.825C12.0375 13.65 11.5875 14.7375 11.5875 15.9C11.5875 17.0625 12.0375 18.15 12.8625 18.975L15.8625 22.0125C16.725 22.875 17.85 23.2875 18.9375 23.2875C20.0625 23.2875 21.1875 22.875 22.0125 22.0125C22.8375 21.1875 23.2875 20.1 23.2875 18.9375C23.3625 17.8125 22.9125 16.725 22.0875 15.8625ZM20.85 20.85C19.8 21.9 18.075 21.9 17.0625 20.85L14.0625 17.8125C13.5375 17.2875 13.275 16.6125 13.275 15.9C13.275 15.525 13.35 15.15 13.5 14.8125L14.325 15.675C14.475 15.825 14.7 15.9375 14.925 15.9375C15.15 15.9375 15.3375 15.8625 15.525 15.7125C15.8625 15.375 15.8625 14.85 15.525 14.5125L14.625 13.6125C15.0375 13.3875 15.4875 13.275 15.9375 13.275C16.6125 13.275 17.325 13.5375 17.85 14.0625L20.8875 17.0625C21.375 17.5875 21.675 18.2625 21.675 18.975C21.6375 19.6875 21.375 20.3625 20.85 20.85Z" fill="#161A23"/>
<path d="M14.8875 6.14995C15.3375 6.14995 15.75 5.77495 15.75 5.28745V2.43745C15.75 1.98745 15.375 1.57495 14.8875 1.57495C14.4 1.57495 14.025 1.94995 14.025 2.43745V5.32495C14.025 5.77495 14.4 6.14995 14.8875 6.14995Z" fill="#161A23"/>
<path d="M17.85 9.14998C17.85 9.59998 18.225 10.0125 18.7125 10.0125H21.5625C22.0125 10.0125 22.425 9.63748 22.425 9.14998C22.425 8.66248 22.05 8.28748 21.5625 8.28748H18.7125C18.225 8.28748 17.85 8.66248 17.85 9.14998Z" fill="#161A23"/>
<path d="M15.675 7.725C15.825 7.875 16.05 7.9875 16.275 7.9875C16.5 7.9875 16.725 7.9125 16.875 7.725L19.3125 5.25C19.65 4.9125 19.65 4.3875 19.3125 4.05C18.975 3.7125 18.45 3.7125 18.1125 4.05L15.675 6.525C15.3375 6.8625 15.3375 7.3875 15.675 7.725Z" fill="#161A23"/>
<path d="M9.14998 17.85C8.69998 17.85 8.28748 18.225 8.28748 18.7125V21.6C8.28748 22.05 8.66248 22.4625 9.14998 22.4625C9.63748 22.4625 10.0125 22.0875 10.0125 21.6V18.7125C9.97498 18.225 9.59998 17.85 9.14998 17.85Z" fill="#161A23"/>
<path d="M5.21248 14.8875C5.21248 14.4375 4.83748 14.025 4.34998 14.025H2.43748C1.98748 14.025 1.57498 14.4 1.57498 14.8875C1.57498 15.375 1.94998 15.75 2.43748 15.75H4.34998C4.83748 15.7125 5.21248 15.3375 5.21248 14.8875Z" fill="#161A23"/>
<path d="M6.33748 15.8625L3.89998 18.3C3.56248 18.6375 3.56248 19.1625 3.89998 19.5C4.04998 19.65 4.27498 19.7625 4.49998 19.7625C4.72498 19.7625 4.94998 19.6875 5.09998 19.5L7.53748 17.0625C7.87498 16.725 7.87498 16.2 7.53748 15.8625C7.19998 15.525 6.63748 15.525 6.33748 15.8625Z" fill="#161A23"/>
</g>
<defs>
<clipPath id="clip0_501_47705">
<rect width="24" height="24" fill="white"/>
</clipPath>
</defs>
</svg>
