<svg width="24" height="24" viewBox="0 0 24 24" fill="none" xmlns="http://www.w3.org/2000/svg">
<path d="M18.9 8.21251H16.6125V5.43751C16.6125 2.88751 14.55 0.825012 12 0.825012C9.45001 0.825012 7.42501 2.88751 7.42501 5.43751C7.42501 5.88751 7.80001 6.30001 8.28751 6.30001C8.77501 6.30001 9.15001 5.92501 9.15001 5.43751C9.15001 3.82501 10.4625 2.51251 12.075 2.51251C13.6875 2.51251 15 3.82501 15 5.43751V8.21251H5.10001C3.67501 8.21251 2.51251 9.33751 2.51251 10.6875V16.125C2.51251 19.9875 5.85001 23.1375 9.93751 23.1375H14.0625C18.15 23.1375 21.45 19.95 21.45 16.0125V10.6875C21.4875 9.33751 20.325 8.21251 18.9 8.21251ZM19.8 16.0125C19.8 19.0125 17.25 21.45 14.1 21.45H9.97501C6.82501 21.45 4.23751 19.05 4.23751 16.125V10.6875C4.23751 10.2375 4.65001 9.90001 5.13751 9.90001H18.9C19.3875 9.90001 19.8 10.2375 19.8 10.6875V16.0125Z" fill="#161A23"/>
<path d="M13.5375 14.775H10.4625C9.78754 14.775 9.22504 15.3375 9.22504 16.0125V19.0875C9.22504 19.7625 9.78754 20.325 10.4625 20.325H13.5375C14.2125 20.325 14.775 19.7625 14.775 19.0875V16.0125C14.775 15.3375 14.2125 14.775 13.5375 14.775ZM13.0875 18.6H10.95V16.4625H13.0875V18.6Z" fill="#161A23"/>
</svg>
