<svg width="24" height="24" viewBox="0 0 24 24" fill="none" xmlns="http://www.w3.org/2000/svg">
<path d="M23.3625 4.1999C23.3625 2.9249 22.3125 1.8374 21 1.8374H3C1.725 1.8374 0.637497 2.8874 0.637497 4.1999V8.8499C0.637497 9.4124 0.824997 9.9374 1.1625 10.3499C0.824997 10.7624 0.637497 11.2499 0.637497 11.8124V16.5749C0.637497 17.8499 1.65 18.8624 2.925 18.8624H14.85C15.3 18.8624 15.7125 18.4874 15.7125 17.9999C15.7125 17.5124 15.3375 17.1374 14.85 17.1374H2.9625C2.625 17.1374 2.3625 16.8749 2.3625 16.5374V11.8124C2.3625 11.4749 2.625 11.2124 2.9625 11.2124H3H21H21.0375C21.375 11.2124 21.6375 11.4749 21.6375 11.8124V14.3624C21.6375 14.8124 22.0125 15.2249 22.5 15.2249C22.9875 15.2249 23.3625 14.8499 23.3625 14.3624V11.8124C23.3625 11.2499 23.175 10.7624 22.8375 10.3499C23.175 9.9374 23.3625 9.4124 23.3625 8.8499V4.1999ZM3 9.5249C2.625 9.5249 2.325 9.2249 2.325 8.8499V4.1999C2.325 3.8249 2.625 3.5249 3 3.5249H21C21.375 3.5249 21.675 3.8249 21.675 4.1999V8.8499C21.675 9.2249 21.375 9.5249 21 9.5249H3Z" fill="#161A23"/>
<path d="M6.0375 5.5874C5.5875 5.5874 5.175 5.9624 5.175 6.4499V6.5249C5.175 6.9749 5.55 7.3874 6.0375 7.3874C6.525 7.3874 6.9 7.0124 6.9 6.5249V6.4499C6.9 5.9624 6.525 5.5874 6.0375 5.5874Z" fill="#161A23"/>
<path d="M18.7875 5.625H16.35C15.9 5.625 15.4875 6 15.4875 6.4875C15.4875 6.975 15.8625 7.35 16.35 7.35H18.7875C19.2375 7.35 19.65 6.975 19.65 6.4875C19.65 6 19.275 5.625 18.7875 5.625Z" fill="#161A23"/>
<path d="M5.21249 14.0998V14.1748C5.21249 14.6248 5.58749 15.0373 6.07499 15.0373C6.56249 15.0373 6.93749 14.6623 6.93749 14.1748V14.0998C6.93749 13.6498 6.56249 13.2373 6.07499 13.2373C5.58749 13.2373 5.21249 13.6498 5.21249 14.0998Z" fill="#161A23"/>
<path d="M20.3625 16.1248C20.2125 15.9748 19.9875 15.8623 19.7625 15.8623C19.5375 15.8623 19.3125 15.9373 19.1625 16.1248L17.1375 18.1498C16.8 18.4873 16.8 19.0123 17.1375 19.3498C17.475 19.6873 18 19.6873 18.3375 19.3498L18.9 18.7873V21.3373C18.9 21.7873 19.275 22.1998 19.7625 22.1998C20.25 22.1998 20.625 21.8248 20.625 21.3373V18.8248L21.15 19.3873C21.3 19.5748 21.525 19.6498 21.75 19.6498C21.975 19.6498 22.1625 19.5748 22.35 19.4248C22.6875 19.0873 22.6875 18.5623 22.35 18.2248L20.3625 16.1248Z" fill="#161A23"/>
</svg>
