<svg width="24" height="24" viewBox="0 0 24 24" fill="none" xmlns="http://www.w3.org/2000/svg">
<path d="M22.5 15.5625C22.05 15.5625 21.6375 15.9375 21.6375 16.425V19.7625C21.6375 20.1 21.375 20.3625 21.0375 20.3625H2.96251C2.62501 20.3625 2.36251 20.1 2.36251 19.7625V16.425C2.36251 15.975 1.98751 15.5625 1.50001 15.5625C1.01251 15.5625 0.637512 15.9375 0.637512 16.425V19.7625C0.637512 21.0375 1.65001 22.05 2.92501 22.05H21.0375C22.3125 22.05 23.325 21.0375 23.325 19.7625V16.425C23.3625 15.9375 22.95 15.5625 22.5 15.5625Z" fill="#161A23"/>
<path d="M6.6375 8.88754C6.8625 8.88754 7.05 8.81254 7.2375 8.66254L11.175 4.83754V15.9C11.175 16.35 11.55 16.7625 12.0375 16.7625C12.4875 16.7625 12.9 16.3875 12.9 15.9V4.80004L16.8 8.62504C17.1375 8.96254 17.6625 8.92504 18 8.62504C18.3375 8.28754 18.3 7.76254 18 7.42504L12.6 2.21254C12.2625 1.91254 11.7375 1.87504 11.4375 2.21254L6.0375 7.42504C5.7 7.76254 5.7 8.28754 6 8.62504C6.1875 8.77504 6.4125 8.88754 6.6375 8.88754Z" fill="#161A23"/>
</svg>
