<svg width="24" height="24" viewBox="0 0 24 24" fill="none" xmlns="http://www.w3.org/2000/svg">
<path d="M22.5 16.5C22.05 16.5 21.6375 16.875 21.6375 17.3625V20.7C21.6375 21.0375 21.375 21.3 21.0375 21.3H2.96251C2.62501 21.3 2.36251 21.0375 2.36251 20.7V17.3625C2.36251 16.875 1.95001 16.5 1.50001 16.5C1.05001 16.5 0.637512 16.875 0.637512 17.3625V20.7C0.637512 21.975 1.65001 22.9875 2.92501 22.9875H21.0375C22.3125 22.9875 23.325 21.975 23.325 20.7V17.3625C23.3625 16.875 22.95 16.5 22.5 16.5Z" fill="#161A23"/>
<path d="M7.16251 7.76249L11.175 3.86249V16.8375C11.175 17.2875 11.55 17.7 12.0375 17.7C12.4875 17.7 12.9 17.325 12.9 16.8375V3.86249L16.9125 7.76249C17.0625 7.91249 17.2875 7.98749 17.5125 7.98749C17.7375 7.98749 17.9625 7.91249 18.1125 7.72499C18.45 7.38749 18.4125 6.86249 18.1125 6.52499L12.6 1.27499C12.2625 0.974988 11.7375 0.974988 11.4375 1.27499L5.96251 6.56249C5.62501 6.89999 5.62501 7.42499 5.96251 7.76249C6.30001 8.06249 6.82501 8.09999 7.16251 7.76249Z" fill="#161A23"/>
</svg>
