<svg width="25" height="24" viewBox="0 0 25 24" fill="none" xmlns="http://www.w3.org/2000/svg">
<path d="M18.1125 6.56248H15.675C15.225 6.56248 14.8125 6.93748 14.8125 7.42498V9.86248C14.8125 10.3125 15.1875 10.725 15.675 10.725H16.0125V11.625L13.05 12.1875V5.69998H14.925C15.2625 5.69998 15.525 5.51248 15.675 5.21248C15.825 4.91248 15.7875 4.57498 15.6 4.31248L12.8625 0.749976C12.7125 0.524976 12.45 0.412476 12.1875 0.412476C11.925 0.412476 11.6625 0.524976 11.5125 0.749976L8.775 4.31248C8.5875 4.57498 8.55 4.91248 8.7 5.21248C8.85 5.51248 9.15 5.69998 9.45 5.69998H11.325V13.1625V14.2875L8.2875 13.725V12.825H8.625C9.075 12.825 9.4875 12.45 9.4875 11.9625V9.52497C9.4875 9.07498 9.1125 8.66248 8.625 8.66248H6.1875C5.7375 8.66248 5.325 9.03748 5.325 9.52497V12C5.325 12.45 5.7 12.8625 6.1875 12.8625H6.6V14.475C6.6 14.8875 6.9 15.225 7.275 15.3L11.325 16.05V18.075C10.2 18.45 9.375 19.5 9.375 20.7375C9.375 22.275 10.6125 23.5125 12.15 23.5125C13.6875 23.5125 14.925 22.275 14.925 20.7375C14.925 19.5 14.1 18.45 12.975 18.075V13.875L16.9125 13.125C17.325 13.05 17.5875 12.7125 17.5875 12.3V10.6875H18C18.45 10.6875 18.8625 10.3125 18.8625 9.82498V7.38748C18.975 6.93748 18.6 6.56248 18.1125 6.56248ZM12.225 2.69998L13.2375 4.01248H11.2125L12.225 2.69998ZM7.0875 10.3875H7.8375V11.1375H7.0875V10.3875ZM12.225 21.8625C11.625 21.8625 11.1375 21.375 11.1375 20.775C11.1375 20.175 11.625 19.6875 12.225 19.6875C12.825 19.6875 13.3125 20.175 13.3125 20.775C13.3125 21.375 12.825 21.8625 12.225 21.8625ZM16.5375 8.24998H17.2875V8.99998H16.5375V8.24998Z" fill="#161A23"/>
</svg>
