<svg width="23" height="23" viewBox="0 0 23 23" fill="none" xmlns="http://www.w3.org/2000/svg">
<path d="M20.25 14.25V13.05C20.25 12.3375 19.9875 11.6625 19.4625 11.1375C18.9375 10.6125 18.2625 10.35 17.55 10.35C16.05 10.35 14.85 11.55 14.85 13.05V14.25C13.65 15.075 12.8625 16.4625 12.8625 18.0375C12.8625 20.5875 14.9625 22.6875 17.5125 22.6875C20.0625 22.6875 22.1625 20.5875 22.1625 18.0375C22.2 16.4625 21.4125 15.075 20.25 14.25ZM16.5375 13.05C16.5375 12.4875 16.9875 12.0375 17.55 12.0375C17.8125 12.0375 18.075 12.15 18.2625 12.3375C18.45 12.525 18.5625 12.7875 18.5625 13.05V13.5C18.225 13.425 17.8875 13.3875 17.55 13.3875C17.2125 13.3875 16.875 13.425 16.575 13.5V13.05H16.5375ZM17.55 21C15.9 21 14.5875 19.6875 14.5875 18.0375C14.5875 16.3875 15.9 15.075 17.55 15.075C19.2 15.075 20.5125 16.3875 20.5125 18.0375C20.5125 19.65 19.1625 21 17.55 21Z" fill="#161A23"/>
<path d="M17.55 17.55C17.1 17.55 16.6875 17.925 16.6875 18.4125V18.9375C16.6875 19.3875 17.0625 19.8 17.55 19.8C18.0375 19.8 18.4125 19.425 18.4125 18.9375V18.4125C18.375 17.925 18 17.55 17.55 17.55Z" fill="#161A23"/>
<path d="M9 10.5375C10.35 10.5375 11.625 10.95 12.75 11.7375C13.125 12 13.65 11.925 13.9125 11.55C14.175 11.175 14.1 10.65 13.725 10.3875C12.975 9.8625 12.1875 9.4875 11.3625 9.225C12.9 8.4 13.95 6.75 13.95 4.9125C13.95 2.2125 11.7375 0 9.0375 0C6.3375 0 4.0875 2.175 4.0875 4.9125C4.0875 6.7875 5.1375 8.4 6.675 9.225C5.1375 9.675 3.75 10.6125 2.625 11.925C0.975 13.875 0.075 16.5375 0 19.4625C0 19.8 0.1875 20.1 0.45 20.25C1.4625 20.775 5.1 22.425 8.9625 22.425C9.3 22.425 9.6375 22.425 9.975 22.3875C10.425 22.35 10.8 21.975 10.7625 21.4875C10.725 21 10.35 20.6625 9.8625 20.7C9.6 20.7 9.3 20.7 9 20.7C5.9625 20.7 3.0375 19.575 1.725 18.975C1.875 16.65 2.625 14.55 3.9 13.05C5.25 11.4375 7.05 10.5375 9 10.5375ZM9 1.6875C10.7625 1.6875 12.225 3.15 12.225 4.9125C12.225 6.675 10.7625 8.1375 9 8.1375C7.2375 8.1375 5.775 6.675 5.775 4.9125C5.775 3.15 7.2 1.6875 9 1.6875Z" fill="#161A23"/>
</svg>
