<svg width="24" height="24" viewBox="0 0 24 24" fill="none" xmlns="http://www.w3.org/2000/svg">
<path d="M7.83748 10.95C10.1625 10.95 12.075 9.11245 12.075 6.82495C12.075 4.53745 10.1625 2.69995 7.83748 2.69995C5.51248 2.69995 3.59998 4.53745 3.59998 6.82495C3.59998 9.11245 5.51248 10.95 7.83748 10.95ZM7.83748 4.42495C9.22498 4.42495 10.3875 5.51245 10.3875 6.86245C10.3875 8.21245 9.26248 9.29995 7.83748 9.29995C6.41248 9.29995 5.28748 8.21245 5.28748 6.86245C5.28748 5.51245 6.44998 4.42495 7.83748 4.42495Z" fill="#161A23"/>
<path d="M17.25 12.75C19.275 12.75 20.8875 11.175 20.8875 9.1875C20.8875 7.2 19.2375 5.625 17.25 5.625C15.2625 5.625 13.6125 7.2 13.6125 9.1875C13.6125 11.175 15.2625 12.75 17.25 12.75ZM17.25 7.35C18.3375 7.35 19.2 8.175 19.2 9.225C19.2 10.275 18.3375 11.1 17.25 11.1C16.1625 11.1 15.3 10.275 15.3 9.225C15.3 8.175 16.1625 7.35 17.25 7.35Z" fill="#161A23"/>
<path d="M17.4375 13.1249H17.1C15.975 13.1249 14.8875 13.4624 13.95 14.0249C12.9375 12.6749 11.325 11.7749 9.52499 11.7749H6.18749C3.11249 11.8124 0.674988 14.2499 0.674988 17.2874V19.9874C0.674988 20.6999 1.23749 21.2624 1.94999 21.2624H22.0875C22.8 21.2624 23.4 20.6624 23.4 19.9499V19.0499C23.3625 15.7874 20.7 13.1249 17.4375 13.1249ZM2.36249 19.5749V17.2874C2.36249 15.1874 4.08749 13.4624 6.18749 13.4624H9.52499C11.625 13.4624 13.35 15.1874 13.35 17.2874V19.5749H2.36249ZM21.675 19.5749H15V17.2874C15 16.6874 14.8875 16.0874 14.7 15.5249C15.375 15.0374 16.2 14.8124 17.0625 14.8124H17.4C19.725 14.8124 21.6375 16.7249 21.6375 19.0499V19.5749H21.675Z" fill="#161A23"/>
</svg>
