<svg width="24" height="24" viewBox="0 0 24 24" fill="none" xmlns="http://www.w3.org/2000/svg">
<path d="M22.275 12.975C21.1125 11.025 19.0875 9.825 16.8375 9.7875C16.8 9.7875 16.7625 9.7875 16.725 9.7875C16.6875 9.7875 16.65 9.7875 16.6125 9.7875C15.45 9.825 14.325 10.125 13.3875 10.725C12.675 10.125 11.85 9.6375 10.9875 9.3375C12.225 8.5875 13.05 7.2 13.05 5.6625C13.05 3.2625 11.1 1.3125 8.69999 1.3125C6.29999 1.3125 4.34999 3.2625 4.34999 5.6625C4.34999 7.2 5.17499 8.5875 6.41249 9.3375C5.17499 9.75 4.04999 10.5375 3.14999 11.625C1.72499 13.3125 0.937494 15.6375 0.899994 18.1875C0.899994 18.525 1.08749 18.825 1.34999 18.975C2.24999 19.425 5.36249 20.85 8.73749 20.85C9.74999 20.85 10.8375 20.7375 11.8875 20.5125C13.05 21.8625 14.7 22.65 16.4625 22.725C16.5 22.725 16.575 22.725 16.6125 22.725C16.65 22.725 16.6875 22.725 16.725 22.725C16.7625 22.725 16.8 22.725 16.8375 22.725C18.8625 22.6875 20.7375 21.7125 21.9375 20.1C22.7625 18.975 23.175 17.6625 23.175 16.3125C23.175 15.075 22.8375 13.95 22.275 12.975ZM13.8375 12.45C14.1375 12.225 14.475 12.0375 14.85 11.85C14.6625 12.3 14.5125 12.7125 14.3625 13.1625C13.9875 13.0875 13.65 13.0125 13.275 12.9375C13.425 12.7875 13.6125 12.6 13.8375 12.45C13.8 12.45 13.8 12.45 13.8375 12.45ZM17.55 16.2375C17.55 16.6125 17.5125 17.025 17.475 17.4C16.875 17.3625 16.2375 17.3625 15.6375 17.4C15.6 17.025 15.5625 16.6125 15.5625 16.2375C15.5625 15.825 15.6 15.45 15.6375 15.0375C15.975 15.075 16.3125 15.075 16.6875 15.075C16.95 15.075 17.2125 15.075 17.475 15.0375C17.55 15.45 17.55 15.8625 17.55 16.2375ZM16.05 13.3875C16.2 12.9375 16.3875 12.525 16.575 12.1125C16.8 12.525 16.95 12.975 17.1 13.3875C16.7625 13.425 16.3875 13.425 16.05 13.3875ZM17.1 19.05C16.95 19.5 16.7625 19.9125 16.575 20.3625C16.35 19.95 16.2 19.5 16.05 19.05C16.3875 19.05 16.7625 19.05 17.1 19.05ZM11.9625 16.2375C11.9625 15.6 12.075 15 12.3375 14.4375C12.9 14.625 13.4625 14.7375 14.025 14.85C13.95 15.3 13.9125 15.7875 13.9125 16.2375C13.9125 16.6875 13.95 17.175 13.9875 17.625C13.425 17.7375 12.8625 17.8875 12.3 18.0375C12.075 17.475 11.9625 16.875 11.9625 16.2375ZM14.325 19.275C14.475 19.725 14.625 20.175 14.8125 20.625C14.2125 20.3625 13.6875 20.025 13.2375 19.5375C13.6125 19.425 13.9875 19.35 14.325 19.275ZM18.825 19.2375C19.275 19.3125 19.725 19.3875 20.1375 19.5375C19.6125 20.1 18.975 20.5125 18.2625 20.7375C18.4875 20.25 18.675 19.725 18.825 19.2375ZM19.1625 17.5875C19.2 17.1375 19.2375 16.6875 19.2375 16.2375C19.2375 15.7875 19.2 15.3375 19.1625 14.8875C19.8375 14.775 20.475 14.625 21.1125 14.4375C21.3375 15 21.4875 15.6375 21.4875 16.2375C21.4875 16.875 21.375 17.475 21.15 18.0375C20.475 17.85 19.8375 17.7 19.1625 17.5875ZM20.1375 12.9375C19.6875 13.05 19.275 13.1625 18.825 13.2375C18.675 12.75 18.4875 12.225 18.2625 11.7375C18.975 12 19.6125 12.4125 20.1375 12.9375ZM8.69999 3C10.1625 3 11.3625 4.2 11.3625 5.6625C11.3625 7.125 10.1625 8.325 8.69999 8.325C7.23749 8.325 6.03749 7.125 6.03749 5.6625C6.03749 4.2 7.23749 3 8.69999 3ZM2.54999 17.6625C2.69999 15.7125 3.33749 13.9875 4.38749 12.7125C5.51249 11.3625 7.04999 10.65 8.66249 10.65C9.89999 10.65 11.025 11.0625 12 11.8125C11.6625 12.15 11.3625 12.5625 11.1375 12.975C10.5375 13.95 10.2375 15.1125 10.2375 16.2375C10.2375 17.175 10.4625 18.1125 10.8375 18.9375C10.0875 19.05 9.37499 19.125 8.66249 19.125C6.14999 19.125 3.71249 18.1875 2.54999 17.6625Z" fill="#161A23"/>
</svg>
