<svg width="24" height="24" viewBox="0 0 24 24" fill="none" xmlns="http://www.w3.org/2000/svg">
<path d="M16.95 17.7375C16.5 17.7375 16.0875 18.1125 16.0875 18.6V19.875C16.0875 20.325 16.4625 20.7375 16.95 20.7375C17.4375 20.7375 17.8125 20.3625 17.8125 19.875V18.6C17.8125 18.1125 17.4375 17.7375 16.95 17.7375Z" fill="#161A23"/>
<path d="M16.95 12.225C16.7625 12.225 16.575 12.225 16.425 12.2625C15.3375 11.025 14.025 10.125 12.5625 9.67505C14.025 8.85005 15.0375 7.27505 15.0375 5.47505C15.0375 2.81255 12.8625 0.675049 10.2375 0.675049C7.57499 0.675049 5.43749 2.85005 5.43749 5.47505C5.43749 7.27505 6.44999 8.85005 7.91249 9.67505C6.44999 10.125 5.09999 11.025 4.01249 12.3C2.43749 14.175 1.53749 16.8 1.46249 19.65C1.46249 19.9875 1.64999 20.2875 1.91249 20.4375C2.92499 20.925 6.44999 22.5375 10.2375 22.5375C11.325 22.5375 12.45 22.425 13.575 22.2001C14.5125 22.9125 15.675 23.3625 16.95 23.3625C20.025 23.3625 22.5 20.85 22.5 17.8125C22.5 14.775 20.025 12.225 16.95 12.225ZM10.2375 2.36255C11.9625 2.36255 13.35 3.75005 13.35 5.47505C13.35 7.20005 11.9625 8.58755 10.2375 8.58755C8.51249 8.58755 7.12499 7.20005 7.12499 5.47505C7.12499 3.75005 8.51249 2.36255 10.2375 2.36255ZM3.18749 19.1625C3.33749 16.9125 4.08749 14.8875 5.32499 13.3875C6.63749 11.85 8.39999 10.9875 10.275 10.9875C11.8875 10.9875 13.3875 11.625 14.625 12.75C12.75 13.65 11.4375 15.5625 11.4375 17.775C11.4375 18.8625 11.7375 19.8375 12.3 20.7001C11.625 20.775 10.95 20.85 10.3125 20.85C7.31249 20.85 4.46249 19.7625 3.18749 19.1625ZM16.95 21.675C14.8125 21.675 13.0875 19.95 13.0875 17.8125C13.0875 15.675 14.8125 13.95 16.95 13.95C19.0875 13.95 20.8125 15.675 20.8125 17.8125C20.8125 19.95 19.0875 21.675 16.95 21.675Z" fill="#161A23"/>
<path d="M16.5 17.1001C16.5375 17.1376 16.6125 17.1376 16.65 17.1751C16.6875 17.2126 16.7625 17.2126 16.8 17.2126C16.8375 17.2126 16.9125 17.2126 16.95 17.2126C17.175 17.2126 17.4 17.1376 17.55 16.9501C17.5875 16.9126 17.625 16.8751 17.6625 16.8376C17.7 16.8001 17.7375 16.7251 17.7375 16.6876C17.775 16.6501 17.775 16.5751 17.775 16.5376C17.775 16.5001 17.775 16.4251 17.775 16.3876C17.775 16.3126 17.775 16.2751 17.775 16.2376C17.775 16.2001 17.7375 16.1251 17.7375 16.0876C17.7 16.0501 17.7 15.9751 17.6625 15.9376C17.625 15.9001 17.5875 15.8626 17.55 15.8251C17.25 15.5251 16.65 15.5251 16.35 15.8251C16.2 15.9751 16.0875 16.2001 16.0875 16.4251C16.0875 16.6501 16.1625 16.8751 16.35 17.0251C16.425 17.0626 16.4625 17.0626 16.5 17.1001Z" fill="#161A23"/>
</svg>
