<svg width="24" height="24" viewBox="0 0 24 24" fill="none" xmlns="http://www.w3.org/2000/svg">
<path d="M12.3 20.325C11.2125 20.5875 10.125 20.7 9.075 20.7C6.2625 20.7 3.6 19.65 2.3625 19.0875C2.5125 16.95 3.225 15.0375 4.3875 13.6125C5.625 12.15 7.3125 11.325 9.075 11.325C10.8375 11.325 12.525 12.15 13.7625 13.6125C13.8375 13.6875 13.875 13.7625 13.95 13.8375C14.2125 14.2125 14.7375 14.325 15.1125 14.0625C15.4875 13.8 15.6 13.275 15.3375 12.9C15.2625 12.7875 15.15 12.675 15.075 12.5625C14.0625 11.3625 12.7875 10.5 11.4 10.05C12.7875 9.26245 13.725 7.76245 13.725 6.03745C13.725 3.48745 11.6625 1.38745 9.075 1.38745C6.4875 1.38745 4.4625 3.44995 4.4625 5.99995C4.4625 7.72495 5.4 9.18745 6.7875 10.0125C5.4 10.4625 4.125 11.325 3.1125 12.525C1.575 14.325 0.712503 16.8375 0.675003 19.575C0.675003 19.9125 0.862503 20.2125 1.125 20.3624C2.0625 20.85 5.475 22.3875 9.075 22.3875C10.2375 22.3875 11.4375 22.2374 12.675 21.975C13.125 21.8624 13.425 21.4125 13.3125 20.9625C13.2375 20.5125 12.75 20.2125 12.3 20.325ZM9.075 3.03745C10.6875 3.03745 12.0375 4.34995 12.0375 5.99995C12.0375 7.61245 10.725 8.96245 9.075 8.96245C7.4625 8.96245 6.1125 7.64995 6.1125 5.99995C6.15 4.38745 7.4625 3.03745 9.075 3.03745Z" fill="#161A23"/>
<path d="M23.25 16.05C23.0625 15.4125 22.4625 15 21.7875 15H19.9125L19.35 13.2375C19.1625 12.6 18.5625 12.1875 17.8875 12.1875C17.2125 12.1875 16.65 12.6 16.425 13.2375L15.9 15H14.025C13.35 15 12.7875 15.4125 12.5625 16.05C12.3375 16.6875 12.5625 17.3625 13.125 17.775L14.625 18.8625L14.0625 20.625C13.875 21.2625 14.0625 21.9375 14.625 22.35C15.15 22.725 15.9 22.725 16.425 22.35L17.925 21.2625L19.425 22.35C19.6875 22.5375 20.025 22.65 20.325 22.65C20.625 22.65 20.9625 22.5375 21.225 22.35C21.75 21.975 21.975 21.2625 21.7875 20.625L21.225 18.8625L22.725 17.775C23.25 17.4 23.475 16.6875 23.25 16.05ZM20.1375 17.55C19.6125 17.925 19.3875 18.6375 19.575 19.275L20.025 20.7L18.825 19.8375C18.3 19.4625 17.55 19.4625 17.025 19.8375L15.825 20.7L16.275 19.275C16.4625 18.6375 16.275 17.9625 15.7125 17.55L14.5125 16.6875H16.0125C16.6875 16.6875 17.25 16.275 17.475 15.6375L17.925 14.2125L18.375 15.6375C18.5625 16.275 19.1625 16.6875 19.8375 16.6875H21.3375L20.1375 17.55Z" fill="#161A23"/>
</svg>
