<svg width="24" height="24" viewBox="0 0 24 24" fill="none" xmlns="http://www.w3.org/2000/svg">
<path d="M8.17496 13.8C10.7625 13.8 12.825 11.7 12.825 9.15C12.825 6.6 10.725 4.5 8.17496 4.5C5.62496 4.5 3.52496 6.5625 3.52496 9.15C3.52496 11.7375 5.62496 13.8 8.17496 13.8ZM8.17496 6.15C9.82496 6.15 11.1375 7.5 11.1375 9.1125C11.1375 10.725 9.78746 12.075 8.17496 12.075C6.52496 12.075 5.21246 10.725 5.21246 9.1125C5.21246 7.5 6.52496 6.15 8.17496 6.15Z" fill="#161A23"/>
<path d="M8.17498 14.9625C5.47498 14.9625 2.88748 16.05 0.899976 18.075C0.562476 18.4125 0.562476 18.9375 0.899976 19.275C1.04998 19.425 1.27498 19.5375 1.49998 19.5375C1.72498 19.5375 1.94998 19.4625 2.09998 19.275C3.74998 17.5875 5.92498 16.65 8.17498 16.65C10.3875 16.65 12.5625 17.5875 14.25 19.275C14.5875 19.6125 15.1125 19.6125 15.45 19.275C15.7875 18.9375 15.7875 18.4125 15.45 18.075C13.4625 16.0875 10.875 14.9625 8.17498 14.9625Z" fill="#161A23"/>
<path d="M17.7375 13.8C19.2375 13.8 20.475 12.5625 20.475 11.0625C20.475 9.56251 19.2375 8.32501 17.7375 8.32501C16.2375 8.32501 15 9.56251 15 11.0625C14.9625 12.5625 16.2 13.8 17.7375 13.8ZM17.7375 9.97501C18.3375 9.97501 18.7875 10.4625 18.7875 11.025C18.7875 11.625 18.3 12.075 17.7375 12.075C17.175 12.075 16.6875 11.5875 16.6875 11.025C16.65 10.4625 17.1375 9.97501 17.7375 9.97501Z" fill="#161A23"/>
<path d="M23.0625 17.1C21.075 15.2625 18.3375 14.5125 15.6 15.225C15.15 15.3375 14.8875 15.7875 15 16.2375C15.1125 16.6875 15.6 16.95 16.0125 16.8375C18.1875 16.275 20.3625 16.8375 21.9 18.3C22.05 18.45 22.275 18.525 22.4625 18.525C22.6875 18.525 22.9125 18.45 23.0625 18.2625C23.4375 17.9625 23.4 17.4375 23.0625 17.1Z" fill="#161A23"/>
</svg>
