<svg width="24" height="24" viewBox="0 0 24 24" fill="none" xmlns="http://www.w3.org/2000/svg">
<g clip-path="url(#clip0_501_42838)">
<path d="M12 5.8125C9.9375 5.8125 8.25 7.4625 8.25 9.45C8.25 11.4375 9.9375 13.125 12 13.125C14.0625 13.125 15.75 11.475 15.75 9.4875C15.75 7.5 14.0625 5.8125 12 5.8125ZM12 11.4375C10.875 11.4375 9.9375 10.575 9.9375 9.4875C9.9375 8.4 10.875 7.5 12 7.5C13.125 7.5 14.0625 8.3625 14.0625 9.45C14.0625 10.5375 13.125 11.4375 12 11.4375Z" fill="#161A23"/>
<path d="M12 0.675049C5.73749 0.675049 0.674988 5.73755 0.674988 12C0.674988 18.2626 5.73749 23.3625 12 23.3625C18.2625 23.3625 23.3625 18.2626 23.3625 12C23.3625 5.73755 18.2625 0.675049 12 0.675049ZM7.42499 20.475V17.4C7.42499 16.2 8.39999 15.225 9.59999 15.225H14.475C15.675 15.225 16.65 16.2 16.65 17.4V20.475C15.3 21.225 13.725 21.6376 12.0375 21.6376C10.35 21.675 8.77499 21.225 7.42499 20.475ZM18.3 19.3125V17.4C18.3 15.2625 16.575 13.5375 14.4375 13.5375H9.56249C7.42499 13.5375 5.69999 15.2625 5.69999 17.4V19.3125C3.63749 17.55 2.32499 14.925 2.32499 12C2.36249 6.67505 6.67499 2.36255 12 2.36255C17.325 2.36255 21.675 6.71255 21.675 12.0375C21.675 14.925 20.3625 17.55 18.3 19.3125Z" fill="#161A23"/>
</g>
<defs>
<clipPath id="clip0_501_42838">
<rect width="24" height="24" fill="white"/>
</clipPath>
</defs>
</svg>
