<svg width="24" height="24" viewBox="0 0 24 24" fill="none" xmlns="http://www.w3.org/2000/svg">
<g clip-path="url(#clip0_501_42844)">
<path d="M16.2 12.75C15.075 11.4 13.65 10.4625 12.075 9.97498C13.65 9.14998 14.7 7.49998 14.7 5.58748C14.7 2.84998 12.4875 0.599976 9.75001 0.599976C7.01251 0.599976 4.76251 2.88748 4.76251 5.62498C4.76251 7.49998 5.81251 9.14998 7.38751 10.0125C5.81251 10.5 4.42501 11.4375 3.26251 12.7875C1.61251 14.7375 0.675012 17.4375 0.637512 20.4C0.637512 20.7375 0.825012 21.0375 1.08751 21.1875C2.13751 21.7125 5.81251 23.3625 9.71251 23.3625C11.775 23.3625 13.725 23.025 13.8375 22.9875C14.2875 22.9125 14.5875 22.4625 14.5125 22.0125C14.4375 21.5625 13.9875 21.2625 13.5375 21.3375C13.5375 21.3375 11.6625 21.675 9.71251 21.675C6.63751 21.675 3.67501 20.5125 2.32501 19.9125C2.47501 17.55 3.22501 15.4125 4.53751 13.875C5.88751 12.2625 7.72501 11.3625 9.71251 11.3625C11.7 11.3625 13.5375 12.2625 14.8875 13.875C15.1875 14.25 15.7125 14.2875 16.0875 13.9875C16.4625 13.65 16.5 13.125 16.2 12.75ZM9.75001 2.36248C11.55 2.36248 13.0125 3.82498 13.0125 5.66248C13.0125 7.49998 11.55 8.96247 9.75001 8.96247C7.95001 8.96247 6.45001 7.49998 6.45001 5.66248C6.45001 3.82498 7.91251 2.36248 9.75001 2.36248Z" fill="#161A23"/>
<path d="M23.3625 19.6125C23.3625 18.2625 22.2375 17.175 20.85 17.175H18.6C18.15 17.175 17.775 16.8375 17.775 16.425C17.775 16.0125 18.15 15.675 18.6 15.675H21.9C22.35 15.675 22.7625 15.3 22.7625 14.8125C22.7625 14.325 22.3875 13.95 21.9 13.95H20.85V13.8375C20.85 13.3875 20.475 12.975 19.9875 12.975C19.5 12.975 19.125 13.35 19.125 13.8375V13.95H18.5625C17.175 13.95 16.05 15.0375 16.05 16.3875C16.05 17.7375 17.175 18.825 18.5625 18.825H20.8125C21.2625 18.825 21.6375 19.1625 21.6375 19.575C21.6375 19.9875 21.2625 20.325 20.8125 20.325H17.0625C16.6125 20.325 16.2 20.7 16.2 21.1875C16.2 21.675 16.575 22.05 17.0625 22.05H19.1625V22.1625C19.1625 22.6125 19.5375 23.025 20.025 23.025C20.5125 23.025 20.8875 22.65 20.8875 22.1625V22.05C22.2375 22.05 23.3625 20.925 23.3625 19.6125Z" fill="#161A23"/>
</g>
<defs>
<clipPath id="clip0_501_42844">
<rect width="24" height="24" fill="white"/>
</clipPath>
</defs>
</svg>
