<svg width="24" height="24" viewBox="0 0 24 24" fill="none" xmlns="http://www.w3.org/2000/svg">
<path d="M12 10.5C9.1875 10.5 6.9375 8.28755 6.9375 5.58755C6.9375 2.88755 9.1875 0.675049 12 0.675049C14.8125 0.675049 17.0625 2.88755 17.0625 5.58755C17.0625 8.28755 14.8125 10.5 12 10.5ZM12 2.36255C10.125 2.36255 8.625 3.82505 8.625 5.58755C8.625 7.35005 10.125 8.81255 12 8.81255C13.875 8.81255 15.375 7.35005 15.375 5.58755C15.375 3.82505 13.875 2.36255 12 2.36255Z" fill="#161A23"/>
<path d="M19.1625 23.3625H4.83751C3.97501 23.3625 3.22501 22.65 3.22501 21.75V17.1C3.22501 14.25 5.55001 11.925 8.40001 11.925H15.5625C18.4125 11.925 20.7375 14.25 20.7375 17.1V21.75C20.7375 22.6125 20.025 23.3625 19.1625 23.3625ZM4.95001 21.675H19.0875V17.1C19.0875 15.1875 17.5125 13.6125 15.6 13.6125H8.40001C6.48751 13.6125 4.91251 15.1875 4.91251 17.1V21.675H4.95001Z" fill="#161A23"/>
</svg>
