<svg width="24" height="24" viewBox="0 0 24 24" fill="none" xmlns="http://www.w3.org/2000/svg">
<path d="M12.3375 20.7C11.925 20.7375 11.5125 20.7375 11.1 20.7375C8.17502 20.7375 5.36252 19.65 4.08752 19.05C4.23752 16.8 4.95002 14.8125 6.18752 13.3125C7.50002 11.775 9.22502 10.95 11.1 10.95C12.525 10.95 13.875 11.4375 15.0375 12.3375C15.4125 12.6375 15.9375 12.5625 16.2375 12.225C16.5375 11.85 16.4625 11.325 16.125 11.025C15.3 10.3875 14.4375 9.89998 13.4625 9.59998C14.925 8.77498 15.9375 7.19998 15.9375 5.39998C15.9375 2.77498 13.8 0.599976 11.1375 0.599976C8.51252 0.599976 6.33752 2.73748 6.33752 5.39998C6.33752 7.19998 7.31252 8.77498 8.77502 9.56248C7.31252 10.0125 5.96252 10.9125 4.91252 12.1875C3.33752 14.0625 2.43752 16.65 2.40002 19.5C2.40002 19.8375 2.58752 20.1375 2.85002 20.2875C3.82502 20.775 7.35002 22.3875 11.1 22.3875C11.55 22.3875 12 22.35 12.45 22.3125C12.9 22.275 13.275 21.8625 13.2 21.4125C13.2 21 12.7875 20.6625 12.3375 20.7ZM11.1 2.36248C12.825 2.36248 14.2125 3.74998 14.2125 5.47498C14.2125 7.19998 12.825 8.58748 11.1 8.58748C9.37502 8.58748 7.98752 7.19998 7.98752 5.47498C7.98752 3.74998 9.41252 2.36248 11.1 2.36248Z" fill="#161A23"/>
<path d="M21.45 22.0125L20.0625 20.1C20.625 19.5 21 18.7125 21.15 17.8875C21.3375 16.7625 21.075 15.6375 20.4 14.7375C19.725 13.8 18.75 13.2 17.625 13.05C16.5 12.8625 15.375 13.125 14.475 13.8C13.5375 14.475 12.9375 15.45 12.7875 16.575C12.6 17.7 12.8625 18.825 13.5375 19.725C14.2125 20.6625 15.1875 21.2625 16.3125 21.4125C16.5375 21.45 16.7625 21.45 16.9875 21.45C17.5875 21.45 18.1875 21.3 18.75 21.075L20.1375 22.9875C20.2875 23.2125 20.55 23.325 20.8125 23.325C21 23.325 21.15 23.2875 21.3 23.175C21.6375 22.9125 21.7125 22.3875 21.45 22.0125ZM16.5375 19.725C15.8625 19.6125 15.2625 19.2375 14.85 18.7125C14.4375 18.15 14.2875 17.475 14.4 16.8C14.5125 16.125 14.8875 15.525 15.4125 15.1125C15.8625 14.775 16.3875 14.625 16.9125 14.625C17.0625 14.625 17.175 14.625 17.325 14.6625C18 14.775 18.6 15.15 19.0125 15.675C19.425 16.2375 19.575 16.9125 19.4625 17.5875C19.35 18.2625 18.975 18.8625 18.45 19.275C17.8875 19.6875 17.2125 19.8375 16.5375 19.725Z" fill="#161A23"/>
</svg>
