<svg width="24" height="24" viewBox="0 0 24 24" fill="none" xmlns="http://www.w3.org/2000/svg">
<path d="M12 10.5C9.1875 10.5 6.9375 8.28755 6.9375 5.58755C6.9375 2.88755 9.1875 0.675049 12 0.675049C14.8125 0.675049 17.0625 2.88755 17.0625 5.58755C17.0625 8.28755 14.8125 10.5 12 10.5ZM12 2.36255C10.125 2.36255 8.625 3.82505 8.625 5.58755C8.625 7.35005 10.125 8.81255 12 8.81255C13.875 8.81255 15.375 7.35005 15.375 5.58755C15.375 3.82505 13.875 2.36255 12 2.36255Z" fill="#161A23"/>
<path d="M19.9125 23.3625C19.4625 23.3625 19.05 22.9875 19.05 22.5V21.4125C19.05 17.5125 15.9 14.3625 12 14.3625C8.10001 14.3625 4.95001 17.5125 4.95001 21.4125V22.5C4.95001 22.95 4.57501 23.3625 4.08751 23.3625C3.60001 23.3625 3.22501 22.9875 3.22501 22.5V21.4125C3.22501 16.575 7.16251 12.675 11.9625 12.675C16.7625 12.675 20.7 16.6125 20.7 21.4125V22.5C20.7375 22.95 20.3625 23.3625 19.9125 23.3625Z" fill="#161A23"/>
</svg>
