<svg width="24" height="24" viewBox="0 0 24 24" fill="none" xmlns="http://www.w3.org/2000/svg">
<path d="M23.25 20.5875L22.35 18.6374C22.2 18.2999 21.8625 18.1124 21.4875 18.15L19.3125 18.375C18.8625 18.4124 18.525 18.8249 18.5625 19.3124C18.6 19.7624 19.0125 20.0999 19.5 20.0624L19.95 20.025C19.3125 20.85 18.3 21.3375 17.2125 21.3375C15.7125 21.3375 14.3625 20.3999 13.875 18.9749C13.725 18.5249 13.2375 18.2999 12.825 18.4499C12.375 18.5999 12.15 19.0875 12.3 19.4999C12.45 19.9124 12.6375 20.3249 12.8625 20.6999L12.7125 20.775C11.5875 21.0375 10.4625 21.15 9.41249 21.15C6.48749 21.15 3.67499 20.0625 2.39999 19.4625C2.54999 17.2125 3.26249 15.2249 4.49999 13.7625C5.81249 12.225 7.53749 11.4 9.41249 11.4C11.25 11.4 12.975 12.2249 14.25 13.7249C13.8 14.0999 13.3875 14.5499 13.0875 15.075L12.9 14.6249C12.7125 14.2125 12.225 13.9874 11.775 14.1749C11.3625 14.3624 11.1375 14.8499 11.325 15.2999L12.1875 17.2874C12.3375 17.5874 12.6375 17.8125 12.975 17.8125C13.0125 17.8125 13.0125 17.8125 13.05 17.8125L15.225 17.625C15.675 17.5875 16.05 17.1749 15.975 16.7249C15.9 16.2749 15.525 15.9374 15.075 15.9749L14.5125 16.0125C15.1125 14.9625 16.275 14.2874 17.55 14.2874C19.1625 14.2874 20.55 15.3749 20.9625 16.9124C21.075 17.3624 21.525 17.625 21.975 17.5124C22.425 17.4 22.6875 16.9499 22.575 16.4999C21.975 14.2125 19.9125 12.6375 17.5125 12.6375C16.875 12.6375 16.2375 12.7499 15.675 12.9749C15.6375 12.8999 15.6 12.8624 15.525 12.7874C14.4375 11.5124 13.125 10.6125 11.6625 10.1625C13.125 9.33745 14.1 7.76245 14.1 5.99995C14.1 3.37495 11.9625 1.19995 9.29999 1.19995C6.63749 1.19995 4.61249 3.14995 4.61249 5.81245C4.61249 7.61245 5.58749 9.14995 7.04999 9.97495C5.58749 10.425 4.23749 11.3249 3.18749 12.5999C1.61249 14.4749 0.712488 17.0624 0.674988 19.9124C0.674988 20.2499 0.862488 20.5499 1.12499 20.6999C2.09999 21.1875 5.62499 22.7999 9.37499 22.7999C10.575 22.7999 11.85 22.65 13.0875 22.3874C13.125 22.3874 13.1625 22.3874 13.2 22.3499L14.1 22.0124C14.9625 22.65 16.05 22.9874 17.175 22.9874C18.9375 22.9874 20.5125 22.1249 21.45 20.7374L21.7125 21.2624C21.8625 21.5625 22.1625 21.7499 22.4625 21.7499C22.575 21.7499 22.6875 21.7124 22.8 21.6749C23.2875 21.4874 23.475 21 23.25 20.5875ZM9.37499 2.69995C11.1 2.69995 12.4875 4.08745 12.4875 5.81245C12.4875 7.53745 11.1 8.92495 9.37499 8.92495C7.64999 8.92495 6.26249 7.53745 6.26249 5.81245C6.26249 4.08745 7.68749 2.69995 9.37499 2.69995Z" fill="#161A23"/>
</svg>
