<svg width="24" height="24" viewBox="0 0 24 24" fill="none" xmlns="http://www.w3.org/2000/svg">
<path d="M12 10.3875C14.775 10.3875 17.025 8.21245 17.025 5.51245C17.025 2.81245 14.775 0.637451 12 0.637451C9.22501 0.637451 6.97501 2.81245 6.97501 5.51245C6.97501 8.21245 9.22501 10.3875 12 10.3875ZM12 2.36245C13.8375 2.36245 15.3375 3.78745 15.3375 5.54995C15.3375 7.31245 13.8375 8.73745 12 8.73745C10.1625 8.73745 8.66251 7.31245 8.66251 5.54995C8.66251 3.78745 10.1625 2.36245 12 2.36245Z" fill="#161A23"/>
<path d="M14.4375 12.075H9.56251C5.55001 12.075 2.28751 15.375 2.28751 19.3875V22.5C2.28751 22.95 2.66251 23.3625 3.15001 23.3625C3.63751 23.3625 4.01251 22.9875 4.01251 22.5V19.3875C4.01251 16.3125 6.52501 13.7625 9.63751 13.7625H14.475C17.55 13.7625 20.1 16.275 20.1 19.3875V22.5C20.1 22.95 20.475 23.3625 20.9625 23.3625C21.45 23.3625 21.825 22.9875 21.825 22.5V19.3875C21.7125 15.375 18.45 12.075 14.4375 12.075Z" fill="#161A23"/>
</svg>
