<svg width="24" height="24" viewBox="0 0 24 24" fill="none" xmlns="http://www.w3.org/2000/svg">
<g clip-path="url(#clip0_501_42854)">
<path d="M16.8 14.4375C15.5625 14.4375 14.55 15.45 14.55 16.6875C14.55 17.925 15.5625 18.9375 16.8 18.9375C18.0375 18.9375 19.05 17.925 19.05 16.6875C19.05 15.45 18.0375 14.4375 16.8 14.4375ZM16.8 17.2875C16.5 17.2875 16.2375 17.025 16.2375 16.725C16.2375 16.425 16.5 16.1625 16.8 16.1625C17.1 16.1625 17.3625 16.425 17.3625 16.725C17.3625 17.025 17.1 17.2875 16.8 17.2875Z" fill="#161A23"/>
<path d="M22.8375 17.625L21.9 17.1375C21.9 16.9875 21.9375 16.8375 21.9375 16.65C21.9375 16.5 21.9375 16.3125 21.9 16.1625L22.8375 15.6375C23.25 15.375 23.4375 14.8875 23.25 14.4C23.25 14.3625 23.2125 14.325 23.2125 14.2875L22.05 12.3375C21.7875 11.925 21.3 11.775 20.85 11.925C20.8125 11.925 20.775 11.9625 20.7375 11.9625L19.8 12.4875C19.6125 12.3375 19.425 12.1875 19.2 12.0375V11.475C19.2 10.725 18.6 10.125 17.85 10.125H15.75C15.1125 10.125 14.55 10.575 14.4 11.2125C13.4625 10.2375 12.375 9.56252 11.2125 9.15002C12.525 8.36252 13.425 6.90002 13.425 5.25002C13.425 2.73752 11.4 0.712524 8.88751 0.712524C6.37501 0.712524 4.35001 2.77502 4.35001 5.25002C4.35001 6.90002 5.25001 8.36252 6.56251 9.15002C5.21251 9.60002 4.01251 10.425 3.03751 11.5875C1.53751 13.35 0.712512 15.7875 0.637512 18.4875C0.637512 18.825 0.825012 19.125 1.08751 19.275C2.02501 19.725 5.32501 21.2625 8.85001 21.2625C9.71251 21.2625 10.575 21.1875 11.475 21.0375C11.7375 21.4125 12.225 21.5625 12.6375 21.375C12.675 21.375 12.7125 21.3375 12.75 21.3375L13.6875 20.8125C13.875 20.9625 14.0625 21.1125 14.325 21.2625V21.9375C14.325 22.6875 14.925 23.2875 15.675 23.2875H17.7375C18.4875 23.2875 19.0875 22.6875 19.0875 21.9375V21.225C19.3125 21.075 19.5 20.925 19.6875 20.775L20.55 21.2625C21.15 21.6 21.7125 21.375 21.975 20.9625L23.1375 19.0125C23.2875 18.7875 23.325 18.525 23.25 18.2625C23.25 17.9625 23.0625 17.7375 22.8375 17.625ZM8.88751 2.40002C10.4625 2.40002 11.7375 3.67502 11.7375 5.25002C11.7375 6.82502 10.4625 8.10002 8.88751 8.10002C7.31251 8.10002 6.03751 6.82502 6.03751 5.25002C6.03751 3.67502 7.31251 2.40002 8.88751 2.40002ZM2.36251 18C2.51251 15.9375 3.18751 14.0625 4.31251 12.7125C5.51251 11.2875 7.12501 10.5 8.88751 10.5C10.35 10.5 11.7 11.0625 12.825 12.075C12.2625 11.8125 11.7375 12.0375 11.475 12.4125L10.35 14.3625C10.2 14.5875 10.1625 14.85 10.2375 15.1125C10.3125 15.375 10.4625 15.6 10.725 15.7125L11.6625 16.2375C11.6625 16.3875 11.625 16.5375 11.625 16.725C11.625 16.875 11.625 17.025 11.625 17.175L10.65 17.7C10.2375 17.9625 10.05 18.45 10.2375 18.9375C10.2375 18.975 10.275 19.0125 10.275 19.05L10.5375 19.5C9.97501 19.575 9.41251 19.6125 8.85001 19.6125C6.18751 19.5375 3.60001 18.525 2.36251 18ZM20.2125 16.125C20.25 16.275 20.25 16.4625 20.25 16.65C20.25 16.8375 20.25 17.025 20.2125 17.175C20.1375 17.6625 20.3625 18.1875 20.8125 18.4125L21.375 18.75L20.9625 19.4625L20.2875 19.0875C19.875 18.8625 19.35 18.9 19.0125 19.2C18.9 19.275 18.825 19.35 18.75 19.425C18.5625 19.6125 18.4125 19.6875 18.3 19.7625C17.85 19.9875 17.5125 20.475 17.5125 21V21.6H16.0875V21.0375C16.0875 20.5125 15.7875 20.025 15.3 19.8C15.15 19.725 15 19.6125 14.8125 19.4625C14.7375 19.3875 14.625 19.3125 14.55 19.2375C14.175 18.9375 13.6875 18.9 13.275 19.125L12.825 19.3875C12.7125 19.275 12.6 19.2375 12.45 19.2L12.1875 18.7875L12.7875 18.45C13.2 18.225 13.4625 17.7375 13.3875 17.25C13.35 17.0625 13.35 16.875 13.35 16.6875C13.35 16.4625 13.35 16.3125 13.3875 16.1625C13.4625 15.6375 13.2375 15.15 12.7875 14.925L12.1875 14.5875L12.6 13.875L13.275 14.25C13.6875 14.475 14.2125 14.4375 14.55 14.1375C14.625 14.0625 14.7375 13.9875 14.8125 13.9125C15 13.725 15.15 13.65 15.3 13.5375C15.7875 13.3125 16.0875 12.825 16.0875 12.3V11.8125H17.5125V12.2625C17.5125 12.7875 17.8125 13.275 18.3 13.5C18.45 13.575 18.5625 13.6875 18.75 13.8375C18.825 13.9125 18.9375 13.9875 19.0125 14.0625C19.3875 14.3625 19.875 14.4 20.2875 14.175L20.9625 13.8L21.375 14.5125L20.775 14.85C20.3625 15.1125 20.1 15.6 20.2125 16.125Z" fill="#161A23"/>
</g>
<defs>
<clipPath id="clip0_501_42854">
<rect width="24" height="24" fill="white"/>
</clipPath>
</defs>
</svg>
