<svg width="24" height="24" viewBox="0 0 24 24" fill="none" xmlns="http://www.w3.org/2000/svg">
<path d="M16.95 12.225C16.7625 12.225 16.575 12.225 16.425 12.2625C15.3375 11.025 14.025 10.125 12.5625 9.67505C14.025 8.85005 15.0375 7.27505 15.0375 5.47505C15.0375 2.81255 12.8625 0.675049 10.2375 0.675049C7.57502 0.675049 5.43752 2.85005 5.43752 5.47505C5.43752 7.27505 6.45002 8.85005 7.91252 9.67505C6.45002 10.125 5.10002 11.025 4.01252 12.3C2.43752 14.175 1.53752 16.8 1.46252 19.65C1.46252 19.9875 1.65002 20.2875 1.91252 20.4375C2.92502 20.925 6.45002 22.5375 10.2375 22.5375C11.325 22.5375 12.45 22.425 13.575 22.2001C14.5125 22.9125 15.675 23.3625 16.95 23.3625C20.025 23.3625 22.5 20.85 22.5 17.8125C22.5 14.775 20.025 12.225 16.95 12.225ZM10.2375 2.36255C11.9625 2.36255 13.35 3.75005 13.35 5.47505C13.35 7.20005 11.9625 8.58755 10.2375 8.58755C8.51252 8.58755 7.12502 7.20005 7.12502 5.47505C7.12502 3.75005 8.51252 2.36255 10.2375 2.36255ZM3.18752 19.1625C3.33752 16.9125 4.08752 14.8875 5.32502 13.3875C6.63752 11.85 8.40002 10.9875 10.275 10.9875C11.8875 10.9875 13.3875 11.625 14.625 12.75C12.75 13.65 11.4375 15.5625 11.4375 17.775C11.4375 18.8625 11.7375 19.8375 12.3 20.7001C11.625 20.775 10.95 20.85 10.3125 20.85C7.31252 20.85 4.46252 19.7625 3.18752 19.1625ZM16.95 21.675C14.8125 21.675 13.0875 19.95 13.0875 17.8125C13.0875 15.675 14.8125 13.95 16.95 13.95C19.0875 13.95 20.8125 15.675 20.8125 17.8125C20.8125 19.95 19.0875 21.675 16.95 21.675Z" fill="#161A23"/>
<path d="M18.225 16.7251H15.7125C15.2625 16.7251 14.85 17.1001 14.85 17.5876C14.85 18.0751 15.225 18.4501 15.7125 18.4501H18.225C18.675 18.4501 19.0875 18.0751 19.0875 17.5876C19.0875 17.1001 18.7125 16.7251 18.225 16.7251Z" fill="#161A23"/>
</svg>
