<svg width="24" height="24" viewBox="0 0 24 24" fill="none" xmlns="http://www.w3.org/2000/svg">
<path d="M17.5125 14.1C17.8875 13.8375 18 13.3125 17.7375 12.9375C17.6625 12.825 17.55 12.7125 17.475 12.6C16.425 11.3625 15.15 10.5 13.725 10.05C15.15 9.22505 16.125 7.72505 16.125 5.96255C16.125 3.37505 14.025 1.23755 11.4 1.23755C8.81248 1.23755 6.67498 3.33755 6.67498 5.96255C6.67498 7.72505 7.64998 9.22505 9.07498 10.05C7.64998 10.5 6.33748 11.3625 5.32498 12.6C3.78748 14.4375 2.88748 16.9875 2.84998 19.7626C2.84998 20.1 3.03748 20.4 3.29998 20.55C4.27498 21.0375 7.72498 22.6125 11.4 22.6125C12.6 22.6125 13.8 22.4625 15.0375 22.2001C15.4875 22.0875 15.7875 21.6375 15.675 21.1875C15.5625 20.7375 15.1125 20.4375 14.6625 20.55C13.5375 20.8125 12.45 20.925 11.3625 20.925C8.51248 20.925 5.77498 19.8375 4.49998 19.275C4.64998 17.1 5.36248 15.1125 6.56248 13.6875C7.83748 12.1875 9.52498 11.3625 11.3625 11.3625C13.2 11.3625 14.8875 12.1875 16.1625 13.6875C16.2375 13.7625 16.275 13.8375 16.35 13.9125C16.6125 14.2875 17.1375 14.3625 17.5125 14.1ZM11.3625 2.92505C13.0125 2.92505 14.4 4.27505 14.4 5.96255C14.4 7.65005 13.05 9.00005 11.3625 9.00005C9.71248 9.00005 8.32498 7.65005 8.32498 5.96255C8.32498 4.27505 9.71248 2.92505 11.3625 2.92505Z" fill="#161A23"/>
<path d="M21.1875 16.725C21.075 15.675 20.175 14.8125 19.125 14.7C18.15 14.5875 17.2125 15.075 16.7625 15.9C16.5375 16.3125 16.6875 16.8375 17.1 17.025C17.5125 17.25 18.0375 17.1 18.225 16.6875C18.3375 16.4625 18.6375 16.3125 18.9375 16.35C19.2375 16.3875 19.4625 16.6125 19.5 16.9125C19.5375 17.2125 19.35 17.4375 19.1625 17.5125C18.4875 17.85 18 18.6 18 19.35V19.875C18 20.325 18.375 20.7375 18.8625 20.7375C19.35 20.7375 19.725 20.3625 19.725 19.875V19.35C19.725 19.275 19.8375 19.0875 19.9125 19.05C20.8125 18.6375 21.3 17.7 21.1875 16.725Z" fill="#161A23"/>
<path d="M19.65 21.6C19.65 21.5625 19.6125 21.4875 19.575 21.45C19.5375 21.4125 19.5 21.375 19.4625 21.3375C19.425 21.3 19.3875 21.2625 19.3125 21.225C19.275 21.1875 19.2 21.15 19.1625 21.15C19.125 21.15 19.05 21.1125 19.0125 21.1125C18.75 21.075 18.45 21.15 18.2625 21.3375C18.225 21.375 18.1875 21.4125 18.15 21.45C18.1125 21.4875 18.075 21.5625 18.075 21.6C18.0375 21.6375 18.0375 21.7125 18.0375 21.75C18.0375 21.825 18.0375 21.8625 18.0375 21.9C18.0375 21.9375 18.0375 22.0125 18.0375 22.05C18.0375 22.125 18.075 22.1625 18.075 22.2C18.075 22.2375 18.1125 22.3125 18.15 22.35C18.1875 22.3875 18.225 22.425 18.2625 22.4625C18.4125 22.6125 18.6375 22.725 18.8625 22.725C19.0875 22.725 19.3125 22.65 19.4625 22.4625C19.6125 22.3125 19.6875 22.0875 19.6875 21.8625C19.6875 21.7875 19.6875 21.75 19.6875 21.7125C19.6875 21.7125 19.6875 21.675 19.65 21.6Z" fill="#161A23"/>
</svg>
