<svg width="24" height="24" viewBox="0 0 24 24" fill="none" xmlns="http://www.w3.org/2000/svg">
<g clip-path="url(#clip0_501_42827)">
<path d="M21.15 14.925V13.725C21.15 13.0125 20.8875 12.3375 20.3625 11.8125C19.8375 11.2875 19.1625 11.025 18.45 11.025C16.95 11.025 15.75 12.225 15.75 13.725V14.925C14.55 15.75 13.7625 17.1375 13.7625 18.7125C13.7625 21.2625 15.8625 23.3625 18.4125 23.3625C20.9625 23.3625 23.0625 21.2625 23.0625 18.7125C23.1 17.1375 22.3125 15.75 21.15 14.925ZM17.4375 13.725C17.4375 13.1625 17.8875 12.7125 18.45 12.7125C18.7125 12.7125 18.975 12.825 19.1625 13.0125C19.35 13.2 19.4625 13.4625 19.4625 13.725V14.175C19.125 14.1 18.7875 14.0625 18.45 14.0625C18.1125 14.0625 17.775 14.1 17.475 14.175V13.725H17.4375ZM18.45 21.675C16.8 21.675 15.4875 20.3625 15.4875 18.7125C15.4875 17.0625 16.8 15.75 18.45 15.75C20.1 15.75 21.4125 17.0625 21.4125 18.7125C21.4125 20.325 20.0625 21.675 18.45 21.675Z" fill="#161A23"/>
<path d="M18.45 18.2251C18 18.2251 17.5875 18.6001 17.5875 19.0876V19.6126C17.5875 20.0626 17.9625 20.4751 18.45 20.4751C18.9375 20.4751 19.3125 20.1001 19.3125 19.6126V19.0876C19.275 18.6001 18.9 18.2251 18.45 18.2251Z" fill="#161A23"/>
<path d="M9.90002 11.2125C11.25 11.2125 12.525 11.625 13.65 12.4125C14.025 12.675 14.55 12.6 14.8125 12.225C15.075 11.85 15 11.325 14.625 11.0625C13.875 10.5375 13.0875 10.1625 12.2625 9.90005C13.8 9.07505 14.85 7.42505 14.85 5.58755C14.85 2.88755 12.6375 0.675049 9.93752 0.675049C7.23752 0.675049 4.98752 2.85005 4.98752 5.58755C4.98752 7.46255 6.03752 9.07505 7.57502 9.90005C6.03752 10.35 4.65002 11.2875 3.52502 12.6C1.87502 14.55 0.975024 17.2125 0.900024 20.1376C0.900024 20.475 1.08752 20.775 1.35002 20.925C2.36252 21.45 6.00002 23.1 9.86252 23.1C10.2 23.1 10.5375 23.1 10.875 23.0625C11.325 23.025 11.7 22.65 11.6625 22.1625C11.625 21.675 11.25 21.3375 10.7625 21.375C10.5 21.375 10.2 21.375 9.90002 21.375C6.86252 21.375 3.93752 20.25 2.62502 19.65C2.77502 17.3251 3.52502 15.225 4.80002 13.725C6.15002 12.1125 7.95002 11.2125 9.90002 11.2125ZM9.90002 2.36255C11.6625 2.36255 13.125 3.82505 13.125 5.58755C13.125 7.35005 11.6625 8.81255 9.90002 8.81255C8.13752 8.81255 6.67502 7.35005 6.67502 5.58755C6.67502 3.82505 8.10002 2.36255 9.90002 2.36255Z" fill="#161A23"/>
</g>
<defs>
<clipPath id="clip0_501_42827">
<rect width="24" height="24" fill="white"/>
</clipPath>
</defs>
</svg>
