<svg width="24" height="24" viewBox="0 0 24 24" fill="none" xmlns="http://www.w3.org/2000/svg">
<path d="M22.0875 11.775C21.675 11.5875 21.15 11.7375 20.9625 12.1875L20.775 12.5625L19.9875 12.1875C19.575 12 19.05 12.15 18.8625 12.6C18.675 13.05 18.825 13.5375 19.275 13.725L20.0625 14.1L18.825 16.65C17.4 16.3875 15.9 17.0625 15.225 18.45C14.4375 20.1 15.1125 22.05 16.7625 22.875C17.2125 23.1 17.7 23.2125 18.1875 23.2125C19.425 23.2125 20.5875 22.5375 21.15 21.3375C21.825 19.95 21.4125 18.3375 20.325 17.4L22.5 12.9C22.6875 12.45 22.5375 11.9625 22.0875 11.775ZM19.6875 20.55C19.3125 21.3375 18.3375 21.675 17.55 21.3C16.7625 20.925 16.425 19.95 16.8 19.1625C17.0625 18.6 17.6625 18.2625 18.2625 18.2625C18.4875 18.2625 18.75 18.3 18.975 18.4125C19.725 18.7875 20.0625 19.725 19.6875 20.55Z" fill="#161A23"/>
<path d="M12.225 21.5624C11.6625 21.6374 11.0625 21.6749 10.5 21.6749C7.42499 21.6749 4.46249 20.5124 3.11249 19.9124C3.26249 17.5499 4.01249 15.4124 5.32499 13.8749C6.67499 12.2625 8.51249 11.3624 10.5 11.3624C12.4875 11.3624 14.325 12.2625 15.675 13.8749C15.975 14.2499 16.5 14.2874 16.875 13.9874C17.25 13.6874 17.2875 13.1624 16.9875 12.7874C15.8625 11.4374 14.4375 10.5 12.8625 10.0125C14.4375 9.18745 15.4875 7.53745 15.4875 5.62495C15.4875 2.88745 13.275 0.637451 10.5 0.637451C7.72499 0.637451 5.54999 2.88745 5.54999 5.62495C5.54999 7.49995 6.59999 9.14995 8.17499 10.0125C6.59999 10.5 5.21249 11.4374 4.04999 12.7874C2.39999 14.7374 1.46249 17.4375 1.42499 20.4C1.42499 20.7374 1.61249 21.0374 1.87499 21.1874C2.92499 21.7125 6.59999 23.3624 10.5 23.3624C11.1375 23.3624 11.775 23.3249 12.4125 23.2499C12.8625 23.2125 13.2 22.7624 13.1625 22.3124C13.125 21.8624 12.7125 21.4874 12.225 21.5624ZM10.5 2.36245C12.3 2.36245 13.8 3.82495 13.8 5.66245C13.8 7.49995 12.3375 8.96245 10.5 8.96245C8.66249 8.96245 7.19999 7.49995 7.19999 5.66245C7.19999 3.82495 8.69999 2.36245 10.5 2.36245Z" fill="#161A23"/>
</svg>
