<svg width="24" height="24" viewBox="0 0 24 24" fill="none" xmlns="http://www.w3.org/2000/svg">
<path d="M12.4875 11.475C12.675 11.0625 12.45 10.5375 12.0375 10.3875C11.85 10.3125 11.625 10.2375 11.4375 10.1625C12.825 9.375 13.7625 7.875 13.7625 6.15C13.7625 3.6 11.6625 1.5 9.11249 1.5C6.56249 1.5 4.46249 3.5625 4.46249 6.1125C4.46249 7.8375 5.39999 9.3375 6.78749 10.125C5.39999 10.575 4.12499 11.4375 3.11249 12.6375C1.57499 14.4375 0.712488 16.95 0.674988 19.725C0.674988 20.0625 0.862488 20.3625 1.12499 20.5125C2.09999 21 5.47499 22.5375 9.11249 22.5375C9.56249 22.5375 9.97499 22.1625 9.97499 21.675C9.97499 21.1875 9.59999 20.8125 9.11249 20.8125C6.29999 20.8125 3.59999 19.7625 2.36249 19.2C2.51249 17.0625 3.22499 15.1125 4.38749 13.725C5.62499 12.2625 7.31249 11.4375 9.11249 11.4375C9.89999 11.4375 10.6875 11.5875 11.4 11.8875C11.8125 12.1125 12.3375 11.8875 12.4875 11.475ZM9.11249 3.15C10.7625 3.15 12.075 4.4625 12.075 6.1125C12.075 7.7625 10.7625 9.075 9.11249 9.075C7.46249 9.075 6.14999 7.7625 6.14999 6.1125C6.14999 4.4625 7.46249 3.15 9.11249 3.15Z" fill="#161A23"/>
<path d="M17.7 10.5375C14.5875 10.5375 12.075 13.05 12.075 16.1625V21.6375C12.075 22.0875 12.45 22.5 12.9375 22.5C13.425 22.5 13.8 22.125 13.8 21.6375V16.1625C13.8 13.9875 15.5625 12.225 17.7375 12.225C19.9125 12.225 21.675 13.9875 21.675 16.1625V21.6375C21.675 22.0875 22.05 22.5 22.5375 22.5C23.025 22.5 23.4 22.125 23.4 21.6375V16.1625C23.3625 13.05 20.8125 10.5375 17.7 10.5375Z" fill="#161A23"/>
<path d="M17.7 13.6875C16.2375 13.6875 15.0375 14.8875 15.0375 16.35V21.6C15.0375 22.05 15.4125 22.4625 15.9 22.4625C16.3875 22.4625 16.7625 22.0875 16.7625 21.6V16.35C16.7625 15.825 17.2125 15.375 17.7375 15.375C18.2625 15.375 18.7125 15.825 18.7125 16.35V16.9125C18.7125 17.3625 19.0875 17.775 19.575 17.775C20.0625 17.775 20.4375 17.4 20.4375 16.9125V16.35C20.3625 14.8875 19.2 13.6875 17.7 13.6875Z" fill="#161A23"/>
<path d="M19.5375 19.0125C19.0875 19.0125 18.675 19.3875 18.675 19.875V21.6375C18.675 22.0875 19.05 22.5 19.5375 22.5C20.025 22.5 20.4 22.125 20.4 21.6375V19.875C20.3625 19.3875 19.9875 19.0125 19.5375 19.0125Z" fill="#161A23"/>
</svg>
