<svg width="24" height="24" viewBox="0 0 24 24" fill="none" xmlns="http://www.w3.org/2000/svg">
<path d="M8.77501 10.575C9.86251 10.575 10.95 10.9125 11.8875 11.5125C12.2625 11.775 12.7875 11.6625 13.05 11.2875C13.3125 10.9125 13.2 10.3875 12.825 10.125C12.2625 9.74995 11.7 9.48745 11.1 9.29995C12.4125 8.51245 13.275 7.08745 13.275 5.47495C13.275 2.99995 11.25 1.01245 8.81251 1.01245C6.37501 1.01245 4.27501 2.96245 4.27501 5.39995C4.27501 7.01245 5.13751 8.43745 6.45001 9.22495C5.13751 9.67495 3.97501 10.5 3.00001 11.625C1.53751 13.35 0.712512 15.7875 0.637512 18.4125C0.637512 18.75 0.825012 19.05 1.08751 19.2C1.98751 19.65 5.25001 21.15 8.73751 21.15C9.11251 21.15 9.52501 21.15 9.90001 21.1124C10.35 21.075 10.725 20.6625 10.6875 20.2125C10.65 19.7625 10.2375 19.3875 9.78751 19.4249C9.45001 19.4625 9.07501 19.4625 8.73751 19.4625C6.07501 19.4625 3.52501 18.4874 2.32501 17.9249C2.47501 15.9 3.15001 14.0625 4.23751 12.75C5.47501 11.325 7.05001 10.575 8.77501 10.575ZM8.77501 2.62495C10.3125 2.62495 11.55 3.86245 11.55 5.39995C11.55 6.93745 10.3125 8.17495 8.77501 8.17495C7.23751 8.17495 6.00001 6.93745 6.00001 5.39995C6.00001 3.86245 7.23751 2.62495 8.77501 2.62495Z" fill="#161A23"/>
<path d="M18.7125 13.7624C17.925 12.9749 16.8375 12.5999 15.7125 12.6749C13.65 12.8249 12 14.5499 12 16.6499C12 17.9249 12.525 19.0874 13.4625 19.8374V21.2624C13.4625 22.2749 14.2875 23.0624 15.2625 23.0624H16.6125C17.625 23.0624 18.4125 22.2374 18.4125 21.2624V19.8374C19.35 19.0874 19.9125 17.9249 19.9125 16.6874C19.9125 15.5624 19.5 14.5499 18.7125 13.7624ZM15.7875 14.3624C15.825 14.3624 15.8625 14.3624 15.9 14.3624C16.5 14.3624 17.0625 14.5874 17.475 14.9999C17.925 15.4499 18.1875 16.0499 18.1875 16.6874C18.1875 17.4749 17.8125 18.1874 17.175 18.5999H14.5875C13.95 18.1499 13.575 17.4374 13.6125 16.6499C13.6875 15.4499 14.625 14.4374 15.7875 14.3624ZM16.6125 21.3749H15.2625C15.1875 21.3749 15.15 21.3374 15.15 21.2624V20.3249H16.725V21.2624C16.725 21.2999 16.6875 21.3749 16.6125 21.3749Z" fill="#161A23"/>
<path d="M15.9375 12.1499C16.3875 12.1499 16.8 11.7749 16.8 11.2874V10.5749C16.8 10.1249 16.425 9.7124 15.9375 9.7124C15.45 9.7124 15.075 10.0874 15.075 10.5749V11.2874C15.075 11.7749 15.4875 12.1499 15.9375 12.1499Z" fill="#161A23"/>
<path d="M21.5625 13.3875C21.9 13.05 21.9 12.525 21.5625 12.1875C21.225 11.85 20.7 11.85 20.3625 12.1875L19.725 12.7875C19.3875 13.125 19.3875 13.65 19.725 13.9875C19.875 14.1375 20.1 14.25 20.325 14.25C20.55 14.25 20.7375 14.175 20.925 14.025L21.5625 13.3875Z" fill="#161A23"/>
<path d="M22.5 16.7625H21.7875C21.3375 16.7625 20.925 17.1375 20.925 17.625C20.925 18.1125 21.3 18.4875 21.7875 18.4875H22.5C22.95 18.4875 23.3625 18.1125 23.3625 17.625C23.3625 17.1375 22.95 16.7625 22.5 16.7625Z" fill="#161A23"/>
</svg>
