<svg width="24" height="24" viewBox="0 0 24 24" fill="none" xmlns="http://www.w3.org/2000/svg">
<g clip-path="url(#clip0_501_42818)">
<path d="M22.95 14.8875C22.275 14.2875 21.525 13.35 21.375 12.5625C21.3 12.15 20.9625 11.85 20.55 11.85H15.4875C15.1125 11.5125 14.775 11.25 14.4 10.95C13.65 10.425 12.9 10.05 12.1125 9.82498C13.65 8.99998 14.6625 7.38748 14.6625 5.51248C14.6625 2.81248 12.45 0.599976 9.75001 0.599976C7.05001 0.599976 4.83751 2.81248 4.83751 5.51248C4.83751 7.34998 5.88751 8.99998 7.38751 9.82498C5.88751 10.35 4.50001 11.25 3.37501 12.5625C1.76251 14.475 0.825006 17.175 0.787506 20.0625C0.787506 20.4 0.975006 20.7 1.23751 20.85C2.25001 21.375 5.88751 23.025 9.75001 23.025C10.0875 23.025 10.425 23.025 10.7625 22.9875C11.475 22.95 12.225 22.8375 12.975 22.6875C13.35 22.6125 13.7625 22.5 14.175 22.35L15.075 22.0125C16.1625 22.95 17.2875 23.25 17.625 23.325C17.7 23.325 17.7375 23.3625 17.8125 23.3625C17.8875 23.3625 17.925 23.3625 18 23.325C18.3375 23.25 19.4625 22.95 20.5875 21.975C21.3375 21.3 21.975 20.475 22.35 19.5375C22.8375 18.4125 23.1375 17.0625 23.1375 15.5625C23.2125 15.3 23.1375 15.075 22.95 14.8875ZM9.75001 2.36248C11.5125 2.36248 12.975 3.78748 12.975 5.58748C12.975 7.34998 11.55 8.81248 9.75001 8.81248C7.95001 8.81248 6.52501 7.38748 6.52501 5.58748C6.52501 3.78748 7.98751 2.36248 9.75001 2.36248ZM12.675 21.0375C12 21.15 11.325 21.2625 10.65 21.3C10.35 21.3375 10.05 21.3375 9.75001 21.3375C6.71251 21.3375 3.82501 20.2125 2.47501 19.575C2.62501 17.25 3.37501 15.1875 4.65001 13.65C6.26251 11.7375 8.55001 10.875 10.9125 11.2875C11.775 11.4375 12.6 11.8125 13.425 12.3375C13.725 12.5625 13.9875 12.75 14.2125 12.975C13.95 13.65 13.3125 14.3625 12.7875 14.85C12.6 15 12.525 15.2625 12.525 15.4875C12.5625 16.9875 12.825 18.3375 13.3125 19.4625C13.5 19.875 13.6875 20.25 13.95 20.5875L13.65 20.7C13.275 20.8875 12.975 21 12.675 21.0375ZM20.8875 18.8625C20.5875 19.575 20.1 20.2125 19.5375 20.7C18.8625 21.2625 18.1875 21.525 17.85 21.6375C17.5125 21.525 16.8375 21.2625 16.1625 20.7C15.6 20.2125 15.1125 19.575 14.8125 18.8625C14.4375 18.0375 14.2125 17.025 14.175 15.9C14.6625 15.4125 15.375 14.5875 15.75 13.65C15.7875 13.65 15.7875 13.6125 15.825 13.6125C15.825 13.6125 15.825 13.6125 15.8625 13.575H19.875C20.25 14.55 21 15.375 21.4875 15.9C21.4875 17.025 21.2625 18 20.8875 18.8625Z" fill="#161A23"/>
</g>
<defs>
<clipPath id="clip0_501_42818">
<rect width="24" height="24" fill="white"/>
</clipPath>
</defs>
</svg>
