<svg width="24" height="24" viewBox="0 0 24 24" fill="none" xmlns="http://www.w3.org/2000/svg">
<path d="M22.35 13.575C21.675 12.8625 20.775 12.4875 19.8 12.4875C19.05 12.4875 18.375 12.7125 17.775 13.1625C17.7375 13.2 17.7 13.2 17.6625 13.2375C17.625 13.2 17.5875 13.2 17.55 13.1625C16.95 12.7125 16.275 12.4875 15.525 12.4875C15.375 12.4875 15.225 12.4875 15.075 12.525C14.0625 11.3625 12.825 10.5375 11.475 10.125C12.9 9.29998 13.8375 7.79998 13.8375 6.03748C13.8375 3.44998 11.7375 1.34998 9.15001 1.34998C6.56251 1.34998 4.50001 3.44998 4.50001 6.03748C4.50001 7.76248 5.47501 9.29998 6.86251 10.125C5.43751 10.575 4.16251 11.4375 3.11251 12.675C1.57501 14.5125 0.675012 17.0625 0.637512 19.8375C0.637512 20.175 0.825012 20.475 1.08751 20.625C2.06251 21.1125 5.51251 22.6875 9.18751 22.6875C11.1375 22.6875 12.975 22.35 13.05 22.35C13.5 22.275 13.8 21.825 13.725 21.375C13.65 20.925 13.2 20.625 12.75 20.7C12.75 20.7 10.9875 21 9.18751 21C6.33751 21 3.60001 19.95 2.36251 19.35C2.51251 17.175 3.22501 15.225 4.42501 13.8C5.70001 12.3 7.38751 11.475 9.22501 11.475C10.8 11.475 12.3 12.1125 13.5 13.2375C13.35 13.35 13.2 13.4625 13.0875 13.6125C12.45 14.2875 12.1125 15.225 12.1125 16.2375C12.1125 17.25 12.4875 18.1875 13.275 19.0875C13.9125 19.8375 14.775 20.55 15.75 21.4125C16.0875 21.675 16.4625 22.0125 16.8375 22.35C17.1 22.575 17.4375 22.6875 17.775 22.6875C18.1125 22.6875 18.45 22.575 18.7125 22.35C19.0875 22.0125 19.4625 21.7125 19.8 21.4125C20.8125 20.5875 21.6375 19.8375 22.275 19.0875C23.0625 18.15 23.4375 17.2125 23.4375 16.2375C23.3625 15.1875 22.9875 14.2875 22.35 13.575ZM9.22501 3.03748C10.875 3.03748 12.225 4.38748 12.225 6.03748C12.225 7.68748 10.875 9.03748 9.22501 9.03748C7.57501 9.03748 6.22501 7.68748 6.22501 6.03748C6.22501 4.38748 7.53751 3.03748 9.22501 3.03748ZM20.8875 17.9625C20.3625 18.6 19.5375 19.275 18.6 20.0625C18.3375 20.2875 18 20.55 17.7 20.85C17.3625 20.5875 17.0625 20.2875 16.8 20.0625C15.8625 19.275 15.075 18.6 14.5125 17.9625C13.9875 17.325 13.7625 16.8 13.7625 16.2C13.7625 15.6375 13.95 15.1125 14.2875 14.7375C14.625 14.3625 15.075 14.175 15.6 14.175C15.975 14.175 16.275 14.2875 16.6125 14.5125C16.725 14.625 16.8375 14.7375 16.95 14.85C17.1375 15.075 17.4375 15.225 17.7375 15.225C18.0375 15.225 18.3375 15.075 18.525 14.85C18.6375 14.7375 18.75 14.5875 18.8625 14.5125C19.1625 14.2875 19.5 14.175 19.8375 14.175C20.325 14.175 20.8125 14.3625 21.15 14.7375C21.4875 15.1125 21.675 15.6375 21.675 16.2C21.675 16.8 21.4125 17.3625 20.8875 17.9625Z" fill="#161A23"/>
</svg>
