<svg width="24" height="24" viewBox="0 0 24 24" fill="none" xmlns="http://www.w3.org/2000/svg">
<g clip-path="url(#clip0_501_52116)">
<path d="M21.0001 0.675049H3.00005C1.72505 0.675049 0.675049 1.72505 0.675049 3.00005V21.0001C0.675049 22.2751 1.72505 23.3251 3.00005 23.3251H21.0001C22.2751 23.3251 23.3251 22.2751 23.3251 21.0001V3.00005C23.3251 1.72505 22.2751 0.675049 21.0001 0.675049ZM21.0001 21.6751H3.00005C2.62505 21.6751 2.32505 21.3751 2.32505 21.0001V3.00005C2.32505 2.62505 2.62505 2.32505 3.00005 2.32505H21.0001C21.3751 2.32505 21.6751 2.62505 21.6751 3.00005V6.03755H19.8376C19.3876 6.03755 19.0126 6.41255 19.0126 6.86255C19.0126 7.31255 19.3876 7.68755 19.8376 7.68755H21.6751V16.725H19.8376C19.3876 16.725 19.0126 17.1 19.0126 17.5501C19.0126 18 19.3876 18.375 19.8376 18.375H21.6751V21.0001C21.6751 21.3751 21.3751 21.6751 21.0001 21.6751Z" fill="#161A23"/>
<path d="M16.5001 11.3625H14.8876C14.5501 9.56245 13.1251 8.13745 11.2876 7.76245V6.14995C11.2876 5.69995 10.9126 5.32495 10.4626 5.32495C10.0126 5.32495 9.6376 5.69995 9.6376 6.14995V7.76245C7.8376 8.09995 6.4126 9.52495 6.0376 11.3625H4.4251C3.9751 11.3625 3.6001 11.7375 3.6001 12.1875C3.6001 12.6375 3.9751 13.0125 4.4251 13.0125H6.0001C6.3376 14.8125 7.7626 16.2375 9.6001 16.6125V18.225C9.6001 18.675 9.9751 19.05 10.4251 19.05C10.8751 19.05 11.2501 18.675 11.2501 18.225V16.6125C13.0501 16.275 14.4751 14.85 14.8501 13.0125H16.5001C16.9501 13.0125 17.3251 12.6375 17.3251 12.1875C17.3251 11.775 16.9501 11.3625 16.5001 11.3625ZM10.4251 15.0375C8.8876 15.0375 7.6126 13.7625 7.6126 12.225C7.6126 10.6875 8.8876 9.41245 10.4251 9.41245C11.9626 9.41245 13.2376 10.6875 13.2376 12.225C13.2376 13.7625 12.0001 15.0375 10.4251 15.0375Z" fill="#161A23"/>
<path d="M10.4251 11.1375C9.82515 11.1375 9.33765 11.625 9.33765 12.225C9.33765 12.825 9.82515 13.3125 10.4251 13.3125C11.0251 13.3125 11.5126 12.825 11.5126 12.225C11.5126 11.625 11.0251 11.1375 10.4251 11.1375Z" fill="#161A23"/>
</g>
<defs>
<clipPath id="clip0_501_52116">
<rect width="24" height="24" fill="white"/>
</clipPath>
</defs>
</svg>
