<svg width="24" height="24" viewBox="0 0 24 24" fill="none" xmlns="http://www.w3.org/2000/svg">
<path d="M20.8125 0.675049H18.375C17.2875 0.675049 16.3875 1.57505 16.3875 2.66255V5.10005C16.3875 5.32505 16.425 5.55005 16.5 5.77505L13.6875 8.92505C13.5375 8.88755 13.3875 8.85005 13.2375 8.85005H10.8C9.71251 8.85005 8.81251 9.75005 8.81251 10.8375V13.275C8.81251 13.575 8.88751 13.875 9.00001 14.1L6.30001 17.1376C6.11251 17.0625 5.88751 17.025 5.66251 17.025H3.18751C2.10001 17.025 1.20001 17.925 1.20001 19.0126V21.375C1.20001 22.4625 2.10001 23.3625 3.18751 23.3625H5.62501C6.71251 23.3625 7.61251 22.4625 7.61251 21.375V18.9375C7.61251 18.7125 7.57501 18.4875 7.50001 18.2626L10.3125 15.1125C10.4625 15.15 10.6125 15.1875 10.7625 15.1875H13.2C14.2875 15.1875 15.1875 14.2875 15.1875 13.2V10.7625C15.1875 10.4625 15.1125 10.1625 15 9.93755L17.7 6.90005C17.8875 6.97505 18.1125 7.01255 18.3375 7.01255H20.775C21.8625 7.01255 22.7625 6.11255 22.7625 5.02505V2.62505C22.7625 1.53755 21.9 0.675049 20.8125 0.675049ZM5.92501 21.375C5.92501 21.525 5.81251 21.675 5.62501 21.675H3.18751C3.03751 21.675 2.88751 21.5625 2.88751 21.375V18.9375C2.88751 18.7875 3.00001 18.6376 3.18751 18.6376H5.62501C5.77501 18.6376 5.92501 18.75 5.92501 18.9375V21.375ZM13.5 13.2375C13.5 13.3875 13.3875 13.5375 13.2 13.5375H10.7625C10.6125 13.5375 10.4625 13.425 10.4625 13.2375V10.8C10.4625 10.65 10.575 10.5 10.7625 10.5H13.2C13.35 10.5 13.5 10.6125 13.5 10.8V13.2375ZM21.075 5.06255C21.075 5.21255 20.9625 5.36255 20.775 5.36255H18.375C18.225 5.36255 18.075 5.25005 18.075 5.06255V2.62505C18.075 2.47505 18.1875 2.32505 18.375 2.32505H20.8125C20.9625 2.32505 21.1125 2.43755 21.1125 2.62505V5.06255H21.075Z" fill="#161A23"/>
</svg>
