<svg width="24" height="24" viewBox="0 0 24 24" fill="none" xmlns="http://www.w3.org/2000/svg">
<path d="M20.8125 0.637451H18.375C17.2875 0.637451 16.3875 1.53745 16.3875 2.62495V5.06245C16.3875 5.28745 16.425 5.51245 16.5 5.73745L6.30001 17.0999C6.11251 17.0249 5.88751 16.9874 5.66251 16.9874H3.18751C2.10001 16.9874 1.20001 17.8874 1.20001 18.9749V21.3749C1.20001 22.4625 2.10001 23.3624 3.18751 23.3624H5.62501C6.71251 23.3624 7.61251 22.4625 7.61251 21.3749V18.9374C7.61251 18.7125 7.57501 18.4874 7.50001 18.2624L17.7375 6.89995C17.925 6.97495 18.15 7.01245 18.375 7.01245H20.8125C21.9 7.01245 22.8 6.11245 22.8 5.02495V2.62495C22.7625 1.53745 21.9 0.637451 20.8125 0.637451ZM5.92501 21.3749C5.92501 21.525 5.81251 21.6749 5.62501 21.6749H3.18751C3.03751 21.6749 2.88751 21.5624 2.88751 21.3749V18.9374C2.88751 18.7874 3.00001 18.6374 3.18751 18.6374H5.62501C5.77501 18.6374 5.92501 18.7499 5.92501 18.9374V21.3749ZM21.075 5.06245C21.075 5.21245 20.9625 5.36245 20.775 5.36245H18.375C18.225 5.36245 18.075 5.24995 18.075 5.06245V2.62495C18.075 2.47495 18.1875 2.32495 18.375 2.32495H20.8125C20.9625 2.32495 21.1125 2.43745 21.1125 2.62495V5.06245H21.075Z" fill="#161A23"/>
</svg>
