<svg width="24" height="24" viewBox="0 0 24 24" fill="none" xmlns="http://www.w3.org/2000/svg">
<path d="M21.0375 9.71248C20.0625 9.71248 19.2375 10.3125 18.9 11.175H14.625L12.6 9.14998C12.2625 8.81248 11.7375 8.81248 11.4 9.14998L9.37501 11.175H5.06251C4.72501 10.3125 3.90001 9.71248 2.92501 9.71248C1.65001 9.71248 0.637512 10.725 0.637512 12C0.637512 13.275 1.65001 14.2875 2.92501 14.2875C3.90001 14.2875 4.72501 13.6875 5.06251 12.825H9.37501L11.4 14.85C11.55 15 11.775 15.1125 12 15.1125C12.225 15.1125 12.45 15.0375 12.6 14.85L14.625 12.825H18.9C19.2375 13.6875 20.0625 14.2875 21.0375 14.2875C22.3125 14.2875 23.325 13.275 23.325 12C23.3625 10.725 22.3125 9.71248 21.0375 9.71248ZM2.96251 12.6C2.62501 12.6 2.36251 12.3375 2.36251 12C2.36251 11.6625 2.62501 11.4 2.96251 11.4C3.30001 11.4 3.56251 11.6625 3.56251 12C3.56251 12.3375 3.26251 12.6 2.96251 12.6ZM12 13.0875L10.9125 12L12 10.9125L13.0875 12L12 13.0875ZM21.0375 12.6C20.7 12.6 20.4375 12.3375 20.4375 12C20.4375 11.6625 20.7 11.4 21.0375 11.4C21.375 11.4 21.6375 11.6625 21.6375 12C21.675 12.3375 21.375 12.6 21.0375 12.6Z" fill="#161A23"/>
</svg>
