<svg width="24" height="24" viewBox="0 0 24 24" fill="none" xmlns="http://www.w3.org/2000/svg">
<path d="M1.49995 6.86251H22.4999C22.9499 6.86251 23.3624 6.48751 23.3624 6.00001C23.3624 5.51251 22.9874 5.13751 22.4999 5.13751H1.49995C1.04995 5.13751 0.637451 5.51251 0.637451 6.00001C0.637451 6.48751 1.04995 6.86251 1.49995 6.86251Z" fill="#161A23"/>
<path d="M22.4999 11.175H1.49995C1.04995 11.175 0.637451 11.55 0.637451 12.0375C0.637451 12.4875 1.01245 12.9 1.49995 12.9H22.4999C22.9499 12.9 23.3624 12.525 23.3624 12.0375C23.3624 11.55 22.9499 11.175 22.4999 11.175Z" fill="#161A23"/>
<path d="M22.4999 17.1375H1.49995C1.04995 17.1375 0.637451 17.5125 0.637451 18C0.637451 18.4875 1.01245 18.8625 1.49995 18.8625H22.4999C22.9499 18.8625 23.3624 18.4875 23.3624 18C23.3624 17.5125 22.9499 17.1375 22.4999 17.1375Z" fill="#161A23"/>
</svg>
