<svg width="25" height="24" viewBox="0 0 25 24" fill="none" xmlns="http://www.w3.org/2000/svg">
<path d="M17.5125 20.1C17.325 20.1 17.1375 20.025 16.95 19.9125C15.5625 18.75 13.8 18.1125 11.9625 18.1125C10.125 18.1125 8.32498 18.75 6.97498 19.9125C6.63748 20.2125 6.07498 20.175 5.77498 19.8C5.47498 19.4625 5.51248 18.9 5.88748 18.6C7.57498 17.175 9.74998 16.3875 11.9625 16.3875C14.2125 16.3875 16.3875 17.175 18.0375 18.6C18.375 18.9 18.45 19.425 18.15 19.8C18 19.9875 17.7375 20.1 17.5125 20.1ZM11.9625 16.05C10.125 16.05 8.58748 14.55 8.58748 12.675C8.58748 10.8375 10.0875 9.3 11.9625 9.3C13.8 9.3 15.3375 10.8 15.3375 12.675C15.3375 14.55 13.8 16.05 11.9625 16.05ZM11.9625 11.025C11.025 11.025 10.275 11.775 10.275 12.7125C10.275 13.65 11.025 14.4 11.9625 14.4C12.9 14.4 13.65 13.65 13.65 12.7125C13.65 11.775 12.9 11.025 11.9625 11.025ZM22.6875 15.5625C22.2375 15.5625 21.825 15.1875 21.825 14.7V6.1875C21.825 5.85 21.5625 5.5875 21.225 5.5875H3.11248C2.77498 5.5875 2.51248 5.85 2.51248 6.1875V14.7C2.51248 15.15 2.13748 15.5625 1.64998 15.5625C1.16248 15.5625 0.787476 15.1875 0.787476 14.7V6.1875C0.787476 4.9125 1.79998 3.9 3.07498 3.9H21.1875C22.4625 3.9 23.475 4.9125 23.475 6.1875V14.7C23.55 15.1875 23.1375 15.5625 22.6875 15.5625Z" fill="#161A23"/>
</svg>
