<svg width="25" height="24" viewBox="0 0 25 24" fill="none" xmlns="http://www.w3.org/2000/svg">
<path d="M19.1625 9.225C18.9 9.075 18.6 9.075 18.3375 9.225L15.975 10.575C15.975 9.3 14.925 8.25 13.65 8.25H7.125C5.85 8.25 4.7625 9.3 4.7625 10.6125V13.425C4.7625 14.7 5.8125 15.7875 7.125 15.7875H13.6125C14.8875 15.7875 15.975 14.7375 15.975 13.425L18.3375 14.775C18.45 14.85 18.6 14.8875 18.75 14.8875C18.9 14.8875 19.05 14.85 19.1625 14.775C19.425 14.625 19.575 14.3625 19.575 14.0625V9.975C19.6125 9.675 19.425 9.375 19.1625 9.225ZM14.2875 13.425C14.2875 13.8 13.9875 14.1 13.6125 14.1H7.125C6.75 14.1 6.45 13.8 6.45 13.425V10.6125C6.45 10.2375 6.75 9.9375 7.125 9.9375H13.6125C13.9875 9.9375 14.2875 10.2375 14.2875 10.6125V13.425ZM17.925 12.5625L16.9125 12L17.925 11.4375V12.5625Z" fill="#161A23"/>
<path d="M12.1875 0.675003C6.15 0.675003 1.2 5.5875 1.2 11.625C1.2 14.5125 2.325 17.2875 4.35 19.3125L3.525 22.275C3.45 22.6125 3.5625 22.95 3.825 23.175C3.975 23.2875 4.1625 23.3625 4.35 23.3625C4.5 23.3625 4.6125 23.325 4.7625 23.25L7.7625 21.675C9.15 22.3125 10.65 22.6125 12.1875 22.6125C18.225 22.6125 23.175 17.7 23.175 11.625C23.175 5.5875 18.225 0.675003 12.1875 0.675003ZM12.1875 20.925C10.7625 20.925 9.375 20.5875 8.1 19.9875C7.9875 19.9125 7.8375 19.9125 7.725 19.9125C7.575 19.9125 7.4625 19.95 7.3125 20.025L5.6625 20.8875L6.075 19.35C6.15 19.05 6.075 18.7125 5.85 18.4875C3.975 16.6875 2.8875 14.2125 2.8875 11.625C2.8875 6.4875 7.05 2.325 12.1875 2.325C17.325 2.325 21.4875 6.4875 21.4875 11.625C21.4875 16.7625 17.325 20.925 12.1875 20.925Z" fill="#161A23"/>
</svg>
