<svg width="24" height="24" viewBox="0 0 24 24" fill="none" xmlns="http://www.w3.org/2000/svg">
<g clip-path="url(#clip0_501_51256)">
<path d="M16.6876 10.2375C16.6126 10.0875 14.5501 6.975 10.6876 6.975C7.1626 6.975 4.8376 10.05 4.7251 10.2C4.5376 10.425 4.5001 10.7625 4.6126 11.025C4.6876 11.175 6.1126 14.4 10.6876 14.4C14.9626 14.4 16.6501 11.2125 16.7251 11.0625C16.8751 10.8375 16.8751 10.5 16.6876 10.2375ZM10.6876 12.75C8.1751 12.75 6.9376 11.475 6.4501 10.8C7.1251 10.0875 8.7001 8.6625 10.6876 8.6625C12.9001 8.6625 14.3251 10.0125 14.9251 10.725C14.4376 11.4375 13.1251 12.75 10.6876 12.75Z" fill="#161A23"/>
<path d="M23.1 21.9L18.375 17.175C19.9125 15.375 20.7375 13.0875 20.7375 10.6875C20.7375 7.9875 19.6875 5.475 17.8125 3.6C15.9 1.6875 13.3875 0.674999 10.725 0.674999C8.02505 0.674999 5.51255 1.725 3.63755 3.6C1.76255 5.475 0.675049 8.025 0.675049 10.6875C0.675049 13.3875 1.72505 15.9 3.60005 17.775C5.51255 19.6875 8.02505 20.7 10.6875 20.7C13.0875 20.7 15.375 19.875 17.175 18.3375L21.9 23.0625C22.05 23.2125 22.275 23.325 22.5 23.325C22.725 23.325 22.95 23.25 23.1 23.0625C23.4375 22.7625 23.4375 22.2375 23.1 21.9ZM10.6875 19.05C8.43755 19.05 6.33755 18.1875 4.76255 16.6125C3.18755 15.0375 2.32505 12.9375 2.32505 10.6875C2.32505 8.4375 3.18755 6.3375 4.76255 4.7625C6.33755 3.1875 8.43755 2.325 10.6875 2.325C12.9375 2.325 15.0375 3.1875 16.6125 4.7625C18.1875 6.3375 19.05 8.4375 19.05 10.6875C19.05 12.9375 18.1875 15.0375 16.6125 16.6125C15.0375 18.1875 12.9375 19.05 10.6875 19.05Z" fill="#161A23"/>
<path d="M10.0875 10.0875C9.93745 10.2375 9.82495 10.4625 9.82495 10.6875C9.82495 10.9125 9.89995 11.1375 10.0875 11.2875C10.275 11.4375 10.4625 11.55 10.6875 11.55C10.9125 11.55 11.1375 11.475 11.2875 11.2875C11.4375 11.1 11.55 10.9125 11.55 10.6875C11.55 10.4625 11.475 10.2375 11.2875 10.0875C10.9875 9.7875 10.425 9.7875 10.0875 10.0875Z" fill="#161A23"/>
</g>
<defs>
<clipPath id="clip0_501_51256">
<rect width="24" height="24" fill="white"/>
</clipPath>
</defs>
</svg>
