<svg width="24" height="24" viewBox="0 0 24 24" fill="none" xmlns="http://www.w3.org/2000/svg">
<path d="M23.625 6.60015C23.5125 8.88765 21.9375 12.0002 18.8625 15.9377C15.7125 20.0627 13.0125 22.1252 10.8375 22.1252C9.525 22.1252 8.3625 20.9251 7.3875 18.3752C6.75 16.1252 6.1875 13.8002 5.5125 11.4752C4.8375 9.00015 4.0875 7.72515 3.225 7.72515C3.075 7.72515 2.4375 8.10015 1.3875 8.85015L0.375 7.35015C1.5375 6.33765 2.6625 5.32515 3.825 4.27515C5.3625 2.96265 6.45 2.25016 7.275 2.21266C9.075 2.06266 10.1625 3.33765 10.6125 5.92515C11.025 8.77515 11.3625 10.5752 11.55 11.2502C12.075 13.6127 12.675 14.7751 13.2375 14.7751C13.725 14.7751 14.4375 14.0252 15.45 12.4877C16.4625 10.9502 16.9125 9.75015 17.025 8.96265C17.175 7.65015 16.6125 6.93765 15.45 6.93765C14.925 6.93765 14.325 7.05015 13.7625 7.35015C14.8875 3.60016 17.025 1.76266 20.25 1.83766C22.6125 1.95016 23.7375 3.52516 23.625 6.60015Z" fill="#15171A"/>
</svg>
