<svg width="24" height="24" viewBox="0 0 24 24" fill="none" xmlns="http://www.w3.org/2000/svg">
<g clip-path="url(#clip0_501_47660)">
<path d="M20.9625 10.05H20.25V7.72505C20.25 6.41255 19.2 5.36255 17.8875 5.36255H17.0625V3.45005C17.0625 2.96255 16.8 2.55005 16.35 2.36255L12.525 0.600049C12.1875 0.450049 11.8125 0.450049 11.5125 0.600049L7.64999 2.36255C7.23749 2.55005 6.93749 3.00005 6.93749 3.45005V5.36255H6.11249C4.79999 5.36255 3.74999 6.41255 3.74999 7.72505V10.05H3.03749C1.72499 10.05 0.674988 11.1 0.674988 12.4125V21.1501C0.674988 22.4626 1.72499 23.5126 3.03749 23.5126H9.03749C9.26249 23.5126 9.48749 23.4376 9.63749 23.2501L12 20.8876L14.3625 23.2501C14.5125 23.4001 14.7375 23.5126 14.9625 23.5126H20.9625C22.275 23.5126 23.325 22.4626 23.325 21.1501V12.4125C23.325 11.1375 22.275 10.05 20.9625 10.05ZM8.62499 4.57505L11.1375 5.73755V9.56255L8.62499 8.10005V4.57505ZM12.8625 5.73755L15.375 4.57505V8.10005L12.8625 9.56255V5.73755ZM12 2.21255L14.2125 3.22505L12 4.23755L9.78749 3.22505L12 2.21255ZM20.9625 21.8626H15.3375L12.6 19.1251C12.2625 18.7875 11.7375 18.7875 11.4 19.1251L8.66249 21.8251H3.03749C2.66249 21.8251 2.36249 21.5251 2.36249 21.1501V16.9125H5.06249C5.51249 16.9125 5.92499 16.5375 5.92499 16.05C5.92499 15.5625 5.54999 15.1876 5.06249 15.1876H2.36249V12.375C2.36249 12 2.66249 11.7001 3.03749 11.7001H4.57499H6.48749C6.93749 11.7001 7.34999 11.325 7.34999 10.8376C7.34999 10.35 6.97499 9.97505 6.48749 9.97505H5.39999V7.65005C5.39999 7.27505 5.69999 6.97505 6.07499 6.97505H6.89999V8.25005C6.89999 8.70005 7.12499 9.07505 7.49999 9.30005L11.4 11.625C11.5875 11.7375 11.8125 11.7751 12 11.7751C12.225 11.7751 12.4125 11.7375 12.6 11.625L16.425 9.41255C16.8 9.18755 17.025 8.77505 17.025 8.36255V7.08755H17.85C18.225 7.08755 18.525 7.38755 18.525 7.76255V10.0876H17.325C16.875 10.0876 16.4625 10.4626 16.4625 10.9501C16.4625 11.4376 16.8375 11.8125 17.325 11.8125H19.2375C19.275 11.8125 19.275 11.8125 19.3125 11.8125C19.35 11.8125 19.35 11.8125 19.3875 11.8125H20.925C21.3 11.8125 21.6 12.1125 21.6 12.4875V15.3H18.9C18.45 15.3 18.0375 15.675 18.0375 16.1625C18.0375 16.65 18.4125 17.0251 18.9 17.0251H21.6V21.2626C21.6375 21.5251 21.3375 21.8626 20.9625 21.8626Z" fill="#161A23"/>
</g>
<defs>
<clipPath id="clip0_501_47660">
<rect width="24" height="24" fill="white"/>
</clipPath>
</defs>
</svg>
