<svg width="24" height="24" viewBox="0 0 24 24" fill="none" xmlns="http://www.w3.org/2000/svg">
<path d="M9.30029 14.8497H10.8003L11.7003 9.14966H10.2378L9.30029 14.8497Z" fill="#15171A"/>
<path d="M14.7003 11.4377C14.1753 11.1752 13.8753 10.9877 13.8753 10.7252C13.8753 10.5002 14.1378 10.2377 14.7378 10.2377C15.2253 10.2377 15.5628 10.3502 15.8628 10.4627L16.0128 10.5002L16.2003 9.3002C15.9003 9.1877 15.4503 9.0752 14.8878 9.0752C13.4253 9.0752 12.3753 9.8252 12.3753 10.9502C12.3753 11.7752 13.0878 12.2627 13.6878 12.5252C14.2503 12.7877 14.4753 12.9752 14.4753 13.2377C14.4753 13.6127 14.0253 13.8002 13.5753 13.8002C12.9753 13.8002 12.6378 13.7252 12.1503 13.5002L11.9628 13.4252L11.7378 14.7377C12.0753 14.8502 12.7128 15.0002 13.3503 15.0002C14.9253 15.0377 15.9378 14.2502 15.9378 13.0502C15.9003 12.3752 15.5253 11.8502 14.7003 11.4377Z" fill="#15171A"/>
<path d="M18.8247 9.14966C18.4872 9.14966 18.1872 9.26216 18.0372 9.63716L15.8247 14.8497H17.3247V14.8872C17.3247 14.8872 17.5497 14.1747 17.6622 14.0247C17.8122 14.0247 19.3497 14.0247 19.5372 14.0247C19.5747 14.2122 19.7247 14.8872 19.7247 14.8872H21.1122L19.9122 9.18716H18.8247V9.14966ZM18.0747 12.8622C18.1872 12.5247 18.6747 11.2872 18.6747 11.2872C18.6747 11.3247 18.8247 10.9497 18.8622 10.7622L18.9747 11.2497C18.9747 11.2497 19.2747 12.6372 19.3122 12.8997C19.0872 12.8622 18.3747 12.8622 18.0747 12.8622Z" fill="#15171A"/>
<path d="M8.0997 9.14966L6.6372 13.0872L5.8497 9.14966H2.88721L4.5372 10.3872L5.7372 14.8497H7.2747L9.6747 9.14966H8.0997Z" fill="#15171A"/>
<path d="M20.4747 4.9873H3.52471C1.94971 4.9873 0.637207 6.2623 0.637207 7.8748V16.1248C0.637207 17.6998 1.91221 19.0123 3.52471 19.0123H20.4372C22.0122 19.0123 23.3247 17.7373 23.3247 16.1248V7.8748C23.3622 6.2998 22.0497 4.9873 20.4747 4.9873ZM21.6747 16.1248C21.6747 16.7998 21.1497 17.3248 20.4747 17.3248H3.52471C2.84971 17.3248 2.32471 16.7998 2.32471 16.1248V7.8748C2.32471 7.1998 2.84971 6.67481 3.52471 6.67481H20.4372C21.1122 6.67481 21.6372 7.1998 21.6372 7.8748V16.1248H21.6747Z" fill="#15171A"/>
</svg>
