<svg width="24" height="24" viewBox="0 0 24 24" fill="none" xmlns="http://www.w3.org/2000/svg">
<g clip-path="url(#clip0_914_45495)">
<path d="M15.525 0.375H8.475C1.9125 0.375 0.375 1.9125 0.375 8.475V15.6C0.375 22.0875 1.9125 23.625 8.475 23.625H15.6C22.0875 23.625 23.625 22.0875 23.625 15.525V8.475C23.625 1.9125 22.0875 0.375 15.525 0.375ZM19.125 16.95H17.4375C16.8 16.95 16.575 16.425 15.4125 15.2625C14.4 14.25 13.95 14.1375 13.725 14.1375C13.425 14.1375 13.3125 14.175 13.3125 14.6625V16.2C13.3125 16.6125 13.2 16.8375 12.1125 16.8375C10.3125 16.8375 8.3625 15.7125 6.9375 13.725C4.8375 10.7625 4.3125 8.55 4.3125 8.0625C4.3125 7.8 4.35 7.575 4.8375 7.575H6.525C6.9375 7.575 7.125 7.725 7.275 8.2125C8.1375 10.65 9.4875 12.75 10.0875 12.75C10.3125 12.75 10.3875 12.6375 10.3875 12.1125V9.6375C10.35 8.475 9.75 8.4375 9.75 7.95C9.75 7.8 9.9 7.5375 10.1625 7.5375H12.7875C13.1625 7.5375 13.275 7.6875 13.275 8.175V11.5125C13.275 11.8875 13.425 12 13.5375 12C13.7625 12 13.95 11.8875 14.325 11.475C15.525 10.0875 16.3875 8.025 16.3875 8.025C16.5 7.7625 16.6875 7.5375 17.1375 7.5375H18.825C19.35 7.5375 19.4625 7.8 19.35 8.175C19.125 9.1875 17.0625 12.075 17.0625 12.075C16.9125 12.3375 16.8 12.4875 17.0625 12.825C17.2125 13.0875 17.85 13.575 18.225 14.025C18.975 14.8875 19.5 15.5625 19.65 16.05C19.8375 16.6875 19.6125 16.95 19.125 16.95Z" fill="#15171A"/>
</g>
<defs>
<clipPath id="clip0_914_45495">
<rect width="24" height="24" fill="white"/>
</clipPath>
</defs>
</svg>
