<svg width="24" height="24" viewBox="0 0 24 24" fill="none" xmlns="http://www.w3.org/2000/svg">
<path d="M12.8456 9.80697C13.4402 9.99537 13.8294 10.3997 14.0131 11.0197V14.4863H16.6546V14.4827H17.061V14.4756H17.0989V8.59422C16.7958 7.57103 16.1541 6.90323 15.1737 6.59082H3.35048C2.36988 6.90207 1.72815 7.56987 1.42529 8.59422V20.958C1.72836 21.9811 2.38387 22.6286 3.39181 22.9005H15.1324C16.1403 22.6286 16.7958 21.9811 17.0989 20.958V17.7347H14.0131V18.511C13.8294 19.1311 13.4322 19.5234 12.8215 19.688H5.70615C5.09543 19.5234 4.69823 19.1311 4.51455 18.511V11.0197C4.69823 10.3997 5.0874 9.99537 5.68204 9.80697H12.8456Z" fill="#15171A"/>
<path d="M22.8411 3.10324C22.538 2.08008 21.8963 1.41229 20.9159 1.09985H9.09269C8.11229 1.41229 7.47059 2.08008 7.16748 3.10324V6.24785H10.2533V5.52878C10.437 4.90868 10.8261 4.50443 11.4208 4.316H18.5843C19.179 4.50443 19.5682 4.90868 19.7518 5.52878V13.02C19.5682 13.6401 19.1709 14.0324 18.5602 14.197H11.445C10.8342 14.0324 10.437 13.6401 10.2533 13.02V9.464H7.16748V15.467C7.47059 16.4901 8.12606 17.1377 9.13398 17.4096H20.8746C21.8825 17.1377 22.538 16.4901 22.8411 15.467V3.10324Z" fill="#15171A"/>
</svg>
