<svg width="24" height="24" viewBox="0 0 24 24" fill="none" xmlns="http://www.w3.org/2000/svg">
<g clip-path="url(#clip0_914_45500)">
<mask id="mask0_914_45500" style="mask-type:luminance" maskUnits="userSpaceOnUse" x="0" y="0" width="24" height="24">
<path d="M24 0H0V24H24V0Z" fill="white"/>
</mask>
<g mask="url(#mask0_914_45500)">
<path d="M14.4451 3.29925C13.7223 3.10061 12.957 3.00562 12.1832 3.00562C11.4095 3.00562 10.6782 3.10925 9.96387 3.29061L12.2088 9.57777L14.4451 3.29925Z" fill="#15171A"/>
<path d="M21.0345 12.0044C21.0345 10.8817 20.8474 9.81081 20.4733 8.81763L16.2642 19.9756C19.0873 18.4729 21.0345 15.4675 21.0345 12.0044Z" fill="#15171A"/>
<path d="M16.6386 4.22281L14.045 11.4772H10.3886L7.7866 4.18823C6.8257 4.74961 5.9839 5.48367 5.28662 6.36458L8.98555 16.1062L10.3376 12.5481H13.892L15.244 16.1062L18.977 6.24365C18.3222 5.43185 17.5229 4.74961 16.6301 4.21415" fill="#15171A"/>
<path d="M12.1829 0C5.67784 0 0.363281 5.38898 0.363281 12.0043C0.363281 18.6196 5.67784 24 12.1829 24C18.688 24 23.9941 18.6024 23.9941 12.0043C23.9941 5.40626 18.6965 0 12.1829 0ZM12.1829 22.4714C6.5112 22.4714 1.86837 17.7733 1.86837 12.0129C1.86837 6.2526 6.50269 1.52861 12.1829 1.52861C17.8631 1.52861 22.4975 6.23535 22.4975 12.0129C22.4975 17.7906 17.8631 22.4714 12.1829 22.4714Z" fill="#15171A"/>
<path d="M12.1063 14.4658L9.81885 20.4852V20.6753C10.5672 20.8911 11.358 20.9948 12.1828 20.9948C12.9566 20.9948 13.7049 20.8998 14.4192 20.7098L14.3937 20.4852L12.1063 14.4658Z" fill="#15171A"/>
<path d="M3.33105 12.0043C3.33105 15.3897 5.18479 18.3519 7.93988 19.8805L3.83276 9.01611C3.50112 9.94885 3.33105 10.9506 3.33105 12.0043Z" fill="#15171A"/>
</g>
</g>
<defs>
<clipPath id="clip0_914_45500">
<rect width="24" height="24" fill="white"/>
</clipPath>
</defs>
</svg>
