<svg width="24" height="24" viewBox="0 0 24 24" fill="none" xmlns="http://www.w3.org/2000/svg">
<g clip-path="url(#clip0_501_43654)">
<path d="M12 23.1877C11.7785 23.1877 11.5569 23.1138 11.4092 22.9292L1.07076 12.5908C0.738456 12.2585 0.738456 11.7415 1.07076 11.4092L11.4092 1.07077C11.7415 0.738464 12.2585 0.738464 12.5908 1.07077L17.6123 6.09231C17.9446 6.42462 17.9446 6.94154 17.6123 7.27385C17.28 7.60616 16.7631 7.60616 16.4308 7.27385L12 2.84308L2.84307 12L12 21.1569L21.1569 12L19.5692 10.3754C19.2369 10.0431 19.2369 9.52616 19.5692 9.19385C19.9015 8.86154 20.4185 8.86154 20.7508 9.19385L22.9662 11.4092C23.2985 11.7415 23.2985 12.2585 22.9662 12.5908L12.6277 22.9292C12.4431 23.0769 12.2215 23.1877 12 23.1877Z" fill="#161A23"/>
<path d="M11.7785 16.1723C11.5569 16.1723 11.3354 16.0985 11.1877 15.9138L8.45538 13.1815C8.12307 12.8492 8.12307 12.3323 8.45538 12C8.78768 11.6677 9.30461 11.6677 9.63692 12L11.7785 14.1415L20.6031 5.05847C20.9354 4.72616 21.4523 4.72616 21.7846 5.05847C22.1169 5.39077 22.1169 5.9077 21.7846 6.24L12.3692 15.9508C12.2215 16.0985 12 16.1723 11.7785 16.1723Z" fill="#161A23"/>
</g>
<defs>
<clipPath id="clip0_501_43654">
<rect width="24" height="24" fill="white"/>
</clipPath>
</defs>
</svg>
