<svg width="24" height="24" viewBox="0 0 24 24" fill="none" xmlns="http://www.w3.org/2000/svg">
<path d="M20.175 5.66248H3.82501C2.06251 5.66248 0.637512 7.08748 0.637512 8.84998V15.15C0.637512 16.9125 2.06251 18.3375 3.82501 18.3375H8.73751C9.00001 18.3375 9.26251 18.2625 9.48751 18.1875L11.55 17.25C11.8125 17.1375 12.15 17.1375 12.4125 17.25L14.475 18.1875C14.7 18.3 14.9625 18.3375 15.225 18.3375H20.1375C21.9 18.3375 23.325 16.9125 23.325 15.15V8.84998C23.3625 7.08748 21.9 5.66248 20.175 5.66248ZM21.675 15.15C21.675 15.975 21 16.65 20.175 16.65H15.225H15.1875L13.125 15.675C12.75 15.525 12.375 15.4125 12 15.4125C11.625 15.4125 11.2125 15.4875 10.875 15.675L8.81251 16.6125H8.77501H3.82501C3.00001 16.6125 2.32501 15.9375 2.32501 15.1125V8.84998C2.32501 8.02498 3.00001 7.34998 3.82501 7.34998H20.175C21 7.34998 21.675 8.02498 21.675 8.84998V15.15Z" fill="#161A23"/>
<path d="M9.18751 11.1749H5.43751C4.98751 11.1749 4.57501 11.5499 4.57501 12.0374C4.57501 12.4874 4.95001 12.8999 5.43751 12.8999H9.18751C9.63751 12.8999 10.05 12.5249 10.05 12.0374C10.05 11.5499 9.67501 11.1749 9.18751 11.1749Z" fill="#161A23"/>
<path d="M18.525 11.1749H14.775C14.325 11.1749 13.9125 11.5499 13.9125 12.0374C13.9125 12.4874 14.2875 12.8999 14.775 12.8999H18.525C18.975 12.8999 19.3875 12.5249 19.3875 12.0374C19.3875 11.5499 19.0125 11.1749 18.525 11.1749Z" fill="#161A23"/>
</svg>
