<svg width="24" height="24" viewBox="0 0 24 24" fill="none" xmlns="http://www.w3.org/2000/svg">
<path d="M21.5625 9.4126H21.1125V9.1501C21.1125 7.6501 19.875 6.4126 18.375 6.4126H5.625C4.125 6.4126 2.8875 7.6501 2.8875 9.1501V9.4126H2.4375C1.4625 9.4126 0.637497 10.2001 0.637497 11.2126V12.8251C0.637497 13.8001 1.425 14.6251 2.4375 14.6251H2.8875V14.8876C2.8875 16.3876 4.125 17.6251 5.625 17.6251H8.925C9.1875 17.6251 9.45 17.5501 9.675 17.4751L11.175 16.7626C11.4375 16.6501 11.775 16.6501 12.0375 16.7626L13.5375 17.4751C13.7625 17.5876 14.025 17.6251 14.2875 17.6251H18.375C19.875 17.6251 21.1125 16.3876 21.1125 14.8876V14.6251H21.5625C22.5375 14.6251 23.3625 13.8376 23.3625 12.8251V11.2126C23.3625 10.2001 22.5375 9.4126 21.5625 9.4126ZM2.4375 12.9001C2.4 12.9001 2.325 12.8626 2.325 12.7876V11.1751C2.325 11.1376 2.3625 11.0626 2.4375 11.0626H2.8875V12.8626H2.4375V12.9001ZM19.425 14.8501C19.425 15.4126 18.975 15.9001 18.375 15.9001H14.325H14.2875L12.7875 15.1876C12.4125 15.0376 12.0375 14.9251 11.625 14.9251C11.2125 14.9251 10.875 15.0376 10.5 15.1876L9 15.9001H8.9625H5.625C5.0625 15.9001 4.575 15.4501 4.575 14.8501V9.1501C4.575 8.5876 5.025 8.1001 5.625 8.1001H18.375C18.9375 8.1001 19.425 8.5501 19.425 9.1501V14.8501ZM21.675 12.7876C21.675 12.8251 21.6375 12.9001 21.5625 12.9001H21.1125V11.1001H21.5625C21.6 11.1001 21.675 11.1376 21.675 11.2126V12.7876Z" fill="#161A23"/>
</svg>
