<svg width="24" height="24" viewBox="0 0 24 24" fill="none" xmlns="http://www.w3.org/2000/svg">
<path d="M21.0375 1.53748H2.96249C1.68749 1.53748 0.674988 2.54998 0.674988 3.82498V20.175C0.674988 21.45 1.68749 22.4625 2.96249 22.4625H21.075C22.35 22.4625 23.3625 21.45 23.3625 20.175V3.82498C23.3625 2.54998 22.3125 1.53748 21.0375 1.53748ZM2.96249 3.22498H21.075C21.4125 3.22498 21.675 3.48748 21.675 3.82498V5.77498H2.36249V3.82498C2.36249 3.48748 2.62499 3.22498 2.96249 3.22498ZM21.0375 20.775H2.96249C2.62499 20.775 2.36249 20.5125 2.36249 20.175V7.46248H21.675V20.175C21.675 20.5125 21.375 20.775 21.0375 20.775Z" fill="#161A23"/>
<path d="M16.0125 11.2875H15.7875V11.175C15.7875 9.9 14.7375 8.8125 13.425 8.8125H10.5375C9.26246 8.8125 8.17496 9.8625 8.17496 11.175V11.2875H7.94996C6.67496 11.2875 5.58746 12.3375 5.58746 13.65V16.8375C5.58746 18.1125 6.63746 19.2 7.94996 19.2H10.3875C10.6125 19.2 10.8375 19.125 10.9875 18.9375L11.9625 17.9625L12.9375 18.9375C13.0875 19.0875 13.3125 19.2 13.5375 19.2H15.975C17.25 19.2 18.3375 18.15 18.3375 16.8375V13.65C18.3375 12.3375 17.2875 11.2875 16.0125 11.2875ZM10.5375 10.5375H13.425C13.8 10.5375 14.1 10.8375 14.1 11.2125V11.325H9.89996V11.2125C9.89996 10.8 10.2 10.5375 10.5375 10.5375ZM16.0125 17.475H13.9125L12.6 16.1625C12.2625 15.825 11.7375 15.825 11.4 16.1625L10.0875 17.475H7.98746C7.61246 17.475 7.31246 17.175 7.31246 16.8V15.675H8.32496C8.77496 15.675 9.18746 15.3 9.18746 14.8125C9.18746 14.325 8.81246 13.95 8.32496 13.95H7.31246V13.575C7.31246 13.2 7.61246 12.9 7.98746 12.9H15.975C16.35 12.9 16.65 13.2 16.65 13.575V13.95H15.6375C15.1875 13.95 14.775 14.325 14.775 14.8125C14.775 15.3 15.15 15.675 15.6375 15.675H16.65V16.8C16.65 17.175 16.35 17.475 16.0125 17.475Z" fill="#161A23"/>
</svg>
