<svg width="24" height="24" viewBox="0 0 24 24" fill="none" xmlns="http://www.w3.org/2000/svg">
<path d="M9.75 12.1875C9.4125 11.85 8.8875 11.85 8.55 12.1875L6.6375 14.1H3.6C2.925 14.1 2.3625 13.5375 2.3625 12.8625V10.95H4.125C4.575 10.95 4.9875 10.575 4.9875 10.0875C4.9875 9.60002 4.6125 9.22502 4.125 9.22502H2.3625V8.36252C2.3625 7.68752 2.925 7.12502 3.6 7.12502H5.0625H13.2375H14.7C15.375 7.12502 15.9375 7.68752 15.9375 8.36252C15.9375 8.81252 16.3125 9.22502 16.8 9.22502C17.2875 9.22502 17.6625 8.85002 17.6625 8.36252C17.6625 6.75002 16.35 5.43752 14.7375 5.43752H14.1V4.95002C14.1 3.33752 12.7875 2.02502 11.175 2.02502H7.125C5.5125 2.02502 4.2 3.33752 4.2 4.95002V5.43752H3.6C1.9875 5.43752 0.675003 6.75002 0.675003 8.36252V12.7875C0.675003 14.4 1.9875 15.7125 3.6 15.7125H7.0125C7.2375 15.7125 7.4625 15.6375 7.6125 15.45L9.1875 13.875L10.7625 15.45C10.9125 15.6 11.1375 15.7125 11.3625 15.7125C11.5875 15.7125 11.8125 15.6375 11.9625 15.45C12.3 15.1125 12.3 14.5875 11.9625 14.25L9.75 12.1875ZM7.125 3.75002H11.1375C11.8125 3.75002 12.375 4.31252 12.375 4.98752V5.47502H5.8875V4.98752C5.8875 4.31252 6.45 3.75002 7.125 3.75002Z" fill="#161A23"/>
<path d="M22.5 18.4125C22.95 18.4125 23.3625 18.0375 23.3625 17.55C23.3625 17.0625 22.9875 16.6875 22.5 16.6875H21.225C21.1875 16.4625 21.15 16.2 21.1125 15.975L22.2375 15C22.575 14.7 22.6125 14.175 22.3125 13.8C22.0125 13.4625 21.4875 13.425 21.1125 13.725L20.4 14.3625C20.2875 14.175 20.1375 14.025 19.9875 13.875C20.025 13.8375 20.025 13.8375 20.0625 13.8C20.3625 13.4625 20.5125 12.975 20.475 12.525C20.325 11.0625 19.1625 9.9375 17.7 9.9375C16.275 9.9375 15.075 11.0625 14.8875 12.525C14.85 13.0125 15 13.4625 15.3 13.8375C15.3375 13.875 15.3375 13.875 15.375 13.9125C15.225 14.0625 15.1125 14.2125 15 14.4L14.325 13.8C13.9875 13.5 13.425 13.5375 13.125 13.875C12.825 14.2125 12.8625 14.775 13.2 15.075L14.2875 16.0125C14.2125 16.2375 14.175 16.5 14.175 16.7625H12.975C12.525 16.7625 12.1125 17.1375 12.1125 17.625C12.1125 18.1125 12.4875 18.4875 12.975 18.4875H14.25C14.2875 18.675 14.325 18.825 14.3625 19.0125L13.2375 19.9875C12.9 20.2875 12.8625 20.8125 13.1625 21.1875C13.3125 21.375 13.575 21.4875 13.8 21.4875C13.9875 21.4875 14.2125 21.4125 14.3625 21.2625L15.1125 20.5875C15.75 21.4875 16.6875 22.0125 17.7 22.0125C18.75 22.0125 19.6875 21.45 20.325 20.55L21.1125 21.225C21.2625 21.375 21.4875 21.45 21.675 21.45C21.9 21.45 22.125 21.3375 22.3125 21.15C22.6125 20.8125 22.575 20.25 22.2375 19.95L21.075 18.9375C21.1125 18.7875 21.15 18.6375 21.1875 18.45H22.5V18.4125ZM17.7375 11.625C18.3 11.625 18.75 12.075 18.825 12.675H16.6125C16.6875 12.075 17.175 11.625 17.7375 11.625ZM17.7375 20.25C16.725 20.25 15.9 18.9375 15.9 17.3625C15.9 15.7875 16.7625 14.475 17.7375 14.475C18.4125 14.475 19.05 15.075 19.35 15.975C19.5 16.3875 19.575 16.8375 19.575 17.325V17.3625C19.575 17.4 19.575 17.475 19.575 17.5125C19.575 17.55 19.575 17.55 19.575 17.5875C19.5 19.0875 18.675 20.25 17.7375 20.25Z" fill="#161A23"/>
</svg>
