<svg width="24" height="24" viewBox="0 0 24 24" fill="none" xmlns="http://www.w3.org/2000/svg">
<path d="M20.9625 11.8875H16.125C14.8125 11.8875 13.7625 12.9375 13.7625 14.25V16.05C13.7625 17.2875 14.7375 18.3 15.9375 18.4125V19.6875C15.9375 20.025 16.125 20.325 16.425 20.475C16.5375 20.5125 16.65 20.55 16.7625 20.55C16.9875 20.55 17.175 20.475 17.325 20.325L19.35 18.45H20.9625C22.275 18.45 23.325 17.4 23.325 16.0875V14.2875C23.3625 12.975 22.275 11.8875 20.9625 11.8875ZM21.675 16.05C21.675 16.425 21.375 16.725 21 16.725H19.0875C18.8625 16.725 18.675 16.8 18.525 16.95L17.6625 17.7375V17.55C17.6625 17.1 17.2875 16.6875 16.8 16.6875H16.125C15.75 16.6875 15.45 16.3875 15.45 16.0125V14.2125C15.45 13.8375 15.75 13.5375 16.125 13.5375H20.9625C21.3375 13.5375 21.6375 13.8375 21.6375 14.2125V16.05H21.675Z" fill="#161A23"/>
<path d="M3.63751 8.66245H5.13751H13.5375H15.0375C15.75 8.66245 16.35 9.26245 16.35 9.97495C16.35 10.425 16.725 10.8375 17.2125 10.8375C17.7 10.8375 18.075 10.4625 18.075 9.97495C18.075 8.32495 16.725 6.97495 15.075 6.97495H14.4V6.44995C14.4 4.79995 13.05 3.44995 11.4 3.44995H7.27501C5.62501 3.44995 4.27501 4.79995 4.27501 6.44995V6.97495H3.63751C1.98751 6.97495 0.637512 8.32495 0.637512 9.97495V14.5125C0.637512 16.1625 1.98751 17.5125 3.63751 17.5125H7.12501C7.35001 17.5125 7.57501 17.4375 7.72501 17.25L9.33751 15.6375L10.95 17.25C11.1 17.4 11.325 17.5125 11.55 17.5125C11.775 17.5125 12 17.4375 12.15 17.25C12.4875 16.9125 12.4875 16.3875 12.15 16.05L9.93751 13.8375C9.60001 13.5 9.07501 13.5 8.73751 13.8375L6.75001 15.825H3.63751C2.92501 15.825 2.32501 15.225 2.32501 14.5125V12.5625H4.12501C4.57501 12.5625 4.98751 12.1875 4.98751 11.7375C4.98751 11.2875 4.61251 10.875 4.12501 10.875H2.36251V9.97495C2.36251 9.22495 2.92501 8.66245 3.63751 8.66245ZM7.27501 5.13745H11.4C12.1125 5.13745 12.7125 5.69995 12.7125 6.44995V6.97495H6.00001V6.44995C6.00001 5.73745 6.56251 5.13745 7.27501 5.13745Z" fill="#161A23"/>
</svg>
