<svg width="24" height="24" viewBox="0 0 24 24" fill="none" xmlns="http://www.w3.org/2000/svg">
<path d="M17.7 14.2125V9.37495C17.7 8.62495 17.25 7.91245 16.575 7.57495L12.825 5.84995C12.3 5.58745 11.7 5.58745 11.175 5.84995L7.42502 7.57495C6.75002 7.91245 6.30002 8.58745 6.30002 9.37495V14.175C6.30002 14.8875 6.67502 15.525 7.27502 15.8625L11.025 18.0375C11.325 18.225 11.6625 18.3 12 18.3C12.3375 18.3 12.675 18.225 12.975 18.0375L16.725 15.8625C17.325 15.5625 17.7 14.8875 17.7 14.2125ZM11.8875 7.38745C11.925 7.38745 11.9625 7.34995 12 7.34995C12.0375 7.34995 12.075 7.34995 12.1125 7.38745L14.8875 8.66245L12 10.0125L9.11252 8.69995L11.8875 7.38745ZM8.10002 14.4375C8.02502 14.4 7.95002 14.2875 7.95002 14.2125V10.0125L11.1375 11.475V16.2L8.10002 14.4375ZM15.9 14.4375L12.8625 16.2V11.475L16.05 10.0125V14.2125C16.0125 14.2875 15.975 14.4 15.9 14.4375Z" fill="#161A23"/>
<path d="M1.98751 7.42495C2.43751 7.42495 2.85001 7.04995 2.85001 6.56245V2.99995C2.85001 2.66245 3.15001 2.36245 3.48751 2.36245H7.12501C7.57501 2.36245 7.98751 1.98745 7.98751 1.49995C7.98751 1.01245 7.61251 0.637451 7.12501 0.637451H3.48751C2.21251 0.674951 1.16251 1.72495 1.16251 2.99995V6.56245C1.16251 7.04995 1.53751 7.42495 1.98751 7.42495Z" fill="#161A23"/>
<path d="M22.0125 16.575C21.5625 16.575 21.15 16.95 21.15 17.4375V21C21.15 21.3375 20.85 21.6375 20.5125 21.6375H16.875C16.425 21.6375 16.0125 22.0125 16.0125 22.5C16.0125 22.9875 16.3875 23.3625 16.875 23.3625H20.5125C21.7875 23.3625 22.8375 22.3125 22.8375 21.0375V17.475C22.8375 16.95 22.4625 16.575 22.0125 16.575Z" fill="#161A23"/>
<path d="M16.9125 2.36255H20.475C20.8125 2.36255 21.1125 2.66255 21.1125 3.00005V6.63755C21.1125 7.08755 21.4875 7.50005 21.975 7.50005C22.4625 7.50005 22.8375 7.12505 22.8375 6.63755V3.00005C22.8375 1.72505 21.7875 0.675049 20.5125 0.675049H16.95C16.5 0.675049 16.0875 1.05005 16.0875 1.53755C16.0875 2.02505 16.4625 2.36255 16.9125 2.36255Z" fill="#161A23"/>
<path d="M7.08751 21.6749H3.52501C3.18751 21.6749 2.88751 21.3749 2.88751 21.0374V17.3999C2.88751 16.9499 2.51251 16.5374 2.02501 16.5374C1.53751 16.5374 1.16251 16.9124 1.16251 17.3999V20.9999C1.16251 22.2749 2.21251 23.3249 3.48751 23.3249H7.05001C7.50001 23.3249 7.91251 22.9499 7.91251 22.4624C7.91251 21.9749 7.53751 21.6749 7.08751 21.6749Z" fill="#161A23"/>
</svg>
