<svg width="24" height="24" viewBox="0 0 24 24" fill="none" xmlns="http://www.w3.org/2000/svg">
<g clip-path="url(#clip0_501_47814)">
<path d="M20.8125 14.85H20.3625V14.5125C20.3625 13.2 19.3125 12.15 18 12.15H14.55C13.2375 12.15 12.1875 13.2 12.1875 14.5125V14.85H11.7375C10.425 14.85 9.375 15.9 9.375 17.2125V21C9.375 22.3125 10.425 23.3625 11.7375 23.3625H14.55C14.775 23.3625 15 23.2875 15.15 23.1L16.275 21.975L17.4 23.1C17.55 23.25 17.775 23.3625 18 23.3625H20.8125C22.125 23.3625 23.175 22.3125 23.175 21V17.2125C23.175 15.9 22.125 14.85 20.8125 14.85ZM14.55 13.8H18C18.375 13.8 18.675 14.1 18.675 14.475V14.8125H13.875V14.475C13.875 14.1375 14.175 13.8 14.55 13.8ZM20.8125 21.6375H18.3375L16.875 20.175C16.5375 19.8375 16.0125 19.8375 15.675 20.175L14.2125 21.6375H11.7375C11.3625 21.6375 11.0625 21.3375 11.0625 20.9625V19.5H12.2625C12.7125 19.5 13.125 19.125 13.125 18.6375C13.125 18.15 12.75 17.775 12.2625 17.775H11.0625V17.1375C11.0625 16.7625 11.3625 16.4625 11.7375 16.4625H20.8125C21.1875 16.4625 21.4875 16.7625 21.4875 17.1375V17.775H20.2875C19.8375 17.775 19.425 18.15 19.425 18.6375C19.425 19.125 19.8 19.5 20.2875 19.5H21.4875V21C21.4875 21.3375 21.1875 21.6375 20.8125 21.6375Z" fill="#161A23"/>
<path d="M10.6875 8.32505V3.60005C10.6875 3.11255 10.425 2.70005 9.97501 2.51255L6.26251 0.787549C5.92501 0.637549 5.55001 0.637549 5.25001 0.787549L1.53751 2.47505C1.08751 2.70005 0.825012 3.11255 0.825012 3.60005V8.32505C0.825012 8.77505 1.05001 9.15005 1.42501 9.37505L5.13751 11.5125C5.32501 11.625 5.55001 11.6625 5.73751 11.6625C5.92501 11.6625 6.15001 11.625 6.33751 11.5125L10.05 9.37505C10.4625 9.15005 10.6875 8.73755 10.6875 8.32505ZM5.73751 2.40005L7.83751 3.37505L5.73751 4.35005L3.63751 3.37505L5.73751 2.40005ZM2.51251 4.68755L4.91251 5.77505V9.41255L2.51251 8.02505V4.68755ZM6.60001 9.45005V5.81255L9.00001 4.72505V8.10005L6.60001 9.45005Z" fill="#161A23"/>
<path d="M13.7625 4.7251H18C18.375 4.7251 18.675 5.0251 18.675 5.4001V7.1626L18 6.6001C17.6625 6.3001 17.1 6.3376 16.8 6.6751C16.5 7.0126 16.5375 7.5751 16.875 7.8751L18.9375 9.6751C19.0875 9.8251 19.3125 9.9001 19.5 9.9001C19.6875 9.9001 19.9125 9.8251 20.0625 9.6751L22.125 7.8751C22.4625 7.5751 22.5 7.0501 22.2 6.6751C21.9 6.3376 21.375 6.3001 21 6.6001L20.325 7.1626V5.4001C20.325 4.0876 19.275 3.0376 17.9625 3.0376H13.7625C13.3125 3.0376 12.9 3.4126 12.9 3.9001C12.9 4.3876 13.275 4.7251 13.7625 4.7251Z" fill="#161A23"/>
</g>
<defs>
<clipPath id="clip0_501_47814">
<rect width="24" height="24" fill="white"/>
</clipPath>
</defs>
</svg>
