<svg width="24" height="24" viewBox="0 0 24 24" fill="none" xmlns="http://www.w3.org/2000/svg">
<path d="M7.80001 13.0875H10.35C10.575 13.0875 10.8 13.0125 10.95 12.825L12 11.775L13.05 12.825C13.2 12.975 13.425 13.0875 13.65 13.0875H16.2C17.55 13.0875 18.6375 12 18.6375 10.65V7.31248C18.6375 5.96248 17.55 4.87498 16.2 4.87498H15.9375V4.72498C15.9375 3.37498 14.85 2.28748 13.5 2.28748H10.4625C9.11251 2.28748 8.02501 3.37498 8.02501 4.72498V4.87498H7.76251C6.41251 4.87498 5.32501 5.96248 5.32501 7.31248V10.65C5.36251 12 6.45001 13.0875 7.80001 13.0875ZM10.4625 4.01248H13.5C13.9125 4.01248 14.25 4.34998 14.25 4.76248V4.91248H9.75001V4.76248C9.75001 4.34998 10.0875 4.01248 10.4625 4.01248ZM7.80001 6.59998H16.2C16.6125 6.59998 16.95 6.93748 16.95 7.34998V7.79998H15.825C15.375 7.79998 14.9625 8.17498 14.9625 8.66248C14.9625 9.14998 15.3375 9.52498 15.825 9.52498H16.95V10.7625C16.95 11.175 16.6125 11.5125 16.2 11.5125H13.9875L12.6 10.125C12.2625 9.78748 11.7375 9.78748 11.4 10.125L10.0125 11.5125H7.80001C7.38751 11.5125 7.05001 11.175 7.05001 10.7625V9.52498H8.17501C8.62501 9.52498 9.03751 9.14998 9.03751 8.66248C9.03751 8.17498 8.66251 7.79998 8.17501 7.79998H7.05001V7.34998C7.05001 6.93748 7.38751 6.59998 7.80001 6.59998Z" fill="#161A23"/>
<path d="M22.5 19.9875H21.15V10.0125C21.15 9.56252 20.775 9.15002 20.2875 9.15002C19.8 9.15002 19.425 9.52502 19.425 10.0125V19.9875H4.53751V10.0125C4.53751 9.56252 4.16251 9.15002 3.67501 9.15002C3.18751 9.15002 2.81251 9.52502 2.81251 10.0125V19.9875H1.50001C1.05001 19.9875 0.637512 20.3625 0.637512 20.85C0.637512 21.3375 1.01251 21.7125 1.50001 21.7125H22.5C22.95 21.7125 23.3625 21.3375 23.3625 20.85C23.3625 20.3625 22.95 19.9875 22.5 19.9875Z" fill="#161A23"/>
</svg>
