<svg width="24" height="24" viewBox="0 0 24 24" fill="none" xmlns="http://www.w3.org/2000/svg">
<path d="M16.65 16.0125C16.2 15.9375 15.75 16.2375 15.675 16.6875C15.6 17.1375 15.9 17.5875 16.35 17.6625C18.675 18.1125 19.3125 18.7875 19.35 18.9C19.275 19.1625 17.9625 20.0625 14.6625 20.4C14.2125 20.4375 13.875 20.85 13.9125 21.3375C13.95 21.7875 14.325 22.0875 14.7375 22.0875C14.775 22.0875 14.775 22.0875 14.8125 22.0875C16.275 21.9375 21.0375 21.3 21.0375 18.9375C21.0375 17.5875 19.4625 16.5375 16.65 16.0125Z" fill="#161A23"/>
<path d="M10.575 19.0875C10.2375 18.7875 9.67502 18.825 9.37502 19.1625C9.07502 19.5 9.11252 20.0625 9.45002 20.3625L9.48752 20.4C6.26252 20.1375 4.72502 19.2375 4.65002 18.9375C4.68752 18.7875 5.47502 18.0375 8.17502 17.5875C8.62502 17.5125 8.96252 17.1 8.88752 16.6125C8.81252 16.1625 8.36252 15.825 7.91252 15.9C6.07502 16.2 2.96252 16.9875 2.96252 18.9C2.96252 20.8875 6.37502 21.825 9.60002 22.0875L9.41252 22.275C9.07502 22.6125 9.07502 23.1375 9.41252 23.475C9.56252 23.625 9.78752 23.7375 10.0125 23.7375C10.2375 23.7375 10.4625 23.6625 10.6125 23.475L12.3 21.7875C12.45 21.6375 12.5625 21.4125 12.5625 21.15C12.5625 20.925 12.45 20.7 12.2625 20.55L10.575 19.0875Z" fill="#161A23"/>
<path d="M6.63752 15.6C8.06252 15.6 9.22502 14.625 9.52502 13.35H14.475C14.775 14.6625 15.975 15.6375 17.3625 15.6375C19.0125 15.6375 20.325 14.325 20.325 12.7125V7.98745C20.325 7.19995 20.025 6.48745 19.5 5.92495C18.9375 5.36245 18.15 5.02495 17.3625 5.02495H12.825V1.12495C12.825 0.674951 12.45 0.262451 11.9625 0.262451C11.5125 0.262451 11.1 0.637451 11.1 1.12495V5.06245H6.63752C4.98752 5.06245 3.67502 6.37495 3.67502 7.98745V12.6375C3.63752 14.2875 4.98752 15.6 6.63752 15.6ZM5.32502 7.98745C5.32502 7.31245 5.88752 6.74995 6.60002 6.74995H17.3625C17.7 6.74995 18.0375 6.89995 18.3 7.12495C18.525 7.34995 18.6375 7.64995 18.6375 7.98745V12.675C18.6375 13.35 18.075 13.9125 17.3625 13.9125C16.65 13.9125 16.0875 13.35 16.0875 12.675C16.0875 12.1125 15.6375 11.6625 15.075 11.6625H8.96252C8.40002 11.6625 7.95002 12.1125 7.95002 12.675C7.95002 13.35 7.38752 13.9125 6.67502 13.9125C5.96252 13.9125 5.40002 13.35 5.40002 12.675V7.98745H5.32502Z" fill="#161A23"/>
<path d="M6.71254 10.1624H7.05004V10.4999C7.05004 10.9499 7.42504 11.3624 7.91254 11.3624C8.40004 11.3624 8.77504 10.9874 8.77504 10.4999V10.1624H9.11254C9.56254 10.1624 9.97504 9.78743 9.97504 9.29993C9.97504 8.81243 9.60004 8.43743 9.11254 8.43743H8.77504V8.09993C8.77504 7.64993 8.40004 7.23743 7.91254 7.23743C7.42504 7.23743 7.05004 7.61243 7.05004 8.09993V8.43743H6.71254C6.26254 8.43743 5.85004 8.81243 5.85004 9.29993C5.85004 9.78743 6.26254 10.1624 6.71254 10.1624Z" fill="#161A23"/>
<path d="M15.7125 8.58748C15.75 8.62498 15.825 8.62498 15.8625 8.66248C15.9 8.69998 15.975 8.69998 16.0125 8.69998C16.05 8.69998 16.125 8.73748 16.1625 8.73748C16.3875 8.73748 16.6125 8.66248 16.7625 8.47498C16.9125 8.32498 17.025 8.09998 17.025 7.87498C17.025 7.79998 17.025 7.76248 17.025 7.72498C17.025 7.68748 16.9875 7.61248 16.9875 7.57498C16.9875 7.53748 16.95 7.46248 16.9125 7.42498C16.875 7.38748 16.8375 7.34998 16.8 7.27498C16.6125 7.08748 16.3125 6.97498 16.05 7.04998C15.975 7.04998 15.9375 7.08748 15.9 7.08748C15.8625 7.08748 15.7875 7.12498 15.75 7.16248C15.7125 7.19998 15.675 7.23748 15.6375 7.27498C15.6 7.31248 15.5625 7.34998 15.525 7.42498C15.4875 7.46248 15.4875 7.53748 15.45 7.57498C15.375 7.61248 15.375 7.68748 15.375 7.72498C15.375 7.76248 15.375 7.83748 15.375 7.87498C15.375 8.09998 15.45 8.32498 15.6375 8.47498C15.6375 8.54998 15.675 8.54998 15.7125 8.58748Z" fill="#161A23"/>
<path d="M13.875 9.74998C13.9125 9.78748 13.9125 9.86248 13.95 9.89998C13.9875 9.93748 14.025 9.97498 14.0625 10.0125C14.1 10.05 14.1375 10.0875 14.175 10.125C14.2125 10.1625 14.2875 10.1625 14.325 10.2C14.3625 10.2375 14.4375 10.2375 14.475 10.2375C14.5125 10.2375 14.5875 10.2375 14.625 10.2375C14.85 10.2375 15.075 10.1625 15.225 9.97498C15.2625 9.93748 15.3 9.89998 15.3375 9.86248C15.375 9.82498 15.375 9.74998 15.4125 9.71248C15.4125 9.67498 15.45 9.59998 15.45 9.56248C15.45 9.52498 15.45 9.44998 15.45 9.41248C15.45 9.37498 15.45 9.29998 15.45 9.26248C15.45 9.22498 15.4125 9.14998 15.4125 9.11248C15.375 9.07498 15.375 8.99998 15.3375 8.96248C15.3 8.92498 15.2625 8.88748 15.225 8.84998C15.1875 8.81248 15.15 8.77498 15.1125 8.73748C15.075 8.69998 15 8.66248 14.9625 8.66248C14.925 8.62498 14.85 8.62498 14.8125 8.62498C14.55 8.58748 14.25 8.66248 14.0625 8.84998C14.025 8.88748 13.9875 8.92498 13.95 8.96248C13.9125 8.99998 13.875 9.07498 13.875 9.11248C13.8375 9.14998 13.8375 9.22498 13.8375 9.26248C13.8375 9.29998 13.8375 9.37498 13.8375 9.41248C13.8375 9.44998 13.8375 9.52498 13.8375 9.56248C13.8375 9.67498 13.8375 9.71248 13.875 9.74998Z" fill="#161A23"/>
<path d="M16.9875 10.4625C16.9875 10.425 16.95 10.35 16.9125 10.3125C16.875 10.275 16.8375 10.2375 16.8 10.2C16.7625 10.1625 16.725 10.125 16.6875 10.0875C16.65 10.05 16.575 10.05 16.5375 10.0125C16.5 9.97495 16.425 9.97495 16.3875 9.97495C16.125 9.93745 15.825 10.0125 15.6375 10.2C15.4875 10.35 15.375 10.575 15.375 10.8C15.375 11.025 15.45 11.25 15.6375 11.4C15.7875 11.55 16.0125 11.6625 16.2375 11.6625C16.275 11.6625 16.35 11.6625 16.3875 11.6625C16.425 11.6625 16.5 11.625 16.5375 11.625C16.575 11.5875 16.65 11.5875 16.6875 11.55C16.725 11.5125 16.7625 11.475 16.8 11.4375C16.8375 11.4 16.875 11.3625 16.9125 11.325C16.95 11.2875 16.9875 11.2125 16.9875 11.175C17.025 11.1375 17.025 11.0625 17.025 11.025C17.025 10.9875 17.025 10.9125 17.025 10.875C17.025 10.8 17.025 10.7625 17.025 10.725C17.025 10.575 16.9875 10.5 16.9875 10.4625Z" fill="#161A23"/>
<path d="M17.1375 10.0499C17.2875 10.1999 17.5125 10.3124 17.7375 10.3124C17.9625 10.3124 18.1875 10.2374 18.3375 10.0499C18.375 10.0124 18.4125 9.97491 18.45 9.93741C18.4875 9.89991 18.525 9.82491 18.525 9.78741C18.525 9.74991 18.5625 9.67491 18.5625 9.63741C18.5625 9.59991 18.5625 9.52491 18.5625 9.48741C18.5625 9.26241 18.4875 9.03741 18.3 8.88741C18.1125 8.69991 17.8125 8.58741 17.55 8.66241C17.5125 8.66241 17.4375 8.69991 17.4 8.69991C17.3625 8.73741 17.2875 8.73741 17.25 8.77491C17.2125 8.81241 17.175 8.84991 17.1375 8.88741C16.9875 9.03741 16.875 9.26241 16.875 9.48741C16.875 9.67491 16.9875 9.86241 17.1375 10.0499Z" fill="#161A23"/>
</svg>
