<svg width="24" height="24" viewBox="0 0 24 24" fill="none" xmlns="http://www.w3.org/2000/svg">
<path d="M20.8875 6.89993C20.4375 6.89993 20.025 7.27493 20.025 7.76243V17.8499C20.025 18.2249 19.725 18.5249 19.35 18.5249H4.6125C4.2375 18.5249 3.9375 18.2249 3.9375 17.8499V7.72493C3.9375 7.27493 3.5625 6.86243 3.075 6.86243C2.5875 6.86243 2.25 7.27493 2.25 7.72493V17.8124C2.25 19.0874 3.3 20.1749 4.6125 20.1749H9.6L9.225 22.3499C9.1875 22.6124 9.2625 22.8374 9.4125 23.0249C9.5625 23.2124 9.825 23.3249 10.05 23.3249H13.9125C14.175 23.3249 14.4 23.2124 14.55 23.0249C14.7 22.8374 14.775 22.5749 14.7375 22.3499L14.3625 20.1749H19.35C20.625 20.1749 21.7125 19.1249 21.7125 17.8124V7.72493C21.75 7.27493 21.375 6.89993 20.8875 6.89993ZM12.9375 21.6749H11.0625L11.325 20.1749H12.675L12.9375 21.6749Z" fill="#161A23"/>
<path d="M7.76251 11.5125H10.35C10.575 11.5125 10.8 11.4375 10.95 11.25L12 10.2L13.05 11.25C13.2 11.4 13.425 11.5125 13.65 11.5125H16.2375C17.5875 11.5125 18.675 10.425 18.675 9.07495V5.69995C18.675 4.34995 17.5875 3.26245 16.2375 3.26245H15.975V3.07495C15.975 1.72495 14.8875 0.637451 13.5375 0.637451H10.4625C9.11251 0.637451 8.02501 1.72495 8.02501 3.07495V3.26245H7.76251C6.41251 3.26245 5.32501 4.34995 5.32501 5.69995V9.07495C5.32501 10.425 6.41251 11.5125 7.76251 11.5125ZM10.4625 2.36245H13.5375C13.95 2.36245 14.2875 2.69995 14.2875 3.11245V3.29995H9.71251V3.07495C9.71251 2.66245 10.05 2.36245 10.4625 2.36245ZM7.76251 4.94995H16.275C16.6875 4.94995 17.025 5.28745 17.025 5.69995V6.14995H15.9C15.45 6.14995 15.0375 6.52495 15.0375 7.01245C15.0375 7.49995 15.4125 7.87495 15.9 7.87495H17.025V9.11245C17.025 9.52495 16.6875 9.86245 16.275 9.86245H14.025L12.6 8.47495C12.2625 8.13745 11.7375 8.13745 11.4 8.47495L9.97501 9.86245H7.72501C7.31251 9.86245 6.97501 9.52495 6.97501 9.11245V7.87495H8.10001C8.55001 7.87495 8.96251 7.49995 8.96251 7.01245C8.96251 6.52495 8.58751 6.14995 8.10001 6.14995H6.97501V5.69995C7.01251 5.28745 7.35001 4.94995 7.76251 4.94995Z" fill="#161A23"/>
</svg>
