<svg width="24" height="24" viewBox="0 0 24 24" fill="none" xmlns="http://www.w3.org/2000/svg">
<path d="M7.80001 11.4375H10.35C10.575 11.4375 10.8 11.3624 10.95 11.1749L12 10.125L13.05 11.1749C13.2 11.325 13.425 11.4375 13.65 11.4375H16.2C17.55 11.4375 18.6375 10.3499 18.6375 8.99995V5.66245C18.6375 4.31245 17.55 3.22495 16.2 3.22495H15.9375V3.07495C15.9375 1.72495 14.85 0.637451 13.5 0.637451H10.4625C9.11251 0.637451 8.02501 1.72495 8.02501 3.07495V3.22495H7.76251C6.41251 3.22495 5.32501 4.31245 5.32501 5.66245V8.99995C5.36251 10.3499 6.45001 11.4375 7.80001 11.4375ZM10.4625 2.36245H13.5C13.9125 2.36245 14.25 2.69995 14.25 3.11245V3.26245H9.75001V3.07495C9.75001 2.66245 10.0875 2.36245 10.4625 2.36245ZM7.80001 4.91245H16.2C16.6125 4.91245 16.95 5.24995 16.95 5.66245V6.11245H15.825C15.375 6.11245 14.9625 6.48745 14.9625 6.97495C14.9625 7.46245 15.3375 7.83745 15.825 7.83745H16.95V8.99995C16.95 9.41245 16.6125 9.74995 16.2 9.74995H13.9875L12.6 8.36245C12.2625 8.02495 11.7375 8.02495 11.4 8.36245L10.0125 9.74995H7.80001C7.38751 9.74995 7.05001 9.41245 7.05001 8.99995V7.76245H8.17501C8.62501 7.76245 9.03751 7.38745 9.03751 6.89995C9.03751 6.41245 8.66251 6.03745 8.17501 6.03745H7.05001V5.58745C7.05001 5.24995 7.38751 4.91245 7.80001 4.91245Z" fill="#161A23"/>
<path d="M20.2875 7.42495C19.8375 7.42495 19.425 7.79995 19.425 8.28745V17.5875C19.425 17.925 19.125 18.225 18.7875 18.225H5.21251C4.87501 18.225 4.57501 17.925 4.57501 17.5875V8.24995C4.57501 7.79995 4.20001 7.38745 3.71251 7.38745C3.22501 7.38745 2.85001 7.76245 2.85001 8.24995V17.55C2.85001 18.825 3.90001 19.875 5.17501 19.875H9.71251L9.45001 21.6375H7.65001C7.20001 21.6375 6.78751 22.0125 6.78751 22.5C6.78751 22.9875 7.16251 23.3625 7.65001 23.3625H16.275C16.725 23.3625 17.1375 22.9875 17.1375 22.5C17.1375 22.0125 16.7625 21.6375 16.275 21.6375H14.475L14.2125 19.875H18.75C20.025 19.875 21.075 18.825 21.075 17.55V8.24995C21.15 7.79995 20.7375 7.42495 20.2875 7.42495ZM12.825 21.675H11.175L11.4375 19.9125H12.5625L12.825 21.675Z" fill="#161A23"/>
</svg>
