<svg width="24" height="24" viewBox="0 0 24 24" fill="none" xmlns="http://www.w3.org/2000/svg">
<path d="M20.175 21.7125L18.4875 19.8749L19.2375 19.4249C19.8375 19.0875 20.2125 18.4124 20.2125 17.7374V9.71245C20.2125 8.96245 19.7625 8.24995 19.0875 7.91245L12.825 5.02495V1.49995C12.825 1.04995 12.45 0.637451 11.9625 0.637451C11.5125 0.637451 11.1 1.01245 11.1 1.49995V5.02495L4.83751 7.91245C4.16251 8.24995 3.71251 8.92495 3.71251 9.71245V17.7374C3.71251 18.4499 4.08751 19.0875 4.68751 19.4249L5.43751 19.8749L3.78751 21.7125C3.48751 22.0499 3.48751 22.5749 3.86251 22.9124C4.01251 23.0624 4.23751 23.1374 4.42501 23.1374C4.65001 23.1374 4.87501 23.0624 5.06251 22.8749L6.97501 20.775L10.9875 23.0999C11.2875 23.2874 11.625 23.3624 11.9625 23.3624C12.3 23.3624 12.6375 23.2874 12.9375 23.0999L16.95 20.775L18.8625 22.8749C19.0125 23.0624 19.275 23.1374 19.5 23.1374C19.6875 23.1374 19.9125 23.0624 20.0625 22.9124C20.4375 22.6124 20.475 22.0875 20.175 21.7125ZM12 8.84995C12.45 8.84995 12.8625 8.47495 12.8625 7.98745V6.86245L17.4 8.99995L12 11.5125L6.56251 9.03745L11.1375 6.89995V8.02495C11.175 8.47495 11.55 8.84995 12 8.84995ZM8.17501 19.4625L9.18751 18.375C9.48751 18.0374 9.48751 17.5124 9.11251 17.1749C8.77501 16.8749 8.25001 16.875 7.91251 17.25L6.67501 18.6374L5.58751 18C5.51251 17.9625 5.43751 17.85 5.43751 17.775V10.3875L11.1375 13.0125V21.2249L8.17501 19.4625ZM12.8625 21.2249V12.9749L18.5625 10.3499V17.7374C18.5625 17.8499 18.525 17.9249 18.4125 17.9625L17.325 18.5999L16.0875 17.25C15.7875 16.9124 15.225 16.8749 14.8875 17.1749C14.55 17.4749 14.5125 18.0374 14.8125 18.375L15.825 19.4625L12.8625 21.2249Z" fill="#161A23"/>
</svg>
