<svg width="24" height="24" viewBox="0 0 24 24" fill="none" xmlns="http://www.w3.org/2000/svg">
<path d="M20.175 18.3376H15.9375C15.1125 18.3376 14.3625 17.9626 13.8375 17.3251L12.0375 15.0751L10.2375 17.3251C9.71251 17.9626 8.96251 18.3376 8.13751 18.3376H3.82501C2.06251 18.3376 0.637512 16.9126 0.637512 15.1501V8.8501C0.637512 7.0876 2.06251 5.6626 3.82501 5.6626H20.175C21.9375 5.6626 23.3625 7.0876 23.3625 8.8501V15.1501C23.3625 16.9126 21.9 18.3376 20.175 18.3376ZM12 13.1626C12.4125 13.1626 12.75 13.3501 13.0125 13.6501L15.1125 16.2376C15.3 16.4626 15.6 16.6126 15.9 16.6126H20.1375C20.9625 16.6126 21.6375 15.9376 21.6375 15.1126V8.8501C21.6375 8.0251 20.9625 7.3501 20.1375 7.3501H3.82501C3.00001 7.3501 2.32501 8.0251 2.32501 8.8501V15.1501C2.32501 15.9751 3.00001 16.6501 3.82501 16.6501H8.06251C8.36251 16.6501 8.66251 16.5001 8.85001 16.2751L10.95 13.6876C11.25 13.3501 11.5875 13.1626 12 13.1626Z" fill="#161A23"/>
</svg>
