<svg width="24" height="24" viewBox="0 0 24 24" fill="none" xmlns="http://www.w3.org/2000/svg">
<g clip-path="url(#clip0_914_45511)">
<path d="M23.5669 3.74967C23.5487 3.68427 23.5269 3.61886 23.4978 3.55708C23.4724 3.49168 23.4397 3.42991 23.4034 3.37177C23.3671 3.31363 23.3271 3.25912 23.2835 3.20825C23.2399 3.15738 23.1891 3.10651 23.1382 3.0629C23.0873 3.01566 23.0365 2.97569 22.9783 2.93572C22.9202 2.89575 22.8621 2.86305 22.8003 2.83398L18.0123 0.515673C17.7398 0.388496 17.4347 0.344889 17.1404 0.395763C16.8861 0.439364 16.65 0.552011 16.4538 0.71553C16.4211 0.740962 16.3884 0.770032 16.3594 0.799102L8.63602 9.38554L4.1277 5.66827L3.73535 5.34124C3.5973 5.22495 3.43383 5.145 3.25582 5.11957C3.23039 5.11594 3.20496 5.1123 3.17953 5.1123C3.15773 5.10866 3.1323 5.10866 3.11051 5.10866C3.07418 5.10866 3.04148 5.10866 3.00516 5.1123C2.97246 5.1123 2.9434 5.11957 2.91434 5.12685C2.85258 5.13776 2.79082 5.15591 2.7327 5.18134L0.970781 5.91172C0.796406 5.98804 0.643826 6.11156 0.538478 6.26782C0.433125 6.42772 0.375 6.61665 0.375 6.80561V17.1944C0.375 17.3834 0.433125 17.5723 0.538478 17.7322C0.643826 17.8884 0.796406 18.012 0.970781 18.0883L2.7327 18.8295C2.89617 18.8986 3.07781 18.9204 3.25582 18.895C3.43383 18.8659 3.5973 18.7896 3.73535 18.6733L4.1277 18.3317L8.63602 14.6145L16.3594 23.2009C16.3848 23.2263 16.4139 23.2518 16.4429 23.2772C16.4466 23.2808 16.4502 23.2845 16.4538 23.2845C16.65 23.448 16.8861 23.5606 17.1404 23.6042C17.4347 23.6551 17.7398 23.6115 18.0123 23.4843L22.8003 21.166C22.8621 21.1369 22.9202 21.1042 22.9783 21.0643C23.091 20.988 23.1963 20.8935 23.2835 20.7954C23.3271 20.7409 23.3671 20.6864 23.4034 20.6282C23.5487 20.3957 23.625 20.1268 23.625 19.8506V4.14937C23.625 4.01494 23.6068 3.8805 23.5669 3.74967ZM3.28125 15.3412V8.65882L6.2856 12.0018L3.28125 15.3412ZM11.8075 12.0018L17.8125 7.04906V16.9509L11.8075 12.0018Z" fill="#15171A"/>
</g>
<defs>
<clipPath id="clip0_914_45511">
<rect width="24" height="24" fill="white"/>
</clipPath>
</defs>
</svg>
