<svg width="24" height="24" viewBox="0 0 24 24" fill="none" xmlns="http://www.w3.org/2000/svg">
<path d="M13.125 8.5874H10.875C9.78751 8.5874 8.88751 9.4874 8.88751 10.5749V12.7874C8.88751 13.8749 9.78751 14.7749 10.875 14.7749H13.125C14.2125 14.7749 15.1125 13.8749 15.1125 12.7874V10.5749C15.075 9.4874 14.175 8.5874 13.125 8.5874ZM13.3875 12.7874C13.3875 12.9374 13.275 13.0874 13.0875 13.0874H10.875C10.725 13.0874 10.575 12.9749 10.575 12.7874V10.5749C10.575 10.4249 10.6875 10.2749 10.875 10.2749H13.125C13.275 10.2749 13.425 10.3874 13.425 10.5749V12.7874H13.3875Z" fill="#161A23"/>
<path d="M16.8375 0.637451C16.3875 0.637451 15.975 1.01245 15.975 1.49995V5.88745H8.28749C7.19999 5.88745 6.29999 6.78745 6.29999 7.87495V21.3749C6.29999 22.4625 7.19999 23.3624 8.28749 23.3624H15.675C16.7625 23.3624 17.6625 22.4625 17.6625 21.3749V1.49995C17.6625 1.04995 17.2875 0.637451 16.8375 0.637451ZM15.975 21.3749C15.975 21.525 15.8625 21.6749 15.675 21.6749H8.28749C8.13749 21.6749 7.98749 21.5624 7.98749 21.3749V7.87495C7.98749 7.72495 8.09999 7.57495 8.28749 7.57495H15.975V21.3749Z" fill="#161A23"/>
</svg>
