<svg width="24" height="24" viewBox="0 0 24 24" fill="none" xmlns="http://www.w3.org/2000/svg">
<path d="M11.4375 6.41245C13.0125 6.41245 14.325 5.13745 14.325 3.52495C14.325 1.91245 13.05 0.637451 11.4375 0.637451C9.86255 0.637451 8.55005 1.91245 8.55005 3.52495C8.55005 5.13745 9.82505 6.41245 11.4375 6.41245ZM11.4375 2.32495C12.1125 2.32495 12.6375 2.84995 12.6375 3.52495C12.6375 4.19995 12.1125 4.72495 11.4375 4.72495C10.7625 4.72495 10.2375 4.19995 10.2375 3.52495C10.2375 2.84995 10.7625 2.32495 11.4375 2.32495Z" fill="#161A23"/>
<path d="M18.375 21.6749H15.1125V19.1624C15.1125 19.0124 15.075 18.8249 14.9625 18.7124L12.5625 15.1124V13.1249L14.85 13.9499C14.9625 13.9874 15.0375 13.9874 15.15 13.9874C15.4875 13.9874 15.825 13.7624 15.9375 13.4249C16.0875 12.9749 15.8625 12.4874 15.45 12.3374L12.6 11.2874V9.11242C12.6 8.77492 12.4125 8.47492 12.1125 8.32492L10.3875 7.53742C9.48755 7.12492 8.40005 7.34992 7.76255 8.09992L7.08755 8.84992C6.93755 8.99992 6.86255 9.18742 6.86255 9.41242V13.2374C6.86255 13.6874 7.23755 14.0624 7.68755 14.0624C8.13755 14.0624 8.51255 13.6874 8.51255 13.2374V9.71242L8.96255 9.18742C9.15005 8.99992 9.41255 8.92492 9.63755 9.03742L10.875 9.59992V15.2624V15.3749L7.87505 21.6749H5.62505C5.17505 21.6749 4.80005 22.0499 4.80005 22.4999C4.80005 22.9499 5.17505 23.3249 5.62505 23.3249H18.375C18.825 23.3249 19.2 22.9499 19.2 22.4999C19.2 22.0499 18.825 21.6749 18.375 21.6749ZM11.9625 17.1374L13.4625 19.4249V21.6749H9.75005L11.9625 17.1374Z" fill="#161A23"/>
</svg>
