<svg width="24" height="24" viewBox="0 0 24 24" fill="none" xmlns="http://www.w3.org/2000/svg">
<path d="M20.7001 7.12495H19.5751C19.6875 6.82495 19.7626 6.48745 19.7626 6.11245V4.83745C19.7626 3.33745 18.5625 2.13745 17.0625 2.13745H3.37505C1.87505 2.13745 0.675049 3.33745 0.675049 4.83745V6.11245V19.2C0.675049 20.6625 1.83755 21.825 3.30005 21.825H20.7375C22.2 21.825 23.3625 20.6625 23.3625 19.2V9.74995C23.325 8.32495 22.1625 7.12495 20.7001 7.12495ZM21.6376 16.5375H18.225C18.075 16.5375 17.925 16.3875 17.925 16.2375V12.75C17.925 12.6 18.075 12.45 18.225 12.45H21.6376V16.5375ZM2.36255 4.83745C2.36255 4.27495 2.81255 3.82495 3.37505 3.82495H17.1C17.6625 3.82495 18.1125 4.27495 18.1125 4.83745V6.11245C18.1125 6.67495 17.6625 7.12495 17.1 7.12495H3.37505C2.81255 7.12495 2.36255 6.67495 2.36255 6.11245V4.83745ZM20.7001 20.1749H3.30005C2.77505 20.1749 2.36255 19.7625 2.36255 19.2374V8.62495C2.66255 8.73745 3.00005 8.81245 3.37505 8.81245H20.7375C21.2625 8.81245 21.675 9.22495 21.675 9.74995V10.7625H18.2626C17.175 10.7625 16.275 11.6625 16.275 12.75V16.2C16.275 17.2875 17.175 18.1875 18.2626 18.1875H21.675V19.2C21.6375 19.725 21.225 20.1749 20.7001 20.1749Z" fill="#161A23"/>
<path d="M19.8751 15.1875C20.2686 15.1875 20.5876 14.8685 20.5876 14.475C20.5876 14.0814 20.2686 13.7625 19.8751 13.7625C19.4816 13.7625 19.1626 14.0814 19.1626 14.475C19.1626 14.8685 19.4816 15.1875 19.8751 15.1875Z" fill="#161A23"/>
</svg>
