<svg width="24" height="24" viewBox="0 0 24 24" fill="none" xmlns="http://www.w3.org/2000/svg">
<path d="M20.925 7.98749H20.1V5.21249C20.1 4.49999 19.7625 3.78749 19.1625 3.37499C18.5625 2.96249 17.8125 2.84999 17.1375 3.07499L3.0375 7.94999H2.625C1.3875 7.94999 0.375 8.96249 0.375 10.2V18.5625C0.375 19.8 1.3875 20.8125 2.625 20.8125H20.925C22.1625 20.8125 23.175 19.8 23.175 18.5625V10.2375C23.175 8.99999 22.1625 7.98749 20.925 7.98749ZM17.625 4.49999C17.85 4.42499 18.1125 4.46249 18.3 4.61249C18.4875 4.76249 18.6 4.98749 18.6 5.21249V7.98749H7.6125L17.625 4.49999ZM20.925 19.3125H2.625C2.2125 19.3125 1.875 18.975 1.875 18.5625V10.2375C1.875 9.82499 2.2125 9.48749 2.625 9.48749H20.925C21.3375 9.48749 21.675 9.82499 21.675 10.2375V11.7H17.4C15.8625 11.7 14.625 12.9375 14.625 14.475C14.625 16.0125 15.8625 17.25 17.4 17.25H21.675V18.6C21.675 18.975 21.3375 19.3125 20.925 19.3125ZM21.675 13.2V15.75H17.4C16.6875 15.75 16.125 15.1875 16.125 14.475C16.125 13.7625 16.6875 13.2 17.4 13.2H21.675Z" fill="#161A23"/>
</svg>
