<svg width="24" height="24" viewBox="0 0 24 24" fill="none" xmlns="http://www.w3.org/2000/svg">
<path d="M21.6 10.2751C21.6 7.68755 20.5875 5.28755 18.7875 3.48755C16.9875 1.65005 14.55 0.675049 12 0.675049C9.45002 0.675049 7.01252 1.68755 5.21252 3.48755C3.41252 5.28755 2.40002 7.68755 2.40002 10.2751C2.40002 12.8251 3.41252 15.2626 5.21252 17.0625C5.81252 17.6625 6.45002 18.1501 7.12502 18.5625L6.15002 21.0751C5.77502 21.8251 6.07502 22.7251 6.82502 23.1376C7.16252 23.3251 7.53752 23.3626 7.91252 23.2875C10.6125 22.6875 13.3875 22.6875 16.0875 23.2875C16.2 23.3251 16.3125 23.3251 16.425 23.3251C16.725 23.3251 17.025 23.2501 17.2875 23.0626C17.625 22.8376 17.8875 22.5001 17.9625 22.0876C18.0375 21.7501 18 21.3751 17.85 21.0751L16.875 18.5625C19.6875 16.875 21.6 13.8 21.6 10.2751ZM16.2375 21.6C13.425 21 10.575 21 7.76252 21.6L8.66252 19.2751C9.71252 19.6501 10.8375 19.8751 12 19.8751C13.1625 19.8751 14.2875 19.6501 15.3375 19.2751L16.2375 21.6ZM12 18.1875C9.90002 18.1875 7.87502 17.3626 6.41252 15.8625C4.91252 14.3625 4.08752 12.375 4.08752 10.2375C4.08752 8.13755 4.91252 6.11255 6.41252 4.61255C7.91252 3.11255 9.90002 2.28755 12.0375 2.28755C14.1375 2.28755 16.1625 3.11255 17.625 4.61255C19.125 6.11255 19.95 8.10005 19.95 10.2375C19.9125 14.625 16.35 18.1875 12 18.1875Z" fill="#161A23"/>
<path d="M12 6.11255C9.71252 6.11255 7.83752 7.98755 7.83752 10.275C7.83752 11.4 8.28752 12.45 9.07502 13.2375C9.86252 14.025 10.9125 14.475 12.0375 14.475C14.325 14.475 16.2 12.6 16.2 10.3125C16.2 9.18755 15.75 8.13755 14.9625 7.35005C14.175 6.56255 13.125 6.11255 12 6.11255ZM12 12.75C11.325 12.75 10.725 12.4875 10.2375 12.0375C9.75002 11.5875 9.52502 10.95 9.52502 10.275C9.52502 9.60005 9.78752 9.00005 10.2375 8.51255C10.725 8.02505 11.325 7.80005 12 7.80005C12.675 7.80005 13.275 8.06255 13.7625 8.51255C14.25 9.00005 14.475 9.60005 14.475 10.275C14.475 11.625 13.3875 12.75 12 12.75Z" fill="#161A23"/>
<path d="M11.325 5.3251H12.675C13.125 5.3251 13.5375 4.9501 13.5375 4.4626C13.5375 3.9751 13.1625 3.6001 12.675 3.6001H11.325C10.875 3.6001 10.4625 3.9751 10.4625 4.4626C10.4625 4.9501 10.875 5.3251 11.325 5.3251Z" fill="#161A23"/>
</svg>
