<svg width="24" height="24" viewBox="0 0 24 24" fill="none" xmlns="http://www.w3.org/2000/svg">
<g clip-path="url(#clip0_914_45515)">
<path fill-rule="evenodd" clip-rule="evenodd" d="M11.342 10.2001C9.06064 9.03833 8.2257 7.49671 8.77732 5.60952C9.26329 3.94658 10.9011 2.85815 12.5693 3.11409C13.4014 3.24159 14.1332 3.58762 14.7035 4.24782C15.5666 5.24776 15.7615 6.41495 15.498 7.71477L16.2861 7.93193C16.6908 8.04346 17.0803 8.15082 17.4681 8.25758C18.3072 5.91976 17.3229 3.18824 15.1736 1.78593C12.9357 0.326056 10.0361 0.634025 8.13547 2.53603C7.14319 3.52921 6.60022 4.74102 6.47392 6.14326C6.29535 8.12701 7.1025 9.72777 8.45858 11.0973L6.30244 14.7693C6.23197 14.7746 6.17126 14.7783 6.11696 14.7817C6.01755 14.7878 5.93966 14.7925 5.86286 14.8037C4.4454 15.0078 3.44774 16.2878 3.68626 17.5934C3.95543 19.0686 5.27719 19.9741 6.63383 19.6131C8.07233 19.2304 8.83774 17.8205 8.29519 16.3716C8.09865 15.8472 8.22041 15.5111 8.46641 15.0985C9.15941 13.9358 9.84221 12.7667 10.5377 11.5759C10.8034 11.1209 11.0712 10.6623 11.342 10.2001ZM16.224 11.9573C15.5296 10.7139 14.829 9.45893 14.1391 8.22267C14.1735 8.13485 14.2072 8.0522 14.2395 7.97281C14.3078 7.80466 14.3704 7.65091 14.4225 7.4939C14.6981 6.66488 14.5316 5.90832 14.0079 5.23613C13.367 4.41338 12.2488 4.11458 11.2961 4.48482C10.3342 4.8584 9.7188 5.81738 9.76061 6.87826C9.80317 7.95095 10.5119 8.9084 11.6097 9.10171C12.2671 9.21732 12.5891 9.53438 12.8808 10.0808C13.5009 11.2428 14.1434 12.3923 14.7866 13.5429L14.7868 13.5433C15.0408 13.9977 15.2949 14.4524 15.5479 14.908C17.7012 13.4504 19.4826 13.4967 20.8126 15.0152C21.9651 16.3311 21.9894 18.3351 20.8694 19.6793C19.5561 21.2548 17.787 21.3174 15.7643 19.9869C15.2039 20.4631 14.6794 20.9088 14.1575 21.3525C16.2054 23.4285 19.1285 23.7046 21.4399 22.0885C23.6917 20.5142 24.4756 17.4919 23.3289 14.9401C22.3796 12.8276 19.7335 10.8545 16.224 11.9573ZM11.5632 18.3289H15.7882C15.8471 18.4086 15.9022 18.4875 15.9559 18.5645C16.0681 18.7252 16.1746 18.8777 16.2989 19.0131C17.1937 19.9849 18.7047 20.0331 19.6611 19.1312C20.6524 18.1965 20.6973 16.6264 19.7605 15.6506C18.8439 14.6957 17.2774 14.6045 16.4263 15.6155C15.9094 16.2299 15.3796 16.3022 14.6934 16.2912C13.4392 16.2716 12.1844 16.2753 10.9298 16.2791C10.4265 16.2806 9.92332 16.2821 9.42023 16.2821C9.5343 18.7929 8.5998 20.3574 6.74625 20.7289C4.93121 21.0926 3.25961 20.1521 2.67115 18.4361C2.00266 16.4861 2.82937 14.9266 5.21794 13.6889C5.0382 13.0276 4.85651 12.3583 4.67681 11.6954C2.07346 12.2716 0.120322 14.8369 0.321922 17.7229C0.500074 20.2704 2.52346 22.5329 4.99804 22.9382C6.34204 23.1586 7.60481 22.9298 8.77646 22.2548C10.2836 21.3863 11.1583 20.0205 11.5632 18.3289Z" fill="#15171A"/>
</g>
<defs>
<clipPath id="clip0_914_45515">
<rect width="24" height="24" fill="white"/>
</clipPath>
</defs>
</svg>
