<svg width="24" height="24" viewBox="0 0 24 24" fill="none" xmlns="http://www.w3.org/2000/svg">
<path d="M6.1125 11.475H7.2375C7.6875 11.475 8.1 11.1 8.1 10.6125C8.1 10.125 7.725 9.75 7.2375 9.75H6.1125C5.025 9.75 4.125 10.65 4.125 11.7375V12.8625C4.125 13.95 5.025 14.85 6.1125 14.85C6.2625 14.85 6.4125 14.9625 6.4125 15.15V16.275C6.4125 16.425 6.3 16.575 6.1125 16.575H4.9875C4.5375 16.575 4.125 16.95 4.125 17.4375C4.125 17.925 4.5 18.3 4.9875 18.3H6.1125C7.2 18.3 8.1 17.4 8.1 16.3125V15.1875C8.1 14.1 7.2 13.2 6.1125 13.2C5.9625 13.2 5.8125 13.0875 5.8125 12.9V11.775C5.8125 11.5875 5.9625 11.475 6.1125 11.475Z" fill="#161A23"/>
<path d="M11.55 11.475H13.125C13.575 11.475 13.9875 11.1 13.9875 10.6125C13.9875 10.125 13.6125 9.75 13.125 9.75H11.55C10.4625 9.75 9.5625 10.65 9.5625 11.7375V16.2375C9.5625 17.325 10.4625 18.225 11.55 18.225H13.125C13.575 18.225 13.9875 17.85 13.9875 17.3625C13.9875 16.875 13.6125 16.5 13.125 16.5H11.55C11.4 16.5 11.25 16.3875 11.25 16.2V14.775H12.225C12.675 14.775 13.05 14.4 13.05 13.9125C13.05 13.425 12.675 13.05 12.225 13.05H11.25V11.6625C11.25 11.5875 11.4 11.475 11.55 11.475Z" fill="#161A23"/>
<path d="M17.85 9.78751H17.0625C15.9375 9.78751 15.0375 10.6875 15.0375 11.8125V16.2C15.0375 17.325 15.9375 18.225 17.0625 18.225H17.85C18.975 18.225 19.875 17.325 19.875 16.2V11.8125C19.875 10.6875 18.975 9.78751 17.85 9.78751ZM18.1875 16.2C18.1875 16.3875 18.0375 16.5375 17.85 16.5375H17.0625C16.875 16.5375 16.725 16.3875 16.725 16.2V11.8125C16.725 11.625 16.875 11.475 17.0625 11.475H17.85C18.0375 11.475 18.1875 11.625 18.1875 11.8125V16.2Z" fill="#161A23"/>
<path d="M20.9999 2.13751H2.99995C1.72495 2.13751 0.637451 3.18751 0.637451 4.50001V19.5C0.637451 20.775 1.68745 21.8625 2.99995 21.8625H20.9999C22.275 21.8625 23.3624 20.8125 23.3624 19.5V4.50001C23.3624 3.18751 22.275 2.13751 20.9999 2.13751ZM2.99995 3.82501H20.9999C21.3749 3.82501 21.6749 4.12501 21.6749 4.50001V6.86251H2.36245V4.50001C2.36245 4.12501 2.62495 3.82501 2.99995 3.82501ZM20.9999 20.175H2.99995C2.62495 20.175 2.32495 19.875 2.32495 19.5V8.55001H21.6374V19.5C21.6749 19.875 21.3749 20.175 20.9999 20.175Z" fill="#161A23"/>
<path d="M13.6875 6.15002H13.725C14.175 6.15002 14.5875 5.77502 14.5875 5.28752C14.5875 4.80002 14.2125 4.42502 13.725 4.42502H13.6875C13.2375 4.42502 12.825 4.80002 12.825 5.28752C12.825 5.77502 13.2375 6.15002 13.6875 6.15002Z" fill="#161A23"/>
<path d="M16.1999 6.15002H16.2374C16.6874 6.15002 17.0999 5.77502 17.0999 5.28752C17.0999 4.80002 16.7249 4.42502 16.2374 4.42502H16.1999C15.7499 4.42502 15.3374 4.80002 15.3374 5.28752C15.3374 5.77502 15.7499 6.15002 16.1999 6.15002Z" fill="#161A23"/>
<path d="M18.7125 6.15002H18.75C19.2 6.15002 19.6125 5.77502 19.6125 5.28752C19.6125 4.80002 19.2375 4.42502 18.75 4.42502H18.7125C18.2625 4.42502 17.85 4.80002 17.85 5.28752C17.85 5.77502 18.225 6.15002 18.7125 6.15002Z" fill="#161A23"/>
</svg>
