<svg width="24" height="24" viewBox="0 0 24 24" fill="none" xmlns="http://www.w3.org/2000/svg">
<path d="M21.0001 2.8501H3.00005C1.72505 2.8501 0.675049 3.9001 0.675049 5.1751V18.7876C0.675049 20.0626 1.72505 21.1126 3.00005 21.1126H21.0001C22.2751 21.1126 23.3251 20.0626 23.3251 18.7876V5.2126C23.3251 3.9001 22.2751 2.8501 21.0001 2.8501ZM3.00005 4.5376H21.0001C21.3751 4.5376 21.6751 4.8376 21.6751 5.2126V6.9751H2.32505V5.2126C2.32505 4.8376 2.62505 4.5376 3.00005 4.5376ZM21.0001 19.4626H3.00005C2.62505 19.4626 2.32505 19.1626 2.32505 18.7876V8.6626H21.6376V18.7876C21.6751 19.1626 21.3751 19.4626 21.0001 19.4626Z" fill="#161A23"/>
<path d="M11.475 12.8626H13.5C13.95 12.8626 14.325 12.4876 14.325 12.0376C14.325 11.5876 13.95 11.2126 13.5 11.2126H13.125V11.1751C13.125 10.7251 12.75 10.3501 12.3 10.3501C11.85 10.3501 11.475 10.7251 11.475 11.1751V11.2501C10.4625 11.2876 9.67505 12.0751 9.67505 13.0876V13.1251C9.67505 14.1376 10.5 14.9626 11.5125 14.9626H12.525C12.6 14.9626 12.675 15.0376 12.675 15.1126V15.2251C12.675 15.3001 12.6 15.3751 12.525 15.3751H10.5C10.05 15.3751 9.67505 15.7501 9.67505 16.2001C9.67505 16.6501 10.05 17.0251 10.5 17.0251H11.475V17.0626C11.475 17.5126 11.85 17.8876 12.3 17.8876C12.75 17.8876 13.125 17.5126 13.125 17.0626V16.8751C13.8375 16.6126 14.325 15.9376 14.325 15.1501V15.0376C14.325 14.0251 13.5 13.2001 12.4875 13.2001H11.475C11.4 13.2001 11.325 13.1251 11.325 13.0501V12.9376C11.325 12.9376 11.4 12.8626 11.475 12.8626Z" fill="#161A23"/>
</svg>
