<svg width="24" height="24" viewBox="0 0 24 24" fill="none" xmlns="http://www.w3.org/2000/svg">
<path d="M17.625 9.86248L17.8125 9.44998L18 9.86248C18.15 10.2 18.4875 10.3875 18.8625 10.3875C19.2375 10.3875 19.5375 10.2 19.725 9.86248L20.6625 7.94998C20.8875 7.53748 20.7 7.01248 20.2875 6.82498C19.875 6.63748 19.35 6.78748 19.1625 7.19998L18.8625 7.76248L18.675 7.34998C18.525 7.01248 18.1875 6.82498 17.8125 6.82498C17.4375 6.82498 17.1375 7.01248 16.95 7.34998L16.7625 7.76248L16.5 7.16248C16.275 6.74998 15.7875 6.56248 15.375 6.78748C15.15 6.89998 15 7.12498 14.925 7.34998C14.8875 7.12498 14.7 6.89998 14.475 6.78748C14.0625 6.56248 13.5375 6.74998 13.35 7.16248L13.05 7.72498L12.8625 7.31248C12.7125 6.97498 12.375 6.78748 12 6.78748C11.625 6.78748 11.325 6.97498 11.1375 7.31248L10.95 7.72498L10.65 7.16248C10.425 6.74998 9.93749 6.56248 9.52499 6.78748C9.29999 6.89998 9.14999 7.12498 9.07499 7.34998C9.03749 7.12498 8.84999 6.89998 8.62499 6.78748C8.21249 6.56248 7.68749 6.74998 7.49999 7.16248L7.19999 7.72498L7.01249 7.31248C6.86249 6.97498 6.52499 6.78748 6.14999 6.78748C5.77499 6.78748 5.47499 6.97498 5.28749 7.31248L5.09999 7.72498L4.79999 7.16248C4.57499 6.74998 4.08749 6.56248 3.67499 6.78748C3.26249 7.01248 3.07499 7.49998 3.29999 7.91248L4.23749 9.82498C4.38749 10.1625 4.72499 10.35 5.09999 10.35C5.47499 10.35 5.77499 10.1625 5.96249 9.82498L6.14999 9.41248L6.33749 9.82498C6.48749 10.1625 6.82499 10.35 7.19999 10.35C7.57499 10.35 7.87499 10.1625 8.06249 9.82498L8.99999 7.91248C9.03749 7.83748 9.03749 7.79998 9.07499 7.72498C9.07499 7.79998 9.11249 7.83748 9.14999 7.91248L10.0875 9.82498C10.2375 10.1625 10.575 10.35 10.95 10.35C11.325 10.35 11.625 10.1625 11.8125 9.82498L12 9.41248L12.1875 9.82498C12.3375 10.1625 12.675 10.35 13.05 10.35C13.425 10.35 13.725 10.1625 13.9125 9.82498L14.85 7.91248C14.8875 7.83748 14.8875 7.79998 14.925 7.72498C14.925 7.79998 14.9625 7.83748 15 7.91248L15.9375 9.82498C16.0875 10.1625 16.425 10.35 16.8 10.35C17.1375 10.3875 17.475 10.1625 17.625 9.86248Z" fill="#161A23"/>
<path d="M21.9 2.73749H2.09999C1.08749 2.73749 0.299988 3.56249 0.299988 4.57499V12.525C0.299988 13.5375 1.12499 14.3625 2.09999 14.3625H13.9875C14.4375 14.3625 14.85 13.9875 14.85 13.5C14.85 13.0125 14.475 12.6375 13.9875 12.6375H2.09999C2.02499 12.6375 1.98749 12.5625 1.98749 12.4875V4.57499C1.98749 4.49999 2.02499 4.42499 2.09999 4.42499H21.9375C22.0125 4.42499 22.05 4.49999 22.05 4.57499V12.525C22.05 12.6 21.975 12.675 21.9 12.675C21.45 12.675 21.0375 13.05 21.0375 13.5375C21.0375 14.025 21.4125 14.4 21.9 14.4C22.9125 14.4 23.7375 13.575 23.7375 12.5625V4.57499C23.7375 3.56249 22.9125 2.73749 21.9 2.73749Z" fill="#161A23"/>
<path d="M22.9875 16.4625L17.7 13.8C17.25 13.575 16.725 13.65 16.425 13.9875C16.0875 14.325 16.0125 14.85 16.2375 15.3L18.9 20.5875C19.125 21 19.5375 21.3 20.025 21.3H20.0625C20.475 21.3 20.85 21.0375 21 20.6625L21.6375 19.2L23.1 18.5625C23.475 18.4125 23.7 18.0375 23.7375 17.625C23.7 17.1 23.4375 16.65 22.9875 16.4625ZM20.325 17.8875L19.9125 18.825L18.525 16.0875L21.2625 17.475L20.325 17.8875Z" fill="#161A23"/>
</svg>
