<svg width="24" height="24" viewBox="0 0 24 24" fill="none" xmlns="http://www.w3.org/2000/svg">
<path d="M7.35 10.3125C6.975 10.05 6.45 10.1625 6.1875 10.5375L5.4375 11.625L4.8375 10.725C4.65 10.4625 4.35 10.3125 4.0125 10.3125C3.675 10.3125 3.375 10.4625 3.1875 10.725L2.55 11.625L1.8 10.5375C1.5375 10.1625 1.0125 10.05 0.637501 10.3125C0.262501 10.575 0.150001 11.1 0.412501 11.475L1.725 13.425C1.9125 13.6875 2.2125 13.8375 2.55 13.8375C2.8875 13.8375 3.1875 13.6875 3.375 13.425L3.975 12.525L4.575 13.425C4.7625 13.6875 5.0625 13.8375 5.4 13.8375C5.7375 13.8375 6.0375 13.6875 6.225 13.425L7.5375 11.475C7.8375 11.1 7.725 10.575 7.35 10.3125Z" fill="#161A23"/>
<path d="M15.3375 10.3125C14.9625 10.05 14.4375 10.1625 14.175 10.5375L13.425 11.625L12.825 10.725C12.6375 10.4625 12.3375 10.3125 12 10.3125C11.6625 10.3125 11.3625 10.4625 11.175 10.725L10.575 11.625L9.825 10.5375C9.5625 10.1625 9.0375 10.05 8.6625 10.3125C8.2875 10.575 8.17499 11.1 8.43749 11.475L9.74999 13.425C9.93749 13.6875 10.2375 13.8375 10.575 13.8375C10.9125 13.8375 11.2125 13.6875 11.4 13.425L12 12.525L12.6 13.425C12.7875 13.6875 13.0875 13.8375 13.425 13.8375C13.7625 13.8375 14.0625 13.6875 14.25 13.425L15.5625 11.475C15.825 11.1 15.75 10.575 15.3375 10.3125Z" fill="#161A23"/>
<path d="M23.3625 10.3125C22.9875 10.05 22.4625 10.1625 22.2 10.5375L21.45 11.625L20.85 10.725C20.6625 10.4625 20.3625 10.3125 20.025 10.3125C19.6875 10.3125 19.3875 10.4625 19.2 10.725L18.5625 11.625L17.8125 10.5375C17.55 10.1625 17.025 10.05 16.65 10.3125C16.275 10.575 16.1625 11.1 16.425 11.475L17.7375 13.425C17.925 13.6875 18.225 13.8375 18.5625 13.8375C18.9 13.8375 19.2 13.6875 19.3875 13.425L19.9875 12.525L20.5875 13.425C20.775 13.6875 21.075 13.8375 21.4125 13.8375C21.75 13.8375 22.05 13.6875 22.2375 13.425L23.55 11.475C23.85 11.1 23.7375 10.575 23.3625 10.3125Z" fill="#161A23"/>
</svg>
