<svg width="24" height="24" viewBox="0 0 24 24" fill="none" xmlns="http://www.w3.org/2000/svg">
<path d="M20.9999 3.48749H2.99995C1.72495 3.48749 0.637451 4.53749 0.637451 5.84999V18.1875C0.637451 19.4625 1.68745 20.55 2.99995 20.55H20.9999C22.275 20.55 23.3624 19.5 23.3624 18.1875V5.81249C23.3624 4.53749 22.275 3.48749 20.9999 3.48749ZM2.99995 5.17499H20.9999C21.3749 5.17499 21.6749 5.47499 21.6749 5.84999V8.24999H2.36245V5.81249C2.36245 5.47499 2.62495 5.17499 2.99995 5.17499ZM20.9999 18.825H2.99995C2.62495 18.825 2.32495 18.525 2.32495 18.15V9.93749H21.6374V18.15C21.6749 18.525 21.3749 18.825 20.9999 18.825Z" fill="#161A23"/>
<path d="M14.2874 13.425L12.9749 13.2375C12.8999 13.2375 12.8249 13.1625 12.7874 13.0875L12.1874 11.8875C12.1124 11.7 11.8499 11.7 11.7374 11.8875L11.2124 13.125C11.1749 13.2 11.0999 13.2375 11.0249 13.275L9.71243 13.4625C9.52493 13.5 9.41243 13.725 9.56243 13.875L10.4999 14.8125C10.5749 14.8875 10.5749 14.9625 10.5749 15.0375L10.3499 16.35C10.3124 16.5375 10.5374 16.725 10.7249 16.6125L11.8874 16.0125C11.9624 15.975 12.0374 15.975 12.1124 16.0125L13.2749 16.6125C13.4624 16.725 13.6874 16.5375 13.6499 16.35L13.4249 15C13.4249 14.925 13.4249 14.85 13.4999 14.775L14.4374 13.8375C14.5874 13.725 14.5124 13.4625 14.2874 13.425Z" fill="#161A23"/>
<path d="M14.775 7.61248H14.8125C15.2625 7.61248 15.675 7.23748 15.675 6.74998C15.675 6.26248 15.3 5.88748 14.8125 5.88748H14.775C14.325 5.88748 13.9125 6.26248 13.9125 6.74998C13.9125 7.23748 14.325 7.61248 14.775 7.61248Z" fill="#161A23"/>
<path d="M17.2874 7.61248H17.3249C17.7749 7.61248 18.1874 7.23748 18.1874 6.74998C18.1874 6.26248 17.8124 5.88748 17.3249 5.88748H17.2874C16.8374 5.88748 16.4249 6.26248 16.4249 6.74998C16.4249 7.23748 16.8374 7.61248 17.2874 7.61248Z" fill="#161A23"/>
<path d="M19.8 7.61248H19.8375C20.2875 7.61248 20.7 7.23748 20.7 6.74998C20.7 6.26248 20.325 5.88748 19.8375 5.88748H19.8C19.35 5.88748 18.9375 6.26248 18.9375 6.74998C18.9375 7.23748 19.3125 7.61248 19.8 7.61248Z" fill="#161A23"/>
</svg>
