<svg width="24" height="24" viewBox="0 0 24 24" fill="none" xmlns="http://www.w3.org/2000/svg">
<path d="M21 1.38745H3.00001C1.72501 1.38745 0.637512 2.43745 0.637512 3.74995V20.2875C0.637512 21.5625 1.68751 22.65 3.00001 22.65H21C22.275 22.65 23.3625 21.6 23.3625 20.2875V3.71245C23.3625 2.43745 22.275 1.38745 21 1.38745ZM3.00001 3.07495H21C21.375 3.07495 21.675 3.37495 21.675 3.74995V6.07495H2.36251V3.71245C2.36251 3.37495 2.62501 3.07495 3.00001 3.07495ZM21 20.9249H3.00001C2.62501 20.9249 2.32501 20.625 2.32501 20.25V7.72495H21.6375V20.25C21.675 20.625 21.375 20.9249 21 20.9249Z" fill="#161A23"/>
<path d="M15 9.44995H9.00001C7.91251 9.44995 7.01251 10.35 7.01251 11.4375V14.2125C7.01251 15.3 7.91251 16.2 9.00001 16.2H15C16.0875 16.2 16.9875 15.3 16.9875 14.2125V11.4375C16.95 10.3125 16.0875 9.44995 15 9.44995ZM15.2625 14.175C15.2625 14.325 15.15 14.475 14.9625 14.475H9.00001C8.85001 14.475 8.70001 14.3625 8.70001 14.175V11.4C8.70001 11.25 8.81251 11.1 9.00001 11.1H15C15.15 11.1 15.3 11.2125 15.3 11.4V14.175H15.2625Z" fill="#161A23"/>
<path d="M14.8875 17.7374H9.1125C8.6625 17.7374 8.25 18.1124 8.25 18.5999C8.25 19.0874 8.625 19.4624 9.1125 19.4624H14.85C15.3 19.4624 15.7125 19.0874 15.7125 18.5999C15.7125 18.1124 15.3375 17.7374 14.8875 17.7374Z" fill="#161A23"/>
</svg>
