<svg width="24" height="24" viewBox="0 0 24 24" fill="none" xmlns="http://www.w3.org/2000/svg">
<path d="M21.1872 19.3125C22.6497 18.2625 23.6247 16.6875 23.6247 14.8875C23.6247 11.6625 20.5122 9 16.6122 9C12.7122 9 9.63721 11.625 9.63721 14.85C9.63721 18.075 12.7497 20.7 16.6122 20.7C17.3997 20.7 18.1872 20.5875 18.8997 20.4C18.9372 20.3625 19.0122 20.3625 19.1247 20.3625C19.2372 20.3625 19.3872 20.4 19.4997 20.475L21.0372 21.375C21.0747 21.4125 21.0747 21.4125 21.1497 21.4125C21.2622 21.4125 21.3747 21.3 21.3747 21.1875C21.3747 21.15 21.3372 21.075 21.3372 21.0375C21.3372 21 21.1122 20.2875 21.0747 19.8375C21.0747 19.8 21.0747 19.725 21.0747 19.6875C20.9997 19.5375 21.0747 19.3875 21.1872 19.3125ZM14.2872 13.9875C13.7622 13.9875 13.3497 13.575 13.3497 13.05C13.3497 12.525 13.7622 12.1125 14.2872 12.1125C14.8122 12.1125 15.2247 12.525 15.2247 13.05C15.2247 13.575 14.8122 13.9875 14.2872 13.9875ZM18.9372 13.9875C18.4122 13.9875 17.9997 13.575 17.9997 13.05C17.9997 12.525 18.4122 12.1125 18.9372 12.1125C19.4622 12.1125 19.8747 12.525 19.8747 13.05C19.8747 13.575 19.4997 13.9875 18.9372 13.9875Z" fill="#15171A"/>
<path d="M16.6125 8.55C16.7625 8.55 16.875 8.55 17.1 8.55C16.425 5.2125 12.9375 2.625 8.775 2.625C4.1625 2.6625 0.375 5.775 0.375 9.6375C0.375 11.8125 1.5 13.65 3.3 14.925C3.45 15.0375 3.525 15.1875 3.525 15.4125C3.525 15.45 3.4875 15.525 3.4875 15.5625C3.3375 16.0875 3.1125 16.95 3.1125 16.9875C3 17.0625 3 17.1 3 17.2125C3 17.3625 3.1125 17.475 3.3 17.475C3.3375 17.475 3.4125 17.4375 3.45 17.4375L5.2875 16.3875C5.4 16.35 5.5875 16.275 5.775 16.275C5.8125 16.275 5.925 16.3125 6.0375 16.3125C6.9 16.575 7.8375 16.6875 8.775 16.6875C8.925 16.6875 9.0375 16.6875 9.2625 16.6875C9.1125 16.1625 9 15.5625 9 15C9 11.325 12.375 8.55 16.6125 8.55ZM11.5875 6.2625C12.225 6.2625 12.7125 6.7875 12.7125 7.3875C12.7125 7.9875 12.1875 8.5125 11.5875 8.5125C10.9875 8.5125 10.4625 7.9875 10.4625 7.3875C10.4625 6.7875 10.95 6.2625 11.5875 6.2625ZM5.9625 8.55C5.325 8.55 4.8375 8.025 4.8375 7.425C4.8375 6.825 5.3625 6.3 5.9625 6.3C6.5625 6.3 7.0875 6.825 7.0875 7.425C7.0875 8.025 6.6 8.55 5.9625 8.55Z" fill="#15171A"/>
</svg>
