<svg width="24" height="24" viewBox="0 0 24 24" fill="none" xmlns="http://www.w3.org/2000/svg">
<path d="M19.875 3.375C17.7 1.2 14.7375 0 11.7 0C5.325 0 0.1125 5.175 0.1125 11.55C0.1125 13.6125 0.6375 15.5625 1.65 17.3625L0 23.325L6.1875 21.75C7.875 22.65 9.7875 23.175 11.7375 23.175C18.075 23.1375 23.25 17.9625 23.25 11.55C23.25 8.475 22.05 5.5875 19.875 3.375ZM11.6625 21.1875C9.975 21.1875 8.2125 20.7 6.75 19.8L6.375 19.575L2.7375 20.5125L3.75 16.9875L3.525 16.6125C2.5875 15.075 2.0625 13.275 2.0625 11.475C2.0625 6.1875 6.3375 1.9125 11.6625 1.9125C14.2125 1.9125 16.6125 2.925 18.4125 4.725C20.2125 6.525 21.225 8.9625 21.225 11.55C21.3 16.9125 16.95 21.1875 11.6625 21.1875ZM16.95 13.9875C16.65 13.8375 15.2625 13.125 14.925 13.0875C14.6625 12.975 14.4375 12.9375 14.2875 13.2375C14.1375 13.5375 13.5375 14.1375 13.3875 14.3625C13.2375 14.5125 13.0875 14.5875 12.75 14.4C12.45 14.25 11.55 13.9875 10.425 12.9375C9.5625 12.1875 8.9625 11.25 8.85 10.9125C8.7 10.6125 8.8125 10.5 9 10.3125C9.15 10.1625 9.3 10.0125 9.4125 9.7875C9.5625 9.6375 9.5625 9.4875 9.7125 9.3C9.8625 9.15 9.75 8.925 9.675 8.775C9.5625 8.625 9.0375 7.2 8.775 6.6C8.55 6 8.2875 6.1125 8.1375 6.1125C7.9875 6.1125 7.7625 6.1125 7.6125 6.1125C7.4625 6.1125 7.0875 6.15 6.8625 6.4875C6.6 6.7875 5.85 7.5 5.85 8.925C5.85 10.35 6.8625 11.6625 7.05 11.925C7.2 12.075 9.1125 15.0375 11.9625 16.3125C12.6375 16.6125 13.1625 16.8 13.6125 16.95C14.2875 17.175 14.925 17.1 15.4125 17.0625C15.975 17.025 17.1 16.3875 17.3625 15.675C17.5875 15.0375 17.5875 14.4 17.5125 14.2875C17.4375 14.2125 17.2125 14.1 16.95 13.9875Z" fill="#15171A"/>
</svg>
