<svg width="24" height="24" viewBox="0 0 24 24" fill="none" xmlns="http://www.w3.org/2000/svg">
<g clip-path="url(#clip0_501_45492)">
<path d="M21 3.86252H16.725L16.3875 1.38752C16.3125 0.937515 15.9 0.600015 15.45 0.675015C15 0.750015 14.6625 1.16252 14.7375 1.61252L15.0375 3.86252H8.96251L9.26251 1.61252C9.33751 1.16252 9.00001 0.712515 8.55001 0.675015C8.10001 0.600015 7.65001 0.937515 7.61251 1.38752L7.27501 3.86252H3.00001C1.72501 3.86252 0.637512 4.91252 0.637512 6.22502V13.5375C0.637512 14.8125 1.68751 15.9 3.00001 15.9H5.62501L4.72501 22.425C4.65001 22.875 4.98751 23.325 5.43751 23.3625C5.47501 23.3625 5.51251 23.3625 5.55001 23.3625C5.96251 23.3625 6.33751 23.0625 6.37501 22.65L7.27501 15.9H16.575L17.475 22.65C17.55 23.0625 17.8875 23.3625 18.3 23.3625C18.3375 23.3625 18.375 23.3625 18.4125 23.3625C18.8625 23.2875 19.2 22.875 19.125 22.425L18.375 15.8625H21C22.275 15.8625 23.3625 14.8125 23.3625 13.5V6.18752C23.3625 4.91252 22.275 3.86252 21 3.86252ZM21.675 13.5375C21.675 13.9125 21.375 14.2125 21 14.2125H3.00001C2.62501 14.2125 2.32501 13.9125 2.32501 13.5375V6.18752C2.32501 5.81252 2.62501 5.51252 3.00001 5.51252H7.98751H15.975H21C21.375 5.51252 21.675 5.81252 21.675 6.18752V13.5375Z" fill="#161A23"/>
</g>
<defs>
<clipPath id="clip0_501_45492">
<rect width="24" height="24" fill="white"/>
</clipPath>
</defs>
</svg>
