<svg width="24" height="24" viewBox="0 0 24 24" fill="none" xmlns="http://www.w3.org/2000/svg">
<path d="M21 2.43748H12.8625V1.83748C12.8625 1.38748 12.4875 0.974976 12 0.974976C11.55 0.974976 11.1375 1.34998 11.1375 1.83748V2.39998H3.00001C1.72501 2.39998 0.637512 3.44998 0.637512 4.76248V12.075C0.637512 13.35 1.68751 14.4375 3.00001 14.4375H11.325V17.25L5.13751 21.45C4.76251 21.7125 4.65001 22.2375 4.91251 22.6125C5.06251 22.8375 5.32501 22.9875 5.62501 22.9875C5.77501 22.9875 5.96251 22.95 6.11251 22.8375L11.4 19.3125V21.45C11.4 21.9 11.775 22.3125 12.2625 22.3125C12.7125 22.3125 13.125 21.9375 13.125 21.45V19.35L18.0375 22.8375C18.1875 22.95 18.375 22.9875 18.525 22.9875C18.7875 22.9875 19.05 22.875 19.2 22.65C19.4625 22.275 19.3875 21.75 19.0125 21.4875L13.0125 17.2875V14.475H21C22.275 14.475 23.3625 13.425 23.3625 12.1125V4.76248C23.3625 3.48748 22.275 2.43748 21 2.43748ZM21.675 12.1125C21.675 12.4875 21.375 12.7875 21 12.7875H3.00001C2.62501 12.7875 2.32501 12.4875 2.32501 12.1125V4.76248C2.36251 4.42498 2.62501 4.12498 3.00001 4.12498H21C21.375 4.12498 21.675 4.42498 21.675 4.79998V12.1125Z" fill="#161A23"/>
</svg>
