<svg width="24" height="24" viewBox="0 0 24 24" fill="none" xmlns="http://www.w3.org/2000/svg">
<g clip-path="url(#clip0_501_45477)">
<path d="M20.7 0.675049H3.3C1.9875 0.675049 0.9375 1.72505 0.9375 3.00005V10.3125C0.9375 11.5876 1.9875 12.675 3.3 12.675H11.3625V15.5251L5.175 21.9001C4.8375 22.2376 4.875 22.7626 5.2125 23.1C5.3625 23.25 5.5875 23.3251 5.8125 23.3251C6.0375 23.3251 6.2625 23.2501 6.4125 23.0626L11.3625 17.9251V21.7501C11.3625 22.2001 11.7375 22.6126 12.225 22.6126C12.675 22.6126 13.0875 22.2376 13.0875 21.7501V18L17.625 23.0626C17.775 23.2501 18.0375 23.3251 18.2625 23.3251C18.45 23.3251 18.675 23.25 18.825 23.1C19.1625 22.8001 19.2 22.2376 18.8625 21.9001L13.0125 15.5251V12.675H20.7C21.975 12.675 23.0625 11.625 23.0625 10.3125V3.00005C23.0625 1.72505 22.0125 0.675049 20.7 0.675049ZM21.375 10.3125C21.375 10.6875 21.075 10.9875 20.7 10.9875H3.3C2.925 10.9875 2.625 10.6875 2.625 10.3125V3.00005C2.625 2.62505 2.925 2.32505 3.3 2.32505H20.7375C21.075 2.36255 21.375 2.62505 21.375 3.00005V10.3125Z" fill="#161A23"/>
</g>
<defs>
<clipPath id="clip0_501_45477">
<rect width="24" height="24" fill="white"/>
</clipPath>
</defs>
</svg>
