<svg width="24" height="24" viewBox="0 0 24 24" fill="none" xmlns="http://www.w3.org/2000/svg">
<g clip-path="url(#clip0_501_45474)">
<path d="M21 8.32505H18.825L14.0625 3.11255C14.1 3.00005 14.1 2.88755 14.1 2.77505C14.1 1.61255 13.1625 0.675049 12 0.675049C10.8375 0.675049 9.90001 1.61255 9.90001 2.77505C9.90001 2.88755 9.90001 3.00005 9.93751 3.11255L5.21251 8.32505H3.00001C1.72501 8.32505 0.637512 9.37505 0.637512 10.6875V21C0.637512 22.275 1.68751 23.3625 3.00001 23.3625H21C22.275 23.3625 23.3625 22.3125 23.3625 21V10.65C23.325 9.37505 22.275 8.32505 21 8.32505ZM12 2.36255C12.225 2.36255 12.4125 2.55005 12.4125 2.77505C12.4125 3.00005 12.225 3.15005 12 3.15005C11.775 3.15005 11.5875 2.96255 11.5875 2.73755C11.5875 2.51255 11.775 2.36255 12 2.36255ZM10.9125 4.53755C11.2125 4.72505 11.5875 4.83755 12 4.83755C12.4125 4.83755 12.75 4.72505 13.0875 4.53755L16.5 8.32505H7.46251L10.9125 4.53755ZM21.6375 21C21.6375 21.375 21.3375 21.675 20.9625 21.675H3.00001C2.62501 21.675 2.32501 21.375 2.32501 21V10.65C2.32501 10.275 2.62501 9.97505 3.00001 9.97505H21C21.375 9.97505 21.675 10.275 21.675 10.65V21H21.6375Z" fill="#161A23"/>
</g>
<defs>
<clipPath id="clip0_501_45474">
<rect width="24" height="24" fill="white"/>
</clipPath>
</defs>
</svg>
