<svg width="24" height="24" viewBox="0 0 24 24" fill="none" xmlns="http://www.w3.org/2000/svg">
<path d="M22.05 1.87495C22.05 1.42495 21.675 1.01245 21.1875 1.01245C10.125 1.04995 1.08752 10.05 1.08752 21.15C1.08752 21.6 1.46252 22.0125 1.95002 22.0125C2.43752 22.0125 2.81252 21.6375 2.81252 21.15C2.81252 10.9875 11.0625 2.73745 21.225 2.73745C21.675 2.73745 22.05 2.32495 22.05 1.87495Z" fill="#161A23"/>
<path d="M22.05 9.97493C22.05 9.52493 21.675 9.11243 21.1875 9.11243C14.5875 9.11243 9.1875 14.5124 9.1875 21.1124C9.1875 21.5624 9.5625 21.9749 10.05 21.9749C10.5375 21.9749 10.9125 21.5999 10.9125 21.1124C10.9125 15.4124 15.525 10.7999 21.225 10.7999C21.675 10.8374 22.05 10.4624 22.05 9.97493Z" fill="#161A23"/>
<path d="M19.8 16.7999C18.1125 16.7999 16.725 18.1874 16.725 19.8749C16.725 21.5624 18.1125 22.9499 19.8 22.9499C21.4875 22.9499 22.875 21.5624 22.875 19.8749C22.875 18.1874 21.525 16.7999 19.8 16.7999ZM19.8 21.2999C19.0125 21.2999 18.4125 20.6624 18.4125 19.9124C18.4125 19.1624 19.05 18.5249 19.8 18.5249C20.55 18.5249 21.1875 19.1624 21.1875 19.9124C21.1875 20.6624 20.5875 21.2999 19.8 21.2999Z" fill="#161A23"/>
</svg>
