<svg width="24" height="24" viewBox="0 0 24 24" fill="none" xmlns="http://www.w3.org/2000/svg">
<path d="M7.50001 22.35C7.05001 22.35 6.63751 21.975 6.63751 21.4875C6.63751 13.4625 13.1625 6.97498 21.15 6.97498C21.6 6.97498 22.0125 7.34998 22.0125 7.83748C22.0125 8.32498 21.6375 8.69998 21.15 8.69998C14.0625 8.69998 8.32501 14.475 8.32501 21.525C8.32501 21.9375 7.95001 22.35 7.50001 22.35Z" fill="#161A23"/>
<path d="M13.275 22.35C12.825 22.35 12.4125 21.975 12.4125 21.4875C12.4125 16.65 16.35 12.7125 21.1875 12.7125C21.6375 12.7125 22.05 13.0875 22.05 13.575C22.05 14.0625 21.675 14.4375 21.1875 14.4375C17.2875 14.4375 14.1 17.625 14.1 21.525C14.1 21.9375 13.725 22.35 13.275 22.35Z" fill="#161A23"/>
<path d="M1.68751 22.35C1.23751 22.35 0.825012 21.975 0.825012 21.4875C0.825012 10.275 9.93751 1.16248 21.15 1.16248C21.6 1.16248 22.0125 1.53748 22.0125 2.02498C22.0125 2.51248 21.6375 2.88748 21.15 2.88748C10.9125 2.84998 2.55001 11.2125 2.55001 21.4875C2.55001 21.9375 2.13751 22.35 1.68751 22.35Z" fill="#161A23"/>
<path d="M20.175 22.8375C18.525 22.8375 17.2125 21.4875 17.2125 19.875C17.2125 18.2625 18.5625 16.9125 20.175 16.9125C21.7875 16.9125 23.1375 18.2625 23.1375 19.875C23.1375 21.4875 21.825 22.8375 20.175 22.8375ZM20.175 18.6C19.4625 18.6 18.9 19.1625 18.9 19.875C18.9 20.5875 19.4625 21.15 20.175 21.15C20.8875 21.15 21.45 20.5875 21.45 19.875C21.4875 19.1625 20.8875 18.6 20.175 18.6Z" fill="#161A23"/>
</svg>
