<svg width="24" height="24" viewBox="0 0 24 24" fill="none" xmlns="http://www.w3.org/2000/svg">
<path d="M13.725 16.9125C12.75 15.9375 11.2125 15.9375 10.2375 16.9125C9.78752 17.3625 9.52502 18 9.52502 18.6375C9.52502 19.3125 9.78752 19.9125 10.2375 20.3625C10.6875 20.8125 11.325 21.075 11.9625 21.075C12.6 21.075 13.2375 20.8125 13.6875 20.3625C14.1375 19.9125 14.4 19.275 14.4 18.6375C14.475 18 14.2125 17.4 13.725 16.9125ZM12.5625 19.2C12.2625 19.5 11.775 19.5 11.475 19.2C11.325 19.05 11.25 18.8625 11.25 18.6375C11.25 18.4125 11.325 18.225 11.475 18.075C11.625 17.925 11.8125 17.85 12.0375 17.85C12.225 17.85 12.45 17.925 12.6 18.075C12.75 18.225 12.825 18.4125 12.825 18.6375C12.825 18.8625 12.7125 19.05 12.5625 19.2Z" fill="#161A23"/>
<path d="M12 12.4501C10.1625 12.4501 8.43751 13.1626 7.12501 14.4751C6.78751 14.8126 6.78751 15.3376 7.12501 15.6751C7.46251 16.0126 7.98751 16.0126 8.32501 15.6751C9.30001 14.7001 10.6125 14.1376 12 14.1376C13.3875 14.1376 14.7 14.6626 15.675 15.6751C15.825 15.8251 16.05 15.9376 16.275 15.9376C16.5 15.9376 16.725 15.8626 16.875 15.6751C17.2125 15.3376 17.2125 14.8126 16.875 14.4751C15.5625 13.1626 13.8375 12.4501 12 12.4501Z" fill="#161A23"/>
<path d="M19.95 11.3625C15.5625 6.97502 8.40002 6.97502 4.01252 11.3625C3.67502 11.7 3.67502 12.225 4.01252 12.5625C4.35002 12.9 4.87502 12.9 5.21252 12.5625C8.96252 8.81252 15.0375 8.81252 18.75 12.5625C18.9 12.7125 19.125 12.825 19.35 12.825C19.575 12.825 19.8 12.75 19.95 12.5625C20.2875 12.225 20.2875 11.6625 19.95 11.3625Z" fill="#161A23"/>
</svg>
