<svg width="24" height="24" viewBox="0 0 24 24" fill="none" xmlns="http://www.w3.org/2000/svg">
<path d="M15.0375 8.96251C14.5875 8.85001 14.1375 9.11251 13.9875 9.56251C13.875 10.0125 14.1375 10.4625 14.5875 10.6125C16.1625 11.0625 17.5875 11.8875 18.7875 13.05C18.9375 13.2 19.1625 13.3125 19.3875 13.3125C19.6125 13.3125 19.8375 13.2375 19.9875 13.05C20.325 12.7125 20.325 12.1875 19.9875 11.85C18.6 10.4625 16.875 9.45001 15.0375 8.96251Z" fill="#161A23"/>
<path d="M10.0125 9.56251C9.9 9.11251 9.4125 8.85001 8.9625 8.96251C7.125 9.48751 5.4 10.4625 4.05 11.85C3.7125 12.1875 3.7125 12.7125 4.05 13.05C4.2 13.2 4.425 13.3125 4.65 13.3125C4.875 13.3125 5.0625 13.2375 5.25 13.05C6.4125 11.8875 7.875 11.025 9.45 10.6125C9.8625 10.4625 10.125 9.97501 10.0125 9.56251Z" fill="#161A23"/>
<path d="M9.93749 14.0625C9.71249 13.65 9.22499 13.5 8.81249 13.725C8.21249 14.0625 7.64999 14.475 7.16249 14.9625C6.82499 15.3 6.82499 15.825 7.16249 16.1625C7.31249 16.3125 7.53749 16.425 7.76249 16.425C7.98749 16.425 8.21249 16.35 8.36249 16.1625C8.73749 15.7875 9.14999 15.4875 9.59999 15.225C9.97499 15 10.1625 14.475 9.93749 14.0625Z" fill="#161A23"/>
<path d="M15.1875 13.725C14.775 13.5 14.25 13.65 14.0625 14.0625C13.8375 14.475 13.9875 15 14.4 15.1875C14.85 15.4125 15.2625 15.75 15.6375 16.125C15.7875 16.275 16.0125 16.3875 16.2375 16.3875C16.4625 16.3875 16.6875 16.3125 16.8375 16.125C17.175 15.7875 17.175 15.2625 16.8375 14.925C16.3875 14.4375 15.825 14.025 15.1875 13.725Z" fill="#161A23"/>
<path d="M10.0125 5.06258C9.93748 4.61258 9.48748 4.31258 9.03748 4.38758C5.96248 4.98758 3.14998 6.48759 0.899976 8.70009C0.562476 9.03759 0.562476 9.56258 0.899976 9.90008C1.04998 10.0501 1.27498 10.1251 1.49998 10.1251C1.72498 10.1251 1.94998 10.0501 2.09998 9.86258C4.08748 7.87508 6.59998 6.52508 9.33747 6.00008C9.78748 5.96258 10.0875 5.51258 10.0125 5.06258Z" fill="#161A23"/>
<path d="M23.1 8.70008C20.85 6.48758 18.075 4.98758 14.9625 4.38758C14.5125 4.31258 14.0625 4.61258 13.9875 5.06258C13.9125 5.51258 14.2125 5.96258 14.6625 6.03758C17.4 6.56258 19.9125 7.91258 21.9 9.90008C22.05 10.0501 22.275 10.1626 22.5 10.1626C22.725 10.1626 22.95 10.0876 23.1 9.90008C23.4375 9.56258 23.4375 9.03758 23.1 8.70008Z" fill="#161A23"/>
<path d="M12.8625 16.8375V3.22505C12.8625 2.77505 12.4875 2.36255 12 2.36255C11.55 2.36255 11.1375 2.73755 11.1375 3.22505V16.8375C10.8 16.95 10.5 17.1375 10.2375 17.4C9.44998 18.1875 9.29998 19.425 9.86248 20.3625C9.97498 20.55 10.0875 20.7 10.2375 20.85C10.6875 21.3 11.325 21.5625 11.9625 21.5625C12.6 21.5625 13.2375 21.3 13.6875 20.85C13.8375 20.7 13.9875 20.5125 14.0625 20.3625C14.625 19.3875 14.475 18.1875 13.6875 17.3625C13.5 17.1375 13.1625 16.95 12.8625 16.8375ZM12.675 19.5375C12.6375 19.6125 12.6 19.65 12.5625 19.6875C12.2625 19.9875 11.775 19.9875 11.475 19.6875C11.4375 19.65 11.4 19.575 11.3625 19.5375C11.175 19.2375 11.25 18.8625 11.475 18.6C11.625 18.45 11.8125 18.375 12.0375 18.375C12.2625 18.375 12.45 18.45 12.6 18.6C12.7875 18.8625 12.8625 19.2375 12.675 19.5375Z" fill="#161A23"/>
</svg>
