<svg width="24" height="24" viewBox="0 0 24 24" fill="none" xmlns="http://www.w3.org/2000/svg">
<path d="M12.15 20.7374C11.475 20.7374 10.875 20.475 10.425 20.025C9.97501 19.5749 9.71251 18.9374 9.71251 18.2999C9.71251 17.6249 9.97501 17.025 10.425 16.575C11.4 15.5999 12.9375 15.5999 13.9125 16.575C14.8875 17.5499 14.8875 19.0875 13.9125 20.0625C13.4625 20.5124 12.825 20.7374 12.15 20.7374ZM12.15 17.5125C11.9625 17.5125 11.7375 17.5874 11.5875 17.7374C11.4375 17.8874 11.3625 18.0749 11.3625 18.2999C11.3625 18.5249 11.4375 18.7124 11.5875 18.8624C11.8875 19.1624 12.375 19.1624 12.675 18.8624C12.975 18.5624 12.975 18.075 12.675 17.775C12.5625 17.5875 12.375 17.5125 12.15 17.5125ZM7.72501 15.525C7.50001 15.525 7.27501 15.45 7.12501 15.2625C6.78751 14.925 6.78751 14.4 7.12501 14.0625C8.43751 12.75 10.1625 12.0374 12 12.0374C13.8375 12.0374 15.5625 12.75 16.875 14.0625C17.2125 14.4 17.2125 14.925 16.875 15.2625C16.5375 15.5999 16.0125 15.5999 15.675 15.2625C14.7 14.2875 13.3875 13.7249 12 13.7249C10.6125 13.7249 9.30001 14.25 8.32501 15.2625C8.17501 15.45 7.95001 15.525 7.72501 15.525ZM19.3875 12.4124C19.1625 12.4124 18.9375 12.3375 18.7875 12.15C15.0375 8.39995 8.96251 8.39995 5.25001 12.15C4.91251 12.4875 4.38751 12.4875 4.05001 12.15C3.71251 11.8125 3.71251 11.2875 4.05001 10.95C8.43751 6.56245 15.6 6.56245 19.9875 10.95C20.325 11.2875 20.325 11.8125 19.9875 12.15C19.8 12.3375 19.575 12.4124 19.3875 12.4124ZM1.50001 9.29995C1.27501 9.29995 1.05001 9.22495 0.900006 9.03745C0.562506 8.69995 0.562506 8.17495 0.900006 7.83745C3.86251 4.87495 7.80001 3.26245 12 3.26245C16.2 3.26245 20.1375 4.87495 23.1 7.83745C23.4375 8.17495 23.4375 8.69995 23.1 9.03745C22.7625 9.37495 22.2375 9.37495 21.9 9.03745C19.275 6.37495 15.75 4.94995 12 4.94995C8.25001 4.94995 4.72501 6.41245 2.10001 9.03745C1.95001 9.18745 1.72501 9.29995 1.50001 9.29995Z" fill="#161A23"/>
</svg>
