<svg width="24" height="24" viewBox="0 0 24 24" fill="none" xmlns="http://www.w3.org/2000/svg">
<path d="M8.2875 10.6125C8.1 10.2 7.575 10.0125 7.1625 10.2C6 10.7625 4.95 11.475 4.05 12.4125C3.7125 12.75 3.7125 13.275 4.05 13.6125C4.2 13.7625 4.425 13.875 4.65 13.875C4.875 13.875 5.1 13.8 5.25 13.6125C6.0375 12.825 6.9375 12.1875 7.9125 11.7375C8.325 11.55 8.475 11.0625 8.2875 10.6125Z" fill="#161A23"/>
<path d="M18.7875 13.6126C18.9375 13.7626 19.1625 13.8751 19.3875 13.8751C19.6125 13.8751 19.8375 13.8001 19.9875 13.6126C20.325 13.2751 20.325 12.7501 19.9875 12.4126C18.1125 10.5376 15.6 9.37506 12.9375 9.15006C12.4875 9.11256 12.075 9.45006 12.0375 9.93756C12 10.3876 12.3375 10.8001 12.825 10.8376C15.0375 11.0251 17.175 12.0376 18.7875 13.6126Z" fill="#161A23"/>
<path d="M11.7374 14.3249C11.6624 13.8749 11.2124 13.5749 10.7624 13.6499C9.41243 13.9124 8.13743 14.5499 7.16243 15.5624C6.82493 15.8999 6.82493 16.4249 7.16243 16.7624C7.31243 16.9124 7.53743 17.0249 7.76243 17.0249C7.98743 17.0249 8.21243 16.9499 8.36243 16.7624C9.11243 16.0124 10.0499 15.5249 11.0624 15.3374C11.5124 15.2249 11.8124 14.7749 11.7374 14.3249Z" fill="#161A23"/>
<path d="M5.06248 7.23742C4.83748 6.82492 4.31248 6.71242 3.89998 6.93742C2.81248 7.57492 1.79998 8.36242 0.899976 9.26242C0.562476 9.59992 0.562476 10.1249 0.899976 10.4624C1.04998 10.6124 1.27498 10.7249 1.49998 10.7249C1.72498 10.7249 1.94998 10.6499 2.09998 10.4624C2.88748 9.67492 3.78748 8.96241 4.76248 8.36242C5.17498 8.17492 5.28748 7.64992 5.06248 7.23742Z" fill="#161A23"/>
<path d="M23.0999 9.2999C19.3124 5.5124 13.9499 3.9374 8.69993 5.0624C8.28743 5.1374 7.98743 5.4749 7.98743 5.8874C7.98743 6.3374 8.36243 6.7499 8.84993 6.7499H8.92493L8.99993 6.7124C13.7249 5.6999 18.5249 7.1249 21.8999 10.4999C22.0499 10.6499 22.2749 10.7624 22.4999 10.7624C22.7249 10.7624 22.9499 10.6874 23.0999 10.4999C23.4374 10.1624 23.4374 9.6374 23.0999 9.2999Z" fill="#161A23"/>
<path d="M13.725 17.9999C13.275 17.5499 12.6375 17.2874 12 17.2874C11.3625 17.2874 10.725 17.5499 10.275 17.9999C9.825 18.4499 9.5625 19.0874 9.5625 19.7249C9.5625 20.3999 9.825 20.9999 10.275 21.4499C10.7625 21.9374 11.4 22.1624 12 22.1624C12.6 22.1624 13.275 21.9374 13.725 21.4499C14.175 20.9999 14.4375 20.3624 14.4375 19.7249C14.4375 19.0874 14.2125 18.4874 13.725 17.9999ZM12.5625 20.2874C12.2625 20.5874 11.775 20.5874 11.475 20.2874C11.325 20.1374 11.25 19.9499 11.25 19.7249C11.25 19.4999 11.325 19.3124 11.475 19.1624C11.625 19.0124 11.8125 18.9374 12.0375 18.9374C12.2625 18.9374 12.45 19.0124 12.6 19.1624C12.75 19.3124 12.825 19.4999 12.825 19.7249C12.825 19.9499 12.7125 20.1374 12.5625 20.2874Z" fill="#161A23"/>
<path d="M17.0625 16.4249C17.175 16.1249 17.1 15.7874 16.875 15.5625C16.3125 15 15.6375 14.55 14.925 14.2125L3.1875 2.06245C2.85 1.72495 2.325 1.68745 1.9875 2.02495C1.65 2.36245 1.65 2.88745 1.9875 3.22495L19.0125 20.85C19.1625 21.0375 19.3875 21.1124 19.6125 21.1124C19.8375 21.1124 20.025 21.0375 20.2125 20.8875C20.55 20.55 20.55 20.025 20.25 19.6875L17.0625 16.4249Z" fill="#161A23"/>
</svg>
