<svg width="24" height="24" viewBox="0 0 24 24" fill="none" xmlns="http://www.w3.org/2000/svg">
<g clip-path="url(#clip0_501_47553)">
<path d="M21 23.3624H3.00001C1.72501 23.3624 0.637512 22.3124 0.637512 20.9999V2.99995C0.637512 1.72495 1.68751 0.637451 3.00001 0.637451H12.9375C13.3875 0.637451 13.8 1.01245 13.8 1.49995C13.8 1.98745 13.425 2.36245 12.9375 2.36245H3.00001C2.62501 2.36245 2.36251 2.62495 2.36251 2.99995V20.9999C2.36251 21.3749 2.66251 21.6749 3.03751 21.6749H21.0375C21.4125 21.6749 21.7125 21.3749 21.7125 20.9999V11.0999C21.7125 10.65 22.0875 10.2374 22.575 10.2374C23.0625 10.2374 23.4375 10.6125 23.4375 11.0999V20.9999C23.3625 22.275 22.275 23.3624 21 23.3624Z" fill="#161A23"/>
<path d="M12 12.8625C11.775 12.8625 11.55 12.7875 11.4 12.6C11.0625 12.2625 11.0625 11.7375 11.4 11.4L20.4 2.40005H17.25C16.8 2.40005 16.3875 2.02505 16.3875 1.53755C16.3875 1.05005 16.7625 0.675049 17.25 0.675049H22.5C22.95 0.675049 23.3625 1.05005 23.3625 1.53755V6.75005C23.3625 7.20005 22.9875 7.61255 22.5 7.61255C22.0125 7.61255 21.6375 7.23755 21.6375 6.75005V3.52505L12.6 12.6C12.45 12.75 12.225 12.8625 12 12.8625Z" fill="#161A23"/>
</g>
<defs>
<clipPath id="clip0_501_47553">
<rect width="24" height="24" fill="white"/>
</clipPath>
</defs>
</svg>
