<svg width="24" height="24" viewBox="0 0 24 24" fill="none" xmlns="http://www.w3.org/2000/svg">
<g clip-path="url(#clip0_501_47731)">
<path d="M16.0875 5.58765H3.00001C1.72501 5.58765 0.637512 6.63765 0.637512 7.95015V21.0001C0.637512 22.2751 1.68751 23.3626 3.00001 23.3626H16.0875C17.3625 23.3626 18.45 22.3126 18.45 21.0001V7.91265C18.4125 6.63765 17.3625 5.58765 16.0875 5.58765ZM3.00001 7.27515H16.0875C16.4625 7.27515 16.7625 7.57515 16.7625 7.95015V10.5001H2.36251V7.91265C2.36251 7.53765 2.62501 7.27515 3.00001 7.27515ZM16.0875 21.6751H3.00001C2.62501 21.6751 2.32501 21.3751 2.32501 21.0001V12.1876H16.725V21.0001C16.725 21.3751 16.4625 21.6751 16.0875 21.6751Z" fill="#161A23"/>
<path d="M21 0.675049H7.91249C6.63749 0.675049 5.54999 1.72505 5.54999 3.03755V3.45005C5.54999 3.90005 5.92499 4.31255 6.41249 4.31255C6.89999 4.31255 7.27499 3.93755 7.27499 3.45005V3.00005C7.27499 2.62505 7.57499 2.32505 7.94999 2.32505H21C21.375 2.32505 21.675 2.62505 21.675 3.00005V16.0875C21.675 16.4625 21.375 16.7626 21 16.7626H20.5875C20.1375 16.7626 19.725 17.1375 19.725 17.625C19.725 18.1125 20.1 18.4875 20.5875 18.4875H21C22.275 18.4875 23.3625 17.4375 23.3625 16.125V3.00005C23.3625 1.72505 22.275 0.675049 21 0.675049Z" fill="#161A23"/>
</g>
<defs>
<clipPath id="clip0_501_47731">
<rect width="24" height="24" fill="white"/>
</clipPath>
</defs>
</svg>
