<svg width="24" height="24" viewBox="0 0 24 24" fill="none" xmlns="http://www.w3.org/2000/svg">
<path d="M18.675 15.5625C19.425 14.8125 19.425 13.5375 18.675 12.7875L17.9625 12.075L18.7125 11.325C19.4625 10.575 19.4625 9.30005 18.7125 8.55005L12.975 2.77505C12.225 2.02505 10.95 2.02505 10.2 2.77505L10.125 2.85005L8.5125 1.23755C7.7625 0.487549 6.4875 0.487549 5.7375 1.23755L3.1875 3.75005C2.4375 4.50005 2.4375 5.77505 3.1875 6.52505L4.8 8.13755L4.725 8.25005C3.975 9.00005 3.975 10.275 4.725 11.025L10.4625 16.7626C11.2125 17.5126 12.4875 17.5126 13.2375 16.7626L13.9875 16.0125L14.7 16.725C15.45 17.475 16.6875 17.475 17.4375 16.7626C19.5 19.125 20.0625 21.3375 19.4625 21.9375C19.125 22.275 19.125 22.8 19.4625 23.1376C19.6125 23.2875 19.8375 23.4 20.0625 23.4C20.2875 23.4 20.5125 23.3251 20.6625 23.1376C22.1625 21.6 21.2625 18.45 18.675 15.5625ZM4.3875 5.32505C4.275 5.21255 4.275 5.02505 4.3875 4.91255L6.8625 2.43755C6.9 2.40005 6.975 2.36255 7.05 2.36255C7.125 2.36255 7.2 2.40005 7.2375 2.43755L8.85 4.05005L6 6.93755L4.3875 5.32505ZM17.475 14.3625L16.3125 15.525C16.2 15.6375 16.0125 15.6375 15.9 15.525L15.1875 14.8125L16.725 13.275L17.4375 13.9875C17.5875 14.0625 17.5875 14.25 17.475 14.3625ZM17.5125 10.125L12.075 15.5625C12 15.6375 11.925 15.6375 11.8875 15.6375C11.85 15.6375 11.775 15.6375 11.7 15.5625L5.925 9.82505C5.8125 9.71255 5.8125 9.52505 5.925 9.41255L11.3625 3.97505C11.475 3.86255 11.6625 3.86255 11.775 3.97505L17.5125 9.71255C17.625 9.82505 17.625 10.0125 17.5125 10.125Z" fill="#161A23"/>
<path d="M12.7875 8.81245H11.475V7.31245C11.475 6.86245 11.1 6.44995 10.6125 6.44995C10.125 6.44995 9.75 6.82495 9.75 7.31245V9.63745C9.75 10.0875 10.125 10.5 10.6125 10.5H11.925V12.1875C11.925 12.6375 12.3 13.05 12.7875 13.05C13.2375 13.05 13.65 12.675 13.65 12.1875V9.63745C13.6125 9.18745 13.2375 8.81245 12.7875 8.81245Z" fill="#161A23"/>
</svg>
