<svg width="24" height="24" viewBox="0 0 24 24" fill="none" xmlns="http://www.w3.org/2000/svg">
<path d="M20.6624 0.675049H3.3374C2.0999 0.675049 1.0874 1.68755 1.0874 2.92505V10.4625C1.0874 11.7 2.0999 12.7125 3.3374 12.7125H5.4749C5.4374 12.75 5.3999 12.825 5.3624 12.8625C4.1249 14.5875 3.4874 16.6125 3.4874 18.75V21.15C3.4874 22.3876 4.4999 23.4 5.7374 23.4H11.8124C13.0499 23.4 14.0624 22.3876 14.0624 21.15V18.75C14.0624 16.9875 14.5874 15.3 15.6374 13.8375C15.8999 13.4625 16.1249 13.0875 16.3499 12.7125H20.6999C21.9374 12.7125 22.9499 11.7 22.9499 10.4625V2.88755C22.8749 1.65005 21.8999 0.675049 20.6624 0.675049ZM6.9374 8.02505H6.6374C6.3374 8.02505 6.0749 7.76255 6.0749 7.46255V5.88755C6.0749 5.58755 6.3374 5.32505 6.6374 5.32505H6.9749V7.95005C6.9374 7.95005 6.9374 7.98755 6.9374 8.02505ZM12.3749 18.7125V21.1125C12.3749 21.4125 12.1124 21.675 11.8124 21.675H5.7374C5.4374 21.675 5.1749 21.4125 5.1749 21.1125V18.7125C5.1749 16.9501 5.6999 15.2625 6.7499 13.8C7.1249 13.275 7.4249 12.75 7.6874 12.1875C7.6874 12.15 7.7249 12.15 7.7249 12.1125C8.1749 11.1375 8.4374 10.0875 8.5874 9.03755C8.5874 8.96255 8.6249 8.92505 8.6249 8.85005C8.6249 8.55005 8.6249 8.25005 8.6249 7.91255V5.28755H15.7874V7.91255C15.7874 9.67505 15.2624 11.3625 14.2124 12.825C13.0124 14.55 12.3749 16.575 12.3749 18.7125ZM17.4749 7.91255V5.28755H17.8124C18.1124 5.28755 18.3749 5.55005 18.3749 5.85005V7.42505C18.3749 7.72505 18.1124 7.98755 17.8124 7.98755H17.4749C17.4749 7.98755 17.4749 7.95005 17.4749 7.91255ZM21.1874 10.425C21.1874 10.725 20.9249 10.9875 20.6249 10.9875H16.9874C17.1374 10.575 17.2124 10.1625 17.2874 9.71255H17.8124C19.0499 9.71255 20.0624 8.70005 20.0624 7.46255V5.88755C20.0624 4.65005 19.0499 3.63755 17.8124 3.63755H6.6374C5.3999 3.63755 4.3874 4.65005 4.3874 5.88755V7.46255C4.3874 8.70005 5.3999 9.71255 6.6374 9.71255H6.7499C6.6749 10.1625 6.5249 10.575 6.3749 10.9875H3.3374C3.0374 10.9875 2.7749 10.725 2.7749 10.425V2.88755C2.7749 2.58755 3.0374 2.32505 3.3374 2.32505H20.6249C20.9249 2.32505 21.1874 2.58755 21.1874 2.88755V10.425Z" fill="#161A23"/>
<path d="M10.4998 11.1001C9.2998 11.1001 8.3623 12.2251 8.3623 13.6876C8.3623 15.1501 9.2998 16.2751 10.4998 16.2751C11.6998 16.2751 12.6373 15.1501 12.6373 13.6876C12.6373 12.2251 11.6998 11.1001 10.4998 11.1001ZM10.4998 14.5876C10.3498 14.5876 10.0498 14.2501 10.0498 13.6876C10.0498 13.1251 10.3498 12.7876 10.4998 12.7876C10.6498 12.7876 10.9498 13.1251 10.9498 13.6876C10.9498 14.2501 10.6498 14.5876 10.4998 14.5876Z" fill="#161A23"/>
<path d="M10.1249 8.8126C10.5749 8.8126 10.9499 8.4376 10.9499 7.9876V6.6751C10.9499 6.2251 10.5749 5.8501 10.1249 5.8501C9.67495 5.8501 9.29995 6.2251 9.29995 6.6751V7.9876C9.26245 8.4001 9.63745 8.8126 10.1249 8.8126Z" fill="#161A23"/>
<path d="M10.575 17.925C10.125 17.925 9.75 18.3 9.75 18.75V20.0625C9.75 20.5125 10.125 20.8875 10.575 20.8875C11.025 20.8875 11.4 20.5125 11.4 20.0625V18.75C11.4375 18.3 11.0625 17.925 10.575 17.925Z" fill="#161A23"/>
</svg>
