<svg width="25" height="24" viewBox="0 0 25 24" fill="none" xmlns="http://www.w3.org/2000/svg">
<path d="M3.97502 11.175C4.42502 11.175 4.83752 10.8 4.83752 10.3125V3.00005C4.83752 2.62505 5.13752 2.32505 5.51252 2.32505H13.9875V7.12505C13.9875 7.57505 14.3625 7.98755 14.85 7.98755H19.6125V10.125C19.6125 10.575 19.9875 10.9875 20.475 10.9875C20.9625 10.9875 21.3375 10.6125 21.3375 10.125V7.35005C21.3375 6.93755 21.15 6.52505 20.85 6.22505L15.6 1.12505C15.3 0.825049 14.8875 0.675049 14.475 0.675049H5.47502C4.20002 0.675049 3.11252 1.72505 3.11252 3.03755V10.35C3.15002 10.7625 3.52502 11.175 3.97502 11.175ZM15.6375 3.52505L18.45 6.30005H15.6375V3.52505Z" fill="#161A23"/>
<path d="M20.4 19.425C19.95 19.425 19.5375 19.8 19.5375 20.2875V21.0375C19.5375 21.4125 19.2375 21.7125 18.8625 21.7125H5.47501C5.10001 21.7125 4.80001 21.4125 4.80001 21.0375V20.5125C4.80001 20.0625 4.42501 19.65 3.93751 19.65C3.45001 19.65 3.07501 20.025 3.07501 20.5125V21C3.07501 22.275 4.12501 23.3625 5.43751 23.3625H18.825C20.1 23.3625 21.1875 22.3125 21.1875 21V20.25C21.225 19.8 20.85 19.425 20.4 19.425Z" fill="#161A23"/>
<path d="M21.2625 11.3625H19.5375C19.0875 11.3625 18.675 11.7375 18.675 12.225V17.8875C18.675 18.3375 19.05 18.75 19.5375 18.75H21.2625C22.575 18.75 23.6625 17.6625 23.6625 16.3125V13.8375C23.6625 12.45 22.575 11.3625 21.2625 11.3625ZM21.975 16.275C21.975 16.6875 21.6375 17.025 21.2625 17.025H20.4V13.05H21.2625C21.6375 13.05 21.975 13.3875 21.975 13.8V16.275Z" fill="#161A23"/>
<path d="M17.6625 14.775V12.3C17.6625 11.85 17.2875 11.4375 16.8 11.4375H14.1375C13.6875 11.4375 13.275 11.8125 13.275 12.3V17.8875C13.275 18.3375 13.65 18.75 14.1375 18.75C14.625 18.75 15 18.375 15 17.8875V15.9L16.5 18.3375C16.65 18.6 16.95 18.75 17.2125 18.75C17.3625 18.75 17.5125 18.7125 17.6625 18.6375C18.075 18.375 18.1875 17.8875 17.925 17.475L16.8 15.675C17.2875 15.6375 17.6625 15.2625 17.6625 14.775ZM15 13.125H15.975V13.9125H15V13.125Z" fill="#161A23"/>
<path d="M7.6875 13.8V16.3875C7.6875 17.7 8.7375 18.75 10.05 18.75C11.3625 18.75 12.4125 17.7 12.4125 16.3875V13.8C12.4125 12.4875 11.3625 11.4375 10.05 11.4375C8.7375 11.4375 7.6875 12.525 7.6875 13.8ZM10.725 13.8V16.3875C10.725 16.7625 10.425 17.0625 10.05 17.0625C9.675 17.0625 9.375 16.7625 9.375 16.3875V13.8C9.375 13.425 9.675 13.125 10.05 13.125C10.425 13.125 10.725 13.425 10.725 13.8Z" fill="#161A23"/>
<path d="M3.93751 18.075L4.05001 17.55L4.16251 18.075C4.23751 18.45 4.57501 18.7125 4.95001 18.75C5.32501 18.75 5.70001 18.525 5.77501 18.15L7.27501 12.8625C7.38751 12.4125 7.125 11.9625 6.675 11.8125C6.22501 11.7 5.77501 11.9625 5.62501 12.4125L5.06251 14.4375L4.80001 13.275C4.72501 12.9 4.38751 12.6 3.97501 12.6C3.56251 12.6 3.22501 12.9 3.15001 13.275L2.92501 14.4375L2.36251 12.375C2.25001 11.925 1.76251 11.6625 1.31251 11.8125C0.900005 11.925 0.637505 12.375 0.750005 12.825L2.28751 18.1125C2.40001 18.4875 2.73751 18.7125 3.11251 18.7125H3.15001C3.52501 18.7125 3.86251 18.45 3.93751 18.075Z" fill="#161A23"/>
</svg>
