<svg width="24" height="24" viewBox="0 0 24 24" fill="none" xmlns="http://www.w3.org/2000/svg">
<g clip-path="url(#clip0_914_45527)">
<path d="M12 0.375C5.55 0.375 0.375 5.5875 0.375 12C0.375 18.4125 5.55 23.625 12 23.625C18.45 23.625 23.625 18.375 23.625 12C23.625 5.625 18.375 0.375 12 0.375ZM22.3125 12C22.3125 15.9 20.1375 19.275 16.9875 21L19.9875 13.275C20.1375 12.8625 21.1875 10.3125 21.5625 8.1375C22.05 9.375 22.3125 10.6875 22.3125 12ZM14.2125 6.9375H12.9375H8.925C8.7 6.9375 8.55 7.0875 8.55 7.3125C8.55 7.5375 8.7 7.6875 8.925 7.6875H9.675L10.9875 11.0625L9.4125 15.1125L6.5625 7.65H7.4625C7.6875 7.65 7.8375 7.5 7.8375 7.275C7.8375 7.05 7.6875 6.9 7.4625 6.9H5.925L3.45 6.8625C5.1375 3.9 8.4 1.95 12 1.95C14.625 1.95 17.0625 3 18.8625 4.6875C17.925 4.8375 17.175 5.5875 16.95 6.4875C16.725 7.5375 17.1 8.4 17.5125 9.1875C17.925 10.05 18.375 10.8375 18.0375 11.775L16.65 15.375L13.6875 7.65H14.25C14.475 7.65 14.625 7.5 14.625 7.275C14.625 7.0875 14.3625 6.9375 14.2125 6.9375ZM1.6875 12C1.6875 10.6875 1.95 9.4125 2.4375 8.25L7.5 21.2625C4.0125 19.6125 1.6875 16.0875 1.6875 12ZM12.1125 14.2125L15.1125 21.825C14.1 22.125 13.0875 22.3125 12 22.3125C10.9875 22.3125 10.05 22.2 9.15 21.9L12.1125 14.2125Z" fill="#15171A"/>
</g>
<defs>
<clipPath id="clip0_914_45527">
<rect width="24" height="24" fill="white"/>
</clipPath>
</defs>
</svg>
