<svg width="24" height="24" viewBox="0 0 24 24" fill="none" xmlns="http://www.w3.org/2000/svg">
<g clip-path="url(#clip0_914_45529)">
<path d="M21.975 6.075C21.675 5.55 21.225 4.95 20.85 4.5375C18.675 1.9125 15.45 0.375 12 0.375C7.3875 0.375 3.2625 3 1.3875 7.2C1.35 7.3125 1.275 7.425 1.2375 7.5C1.2 7.65 1.0875 7.9125 0.975 8.175C0.975 8.2125 0.9375 8.2875 0.9375 8.325C0.525 9.525 0.375 10.8 0.375 12C0.375 16.125 2.475 19.8375 6.0375 21.9375L6.1875 22.05C6.4125 22.1625 6.6 22.3125 6.825 22.35C6.9375 22.3875 6.975 22.4625 7.0875 22.5H7.125C7.275 22.6125 7.5375 22.65 7.7625 22.7625L7.8 22.8C9.1125 23.325 10.5375 23.5875 12.0375 23.5875C12.825 23.5875 13.6125 23.55 14.4 23.325C14.6625 23.2875 14.8875 23.2125 15.15 23.175C15.45 23.1375 15.7875 23.025 16.0875 22.875C16.6125 22.725 17.1 22.4625 17.55 22.2C21.2625 20.175 23.625 16.275 23.625 12C23.625 9.9 23.1 7.875 21.975 6.075ZM12 1.6875C14.475 1.6875 16.9125 2.625 18.825 4.275C17.1 5.0625 18.3375 7.3875 18.8625 8.8125C19.0125 9.225 19.125 9.6 19.125 9.9375L17.025 16.275L14.5875 9C14.8875 8.9625 15.225 8.7 15.225 8.3625C15.225 7.9875 14.9625 7.6875 14.55 7.6875H14.1375H12.7125H10.875H9.075H9C8.7 7.725 8.4 7.9875 8.4 8.325C8.4 8.7 8.6625 9 9.075 9H9.375L10.8 13.125L9.7875 16.2375L7.3125 9C7.6125 8.9625 7.8375 8.7 7.8375 8.3625C7.8375 7.9875 7.575 7.6875 7.1625 7.6875H6.8625H5.4H2.775C4.35 4.0875 7.9875 1.6875 12 1.6875ZM10.8 9.0375H12.6375H13.05L16.2375 18.375L15.1875 21.825H15.15L13.95 18.1875L10.8 9.0375ZM7.7625 21.3375L3.5625 9.0375H5.3625H5.8875L9.075 18.375L8.0625 21.4875C7.9125 21.45 7.8375 21.4125 7.7625 21.3375ZM1.6875 12C1.6875 10.9875 1.8375 9.975 2.1 9.0375L5.9625 20.2875C3.2625 18.45 1.6875 15.375 1.6875 12ZM9.3 21.9375L11.5125 15.2625L13.8 22.0875C13.1625 22.2 12.6 22.2375 12 22.2375C11.0625 22.3125 10.1625 22.2 9.3 21.9375ZM16.875 21.0375C16.8375 21.0375 16.8375 21.075 16.8375 21.075L20.7375 9.375C20.9625 8.85 21.15 8.25 21.3 7.6875C21.9375 9 22.2375 10.5 22.2375 12.0375C22.3125 15.7875 20.175 19.275 16.875 21.0375Z" fill="#15171A"/>
</g>
<defs>
<clipPath id="clip0_914_45529">
<rect width="24" height="24" fill="white"/>
</clipPath>
</defs>
</svg>
