<svg width="24" height="24" viewBox="0 0 24 24" fill="none" xmlns="http://www.w3.org/2000/svg">
<g clip-path="url(#clip0_501_45450)">
<path d="M21.9 6.41255C20.3625 3.75005 17.775 1.76255 14.775 1.01255C13.8 0.787549 12.9 0.675049 12 0.675049C11.0625 0.675049 10.0875 0.787549 9.14999 1.05005C6.18749 1.80005 3.63749 3.75005 2.13749 6.45005C1.16249 8.17505 0.674988 10.05 0.674988 12V12.2626C0.712488 14.3251 1.34999 16.35 2.43749 18.1126C4.23749 20.9626 7.19999 22.8376 10.5 23.2126C10.95 23.2876 11.4375 23.3251 12 23.3251C12.45 23.3251 12.9375 23.2875 13.3875 23.2501C16.7625 22.8376 19.725 20.9626 21.5625 18.1126C22.6875 16.3876 23.2875 14.3626 23.3625 12.2626V12C23.3625 10.125 22.8375 8.17505 21.9 6.41255ZM19.2375 11.475C19.125 10.2375 18.825 9.03755 18.3375 7.91255H20.7375C21.2625 9.03755 21.5625 10.2751 21.6375 11.475H19.2375ZM2.36249 11.475C2.43749 10.2375 2.73749 9.03755 3.26249 7.91255H5.43749C4.94999 9.03755 4.68749 10.2375 4.57499 11.475H2.36249ZM7.31249 7.91255H11.1375V11.475H6.29999C6.41249 10.2001 6.74999 9.00005 7.31249 7.91255ZM15.45 6.22505H12.825V3.11255C13.6875 3.78755 14.55 4.83755 15.45 6.22505ZM11.175 3.07505V6.22505H8.36249C9.29999 4.80005 10.2375 3.75005 11.175 3.07505ZM11.175 13.1625V16.725H7.42499C6.82499 15.6375 6.44999 14.4 6.33749 13.1625H11.175ZM11.175 18.4125V21.0001C10.2375 20.3626 9.29999 19.4625 8.47499 18.4125H11.175ZM12.8625 21.0001V18.375H15.7125C14.925 19.4626 13.95 20.3626 12.8625 21.0001ZM12.8625 16.725V13.1625H17.5875C17.5125 14.4 17.2125 15.6 16.6875 16.725H12.8625ZM12.8625 11.475V7.91255H16.5C17.0625 9.00005 17.4375 10.2375 17.55 11.475H12.8625ZM19.725 6.22505H17.4375C16.6125 4.83755 15.7875 3.71255 14.9625 2.85005C16.875 3.45005 18.5625 4.65005 19.725 6.22505ZM8.81249 2.88755C7.98749 3.75005 7.16249 4.87505 6.33749 6.18755H4.31249C5.43749 4.68755 7.01249 3.52505 8.81249 2.88755ZM2.39999 13.1625H4.61249C4.72499 14.4 5.02499 15.6 5.51249 16.725H3.56249C2.92499 15.6 2.54999 14.4 2.39999 13.1625ZM4.76249 18.4125H6.44999C7.04999 19.3876 7.79999 20.2875 8.54999 21.0375C7.08749 20.475 5.77499 19.5751 4.76249 18.4125ZM15.7125 20.9251C16.4625 20.2126 17.1375 19.35 17.6625 18.4501C17.6625 18.4501 17.6625 18.4125 17.7 18.4125H19.2375C18.2625 19.5 17.0625 20.3626 15.7125 20.9251ZM20.4375 16.725H18.4875C18.9375 15.6 19.2 14.4 19.2375 13.1625H21.5625C21.45 14.4 21.0375 15.6 20.4375 16.725Z" fill="#161A23"/>
</g>
<defs>
<clipPath id="clip0_501_45450">
<rect width="24" height="24" fill="white"/>
</clipPath>
</defs>
</svg>
