<svg width="23" height="23" viewBox="0 0 23 23" fill="none" xmlns="http://www.w3.org/2000/svg">
<path d="M21.15 5.5875C19.125 2.1375 15.525 0.075 11.55 0C11.4375 0 11.2875 0 11.175 0C7.2 0.075 3.6 2.175 1.575 5.5875C0.5625 7.3125 0 9.3375 0 11.3625C0 13.8 0.75 16.0875 2.175 18.0375C4.3125 20.925 7.575 22.65 11.1375 22.6875C11.2125 22.6875 11.25 22.6875 11.325 22.6875C11.4 22.6875 11.4375 22.6875 11.5125 22.6875C15.1125 22.65 18.375 20.925 20.475 18.0375C21.9 16.0875 22.65 13.7625 22.65 11.3625C22.725 9.3375 22.1625 7.35 21.15 5.5875ZM19.0875 5.5875C17.7 6.0375 16.2375 6.375 14.775 6.5625C14.3625 4.9125 13.725 3.3375 12.9 1.8375C15.4125 2.25 17.5875 3.5625 19.0875 5.5875ZM11.1375 20.6625C10.4625 19.5 9.9 18.3 9.4875 17.1C10.575 17.025 11.7 17.025 12.7875 17.0625C12.375 18.3 11.8125 19.5 11.1375 20.6625ZM13.0875 6.7125C11.775 6.7875 10.425 6.7875 9.15 6.675C9.6 5.0625 10.2375 3.525 11.1 2.0625C12 3.5625 12.675 5.1 13.0875 6.7125ZM8.775 8.3625C9.6 8.4375 10.4625 8.475 11.3625 8.475C12.075 8.475 12.7875 8.4375 13.4625 8.4C13.6125 9.375 13.725 10.3875 13.725 11.3625C13.725 12.7125 13.575 14.0625 13.275 15.375C11.8875 15.2625 10.425 15.3 9.0375 15.4125C8.7375 14.1 8.55 12.75 8.55 11.3625C8.5125 10.35 8.625 9.3375 8.775 8.3625ZM9.2625 1.95C8.475 3.4125 7.875 4.95 7.4625 6.525C6.15 6.3375 4.875 6.0375 3.6375 5.625C5.025 3.7125 7.0125 2.4375 9.2625 1.95ZM1.725 11.3625C1.725 9.8625 2.0625 8.4 2.7375 7.05C4.1625 7.5375 5.625 7.9125 7.125 8.1375C6.9375 9.1875 6.8625 10.275 6.8625 11.3625C6.8625 12.7875 7.0125 14.2125 7.35 15.6C5.9625 15.825 4.6125 16.125 3.2625 16.5375C2.25 15 1.725 13.2375 1.725 11.3625ZM4.35 18C5.475 17.6625 6.6 17.4375 7.7625 17.25C8.1375 18.45 8.6625 19.65 9.2625 20.775C7.3875 20.3625 5.6625 19.425 4.35 18ZM12.9375 20.8875C13.575 19.6875 14.1375 18.45 14.5125 17.2125C15.825 17.3625 17.1375 17.625 18.375 18C16.9125 19.5375 15.0375 20.55 12.9375 20.8875ZM19.5 16.575C18.0375 16.0875 16.5 15.7875 14.9625 15.5625C15.2625 14.2125 15.4125 12.7875 15.4125 11.3625C15.4125 10.3125 15.3375 9.2625 15.15 8.2125C16.8 7.9875 18.45 7.6125 20.025 7.05C20.7 8.3625 21.0375 9.8625 21.0375 11.3625C21.0375 13.2375 20.475 15 19.5 16.575Z" fill="#161A23"/>
</svg>
