<svg width="24" height="24" viewBox="0 0 24 24" fill="none" xmlns="http://www.w3.org/2000/svg">
<path d="M19.2 7.19998C18.675 5.77498 17.6625 4.64998 16.3125 4.01248C15.15 3.48748 13.875 3.33748 12.6375 3.63748L11.8875 1.57498C11.7375 1.19998 11.4375 0.862476 11.0625 0.712476C10.6875 0.562476 10.275 0.562476 9.9375 0.712476C5.55 2.69998 3.4125 7.83748 5.0625 12.375C6.225 15.5625 9 17.775 12.15 18.3375V21.5625H10.125C9.675 21.5625 9.2625 21.9375 9.2625 22.425C9.2625 22.9125 9.6375 23.2875 10.125 23.2875H15.825C16.275 23.2875 16.6875 22.9125 16.6875 22.425C16.6875 21.9375 16.3125 21.5625 15.825 21.5625H13.8375V18.4875C14.6625 18.4875 15.45 18.375 16.275 18.15C16.65 18.0375 16.9875 17.775 17.175 17.4375C17.3625 17.0625 17.4 16.65 17.25 16.275L16.4625 14.1C18.9375 12.9 20.175 9.93748 19.2 7.19998ZM6.6375 11.8875C5.2875 8.24998 6.9375 4.12498 10.3875 2.43748L11.0625 4.31248C10.0875 4.87498 9.3 5.73748 8.8125 6.78748C8.175 8.13748 8.1 9.67498 8.625 11.1C9.15 12.525 10.1625 13.65 11.5125 14.2875C12.2625 14.625 13.0875 14.8125 13.875 14.8125C14.175 14.8125 14.475 14.775 14.775 14.7375L15.4875 16.725C11.8125 17.5875 7.95 15.525 6.6375 11.8875ZM15.2625 12.825C14.2875 13.2 13.2 13.125 12.2625 12.7125C11.325 12.2625 10.575 11.475 10.2375 10.5C9.9 9.52498 9.9375 8.43748 10.35 7.49998C10.8 6.56248 11.5875 5.81248 12.5625 5.47498C13.0125 5.32498 13.4625 5.24998 13.9125 5.24998C14.475 5.24998 15.0375 5.36248 15.5625 5.62498C16.5 6.07498 17.25 6.86248 17.5875 7.83748C18.3375 9.82498 17.2875 12.075 15.2625 12.825Z" fill="#161A23"/>
</svg>
