<svg width="24" height="24" viewBox="0 0 24 24" fill="none" xmlns="http://www.w3.org/2000/svg">
<g clip-path="url(#clip0_501_45489)">
<path d="M21.7875 6.22495C19.7625 2.77495 16.1625 0.712451 12.1875 0.637451C12.075 0.637451 11.925 0.637451 11.8125 0.637451C7.83751 0.712451 4.23751 2.81245 2.21251 6.22495C1.20001 7.94995 0.637512 9.97495 0.637512 12C0.637512 14.4375 1.38751 16.725 2.81251 18.6749C4.95001 21.5625 8.21251 23.2875 11.775 23.325C11.85 23.325 11.8875 23.325 11.9625 23.325C12.0375 23.325 12.075 23.325 12.15 23.325C15.75 23.2875 19.0125 21.5625 21.1125 18.6749C22.5375 16.725 23.2875 14.4 23.2875 12C23.3625 9.97495 22.8 7.98745 21.7875 6.22495ZM19.725 6.22495C18.3375 6.67495 16.875 7.01245 15.4125 7.19995C15 5.54995 14.3625 3.97495 13.5375 2.47495C16.05 2.88745 18.225 4.19995 19.725 6.22495ZM11.775 21.2999C11.1 20.1375 10.5375 18.9375 10.125 17.7374C11.2125 17.6625 12.3375 17.6625 13.425 17.7C13.0125 18.9375 12.45 20.1375 11.775 21.2999ZM13.725 7.34995C12.4125 7.42495 11.0625 7.42495 9.78751 7.31245C10.2375 5.69995 10.875 4.16245 11.7375 2.69995C12.6375 4.19995 13.3125 5.73745 13.725 7.34995ZM9.41251 8.99995C10.2375 9.07495 11.1 9.11245 12 9.11245C12.7125 9.11245 13.425 9.07495 14.1 9.03745C14.25 10.0125 14.3625 11.025 14.3625 12C14.3625 13.35 14.2125 14.7 13.9125 16.0125C12.525 15.9 11.0625 15.9375 9.67501 16.05C9.37501 14.7375 9.18751 13.3875 9.18751 12C9.15001 10.9875 9.26251 9.97495 9.41251 8.99995ZM9.90001 2.58745C9.11251 4.04995 8.51251 5.58745 8.10001 7.16245C6.78751 6.97495 5.51251 6.67495 4.27501 6.26245C5.66251 4.34995 7.65001 3.07495 9.90001 2.58745ZM2.36251 12C2.36251 10.5 2.70001 9.03745 3.37501 7.68745C4.80001 8.17495 6.26251 8.54995 7.76251 8.77495C7.57501 9.82495 7.50001 10.9125 7.50001 12C7.50001 13.425 7.65001 14.85 7.98751 16.2375C6.60001 16.4625 5.25001 16.7625 3.90001 17.1749C2.88751 15.6375 2.36251 13.875 2.36251 12ZM4.98751 18.6375C6.11251 18.3 7.23751 18.075 8.40001 17.8875C8.77501 19.0875 9.30001 20.2875 9.90001 21.4125C8.02501 21 6.30001 20.0625 4.98751 18.6375ZM13.575 21.525C14.2125 20.325 14.775 19.0875 15.15 17.85C16.4625 18 17.775 18.2625 19.0125 18.6375C17.55 20.175 15.675 21.1875 13.575 21.525ZM20.1375 17.2125C18.675 16.725 17.1375 16.425 15.6 16.2C15.9 14.85 16.05 13.425 16.05 12C16.05 10.95 15.975 9.89995 15.7875 8.84995C17.4375 8.62495 19.0875 8.24995 20.6625 7.68745C21.3375 8.99995 21.675 10.5 21.675 12C21.675 13.875 21.1125 15.6375 20.1375 17.2125Z" fill="#161A23"/>
</g>
<defs>
<clipPath id="clip0_501_45489">
<rect width="24" height="24" fill="white"/>
</clipPath>
</defs>
</svg>
