<svg width="24" height="24" viewBox="0 0 24 24" fill="none" xmlns="http://www.w3.org/2000/svg">
<path d="M17.625 12C17.625 10.4626 17.025 9.11255 16.0125 8.10005V2.88755C16.0125 1.65005 15 0.675049 13.8 0.675049H10.2C8.9625 0.675049 7.9875 1.68755 7.9875 2.88755V8.10005C7.0125 9.11255 6.375 10.4626 6.375 12C6.375 13.5375 6.975 14.8876 7.9875 15.9001V21.1126C7.9875 22.35 9 23.3251 10.2 23.3251H13.8C15.0375 23.3251 16.0125 22.3126 16.0125 21.1126V15.9001C16.9875 14.8876 17.625 13.5001 17.625 12ZM8.0625 12C8.0625 9.82505 9.825 8.06255 12 8.06255C14.175 8.06255 15.9375 9.82505 15.9375 12C15.9375 14.1751 14.175 15.9376 12 15.9376C9.825 15.9376 8.0625 14.1751 8.0625 12ZM10.2 2.32505H13.8C14.1 2.32505 14.325 2.55005 14.325 2.85005V6.86255C13.6125 6.52505 12.825 6.33755 12 6.33755C11.175 6.33755 10.3875 6.52505 9.675 6.86255V2.88755C9.675 2.58755 9.9 2.32505 10.2 2.32505ZM13.8 21.6751H10.2C9.9 21.6751 9.675 21.4501 9.675 21.1501V17.1C10.3875 17.4375 11.175 17.625 12 17.625C12.825 17.625 13.6125 17.4375 14.325 17.1V21.1126C14.325 21.4125 14.1 21.6751 13.8 21.6751Z" fill="#161A23"/>
<path d="M12.75 14.3251C12.975 14.3251 13.2 14.2501 13.35 14.0626C13.6875 13.7251 13.6875 13.2001 13.35 12.8626L12.6 12.1126V10.8001C12.6 10.3501 12.225 9.9751 11.775 9.9751C11.325 9.9751 10.95 10.3501 10.95 10.8001V12.4876C10.95 12.7126 11.025 12.9376 11.2125 13.0876L12.1875 14.0626C12.3 14.2501 12.525 14.3251 12.75 14.3251Z" fill="#161A23"/>
</svg>
