<svg width="24" height="24" viewBox="0 0 24 24" fill="none" xmlns="http://www.w3.org/2000/svg">
<path d="M18.225 11.8875C18.225 10.7625 17.925 9.67502 17.4 8.77502L16.0875 2.47502C15.8625 1.35002 14.85 0.525024 13.6875 0.525024H10.05C8.88745 0.525024 7.91245 1.35002 7.64995 2.47502L6.33745 8.77502C5.81245 9.71252 5.51245 10.7625 5.51245 11.8875C5.51245 13.0125 5.81245 14.0625 6.33745 15L7.64995 21.2625C7.87495 22.3875 8.88745 23.2125 10.05 23.2125H13.6875C14.85 23.2125 15.825 22.3875 16.0875 21.2625L17.4 15C17.925 14.1 18.225 13.05 18.225 11.8875ZM7.19995 11.8875C7.19995 9.30002 9.29995 7.20002 11.8875 7.20002C14.475 7.20002 16.575 9.30002 16.575 11.8875C16.575 14.475 14.475 16.575 11.8875 16.575C9.29995 16.575 7.19995 14.475 7.19995 11.8875ZM10.05 2.21252H13.6875C14.0625 2.21252 14.3625 2.47502 14.4375 2.81252L15.225 6.48752C14.25 5.88752 13.125 5.55002 11.8875 5.55002C10.65 5.55002 9.52495 5.88752 8.54995 6.48752L9.33745 2.81252C9.37495 2.47502 9.71245 2.21252 10.05 2.21252ZM13.6875 21.525H10.05C9.71245 21.525 9.37495 21.2625 9.29995 20.925L8.54995 17.2875C9.52495 17.8875 10.65 18.225 11.8875 18.225C13.0875 18.225 14.25 17.8875 15.1875 17.2875L14.4375 20.925C14.3625 21.3 14.025 21.525 13.6875 21.525Z" fill="#161A23"/>
</svg>
