<svg width="24" height="24" viewBox="0 0 24 24" fill="none" xmlns="http://www.w3.org/2000/svg">
<path d="M19.9125 3.86245H19.8375C19.575 3.86245 19.3125 3.86245 19.05 3.86245V2.99995C19.05 1.72495 18 0.637451 16.6875 0.637451H5.3625C4.05 0.674951 3 1.72495 3 2.99995V15.825C3 16.3125 3.1875 16.7625 3.525 17.1375L9 22.7625C9.3375 23.1375 9.825 23.325 10.35 23.325H17.2125C18.225 23.325 19.0875 22.5 19.0875 21.45V21.1124L20.8875 17.475C20.9625 17.3624 20.9625 17.25 20.9625 17.1L21 4.94995C21 4.38745 20.5125 3.89995 19.9125 3.86245ZM19.3125 6.89995H17.2125V5.51245C17.925 5.51245 18.6 5.51245 19.3125 5.51245V6.89995ZM16.65 5.54995C16.6875 5.54995 16.6875 5.54995 16.65 5.54995C16.6875 5.54995 16.6875 5.54995 16.65 5.54995ZM8.925 20.25L5.85 17.1H8.925V20.25ZM17.2125 21.6749H10.6125V16.4625C10.6125 15.8625 10.125 15.4125 9.5625 15.4125H4.6875V2.99995C4.6875 2.62495 4.9875 2.32495 5.3625 2.32495H16.7625C17.1375 2.32495 17.4375 2.62495 17.4375 2.99995V3.82495C17.175 3.82495 16.95 3.82495 16.6875 3.82495C16.05 3.82495 15.5625 4.31245 15.5625 4.91245L15.525 17.1C15.525 17.25 15.5625 17.3624 15.6 17.475L17.4375 21.1124V21.45C17.4 21.5625 17.325 21.6749 17.2125 21.6749ZM18.225 19.0499L17.175 16.9125V8.58745H19.275V16.9125L18.225 19.0499Z" fill="#161A23"/>
</svg>
