<svg width="23" height="23" viewBox="0 0 23 23" fill="none" xmlns="http://www.w3.org/2000/svg">
<circle cx="11.325" cy="11.325" r="11.325" fill="#5D6068"/>
<path d="M7.43311 7.01859C7.6477 6.82176 7.9814 6.83622 8.17822 7.05081L11.231 10.3789L14.2837 7.05081C14.4805 6.83631 14.8142 6.82179 15.0288 7.01859C15.2433 7.21537 15.2577 7.54913 15.061 7.7637L11.9458 11.1592L15.061 14.5547C15.2577 14.7693 15.2433 15.1031 15.0288 15.2998C14.8143 15.4966 14.4805 15.4821 14.2837 15.2676L11.231 11.9385L8.17822 15.2676C7.9814 15.4822 7.6477 15.4967 7.43311 15.2998C7.21852 15.103 7.20406 14.7693 7.40088 14.5547L10.5151 11.1592L7.40088 7.7637C7.20407 7.54913 7.21856 7.21541 7.43311 7.01859Z" fill="white"/>
</svg>
