<svg width="24" height="24" viewBox="0 0 24 24" fill="none" xmlns="http://www.w3.org/2000/svg">
<g clip-path="url(#clip0_914_45531)">
<path d="M8.36205 7.27488L8.84955 6.71238L7.98705 5.96238C6.56205 4.68738 5.62455 4.04988 4.76205 3.74988C4.08705 3.48738 4.01205 3.52488 3.44955 4.12488C2.13705 5.54988 0.974553 7.87488 0.637053 9.86238C0.374552 11.5124 0.337052 11.9249 0.412053 12.7124C0.712053 15.0749 1.23705 16.7249 2.36205 18.3749C2.84955 19.0499 2.92455 19.2374 2.77455 18.8624C2.54955 18.3374 2.73705 17.0624 3.18705 15.8624C4.04955 13.5749 6.26205 9.86238 8.36205 7.27488Z" fill="#15171A"/>
<path d="M6.63741 1.98735C6.93741 1.98735 7.42491 1.98735 7.76241 2.02485C8.62491 2.17485 10.1249 2.69985 11.0999 3.18735C11.5499 3.48735 11.9999 3.67485 11.9999 3.63735C11.9999 3.63735 12.4874 3.41235 13.0124 3.14985C14.7374 2.28735 16.3874 1.87485 17.5124 1.94985L18.0749 1.98735L17.6999 1.87485C16.9124 1.34985 15.4124 0.824854 14.2124 0.562354C13.0499 0.299853 10.8749 0.299853 9.71241 0.562354C8.69991 0.787354 7.91241 1.04985 7.01241 1.46235C5.99991 1.98735 5.92491 2.06235 6.63741 1.98735Z" fill="#15171A"/>
<path d="M12.1116 9.82478C11.8866 9.78728 9.78662 11.6248 8.32412 13.1998C5.69912 16.0123 4.16162 18.4123 4.16162 19.8373C4.16162 20.5123 4.42412 20.8873 5.73662 21.7498C7.31162 22.7998 9.11162 23.4373 10.9116 23.5873C12.3741 23.6998 14.1741 23.5498 15.5991 23.0998C17.2866 22.5748 19.5741 21.1498 19.9116 20.4748C20.3991 19.5748 19.4241 17.4748 17.3616 14.9248C16.0866 13.3498 12.5241 9.89978 12.1116 9.82478Z" fill="#15171A"/>
<path d="M23.4 9.7498C23.025 8.0998 22.35 6.5998 21.45 5.2498C20.8875 4.4623 20.1375 3.6748 19.9125 3.6748C19.5375 3.6748 18.75 3.9373 18.225 4.3123C17.55 4.7248 16.9125 5.2498 15.9375 6.1123L15.1875 6.7498L15.8625 7.6123C17.9625 10.2373 20.25 14.1748 20.925 16.2748C21.225 17.2123 21.4125 18.1873 21.3 18.7123C21.2625 19.0873 21.2625 19.0873 21.3375 18.9748C21.6375 18.5998 22.275 17.5123 22.5375 16.9123C22.8375 16.1623 23.2125 14.9998 23.4 14.1748C23.6625 13.0873 23.625 10.7998 23.4 9.7498Z" fill="#15171A"/>
</g>
<defs>
<clipPath id="clip0_914_45531">
<rect width="24" height="24" fill="white"/>
</clipPath>
</defs>
</svg>
