<svg width="24" height="24" viewBox="0 0 24 24" fill="none" xmlns="http://www.w3.org/2000/svg">
<path d="M17.3166 23.1506C15.4335 23.1506 13.6243 22.1906 12.6274 20.4922C11.8151 19.126 11.6674 17.5383 12.2212 16.0614C12.3689 15.6183 12.332 15.0276 11.9997 14.806C11.6304 14.5845 11.0766 14.8429 10.7812 15.2122C9.74738 16.3568 8.27044 17.0214 6.7197 17.0214C3.72891 17.0214 1.29199 14.6214 1.29199 11.7045C1.29199 8.78756 3.69199 6.38756 6.68276 6.38756C8.38121 6.38756 10.0058 7.19985 11.0397 8.52911C11.2243 8.78756 11.5935 9.00911 11.8889 8.89834C12.2212 8.75063 12.332 8.19679 12.1843 7.75373C11.7043 6.31372 11.8889 4.76295 12.6643 3.43371C14.1412 0.886016 17.4643 0.036786 20.0489 1.47679C21.3043 2.17833 22.2274 3.35986 22.5966 4.72601C22.9658 6.09217 22.7812 7.53217 22.0428 8.75062C21.1935 10.1906 19.7535 11.1137 18.092 11.3352C17.7228 11.446 17.3535 11.7045 17.3535 11.9998C17.3535 12.2952 17.7228 12.5537 18.0551 12.5906C19.7166 12.8122 21.1566 13.7722 22.0058 15.1752C22.7443 16.3937 22.9289 17.8337 22.5597 19.1999C22.1904 20.603 21.3043 21.7476 20.012 22.4491C19.1628 22.9291 18.2397 23.1506 17.3166 23.1506ZM11.7043 13.0706C12.1104 13.0706 12.4797 13.1814 12.8489 13.403C13.9566 14.1045 14.1782 15.5445 13.772 16.6152C13.4028 17.6122 13.5135 18.7198 14.0674 19.643C15.1012 21.4152 17.4274 22.006 19.1997 20.9722C20.0858 20.4922 20.6766 19.6798 20.9351 18.7199C21.1935 17.7968 21.0458 16.7999 20.5658 15.9876C19.9751 14.9906 18.9782 14.326 17.8335 14.1783C16.6151 14.0306 15.692 13.0706 15.692 11.9629C15.692 10.8552 16.6151 9.89524 17.8335 9.74756C18.9782 9.59985 20.012 8.93524 20.5658 7.93834C21.0458 7.08911 21.1935 6.12911 20.9351 5.20601C20.6766 4.24601 20.0489 3.47063 19.1997 2.95371C17.3904 1.95679 15.1012 2.58448 14.0674 4.31985C13.5504 5.20601 13.4397 6.27679 13.7351 7.27373C14.1043 8.45524 13.772 9.96911 12.5166 10.486C11.5566 10.8922 10.412 10.486 9.71044 9.56295C9.00893 8.63985 7.86431 8.08601 6.68276 8.08601C4.61509 8.08601 2.91661 9.71062 2.91661 11.7414C2.91661 13.7722 4.61509 15.3968 6.68276 15.3968C7.75354 15.3968 8.78738 14.9537 9.52583 14.1414C10.0428 13.5137 10.8551 13.0706 11.7043 13.0706Z" fill="#15171A"/>
</svg>
