<svg width="24" height="24" viewBox="0 0 24 24" fill="none" xmlns="http://www.w3.org/2000/svg">
<g clip-path="url(#clip0_501_49626)">
<path d="M22.6125 21.75L21.75 21.3375C22.0875 20.6625 22.275 19.95 22.275 19.2V18.45C22.275 17.7 21.675 17.1 20.925 17.1H12.075V15.45H18.3C18.6 15.45 18.8625 15.3 19.0125 15.0375C19.1625 14.775 19.1625 14.475 19.0125 14.2125L11.9625 1.08754C11.775 0.75004 11.4 0.56254 11.025 0.67504C10.65 0.78754 10.3875 1.12504 10.3875 1.50004V4.20004L4.98745 14.175C4.83745 14.4375 4.83745 14.7375 4.98745 15C5.13745 15.2625 5.39995 15.4125 5.69995 15.4125H10.35V17.0625H3.07495C2.32495 17.0625 1.72495 17.6625 1.72495 18.4125V19.1625C1.72495 19.9125 1.91245 20.6625 2.24995 21.3L1.38745 21.75C0.974952 21.9375 0.787452 22.425 0.974952 22.875C1.12495 23.175 1.42495 23.3625 1.72495 23.3625C1.83745 23.3625 1.94995 23.325 2.06245 23.2875L3.74995 22.5C3.78745 22.5 3.78745 22.4625 3.82495 22.4625L4.01245 22.3875C4.16245 22.3125 4.34995 22.3125 4.53745 22.3875L5.88745 22.9875C6.48745 23.25 7.19995 23.25 7.79995 22.9875L9.14995 22.3875C9.29995 22.3125 9.48745 22.3125 9.67495 22.3875L11.025 22.9875C11.625 23.25 12.3375 23.25 12.9375 22.9875L14.2875 22.3875C14.4375 22.3125 14.625 22.3125 14.8125 22.3875L16.1625 22.9875C16.7625 23.25 17.475 23.25 18.075 22.9875L19.425 22.3875C19.575 22.3125 19.7625 22.3125 19.95 22.3875L21.9 23.2875C22.3125 23.475 22.8375 23.2875 23.025 22.875C23.2125 22.425 23.025 21.9375 22.6125 21.75ZM12.075 13.7625V4.83754L16.875 13.7625H12.075ZM10.3875 7.76254V13.7625H7.12495L10.3875 7.76254ZM18.7125 20.85L17.3625 21.45C17.2125 21.525 17.025 21.525 16.8375 21.45L15.4875 20.85C14.8875 20.5875 14.175 20.5875 13.575 20.85L12.225 21.45C12.075 21.525 11.8875 21.525 11.7 21.45L10.35 20.85C9.74995 20.5875 9.03745 20.5875 8.43745 20.85L7.12495 21.45C6.97495 21.525 6.78745 21.525 6.59995 21.45L5.24995 20.85C4.79995 20.625 4.27495 20.5875 3.82495 20.7C3.56245 20.25 3.41245 19.725 3.41245 19.2V18.7875H20.55V19.2C20.55 19.725 20.4 20.25 20.1375 20.7C19.6875 20.5875 19.2 20.625 18.7125 20.85Z" fill="#161A23"/>
</g>
<defs>
<clipPath id="clip0_501_49626">
<rect width="24" height="24" fill="white"/>
</clipPath>
</defs>
</svg>
