<svg width="24" height="24" viewBox="0 0 24 24" fill="none" xmlns="http://www.w3.org/2000/svg">
<path d="M21.3749 16.5375H12.075V15.375H18.2624C18.5625 15.375 18.8249 15.225 18.9749 14.9625C19.1249 14.7 19.1249 14.4 18.9749 14.1375L11.9625 1.08754C11.775 0.75004 11.4 0.56254 11.025 0.67504C10.65 0.78754 10.3875 1.12504 10.3875 1.50004V4.20004L5.02495 14.1375C4.87495 14.4 4.87495 14.7 5.02495 14.9625C5.17495 15.225 5.43745 15.375 5.73745 15.375H10.35V16.5375H2.62495C2.17495 16.5375 1.76245 16.9125 1.76245 17.4V19.5C1.76245 21.6375 3.48745 23.3625 5.62495 23.3625H18.375C20.5124 23.3625 22.2374 21.6375 22.2374 19.5V17.3625C22.1999 16.9125 21.8249 16.5375 21.3749 16.5375ZM12.075 13.6875V4.83754L16.8375 13.6875H12.075ZM10.3875 7.76254V13.6875H7.19995L10.3875 7.76254ZM20.5124 19.5C20.5124 20.7 19.5375 21.675 18.3375 21.675H5.62495C4.42495 21.675 3.44995 20.7 3.44995 19.5V18.225H20.5124V19.5Z" fill="#161A23"/>
</svg>
