<svg width="24" height="24" viewBox="0 0 24 24" fill="none" xmlns="http://www.w3.org/2000/svg">
<path d="M21.6375 17.1375C21.4875 16.9125 21.225 16.7625 20.925 16.7625H13.575V14.8125H17.9625C18.2625 14.8125 18.525 14.6625 18.675 14.4C18.825 14.1375 18.825 13.8375 18.675 13.575L13.575 4.05004V1.50004C13.575 1.12504 13.3125 0.78754 12.9375 0.67504C12.5625 0.56254 12.1875 0.75004 12 1.08754L5.85005 12.4875C5.58755 12.975 5.58755 13.575 5.88755 14.025C6.18755 14.5125 6.67505 14.775 7.23755 14.775H11.8875V16.725H3.03755C2.77505 16.725 2.51255 16.875 2.32505 17.1C2.13755 17.325 2.17505 17.625 2.25005 17.8875L3.75005 21.9C4.08755 22.7625 4.91255 23.3625 5.85005 23.3625H18.1125C19.05 23.3625 19.875 22.8 20.2125 21.9L21.7125 17.8875C21.825 17.625 21.7875 17.3625 21.6375 17.1375ZM16.575 13.125H13.6125V7.61254L16.575 13.125ZM11.8875 4.83754V13.0875H7.42505L11.8875 4.83754ZM18.6375 21.3C18.5625 21.525 18.3375 21.6375 18.1125 21.6375H5.85005C5.62505 21.6375 5.40005 21.4875 5.32505 21.3L4.23755 18.45H19.6875L18.6375 21.3Z" fill="#161A23"/>
</svg>
