<svg width="24" height="24" viewBox="0 0 24 24" fill="none" xmlns="http://www.w3.org/2000/svg">
<path d="M22.9125 14.9624C22.5 14.3249 21.75 13.9499 21 13.9499H20.2875L19.3125 11.6624C18.9375 10.7999 18.1125 10.2374 17.1375 10.2374H16.5375L15.5625 7.9499C15.1875 7.0874 14.3625 6.5249 13.3875 6.5249H11.7375V5.6999C11.7375 5.2499 11.3625 4.8374 10.875 4.8374C10.3875 4.8374 10.0125 5.2124 10.0125 5.6999V6.5249H8.13753V4.5749C8.13753 4.1249 7.76253 3.7124 7.27503 3.7124C6.78753 3.7124 6.41253 4.0874 6.41253 4.5749V6.6749C5.55003 7.0124 4.91253 7.8749 4.91253 8.8499V10.3124C4.05003 10.4999 3.37503 11.1374 3.11253 11.9999L2.55003 14.0249C1.98753 14.0999 1.46253 14.3999 1.05003 14.8499C0.600031 15.3749 0.375031 16.0874 0.487531 16.7624L0.712531 18.3749C0.862531 19.4999 1.87503 20.3624 3.03753 20.3624H20.175C21.15 20.3624 22.05 19.7624 22.3875 18.8249L22.9875 17.1374C23.475 16.3874 23.3625 15.5999 22.9125 14.9624ZM14.0625 8.5499L14.7375 10.1999H6.75003V8.8124C6.75003 8.4374 7.05003 8.1749 7.38753 8.1749H13.425C13.725 8.1374 13.95 8.3249 14.0625 8.5499ZM4.91253 12.4124C4.98753 12.1124 5.28753 11.8874 5.62503 11.8874H17.2125C17.475 11.8874 17.7 12.0374 17.8125 12.2999L18.4875 13.9499H4.50003L4.91253 12.4124ZM21.6 16.5374L21 18.1874C20.8875 18.4499 20.6625 18.5999 20.4 18.5999H3.22503C2.88753 18.5999 2.62503 18.3749 2.58753 18.0374L2.36253 16.4249C2.32503 16.1249 2.43753 15.9374 2.51253 15.8624C2.58753 15.7874 2.77503 15.5999 3.07503 15.5999H21C21.225 15.5999 21.4125 15.7124 21.525 15.8624C21.6375 16.0124 21.675 16.3124 21.6 16.5374Z" fill="#161A23"/>
</svg>
