<svg width="24" height="24" viewBox="0 0 24 24" fill="none" xmlns="http://www.w3.org/2000/svg">
<path d="M22.5756 1.98757C22.5756 1.98757 22.4256 1.95007 22.3131 1.95007C21.6756 1.95007 21.0006 2.32507 21.0006 3.26257C20.6256 8.13757 20.2131 13.0501 19.5381 17.7001C19.9506 17.6626 20.2131 17.7376 20.5506 17.8501C21.3006 13.1626 23.1006 6.07507 23.5131 4.05007C23.6256 3.82507 23.6631 3.48757 23.6631 3.26257C23.6631 2.51257 23.2131 2.10007 22.5756 1.98757Z" fill="#15171A"/>
<path d="M16.65 1.79993C15.7125 2.02493 14.8125 2.02493 13.9125 1.79993C13.1625 3.22493 10.3125 7.87492 8.5125 10.7999C6.7125 7.68742 4.5 4.23742 3.1125 1.79993C1.9875 2.02493 1.5375 2.06243 0.375 1.79993C2.5875 5.13742 6.15 11.4749 7.3125 13.5749L7.125 22.2374C7.125 22.2374 7.9125 22.1249 8.4375 22.1249C9 22.1249 9.75 22.2374 9.75 22.2374L9.6 13.5749C11.8875 9.59992 15.6 3.14993 16.65 1.79993Z" fill="#15171A"/>
<path d="M19.4625 19.6875C18.5625 19.6875 18.1875 20.325 18.1875 21C18.1875 21.7875 18.825 22.2 19.65 22.2C20.2125 22.2 20.85 21.825 20.85 20.8875C20.8875 20.2125 20.25 19.6875 19.4625 19.6875Z" fill="#15171A"/>
</svg>
