<svg width="24" height="24" viewBox="0 0 24 24" fill="none" xmlns="http://www.w3.org/2000/svg">
<path d="M21.3751 4.9126H2.62505C1.53755 4.9126 0.675049 5.8126 0.675049 6.8626V17.0626C0.675049 18.1501 1.57505 19.0126 2.62505 19.0126H21.3751C22.4626 19.0126 23.3251 18.1126 23.3251 17.0626V6.9001C23.3251 5.8126 22.4626 4.9126 21.3751 4.9126ZM18.2626 17.4001H5.73755C5.77505 17.2501 5.77505 17.0626 5.77505 16.9126C5.77505 15.1876 4.38755 13.8001 2.66255 13.8001C2.55005 13.8001 2.43755 13.8001 2.32505 13.8376V10.2376C2.43755 10.2376 2.55005 10.2751 2.66255 10.2751C4.38755 10.2751 5.77505 8.8876 5.77505 7.1626C5.77505 7.0126 5.77505 6.8251 5.73755 6.6751H18.225C18.1875 6.8251 18.1875 7.0126 18.1875 7.1626C18.1875 8.8876 19.5751 10.2751 21.3001 10.2751C21.4125 10.2751 21.5251 10.2751 21.6376 10.2376V13.8376C21.5251 13.8376 21.4125 13.8001 21.3001 13.8001C19.5751 13.8001 18.1875 15.1876 18.1875 16.9126C18.225 17.0626 18.225 17.2126 18.2626 17.4001ZM21.6751 6.9001V8.5126C21.5625 8.5501 21.4501 8.5501 21.3376 8.5501C20.5501 8.5501 19.9125 7.9126 19.9125 7.1251C19.9125 6.9751 19.9501 6.7876 19.9876 6.6376H21.3751C21.5251 6.6001 21.6751 6.7501 21.6751 6.9001ZM2.62505 6.6001H4.01255C4.08755 6.7501 4.08755 6.9376 4.08755 7.0876C4.08755 7.8751 3.45005 8.5126 2.66255 8.5126C2.55005 8.5126 2.43755 8.5126 2.32505 8.4751V6.8626C2.32505 6.7501 2.47505 6.6001 2.62505 6.6001ZM2.32505 17.1001V15.4876C2.43755 15.4501 2.55005 15.4501 2.66255 15.4501C3.45005 15.4501 4.08755 16.0876 4.08755 16.8751C4.08755 17.0626 4.05005 17.2126 4.01255 17.3626H2.62505C2.47505 17.4001 2.32505 17.2501 2.32505 17.1001ZM21.3751 17.4001H19.9876C19.9125 17.2501 19.9125 17.0626 19.9125 16.9126C19.9125 16.1251 20.5501 15.4876 21.3376 15.4876C21.4501 15.4876 21.5625 15.4876 21.6751 15.5251V17.1376C21.6751 17.2501 21.5251 17.4001 21.3751 17.4001Z" fill="#161A23"/>
<path d="M14.6626 13.2H12.7876V12.525H14.5126C14.9626 12.525 15.3376 12.15 15.3376 11.6625C15.3376 11.175 14.9626 10.8375 14.5126 10.8375H12.7876V10.5375L14.4001 8.92505C14.7376 8.58755 14.7376 8.06255 14.4001 7.72505C14.0626 7.38755 13.5376 7.38755 13.2001 7.72505L11.9626 9.00005L10.6876 7.72505C10.3501 7.38755 9.8251 7.38755 9.4876 7.72505C9.1501 8.06255 9.1501 8.58755 9.4876 8.92505L11.1001 10.5375V10.8375H9.4501C9.0001 10.8375 8.6251 11.2125 8.6251 11.6625C8.6251 12.1125 9.0001 12.525 9.4501 12.525H11.1001V13.2H9.3001C8.8501 13.2 8.4751 13.575 8.4751 14.025C8.4751 14.475 8.8501 14.85 9.3001 14.85H11.1001V15.6375C11.1001 16.0875 11.4751 16.4625 11.9251 16.4625C12.3751 16.4625 12.7501 16.0875 12.7501 15.6375V14.85H14.6251C15.0751 14.85 15.4501 14.475 15.4501 14.025C15.4501 13.575 15.1501 13.2 14.6626 13.2Z" fill="#161A23"/>
</svg>
