<svg width="24" height="24" viewBox="0 0 24 24" fill="none" xmlns="http://www.w3.org/2000/svg">
<path d="M14.475 4.16266C14.0625 3.93766 13.575 4.05016 13.3125 4.46266L12 6.63766L10.6875 4.42516C10.4625 4.01266 9.93751 3.90016 9.52501 4.12516C9.11251 4.35016 9.00001 4.87516 9.22501 5.28766L10.725 7.76266H10.3875C9.93751 7.76266 9.56251 8.13766 9.56251 8.58766C9.56251 9.03766 9.93751 9.41266 10.3875 9.41266H11.175V10.1627H10.3875C9.93751 10.1627 9.56251 10.5377 9.56251 10.9877C9.56251 11.4377 9.93751 11.8127 10.3875 11.8127H11.175V12.6002C11.175 13.0502 11.55 13.4252 12 13.4252C12.45 13.4252 12.825 13.0502 12.825 12.6002V11.8127H13.6125C14.0625 11.8127 14.4375 11.4377 14.4375 10.9877C14.4375 10.5377 14.0625 10.1627 13.6125 10.1627H12.825V9.41266H13.6125C14.0625 9.41266 14.4375 9.03766 14.4375 8.58766C14.4375 8.13766 14.0625 7.76266 13.6125 7.76266H13.275L14.775 5.28766C15 4.91266 14.8875 4.38766 14.475 4.16266Z" fill="#161A23"/>
<path d="M12 0.675049C7.50005 0.675049 3.86255 4.31255 3.86255 8.77505C3.86255 11.25 4.95005 13.5375 6.90005 15.075C7.05005 15.1875 7.23755 15.2625 7.42505 15.2625C7.68755 15.2625 7.91255 15.15 8.10005 14.9625C8.40005 14.5875 8.32505 14.0625 7.98755 13.7625C6.45005 12.525 5.58755 10.725 5.58755 8.77505C5.58755 5.25005 8.47505 2.36255 12.0375 2.36255C15.6 2.36255 18.4875 5.25005 18.4875 8.77505C18.4875 9.22505 18.8626 9.60005 19.3126 9.60005C19.7626 9.60005 20.1376 9.22505 20.1376 8.77505C20.1376 4.27505 16.5001 0.675049 12 0.675049Z" fill="#161A23"/>
<path d="M18.3375 14.7751H14.7C14.25 14.7751 13.8749 15.1501 13.8749 15.6001C13.8749 16.0501 14.25 16.4251 14.7 16.4251H16.0124L12.5624 18.8251C12.4874 18.8626 12.4124 18.9001 12.3375 18.9001H7.91245C7.31245 18.9001 6.74995 19.1251 6.37495 19.5376L4.08745 21.9001C3.74995 22.2376 3.78745 22.7626 4.12495 23.1001C4.27495 23.2501 4.49995 23.3251 4.72495 23.3251C4.94995 23.3251 5.17495 23.2501 5.32495 23.0626L7.61245 20.7001C7.68745 20.6251 7.79995 20.5876 7.91245 20.5876H12.3375C12.75 20.5876 13.1624 20.4751 13.5374 20.2126L17.5124 17.4376V19.2376C17.5124 19.6876 17.8874 20.0626 18.3375 20.0626C18.7874 20.0626 19.1624 19.6876 19.1624 19.2376V15.6001C19.1999 15.1501 18.8249 14.7751 18.3375 14.7751Z" fill="#161A23"/>
</svg>
