<svg width="24" height="24" viewBox="0 0 24 24" fill="none" xmlns="http://www.w3.org/2000/svg">
<g clip-path="url(#clip0_501_52058)">
<path d="M16.1625 5.81263C15.7875 5.55013 15.2625 5.62513 15 6.00013L12 10.0501L9.00003 6.00013C8.73753 5.62513 8.21253 5.55013 7.83753 5.81263C7.46253 6.07513 7.38753 6.60013 7.65003 6.97513L11.175 11.7376V12.0751H9.26253C8.81253 12.0751 8.43753 12.4501 8.43753 12.9001C8.43753 13.3501 8.81253 13.7251 9.26253 13.7251H11.175V14.8126H9.26253C8.81253 14.8126 8.43753 15.1876 8.43753 15.6376C8.43753 16.0876 8.81253 16.4626 9.26253 16.4626H11.175V18.3751C11.175 18.8251 11.55 19.2001 12 19.2001C12.45 19.2001 12.825 18.8251 12.825 18.3751V16.4626H14.7375C15.1875 16.4626 15.5625 16.0876 15.5625 15.6376C15.5625 15.1876 15.1875 14.8126 14.7375 14.8126H12.825V13.7251H14.7375C15.1875 13.7251 15.5625 13.3501 15.5625 12.9001C15.5625 12.4501 15.1875 12.0751 14.7375 12.0751H12.825V11.7376L16.35 6.97513C16.6125 6.60013 16.5375 6.07513 16.1625 5.81263Z" fill="#161A23"/>
<path d="M12 0.675049C5.73755 0.675049 0.675049 5.73755 0.675049 12C0.675049 18.2626 5.77505 23.3251 12 23.3251C18.225 23.3251 23.3251 18.2626 23.3251 12C23.3251 5.73755 18.2626 0.675049 12 0.675049ZM12 21.6376C6.67505 21.6376 2.32505 17.3251 2.32505 12C2.32505 6.67505 6.67505 2.36255 12 2.36255C17.3251 2.36255 21.6751 6.71255 21.6751 12C21.6751 17.3251 17.3251 21.6376 12 21.6376Z" fill="#161A23"/>
</g>
<defs>
<clipPath id="clip0_501_52058">
<rect width="24" height="24" fill="white"/>
</clipPath>
</defs>
</svg>
