<svg width="24" height="24" viewBox="0 0 24 24" fill="none" xmlns="http://www.w3.org/2000/svg">
<path d="M14.475 4.16266C14.0625 3.93766 13.575 4.05016 13.3125 4.46266L12 6.63766L10.6875 4.42516C10.4625 4.01266 9.93751 3.90016 9.52501 4.12516C9.11251 4.35016 9.00001 4.87516 9.22501 5.28766L10.725 7.76266H10.3875C9.93751 7.76266 9.56251 8.13766 9.56251 8.58766C9.56251 9.03766 9.93751 9.41266 10.3875 9.41266H11.175V10.1627H10.3875C9.93751 10.1627 9.56251 10.5377 9.56251 10.9877C9.56251 11.4377 9.93751 11.8127 10.3875 11.8127H11.175V12.6002C11.175 13.0502 11.55 13.4252 12 13.4252C12.45 13.4252 12.825 13.0502 12.825 12.6002V11.8127H13.6125C14.0625 11.8127 14.4375 11.4377 14.4375 10.9877C14.4375 10.5377 14.0625 10.1627 13.6125 10.1627H12.825V9.41266H13.6125C14.0625 9.41266 14.4375 9.03766 14.4375 8.58766C14.4375 8.13766 14.0625 7.76266 13.6125 7.76266H13.275L14.775 5.28766C15 4.91266 14.8875 4.38766 14.475 4.16266Z" fill="#161A23"/>
<path d="M5.55005 8.77505C5.55005 5.25005 8.43755 2.36255 12 2.36255C15.5625 2.36255 18.45 5.25005 18.45 8.77505C18.45 10.725 17.5875 12.525 16.05 13.7625C15.675 14.0625 15.6375 14.5875 15.9375 14.9625C16.0875 15.1875 16.35 15.2625 16.6125 15.2625C16.8 15.2625 16.9875 15.1875 17.1375 15.075C19.05 13.5375 20.175 11.2125 20.175 8.77505C20.1375 4.27505 16.5 0.675049 12 0.675049C7.50005 0.675049 3.86255 4.31255 3.86255 8.77505C3.86255 9.22505 4.23755 9.60005 4.68755 9.60005C5.13755 9.60005 5.55005 9.22505 5.55005 8.77505Z" fill="#161A23"/>
<path d="M19.275 18.0001C18.825 18.0001 18.45 18.3751 18.45 18.8251V20.7001L14.475 17.8126C14.1375 17.5876 13.725 17.4376 13.3125 17.4376H8.84996C8.73746 17.4376 8.62496 17.4001 8.54996 17.3251L6.26246 14.9626C5.92496 14.6251 5.39996 14.6251 5.06246 14.9251C4.72496 15.2626 4.72496 15.7876 5.02496 16.1251L7.27496 18.4501C7.64996 18.8626 8.21246 19.1251 8.81246 19.1251H13.2375C13.3125 19.1251 13.3875 19.1626 13.4625 19.1626L16.8 21.5626H15.6375C15.1875 21.5626 14.8125 21.9376 14.8125 22.3876C14.8125 22.8376 15.1875 23.2126 15.6375 23.2126H19.275C19.725 23.2126 20.1 22.8376 20.1 22.3876V18.7501C20.1375 18.3751 19.7625 18.0001 19.275 18.0001Z" fill="#161A23"/>
</svg>
