<svg width="24" height="24" viewBox="0 0 24 24" fill="none" xmlns="http://www.w3.org/2000/svg">
<path d="M19.2 12.825L17.325 15.1125L15.45 12.825C15.15 12.45 14.625 12.4125 14.25 12.7125C13.875 13.0125 13.8375 13.5375 14.1375 13.9125L16.0875 16.3125H15.1875C14.7375 16.3125 14.3625 16.6875 14.3625 17.1375C14.3625 17.5875 14.7375 17.9625 15.1875 17.9625H16.4625V18.5625H15.1875C14.7375 18.5625 14.3625 18.9375 14.3625 19.3875C14.3625 19.8375 14.7375 20.2125 15.1875 20.2125H16.4625V20.8875C16.4625 21.3375 16.8375 21.7125 17.2875 21.7125C17.7375 21.7125 18.1125 21.3375 18.1125 20.8875V20.25H19.3875C19.8375 20.25 20.2125 19.8749 20.2125 19.425C20.2125 18.975 19.8375 18.5999 19.3875 18.5999H18.1125V18H19.3875C19.8375 18 20.2125 17.625 20.2125 17.175C20.2125 16.725 19.8375 16.35 19.3875 16.35H18.4875L20.4375 13.95C20.7375 13.575 20.7 13.05 20.325 12.75C20.025 12.4125 19.5 12.45 19.2 12.825Z" fill="#161A23"/>
<path d="M20.4 2.25H3.59995C1.98745 2.25 0.637451 3.4875 0.637451 4.9875V15.4875C0.637451 16.9875 1.94995 18.225 3.59995 18.225H11.9625C12.4125 18.225 12.825 17.85 12.825 17.4C12.825 16.95 12.45 16.575 11.9625 16.575H3.59995C2.92495 16.575 2.32495 16.0875 2.32495 15.525V10.875H21.6375V13.575C21.6375 14.025 22.0125 14.4 22.4625 14.4C22.9125 14.4 23.2875 14.025 23.2875 13.575V4.9875C23.325 3.4875 22.0125 2.25 20.4 2.25ZM3.59995 3.9375H20.4C21.075 3.9375 21.6375 4.425 21.6375 4.9875V6.0375H2.32495V4.9875C2.32495 4.425 2.92495 3.9375 3.59995 3.9375ZM2.32495 9.1875V7.7625H21.6375V9.1875H2.32495Z" fill="#161A23"/>
</svg>
