<svg width="24" height="24" viewBox="0 0 24 24" fill="none" xmlns="http://www.w3.org/2000/svg">
<path d="M20.9999 4.9126H2.99995C1.68745 4.9126 0.637451 5.9626 0.637451 7.2751V16.7251C0.637451 18.0376 1.68745 19.0876 2.99995 19.0876H20.9999C22.3124 19.0876 23.3624 18.0376 23.3624 16.7251V7.2751C23.3249 5.9626 22.275 4.9126 20.9999 4.9126ZM21.6749 16.7251C21.6749 17.1001 21.3749 17.4001 20.9999 17.4001H2.99995C2.62495 17.4001 2.32495 17.1001 2.32495 16.7251V7.2751C2.32495 6.9001 2.62495 6.6001 2.99995 6.6001H20.9999C21.3749 6.6001 21.6749 6.9001 21.6749 7.2751V16.7251Z" fill="#161A23"/>
<path d="M5.88735 7.6875H4.61235C4.16235 7.6875 3.78735 8.0625 3.78735 8.5125C3.78735 8.9625 4.16235 9.3375 4.61235 9.3375H5.88735C6.33735 9.3375 6.71235 8.9625 6.71235 8.5125C6.71235 8.0625 6.33735 7.6875 5.88735 7.6875Z" fill="#161A23"/>
<path d="M19.425 14.7002H18.15C17.7 14.7002 17.325 15.0752 17.325 15.5252C17.325 15.9752 17.7 16.3502 18.15 16.3502H19.425C19.875 16.3502 20.25 15.9752 20.25 15.5252C20.25 15.0752 19.875 14.7002 19.425 14.7002Z" fill="#161A23"/>
<path d="M14.7375 13.3127H12.8625V12.6377H14.5875C15.0375 12.6377 15.4125 12.2627 15.4125 11.8127C15.4125 11.3627 15.0375 10.9877 14.5875 10.9877H12.8625V10.6877L14.475 9.0752C14.8125 8.7377 14.8125 8.2127 14.475 7.8752C14.1375 7.5377 13.6125 7.5377 13.275 7.8752L12 9.1502L10.725 7.8752C10.3875 7.5377 9.86245 7.5377 9.52495 7.8752C9.18745 8.2127 9.18745 8.7377 9.52495 9.0752L11.1375 10.6877V10.9877H9.48745C9.03745 10.9877 8.66245 11.3627 8.66245 11.8127C8.66245 12.2627 9.03745 12.6377 9.48745 12.6377H11.1375V13.3127H9.33745C8.88745 13.3127 8.51245 13.6877 8.51245 14.1377C8.51245 14.5877 8.88745 14.9627 9.33745 14.9627H11.1375V15.7502C11.1375 16.2002 11.5125 16.5752 11.9625 16.5752C12.4125 16.5752 12.7875 16.2002 12.7875 15.7502V15.0002H14.6625C15.1125 15.0002 15.4875 14.6252 15.4875 14.1752C15.4875 13.7252 15.225 13.3127 14.7375 13.3127Z" fill="#161A23"/>
</svg>
