<svg width="24" height="24" viewBox="0 0 24 24" fill="none" xmlns="http://www.w3.org/2000/svg">
<path d="M18.45 1.95004C18.675 1.53754 18.5625 1.05004 18.15 0.787537C17.7375 0.562537 17.25 0.675037 16.9875 1.08754L12 9.41254L7.01246 1.05004C6.78746 0.637537 6.26246 0.525037 5.84996 0.750037C5.43746 0.975037 5.32496 1.50004 5.54996 1.91254L11.175 11.25V12.075H7.23746C6.78746 12.075 6.41246 12.45 6.41246 12.9C6.41246 13.35 6.78746 13.725 7.23746 13.725H11.175V15.8625H7.23746C6.78746 15.8625 6.41246 16.2375 6.41246 16.6875C6.41246 17.1375 6.78746 17.5125 7.23746 17.5125H11.175V22.3875C11.175 22.8375 11.55 23.2125 12 23.2125C12.45 23.2125 12.825 22.8375 12.825 22.3875V17.625H16.7625C17.2125 17.625 17.5875 17.25 17.5875 16.8C17.5875 16.35 17.2125 15.975 16.7625 15.975H12.825V13.8375H16.7625C17.2125 13.8375 17.5875 13.4625 17.5875 13.0125C17.5875 12.5625 17.2125 12.1875 16.7625 12.1875H12.825V11.3625L18.45 1.95004Z" fill="#161A23"/>
</svg>
