<svg width="24" height="24" viewBox="0 0 24 24" fill="none" xmlns="http://www.w3.org/2000/svg">
<path d="M23.1375 6.41243C22.875 5.39993 22.0875 4.61243 21.075 4.34993C19.275 3.86243 12 3.86243 12 3.86243C12 3.86243 4.725 3.86243 2.925 4.34993C1.9125 4.61243 1.125 5.39993 0.8625 6.41243C0.375 8.24993 0.375 11.9999 0.375 11.9999C0.375 11.9999 0.375 15.7874 0.8625 17.5874C1.125 18.5999 1.9125 19.3874 2.925 19.6499C4.725 20.1374 12 20.1374 12 20.1374C12 20.1374 19.275 20.1374 21.075 19.6499C22.0875 19.3874 22.875 18.5999 23.1375 17.5874C23.625 15.7874 23.625 11.9999 23.625 11.9999C23.625 11.9999 23.625 8.24993 23.1375 6.41243ZM9.675 15.4874V8.51243L15.7125 11.9999L9.675 15.4874Z" fill="#15171A"/>
</svg>
