<svg width="24" height="24" viewBox="0 0 24 24" fill="none" xmlns="http://www.w3.org/2000/svg">
<g clip-path="url(#clip0_914_45546)">
<path d="M14.8215 12.0057C14.8215 12.8527 14.671 13.6927 14.377 14.4854C13.5963 14.7839 12.7689 14.937 11.9347 14.9372H11.9245C11.0903 14.9373 10.263 14.7843 9.48225 14.4857C9.1878 13.6929 9.03694 12.8526 9.03701 12.0053V11.9942C9.03701 11.1213 9.19477 10.2852 9.48045 9.51375C10.2612 9.21473 11.0889 9.0618 11.9235 9.06233H11.9329C12.7927 9.06233 13.6156 9.22253 14.3752 9.51375C14.6695 10.3066 14.8201 11.1469 14.8197 11.9942V12.0053H14.8207L14.8215 12.0057ZM23.3353 10.042H16.5841L21.3575 5.19364C20.6069 4.12301 19.6854 3.18735 18.631 2.42529L13.8569 7.27361V0.416569C13.2221 0.308118 12.5795 0.253424 11.9358 0.253052H11.9235C11.2685 0.253052 10.6271 0.309895 10.002 0.416569V7.27361L5.22679 2.42492C4.70089 2.80506 4.20731 3.22931 3.75124 3.6932L3.74905 3.69541C3.29298 4.15898 2.87564 4.66024 2.50137 5.19401L7.27657 10.042H0.523916C0.523916 10.042 0.363281 11.3302 0.363281 11.9961V12.0042C0.363281 12.6701 0.418886 13.3227 0.52428 13.9579H7.27691L2.50101 18.8055C3.25216 19.876 4.17375 20.8118 5.22787 21.5746L10.0023 16.7266V23.584C10.6267 23.6903 11.2671 23.7464 11.9213 23.7472H11.9376C12.5806 23.7466 13.2224 23.692 13.8565 23.584V16.7266L18.6314 21.5757C19.1573 21.1952 19.6512 20.771 20.108 20.3074H20.1091C20.565 19.8433 20.9821 19.3418 21.3564 18.8077L16.583 13.9583H23.3357C23.4403 13.3234 23.4956 12.673 23.4956 12.0086V11.9916C23.4956 11.3383 23.4418 10.6868 23.3357 10.0427L23.3353 10.042Z" fill="#15171A"/>
</g>
<defs>
<clipPath id="clip0_914_45546">
<rect width="24" height="24" fill="white"/>
</clipPath>
</defs>
</svg>
