<svg width="24" height="24" viewBox="0 0 24 24" fill="none" xmlns="http://www.w3.org/2000/svg">
<path d="M21.1125 4.34999H19.8375V3.52499C19.8375 1.94999 18.5625 0.674988 16.9875 0.674988H4.05001C2.47501 0.674988 1.20001 1.94999 1.20001 3.52499V15.0375C1.20001 15.5625 1.42501 16.05 1.80001 16.3875L8.62501 22.8375C8.96251 23.175 9.41251 23.325 9.90001 23.325H16.95C18.525 23.325 19.8 22.05 19.8 20.475V12.9375H21.075C21.6 12.9375 22.0125 12.525 22.0125 12V5.32499C22.05 4.79999 21.6375 4.34999 21.1125 4.34999ZM3.86251 16.05H8.62501C8.70001 16.05 8.77501 16.125 8.77501 16.2V20.6625L3.86251 16.05ZM18.15 20.475C18.15 21.1125 17.625 21.6375 16.9875 21.6375H10.5V16.2C10.5 15.1875 9.67501 14.3625 8.66251 14.3625H2.85001V3.52499C2.85001 2.88749 3.37501 2.36249 4.01251 2.36249H16.95C17.5875 2.36249 18.1125 2.88749 18.1125 3.52499V4.38749H6.78751C6.26251 4.38749 5.85001 4.79999 5.85001 5.32499V12C5.85001 12.525 6.26251 12.9375 6.78751 12.9375H18.15V20.475ZM14.4 7.23749V10.0875C14.4 10.6125 13.9875 11.025 13.4625 11.025C12.9375 11.025 12.525 10.6125 12.525 10.0875V7.23749C12.525 6.71249 12.9375 6.29999 13.4625 6.29999C13.9875 6.29999 14.4 6.71249 14.4 7.23749ZM11.55 10.0875C11.55 10.6125 11.1375 11.025 10.6125 11.025H9.00001C8.66251 11.025 8.32501 10.8375 8.17501 10.5375C8.02501 10.2375 8.02501 9.86249 8.21251 9.56249L9.07501 8.13749H8.73751C8.21251 8.13749 7.80001 7.72499 7.80001 7.19999C7.80001 6.67499 8.21251 6.26249 8.73751 6.26249H10.8C11.1375 6.26249 11.475 6.44999 11.625 6.74999C11.775 7.04999 11.775 7.42499 11.5875 7.72499L10.725 9.14999C11.175 9.18749 11.55 9.59999 11.55 10.0875ZM18.225 10.0875H17.2875C17.2875 10.6125 16.875 11.025 16.35 11.025C15.825 11.025 15.375 10.6125 15.375 10.0875V9.14999V7.23749C15.375 6.71249 15.7875 6.29999 16.3125 6.29999H18.225C19.275 6.29999 20.1375 7.16249 20.1375 8.21249C20.1375 9.22499 19.275 10.0875 18.225 10.0875Z" fill="#161A23"/>
</svg>
