<svg width="24" height="24" viewBox="0 0 24 24" fill="none" xmlns="http://www.w3.org/2000/svg">
<path d="M22.7456 6.90032C22.4872 6.75032 22.1548 6.75032 21.8964 6.93782L17.9456 9.52532C17.6133 9.75032 17.4287 10.0878 17.4287 10.5003V13.5003C17.4287 13.8753 17.6133 14.2503 17.9456 14.4753L21.8964 17.0628C22.0441 17.1378 22.1918 17.2129 22.3394 17.2129C22.4872 17.2129 22.5979 17.1753 22.7456 17.1003C23.0041 16.9503 23.1887 16.6503 23.1887 16.3503V7.65032C23.1887 7.31282 23.0041 7.05032 22.7456 6.90032ZM21.5272 14.8128L19.0902 13.2003V10.7628L21.5272 9.15032V14.8128Z" fill="#15171A"/>
<path d="M11.4838 5.96265H1.66222C1.21914 5.96265 0.812988 6.33765 0.812988 6.82515V13.8751C0.812988 16.1626 2.69607 18.0376 5.02222 18.0376H14.8438C15.2868 18.0376 15.693 17.6626 15.693 17.1751V10.1251C15.693 7.83765 13.8099 5.96265 11.4838 5.96265ZM14.0314 16.3501H5.02222C3.61914 16.3501 2.47453 15.2251 2.47453 13.8751V7.65015H11.4838C12.8868 7.65015 14.0314 8.77515 14.0314 10.1251V16.3501Z" fill="#15171A"/>
</svg>
