<svg width="24" height="24" viewBox="0 0 24 24" fill="none" xmlns="http://www.w3.org/2000/svg">
<g clip-path="url(#clip0_501_47613)">
<path d="M22.8375 21.6375L16.1625 14.9625C18.9375 11.5875 18.75 6.56252 15.6 3.41252C13.9875 1.80002 11.8125 0.900024 9.52499 0.900024C7.23749 0.900024 5.06249 1.80002 3.44999 3.41252C0.112494 6.75002 0.112494 12.225 3.44999 15.5625C5.06249 17.175 7.23749 18.075 9.52499 18.075C11.55 18.075 13.425 17.4 14.9625 16.125L21.6375 22.8C21.7875 22.95 22.0125 23.0625 22.2375 23.0625C22.4625 23.0625 22.6875 22.9875 22.8375 22.8C23.175 22.5 23.175 21.975 22.8375 21.6375ZM4.64999 14.4C1.94999 11.7 1.94999 7.31252 4.64999 4.61252C5.96249 3.30002 7.68749 2.58752 9.52499 2.58752C11.3625 2.58752 13.0875 3.30002 14.4 4.61252C17.1 7.31252 17.1 11.7 14.4 14.4C13.0875 15.7125 11.3625 16.425 9.52499 16.425C7.68749 16.425 5.92499 15.7125 4.64999 14.4Z" fill="#161A23"/>
<path d="M11.7375 8.66248H7.31248C6.86248 8.66248 6.44998 9.03748 6.44998 9.52498C6.44998 10.0125 6.82498 10.3875 7.31248 10.3875H11.7375C12.1875 10.3875 12.6 10.0125 12.6 9.52498C12.6 9.03748 12.1875 8.66248 11.7375 8.66248Z" fill="#161A23"/>
</g>
<defs>
<clipPath id="clip0_501_47613">
<rect width="24" height="24" fill="white"/>
</clipPath>
</defs>
</svg>
