<svg width="24" height="24" viewBox="0 0 24 24" fill="none" xmlns="http://www.w3.org/2000/svg">
<g clip-path="url(#clip0_501_47833)">
<path d="M22.875 19.125L17.5125 13.7625C16.9125 13.1625 15.9 13.1625 15.3 13.7625L15.15 13.9125L14.1 12.8625C15.15 11.55 15.75 9.9 15.75 8.175C15.75 6.15 14.9625 4.275 13.5375 2.85C10.6125 -0.0749999 5.81249 -0.0749999 2.88749 2.85C1.46249 4.275 0.674988 6.15 0.674988 8.175C0.674988 10.2 1.46249 12.075 2.88749 13.5C4.34999 14.9625 6.29999 15.7125 8.21249 15.7125C9.86249 15.7125 11.55 15.15 12.9 14.0625L13.95 15.1125L13.8 15.2625C13.5 15.5625 13.35 15.9375 13.35 16.3875C13.35 16.8 13.5 17.2125 13.8 17.5125L19.1625 22.875C19.4625 23.175 19.875 23.325 20.2875 23.325C20.7 23.325 21.075 23.175 21.4125 22.875L22.9125 21.375C23.2125 21.075 23.3625 20.7 23.3625 20.25C23.3625 19.8375 23.175 19.425 22.875 19.125ZM4.04999 12.3375C2.96249 11.25 2.32499 9.7875 2.32499 8.2125C2.32499 6.6375 2.92499 5.175 4.04999 4.0875C5.17499 2.9625 6.67499 2.3625 8.17499 2.3625C9.67499 2.3625 11.175 2.925 12.3 4.0875C13.3875 5.175 14.025 6.6375 14.025 8.2125C14.025 9.7875 13.425 11.25 12.3 12.3375C10.05 14.5875 6.33749 14.5875 4.04999 12.3375ZM20.25 21.6L15.0375 16.3875L16.3875 15.0375L21.6 20.25L20.25 21.6Z" fill="#161A23"/>
<path d="M10.0875 7.34998H6.26246C5.81246 7.34998 5.39996 7.72498 5.39996 8.21248C5.39996 8.69998 5.77496 9.07498 6.26246 9.07498H10.0875C10.5375 9.07498 10.95 8.69998 10.95 8.21248C10.95 7.72498 10.575 7.34998 10.0875 7.34998Z" fill="#161A23"/>
</g>
<defs>
<clipPath id="clip0_501_47833">
<rect width="24" height="24" fill="white"/>
</clipPath>
</defs>
</svg>
